G04 #@! TF.GenerationSoftware,KiCad,Pcbnew,(5.1.8-0-10_14)*
G04 #@! TF.CreationDate,2020-12-12T20:07:50+01:00*
G04 #@! TF.ProjectId,input-sel-v1,696e7075-742d-4736-956c-2d76312e6b69,rev?*
G04 #@! TF.SameCoordinates,Original*
G04 #@! TF.FileFunction,Copper,L2,Bot*
G04 #@! TF.FilePolarity,Positive*
%FSLAX46Y46*%
G04 Gerber Fmt 4.6, Leading zero omitted, Abs format (unit mm)*
G04 Created by KiCad (PCBNEW (5.1.8-0-10_14)) date 2020-12-12 20:07:50*
%MOMM*%
%LPD*%
G01*
G04 APERTURE LIST*
G04 #@! TA.AperFunction,ComponentPad*
%ADD10O,1.905000X2.000000*%
G04 #@! TD*
G04 #@! TA.AperFunction,ComponentPad*
%ADD11R,1.905000X2.000000*%
G04 #@! TD*
G04 #@! TA.AperFunction,ComponentPad*
%ADD12C,1.600000*%
G04 #@! TD*
G04 #@! TA.AperFunction,ComponentPad*
%ADD13R,1.600000X1.600000*%
G04 #@! TD*
G04 #@! TA.AperFunction,ComponentPad*
%ADD14C,2.400000*%
G04 #@! TD*
G04 #@! TA.AperFunction,ComponentPad*
%ADD15R,2.400000X2.400000*%
G04 #@! TD*
G04 #@! TA.AperFunction,ComponentPad*
%ADD16C,2.000000*%
G04 #@! TD*
G04 #@! TA.AperFunction,ComponentPad*
%ADD17O,1.700000X1.700000*%
G04 #@! TD*
G04 #@! TA.AperFunction,ComponentPad*
%ADD18R,1.700000X1.700000*%
G04 #@! TD*
G04 #@! TA.AperFunction,ComponentPad*
%ADD19C,1.308000*%
G04 #@! TD*
G04 #@! TA.AperFunction,ComponentPad*
%ADD20R,1.308000X1.308000*%
G04 #@! TD*
G04 #@! TA.AperFunction,ViaPad*
%ADD21C,0.800000*%
G04 #@! TD*
G04 #@! TA.AperFunction,ViaPad*
%ADD22C,0.600000*%
G04 #@! TD*
G04 #@! TA.AperFunction,Conductor*
%ADD23C,0.500000*%
G04 #@! TD*
G04 #@! TA.AperFunction,Conductor*
%ADD24C,0.250000*%
G04 #@! TD*
G04 #@! TA.AperFunction,Conductor*
%ADD25C,1.000000*%
G04 #@! TD*
G04 APERTURE END LIST*
D10*
X131826000Y-86106000D03*
X129286000Y-86106000D03*
D11*
X126746000Y-86106000D03*
D12*
X141097000Y-84836000D03*
D13*
X141097000Y-81336000D03*
D14*
X137541000Y-98091000D03*
D15*
X137541000Y-93091000D03*
D16*
X189865000Y-50800000D03*
X193040000Y-53975000D03*
X203200000Y-57150000D03*
X200025000Y-53975000D03*
X168910000Y-50800000D03*
X172085000Y-53975000D03*
X182245000Y-57150000D03*
X179070000Y-53975000D03*
X147955000Y-50800000D03*
X151130000Y-53975000D03*
X161290000Y-57150000D03*
X158115000Y-53975000D03*
X127000000Y-50800000D03*
X130175000Y-53975000D03*
X140335000Y-57150000D03*
X137160000Y-53975000D03*
X211455000Y-67310000D03*
X208280000Y-70485000D03*
X205105000Y-80010000D03*
X208280000Y-76835000D03*
D17*
X156845000Y-80010000D03*
X156845000Y-82550000D03*
X156845000Y-85090000D03*
X156845000Y-87630000D03*
X156845000Y-90170000D03*
D18*
X156845000Y-92710000D03*
D19*
X189865000Y-102870000D03*
X188595000Y-105410000D03*
X187325000Y-102870000D03*
X186055000Y-105410000D03*
X184785000Y-102870000D03*
X183515000Y-105410000D03*
X182245000Y-102870000D03*
X180975000Y-105410000D03*
X179705000Y-102870000D03*
D20*
X178435000Y-105410000D03*
D16*
X118745000Y-88900000D03*
X118745000Y-94615000D03*
X118745000Y-74930000D03*
X118745000Y-81280000D03*
X146685000Y-104140000D03*
X152400000Y-104140000D03*
X159512000Y-104140000D03*
X165227000Y-104140000D03*
D21*
X126746000Y-82550000D03*
X127762000Y-93091000D03*
X198120000Y-81915000D03*
X198120000Y-67945000D03*
X180975000Y-67945000D03*
X160020000Y-67945000D03*
X139065000Y-67945000D03*
X179070000Y-71120000D03*
D22*
X161036000Y-91186000D03*
X174879000Y-101854000D03*
X162433000Y-95123000D03*
X173355000Y-100457000D03*
D21*
X131826000Y-82550000D03*
X135890000Y-81280000D03*
D22*
X165100000Y-98425000D03*
X161036000Y-98425000D03*
X164338000Y-89916000D03*
X177800000Y-89916000D03*
X182880000Y-89916000D03*
X173990000Y-93091000D03*
X179070000Y-93091000D03*
X185547000Y-93091000D03*
X175006000Y-82931000D03*
X173482000Y-83439000D03*
X172972058Y-84075942D03*
X173355000Y-105410000D03*
X165100000Y-84328000D03*
X163830000Y-85090000D03*
X166370000Y-93091000D03*
D21*
X172720000Y-74930000D03*
X191135000Y-81915000D03*
D22*
X170815000Y-79883000D03*
X170815000Y-88646000D03*
X172212000Y-79883000D03*
X168910000Y-89281000D03*
D21*
X121793000Y-93091000D03*
X121793000Y-90551000D03*
D23*
X126746000Y-86106000D02*
X126746000Y-82550000D01*
X120015000Y-82550000D02*
X118745000Y-81280000D01*
X126746000Y-82550000D02*
X120015000Y-82550000D01*
X127762000Y-93091000D02*
X127000000Y-93091000D01*
X126746000Y-92837000D02*
X126746000Y-86106000D01*
X127000000Y-93091000D02*
X126746000Y-92837000D01*
X127762000Y-93091000D02*
X137541000Y-93091000D01*
X198120000Y-81915000D02*
X198120000Y-67945000D01*
X198120000Y-67945000D02*
X180975000Y-67945000D01*
X180975000Y-67945000D02*
X160020000Y-67945000D01*
X160020000Y-67945000D02*
X139065000Y-67945000D01*
X179070000Y-69850000D02*
X180975000Y-67945000D01*
X179070000Y-71120000D02*
X179070000Y-69850000D01*
X157861000Y-91186000D02*
X156845000Y-90170000D01*
X161036000Y-91186000D02*
X157861000Y-91186000D01*
D24*
X180303001Y-105410000D02*
X180975000Y-105410000D01*
X176747001Y-101854000D02*
X180303001Y-105410000D01*
X174879000Y-101854000D02*
X176747001Y-101854000D01*
X168021000Y-95123000D02*
X173355000Y-100457000D01*
X162433000Y-95123000D02*
X168021000Y-95123000D01*
D23*
X131826000Y-86106000D02*
X131826000Y-82550000D01*
X149931000Y-90170000D02*
X141097000Y-81336000D01*
X152400000Y-104140000D02*
X152400000Y-90170000D01*
X152400000Y-90170000D02*
X149931000Y-90170000D01*
X156845000Y-90170000D02*
X152400000Y-90170000D01*
X141041000Y-81280000D02*
X141097000Y-81336000D01*
X135890000Y-81280000D02*
X141041000Y-81280000D01*
X152400000Y-75565000D02*
X152400000Y-90170000D01*
X160020000Y-67945000D02*
X152400000Y-75565000D01*
D24*
X165132000Y-104045000D02*
X165227000Y-104140000D01*
X165100000Y-104013000D02*
X165227000Y-104140000D01*
X165100000Y-98425000D02*
X165100000Y-104013000D01*
X188595000Y-105410000D02*
X187198000Y-106807000D01*
X167894000Y-106807000D02*
X165227000Y-104140000D01*
X187198000Y-106807000D02*
X167894000Y-106807000D01*
X165100000Y-98425000D02*
X161036000Y-98425000D01*
X164338000Y-89916000D02*
X177800000Y-89916000D01*
X189865000Y-96476736D02*
X189865000Y-102870000D01*
X183304264Y-89916000D02*
X189865000Y-96476736D01*
X182880000Y-89916000D02*
X183304264Y-89916000D01*
X173990000Y-93091000D02*
X179070000Y-93091000D01*
X185547000Y-93091000D02*
X187325000Y-94869000D01*
X187325000Y-94869000D02*
X187325000Y-102870000D01*
X184785000Y-92710000D02*
X184785000Y-102870000D01*
X175006000Y-82931000D02*
X184785000Y-92710000D01*
X182245000Y-92202000D02*
X182245000Y-102870000D01*
X173482000Y-83439000D02*
X182245000Y-92202000D01*
X179705000Y-90808884D02*
X179705000Y-102870000D01*
X172972058Y-84075942D02*
X179705000Y-90808884D01*
X173355000Y-105410000D02*
X178435000Y-105410000D01*
X158623000Y-84328000D02*
X156845000Y-82550000D01*
X165100000Y-84328000D02*
X158623000Y-84328000D01*
X163830000Y-85090000D02*
X156845000Y-85090000D01*
X157226000Y-93091000D02*
X156845000Y-92710000D01*
X166370000Y-93091000D02*
X157226000Y-93091000D01*
D25*
X140335000Y-57150000D02*
X161290000Y-57150000D01*
X161290000Y-57150000D02*
X182880000Y-57150000D01*
X182880000Y-57150000D02*
X203200000Y-57150000D01*
X203200000Y-57150000D02*
X205105000Y-59055000D01*
X205105000Y-59055000D02*
X205105000Y-80010000D01*
X127000000Y-50800000D02*
X147955000Y-50800000D01*
X147955000Y-50800000D02*
X168910000Y-50800000D01*
X168910000Y-50800000D02*
X189865000Y-50800000D01*
X189865000Y-50800000D02*
X201930000Y-50800000D01*
X211455000Y-60325000D02*
X211455000Y-67310000D01*
X201930000Y-50800000D02*
X211455000Y-60325000D01*
D24*
X184150000Y-74930000D02*
X191135000Y-81915000D01*
X172720000Y-74930000D02*
X184150000Y-74930000D01*
X170815000Y-88646000D02*
X170815000Y-79883000D01*
X171105002Y-89281000D02*
X168910000Y-89281000D01*
X172212000Y-88174002D02*
X171105002Y-89281000D01*
X172212000Y-79883000D02*
X172212000Y-88174002D01*
D23*
X120269000Y-93091000D02*
X118745000Y-94615000D01*
X121793000Y-93091000D02*
X120269000Y-93091000D01*
X120396000Y-90551000D02*
X118745000Y-88900000D01*
X121793000Y-90551000D02*
X120396000Y-90551000D01*
M02*
