G04 #@! TF.GenerationSoftware,KiCad,Pcbnew,(5.1.9-0-10_14)*
G04 #@! TF.CreationDate,2021-04-21T19:16:31+02:00*
G04 #@! TF.ProjectId,xilinx-cpld-breakout,78696c69-6e78-42d6-9370-6c642d627265,rev?*
G04 #@! TF.SameCoordinates,Original*
G04 #@! TF.FileFunction,Copper,L1,Top*
G04 #@! TF.FilePolarity,Positive*
%FSLAX46Y46*%
G04 Gerber Fmt 4.6, Leading zero omitted, Abs format (unit mm)*
G04 Created by KiCad (PCBNEW (5.1.9-0-10_14)) date 2021-04-21 19:16:31*
%MOMM*%
%LPD*%
G01*
G04 APERTURE LIST*
G04 #@! TA.AperFunction,SMDPad,CuDef*
%ADD10C,0.100000*%
G04 #@! TD*
G04 #@! TA.AperFunction,ComponentPad*
%ADD11O,1.700000X1.700000*%
G04 #@! TD*
G04 #@! TA.AperFunction,ComponentPad*
%ADD12R,1.700000X1.700000*%
G04 #@! TD*
G04 #@! TA.AperFunction,ViaPad*
%ADD13C,0.600000*%
G04 #@! TD*
G04 #@! TA.AperFunction,ViaPad*
%ADD14C,0.800000*%
G04 #@! TD*
G04 #@! TA.AperFunction,Conductor*
%ADD15C,0.250000*%
G04 #@! TD*
G04 APERTURE END LIST*
G04 #@! TA.AperFunction,SMDPad,CuDef*
D10*
G36*
X108816206Y-127215848D02*
G01*
X108427298Y-126826940D01*
X109487958Y-125766280D01*
X109876866Y-126155188D01*
X108816206Y-127215848D01*
G37*
G04 #@! TD.AperFunction*
G04 #@! TA.AperFunction,SMDPad,CuDef*
G36*
X109381891Y-127781534D02*
G01*
X108992983Y-127392626D01*
X110053643Y-126331966D01*
X110442551Y-126720874D01*
X109381891Y-127781534D01*
G37*
G04 #@! TD.AperFunction*
G04 #@! TA.AperFunction,SMDPad,CuDef*
G36*
X109947576Y-128347219D02*
G01*
X109558668Y-127958311D01*
X110619328Y-126897651D01*
X111008236Y-127286559D01*
X109947576Y-128347219D01*
G37*
G04 #@! TD.AperFunction*
G04 #@! TA.AperFunction,SMDPad,CuDef*
G36*
X110513262Y-128912904D02*
G01*
X110124354Y-128523996D01*
X111185014Y-127463336D01*
X111573922Y-127852244D01*
X110513262Y-128912904D01*
G37*
G04 #@! TD.AperFunction*
G04 #@! TA.AperFunction,SMDPad,CuDef*
G36*
X111078947Y-129478590D02*
G01*
X110690039Y-129089682D01*
X111750699Y-128029022D01*
X112139607Y-128417930D01*
X111078947Y-129478590D01*
G37*
G04 #@! TD.AperFunction*
G04 #@! TA.AperFunction,SMDPad,CuDef*
G36*
X111644633Y-130044275D02*
G01*
X111255725Y-129655367D01*
X112316385Y-128594707D01*
X112705293Y-128983615D01*
X111644633Y-130044275D01*
G37*
G04 #@! TD.AperFunction*
G04 #@! TA.AperFunction,SMDPad,CuDef*
G36*
X112210318Y-130609961D02*
G01*
X111821410Y-130221053D01*
X112882070Y-129160393D01*
X113270978Y-129549301D01*
X112210318Y-130609961D01*
G37*
G04 #@! TD.AperFunction*
G04 #@! TA.AperFunction,SMDPad,CuDef*
G36*
X112776004Y-131175646D02*
G01*
X112387096Y-130786738D01*
X113447756Y-129726078D01*
X113836664Y-130114986D01*
X112776004Y-131175646D01*
G37*
G04 #@! TD.AperFunction*
G04 #@! TA.AperFunction,SMDPad,CuDef*
G36*
X113341689Y-131741332D02*
G01*
X112952781Y-131352424D01*
X114013441Y-130291764D01*
X114402349Y-130680672D01*
X113341689Y-131741332D01*
G37*
G04 #@! TD.AperFunction*
G04 #@! TA.AperFunction,SMDPad,CuDef*
G36*
X113907374Y-132307017D02*
G01*
X113518466Y-131918109D01*
X114579126Y-130857449D01*
X114968034Y-131246357D01*
X113907374Y-132307017D01*
G37*
G04 #@! TD.AperFunction*
G04 #@! TA.AperFunction,SMDPad,CuDef*
G36*
X114473060Y-132872702D02*
G01*
X114084152Y-132483794D01*
X115144812Y-131423134D01*
X115533720Y-131812042D01*
X114473060Y-132872702D01*
G37*
G04 #@! TD.AperFunction*
G04 #@! TA.AperFunction,SMDPad,CuDef*
G36*
X114084152Y-134216206D02*
G01*
X114473060Y-133827298D01*
X115533720Y-134887958D01*
X115144812Y-135276866D01*
X114084152Y-134216206D01*
G37*
G04 #@! TD.AperFunction*
G04 #@! TA.AperFunction,SMDPad,CuDef*
G36*
X113518466Y-134781891D02*
G01*
X113907374Y-134392983D01*
X114968034Y-135453643D01*
X114579126Y-135842551D01*
X113518466Y-134781891D01*
G37*
G04 #@! TD.AperFunction*
G04 #@! TA.AperFunction,SMDPad,CuDef*
G36*
X112952781Y-135347576D02*
G01*
X113341689Y-134958668D01*
X114402349Y-136019328D01*
X114013441Y-136408236D01*
X112952781Y-135347576D01*
G37*
G04 #@! TD.AperFunction*
G04 #@! TA.AperFunction,SMDPad,CuDef*
G36*
X112387096Y-135913262D02*
G01*
X112776004Y-135524354D01*
X113836664Y-136585014D01*
X113447756Y-136973922D01*
X112387096Y-135913262D01*
G37*
G04 #@! TD.AperFunction*
G04 #@! TA.AperFunction,SMDPad,CuDef*
G36*
X111821410Y-136478947D02*
G01*
X112210318Y-136090039D01*
X113270978Y-137150699D01*
X112882070Y-137539607D01*
X111821410Y-136478947D01*
G37*
G04 #@! TD.AperFunction*
G04 #@! TA.AperFunction,SMDPad,CuDef*
G36*
X111255725Y-137044633D02*
G01*
X111644633Y-136655725D01*
X112705293Y-137716385D01*
X112316385Y-138105293D01*
X111255725Y-137044633D01*
G37*
G04 #@! TD.AperFunction*
G04 #@! TA.AperFunction,SMDPad,CuDef*
G36*
X110690039Y-137610318D02*
G01*
X111078947Y-137221410D01*
X112139607Y-138282070D01*
X111750699Y-138670978D01*
X110690039Y-137610318D01*
G37*
G04 #@! TD.AperFunction*
G04 #@! TA.AperFunction,SMDPad,CuDef*
G36*
X110124354Y-138176004D02*
G01*
X110513262Y-137787096D01*
X111573922Y-138847756D01*
X111185014Y-139236664D01*
X110124354Y-138176004D01*
G37*
G04 #@! TD.AperFunction*
G04 #@! TA.AperFunction,SMDPad,CuDef*
G36*
X109558668Y-138741689D02*
G01*
X109947576Y-138352781D01*
X111008236Y-139413441D01*
X110619328Y-139802349D01*
X109558668Y-138741689D01*
G37*
G04 #@! TD.AperFunction*
G04 #@! TA.AperFunction,SMDPad,CuDef*
G36*
X108992983Y-139307374D02*
G01*
X109381891Y-138918466D01*
X110442551Y-139979126D01*
X110053643Y-140368034D01*
X108992983Y-139307374D01*
G37*
G04 #@! TD.AperFunction*
G04 #@! TA.AperFunction,SMDPad,CuDef*
G36*
X108427298Y-139873060D02*
G01*
X108816206Y-139484152D01*
X109876866Y-140544812D01*
X109487958Y-140933720D01*
X108427298Y-139873060D01*
G37*
G04 #@! TD.AperFunction*
G04 #@! TA.AperFunction,SMDPad,CuDef*
G36*
X106412042Y-140933720D02*
G01*
X106023134Y-140544812D01*
X107083794Y-139484152D01*
X107472702Y-139873060D01*
X106412042Y-140933720D01*
G37*
G04 #@! TD.AperFunction*
G04 #@! TA.AperFunction,SMDPad,CuDef*
G36*
X105846357Y-140368034D02*
G01*
X105457449Y-139979126D01*
X106518109Y-138918466D01*
X106907017Y-139307374D01*
X105846357Y-140368034D01*
G37*
G04 #@! TD.AperFunction*
G04 #@! TA.AperFunction,SMDPad,CuDef*
G36*
X105280672Y-139802349D02*
G01*
X104891764Y-139413441D01*
X105952424Y-138352781D01*
X106341332Y-138741689D01*
X105280672Y-139802349D01*
G37*
G04 #@! TD.AperFunction*
G04 #@! TA.AperFunction,SMDPad,CuDef*
G36*
X104714986Y-139236664D02*
G01*
X104326078Y-138847756D01*
X105386738Y-137787096D01*
X105775646Y-138176004D01*
X104714986Y-139236664D01*
G37*
G04 #@! TD.AperFunction*
G04 #@! TA.AperFunction,SMDPad,CuDef*
G36*
X104149301Y-138670978D02*
G01*
X103760393Y-138282070D01*
X104821053Y-137221410D01*
X105209961Y-137610318D01*
X104149301Y-138670978D01*
G37*
G04 #@! TD.AperFunction*
G04 #@! TA.AperFunction,SMDPad,CuDef*
G36*
X103583615Y-138105293D02*
G01*
X103194707Y-137716385D01*
X104255367Y-136655725D01*
X104644275Y-137044633D01*
X103583615Y-138105293D01*
G37*
G04 #@! TD.AperFunction*
G04 #@! TA.AperFunction,SMDPad,CuDef*
G36*
X103017930Y-137539607D02*
G01*
X102629022Y-137150699D01*
X103689682Y-136090039D01*
X104078590Y-136478947D01*
X103017930Y-137539607D01*
G37*
G04 #@! TD.AperFunction*
G04 #@! TA.AperFunction,SMDPad,CuDef*
G36*
X102452244Y-136973922D02*
G01*
X102063336Y-136585014D01*
X103123996Y-135524354D01*
X103512904Y-135913262D01*
X102452244Y-136973922D01*
G37*
G04 #@! TD.AperFunction*
G04 #@! TA.AperFunction,SMDPad,CuDef*
G36*
X101886559Y-136408236D02*
G01*
X101497651Y-136019328D01*
X102558311Y-134958668D01*
X102947219Y-135347576D01*
X101886559Y-136408236D01*
G37*
G04 #@! TD.AperFunction*
G04 #@! TA.AperFunction,SMDPad,CuDef*
G36*
X101320874Y-135842551D02*
G01*
X100931966Y-135453643D01*
X101992626Y-134392983D01*
X102381534Y-134781891D01*
X101320874Y-135842551D01*
G37*
G04 #@! TD.AperFunction*
G04 #@! TA.AperFunction,SMDPad,CuDef*
G36*
X100755188Y-135276866D02*
G01*
X100366280Y-134887958D01*
X101426940Y-133827298D01*
X101815848Y-134216206D01*
X100755188Y-135276866D01*
G37*
G04 #@! TD.AperFunction*
G04 #@! TA.AperFunction,SMDPad,CuDef*
G36*
X100366280Y-131812042D02*
G01*
X100755188Y-131423134D01*
X101815848Y-132483794D01*
X101426940Y-132872702D01*
X100366280Y-131812042D01*
G37*
G04 #@! TD.AperFunction*
G04 #@! TA.AperFunction,SMDPad,CuDef*
G36*
X100931966Y-131246357D02*
G01*
X101320874Y-130857449D01*
X102381534Y-131918109D01*
X101992626Y-132307017D01*
X100931966Y-131246357D01*
G37*
G04 #@! TD.AperFunction*
G04 #@! TA.AperFunction,SMDPad,CuDef*
G36*
X101497651Y-130680672D02*
G01*
X101886559Y-130291764D01*
X102947219Y-131352424D01*
X102558311Y-131741332D01*
X101497651Y-130680672D01*
G37*
G04 #@! TD.AperFunction*
G04 #@! TA.AperFunction,SMDPad,CuDef*
G36*
X102063336Y-130114986D02*
G01*
X102452244Y-129726078D01*
X103512904Y-130786738D01*
X103123996Y-131175646D01*
X102063336Y-130114986D01*
G37*
G04 #@! TD.AperFunction*
G04 #@! TA.AperFunction,SMDPad,CuDef*
G36*
X102629022Y-129549301D02*
G01*
X103017930Y-129160393D01*
X104078590Y-130221053D01*
X103689682Y-130609961D01*
X102629022Y-129549301D01*
G37*
G04 #@! TD.AperFunction*
G04 #@! TA.AperFunction,SMDPad,CuDef*
G36*
X103194707Y-128983615D02*
G01*
X103583615Y-128594707D01*
X104644275Y-129655367D01*
X104255367Y-130044275D01*
X103194707Y-128983615D01*
G37*
G04 #@! TD.AperFunction*
G04 #@! TA.AperFunction,SMDPad,CuDef*
G36*
X103760393Y-128417930D02*
G01*
X104149301Y-128029022D01*
X105209961Y-129089682D01*
X104821053Y-129478590D01*
X103760393Y-128417930D01*
G37*
G04 #@! TD.AperFunction*
G04 #@! TA.AperFunction,SMDPad,CuDef*
G36*
X104326078Y-127852244D02*
G01*
X104714986Y-127463336D01*
X105775646Y-128523996D01*
X105386738Y-128912904D01*
X104326078Y-127852244D01*
G37*
G04 #@! TD.AperFunction*
G04 #@! TA.AperFunction,SMDPad,CuDef*
G36*
X104891764Y-127286559D02*
G01*
X105280672Y-126897651D01*
X106341332Y-127958311D01*
X105952424Y-128347219D01*
X104891764Y-127286559D01*
G37*
G04 #@! TD.AperFunction*
G04 #@! TA.AperFunction,SMDPad,CuDef*
G36*
X105457449Y-126720874D02*
G01*
X105846357Y-126331966D01*
X106907017Y-127392626D01*
X106518109Y-127781534D01*
X105457449Y-126720874D01*
G37*
G04 #@! TD.AperFunction*
G04 #@! TA.AperFunction,SMDPad,CuDef*
G36*
X106023134Y-126155188D02*
G01*
X106412042Y-125766280D01*
X107472702Y-126826940D01*
X107083794Y-127215848D01*
X106023134Y-126155188D01*
G37*
G04 #@! TD.AperFunction*
D11*
X119380000Y-110490000D03*
X119380000Y-113030000D03*
X119380000Y-115570000D03*
X119380000Y-118110000D03*
X119380000Y-120650000D03*
X119380000Y-123190000D03*
X119380000Y-125730000D03*
X119380000Y-128270000D03*
X119380000Y-130810000D03*
X119380000Y-133350000D03*
X119380000Y-135890000D03*
X119380000Y-138430000D03*
X119380000Y-140970000D03*
X119380000Y-143510000D03*
X119380000Y-146050000D03*
X119380000Y-148590000D03*
X119380000Y-151130000D03*
X119380000Y-153670000D03*
X119380000Y-156210000D03*
D12*
X119380000Y-158750000D03*
D11*
X96520000Y-158750000D03*
X96520000Y-156210000D03*
X96520000Y-153670000D03*
X96520000Y-151130000D03*
X96520000Y-148590000D03*
X96520000Y-146050000D03*
X96520000Y-143510000D03*
X96520000Y-140970000D03*
X96520000Y-138430000D03*
X96520000Y-135890000D03*
X96520000Y-133350000D03*
X96520000Y-130810000D03*
X96520000Y-128270000D03*
X96520000Y-125730000D03*
X96520000Y-123190000D03*
X96520000Y-120650000D03*
X96520000Y-118110000D03*
X96520000Y-115570000D03*
X96520000Y-113030000D03*
D12*
X96520000Y-110490000D03*
G04 #@! TA.AperFunction,SMDPad,CuDef*
G36*
G01*
X108375000Y-153162500D02*
X108375000Y-152912500D01*
G75*
G02*
X108500000Y-152787500I125000J0D01*
G01*
X109675000Y-152787500D01*
G75*
G02*
X109800000Y-152912500I0J-125000D01*
G01*
X109800000Y-153162500D01*
G75*
G02*
X109675000Y-153287500I-125000J0D01*
G01*
X108500000Y-153287500D01*
G75*
G02*
X108375000Y-153162500I0J125000D01*
G01*
G37*
G04 #@! TD.AperFunction*
G04 #@! TA.AperFunction,SMDPad,CuDef*
G36*
G01*
X108375000Y-154112500D02*
X108375000Y-153862500D01*
G75*
G02*
X108500000Y-153737500I125000J0D01*
G01*
X109675000Y-153737500D01*
G75*
G02*
X109800000Y-153862500I0J-125000D01*
G01*
X109800000Y-154112500D01*
G75*
G02*
X109675000Y-154237500I-125000J0D01*
G01*
X108500000Y-154237500D01*
G75*
G02*
X108375000Y-154112500I0J125000D01*
G01*
G37*
G04 #@! TD.AperFunction*
G04 #@! TA.AperFunction,SMDPad,CuDef*
G36*
G01*
X108375000Y-155062500D02*
X108375000Y-154812500D01*
G75*
G02*
X108500000Y-154687500I125000J0D01*
G01*
X109675000Y-154687500D01*
G75*
G02*
X109800000Y-154812500I0J-125000D01*
G01*
X109800000Y-155062500D01*
G75*
G02*
X109675000Y-155187500I-125000J0D01*
G01*
X108500000Y-155187500D01*
G75*
G02*
X108375000Y-155062500I0J125000D01*
G01*
G37*
G04 #@! TD.AperFunction*
G04 #@! TA.AperFunction,SMDPad,CuDef*
G36*
G01*
X106100000Y-155062500D02*
X106100000Y-154812500D01*
G75*
G02*
X106225000Y-154687500I125000J0D01*
G01*
X107400000Y-154687500D01*
G75*
G02*
X107525000Y-154812500I0J-125000D01*
G01*
X107525000Y-155062500D01*
G75*
G02*
X107400000Y-155187500I-125000J0D01*
G01*
X106225000Y-155187500D01*
G75*
G02*
X106100000Y-155062500I0J125000D01*
G01*
G37*
G04 #@! TD.AperFunction*
G04 #@! TA.AperFunction,SMDPad,CuDef*
G36*
G01*
X106100000Y-154112500D02*
X106100000Y-153862500D01*
G75*
G02*
X106225000Y-153737500I125000J0D01*
G01*
X107400000Y-153737500D01*
G75*
G02*
X107525000Y-153862500I0J-125000D01*
G01*
X107525000Y-154112500D01*
G75*
G02*
X107400000Y-154237500I-125000J0D01*
G01*
X106225000Y-154237500D01*
G75*
G02*
X106100000Y-154112500I0J125000D01*
G01*
G37*
G04 #@! TD.AperFunction*
G04 #@! TA.AperFunction,SMDPad,CuDef*
G36*
G01*
X106100000Y-153162500D02*
X106100000Y-152912500D01*
G75*
G02*
X106225000Y-152787500I125000J0D01*
G01*
X107400000Y-152787500D01*
G75*
G02*
X107525000Y-152912500I0J-125000D01*
G01*
X107525000Y-153162500D01*
G75*
G02*
X107400000Y-153287500I-125000J0D01*
G01*
X106225000Y-153287500D01*
G75*
G02*
X106100000Y-153162500I0J125000D01*
G01*
G37*
G04 #@! TD.AperFunction*
D11*
X114300000Y-158750000D03*
X111760000Y-158750000D03*
X109220000Y-158750000D03*
X106680000Y-158750000D03*
X104140000Y-158750000D03*
D12*
X101600000Y-158750000D03*
D13*
X104965500Y-119189500D03*
X112966500Y-132842000D03*
X109601000Y-133286500D03*
X108140500Y-130873500D03*
X105410000Y-153987500D03*
X103949500Y-127127000D03*
X105156000Y-136144000D03*
D14*
X108774990Y-138430000D03*
D13*
X107315000Y-128524000D03*
X107315000Y-125095000D03*
X103865879Y-135171379D03*
X101346000Y-119126000D03*
X104140000Y-130683000D03*
X109982000Y-137668000D03*
X100012500Y-131064000D03*
X110553500Y-156019500D03*
X110553500Y-153035000D03*
X110717571Y-140675992D03*
X108674990Y-142748000D03*
X108674990Y-151765000D03*
X101092000Y-129857500D03*
X107424990Y-140652500D03*
X107424990Y-151765000D03*
X100565195Y-130459563D03*
X106799990Y-141732000D03*
X106799990Y-151066500D03*
X116078000Y-115570000D03*
X113792000Y-117729000D03*
D15*
X114243250Y-131582233D02*
X114226267Y-131582233D01*
X114226267Y-131582233D02*
X112966500Y-132842000D01*
X108102288Y-122326288D02*
X104965500Y-119189500D01*
X108102288Y-127977788D02*
X108102288Y-122326288D01*
X109537500Y-153987500D02*
X114300000Y-158750000D01*
X109087500Y-153987500D02*
X109537500Y-153987500D01*
X111442500Y-131445000D02*
X111569500Y-131445000D01*
X109601000Y-133286500D02*
X111442500Y-131445000D01*
X112966500Y-132842000D02*
X111569500Y-131445000D01*
X109537500Y-129476500D02*
X109601000Y-129476500D01*
X108140500Y-130873500D02*
X109537500Y-129476500D01*
X109601000Y-129476500D02*
X108102288Y-127977788D01*
X111569500Y-131445000D02*
X109601000Y-129476500D01*
X108375000Y-153987500D02*
X109087500Y-153987500D01*
X108049990Y-153662490D02*
X108375000Y-153987500D01*
X108049990Y-134837510D02*
X108049990Y-153662490D01*
X109601000Y-133286500D02*
X108049990Y-134837510D01*
X106812500Y-153987500D02*
X105410000Y-153987500D01*
X105010620Y-128188120D02*
X103949500Y-127127000D01*
X105050862Y-128188120D02*
X105010620Y-128188120D01*
X110283452Y-139077565D02*
X110283452Y-139112452D01*
X103919491Y-137380509D02*
X105156000Y-136144000D01*
X109635887Y-138430000D02*
X108774990Y-138430000D01*
X110283452Y-139077565D02*
X109635887Y-138430000D01*
X107315000Y-131722258D02*
X107315000Y-128524000D01*
X102788120Y-136249138D02*
X103865879Y-135171379D01*
X103865879Y-135171379D02*
X107315000Y-131722258D01*
X107315000Y-125095000D02*
X101346000Y-119126000D01*
X103353806Y-129896806D02*
X104140000Y-130683000D01*
X103353806Y-129885177D02*
X103353806Y-129896806D01*
X110825880Y-138511880D02*
X109982000Y-137668000D01*
X110849138Y-138511880D02*
X110825880Y-138511880D01*
X101091064Y-132142564D02*
X100012500Y-131064000D01*
X101091064Y-132147918D02*
X101091064Y-132142564D01*
X109220000Y-157353000D02*
X110553500Y-156019500D01*
X109220000Y-158750000D02*
X109220000Y-157353000D01*
X109090000Y-153035000D02*
X109087500Y-153037500D01*
X110553500Y-153035000D02*
X109090000Y-153035000D01*
X109717767Y-139676188D02*
X110717571Y-140675992D01*
X109717767Y-139643250D02*
X109717767Y-139676188D01*
X108674990Y-142748000D02*
X108674990Y-151765000D01*
X109087500Y-156342500D02*
X106680000Y-158750000D01*
X109087500Y-154937500D02*
X109087500Y-156342500D01*
X102222435Y-130987935D02*
X101092000Y-129857500D01*
X102222435Y-131016548D02*
X102222435Y-130987935D01*
X106812500Y-156077500D02*
X106812500Y-154937500D01*
X104140000Y-158750000D02*
X106812500Y-156077500D01*
X107424990Y-140652500D02*
X107424990Y-151765000D01*
X101656750Y-131551118D02*
X100565195Y-130459563D01*
X101656750Y-131582233D02*
X101656750Y-131551118D01*
X105434998Y-153037500D02*
X106812500Y-153037500D01*
X101600000Y-156872498D02*
X105434998Y-153037500D01*
X101600000Y-158750000D02*
X101600000Y-156872498D01*
X106799990Y-141732000D02*
X106799990Y-151066500D01*
X116078000Y-114592998D02*
X119380000Y-111290998D01*
X119380000Y-111290998D02*
X119380000Y-110490000D01*
X116078000Y-115570000D02*
X116078000Y-114592998D01*
X113792000Y-117729000D02*
X116586000Y-117729000D01*
X116586000Y-116624998D02*
X119380000Y-113830998D01*
X119380000Y-113830998D02*
X119380000Y-113030000D01*
X116586000Y-117729000D02*
X116586000Y-116624998D01*
X99256010Y-113226010D02*
X96520000Y-110490000D01*
X99256010Y-117925010D02*
X99256010Y-113226010D01*
X106747918Y-125416918D02*
X99256010Y-117925010D01*
X106747918Y-126491064D02*
X106747918Y-125416918D01*
X103324499Y-124914499D02*
X96520000Y-118110000D01*
X103324499Y-127593128D02*
X103324499Y-124914499D01*
X104485177Y-128753806D02*
X103324499Y-127593128D01*
X103774509Y-125780396D02*
X103774509Y-124285009D01*
X105616548Y-127622435D02*
X103774509Y-125780396D01*
X103774509Y-124285009D02*
X98298000Y-118808500D01*
X98298000Y-117348000D02*
X96520000Y-115570000D01*
X98298000Y-118808500D02*
X98298000Y-117348000D01*
X104224519Y-125116019D02*
X104224519Y-124036519D01*
X106165250Y-127056750D02*
X104224519Y-125116019D01*
X106182233Y-127056750D02*
X106165250Y-127056750D01*
X104224519Y-124036519D02*
X98806000Y-118618000D01*
X98806000Y-115316000D02*
X96520000Y-113030000D01*
X98806000Y-118618000D02*
X98806000Y-115316000D01*
X102788120Y-130450862D02*
X101028500Y-128691242D01*
X101028500Y-127698500D02*
X96520000Y-123190000D01*
X101028500Y-128691242D02*
X101028500Y-127698500D01*
X97695001Y-121825001D02*
X96520000Y-120650000D01*
X97695001Y-122812174D02*
X97695001Y-121825001D01*
X103919491Y-129036664D02*
X97695001Y-122812174D01*
X103919491Y-129319491D02*
X103919491Y-129036664D01*
X103215177Y-136814823D02*
X96520000Y-143510000D01*
X103353806Y-136814823D02*
X103215177Y-136814823D01*
X96935887Y-140970000D02*
X96520000Y-140970000D01*
X102222435Y-135683452D02*
X96935887Y-140970000D01*
X99348124Y-135601876D02*
X96520000Y-138430000D01*
X101172641Y-135601876D02*
X99348124Y-135601876D01*
X101656750Y-135117767D02*
X101172641Y-135601876D01*
X97857918Y-134552082D02*
X96520000Y-135890000D01*
X101091064Y-134552082D02*
X97857918Y-134552082D01*
X114808936Y-134552082D02*
X114867082Y-134552082D01*
X114867082Y-134552082D02*
X116078000Y-135763000D01*
X116078000Y-137668000D02*
X119380000Y-140970000D01*
X116078000Y-135763000D02*
X116078000Y-137668000D01*
X114808936Y-132147918D02*
X117157500Y-134496482D01*
X117157500Y-136207500D02*
X119380000Y-138430000D01*
X117157500Y-134496482D02*
X117157500Y-136207500D01*
X113677565Y-131016548D02*
X113677565Y-130987935D01*
X119380000Y-135198688D02*
X119380000Y-135890000D01*
X114713751Y-130532439D02*
X119380000Y-135198688D01*
X114133061Y-130532439D02*
X114713751Y-130532439D01*
X113677565Y-130987935D02*
X114133061Y-130532439D01*
X113111880Y-130450862D02*
X113135138Y-130450862D01*
X115996754Y-129966754D02*
X119380000Y-133350000D01*
X113619246Y-129966754D02*
X115996754Y-129966754D01*
X113135138Y-130450862D02*
X113619246Y-129966754D01*
X117971068Y-129401068D02*
X119380000Y-130810000D01*
X113030303Y-129401068D02*
X117971068Y-129401068D01*
X112546194Y-129885177D02*
X113030303Y-129401068D01*
X119380000Y-116263146D02*
X119380000Y-115570000D01*
X109152082Y-126491064D02*
X119380000Y-116263146D01*
X118664517Y-118110000D02*
X119380000Y-118110000D01*
X109717767Y-127056750D02*
X118664517Y-118110000D01*
X117255887Y-120650000D02*
X119380000Y-120650000D01*
X110283452Y-127622435D02*
X117255887Y-120650000D01*
X110849138Y-128188120D02*
X115847258Y-123190000D01*
X115847258Y-123190000D02*
X119380000Y-123190000D01*
X111414823Y-128753806D02*
X111466694Y-128753806D01*
X114490500Y-125730000D02*
X119380000Y-125730000D01*
X111466694Y-128753806D02*
X114490500Y-125730000D01*
X118814617Y-128835383D02*
X119380000Y-128270000D01*
X112464617Y-128835383D02*
X118814617Y-128835383D01*
X111980509Y-129319491D02*
X112464617Y-128835383D01*
X114243250Y-135117767D02*
X114289767Y-135117767D01*
X114289767Y-135117767D02*
X115443000Y-136271000D01*
X115443000Y-139573000D02*
X119380000Y-143510000D01*
X115443000Y-136271000D02*
X115443000Y-139573000D01*
X113677565Y-135683452D02*
X113712452Y-135683452D01*
X113712452Y-135683452D02*
X114935000Y-136906000D01*
X114935000Y-141605000D02*
X119380000Y-146050000D01*
X114935000Y-136906000D02*
X114935000Y-141605000D01*
X113111880Y-136249138D02*
X113135138Y-136249138D01*
X113135138Y-136249138D02*
X114300000Y-137414000D01*
X114300000Y-143510000D02*
X119380000Y-148590000D01*
X114300000Y-137414000D02*
X114300000Y-143510000D01*
X112546194Y-136814823D02*
X112557823Y-136814823D01*
X112557823Y-136814823D02*
X113665000Y-137922000D01*
X113665000Y-145415000D02*
X119380000Y-151130000D01*
X113665000Y-137922000D02*
X113665000Y-145415000D01*
X111980509Y-137380509D02*
X113030000Y-138430000D01*
X113030000Y-147320000D02*
X119380000Y-153670000D01*
X113030000Y-138430000D02*
X113030000Y-147320000D01*
X111414823Y-137946194D02*
X111414823Y-137957823D01*
X111414823Y-137957823D02*
X112522000Y-139065000D01*
X112522000Y-149352000D02*
X119380000Y-156210000D01*
X112522000Y-139065000D02*
X112522000Y-149352000D01*
X109152082Y-140208936D02*
X109220936Y-140208936D01*
X109220936Y-140208936D02*
X110617000Y-141605000D01*
X110617000Y-149987000D02*
X119380000Y-158750000D01*
X110617000Y-141605000D02*
X110617000Y-149987000D01*
X96520000Y-156210000D02*
X103632000Y-149098000D01*
X103632000Y-143324854D02*
X106747918Y-140208936D01*
X103632000Y-149098000D02*
X103632000Y-143324854D01*
X102235000Y-143590483D02*
X106182233Y-139643250D01*
X102235000Y-147955000D02*
X102235000Y-143590483D01*
X96520000Y-153670000D02*
X102235000Y-147955000D01*
X101784990Y-142909123D02*
X105616548Y-139077565D01*
X101784990Y-145865010D02*
X101784990Y-142909123D01*
X96520000Y-151130000D02*
X101784990Y-145865010D01*
X101334980Y-142227762D02*
X105050862Y-138511880D01*
X101334980Y-143775020D02*
X101334980Y-142227762D01*
X96520000Y-148590000D02*
X101334980Y-143775020D01*
X104485177Y-138084823D02*
X96520000Y-146050000D01*
X104485177Y-137946194D02*
X104485177Y-138084823D01*
M02*
