M48
; DRILL file {KiCad (5.1.9-0-10_14)} date Wednesday, April 21, 2021 at 07:16:47 PM
; FORMAT={-:-/ absolute / inch / decimal}
; #@! TF.CreationDate,2021-04-21T19:16:47+02:00
; #@! TF.GenerationSoftware,Kicad,Pcbnew,(5.1.9-0-10_14)
; #@! TF.FileFunction,Plated,1,2,PTH
FMAT,2
INCH
T1C0.0118
T2C0.0157
T3C0.0394
%
G90
G05
T1
X3.9375Y-5.16
X3.9593Y-5.1362
X3.98Y-5.1125
X3.99Y-4.69
X4.0892Y-5.3217
X4.0925Y-5.005
X4.1Y-5.145
X4.1325Y-4.6925
X4.14Y-5.36
X4.15Y-6.0625
X4.2047Y-5.58
X4.2047Y-5.9475
X4.225Y-4.925
X4.225Y-5.06
X4.2293Y-5.5375
X4.2293Y-5.975
X4.2575Y-5.1525
X4.2785Y-5.62
X4.2785Y-5.975
X4.315Y-5.2475
X4.33Y-5.42
X4.3525Y-6.025
X4.3525Y-6.1425
X4.359Y-5.5384
X4.4475Y-5.23
X4.48Y-4.635
X4.57Y-4.55
T2
X4.2825Y-5.45
T3
X3.8Y-4.35
X3.8Y-4.45
X3.8Y-4.55
X3.8Y-4.65
X3.8Y-4.75
X3.8Y-4.85
X3.8Y-4.95
X3.8Y-5.05
X3.8Y-5.15
X3.8Y-5.25
X3.8Y-5.35
X3.8Y-5.45
X3.8Y-5.55
X3.8Y-5.65
X3.8Y-5.75
X3.8Y-5.85
X3.8Y-5.95
X3.8Y-6.05
X3.8Y-6.15
X3.8Y-6.25
X4.0Y-6.25
X4.1Y-6.25
X4.2Y-6.25
X4.3Y-6.25
X4.4Y-6.25
X4.5Y-6.25
X4.7Y-4.35
X4.7Y-4.45
X4.7Y-4.55
X4.7Y-4.65
X4.7Y-4.75
X4.7Y-4.85
X4.7Y-4.95
X4.7Y-5.05
X4.7Y-5.15
X4.7Y-5.25
X4.7Y-5.35
X4.7Y-5.45
X4.7Y-5.55
X4.7Y-5.65
X4.7Y-5.75
X4.7Y-5.85
X4.7Y-5.95
X4.7Y-6.05
X4.7Y-6.15
X4.7Y-6.25
T0
M30
