G04 #@! TF.GenerationSoftware,KiCad,Pcbnew,5.1.10-88a1d61d58~88~ubuntu16.04.1*
G04 #@! TF.CreationDate,2021-06-04T11:38:26+02:00*
G04 #@! TF.ProjectId,spdif-coax-driver,73706469-662d-4636-9f61-782d64726976,rev?*
G04 #@! TF.SameCoordinates,Original*
G04 #@! TF.FileFunction,Copper,L1,Top*
G04 #@! TF.FilePolarity,Positive*
%FSLAX46Y46*%
G04 Gerber Fmt 4.6, Leading zero omitted, Abs format (unit mm)*
G04 Created by KiCad (PCBNEW 5.1.10-88a1d61d58~88~ubuntu16.04.1) date 2021-06-04 11:38:26*
%MOMM*%
%LPD*%
G01*
G04 APERTURE LIST*
G04 #@! TA.AperFunction,ComponentPad*
%ADD10C,2.000000*%
G04 #@! TD*
G04 #@! TA.AperFunction,SMDPad,CuDef*
%ADD11R,1.560000X0.650000*%
G04 #@! TD*
G04 #@! TA.AperFunction,ViaPad*
%ADD12C,0.600000*%
G04 #@! TD*
G04 #@! TA.AperFunction,Conductor*
%ADD13C,0.250000*%
G04 #@! TD*
G04 #@! TA.AperFunction,Conductor*
%ADD14C,0.254000*%
G04 #@! TD*
G04 #@! TA.AperFunction,Conductor*
%ADD15C,0.100000*%
G04 #@! TD*
G04 APERTURE END LIST*
D10*
X157797500Y-107696000D03*
D11*
X163267001Y-105777001D03*
X163267001Y-107677001D03*
X160567001Y-107677001D03*
X160567001Y-106727001D03*
X160567001Y-105777001D03*
G04 #@! TA.AperFunction,SMDPad,CuDef*
G36*
G01*
X163787000Y-109648000D02*
X163787000Y-109173000D01*
G75*
G02*
X164024500Y-108935500I237500J0D01*
G01*
X164524500Y-108935500D01*
G75*
G02*
X164762000Y-109173000I0J-237500D01*
G01*
X164762000Y-109648000D01*
G75*
G02*
X164524500Y-109885500I-237500J0D01*
G01*
X164024500Y-109885500D01*
G75*
G02*
X163787000Y-109648000I0J237500D01*
G01*
G37*
G04 #@! TD.AperFunction*
G04 #@! TA.AperFunction,SMDPad,CuDef*
G36*
G01*
X161962000Y-109648000D02*
X161962000Y-109173000D01*
G75*
G02*
X162199500Y-108935500I237500J0D01*
G01*
X162699500Y-108935500D01*
G75*
G02*
X162937000Y-109173000I0J-237500D01*
G01*
X162937000Y-109648000D01*
G75*
G02*
X162699500Y-109885500I-237500J0D01*
G01*
X162199500Y-109885500D01*
G75*
G02*
X161962000Y-109648000I0J237500D01*
G01*
G37*
G04 #@! TD.AperFunction*
G04 #@! TA.AperFunction,SMDPad,CuDef*
G36*
G01*
X166163000Y-108073000D02*
X165688000Y-108073000D01*
G75*
G02*
X165450500Y-107835500I0J237500D01*
G01*
X165450500Y-107335500D01*
G75*
G02*
X165688000Y-107098000I237500J0D01*
G01*
X166163000Y-107098000D01*
G75*
G02*
X166400500Y-107335500I0J-237500D01*
G01*
X166400500Y-107835500D01*
G75*
G02*
X166163000Y-108073000I-237500J0D01*
G01*
G37*
G04 #@! TD.AperFunction*
G04 #@! TA.AperFunction,SMDPad,CuDef*
G36*
G01*
X166163000Y-109898000D02*
X165688000Y-109898000D01*
G75*
G02*
X165450500Y-109660500I0J237500D01*
G01*
X165450500Y-109160500D01*
G75*
G02*
X165688000Y-108923000I237500J0D01*
G01*
X166163000Y-108923000D01*
G75*
G02*
X166400500Y-109160500I0J-237500D01*
G01*
X166400500Y-109660500D01*
G75*
G02*
X166163000Y-109898000I-237500J0D01*
G01*
G37*
G04 #@! TD.AperFunction*
D10*
X168973500Y-103886000D03*
X168973500Y-107696000D03*
X165735000Y-103378000D03*
X158750000Y-103378000D03*
G04 #@! TA.AperFunction,SMDPad,CuDef*
G36*
G01*
X165764500Y-105553500D02*
X165764500Y-106028500D01*
G75*
G02*
X165527000Y-106266000I-237500J0D01*
G01*
X164927000Y-106266000D01*
G75*
G02*
X164689500Y-106028500I0J237500D01*
G01*
X164689500Y-105553500D01*
G75*
G02*
X164927000Y-105316000I237500J0D01*
G01*
X165527000Y-105316000D01*
G75*
G02*
X165764500Y-105553500I0J-237500D01*
G01*
G37*
G04 #@! TD.AperFunction*
G04 #@! TA.AperFunction,SMDPad,CuDef*
G36*
G01*
X167489500Y-105553500D02*
X167489500Y-106028500D01*
G75*
G02*
X167252000Y-106266000I-237500J0D01*
G01*
X166652000Y-106266000D01*
G75*
G02*
X166414500Y-106028500I0J237500D01*
G01*
X166414500Y-105553500D01*
G75*
G02*
X166652000Y-105316000I237500J0D01*
G01*
X167252000Y-105316000D01*
G75*
G02*
X167489500Y-105553500I0J-237500D01*
G01*
G37*
G04 #@! TD.AperFunction*
D12*
X164592000Y-106743500D03*
X161861500Y-107696000D03*
X159194500Y-105791000D03*
X161861500Y-106743500D03*
D13*
X162449500Y-108494502D02*
X163267001Y-107677001D01*
X162449500Y-109410500D02*
X162449500Y-108494502D01*
X163658499Y-107677001D02*
X164592000Y-106743500D01*
X163267001Y-107677001D02*
X163658499Y-107677001D01*
X161880499Y-107677001D02*
X161861500Y-107696000D01*
X163267001Y-107677001D02*
X161880499Y-107677001D01*
X160553002Y-105791000D02*
X160567001Y-105777001D01*
X159194500Y-105791000D02*
X160553002Y-105791000D01*
X165213001Y-105777001D02*
X165227000Y-105791000D01*
X163267001Y-105777001D02*
X165213001Y-105777001D01*
X165925500Y-106817500D02*
X166952000Y-105791000D01*
X165925500Y-107585500D02*
X165925500Y-106817500D01*
X160548002Y-107696000D02*
X160567001Y-107677001D01*
X157797500Y-107696000D02*
X160548002Y-107696000D01*
X164274500Y-109410500D02*
X165925500Y-109410500D01*
X167259000Y-109410500D02*
X168973500Y-107696000D01*
X165925500Y-109410500D02*
X167259000Y-109410500D01*
X161845001Y-106727001D02*
X161861500Y-106743500D01*
X160567001Y-106727001D02*
X161845001Y-106727001D01*
D14*
X170155000Y-102946884D02*
X170108913Y-102930192D01*
X169153105Y-103886000D01*
X170108913Y-104841808D01*
X170155000Y-104825115D01*
X170155001Y-106565262D01*
X170015752Y-106426013D01*
X169747963Y-106247082D01*
X169450412Y-106123832D01*
X169134533Y-106061000D01*
X168812467Y-106061000D01*
X168496588Y-106123832D01*
X168199037Y-106247082D01*
X168070130Y-106333215D01*
X168110748Y-106199316D01*
X168127572Y-106028500D01*
X168127572Y-105553500D01*
X168110748Y-105382684D01*
X168060923Y-105218433D01*
X167980012Y-105067058D01*
X167976423Y-105062685D01*
X168017693Y-105021415D01*
X168113456Y-105285814D01*
X168403071Y-105426704D01*
X168714608Y-105508384D01*
X169036095Y-105527718D01*
X169355175Y-105483961D01*
X169659588Y-105378795D01*
X169833544Y-105285814D01*
X169929308Y-105021413D01*
X168973500Y-104065605D01*
X168959358Y-104079748D01*
X168779753Y-103900143D01*
X168793895Y-103886000D01*
X167838087Y-102930192D01*
X167573686Y-103025956D01*
X167432796Y-103315571D01*
X167360013Y-103593173D01*
X167376718Y-103315405D01*
X167332961Y-102996325D01*
X167248066Y-102750587D01*
X168017692Y-102750587D01*
X168973500Y-103706395D01*
X169929308Y-102750587D01*
X169833544Y-102486186D01*
X169543929Y-102345296D01*
X169232392Y-102263616D01*
X168910905Y-102244282D01*
X168591825Y-102288039D01*
X168287412Y-102393205D01*
X168113456Y-102486186D01*
X168017692Y-102750587D01*
X167248066Y-102750587D01*
X167227795Y-102691912D01*
X167134814Y-102517956D01*
X166870413Y-102422192D01*
X165914605Y-103378000D01*
X166870413Y-104333808D01*
X167134814Y-104238044D01*
X167275704Y-103948429D01*
X167348487Y-103670827D01*
X167331782Y-103948595D01*
X167375539Y-104267675D01*
X167480705Y-104572088D01*
X167570161Y-104739449D01*
X167422816Y-104694752D01*
X167252000Y-104677928D01*
X166652000Y-104677928D01*
X166630453Y-104680050D01*
X166690808Y-104513413D01*
X165735000Y-103557605D01*
X164779192Y-104513413D01*
X164841817Y-104686318D01*
X164756184Y-104694752D01*
X164591933Y-104744577D01*
X164440558Y-104825488D01*
X164354330Y-104896254D01*
X164291181Y-104862499D01*
X164171483Y-104826189D01*
X164047001Y-104813929D01*
X162487001Y-104813929D01*
X162362519Y-104826189D01*
X162242821Y-104862499D01*
X162132507Y-104921464D01*
X162035816Y-105000816D01*
X161956464Y-105097507D01*
X161917001Y-105171336D01*
X161877538Y-105097507D01*
X161798186Y-105000816D01*
X161701495Y-104921464D01*
X161591181Y-104862499D01*
X161471483Y-104826189D01*
X161347001Y-104813929D01*
X160852751Y-104817001D01*
X160694001Y-104975751D01*
X160694001Y-105650001D01*
X160714001Y-105650001D01*
X160714001Y-105763929D01*
X159787001Y-105763929D01*
X159662519Y-105776189D01*
X159542821Y-105812499D01*
X159432507Y-105871464D01*
X159392860Y-105904001D01*
X159310751Y-105904001D01*
X159152001Y-106062751D01*
X159148929Y-106102001D01*
X159161189Y-106226483D01*
X159168930Y-106252001D01*
X159161189Y-106277519D01*
X159148929Y-106402001D01*
X159148929Y-106775634D01*
X159067487Y-106653748D01*
X158839752Y-106426013D01*
X158571963Y-106247082D01*
X158274412Y-106123832D01*
X157958533Y-106061000D01*
X157636467Y-106061000D01*
X157320588Y-106123832D01*
X157023037Y-106247082D01*
X156755248Y-106426013D01*
X156527513Y-106653748D01*
X156348582Y-106921537D01*
X156225332Y-107219088D01*
X156162500Y-107534967D01*
X156162500Y-107857033D01*
X156225332Y-108172912D01*
X156348582Y-108470463D01*
X156527513Y-108738252D01*
X156755248Y-108965987D01*
X157023037Y-109144918D01*
X157320588Y-109268168D01*
X157636467Y-109331000D01*
X157958533Y-109331000D01*
X158274412Y-109268168D01*
X158571963Y-109144918D01*
X158839752Y-108965987D01*
X159067487Y-108738252D01*
X159246418Y-108470463D01*
X159252409Y-108456000D01*
X159339245Y-108456000D01*
X159432507Y-108532538D01*
X159542821Y-108591503D01*
X159662519Y-108627813D01*
X159787001Y-108640073D01*
X161347001Y-108640073D01*
X161402830Y-108634575D01*
X161372498Y-108691320D01*
X161336188Y-108811018D01*
X161323928Y-108935500D01*
X161327000Y-109124750D01*
X161485750Y-109283500D01*
X162322500Y-109283500D01*
X162322500Y-109263500D01*
X162576500Y-109263500D01*
X162576500Y-109283500D01*
X162596500Y-109283500D01*
X162596500Y-109537500D01*
X162576500Y-109537500D01*
X162576500Y-109557500D01*
X162322500Y-109557500D01*
X162322500Y-109537500D01*
X161485750Y-109537500D01*
X161327000Y-109696250D01*
X161324829Y-109830000D01*
X155600000Y-109830000D01*
X155600000Y-105452001D01*
X159148929Y-105452001D01*
X159152001Y-105491251D01*
X159310751Y-105650001D01*
X160440001Y-105650001D01*
X160440001Y-104975751D01*
X160281251Y-104817001D01*
X159787001Y-104813929D01*
X159662519Y-104826189D01*
X159542821Y-104862499D01*
X159432507Y-104921464D01*
X159335816Y-105000816D01*
X159256464Y-105097507D01*
X159197499Y-105207821D01*
X159161189Y-105327519D01*
X159148929Y-105452001D01*
X155600000Y-105452001D01*
X155600000Y-103216967D01*
X157115000Y-103216967D01*
X157115000Y-103539033D01*
X157177832Y-103854912D01*
X157301082Y-104152463D01*
X157480013Y-104420252D01*
X157707748Y-104647987D01*
X157975537Y-104826918D01*
X158273088Y-104950168D01*
X158588967Y-105013000D01*
X158911033Y-105013000D01*
X159226912Y-104950168D01*
X159524463Y-104826918D01*
X159792252Y-104647987D01*
X160019987Y-104420252D01*
X160198918Y-104152463D01*
X160322168Y-103854912D01*
X160385000Y-103539033D01*
X160385000Y-103440595D01*
X164093282Y-103440595D01*
X164137039Y-103759675D01*
X164242205Y-104064088D01*
X164335186Y-104238044D01*
X164599587Y-104333808D01*
X165555395Y-103378000D01*
X164599587Y-102422192D01*
X164335186Y-102517956D01*
X164194296Y-102807571D01*
X164112616Y-103119108D01*
X164093282Y-103440595D01*
X160385000Y-103440595D01*
X160385000Y-103216967D01*
X160322168Y-102901088D01*
X160198918Y-102603537D01*
X160019987Y-102335748D01*
X159926826Y-102242587D01*
X164779192Y-102242587D01*
X165735000Y-103198395D01*
X166690808Y-102242587D01*
X166595044Y-101978186D01*
X166305429Y-101837296D01*
X165993892Y-101755616D01*
X165672405Y-101736282D01*
X165353325Y-101780039D01*
X165048912Y-101885205D01*
X164874956Y-101978186D01*
X164779192Y-102242587D01*
X159926826Y-102242587D01*
X159792252Y-102108013D01*
X159524463Y-101929082D01*
X159226912Y-101805832D01*
X158911033Y-101743000D01*
X158588967Y-101743000D01*
X158273088Y-101805832D01*
X157975537Y-101929082D01*
X157707748Y-102108013D01*
X157480013Y-102335748D01*
X157301082Y-102603537D01*
X157177832Y-102901088D01*
X157115000Y-103216967D01*
X155600000Y-103216967D01*
X155600000Y-101625000D01*
X170155000Y-101625000D01*
X170155000Y-102946884D01*
G04 #@! TA.AperFunction,Conductor*
D15*
G36*
X170155000Y-102946884D02*
G01*
X170108913Y-102930192D01*
X169153105Y-103886000D01*
X170108913Y-104841808D01*
X170155000Y-104825115D01*
X170155001Y-106565262D01*
X170015752Y-106426013D01*
X169747963Y-106247082D01*
X169450412Y-106123832D01*
X169134533Y-106061000D01*
X168812467Y-106061000D01*
X168496588Y-106123832D01*
X168199037Y-106247082D01*
X168070130Y-106333215D01*
X168110748Y-106199316D01*
X168127572Y-106028500D01*
X168127572Y-105553500D01*
X168110748Y-105382684D01*
X168060923Y-105218433D01*
X167980012Y-105067058D01*
X167976423Y-105062685D01*
X168017693Y-105021415D01*
X168113456Y-105285814D01*
X168403071Y-105426704D01*
X168714608Y-105508384D01*
X169036095Y-105527718D01*
X169355175Y-105483961D01*
X169659588Y-105378795D01*
X169833544Y-105285814D01*
X169929308Y-105021413D01*
X168973500Y-104065605D01*
X168959358Y-104079748D01*
X168779753Y-103900143D01*
X168793895Y-103886000D01*
X167838087Y-102930192D01*
X167573686Y-103025956D01*
X167432796Y-103315571D01*
X167360013Y-103593173D01*
X167376718Y-103315405D01*
X167332961Y-102996325D01*
X167248066Y-102750587D01*
X168017692Y-102750587D01*
X168973500Y-103706395D01*
X169929308Y-102750587D01*
X169833544Y-102486186D01*
X169543929Y-102345296D01*
X169232392Y-102263616D01*
X168910905Y-102244282D01*
X168591825Y-102288039D01*
X168287412Y-102393205D01*
X168113456Y-102486186D01*
X168017692Y-102750587D01*
X167248066Y-102750587D01*
X167227795Y-102691912D01*
X167134814Y-102517956D01*
X166870413Y-102422192D01*
X165914605Y-103378000D01*
X166870413Y-104333808D01*
X167134814Y-104238044D01*
X167275704Y-103948429D01*
X167348487Y-103670827D01*
X167331782Y-103948595D01*
X167375539Y-104267675D01*
X167480705Y-104572088D01*
X167570161Y-104739449D01*
X167422816Y-104694752D01*
X167252000Y-104677928D01*
X166652000Y-104677928D01*
X166630453Y-104680050D01*
X166690808Y-104513413D01*
X165735000Y-103557605D01*
X164779192Y-104513413D01*
X164841817Y-104686318D01*
X164756184Y-104694752D01*
X164591933Y-104744577D01*
X164440558Y-104825488D01*
X164354330Y-104896254D01*
X164291181Y-104862499D01*
X164171483Y-104826189D01*
X164047001Y-104813929D01*
X162487001Y-104813929D01*
X162362519Y-104826189D01*
X162242821Y-104862499D01*
X162132507Y-104921464D01*
X162035816Y-105000816D01*
X161956464Y-105097507D01*
X161917001Y-105171336D01*
X161877538Y-105097507D01*
X161798186Y-105000816D01*
X161701495Y-104921464D01*
X161591181Y-104862499D01*
X161471483Y-104826189D01*
X161347001Y-104813929D01*
X160852751Y-104817001D01*
X160694001Y-104975751D01*
X160694001Y-105650001D01*
X160714001Y-105650001D01*
X160714001Y-105763929D01*
X159787001Y-105763929D01*
X159662519Y-105776189D01*
X159542821Y-105812499D01*
X159432507Y-105871464D01*
X159392860Y-105904001D01*
X159310751Y-105904001D01*
X159152001Y-106062751D01*
X159148929Y-106102001D01*
X159161189Y-106226483D01*
X159168930Y-106252001D01*
X159161189Y-106277519D01*
X159148929Y-106402001D01*
X159148929Y-106775634D01*
X159067487Y-106653748D01*
X158839752Y-106426013D01*
X158571963Y-106247082D01*
X158274412Y-106123832D01*
X157958533Y-106061000D01*
X157636467Y-106061000D01*
X157320588Y-106123832D01*
X157023037Y-106247082D01*
X156755248Y-106426013D01*
X156527513Y-106653748D01*
X156348582Y-106921537D01*
X156225332Y-107219088D01*
X156162500Y-107534967D01*
X156162500Y-107857033D01*
X156225332Y-108172912D01*
X156348582Y-108470463D01*
X156527513Y-108738252D01*
X156755248Y-108965987D01*
X157023037Y-109144918D01*
X157320588Y-109268168D01*
X157636467Y-109331000D01*
X157958533Y-109331000D01*
X158274412Y-109268168D01*
X158571963Y-109144918D01*
X158839752Y-108965987D01*
X159067487Y-108738252D01*
X159246418Y-108470463D01*
X159252409Y-108456000D01*
X159339245Y-108456000D01*
X159432507Y-108532538D01*
X159542821Y-108591503D01*
X159662519Y-108627813D01*
X159787001Y-108640073D01*
X161347001Y-108640073D01*
X161402830Y-108634575D01*
X161372498Y-108691320D01*
X161336188Y-108811018D01*
X161323928Y-108935500D01*
X161327000Y-109124750D01*
X161485750Y-109283500D01*
X162322500Y-109283500D01*
X162322500Y-109263500D01*
X162576500Y-109263500D01*
X162576500Y-109283500D01*
X162596500Y-109283500D01*
X162596500Y-109537500D01*
X162576500Y-109537500D01*
X162576500Y-109557500D01*
X162322500Y-109557500D01*
X162322500Y-109537500D01*
X161485750Y-109537500D01*
X161327000Y-109696250D01*
X161324829Y-109830000D01*
X155600000Y-109830000D01*
X155600000Y-105452001D01*
X159148929Y-105452001D01*
X159152001Y-105491251D01*
X159310751Y-105650001D01*
X160440001Y-105650001D01*
X160440001Y-104975751D01*
X160281251Y-104817001D01*
X159787001Y-104813929D01*
X159662519Y-104826189D01*
X159542821Y-104862499D01*
X159432507Y-104921464D01*
X159335816Y-105000816D01*
X159256464Y-105097507D01*
X159197499Y-105207821D01*
X159161189Y-105327519D01*
X159148929Y-105452001D01*
X155600000Y-105452001D01*
X155600000Y-103216967D01*
X157115000Y-103216967D01*
X157115000Y-103539033D01*
X157177832Y-103854912D01*
X157301082Y-104152463D01*
X157480013Y-104420252D01*
X157707748Y-104647987D01*
X157975537Y-104826918D01*
X158273088Y-104950168D01*
X158588967Y-105013000D01*
X158911033Y-105013000D01*
X159226912Y-104950168D01*
X159524463Y-104826918D01*
X159792252Y-104647987D01*
X160019987Y-104420252D01*
X160198918Y-104152463D01*
X160322168Y-103854912D01*
X160385000Y-103539033D01*
X160385000Y-103440595D01*
X164093282Y-103440595D01*
X164137039Y-103759675D01*
X164242205Y-104064088D01*
X164335186Y-104238044D01*
X164599587Y-104333808D01*
X165555395Y-103378000D01*
X164599587Y-102422192D01*
X164335186Y-102517956D01*
X164194296Y-102807571D01*
X164112616Y-103119108D01*
X164093282Y-103440595D01*
X160385000Y-103440595D01*
X160385000Y-103216967D01*
X160322168Y-102901088D01*
X160198918Y-102603537D01*
X160019987Y-102335748D01*
X159926826Y-102242587D01*
X164779192Y-102242587D01*
X165735000Y-103198395D01*
X166690808Y-102242587D01*
X166595044Y-101978186D01*
X166305429Y-101837296D01*
X165993892Y-101755616D01*
X165672405Y-101736282D01*
X165353325Y-101780039D01*
X165048912Y-101885205D01*
X164874956Y-101978186D01*
X164779192Y-102242587D01*
X159926826Y-102242587D01*
X159792252Y-102108013D01*
X159524463Y-101929082D01*
X159226912Y-101805832D01*
X158911033Y-101743000D01*
X158588967Y-101743000D01*
X158273088Y-101805832D01*
X157975537Y-101929082D01*
X157707748Y-102108013D01*
X157480013Y-102335748D01*
X157301082Y-102603537D01*
X157177832Y-102901088D01*
X157115000Y-103216967D01*
X155600000Y-103216967D01*
X155600000Y-101625000D01*
X170155000Y-101625000D01*
X170155000Y-102946884D01*
G37*
G04 #@! TD.AperFunction*
D14*
X164440558Y-106756512D02*
X164591933Y-106837423D01*
X164756184Y-106887248D01*
X164927000Y-106904072D01*
X164930583Y-106904072D01*
X164879077Y-107000433D01*
X164829252Y-107164684D01*
X164812428Y-107335500D01*
X164812428Y-107835500D01*
X164829252Y-108006316D01*
X164879077Y-108170567D01*
X164959988Y-108321942D01*
X165068877Y-108454623D01*
X165121732Y-108498000D01*
X165098634Y-108516956D01*
X165010942Y-108444988D01*
X164859567Y-108364077D01*
X164695316Y-108314252D01*
X164604879Y-108305345D01*
X164636503Y-108246181D01*
X164672813Y-108126483D01*
X164685073Y-108002001D01*
X164682001Y-107962751D01*
X164523251Y-107804001D01*
X163394001Y-107804001D01*
X163394001Y-107824001D01*
X163140001Y-107824001D01*
X163140001Y-107804001D01*
X163120001Y-107804001D01*
X163120001Y-107550001D01*
X163140001Y-107550001D01*
X163140001Y-107530001D01*
X163394001Y-107530001D01*
X163394001Y-107550001D01*
X164523251Y-107550001D01*
X164682001Y-107391251D01*
X164685073Y-107352001D01*
X164672813Y-107227519D01*
X164636503Y-107107821D01*
X164577538Y-106997507D01*
X164498186Y-106900816D01*
X164401495Y-106821464D01*
X164291181Y-106762499D01*
X164174160Y-106727001D01*
X164291181Y-106691503D01*
X164333671Y-106668791D01*
X164440558Y-106756512D01*
G04 #@! TA.AperFunction,Conductor*
D15*
G36*
X164440558Y-106756512D02*
G01*
X164591933Y-106837423D01*
X164756184Y-106887248D01*
X164927000Y-106904072D01*
X164930583Y-106904072D01*
X164879077Y-107000433D01*
X164829252Y-107164684D01*
X164812428Y-107335500D01*
X164812428Y-107835500D01*
X164829252Y-108006316D01*
X164879077Y-108170567D01*
X164959988Y-108321942D01*
X165068877Y-108454623D01*
X165121732Y-108498000D01*
X165098634Y-108516956D01*
X165010942Y-108444988D01*
X164859567Y-108364077D01*
X164695316Y-108314252D01*
X164604879Y-108305345D01*
X164636503Y-108246181D01*
X164672813Y-108126483D01*
X164685073Y-108002001D01*
X164682001Y-107962751D01*
X164523251Y-107804001D01*
X163394001Y-107804001D01*
X163394001Y-107824001D01*
X163140001Y-107824001D01*
X163140001Y-107804001D01*
X163120001Y-107804001D01*
X163120001Y-107550001D01*
X163140001Y-107550001D01*
X163140001Y-107530001D01*
X163394001Y-107530001D01*
X163394001Y-107550001D01*
X164523251Y-107550001D01*
X164682001Y-107391251D01*
X164685073Y-107352001D01*
X164672813Y-107227519D01*
X164636503Y-107107821D01*
X164577538Y-106997507D01*
X164498186Y-106900816D01*
X164401495Y-106821464D01*
X164291181Y-106762499D01*
X164174160Y-106727001D01*
X164291181Y-106691503D01*
X164333671Y-106668791D01*
X164440558Y-106756512D01*
G37*
G04 #@! TD.AperFunction*
M02*
