G04 #@! TF.GenerationSoftware,KiCad,Pcbnew,(5.1.10-0-10_14)*
G04 #@! TF.CreationDate,2021-07-29T19:18:23+02:00*
G04 #@! TF.ProjectId,pre-amp-discret,7072652d-616d-4702-9d64-697363726574,rev?*
G04 #@! TF.SameCoordinates,Original*
G04 #@! TF.FileFunction,Soldermask,Top*
G04 #@! TF.FilePolarity,Negative*
%FSLAX46Y46*%
G04 Gerber Fmt 4.6, Leading zero omitted, Abs format (unit mm)*
G04 Created by KiCad (PCBNEW (5.1.10-0-10_14)) date 2021-07-29 19:18:23*
%MOMM*%
%LPD*%
G01*
G04 APERTURE LIST*
%ADD10C,1.600000*%
%ADD11R,1.600000X1.600000*%
%ADD12R,0.800000X0.900000*%
%ADD13R,0.900000X0.800000*%
%ADD14R,0.650000X1.220000*%
%ADD15C,2.000000*%
%ADD16C,3.200000*%
G04 APERTURE END LIST*
D10*
X182270400Y-137414000D03*
D11*
X182270400Y-140914000D03*
D10*
X182270400Y-102722800D03*
D11*
X182270400Y-106222800D03*
G36*
G01*
X172031600Y-136914800D02*
X172031600Y-138014800D01*
G75*
G02*
X171781600Y-138264800I-250000J0D01*
G01*
X168781600Y-138264800D01*
G75*
G02*
X168531600Y-138014800I0J250000D01*
G01*
X168531600Y-136914800D01*
G75*
G02*
X168781600Y-136664800I250000J0D01*
G01*
X171781600Y-136664800D01*
G75*
G02*
X172031600Y-136914800I0J-250000D01*
G01*
G37*
G36*
G01*
X177431600Y-136914800D02*
X177431600Y-138014800D01*
G75*
G02*
X177181600Y-138264800I-250000J0D01*
G01*
X174181600Y-138264800D01*
G75*
G02*
X173931600Y-138014800I0J250000D01*
G01*
X173931600Y-136914800D01*
G75*
G02*
X174181600Y-136664800I250000J0D01*
G01*
X177181600Y-136664800D01*
G75*
G02*
X177431600Y-136914800I0J-250000D01*
G01*
G37*
G36*
G01*
X174134800Y-106772800D02*
X174134800Y-105672800D01*
G75*
G02*
X174384800Y-105422800I250000J0D01*
G01*
X177384800Y-105422800D01*
G75*
G02*
X177634800Y-105672800I0J-250000D01*
G01*
X177634800Y-106772800D01*
G75*
G02*
X177384800Y-107022800I-250000J0D01*
G01*
X174384800Y-107022800D01*
G75*
G02*
X174134800Y-106772800I0J250000D01*
G01*
G37*
G36*
G01*
X168734800Y-106772800D02*
X168734800Y-105672800D01*
G75*
G02*
X168984800Y-105422800I250000J0D01*
G01*
X171984800Y-105422800D01*
G75*
G02*
X172234800Y-105672800I0J-250000D01*
G01*
X172234800Y-106772800D01*
G75*
G02*
X171984800Y-107022800I-250000J0D01*
G01*
X168984800Y-107022800D01*
G75*
G02*
X168734800Y-106772800I0J250000D01*
G01*
G37*
G36*
G01*
X164263100Y-136364799D02*
X164263100Y-138564801D01*
G75*
G02*
X164013101Y-138814800I-249999J0D01*
G01*
X163188099Y-138814800D01*
G75*
G02*
X162938100Y-138564801I0J249999D01*
G01*
X162938100Y-136364799D01*
G75*
G02*
X163188099Y-136114800I249999J0D01*
G01*
X164013101Y-136114800D01*
G75*
G02*
X164263100Y-136364799I0J-249999D01*
G01*
G37*
G36*
G01*
X167388100Y-136364799D02*
X167388100Y-138564801D01*
G75*
G02*
X167138101Y-138814800I-249999J0D01*
G01*
X166313099Y-138814800D01*
G75*
G02*
X166063100Y-138564801I0J249999D01*
G01*
X166063100Y-136364799D01*
G75*
G02*
X166313099Y-136114800I249999J0D01*
G01*
X167138101Y-136114800D01*
G75*
G02*
X167388100Y-136364799I0J-249999D01*
G01*
G37*
G36*
G01*
X166215500Y-107322801D02*
X166215500Y-105122799D01*
G75*
G02*
X166465499Y-104872800I249999J0D01*
G01*
X167290501Y-104872800D01*
G75*
G02*
X167540500Y-105122799I0J-249999D01*
G01*
X167540500Y-107322801D01*
G75*
G02*
X167290501Y-107572800I-249999J0D01*
G01*
X166465499Y-107572800D01*
G75*
G02*
X166215500Y-107322801I0J249999D01*
G01*
G37*
G36*
G01*
X163090500Y-107322801D02*
X163090500Y-105122799D01*
G75*
G02*
X163340499Y-104872800I249999J0D01*
G01*
X164165501Y-104872800D01*
G75*
G02*
X164415500Y-105122799I0J-249999D01*
G01*
X164415500Y-107322801D01*
G75*
G02*
X164165501Y-107572800I-249999J0D01*
G01*
X163340499Y-107572800D01*
G75*
G02*
X163090500Y-107322801I0J249999D01*
G01*
G37*
G36*
G01*
X158208799Y-114704300D02*
X160408801Y-114704300D01*
G75*
G02*
X160658800Y-114954299I0J-249999D01*
G01*
X160658800Y-115779301D01*
G75*
G02*
X160408801Y-116029300I-249999J0D01*
G01*
X158208799Y-116029300D01*
G75*
G02*
X157958800Y-115779301I0J249999D01*
G01*
X157958800Y-114954299D01*
G75*
G02*
X158208799Y-114704300I249999J0D01*
G01*
G37*
G36*
G01*
X158208799Y-111579300D02*
X160408801Y-111579300D01*
G75*
G02*
X160658800Y-111829299I0J-249999D01*
G01*
X160658800Y-112654301D01*
G75*
G02*
X160408801Y-112904300I-249999J0D01*
G01*
X158208799Y-112904300D01*
G75*
G02*
X157958800Y-112654301I0J249999D01*
G01*
X157958800Y-111829299D01*
G75*
G02*
X158208799Y-111579300I249999J0D01*
G01*
G37*
G36*
G01*
X153195201Y-113421500D02*
X150995199Y-113421500D01*
G75*
G02*
X150745200Y-113171501I0J249999D01*
G01*
X150745200Y-112346499D01*
G75*
G02*
X150995199Y-112096500I249999J0D01*
G01*
X153195201Y-112096500D01*
G75*
G02*
X153445200Y-112346499I0J-249999D01*
G01*
X153445200Y-113171501D01*
G75*
G02*
X153195201Y-113421500I-249999J0D01*
G01*
G37*
G36*
G01*
X153195201Y-116546500D02*
X150995199Y-116546500D01*
G75*
G02*
X150745200Y-116296501I0J249999D01*
G01*
X150745200Y-115471499D01*
G75*
G02*
X150995199Y-115221500I249999J0D01*
G01*
X153195201Y-115221500D01*
G75*
G02*
X153445200Y-115471499I0J-249999D01*
G01*
X153445200Y-116296501D01*
G75*
G02*
X153195201Y-116546500I-249999J0D01*
G01*
G37*
G36*
G01*
X142257599Y-134237700D02*
X144457601Y-134237700D01*
G75*
G02*
X144707600Y-134487699I0J-249999D01*
G01*
X144707600Y-135312701D01*
G75*
G02*
X144457601Y-135562700I-249999J0D01*
G01*
X142257599Y-135562700D01*
G75*
G02*
X142007600Y-135312701I0J249999D01*
G01*
X142007600Y-134487699D01*
G75*
G02*
X142257599Y-134237700I249999J0D01*
G01*
G37*
G36*
G01*
X142257599Y-131112700D02*
X144457601Y-131112700D01*
G75*
G02*
X144707600Y-131362699I0J-249999D01*
G01*
X144707600Y-132187701D01*
G75*
G02*
X144457601Y-132437700I-249999J0D01*
G01*
X142257599Y-132437700D01*
G75*
G02*
X142007600Y-132187701I0J249999D01*
G01*
X142007600Y-131362699D01*
G75*
G02*
X142257599Y-131112700I249999J0D01*
G01*
G37*
G36*
G01*
X143273599Y-108608300D02*
X145473601Y-108608300D01*
G75*
G02*
X145723600Y-108858299I0J-249999D01*
G01*
X145723600Y-109683301D01*
G75*
G02*
X145473601Y-109933300I-249999J0D01*
G01*
X143273599Y-109933300D01*
G75*
G02*
X143023600Y-109683301I0J249999D01*
G01*
X143023600Y-108858299D01*
G75*
G02*
X143273599Y-108608300I249999J0D01*
G01*
G37*
G36*
G01*
X143273599Y-105483300D02*
X145473601Y-105483300D01*
G75*
G02*
X145723600Y-105733299I0J-249999D01*
G01*
X145723600Y-106558301D01*
G75*
G02*
X145473601Y-106808300I-249999J0D01*
G01*
X143273599Y-106808300D01*
G75*
G02*
X143023600Y-106558301I0J249999D01*
G01*
X143023600Y-105733299D01*
G75*
G02*
X143273599Y-105483300I249999J0D01*
G01*
G37*
G36*
G01*
X152792000Y-107373601D02*
X152792000Y-105173599D01*
G75*
G02*
X153041999Y-104923600I249999J0D01*
G01*
X153867001Y-104923600D01*
G75*
G02*
X154117000Y-105173599I0J-249999D01*
G01*
X154117000Y-107373601D01*
G75*
G02*
X153867001Y-107623600I-249999J0D01*
G01*
X153041999Y-107623600D01*
G75*
G02*
X152792000Y-107373601I0J249999D01*
G01*
G37*
G36*
G01*
X149667000Y-107373601D02*
X149667000Y-105173599D01*
G75*
G02*
X149916999Y-104923600I249999J0D01*
G01*
X150742001Y-104923600D01*
G75*
G02*
X150992000Y-105173599I0J-249999D01*
G01*
X150992000Y-107373601D01*
G75*
G02*
X150742001Y-107623600I-249999J0D01*
G01*
X149916999Y-107623600D01*
G75*
G02*
X149667000Y-107373601I0J249999D01*
G01*
G37*
G36*
G01*
X152833100Y-136364799D02*
X152833100Y-138564801D01*
G75*
G02*
X152583101Y-138814800I-249999J0D01*
G01*
X151758099Y-138814800D01*
G75*
G02*
X151508100Y-138564801I0J249999D01*
G01*
X151508100Y-136364799D01*
G75*
G02*
X151758099Y-136114800I249999J0D01*
G01*
X152583101Y-136114800D01*
G75*
G02*
X152833100Y-136364799I0J-249999D01*
G01*
G37*
G36*
G01*
X155958100Y-136364799D02*
X155958100Y-138564801D01*
G75*
G02*
X155708101Y-138814800I-249999J0D01*
G01*
X154883099Y-138814800D01*
G75*
G02*
X154633100Y-138564801I0J249999D01*
G01*
X154633100Y-136364799D01*
G75*
G02*
X154883099Y-136114800I249999J0D01*
G01*
X155708101Y-136114800D01*
G75*
G02*
X155958100Y-136364799I0J-249999D01*
G01*
G37*
D12*
X145095000Y-123920000D03*
X144145000Y-121920000D03*
X146045000Y-121920000D03*
X145222000Y-127032000D03*
X146172000Y-129032000D03*
X144272000Y-129032000D03*
X141544000Y-129063500D03*
X140594000Y-127063500D03*
X142494000Y-127063500D03*
D13*
X142525500Y-122870000D03*
X140525500Y-123820000D03*
X140525500Y-121920000D03*
D14*
X154736800Y-112759500D03*
X156636800Y-112759500D03*
X156636800Y-115379500D03*
X155686800Y-115379500D03*
X154736800Y-115379500D03*
G36*
G01*
X167621000Y-116834499D02*
X167621000Y-117734501D01*
G75*
G02*
X167371001Y-117984500I-249999J0D01*
G01*
X166670999Y-117984500D01*
G75*
G02*
X166421000Y-117734501I0J249999D01*
G01*
X166421000Y-116834499D01*
G75*
G02*
X166670999Y-116584500I249999J0D01*
G01*
X167371001Y-116584500D01*
G75*
G02*
X167621000Y-116834499I0J-249999D01*
G01*
G37*
G36*
G01*
X169621000Y-116834499D02*
X169621000Y-117734501D01*
G75*
G02*
X169371001Y-117984500I-249999J0D01*
G01*
X168670999Y-117984500D01*
G75*
G02*
X168421000Y-117734501I0J249999D01*
G01*
X168421000Y-116834499D01*
G75*
G02*
X168670999Y-116584500I249999J0D01*
G01*
X169371001Y-116584500D01*
G75*
G02*
X169621000Y-116834499I0J-249999D01*
G01*
G37*
G36*
G01*
X157104501Y-109471000D02*
X156204499Y-109471000D01*
G75*
G02*
X155954500Y-109221001I0J249999D01*
G01*
X155954500Y-108520999D01*
G75*
G02*
X156204499Y-108271000I249999J0D01*
G01*
X157104501Y-108271000D01*
G75*
G02*
X157354500Y-108520999I0J-249999D01*
G01*
X157354500Y-109221001D01*
G75*
G02*
X157104501Y-109471000I-249999J0D01*
G01*
G37*
G36*
G01*
X157104501Y-111471000D02*
X156204499Y-111471000D01*
G75*
G02*
X155954500Y-111221001I0J249999D01*
G01*
X155954500Y-110520999D01*
G75*
G02*
X156204499Y-110271000I249999J0D01*
G01*
X157104501Y-110271000D01*
G75*
G02*
X157354500Y-110520999I0J-249999D01*
G01*
X157354500Y-111221001D01*
G75*
G02*
X157104501Y-111471000I-249999J0D01*
G01*
G37*
G36*
G01*
X153423199Y-121320000D02*
X154323201Y-121320000D01*
G75*
G02*
X154573200Y-121569999I0J-249999D01*
G01*
X154573200Y-122270001D01*
G75*
G02*
X154323201Y-122520000I-249999J0D01*
G01*
X153423199Y-122520000D01*
G75*
G02*
X153173200Y-122270001I0J249999D01*
G01*
X153173200Y-121569999D01*
G75*
G02*
X153423199Y-121320000I249999J0D01*
G01*
G37*
G36*
G01*
X153423199Y-119320000D02*
X154323201Y-119320000D01*
G75*
G02*
X154573200Y-119569999I0J-249999D01*
G01*
X154573200Y-120270001D01*
G75*
G02*
X154323201Y-120520000I-249999J0D01*
G01*
X153423199Y-120520000D01*
G75*
G02*
X153173200Y-120270001I0J249999D01*
G01*
X153173200Y-119569999D01*
G75*
G02*
X153423199Y-119320000I249999J0D01*
G01*
G37*
G36*
G01*
X149344801Y-111630000D02*
X148444799Y-111630000D01*
G75*
G02*
X148194800Y-111380001I0J249999D01*
G01*
X148194800Y-110679999D01*
G75*
G02*
X148444799Y-110430000I249999J0D01*
G01*
X149344801Y-110430000D01*
G75*
G02*
X149594800Y-110679999I0J-249999D01*
G01*
X149594800Y-111380001D01*
G75*
G02*
X149344801Y-111630000I-249999J0D01*
G01*
G37*
G36*
G01*
X149344801Y-113630000D02*
X148444799Y-113630000D01*
G75*
G02*
X148194800Y-113380001I0J249999D01*
G01*
X148194800Y-112679999D01*
G75*
G02*
X148444799Y-112430000I249999J0D01*
G01*
X149344801Y-112430000D01*
G75*
G02*
X149594800Y-112679999I0J-249999D01*
G01*
X149594800Y-113380001D01*
G75*
G02*
X149344801Y-113630000I-249999J0D01*
G01*
G37*
G36*
G01*
X141218499Y-110652000D02*
X142118501Y-110652000D01*
G75*
G02*
X142368500Y-110901999I0J-249999D01*
G01*
X142368500Y-111602001D01*
G75*
G02*
X142118501Y-111852000I-249999J0D01*
G01*
X141218499Y-111852000D01*
G75*
G02*
X140968500Y-111602001I0J249999D01*
G01*
X140968500Y-110901999D01*
G75*
G02*
X141218499Y-110652000I249999J0D01*
G01*
G37*
G36*
G01*
X141218499Y-108652000D02*
X142118501Y-108652000D01*
G75*
G02*
X142368500Y-108901999I0J-249999D01*
G01*
X142368500Y-109602001D01*
G75*
G02*
X142118501Y-109852000I-249999J0D01*
G01*
X141218499Y-109852000D01*
G75*
G02*
X140968500Y-109602001I0J249999D01*
G01*
X140968500Y-108901999D01*
G75*
G02*
X141218499Y-108652000I249999J0D01*
G01*
G37*
D13*
X145161000Y-113030000D03*
X147161000Y-112080000D03*
X147161000Y-113980000D03*
D12*
X142621000Y-114998500D03*
X141671000Y-112998500D03*
X143571000Y-112998500D03*
D15*
X194754500Y-121920000D03*
X196215000Y-113030000D03*
X196088000Y-130619500D03*
G36*
G01*
X156239500Y-116856500D02*
X156239500Y-117331500D01*
G75*
G02*
X156002000Y-117569000I-237500J0D01*
G01*
X155402000Y-117569000D01*
G75*
G02*
X155164500Y-117331500I0J237500D01*
G01*
X155164500Y-116856500D01*
G75*
G02*
X155402000Y-116619000I237500J0D01*
G01*
X156002000Y-116619000D01*
G75*
G02*
X156239500Y-116856500I0J-237500D01*
G01*
G37*
G36*
G01*
X157964500Y-116856500D02*
X157964500Y-117331500D01*
G75*
G02*
X157727000Y-117569000I-237500J0D01*
G01*
X157127000Y-117569000D01*
G75*
G02*
X156889500Y-117331500I0J237500D01*
G01*
X156889500Y-116856500D01*
G75*
G02*
X157127000Y-116619000I237500J0D01*
G01*
X157727000Y-116619000D01*
G75*
G02*
X157964500Y-116856500I0J-237500D01*
G01*
G37*
G36*
G01*
X154199300Y-111286300D02*
X154199300Y-110811300D01*
G75*
G02*
X154436800Y-110573800I237500J0D01*
G01*
X155036800Y-110573800D01*
G75*
G02*
X155274300Y-110811300I0J-237500D01*
G01*
X155274300Y-111286300D01*
G75*
G02*
X155036800Y-111523800I-237500J0D01*
G01*
X154436800Y-111523800D01*
G75*
G02*
X154199300Y-111286300I0J237500D01*
G01*
G37*
G36*
G01*
X152474300Y-111286300D02*
X152474300Y-110811300D01*
G75*
G02*
X152711800Y-110573800I237500J0D01*
G01*
X153311800Y-110573800D01*
G75*
G02*
X153549300Y-110811300I0J-237500D01*
G01*
X153549300Y-111286300D01*
G75*
G02*
X153311800Y-111523800I-237500J0D01*
G01*
X152711800Y-111523800D01*
G75*
G02*
X152474300Y-111286300I0J237500D01*
G01*
G37*
X182245000Y-124904500D03*
X182245000Y-119888000D03*
X126365000Y-126873000D03*
X126365000Y-121856500D03*
D13*
X166529000Y-126108500D03*
X168529000Y-125158500D03*
X168529000Y-127058500D03*
G36*
G01*
X157877000Y-125445500D02*
X157877000Y-126395500D01*
G75*
G02*
X157627000Y-126645500I-250000J0D01*
G01*
X156952000Y-126645500D01*
G75*
G02*
X156702000Y-126395500I0J250000D01*
G01*
X156702000Y-125445500D01*
G75*
G02*
X156952000Y-125195500I250000J0D01*
G01*
X157627000Y-125195500D01*
G75*
G02*
X157877000Y-125445500I0J-250000D01*
G01*
G37*
G36*
G01*
X159952000Y-125445500D02*
X159952000Y-126395500D01*
G75*
G02*
X159702000Y-126645500I-250000J0D01*
G01*
X159027000Y-126645500D01*
G75*
G02*
X158777000Y-126395500I0J250000D01*
G01*
X158777000Y-125445500D01*
G75*
G02*
X159027000Y-125195500I250000J0D01*
G01*
X159702000Y-125195500D01*
G75*
G02*
X159952000Y-125445500I0J-250000D01*
G01*
G37*
G36*
G01*
X157449500Y-121345200D02*
X158399500Y-121345200D01*
G75*
G02*
X158649500Y-121595200I0J-250000D01*
G01*
X158649500Y-122270200D01*
G75*
G02*
X158399500Y-122520200I-250000J0D01*
G01*
X157449500Y-122520200D01*
G75*
G02*
X157199500Y-122270200I0J250000D01*
G01*
X157199500Y-121595200D01*
G75*
G02*
X157449500Y-121345200I250000J0D01*
G01*
G37*
G36*
G01*
X157449500Y-119270200D02*
X158399500Y-119270200D01*
G75*
G02*
X158649500Y-119520200I0J-250000D01*
G01*
X158649500Y-120195200D01*
G75*
G02*
X158399500Y-120445200I-250000J0D01*
G01*
X157449500Y-120445200D01*
G75*
G02*
X157199500Y-120195200I0J250000D01*
G01*
X157199500Y-119520200D01*
G75*
G02*
X157449500Y-119270200I250000J0D01*
G01*
G37*
X170529000Y-114678500D03*
X170529000Y-112778500D03*
X168529000Y-113728500D03*
G36*
G01*
X137979999Y-123320000D02*
X138880001Y-123320000D01*
G75*
G02*
X139130000Y-123569999I0J-249999D01*
G01*
X139130000Y-124270001D01*
G75*
G02*
X138880001Y-124520000I-249999J0D01*
G01*
X137979999Y-124520000D01*
G75*
G02*
X137730000Y-124270001I0J249999D01*
G01*
X137730000Y-123569999D01*
G75*
G02*
X137979999Y-123320000I249999J0D01*
G01*
G37*
G36*
G01*
X137979999Y-121320000D02*
X138880001Y-121320000D01*
G75*
G02*
X139130000Y-121569999I0J-249999D01*
G01*
X139130000Y-122270001D01*
G75*
G02*
X138880001Y-122520000I-249999J0D01*
G01*
X137979999Y-122520000D01*
G75*
G02*
X137730000Y-122270001I0J249999D01*
G01*
X137730000Y-121569999D01*
G75*
G02*
X137979999Y-121320000I249999J0D01*
G01*
G37*
G36*
G01*
X170272000Y-119437999D02*
X170272000Y-120338001D01*
G75*
G02*
X170022001Y-120588000I-249999J0D01*
G01*
X169321999Y-120588000D01*
G75*
G02*
X169072000Y-120338001I0J249999D01*
G01*
X169072000Y-119437999D01*
G75*
G02*
X169321999Y-119188000I249999J0D01*
G01*
X170022001Y-119188000D01*
G75*
G02*
X170272000Y-119437999I0J-249999D01*
G01*
G37*
G36*
G01*
X172272000Y-119437999D02*
X172272000Y-120338001D01*
G75*
G02*
X172022001Y-120588000I-249999J0D01*
G01*
X171321999Y-120588000D01*
G75*
G02*
X171072000Y-120338001I0J249999D01*
G01*
X171072000Y-119437999D01*
G75*
G02*
X171321999Y-119188000I249999J0D01*
G01*
X172022001Y-119188000D01*
G75*
G02*
X172272000Y-119437999I0J-249999D01*
G01*
G37*
G36*
G01*
X170627500Y-111321001D02*
X170627500Y-110420999D01*
G75*
G02*
X170877499Y-110171000I249999J0D01*
G01*
X171577501Y-110171000D01*
G75*
G02*
X171827500Y-110420999I0J-249999D01*
G01*
X171827500Y-111321001D01*
G75*
G02*
X171577501Y-111571000I-249999J0D01*
G01*
X170877499Y-111571000D01*
G75*
G02*
X170627500Y-111321001I0J249999D01*
G01*
G37*
G36*
G01*
X168627500Y-111321001D02*
X168627500Y-110420999D01*
G75*
G02*
X168877499Y-110171000I249999J0D01*
G01*
X169577501Y-110171000D01*
G75*
G02*
X169827500Y-110420999I0J-249999D01*
G01*
X169827500Y-111321001D01*
G75*
G02*
X169577501Y-111571000I-249999J0D01*
G01*
X168877499Y-111571000D01*
G75*
G02*
X168627500Y-111321001I0J249999D01*
G01*
G37*
G36*
G01*
X165668500Y-110420999D02*
X165668500Y-111321001D01*
G75*
G02*
X165418501Y-111571000I-249999J0D01*
G01*
X164718499Y-111571000D01*
G75*
G02*
X164468500Y-111321001I0J249999D01*
G01*
X164468500Y-110420999D01*
G75*
G02*
X164718499Y-110171000I249999J0D01*
G01*
X165418501Y-110171000D01*
G75*
G02*
X165668500Y-110420999I0J-249999D01*
G01*
G37*
G36*
G01*
X167668500Y-110420999D02*
X167668500Y-111321001D01*
G75*
G02*
X167418501Y-111571000I-249999J0D01*
G01*
X166718499Y-111571000D01*
G75*
G02*
X166468500Y-111321001I0J249999D01*
G01*
X166468500Y-110420999D01*
G75*
G02*
X166718499Y-110171000I249999J0D01*
G01*
X167418501Y-110171000D01*
G75*
G02*
X167668500Y-110420999I0J-249999D01*
G01*
G37*
G36*
G01*
X155086899Y-129962100D02*
X155986901Y-129962100D01*
G75*
G02*
X156236900Y-130212099I0J-249999D01*
G01*
X156236900Y-130912101D01*
G75*
G02*
X155986901Y-131162100I-249999J0D01*
G01*
X155086899Y-131162100D01*
G75*
G02*
X154836900Y-130912101I0J249999D01*
G01*
X154836900Y-130212099D01*
G75*
G02*
X155086899Y-129962100I249999J0D01*
G01*
G37*
G36*
G01*
X155086899Y-127962100D02*
X155986901Y-127962100D01*
G75*
G02*
X156236900Y-128212099I0J-249999D01*
G01*
X156236900Y-128912101D01*
G75*
G02*
X155986901Y-129162100I-249999J0D01*
G01*
X155086899Y-129162100D01*
G75*
G02*
X154836900Y-128912101I0J249999D01*
G01*
X154836900Y-128212099D01*
G75*
G02*
X155086899Y-127962100I249999J0D01*
G01*
G37*
G36*
G01*
X155442499Y-121320000D02*
X156342501Y-121320000D01*
G75*
G02*
X156592500Y-121569999I0J-249999D01*
G01*
X156592500Y-122270001D01*
G75*
G02*
X156342501Y-122520000I-249999J0D01*
G01*
X155442499Y-122520000D01*
G75*
G02*
X155192500Y-122270001I0J249999D01*
G01*
X155192500Y-121569999D01*
G75*
G02*
X155442499Y-121320000I249999J0D01*
G01*
G37*
G36*
G01*
X155442499Y-119320000D02*
X156342501Y-119320000D01*
G75*
G02*
X156592500Y-119569999I0J-249999D01*
G01*
X156592500Y-120270001D01*
G75*
G02*
X156342501Y-120520000I-249999J0D01*
G01*
X155442499Y-120520000D01*
G75*
G02*
X155192500Y-120270001I0J249999D01*
G01*
X155192500Y-119569999D01*
G75*
G02*
X155442499Y-119320000I249999J0D01*
G01*
G37*
G36*
G01*
X151340399Y-123320000D02*
X152240401Y-123320000D01*
G75*
G02*
X152490400Y-123569999I0J-249999D01*
G01*
X152490400Y-124270001D01*
G75*
G02*
X152240401Y-124520000I-249999J0D01*
G01*
X151340399Y-124520000D01*
G75*
G02*
X151090400Y-124270001I0J249999D01*
G01*
X151090400Y-123569999D01*
G75*
G02*
X151340399Y-123320000I249999J0D01*
G01*
G37*
G36*
G01*
X151340399Y-121320000D02*
X152240401Y-121320000D01*
G75*
G02*
X152490400Y-121569999I0J-249999D01*
G01*
X152490400Y-122270001D01*
G75*
G02*
X152240401Y-122520000I-249999J0D01*
G01*
X151340399Y-122520000D01*
G75*
G02*
X151090400Y-122270001I0J249999D01*
G01*
X151090400Y-121569999D01*
G75*
G02*
X151340399Y-121320000I249999J0D01*
G01*
G37*
G36*
G01*
X147568499Y-128463500D02*
X148468501Y-128463500D01*
G75*
G02*
X148718500Y-128713499I0J-249999D01*
G01*
X148718500Y-129413501D01*
G75*
G02*
X148468501Y-129663500I-249999J0D01*
G01*
X147568499Y-129663500D01*
G75*
G02*
X147318500Y-129413501I0J249999D01*
G01*
X147318500Y-128713499D01*
G75*
G02*
X147568499Y-128463500I249999J0D01*
G01*
G37*
G36*
G01*
X147568499Y-126463500D02*
X148468501Y-126463500D01*
G75*
G02*
X148718500Y-126713499I0J-249999D01*
G01*
X148718500Y-127413501D01*
G75*
G02*
X148468501Y-127663500I-249999J0D01*
G01*
X147568499Y-127663500D01*
G75*
G02*
X147318500Y-127413501I0J249999D01*
G01*
X147318500Y-126713499D01*
G75*
G02*
X147568499Y-126463500I249999J0D01*
G01*
G37*
G36*
G01*
X143377499Y-118303500D02*
X144277501Y-118303500D01*
G75*
G02*
X144527500Y-118553499I0J-249999D01*
G01*
X144527500Y-119253501D01*
G75*
G02*
X144277501Y-119503500I-249999J0D01*
G01*
X143377499Y-119503500D01*
G75*
G02*
X143127500Y-119253501I0J249999D01*
G01*
X143127500Y-118553499D01*
G75*
G02*
X143377499Y-118303500I249999J0D01*
G01*
G37*
G36*
G01*
X143377499Y-116303500D02*
X144277501Y-116303500D01*
G75*
G02*
X144527500Y-116553499I0J-249999D01*
G01*
X144527500Y-117253501D01*
G75*
G02*
X144277501Y-117503500I-249999J0D01*
G01*
X143377499Y-117503500D01*
G75*
G02*
X143127500Y-117253501I0J249999D01*
G01*
X143127500Y-116553499D01*
G75*
G02*
X143377499Y-116303500I249999J0D01*
G01*
G37*
G36*
G01*
X138297499Y-128463500D02*
X139197501Y-128463500D01*
G75*
G02*
X139447500Y-128713499I0J-249999D01*
G01*
X139447500Y-129413501D01*
G75*
G02*
X139197501Y-129663500I-249999J0D01*
G01*
X138297499Y-129663500D01*
G75*
G02*
X138047500Y-129413501I0J249999D01*
G01*
X138047500Y-128713499D01*
G75*
G02*
X138297499Y-128463500I249999J0D01*
G01*
G37*
G36*
G01*
X138297499Y-126463500D02*
X139197501Y-126463500D01*
G75*
G02*
X139447500Y-126713499I0J-249999D01*
G01*
X139447500Y-127413501D01*
G75*
G02*
X139197501Y-127663500I-249999J0D01*
G01*
X138297499Y-127663500D01*
G75*
G02*
X138047500Y-127413501I0J249999D01*
G01*
X138047500Y-126713499D01*
G75*
G02*
X138297499Y-126463500I249999J0D01*
G01*
G37*
G36*
G01*
X141091499Y-118335500D02*
X141991501Y-118335500D01*
G75*
G02*
X142241500Y-118585499I0J-249999D01*
G01*
X142241500Y-119285501D01*
G75*
G02*
X141991501Y-119535500I-249999J0D01*
G01*
X141091499Y-119535500D01*
G75*
G02*
X140841500Y-119285501I0J249999D01*
G01*
X140841500Y-118585499D01*
G75*
G02*
X141091499Y-118335500I249999J0D01*
G01*
G37*
G36*
G01*
X141091499Y-116335500D02*
X141991501Y-116335500D01*
G75*
G02*
X142241500Y-116585499I0J-249999D01*
G01*
X142241500Y-117285501D01*
G75*
G02*
X141991501Y-117535500I-249999J0D01*
G01*
X141091499Y-117535500D01*
G75*
G02*
X140841500Y-117285501I0J249999D01*
G01*
X140841500Y-116585499D01*
G75*
G02*
X141091499Y-116335500I249999J0D01*
G01*
G37*
X159365700Y-129512100D03*
X157365700Y-130462100D03*
X157365700Y-128562100D03*
X164052500Y-113731000D03*
X166052500Y-112781000D03*
X166052500Y-114681000D03*
D12*
X154607300Y-124885700D03*
X155557300Y-126885700D03*
X153657300Y-126885700D03*
D16*
X126238000Y-100330000D03*
X125984000Y-143510000D03*
X199644000Y-143510000D03*
X199644000Y-100330000D03*
D10*
X130810000Y-121920000D03*
X135810000Y-121920000D03*
M02*
