M48
; DRILL file {KiCad (5.1.9-0-10_14)} date Sunday, March 07, 2021 at 02:06:46 PM
; FORMAT={-:-/ absolute / inch / decimal}
; #@! TF.CreationDate,2021-03-07T14:06:46+01:00
; #@! TF.GenerationSoftware,Kicad,Pcbnew,(5.1.9-0-10_14)
; #@! TF.FileFunction,Plated,1,2,PTH
FMAT,2
INCH
T1C0.0118
T2C0.0157
T3C0.0315
T4C0.0394
%
G90
G05
T1
X3.65Y-4.36
X3.71Y-4.225
X3.775Y-4.36
X3.9Y-4.415
X4.09Y-4.38
X4.27Y-4.07
X4.47Y-4.42
X4.47Y-4.66
X4.47Y-4.745
X4.53Y-4.115
X4.61Y-4.76
X4.62Y-4.375
X4.71Y-4.94
X4.73Y-4.3
X4.84Y-4.385
X4.89Y-4.18
X4.95Y-4.335
X5.035Y-4.76
X5.12Y-4.415
T2
X3.475Y-4.7
X3.75Y-4.7
T3
X3.465Y-4.1631
X3.465Y-4.36
X4.0Y-4.5
X4.0Y-4.6
X4.0Y-4.7
X4.0Y-4.8
X4.0Y-5.135
X4.0Y-5.2728
X4.3Y-4.5
X4.3Y-4.6
X4.3Y-4.7
X4.3Y-4.8
X4.59Y-3.8522
X4.59Y-3.99
X4.595Y-4.2
X4.785Y-4.645
X4.7919Y-4.2
X4.9819Y-4.645
X5.31Y-4.46
X5.31Y-4.56
X5.31Y-4.66
X5.31Y-4.76
X5.42Y-5.015
X5.42Y-5.1528
X5.61Y-4.46
X5.61Y-4.56
X5.61Y-4.66
X5.61Y-4.76
X5.665Y-4.0022
X5.665Y-4.14
T4
X3.34Y-4.7
X3.34Y-5.095
X3.89Y-3.9731
X3.89Y-4.17
X6.06Y-4.56
X6.06Y-4.81
X6.75Y-4.275
X6.75Y-4.6
X6.75Y-4.925
T0
M30
