G04 #@! TF.GenerationSoftware,KiCad,Pcbnew,(5.1.9-0-10_14)*
G04 #@! TF.CreationDate,2021-03-07T14:06:43+01:00*
G04 #@! TF.ProjectId,lt1115-phono-mm-mc,6c743131-3135-42d7-9068-6f6e6f2d6d6d,rev?*
G04 #@! TF.SameCoordinates,Original*
G04 #@! TF.FileFunction,Legend,Top*
G04 #@! TF.FilePolarity,Positive*
%FSLAX46Y46*%
G04 Gerber Fmt 4.6, Leading zero omitted, Abs format (unit mm)*
G04 Created by KiCad (PCBNEW (5.1.9-0-10_14)) date 2021-03-07 14:06:43*
%MOMM*%
%LPD*%
G01*
G04 APERTURE LIST*
%ADD10C,0.150000*%
%ADD11C,0.120000*%
G04 APERTURE END LIST*
D10*
X155789380Y-116824000D02*
X155789380Y-116633523D01*
X155837000Y-116538285D01*
X155932238Y-116443047D01*
X156122714Y-116395428D01*
X156456047Y-116395428D01*
X156646523Y-116443047D01*
X156741761Y-116538285D01*
X156789380Y-116633523D01*
X156789380Y-116824000D01*
X156741761Y-116919238D01*
X156646523Y-117014476D01*
X156456047Y-117062095D01*
X156122714Y-117062095D01*
X155932238Y-117014476D01*
X155837000Y-116919238D01*
X155789380Y-116824000D01*
X155789380Y-115966857D02*
X156598904Y-115966857D01*
X156694142Y-115919238D01*
X156741761Y-115871619D01*
X156789380Y-115776380D01*
X156789380Y-115585904D01*
X156741761Y-115490666D01*
X156694142Y-115443047D01*
X156598904Y-115395428D01*
X155789380Y-115395428D01*
X155789380Y-115062095D02*
X155789380Y-114490666D01*
X156789380Y-114776380D02*
X155789380Y-114776380D01*
X155837000Y-122935904D02*
X155789380Y-123031142D01*
X155789380Y-123174000D01*
X155837000Y-123316857D01*
X155932238Y-123412095D01*
X156027476Y-123459714D01*
X156217952Y-123507333D01*
X156360809Y-123507333D01*
X156551285Y-123459714D01*
X156646523Y-123412095D01*
X156741761Y-123316857D01*
X156789380Y-123174000D01*
X156789380Y-123078761D01*
X156741761Y-122935904D01*
X156694142Y-122888285D01*
X156360809Y-122888285D01*
X156360809Y-123078761D01*
X156789380Y-122459714D02*
X155789380Y-122459714D01*
X156789380Y-121888285D01*
X155789380Y-121888285D01*
X156789380Y-121412095D02*
X155789380Y-121412095D01*
X155789380Y-121174000D01*
X155837000Y-121031142D01*
X155932238Y-120935904D01*
X156027476Y-120888285D01*
X156217952Y-120840666D01*
X156360809Y-120840666D01*
X156551285Y-120888285D01*
X156646523Y-120935904D01*
X156741761Y-121031142D01*
X156789380Y-121174000D01*
X156789380Y-121412095D01*
X173363000Y-117474904D02*
X173315380Y-117570142D01*
X173315380Y-117713000D01*
X173363000Y-117855857D01*
X173458238Y-117951095D01*
X173553476Y-117998714D01*
X173743952Y-118046333D01*
X173886809Y-118046333D01*
X174077285Y-117998714D01*
X174172523Y-117951095D01*
X174267761Y-117855857D01*
X174315380Y-117713000D01*
X174315380Y-117617761D01*
X174267761Y-117474904D01*
X174220142Y-117427285D01*
X173886809Y-117427285D01*
X173886809Y-117617761D01*
X174315380Y-116998714D02*
X173315380Y-116998714D01*
X174315380Y-116427285D01*
X173315380Y-116427285D01*
X174315380Y-115951095D02*
X173315380Y-115951095D01*
X173315380Y-115713000D01*
X173363000Y-115570142D01*
X173458238Y-115474904D01*
X173553476Y-115427285D01*
X173743952Y-115379666D01*
X173886809Y-115379666D01*
X174077285Y-115427285D01*
X174172523Y-115474904D01*
X174267761Y-115570142D01*
X174315380Y-115713000D01*
X174315380Y-115951095D01*
X173934428Y-126856904D02*
X173934428Y-126095000D01*
X174315380Y-125095000D02*
X174315380Y-125666428D01*
X174315380Y-125380714D02*
X173315380Y-125380714D01*
X173458238Y-125475952D01*
X173553476Y-125571190D01*
X173601095Y-125666428D01*
X173315380Y-124190238D02*
X173315380Y-124666428D01*
X173791571Y-124714047D01*
X173743952Y-124666428D01*
X173696333Y-124571190D01*
X173696333Y-124333095D01*
X173743952Y-124237857D01*
X173791571Y-124190238D01*
X173886809Y-124142619D01*
X174124904Y-124142619D01*
X174220142Y-124190238D01*
X174267761Y-124237857D01*
X174315380Y-124333095D01*
X174315380Y-124571190D01*
X174267761Y-124666428D01*
X174220142Y-124714047D01*
X173315380Y-123856904D02*
X174315380Y-123523571D01*
X173315380Y-123190238D01*
X173807428Y-110219904D02*
X173807428Y-109458000D01*
X174188380Y-109838952D02*
X173426476Y-109838952D01*
X174188380Y-108458000D02*
X174188380Y-109029428D01*
X174188380Y-108743714D02*
X173188380Y-108743714D01*
X173331238Y-108838952D01*
X173426476Y-108934190D01*
X173474095Y-109029428D01*
X173188380Y-107553238D02*
X173188380Y-108029428D01*
X173664571Y-108077047D01*
X173616952Y-108029428D01*
X173569333Y-107934190D01*
X173569333Y-107696095D01*
X173616952Y-107600857D01*
X173664571Y-107553238D01*
X173759809Y-107505619D01*
X173997904Y-107505619D01*
X174093142Y-107553238D01*
X174140761Y-107600857D01*
X174188380Y-107696095D01*
X174188380Y-107934190D01*
X174140761Y-108029428D01*
X174093142Y-108077047D01*
X173188380Y-107219904D02*
X174188380Y-106886571D01*
X173188380Y-106553238D01*
X82796000Y-128778095D02*
X82843619Y-128682857D01*
X82843619Y-128540000D01*
X82796000Y-128397142D01*
X82700761Y-128301904D01*
X82605523Y-128254285D01*
X82415047Y-128206666D01*
X82272190Y-128206666D01*
X82081714Y-128254285D01*
X81986476Y-128301904D01*
X81891238Y-128397142D01*
X81843619Y-128540000D01*
X81843619Y-128635238D01*
X81891238Y-128778095D01*
X81938857Y-128825714D01*
X82272190Y-128825714D01*
X82272190Y-128635238D01*
X81843619Y-129254285D02*
X82843619Y-129254285D01*
X81843619Y-129825714D01*
X82843619Y-129825714D01*
X81843619Y-130301904D02*
X82843619Y-130301904D01*
X82843619Y-130540000D01*
X82796000Y-130682857D01*
X82700761Y-130778095D01*
X82605523Y-130825714D01*
X82415047Y-130873333D01*
X82272190Y-130873333D01*
X82081714Y-130825714D01*
X81986476Y-130778095D01*
X81891238Y-130682857D01*
X81843619Y-130540000D01*
X81843619Y-130301904D01*
X81843619Y-118856190D02*
X82843619Y-118856190D01*
X81843619Y-119332380D02*
X82843619Y-119332380D01*
X81843619Y-119903809D01*
X82843619Y-119903809D01*
X111467285Y-135264380D02*
X110991095Y-135264380D01*
X110991095Y-134264380D01*
X111657761Y-134264380D02*
X112229190Y-134264380D01*
X111943476Y-135264380D02*
X111943476Y-134264380D01*
X113086333Y-135264380D02*
X112514904Y-135264380D01*
X112800619Y-135264380D02*
X112800619Y-134264380D01*
X112705380Y-134407238D01*
X112610142Y-134502476D01*
X112514904Y-134550095D01*
X114038714Y-135264380D02*
X113467285Y-135264380D01*
X113753000Y-135264380D02*
X113753000Y-134264380D01*
X113657761Y-134407238D01*
X113562523Y-134502476D01*
X113467285Y-134550095D01*
X114991095Y-135264380D02*
X114419666Y-135264380D01*
X114705380Y-135264380D02*
X114705380Y-134264380D01*
X114610142Y-134407238D01*
X114514904Y-134502476D01*
X114419666Y-134550095D01*
X115895857Y-134264380D02*
X115419666Y-134264380D01*
X115372047Y-134740571D01*
X115419666Y-134692952D01*
X115514904Y-134645333D01*
X115753000Y-134645333D01*
X115848238Y-134692952D01*
X115895857Y-134740571D01*
X115943476Y-134835809D01*
X115943476Y-135073904D01*
X115895857Y-135169142D01*
X115848238Y-135216761D01*
X115753000Y-135264380D01*
X115514904Y-135264380D01*
X115419666Y-135216761D01*
X115372047Y-135169142D01*
X117133952Y-135264380D02*
X117133952Y-134264380D01*
X117467285Y-134978666D01*
X117800619Y-134264380D01*
X117800619Y-135264380D01*
X118848238Y-135169142D02*
X118800619Y-135216761D01*
X118657761Y-135264380D01*
X118562523Y-135264380D01*
X118419666Y-135216761D01*
X118324428Y-135121523D01*
X118276809Y-135026285D01*
X118229190Y-134835809D01*
X118229190Y-134692952D01*
X118276809Y-134502476D01*
X118324428Y-134407238D01*
X118419666Y-134312000D01*
X118562523Y-134264380D01*
X118657761Y-134264380D01*
X118800619Y-134312000D01*
X118848238Y-134359619D01*
X119991095Y-134216761D02*
X119133952Y-135502476D01*
X120324428Y-135264380D02*
X120324428Y-134264380D01*
X120657761Y-134978666D01*
X120991095Y-134264380D01*
X120991095Y-135264380D01*
X121467285Y-135264380D02*
X121467285Y-134264380D01*
X121800619Y-134978666D01*
X122133952Y-134264380D01*
X122133952Y-135264380D01*
X123372047Y-135264380D02*
X123372047Y-134264380D01*
X123753000Y-134264380D01*
X123848238Y-134312000D01*
X123895857Y-134359619D01*
X123943476Y-134454857D01*
X123943476Y-134597714D01*
X123895857Y-134692952D01*
X123848238Y-134740571D01*
X123753000Y-134788190D01*
X123372047Y-134788190D01*
X124372047Y-135264380D02*
X124372047Y-134264380D01*
X124800619Y-135264380D02*
X124800619Y-134740571D01*
X124753000Y-134645333D01*
X124657761Y-134597714D01*
X124514904Y-134597714D01*
X124419666Y-134645333D01*
X124372047Y-134692952D01*
X125419666Y-135264380D02*
X125324428Y-135216761D01*
X125276809Y-135169142D01*
X125229190Y-135073904D01*
X125229190Y-134788190D01*
X125276809Y-134692952D01*
X125324428Y-134645333D01*
X125419666Y-134597714D01*
X125562523Y-134597714D01*
X125657761Y-134645333D01*
X125705380Y-134692952D01*
X125753000Y-134788190D01*
X125753000Y-135073904D01*
X125705380Y-135169142D01*
X125657761Y-135216761D01*
X125562523Y-135264380D01*
X125419666Y-135264380D01*
X126181571Y-134597714D02*
X126181571Y-135264380D01*
X126181571Y-134692952D02*
X126229190Y-134645333D01*
X126324428Y-134597714D01*
X126467285Y-134597714D01*
X126562523Y-134645333D01*
X126610142Y-134740571D01*
X126610142Y-135264380D01*
X127229190Y-135264380D02*
X127133952Y-135216761D01*
X127086333Y-135169142D01*
X127038714Y-135073904D01*
X127038714Y-134788190D01*
X127086333Y-134692952D01*
X127133952Y-134645333D01*
X127229190Y-134597714D01*
X127372047Y-134597714D01*
X127467285Y-134645333D01*
X127514904Y-134692952D01*
X127562523Y-134788190D01*
X127562523Y-135073904D01*
X127514904Y-135169142D01*
X127467285Y-135216761D01*
X127372047Y-135264380D01*
X127229190Y-135264380D01*
X115419666Y-136914380D02*
X115419666Y-135914380D01*
X115800619Y-135914380D01*
X115895857Y-135962000D01*
X115943476Y-136009619D01*
X115991095Y-136104857D01*
X115991095Y-136247714D01*
X115943476Y-136342952D01*
X115895857Y-136390571D01*
X115800619Y-136438190D01*
X115419666Y-136438190D01*
X116419666Y-136914380D02*
X116419666Y-136247714D01*
X116419666Y-136438190D02*
X116467285Y-136342952D01*
X116514904Y-136295333D01*
X116610142Y-136247714D01*
X116705380Y-136247714D01*
X117419666Y-136866761D02*
X117324428Y-136914380D01*
X117133952Y-136914380D01*
X117038714Y-136866761D01*
X116991095Y-136771523D01*
X116991095Y-136390571D01*
X117038714Y-136295333D01*
X117133952Y-136247714D01*
X117324428Y-136247714D01*
X117419666Y-136295333D01*
X117467285Y-136390571D01*
X117467285Y-136485809D01*
X116991095Y-136581047D01*
X117848238Y-136628666D02*
X118324428Y-136628666D01*
X117753000Y-136914380D02*
X118086333Y-135914380D01*
X118419666Y-136914380D01*
X118753000Y-136914380D02*
X118753000Y-136247714D01*
X118753000Y-136342952D02*
X118800619Y-136295333D01*
X118895857Y-136247714D01*
X119038714Y-136247714D01*
X119133952Y-136295333D01*
X119181571Y-136390571D01*
X119181571Y-136914380D01*
X119181571Y-136390571D02*
X119229190Y-136295333D01*
X119324428Y-136247714D01*
X119467285Y-136247714D01*
X119562523Y-136295333D01*
X119610142Y-136390571D01*
X119610142Y-136914380D01*
X120086333Y-136247714D02*
X120086333Y-137247714D01*
X120086333Y-136295333D02*
X120181571Y-136247714D01*
X120372047Y-136247714D01*
X120467285Y-136295333D01*
X120514904Y-136342952D01*
X120562523Y-136438190D01*
X120562523Y-136723904D01*
X120514904Y-136819142D01*
X120467285Y-136866761D01*
X120372047Y-136914380D01*
X120181571Y-136914380D01*
X120086333Y-136866761D01*
X121610142Y-135914380D02*
X121943476Y-136914380D01*
X122276809Y-135914380D01*
X122514904Y-135914380D02*
X123133952Y-135914380D01*
X122800619Y-136295333D01*
X122943476Y-136295333D01*
X123038714Y-136342952D01*
X123086333Y-136390571D01*
X123133952Y-136485809D01*
X123133952Y-136723904D01*
X123086333Y-136819142D01*
X123038714Y-136866761D01*
X122943476Y-136914380D01*
X122657761Y-136914380D01*
X122562523Y-136866761D01*
X122514904Y-136819142D01*
X113633952Y-138564380D02*
X113633952Y-137564380D01*
X113967285Y-138278666D01*
X114300619Y-137564380D01*
X114300619Y-138564380D01*
X114776809Y-138564380D02*
X114776809Y-137897714D01*
X114776809Y-137564380D02*
X114729190Y-137612000D01*
X114776809Y-137659619D01*
X114824428Y-137612000D01*
X114776809Y-137564380D01*
X114776809Y-137659619D01*
X115681571Y-138516761D02*
X115586333Y-138564380D01*
X115395857Y-138564380D01*
X115300619Y-138516761D01*
X115253000Y-138469142D01*
X115205380Y-138373904D01*
X115205380Y-138088190D01*
X115253000Y-137992952D01*
X115300619Y-137945333D01*
X115395857Y-137897714D01*
X115586333Y-137897714D01*
X115681571Y-137945333D01*
X116110142Y-138564380D02*
X116110142Y-137564380D01*
X116538714Y-138564380D02*
X116538714Y-138040571D01*
X116491095Y-137945333D01*
X116395857Y-137897714D01*
X116253000Y-137897714D01*
X116157761Y-137945333D01*
X116110142Y-137992952D01*
X117443476Y-138564380D02*
X117443476Y-138040571D01*
X117395857Y-137945333D01*
X117300619Y-137897714D01*
X117110142Y-137897714D01*
X117014904Y-137945333D01*
X117443476Y-138516761D02*
X117348238Y-138564380D01*
X117110142Y-138564380D01*
X117014904Y-138516761D01*
X116967285Y-138421523D01*
X116967285Y-138326285D01*
X117014904Y-138231047D01*
X117110142Y-138183428D01*
X117348238Y-138183428D01*
X117443476Y-138135809D01*
X118300619Y-138516761D02*
X118205380Y-138564380D01*
X118014904Y-138564380D01*
X117919666Y-138516761D01*
X117872047Y-138421523D01*
X117872047Y-138040571D01*
X117919666Y-137945333D01*
X118014904Y-137897714D01*
X118205380Y-137897714D01*
X118300619Y-137945333D01*
X118348238Y-138040571D01*
X118348238Y-138135809D01*
X117872047Y-138231047D01*
X118919666Y-138564380D02*
X118824428Y-138516761D01*
X118776809Y-138421523D01*
X118776809Y-137564380D01*
X120014904Y-138516761D02*
X120157761Y-138564380D01*
X120395857Y-138564380D01*
X120491095Y-138516761D01*
X120538714Y-138469142D01*
X120586333Y-138373904D01*
X120586333Y-138278666D01*
X120538714Y-138183428D01*
X120491095Y-138135809D01*
X120395857Y-138088190D01*
X120205380Y-138040571D01*
X120110142Y-137992952D01*
X120062523Y-137945333D01*
X120014904Y-137850095D01*
X120014904Y-137754857D01*
X120062523Y-137659619D01*
X120110142Y-137612000D01*
X120205380Y-137564380D01*
X120443476Y-137564380D01*
X120586333Y-137612000D01*
X121443476Y-138516761D02*
X121348238Y-138564380D01*
X121157761Y-138564380D01*
X121062523Y-138516761D01*
X121014904Y-138469142D01*
X120967285Y-138373904D01*
X120967285Y-138088190D01*
X121014904Y-137992952D01*
X121062523Y-137945333D01*
X121157761Y-137897714D01*
X121348238Y-137897714D01*
X121443476Y-137945333D01*
X121872047Y-138564380D02*
X121872047Y-137564380D01*
X122300619Y-138564380D02*
X122300619Y-138040571D01*
X122253000Y-137945333D01*
X122157761Y-137897714D01*
X122014904Y-137897714D01*
X121919666Y-137945333D01*
X121872047Y-137992952D01*
X123157761Y-138516761D02*
X123062523Y-138564380D01*
X122872047Y-138564380D01*
X122776809Y-138516761D01*
X122729190Y-138421523D01*
X122729190Y-138040571D01*
X122776809Y-137945333D01*
X122872047Y-137897714D01*
X123062523Y-137897714D01*
X123157761Y-137945333D01*
X123205380Y-138040571D01*
X123205380Y-138135809D01*
X122729190Y-138231047D01*
X123633952Y-137897714D02*
X123633952Y-138564380D01*
X123633952Y-137992952D02*
X123681571Y-137945333D01*
X123776809Y-137897714D01*
X123919666Y-137897714D01*
X124014904Y-137945333D01*
X124062523Y-138040571D01*
X124062523Y-138564380D01*
X124538714Y-138564380D02*
X124538714Y-137564380D01*
X124633952Y-138183428D02*
X124919666Y-138564380D01*
X124919666Y-137897714D02*
X124538714Y-138278666D01*
X115157761Y-139309619D02*
X115205380Y-139262000D01*
X115300619Y-139214380D01*
X115538714Y-139214380D01*
X115633952Y-139262000D01*
X115681571Y-139309619D01*
X115729190Y-139404857D01*
X115729190Y-139500095D01*
X115681571Y-139642952D01*
X115110142Y-140214380D01*
X115729190Y-140214380D01*
X116348238Y-139214380D02*
X116443476Y-139214380D01*
X116538714Y-139262000D01*
X116586333Y-139309619D01*
X116633952Y-139404857D01*
X116681571Y-139595333D01*
X116681571Y-139833428D01*
X116633952Y-140023904D01*
X116586333Y-140119142D01*
X116538714Y-140166761D01*
X116443476Y-140214380D01*
X116348238Y-140214380D01*
X116253000Y-140166761D01*
X116205380Y-140119142D01*
X116157761Y-140023904D01*
X116110142Y-139833428D01*
X116110142Y-139595333D01*
X116157761Y-139404857D01*
X116205380Y-139309619D01*
X116253000Y-139262000D01*
X116348238Y-139214380D01*
X117062523Y-139309619D02*
X117110142Y-139262000D01*
X117205380Y-139214380D01*
X117443476Y-139214380D01*
X117538714Y-139262000D01*
X117586333Y-139309619D01*
X117633952Y-139404857D01*
X117633952Y-139500095D01*
X117586333Y-139642952D01*
X117014904Y-140214380D01*
X117633952Y-140214380D01*
X118586333Y-140214380D02*
X118014904Y-140214380D01*
X118300619Y-140214380D02*
X118300619Y-139214380D01*
X118205380Y-139357238D01*
X118110142Y-139452476D01*
X118014904Y-139500095D01*
X119014904Y-140119142D02*
X119062523Y-140166761D01*
X119014904Y-140214380D01*
X118967285Y-140166761D01*
X119014904Y-140119142D01*
X119014904Y-140214380D01*
X119681571Y-139214380D02*
X119776809Y-139214380D01*
X119872047Y-139262000D01*
X119919666Y-139309619D01*
X119967285Y-139404857D01*
X120014904Y-139595333D01*
X120014904Y-139833428D01*
X119967285Y-140023904D01*
X119919666Y-140119142D01*
X119872047Y-140166761D01*
X119776809Y-140214380D01*
X119681571Y-140214380D01*
X119586333Y-140166761D01*
X119538714Y-140119142D01*
X119491095Y-140023904D01*
X119443476Y-139833428D01*
X119443476Y-139595333D01*
X119491095Y-139404857D01*
X119538714Y-139309619D01*
X119586333Y-139262000D01*
X119681571Y-139214380D01*
X120348238Y-139214380D02*
X120967285Y-139214380D01*
X120633952Y-139595333D01*
X120776809Y-139595333D01*
X120872047Y-139642952D01*
X120919666Y-139690571D01*
X120967285Y-139785809D01*
X120967285Y-140023904D01*
X120919666Y-140119142D01*
X120872047Y-140166761D01*
X120776809Y-140214380D01*
X120491095Y-140214380D01*
X120395857Y-140166761D01*
X120348238Y-140119142D01*
X121395857Y-140119142D02*
X121443476Y-140166761D01*
X121395857Y-140214380D01*
X121348238Y-140166761D01*
X121395857Y-140119142D01*
X121395857Y-140214380D01*
X122062523Y-139214380D02*
X122157761Y-139214380D01*
X122253000Y-139262000D01*
X122300619Y-139309619D01*
X122348238Y-139404857D01*
X122395857Y-139595333D01*
X122395857Y-139833428D01*
X122348238Y-140023904D01*
X122300619Y-140119142D01*
X122253000Y-140166761D01*
X122157761Y-140214380D01*
X122062523Y-140214380D01*
X121967285Y-140166761D01*
X121919666Y-140119142D01*
X121872047Y-140023904D01*
X121824428Y-139833428D01*
X121824428Y-139595333D01*
X121872047Y-139404857D01*
X121919666Y-139309619D01*
X121967285Y-139262000D01*
X122062523Y-139214380D01*
X122729190Y-139214380D02*
X123395857Y-139214380D01*
X122967285Y-140214380D01*
X143082714Y-141168380D02*
X143082714Y-140501714D01*
X143082714Y-140596952D02*
X143130333Y-140549333D01*
X143225571Y-140501714D01*
X143368428Y-140501714D01*
X143463666Y-140549333D01*
X143511285Y-140644571D01*
X143511285Y-141168380D01*
X143511285Y-140644571D02*
X143558904Y-140549333D01*
X143654142Y-140501714D01*
X143797000Y-140501714D01*
X143892238Y-140549333D01*
X143939857Y-140644571D01*
X143939857Y-141168380D01*
X144416047Y-141168380D02*
X144416047Y-140501714D01*
X144416047Y-140168380D02*
X144368428Y-140216000D01*
X144416047Y-140263619D01*
X144463666Y-140216000D01*
X144416047Y-140168380D01*
X144416047Y-140263619D01*
X145320809Y-141120761D02*
X145225571Y-141168380D01*
X145035095Y-141168380D01*
X144939857Y-141120761D01*
X144892238Y-141073142D01*
X144844619Y-140977904D01*
X144844619Y-140692190D01*
X144892238Y-140596952D01*
X144939857Y-140549333D01*
X145035095Y-140501714D01*
X145225571Y-140501714D01*
X145320809Y-140549333D01*
X145749380Y-141168380D02*
X145749380Y-140168380D01*
X146177952Y-141168380D02*
X146177952Y-140644571D01*
X146130333Y-140549333D01*
X146035095Y-140501714D01*
X145892238Y-140501714D01*
X145797000Y-140549333D01*
X145749380Y-140596952D01*
X147082714Y-141168380D02*
X147082714Y-140644571D01*
X147035095Y-140549333D01*
X146939857Y-140501714D01*
X146749380Y-140501714D01*
X146654142Y-140549333D01*
X147082714Y-141120761D02*
X146987476Y-141168380D01*
X146749380Y-141168380D01*
X146654142Y-141120761D01*
X146606523Y-141025523D01*
X146606523Y-140930285D01*
X146654142Y-140835047D01*
X146749380Y-140787428D01*
X146987476Y-140787428D01*
X147082714Y-140739809D01*
X147939857Y-141120761D02*
X147844619Y-141168380D01*
X147654142Y-141168380D01*
X147558904Y-141120761D01*
X147511285Y-141025523D01*
X147511285Y-140644571D01*
X147558904Y-140549333D01*
X147654142Y-140501714D01*
X147844619Y-140501714D01*
X147939857Y-140549333D01*
X147987476Y-140644571D01*
X147987476Y-140739809D01*
X147511285Y-140835047D01*
X148558904Y-141168380D02*
X148463666Y-141120761D01*
X148416047Y-141025523D01*
X148416047Y-140168380D01*
X148892238Y-141120761D02*
X148987476Y-141168380D01*
X149177952Y-141168380D01*
X149273190Y-141120761D01*
X149320809Y-141025523D01*
X149320809Y-140977904D01*
X149273190Y-140882666D01*
X149177952Y-140835047D01*
X149035095Y-140835047D01*
X148939857Y-140787428D01*
X148892238Y-140692190D01*
X148892238Y-140644571D01*
X148939857Y-140549333D01*
X149035095Y-140501714D01*
X149177952Y-140501714D01*
X149273190Y-140549333D01*
X150177952Y-141120761D02*
X150082714Y-141168380D01*
X149892238Y-141168380D01*
X149797000Y-141120761D01*
X149749380Y-141073142D01*
X149701761Y-140977904D01*
X149701761Y-140692190D01*
X149749380Y-140596952D01*
X149797000Y-140549333D01*
X149892238Y-140501714D01*
X150082714Y-140501714D01*
X150177952Y-140549333D01*
X150606523Y-141168380D02*
X150606523Y-140168380D01*
X151035095Y-141168380D02*
X151035095Y-140644571D01*
X150987476Y-140549333D01*
X150892238Y-140501714D01*
X150749380Y-140501714D01*
X150654142Y-140549333D01*
X150606523Y-140596952D01*
X151892238Y-141120761D02*
X151797000Y-141168380D01*
X151606523Y-141168380D01*
X151511285Y-141120761D01*
X151463666Y-141025523D01*
X151463666Y-140644571D01*
X151511285Y-140549333D01*
X151606523Y-140501714D01*
X151797000Y-140501714D01*
X151892238Y-140549333D01*
X151939857Y-140644571D01*
X151939857Y-140739809D01*
X151463666Y-140835047D01*
X152368428Y-140501714D02*
X152368428Y-141168380D01*
X152368428Y-140596952D02*
X152416047Y-140549333D01*
X152511285Y-140501714D01*
X152654142Y-140501714D01*
X152749380Y-140549333D01*
X152797000Y-140644571D01*
X152797000Y-141168380D01*
X153273190Y-141168380D02*
X153273190Y-140168380D01*
X153368428Y-140787428D02*
X153654142Y-141168380D01*
X153654142Y-140501714D02*
X153273190Y-140882666D01*
X153987476Y-140168380D02*
X154654142Y-140168380D01*
X154225571Y-141168380D01*
X154987476Y-140263619D02*
X155035095Y-140216000D01*
X155130333Y-140168380D01*
X155368428Y-140168380D01*
X155463666Y-140216000D01*
X155511285Y-140263619D01*
X155558904Y-140358857D01*
X155558904Y-140454095D01*
X155511285Y-140596952D01*
X154939857Y-141168380D01*
X155558904Y-141168380D01*
X156606523Y-140692190D02*
X156558904Y-140644571D01*
X156463666Y-140596952D01*
X156368428Y-140596952D01*
X156273190Y-140644571D01*
X156225571Y-140692190D01*
X156177952Y-140787428D01*
X156177952Y-140882666D01*
X156225571Y-140977904D01*
X156273190Y-141025523D01*
X156368428Y-141073142D01*
X156463666Y-141073142D01*
X156558904Y-141025523D01*
X156606523Y-140977904D01*
X156606523Y-140596952D02*
X156606523Y-140977904D01*
X156654142Y-141025523D01*
X156701761Y-141025523D01*
X156797000Y-140977904D01*
X156844619Y-140882666D01*
X156844619Y-140644571D01*
X156749380Y-140501714D01*
X156606523Y-140406476D01*
X156416047Y-140358857D01*
X156225571Y-140406476D01*
X156082714Y-140501714D01*
X155987476Y-140644571D01*
X155939857Y-140835047D01*
X155987476Y-141025523D01*
X156082714Y-141168380D01*
X156225571Y-141263619D01*
X156416047Y-141311238D01*
X156606523Y-141263619D01*
X156749380Y-141168380D01*
X157701761Y-140501714D02*
X157701761Y-141311238D01*
X157654142Y-141406476D01*
X157606523Y-141454095D01*
X157511285Y-141501714D01*
X157368428Y-141501714D01*
X157273190Y-141454095D01*
X157701761Y-141120761D02*
X157606523Y-141168380D01*
X157416047Y-141168380D01*
X157320809Y-141120761D01*
X157273190Y-141073142D01*
X157225571Y-140977904D01*
X157225571Y-140692190D01*
X157273190Y-140596952D01*
X157320809Y-140549333D01*
X157416047Y-140501714D01*
X157606523Y-140501714D01*
X157701761Y-140549333D01*
X158177952Y-141168380D02*
X158177952Y-140501714D01*
X158177952Y-140596952D02*
X158225571Y-140549333D01*
X158320809Y-140501714D01*
X158463666Y-140501714D01*
X158558904Y-140549333D01*
X158606523Y-140644571D01*
X158606523Y-141168380D01*
X158606523Y-140644571D02*
X158654142Y-140549333D01*
X158749380Y-140501714D01*
X158892238Y-140501714D01*
X158987476Y-140549333D01*
X159035095Y-140644571D01*
X159035095Y-141168380D01*
X159939857Y-141168380D02*
X159939857Y-140644571D01*
X159892238Y-140549333D01*
X159797000Y-140501714D01*
X159606523Y-140501714D01*
X159511285Y-140549333D01*
X159939857Y-141120761D02*
X159844619Y-141168380D01*
X159606523Y-141168380D01*
X159511285Y-141120761D01*
X159463666Y-141025523D01*
X159463666Y-140930285D01*
X159511285Y-140835047D01*
X159606523Y-140787428D01*
X159844619Y-140787428D01*
X159939857Y-140739809D01*
X160416047Y-141168380D02*
X160416047Y-140501714D01*
X160416047Y-140168380D02*
X160368428Y-140216000D01*
X160416047Y-140263619D01*
X160463666Y-140216000D01*
X160416047Y-140168380D01*
X160416047Y-140263619D01*
X161035095Y-141168380D02*
X160939857Y-141120761D01*
X160892238Y-141025523D01*
X160892238Y-140168380D01*
X161416047Y-141073142D02*
X161463666Y-141120761D01*
X161416047Y-141168380D01*
X161368428Y-141120761D01*
X161416047Y-141073142D01*
X161416047Y-141168380D01*
X162320809Y-141120761D02*
X162225571Y-141168380D01*
X162035095Y-141168380D01*
X161939857Y-141120761D01*
X161892238Y-141073142D01*
X161844619Y-140977904D01*
X161844619Y-140692190D01*
X161892238Y-140596952D01*
X161939857Y-140549333D01*
X162035095Y-140501714D01*
X162225571Y-140501714D01*
X162320809Y-140549333D01*
X162892238Y-141168380D02*
X162797000Y-141120761D01*
X162749380Y-141073142D01*
X162701761Y-140977904D01*
X162701761Y-140692190D01*
X162749380Y-140596952D01*
X162797000Y-140549333D01*
X162892238Y-140501714D01*
X163035095Y-140501714D01*
X163130333Y-140549333D01*
X163177952Y-140596952D01*
X163225571Y-140692190D01*
X163225571Y-140977904D01*
X163177952Y-141073142D01*
X163130333Y-141120761D01*
X163035095Y-141168380D01*
X162892238Y-141168380D01*
X163654142Y-141168380D02*
X163654142Y-140501714D01*
X163654142Y-140596952D02*
X163701761Y-140549333D01*
X163797000Y-140501714D01*
X163939857Y-140501714D01*
X164035095Y-140549333D01*
X164082714Y-140644571D01*
X164082714Y-141168380D01*
X164082714Y-140644571D02*
X164130333Y-140549333D01*
X164225571Y-140501714D01*
X164368428Y-140501714D01*
X164463666Y-140549333D01*
X164511285Y-140644571D01*
X164511285Y-141168380D01*
D11*
X139684000Y-122234000D02*
X141334000Y-122234000D01*
X141334000Y-122234000D02*
X141334000Y-111954000D01*
X141334000Y-111954000D02*
X136034000Y-111954000D01*
X136034000Y-111954000D02*
X136034000Y-122234000D01*
X136034000Y-122234000D02*
X137684000Y-122234000D01*
X137684000Y-122234000D02*
G75*
G02*
X139684000Y-122234000I1000000J0D01*
G01*
X112749000Y-113072936D02*
X112749000Y-113527064D01*
X111279000Y-113072936D02*
X111279000Y-113527064D01*
X123776000Y-109554000D02*
X121346000Y-109554000D01*
X122016000Y-112624000D02*
X123776000Y-112624000D01*
X121559000Y-125541000D02*
X121559000Y-122091000D01*
X121559000Y-125541000D02*
X121559000Y-127491000D01*
X116439000Y-125541000D02*
X116439000Y-123591000D01*
X116439000Y-125541000D02*
X116439000Y-127491000D01*
X108060000Y-112970000D02*
X106410000Y-112970000D01*
X108060000Y-123250000D02*
X108060000Y-112970000D01*
X102760000Y-123250000D02*
X108060000Y-123250000D01*
X102760000Y-112970000D02*
X102760000Y-123250000D01*
X104410000Y-112970000D02*
X102760000Y-112970000D01*
X106410000Y-112970000D02*
G75*
G02*
X104410000Y-112970000I-1000000J0D01*
G01*
X127296936Y-112749000D02*
X127751064Y-112749000D01*
X127296936Y-111279000D02*
X127751064Y-111279000D01*
X122311936Y-115035000D02*
X122766064Y-115035000D01*
X122311936Y-113565000D02*
X122766064Y-113565000D01*
X149452000Y-115051064D02*
X149452000Y-114596936D01*
X147982000Y-115051064D02*
X147982000Y-114596936D01*
X146023064Y-115089000D02*
X145568936Y-115089000D01*
X146023064Y-116559000D02*
X145568936Y-116559000D01*
X145642000Y-120131064D02*
X145642000Y-119676936D01*
X144172000Y-120131064D02*
X144172000Y-119676936D01*
X130513064Y-120169000D02*
X130058936Y-120169000D01*
X130513064Y-121639000D02*
X130058936Y-121639000D01*
X112803000Y-105325936D02*
X112803000Y-105780064D01*
X114273000Y-105325936D02*
X114273000Y-105780064D01*
X123217000Y-125232936D02*
X123217000Y-125687064D01*
X124687000Y-125232936D02*
X124687000Y-125687064D01*
X93499000Y-109516936D02*
X93499000Y-109971064D01*
X94969000Y-109516936D02*
X94969000Y-109971064D01*
X107272064Y-105818000D02*
X106817936Y-105818000D01*
X107272064Y-107288000D02*
X106817936Y-107288000D01*
X100865000Y-110389936D02*
X100865000Y-110844064D01*
X102335000Y-110389936D02*
X102335000Y-110844064D01*
X98325000Y-114342936D02*
X98325000Y-114797064D01*
X99795000Y-114342936D02*
X99795000Y-114797064D01*
X94969000Y-114035064D02*
X94969000Y-113580936D01*
X93499000Y-114035064D02*
X93499000Y-113580936D01*
X97763000Y-116067064D02*
X97763000Y-115612936D01*
X96293000Y-116067064D02*
X96293000Y-115612936D01*
X89181000Y-120152936D02*
X89181000Y-120607064D01*
X90651000Y-120152936D02*
X90651000Y-120607064D01*
X155175000Y-122174000D02*
G75*
G03*
X155175000Y-122174000I-1251000J0D01*
G01*
X155175000Y-115824000D02*
G75*
G03*
X155175000Y-115824000I-1251000J0D01*
G01*
X172701000Y-125095000D02*
G75*
G03*
X172701000Y-125095000I-1251000J0D01*
G01*
X172701000Y-116840000D02*
G75*
G03*
X172701000Y-116840000I-1251000J0D01*
G01*
X172701000Y-108585000D02*
G75*
G03*
X172701000Y-108585000I-1251000J0D01*
G01*
X86087000Y-129413000D02*
G75*
G03*
X86087000Y-129413000I-1251000J0D01*
G01*
X86087000Y-119380000D02*
G75*
G03*
X86087000Y-119380000I-1251000J0D01*
G01*
X120319000Y-119853000D02*
X120319000Y-116113000D01*
X127759000Y-119853000D02*
X127759000Y-116113000D01*
X127759000Y-116113000D02*
X120319000Y-116113000D01*
X127759000Y-119853000D02*
X120319000Y-119853000D01*
X119734000Y-112380752D02*
X119734000Y-111858248D01*
X118264000Y-112380752D02*
X118264000Y-111858248D01*
X124939248Y-108685000D02*
X125461752Y-108685000D01*
X124939248Y-107215000D02*
X125461752Y-107215000D01*
X122933000Y-104810000D02*
X122933000Y-108550000D01*
X115493000Y-104810000D02*
X115493000Y-108550000D01*
X115493000Y-108550000D02*
X122933000Y-108550000D01*
X115493000Y-104810000D02*
X122933000Y-104810000D01*
X151913000Y-114972752D02*
X151913000Y-113550248D01*
X150093000Y-114972752D02*
X150093000Y-113550248D01*
X134953000Y-133140698D02*
X135753000Y-133140698D01*
X135353000Y-133540698D02*
X135353000Y-132740698D01*
X137135000Y-125050000D02*
X138201000Y-125050000D01*
X136900000Y-125090000D02*
X138436000Y-125090000D01*
X136720000Y-125130000D02*
X138616000Y-125130000D01*
X136570000Y-125170000D02*
X138766000Y-125170000D01*
X136439000Y-125210000D02*
X138897000Y-125210000D01*
X136322000Y-125250000D02*
X139014000Y-125250000D01*
X136215000Y-125290000D02*
X139121000Y-125290000D01*
X136116000Y-125330000D02*
X139220000Y-125330000D01*
X136023000Y-125370000D02*
X139313000Y-125370000D01*
X135937000Y-125410000D02*
X139399000Y-125410000D01*
X135855000Y-125450000D02*
X139481000Y-125450000D01*
X135778000Y-125490000D02*
X139558000Y-125490000D01*
X135704000Y-125530000D02*
X139632000Y-125530000D01*
X135634000Y-125570000D02*
X139702000Y-125570000D01*
X135566000Y-125610000D02*
X139770000Y-125610000D01*
X135502000Y-125650000D02*
X139834000Y-125650000D01*
X135440000Y-125690000D02*
X139896000Y-125690000D01*
X135381000Y-125730000D02*
X139955000Y-125730000D01*
X135323000Y-125770000D02*
X140013000Y-125770000D01*
X135268000Y-125810000D02*
X140068000Y-125810000D01*
X135214000Y-125850000D02*
X140122000Y-125850000D01*
X135163000Y-125890000D02*
X140173000Y-125890000D01*
X135112000Y-125930000D02*
X140224000Y-125930000D01*
X135064000Y-125970000D02*
X140272000Y-125970000D01*
X135017000Y-126010000D02*
X140319000Y-126010000D01*
X134971000Y-126050000D02*
X140365000Y-126050000D01*
X134927000Y-126090000D02*
X140409000Y-126090000D01*
X134884000Y-126130000D02*
X140452000Y-126130000D01*
X134842000Y-126170000D02*
X140494000Y-126170000D01*
X134801000Y-126210000D02*
X140535000Y-126210000D01*
X134761000Y-126250000D02*
X140575000Y-126250000D01*
X134723000Y-126290000D02*
X140613000Y-126290000D01*
X134685000Y-126330000D02*
X140651000Y-126330000D01*
X138708000Y-126370000D02*
X140687000Y-126370000D01*
X134649000Y-126370000D02*
X136628000Y-126370000D01*
X138708000Y-126410000D02*
X140723000Y-126410000D01*
X134613000Y-126410000D02*
X136628000Y-126410000D01*
X138708000Y-126450000D02*
X140758000Y-126450000D01*
X134578000Y-126450000D02*
X136628000Y-126450000D01*
X138708000Y-126490000D02*
X140792000Y-126490000D01*
X134544000Y-126490000D02*
X136628000Y-126490000D01*
X138708000Y-126530000D02*
X140824000Y-126530000D01*
X134512000Y-126530000D02*
X136628000Y-126530000D01*
X138708000Y-126570000D02*
X140857000Y-126570000D01*
X134479000Y-126570000D02*
X136628000Y-126570000D01*
X138708000Y-126610000D02*
X140888000Y-126610000D01*
X134448000Y-126610000D02*
X136628000Y-126610000D01*
X138708000Y-126650000D02*
X140918000Y-126650000D01*
X134418000Y-126650000D02*
X136628000Y-126650000D01*
X138708000Y-126690000D02*
X140948000Y-126690000D01*
X134388000Y-126690000D02*
X136628000Y-126690000D01*
X138708000Y-126730000D02*
X140977000Y-126730000D01*
X134359000Y-126730000D02*
X136628000Y-126730000D01*
X138708000Y-126770000D02*
X141006000Y-126770000D01*
X134330000Y-126770000D02*
X136628000Y-126770000D01*
X138708000Y-126810000D02*
X141033000Y-126810000D01*
X134303000Y-126810000D02*
X136628000Y-126810000D01*
X138708000Y-126850000D02*
X141060000Y-126850000D01*
X134276000Y-126850000D02*
X136628000Y-126850000D01*
X138708000Y-126890000D02*
X141086000Y-126890000D01*
X134250000Y-126890000D02*
X136628000Y-126890000D01*
X138708000Y-126930000D02*
X141112000Y-126930000D01*
X134224000Y-126930000D02*
X136628000Y-126930000D01*
X138708000Y-126970000D02*
X141137000Y-126970000D01*
X134199000Y-126970000D02*
X136628000Y-126970000D01*
X138708000Y-127010000D02*
X141161000Y-127010000D01*
X134175000Y-127010000D02*
X136628000Y-127010000D01*
X138708000Y-127050000D02*
X141185000Y-127050000D01*
X134151000Y-127050000D02*
X136628000Y-127050000D01*
X138708000Y-127090000D02*
X141208000Y-127090000D01*
X134128000Y-127090000D02*
X136628000Y-127090000D01*
X138708000Y-127130000D02*
X141230000Y-127130000D01*
X134106000Y-127130000D02*
X136628000Y-127130000D01*
X138708000Y-127170000D02*
X141252000Y-127170000D01*
X134084000Y-127170000D02*
X136628000Y-127170000D01*
X138708000Y-127210000D02*
X141274000Y-127210000D01*
X134062000Y-127210000D02*
X136628000Y-127210000D01*
X138708000Y-127250000D02*
X141295000Y-127250000D01*
X134041000Y-127250000D02*
X136628000Y-127250000D01*
X138708000Y-127290000D02*
X141315000Y-127290000D01*
X134021000Y-127290000D02*
X136628000Y-127290000D01*
X138708000Y-127330000D02*
X141334000Y-127330000D01*
X134002000Y-127330000D02*
X136628000Y-127330000D01*
X138708000Y-127370000D02*
X141354000Y-127370000D01*
X133982000Y-127370000D02*
X136628000Y-127370000D01*
X138708000Y-127410000D02*
X141372000Y-127410000D01*
X133964000Y-127410000D02*
X136628000Y-127410000D01*
X138708000Y-127450000D02*
X141390000Y-127450000D01*
X133946000Y-127450000D02*
X136628000Y-127450000D01*
X138708000Y-127490000D02*
X141408000Y-127490000D01*
X133928000Y-127490000D02*
X136628000Y-127490000D01*
X138708000Y-127530000D02*
X141425000Y-127530000D01*
X133911000Y-127530000D02*
X136628000Y-127530000D01*
X138708000Y-127570000D02*
X141442000Y-127570000D01*
X133894000Y-127570000D02*
X136628000Y-127570000D01*
X138708000Y-127610000D02*
X141458000Y-127610000D01*
X133878000Y-127610000D02*
X136628000Y-127610000D01*
X138708000Y-127650000D02*
X141473000Y-127650000D01*
X133863000Y-127650000D02*
X136628000Y-127650000D01*
X138708000Y-127690000D02*
X141489000Y-127690000D01*
X133847000Y-127690000D02*
X136628000Y-127690000D01*
X138708000Y-127730000D02*
X141503000Y-127730000D01*
X133833000Y-127730000D02*
X136628000Y-127730000D01*
X138708000Y-127770000D02*
X141518000Y-127770000D01*
X133818000Y-127770000D02*
X136628000Y-127770000D01*
X138708000Y-127810000D02*
X141531000Y-127810000D01*
X133805000Y-127810000D02*
X136628000Y-127810000D01*
X138708000Y-127850000D02*
X141545000Y-127850000D01*
X133791000Y-127850000D02*
X136628000Y-127850000D01*
X138708000Y-127890000D02*
X141557000Y-127890000D01*
X133779000Y-127890000D02*
X136628000Y-127890000D01*
X138708000Y-127930000D02*
X141570000Y-127930000D01*
X133766000Y-127930000D02*
X136628000Y-127930000D01*
X138708000Y-127970000D02*
X141582000Y-127970000D01*
X133754000Y-127970000D02*
X136628000Y-127970000D01*
X138708000Y-128010000D02*
X141593000Y-128010000D01*
X133743000Y-128010000D02*
X136628000Y-128010000D01*
X138708000Y-128050000D02*
X141604000Y-128050000D01*
X133732000Y-128050000D02*
X136628000Y-128050000D01*
X138708000Y-128090000D02*
X141615000Y-128090000D01*
X133721000Y-128090000D02*
X136628000Y-128090000D01*
X138708000Y-128130000D02*
X141625000Y-128130000D01*
X133711000Y-128130000D02*
X136628000Y-128130000D01*
X138708000Y-128170000D02*
X141635000Y-128170000D01*
X133701000Y-128170000D02*
X136628000Y-128170000D01*
X138708000Y-128210000D02*
X141644000Y-128210000D01*
X133692000Y-128210000D02*
X136628000Y-128210000D01*
X138708000Y-128250000D02*
X141653000Y-128250000D01*
X133683000Y-128250000D02*
X136628000Y-128250000D01*
X138708000Y-128290000D02*
X141662000Y-128290000D01*
X133674000Y-128290000D02*
X136628000Y-128290000D01*
X138708000Y-128330000D02*
X141670000Y-128330000D01*
X133666000Y-128330000D02*
X136628000Y-128330000D01*
X138708000Y-128370000D02*
X141678000Y-128370000D01*
X133658000Y-128370000D02*
X136628000Y-128370000D01*
X138708000Y-128410000D02*
X141685000Y-128410000D01*
X133651000Y-128410000D02*
X136628000Y-128410000D01*
X133644000Y-128451000D02*
X141692000Y-128451000D01*
X133638000Y-128491000D02*
X141698000Y-128491000D01*
X133631000Y-128531000D02*
X141705000Y-128531000D01*
X133626000Y-128571000D02*
X141710000Y-128571000D01*
X133620000Y-128611000D02*
X141716000Y-128611000D01*
X133616000Y-128651000D02*
X141720000Y-128651000D01*
X133611000Y-128691000D02*
X141725000Y-128691000D01*
X133607000Y-128731000D02*
X141729000Y-128731000D01*
X133603000Y-128771000D02*
X141733000Y-128771000D01*
X133600000Y-128811000D02*
X141736000Y-128811000D01*
X133597000Y-128851000D02*
X141739000Y-128851000D01*
X133594000Y-128891000D02*
X141742000Y-128891000D01*
X133592000Y-128931000D02*
X141744000Y-128931000D01*
X133591000Y-128971000D02*
X141745000Y-128971000D01*
X133589000Y-129011000D02*
X141747000Y-129011000D01*
X133588000Y-129051000D02*
X141748000Y-129051000D01*
X133588000Y-129091000D02*
X141748000Y-129091000D01*
X133588000Y-129131000D02*
X141748000Y-129131000D01*
X141788000Y-129131000D02*
G75*
G03*
X141788000Y-129131000I-4120000J0D01*
G01*
X130720000Y-113550248D02*
X130720000Y-114972752D01*
X133440000Y-113550248D02*
X133440000Y-114972752D01*
X143345248Y-125693000D02*
X144767752Y-125693000D01*
X143345248Y-122973000D02*
X144767752Y-122973000D01*
X141176000Y-107415698D02*
X141976000Y-107415698D01*
X141576000Y-107815698D02*
X141576000Y-107015698D01*
X143358000Y-99325000D02*
X144424000Y-99325000D01*
X143123000Y-99365000D02*
X144659000Y-99365000D01*
X142943000Y-99405000D02*
X144839000Y-99405000D01*
X142793000Y-99445000D02*
X144989000Y-99445000D01*
X142662000Y-99485000D02*
X145120000Y-99485000D01*
X142545000Y-99525000D02*
X145237000Y-99525000D01*
X142438000Y-99565000D02*
X145344000Y-99565000D01*
X142339000Y-99605000D02*
X145443000Y-99605000D01*
X142246000Y-99645000D02*
X145536000Y-99645000D01*
X142160000Y-99685000D02*
X145622000Y-99685000D01*
X142078000Y-99725000D02*
X145704000Y-99725000D01*
X142001000Y-99765000D02*
X145781000Y-99765000D01*
X141927000Y-99805000D02*
X145855000Y-99805000D01*
X141857000Y-99845000D02*
X145925000Y-99845000D01*
X141789000Y-99885000D02*
X145993000Y-99885000D01*
X141725000Y-99925000D02*
X146057000Y-99925000D01*
X141663000Y-99965000D02*
X146119000Y-99965000D01*
X141604000Y-100005000D02*
X146178000Y-100005000D01*
X141546000Y-100045000D02*
X146236000Y-100045000D01*
X141491000Y-100085000D02*
X146291000Y-100085000D01*
X141437000Y-100125000D02*
X146345000Y-100125000D01*
X141386000Y-100165000D02*
X146396000Y-100165000D01*
X141335000Y-100205000D02*
X146447000Y-100205000D01*
X141287000Y-100245000D02*
X146495000Y-100245000D01*
X141240000Y-100285000D02*
X146542000Y-100285000D01*
X141194000Y-100325000D02*
X146588000Y-100325000D01*
X141150000Y-100365000D02*
X146632000Y-100365000D01*
X141107000Y-100405000D02*
X146675000Y-100405000D01*
X141065000Y-100445000D02*
X146717000Y-100445000D01*
X141024000Y-100485000D02*
X146758000Y-100485000D01*
X140984000Y-100525000D02*
X146798000Y-100525000D01*
X140946000Y-100565000D02*
X146836000Y-100565000D01*
X140908000Y-100605000D02*
X146874000Y-100605000D01*
X144931000Y-100645000D02*
X146910000Y-100645000D01*
X140872000Y-100645000D02*
X142851000Y-100645000D01*
X144931000Y-100685000D02*
X146946000Y-100685000D01*
X140836000Y-100685000D02*
X142851000Y-100685000D01*
X144931000Y-100725000D02*
X146981000Y-100725000D01*
X140801000Y-100725000D02*
X142851000Y-100725000D01*
X144931000Y-100765000D02*
X147015000Y-100765000D01*
X140767000Y-100765000D02*
X142851000Y-100765000D01*
X144931000Y-100805000D02*
X147047000Y-100805000D01*
X140735000Y-100805000D02*
X142851000Y-100805000D01*
X144931000Y-100845000D02*
X147080000Y-100845000D01*
X140702000Y-100845000D02*
X142851000Y-100845000D01*
X144931000Y-100885000D02*
X147111000Y-100885000D01*
X140671000Y-100885000D02*
X142851000Y-100885000D01*
X144931000Y-100925000D02*
X147141000Y-100925000D01*
X140641000Y-100925000D02*
X142851000Y-100925000D01*
X144931000Y-100965000D02*
X147171000Y-100965000D01*
X140611000Y-100965000D02*
X142851000Y-100965000D01*
X144931000Y-101005000D02*
X147200000Y-101005000D01*
X140582000Y-101005000D02*
X142851000Y-101005000D01*
X144931000Y-101045000D02*
X147229000Y-101045000D01*
X140553000Y-101045000D02*
X142851000Y-101045000D01*
X144931000Y-101085000D02*
X147256000Y-101085000D01*
X140526000Y-101085000D02*
X142851000Y-101085000D01*
X144931000Y-101125000D02*
X147283000Y-101125000D01*
X140499000Y-101125000D02*
X142851000Y-101125000D01*
X144931000Y-101165000D02*
X147309000Y-101165000D01*
X140473000Y-101165000D02*
X142851000Y-101165000D01*
X144931000Y-101205000D02*
X147335000Y-101205000D01*
X140447000Y-101205000D02*
X142851000Y-101205000D01*
X144931000Y-101245000D02*
X147360000Y-101245000D01*
X140422000Y-101245000D02*
X142851000Y-101245000D01*
X144931000Y-101285000D02*
X147384000Y-101285000D01*
X140398000Y-101285000D02*
X142851000Y-101285000D01*
X144931000Y-101325000D02*
X147408000Y-101325000D01*
X140374000Y-101325000D02*
X142851000Y-101325000D01*
X144931000Y-101365000D02*
X147431000Y-101365000D01*
X140351000Y-101365000D02*
X142851000Y-101365000D01*
X144931000Y-101405000D02*
X147453000Y-101405000D01*
X140329000Y-101405000D02*
X142851000Y-101405000D01*
X144931000Y-101445000D02*
X147475000Y-101445000D01*
X140307000Y-101445000D02*
X142851000Y-101445000D01*
X144931000Y-101485000D02*
X147497000Y-101485000D01*
X140285000Y-101485000D02*
X142851000Y-101485000D01*
X144931000Y-101525000D02*
X147518000Y-101525000D01*
X140264000Y-101525000D02*
X142851000Y-101525000D01*
X144931000Y-101565000D02*
X147538000Y-101565000D01*
X140244000Y-101565000D02*
X142851000Y-101565000D01*
X144931000Y-101605000D02*
X147557000Y-101605000D01*
X140225000Y-101605000D02*
X142851000Y-101605000D01*
X144931000Y-101645000D02*
X147577000Y-101645000D01*
X140205000Y-101645000D02*
X142851000Y-101645000D01*
X144931000Y-101685000D02*
X147595000Y-101685000D01*
X140187000Y-101685000D02*
X142851000Y-101685000D01*
X144931000Y-101725000D02*
X147613000Y-101725000D01*
X140169000Y-101725000D02*
X142851000Y-101725000D01*
X144931000Y-101765000D02*
X147631000Y-101765000D01*
X140151000Y-101765000D02*
X142851000Y-101765000D01*
X144931000Y-101805000D02*
X147648000Y-101805000D01*
X140134000Y-101805000D02*
X142851000Y-101805000D01*
X144931000Y-101845000D02*
X147665000Y-101845000D01*
X140117000Y-101845000D02*
X142851000Y-101845000D01*
X144931000Y-101885000D02*
X147681000Y-101885000D01*
X140101000Y-101885000D02*
X142851000Y-101885000D01*
X144931000Y-101925000D02*
X147696000Y-101925000D01*
X140086000Y-101925000D02*
X142851000Y-101925000D01*
X144931000Y-101965000D02*
X147712000Y-101965000D01*
X140070000Y-101965000D02*
X142851000Y-101965000D01*
X144931000Y-102005000D02*
X147726000Y-102005000D01*
X140056000Y-102005000D02*
X142851000Y-102005000D01*
X144931000Y-102045000D02*
X147741000Y-102045000D01*
X140041000Y-102045000D02*
X142851000Y-102045000D01*
X144931000Y-102085000D02*
X147754000Y-102085000D01*
X140028000Y-102085000D02*
X142851000Y-102085000D01*
X144931000Y-102125000D02*
X147768000Y-102125000D01*
X140014000Y-102125000D02*
X142851000Y-102125000D01*
X144931000Y-102165000D02*
X147780000Y-102165000D01*
X140002000Y-102165000D02*
X142851000Y-102165000D01*
X144931000Y-102205000D02*
X147793000Y-102205000D01*
X139989000Y-102205000D02*
X142851000Y-102205000D01*
X144931000Y-102245000D02*
X147805000Y-102245000D01*
X139977000Y-102245000D02*
X142851000Y-102245000D01*
X144931000Y-102285000D02*
X147816000Y-102285000D01*
X139966000Y-102285000D02*
X142851000Y-102285000D01*
X144931000Y-102325000D02*
X147827000Y-102325000D01*
X139955000Y-102325000D02*
X142851000Y-102325000D01*
X144931000Y-102365000D02*
X147838000Y-102365000D01*
X139944000Y-102365000D02*
X142851000Y-102365000D01*
X144931000Y-102405000D02*
X147848000Y-102405000D01*
X139934000Y-102405000D02*
X142851000Y-102405000D01*
X144931000Y-102445000D02*
X147858000Y-102445000D01*
X139924000Y-102445000D02*
X142851000Y-102445000D01*
X144931000Y-102485000D02*
X147867000Y-102485000D01*
X139915000Y-102485000D02*
X142851000Y-102485000D01*
X144931000Y-102525000D02*
X147876000Y-102525000D01*
X139906000Y-102525000D02*
X142851000Y-102525000D01*
X144931000Y-102565000D02*
X147885000Y-102565000D01*
X139897000Y-102565000D02*
X142851000Y-102565000D01*
X144931000Y-102605000D02*
X147893000Y-102605000D01*
X139889000Y-102605000D02*
X142851000Y-102605000D01*
X144931000Y-102645000D02*
X147901000Y-102645000D01*
X139881000Y-102645000D02*
X142851000Y-102645000D01*
X144931000Y-102685000D02*
X147908000Y-102685000D01*
X139874000Y-102685000D02*
X142851000Y-102685000D01*
X139867000Y-102726000D02*
X147915000Y-102726000D01*
X139861000Y-102766000D02*
X147921000Y-102766000D01*
X139854000Y-102806000D02*
X147928000Y-102806000D01*
X139849000Y-102846000D02*
X147933000Y-102846000D01*
X139843000Y-102886000D02*
X147939000Y-102886000D01*
X139839000Y-102926000D02*
X147943000Y-102926000D01*
X139834000Y-102966000D02*
X147948000Y-102966000D01*
X139830000Y-103006000D02*
X147952000Y-103006000D01*
X139826000Y-103046000D02*
X147956000Y-103046000D01*
X139823000Y-103086000D02*
X147959000Y-103086000D01*
X139820000Y-103126000D02*
X147962000Y-103126000D01*
X139817000Y-103166000D02*
X147965000Y-103166000D01*
X139815000Y-103206000D02*
X147967000Y-103206000D01*
X139814000Y-103246000D02*
X147968000Y-103246000D01*
X139812000Y-103286000D02*
X147970000Y-103286000D01*
X139811000Y-103326000D02*
X147971000Y-103326000D01*
X139811000Y-103366000D02*
X147971000Y-103366000D01*
X139811000Y-103406000D02*
X147971000Y-103406000D01*
X148011000Y-103406000D02*
G75*
G03*
X148011000Y-103406000I-4120000J0D01*
G01*
X109384000Y-104279248D02*
X109384000Y-105701752D01*
X112104000Y-104279248D02*
X112104000Y-105701752D01*
X107683752Y-110342000D02*
X106261248Y-110342000D01*
X107683752Y-112162000D02*
X106261248Y-112162000D01*
X107343752Y-108104000D02*
X106821248Y-108104000D01*
X107343752Y-109574000D02*
X106821248Y-109574000D01*
X98885000Y-136188698D02*
X99685000Y-136188698D01*
X99285000Y-136588698D02*
X99285000Y-135788698D01*
X101067000Y-128098000D02*
X102133000Y-128098000D01*
X100832000Y-128138000D02*
X102368000Y-128138000D01*
X100652000Y-128178000D02*
X102548000Y-128178000D01*
X100502000Y-128218000D02*
X102698000Y-128218000D01*
X100371000Y-128258000D02*
X102829000Y-128258000D01*
X100254000Y-128298000D02*
X102946000Y-128298000D01*
X100147000Y-128338000D02*
X103053000Y-128338000D01*
X100048000Y-128378000D02*
X103152000Y-128378000D01*
X99955000Y-128418000D02*
X103245000Y-128418000D01*
X99869000Y-128458000D02*
X103331000Y-128458000D01*
X99787000Y-128498000D02*
X103413000Y-128498000D01*
X99710000Y-128538000D02*
X103490000Y-128538000D01*
X99636000Y-128578000D02*
X103564000Y-128578000D01*
X99566000Y-128618000D02*
X103634000Y-128618000D01*
X99498000Y-128658000D02*
X103702000Y-128658000D01*
X99434000Y-128698000D02*
X103766000Y-128698000D01*
X99372000Y-128738000D02*
X103828000Y-128738000D01*
X99313000Y-128778000D02*
X103887000Y-128778000D01*
X99255000Y-128818000D02*
X103945000Y-128818000D01*
X99200000Y-128858000D02*
X104000000Y-128858000D01*
X99146000Y-128898000D02*
X104054000Y-128898000D01*
X99095000Y-128938000D02*
X104105000Y-128938000D01*
X99044000Y-128978000D02*
X104156000Y-128978000D01*
X98996000Y-129018000D02*
X104204000Y-129018000D01*
X98949000Y-129058000D02*
X104251000Y-129058000D01*
X98903000Y-129098000D02*
X104297000Y-129098000D01*
X98859000Y-129138000D02*
X104341000Y-129138000D01*
X98816000Y-129178000D02*
X104384000Y-129178000D01*
X98774000Y-129218000D02*
X104426000Y-129218000D01*
X98733000Y-129258000D02*
X104467000Y-129258000D01*
X98693000Y-129298000D02*
X104507000Y-129298000D01*
X98655000Y-129338000D02*
X104545000Y-129338000D01*
X98617000Y-129378000D02*
X104583000Y-129378000D01*
X102640000Y-129418000D02*
X104619000Y-129418000D01*
X98581000Y-129418000D02*
X100560000Y-129418000D01*
X102640000Y-129458000D02*
X104655000Y-129458000D01*
X98545000Y-129458000D02*
X100560000Y-129458000D01*
X102640000Y-129498000D02*
X104690000Y-129498000D01*
X98510000Y-129498000D02*
X100560000Y-129498000D01*
X102640000Y-129538000D02*
X104724000Y-129538000D01*
X98476000Y-129538000D02*
X100560000Y-129538000D01*
X102640000Y-129578000D02*
X104756000Y-129578000D01*
X98444000Y-129578000D02*
X100560000Y-129578000D01*
X102640000Y-129618000D02*
X104789000Y-129618000D01*
X98411000Y-129618000D02*
X100560000Y-129618000D01*
X102640000Y-129658000D02*
X104820000Y-129658000D01*
X98380000Y-129658000D02*
X100560000Y-129658000D01*
X102640000Y-129698000D02*
X104850000Y-129698000D01*
X98350000Y-129698000D02*
X100560000Y-129698000D01*
X102640000Y-129738000D02*
X104880000Y-129738000D01*
X98320000Y-129738000D02*
X100560000Y-129738000D01*
X102640000Y-129778000D02*
X104909000Y-129778000D01*
X98291000Y-129778000D02*
X100560000Y-129778000D01*
X102640000Y-129818000D02*
X104938000Y-129818000D01*
X98262000Y-129818000D02*
X100560000Y-129818000D01*
X102640000Y-129858000D02*
X104965000Y-129858000D01*
X98235000Y-129858000D02*
X100560000Y-129858000D01*
X102640000Y-129898000D02*
X104992000Y-129898000D01*
X98208000Y-129898000D02*
X100560000Y-129898000D01*
X102640000Y-129938000D02*
X105018000Y-129938000D01*
X98182000Y-129938000D02*
X100560000Y-129938000D01*
X102640000Y-129978000D02*
X105044000Y-129978000D01*
X98156000Y-129978000D02*
X100560000Y-129978000D01*
X102640000Y-130018000D02*
X105069000Y-130018000D01*
X98131000Y-130018000D02*
X100560000Y-130018000D01*
X102640000Y-130058000D02*
X105093000Y-130058000D01*
X98107000Y-130058000D02*
X100560000Y-130058000D01*
X102640000Y-130098000D02*
X105117000Y-130098000D01*
X98083000Y-130098000D02*
X100560000Y-130098000D01*
X102640000Y-130138000D02*
X105140000Y-130138000D01*
X98060000Y-130138000D02*
X100560000Y-130138000D01*
X102640000Y-130178000D02*
X105162000Y-130178000D01*
X98038000Y-130178000D02*
X100560000Y-130178000D01*
X102640000Y-130218000D02*
X105184000Y-130218000D01*
X98016000Y-130218000D02*
X100560000Y-130218000D01*
X102640000Y-130258000D02*
X105206000Y-130258000D01*
X97994000Y-130258000D02*
X100560000Y-130258000D01*
X102640000Y-130298000D02*
X105227000Y-130298000D01*
X97973000Y-130298000D02*
X100560000Y-130298000D01*
X102640000Y-130338000D02*
X105247000Y-130338000D01*
X97953000Y-130338000D02*
X100560000Y-130338000D01*
X102640000Y-130378000D02*
X105266000Y-130378000D01*
X97934000Y-130378000D02*
X100560000Y-130378000D01*
X102640000Y-130418000D02*
X105286000Y-130418000D01*
X97914000Y-130418000D02*
X100560000Y-130418000D01*
X102640000Y-130458000D02*
X105304000Y-130458000D01*
X97896000Y-130458000D02*
X100560000Y-130458000D01*
X102640000Y-130498000D02*
X105322000Y-130498000D01*
X97878000Y-130498000D02*
X100560000Y-130498000D01*
X102640000Y-130538000D02*
X105340000Y-130538000D01*
X97860000Y-130538000D02*
X100560000Y-130538000D01*
X102640000Y-130578000D02*
X105357000Y-130578000D01*
X97843000Y-130578000D02*
X100560000Y-130578000D01*
X102640000Y-130618000D02*
X105374000Y-130618000D01*
X97826000Y-130618000D02*
X100560000Y-130618000D01*
X102640000Y-130658000D02*
X105390000Y-130658000D01*
X97810000Y-130658000D02*
X100560000Y-130658000D01*
X102640000Y-130698000D02*
X105405000Y-130698000D01*
X97795000Y-130698000D02*
X100560000Y-130698000D01*
X102640000Y-130738000D02*
X105421000Y-130738000D01*
X97779000Y-130738000D02*
X100560000Y-130738000D01*
X102640000Y-130778000D02*
X105435000Y-130778000D01*
X97765000Y-130778000D02*
X100560000Y-130778000D01*
X102640000Y-130818000D02*
X105450000Y-130818000D01*
X97750000Y-130818000D02*
X100560000Y-130818000D01*
X102640000Y-130858000D02*
X105463000Y-130858000D01*
X97737000Y-130858000D02*
X100560000Y-130858000D01*
X102640000Y-130898000D02*
X105477000Y-130898000D01*
X97723000Y-130898000D02*
X100560000Y-130898000D01*
X102640000Y-130938000D02*
X105489000Y-130938000D01*
X97711000Y-130938000D02*
X100560000Y-130938000D01*
X102640000Y-130978000D02*
X105502000Y-130978000D01*
X97698000Y-130978000D02*
X100560000Y-130978000D01*
X102640000Y-131018000D02*
X105514000Y-131018000D01*
X97686000Y-131018000D02*
X100560000Y-131018000D01*
X102640000Y-131058000D02*
X105525000Y-131058000D01*
X97675000Y-131058000D02*
X100560000Y-131058000D01*
X102640000Y-131098000D02*
X105536000Y-131098000D01*
X97664000Y-131098000D02*
X100560000Y-131098000D01*
X102640000Y-131138000D02*
X105547000Y-131138000D01*
X97653000Y-131138000D02*
X100560000Y-131138000D01*
X102640000Y-131178000D02*
X105557000Y-131178000D01*
X97643000Y-131178000D02*
X100560000Y-131178000D01*
X102640000Y-131218000D02*
X105567000Y-131218000D01*
X97633000Y-131218000D02*
X100560000Y-131218000D01*
X102640000Y-131258000D02*
X105576000Y-131258000D01*
X97624000Y-131258000D02*
X100560000Y-131258000D01*
X102640000Y-131298000D02*
X105585000Y-131298000D01*
X97615000Y-131298000D02*
X100560000Y-131298000D01*
X102640000Y-131338000D02*
X105594000Y-131338000D01*
X97606000Y-131338000D02*
X100560000Y-131338000D01*
X102640000Y-131378000D02*
X105602000Y-131378000D01*
X97598000Y-131378000D02*
X100560000Y-131378000D01*
X102640000Y-131418000D02*
X105610000Y-131418000D01*
X97590000Y-131418000D02*
X100560000Y-131418000D01*
X102640000Y-131458000D02*
X105617000Y-131458000D01*
X97583000Y-131458000D02*
X100560000Y-131458000D01*
X97576000Y-131499000D02*
X105624000Y-131499000D01*
X97570000Y-131539000D02*
X105630000Y-131539000D01*
X97563000Y-131579000D02*
X105637000Y-131579000D01*
X97558000Y-131619000D02*
X105642000Y-131619000D01*
X97552000Y-131659000D02*
X105648000Y-131659000D01*
X97548000Y-131699000D02*
X105652000Y-131699000D01*
X97543000Y-131739000D02*
X105657000Y-131739000D01*
X97539000Y-131779000D02*
X105661000Y-131779000D01*
X97535000Y-131819000D02*
X105665000Y-131819000D01*
X97532000Y-131859000D02*
X105668000Y-131859000D01*
X97529000Y-131899000D02*
X105671000Y-131899000D01*
X97526000Y-131939000D02*
X105674000Y-131939000D01*
X97524000Y-131979000D02*
X105676000Y-131979000D01*
X97523000Y-132019000D02*
X105677000Y-132019000D01*
X97521000Y-132059000D02*
X105679000Y-132059000D01*
X97520000Y-132099000D02*
X105680000Y-132099000D01*
X97520000Y-132139000D02*
X105680000Y-132139000D01*
X97520000Y-132179000D02*
X105680000Y-132179000D01*
X105720000Y-132179000D02*
G75*
G03*
X105720000Y-132179000I-4120000J0D01*
G01*
X99326248Y-127344000D02*
X100748752Y-127344000D01*
X99326248Y-124624000D02*
X100748752Y-124624000D01*
X112865248Y-118200000D02*
X114287752Y-118200000D01*
X112865248Y-115480000D02*
X114287752Y-115480000D01*
X113871000Y-103605698D02*
X114671000Y-103605698D01*
X114271000Y-104005698D02*
X114271000Y-103205698D01*
X116053000Y-95515000D02*
X117119000Y-95515000D01*
X115818000Y-95555000D02*
X117354000Y-95555000D01*
X115638000Y-95595000D02*
X117534000Y-95595000D01*
X115488000Y-95635000D02*
X117684000Y-95635000D01*
X115357000Y-95675000D02*
X117815000Y-95675000D01*
X115240000Y-95715000D02*
X117932000Y-95715000D01*
X115133000Y-95755000D02*
X118039000Y-95755000D01*
X115034000Y-95795000D02*
X118138000Y-95795000D01*
X114941000Y-95835000D02*
X118231000Y-95835000D01*
X114855000Y-95875000D02*
X118317000Y-95875000D01*
X114773000Y-95915000D02*
X118399000Y-95915000D01*
X114696000Y-95955000D02*
X118476000Y-95955000D01*
X114622000Y-95995000D02*
X118550000Y-95995000D01*
X114552000Y-96035000D02*
X118620000Y-96035000D01*
X114484000Y-96075000D02*
X118688000Y-96075000D01*
X114420000Y-96115000D02*
X118752000Y-96115000D01*
X114358000Y-96155000D02*
X118814000Y-96155000D01*
X114299000Y-96195000D02*
X118873000Y-96195000D01*
X114241000Y-96235000D02*
X118931000Y-96235000D01*
X114186000Y-96275000D02*
X118986000Y-96275000D01*
X114132000Y-96315000D02*
X119040000Y-96315000D01*
X114081000Y-96355000D02*
X119091000Y-96355000D01*
X114030000Y-96395000D02*
X119142000Y-96395000D01*
X113982000Y-96435000D02*
X119190000Y-96435000D01*
X113935000Y-96475000D02*
X119237000Y-96475000D01*
X113889000Y-96515000D02*
X119283000Y-96515000D01*
X113845000Y-96555000D02*
X119327000Y-96555000D01*
X113802000Y-96595000D02*
X119370000Y-96595000D01*
X113760000Y-96635000D02*
X119412000Y-96635000D01*
X113719000Y-96675000D02*
X119453000Y-96675000D01*
X113679000Y-96715000D02*
X119493000Y-96715000D01*
X113641000Y-96755000D02*
X119531000Y-96755000D01*
X113603000Y-96795000D02*
X119569000Y-96795000D01*
X117626000Y-96835000D02*
X119605000Y-96835000D01*
X113567000Y-96835000D02*
X115546000Y-96835000D01*
X117626000Y-96875000D02*
X119641000Y-96875000D01*
X113531000Y-96875000D02*
X115546000Y-96875000D01*
X117626000Y-96915000D02*
X119676000Y-96915000D01*
X113496000Y-96915000D02*
X115546000Y-96915000D01*
X117626000Y-96955000D02*
X119710000Y-96955000D01*
X113462000Y-96955000D02*
X115546000Y-96955000D01*
X117626000Y-96995000D02*
X119742000Y-96995000D01*
X113430000Y-96995000D02*
X115546000Y-96995000D01*
X117626000Y-97035000D02*
X119775000Y-97035000D01*
X113397000Y-97035000D02*
X115546000Y-97035000D01*
X117626000Y-97075000D02*
X119806000Y-97075000D01*
X113366000Y-97075000D02*
X115546000Y-97075000D01*
X117626000Y-97115000D02*
X119836000Y-97115000D01*
X113336000Y-97115000D02*
X115546000Y-97115000D01*
X117626000Y-97155000D02*
X119866000Y-97155000D01*
X113306000Y-97155000D02*
X115546000Y-97155000D01*
X117626000Y-97195000D02*
X119895000Y-97195000D01*
X113277000Y-97195000D02*
X115546000Y-97195000D01*
X117626000Y-97235000D02*
X119924000Y-97235000D01*
X113248000Y-97235000D02*
X115546000Y-97235000D01*
X117626000Y-97275000D02*
X119951000Y-97275000D01*
X113221000Y-97275000D02*
X115546000Y-97275000D01*
X117626000Y-97315000D02*
X119978000Y-97315000D01*
X113194000Y-97315000D02*
X115546000Y-97315000D01*
X117626000Y-97355000D02*
X120004000Y-97355000D01*
X113168000Y-97355000D02*
X115546000Y-97355000D01*
X117626000Y-97395000D02*
X120030000Y-97395000D01*
X113142000Y-97395000D02*
X115546000Y-97395000D01*
X117626000Y-97435000D02*
X120055000Y-97435000D01*
X113117000Y-97435000D02*
X115546000Y-97435000D01*
X117626000Y-97475000D02*
X120079000Y-97475000D01*
X113093000Y-97475000D02*
X115546000Y-97475000D01*
X117626000Y-97515000D02*
X120103000Y-97515000D01*
X113069000Y-97515000D02*
X115546000Y-97515000D01*
X117626000Y-97555000D02*
X120126000Y-97555000D01*
X113046000Y-97555000D02*
X115546000Y-97555000D01*
X117626000Y-97595000D02*
X120148000Y-97595000D01*
X113024000Y-97595000D02*
X115546000Y-97595000D01*
X117626000Y-97635000D02*
X120170000Y-97635000D01*
X113002000Y-97635000D02*
X115546000Y-97635000D01*
X117626000Y-97675000D02*
X120192000Y-97675000D01*
X112980000Y-97675000D02*
X115546000Y-97675000D01*
X117626000Y-97715000D02*
X120213000Y-97715000D01*
X112959000Y-97715000D02*
X115546000Y-97715000D01*
X117626000Y-97755000D02*
X120233000Y-97755000D01*
X112939000Y-97755000D02*
X115546000Y-97755000D01*
X117626000Y-97795000D02*
X120252000Y-97795000D01*
X112920000Y-97795000D02*
X115546000Y-97795000D01*
X117626000Y-97835000D02*
X120272000Y-97835000D01*
X112900000Y-97835000D02*
X115546000Y-97835000D01*
X117626000Y-97875000D02*
X120290000Y-97875000D01*
X112882000Y-97875000D02*
X115546000Y-97875000D01*
X117626000Y-97915000D02*
X120308000Y-97915000D01*
X112864000Y-97915000D02*
X115546000Y-97915000D01*
X117626000Y-97955000D02*
X120326000Y-97955000D01*
X112846000Y-97955000D02*
X115546000Y-97955000D01*
X117626000Y-97995000D02*
X120343000Y-97995000D01*
X112829000Y-97995000D02*
X115546000Y-97995000D01*
X117626000Y-98035000D02*
X120360000Y-98035000D01*
X112812000Y-98035000D02*
X115546000Y-98035000D01*
X117626000Y-98075000D02*
X120376000Y-98075000D01*
X112796000Y-98075000D02*
X115546000Y-98075000D01*
X117626000Y-98115000D02*
X120391000Y-98115000D01*
X112781000Y-98115000D02*
X115546000Y-98115000D01*
X117626000Y-98155000D02*
X120407000Y-98155000D01*
X112765000Y-98155000D02*
X115546000Y-98155000D01*
X117626000Y-98195000D02*
X120421000Y-98195000D01*
X112751000Y-98195000D02*
X115546000Y-98195000D01*
X117626000Y-98235000D02*
X120436000Y-98235000D01*
X112736000Y-98235000D02*
X115546000Y-98235000D01*
X117626000Y-98275000D02*
X120449000Y-98275000D01*
X112723000Y-98275000D02*
X115546000Y-98275000D01*
X117626000Y-98315000D02*
X120463000Y-98315000D01*
X112709000Y-98315000D02*
X115546000Y-98315000D01*
X117626000Y-98355000D02*
X120475000Y-98355000D01*
X112697000Y-98355000D02*
X115546000Y-98355000D01*
X117626000Y-98395000D02*
X120488000Y-98395000D01*
X112684000Y-98395000D02*
X115546000Y-98395000D01*
X117626000Y-98435000D02*
X120500000Y-98435000D01*
X112672000Y-98435000D02*
X115546000Y-98435000D01*
X117626000Y-98475000D02*
X120511000Y-98475000D01*
X112661000Y-98475000D02*
X115546000Y-98475000D01*
X117626000Y-98515000D02*
X120522000Y-98515000D01*
X112650000Y-98515000D02*
X115546000Y-98515000D01*
X117626000Y-98555000D02*
X120533000Y-98555000D01*
X112639000Y-98555000D02*
X115546000Y-98555000D01*
X117626000Y-98595000D02*
X120543000Y-98595000D01*
X112629000Y-98595000D02*
X115546000Y-98595000D01*
X117626000Y-98635000D02*
X120553000Y-98635000D01*
X112619000Y-98635000D02*
X115546000Y-98635000D01*
X117626000Y-98675000D02*
X120562000Y-98675000D01*
X112610000Y-98675000D02*
X115546000Y-98675000D01*
X117626000Y-98715000D02*
X120571000Y-98715000D01*
X112601000Y-98715000D02*
X115546000Y-98715000D01*
X117626000Y-98755000D02*
X120580000Y-98755000D01*
X112592000Y-98755000D02*
X115546000Y-98755000D01*
X117626000Y-98795000D02*
X120588000Y-98795000D01*
X112584000Y-98795000D02*
X115546000Y-98795000D01*
X117626000Y-98835000D02*
X120596000Y-98835000D01*
X112576000Y-98835000D02*
X115546000Y-98835000D01*
X117626000Y-98875000D02*
X120603000Y-98875000D01*
X112569000Y-98875000D02*
X115546000Y-98875000D01*
X112562000Y-98916000D02*
X120610000Y-98916000D01*
X112556000Y-98956000D02*
X120616000Y-98956000D01*
X112549000Y-98996000D02*
X120623000Y-98996000D01*
X112544000Y-99036000D02*
X120628000Y-99036000D01*
X112538000Y-99076000D02*
X120634000Y-99076000D01*
X112534000Y-99116000D02*
X120638000Y-99116000D01*
X112529000Y-99156000D02*
X120643000Y-99156000D01*
X112525000Y-99196000D02*
X120647000Y-99196000D01*
X112521000Y-99236000D02*
X120651000Y-99236000D01*
X112518000Y-99276000D02*
X120654000Y-99276000D01*
X112515000Y-99316000D02*
X120657000Y-99316000D01*
X112512000Y-99356000D02*
X120660000Y-99356000D01*
X112510000Y-99396000D02*
X120662000Y-99396000D01*
X112509000Y-99436000D02*
X120663000Y-99436000D01*
X112507000Y-99476000D02*
X120665000Y-99476000D01*
X112506000Y-99516000D02*
X120666000Y-99516000D01*
X112506000Y-99556000D02*
X120666000Y-99556000D01*
X112506000Y-99596000D02*
X120666000Y-99596000D01*
X120706000Y-99596000D02*
G75*
G03*
X120706000Y-99596000I-4120000J0D01*
G01*
X95431000Y-108397646D02*
X96431000Y-108397646D01*
X95931000Y-108897646D02*
X95931000Y-107897646D01*
X98207000Y-98337000D02*
X99405000Y-98337000D01*
X97944000Y-98377000D02*
X99668000Y-98377000D01*
X97744000Y-98417000D02*
X99868000Y-98417000D01*
X97576000Y-98457000D02*
X100036000Y-98457000D01*
X97428000Y-98497000D02*
X100184000Y-98497000D01*
X97296000Y-98537000D02*
X100316000Y-98537000D01*
X97176000Y-98577000D02*
X100436000Y-98577000D01*
X97064000Y-98617000D02*
X100548000Y-98617000D01*
X96960000Y-98657000D02*
X100652000Y-98657000D01*
X96862000Y-98697000D02*
X100750000Y-98697000D01*
X96769000Y-98737000D02*
X100843000Y-98737000D01*
X96681000Y-98777000D02*
X100931000Y-98777000D01*
X96597000Y-98817000D02*
X101015000Y-98817000D01*
X96517000Y-98857000D02*
X101095000Y-98857000D01*
X96441000Y-98897000D02*
X101171000Y-98897000D01*
X96367000Y-98937000D02*
X101245000Y-98937000D01*
X96296000Y-98977000D02*
X101316000Y-98977000D01*
X96227000Y-99017000D02*
X101385000Y-99017000D01*
X96161000Y-99057000D02*
X101451000Y-99057000D01*
X96097000Y-99097000D02*
X101515000Y-99097000D01*
X96036000Y-99137000D02*
X101576000Y-99137000D01*
X95976000Y-99177000D02*
X101636000Y-99177000D01*
X95917000Y-99217000D02*
X101695000Y-99217000D01*
X95861000Y-99257000D02*
X101751000Y-99257000D01*
X95806000Y-99297000D02*
X101806000Y-99297000D01*
X95752000Y-99337000D02*
X101860000Y-99337000D01*
X95700000Y-99377000D02*
X101912000Y-99377000D01*
X95650000Y-99417000D02*
X101962000Y-99417000D01*
X95600000Y-99457000D02*
X102012000Y-99457000D01*
X95552000Y-99497000D02*
X102060000Y-99497000D01*
X95505000Y-99537000D02*
X102107000Y-99537000D01*
X95459000Y-99577000D02*
X102153000Y-99577000D01*
X95414000Y-99617000D02*
X102198000Y-99617000D01*
X95370000Y-99657000D02*
X102242000Y-99657000D01*
X100047000Y-99697000D02*
X102284000Y-99697000D01*
X95328000Y-99697000D02*
X97565000Y-99697000D01*
X100047000Y-99737000D02*
X102326000Y-99737000D01*
X95286000Y-99737000D02*
X97565000Y-99737000D01*
X100047000Y-99777000D02*
X102367000Y-99777000D01*
X95245000Y-99777000D02*
X97565000Y-99777000D01*
X100047000Y-99817000D02*
X102407000Y-99817000D01*
X95205000Y-99817000D02*
X97565000Y-99817000D01*
X100047000Y-99857000D02*
X102446000Y-99857000D01*
X95166000Y-99857000D02*
X97565000Y-99857000D01*
X100047000Y-99897000D02*
X102485000Y-99897000D01*
X95127000Y-99897000D02*
X97565000Y-99897000D01*
X100047000Y-99937000D02*
X102522000Y-99937000D01*
X95090000Y-99937000D02*
X97565000Y-99937000D01*
X100047000Y-99977000D02*
X102559000Y-99977000D01*
X95053000Y-99977000D02*
X97565000Y-99977000D01*
X100047000Y-100017000D02*
X102595000Y-100017000D01*
X95017000Y-100017000D02*
X97565000Y-100017000D01*
X100047000Y-100057000D02*
X102630000Y-100057000D01*
X94982000Y-100057000D02*
X97565000Y-100057000D01*
X100047000Y-100097000D02*
X102664000Y-100097000D01*
X94948000Y-100097000D02*
X97565000Y-100097000D01*
X100047000Y-100137000D02*
X102698000Y-100137000D01*
X94914000Y-100137000D02*
X97565000Y-100137000D01*
X100047000Y-100177000D02*
X102731000Y-100177000D01*
X94881000Y-100177000D02*
X97565000Y-100177000D01*
X100047000Y-100217000D02*
X102763000Y-100217000D01*
X94849000Y-100217000D02*
X97565000Y-100217000D01*
X100047000Y-100257000D02*
X102795000Y-100257000D01*
X94817000Y-100257000D02*
X97565000Y-100257000D01*
X100047000Y-100297000D02*
X102826000Y-100297000D01*
X94786000Y-100297000D02*
X97565000Y-100297000D01*
X100047000Y-100337000D02*
X102856000Y-100337000D01*
X94756000Y-100337000D02*
X97565000Y-100337000D01*
X100047000Y-100377000D02*
X102886000Y-100377000D01*
X94726000Y-100377000D02*
X97565000Y-100377000D01*
X100047000Y-100417000D02*
X102916000Y-100417000D01*
X94696000Y-100417000D02*
X97565000Y-100417000D01*
X100047000Y-100457000D02*
X102944000Y-100457000D01*
X94668000Y-100457000D02*
X97565000Y-100457000D01*
X100047000Y-100497000D02*
X102972000Y-100497000D01*
X94640000Y-100497000D02*
X97565000Y-100497000D01*
X100047000Y-100537000D02*
X103000000Y-100537000D01*
X94612000Y-100537000D02*
X97565000Y-100537000D01*
X100047000Y-100577000D02*
X103027000Y-100577000D01*
X94585000Y-100577000D02*
X97565000Y-100577000D01*
X100047000Y-100617000D02*
X103053000Y-100617000D01*
X94559000Y-100617000D02*
X97565000Y-100617000D01*
X100047000Y-100657000D02*
X103079000Y-100657000D01*
X94533000Y-100657000D02*
X97565000Y-100657000D01*
X100047000Y-100697000D02*
X103104000Y-100697000D01*
X94508000Y-100697000D02*
X97565000Y-100697000D01*
X100047000Y-100737000D02*
X103129000Y-100737000D01*
X94483000Y-100737000D02*
X97565000Y-100737000D01*
X100047000Y-100777000D02*
X103153000Y-100777000D01*
X94459000Y-100777000D02*
X97565000Y-100777000D01*
X100047000Y-100817000D02*
X103177000Y-100817000D01*
X94435000Y-100817000D02*
X97565000Y-100817000D01*
X100047000Y-100857000D02*
X103201000Y-100857000D01*
X94411000Y-100857000D02*
X97565000Y-100857000D01*
X100047000Y-100897000D02*
X103223000Y-100897000D01*
X94389000Y-100897000D02*
X97565000Y-100897000D01*
X100047000Y-100937000D02*
X103246000Y-100937000D01*
X94366000Y-100937000D02*
X97565000Y-100937000D01*
X100047000Y-100977000D02*
X103268000Y-100977000D01*
X94344000Y-100977000D02*
X97565000Y-100977000D01*
X100047000Y-101017000D02*
X103289000Y-101017000D01*
X94323000Y-101017000D02*
X97565000Y-101017000D01*
X100047000Y-101057000D02*
X103310000Y-101057000D01*
X94302000Y-101057000D02*
X97565000Y-101057000D01*
X100047000Y-101097000D02*
X103331000Y-101097000D01*
X94281000Y-101097000D02*
X97565000Y-101097000D01*
X100047000Y-101137000D02*
X103351000Y-101137000D01*
X94261000Y-101137000D02*
X97565000Y-101137000D01*
X100047000Y-101177000D02*
X103370000Y-101177000D01*
X94242000Y-101177000D02*
X97565000Y-101177000D01*
X100047000Y-101217000D02*
X103390000Y-101217000D01*
X94222000Y-101217000D02*
X97565000Y-101217000D01*
X100047000Y-101257000D02*
X103409000Y-101257000D01*
X94203000Y-101257000D02*
X97565000Y-101257000D01*
X100047000Y-101297000D02*
X103427000Y-101297000D01*
X94185000Y-101297000D02*
X97565000Y-101297000D01*
X100047000Y-101337000D02*
X103445000Y-101337000D01*
X94167000Y-101337000D02*
X97565000Y-101337000D01*
X100047000Y-101377000D02*
X103463000Y-101377000D01*
X94149000Y-101377000D02*
X97565000Y-101377000D01*
X100047000Y-101417000D02*
X103480000Y-101417000D01*
X94132000Y-101417000D02*
X97565000Y-101417000D01*
X100047000Y-101457000D02*
X103496000Y-101457000D01*
X94116000Y-101457000D02*
X97565000Y-101457000D01*
X100047000Y-101497000D02*
X103513000Y-101497000D01*
X94099000Y-101497000D02*
X97565000Y-101497000D01*
X100047000Y-101537000D02*
X103529000Y-101537000D01*
X94083000Y-101537000D02*
X97565000Y-101537000D01*
X100047000Y-101577000D02*
X103544000Y-101577000D01*
X94068000Y-101577000D02*
X97565000Y-101577000D01*
X100047000Y-101617000D02*
X103560000Y-101617000D01*
X94052000Y-101617000D02*
X97565000Y-101617000D01*
X100047000Y-101657000D02*
X103574000Y-101657000D01*
X94038000Y-101657000D02*
X97565000Y-101657000D01*
X100047000Y-101697000D02*
X103589000Y-101697000D01*
X94023000Y-101697000D02*
X97565000Y-101697000D01*
X100047000Y-101737000D02*
X103603000Y-101737000D01*
X94009000Y-101737000D02*
X97565000Y-101737000D01*
X100047000Y-101777000D02*
X103617000Y-101777000D01*
X93995000Y-101777000D02*
X97565000Y-101777000D01*
X100047000Y-101817000D02*
X103630000Y-101817000D01*
X93982000Y-101817000D02*
X97565000Y-101817000D01*
X100047000Y-101857000D02*
X103643000Y-101857000D01*
X93969000Y-101857000D02*
X97565000Y-101857000D01*
X100047000Y-101897000D02*
X103656000Y-101897000D01*
X93956000Y-101897000D02*
X97565000Y-101897000D01*
X100047000Y-101937000D02*
X103668000Y-101937000D01*
X93944000Y-101937000D02*
X97565000Y-101937000D01*
X100047000Y-101977000D02*
X103680000Y-101977000D01*
X93932000Y-101977000D02*
X97565000Y-101977000D01*
X100047000Y-102017000D02*
X103691000Y-102017000D01*
X93921000Y-102017000D02*
X97565000Y-102017000D01*
X100047000Y-102057000D02*
X103703000Y-102057000D01*
X93909000Y-102057000D02*
X97565000Y-102057000D01*
X100047000Y-102097000D02*
X103713000Y-102097000D01*
X93899000Y-102097000D02*
X97565000Y-102097000D01*
X100047000Y-102137000D02*
X103724000Y-102137000D01*
X93888000Y-102137000D02*
X97565000Y-102137000D01*
X93878000Y-102177000D02*
X103734000Y-102177000D01*
X93868000Y-102217000D02*
X103744000Y-102217000D01*
X93859000Y-102257000D02*
X103753000Y-102257000D01*
X93850000Y-102297000D02*
X103762000Y-102297000D01*
X93841000Y-102337000D02*
X103771000Y-102337000D01*
X93832000Y-102377000D02*
X103780000Y-102377000D01*
X93824000Y-102417000D02*
X103788000Y-102417000D01*
X93816000Y-102457000D02*
X103796000Y-102457000D01*
X93809000Y-102497000D02*
X103803000Y-102497000D01*
X93802000Y-102537000D02*
X103810000Y-102537000D01*
X93795000Y-102577000D02*
X103817000Y-102577000D01*
X93788000Y-102617000D02*
X103824000Y-102617000D01*
X93782000Y-102657000D02*
X103830000Y-102657000D01*
X93776000Y-102697000D02*
X103836000Y-102697000D01*
X93771000Y-102738000D02*
X103841000Y-102738000D01*
X93766000Y-102778000D02*
X103846000Y-102778000D01*
X93761000Y-102818000D02*
X103851000Y-102818000D01*
X93756000Y-102858000D02*
X103856000Y-102858000D01*
X93752000Y-102898000D02*
X103860000Y-102898000D01*
X93748000Y-102938000D02*
X103864000Y-102938000D01*
X93744000Y-102978000D02*
X103868000Y-102978000D01*
X93741000Y-103018000D02*
X103871000Y-103018000D01*
X93738000Y-103058000D02*
X103874000Y-103058000D01*
X93736000Y-103098000D02*
X103876000Y-103098000D01*
X93733000Y-103138000D02*
X103879000Y-103138000D01*
X93731000Y-103178000D02*
X103881000Y-103178000D01*
X93729000Y-103218000D02*
X103883000Y-103218000D01*
X93728000Y-103258000D02*
X103884000Y-103258000D01*
X93727000Y-103298000D02*
X103885000Y-103298000D01*
X93726000Y-103338000D02*
X103886000Y-103338000D01*
X93726000Y-103378000D02*
X103886000Y-103378000D01*
X93726000Y-103418000D02*
X103886000Y-103418000D01*
X103926000Y-103418000D02*
G75*
G03*
X103926000Y-103418000I-5120000J0D01*
G01*
X91731000Y-111964000D02*
X84291000Y-111964000D01*
X91731000Y-104524000D02*
X84291000Y-104524000D01*
X84291000Y-104524000D02*
X84291000Y-111964000D01*
X91731000Y-104524000D02*
X91731000Y-111964000D01*
X92737000Y-120156248D02*
X92737000Y-120678752D01*
X94207000Y-120156248D02*
X94207000Y-120678752D01*
D10*
X137922095Y-122686380D02*
X137922095Y-123495904D01*
X137969714Y-123591142D01*
X138017333Y-123638761D01*
X138112571Y-123686380D01*
X138303047Y-123686380D01*
X138398285Y-123638761D01*
X138445904Y-123591142D01*
X138493523Y-123495904D01*
X138493523Y-122686380D01*
X138874476Y-122686380D02*
X139493523Y-122686380D01*
X139160190Y-123067333D01*
X139303047Y-123067333D01*
X139398285Y-123114952D01*
X139445904Y-123162571D01*
X139493523Y-123257809D01*
X139493523Y-123495904D01*
X139445904Y-123591142D01*
X139398285Y-123638761D01*
X139303047Y-123686380D01*
X139017333Y-123686380D01*
X138922095Y-123638761D01*
X138874476Y-123591142D01*
X114116380Y-113466666D02*
X113640190Y-113800000D01*
X114116380Y-114038095D02*
X113116380Y-114038095D01*
X113116380Y-113657142D01*
X113164000Y-113561904D01*
X113211619Y-113514285D01*
X113306857Y-113466666D01*
X113449714Y-113466666D01*
X113544952Y-113514285D01*
X113592571Y-113561904D01*
X113640190Y-113657142D01*
X113640190Y-114038095D01*
X113449714Y-112609523D02*
X114116380Y-112609523D01*
X113068761Y-112847619D02*
X113783047Y-113085714D01*
X113783047Y-112466666D01*
X165354095Y-138882380D02*
X165354095Y-137882380D01*
X165354095Y-138358571D02*
X165925523Y-138358571D01*
X165925523Y-138882380D02*
X165925523Y-137882380D01*
X166830285Y-138215714D02*
X166830285Y-138882380D01*
X166592190Y-137834761D02*
X166354095Y-138549047D01*
X166973142Y-138549047D01*
X89662095Y-138882380D02*
X89662095Y-137882380D01*
X89662095Y-138358571D02*
X90233523Y-138358571D01*
X90233523Y-138882380D02*
X90233523Y-137882380D01*
X90614476Y-137882380D02*
X91233523Y-137882380D01*
X90900190Y-138263333D01*
X91043047Y-138263333D01*
X91138285Y-138310952D01*
X91185904Y-138358571D01*
X91233523Y-138453809D01*
X91233523Y-138691904D01*
X91185904Y-138787142D01*
X91138285Y-138834761D01*
X91043047Y-138882380D01*
X90757333Y-138882380D01*
X90662095Y-138834761D01*
X90614476Y-138787142D01*
X165608095Y-94432380D02*
X165608095Y-93432380D01*
X165608095Y-93908571D02*
X166179523Y-93908571D01*
X166179523Y-94432380D02*
X166179523Y-93432380D01*
X166608095Y-93527619D02*
X166655714Y-93480000D01*
X166750952Y-93432380D01*
X166989047Y-93432380D01*
X167084285Y-93480000D01*
X167131904Y-93527619D01*
X167179523Y-93622857D01*
X167179523Y-93718095D01*
X167131904Y-93860952D01*
X166560476Y-94432380D01*
X167179523Y-94432380D01*
X89408095Y-94432380D02*
X89408095Y-93432380D01*
X89408095Y-93908571D02*
X89979523Y-93908571D01*
X89979523Y-94432380D02*
X89979523Y-93432380D01*
X90979523Y-94432380D02*
X90408095Y-94432380D01*
X90693809Y-94432380D02*
X90693809Y-93432380D01*
X90598571Y-93575238D01*
X90503333Y-93670476D01*
X90408095Y-93718095D01*
X118872095Y-109053380D02*
X118872095Y-109862904D01*
X118919714Y-109958142D01*
X118967333Y-110005761D01*
X119062571Y-110053380D01*
X119253047Y-110053380D01*
X119348285Y-110005761D01*
X119395904Y-109958142D01*
X119443523Y-109862904D01*
X119443523Y-109053380D01*
X120348285Y-109386714D02*
X120348285Y-110053380D01*
X120110190Y-109005761D02*
X119872095Y-109720047D01*
X120491142Y-109720047D01*
X118364095Y-130262380D02*
X118364095Y-131071904D01*
X118411714Y-131167142D01*
X118459333Y-131214761D01*
X118554571Y-131262380D01*
X118745047Y-131262380D01*
X118840285Y-131214761D01*
X118887904Y-131167142D01*
X118935523Y-131071904D01*
X118935523Y-130262380D01*
X119364095Y-130357619D02*
X119411714Y-130310000D01*
X119506952Y-130262380D01*
X119745047Y-130262380D01*
X119840285Y-130310000D01*
X119887904Y-130357619D01*
X119935523Y-130452857D01*
X119935523Y-130548095D01*
X119887904Y-130690952D01*
X119316476Y-131262380D01*
X119935523Y-131262380D01*
X108585095Y-124420380D02*
X108585095Y-125229904D01*
X108632714Y-125325142D01*
X108680333Y-125372761D01*
X108775571Y-125420380D01*
X108966047Y-125420380D01*
X109061285Y-125372761D01*
X109108904Y-125325142D01*
X109156523Y-125229904D01*
X109156523Y-124420380D01*
X110156523Y-125420380D02*
X109585095Y-125420380D01*
X109870809Y-125420380D02*
X109870809Y-124420380D01*
X109775571Y-124563238D01*
X109680333Y-124658476D01*
X109585095Y-124706095D01*
X126881142Y-110816380D02*
X126547809Y-110340190D01*
X126309714Y-110816380D02*
X126309714Y-109816380D01*
X126690666Y-109816380D01*
X126785904Y-109864000D01*
X126833523Y-109911619D01*
X126881142Y-110006857D01*
X126881142Y-110149714D01*
X126833523Y-110244952D01*
X126785904Y-110292571D01*
X126690666Y-110340190D01*
X126309714Y-110340190D01*
X127833523Y-110816380D02*
X127262095Y-110816380D01*
X127547809Y-110816380D02*
X127547809Y-109816380D01*
X127452571Y-109959238D01*
X127357333Y-110054476D01*
X127262095Y-110102095D01*
X128690666Y-109816380D02*
X128500190Y-109816380D01*
X128404952Y-109864000D01*
X128357333Y-109911619D01*
X128262095Y-110054476D01*
X128214476Y-110244952D01*
X128214476Y-110625904D01*
X128262095Y-110721142D01*
X128309714Y-110768761D01*
X128404952Y-110816380D01*
X128595428Y-110816380D01*
X128690666Y-110768761D01*
X128738285Y-110721142D01*
X128785904Y-110625904D01*
X128785904Y-110387809D01*
X128738285Y-110292571D01*
X128690666Y-110244952D01*
X128595428Y-110197333D01*
X128404952Y-110197333D01*
X128309714Y-110244952D01*
X128262095Y-110292571D01*
X128214476Y-110387809D01*
X125595142Y-115006380D02*
X125261809Y-114530190D01*
X125023714Y-115006380D02*
X125023714Y-114006380D01*
X125404666Y-114006380D01*
X125499904Y-114054000D01*
X125547523Y-114101619D01*
X125595142Y-114196857D01*
X125595142Y-114339714D01*
X125547523Y-114434952D01*
X125499904Y-114482571D01*
X125404666Y-114530190D01*
X125023714Y-114530190D01*
X126547523Y-115006380D02*
X125976095Y-115006380D01*
X126261809Y-115006380D02*
X126261809Y-114006380D01*
X126166571Y-114149238D01*
X126071333Y-114244476D01*
X125976095Y-114292095D01*
X127452285Y-114006380D02*
X126976095Y-114006380D01*
X126928476Y-114482571D01*
X126976095Y-114434952D01*
X127071333Y-114387333D01*
X127309428Y-114387333D01*
X127404666Y-114434952D01*
X127452285Y-114482571D01*
X127499904Y-114577809D01*
X127499904Y-114815904D01*
X127452285Y-114911142D01*
X127404666Y-114958761D01*
X127309428Y-115006380D01*
X127071333Y-115006380D01*
X126976095Y-114958761D01*
X126928476Y-114911142D01*
X149296380Y-111513857D02*
X148820190Y-111847190D01*
X149296380Y-112085285D02*
X148296380Y-112085285D01*
X148296380Y-111704333D01*
X148344000Y-111609095D01*
X148391619Y-111561476D01*
X148486857Y-111513857D01*
X148629714Y-111513857D01*
X148724952Y-111561476D01*
X148772571Y-111609095D01*
X148820190Y-111704333D01*
X148820190Y-112085285D01*
X149296380Y-110561476D02*
X149296380Y-111132904D01*
X149296380Y-110847190D02*
X148296380Y-110847190D01*
X148439238Y-110942428D01*
X148534476Y-111037666D01*
X148582095Y-111132904D01*
X148629714Y-109704333D02*
X149296380Y-109704333D01*
X148248761Y-109942428D02*
X148963047Y-110180523D01*
X148963047Y-109561476D01*
X145042142Y-113863380D02*
X144708809Y-113387190D01*
X144470714Y-113863380D02*
X144470714Y-112863380D01*
X144851666Y-112863380D01*
X144946904Y-112911000D01*
X144994523Y-112958619D01*
X145042142Y-113053857D01*
X145042142Y-113196714D01*
X144994523Y-113291952D01*
X144946904Y-113339571D01*
X144851666Y-113387190D01*
X144470714Y-113387190D01*
X145994523Y-113863380D02*
X145423095Y-113863380D01*
X145708809Y-113863380D02*
X145708809Y-112863380D01*
X145613571Y-113006238D01*
X145518333Y-113101476D01*
X145423095Y-113149095D01*
X146327857Y-112863380D02*
X146946904Y-112863380D01*
X146613571Y-113244333D01*
X146756428Y-113244333D01*
X146851666Y-113291952D01*
X146899285Y-113339571D01*
X146946904Y-113434809D01*
X146946904Y-113672904D01*
X146899285Y-113768142D01*
X146851666Y-113815761D01*
X146756428Y-113863380D01*
X146470714Y-113863380D01*
X146375476Y-113815761D01*
X146327857Y-113768142D01*
X147264380Y-121165857D02*
X146788190Y-121499190D01*
X147264380Y-121737285D02*
X146264380Y-121737285D01*
X146264380Y-121356333D01*
X146312000Y-121261095D01*
X146359619Y-121213476D01*
X146454857Y-121165857D01*
X146597714Y-121165857D01*
X146692952Y-121213476D01*
X146740571Y-121261095D01*
X146788190Y-121356333D01*
X146788190Y-121737285D01*
X147264380Y-120213476D02*
X147264380Y-120784904D01*
X147264380Y-120499190D02*
X146264380Y-120499190D01*
X146407238Y-120594428D01*
X146502476Y-120689666D01*
X146550095Y-120784904D01*
X146359619Y-119832523D02*
X146312000Y-119784904D01*
X146264380Y-119689666D01*
X146264380Y-119451571D01*
X146312000Y-119356333D01*
X146359619Y-119308714D01*
X146454857Y-119261095D01*
X146550095Y-119261095D01*
X146692952Y-119308714D01*
X147264380Y-119880142D01*
X147264380Y-119261095D01*
X129659142Y-123388380D02*
X129325809Y-122912190D01*
X129087714Y-123388380D02*
X129087714Y-122388380D01*
X129468666Y-122388380D01*
X129563904Y-122436000D01*
X129611523Y-122483619D01*
X129659142Y-122578857D01*
X129659142Y-122721714D01*
X129611523Y-122816952D01*
X129563904Y-122864571D01*
X129468666Y-122912190D01*
X129087714Y-122912190D01*
X130611523Y-123388380D02*
X130040095Y-123388380D01*
X130325809Y-123388380D02*
X130325809Y-122388380D01*
X130230571Y-122531238D01*
X130135333Y-122626476D01*
X130040095Y-122674095D01*
X131563904Y-123388380D02*
X130992476Y-123388380D01*
X131278190Y-123388380D02*
X131278190Y-122388380D01*
X131182952Y-122531238D01*
X131087714Y-122626476D01*
X130992476Y-122674095D01*
X113990380Y-109735857D02*
X113514190Y-110069190D01*
X113990380Y-110307285D02*
X112990380Y-110307285D01*
X112990380Y-109926333D01*
X113038000Y-109831095D01*
X113085619Y-109783476D01*
X113180857Y-109735857D01*
X113323714Y-109735857D01*
X113418952Y-109783476D01*
X113466571Y-109831095D01*
X113514190Y-109926333D01*
X113514190Y-110307285D01*
X113990380Y-108783476D02*
X113990380Y-109354904D01*
X113990380Y-109069190D02*
X112990380Y-109069190D01*
X113133238Y-109164428D01*
X113228476Y-109259666D01*
X113276095Y-109354904D01*
X112990380Y-108164428D02*
X112990380Y-108069190D01*
X113038000Y-107973952D01*
X113085619Y-107926333D01*
X113180857Y-107878714D01*
X113371333Y-107831095D01*
X113609428Y-107831095D01*
X113799904Y-107878714D01*
X113895142Y-107926333D01*
X113942761Y-107973952D01*
X113990380Y-108069190D01*
X113990380Y-108164428D01*
X113942761Y-108259666D01*
X113895142Y-108307285D01*
X113799904Y-108354904D01*
X113609428Y-108402523D01*
X113371333Y-108402523D01*
X113180857Y-108354904D01*
X113085619Y-108307285D01*
X113038000Y-108259666D01*
X112990380Y-108164428D01*
X126054380Y-125626666D02*
X125578190Y-125960000D01*
X126054380Y-126198095D02*
X125054380Y-126198095D01*
X125054380Y-125817142D01*
X125102000Y-125721904D01*
X125149619Y-125674285D01*
X125244857Y-125626666D01*
X125387714Y-125626666D01*
X125482952Y-125674285D01*
X125530571Y-125721904D01*
X125578190Y-125817142D01*
X125578190Y-126198095D01*
X126054380Y-125150476D02*
X126054380Y-124960000D01*
X126006761Y-124864761D01*
X125959142Y-124817142D01*
X125816285Y-124721904D01*
X125625809Y-124674285D01*
X125244857Y-124674285D01*
X125149619Y-124721904D01*
X125102000Y-124769523D01*
X125054380Y-124864761D01*
X125054380Y-125055238D01*
X125102000Y-125150476D01*
X125149619Y-125198095D01*
X125244857Y-125245714D01*
X125482952Y-125245714D01*
X125578190Y-125198095D01*
X125625809Y-125150476D01*
X125673428Y-125055238D01*
X125673428Y-124864761D01*
X125625809Y-124769523D01*
X125578190Y-124721904D01*
X125482952Y-124674285D01*
X96718380Y-110656666D02*
X96242190Y-110990000D01*
X96718380Y-111228095D02*
X95718380Y-111228095D01*
X95718380Y-110847142D01*
X95766000Y-110751904D01*
X95813619Y-110704285D01*
X95908857Y-110656666D01*
X96051714Y-110656666D01*
X96146952Y-110704285D01*
X96194571Y-110751904D01*
X96242190Y-110847142D01*
X96242190Y-111228095D01*
X96146952Y-110085238D02*
X96099333Y-110180476D01*
X96051714Y-110228095D01*
X95956476Y-110275714D01*
X95908857Y-110275714D01*
X95813619Y-110228095D01*
X95766000Y-110180476D01*
X95718380Y-110085238D01*
X95718380Y-109894761D01*
X95766000Y-109799523D01*
X95813619Y-109751904D01*
X95908857Y-109704285D01*
X95956476Y-109704285D01*
X96051714Y-109751904D01*
X96099333Y-109799523D01*
X96146952Y-109894761D01*
X96146952Y-110085238D01*
X96194571Y-110180476D01*
X96242190Y-110228095D01*
X96337428Y-110275714D01*
X96527904Y-110275714D01*
X96623142Y-110228095D01*
X96670761Y-110180476D01*
X96718380Y-110085238D01*
X96718380Y-109894761D01*
X96670761Y-109799523D01*
X96623142Y-109751904D01*
X96527904Y-109704285D01*
X96337428Y-109704285D01*
X96242190Y-109751904D01*
X96194571Y-109799523D01*
X96146952Y-109894761D01*
X106878333Y-104973380D02*
X106545000Y-104497190D01*
X106306904Y-104973380D02*
X106306904Y-103973380D01*
X106687857Y-103973380D01*
X106783095Y-104021000D01*
X106830714Y-104068619D01*
X106878333Y-104163857D01*
X106878333Y-104306714D01*
X106830714Y-104401952D01*
X106783095Y-104449571D01*
X106687857Y-104497190D01*
X106306904Y-104497190D01*
X107211666Y-103973380D02*
X107878333Y-103973380D01*
X107449761Y-104973380D01*
X103830380Y-108878666D02*
X103354190Y-109212000D01*
X103830380Y-109450095D02*
X102830380Y-109450095D01*
X102830380Y-109069142D01*
X102878000Y-108973904D01*
X102925619Y-108926285D01*
X103020857Y-108878666D01*
X103163714Y-108878666D01*
X103258952Y-108926285D01*
X103306571Y-108973904D01*
X103354190Y-109069142D01*
X103354190Y-109450095D01*
X102830380Y-108021523D02*
X102830380Y-108212000D01*
X102878000Y-108307238D01*
X102925619Y-108354857D01*
X103068476Y-108450095D01*
X103258952Y-108497714D01*
X103639904Y-108497714D01*
X103735142Y-108450095D01*
X103782761Y-108402476D01*
X103830380Y-108307238D01*
X103830380Y-108116761D01*
X103782761Y-108021523D01*
X103735142Y-107973904D01*
X103639904Y-107926285D01*
X103401809Y-107926285D01*
X103306571Y-107973904D01*
X103258952Y-108021523D01*
X103211333Y-108116761D01*
X103211333Y-108307238D01*
X103258952Y-108402476D01*
X103306571Y-108450095D01*
X103401809Y-108497714D01*
X99512380Y-118022666D02*
X99036190Y-118356000D01*
X99512380Y-118594095D02*
X98512380Y-118594095D01*
X98512380Y-118213142D01*
X98560000Y-118117904D01*
X98607619Y-118070285D01*
X98702857Y-118022666D01*
X98845714Y-118022666D01*
X98940952Y-118070285D01*
X98988571Y-118117904D01*
X99036190Y-118213142D01*
X99036190Y-118594095D01*
X98512380Y-117117904D02*
X98512380Y-117594095D01*
X98988571Y-117641714D01*
X98940952Y-117594095D01*
X98893333Y-117498857D01*
X98893333Y-117260761D01*
X98940952Y-117165523D01*
X98988571Y-117117904D01*
X99083809Y-117070285D01*
X99321904Y-117070285D01*
X99417142Y-117117904D01*
X99464761Y-117165523D01*
X99512380Y-117260761D01*
X99512380Y-117498857D01*
X99464761Y-117594095D01*
X99417142Y-117641714D01*
X94686380Y-117260666D02*
X94210190Y-117594000D01*
X94686380Y-117832095D02*
X93686380Y-117832095D01*
X93686380Y-117451142D01*
X93734000Y-117355904D01*
X93781619Y-117308285D01*
X93876857Y-117260666D01*
X94019714Y-117260666D01*
X94114952Y-117308285D01*
X94162571Y-117355904D01*
X94210190Y-117451142D01*
X94210190Y-117832095D01*
X93686380Y-116927333D02*
X93686380Y-116308285D01*
X94067333Y-116641619D01*
X94067333Y-116498761D01*
X94114952Y-116403523D01*
X94162571Y-116355904D01*
X94257809Y-116308285D01*
X94495904Y-116308285D01*
X94591142Y-116355904D01*
X94638761Y-116403523D01*
X94686380Y-116498761D01*
X94686380Y-116784476D01*
X94638761Y-116879714D01*
X94591142Y-116927333D01*
X97480380Y-119292666D02*
X97004190Y-119626000D01*
X97480380Y-119864095D02*
X96480380Y-119864095D01*
X96480380Y-119483142D01*
X96528000Y-119387904D01*
X96575619Y-119340285D01*
X96670857Y-119292666D01*
X96813714Y-119292666D01*
X96908952Y-119340285D01*
X96956571Y-119387904D01*
X97004190Y-119483142D01*
X97004190Y-119864095D01*
X96575619Y-118911714D02*
X96528000Y-118864095D01*
X96480380Y-118768857D01*
X96480380Y-118530761D01*
X96528000Y-118435523D01*
X96575619Y-118387904D01*
X96670857Y-118340285D01*
X96766095Y-118340285D01*
X96908952Y-118387904D01*
X97480380Y-118959333D01*
X97480380Y-118340285D01*
X90368380Y-123864666D02*
X89892190Y-124198000D01*
X90368380Y-124436095D02*
X89368380Y-124436095D01*
X89368380Y-124055142D01*
X89416000Y-123959904D01*
X89463619Y-123912285D01*
X89558857Y-123864666D01*
X89701714Y-123864666D01*
X89796952Y-123912285D01*
X89844571Y-123959904D01*
X89892190Y-124055142D01*
X89892190Y-124436095D01*
X90368380Y-122912285D02*
X90368380Y-123483714D01*
X90368380Y-123198000D02*
X89368380Y-123198000D01*
X89511238Y-123293238D01*
X89606476Y-123388476D01*
X89654095Y-123483714D01*
X153590666Y-124293380D02*
X153590666Y-125007666D01*
X153543047Y-125150523D01*
X153447809Y-125245761D01*
X153304952Y-125293380D01*
X153209714Y-125293380D01*
X153971619Y-124293380D02*
X154638285Y-124293380D01*
X154209714Y-125293380D01*
X153590666Y-117816380D02*
X153590666Y-118530666D01*
X153543047Y-118673523D01*
X153447809Y-118768761D01*
X153304952Y-118816380D01*
X153209714Y-118816380D01*
X154495428Y-117816380D02*
X154304952Y-117816380D01*
X154209714Y-117864000D01*
X154162095Y-117911619D01*
X154066857Y-118054476D01*
X154019238Y-118244952D01*
X154019238Y-118625904D01*
X154066857Y-118721142D01*
X154114476Y-118768761D01*
X154209714Y-118816380D01*
X154400190Y-118816380D01*
X154495428Y-118768761D01*
X154543047Y-118721142D01*
X154590666Y-118625904D01*
X154590666Y-118387809D01*
X154543047Y-118292571D01*
X154495428Y-118244952D01*
X154400190Y-118197333D01*
X154209714Y-118197333D01*
X154114476Y-118244952D01*
X154066857Y-118292571D01*
X154019238Y-118387809D01*
X171116666Y-127214380D02*
X171116666Y-127928666D01*
X171069047Y-128071523D01*
X170973809Y-128166761D01*
X170830952Y-128214380D01*
X170735714Y-128214380D01*
X172069047Y-127214380D02*
X171592857Y-127214380D01*
X171545238Y-127690571D01*
X171592857Y-127642952D01*
X171688095Y-127595333D01*
X171926190Y-127595333D01*
X172021428Y-127642952D01*
X172069047Y-127690571D01*
X172116666Y-127785809D01*
X172116666Y-128023904D01*
X172069047Y-128119142D01*
X172021428Y-128166761D01*
X171926190Y-128214380D01*
X171688095Y-128214380D01*
X171592857Y-128166761D01*
X171545238Y-128119142D01*
X171116666Y-118832380D02*
X171116666Y-119546666D01*
X171069047Y-119689523D01*
X170973809Y-119784761D01*
X170830952Y-119832380D01*
X170735714Y-119832380D01*
X172021428Y-119165714D02*
X172021428Y-119832380D01*
X171783333Y-118784761D02*
X171545238Y-119499047D01*
X172164285Y-119499047D01*
X171116666Y-110450380D02*
X171116666Y-111164666D01*
X171069047Y-111307523D01*
X170973809Y-111402761D01*
X170830952Y-111450380D01*
X170735714Y-111450380D01*
X171497619Y-110450380D02*
X172116666Y-110450380D01*
X171783333Y-110831333D01*
X171926190Y-110831333D01*
X172021428Y-110878952D01*
X172069047Y-110926571D01*
X172116666Y-111021809D01*
X172116666Y-111259904D01*
X172069047Y-111355142D01*
X172021428Y-111402761D01*
X171926190Y-111450380D01*
X171640476Y-111450380D01*
X171545238Y-111402761D01*
X171497619Y-111355142D01*
X87042666Y-128992380D02*
X87042666Y-129706666D01*
X86995047Y-129849523D01*
X86899809Y-129944761D01*
X86756952Y-129992380D01*
X86661714Y-129992380D01*
X87471238Y-129087619D02*
X87518857Y-129040000D01*
X87614095Y-128992380D01*
X87852190Y-128992380D01*
X87947428Y-129040000D01*
X87995047Y-129087619D01*
X88042666Y-129182857D01*
X88042666Y-129278095D01*
X87995047Y-129420952D01*
X87423619Y-129992380D01*
X88042666Y-129992380D01*
X87042666Y-118832380D02*
X87042666Y-119546666D01*
X86995047Y-119689523D01*
X86899809Y-119784761D01*
X86756952Y-119832380D01*
X86661714Y-119832380D01*
X88042666Y-119832380D02*
X87471238Y-119832380D01*
X87756952Y-119832380D02*
X87756952Y-118832380D01*
X87661714Y-118975238D01*
X87566476Y-119070476D01*
X87471238Y-119118095D01*
X123396142Y-121340142D02*
X123348523Y-121387761D01*
X123205666Y-121435380D01*
X123110428Y-121435380D01*
X122967571Y-121387761D01*
X122872333Y-121292523D01*
X122824714Y-121197285D01*
X122777095Y-121006809D01*
X122777095Y-120863952D01*
X122824714Y-120673476D01*
X122872333Y-120578238D01*
X122967571Y-120483000D01*
X123110428Y-120435380D01*
X123205666Y-120435380D01*
X123348523Y-120483000D01*
X123396142Y-120530619D01*
X124348523Y-121435380D02*
X123777095Y-121435380D01*
X124062809Y-121435380D02*
X124062809Y-120435380D01*
X123967571Y-120578238D01*
X123872333Y-120673476D01*
X123777095Y-120721095D01*
X124824714Y-121435380D02*
X125015190Y-121435380D01*
X125110428Y-121387761D01*
X125158047Y-121340142D01*
X125253285Y-121197285D01*
X125300904Y-121006809D01*
X125300904Y-120625857D01*
X125253285Y-120530619D01*
X125205666Y-120483000D01*
X125110428Y-120435380D01*
X124919952Y-120435380D01*
X124824714Y-120483000D01*
X124777095Y-120530619D01*
X124729476Y-120625857D01*
X124729476Y-120863952D01*
X124777095Y-120959190D01*
X124824714Y-121006809D01*
X124919952Y-121054428D01*
X125110428Y-121054428D01*
X125205666Y-121006809D01*
X125253285Y-120959190D01*
X125300904Y-120863952D01*
X117676142Y-112762357D02*
X117723761Y-112809976D01*
X117771380Y-112952833D01*
X117771380Y-113048071D01*
X117723761Y-113190928D01*
X117628523Y-113286166D01*
X117533285Y-113333785D01*
X117342809Y-113381404D01*
X117199952Y-113381404D01*
X117009476Y-113333785D01*
X116914238Y-113286166D01*
X116819000Y-113190928D01*
X116771380Y-113048071D01*
X116771380Y-112952833D01*
X116819000Y-112809976D01*
X116866619Y-112762357D01*
X117771380Y-111809976D02*
X117771380Y-112381404D01*
X117771380Y-112095690D02*
X116771380Y-112095690D01*
X116914238Y-112190928D01*
X117009476Y-112286166D01*
X117057095Y-112381404D01*
X117199952Y-111238547D02*
X117152333Y-111333785D01*
X117104714Y-111381404D01*
X117009476Y-111429023D01*
X116961857Y-111429023D01*
X116866619Y-111381404D01*
X116819000Y-111333785D01*
X116771380Y-111238547D01*
X116771380Y-111048071D01*
X116819000Y-110952833D01*
X116866619Y-110905214D01*
X116961857Y-110857595D01*
X117009476Y-110857595D01*
X117104714Y-110905214D01*
X117152333Y-110952833D01*
X117199952Y-111048071D01*
X117199952Y-111238547D01*
X117247571Y-111333785D01*
X117295190Y-111381404D01*
X117390428Y-111429023D01*
X117580904Y-111429023D01*
X117676142Y-111381404D01*
X117723761Y-111333785D01*
X117771380Y-111238547D01*
X117771380Y-111048071D01*
X117723761Y-110952833D01*
X117676142Y-110905214D01*
X117580904Y-110857595D01*
X117390428Y-110857595D01*
X117295190Y-110905214D01*
X117247571Y-110952833D01*
X117199952Y-111048071D01*
X124557642Y-106627142D02*
X124510023Y-106674761D01*
X124367166Y-106722380D01*
X124271928Y-106722380D01*
X124129071Y-106674761D01*
X124033833Y-106579523D01*
X123986214Y-106484285D01*
X123938595Y-106293809D01*
X123938595Y-106150952D01*
X123986214Y-105960476D01*
X124033833Y-105865238D01*
X124129071Y-105770000D01*
X124271928Y-105722380D01*
X124367166Y-105722380D01*
X124510023Y-105770000D01*
X124557642Y-105817619D01*
X125510023Y-106722380D02*
X124938595Y-106722380D01*
X125224309Y-106722380D02*
X125224309Y-105722380D01*
X125129071Y-105865238D01*
X125033833Y-105960476D01*
X124938595Y-106008095D01*
X125843357Y-105722380D02*
X126510023Y-105722380D01*
X126081452Y-106722380D01*
X121150142Y-104243142D02*
X121102523Y-104290761D01*
X120959666Y-104338380D01*
X120864428Y-104338380D01*
X120721571Y-104290761D01*
X120626333Y-104195523D01*
X120578714Y-104100285D01*
X120531095Y-103909809D01*
X120531095Y-103766952D01*
X120578714Y-103576476D01*
X120626333Y-103481238D01*
X120721571Y-103386000D01*
X120864428Y-103338380D01*
X120959666Y-103338380D01*
X121102523Y-103386000D01*
X121150142Y-103433619D01*
X122102523Y-104338380D02*
X121531095Y-104338380D01*
X121816809Y-104338380D02*
X121816809Y-103338380D01*
X121721571Y-103481238D01*
X121626333Y-103576476D01*
X121531095Y-103624095D01*
X122959666Y-103338380D02*
X122769190Y-103338380D01*
X122673952Y-103386000D01*
X122626333Y-103433619D01*
X122531095Y-103576476D01*
X122483476Y-103766952D01*
X122483476Y-104147904D01*
X122531095Y-104243142D01*
X122578714Y-104290761D01*
X122673952Y-104338380D01*
X122864428Y-104338380D01*
X122959666Y-104290761D01*
X123007285Y-104243142D01*
X123054904Y-104147904D01*
X123054904Y-103909809D01*
X123007285Y-103814571D01*
X122959666Y-103766952D01*
X122864428Y-103719333D01*
X122673952Y-103719333D01*
X122578714Y-103766952D01*
X122531095Y-103814571D01*
X122483476Y-103909809D01*
X151360142Y-110243857D02*
X151407761Y-110291476D01*
X151455380Y-110434333D01*
X151455380Y-110529571D01*
X151407761Y-110672428D01*
X151312523Y-110767666D01*
X151217285Y-110815285D01*
X151026809Y-110862904D01*
X150883952Y-110862904D01*
X150693476Y-110815285D01*
X150598238Y-110767666D01*
X150503000Y-110672428D01*
X150455380Y-110529571D01*
X150455380Y-110434333D01*
X150503000Y-110291476D01*
X150550619Y-110243857D01*
X151455380Y-109291476D02*
X151455380Y-109862904D01*
X151455380Y-109577190D02*
X150455380Y-109577190D01*
X150598238Y-109672428D01*
X150693476Y-109767666D01*
X150741095Y-109862904D01*
X150455380Y-108386714D02*
X150455380Y-108862904D01*
X150931571Y-108910523D01*
X150883952Y-108862904D01*
X150836333Y-108767666D01*
X150836333Y-108529571D01*
X150883952Y-108434333D01*
X150931571Y-108386714D01*
X151026809Y-108339095D01*
X151264904Y-108339095D01*
X151360142Y-108386714D01*
X151407761Y-108434333D01*
X151455380Y-108529571D01*
X151455380Y-108767666D01*
X151407761Y-108862904D01*
X151360142Y-108910523D01*
X138152142Y-136278857D02*
X138199761Y-136326476D01*
X138247380Y-136469333D01*
X138247380Y-136564571D01*
X138199761Y-136707428D01*
X138104523Y-136802666D01*
X138009285Y-136850285D01*
X137818809Y-136897904D01*
X137675952Y-136897904D01*
X137485476Y-136850285D01*
X137390238Y-136802666D01*
X137295000Y-136707428D01*
X137247380Y-136564571D01*
X137247380Y-136469333D01*
X137295000Y-136326476D01*
X137342619Y-136278857D01*
X138247380Y-135326476D02*
X138247380Y-135897904D01*
X138247380Y-135612190D02*
X137247380Y-135612190D01*
X137390238Y-135707428D01*
X137485476Y-135802666D01*
X137533095Y-135897904D01*
X137580714Y-134469333D02*
X138247380Y-134469333D01*
X137199761Y-134707428D02*
X137914047Y-134945523D01*
X137914047Y-134326476D01*
X132437142Y-110624857D02*
X132484761Y-110672476D01*
X132532380Y-110815333D01*
X132532380Y-110910571D01*
X132484761Y-111053428D01*
X132389523Y-111148666D01*
X132294285Y-111196285D01*
X132103809Y-111243904D01*
X131960952Y-111243904D01*
X131770476Y-111196285D01*
X131675238Y-111148666D01*
X131580000Y-111053428D01*
X131532380Y-110910571D01*
X131532380Y-110815333D01*
X131580000Y-110672476D01*
X131627619Y-110624857D01*
X132532380Y-109672476D02*
X132532380Y-110243904D01*
X132532380Y-109958190D02*
X131532380Y-109958190D01*
X131675238Y-110053428D01*
X131770476Y-110148666D01*
X131818095Y-110243904D01*
X131532380Y-109339142D02*
X131532380Y-108720095D01*
X131913333Y-109053428D01*
X131913333Y-108910571D01*
X131960952Y-108815333D01*
X132008571Y-108767714D01*
X132103809Y-108720095D01*
X132341904Y-108720095D01*
X132437142Y-108767714D01*
X132484761Y-108815333D01*
X132532380Y-108910571D01*
X132532380Y-109196285D01*
X132484761Y-109291523D01*
X132437142Y-109339142D01*
X147820142Y-125452142D02*
X147772523Y-125499761D01*
X147629666Y-125547380D01*
X147534428Y-125547380D01*
X147391571Y-125499761D01*
X147296333Y-125404523D01*
X147248714Y-125309285D01*
X147201095Y-125118809D01*
X147201095Y-124975952D01*
X147248714Y-124785476D01*
X147296333Y-124690238D01*
X147391571Y-124595000D01*
X147534428Y-124547380D01*
X147629666Y-124547380D01*
X147772523Y-124595000D01*
X147820142Y-124642619D01*
X148772523Y-125547380D02*
X148201095Y-125547380D01*
X148486809Y-125547380D02*
X148486809Y-124547380D01*
X148391571Y-124690238D01*
X148296333Y-124785476D01*
X148201095Y-124833095D01*
X149153476Y-124642619D02*
X149201095Y-124595000D01*
X149296333Y-124547380D01*
X149534428Y-124547380D01*
X149629666Y-124595000D01*
X149677285Y-124642619D01*
X149724904Y-124737857D01*
X149724904Y-124833095D01*
X149677285Y-124975952D01*
X149105857Y-125547380D01*
X149724904Y-125547380D01*
X144375142Y-97670857D02*
X144422761Y-97718476D01*
X144470380Y-97861333D01*
X144470380Y-97956571D01*
X144422761Y-98099428D01*
X144327523Y-98194666D01*
X144232285Y-98242285D01*
X144041809Y-98289904D01*
X143898952Y-98289904D01*
X143708476Y-98242285D01*
X143613238Y-98194666D01*
X143518000Y-98099428D01*
X143470380Y-97956571D01*
X143470380Y-97861333D01*
X143518000Y-97718476D01*
X143565619Y-97670857D01*
X144470380Y-96718476D02*
X144470380Y-97289904D01*
X144470380Y-97004190D02*
X143470380Y-97004190D01*
X143613238Y-97099428D01*
X143708476Y-97194666D01*
X143756095Y-97289904D01*
X144470380Y-95766095D02*
X144470380Y-96337523D01*
X144470380Y-96051809D02*
X143470380Y-96051809D01*
X143613238Y-96147047D01*
X143708476Y-96242285D01*
X143756095Y-96337523D01*
X111101142Y-101353857D02*
X111148761Y-101401476D01*
X111196380Y-101544333D01*
X111196380Y-101639571D01*
X111148761Y-101782428D01*
X111053523Y-101877666D01*
X110958285Y-101925285D01*
X110767809Y-101972904D01*
X110624952Y-101972904D01*
X110434476Y-101925285D01*
X110339238Y-101877666D01*
X110244000Y-101782428D01*
X110196380Y-101639571D01*
X110196380Y-101544333D01*
X110244000Y-101401476D01*
X110291619Y-101353857D01*
X111196380Y-100401476D02*
X111196380Y-100972904D01*
X111196380Y-100687190D02*
X110196380Y-100687190D01*
X110339238Y-100782428D01*
X110434476Y-100877666D01*
X110482095Y-100972904D01*
X110196380Y-99782428D02*
X110196380Y-99687190D01*
X110244000Y-99591952D01*
X110291619Y-99544333D01*
X110386857Y-99496714D01*
X110577333Y-99449095D01*
X110815428Y-99449095D01*
X111005904Y-99496714D01*
X111101142Y-99544333D01*
X111148761Y-99591952D01*
X111196380Y-99687190D01*
X111196380Y-99782428D01*
X111148761Y-99877666D01*
X111101142Y-99925285D01*
X111005904Y-99972904D01*
X110815428Y-100020523D01*
X110577333Y-100020523D01*
X110386857Y-99972904D01*
X110291619Y-99925285D01*
X110244000Y-99877666D01*
X110196380Y-99782428D01*
X103338333Y-111609142D02*
X103290714Y-111656761D01*
X103147857Y-111704380D01*
X103052619Y-111704380D01*
X102909761Y-111656761D01*
X102814523Y-111561523D01*
X102766904Y-111466285D01*
X102719285Y-111275809D01*
X102719285Y-111132952D01*
X102766904Y-110942476D01*
X102814523Y-110847238D01*
X102909761Y-110752000D01*
X103052619Y-110704380D01*
X103147857Y-110704380D01*
X103290714Y-110752000D01*
X103338333Y-110799619D01*
X103814523Y-111704380D02*
X104005000Y-111704380D01*
X104100238Y-111656761D01*
X104147857Y-111609142D01*
X104243095Y-111466285D01*
X104290714Y-111275809D01*
X104290714Y-110894857D01*
X104243095Y-110799619D01*
X104195476Y-110752000D01*
X104100238Y-110704380D01*
X103909761Y-110704380D01*
X103814523Y-110752000D01*
X103766904Y-110799619D01*
X103719285Y-110894857D01*
X103719285Y-111132952D01*
X103766904Y-111228190D01*
X103814523Y-111275809D01*
X103909761Y-111323428D01*
X104100238Y-111323428D01*
X104195476Y-111275809D01*
X104243095Y-111228190D01*
X104290714Y-111132952D01*
X110323333Y-109323142D02*
X110275714Y-109370761D01*
X110132857Y-109418380D01*
X110037619Y-109418380D01*
X109894761Y-109370761D01*
X109799523Y-109275523D01*
X109751904Y-109180285D01*
X109704285Y-108989809D01*
X109704285Y-108846952D01*
X109751904Y-108656476D01*
X109799523Y-108561238D01*
X109894761Y-108466000D01*
X110037619Y-108418380D01*
X110132857Y-108418380D01*
X110275714Y-108466000D01*
X110323333Y-108513619D01*
X110894761Y-108846952D02*
X110799523Y-108799333D01*
X110751904Y-108751714D01*
X110704285Y-108656476D01*
X110704285Y-108608857D01*
X110751904Y-108513619D01*
X110799523Y-108466000D01*
X110894761Y-108418380D01*
X111085238Y-108418380D01*
X111180476Y-108466000D01*
X111228095Y-108513619D01*
X111275714Y-108608857D01*
X111275714Y-108656476D01*
X111228095Y-108751714D01*
X111180476Y-108799333D01*
X111085238Y-108846952D01*
X110894761Y-108846952D01*
X110799523Y-108894571D01*
X110751904Y-108942190D01*
X110704285Y-109037428D01*
X110704285Y-109227904D01*
X110751904Y-109323142D01*
X110799523Y-109370761D01*
X110894761Y-109418380D01*
X111085238Y-109418380D01*
X111180476Y-109370761D01*
X111228095Y-109323142D01*
X111275714Y-109227904D01*
X111275714Y-109037428D01*
X111228095Y-108942190D01*
X111180476Y-108894571D01*
X111085238Y-108846952D01*
X107545142Y-132627666D02*
X107592761Y-132675285D01*
X107640380Y-132818142D01*
X107640380Y-132913380D01*
X107592761Y-133056238D01*
X107497523Y-133151476D01*
X107402285Y-133199095D01*
X107211809Y-133246714D01*
X107068952Y-133246714D01*
X106878476Y-133199095D01*
X106783238Y-133151476D01*
X106688000Y-133056238D01*
X106640380Y-132913380D01*
X106640380Y-132818142D01*
X106688000Y-132675285D01*
X106735619Y-132627666D01*
X106640380Y-132294333D02*
X106640380Y-131627666D01*
X107640380Y-132056238D01*
X95845333Y-126341142D02*
X95797714Y-126388761D01*
X95654857Y-126436380D01*
X95559619Y-126436380D01*
X95416761Y-126388761D01*
X95321523Y-126293523D01*
X95273904Y-126198285D01*
X95226285Y-126007809D01*
X95226285Y-125864952D01*
X95273904Y-125674476D01*
X95321523Y-125579238D01*
X95416761Y-125484000D01*
X95559619Y-125436380D01*
X95654857Y-125436380D01*
X95797714Y-125484000D01*
X95845333Y-125531619D01*
X96702476Y-125436380D02*
X96512000Y-125436380D01*
X96416761Y-125484000D01*
X96369142Y-125531619D01*
X96273904Y-125674476D01*
X96226285Y-125864952D01*
X96226285Y-126245904D01*
X96273904Y-126341142D01*
X96321523Y-126388761D01*
X96416761Y-126436380D01*
X96607238Y-126436380D01*
X96702476Y-126388761D01*
X96750095Y-126341142D01*
X96797714Y-126245904D01*
X96797714Y-126007809D01*
X96750095Y-125912571D01*
X96702476Y-125864952D01*
X96607238Y-125817333D01*
X96416761Y-125817333D01*
X96321523Y-125864952D01*
X96273904Y-125912571D01*
X96226285Y-126007809D01*
X114895333Y-119610142D02*
X114847714Y-119657761D01*
X114704857Y-119705380D01*
X114609619Y-119705380D01*
X114466761Y-119657761D01*
X114371523Y-119562523D01*
X114323904Y-119467285D01*
X114276285Y-119276809D01*
X114276285Y-119133952D01*
X114323904Y-118943476D01*
X114371523Y-118848238D01*
X114466761Y-118753000D01*
X114609619Y-118705380D01*
X114704857Y-118705380D01*
X114847714Y-118753000D01*
X114895333Y-118800619D01*
X115800095Y-118705380D02*
X115323904Y-118705380D01*
X115276285Y-119181571D01*
X115323904Y-119133952D01*
X115419142Y-119086333D01*
X115657238Y-119086333D01*
X115752476Y-119133952D01*
X115800095Y-119181571D01*
X115847714Y-119276809D01*
X115847714Y-119514904D01*
X115800095Y-119610142D01*
X115752476Y-119657761D01*
X115657238Y-119705380D01*
X115419142Y-119705380D01*
X115323904Y-119657761D01*
X115276285Y-119610142D01*
X123039142Y-99762666D02*
X123086761Y-99810285D01*
X123134380Y-99953142D01*
X123134380Y-100048380D01*
X123086761Y-100191238D01*
X122991523Y-100286476D01*
X122896285Y-100334095D01*
X122705809Y-100381714D01*
X122562952Y-100381714D01*
X122372476Y-100334095D01*
X122277238Y-100286476D01*
X122182000Y-100191238D01*
X122134380Y-100048380D01*
X122134380Y-99953142D01*
X122182000Y-99810285D01*
X122229619Y-99762666D01*
X122467714Y-98905523D02*
X123134380Y-98905523D01*
X122086761Y-99143619D02*
X122801047Y-99381714D01*
X122801047Y-98762666D01*
X104878142Y-99353666D02*
X104925761Y-99401285D01*
X104973380Y-99544142D01*
X104973380Y-99639380D01*
X104925761Y-99782238D01*
X104830523Y-99877476D01*
X104735285Y-99925095D01*
X104544809Y-99972714D01*
X104401952Y-99972714D01*
X104211476Y-99925095D01*
X104116238Y-99877476D01*
X104021000Y-99782238D01*
X103973380Y-99639380D01*
X103973380Y-99544142D01*
X104021000Y-99401285D01*
X104068619Y-99353666D01*
X103973380Y-99020333D02*
X103973380Y-98401285D01*
X104354333Y-98734619D01*
X104354333Y-98591761D01*
X104401952Y-98496523D01*
X104449571Y-98448904D01*
X104544809Y-98401285D01*
X104782904Y-98401285D01*
X104878142Y-98448904D01*
X104925761Y-98496523D01*
X104973380Y-98591761D01*
X104973380Y-98877476D01*
X104925761Y-98972714D01*
X104878142Y-99020333D01*
X91543142Y-103036666D02*
X91590761Y-103084285D01*
X91638380Y-103227142D01*
X91638380Y-103322380D01*
X91590761Y-103465238D01*
X91495523Y-103560476D01*
X91400285Y-103608095D01*
X91209809Y-103655714D01*
X91066952Y-103655714D01*
X90876476Y-103608095D01*
X90781238Y-103560476D01*
X90686000Y-103465238D01*
X90638380Y-103322380D01*
X90638380Y-103227142D01*
X90686000Y-103084285D01*
X90733619Y-103036666D01*
X90733619Y-102655714D02*
X90686000Y-102608095D01*
X90638380Y-102512857D01*
X90638380Y-102274761D01*
X90686000Y-102179523D01*
X90733619Y-102131904D01*
X90828857Y-102084285D01*
X90924095Y-102084285D01*
X91066952Y-102131904D01*
X91638380Y-102703333D01*
X91638380Y-102084285D01*
X93575142Y-124118666D02*
X93622761Y-124166285D01*
X93670380Y-124309142D01*
X93670380Y-124404380D01*
X93622761Y-124547238D01*
X93527523Y-124642476D01*
X93432285Y-124690095D01*
X93241809Y-124737714D01*
X93098952Y-124737714D01*
X92908476Y-124690095D01*
X92813238Y-124642476D01*
X92718000Y-124547238D01*
X92670380Y-124404380D01*
X92670380Y-124309142D01*
X92718000Y-124166285D01*
X92765619Y-124118666D01*
X93670380Y-123166285D02*
X93670380Y-123737714D01*
X93670380Y-123452000D02*
X92670380Y-123452000D01*
X92813238Y-123547238D01*
X92908476Y-123642476D01*
X92956095Y-123737714D01*
M02*
