G04 #@! TF.GenerationSoftware,KiCad,Pcbnew,(5.1.7-0-10_14)*
G04 #@! TF.CreationDate,2020-11-10T14:54:09+01:00*
G04 #@! TF.ProjectId,input-sel-v1,696e7075-742d-4736-956c-2d76312e6b69,rev?*
G04 #@! TF.SameCoordinates,Original*
G04 #@! TF.FileFunction,Legend,Top*
G04 #@! TF.FilePolarity,Positive*
%FSLAX46Y46*%
G04 Gerber Fmt 4.6, Leading zero omitted, Abs format (unit mm)*
G04 Created by KiCad (PCBNEW (5.1.7-0-10_14)) date 2020-11-10 14:54:09*
%MOMM*%
%LPD*%
G01*
G04 APERTURE LIST*
%ADD10C,0.150000*%
%ADD11C,0.120000*%
%ADD12C,0.127000*%
%ADD13C,0.200000*%
%ADD14C,0.015000*%
G04 APERTURE END LIST*
D10*
X193405952Y-93417380D02*
X193405952Y-92417380D01*
X193882142Y-92750714D02*
X193882142Y-93417380D01*
X193882142Y-92845952D02*
X193929761Y-92798333D01*
X194025000Y-92750714D01*
X194167857Y-92750714D01*
X194263095Y-92798333D01*
X194310714Y-92893571D01*
X194310714Y-93417380D01*
X194786904Y-92750714D02*
X194786904Y-93750714D01*
X194786904Y-92798333D02*
X194882142Y-92750714D01*
X195072619Y-92750714D01*
X195167857Y-92798333D01*
X195215476Y-92845952D01*
X195263095Y-92941190D01*
X195263095Y-93226904D01*
X195215476Y-93322142D01*
X195167857Y-93369761D01*
X195072619Y-93417380D01*
X194882142Y-93417380D01*
X194786904Y-93369761D01*
X196120238Y-92750714D02*
X196120238Y-93417380D01*
X195691666Y-92750714D02*
X195691666Y-93274523D01*
X195739285Y-93369761D01*
X195834523Y-93417380D01*
X195977380Y-93417380D01*
X196072619Y-93369761D01*
X196120238Y-93322142D01*
X196453571Y-92750714D02*
X196834523Y-92750714D01*
X196596428Y-92417380D02*
X196596428Y-93274523D01*
X196644047Y-93369761D01*
X196739285Y-93417380D01*
X196834523Y-93417380D01*
X197167857Y-93036428D02*
X197929761Y-93036428D01*
X198358333Y-93369761D02*
X198501190Y-93417380D01*
X198739285Y-93417380D01*
X198834523Y-93369761D01*
X198882142Y-93322142D01*
X198929761Y-93226904D01*
X198929761Y-93131666D01*
X198882142Y-93036428D01*
X198834523Y-92988809D01*
X198739285Y-92941190D01*
X198548809Y-92893571D01*
X198453571Y-92845952D01*
X198405952Y-92798333D01*
X198358333Y-92703095D01*
X198358333Y-92607857D01*
X198405952Y-92512619D01*
X198453571Y-92465000D01*
X198548809Y-92417380D01*
X198786904Y-92417380D01*
X198929761Y-92465000D01*
X199739285Y-93369761D02*
X199644047Y-93417380D01*
X199453571Y-93417380D01*
X199358333Y-93369761D01*
X199310714Y-93274523D01*
X199310714Y-92893571D01*
X199358333Y-92798333D01*
X199453571Y-92750714D01*
X199644047Y-92750714D01*
X199739285Y-92798333D01*
X199786904Y-92893571D01*
X199786904Y-92988809D01*
X199310714Y-93084047D01*
X200358333Y-93417380D02*
X200263095Y-93369761D01*
X200215476Y-93274523D01*
X200215476Y-92417380D01*
X201120238Y-93369761D02*
X201025000Y-93417380D01*
X200834523Y-93417380D01*
X200739285Y-93369761D01*
X200691666Y-93274523D01*
X200691666Y-92893571D01*
X200739285Y-92798333D01*
X200834523Y-92750714D01*
X201025000Y-92750714D01*
X201120238Y-92798333D01*
X201167857Y-92893571D01*
X201167857Y-92988809D01*
X200691666Y-93084047D01*
X202025000Y-93369761D02*
X201929761Y-93417380D01*
X201739285Y-93417380D01*
X201644047Y-93369761D01*
X201596428Y-93322142D01*
X201548809Y-93226904D01*
X201548809Y-92941190D01*
X201596428Y-92845952D01*
X201644047Y-92798333D01*
X201739285Y-92750714D01*
X201929761Y-92750714D01*
X202025000Y-92798333D01*
X202310714Y-92750714D02*
X202691666Y-92750714D01*
X202453571Y-92417380D02*
X202453571Y-93274523D01*
X202501190Y-93369761D01*
X202596428Y-93417380D01*
X202691666Y-93417380D01*
X203167857Y-93417380D02*
X203072619Y-93369761D01*
X203025000Y-93322142D01*
X202977380Y-93226904D01*
X202977380Y-92941190D01*
X203025000Y-92845952D01*
X203072619Y-92798333D01*
X203167857Y-92750714D01*
X203310714Y-92750714D01*
X203405952Y-92798333D01*
X203453571Y-92845952D01*
X203501190Y-92941190D01*
X203501190Y-93226904D01*
X203453571Y-93322142D01*
X203405952Y-93369761D01*
X203310714Y-93417380D01*
X203167857Y-93417380D01*
X203929761Y-93417380D02*
X203929761Y-92750714D01*
X203929761Y-92941190D02*
X203977380Y-92845952D01*
X204025000Y-92798333D01*
X204120238Y-92750714D01*
X204215476Y-92750714D01*
X205167857Y-92417380D02*
X205501190Y-93417380D01*
X205834523Y-92417380D01*
X206691666Y-93417380D02*
X206120238Y-93417380D01*
X206405952Y-93417380D02*
X206405952Y-92417380D01*
X206310714Y-92560238D01*
X206215476Y-92655476D01*
X206120238Y-92703095D01*
X194405952Y-95067380D02*
X194405952Y-94067380D01*
X194739285Y-94781666D01*
X195072619Y-94067380D01*
X195072619Y-95067380D01*
X195548809Y-95067380D02*
X195548809Y-94400714D01*
X195548809Y-94067380D02*
X195501190Y-94115000D01*
X195548809Y-94162619D01*
X195596428Y-94115000D01*
X195548809Y-94067380D01*
X195548809Y-94162619D01*
X196453571Y-95019761D02*
X196358333Y-95067380D01*
X196167857Y-95067380D01*
X196072619Y-95019761D01*
X196025000Y-94972142D01*
X195977380Y-94876904D01*
X195977380Y-94591190D01*
X196025000Y-94495952D01*
X196072619Y-94448333D01*
X196167857Y-94400714D01*
X196358333Y-94400714D01*
X196453571Y-94448333D01*
X196882142Y-95067380D02*
X196882142Y-94067380D01*
X197310714Y-95067380D02*
X197310714Y-94543571D01*
X197263095Y-94448333D01*
X197167857Y-94400714D01*
X197025000Y-94400714D01*
X196929761Y-94448333D01*
X196882142Y-94495952D01*
X198215476Y-95067380D02*
X198215476Y-94543571D01*
X198167857Y-94448333D01*
X198072619Y-94400714D01*
X197882142Y-94400714D01*
X197786904Y-94448333D01*
X198215476Y-95019761D02*
X198120238Y-95067380D01*
X197882142Y-95067380D01*
X197786904Y-95019761D01*
X197739285Y-94924523D01*
X197739285Y-94829285D01*
X197786904Y-94734047D01*
X197882142Y-94686428D01*
X198120238Y-94686428D01*
X198215476Y-94638809D01*
X199072619Y-95019761D02*
X198977380Y-95067380D01*
X198786904Y-95067380D01*
X198691666Y-95019761D01*
X198644047Y-94924523D01*
X198644047Y-94543571D01*
X198691666Y-94448333D01*
X198786904Y-94400714D01*
X198977380Y-94400714D01*
X199072619Y-94448333D01*
X199120238Y-94543571D01*
X199120238Y-94638809D01*
X198644047Y-94734047D01*
X199691666Y-95067380D02*
X199596428Y-95019761D01*
X199548809Y-94924523D01*
X199548809Y-94067380D01*
X200786904Y-95019761D02*
X200929761Y-95067380D01*
X201167857Y-95067380D01*
X201263095Y-95019761D01*
X201310714Y-94972142D01*
X201358333Y-94876904D01*
X201358333Y-94781666D01*
X201310714Y-94686428D01*
X201263095Y-94638809D01*
X201167857Y-94591190D01*
X200977380Y-94543571D01*
X200882142Y-94495952D01*
X200834523Y-94448333D01*
X200786904Y-94353095D01*
X200786904Y-94257857D01*
X200834523Y-94162619D01*
X200882142Y-94115000D01*
X200977380Y-94067380D01*
X201215476Y-94067380D01*
X201358333Y-94115000D01*
X202215476Y-95019761D02*
X202120238Y-95067380D01*
X201929761Y-95067380D01*
X201834523Y-95019761D01*
X201786904Y-94972142D01*
X201739285Y-94876904D01*
X201739285Y-94591190D01*
X201786904Y-94495952D01*
X201834523Y-94448333D01*
X201929761Y-94400714D01*
X202120238Y-94400714D01*
X202215476Y-94448333D01*
X202644047Y-95067380D02*
X202644047Y-94067380D01*
X203072619Y-95067380D02*
X203072619Y-94543571D01*
X203025000Y-94448333D01*
X202929761Y-94400714D01*
X202786904Y-94400714D01*
X202691666Y-94448333D01*
X202644047Y-94495952D01*
X203929761Y-95019761D02*
X203834523Y-95067380D01*
X203644047Y-95067380D01*
X203548809Y-95019761D01*
X203501190Y-94924523D01*
X203501190Y-94543571D01*
X203548809Y-94448333D01*
X203644047Y-94400714D01*
X203834523Y-94400714D01*
X203929761Y-94448333D01*
X203977380Y-94543571D01*
X203977380Y-94638809D01*
X203501190Y-94734047D01*
X204405952Y-94400714D02*
X204405952Y-95067380D01*
X204405952Y-94495952D02*
X204453571Y-94448333D01*
X204548809Y-94400714D01*
X204691666Y-94400714D01*
X204786904Y-94448333D01*
X204834523Y-94543571D01*
X204834523Y-95067380D01*
X205310714Y-95067380D02*
X205310714Y-94067380D01*
X205405952Y-94686428D02*
X205691666Y-95067380D01*
X205691666Y-94400714D02*
X205310714Y-94781666D01*
X195929761Y-95812619D02*
X195977380Y-95765000D01*
X196072619Y-95717380D01*
X196310714Y-95717380D01*
X196405952Y-95765000D01*
X196453571Y-95812619D01*
X196501190Y-95907857D01*
X196501190Y-96003095D01*
X196453571Y-96145952D01*
X195882142Y-96717380D01*
X196501190Y-96717380D01*
X197120238Y-95717380D02*
X197215476Y-95717380D01*
X197310714Y-95765000D01*
X197358333Y-95812619D01*
X197405952Y-95907857D01*
X197453571Y-96098333D01*
X197453571Y-96336428D01*
X197405952Y-96526904D01*
X197358333Y-96622142D01*
X197310714Y-96669761D01*
X197215476Y-96717380D01*
X197120238Y-96717380D01*
X197025000Y-96669761D01*
X196977380Y-96622142D01*
X196929761Y-96526904D01*
X196882142Y-96336428D01*
X196882142Y-96098333D01*
X196929761Y-95907857D01*
X196977380Y-95812619D01*
X197025000Y-95765000D01*
X197120238Y-95717380D01*
X197834523Y-95812619D02*
X197882142Y-95765000D01*
X197977380Y-95717380D01*
X198215476Y-95717380D01*
X198310714Y-95765000D01*
X198358333Y-95812619D01*
X198405952Y-95907857D01*
X198405952Y-96003095D01*
X198358333Y-96145952D01*
X197786904Y-96717380D01*
X198405952Y-96717380D01*
X199025000Y-95717380D02*
X199120238Y-95717380D01*
X199215476Y-95765000D01*
X199263095Y-95812619D01*
X199310714Y-95907857D01*
X199358333Y-96098333D01*
X199358333Y-96336428D01*
X199310714Y-96526904D01*
X199263095Y-96622142D01*
X199215476Y-96669761D01*
X199120238Y-96717380D01*
X199025000Y-96717380D01*
X198929761Y-96669761D01*
X198882142Y-96622142D01*
X198834523Y-96526904D01*
X198786904Y-96336428D01*
X198786904Y-96098333D01*
X198834523Y-95907857D01*
X198882142Y-95812619D01*
X198929761Y-95765000D01*
X199025000Y-95717380D01*
X199786904Y-96622142D02*
X199834523Y-96669761D01*
X199786904Y-96717380D01*
X199739285Y-96669761D01*
X199786904Y-96622142D01*
X199786904Y-96717380D01*
X200786904Y-96717380D02*
X200215476Y-96717380D01*
X200501190Y-96717380D02*
X200501190Y-95717380D01*
X200405952Y-95860238D01*
X200310714Y-95955476D01*
X200215476Y-96003095D01*
X201739285Y-96717380D02*
X201167857Y-96717380D01*
X201453571Y-96717380D02*
X201453571Y-95717380D01*
X201358333Y-95860238D01*
X201263095Y-95955476D01*
X201167857Y-96003095D01*
X202167857Y-96622142D02*
X202215476Y-96669761D01*
X202167857Y-96717380D01*
X202120238Y-96669761D01*
X202167857Y-96622142D01*
X202167857Y-96717380D01*
X203167857Y-96717380D02*
X202596428Y-96717380D01*
X202882142Y-96717380D02*
X202882142Y-95717380D01*
X202786904Y-95860238D01*
X202691666Y-95955476D01*
X202596428Y-96003095D01*
X203786904Y-95717380D02*
X203882142Y-95717380D01*
X203977380Y-95765000D01*
X204025000Y-95812619D01*
X204072619Y-95907857D01*
X204120238Y-96098333D01*
X204120238Y-96336428D01*
X204072619Y-96526904D01*
X204025000Y-96622142D01*
X203977380Y-96669761D01*
X203882142Y-96717380D01*
X203786904Y-96717380D01*
X203691666Y-96669761D01*
X203644047Y-96622142D01*
X203596428Y-96526904D01*
X203548809Y-96336428D01*
X203548809Y-96098333D01*
X203596428Y-95907857D01*
X203644047Y-95812619D01*
X203691666Y-95765000D01*
X203786904Y-95717380D01*
X207161190Y-79462380D02*
X207351666Y-79462380D01*
X207446904Y-79510000D01*
X207542142Y-79605238D01*
X207589761Y-79795714D01*
X207589761Y-80129047D01*
X207542142Y-80319523D01*
X207446904Y-80414761D01*
X207351666Y-80462380D01*
X207161190Y-80462380D01*
X207065952Y-80414761D01*
X206970714Y-80319523D01*
X206923095Y-80129047D01*
X206923095Y-79795714D01*
X206970714Y-79605238D01*
X207065952Y-79510000D01*
X207161190Y-79462380D01*
X208018333Y-79462380D02*
X208018333Y-80271904D01*
X208065952Y-80367142D01*
X208113571Y-80414761D01*
X208208809Y-80462380D01*
X208399285Y-80462380D01*
X208494523Y-80414761D01*
X208542142Y-80367142D01*
X208589761Y-80271904D01*
X208589761Y-79462380D01*
X208923095Y-79462380D02*
X209494523Y-79462380D01*
X209208809Y-80462380D02*
X209208809Y-79462380D01*
X210399285Y-80462380D02*
X210065952Y-79986190D01*
X209827857Y-80462380D02*
X209827857Y-79462380D01*
X210208809Y-79462380D01*
X210304047Y-79510000D01*
X210351666Y-79557619D01*
X210399285Y-79652857D01*
X210399285Y-79795714D01*
X210351666Y-79890952D01*
X210304047Y-79938571D01*
X210208809Y-79986190D01*
X209827857Y-79986190D01*
X211351666Y-79510000D02*
X211256428Y-79462380D01*
X211113571Y-79462380D01*
X210970714Y-79510000D01*
X210875476Y-79605238D01*
X210827857Y-79700476D01*
X210780238Y-79890952D01*
X210780238Y-80033809D01*
X210827857Y-80224285D01*
X210875476Y-80319523D01*
X210970714Y-80414761D01*
X211113571Y-80462380D01*
X211208809Y-80462380D01*
X211351666Y-80414761D01*
X211399285Y-80367142D01*
X211399285Y-80033809D01*
X211208809Y-80033809D01*
X211827857Y-80462380D02*
X211827857Y-79462380D01*
X212399285Y-80462380D01*
X212399285Y-79462380D01*
X212875476Y-80462380D02*
X212875476Y-79462380D01*
X213113571Y-79462380D01*
X213256428Y-79510000D01*
X213351666Y-79605238D01*
X213399285Y-79700476D01*
X213446904Y-79890952D01*
X213446904Y-80033809D01*
X213399285Y-80224285D01*
X213351666Y-80319523D01*
X213256428Y-80414761D01*
X213113571Y-80462380D01*
X212875476Y-80462380D01*
X203446428Y-66762380D02*
X203636904Y-66762380D01*
X203732142Y-66810000D01*
X203827380Y-66905238D01*
X203875000Y-67095714D01*
X203875000Y-67429047D01*
X203827380Y-67619523D01*
X203732142Y-67714761D01*
X203636904Y-67762380D01*
X203446428Y-67762380D01*
X203351190Y-67714761D01*
X203255952Y-67619523D01*
X203208333Y-67429047D01*
X203208333Y-67095714D01*
X203255952Y-66905238D01*
X203351190Y-66810000D01*
X203446428Y-66762380D01*
X204303571Y-66762380D02*
X204303571Y-67571904D01*
X204351190Y-67667142D01*
X204398809Y-67714761D01*
X204494047Y-67762380D01*
X204684523Y-67762380D01*
X204779761Y-67714761D01*
X204827380Y-67667142D01*
X204875000Y-67571904D01*
X204875000Y-66762380D01*
X205208333Y-66762380D02*
X205779761Y-66762380D01*
X205494047Y-67762380D02*
X205494047Y-66762380D01*
X206589285Y-67762380D02*
X206113095Y-67762380D01*
X206113095Y-66762380D01*
X207446428Y-66810000D02*
X207351190Y-66762380D01*
X207208333Y-66762380D01*
X207065476Y-66810000D01*
X206970238Y-66905238D01*
X206922619Y-67000476D01*
X206875000Y-67190952D01*
X206875000Y-67333809D01*
X206922619Y-67524285D01*
X206970238Y-67619523D01*
X207065476Y-67714761D01*
X207208333Y-67762380D01*
X207303571Y-67762380D01*
X207446428Y-67714761D01*
X207494047Y-67667142D01*
X207494047Y-67333809D01*
X207303571Y-67333809D01*
X207922619Y-67762380D02*
X207922619Y-66762380D01*
X208494047Y-67762380D01*
X208494047Y-66762380D01*
X208970238Y-67762380D02*
X208970238Y-66762380D01*
X209208333Y-66762380D01*
X209351190Y-66810000D01*
X209446428Y-66905238D01*
X209494047Y-67000476D01*
X209541666Y-67190952D01*
X209541666Y-67333809D01*
X209494047Y-67524285D01*
X209446428Y-67619523D01*
X209351190Y-67714761D01*
X209208333Y-67762380D01*
X208970238Y-67762380D01*
X193492380Y-51569761D02*
X192492380Y-51569761D01*
X193492380Y-51093571D02*
X192492380Y-51093571D01*
X193492380Y-50522142D01*
X192492380Y-50522142D01*
X193492380Y-49569761D02*
X193492380Y-50045952D01*
X192492380Y-50045952D01*
X192825714Y-48807857D02*
X193492380Y-48807857D01*
X192444761Y-49045952D02*
X193159047Y-49284047D01*
X193159047Y-48665000D01*
X190317380Y-58808571D02*
X189317380Y-58808571D01*
X190317380Y-58332380D02*
X189317380Y-58332380D01*
X190317380Y-57760952D01*
X189317380Y-57760952D01*
X190317380Y-56808571D02*
X190317380Y-57284761D01*
X189317380Y-57284761D01*
X189650714Y-56046666D02*
X190317380Y-56046666D01*
X189269761Y-56284761D02*
X189984047Y-56522857D01*
X189984047Y-55903809D01*
X189365000Y-54999047D02*
X189317380Y-55094285D01*
X189317380Y-55237142D01*
X189365000Y-55380000D01*
X189460238Y-55475238D01*
X189555476Y-55522857D01*
X189745952Y-55570476D01*
X189888809Y-55570476D01*
X190079285Y-55522857D01*
X190174523Y-55475238D01*
X190269761Y-55380000D01*
X190317380Y-55237142D01*
X190317380Y-55141904D01*
X190269761Y-54999047D01*
X190222142Y-54951428D01*
X189888809Y-54951428D01*
X189888809Y-55141904D01*
X190317380Y-54522857D02*
X189317380Y-54522857D01*
X190317380Y-53951428D01*
X189317380Y-53951428D01*
X190317380Y-53475238D02*
X189317380Y-53475238D01*
X189317380Y-53237142D01*
X189365000Y-53094285D01*
X189460238Y-52999047D01*
X189555476Y-52951428D01*
X189745952Y-52903809D01*
X189888809Y-52903809D01*
X190079285Y-52951428D01*
X190174523Y-52999047D01*
X190269761Y-53094285D01*
X190317380Y-53237142D01*
X190317380Y-53475238D01*
X200477380Y-51665000D02*
X199477380Y-51665000D01*
X200477380Y-51188809D02*
X199477380Y-51188809D01*
X200477380Y-50617380D01*
X199477380Y-50617380D01*
X200477380Y-49569761D02*
X200001190Y-49903095D01*
X200477380Y-50141190D02*
X199477380Y-50141190D01*
X199477380Y-49760238D01*
X199525000Y-49665000D01*
X199572619Y-49617380D01*
X199667857Y-49569761D01*
X199810714Y-49569761D01*
X199905952Y-49617380D01*
X199953571Y-49665000D01*
X200001190Y-49760238D01*
X200001190Y-50141190D01*
X199810714Y-48712619D02*
X200477380Y-48712619D01*
X199429761Y-48950714D02*
X200144047Y-49188809D01*
X200144047Y-48569761D01*
X203652380Y-65253809D02*
X202652380Y-65253809D01*
X203652380Y-64777619D02*
X202652380Y-64777619D01*
X203652380Y-64206190D01*
X202652380Y-64206190D01*
X203652380Y-63158571D02*
X203176190Y-63491904D01*
X203652380Y-63730000D02*
X202652380Y-63730000D01*
X202652380Y-63349047D01*
X202700000Y-63253809D01*
X202747619Y-63206190D01*
X202842857Y-63158571D01*
X202985714Y-63158571D01*
X203080952Y-63206190D01*
X203128571Y-63253809D01*
X203176190Y-63349047D01*
X203176190Y-63730000D01*
X202985714Y-62301428D02*
X203652380Y-62301428D01*
X202604761Y-62539523D02*
X203319047Y-62777619D01*
X203319047Y-62158571D01*
X202700000Y-61253809D02*
X202652380Y-61349047D01*
X202652380Y-61491904D01*
X202700000Y-61634761D01*
X202795238Y-61730000D01*
X202890476Y-61777619D01*
X203080952Y-61825238D01*
X203223809Y-61825238D01*
X203414285Y-61777619D01*
X203509523Y-61730000D01*
X203604761Y-61634761D01*
X203652380Y-61491904D01*
X203652380Y-61396666D01*
X203604761Y-61253809D01*
X203557142Y-61206190D01*
X203223809Y-61206190D01*
X203223809Y-61396666D01*
X203652380Y-60777619D02*
X202652380Y-60777619D01*
X203652380Y-60206190D01*
X202652380Y-60206190D01*
X203652380Y-59730000D02*
X202652380Y-59730000D01*
X202652380Y-59491904D01*
X202700000Y-59349047D01*
X202795238Y-59253809D01*
X202890476Y-59206190D01*
X203080952Y-59158571D01*
X203223809Y-59158571D01*
X203414285Y-59206190D01*
X203509523Y-59253809D01*
X203604761Y-59349047D01*
X203652380Y-59491904D01*
X203652380Y-59730000D01*
X179522380Y-51665000D02*
X178522380Y-51665000D01*
X179522380Y-51188809D02*
X178522380Y-51188809D01*
X179522380Y-50617380D01*
X178522380Y-50617380D01*
X179522380Y-49569761D02*
X179046190Y-49903095D01*
X179522380Y-50141190D02*
X178522380Y-50141190D01*
X178522380Y-49760238D01*
X178570000Y-49665000D01*
X178617619Y-49617380D01*
X178712857Y-49569761D01*
X178855714Y-49569761D01*
X178950952Y-49617380D01*
X178998571Y-49665000D01*
X179046190Y-49760238D01*
X179046190Y-50141190D01*
X178522380Y-49236428D02*
X178522380Y-48617380D01*
X178903333Y-48950714D01*
X178903333Y-48807857D01*
X178950952Y-48712619D01*
X178998571Y-48665000D01*
X179093809Y-48617380D01*
X179331904Y-48617380D01*
X179427142Y-48665000D01*
X179474761Y-48712619D01*
X179522380Y-48807857D01*
X179522380Y-49093571D01*
X179474761Y-49188809D01*
X179427142Y-49236428D01*
X172537380Y-51569761D02*
X171537380Y-51569761D01*
X172537380Y-51093571D02*
X171537380Y-51093571D01*
X172537380Y-50522142D01*
X171537380Y-50522142D01*
X172537380Y-49569761D02*
X172537380Y-50045952D01*
X171537380Y-50045952D01*
X171537380Y-49331666D02*
X171537380Y-48712619D01*
X171918333Y-49045952D01*
X171918333Y-48903095D01*
X171965952Y-48807857D01*
X172013571Y-48760238D01*
X172108809Y-48712619D01*
X172346904Y-48712619D01*
X172442142Y-48760238D01*
X172489761Y-48807857D01*
X172537380Y-48903095D01*
X172537380Y-49188809D01*
X172489761Y-49284047D01*
X172442142Y-49331666D01*
X169362380Y-58808571D02*
X168362380Y-58808571D01*
X169362380Y-58332380D02*
X168362380Y-58332380D01*
X169362380Y-57760952D01*
X168362380Y-57760952D01*
X169362380Y-56808571D02*
X169362380Y-57284761D01*
X168362380Y-57284761D01*
X168362380Y-56570476D02*
X168362380Y-55951428D01*
X168743333Y-56284761D01*
X168743333Y-56141904D01*
X168790952Y-56046666D01*
X168838571Y-55999047D01*
X168933809Y-55951428D01*
X169171904Y-55951428D01*
X169267142Y-55999047D01*
X169314761Y-56046666D01*
X169362380Y-56141904D01*
X169362380Y-56427619D01*
X169314761Y-56522857D01*
X169267142Y-56570476D01*
X168410000Y-54999047D02*
X168362380Y-55094285D01*
X168362380Y-55237142D01*
X168410000Y-55380000D01*
X168505238Y-55475238D01*
X168600476Y-55522857D01*
X168790952Y-55570476D01*
X168933809Y-55570476D01*
X169124285Y-55522857D01*
X169219523Y-55475238D01*
X169314761Y-55380000D01*
X169362380Y-55237142D01*
X169362380Y-55141904D01*
X169314761Y-54999047D01*
X169267142Y-54951428D01*
X168933809Y-54951428D01*
X168933809Y-55141904D01*
X169362380Y-54522857D02*
X168362380Y-54522857D01*
X169362380Y-53951428D01*
X168362380Y-53951428D01*
X169362380Y-53475238D02*
X168362380Y-53475238D01*
X168362380Y-53237142D01*
X168410000Y-53094285D01*
X168505238Y-52999047D01*
X168600476Y-52951428D01*
X168790952Y-52903809D01*
X168933809Y-52903809D01*
X169124285Y-52951428D01*
X169219523Y-52999047D01*
X169314761Y-53094285D01*
X169362380Y-53237142D01*
X169362380Y-53475238D01*
X182697380Y-65253809D02*
X181697380Y-65253809D01*
X182697380Y-64777619D02*
X181697380Y-64777619D01*
X182697380Y-64206190D01*
X181697380Y-64206190D01*
X182697380Y-63158571D02*
X182221190Y-63491904D01*
X182697380Y-63730000D02*
X181697380Y-63730000D01*
X181697380Y-63349047D01*
X181745000Y-63253809D01*
X181792619Y-63206190D01*
X181887857Y-63158571D01*
X182030714Y-63158571D01*
X182125952Y-63206190D01*
X182173571Y-63253809D01*
X182221190Y-63349047D01*
X182221190Y-63730000D01*
X181697380Y-62825238D02*
X181697380Y-62206190D01*
X182078333Y-62539523D01*
X182078333Y-62396666D01*
X182125952Y-62301428D01*
X182173571Y-62253809D01*
X182268809Y-62206190D01*
X182506904Y-62206190D01*
X182602142Y-62253809D01*
X182649761Y-62301428D01*
X182697380Y-62396666D01*
X182697380Y-62682380D01*
X182649761Y-62777619D01*
X182602142Y-62825238D01*
X181745000Y-61253809D02*
X181697380Y-61349047D01*
X181697380Y-61491904D01*
X181745000Y-61634761D01*
X181840238Y-61730000D01*
X181935476Y-61777619D01*
X182125952Y-61825238D01*
X182268809Y-61825238D01*
X182459285Y-61777619D01*
X182554523Y-61730000D01*
X182649761Y-61634761D01*
X182697380Y-61491904D01*
X182697380Y-61396666D01*
X182649761Y-61253809D01*
X182602142Y-61206190D01*
X182268809Y-61206190D01*
X182268809Y-61396666D01*
X182697380Y-60777619D02*
X181697380Y-60777619D01*
X182697380Y-60206190D01*
X181697380Y-60206190D01*
X182697380Y-59730000D02*
X181697380Y-59730000D01*
X181697380Y-59491904D01*
X181745000Y-59349047D01*
X181840238Y-59253809D01*
X181935476Y-59206190D01*
X182125952Y-59158571D01*
X182268809Y-59158571D01*
X182459285Y-59206190D01*
X182554523Y-59253809D01*
X182649761Y-59349047D01*
X182697380Y-59491904D01*
X182697380Y-59730000D01*
X148407380Y-58808571D02*
X147407380Y-58808571D01*
X148407380Y-58332380D02*
X147407380Y-58332380D01*
X148407380Y-57760952D01*
X147407380Y-57760952D01*
X148407380Y-56808571D02*
X148407380Y-57284761D01*
X147407380Y-57284761D01*
X147502619Y-56522857D02*
X147455000Y-56475238D01*
X147407380Y-56380000D01*
X147407380Y-56141904D01*
X147455000Y-56046666D01*
X147502619Y-55999047D01*
X147597857Y-55951428D01*
X147693095Y-55951428D01*
X147835952Y-55999047D01*
X148407380Y-56570476D01*
X148407380Y-55951428D01*
X147455000Y-54999047D02*
X147407380Y-55094285D01*
X147407380Y-55237142D01*
X147455000Y-55380000D01*
X147550238Y-55475238D01*
X147645476Y-55522857D01*
X147835952Y-55570476D01*
X147978809Y-55570476D01*
X148169285Y-55522857D01*
X148264523Y-55475238D01*
X148359761Y-55380000D01*
X148407380Y-55237142D01*
X148407380Y-55141904D01*
X148359761Y-54999047D01*
X148312142Y-54951428D01*
X147978809Y-54951428D01*
X147978809Y-55141904D01*
X148407380Y-54522857D02*
X147407380Y-54522857D01*
X148407380Y-53951428D01*
X147407380Y-53951428D01*
X148407380Y-53475238D02*
X147407380Y-53475238D01*
X147407380Y-53237142D01*
X147455000Y-53094285D01*
X147550238Y-52999047D01*
X147645476Y-52951428D01*
X147835952Y-52903809D01*
X147978809Y-52903809D01*
X148169285Y-52951428D01*
X148264523Y-52999047D01*
X148359761Y-53094285D01*
X148407380Y-53237142D01*
X148407380Y-53475238D01*
X151582380Y-51569761D02*
X150582380Y-51569761D01*
X151582380Y-51093571D02*
X150582380Y-51093571D01*
X151582380Y-50522142D01*
X150582380Y-50522142D01*
X151582380Y-49569761D02*
X151582380Y-50045952D01*
X150582380Y-50045952D01*
X150677619Y-49284047D02*
X150630000Y-49236428D01*
X150582380Y-49141190D01*
X150582380Y-48903095D01*
X150630000Y-48807857D01*
X150677619Y-48760238D01*
X150772857Y-48712619D01*
X150868095Y-48712619D01*
X151010952Y-48760238D01*
X151582380Y-49331666D01*
X151582380Y-48712619D01*
X158567380Y-51665000D02*
X157567380Y-51665000D01*
X158567380Y-51188809D02*
X157567380Y-51188809D01*
X158567380Y-50617380D01*
X157567380Y-50617380D01*
X158567380Y-49569761D02*
X158091190Y-49903095D01*
X158567380Y-50141190D02*
X157567380Y-50141190D01*
X157567380Y-49760238D01*
X157615000Y-49665000D01*
X157662619Y-49617380D01*
X157757857Y-49569761D01*
X157900714Y-49569761D01*
X157995952Y-49617380D01*
X158043571Y-49665000D01*
X158091190Y-49760238D01*
X158091190Y-50141190D01*
X157662619Y-49188809D02*
X157615000Y-49141190D01*
X157567380Y-49045952D01*
X157567380Y-48807857D01*
X157615000Y-48712619D01*
X157662619Y-48665000D01*
X157757857Y-48617380D01*
X157853095Y-48617380D01*
X157995952Y-48665000D01*
X158567380Y-49236428D01*
X158567380Y-48617380D01*
X161742380Y-65253809D02*
X160742380Y-65253809D01*
X161742380Y-64777619D02*
X160742380Y-64777619D01*
X161742380Y-64206190D01*
X160742380Y-64206190D01*
X161742380Y-63158571D02*
X161266190Y-63491904D01*
X161742380Y-63730000D02*
X160742380Y-63730000D01*
X160742380Y-63349047D01*
X160790000Y-63253809D01*
X160837619Y-63206190D01*
X160932857Y-63158571D01*
X161075714Y-63158571D01*
X161170952Y-63206190D01*
X161218571Y-63253809D01*
X161266190Y-63349047D01*
X161266190Y-63730000D01*
X160837619Y-62777619D02*
X160790000Y-62730000D01*
X160742380Y-62634761D01*
X160742380Y-62396666D01*
X160790000Y-62301428D01*
X160837619Y-62253809D01*
X160932857Y-62206190D01*
X161028095Y-62206190D01*
X161170952Y-62253809D01*
X161742380Y-62825238D01*
X161742380Y-62206190D01*
X160790000Y-61253809D02*
X160742380Y-61349047D01*
X160742380Y-61491904D01*
X160790000Y-61634761D01*
X160885238Y-61730000D01*
X160980476Y-61777619D01*
X161170952Y-61825238D01*
X161313809Y-61825238D01*
X161504285Y-61777619D01*
X161599523Y-61730000D01*
X161694761Y-61634761D01*
X161742380Y-61491904D01*
X161742380Y-61396666D01*
X161694761Y-61253809D01*
X161647142Y-61206190D01*
X161313809Y-61206190D01*
X161313809Y-61396666D01*
X161742380Y-60777619D02*
X160742380Y-60777619D01*
X161742380Y-60206190D01*
X160742380Y-60206190D01*
X161742380Y-59730000D02*
X160742380Y-59730000D01*
X160742380Y-59491904D01*
X160790000Y-59349047D01*
X160885238Y-59253809D01*
X160980476Y-59206190D01*
X161170952Y-59158571D01*
X161313809Y-59158571D01*
X161504285Y-59206190D01*
X161599523Y-59253809D01*
X161694761Y-59349047D01*
X161742380Y-59491904D01*
X161742380Y-59730000D01*
X137612380Y-51665000D02*
X136612380Y-51665000D01*
X137612380Y-51188809D02*
X136612380Y-51188809D01*
X137612380Y-50617380D01*
X136612380Y-50617380D01*
X137612380Y-49569761D02*
X137136190Y-49903095D01*
X137612380Y-50141190D02*
X136612380Y-50141190D01*
X136612380Y-49760238D01*
X136660000Y-49665000D01*
X136707619Y-49617380D01*
X136802857Y-49569761D01*
X136945714Y-49569761D01*
X137040952Y-49617380D01*
X137088571Y-49665000D01*
X137136190Y-49760238D01*
X137136190Y-50141190D01*
X137612380Y-48617380D02*
X137612380Y-49188809D01*
X137612380Y-48903095D02*
X136612380Y-48903095D01*
X136755238Y-48998333D01*
X136850476Y-49093571D01*
X136898095Y-49188809D01*
X130627380Y-51569761D02*
X129627380Y-51569761D01*
X130627380Y-51093571D02*
X129627380Y-51093571D01*
X130627380Y-50522142D01*
X129627380Y-50522142D01*
X130627380Y-49569761D02*
X130627380Y-50045952D01*
X129627380Y-50045952D01*
X130627380Y-48712619D02*
X130627380Y-49284047D01*
X130627380Y-48998333D02*
X129627380Y-48998333D01*
X129770238Y-49093571D01*
X129865476Y-49188809D01*
X129913095Y-49284047D01*
X140787380Y-65253809D02*
X139787380Y-65253809D01*
X140787380Y-64777619D02*
X139787380Y-64777619D01*
X140787380Y-64206190D01*
X139787380Y-64206190D01*
X140787380Y-63158571D02*
X140311190Y-63491904D01*
X140787380Y-63730000D02*
X139787380Y-63730000D01*
X139787380Y-63349047D01*
X139835000Y-63253809D01*
X139882619Y-63206190D01*
X139977857Y-63158571D01*
X140120714Y-63158571D01*
X140215952Y-63206190D01*
X140263571Y-63253809D01*
X140311190Y-63349047D01*
X140311190Y-63730000D01*
X140787380Y-62206190D02*
X140787380Y-62777619D01*
X140787380Y-62491904D02*
X139787380Y-62491904D01*
X139930238Y-62587142D01*
X140025476Y-62682380D01*
X140073095Y-62777619D01*
X139835000Y-61253809D02*
X139787380Y-61349047D01*
X139787380Y-61491904D01*
X139835000Y-61634761D01*
X139930238Y-61730000D01*
X140025476Y-61777619D01*
X140215952Y-61825238D01*
X140358809Y-61825238D01*
X140549285Y-61777619D01*
X140644523Y-61730000D01*
X140739761Y-61634761D01*
X140787380Y-61491904D01*
X140787380Y-61396666D01*
X140739761Y-61253809D01*
X140692142Y-61206190D01*
X140358809Y-61206190D01*
X140358809Y-61396666D01*
X140787380Y-60777619D02*
X139787380Y-60777619D01*
X140787380Y-60206190D01*
X139787380Y-60206190D01*
X140787380Y-59730000D02*
X139787380Y-59730000D01*
X139787380Y-59491904D01*
X139835000Y-59349047D01*
X139930238Y-59253809D01*
X140025476Y-59206190D01*
X140215952Y-59158571D01*
X140358809Y-59158571D01*
X140549285Y-59206190D01*
X140644523Y-59253809D01*
X140739761Y-59349047D01*
X140787380Y-59491904D01*
X140787380Y-59730000D01*
X127452380Y-58808571D02*
X126452380Y-58808571D01*
X127452380Y-58332380D02*
X126452380Y-58332380D01*
X127452380Y-57760952D01*
X126452380Y-57760952D01*
X127452380Y-56808571D02*
X127452380Y-57284761D01*
X126452380Y-57284761D01*
X127452380Y-55951428D02*
X127452380Y-56522857D01*
X127452380Y-56237142D02*
X126452380Y-56237142D01*
X126595238Y-56332380D01*
X126690476Y-56427619D01*
X126738095Y-56522857D01*
X126500000Y-54999047D02*
X126452380Y-55094285D01*
X126452380Y-55237142D01*
X126500000Y-55380000D01*
X126595238Y-55475238D01*
X126690476Y-55522857D01*
X126880952Y-55570476D01*
X127023809Y-55570476D01*
X127214285Y-55522857D01*
X127309523Y-55475238D01*
X127404761Y-55380000D01*
X127452380Y-55237142D01*
X127452380Y-55141904D01*
X127404761Y-54999047D01*
X127357142Y-54951428D01*
X127023809Y-54951428D01*
X127023809Y-55141904D01*
X127452380Y-54522857D02*
X126452380Y-54522857D01*
X127452380Y-53951428D01*
X126452380Y-53951428D01*
X127452380Y-53475238D02*
X126452380Y-53475238D01*
X126452380Y-53237142D01*
X126500000Y-53094285D01*
X126595238Y-52999047D01*
X126690476Y-52951428D01*
X126880952Y-52903809D01*
X127023809Y-52903809D01*
X127214285Y-52951428D01*
X127309523Y-52999047D01*
X127404761Y-53094285D01*
X127452380Y-53237142D01*
X127452380Y-53475238D01*
X157988095Y-106180000D02*
X157892857Y-106132380D01*
X157750000Y-106132380D01*
X157607142Y-106180000D01*
X157511904Y-106275238D01*
X157464285Y-106370476D01*
X157416666Y-106560952D01*
X157416666Y-106703809D01*
X157464285Y-106894285D01*
X157511904Y-106989523D01*
X157607142Y-107084761D01*
X157750000Y-107132380D01*
X157845238Y-107132380D01*
X157988095Y-107084761D01*
X158035714Y-107037142D01*
X158035714Y-106703809D01*
X157845238Y-106703809D01*
X158464285Y-107132380D02*
X158464285Y-106132380D01*
X159035714Y-107132380D01*
X159035714Y-106132380D01*
X159511904Y-107132380D02*
X159511904Y-106132380D01*
X159750000Y-106132380D01*
X159892857Y-106180000D01*
X159988095Y-106275238D01*
X160035714Y-106370476D01*
X160083333Y-106560952D01*
X160083333Y-106703809D01*
X160035714Y-106894285D01*
X159988095Y-106989523D01*
X159892857Y-107084761D01*
X159750000Y-107132380D01*
X159511904Y-107132380D01*
X145923095Y-106180000D02*
X145827857Y-106132380D01*
X145685000Y-106132380D01*
X145542142Y-106180000D01*
X145446904Y-106275238D01*
X145399285Y-106370476D01*
X145351666Y-106560952D01*
X145351666Y-106703809D01*
X145399285Y-106894285D01*
X145446904Y-106989523D01*
X145542142Y-107084761D01*
X145685000Y-107132380D01*
X145780238Y-107132380D01*
X145923095Y-107084761D01*
X145970714Y-107037142D01*
X145970714Y-106703809D01*
X145780238Y-106703809D01*
X146399285Y-107132380D02*
X146399285Y-106132380D01*
X146970714Y-107132380D01*
X146970714Y-106132380D01*
X147446904Y-107132380D02*
X147446904Y-106132380D01*
X147685000Y-106132380D01*
X147827857Y-106180000D01*
X147923095Y-106275238D01*
X147970714Y-106370476D01*
X148018333Y-106560952D01*
X148018333Y-106703809D01*
X147970714Y-106894285D01*
X147923095Y-106989523D01*
X147827857Y-107084761D01*
X147685000Y-107132380D01*
X147446904Y-107132380D01*
X163822142Y-107132380D02*
X163345952Y-107132380D01*
X163345952Y-106132380D01*
X164155476Y-106608571D02*
X164488809Y-106608571D01*
X164631666Y-107132380D02*
X164155476Y-107132380D01*
X164155476Y-106132380D01*
X164631666Y-106132380D01*
X165060238Y-107132380D02*
X165060238Y-106132380D01*
X165298333Y-106132380D01*
X165441190Y-106180000D01*
X165536428Y-106275238D01*
X165584047Y-106370476D01*
X165631666Y-106560952D01*
X165631666Y-106703809D01*
X165584047Y-106894285D01*
X165536428Y-106989523D01*
X165441190Y-107084761D01*
X165298333Y-107132380D01*
X165060238Y-107132380D01*
X149050714Y-106751428D02*
X149812619Y-106751428D01*
X149431666Y-107132380D02*
X149431666Y-106370476D01*
X150765000Y-106132380D02*
X150288809Y-106132380D01*
X150241190Y-106608571D01*
X150288809Y-106560952D01*
X150384047Y-106513333D01*
X150622142Y-106513333D01*
X150717380Y-106560952D01*
X150765000Y-106608571D01*
X150812619Y-106703809D01*
X150812619Y-106941904D01*
X150765000Y-107037142D01*
X150717380Y-107084761D01*
X150622142Y-107132380D01*
X150384047Y-107132380D01*
X150288809Y-107084761D01*
X150241190Y-107037142D01*
X151098333Y-106132380D02*
X151431666Y-107132380D01*
X151765000Y-106132380D01*
X152288809Y-106132380D02*
X152479285Y-106132380D01*
X152574523Y-106180000D01*
X152669761Y-106275238D01*
X152717380Y-106465714D01*
X152717380Y-106799047D01*
X152669761Y-106989523D01*
X152574523Y-107084761D01*
X152479285Y-107132380D01*
X152288809Y-107132380D01*
X152193571Y-107084761D01*
X152098333Y-106989523D01*
X152050714Y-106799047D01*
X152050714Y-106465714D01*
X152098333Y-106275238D01*
X152193571Y-106180000D01*
X152288809Y-106132380D01*
X153145952Y-106132380D02*
X153145952Y-106941904D01*
X153193571Y-107037142D01*
X153241190Y-107084761D01*
X153336428Y-107132380D01*
X153526904Y-107132380D01*
X153622142Y-107084761D01*
X153669761Y-107037142D01*
X153717380Y-106941904D01*
X153717380Y-106132380D01*
X154050714Y-106132380D02*
X154622142Y-106132380D01*
X154336428Y-107132380D02*
X154336428Y-106132380D01*
X122635714Y-106497380D02*
X122635714Y-105830714D01*
X122635714Y-105925952D02*
X122683333Y-105878333D01*
X122778571Y-105830714D01*
X122921428Y-105830714D01*
X123016666Y-105878333D01*
X123064285Y-105973571D01*
X123064285Y-106497380D01*
X123064285Y-105973571D02*
X123111904Y-105878333D01*
X123207142Y-105830714D01*
X123350000Y-105830714D01*
X123445238Y-105878333D01*
X123492857Y-105973571D01*
X123492857Y-106497380D01*
X123969047Y-106497380D02*
X123969047Y-105830714D01*
X123969047Y-105497380D02*
X123921428Y-105545000D01*
X123969047Y-105592619D01*
X124016666Y-105545000D01*
X123969047Y-105497380D01*
X123969047Y-105592619D01*
X124873809Y-106449761D02*
X124778571Y-106497380D01*
X124588095Y-106497380D01*
X124492857Y-106449761D01*
X124445238Y-106402142D01*
X124397619Y-106306904D01*
X124397619Y-106021190D01*
X124445238Y-105925952D01*
X124492857Y-105878333D01*
X124588095Y-105830714D01*
X124778571Y-105830714D01*
X124873809Y-105878333D01*
X125302380Y-106497380D02*
X125302380Y-105497380D01*
X125730952Y-106497380D02*
X125730952Y-105973571D01*
X125683333Y-105878333D01*
X125588095Y-105830714D01*
X125445238Y-105830714D01*
X125350000Y-105878333D01*
X125302380Y-105925952D01*
X126635714Y-106497380D02*
X126635714Y-105973571D01*
X126588095Y-105878333D01*
X126492857Y-105830714D01*
X126302380Y-105830714D01*
X126207142Y-105878333D01*
X126635714Y-106449761D02*
X126540476Y-106497380D01*
X126302380Y-106497380D01*
X126207142Y-106449761D01*
X126159523Y-106354523D01*
X126159523Y-106259285D01*
X126207142Y-106164047D01*
X126302380Y-106116428D01*
X126540476Y-106116428D01*
X126635714Y-106068809D01*
X127492857Y-106449761D02*
X127397619Y-106497380D01*
X127207142Y-106497380D01*
X127111904Y-106449761D01*
X127064285Y-106354523D01*
X127064285Y-105973571D01*
X127111904Y-105878333D01*
X127207142Y-105830714D01*
X127397619Y-105830714D01*
X127492857Y-105878333D01*
X127540476Y-105973571D01*
X127540476Y-106068809D01*
X127064285Y-106164047D01*
X128111904Y-106497380D02*
X128016666Y-106449761D01*
X127969047Y-106354523D01*
X127969047Y-105497380D01*
X128445238Y-106449761D02*
X128540476Y-106497380D01*
X128730952Y-106497380D01*
X128826190Y-106449761D01*
X128873809Y-106354523D01*
X128873809Y-106306904D01*
X128826190Y-106211666D01*
X128730952Y-106164047D01*
X128588095Y-106164047D01*
X128492857Y-106116428D01*
X128445238Y-106021190D01*
X128445238Y-105973571D01*
X128492857Y-105878333D01*
X128588095Y-105830714D01*
X128730952Y-105830714D01*
X128826190Y-105878333D01*
X129730952Y-106449761D02*
X129635714Y-106497380D01*
X129445238Y-106497380D01*
X129350000Y-106449761D01*
X129302380Y-106402142D01*
X129254761Y-106306904D01*
X129254761Y-106021190D01*
X129302380Y-105925952D01*
X129350000Y-105878333D01*
X129445238Y-105830714D01*
X129635714Y-105830714D01*
X129730952Y-105878333D01*
X130159523Y-106497380D02*
X130159523Y-105497380D01*
X130588095Y-106497380D02*
X130588095Y-105973571D01*
X130540476Y-105878333D01*
X130445238Y-105830714D01*
X130302380Y-105830714D01*
X130207142Y-105878333D01*
X130159523Y-105925952D01*
X131445238Y-106449761D02*
X131350000Y-106497380D01*
X131159523Y-106497380D01*
X131064285Y-106449761D01*
X131016666Y-106354523D01*
X131016666Y-105973571D01*
X131064285Y-105878333D01*
X131159523Y-105830714D01*
X131350000Y-105830714D01*
X131445238Y-105878333D01*
X131492857Y-105973571D01*
X131492857Y-106068809D01*
X131016666Y-106164047D01*
X131921428Y-105830714D02*
X131921428Y-106497380D01*
X131921428Y-105925952D02*
X131969047Y-105878333D01*
X132064285Y-105830714D01*
X132207142Y-105830714D01*
X132302380Y-105878333D01*
X132350000Y-105973571D01*
X132350000Y-106497380D01*
X132826190Y-106497380D02*
X132826190Y-105497380D01*
X132921428Y-106116428D02*
X133207142Y-106497380D01*
X133207142Y-105830714D02*
X132826190Y-106211666D01*
X133540476Y-105497380D02*
X134207142Y-105497380D01*
X133778571Y-106497380D01*
X134540476Y-105592619D02*
X134588095Y-105545000D01*
X134683333Y-105497380D01*
X134921428Y-105497380D01*
X135016666Y-105545000D01*
X135064285Y-105592619D01*
X135111904Y-105687857D01*
X135111904Y-105783095D01*
X135064285Y-105925952D01*
X134492857Y-106497380D01*
X135111904Y-106497380D01*
X136159523Y-106021190D02*
X136111904Y-105973571D01*
X136016666Y-105925952D01*
X135921428Y-105925952D01*
X135826190Y-105973571D01*
X135778571Y-106021190D01*
X135730952Y-106116428D01*
X135730952Y-106211666D01*
X135778571Y-106306904D01*
X135826190Y-106354523D01*
X135921428Y-106402142D01*
X136016666Y-106402142D01*
X136111904Y-106354523D01*
X136159523Y-106306904D01*
X136159523Y-105925952D02*
X136159523Y-106306904D01*
X136207142Y-106354523D01*
X136254761Y-106354523D01*
X136350000Y-106306904D01*
X136397619Y-106211666D01*
X136397619Y-105973571D01*
X136302380Y-105830714D01*
X136159523Y-105735476D01*
X135969047Y-105687857D01*
X135778571Y-105735476D01*
X135635714Y-105830714D01*
X135540476Y-105973571D01*
X135492857Y-106164047D01*
X135540476Y-106354523D01*
X135635714Y-106497380D01*
X135778571Y-106592619D01*
X135969047Y-106640238D01*
X136159523Y-106592619D01*
X136302380Y-106497380D01*
X137254761Y-105830714D02*
X137254761Y-106640238D01*
X137207142Y-106735476D01*
X137159523Y-106783095D01*
X137064285Y-106830714D01*
X136921428Y-106830714D01*
X136826190Y-106783095D01*
X137254761Y-106449761D02*
X137159523Y-106497380D01*
X136969047Y-106497380D01*
X136873809Y-106449761D01*
X136826190Y-106402142D01*
X136778571Y-106306904D01*
X136778571Y-106021190D01*
X136826190Y-105925952D01*
X136873809Y-105878333D01*
X136969047Y-105830714D01*
X137159523Y-105830714D01*
X137254761Y-105878333D01*
X137730952Y-106497380D02*
X137730952Y-105830714D01*
X137730952Y-105925952D02*
X137778571Y-105878333D01*
X137873809Y-105830714D01*
X138016666Y-105830714D01*
X138111904Y-105878333D01*
X138159523Y-105973571D01*
X138159523Y-106497380D01*
X138159523Y-105973571D02*
X138207142Y-105878333D01*
X138302380Y-105830714D01*
X138445238Y-105830714D01*
X138540476Y-105878333D01*
X138588095Y-105973571D01*
X138588095Y-106497380D01*
X139492857Y-106497380D02*
X139492857Y-105973571D01*
X139445238Y-105878333D01*
X139350000Y-105830714D01*
X139159523Y-105830714D01*
X139064285Y-105878333D01*
X139492857Y-106449761D02*
X139397619Y-106497380D01*
X139159523Y-106497380D01*
X139064285Y-106449761D01*
X139016666Y-106354523D01*
X139016666Y-106259285D01*
X139064285Y-106164047D01*
X139159523Y-106116428D01*
X139397619Y-106116428D01*
X139492857Y-106068809D01*
X139969047Y-106497380D02*
X139969047Y-105830714D01*
X139969047Y-105497380D02*
X139921428Y-105545000D01*
X139969047Y-105592619D01*
X140016666Y-105545000D01*
X139969047Y-105497380D01*
X139969047Y-105592619D01*
X140588095Y-106497380D02*
X140492857Y-106449761D01*
X140445238Y-106354523D01*
X140445238Y-105497380D01*
X140969047Y-106402142D02*
X141016666Y-106449761D01*
X140969047Y-106497380D01*
X140921428Y-106449761D01*
X140969047Y-106402142D01*
X140969047Y-106497380D01*
X141873809Y-106449761D02*
X141778571Y-106497380D01*
X141588095Y-106497380D01*
X141492857Y-106449761D01*
X141445238Y-106402142D01*
X141397619Y-106306904D01*
X141397619Y-106021190D01*
X141445238Y-105925952D01*
X141492857Y-105878333D01*
X141588095Y-105830714D01*
X141778571Y-105830714D01*
X141873809Y-105878333D01*
X142445238Y-106497380D02*
X142350000Y-106449761D01*
X142302380Y-106402142D01*
X142254761Y-106306904D01*
X142254761Y-106021190D01*
X142302380Y-105925952D01*
X142350000Y-105878333D01*
X142445238Y-105830714D01*
X142588095Y-105830714D01*
X142683333Y-105878333D01*
X142730952Y-105925952D01*
X142778571Y-106021190D01*
X142778571Y-106306904D01*
X142730952Y-106402142D01*
X142683333Y-106449761D01*
X142588095Y-106497380D01*
X142445238Y-106497380D01*
X143207142Y-106497380D02*
X143207142Y-105830714D01*
X143207142Y-105925952D02*
X143254761Y-105878333D01*
X143350000Y-105830714D01*
X143492857Y-105830714D01*
X143588095Y-105878333D01*
X143635714Y-105973571D01*
X143635714Y-106497380D01*
X143635714Y-105973571D02*
X143683333Y-105878333D01*
X143778571Y-105830714D01*
X143921428Y-105830714D01*
X144016666Y-105878333D01*
X144064285Y-105973571D01*
X144064285Y-106497380D01*
X116070000Y-74168095D02*
X116117619Y-74072857D01*
X116117619Y-73930000D01*
X116070000Y-73787142D01*
X115974761Y-73691904D01*
X115879523Y-73644285D01*
X115689047Y-73596666D01*
X115546190Y-73596666D01*
X115355714Y-73644285D01*
X115260476Y-73691904D01*
X115165238Y-73787142D01*
X115117619Y-73930000D01*
X115117619Y-74025238D01*
X115165238Y-74168095D01*
X115212857Y-74215714D01*
X115546190Y-74215714D01*
X115546190Y-74025238D01*
X115117619Y-74644285D02*
X116117619Y-74644285D01*
X115117619Y-75215714D01*
X116117619Y-75215714D01*
X115117619Y-75691904D02*
X116117619Y-75691904D01*
X116117619Y-75930000D01*
X116070000Y-76072857D01*
X115974761Y-76168095D01*
X115879523Y-76215714D01*
X115689047Y-76263333D01*
X115546190Y-76263333D01*
X115355714Y-76215714D01*
X115260476Y-76168095D01*
X115165238Y-76072857D01*
X115117619Y-75930000D01*
X115117619Y-75691904D01*
X115498571Y-79232380D02*
X115498571Y-79994285D01*
X115117619Y-79613333D02*
X115879523Y-79613333D01*
X116117619Y-80946666D02*
X116117619Y-80470476D01*
X115641428Y-80422857D01*
X115689047Y-80470476D01*
X115736666Y-80565714D01*
X115736666Y-80803809D01*
X115689047Y-80899047D01*
X115641428Y-80946666D01*
X115546190Y-80994285D01*
X115308095Y-80994285D01*
X115212857Y-80946666D01*
X115165238Y-80899047D01*
X115117619Y-80803809D01*
X115117619Y-80565714D01*
X115165238Y-80470476D01*
X115212857Y-80422857D01*
X116117619Y-81280000D02*
X115117619Y-81613333D01*
X116117619Y-81946666D01*
X115117619Y-82280000D02*
X116117619Y-82280000D01*
X115117619Y-82756190D02*
X116117619Y-82756190D01*
X115117619Y-83327619D01*
X116117619Y-83327619D01*
X115403333Y-93876904D02*
X115403333Y-94353095D01*
X115117619Y-93781666D02*
X116117619Y-94115000D01*
X115117619Y-94448333D01*
X115212857Y-95353095D02*
X115165238Y-95305476D01*
X115117619Y-95162619D01*
X115117619Y-95067380D01*
X115165238Y-94924523D01*
X115260476Y-94829285D01*
X115355714Y-94781666D01*
X115546190Y-94734047D01*
X115689047Y-94734047D01*
X115879523Y-94781666D01*
X115974761Y-94829285D01*
X116070000Y-94924523D01*
X116117619Y-95067380D01*
X116117619Y-95162619D01*
X116070000Y-95305476D01*
X116022380Y-95353095D01*
X115403333Y-88161904D02*
X115403333Y-88638095D01*
X115117619Y-88066666D02*
X116117619Y-88400000D01*
X115117619Y-88733333D01*
X115212857Y-89638095D02*
X115165238Y-89590476D01*
X115117619Y-89447619D01*
X115117619Y-89352380D01*
X115165238Y-89209523D01*
X115260476Y-89114285D01*
X115355714Y-89066666D01*
X115546190Y-89019047D01*
X115689047Y-89019047D01*
X115879523Y-89066666D01*
X115974761Y-89114285D01*
X116070000Y-89209523D01*
X116117619Y-89352380D01*
X116117619Y-89447619D01*
X116070000Y-89590476D01*
X116022380Y-89638095D01*
X210685238Y-69937380D02*
X210875714Y-69937380D01*
X210970952Y-69985000D01*
X211066190Y-70080238D01*
X211113809Y-70270714D01*
X211113809Y-70604047D01*
X211066190Y-70794523D01*
X210970952Y-70889761D01*
X210875714Y-70937380D01*
X210685238Y-70937380D01*
X210590000Y-70889761D01*
X210494761Y-70794523D01*
X210447142Y-70604047D01*
X210447142Y-70270714D01*
X210494761Y-70080238D01*
X210590000Y-69985000D01*
X210685238Y-69937380D01*
X211542380Y-69937380D02*
X211542380Y-70746904D01*
X211590000Y-70842142D01*
X211637619Y-70889761D01*
X211732857Y-70937380D01*
X211923333Y-70937380D01*
X212018571Y-70889761D01*
X212066190Y-70842142D01*
X212113809Y-70746904D01*
X212113809Y-69937380D01*
X212447142Y-69937380D02*
X213018571Y-69937380D01*
X212732857Y-70937380D02*
X212732857Y-69937380D01*
X213828095Y-70937380D02*
X213351904Y-70937380D01*
X213351904Y-69937380D01*
X210590000Y-76287380D02*
X210780476Y-76287380D01*
X210875714Y-76335000D01*
X210970952Y-76430238D01*
X211018571Y-76620714D01*
X211018571Y-76954047D01*
X210970952Y-77144523D01*
X210875714Y-77239761D01*
X210780476Y-77287380D01*
X210590000Y-77287380D01*
X210494761Y-77239761D01*
X210399523Y-77144523D01*
X210351904Y-76954047D01*
X210351904Y-76620714D01*
X210399523Y-76430238D01*
X210494761Y-76335000D01*
X210590000Y-76287380D01*
X211447142Y-76287380D02*
X211447142Y-77096904D01*
X211494761Y-77192142D01*
X211542380Y-77239761D01*
X211637619Y-77287380D01*
X211828095Y-77287380D01*
X211923333Y-77239761D01*
X211970952Y-77192142D01*
X212018571Y-77096904D01*
X212018571Y-76287380D01*
X212351904Y-76287380D02*
X212923333Y-76287380D01*
X212637619Y-77287380D02*
X212637619Y-76287380D01*
X213828095Y-77287380D02*
X213494761Y-76811190D01*
X213256666Y-77287380D02*
X213256666Y-76287380D01*
X213637619Y-76287380D01*
X213732857Y-76335000D01*
X213780476Y-76382619D01*
X213828095Y-76477857D01*
X213828095Y-76620714D01*
X213780476Y-76715952D01*
X213732857Y-76763571D01*
X213637619Y-76811190D01*
X213256666Y-76811190D01*
D11*
X167025000Y-75565000D02*
X167025000Y-79015000D01*
X167025000Y-75565000D02*
X167025000Y-73615000D01*
X177145000Y-75565000D02*
X177145000Y-77515000D01*
X177145000Y-75565000D02*
X177145000Y-73615000D01*
X160595000Y-83710000D02*
X160595000Y-85360000D01*
X186115000Y-83710000D02*
X160595000Y-83710000D01*
X186115000Y-89010000D02*
X186115000Y-83710000D01*
X160595000Y-89010000D02*
X186115000Y-89010000D01*
X160595000Y-87360000D02*
X160595000Y-89010000D01*
X160595000Y-85360000D02*
G75*
G02*
X160595000Y-87360000I0J-1000000D01*
G01*
X138610000Y-76410000D02*
X138840000Y-76410000D01*
X143330000Y-76410000D02*
X143100000Y-76410000D01*
X143330000Y-76410000D02*
X143330000Y-79130000D01*
X143330000Y-79130000D02*
X142020000Y-79130000D01*
X143100000Y-75270000D02*
X143100000Y-76410000D01*
X138610000Y-79130000D02*
X138610000Y-76410000D01*
X139920000Y-79130000D02*
X138610000Y-79130000D01*
X142821000Y-81185000D02*
X142821000Y-82695000D01*
X139120000Y-81185000D02*
X139120000Y-82695000D01*
X135850000Y-82695000D02*
X146090000Y-82695000D01*
X146090000Y-81185000D02*
X146090000Y-85826000D01*
X135850000Y-81185000D02*
X135850000Y-85826000D01*
X135850000Y-85826000D02*
X146090000Y-85826000D01*
X135850000Y-81185000D02*
X146090000Y-81185000D01*
X182472064Y-98960000D02*
X182017936Y-98960000D01*
X182472064Y-100430000D02*
X182017936Y-100430000D01*
X174090000Y-103097064D02*
X174090000Y-102642936D01*
X172620000Y-103097064D02*
X172620000Y-102642936D01*
X210777064Y-82450000D02*
X210322936Y-82450000D01*
X210777064Y-83920000D02*
X210322936Y-83920000D01*
X203300000Y-80237064D02*
X203300000Y-79782936D01*
X201830000Y-80237064D02*
X201830000Y-79782936D01*
X161190000Y-97292936D02*
X161190000Y-97747064D01*
X162660000Y-97292936D02*
X162660000Y-97747064D01*
X166270000Y-97292936D02*
X166270000Y-97747064D01*
X167740000Y-97292936D02*
X167740000Y-97747064D01*
X199825000Y-69225000D02*
X193165000Y-69235000D01*
X193165000Y-69235000D02*
X193165000Y-68735000D01*
X193175000Y-67235000D02*
X193175000Y-66085000D01*
X193175000Y-64735000D02*
X193165000Y-63535000D01*
X193175000Y-62135000D02*
X193175000Y-60985000D01*
X193165000Y-59535000D02*
X193165000Y-59035000D01*
X193165000Y-59035000D02*
X199865000Y-59035000D01*
X199865000Y-59035000D02*
X199865000Y-59535000D01*
X199875000Y-60935000D02*
X199875000Y-62135000D01*
X199865000Y-63535000D02*
X199875000Y-64735000D01*
X199875000Y-66085000D02*
X199875000Y-67235000D01*
X199825000Y-69225000D02*
X199825000Y-68725000D01*
X199825000Y-68725000D02*
X200875000Y-68735000D01*
X199875000Y-67225000D02*
X200875000Y-67235000D01*
X178870000Y-69225000D02*
X172210000Y-69235000D01*
X172210000Y-69235000D02*
X172210000Y-68735000D01*
X172220000Y-67235000D02*
X172220000Y-66085000D01*
X172220000Y-64735000D02*
X172210000Y-63535000D01*
X172220000Y-62135000D02*
X172220000Y-60985000D01*
X172210000Y-59535000D02*
X172210000Y-59035000D01*
X172210000Y-59035000D02*
X178910000Y-59035000D01*
X178910000Y-59035000D02*
X178910000Y-59535000D01*
X178920000Y-60935000D02*
X178920000Y-62135000D01*
X178910000Y-63535000D02*
X178920000Y-64735000D01*
X178920000Y-66085000D02*
X178920000Y-67235000D01*
X178870000Y-69225000D02*
X178870000Y-68725000D01*
X178870000Y-68725000D02*
X179920000Y-68735000D01*
X178920000Y-67225000D02*
X179920000Y-67235000D01*
X157915000Y-69225000D02*
X151255000Y-69235000D01*
X151255000Y-69235000D02*
X151255000Y-68735000D01*
X151265000Y-67235000D02*
X151265000Y-66085000D01*
X151265000Y-64735000D02*
X151255000Y-63535000D01*
X151265000Y-62135000D02*
X151265000Y-60985000D01*
X151255000Y-59535000D02*
X151255000Y-59035000D01*
X151255000Y-59035000D02*
X157955000Y-59035000D01*
X157955000Y-59035000D02*
X157955000Y-59535000D01*
X157965000Y-60935000D02*
X157965000Y-62135000D01*
X157955000Y-63535000D02*
X157965000Y-64735000D01*
X157965000Y-66085000D02*
X157965000Y-67235000D01*
X157915000Y-69225000D02*
X157915000Y-68725000D01*
X157915000Y-68725000D02*
X158965000Y-68735000D01*
X157965000Y-67225000D02*
X158965000Y-67235000D01*
X136960000Y-69225000D02*
X130300000Y-69235000D01*
X130300000Y-69235000D02*
X130300000Y-68735000D01*
X130310000Y-67235000D02*
X130310000Y-66085000D01*
X130310000Y-64735000D02*
X130300000Y-63535000D01*
X130310000Y-62135000D02*
X130310000Y-60985000D01*
X130300000Y-59535000D02*
X130300000Y-59035000D01*
X130300000Y-59035000D02*
X137000000Y-59035000D01*
X137000000Y-59035000D02*
X137000000Y-59535000D01*
X137010000Y-60935000D02*
X137010000Y-62135000D01*
X137000000Y-63535000D02*
X137010000Y-64735000D01*
X137010000Y-66085000D02*
X137010000Y-67235000D01*
X136960000Y-69225000D02*
X136960000Y-68725000D01*
X136960000Y-68725000D02*
X138010000Y-68735000D01*
X137010000Y-67225000D02*
X138010000Y-67235000D01*
X199840000Y-83195000D02*
X193180000Y-83205000D01*
X193180000Y-83205000D02*
X193180000Y-82705000D01*
X193190000Y-81205000D02*
X193190000Y-80055000D01*
X193190000Y-78705000D02*
X193180000Y-77505000D01*
X193190000Y-76105000D02*
X193190000Y-74955000D01*
X193180000Y-73505000D02*
X193180000Y-73005000D01*
X193180000Y-73005000D02*
X199880000Y-73005000D01*
X199880000Y-73005000D02*
X199880000Y-73505000D01*
X199890000Y-74905000D02*
X199890000Y-76105000D01*
X199880000Y-77505000D02*
X199890000Y-78705000D01*
X199890000Y-80055000D02*
X199890000Y-81205000D01*
X199840000Y-83195000D02*
X199840000Y-82695000D01*
X199840000Y-82695000D02*
X200890000Y-82705000D01*
X199890000Y-81195000D02*
X200890000Y-81205000D01*
X191116000Y-50800000D02*
G75*
G03*
X191116000Y-50800000I-1251000J0D01*
G01*
X194291000Y-53975000D02*
G75*
G03*
X194291000Y-53975000I-1251000J0D01*
G01*
X204451000Y-57150000D02*
G75*
G03*
X204451000Y-57150000I-1251000J0D01*
G01*
X201276000Y-53975000D02*
G75*
G03*
X201276000Y-53975000I-1251000J0D01*
G01*
X170161000Y-50800000D02*
G75*
G03*
X170161000Y-50800000I-1251000J0D01*
G01*
X173336000Y-53975000D02*
G75*
G03*
X173336000Y-53975000I-1251000J0D01*
G01*
X183496000Y-57150000D02*
G75*
G03*
X183496000Y-57150000I-1251000J0D01*
G01*
X180321000Y-53975000D02*
G75*
G03*
X180321000Y-53975000I-1251000J0D01*
G01*
X149206000Y-50800000D02*
G75*
G03*
X149206000Y-50800000I-1251000J0D01*
G01*
X152381000Y-53975000D02*
G75*
G03*
X152381000Y-53975000I-1251000J0D01*
G01*
X162541000Y-57150000D02*
G75*
G03*
X162541000Y-57150000I-1251000J0D01*
G01*
X159366000Y-53975000D02*
G75*
G03*
X159366000Y-53975000I-1251000J0D01*
G01*
X128251000Y-50800000D02*
G75*
G03*
X128251000Y-50800000I-1251000J0D01*
G01*
X131426000Y-53975000D02*
G75*
G03*
X131426000Y-53975000I-1251000J0D01*
G01*
X141586000Y-57150000D02*
G75*
G03*
X141586000Y-57150000I-1251000J0D01*
G01*
X138411000Y-53975000D02*
G75*
G03*
X138411000Y-53975000I-1251000J0D01*
G01*
X212706000Y-67310000D02*
G75*
G03*
X212706000Y-67310000I-1251000J0D01*
G01*
X209531000Y-70485000D02*
G75*
G03*
X209531000Y-70485000I-1251000J0D01*
G01*
X206356000Y-80010000D02*
G75*
G03*
X206356000Y-80010000I-1251000J0D01*
G01*
X209531000Y-76835000D02*
G75*
G03*
X209531000Y-76835000I-1251000J0D01*
G01*
X158175000Y-94040000D02*
X156845000Y-94040000D01*
X158175000Y-92710000D02*
X158175000Y-94040000D01*
X158175000Y-91440000D02*
X155515000Y-91440000D01*
X155515000Y-91440000D02*
X155515000Y-78680000D01*
X158175000Y-91440000D02*
X158175000Y-78680000D01*
X158175000Y-78680000D02*
X155515000Y-78680000D01*
D12*
X175450000Y-106740000D02*
X175450000Y-101540000D01*
X192850000Y-106740000D02*
X175450000Y-106740000D01*
X192850000Y-101540000D02*
X192850000Y-106740000D01*
X175450000Y-101540000D02*
X192850000Y-101540000D01*
D13*
X174405000Y-105410000D02*
G75*
G03*
X174405000Y-105410000I-100000J0D01*
G01*
D11*
X119996000Y-88900000D02*
G75*
G03*
X119996000Y-88900000I-1251000J0D01*
G01*
X119996000Y-94615000D02*
G75*
G03*
X119996000Y-94615000I-1251000J0D01*
G01*
X119996000Y-74930000D02*
G75*
G03*
X119996000Y-74930000I-1251000J0D01*
G01*
X119996000Y-81280000D02*
G75*
G03*
X119996000Y-81280000I-1251000J0D01*
G01*
X147936000Y-104140000D02*
G75*
G03*
X147936000Y-104140000I-1251000J0D01*
G01*
X153651000Y-104140000D02*
G75*
G03*
X153651000Y-104140000I-1251000J0D01*
G01*
X160001000Y-104140000D02*
G75*
G03*
X160001000Y-104140000I-1251000J0D01*
G01*
X165716000Y-104140000D02*
G75*
G03*
X165716000Y-104140000I-1251000J0D01*
G01*
X123530000Y-94575000D02*
X123530000Y-93775000D01*
X127930000Y-94575000D02*
X123530000Y-94575000D01*
X127930000Y-93775000D02*
X127930000Y-94575000D01*
X127930000Y-89575000D02*
X123530000Y-89575000D01*
X127930000Y-90375000D02*
X127930000Y-89575000D01*
X123530000Y-91275000D02*
X123530000Y-92875000D01*
X127930000Y-91275000D02*
X127930000Y-92875000D01*
X123530000Y-90075000D02*
X122130000Y-90075000D01*
X123530000Y-89575000D02*
X123530000Y-90075000D01*
X162701248Y-94080000D02*
X163223752Y-94080000D01*
X162701248Y-92610000D02*
X163223752Y-92610000D01*
X180368752Y-72290000D02*
X179846248Y-72290000D01*
X180368752Y-73760000D02*
X179846248Y-73760000D01*
X152305000Y-80965000D02*
X151805000Y-80965000D01*
X152055000Y-80715000D02*
X152055000Y-81215000D01*
X149299437Y-81455000D02*
X148235000Y-82519437D01*
X151690563Y-81455000D02*
X152755000Y-82519437D01*
X151690563Y-81455000D02*
X151555000Y-81455000D01*
X149299437Y-81455000D02*
X149435000Y-81455000D01*
X148235000Y-82519437D02*
X148235000Y-85975000D01*
X152755000Y-82519437D02*
X152755000Y-85975000D01*
X152755000Y-85975000D02*
X151555000Y-85975000D01*
X148235000Y-85975000D02*
X149435000Y-85975000D01*
X145950000Y-76806248D02*
X145950000Y-77328752D01*
X147420000Y-76806248D02*
X147420000Y-77328752D01*
X135918752Y-75000000D02*
X135396248Y-75000000D01*
X135918752Y-76470000D02*
X135396248Y-76470000D01*
X141440000Y-87785000D02*
X140440000Y-87785000D01*
X140940000Y-87285000D02*
X140940000Y-88285000D01*
X135234437Y-88525000D02*
X134170000Y-89589437D01*
X141625563Y-88525000D02*
X142690000Y-89589437D01*
X141625563Y-88525000D02*
X139940000Y-88525000D01*
X135234437Y-88525000D02*
X136920000Y-88525000D01*
X134170000Y-89589437D02*
X134170000Y-97045000D01*
X142690000Y-89589437D02*
X142690000Y-97045000D01*
X142690000Y-97045000D02*
X139940000Y-97045000D01*
X134170000Y-97045000D02*
X136920000Y-97045000D01*
D10*
X165637380Y-76326904D02*
X166446904Y-76326904D01*
X166542142Y-76279285D01*
X166589761Y-76231666D01*
X166637380Y-76136428D01*
X166637380Y-75945952D01*
X166589761Y-75850714D01*
X166542142Y-75803095D01*
X166446904Y-75755476D01*
X165637380Y-75755476D01*
X165970714Y-74850714D02*
X166637380Y-74850714D01*
X165589761Y-75088809D02*
X166304047Y-75326904D01*
X166304047Y-74707857D01*
X159047380Y-87121904D02*
X159856904Y-87121904D01*
X159952142Y-87074285D01*
X159999761Y-87026666D01*
X160047380Y-86931428D01*
X160047380Y-86740952D01*
X159999761Y-86645714D01*
X159952142Y-86598095D01*
X159856904Y-86550476D01*
X159047380Y-86550476D01*
X159047380Y-86169523D02*
X159047380Y-85550476D01*
X159428333Y-85883809D01*
X159428333Y-85740952D01*
X159475952Y-85645714D01*
X159523571Y-85598095D01*
X159618809Y-85550476D01*
X159856904Y-85550476D01*
X159952142Y-85598095D01*
X159999761Y-85645714D01*
X160047380Y-85740952D01*
X160047380Y-86026666D01*
X159999761Y-86121904D01*
X159952142Y-86169523D01*
X143922380Y-78531904D02*
X144731904Y-78531904D01*
X144827142Y-78484285D01*
X144874761Y-78436666D01*
X144922380Y-78341428D01*
X144922380Y-78150952D01*
X144874761Y-78055714D01*
X144827142Y-78008095D01*
X144731904Y-77960476D01*
X143922380Y-77960476D01*
X144017619Y-77531904D02*
X143970000Y-77484285D01*
X143922380Y-77389047D01*
X143922380Y-77150952D01*
X143970000Y-77055714D01*
X144017619Y-77008095D01*
X144112857Y-76960476D01*
X144208095Y-76960476D01*
X144350952Y-77008095D01*
X144922380Y-77579523D01*
X144922380Y-76960476D01*
X140208095Y-79637380D02*
X140208095Y-80446904D01*
X140255714Y-80542142D01*
X140303333Y-80589761D01*
X140398571Y-80637380D01*
X140589047Y-80637380D01*
X140684285Y-80589761D01*
X140731904Y-80542142D01*
X140779523Y-80446904D01*
X140779523Y-79637380D01*
X141779523Y-80637380D02*
X141208095Y-80637380D01*
X141493809Y-80637380D02*
X141493809Y-79637380D01*
X141398571Y-79780238D01*
X141303333Y-79875476D01*
X141208095Y-79923095D01*
X182078333Y-101797380D02*
X181745000Y-101321190D01*
X181506904Y-101797380D02*
X181506904Y-100797380D01*
X181887857Y-100797380D01*
X181983095Y-100845000D01*
X182030714Y-100892619D01*
X182078333Y-100987857D01*
X182078333Y-101130714D01*
X182030714Y-101225952D01*
X181983095Y-101273571D01*
X181887857Y-101321190D01*
X181506904Y-101321190D01*
X182935476Y-100797380D02*
X182745000Y-100797380D01*
X182649761Y-100845000D01*
X182602142Y-100892619D01*
X182506904Y-101035476D01*
X182459285Y-101225952D01*
X182459285Y-101606904D01*
X182506904Y-101702142D01*
X182554523Y-101749761D01*
X182649761Y-101797380D01*
X182840238Y-101797380D01*
X182935476Y-101749761D01*
X182983095Y-101702142D01*
X183030714Y-101606904D01*
X183030714Y-101368809D01*
X182983095Y-101273571D01*
X182935476Y-101225952D01*
X182840238Y-101178333D01*
X182649761Y-101178333D01*
X182554523Y-101225952D01*
X182506904Y-101273571D01*
X182459285Y-101368809D01*
X172157380Y-103036666D02*
X171681190Y-103370000D01*
X172157380Y-103608095D02*
X171157380Y-103608095D01*
X171157380Y-103227142D01*
X171205000Y-103131904D01*
X171252619Y-103084285D01*
X171347857Y-103036666D01*
X171490714Y-103036666D01*
X171585952Y-103084285D01*
X171633571Y-103131904D01*
X171681190Y-103227142D01*
X171681190Y-103608095D01*
X171157380Y-102131904D02*
X171157380Y-102608095D01*
X171633571Y-102655714D01*
X171585952Y-102608095D01*
X171538333Y-102512857D01*
X171538333Y-102274761D01*
X171585952Y-102179523D01*
X171633571Y-102131904D01*
X171728809Y-102084285D01*
X171966904Y-102084285D01*
X172062142Y-102131904D01*
X172109761Y-102179523D01*
X172157380Y-102274761D01*
X172157380Y-102512857D01*
X172109761Y-102608095D01*
X172062142Y-102655714D01*
X210383333Y-85287380D02*
X210050000Y-84811190D01*
X209811904Y-85287380D02*
X209811904Y-84287380D01*
X210192857Y-84287380D01*
X210288095Y-84335000D01*
X210335714Y-84382619D01*
X210383333Y-84477857D01*
X210383333Y-84620714D01*
X210335714Y-84715952D01*
X210288095Y-84763571D01*
X210192857Y-84811190D01*
X209811904Y-84811190D01*
X211240476Y-84620714D02*
X211240476Y-85287380D01*
X211002380Y-84239761D02*
X210764285Y-84954047D01*
X211383333Y-84954047D01*
X201367380Y-80176666D02*
X200891190Y-80510000D01*
X201367380Y-80748095D02*
X200367380Y-80748095D01*
X200367380Y-80367142D01*
X200415000Y-80271904D01*
X200462619Y-80224285D01*
X200557857Y-80176666D01*
X200700714Y-80176666D01*
X200795952Y-80224285D01*
X200843571Y-80271904D01*
X200891190Y-80367142D01*
X200891190Y-80748095D01*
X200367380Y-79843333D02*
X200367380Y-79224285D01*
X200748333Y-79557619D01*
X200748333Y-79414761D01*
X200795952Y-79319523D01*
X200843571Y-79271904D01*
X200938809Y-79224285D01*
X201176904Y-79224285D01*
X201272142Y-79271904D01*
X201319761Y-79319523D01*
X201367380Y-79414761D01*
X201367380Y-79700476D01*
X201319761Y-79795714D01*
X201272142Y-79843333D01*
X164027380Y-97686666D02*
X163551190Y-98020000D01*
X164027380Y-98258095D02*
X163027380Y-98258095D01*
X163027380Y-97877142D01*
X163075000Y-97781904D01*
X163122619Y-97734285D01*
X163217857Y-97686666D01*
X163360714Y-97686666D01*
X163455952Y-97734285D01*
X163503571Y-97781904D01*
X163551190Y-97877142D01*
X163551190Y-98258095D01*
X163122619Y-97305714D02*
X163075000Y-97258095D01*
X163027380Y-97162857D01*
X163027380Y-96924761D01*
X163075000Y-96829523D01*
X163122619Y-96781904D01*
X163217857Y-96734285D01*
X163313095Y-96734285D01*
X163455952Y-96781904D01*
X164027380Y-97353333D01*
X164027380Y-96734285D01*
X169107380Y-97686666D02*
X168631190Y-98020000D01*
X169107380Y-98258095D02*
X168107380Y-98258095D01*
X168107380Y-97877142D01*
X168155000Y-97781904D01*
X168202619Y-97734285D01*
X168297857Y-97686666D01*
X168440714Y-97686666D01*
X168535952Y-97734285D01*
X168583571Y-97781904D01*
X168631190Y-97877142D01*
X168631190Y-98258095D01*
X169107380Y-96734285D02*
X169107380Y-97305714D01*
X169107380Y-97020000D02*
X168107380Y-97020000D01*
X168250238Y-97115238D01*
X168345476Y-97210476D01*
X168393095Y-97305714D01*
X195786904Y-70587380D02*
X195786904Y-69587380D01*
X196358333Y-70587380D02*
X195929761Y-70015952D01*
X196358333Y-69587380D02*
X195786904Y-70158809D01*
X197263095Y-69587380D02*
X196786904Y-69587380D01*
X196739285Y-70063571D01*
X196786904Y-70015952D01*
X196882142Y-69968333D01*
X197120238Y-69968333D01*
X197215476Y-70015952D01*
X197263095Y-70063571D01*
X197310714Y-70158809D01*
X197310714Y-70396904D01*
X197263095Y-70492142D01*
X197215476Y-70539761D01*
X197120238Y-70587380D01*
X196882142Y-70587380D01*
X196786904Y-70539761D01*
X196739285Y-70492142D01*
X174831904Y-70587380D02*
X174831904Y-69587380D01*
X175403333Y-70587380D02*
X174974761Y-70015952D01*
X175403333Y-69587380D02*
X174831904Y-70158809D01*
X176260476Y-69920714D02*
X176260476Y-70587380D01*
X176022380Y-69539761D02*
X175784285Y-70254047D01*
X176403333Y-70254047D01*
X153876904Y-70587380D02*
X153876904Y-69587380D01*
X154448333Y-70587380D02*
X154019761Y-70015952D01*
X154448333Y-69587380D02*
X153876904Y-70158809D01*
X154781666Y-69587380D02*
X155400714Y-69587380D01*
X155067380Y-69968333D01*
X155210238Y-69968333D01*
X155305476Y-70015952D01*
X155353095Y-70063571D01*
X155400714Y-70158809D01*
X155400714Y-70396904D01*
X155353095Y-70492142D01*
X155305476Y-70539761D01*
X155210238Y-70587380D01*
X154924523Y-70587380D01*
X154829285Y-70539761D01*
X154781666Y-70492142D01*
X132921904Y-70587380D02*
X132921904Y-69587380D01*
X133493333Y-70587380D02*
X133064761Y-70015952D01*
X133493333Y-69587380D02*
X132921904Y-70158809D01*
X133874285Y-69682619D02*
X133921904Y-69635000D01*
X134017142Y-69587380D01*
X134255238Y-69587380D01*
X134350476Y-69635000D01*
X134398095Y-69682619D01*
X134445714Y-69777857D01*
X134445714Y-69873095D01*
X134398095Y-70015952D01*
X133826666Y-70587380D01*
X134445714Y-70587380D01*
X195801904Y-84557380D02*
X195801904Y-83557380D01*
X196373333Y-84557380D02*
X195944761Y-83985952D01*
X196373333Y-83557380D02*
X195801904Y-84128809D01*
X197325714Y-84557380D02*
X196754285Y-84557380D01*
X197040000Y-84557380D02*
X197040000Y-83557380D01*
X196944761Y-83700238D01*
X196849523Y-83795476D01*
X196754285Y-83843095D01*
X189055476Y-52502380D02*
X189055476Y-53216666D01*
X189007857Y-53359523D01*
X188912619Y-53454761D01*
X188769761Y-53502380D01*
X188674523Y-53502380D01*
X189436428Y-52502380D02*
X190055476Y-52502380D01*
X189722142Y-52883333D01*
X189865000Y-52883333D01*
X189960238Y-52930952D01*
X190007857Y-52978571D01*
X190055476Y-53073809D01*
X190055476Y-53311904D01*
X190007857Y-53407142D01*
X189960238Y-53454761D01*
X189865000Y-53502380D01*
X189579285Y-53502380D01*
X189484047Y-53454761D01*
X189436428Y-53407142D01*
X190388809Y-52502380D02*
X191007857Y-52502380D01*
X190674523Y-52883333D01*
X190817380Y-52883333D01*
X190912619Y-52930952D01*
X190960238Y-52978571D01*
X191007857Y-53073809D01*
X191007857Y-53311904D01*
X190960238Y-53407142D01*
X190912619Y-53454761D01*
X190817380Y-53502380D01*
X190531666Y-53502380D01*
X190436428Y-53454761D01*
X190388809Y-53407142D01*
X192230476Y-55677380D02*
X192230476Y-56391666D01*
X192182857Y-56534523D01*
X192087619Y-56629761D01*
X191944761Y-56677380D01*
X191849523Y-56677380D01*
X192611428Y-55677380D02*
X193230476Y-55677380D01*
X192897142Y-56058333D01*
X193040000Y-56058333D01*
X193135238Y-56105952D01*
X193182857Y-56153571D01*
X193230476Y-56248809D01*
X193230476Y-56486904D01*
X193182857Y-56582142D01*
X193135238Y-56629761D01*
X193040000Y-56677380D01*
X192754285Y-56677380D01*
X192659047Y-56629761D01*
X192611428Y-56582142D01*
X193611428Y-55772619D02*
X193659047Y-55725000D01*
X193754285Y-55677380D01*
X193992380Y-55677380D01*
X194087619Y-55725000D01*
X194135238Y-55772619D01*
X194182857Y-55867857D01*
X194182857Y-55963095D01*
X194135238Y-56105952D01*
X193563809Y-56677380D01*
X194182857Y-56677380D01*
X202390476Y-58852380D02*
X202390476Y-59566666D01*
X202342857Y-59709523D01*
X202247619Y-59804761D01*
X202104761Y-59852380D01*
X202009523Y-59852380D01*
X202771428Y-58852380D02*
X203390476Y-58852380D01*
X203057142Y-59233333D01*
X203200000Y-59233333D01*
X203295238Y-59280952D01*
X203342857Y-59328571D01*
X203390476Y-59423809D01*
X203390476Y-59661904D01*
X203342857Y-59757142D01*
X203295238Y-59804761D01*
X203200000Y-59852380D01*
X202914285Y-59852380D01*
X202819047Y-59804761D01*
X202771428Y-59757142D01*
X204342857Y-59852380D02*
X203771428Y-59852380D01*
X204057142Y-59852380D02*
X204057142Y-58852380D01*
X203961904Y-58995238D01*
X203866666Y-59090476D01*
X203771428Y-59138095D01*
X199215476Y-55677380D02*
X199215476Y-56391666D01*
X199167857Y-56534523D01*
X199072619Y-56629761D01*
X198929761Y-56677380D01*
X198834523Y-56677380D01*
X199596428Y-55677380D02*
X200215476Y-55677380D01*
X199882142Y-56058333D01*
X200025000Y-56058333D01*
X200120238Y-56105952D01*
X200167857Y-56153571D01*
X200215476Y-56248809D01*
X200215476Y-56486904D01*
X200167857Y-56582142D01*
X200120238Y-56629761D01*
X200025000Y-56677380D01*
X199739285Y-56677380D01*
X199644047Y-56629761D01*
X199596428Y-56582142D01*
X200834523Y-55677380D02*
X200929761Y-55677380D01*
X201025000Y-55725000D01*
X201072619Y-55772619D01*
X201120238Y-55867857D01*
X201167857Y-56058333D01*
X201167857Y-56296428D01*
X201120238Y-56486904D01*
X201072619Y-56582142D01*
X201025000Y-56629761D01*
X200929761Y-56677380D01*
X200834523Y-56677380D01*
X200739285Y-56629761D01*
X200691666Y-56582142D01*
X200644047Y-56486904D01*
X200596428Y-56296428D01*
X200596428Y-56058333D01*
X200644047Y-55867857D01*
X200691666Y-55772619D01*
X200739285Y-55725000D01*
X200834523Y-55677380D01*
X168100476Y-52502380D02*
X168100476Y-53216666D01*
X168052857Y-53359523D01*
X167957619Y-53454761D01*
X167814761Y-53502380D01*
X167719523Y-53502380D01*
X168529047Y-52597619D02*
X168576666Y-52550000D01*
X168671904Y-52502380D01*
X168910000Y-52502380D01*
X169005238Y-52550000D01*
X169052857Y-52597619D01*
X169100476Y-52692857D01*
X169100476Y-52788095D01*
X169052857Y-52930952D01*
X168481428Y-53502380D01*
X169100476Y-53502380D01*
X169576666Y-53502380D02*
X169767142Y-53502380D01*
X169862380Y-53454761D01*
X169910000Y-53407142D01*
X170005238Y-53264285D01*
X170052857Y-53073809D01*
X170052857Y-52692857D01*
X170005238Y-52597619D01*
X169957619Y-52550000D01*
X169862380Y-52502380D01*
X169671904Y-52502380D01*
X169576666Y-52550000D01*
X169529047Y-52597619D01*
X169481428Y-52692857D01*
X169481428Y-52930952D01*
X169529047Y-53026190D01*
X169576666Y-53073809D01*
X169671904Y-53121428D01*
X169862380Y-53121428D01*
X169957619Y-53073809D01*
X170005238Y-53026190D01*
X170052857Y-52930952D01*
X171275476Y-55677380D02*
X171275476Y-56391666D01*
X171227857Y-56534523D01*
X171132619Y-56629761D01*
X170989761Y-56677380D01*
X170894523Y-56677380D01*
X171704047Y-55772619D02*
X171751666Y-55725000D01*
X171846904Y-55677380D01*
X172085000Y-55677380D01*
X172180238Y-55725000D01*
X172227857Y-55772619D01*
X172275476Y-55867857D01*
X172275476Y-55963095D01*
X172227857Y-56105952D01*
X171656428Y-56677380D01*
X172275476Y-56677380D01*
X172846904Y-56105952D02*
X172751666Y-56058333D01*
X172704047Y-56010714D01*
X172656428Y-55915476D01*
X172656428Y-55867857D01*
X172704047Y-55772619D01*
X172751666Y-55725000D01*
X172846904Y-55677380D01*
X173037380Y-55677380D01*
X173132619Y-55725000D01*
X173180238Y-55772619D01*
X173227857Y-55867857D01*
X173227857Y-55915476D01*
X173180238Y-56010714D01*
X173132619Y-56058333D01*
X173037380Y-56105952D01*
X172846904Y-56105952D01*
X172751666Y-56153571D01*
X172704047Y-56201190D01*
X172656428Y-56296428D01*
X172656428Y-56486904D01*
X172704047Y-56582142D01*
X172751666Y-56629761D01*
X172846904Y-56677380D01*
X173037380Y-56677380D01*
X173132619Y-56629761D01*
X173180238Y-56582142D01*
X173227857Y-56486904D01*
X173227857Y-56296428D01*
X173180238Y-56201190D01*
X173132619Y-56153571D01*
X173037380Y-56105952D01*
X181435476Y-58852380D02*
X181435476Y-59566666D01*
X181387857Y-59709523D01*
X181292619Y-59804761D01*
X181149761Y-59852380D01*
X181054523Y-59852380D01*
X181864047Y-58947619D02*
X181911666Y-58900000D01*
X182006904Y-58852380D01*
X182245000Y-58852380D01*
X182340238Y-58900000D01*
X182387857Y-58947619D01*
X182435476Y-59042857D01*
X182435476Y-59138095D01*
X182387857Y-59280952D01*
X181816428Y-59852380D01*
X182435476Y-59852380D01*
X182768809Y-58852380D02*
X183435476Y-58852380D01*
X183006904Y-59852380D01*
X178260476Y-55677380D02*
X178260476Y-56391666D01*
X178212857Y-56534523D01*
X178117619Y-56629761D01*
X177974761Y-56677380D01*
X177879523Y-56677380D01*
X178689047Y-55772619D02*
X178736666Y-55725000D01*
X178831904Y-55677380D01*
X179070000Y-55677380D01*
X179165238Y-55725000D01*
X179212857Y-55772619D01*
X179260476Y-55867857D01*
X179260476Y-55963095D01*
X179212857Y-56105952D01*
X178641428Y-56677380D01*
X179260476Y-56677380D01*
X180117619Y-55677380D02*
X179927142Y-55677380D01*
X179831904Y-55725000D01*
X179784285Y-55772619D01*
X179689047Y-55915476D01*
X179641428Y-56105952D01*
X179641428Y-56486904D01*
X179689047Y-56582142D01*
X179736666Y-56629761D01*
X179831904Y-56677380D01*
X180022380Y-56677380D01*
X180117619Y-56629761D01*
X180165238Y-56582142D01*
X180212857Y-56486904D01*
X180212857Y-56248809D01*
X180165238Y-56153571D01*
X180117619Y-56105952D01*
X180022380Y-56058333D01*
X179831904Y-56058333D01*
X179736666Y-56105952D01*
X179689047Y-56153571D01*
X179641428Y-56248809D01*
X147145476Y-52502380D02*
X147145476Y-53216666D01*
X147097857Y-53359523D01*
X147002619Y-53454761D01*
X146859761Y-53502380D01*
X146764523Y-53502380D01*
X147574047Y-52597619D02*
X147621666Y-52550000D01*
X147716904Y-52502380D01*
X147955000Y-52502380D01*
X148050238Y-52550000D01*
X148097857Y-52597619D01*
X148145476Y-52692857D01*
X148145476Y-52788095D01*
X148097857Y-52930952D01*
X147526428Y-53502380D01*
X148145476Y-53502380D01*
X149050238Y-52502380D02*
X148574047Y-52502380D01*
X148526428Y-52978571D01*
X148574047Y-52930952D01*
X148669285Y-52883333D01*
X148907380Y-52883333D01*
X149002619Y-52930952D01*
X149050238Y-52978571D01*
X149097857Y-53073809D01*
X149097857Y-53311904D01*
X149050238Y-53407142D01*
X149002619Y-53454761D01*
X148907380Y-53502380D01*
X148669285Y-53502380D01*
X148574047Y-53454761D01*
X148526428Y-53407142D01*
X150320476Y-55677380D02*
X150320476Y-56391666D01*
X150272857Y-56534523D01*
X150177619Y-56629761D01*
X150034761Y-56677380D01*
X149939523Y-56677380D01*
X150749047Y-55772619D02*
X150796666Y-55725000D01*
X150891904Y-55677380D01*
X151130000Y-55677380D01*
X151225238Y-55725000D01*
X151272857Y-55772619D01*
X151320476Y-55867857D01*
X151320476Y-55963095D01*
X151272857Y-56105952D01*
X150701428Y-56677380D01*
X151320476Y-56677380D01*
X152177619Y-56010714D02*
X152177619Y-56677380D01*
X151939523Y-55629761D02*
X151701428Y-56344047D01*
X152320476Y-56344047D01*
X160480476Y-58852380D02*
X160480476Y-59566666D01*
X160432857Y-59709523D01*
X160337619Y-59804761D01*
X160194761Y-59852380D01*
X160099523Y-59852380D01*
X160909047Y-58947619D02*
X160956666Y-58900000D01*
X161051904Y-58852380D01*
X161290000Y-58852380D01*
X161385238Y-58900000D01*
X161432857Y-58947619D01*
X161480476Y-59042857D01*
X161480476Y-59138095D01*
X161432857Y-59280952D01*
X160861428Y-59852380D01*
X161480476Y-59852380D01*
X161813809Y-58852380D02*
X162432857Y-58852380D01*
X162099523Y-59233333D01*
X162242380Y-59233333D01*
X162337619Y-59280952D01*
X162385238Y-59328571D01*
X162432857Y-59423809D01*
X162432857Y-59661904D01*
X162385238Y-59757142D01*
X162337619Y-59804761D01*
X162242380Y-59852380D01*
X161956666Y-59852380D01*
X161861428Y-59804761D01*
X161813809Y-59757142D01*
X157305476Y-55677380D02*
X157305476Y-56391666D01*
X157257857Y-56534523D01*
X157162619Y-56629761D01*
X157019761Y-56677380D01*
X156924523Y-56677380D01*
X157734047Y-55772619D02*
X157781666Y-55725000D01*
X157876904Y-55677380D01*
X158115000Y-55677380D01*
X158210238Y-55725000D01*
X158257857Y-55772619D01*
X158305476Y-55867857D01*
X158305476Y-55963095D01*
X158257857Y-56105952D01*
X157686428Y-56677380D01*
X158305476Y-56677380D01*
X158686428Y-55772619D02*
X158734047Y-55725000D01*
X158829285Y-55677380D01*
X159067380Y-55677380D01*
X159162619Y-55725000D01*
X159210238Y-55772619D01*
X159257857Y-55867857D01*
X159257857Y-55963095D01*
X159210238Y-56105952D01*
X158638809Y-56677380D01*
X159257857Y-56677380D01*
X126190476Y-52502380D02*
X126190476Y-53216666D01*
X126142857Y-53359523D01*
X126047619Y-53454761D01*
X125904761Y-53502380D01*
X125809523Y-53502380D01*
X126619047Y-52597619D02*
X126666666Y-52550000D01*
X126761904Y-52502380D01*
X127000000Y-52502380D01*
X127095238Y-52550000D01*
X127142857Y-52597619D01*
X127190476Y-52692857D01*
X127190476Y-52788095D01*
X127142857Y-52930952D01*
X126571428Y-53502380D01*
X127190476Y-53502380D01*
X128142857Y-53502380D02*
X127571428Y-53502380D01*
X127857142Y-53502380D02*
X127857142Y-52502380D01*
X127761904Y-52645238D01*
X127666666Y-52740476D01*
X127571428Y-52788095D01*
X129365476Y-55677380D02*
X129365476Y-56391666D01*
X129317857Y-56534523D01*
X129222619Y-56629761D01*
X129079761Y-56677380D01*
X128984523Y-56677380D01*
X129794047Y-55772619D02*
X129841666Y-55725000D01*
X129936904Y-55677380D01*
X130175000Y-55677380D01*
X130270238Y-55725000D01*
X130317857Y-55772619D01*
X130365476Y-55867857D01*
X130365476Y-55963095D01*
X130317857Y-56105952D01*
X129746428Y-56677380D01*
X130365476Y-56677380D01*
X130984523Y-55677380D02*
X131079761Y-55677380D01*
X131175000Y-55725000D01*
X131222619Y-55772619D01*
X131270238Y-55867857D01*
X131317857Y-56058333D01*
X131317857Y-56296428D01*
X131270238Y-56486904D01*
X131222619Y-56582142D01*
X131175000Y-56629761D01*
X131079761Y-56677380D01*
X130984523Y-56677380D01*
X130889285Y-56629761D01*
X130841666Y-56582142D01*
X130794047Y-56486904D01*
X130746428Y-56296428D01*
X130746428Y-56058333D01*
X130794047Y-55867857D01*
X130841666Y-55772619D01*
X130889285Y-55725000D01*
X130984523Y-55677380D01*
X139525476Y-58852380D02*
X139525476Y-59566666D01*
X139477857Y-59709523D01*
X139382619Y-59804761D01*
X139239761Y-59852380D01*
X139144523Y-59852380D01*
X140525476Y-59852380D02*
X139954047Y-59852380D01*
X140239761Y-59852380D02*
X140239761Y-58852380D01*
X140144523Y-58995238D01*
X140049285Y-59090476D01*
X139954047Y-59138095D01*
X141001666Y-59852380D02*
X141192142Y-59852380D01*
X141287380Y-59804761D01*
X141335000Y-59757142D01*
X141430238Y-59614285D01*
X141477857Y-59423809D01*
X141477857Y-59042857D01*
X141430238Y-58947619D01*
X141382619Y-58900000D01*
X141287380Y-58852380D01*
X141096904Y-58852380D01*
X141001666Y-58900000D01*
X140954047Y-58947619D01*
X140906428Y-59042857D01*
X140906428Y-59280952D01*
X140954047Y-59376190D01*
X141001666Y-59423809D01*
X141096904Y-59471428D01*
X141287380Y-59471428D01*
X141382619Y-59423809D01*
X141430238Y-59376190D01*
X141477857Y-59280952D01*
X136350476Y-55677380D02*
X136350476Y-56391666D01*
X136302857Y-56534523D01*
X136207619Y-56629761D01*
X136064761Y-56677380D01*
X135969523Y-56677380D01*
X137350476Y-56677380D02*
X136779047Y-56677380D01*
X137064761Y-56677380D02*
X137064761Y-55677380D01*
X136969523Y-55820238D01*
X136874285Y-55915476D01*
X136779047Y-55963095D01*
X137921904Y-56105952D02*
X137826666Y-56058333D01*
X137779047Y-56010714D01*
X137731428Y-55915476D01*
X137731428Y-55867857D01*
X137779047Y-55772619D01*
X137826666Y-55725000D01*
X137921904Y-55677380D01*
X138112380Y-55677380D01*
X138207619Y-55725000D01*
X138255238Y-55772619D01*
X138302857Y-55867857D01*
X138302857Y-55915476D01*
X138255238Y-56010714D01*
X138207619Y-56058333D01*
X138112380Y-56105952D01*
X137921904Y-56105952D01*
X137826666Y-56153571D01*
X137779047Y-56201190D01*
X137731428Y-56296428D01*
X137731428Y-56486904D01*
X137779047Y-56582142D01*
X137826666Y-56629761D01*
X137921904Y-56677380D01*
X138112380Y-56677380D01*
X138207619Y-56629761D01*
X138255238Y-56582142D01*
X138302857Y-56486904D01*
X138302857Y-56296428D01*
X138255238Y-56201190D01*
X138207619Y-56153571D01*
X138112380Y-56105952D01*
X210645476Y-69012380D02*
X210645476Y-69726666D01*
X210597857Y-69869523D01*
X210502619Y-69964761D01*
X210359761Y-70012380D01*
X210264523Y-70012380D01*
X211645476Y-70012380D02*
X211074047Y-70012380D01*
X211359761Y-70012380D02*
X211359761Y-69012380D01*
X211264523Y-69155238D01*
X211169285Y-69250476D01*
X211074047Y-69298095D01*
X211978809Y-69012380D02*
X212645476Y-69012380D01*
X212216904Y-70012380D01*
X207470476Y-72187380D02*
X207470476Y-72901666D01*
X207422857Y-73044523D01*
X207327619Y-73139761D01*
X207184761Y-73187380D01*
X207089523Y-73187380D01*
X208470476Y-73187380D02*
X207899047Y-73187380D01*
X208184761Y-73187380D02*
X208184761Y-72187380D01*
X208089523Y-72330238D01*
X207994285Y-72425476D01*
X207899047Y-72473095D01*
X209327619Y-72187380D02*
X209137142Y-72187380D01*
X209041904Y-72235000D01*
X208994285Y-72282619D01*
X208899047Y-72425476D01*
X208851428Y-72615952D01*
X208851428Y-72996904D01*
X208899047Y-73092142D01*
X208946666Y-73139761D01*
X209041904Y-73187380D01*
X209232380Y-73187380D01*
X209327619Y-73139761D01*
X209375238Y-73092142D01*
X209422857Y-72996904D01*
X209422857Y-72758809D01*
X209375238Y-72663571D01*
X209327619Y-72615952D01*
X209232380Y-72568333D01*
X209041904Y-72568333D01*
X208946666Y-72615952D01*
X208899047Y-72663571D01*
X208851428Y-72758809D01*
X204295476Y-81712380D02*
X204295476Y-82426666D01*
X204247857Y-82569523D01*
X204152619Y-82664761D01*
X204009761Y-82712380D01*
X203914523Y-82712380D01*
X205295476Y-82712380D02*
X204724047Y-82712380D01*
X205009761Y-82712380D02*
X205009761Y-81712380D01*
X204914523Y-81855238D01*
X204819285Y-81950476D01*
X204724047Y-81998095D01*
X206200238Y-81712380D02*
X205724047Y-81712380D01*
X205676428Y-82188571D01*
X205724047Y-82140952D01*
X205819285Y-82093333D01*
X206057380Y-82093333D01*
X206152619Y-82140952D01*
X206200238Y-82188571D01*
X206247857Y-82283809D01*
X206247857Y-82521904D01*
X206200238Y-82617142D01*
X206152619Y-82664761D01*
X206057380Y-82712380D01*
X205819285Y-82712380D01*
X205724047Y-82664761D01*
X205676428Y-82617142D01*
X207470476Y-78537380D02*
X207470476Y-79251666D01*
X207422857Y-79394523D01*
X207327619Y-79489761D01*
X207184761Y-79537380D01*
X207089523Y-79537380D01*
X208470476Y-79537380D02*
X207899047Y-79537380D01*
X208184761Y-79537380D02*
X208184761Y-78537380D01*
X208089523Y-78680238D01*
X207994285Y-78775476D01*
X207899047Y-78823095D01*
X209327619Y-78870714D02*
X209327619Y-79537380D01*
X209089523Y-78489761D02*
X208851428Y-79204047D01*
X209470476Y-79204047D01*
X156035476Y-94492380D02*
X156035476Y-95206666D01*
X155987857Y-95349523D01*
X155892619Y-95444761D01*
X155749761Y-95492380D01*
X155654523Y-95492380D01*
X157035476Y-95492380D02*
X156464047Y-95492380D01*
X156749761Y-95492380D02*
X156749761Y-94492380D01*
X156654523Y-94635238D01*
X156559285Y-94730476D01*
X156464047Y-94778095D01*
X157654523Y-94492380D02*
X157749761Y-94492380D01*
X157845000Y-94540000D01*
X157892619Y-94587619D01*
X157940238Y-94682857D01*
X157987857Y-94873333D01*
X157987857Y-95111428D01*
X157940238Y-95301904D01*
X157892619Y-95397142D01*
X157845000Y-95444761D01*
X157749761Y-95492380D01*
X157654523Y-95492380D01*
X157559285Y-95444761D01*
X157511666Y-95397142D01*
X157464047Y-95301904D01*
X157416428Y-95111428D01*
X157416428Y-94873333D01*
X157464047Y-94682857D01*
X157511666Y-94587619D01*
X157559285Y-94540000D01*
X157654523Y-94492380D01*
D14*
X179372746Y-98947013D02*
X179372746Y-99947991D01*
X179306014Y-100148187D01*
X179172550Y-100281651D01*
X178972355Y-100348383D01*
X178838891Y-100348383D01*
X180106797Y-100348383D02*
X180373725Y-100348383D01*
X180507189Y-100281651D01*
X180573920Y-100214919D01*
X180707384Y-100014723D01*
X180774116Y-99747795D01*
X180774116Y-99213940D01*
X180707384Y-99080476D01*
X180640652Y-99013745D01*
X180507189Y-98947013D01*
X180240261Y-98947013D01*
X180106797Y-99013745D01*
X180040065Y-99080476D01*
X179973333Y-99213940D01*
X179973333Y-99547600D01*
X180040065Y-99681064D01*
X180106797Y-99747795D01*
X180240261Y-99814527D01*
X180507189Y-99814527D01*
X180640652Y-99747795D01*
X180707384Y-99681064D01*
X180774116Y-99547600D01*
D10*
X118411666Y-90602380D02*
X118411666Y-91316666D01*
X118364047Y-91459523D01*
X118268809Y-91554761D01*
X118125952Y-91602380D01*
X118030714Y-91602380D01*
X119030714Y-91030952D02*
X118935476Y-90983333D01*
X118887857Y-90935714D01*
X118840238Y-90840476D01*
X118840238Y-90792857D01*
X118887857Y-90697619D01*
X118935476Y-90650000D01*
X119030714Y-90602380D01*
X119221190Y-90602380D01*
X119316428Y-90650000D01*
X119364047Y-90697619D01*
X119411666Y-90792857D01*
X119411666Y-90840476D01*
X119364047Y-90935714D01*
X119316428Y-90983333D01*
X119221190Y-91030952D01*
X119030714Y-91030952D01*
X118935476Y-91078571D01*
X118887857Y-91126190D01*
X118840238Y-91221428D01*
X118840238Y-91411904D01*
X118887857Y-91507142D01*
X118935476Y-91554761D01*
X119030714Y-91602380D01*
X119221190Y-91602380D01*
X119316428Y-91554761D01*
X119364047Y-91507142D01*
X119411666Y-91411904D01*
X119411666Y-91221428D01*
X119364047Y-91126190D01*
X119316428Y-91078571D01*
X119221190Y-91030952D01*
X118411666Y-96317380D02*
X118411666Y-97031666D01*
X118364047Y-97174523D01*
X118268809Y-97269761D01*
X118125952Y-97317380D01*
X118030714Y-97317380D01*
X118792619Y-96317380D02*
X119459285Y-96317380D01*
X119030714Y-97317380D01*
X118411666Y-76632380D02*
X118411666Y-77346666D01*
X118364047Y-77489523D01*
X118268809Y-77584761D01*
X118125952Y-77632380D01*
X118030714Y-77632380D01*
X119316428Y-76632380D02*
X119125952Y-76632380D01*
X119030714Y-76680000D01*
X118983095Y-76727619D01*
X118887857Y-76870476D01*
X118840238Y-77060952D01*
X118840238Y-77441904D01*
X118887857Y-77537142D01*
X118935476Y-77584761D01*
X119030714Y-77632380D01*
X119221190Y-77632380D01*
X119316428Y-77584761D01*
X119364047Y-77537142D01*
X119411666Y-77441904D01*
X119411666Y-77203809D01*
X119364047Y-77108571D01*
X119316428Y-77060952D01*
X119221190Y-77013333D01*
X119030714Y-77013333D01*
X118935476Y-77060952D01*
X118887857Y-77108571D01*
X118840238Y-77203809D01*
X118411666Y-82982380D02*
X118411666Y-83696666D01*
X118364047Y-83839523D01*
X118268809Y-83934761D01*
X118125952Y-83982380D01*
X118030714Y-83982380D01*
X119364047Y-82982380D02*
X118887857Y-82982380D01*
X118840238Y-83458571D01*
X118887857Y-83410952D01*
X118983095Y-83363333D01*
X119221190Y-83363333D01*
X119316428Y-83410952D01*
X119364047Y-83458571D01*
X119411666Y-83553809D01*
X119411666Y-83791904D01*
X119364047Y-83887142D01*
X119316428Y-83934761D01*
X119221190Y-83982380D01*
X118983095Y-83982380D01*
X118887857Y-83934761D01*
X118840238Y-83887142D01*
X146351666Y-105842380D02*
X146351666Y-106556666D01*
X146304047Y-106699523D01*
X146208809Y-106794761D01*
X146065952Y-106842380D01*
X145970714Y-106842380D01*
X147256428Y-106175714D02*
X147256428Y-106842380D01*
X147018333Y-105794761D02*
X146780238Y-106509047D01*
X147399285Y-106509047D01*
X152066666Y-105842380D02*
X152066666Y-106556666D01*
X152019047Y-106699523D01*
X151923809Y-106794761D01*
X151780952Y-106842380D01*
X151685714Y-106842380D01*
X152447619Y-105842380D02*
X153066666Y-105842380D01*
X152733333Y-106223333D01*
X152876190Y-106223333D01*
X152971428Y-106270952D01*
X153019047Y-106318571D01*
X153066666Y-106413809D01*
X153066666Y-106651904D01*
X153019047Y-106747142D01*
X152971428Y-106794761D01*
X152876190Y-106842380D01*
X152590476Y-106842380D01*
X152495238Y-106794761D01*
X152447619Y-106747142D01*
X158416666Y-105842380D02*
X158416666Y-106556666D01*
X158369047Y-106699523D01*
X158273809Y-106794761D01*
X158130952Y-106842380D01*
X158035714Y-106842380D01*
X158845238Y-105937619D02*
X158892857Y-105890000D01*
X158988095Y-105842380D01*
X159226190Y-105842380D01*
X159321428Y-105890000D01*
X159369047Y-105937619D01*
X159416666Y-106032857D01*
X159416666Y-106128095D01*
X159369047Y-106270952D01*
X158797619Y-106842380D01*
X159416666Y-106842380D01*
X164131666Y-105842380D02*
X164131666Y-106556666D01*
X164084047Y-106699523D01*
X163988809Y-106794761D01*
X163845952Y-106842380D01*
X163750714Y-106842380D01*
X165131666Y-106842380D02*
X164560238Y-106842380D01*
X164845952Y-106842380D02*
X164845952Y-105842380D01*
X164750714Y-105985238D01*
X164655476Y-106080476D01*
X164560238Y-106128095D01*
X117983095Y-100392380D02*
X117983095Y-99392380D01*
X117983095Y-99868571D02*
X118554523Y-99868571D01*
X118554523Y-100392380D02*
X118554523Y-99392380D01*
X119459285Y-99725714D02*
X119459285Y-100392380D01*
X119221190Y-99344761D02*
X118983095Y-100059047D01*
X119602142Y-100059047D01*
X209423095Y-100392380D02*
X209423095Y-99392380D01*
X209423095Y-99868571D02*
X209994523Y-99868571D01*
X209994523Y-100392380D02*
X209994523Y-99392380D01*
X210375476Y-99392380D02*
X210994523Y-99392380D01*
X210661190Y-99773333D01*
X210804047Y-99773333D01*
X210899285Y-99820952D01*
X210946904Y-99868571D01*
X210994523Y-99963809D01*
X210994523Y-100201904D01*
X210946904Y-100297142D01*
X210899285Y-100344761D01*
X210804047Y-100392380D01*
X210518333Y-100392380D01*
X210423095Y-100344761D01*
X210375476Y-100297142D01*
X209423095Y-48957380D02*
X209423095Y-47957380D01*
X209423095Y-48433571D02*
X209994523Y-48433571D01*
X209994523Y-48957380D02*
X209994523Y-47957380D01*
X210423095Y-48052619D02*
X210470714Y-48005000D01*
X210565952Y-47957380D01*
X210804047Y-47957380D01*
X210899285Y-48005000D01*
X210946904Y-48052619D01*
X210994523Y-48147857D01*
X210994523Y-48243095D01*
X210946904Y-48385952D01*
X210375476Y-48957380D01*
X210994523Y-48957380D01*
X117983095Y-48957380D02*
X117983095Y-47957380D01*
X117983095Y-48433571D02*
X118554523Y-48433571D01*
X118554523Y-48957380D02*
X118554523Y-47957380D01*
X119554523Y-48957380D02*
X118983095Y-48957380D01*
X119268809Y-48957380D02*
X119268809Y-47957380D01*
X119173571Y-48100238D01*
X119078333Y-48195476D01*
X118983095Y-48243095D01*
X124991904Y-89127380D02*
X124991904Y-88127380D01*
X125230000Y-88127380D01*
X125372857Y-88175000D01*
X125468095Y-88270238D01*
X125515714Y-88365476D01*
X125563333Y-88555952D01*
X125563333Y-88698809D01*
X125515714Y-88889285D01*
X125468095Y-88984523D01*
X125372857Y-89079761D01*
X125230000Y-89127380D01*
X124991904Y-89127380D01*
X126515714Y-89127380D02*
X125944285Y-89127380D01*
X126230000Y-89127380D02*
X126230000Y-88127380D01*
X126134761Y-88270238D01*
X126039523Y-88365476D01*
X125944285Y-88413095D01*
X162795833Y-92022142D02*
X162748214Y-92069761D01*
X162605357Y-92117380D01*
X162510119Y-92117380D01*
X162367261Y-92069761D01*
X162272023Y-91974523D01*
X162224404Y-91879285D01*
X162176785Y-91688809D01*
X162176785Y-91545952D01*
X162224404Y-91355476D01*
X162272023Y-91260238D01*
X162367261Y-91165000D01*
X162510119Y-91117380D01*
X162605357Y-91117380D01*
X162748214Y-91165000D01*
X162795833Y-91212619D01*
X163652976Y-91117380D02*
X163462500Y-91117380D01*
X163367261Y-91165000D01*
X163319642Y-91212619D01*
X163224404Y-91355476D01*
X163176785Y-91545952D01*
X163176785Y-91926904D01*
X163224404Y-92022142D01*
X163272023Y-92069761D01*
X163367261Y-92117380D01*
X163557738Y-92117380D01*
X163652976Y-92069761D01*
X163700595Y-92022142D01*
X163748214Y-91926904D01*
X163748214Y-91688809D01*
X163700595Y-91593571D01*
X163652976Y-91545952D01*
X163557738Y-91498333D01*
X163367261Y-91498333D01*
X163272023Y-91545952D01*
X163224404Y-91593571D01*
X163176785Y-91688809D01*
X179940833Y-75062142D02*
X179893214Y-75109761D01*
X179750357Y-75157380D01*
X179655119Y-75157380D01*
X179512261Y-75109761D01*
X179417023Y-75014523D01*
X179369404Y-74919285D01*
X179321785Y-74728809D01*
X179321785Y-74585952D01*
X179369404Y-74395476D01*
X179417023Y-74300238D01*
X179512261Y-74205000D01*
X179655119Y-74157380D01*
X179750357Y-74157380D01*
X179893214Y-74205000D01*
X179940833Y-74252619D01*
X180845595Y-74157380D02*
X180369404Y-74157380D01*
X180321785Y-74633571D01*
X180369404Y-74585952D01*
X180464642Y-74538333D01*
X180702738Y-74538333D01*
X180797976Y-74585952D01*
X180845595Y-74633571D01*
X180893214Y-74728809D01*
X180893214Y-74966904D01*
X180845595Y-75062142D01*
X180797976Y-75109761D01*
X180702738Y-75157380D01*
X180464642Y-75157380D01*
X180369404Y-75109761D01*
X180321785Y-75062142D01*
X154052142Y-83881666D02*
X154099761Y-83929285D01*
X154147380Y-84072142D01*
X154147380Y-84167380D01*
X154099761Y-84310238D01*
X154004523Y-84405476D01*
X153909285Y-84453095D01*
X153718809Y-84500714D01*
X153575952Y-84500714D01*
X153385476Y-84453095D01*
X153290238Y-84405476D01*
X153195000Y-84310238D01*
X153147380Y-84167380D01*
X153147380Y-84072142D01*
X153195000Y-83929285D01*
X153242619Y-83881666D01*
X153480714Y-83024523D02*
X154147380Y-83024523D01*
X153099761Y-83262619D02*
X153814047Y-83500714D01*
X153814047Y-82881666D01*
X148722142Y-77234166D02*
X148769761Y-77281785D01*
X148817380Y-77424642D01*
X148817380Y-77519880D01*
X148769761Y-77662738D01*
X148674523Y-77757976D01*
X148579285Y-77805595D01*
X148388809Y-77853214D01*
X148245952Y-77853214D01*
X148055476Y-77805595D01*
X147960238Y-77757976D01*
X147865000Y-77662738D01*
X147817380Y-77519880D01*
X147817380Y-77424642D01*
X147865000Y-77281785D01*
X147912619Y-77234166D01*
X147817380Y-76900833D02*
X147817380Y-76281785D01*
X148198333Y-76615119D01*
X148198333Y-76472261D01*
X148245952Y-76377023D01*
X148293571Y-76329404D01*
X148388809Y-76281785D01*
X148626904Y-76281785D01*
X148722142Y-76329404D01*
X148769761Y-76377023D01*
X148817380Y-76472261D01*
X148817380Y-76757976D01*
X148769761Y-76853214D01*
X148722142Y-76900833D01*
X135490833Y-77772142D02*
X135443214Y-77819761D01*
X135300357Y-77867380D01*
X135205119Y-77867380D01*
X135062261Y-77819761D01*
X134967023Y-77724523D01*
X134919404Y-77629285D01*
X134871785Y-77438809D01*
X134871785Y-77295952D01*
X134919404Y-77105476D01*
X134967023Y-77010238D01*
X135062261Y-76915000D01*
X135205119Y-76867380D01*
X135300357Y-76867380D01*
X135443214Y-76915000D01*
X135490833Y-76962619D01*
X135871785Y-76962619D02*
X135919404Y-76915000D01*
X136014642Y-76867380D01*
X136252738Y-76867380D01*
X136347976Y-76915000D01*
X136395595Y-76962619D01*
X136443214Y-77057857D01*
X136443214Y-77153095D01*
X136395595Y-77295952D01*
X135824166Y-77867380D01*
X136443214Y-77867380D01*
X143987142Y-92951666D02*
X144034761Y-92999285D01*
X144082380Y-93142142D01*
X144082380Y-93237380D01*
X144034761Y-93380238D01*
X143939523Y-93475476D01*
X143844285Y-93523095D01*
X143653809Y-93570714D01*
X143510952Y-93570714D01*
X143320476Y-93523095D01*
X143225238Y-93475476D01*
X143130000Y-93380238D01*
X143082380Y-93237380D01*
X143082380Y-93142142D01*
X143130000Y-92999285D01*
X143177619Y-92951666D01*
X144082380Y-91999285D02*
X144082380Y-92570714D01*
X144082380Y-92285000D02*
X143082380Y-92285000D01*
X143225238Y-92380238D01*
X143320476Y-92475476D01*
X143368095Y-92570714D01*
M02*
