G04 #@! TF.GenerationSoftware,KiCad,Pcbnew,(5.1.8-0-10_14)*
G04 #@! TF.CreationDate,2020-11-13T17:01:48+01:00*
G04 #@! TF.ProjectId,input-sel-v1,696e7075-742d-4736-956c-2d76312e6b69,rev?*
G04 #@! TF.SameCoordinates,Original*
G04 #@! TF.FileFunction,Copper,L2,Bot*
G04 #@! TF.FilePolarity,Positive*
%FSLAX46Y46*%
G04 Gerber Fmt 4.6, Leading zero omitted, Abs format (unit mm)*
G04 Created by KiCad (PCBNEW (5.1.8-0-10_14)) date 2020-11-13 17:01:48*
%MOMM*%
%LPD*%
G01*
G04 APERTURE LIST*
G04 #@! TA.AperFunction,ComponentPad*
%ADD10C,1.600000*%
G04 #@! TD*
G04 #@! TA.AperFunction,ComponentPad*
%ADD11R,1.600000X1.600000*%
G04 #@! TD*
G04 #@! TA.AperFunction,ComponentPad*
%ADD12O,1.600000X1.600000*%
G04 #@! TD*
G04 #@! TA.AperFunction,ComponentPad*
%ADD13C,2.400000*%
G04 #@! TD*
G04 #@! TA.AperFunction,ComponentPad*
%ADD14R,2.400000X2.400000*%
G04 #@! TD*
G04 #@! TA.AperFunction,ComponentPad*
%ADD15O,1.905000X2.000000*%
G04 #@! TD*
G04 #@! TA.AperFunction,ComponentPad*
%ADD16R,1.905000X2.000000*%
G04 #@! TD*
G04 #@! TA.AperFunction,ComponentPad*
%ADD17C,2.000000*%
G04 #@! TD*
G04 #@! TA.AperFunction,ComponentPad*
%ADD18O,1.700000X1.700000*%
G04 #@! TD*
G04 #@! TA.AperFunction,ComponentPad*
%ADD19R,1.700000X1.700000*%
G04 #@! TD*
G04 #@! TA.AperFunction,ComponentPad*
%ADD20C,1.308000*%
G04 #@! TD*
G04 #@! TA.AperFunction,ComponentPad*
%ADD21R,1.308000X1.308000*%
G04 #@! TD*
G04 #@! TA.AperFunction,ViaPad*
%ADD22C,0.800000*%
G04 #@! TD*
G04 #@! TA.AperFunction,ViaPad*
%ADD23C,0.600000*%
G04 #@! TD*
G04 #@! TA.AperFunction,Conductor*
%ADD24C,0.500000*%
G04 #@! TD*
G04 #@! TA.AperFunction,Conductor*
%ADD25C,0.250000*%
G04 #@! TD*
G04 #@! TA.AperFunction,Conductor*
%ADD26C,1.000000*%
G04 #@! TD*
G04 APERTURE END LIST*
D10*
X142240000Y-78557000D03*
D11*
X142240000Y-75057000D03*
X130048000Y-94234000D03*
D12*
X122428000Y-89154000D03*
X130048000Y-89154000D03*
X122428000Y-94234000D03*
D13*
X140636000Y-94234000D03*
D14*
X135636000Y-94234000D03*
D12*
X161925000Y-82550000D03*
X184785000Y-90170000D03*
X164465000Y-82550000D03*
X182245000Y-90170000D03*
X167005000Y-82550000D03*
X179705000Y-90170000D03*
X169545000Y-82550000D03*
X177165000Y-90170000D03*
X172085000Y-82550000D03*
X174625000Y-90170000D03*
X174625000Y-82550000D03*
X172085000Y-90170000D03*
X177165000Y-82550000D03*
X169545000Y-90170000D03*
X179705000Y-82550000D03*
X167005000Y-90170000D03*
X182245000Y-82550000D03*
X164465000Y-90170000D03*
X184785000Y-82550000D03*
D11*
X161925000Y-90170000D03*
D15*
X133477000Y-83439000D03*
X130937000Y-83439000D03*
D16*
X128397000Y-83439000D03*
D17*
X189865000Y-50800000D03*
X193040000Y-53975000D03*
X203200000Y-57150000D03*
X200025000Y-53975000D03*
X168910000Y-50800000D03*
X172085000Y-53975000D03*
X182245000Y-57150000D03*
X179070000Y-53975000D03*
X147955000Y-50800000D03*
X151130000Y-53975000D03*
X161290000Y-57150000D03*
X158115000Y-53975000D03*
X127000000Y-50800000D03*
X130175000Y-53975000D03*
X140335000Y-57150000D03*
X137160000Y-53975000D03*
X211455000Y-67310000D03*
X208280000Y-70485000D03*
X205105000Y-80010000D03*
X208280000Y-76835000D03*
D18*
X156845000Y-80010000D03*
X156845000Y-82550000D03*
X156845000Y-85090000D03*
X156845000Y-87630000D03*
X156845000Y-90170000D03*
D19*
X156845000Y-92710000D03*
D20*
X189865000Y-102870000D03*
X188595000Y-105410000D03*
X187325000Y-102870000D03*
X186055000Y-105410000D03*
X184785000Y-102870000D03*
X183515000Y-105410000D03*
X182245000Y-102870000D03*
X180975000Y-105410000D03*
X179705000Y-102870000D03*
D21*
X178435000Y-105410000D03*
D17*
X118745000Y-88900000D03*
X118745000Y-94615000D03*
X118745000Y-74930000D03*
X118745000Y-81280000D03*
X146685000Y-104140000D03*
X152400000Y-104140000D03*
X158750000Y-104140000D03*
X164465000Y-104140000D03*
D22*
X198120000Y-81915000D03*
X198120000Y-67945000D03*
X180975000Y-67945000D03*
X160020000Y-67945000D03*
X139065000Y-67945000D03*
X179070000Y-71120000D03*
X171450000Y-101600000D03*
X164370000Y-98520000D03*
D23*
X167005000Y-99695000D03*
X184150000Y-92075000D03*
X184785000Y-88265000D03*
X159385000Y-88900000D03*
X159385000Y-91440000D03*
D22*
X172720000Y-74930000D03*
X191135000Y-81915000D03*
D23*
X167005000Y-91440000D03*
X164465000Y-91470003D03*
X167005000Y-95250000D03*
X175260000Y-80010000D03*
X171450000Y-76200000D03*
X178439443Y-81275557D03*
X177165000Y-84455000D03*
X165735000Y-83820000D03*
X172720000Y-80645000D03*
X175895000Y-81280000D03*
X175895000Y-85090000D03*
X168275000Y-84455000D03*
X172720000Y-85725000D03*
X170815000Y-85090000D03*
X170815000Y-81915000D03*
X170180000Y-80010000D03*
D24*
X130048000Y-94234000D02*
X128651000Y-94234000D01*
X128651000Y-94234000D02*
X128397000Y-93980000D01*
X130048000Y-94234000D02*
X135636000Y-94234000D01*
X128397000Y-90932000D02*
X128397000Y-91567000D01*
X128397000Y-91567000D02*
X128397000Y-83439000D01*
X128397000Y-93980000D02*
X128397000Y-91567000D01*
X120904000Y-83439000D02*
X118745000Y-81280000D01*
X128397000Y-83439000D02*
X120904000Y-83439000D01*
X198120000Y-81915000D02*
X198120000Y-67945000D01*
X198120000Y-67945000D02*
X180975000Y-67945000D01*
X180975000Y-67945000D02*
X160020000Y-67945000D01*
X160020000Y-67945000D02*
X139065000Y-67945000D01*
X179070000Y-69850000D02*
X180975000Y-67945000D01*
X179070000Y-71120000D02*
X179070000Y-69850000D01*
X156845000Y-90170000D02*
X152400000Y-85725000D01*
X152400000Y-94615000D02*
X152400000Y-104140000D01*
X156845000Y-90170000D02*
X152400000Y-94615000D01*
X156845000Y-90170000D02*
X161925000Y-90170000D01*
X161925000Y-92075000D02*
X171450000Y-101600000D01*
X161925000Y-90170000D02*
X161925000Y-92075000D01*
D25*
X179995999Y-104430999D02*
X174280999Y-104430999D01*
X174280999Y-104430999D02*
X171450000Y-101600000D01*
X180975000Y-105410000D02*
X179995999Y-104430999D01*
D24*
X142240000Y-75565000D02*
X156845000Y-90170000D01*
X142240000Y-75057000D02*
X142240000Y-75565000D01*
X152908000Y-75057000D02*
X160020000Y-67945000D01*
X142240000Y-75057000D02*
X152908000Y-75057000D01*
D25*
X164370000Y-104045000D02*
X164465000Y-104140000D01*
X164370000Y-98520000D02*
X164370000Y-104045000D01*
X188595000Y-105410000D02*
X187325000Y-106680000D01*
X173990000Y-106680000D02*
X167005000Y-99695000D01*
X187325000Y-106680000D02*
X173990000Y-106680000D01*
X178144001Y-103849001D02*
X164465000Y-90170000D01*
X188885999Y-103849001D02*
X178144001Y-103849001D01*
X189865000Y-102870000D02*
X188885999Y-103849001D01*
X184785000Y-100330000D02*
X187325000Y-102870000D01*
X184785000Y-90170000D02*
X184785000Y-100330000D01*
X184150000Y-102235000D02*
X184150000Y-92075000D01*
X184785000Y-102870000D02*
X184150000Y-102235000D01*
X184785000Y-88265000D02*
X184785000Y-82550000D01*
X183370001Y-101744999D02*
X182245000Y-102870000D01*
X183370001Y-83675001D02*
X183370001Y-101744999D01*
X182245000Y-82550000D02*
X183370001Y-83675001D01*
X180830001Y-101744999D02*
X179705000Y-102870000D01*
X180830001Y-83675001D02*
X180830001Y-101744999D01*
X179705000Y-82550000D02*
X180830001Y-83675001D01*
X157970001Y-81424999D02*
X156845000Y-82550000D01*
X165879999Y-81424999D02*
X157970001Y-81424999D01*
X167005000Y-82550000D02*
X165879999Y-81424999D01*
X161925000Y-85090000D02*
X156845000Y-85090000D01*
X164465000Y-82550000D02*
X161925000Y-85090000D01*
X168275000Y-88900000D02*
X159385000Y-88900000D01*
X169545000Y-90170000D02*
X168275000Y-88900000D01*
X158115000Y-91440000D02*
X156845000Y-92710000D01*
X159385000Y-91440000D02*
X158115000Y-91440000D01*
D26*
X140335000Y-57150000D02*
X161290000Y-57150000D01*
X161290000Y-57150000D02*
X182880000Y-57150000D01*
X182880000Y-57150000D02*
X203200000Y-57150000D01*
X203200000Y-57150000D02*
X205105000Y-59055000D01*
X205105000Y-59055000D02*
X205105000Y-80010000D01*
X127000000Y-50800000D02*
X147955000Y-50800000D01*
X147955000Y-50800000D02*
X168910000Y-50800000D01*
X168910000Y-50800000D02*
X189865000Y-50800000D01*
X189865000Y-50800000D02*
X201930000Y-50800000D01*
X211455000Y-60325000D02*
X211455000Y-67310000D01*
X201930000Y-50800000D02*
X211455000Y-60325000D01*
D25*
X184150000Y-74930000D02*
X191135000Y-81915000D01*
X172720000Y-74930000D02*
X184150000Y-74930000D01*
X167005000Y-90170000D02*
X167005000Y-91440000D01*
X164465000Y-92710000D02*
X167005000Y-95250000D01*
X164465000Y-91470003D02*
X164465000Y-92710000D01*
X178579999Y-89044999D02*
X179705000Y-90170000D01*
X178579999Y-82299997D02*
X178579999Y-89044999D01*
X176290002Y-80010000D02*
X178579999Y-82299997D01*
X175260000Y-80010000D02*
X176290002Y-80010000D01*
X173363886Y-76200000D02*
X178439443Y-81275557D01*
X171450000Y-76200000D02*
X173363886Y-76200000D01*
X177165000Y-84455000D02*
X177165000Y-90170000D01*
X170815000Y-83820000D02*
X165735000Y-83820000D01*
X172085000Y-82550000D02*
X170815000Y-83820000D01*
X175260000Y-80645000D02*
X175895000Y-81280000D01*
X172720000Y-80645000D02*
X175260000Y-80645000D01*
X175895000Y-88900000D02*
X174625000Y-90170000D01*
X175895000Y-85090000D02*
X175895000Y-88900000D01*
X172720000Y-84455000D02*
X168275000Y-84455000D01*
X174625000Y-82550000D02*
X172720000Y-84455000D01*
X172085000Y-86360000D02*
X172720000Y-85725000D01*
X172085000Y-90170000D02*
X172085000Y-86360000D01*
X174625000Y-85090000D02*
X170815000Y-85090000D01*
X177165000Y-82550000D02*
X174625000Y-85090000D01*
X170815000Y-80645000D02*
X170180000Y-80010000D01*
X170815000Y-81915000D02*
X170815000Y-80645000D01*
D24*
X122174000Y-88900000D02*
X122428000Y-89154000D01*
X118745000Y-88900000D02*
X122174000Y-88900000D01*
X122047000Y-94615000D02*
X122428000Y-94234000D01*
X118745000Y-94615000D02*
X122047000Y-94615000D01*
M02*
