G04 #@! TF.GenerationSoftware,KiCad,Pcbnew,(5.1.10-0-10_14)*
G04 #@! TF.CreationDate,2021-07-28T15:02:55+02:00*
G04 #@! TF.ProjectId,pre-amp-discret,7072652d-616d-4702-9d64-697363726574,rev?*
G04 #@! TF.SameCoordinates,Original*
G04 #@! TF.FileFunction,Copper,L2,Bot*
G04 #@! TF.FilePolarity,Positive*
%FSLAX46Y46*%
G04 Gerber Fmt 4.6, Leading zero omitted, Abs format (unit mm)*
G04 Created by KiCad (PCBNEW (5.1.10-0-10_14)) date 2021-07-28 15:02:55*
%MOMM*%
%LPD*%
G01*
G04 APERTURE LIST*
G04 #@! TA.AperFunction,ComponentPad*
%ADD10C,2.000000*%
G04 #@! TD*
G04 #@! TA.AperFunction,ComponentPad*
%ADD11C,1.600000*%
G04 #@! TD*
G04 #@! TA.AperFunction,ViaPad*
%ADD12C,0.600000*%
G04 #@! TD*
G04 #@! TA.AperFunction,ViaPad*
%ADD13C,0.800000*%
G04 #@! TD*
G04 #@! TA.AperFunction,Conductor*
%ADD14C,0.500000*%
G04 #@! TD*
G04 #@! TA.AperFunction,Conductor*
%ADD15C,0.250000*%
G04 #@! TD*
G04 APERTURE END LIST*
D10*
X184327800Y-117398800D03*
X184492900Y-122618500D03*
X198374000Y-121920000D03*
X125603000Y-127508000D03*
X198374000Y-130810000D03*
X125603000Y-119634000D03*
X198374000Y-113030000D03*
D11*
X133858000Y-127491500D03*
X133858000Y-122491500D03*
D12*
X171678600Y-105994200D03*
X167614600Y-105994200D03*
X155333700Y-111582200D03*
X172016500Y-119893000D03*
X176657000Y-109855000D03*
X146481800Y-107010200D03*
X138455400Y-119240300D03*
X138493500Y-130632200D03*
X165232200Y-137901800D03*
X169743000Y-137901800D03*
D13*
X155422600Y-132638800D03*
D12*
X167447000Y-120843000D03*
X167449500Y-123634500D03*
X178435000Y-129984500D03*
X146494500Y-140589000D03*
X164020500Y-130873500D03*
X145585100Y-132186600D03*
X144322800Y-131813300D03*
X144335500Y-118021100D03*
X161544000Y-119888000D03*
X160159700Y-124701300D03*
X155511500Y-124650500D03*
X176593500Y-119341900D03*
X176606200Y-125945900D03*
X178498500Y-122593100D03*
X168973500Y-122618002D03*
X162687000Y-122618500D03*
X171069000Y-122618500D03*
X169672000Y-127304800D03*
X172986700Y-131800600D03*
X175602900Y-129184400D03*
X169672000Y-116014500D03*
X166547800Y-113106200D03*
X144251600Y-117073600D03*
X144843500Y-113118900D03*
X157019428Y-127967047D03*
X144957800Y-125412500D03*
X143522700Y-125399800D03*
X141884400Y-122923300D03*
X140766800Y-119824500D03*
X147383500Y-119951500D03*
X144947800Y-119951500D03*
X143697800Y-119837200D03*
X144947800Y-123939300D03*
X141903200Y-127095500D03*
X141922500Y-125056900D03*
X153797000Y-116827300D03*
X148272500Y-134366000D03*
X148272500Y-132080000D03*
X140779500Y-133731000D03*
X177231200Y-124650500D03*
X175981200Y-124650500D03*
X170297000Y-124650500D03*
X169047000Y-124650500D03*
X168338500Y-123317000D03*
D14*
X171678600Y-105994200D02*
X167487600Y-105994200D01*
X178587400Y-106019600D02*
X178612800Y-105994200D01*
X191338200Y-105994200D02*
X198374000Y-113030000D01*
X178612800Y-105994200D02*
X191338200Y-105994200D01*
X155359100Y-105994200D02*
X155346400Y-106006900D01*
X167614600Y-105994200D02*
X155359100Y-105994200D01*
X155346400Y-111569500D02*
X155333700Y-111582200D01*
X155346400Y-106006900D02*
X155346400Y-111569500D01*
X176923700Y-106019600D02*
X176961800Y-105981500D01*
D15*
X171678600Y-119555100D02*
X172016500Y-119893000D01*
X171678600Y-105994200D02*
X171678600Y-119555100D01*
D14*
X176657000Y-106006900D02*
X176644300Y-105994200D01*
X176657000Y-109855000D02*
X176657000Y-106006900D01*
X176644300Y-105994200D02*
X171678600Y-105994200D01*
X178612800Y-105994200D02*
X176644300Y-105994200D01*
X147497800Y-105994200D02*
X146481800Y-107010200D01*
X155359100Y-105994200D02*
X147497800Y-105994200D01*
D15*
X133841500Y-127508000D02*
X133858000Y-127491500D01*
X125603000Y-127508000D02*
X133841500Y-127508000D01*
X138493500Y-119278400D02*
X138455400Y-119240300D01*
X133858000Y-122491500D02*
X136550400Y-125183900D01*
X136550400Y-125183900D02*
X138455400Y-125183900D01*
X138455400Y-125183900D02*
X138493500Y-125145800D01*
X138493500Y-125145800D02*
X138493500Y-119278400D01*
X138493500Y-130632200D02*
X138493500Y-125145800D01*
D14*
X191282200Y-137901800D02*
X198374000Y-130810000D01*
X179171600Y-137901800D02*
X191282200Y-137901800D01*
X165232200Y-137901800D02*
X165232200Y-137901800D01*
X165232200Y-137901800D02*
X155478600Y-137901800D01*
X169743000Y-137901800D02*
X167342700Y-137901800D01*
X167342700Y-137901800D02*
X165232200Y-137901800D01*
D15*
X167449500Y-137795000D02*
X167342700Y-137901800D01*
X167449500Y-123634500D02*
X167449500Y-137795000D01*
D14*
X178435000Y-129984500D02*
X178435000Y-137858500D01*
X178391700Y-137901800D02*
X169743000Y-137901800D01*
X178435000Y-137858500D02*
X178391700Y-137901800D01*
X179171600Y-137901800D02*
X178391700Y-137901800D01*
X152791400Y-140589000D02*
X155478600Y-137901800D01*
X146494500Y-140589000D02*
X152791400Y-140589000D01*
X155422600Y-137845800D02*
X155478600Y-137901800D01*
X155422600Y-132638800D02*
X155422600Y-137845800D01*
D15*
X146898200Y-130873500D02*
X145585100Y-132186600D01*
X164020500Y-130873500D02*
X146898200Y-130873500D01*
X144322800Y-118033800D02*
X144335500Y-118021100D01*
X144322800Y-131813300D02*
X144322800Y-124675900D01*
X160159700Y-121272300D02*
X161544000Y-119888000D01*
X160159700Y-124701300D02*
X160159700Y-121272300D01*
X144335500Y-124650500D02*
X144322800Y-124663200D01*
X155511500Y-124650500D02*
X144335500Y-124650500D01*
X144322800Y-124663200D02*
X144322800Y-118033800D01*
X144322800Y-124675900D02*
X144322800Y-124663200D01*
X176593500Y-122593100D02*
X176618900Y-122618500D01*
X176593500Y-119341900D02*
X176593500Y-122593100D01*
X176606200Y-122605800D02*
X176593500Y-122593100D01*
X176606200Y-125945900D02*
X176606200Y-122605800D01*
X176593500Y-122593100D02*
X178498500Y-122593100D01*
X176606200Y-122605800D02*
X176604996Y-122604596D01*
X162687498Y-122618002D02*
X162687000Y-122618500D01*
X168973500Y-122618002D02*
X162687498Y-122618002D01*
X176568100Y-122618500D02*
X176593500Y-122593100D01*
X171069000Y-122618500D02*
X176568100Y-122618500D01*
X172986700Y-131800600D02*
X175602900Y-129184400D01*
X169672000Y-127304800D02*
X169672000Y-116014500D01*
X166547800Y-113106200D02*
X166535100Y-113093500D01*
X144251600Y-113710800D02*
X144843500Y-113118900D01*
X144251600Y-117073600D02*
X144251600Y-113710800D01*
X166535100Y-113118900D02*
X166547800Y-113106200D01*
X144843500Y-113118900D02*
X166535100Y-113118900D01*
X147512347Y-127967047D02*
X144957800Y-125412500D01*
X157019428Y-127967047D02*
X147512347Y-127967047D01*
X141897100Y-123774200D02*
X143522700Y-125399800D01*
X141897100Y-122936000D02*
X141884400Y-122923300D01*
X141897100Y-123774200D02*
X141897100Y-122936000D01*
X140703300Y-119900700D02*
X140817600Y-119786400D01*
X147383500Y-119951500D02*
X144947800Y-119951500D01*
X140779500Y-119837200D02*
X140766800Y-119824500D01*
X143697800Y-119837200D02*
X140779500Y-119837200D01*
X141909800Y-127088900D02*
X141903200Y-127095500D01*
X141922500Y-127076200D02*
X141903200Y-127095500D01*
X141922500Y-125056900D02*
X141922500Y-127076200D01*
X144947800Y-123939300D02*
X152059800Y-116827300D01*
X152059800Y-116827300D02*
X153797000Y-116827300D01*
X148272500Y-134366000D02*
X148272500Y-132080000D01*
X141414500Y-134366000D02*
X140779500Y-133731000D01*
X148272500Y-134366000D02*
X141414500Y-134366000D01*
X175981200Y-124650500D02*
X170297000Y-124650500D01*
X169047000Y-124650500D02*
X168338500Y-123942000D01*
X168338500Y-123942000D02*
X168338500Y-123317000D01*
M02*
