M48
; DRILL file {KiCad (5.1.10-0-10_14)} date Tuesday, October 12, 2021 at 07:37:23 PM
; FORMAT={-:-/ absolute / inch / decimal}
; #@! TF.CreationDate,2021-10-12T19:37:23+02:00
; #@! TF.GenerationSoftware,Kicad,Pcbnew,(5.1.10-0-10_14)
; #@! TF.FileFunction,Plated,1,2,PTH
FMAT,2
INCH
T1C0.0157
T2C0.0315
T3C0.0394
T4C0.0433
T5C0.0472
T6C0.0512
%
G90
G05
T1
X3.4931Y-2.4409
X3.494Y-2.564
X3.498Y-1.994
X3.596Y-2.0
X3.69Y-2.564
X3.694Y-2.0
X4.265Y-1.195
X4.4975Y-1.86
X4.56Y-2.835
X5.6075Y-2.735
X5.6125Y-1.96
T2
X4.99Y-2.645
X4.99Y-2.8419
X4.9925Y-1.8631
X4.9925Y-2.06
X5.1Y-2.255
X5.1Y-3.0325
X5.2Y-2.255
X5.2Y-3.0325
X5.3Y-2.255
X5.3Y-3.0325
X5.665Y-2.4641
X5.665Y-2.5625
X5.67Y-2.025
X5.67Y-2.1234
T3
X3.7225Y-3.4075
X3.735Y-1.195
X4.0875Y-1.195
X4.0875Y-3.4075
X4.5425Y-1.195
X4.895Y-1.195
X5.7525Y-2.285
X5.825Y-2.62
X5.8275Y-1.96
T4
X3.8075Y-3.1925
X3.81Y-1.41
X3.9075Y-3.1925
X3.91Y-1.41
X4.0075Y-3.1925
X4.01Y-1.41
X4.75Y-1.86
X4.75Y-1.96
X4.75Y-2.06
X4.75Y-2.735
X4.75Y-2.835
X4.75Y-2.935
T5
X4.11Y-1.8047
X4.11Y-2.1
X4.11Y-2.48
X4.11Y-2.7753
T6
X3.304Y-1.954
X3.306Y-2.648
X3.4Y-2.29
T0
M30
