G04 #@! TF.GenerationSoftware,KiCad,Pcbnew,(5.1.12-1-10_14)*
G04 #@! TF.CreationDate,2021-12-20T19:54:04+01:00*
G04 #@! TF.ProjectId,amp-mosfet-80w,616d702d-6d6f-4736-9665-742d3830772e,rev?*
G04 #@! TF.SameCoordinates,Original*
G04 #@! TF.FileFunction,Copper,L1,Top*
G04 #@! TF.FilePolarity,Positive*
%FSLAX46Y46*%
G04 Gerber Fmt 4.6, Leading zero omitted, Abs format (unit mm)*
G04 Created by KiCad (PCBNEW (5.1.12-1-10_14)) date 2021-12-20 19:54:04*
%MOMM*%
%LPD*%
G01*
G04 APERTURE LIST*
G04 #@! TA.AperFunction,SMDPad,CuDef*
%ADD10R,0.400000X0.650000*%
G04 #@! TD*
G04 #@! TA.AperFunction,SMDPad,CuDef*
%ADD11R,2.600000X2.100000*%
G04 #@! TD*
G04 #@! TA.AperFunction,ComponentPad*
%ADD12O,4.500000X2.500000*%
G04 #@! TD*
G04 #@! TA.AperFunction,ComponentPad*
%ADD13R,4.500000X2.500000*%
G04 #@! TD*
G04 #@! TA.AperFunction,SMDPad,CuDef*
%ADD14R,1.500000X2.000000*%
G04 #@! TD*
G04 #@! TA.AperFunction,SMDPad,CuDef*
%ADD15R,3.800000X2.000000*%
G04 #@! TD*
G04 #@! TA.AperFunction,SMDPad,CuDef*
%ADD16R,1.100000X1.100000*%
G04 #@! TD*
G04 #@! TA.AperFunction,SMDPad,CuDef*
%ADD17R,1.200000X0.900000*%
G04 #@! TD*
G04 #@! TA.AperFunction,SMDPad,CuDef*
%ADD18R,0.900000X1.200000*%
G04 #@! TD*
G04 #@! TA.AperFunction,ComponentPad*
%ADD19C,2.400000*%
G04 #@! TD*
G04 #@! TA.AperFunction,ComponentPad*
%ADD20R,2.400000X2.400000*%
G04 #@! TD*
G04 #@! TA.AperFunction,ComponentPad*
%ADD21C,2.000000*%
G04 #@! TD*
G04 #@! TA.AperFunction,ComponentPad*
%ADD22C,1.600000*%
G04 #@! TD*
G04 #@! TA.AperFunction,ComponentPad*
%ADD23C,1.440000*%
G04 #@! TD*
G04 #@! TA.AperFunction,ComponentPad*
%ADD24C,0.800000*%
G04 #@! TD*
G04 #@! TA.AperFunction,ComponentPad*
%ADD25C,6.400000*%
G04 #@! TD*
G04 #@! TA.AperFunction,ComponentPad*
%ADD26O,1.700000X1.700000*%
G04 #@! TD*
G04 #@! TA.AperFunction,ComponentPad*
%ADD27R,1.700000X1.700000*%
G04 #@! TD*
G04 #@! TA.AperFunction,ComponentPad*
%ADD28R,1.600000X1.600000*%
G04 #@! TD*
G04 #@! TA.AperFunction,ViaPad*
%ADD29C,0.800000*%
G04 #@! TD*
G04 #@! TA.AperFunction,ViaPad*
%ADD30C,0.600000*%
G04 #@! TD*
G04 #@! TA.AperFunction,Conductor*
%ADD31C,1.000000*%
G04 #@! TD*
G04 #@! TA.AperFunction,Conductor*
%ADD32C,3.000000*%
G04 #@! TD*
G04 #@! TA.AperFunction,Conductor*
%ADD33C,0.500000*%
G04 #@! TD*
G04 #@! TA.AperFunction,Conductor*
%ADD34C,0.250000*%
G04 #@! TD*
G04 #@! TA.AperFunction,Conductor*
%ADD35C,0.254000*%
G04 #@! TD*
G04 #@! TA.AperFunction,Conductor*
%ADD36C,0.100000*%
G04 #@! TD*
G04 APERTURE END LIST*
D10*
X170101500Y-78869500D03*
X171401500Y-78869500D03*
X170751500Y-80769500D03*
X170751500Y-78869500D03*
X171401500Y-80769500D03*
X170101500Y-80769500D03*
G04 #@! TA.AperFunction,SMDPad,CuDef*
G36*
G01*
X171383500Y-76638999D02*
X171383500Y-77539001D01*
G75*
G02*
X171133501Y-77789000I-249999J0D01*
G01*
X170433499Y-77789000D01*
G75*
G02*
X170183500Y-77539001I0J249999D01*
G01*
X170183500Y-76638999D01*
G75*
G02*
X170433499Y-76389000I249999J0D01*
G01*
X171133501Y-76389000D01*
G75*
G02*
X171383500Y-76638999I0J-249999D01*
G01*
G37*
G04 #@! TD.AperFunction*
G04 #@! TA.AperFunction,SMDPad,CuDef*
G36*
G01*
X173383500Y-76638999D02*
X173383500Y-77539001D01*
G75*
G02*
X173133501Y-77789000I-249999J0D01*
G01*
X172433499Y-77789000D01*
G75*
G02*
X172183500Y-77539001I0J249999D01*
G01*
X172183500Y-76638999D01*
G75*
G02*
X172433499Y-76389000I249999J0D01*
G01*
X173133501Y-76389000D01*
G75*
G02*
X173383500Y-76638999I0J-249999D01*
G01*
G37*
G04 #@! TD.AperFunction*
G04 #@! TA.AperFunction,SMDPad,CuDef*
G36*
G01*
X192624000Y-61779999D02*
X192624000Y-62680001D01*
G75*
G02*
X192374001Y-62930000I-249999J0D01*
G01*
X191673999Y-62930000D01*
G75*
G02*
X191424000Y-62680001I0J249999D01*
G01*
X191424000Y-61779999D01*
G75*
G02*
X191673999Y-61530000I249999J0D01*
G01*
X192374001Y-61530000D01*
G75*
G02*
X192624000Y-61779999I0J-249999D01*
G01*
G37*
G04 #@! TD.AperFunction*
G04 #@! TA.AperFunction,SMDPad,CuDef*
G36*
G01*
X194624000Y-61779999D02*
X194624000Y-62680001D01*
G75*
G02*
X194374001Y-62930000I-249999J0D01*
G01*
X193673999Y-62930000D01*
G75*
G02*
X193424000Y-62680001I0J249999D01*
G01*
X193424000Y-61779999D01*
G75*
G02*
X193673999Y-61530000I249999J0D01*
G01*
X194374001Y-61530000D01*
G75*
G02*
X194624000Y-61779999I0J-249999D01*
G01*
G37*
G04 #@! TD.AperFunction*
G04 #@! TA.AperFunction,SMDPad,CuDef*
G36*
G01*
X181171001Y-62973000D02*
X180270999Y-62973000D01*
G75*
G02*
X180021000Y-62723001I0J249999D01*
G01*
X180021000Y-62022999D01*
G75*
G02*
X180270999Y-61773000I249999J0D01*
G01*
X181171001Y-61773000D01*
G75*
G02*
X181421000Y-62022999I0J-249999D01*
G01*
X181421000Y-62723001D01*
G75*
G02*
X181171001Y-62973000I-249999J0D01*
G01*
G37*
G04 #@! TD.AperFunction*
G04 #@! TA.AperFunction,SMDPad,CuDef*
G36*
G01*
X181171001Y-64973000D02*
X180270999Y-64973000D01*
G75*
G02*
X180021000Y-64723001I0J249999D01*
G01*
X180021000Y-64022999D01*
G75*
G02*
X180270999Y-63773000I249999J0D01*
G01*
X181171001Y-63773000D01*
G75*
G02*
X181421000Y-64022999I0J-249999D01*
G01*
X181421000Y-64723001D01*
G75*
G02*
X181171001Y-64973000I-249999J0D01*
G01*
G37*
G04 #@! TD.AperFunction*
D11*
X159385000Y-81100000D03*
X159385000Y-76200000D03*
G04 #@! TA.AperFunction,SMDPad,CuDef*
G36*
G01*
X121536000Y-78480499D02*
X121536000Y-79380501D01*
G75*
G02*
X121286001Y-79630500I-249999J0D01*
G01*
X120585999Y-79630500D01*
G75*
G02*
X120336000Y-79380501I0J249999D01*
G01*
X120336000Y-78480499D01*
G75*
G02*
X120585999Y-78230500I249999J0D01*
G01*
X121286001Y-78230500D01*
G75*
G02*
X121536000Y-78480499I0J-249999D01*
G01*
G37*
G04 #@! TD.AperFunction*
G04 #@! TA.AperFunction,SMDPad,CuDef*
G36*
G01*
X123536000Y-78480499D02*
X123536000Y-79380501D01*
G75*
G02*
X123286001Y-79630500I-249999J0D01*
G01*
X122585999Y-79630500D01*
G75*
G02*
X122336000Y-79380501I0J249999D01*
G01*
X122336000Y-78480499D01*
G75*
G02*
X122585999Y-78230500I249999J0D01*
G01*
X123286001Y-78230500D01*
G75*
G02*
X123536000Y-78480499I0J-249999D01*
G01*
G37*
G04 #@! TD.AperFunction*
G04 #@! TA.AperFunction,SMDPad,CuDef*
G36*
G01*
X196497500Y-78480499D02*
X196497500Y-79380501D01*
G75*
G02*
X196247501Y-79630500I-249999J0D01*
G01*
X195547499Y-79630500D01*
G75*
G02*
X195297500Y-79380501I0J249999D01*
G01*
X195297500Y-78480499D01*
G75*
G02*
X195547499Y-78230500I249999J0D01*
G01*
X196247501Y-78230500D01*
G75*
G02*
X196497500Y-78480499I0J-249999D01*
G01*
G37*
G04 #@! TD.AperFunction*
G04 #@! TA.AperFunction,SMDPad,CuDef*
G36*
G01*
X198497500Y-78480499D02*
X198497500Y-79380501D01*
G75*
G02*
X198247501Y-79630500I-249999J0D01*
G01*
X197547499Y-79630500D01*
G75*
G02*
X197297500Y-79380501I0J249999D01*
G01*
X197297500Y-78480499D01*
G75*
G02*
X197547499Y-78230500I249999J0D01*
G01*
X198247501Y-78230500D01*
G75*
G02*
X198497500Y-78480499I0J-249999D01*
G01*
G37*
G04 #@! TD.AperFunction*
G04 #@! TA.AperFunction,SMDPad,CuDef*
G36*
G01*
X126114000Y-51885001D02*
X126114000Y-50984999D01*
G75*
G02*
X126363999Y-50735000I249999J0D01*
G01*
X127064001Y-50735000D01*
G75*
G02*
X127314000Y-50984999I0J-249999D01*
G01*
X127314000Y-51885001D01*
G75*
G02*
X127064001Y-52135000I-249999J0D01*
G01*
X126363999Y-52135000D01*
G75*
G02*
X126114000Y-51885001I0J249999D01*
G01*
G37*
G04 #@! TD.AperFunction*
G04 #@! TA.AperFunction,SMDPad,CuDef*
G36*
G01*
X124114000Y-51885001D02*
X124114000Y-50984999D01*
G75*
G02*
X124363999Y-50735000I249999J0D01*
G01*
X125064001Y-50735000D01*
G75*
G02*
X125314000Y-50984999I0J-249999D01*
G01*
X125314000Y-51885001D01*
G75*
G02*
X125064001Y-52135000I-249999J0D01*
G01*
X124363999Y-52135000D01*
G75*
G02*
X124114000Y-51885001I0J249999D01*
G01*
G37*
G04 #@! TD.AperFunction*
G04 #@! TA.AperFunction,SMDPad,CuDef*
G36*
G01*
X141789999Y-66551000D02*
X142690001Y-66551000D01*
G75*
G02*
X142940000Y-66800999I0J-249999D01*
G01*
X142940000Y-67501001D01*
G75*
G02*
X142690001Y-67751000I-249999J0D01*
G01*
X141789999Y-67751000D01*
G75*
G02*
X141540000Y-67501001I0J249999D01*
G01*
X141540000Y-66800999D01*
G75*
G02*
X141789999Y-66551000I249999J0D01*
G01*
G37*
G04 #@! TD.AperFunction*
G04 #@! TA.AperFunction,SMDPad,CuDef*
G36*
G01*
X141789999Y-64551000D02*
X142690001Y-64551000D01*
G75*
G02*
X142940000Y-64800999I0J-249999D01*
G01*
X142940000Y-65501001D01*
G75*
G02*
X142690001Y-65751000I-249999J0D01*
G01*
X141789999Y-65751000D01*
G75*
G02*
X141540000Y-65501001I0J249999D01*
G01*
X141540000Y-64800999D01*
G75*
G02*
X141789999Y-64551000I249999J0D01*
G01*
G37*
G04 #@! TD.AperFunction*
G04 #@! TA.AperFunction,SMDPad,CuDef*
G36*
G01*
X154997999Y-69726000D02*
X155898001Y-69726000D01*
G75*
G02*
X156148000Y-69975999I0J-249999D01*
G01*
X156148000Y-70676001D01*
G75*
G02*
X155898001Y-70926000I-249999J0D01*
G01*
X154997999Y-70926000D01*
G75*
G02*
X154748000Y-70676001I0J249999D01*
G01*
X154748000Y-69975999D01*
G75*
G02*
X154997999Y-69726000I249999J0D01*
G01*
G37*
G04 #@! TD.AperFunction*
G04 #@! TA.AperFunction,SMDPad,CuDef*
G36*
G01*
X154997999Y-67726000D02*
X155898001Y-67726000D01*
G75*
G02*
X156148000Y-67975999I0J-249999D01*
G01*
X156148000Y-68676001D01*
G75*
G02*
X155898001Y-68926000I-249999J0D01*
G01*
X154997999Y-68926000D01*
G75*
G02*
X154748000Y-68676001I0J249999D01*
G01*
X154748000Y-67975999D01*
G75*
G02*
X154997999Y-67726000I249999J0D01*
G01*
G37*
G04 #@! TD.AperFunction*
G04 #@! TA.AperFunction,SMDPad,CuDef*
G36*
G01*
X154997999Y-73790000D02*
X155898001Y-73790000D01*
G75*
G02*
X156148000Y-74039999I0J-249999D01*
G01*
X156148000Y-74740001D01*
G75*
G02*
X155898001Y-74990000I-249999J0D01*
G01*
X154997999Y-74990000D01*
G75*
G02*
X154748000Y-74740001I0J249999D01*
G01*
X154748000Y-74039999D01*
G75*
G02*
X154997999Y-73790000I249999J0D01*
G01*
G37*
G04 #@! TD.AperFunction*
G04 #@! TA.AperFunction,SMDPad,CuDef*
G36*
G01*
X154997999Y-71790000D02*
X155898001Y-71790000D01*
G75*
G02*
X156148000Y-72039999I0J-249999D01*
G01*
X156148000Y-72740001D01*
G75*
G02*
X155898001Y-72990000I-249999J0D01*
G01*
X154997999Y-72990000D01*
G75*
G02*
X154748000Y-72740001I0J249999D01*
G01*
X154748000Y-72039999D01*
G75*
G02*
X154997999Y-71790000I249999J0D01*
G01*
G37*
G04 #@! TD.AperFunction*
G04 #@! TA.AperFunction,SMDPad,CuDef*
G36*
G01*
X158459000Y-61732000D02*
X158459000Y-62982000D01*
G75*
G02*
X158209000Y-63232000I-250000J0D01*
G01*
X157409000Y-63232000D01*
G75*
G02*
X157159000Y-62982000I0J250000D01*
G01*
X157159000Y-61732000D01*
G75*
G02*
X157409000Y-61482000I250000J0D01*
G01*
X158209000Y-61482000D01*
G75*
G02*
X158459000Y-61732000I0J-250000D01*
G01*
G37*
G04 #@! TD.AperFunction*
G04 #@! TA.AperFunction,SMDPad,CuDef*
G36*
G01*
X161559000Y-61732000D02*
X161559000Y-62982000D01*
G75*
G02*
X161309000Y-63232000I-250000J0D01*
G01*
X160509000Y-63232000D01*
G75*
G02*
X160259000Y-62982000I0J250000D01*
G01*
X160259000Y-61732000D01*
G75*
G02*
X160509000Y-61482000I250000J0D01*
G01*
X161309000Y-61482000D01*
G75*
G02*
X161559000Y-61732000I0J-250000D01*
G01*
G37*
G04 #@! TD.AperFunction*
G04 #@! TA.AperFunction,SMDPad,CuDef*
G36*
G01*
X179321000Y-70987499D02*
X179321000Y-71887501D01*
G75*
G02*
X179071001Y-72137500I-249999J0D01*
G01*
X178370999Y-72137500D01*
G75*
G02*
X178121000Y-71887501I0J249999D01*
G01*
X178121000Y-70987499D01*
G75*
G02*
X178370999Y-70737500I249999J0D01*
G01*
X179071001Y-70737500D01*
G75*
G02*
X179321000Y-70987499I0J-249999D01*
G01*
G37*
G04 #@! TD.AperFunction*
G04 #@! TA.AperFunction,SMDPad,CuDef*
G36*
G01*
X181321000Y-70987499D02*
X181321000Y-71887501D01*
G75*
G02*
X181071001Y-72137500I-249999J0D01*
G01*
X180370999Y-72137500D01*
G75*
G02*
X180121000Y-71887501I0J249999D01*
G01*
X180121000Y-70987499D01*
G75*
G02*
X180370999Y-70737500I249999J0D01*
G01*
X181071001Y-70737500D01*
G75*
G02*
X181321000Y-70987499I0J-249999D01*
G01*
G37*
G04 #@! TD.AperFunction*
G04 #@! TA.AperFunction,SMDPad,CuDef*
G36*
G01*
X144205500Y-79813999D02*
X144205500Y-80714001D01*
G75*
G02*
X143955501Y-80964000I-249999J0D01*
G01*
X143255499Y-80964000D01*
G75*
G02*
X143005500Y-80714001I0J249999D01*
G01*
X143005500Y-79813999D01*
G75*
G02*
X143255499Y-79564000I249999J0D01*
G01*
X143955501Y-79564000D01*
G75*
G02*
X144205500Y-79813999I0J-249999D01*
G01*
G37*
G04 #@! TD.AperFunction*
G04 #@! TA.AperFunction,SMDPad,CuDef*
G36*
G01*
X146205500Y-79813999D02*
X146205500Y-80714001D01*
G75*
G02*
X145955501Y-80964000I-249999J0D01*
G01*
X145255499Y-80964000D01*
G75*
G02*
X145005500Y-80714001I0J249999D01*
G01*
X145005500Y-79813999D01*
G75*
G02*
X145255499Y-79564000I249999J0D01*
G01*
X145955501Y-79564000D01*
G75*
G02*
X146205500Y-79813999I0J-249999D01*
G01*
G37*
G04 #@! TD.AperFunction*
G04 #@! TA.AperFunction,SMDPad,CuDef*
G36*
G01*
X146869999Y-76028500D02*
X147770001Y-76028500D01*
G75*
G02*
X148020000Y-76278499I0J-249999D01*
G01*
X148020000Y-76978501D01*
G75*
G02*
X147770001Y-77228500I-249999J0D01*
G01*
X146869999Y-77228500D01*
G75*
G02*
X146620000Y-76978501I0J249999D01*
G01*
X146620000Y-76278499D01*
G75*
G02*
X146869999Y-76028500I249999J0D01*
G01*
G37*
G04 #@! TD.AperFunction*
G04 #@! TA.AperFunction,SMDPad,CuDef*
G36*
G01*
X146869999Y-74028500D02*
X147770001Y-74028500D01*
G75*
G02*
X148020000Y-74278499I0J-249999D01*
G01*
X148020000Y-74978501D01*
G75*
G02*
X147770001Y-75228500I-249999J0D01*
G01*
X146869999Y-75228500D01*
G75*
G02*
X146620000Y-74978501I0J249999D01*
G01*
X146620000Y-74278499D01*
G75*
G02*
X146869999Y-74028500I249999J0D01*
G01*
G37*
G04 #@! TD.AperFunction*
G04 #@! TA.AperFunction,SMDPad,CuDef*
G36*
G01*
X137408499Y-66551000D02*
X138308501Y-66551000D01*
G75*
G02*
X138558500Y-66800999I0J-249999D01*
G01*
X138558500Y-67501001D01*
G75*
G02*
X138308501Y-67751000I-249999J0D01*
G01*
X137408499Y-67751000D01*
G75*
G02*
X137158500Y-67501001I0J249999D01*
G01*
X137158500Y-66800999D01*
G75*
G02*
X137408499Y-66551000I249999J0D01*
G01*
G37*
G04 #@! TD.AperFunction*
G04 #@! TA.AperFunction,SMDPad,CuDef*
G36*
G01*
X137408499Y-64551000D02*
X138308501Y-64551000D01*
G75*
G02*
X138558500Y-64800999I0J-249999D01*
G01*
X138558500Y-65501001D01*
G75*
G02*
X138308501Y-65751000I-249999J0D01*
G01*
X137408499Y-65751000D01*
G75*
G02*
X137158500Y-65501001I0J249999D01*
G01*
X137158500Y-64800999D01*
G75*
G02*
X137408499Y-64551000I249999J0D01*
G01*
G37*
G04 #@! TD.AperFunction*
G04 #@! TA.AperFunction,SMDPad,CuDef*
G36*
G01*
X170301499Y-83791500D02*
X171201501Y-83791500D01*
G75*
G02*
X171451500Y-84041499I0J-249999D01*
G01*
X171451500Y-84741501D01*
G75*
G02*
X171201501Y-84991500I-249999J0D01*
G01*
X170301499Y-84991500D01*
G75*
G02*
X170051500Y-84741501I0J249999D01*
G01*
X170051500Y-84041499D01*
G75*
G02*
X170301499Y-83791500I249999J0D01*
G01*
G37*
G04 #@! TD.AperFunction*
G04 #@! TA.AperFunction,SMDPad,CuDef*
G36*
G01*
X170301499Y-81791500D02*
X171201501Y-81791500D01*
G75*
G02*
X171451500Y-82041499I0J-249999D01*
G01*
X171451500Y-82741501D01*
G75*
G02*
X171201501Y-82991500I-249999J0D01*
G01*
X170301499Y-82991500D01*
G75*
G02*
X170051500Y-82741501I0J249999D01*
G01*
X170051500Y-82041499D01*
G75*
G02*
X170301499Y-81791500I249999J0D01*
G01*
G37*
G04 #@! TD.AperFunction*
G04 #@! TA.AperFunction,SMDPad,CuDef*
G36*
G01*
X142996499Y-83728000D02*
X143896501Y-83728000D01*
G75*
G02*
X144146500Y-83977999I0J-249999D01*
G01*
X144146500Y-84678001D01*
G75*
G02*
X143896501Y-84928000I-249999J0D01*
G01*
X142996499Y-84928000D01*
G75*
G02*
X142746500Y-84678001I0J249999D01*
G01*
X142746500Y-83977999D01*
G75*
G02*
X142996499Y-83728000I249999J0D01*
G01*
G37*
G04 #@! TD.AperFunction*
G04 #@! TA.AperFunction,SMDPad,CuDef*
G36*
G01*
X142996499Y-81728000D02*
X143896501Y-81728000D01*
G75*
G02*
X144146500Y-81977999I0J-249999D01*
G01*
X144146500Y-82678001D01*
G75*
G02*
X143896501Y-82928000I-249999J0D01*
G01*
X142996499Y-82928000D01*
G75*
G02*
X142746500Y-82678001I0J249999D01*
G01*
X142746500Y-81977999D01*
G75*
G02*
X142996499Y-81728000I249999J0D01*
G01*
G37*
G04 #@! TD.AperFunction*
G04 #@! TA.AperFunction,SMDPad,CuDef*
G36*
G01*
X142996499Y-87506000D02*
X143896501Y-87506000D01*
G75*
G02*
X144146500Y-87755999I0J-249999D01*
G01*
X144146500Y-88456001D01*
G75*
G02*
X143896501Y-88706000I-249999J0D01*
G01*
X142996499Y-88706000D01*
G75*
G02*
X142746500Y-88456001I0J249999D01*
G01*
X142746500Y-87755999D01*
G75*
G02*
X142996499Y-87506000I249999J0D01*
G01*
G37*
G04 #@! TD.AperFunction*
G04 #@! TA.AperFunction,SMDPad,CuDef*
G36*
G01*
X142996499Y-85506000D02*
X143896501Y-85506000D01*
G75*
G02*
X144146500Y-85755999I0J-249999D01*
G01*
X144146500Y-86456001D01*
G75*
G02*
X143896501Y-86706000I-249999J0D01*
G01*
X142996499Y-86706000D01*
G75*
G02*
X142746500Y-86456001I0J249999D01*
G01*
X142746500Y-85755999D01*
G75*
G02*
X142996499Y-85506000I249999J0D01*
G01*
G37*
G04 #@! TD.AperFunction*
D12*
X197485000Y-51308000D03*
X197485000Y-56758000D03*
D13*
X197485000Y-62208000D03*
D12*
X121285000Y-62335000D03*
X121285000Y-56885000D03*
D13*
X121285000Y-51435000D03*
D14*
X137654000Y-60021000D03*
X142254000Y-60021000D03*
X139954000Y-60021000D03*
D15*
X139954000Y-53721000D03*
D14*
X176135000Y-60021000D03*
X180735000Y-60021000D03*
X178435000Y-60021000D03*
D15*
X178435000Y-53721000D03*
D14*
X168642000Y-71451000D03*
X173242000Y-71451000D03*
X170942000Y-71451000D03*
D15*
X170942000Y-65151000D03*
D14*
X150128000Y-65151000D03*
X145528000Y-65151000D03*
X147828000Y-65151000D03*
D15*
X147828000Y-71451000D03*
D10*
X144005500Y-76632000D03*
X145305500Y-76632000D03*
X144655500Y-78532000D03*
X144655500Y-76632000D03*
X145305500Y-78532000D03*
X144005500Y-78532000D03*
D16*
X122942000Y-76644500D03*
X120142000Y-76644500D03*
X198691500Y-76644500D03*
X195891500Y-76644500D03*
D17*
X152527000Y-51308000D03*
X152527000Y-54608000D03*
D18*
X155828000Y-56896000D03*
X152528000Y-56896000D03*
X162942000Y-56896000D03*
X166242000Y-56896000D03*
D17*
X166243000Y-51308000D03*
X166243000Y-54608000D03*
G04 #@! TA.AperFunction,SMDPad,CuDef*
G36*
G01*
X152814000Y-69813500D02*
X153764000Y-69813500D01*
G75*
G02*
X154014000Y-70063500I0J-250000D01*
G01*
X154014000Y-70738500D01*
G75*
G02*
X153764000Y-70988500I-250000J0D01*
G01*
X152814000Y-70988500D01*
G75*
G02*
X152564000Y-70738500I0J250000D01*
G01*
X152564000Y-70063500D01*
G75*
G02*
X152814000Y-69813500I250000J0D01*
G01*
G37*
G04 #@! TD.AperFunction*
G04 #@! TA.AperFunction,SMDPad,CuDef*
G36*
G01*
X152814000Y-67738500D02*
X153764000Y-67738500D01*
G75*
G02*
X154014000Y-67988500I0J-250000D01*
G01*
X154014000Y-68663500D01*
G75*
G02*
X153764000Y-68913500I-250000J0D01*
G01*
X152814000Y-68913500D01*
G75*
G02*
X152564000Y-68663500I0J250000D01*
G01*
X152564000Y-67988500D01*
G75*
G02*
X152814000Y-67738500I250000J0D01*
G01*
G37*
G04 #@! TD.AperFunction*
D19*
X120904000Y-84836000D03*
D20*
X120904000Y-89836000D03*
D19*
X197866000Y-89772500D03*
D20*
X197866000Y-84772500D03*
G04 #@! TA.AperFunction,SMDPad,CuDef*
G36*
G01*
X197956500Y-60038000D02*
X197956500Y-59088000D01*
G75*
G02*
X198206500Y-58838000I250000J0D01*
G01*
X198881500Y-58838000D01*
G75*
G02*
X199131500Y-59088000I0J-250000D01*
G01*
X199131500Y-60038000D01*
G75*
G02*
X198881500Y-60288000I-250000J0D01*
G01*
X198206500Y-60288000D01*
G75*
G02*
X197956500Y-60038000I0J250000D01*
G01*
G37*
G04 #@! TD.AperFunction*
G04 #@! TA.AperFunction,SMDPad,CuDef*
G36*
G01*
X195881500Y-60038000D02*
X195881500Y-59088000D01*
G75*
G02*
X196131500Y-58838000I250000J0D01*
G01*
X196806500Y-58838000D01*
G75*
G02*
X197056500Y-59088000I0J-250000D01*
G01*
X197056500Y-60038000D01*
G75*
G02*
X196806500Y-60288000I-250000J0D01*
G01*
X196131500Y-60288000D01*
G75*
G02*
X195881500Y-60038000I0J250000D01*
G01*
G37*
G04 #@! TD.AperFunction*
G04 #@! TA.AperFunction,SMDPad,CuDef*
G36*
G01*
X139366500Y-63213000D02*
X139366500Y-62263000D01*
G75*
G02*
X139616500Y-62013000I250000J0D01*
G01*
X140291500Y-62013000D01*
G75*
G02*
X140541500Y-62263000I0J-250000D01*
G01*
X140541500Y-63213000D01*
G75*
G02*
X140291500Y-63463000I-250000J0D01*
G01*
X139616500Y-63463000D01*
G75*
G02*
X139366500Y-63213000I0J250000D01*
G01*
G37*
G04 #@! TD.AperFunction*
G04 #@! TA.AperFunction,SMDPad,CuDef*
G36*
G01*
X137291500Y-63213000D02*
X137291500Y-62263000D01*
G75*
G02*
X137541500Y-62013000I250000J0D01*
G01*
X138216500Y-62013000D01*
G75*
G02*
X138466500Y-62263000I0J-250000D01*
G01*
X138466500Y-63213000D01*
G75*
G02*
X138216500Y-63463000I-250000J0D01*
G01*
X137541500Y-63463000D01*
G75*
G02*
X137291500Y-63213000I0J250000D01*
G01*
G37*
G04 #@! TD.AperFunction*
D21*
X143446500Y-91821000D03*
X135890000Y-91821000D03*
D22*
X113665000Y-74104500D03*
X113665000Y-79104500D03*
X204978000Y-79104500D03*
X204978000Y-74104500D03*
D23*
X156718000Y-51308000D03*
X159258000Y-51308000D03*
X161798000Y-51308000D03*
D24*
X206929056Y-94060944D03*
X205232000Y-93358000D03*
X203534944Y-94060944D03*
X202832000Y-95758000D03*
X203534944Y-97455056D03*
X205232000Y-98158000D03*
X206929056Y-97455056D03*
X207632000Y-95758000D03*
D25*
X205232000Y-95758000D03*
D24*
X115108056Y-93933944D03*
X113411000Y-93231000D03*
X111713944Y-93933944D03*
X111011000Y-95631000D03*
X111713944Y-97328056D03*
X113411000Y-98031000D03*
X115108056Y-97328056D03*
X115811000Y-95631000D03*
D25*
X113411000Y-95631000D03*
D26*
X117284500Y-76644500D03*
D27*
X117284500Y-74104500D03*
D26*
X201485500Y-74104500D03*
D27*
X201485500Y-76644500D03*
G04 #@! TA.AperFunction,ComponentPad*
G36*
G01*
X157498500Y-97711999D02*
X157498500Y-94312001D01*
G75*
G02*
X157748501Y-94062000I250001J0D01*
G01*
X161148499Y-94062000D01*
G75*
G02*
X161398500Y-94312001I0J-250001D01*
G01*
X161398500Y-97711999D01*
G75*
G02*
X161148499Y-97962000I-250001J0D01*
G01*
X157748501Y-97962000D01*
G75*
G02*
X157498500Y-97711999I0J250001D01*
G01*
G37*
G04 #@! TD.AperFunction*
G04 #@! TA.AperFunction,ComponentPad*
G36*
G01*
X157498500Y-87551999D02*
X157498500Y-84152001D01*
G75*
G02*
X157748501Y-83902000I250001J0D01*
G01*
X161148499Y-83902000D01*
G75*
G02*
X161398500Y-84152001I0J-250001D01*
G01*
X161398500Y-87551999D01*
G75*
G02*
X161148499Y-87802000I-250001J0D01*
G01*
X157748501Y-87802000D01*
G75*
G02*
X157498500Y-87551999I0J250001D01*
G01*
G37*
G04 #@! TD.AperFunction*
G04 #@! TA.AperFunction,ComponentPad*
G36*
G01*
X157435000Y-58595999D02*
X157435000Y-55196001D01*
G75*
G02*
X157685001Y-54946000I250001J0D01*
G01*
X161084999Y-54946000D01*
G75*
G02*
X161335000Y-55196001I0J-250001D01*
G01*
X161335000Y-58595999D01*
G75*
G02*
X161084999Y-58846000I-250001J0D01*
G01*
X157685001Y-58846000D01*
G75*
G02*
X157435000Y-58595999I0J250001D01*
G01*
G37*
G04 #@! TD.AperFunction*
G04 #@! TA.AperFunction,ComponentPad*
G36*
G01*
X111715000Y-71422999D02*
X111715000Y-68023001D01*
G75*
G02*
X111965001Y-67773000I250001J0D01*
G01*
X115364999Y-67773000D01*
G75*
G02*
X115615000Y-68023001I0J-250001D01*
G01*
X115615000Y-71422999D01*
G75*
G02*
X115364999Y-71673000I-250001J0D01*
G01*
X111965001Y-71673000D01*
G75*
G02*
X111715000Y-71422999I0J250001D01*
G01*
G37*
G04 #@! TD.AperFunction*
G04 #@! TA.AperFunction,ComponentPad*
G36*
G01*
X203028000Y-71422999D02*
X203028000Y-68023001D01*
G75*
G02*
X203278001Y-67773000I250001J0D01*
G01*
X206677999Y-67773000D01*
G75*
G02*
X206928000Y-68023001I0J-250001D01*
G01*
X206928000Y-71422999D01*
G75*
G02*
X206677999Y-71673000I-250001J0D01*
G01*
X203278001Y-71673000D01*
G75*
G02*
X203028000Y-71422999I0J250001D01*
G01*
G37*
G04 #@! TD.AperFunction*
D22*
X159385000Y-73326000D03*
X159385000Y-68326000D03*
X129286000Y-84836000D03*
X129286000Y-89836000D03*
X189230000Y-89789000D03*
X189230000Y-84789000D03*
X161718000Y-46609000D03*
X156718000Y-46609000D03*
X155448000Y-81835000D03*
X155448000Y-76835000D03*
X150939500Y-81883000D03*
D28*
X150939500Y-79883000D03*
D22*
X156798000Y-65151000D03*
X161798000Y-65151000D03*
X146367500Y-88121500D03*
X146367500Y-83121500D03*
X135890000Y-86106000D03*
X140890000Y-86106000D03*
D29*
X137858500Y-64008000D03*
D30*
X142748000Y-76644500D03*
X146621500Y-78549500D03*
X150114000Y-67056000D03*
X168846500Y-78867000D03*
X148844000Y-74612500D03*
D31*
X140890000Y-86106000D02*
X143446500Y-86106000D01*
X143446500Y-86106000D02*
X143446500Y-84328000D01*
D32*
X113665000Y-88632998D02*
X122695002Y-97663000D01*
X113665000Y-79104500D02*
X113665000Y-88632998D01*
X157797500Y-97663000D02*
X159448500Y-96012000D01*
X122695002Y-97663000D02*
X157797500Y-97663000D01*
X204978000Y-88759998D02*
X196201998Y-97536000D01*
X204978000Y-79104500D02*
X204978000Y-88759998D01*
X160972500Y-97536000D02*
X159448500Y-96012000D01*
X196201998Y-97536000D02*
X160972500Y-97536000D01*
X159385000Y-85788500D02*
X159448500Y-85852000D01*
X159385000Y-81100000D02*
X159385000Y-85788500D01*
D33*
X159448500Y-96012000D02*
X159448500Y-95694500D01*
D31*
X159448500Y-96012000D02*
X162687000Y-96012000D01*
X170751500Y-87947500D02*
X170751500Y-84391500D01*
X162687000Y-96012000D02*
X170751500Y-87947500D01*
X143446500Y-91821000D02*
X143446500Y-88106000D01*
X146352000Y-88106000D02*
X146367500Y-88121500D01*
X143446500Y-88106000D02*
X146352000Y-88106000D01*
X145574000Y-82328000D02*
X146367500Y-83121500D01*
X143446500Y-82328000D02*
X145574000Y-82328000D01*
D34*
X144655500Y-81119000D02*
X143446500Y-82328000D01*
X144655500Y-78532000D02*
X144655500Y-81119000D01*
D31*
X156798000Y-65151000D02*
X154702500Y-63055500D01*
X154702500Y-63055500D02*
X148082000Y-63055500D01*
X147828000Y-63309500D02*
X147828000Y-65151000D01*
X148082000Y-63055500D02*
X147828000Y-63309500D01*
X156798000Y-63368000D02*
X157809000Y-62357000D01*
X156798000Y-65151000D02*
X156798000Y-63368000D01*
X147828000Y-65151000D02*
X147828000Y-71451000D01*
D33*
X170942000Y-65151000D02*
X171005000Y-65151000D01*
D31*
X176135000Y-60021000D02*
X173024000Y-60021000D01*
X170942000Y-62103000D02*
X170942000Y-65151000D01*
X173024000Y-60021000D02*
X170942000Y-62103000D01*
X170942000Y-71451000D02*
X170942000Y-65151000D01*
X170942000Y-71451000D02*
X168642000Y-71451000D01*
X161798000Y-63246000D02*
X160909000Y-62357000D01*
X161798000Y-65151000D02*
X161798000Y-63246000D01*
X170942000Y-65151000D02*
X161798000Y-65151000D01*
X155448000Y-76835000D02*
X155448000Y-74390000D01*
X155448000Y-72390000D02*
X155448000Y-70326000D01*
X153364000Y-70326000D02*
X153289000Y-70401000D01*
X155448000Y-70326000D02*
X153364000Y-70326000D01*
D34*
X145158990Y-75553510D02*
X152284490Y-75553510D01*
X152284490Y-75553510D02*
X155448000Y-72390000D01*
X144655500Y-76057000D02*
X145158990Y-75553510D01*
X144655500Y-76632000D02*
X144655500Y-76057000D01*
D31*
X196469000Y-57774000D02*
X197485000Y-56758000D01*
X196469000Y-59563000D02*
X196469000Y-57774000D01*
X162942000Y-56896000D02*
X159385000Y-56896000D01*
X155828000Y-56896000D02*
X159385000Y-56896000D01*
X159385000Y-68326000D02*
X155448000Y-68326000D01*
X155448000Y-68326000D02*
X153289000Y-68326000D01*
X178435000Y-60021000D02*
X178435000Y-53721000D01*
X178435000Y-53721000D02*
X181292500Y-53721000D01*
X189801500Y-62230000D02*
X192024000Y-62230000D01*
X181292500Y-53721000D02*
X189801500Y-62230000D01*
X176022000Y-51308000D02*
X178435000Y-53721000D01*
X166243000Y-51308000D02*
X176022000Y-51308000D01*
X166243000Y-51308000D02*
X161798000Y-51308000D01*
X156718000Y-51308000D02*
X152527000Y-51308000D01*
X142367000Y-51308000D02*
X139954000Y-53721000D01*
X152527000Y-51308000D02*
X142367000Y-51308000D01*
X139954000Y-60021000D02*
X139954000Y-53721000D01*
X137668000Y-51435000D02*
X139954000Y-53721000D01*
X126714000Y-51435000D02*
X137668000Y-51435000D01*
X139954000Y-62738000D02*
X139954000Y-60021000D01*
D33*
X137654000Y-62513000D02*
X137879000Y-62738000D01*
D31*
X137879000Y-60246000D02*
X137654000Y-60021000D01*
X137879000Y-62738000D02*
X137879000Y-60246000D01*
X137858500Y-62758500D02*
X137879000Y-62738000D01*
X137858500Y-65151000D02*
X137858500Y-64008000D01*
X137858500Y-64008000D02*
X137858500Y-62758500D01*
D34*
X142760500Y-76632000D02*
X142748000Y-76644500D01*
X144005500Y-76632000D02*
X142760500Y-76632000D01*
D31*
X197866000Y-78962000D02*
X197897500Y-78930500D01*
X197866000Y-84772500D02*
X197866000Y-78962000D01*
D34*
X172783500Y-77487500D02*
X171401500Y-78869500D01*
X172783500Y-77089000D02*
X172783500Y-77487500D01*
D31*
X180721000Y-71437500D02*
X180721000Y-64373000D01*
X189230000Y-84789000D02*
X189230000Y-74612500D01*
X186055000Y-71437500D02*
X180721000Y-71437500D01*
X189230000Y-74612500D02*
X186055000Y-71437500D01*
X189230000Y-84789000D02*
X181530000Y-77089000D01*
X181530000Y-77089000D02*
X172783500Y-77089000D01*
X120904000Y-78962500D02*
X120936000Y-78930500D01*
X120904000Y-84836000D02*
X120904000Y-78962500D01*
X133858000Y-80264000D02*
X129286000Y-84836000D01*
X143605500Y-80264000D02*
X133858000Y-80264000D01*
X129286000Y-75723500D02*
X137858500Y-67151000D01*
X129286000Y-84836000D02*
X129286000Y-75723500D01*
X137858500Y-67151000D02*
X142240000Y-67151000D01*
D32*
X159385000Y-73326000D02*
X159385000Y-76200000D01*
D31*
X198544000Y-61149000D02*
X197485000Y-62208000D01*
X198544000Y-59563000D02*
X198544000Y-61149000D01*
X194046000Y-62208000D02*
X194024000Y-62230000D01*
X197485000Y-62208000D02*
X194046000Y-62208000D01*
D33*
X166242000Y-54609000D02*
X166243000Y-54608000D01*
D31*
X166243000Y-56895000D02*
X166242000Y-56896000D01*
X166243000Y-54608000D02*
X166243000Y-56895000D01*
X152528000Y-54609000D02*
X152527000Y-54608000D01*
X152528000Y-56896000D02*
X152528000Y-54609000D01*
X201485500Y-76644500D02*
X198691500Y-76644500D01*
X195891500Y-78924500D02*
X195897500Y-78930500D01*
X195891500Y-76644500D02*
X195891500Y-78924500D01*
X122936000Y-76650500D02*
X122942000Y-76644500D01*
X122936000Y-78930500D02*
X122936000Y-76650500D01*
X120142000Y-76644500D02*
X117284500Y-76644500D01*
D34*
X145605500Y-78832000D02*
X145305500Y-78532000D01*
X145605500Y-80264000D02*
X145605500Y-78832000D01*
X146604000Y-78532000D02*
X146621500Y-78549500D01*
X145305500Y-78532000D02*
X146604000Y-78532000D01*
X150114000Y-65165000D02*
X150128000Y-65151000D01*
X150114000Y-67056000D02*
X150114000Y-65165000D01*
D31*
X124714000Y-51435000D02*
X121285000Y-51435000D01*
D32*
X204978000Y-69723000D02*
X204978000Y-54165500D01*
X202120500Y-51308000D02*
X197485000Y-51308000D01*
X204978000Y-54165500D02*
X202120500Y-51308000D01*
X113665000Y-69723000D02*
X113665000Y-65595500D01*
X116925500Y-62335000D02*
X121285000Y-62335000D01*
X113665000Y-65595500D02*
X116925500Y-62335000D01*
D34*
X147316500Y-76632000D02*
X147320000Y-76628500D01*
X145305500Y-76632000D02*
X147316500Y-76632000D01*
X145305500Y-77207000D02*
X145042500Y-77470000D01*
X145305500Y-76632000D02*
X145305500Y-77207000D01*
X144005500Y-77957000D02*
X144005500Y-78532000D01*
X144492500Y-77470000D02*
X144005500Y-77957000D01*
X145042500Y-77470000D02*
X144492500Y-77470000D01*
X168849000Y-78869500D02*
X168846500Y-78867000D01*
X170101500Y-78869500D02*
X168849000Y-78869500D01*
X148828000Y-74628500D02*
X148844000Y-74612500D01*
X147320000Y-74628500D02*
X148828000Y-74628500D01*
D31*
X145528000Y-65151000D02*
X142240000Y-65151000D01*
X142240000Y-60035000D02*
X142254000Y-60021000D01*
X142240000Y-65151000D02*
X142240000Y-60035000D01*
X173255500Y-71437500D02*
X173242000Y-71451000D01*
X178721000Y-71437500D02*
X173255500Y-71437500D01*
X180721000Y-60035000D02*
X180735000Y-60021000D01*
X180721000Y-62373000D02*
X180721000Y-60035000D01*
D34*
X170751500Y-82391500D02*
X170751500Y-80769500D01*
X170751500Y-80769500D02*
X171401500Y-80769500D01*
X170751500Y-79329502D02*
X170751500Y-78869500D01*
X170101500Y-79979502D02*
X170751500Y-79329502D01*
X170101500Y-80769500D02*
X170101500Y-79979502D01*
X170751500Y-77121000D02*
X170783500Y-77089000D01*
X170751500Y-78869500D02*
X170751500Y-77121000D01*
D35*
X191135000Y-57405215D02*
X168275000Y-57625023D01*
X168275000Y-54721000D01*
X175896928Y-54721000D01*
X175909188Y-54845482D01*
X175945498Y-54965180D01*
X176004463Y-55075494D01*
X176083815Y-55172185D01*
X176180506Y-55251537D01*
X176290820Y-55310502D01*
X176410518Y-55346812D01*
X176535000Y-55359072D01*
X178149250Y-55356000D01*
X178308000Y-55197250D01*
X178308000Y-53848000D01*
X178562000Y-53848000D01*
X178562000Y-55197250D01*
X178720750Y-55356000D01*
X180335000Y-55359072D01*
X180459482Y-55346812D01*
X180579180Y-55310502D01*
X180689494Y-55251537D01*
X180786185Y-55172185D01*
X180865537Y-55075494D01*
X180924502Y-54965180D01*
X180960812Y-54845482D01*
X180973072Y-54721000D01*
X180970000Y-54006750D01*
X180811250Y-53848000D01*
X178562000Y-53848000D01*
X178308000Y-53848000D01*
X176058750Y-53848000D01*
X175900000Y-54006750D01*
X175896928Y-54721000D01*
X168275000Y-54721000D01*
X168275000Y-52721000D01*
X175896928Y-52721000D01*
X175900000Y-53435250D01*
X176058750Y-53594000D01*
X178308000Y-53594000D01*
X178308000Y-52244750D01*
X178562000Y-52244750D01*
X178562000Y-53594000D01*
X180811250Y-53594000D01*
X180970000Y-53435250D01*
X180973072Y-52721000D01*
X180960812Y-52596518D01*
X180924502Y-52476820D01*
X180865537Y-52366506D01*
X180786185Y-52269815D01*
X180689494Y-52190463D01*
X180579180Y-52131498D01*
X180459482Y-52095188D01*
X180335000Y-52082928D01*
X178720750Y-52086000D01*
X178562000Y-52244750D01*
X178308000Y-52244750D01*
X178149250Y-52086000D01*
X176535000Y-52082928D01*
X176410518Y-52095188D01*
X176290820Y-52131498D01*
X176180506Y-52190463D01*
X176083815Y-52269815D01*
X176004463Y-52366506D01*
X175945498Y-52476820D01*
X175909188Y-52596518D01*
X175896928Y-52721000D01*
X168275000Y-52721000D01*
X168275000Y-45496535D01*
X191135000Y-45276727D01*
X191135000Y-57405215D01*
G04 #@! TA.AperFunction,Conductor*
D36*
G36*
X191135000Y-57405215D02*
G01*
X168275000Y-57625023D01*
X168275000Y-54721000D01*
X175896928Y-54721000D01*
X175909188Y-54845482D01*
X175945498Y-54965180D01*
X176004463Y-55075494D01*
X176083815Y-55172185D01*
X176180506Y-55251537D01*
X176290820Y-55310502D01*
X176410518Y-55346812D01*
X176535000Y-55359072D01*
X178149250Y-55356000D01*
X178308000Y-55197250D01*
X178308000Y-53848000D01*
X178562000Y-53848000D01*
X178562000Y-55197250D01*
X178720750Y-55356000D01*
X180335000Y-55359072D01*
X180459482Y-55346812D01*
X180579180Y-55310502D01*
X180689494Y-55251537D01*
X180786185Y-55172185D01*
X180865537Y-55075494D01*
X180924502Y-54965180D01*
X180960812Y-54845482D01*
X180973072Y-54721000D01*
X180970000Y-54006750D01*
X180811250Y-53848000D01*
X178562000Y-53848000D01*
X178308000Y-53848000D01*
X176058750Y-53848000D01*
X175900000Y-54006750D01*
X175896928Y-54721000D01*
X168275000Y-54721000D01*
X168275000Y-52721000D01*
X175896928Y-52721000D01*
X175900000Y-53435250D01*
X176058750Y-53594000D01*
X178308000Y-53594000D01*
X178308000Y-52244750D01*
X178562000Y-52244750D01*
X178562000Y-53594000D01*
X180811250Y-53594000D01*
X180970000Y-53435250D01*
X180973072Y-52721000D01*
X180960812Y-52596518D01*
X180924502Y-52476820D01*
X180865537Y-52366506D01*
X180786185Y-52269815D01*
X180689494Y-52190463D01*
X180579180Y-52131498D01*
X180459482Y-52095188D01*
X180335000Y-52082928D01*
X178720750Y-52086000D01*
X178562000Y-52244750D01*
X178308000Y-52244750D01*
X178149250Y-52086000D01*
X176535000Y-52082928D01*
X176410518Y-52095188D01*
X176290820Y-52131498D01*
X176180506Y-52190463D01*
X176083815Y-52269815D01*
X176004463Y-52366506D01*
X175945498Y-52476820D01*
X175909188Y-52596518D01*
X175896928Y-52721000D01*
X168275000Y-52721000D01*
X168275000Y-45496535D01*
X191135000Y-45276727D01*
X191135000Y-57405215D01*
G37*
G04 #@! TD.AperFunction*
D35*
X150495000Y-57087986D02*
X129159000Y-57338997D01*
X129159000Y-54721000D01*
X137415928Y-54721000D01*
X137428188Y-54845482D01*
X137464498Y-54965180D01*
X137523463Y-55075494D01*
X137602815Y-55172185D01*
X137699506Y-55251537D01*
X137809820Y-55310502D01*
X137929518Y-55346812D01*
X138054000Y-55359072D01*
X139668250Y-55356000D01*
X139827000Y-55197250D01*
X139827000Y-53848000D01*
X140081000Y-53848000D01*
X140081000Y-55197250D01*
X140239750Y-55356000D01*
X141854000Y-55359072D01*
X141978482Y-55346812D01*
X142098180Y-55310502D01*
X142208494Y-55251537D01*
X142305185Y-55172185D01*
X142384537Y-55075494D01*
X142443502Y-54965180D01*
X142479812Y-54845482D01*
X142492072Y-54721000D01*
X142489000Y-54006750D01*
X142330250Y-53848000D01*
X140081000Y-53848000D01*
X139827000Y-53848000D01*
X137577750Y-53848000D01*
X137419000Y-54006750D01*
X137415928Y-54721000D01*
X129159000Y-54721000D01*
X129159000Y-52721000D01*
X137415928Y-52721000D01*
X137419000Y-53435250D01*
X137577750Y-53594000D01*
X139827000Y-53594000D01*
X139827000Y-52244750D01*
X140081000Y-52244750D01*
X140081000Y-53594000D01*
X142330250Y-53594000D01*
X142489000Y-53435250D01*
X142492072Y-52721000D01*
X142479812Y-52596518D01*
X142443502Y-52476820D01*
X142384537Y-52366506D01*
X142305185Y-52269815D01*
X142208494Y-52190463D01*
X142098180Y-52131498D01*
X141978482Y-52095188D01*
X141854000Y-52082928D01*
X140239750Y-52086000D01*
X140081000Y-52244750D01*
X139827000Y-52244750D01*
X139668250Y-52086000D01*
X138054000Y-52082928D01*
X137929518Y-52095188D01*
X137809820Y-52131498D01*
X137699506Y-52190463D01*
X137602815Y-52269815D01*
X137523463Y-52366506D01*
X137464498Y-52476820D01*
X137428188Y-52596518D01*
X137415928Y-52721000D01*
X129159000Y-52721000D01*
X129159000Y-45274014D01*
X132305200Y-45237000D01*
X150495000Y-45237000D01*
X150495000Y-57087986D01*
G04 #@! TA.AperFunction,Conductor*
D36*
G36*
X150495000Y-57087986D02*
G01*
X129159000Y-57338997D01*
X129159000Y-54721000D01*
X137415928Y-54721000D01*
X137428188Y-54845482D01*
X137464498Y-54965180D01*
X137523463Y-55075494D01*
X137602815Y-55172185D01*
X137699506Y-55251537D01*
X137809820Y-55310502D01*
X137929518Y-55346812D01*
X138054000Y-55359072D01*
X139668250Y-55356000D01*
X139827000Y-55197250D01*
X139827000Y-53848000D01*
X140081000Y-53848000D01*
X140081000Y-55197250D01*
X140239750Y-55356000D01*
X141854000Y-55359072D01*
X141978482Y-55346812D01*
X142098180Y-55310502D01*
X142208494Y-55251537D01*
X142305185Y-55172185D01*
X142384537Y-55075494D01*
X142443502Y-54965180D01*
X142479812Y-54845482D01*
X142492072Y-54721000D01*
X142489000Y-54006750D01*
X142330250Y-53848000D01*
X140081000Y-53848000D01*
X139827000Y-53848000D01*
X137577750Y-53848000D01*
X137419000Y-54006750D01*
X137415928Y-54721000D01*
X129159000Y-54721000D01*
X129159000Y-52721000D01*
X137415928Y-52721000D01*
X137419000Y-53435250D01*
X137577750Y-53594000D01*
X139827000Y-53594000D01*
X139827000Y-52244750D01*
X140081000Y-52244750D01*
X140081000Y-53594000D01*
X142330250Y-53594000D01*
X142489000Y-53435250D01*
X142492072Y-52721000D01*
X142479812Y-52596518D01*
X142443502Y-52476820D01*
X142384537Y-52366506D01*
X142305185Y-52269815D01*
X142208494Y-52190463D01*
X142098180Y-52131498D01*
X141978482Y-52095188D01*
X141854000Y-52082928D01*
X140239750Y-52086000D01*
X140081000Y-52244750D01*
X139827000Y-52244750D01*
X139668250Y-52086000D01*
X138054000Y-52082928D01*
X137929518Y-52095188D01*
X137809820Y-52131498D01*
X137699506Y-52190463D01*
X137602815Y-52269815D01*
X137523463Y-52366506D01*
X137464498Y-52476820D01*
X137428188Y-52596518D01*
X137415928Y-52721000D01*
X129159000Y-52721000D01*
X129159000Y-45274014D01*
X132305200Y-45237000D01*
X150495000Y-45237000D01*
X150495000Y-57087986D01*
G37*
G04 #@! TD.AperFunction*
D35*
X179108179Y-68326000D02*
X164122185Y-68326000D01*
X164108840Y-66151000D01*
X168403928Y-66151000D01*
X168416188Y-66275482D01*
X168452498Y-66395180D01*
X168511463Y-66505494D01*
X168590815Y-66602185D01*
X168687506Y-66681537D01*
X168797820Y-66740502D01*
X168917518Y-66776812D01*
X169042000Y-66789072D01*
X170656250Y-66786000D01*
X170815000Y-66627250D01*
X170815000Y-65278000D01*
X171069000Y-65278000D01*
X171069000Y-66627250D01*
X171227750Y-66786000D01*
X172842000Y-66789072D01*
X172966482Y-66776812D01*
X173086180Y-66740502D01*
X173196494Y-66681537D01*
X173293185Y-66602185D01*
X173372537Y-66505494D01*
X173431502Y-66395180D01*
X173467812Y-66275482D01*
X173480072Y-66151000D01*
X173477000Y-65436750D01*
X173318250Y-65278000D01*
X171069000Y-65278000D01*
X170815000Y-65278000D01*
X168565750Y-65278000D01*
X168407000Y-65436750D01*
X168403928Y-66151000D01*
X164108840Y-66151000D01*
X164096569Y-64151000D01*
X168403928Y-64151000D01*
X168407000Y-64865250D01*
X168565750Y-65024000D01*
X170815000Y-65024000D01*
X170815000Y-63674750D01*
X171069000Y-63674750D01*
X171069000Y-65024000D01*
X173318250Y-65024000D01*
X173477000Y-64865250D01*
X173480072Y-64151000D01*
X173467812Y-64026518D01*
X173431502Y-63906820D01*
X173372537Y-63796506D01*
X173293185Y-63699815D01*
X173196494Y-63620463D01*
X173086180Y-63561498D01*
X172966482Y-63525188D01*
X172842000Y-63512928D01*
X171227750Y-63516000D01*
X171069000Y-63674750D01*
X170815000Y-63674750D01*
X170656250Y-63516000D01*
X169042000Y-63512928D01*
X168917518Y-63525188D01*
X168797820Y-63561498D01*
X168687506Y-63620463D01*
X168590815Y-63699815D01*
X168511463Y-63796506D01*
X168452498Y-63906820D01*
X168416188Y-64026518D01*
X168403928Y-64151000D01*
X164096569Y-64151000D01*
X164084782Y-62230000D01*
X179070776Y-62230000D01*
X179108179Y-68326000D01*
G04 #@! TA.AperFunction,Conductor*
D36*
G36*
X179108179Y-68326000D02*
G01*
X164122185Y-68326000D01*
X164108840Y-66151000D01*
X168403928Y-66151000D01*
X168416188Y-66275482D01*
X168452498Y-66395180D01*
X168511463Y-66505494D01*
X168590815Y-66602185D01*
X168687506Y-66681537D01*
X168797820Y-66740502D01*
X168917518Y-66776812D01*
X169042000Y-66789072D01*
X170656250Y-66786000D01*
X170815000Y-66627250D01*
X170815000Y-65278000D01*
X171069000Y-65278000D01*
X171069000Y-66627250D01*
X171227750Y-66786000D01*
X172842000Y-66789072D01*
X172966482Y-66776812D01*
X173086180Y-66740502D01*
X173196494Y-66681537D01*
X173293185Y-66602185D01*
X173372537Y-66505494D01*
X173431502Y-66395180D01*
X173467812Y-66275482D01*
X173480072Y-66151000D01*
X173477000Y-65436750D01*
X173318250Y-65278000D01*
X171069000Y-65278000D01*
X170815000Y-65278000D01*
X168565750Y-65278000D01*
X168407000Y-65436750D01*
X168403928Y-66151000D01*
X164108840Y-66151000D01*
X164096569Y-64151000D01*
X168403928Y-64151000D01*
X168407000Y-64865250D01*
X168565750Y-65024000D01*
X170815000Y-65024000D01*
X170815000Y-63674750D01*
X171069000Y-63674750D01*
X171069000Y-65024000D01*
X173318250Y-65024000D01*
X173477000Y-64865250D01*
X173480072Y-64151000D01*
X173467812Y-64026518D01*
X173431502Y-63906820D01*
X173372537Y-63796506D01*
X173293185Y-63699815D01*
X173196494Y-63620463D01*
X173086180Y-63561498D01*
X172966482Y-63525188D01*
X172842000Y-63512928D01*
X171227750Y-63516000D01*
X171069000Y-63674750D01*
X170815000Y-63674750D01*
X170656250Y-63516000D01*
X169042000Y-63512928D01*
X168917518Y-63525188D01*
X168797820Y-63561498D01*
X168687506Y-63620463D01*
X168590815Y-63699815D01*
X168511463Y-63796506D01*
X168452498Y-63906820D01*
X168416188Y-64026518D01*
X168403928Y-64151000D01*
X164096569Y-64151000D01*
X164084782Y-62230000D01*
X179070776Y-62230000D01*
X179108179Y-68326000D01*
G37*
G04 #@! TD.AperFunction*
D35*
X151930179Y-74612500D02*
X149779000Y-74612500D01*
X149779000Y-74520411D01*
X149743068Y-74339771D01*
X149672586Y-74169611D01*
X149570262Y-74016472D01*
X149440028Y-73886238D01*
X149286889Y-73783914D01*
X149116729Y-73713432D01*
X148936089Y-73677500D01*
X148751911Y-73677500D01*
X148571271Y-73713432D01*
X148480451Y-73751051D01*
X148397962Y-73650538D01*
X148263387Y-73540095D01*
X148109851Y-73458028D01*
X147943255Y-73407492D01*
X147770001Y-73390428D01*
X146869999Y-73390428D01*
X146696745Y-73407492D01*
X146530149Y-73458028D01*
X146376613Y-73540095D01*
X146242038Y-73650538D01*
X146131595Y-73785113D01*
X146049528Y-73938649D01*
X145998992Y-74105245D01*
X145981928Y-74278499D01*
X145981928Y-74612500D01*
X138004205Y-74612500D01*
X137990943Y-72451000D01*
X145289928Y-72451000D01*
X145302188Y-72575482D01*
X145338498Y-72695180D01*
X145397463Y-72805494D01*
X145476815Y-72902185D01*
X145573506Y-72981537D01*
X145683820Y-73040502D01*
X145803518Y-73076812D01*
X145928000Y-73089072D01*
X147542250Y-73086000D01*
X147701000Y-72927250D01*
X147701000Y-71578000D01*
X147955000Y-71578000D01*
X147955000Y-72927250D01*
X148113750Y-73086000D01*
X149728000Y-73089072D01*
X149852482Y-73076812D01*
X149972180Y-73040502D01*
X150082494Y-72981537D01*
X150179185Y-72902185D01*
X150258537Y-72805494D01*
X150317502Y-72695180D01*
X150353812Y-72575482D01*
X150366072Y-72451000D01*
X150363000Y-71736750D01*
X150204250Y-71578000D01*
X147955000Y-71578000D01*
X147701000Y-71578000D01*
X145451750Y-71578000D01*
X145293000Y-71736750D01*
X145289928Y-72451000D01*
X137990943Y-72451000D01*
X137978672Y-70451000D01*
X145289928Y-70451000D01*
X145293000Y-71165250D01*
X145451750Y-71324000D01*
X147701000Y-71324000D01*
X147701000Y-69974750D01*
X147955000Y-69974750D01*
X147955000Y-71324000D01*
X150204250Y-71324000D01*
X150363000Y-71165250D01*
X150366072Y-70451000D01*
X150353812Y-70326518D01*
X150317502Y-70206820D01*
X150258537Y-70096506D01*
X150179185Y-69999815D01*
X150082494Y-69920463D01*
X149972180Y-69861498D01*
X149852482Y-69825188D01*
X149728000Y-69812928D01*
X148113750Y-69816000D01*
X147955000Y-69974750D01*
X147701000Y-69974750D01*
X147542250Y-69816000D01*
X145928000Y-69812928D01*
X145803518Y-69825188D01*
X145683820Y-69861498D01*
X145573506Y-69920463D01*
X145476815Y-69999815D01*
X145397463Y-70096506D01*
X145338498Y-70206820D01*
X145302188Y-70326518D01*
X145289928Y-70451000D01*
X137978672Y-70451000D01*
X137967603Y-68647029D01*
X138098132Y-68516500D01*
X151892776Y-68516500D01*
X151930179Y-74612500D01*
G04 #@! TA.AperFunction,Conductor*
D36*
G36*
X151930179Y-74612500D02*
G01*
X149779000Y-74612500D01*
X149779000Y-74520411D01*
X149743068Y-74339771D01*
X149672586Y-74169611D01*
X149570262Y-74016472D01*
X149440028Y-73886238D01*
X149286889Y-73783914D01*
X149116729Y-73713432D01*
X148936089Y-73677500D01*
X148751911Y-73677500D01*
X148571271Y-73713432D01*
X148480451Y-73751051D01*
X148397962Y-73650538D01*
X148263387Y-73540095D01*
X148109851Y-73458028D01*
X147943255Y-73407492D01*
X147770001Y-73390428D01*
X146869999Y-73390428D01*
X146696745Y-73407492D01*
X146530149Y-73458028D01*
X146376613Y-73540095D01*
X146242038Y-73650538D01*
X146131595Y-73785113D01*
X146049528Y-73938649D01*
X145998992Y-74105245D01*
X145981928Y-74278499D01*
X145981928Y-74612500D01*
X138004205Y-74612500D01*
X137990943Y-72451000D01*
X145289928Y-72451000D01*
X145302188Y-72575482D01*
X145338498Y-72695180D01*
X145397463Y-72805494D01*
X145476815Y-72902185D01*
X145573506Y-72981537D01*
X145683820Y-73040502D01*
X145803518Y-73076812D01*
X145928000Y-73089072D01*
X147542250Y-73086000D01*
X147701000Y-72927250D01*
X147701000Y-71578000D01*
X147955000Y-71578000D01*
X147955000Y-72927250D01*
X148113750Y-73086000D01*
X149728000Y-73089072D01*
X149852482Y-73076812D01*
X149972180Y-73040502D01*
X150082494Y-72981537D01*
X150179185Y-72902185D01*
X150258537Y-72805494D01*
X150317502Y-72695180D01*
X150353812Y-72575482D01*
X150366072Y-72451000D01*
X150363000Y-71736750D01*
X150204250Y-71578000D01*
X147955000Y-71578000D01*
X147701000Y-71578000D01*
X145451750Y-71578000D01*
X145293000Y-71736750D01*
X145289928Y-72451000D01*
X137990943Y-72451000D01*
X137978672Y-70451000D01*
X145289928Y-70451000D01*
X145293000Y-71165250D01*
X145451750Y-71324000D01*
X147701000Y-71324000D01*
X147701000Y-69974750D01*
X147955000Y-69974750D01*
X147955000Y-71324000D01*
X150204250Y-71324000D01*
X150363000Y-71165250D01*
X150366072Y-70451000D01*
X150353812Y-70326518D01*
X150317502Y-70206820D01*
X150258537Y-70096506D01*
X150179185Y-69999815D01*
X150082494Y-69920463D01*
X149972180Y-69861498D01*
X149852482Y-69825188D01*
X149728000Y-69812928D01*
X148113750Y-69816000D01*
X147955000Y-69974750D01*
X147701000Y-69974750D01*
X147542250Y-69816000D01*
X145928000Y-69812928D01*
X145803518Y-69825188D01*
X145683820Y-69861498D01*
X145573506Y-69920463D01*
X145476815Y-69999815D01*
X145397463Y-70096506D01*
X145338498Y-70206820D01*
X145302188Y-70326518D01*
X145289928Y-70451000D01*
X137978672Y-70451000D01*
X137967603Y-68647029D01*
X138098132Y-68516500D01*
X151892776Y-68516500D01*
X151930179Y-74612500D01*
G37*
G04 #@! TD.AperFunction*
M02*
