G04 #@! TF.GenerationSoftware,KiCad,Pcbnew,(5.1.10-0-10_14)*
G04 #@! TF.CreationDate,2021-05-19T18:15:00+02:00*
G04 #@! TF.ProjectId,pre-amp-discret,7072652d-616d-4702-9d64-697363726574,rev?*
G04 #@! TF.SameCoordinates,Original*
G04 #@! TF.FileFunction,Copper,L2,Bot*
G04 #@! TF.FilePolarity,Positive*
%FSLAX46Y46*%
G04 Gerber Fmt 4.6, Leading zero omitted, Abs format (unit mm)*
G04 Created by KiCad (PCBNEW (5.1.10-0-10_14)) date 2021-05-19 18:15:00*
%MOMM*%
%LPD*%
G01*
G04 APERTURE LIST*
G04 #@! TA.AperFunction,ComponentPad*
%ADD10C,1.600000*%
G04 #@! TD*
G04 #@! TA.AperFunction,ComponentPad*
%ADD11R,1.050000X1.500000*%
G04 #@! TD*
G04 #@! TA.AperFunction,ComponentPad*
%ADD12O,1.050000X1.500000*%
G04 #@! TD*
G04 #@! TA.AperFunction,ComponentPad*
%ADD13R,1.600000X1.600000*%
G04 #@! TD*
G04 #@! TA.AperFunction,ComponentPad*
%ADD14C,2.000000*%
G04 #@! TD*
G04 #@! TA.AperFunction,ViaPad*
%ADD15C,0.600000*%
G04 #@! TD*
G04 #@! TA.AperFunction,Conductor*
%ADD16C,0.500000*%
G04 #@! TD*
G04 #@! TA.AperFunction,Conductor*
%ADD17C,0.250000*%
G04 #@! TD*
G04 APERTURE END LIST*
D10*
X180467000Y-107124500D03*
X185467000Y-107124500D03*
X181419500Y-119824500D03*
X181419500Y-124824500D03*
D11*
X183007000Y-133096000D03*
D12*
X180467000Y-133096000D03*
X181737000Y-133096000D03*
D11*
X180467000Y-111506000D03*
D12*
X183007000Y-111506000D03*
X181737000Y-111506000D03*
D11*
X180467000Y-129032000D03*
D12*
X183007000Y-129032000D03*
X181737000Y-129032000D03*
D11*
X183007000Y-115570000D03*
D12*
X180467000Y-115570000D03*
X181737000Y-115570000D03*
D10*
X177355500Y-99878000D03*
D13*
X177355500Y-103378000D03*
D10*
X167259000Y-140208000D03*
D13*
X167259000Y-143708000D03*
D10*
X167259000Y-99878000D03*
D13*
X167259000Y-103378000D03*
D10*
X143256000Y-140208000D03*
D13*
X143256000Y-143708000D03*
D10*
X143129000Y-99878000D03*
D13*
X143129000Y-103378000D03*
D10*
X176784000Y-140208000D03*
D13*
X176784000Y-143708000D03*
D10*
X150876000Y-145208000D03*
X150876000Y-140208000D03*
X150622000Y-103378000D03*
X150622000Y-98378000D03*
X188070500Y-137477500D03*
X183070500Y-137477500D03*
D14*
X190246000Y-114046000D03*
X190246000Y-121920000D03*
X198247000Y-121920000D03*
X125222000Y-121920000D03*
X198183500Y-133858000D03*
X125222000Y-114046000D03*
X198247000Y-109855000D03*
D10*
X128778000Y-121920000D03*
X133778000Y-121920000D03*
D15*
X171069000Y-108331000D03*
X152781000Y-106807000D03*
X147955000Y-107188000D03*
X140843000Y-109093000D03*
X153797000Y-118554500D03*
X158877000Y-111633000D03*
X158877000Y-109347000D03*
X176784000Y-134620000D03*
X157226000Y-133604000D03*
X148209000Y-134493000D03*
X140843000Y-136398000D03*
X154749500Y-123190000D03*
X158877000Y-129984500D03*
X158877000Y-132143500D03*
X146862800Y-131940300D03*
X146875500Y-111544100D03*
X161036000Y-119888000D03*
X180721000Y-121920000D03*
X165989000Y-121920000D03*
X144424400Y-116446300D03*
X155194000Y-128778000D03*
X148082000Y-125095000D03*
X145542000Y-125095000D03*
X144443200Y-127222500D03*
X152781000Y-113538000D03*
X148082000Y-118237000D03*
X143129000Y-118237000D03*
X178435000Y-113792000D03*
X171577000Y-131064000D03*
X149733000Y-131064000D03*
X185547000Y-116522500D03*
X146832400Y-110596600D03*
X149479000Y-110617000D03*
X173863000Y-110617000D03*
X185547000Y-127254000D03*
X141986000Y-111506000D03*
X141859000Y-131953000D03*
X140716000Y-121920000D03*
X160909000Y-122809000D03*
X181610000Y-122809000D03*
X184023000Y-122809000D03*
D16*
X191770000Y-103378000D02*
X198247000Y-109855000D01*
X177355500Y-103378000D02*
X191770000Y-103378000D01*
X177355500Y-104013000D02*
X180467000Y-107124500D01*
X177355500Y-103378000D02*
X177355500Y-104013000D01*
X180467000Y-107124500D02*
X180467000Y-111506000D01*
X167259000Y-103378000D02*
X158750000Y-103378000D01*
X171069000Y-103505000D02*
X170942000Y-103378000D01*
X171069000Y-108331000D02*
X171069000Y-103505000D01*
X170942000Y-103378000D02*
X167259000Y-103378000D01*
X177355500Y-103378000D02*
X170942000Y-103378000D01*
X143129000Y-103378000D02*
X143129000Y-103505000D01*
X152654000Y-103378000D02*
X150114000Y-103378000D01*
X152781000Y-103505000D02*
X152654000Y-103378000D01*
X152781000Y-106807000D02*
X152781000Y-103505000D01*
X158750000Y-103378000D02*
X152654000Y-103378000D01*
X147955000Y-107188000D02*
X147955000Y-103378000D01*
X147955000Y-103378000D02*
X143129000Y-103378000D01*
X150622000Y-103378000D02*
X147955000Y-103378000D01*
X140843000Y-105664000D02*
X143129000Y-103378000D01*
X140843000Y-109093000D02*
X140843000Y-105664000D01*
D17*
X153797000Y-116713000D02*
X158877000Y-111633000D01*
X153797000Y-118554500D02*
X153797000Y-116713000D01*
X158877000Y-103505000D02*
X158750000Y-103378000D01*
X158877000Y-109347000D02*
X158877000Y-103505000D01*
X125222000Y-121920000D02*
X128778000Y-121920000D01*
D16*
X191833500Y-140208000D02*
X198183500Y-133858000D01*
X183070500Y-133159500D02*
X183007000Y-133096000D01*
X183070500Y-137477500D02*
X183070500Y-133159500D01*
X183070500Y-137477500D02*
X183070500Y-140017500D01*
X183261000Y-140208000D02*
X191833500Y-140208000D01*
X183070500Y-140017500D02*
X183261000Y-140208000D01*
X176784000Y-140208000D02*
X183261000Y-140208000D01*
X176784000Y-140208000D02*
X167259000Y-140208000D01*
X176784000Y-140208000D02*
X176784000Y-134620000D01*
X160147000Y-140208000D02*
X167259000Y-140208000D01*
X157226000Y-133604000D02*
X157226000Y-140208000D01*
X157226000Y-140208000D02*
X150876000Y-140208000D01*
X148209000Y-140208000D02*
X143256000Y-140208000D01*
X148209000Y-134493000D02*
X148209000Y-140208000D01*
X150876000Y-140208000D02*
X148209000Y-140208000D01*
X140843000Y-137795000D02*
X143256000Y-140208000D01*
X140843000Y-136398000D02*
X140843000Y-137795000D01*
D17*
X154749500Y-125857000D02*
X158877000Y-129984500D01*
X154749500Y-123190000D02*
X154749500Y-125857000D01*
X158877000Y-140081000D02*
X158750000Y-140208000D01*
X158877000Y-132143500D02*
X158877000Y-140081000D01*
D16*
X158750000Y-140208000D02*
X157226000Y-140208000D01*
X160147000Y-140208000D02*
X158750000Y-140208000D01*
D17*
X146862800Y-111556800D02*
X146875500Y-111544100D01*
X161036000Y-119888000D02*
X146913600Y-119888000D01*
X146862800Y-119837200D02*
X146862800Y-111556800D01*
X146913600Y-119888000D02*
X146862800Y-119837200D01*
X146862800Y-131940300D02*
X146862800Y-119837200D01*
X180721000Y-121920000D02*
X170497500Y-121920000D01*
X170497500Y-121920000D02*
X165989000Y-121920000D01*
X144437100Y-116459000D02*
X144424400Y-116446300D01*
X144424400Y-116446300D02*
X144424400Y-117246400D01*
X144424400Y-117246400D02*
X145542000Y-118364000D01*
X145542000Y-118364000D02*
X145542000Y-125095000D01*
X151511000Y-125095000D02*
X148082000Y-125095000D01*
X155194000Y-128778000D02*
X151511000Y-125095000D01*
X144449800Y-127215900D02*
X144443200Y-127222500D01*
X144462500Y-127203200D02*
X144443200Y-127222500D01*
X144443200Y-127222500D02*
X144443200Y-127298200D01*
X144443200Y-127298200D02*
X143129000Y-125984000D01*
X143129000Y-125984000D02*
X143129000Y-118237000D01*
X152781000Y-113538000D02*
X148082000Y-118237000D01*
X183007000Y-118237000D02*
X183007000Y-115570000D01*
X181419500Y-119824500D02*
X183007000Y-118237000D01*
X181737000Y-111663095D02*
X181737000Y-111506000D01*
X183007000Y-112933095D02*
X181737000Y-111663095D01*
X183007000Y-113792000D02*
X178435000Y-113792000D01*
X183007000Y-115570000D02*
X183007000Y-113792000D01*
X183007000Y-113792000D02*
X183007000Y-112933095D01*
X180467000Y-125777000D02*
X180467000Y-129032000D01*
X181419500Y-124824500D02*
X180467000Y-125777000D01*
X171577000Y-131064000D02*
X149733000Y-131064000D01*
X183007000Y-123077002D02*
X180294499Y-120364501D01*
X180294499Y-115742501D02*
X180467000Y-115570000D01*
X180294499Y-120364501D02*
X180294499Y-115742501D01*
X183007000Y-129032000D02*
X183007000Y-123077002D01*
X185547000Y-114046000D02*
X185547000Y-116522500D01*
X183007000Y-111506000D02*
X185547000Y-114046000D01*
X146852800Y-110617000D02*
X146832400Y-110596600D01*
X149479000Y-110617000D02*
X173863000Y-110617000D01*
X185547000Y-127919095D02*
X185547000Y-127254000D01*
X182455990Y-130107010D02*
X183359085Y-130107010D01*
X180467000Y-132096000D02*
X182455990Y-130107010D01*
X183359085Y-130107010D02*
X185547000Y-127919095D01*
X180467000Y-133096000D02*
X180467000Y-132096000D01*
X140716000Y-112776000D02*
X141986000Y-111506000D01*
X141859000Y-131953000D02*
X140716000Y-130810000D01*
X140716000Y-121920000D02*
X140716000Y-112776000D01*
X140716000Y-130810000D02*
X140716000Y-121920000D01*
X160909000Y-122809000D02*
X181610000Y-122809000D01*
X189357000Y-122809000D02*
X190246000Y-121920000D01*
X184023000Y-122809000D02*
X189357000Y-122809000D01*
M02*
