G04 #@! TF.GenerationSoftware,KiCad,Pcbnew,(5.1.10-1-10_14)*
G04 #@! TF.CreationDate,2021-08-10T11:09:26+02:00*
G04 #@! TF.ProjectId,hv-power-supply-v1,68762d70-6f77-4657-922d-737570706c79,rev?*
G04 #@! TF.SameCoordinates,Original*
G04 #@! TF.FileFunction,Copper,L2,Bot*
G04 #@! TF.FilePolarity,Positive*
%FSLAX46Y46*%
G04 Gerber Fmt 4.6, Leading zero omitted, Abs format (unit mm)*
G04 Created by KiCad (PCBNEW (5.1.10-1-10_14)) date 2021-08-10 11:09:26*
%MOMM*%
%LPD*%
G01*
G04 APERTURE LIST*
G04 #@! TA.AperFunction,ComponentPad*
%ADD10C,2.400000*%
G04 #@! TD*
G04 #@! TA.AperFunction,ComponentPad*
%ADD11O,1.600000X1.600000*%
G04 #@! TD*
G04 #@! TA.AperFunction,ComponentPad*
%ADD12C,1.600000*%
G04 #@! TD*
G04 #@! TA.AperFunction,ComponentPad*
%ADD13C,1.440000*%
G04 #@! TD*
G04 #@! TA.AperFunction,ComponentPad*
%ADD14O,2.000000X1.905000*%
G04 #@! TD*
G04 #@! TA.AperFunction,ComponentPad*
%ADD15R,2.000000X1.905000*%
G04 #@! TD*
G04 #@! TA.AperFunction,ComponentPad*
%ADD16C,6.000000*%
G04 #@! TD*
G04 #@! TA.AperFunction,ComponentPad*
%ADD17C,4.000000*%
G04 #@! TD*
G04 #@! TA.AperFunction,ComponentPad*
%ADD18R,1.600000X1.600000*%
G04 #@! TD*
G04 #@! TA.AperFunction,ComponentPad*
%ADD19C,1.800000*%
G04 #@! TD*
G04 #@! TA.AperFunction,ComponentPad*
%ADD20R,1.800000X1.800000*%
G04 #@! TD*
G04 #@! TA.AperFunction,ComponentPad*
%ADD21O,2.400000X2.400000*%
G04 #@! TD*
G04 #@! TA.AperFunction,ComponentPad*
%ADD22C,2.000000*%
G04 #@! TD*
G04 #@! TA.AperFunction,ComponentPad*
%ADD23R,4.000000X4.000000*%
G04 #@! TD*
G04 #@! TA.AperFunction,ComponentPad*
%ADD24O,4.800600X2.400300*%
G04 #@! TD*
G04 #@! TA.AperFunction,ComponentPad*
%ADD25O,1.905000X2.000000*%
G04 #@! TD*
G04 #@! TA.AperFunction,ComponentPad*
%ADD26R,1.905000X2.000000*%
G04 #@! TD*
G04 #@! TA.AperFunction,ComponentPad*
%ADD27C,2.600000*%
G04 #@! TD*
G04 #@! TA.AperFunction,ComponentPad*
%ADD28O,2.500000X2.500000*%
G04 #@! TD*
G04 #@! TA.AperFunction,ComponentPad*
%ADD29R,2.500000X2.500000*%
G04 #@! TD*
G04 #@! TA.AperFunction,ComponentPad*
%ADD30O,1.800000X1.800000*%
G04 #@! TD*
G04 #@! TA.AperFunction,ViaPad*
%ADD31C,0.600000*%
G04 #@! TD*
G04 #@! TA.AperFunction,ViaPad*
%ADD32C,0.800000*%
G04 #@! TD*
G04 #@! TA.AperFunction,Conductor*
%ADD33C,1.000000*%
G04 #@! TD*
G04 #@! TA.AperFunction,Conductor*
%ADD34C,0.500000*%
G04 #@! TD*
G04 #@! TA.AperFunction,Conductor*
%ADD35C,0.250000*%
G04 #@! TD*
G04 APERTURE END LIST*
D10*
X156019500Y-82536000D03*
X156019500Y-97536000D03*
D11*
X180594000Y-74358500D03*
D12*
X190754000Y-74358500D03*
D13*
X148971000Y-81407000D03*
X148971000Y-78867000D03*
X148971000Y-76327000D03*
D11*
X149034500Y-95885000D03*
D12*
X149034500Y-85725000D03*
D14*
X172910500Y-71310500D03*
X172910500Y-68770500D03*
D15*
X172910500Y-66230500D03*
D16*
X130365500Y-54229000D03*
X155765500Y-54229000D03*
D17*
X177609500Y-56007000D03*
X177609500Y-81407000D03*
D11*
X148145500Y-63754000D03*
D18*
X140525500Y-63754000D03*
D11*
X168910000Y-73850500D03*
D18*
X168910000Y-66230500D03*
D19*
X145796000Y-71120000D03*
D20*
X143256000Y-71120000D03*
D10*
X171492500Y-97536000D03*
X193992500Y-97536000D03*
D12*
X195961000Y-70739000D03*
D18*
X193961000Y-70739000D03*
D12*
X156972000Y-63405000D03*
D18*
X156972000Y-65405000D03*
D11*
X62928500Y-110680500D03*
D12*
X62928500Y-120840500D03*
D10*
X73596500Y-57658000D03*
X73596500Y-72658000D03*
D21*
X73533000Y-91567000D03*
D10*
X73533000Y-76327000D03*
D22*
X65976500Y-57658000D03*
X65976500Y-67658000D03*
D16*
X124206000Y-135890000D03*
X124206000Y-110490000D03*
D17*
X99504500Y-115753000D03*
D23*
X99504500Y-125753000D03*
D15*
X128613000Y-125753000D03*
D14*
X128613000Y-123213000D03*
X128613000Y-120673000D03*
D17*
X145377000Y-129563000D03*
X170777000Y-129563000D03*
D21*
X208597500Y-104902000D03*
D10*
X208597500Y-120142000D03*
D24*
X68542000Y-110640000D03*
X78702000Y-110640000D03*
X78702000Y-131087000D03*
X68542000Y-131087000D03*
X78702000Y-125753000D03*
X68542000Y-125753000D03*
X68542000Y-115974000D03*
X78702000Y-115974000D03*
D12*
X163411000Y-117149000D03*
D18*
X163411000Y-119149000D03*
D21*
X65214500Y-95313500D03*
D10*
X65214500Y-80073500D03*
D25*
X145669000Y-58610500D03*
X143129000Y-58610500D03*
D26*
X140589000Y-58610500D03*
D27*
X162268000Y-139723000D03*
X156299000Y-139723000D03*
X59398000Y-110640000D03*
X59372500Y-125753000D03*
X59398000Y-75334000D03*
X59372500Y-67691000D03*
X59372500Y-57658000D03*
D12*
X160077000Y-134008000D03*
D18*
X158077000Y-134008000D03*
D28*
X183578500Y-125342000D03*
X198578500Y-125342000D03*
X203578500Y-125342000D03*
X208578500Y-125342000D03*
X208578500Y-132842000D03*
X203578500Y-132842000D03*
X198578500Y-132842000D03*
D29*
X183578500Y-132842000D03*
D11*
X198437500Y-97536000D03*
D12*
X208597500Y-97536000D03*
D22*
X108293000Y-139723000D03*
X114262000Y-139723000D03*
X79845000Y-139723000D03*
X85814000Y-139723000D03*
D27*
X192240000Y-139723000D03*
X203543000Y-139342000D03*
D10*
X128397000Y-63627000D03*
X128397000Y-78627000D03*
D17*
X106934000Y-73690500D03*
D23*
X106934000Y-63690500D03*
D10*
X59372500Y-95073500D03*
X59372500Y-80073500D03*
D20*
X160617000Y-125753000D03*
D30*
X158077000Y-125753000D03*
X155537000Y-125753000D03*
D31*
X141800500Y-104120000D03*
D32*
X117945000Y-122197000D03*
X117945000Y-129182000D03*
D31*
X90513000Y-138199000D03*
D32*
X86521400Y-63656100D03*
D31*
X148361500Y-106449000D03*
X158458000Y-106449000D03*
X169799000Y-107442000D03*
D32*
X152298500Y-132103000D03*
X78613000Y-70294500D03*
X81534000Y-70294500D03*
D31*
X158242000Y-75057000D03*
X155702000Y-70358000D03*
X184340500Y-71056500D03*
X186753500Y-66675000D03*
X179832000Y-66230500D03*
X191706500Y-58801000D03*
D33*
X59398000Y-80048000D02*
X59372500Y-80073500D01*
X59398000Y-75334000D02*
X59398000Y-80048000D01*
X59372500Y-80073500D02*
X65214500Y-80073500D01*
D34*
X141800500Y-104120000D02*
X174817000Y-104120000D01*
X141800500Y-107485500D02*
X128613000Y-120673000D01*
X141800500Y-104120000D02*
X141800500Y-107485500D01*
X119469000Y-120673000D02*
X117945000Y-122197000D01*
X128613000Y-120673000D02*
X119469000Y-120673000D01*
X117945000Y-136040000D02*
X114262000Y-139723000D01*
D35*
X90513000Y-138199000D02*
X90513000Y-137515500D01*
X92862500Y-135166000D02*
X117945000Y-135166000D01*
X90513000Y-137515500D02*
X92862500Y-135166000D01*
D34*
X117945000Y-135166000D02*
X117945000Y-136040000D01*
X117945000Y-129182000D02*
X117945000Y-135166000D01*
X185278501Y-114581501D02*
X174817000Y-104120000D01*
X185278501Y-131141999D02*
X185278501Y-114581501D01*
X183578500Y-132842000D02*
X185278501Y-131141999D01*
X208578500Y-132842000D02*
X208578500Y-125342000D01*
X208578500Y-120161000D02*
X208597500Y-120142000D01*
X208578500Y-125342000D02*
X208578500Y-120161000D01*
X130556000Y-61468000D02*
X128397000Y-63627000D01*
X169039998Y-68770500D02*
X161356498Y-61087000D01*
X172910500Y-68770500D02*
X169039998Y-68770500D01*
X130937000Y-61087000D02*
X130556000Y-61468000D01*
X143129000Y-58610500D02*
X143129000Y-60960000D01*
X143002000Y-61087000D02*
X130937000Y-61087000D01*
X143129000Y-60960000D02*
X143002000Y-61087000D01*
X161356498Y-61087000D02*
X143002000Y-61087000D01*
X128333500Y-63690500D02*
X128397000Y-63627000D01*
X106934000Y-63690500D02*
X128333500Y-63690500D01*
X106899600Y-63656100D02*
X106934000Y-63690500D01*
X86521400Y-63656100D02*
X106899600Y-63656100D01*
D33*
X158077000Y-125753000D02*
X158077000Y-134008000D01*
X158077000Y-137945000D02*
X156299000Y-139723000D01*
X158077000Y-134008000D02*
X158077000Y-137945000D01*
D34*
X203543000Y-132877500D02*
X203578500Y-132842000D01*
X203543000Y-139342000D02*
X203543000Y-132877500D01*
X203578500Y-132842000D02*
X203578500Y-125342000D01*
D35*
X148361500Y-106449000D02*
X158458000Y-106449000D01*
D34*
X198437500Y-97536000D02*
X193992500Y-97536000D01*
D35*
X183578500Y-121221500D02*
X183578500Y-125342000D01*
X169799000Y-107442000D02*
X183578500Y-121221500D01*
D34*
X73596500Y-76263500D02*
X73533000Y-76327000D01*
X73596500Y-72658000D02*
X73596500Y-76263500D01*
X152298500Y-128991500D02*
X155537000Y-125753000D01*
X152298500Y-132103000D02*
X152298500Y-128991500D01*
D33*
X155537000Y-125753000D02*
X128613000Y-125753000D01*
X99504500Y-125753000D02*
X128613000Y-125753000D01*
X78702000Y-131087000D02*
X78702000Y-125753000D01*
X78702000Y-125753000D02*
X99504500Y-125753000D01*
X71642310Y-127986690D02*
X71642310Y-127859690D01*
X68542000Y-131087000D02*
X71642310Y-127986690D01*
X71642310Y-127859690D02*
X73495000Y-126007000D01*
X73495000Y-115593000D02*
X68542000Y-110640000D01*
X73495000Y-126007000D02*
X73495000Y-115593000D01*
X62888000Y-110640000D02*
X62928500Y-110680500D01*
X59398000Y-110640000D02*
X62888000Y-110640000D01*
X68501500Y-110680500D02*
X68542000Y-110640000D01*
X62928500Y-110680500D02*
X68501500Y-110680500D01*
X68542000Y-115974000D02*
X68542000Y-125753000D01*
X59372500Y-125753000D02*
X68542000Y-125753000D01*
D34*
X65976500Y-57658000D02*
X73596500Y-57658000D01*
X59372500Y-57658000D02*
X65976500Y-57658000D01*
X73596500Y-65278000D02*
X78613000Y-70294500D01*
X73596500Y-57658000D02*
X73596500Y-65278000D01*
X69278500Y-70960000D02*
X65976500Y-67658000D01*
X69278500Y-87312500D02*
X69278500Y-70960000D01*
X73533000Y-91567000D02*
X69278500Y-87312500D01*
X65943500Y-67691000D02*
X65976500Y-67658000D01*
X59372500Y-67691000D02*
X65943500Y-67691000D01*
X81534000Y-83566000D02*
X81534000Y-70294500D01*
X73533000Y-91567000D02*
X81534000Y-83566000D01*
D35*
X154890500Y-81407000D02*
X156019500Y-82536000D01*
X148971000Y-81407000D02*
X154890500Y-81407000D01*
X158242000Y-75057000D02*
X159893000Y-76708000D01*
X188404500Y-76708000D02*
X190754000Y-74358500D01*
X159893000Y-76708000D02*
X188404500Y-76708000D01*
X195961000Y-71870370D02*
X195961000Y-70739000D01*
X193472870Y-74358500D02*
X195961000Y-71870370D01*
X190754000Y-74358500D02*
X193472870Y-74358500D01*
D34*
X208597500Y-104902000D02*
X208597500Y-97536000D01*
X208597500Y-92202000D02*
X190754000Y-74358500D01*
X208597500Y-97536000D02*
X208597500Y-92202000D01*
D35*
X145796000Y-58737500D02*
X145669000Y-58610500D01*
X154940000Y-71120000D02*
X155702000Y-70358000D01*
X145796000Y-71120000D02*
X154940000Y-71120000D01*
D34*
X175958500Y-74358500D02*
X172910500Y-71310500D01*
X180594000Y-74358500D02*
X175958500Y-74358500D01*
X170370500Y-73850500D02*
X172910500Y-71310500D01*
X168910000Y-73850500D02*
X170370500Y-73850500D01*
D35*
X184340500Y-71056500D02*
X186753500Y-68643500D01*
X186753500Y-68643500D02*
X186753500Y-66675000D01*
X168910000Y-66230500D02*
X172910500Y-66230500D01*
X172910500Y-66230500D02*
X179832000Y-66230500D01*
X191706500Y-58801000D02*
X182943500Y-50038000D01*
X149161500Y-50038000D02*
X140589000Y-58610500D01*
X182943500Y-50038000D02*
X149161500Y-50038000D01*
M02*
