M48
; DRILL file {KiCad (5.1.9-0-10_14)} date Sunday, February 21, 2021 at 04:23:35 PM
; FORMAT={-:-/ absolute / inch / decimal}
; #@! TF.CreationDate,2021-02-21T16:23:35+01:00
; #@! TF.GenerationSoftware,Kicad,Pcbnew,(5.1.9-0-10_14)
; #@! TF.FileFunction,Plated,1,2,PTH
FMAT,2
INCH
T1C0.0157
T2C0.0197
T3C0.0315
T4C0.0394
T5C0.0433
T6C0.0472
T7C0.0512
T8C0.0590
%
G90
G05
T1
X3.26Y-3.3
X3.26Y-4.9
X3.38Y-3.3
X3.4Y-4.9
X3.535Y-3.64
X3.54Y-5.19
X3.9Y-3.85
X3.9Y-5.39
T2
X2.775Y-3.375
X2.775Y-4.95
X4.575Y-3.3
X4.575Y-4.9
X4.775Y-3.3
X4.775Y-4.9
T3
X1.925Y-3.675
X1.9281Y-5.225
X2.1219Y-3.675
X2.125Y-5.225
X3.19Y-4.4
X3.19Y-4.5969
X3.19Y-5.95
X3.19Y-6.1469
T4
X1.725Y-3.675
X1.725Y-4.05
X1.725Y-4.85
X1.725Y-5.225
X5.975Y-3.5
X5.975Y-3.875
X5.975Y-4.7
X5.975Y-5.075
T5
X3.55Y-5.925
X3.5594Y-4.4
X4.1406Y-5.925
X4.15Y-4.4
T6
X2.6047Y-4.4
X2.6047Y-5.95
X2.9Y-4.4
X2.9Y-5.95
X4.425Y-3.5
X4.425Y-5.075
X4.525Y-4.125
X4.525Y-5.675
X4.8203Y-4.125
X4.8203Y-5.675
X5.5077Y-3.5
X5.5077Y-5.075
T7
X2.94Y-3.0
X3.32Y-3.0
X4.3Y-3.0
X4.675Y-3.0
T8
X2.95Y-3.682
X2.95Y-3.925
X2.95Y-5.232
X2.95Y-5.475
X3.093Y-3.485
X3.093Y-4.122
X3.093Y-5.035
X3.093Y-5.672
X3.3244Y-4.1972
X3.3244Y-5.7472
X3.5558Y-3.485
X3.5558Y-4.122
X3.5558Y-5.035
X3.5558Y-5.672
X3.6988Y-3.682
X3.6988Y-3.925
X3.6988Y-5.232
X3.6988Y-5.475
T0
M30
