G04 #@! TF.GenerationSoftware,KiCad,Pcbnew,(5.1.10-0-10_14)*
G04 #@! TF.CreationDate,2021-10-25T19:37:06+02:00*
G04 #@! TF.ProjectId,dac-cs4344,6461632d-6373-4343-9334-342e6b696361,rev?*
G04 #@! TF.SameCoordinates,Original*
G04 #@! TF.FileFunction,Copper,L1,Top*
G04 #@! TF.FilePolarity,Positive*
%FSLAX46Y46*%
G04 Gerber Fmt 4.6, Leading zero omitted, Abs format (unit mm)*
G04 Created by KiCad (PCBNEW (5.1.10-0-10_14)) date 2021-10-25 19:37:06*
%MOMM*%
%LPD*%
G01*
G04 APERTURE LIST*
G04 #@! TA.AperFunction,ComponentPad*
%ADD10C,1.600000*%
G04 #@! TD*
G04 #@! TA.AperFunction,ComponentPad*
%ADD11R,1.600000X1.600000*%
G04 #@! TD*
G04 #@! TA.AperFunction,ComponentPad*
%ADD12O,1.700000X1.700000*%
G04 #@! TD*
G04 #@! TA.AperFunction,ComponentPad*
%ADD13R,1.700000X1.700000*%
G04 #@! TD*
G04 #@! TA.AperFunction,ComponentPad*
%ADD14R,1.308000X1.308000*%
G04 #@! TD*
G04 #@! TA.AperFunction,ComponentPad*
%ADD15C,1.308000*%
G04 #@! TD*
G04 #@! TA.AperFunction,ComponentPad*
%ADD16C,2.000000*%
G04 #@! TD*
G04 #@! TA.AperFunction,SMDPad,CuDef*
%ADD17R,1.100000X0.250000*%
G04 #@! TD*
G04 #@! TA.AperFunction,SMDPad,CuDef*
%ADD18R,2.000000X1.500000*%
G04 #@! TD*
G04 #@! TA.AperFunction,SMDPad,CuDef*
%ADD19R,2.000000X3.800000*%
G04 #@! TD*
G04 #@! TA.AperFunction,ViaPad*
%ADD20C,0.800000*%
G04 #@! TD*
G04 #@! TA.AperFunction,ViaPad*
%ADD21C,0.600000*%
G04 #@! TD*
G04 #@! TA.AperFunction,Conductor*
%ADD22C,0.250000*%
G04 #@! TD*
G04 #@! TA.AperFunction,Conductor*
%ADD23C,0.500000*%
G04 #@! TD*
G04 #@! TA.AperFunction,Conductor*
%ADD24C,0.254000*%
G04 #@! TD*
G04 #@! TA.AperFunction,Conductor*
%ADD25C,0.100000*%
G04 #@! TD*
G04 APERTURE END LIST*
D10*
X143192500Y-86955000D03*
D11*
X143192500Y-84455000D03*
D12*
X119824500Y-69723000D03*
X119824500Y-72263000D03*
X119824500Y-74803000D03*
X119824500Y-77343000D03*
X119824500Y-79883000D03*
X119824500Y-82423000D03*
X119824500Y-84963000D03*
X119824500Y-87503000D03*
X119824500Y-90043000D03*
D13*
X119824500Y-92583000D03*
D10*
X141351000Y-96139000D03*
D11*
X138851000Y-96139000D03*
D10*
X138517000Y-110934500D03*
D11*
X136017000Y-110934500D03*
G04 #@! TA.AperFunction,SMDPad,CuDef*
G36*
G01*
X149302500Y-76115999D02*
X149302500Y-78316001D01*
G75*
G02*
X149052501Y-78566000I-249999J0D01*
G01*
X148227499Y-78566000D01*
G75*
G02*
X147977500Y-78316001I0J249999D01*
G01*
X147977500Y-76115999D01*
G75*
G02*
X148227499Y-75866000I249999J0D01*
G01*
X149052501Y-75866000D01*
G75*
G02*
X149302500Y-76115999I0J-249999D01*
G01*
G37*
G04 #@! TD.AperFunction*
G04 #@! TA.AperFunction,SMDPad,CuDef*
G36*
G01*
X152427500Y-76115999D02*
X152427500Y-78316001D01*
G75*
G02*
X152177501Y-78566000I-249999J0D01*
G01*
X151352499Y-78566000D01*
G75*
G02*
X151102500Y-78316001I0J249999D01*
G01*
X151102500Y-76115999D01*
G75*
G02*
X151352499Y-75866000I249999J0D01*
G01*
X152177501Y-75866000D01*
G75*
G02*
X152427500Y-76115999I0J-249999D01*
G01*
G37*
G04 #@! TD.AperFunction*
G04 #@! TA.AperFunction,SMDPad,CuDef*
G36*
G01*
X139523500Y-76496999D02*
X139523500Y-78697001D01*
G75*
G02*
X139273501Y-78947000I-249999J0D01*
G01*
X138448499Y-78947000D01*
G75*
G02*
X138198500Y-78697001I0J249999D01*
G01*
X138198500Y-76496999D01*
G75*
G02*
X138448499Y-76247000I249999J0D01*
G01*
X139273501Y-76247000D01*
G75*
G02*
X139523500Y-76496999I0J-249999D01*
G01*
G37*
G04 #@! TD.AperFunction*
G04 #@! TA.AperFunction,SMDPad,CuDef*
G36*
G01*
X142648500Y-76496999D02*
X142648500Y-78697001D01*
G75*
G02*
X142398501Y-78947000I-249999J0D01*
G01*
X141573499Y-78947000D01*
G75*
G02*
X141323500Y-78697001I0J249999D01*
G01*
X141323500Y-76496999D01*
G75*
G02*
X141573499Y-76247000I249999J0D01*
G01*
X142398501Y-76247000D01*
G75*
G02*
X142648500Y-76496999I0J-249999D01*
G01*
G37*
G04 #@! TD.AperFunction*
G04 #@! TA.AperFunction,SMDPad,CuDef*
G36*
G01*
X149302500Y-84497999D02*
X149302500Y-86698001D01*
G75*
G02*
X149052501Y-86948000I-249999J0D01*
G01*
X148227499Y-86948000D01*
G75*
G02*
X147977500Y-86698001I0J249999D01*
G01*
X147977500Y-84497999D01*
G75*
G02*
X148227499Y-84248000I249999J0D01*
G01*
X149052501Y-84248000D01*
G75*
G02*
X149302500Y-84497999I0J-249999D01*
G01*
G37*
G04 #@! TD.AperFunction*
G04 #@! TA.AperFunction,SMDPad,CuDef*
G36*
G01*
X152427500Y-84497999D02*
X152427500Y-86698001D01*
G75*
G02*
X152177501Y-86948000I-249999J0D01*
G01*
X151352499Y-86948000D01*
G75*
G02*
X151102500Y-86698001I0J249999D01*
G01*
X151102500Y-84497999D01*
G75*
G02*
X151352499Y-84248000I249999J0D01*
G01*
X152177501Y-84248000D01*
G75*
G02*
X152427500Y-84497999I0J-249999D01*
G01*
G37*
G04 #@! TD.AperFunction*
D10*
X135636000Y-91336500D03*
D11*
X135636000Y-88836500D03*
G04 #@! TA.AperFunction,SMDPad,CuDef*
G36*
G01*
X136298500Y-83799499D02*
X136298500Y-85999501D01*
G75*
G02*
X136048501Y-86249500I-249999J0D01*
G01*
X135223499Y-86249500D01*
G75*
G02*
X134973500Y-85999501I0J249999D01*
G01*
X134973500Y-83799499D01*
G75*
G02*
X135223499Y-83549500I249999J0D01*
G01*
X136048501Y-83549500D01*
G75*
G02*
X136298500Y-83799499I0J-249999D01*
G01*
G37*
G04 #@! TD.AperFunction*
G04 #@! TA.AperFunction,SMDPad,CuDef*
G36*
G01*
X139423500Y-83799499D02*
X139423500Y-85999501D01*
G75*
G02*
X139173501Y-86249500I-249999J0D01*
G01*
X138348499Y-86249500D01*
G75*
G02*
X138098500Y-85999501I0J249999D01*
G01*
X138098500Y-83799499D01*
G75*
G02*
X138348499Y-83549500I249999J0D01*
G01*
X139173501Y-83549500D01*
G75*
G02*
X139423500Y-83799499I0J-249999D01*
G01*
G37*
G04 #@! TD.AperFunction*
G04 #@! TA.AperFunction,SMDPad,CuDef*
G36*
G01*
X132100500Y-78914000D02*
X132100500Y-78439000D01*
G75*
G02*
X132338000Y-78201500I237500J0D01*
G01*
X132838000Y-78201500D01*
G75*
G02*
X133075500Y-78439000I0J-237500D01*
G01*
X133075500Y-78914000D01*
G75*
G02*
X132838000Y-79151500I-237500J0D01*
G01*
X132338000Y-79151500D01*
G75*
G02*
X132100500Y-78914000I0J237500D01*
G01*
G37*
G04 #@! TD.AperFunction*
G04 #@! TA.AperFunction,SMDPad,CuDef*
G36*
G01*
X130275500Y-78914000D02*
X130275500Y-78439000D01*
G75*
G02*
X130513000Y-78201500I237500J0D01*
G01*
X131013000Y-78201500D01*
G75*
G02*
X131250500Y-78439000I0J-237500D01*
G01*
X131250500Y-78914000D01*
G75*
G02*
X131013000Y-79151500I-237500J0D01*
G01*
X130513000Y-79151500D01*
G75*
G02*
X130275500Y-78914000I0J237500D01*
G01*
G37*
G04 #@! TD.AperFunction*
G04 #@! TA.AperFunction,SMDPad,CuDef*
G36*
G01*
X132124000Y-82089000D02*
X132124000Y-81614000D01*
G75*
G02*
X132361500Y-81376500I237500J0D01*
G01*
X132861500Y-81376500D01*
G75*
G02*
X133099000Y-81614000I0J-237500D01*
G01*
X133099000Y-82089000D01*
G75*
G02*
X132861500Y-82326500I-237500J0D01*
G01*
X132361500Y-82326500D01*
G75*
G02*
X132124000Y-82089000I0J237500D01*
G01*
G37*
G04 #@! TD.AperFunction*
G04 #@! TA.AperFunction,SMDPad,CuDef*
G36*
G01*
X130299000Y-82089000D02*
X130299000Y-81614000D01*
G75*
G02*
X130536500Y-81376500I237500J0D01*
G01*
X131036500Y-81376500D01*
G75*
G02*
X131274000Y-81614000I0J-237500D01*
G01*
X131274000Y-82089000D01*
G75*
G02*
X131036500Y-82326500I-237500J0D01*
G01*
X130536500Y-82326500D01*
G75*
G02*
X130299000Y-82089000I0J237500D01*
G01*
G37*
G04 #@! TD.AperFunction*
G04 #@! TA.AperFunction,SMDPad,CuDef*
G36*
G01*
X132100500Y-80501500D02*
X132100500Y-80026500D01*
G75*
G02*
X132338000Y-79789000I237500J0D01*
G01*
X132838000Y-79789000D01*
G75*
G02*
X133075500Y-80026500I0J-237500D01*
G01*
X133075500Y-80501500D01*
G75*
G02*
X132838000Y-80739000I-237500J0D01*
G01*
X132338000Y-80739000D01*
G75*
G02*
X132100500Y-80501500I0J237500D01*
G01*
G37*
G04 #@! TD.AperFunction*
G04 #@! TA.AperFunction,SMDPad,CuDef*
G36*
G01*
X130275500Y-80501500D02*
X130275500Y-80026500D01*
G75*
G02*
X130513000Y-79789000I237500J0D01*
G01*
X131013000Y-79789000D01*
G75*
G02*
X131250500Y-80026500I0J-237500D01*
G01*
X131250500Y-80501500D01*
G75*
G02*
X131013000Y-80739000I-237500J0D01*
G01*
X130513000Y-80739000D01*
G75*
G02*
X130275500Y-80501500I0J237500D01*
G01*
G37*
G04 #@! TD.AperFunction*
G04 #@! TA.AperFunction,SMDPad,CuDef*
G36*
G01*
X132100500Y-83676500D02*
X132100500Y-83201500D01*
G75*
G02*
X132338000Y-82964000I237500J0D01*
G01*
X132838000Y-82964000D01*
G75*
G02*
X133075500Y-83201500I0J-237500D01*
G01*
X133075500Y-83676500D01*
G75*
G02*
X132838000Y-83914000I-237500J0D01*
G01*
X132338000Y-83914000D01*
G75*
G02*
X132100500Y-83676500I0J237500D01*
G01*
G37*
G04 #@! TD.AperFunction*
G04 #@! TA.AperFunction,SMDPad,CuDef*
G36*
G01*
X130275500Y-83676500D02*
X130275500Y-83201500D01*
G75*
G02*
X130513000Y-82964000I237500J0D01*
G01*
X131013000Y-82964000D01*
G75*
G02*
X131250500Y-83201500I0J-237500D01*
G01*
X131250500Y-83676500D01*
G75*
G02*
X131013000Y-83914000I-237500J0D01*
G01*
X130513000Y-83914000D01*
G75*
G02*
X130275500Y-83676500I0J237500D01*
G01*
G37*
G04 #@! TD.AperFunction*
G04 #@! TA.AperFunction,SMDPad,CuDef*
G36*
G01*
X156357500Y-77453500D02*
X156357500Y-76978500D01*
G75*
G02*
X156595000Y-76741000I237500J0D01*
G01*
X157095000Y-76741000D01*
G75*
G02*
X157332500Y-76978500I0J-237500D01*
G01*
X157332500Y-77453500D01*
G75*
G02*
X157095000Y-77691000I-237500J0D01*
G01*
X156595000Y-77691000D01*
G75*
G02*
X156357500Y-77453500I0J237500D01*
G01*
G37*
G04 #@! TD.AperFunction*
G04 #@! TA.AperFunction,SMDPad,CuDef*
G36*
G01*
X154532500Y-77453500D02*
X154532500Y-76978500D01*
G75*
G02*
X154770000Y-76741000I237500J0D01*
G01*
X155270000Y-76741000D01*
G75*
G02*
X155507500Y-76978500I0J-237500D01*
G01*
X155507500Y-77453500D01*
G75*
G02*
X155270000Y-77691000I-237500J0D01*
G01*
X154770000Y-77691000D01*
G75*
G02*
X154532500Y-77453500I0J237500D01*
G01*
G37*
G04 #@! TD.AperFunction*
G04 #@! TA.AperFunction,SMDPad,CuDef*
G36*
G01*
X153717000Y-77703500D02*
X153242000Y-77703500D01*
G75*
G02*
X153004500Y-77466000I0J237500D01*
G01*
X153004500Y-76966000D01*
G75*
G02*
X153242000Y-76728500I237500J0D01*
G01*
X153717000Y-76728500D01*
G75*
G02*
X153954500Y-76966000I0J-237500D01*
G01*
X153954500Y-77466000D01*
G75*
G02*
X153717000Y-77703500I-237500J0D01*
G01*
G37*
G04 #@! TD.AperFunction*
G04 #@! TA.AperFunction,SMDPad,CuDef*
G36*
G01*
X153717000Y-79528500D02*
X153242000Y-79528500D01*
G75*
G02*
X153004500Y-79291000I0J237500D01*
G01*
X153004500Y-78791000D01*
G75*
G02*
X153242000Y-78553500I237500J0D01*
G01*
X153717000Y-78553500D01*
G75*
G02*
X153954500Y-78791000I0J-237500D01*
G01*
X153954500Y-79291000D01*
G75*
G02*
X153717000Y-79528500I-237500J0D01*
G01*
G37*
G04 #@! TD.AperFunction*
G04 #@! TA.AperFunction,SMDPad,CuDef*
G36*
G01*
X153242000Y-85110500D02*
X153717000Y-85110500D01*
G75*
G02*
X153954500Y-85348000I0J-237500D01*
G01*
X153954500Y-85848000D01*
G75*
G02*
X153717000Y-86085500I-237500J0D01*
G01*
X153242000Y-86085500D01*
G75*
G02*
X153004500Y-85848000I0J237500D01*
G01*
X153004500Y-85348000D01*
G75*
G02*
X153242000Y-85110500I237500J0D01*
G01*
G37*
G04 #@! TD.AperFunction*
G04 #@! TA.AperFunction,SMDPad,CuDef*
G36*
G01*
X153242000Y-83285500D02*
X153717000Y-83285500D01*
G75*
G02*
X153954500Y-83523000I0J-237500D01*
G01*
X153954500Y-84023000D01*
G75*
G02*
X153717000Y-84260500I-237500J0D01*
G01*
X153242000Y-84260500D01*
G75*
G02*
X153004500Y-84023000I0J237500D01*
G01*
X153004500Y-83523000D01*
G75*
G02*
X153242000Y-83285500I237500J0D01*
G01*
G37*
G04 #@! TD.AperFunction*
D14*
X115294000Y-86490000D03*
D15*
X112754000Y-85220000D03*
X115294000Y-83950000D03*
X112754000Y-82680000D03*
X115294000Y-81410000D03*
X112754000Y-80140000D03*
X115294000Y-78870000D03*
X112754000Y-77600000D03*
X115294000Y-76330000D03*
X112754000Y-75060000D03*
D16*
X161226500Y-77216000D03*
X161099500Y-92710000D03*
X161226500Y-85598000D03*
D17*
X139945000Y-80407000D03*
X139945000Y-80907000D03*
X139945000Y-81407000D03*
X139945000Y-81907000D03*
X139945000Y-82407000D03*
X135645000Y-82407000D03*
X135645000Y-81907000D03*
X135645000Y-81407000D03*
X135645000Y-80907000D03*
X135645000Y-80407000D03*
G04 #@! TA.AperFunction,SMDPad,CuDef*
G36*
G01*
X159098000Y-77803500D02*
X158148000Y-77803500D01*
G75*
G02*
X157898000Y-77553500I0J250000D01*
G01*
X157898000Y-76878500D01*
G75*
G02*
X158148000Y-76628500I250000J0D01*
G01*
X159098000Y-76628500D01*
G75*
G02*
X159348000Y-76878500I0J-250000D01*
G01*
X159348000Y-77553500D01*
G75*
G02*
X159098000Y-77803500I-250000J0D01*
G01*
G37*
G04 #@! TD.AperFunction*
G04 #@! TA.AperFunction,SMDPad,CuDef*
G36*
G01*
X159098000Y-79878500D02*
X158148000Y-79878500D01*
G75*
G02*
X157898000Y-79628500I0J250000D01*
G01*
X157898000Y-78953500D01*
G75*
G02*
X158148000Y-78703500I250000J0D01*
G01*
X159098000Y-78703500D01*
G75*
G02*
X159348000Y-78953500I0J-250000D01*
G01*
X159348000Y-79628500D01*
G75*
G02*
X159098000Y-79878500I-250000J0D01*
G01*
G37*
G04 #@! TD.AperFunction*
G04 #@! TA.AperFunction,SMDPad,CuDef*
G36*
G01*
X156357500Y-85835500D02*
X156357500Y-85360500D01*
G75*
G02*
X156595000Y-85123000I237500J0D01*
G01*
X157095000Y-85123000D01*
G75*
G02*
X157332500Y-85360500I0J-237500D01*
G01*
X157332500Y-85835500D01*
G75*
G02*
X157095000Y-86073000I-237500J0D01*
G01*
X156595000Y-86073000D01*
G75*
G02*
X156357500Y-85835500I0J237500D01*
G01*
G37*
G04 #@! TD.AperFunction*
G04 #@! TA.AperFunction,SMDPad,CuDef*
G36*
G01*
X154532500Y-85835500D02*
X154532500Y-85360500D01*
G75*
G02*
X154770000Y-85123000I237500J0D01*
G01*
X155270000Y-85123000D01*
G75*
G02*
X155507500Y-85360500I0J-237500D01*
G01*
X155507500Y-85835500D01*
G75*
G02*
X155270000Y-86073000I-237500J0D01*
G01*
X154770000Y-86073000D01*
G75*
G02*
X154532500Y-85835500I0J237500D01*
G01*
G37*
G04 #@! TD.AperFunction*
D16*
X161226500Y-69215000D03*
G04 #@! TA.AperFunction,SMDPad,CuDef*
G36*
G01*
X158148000Y-85032000D02*
X159098000Y-85032000D01*
G75*
G02*
X159348000Y-85282000I0J-250000D01*
G01*
X159348000Y-85957000D01*
G75*
G02*
X159098000Y-86207000I-250000J0D01*
G01*
X158148000Y-86207000D01*
G75*
G02*
X157898000Y-85957000I0J250000D01*
G01*
X157898000Y-85282000D01*
G75*
G02*
X158148000Y-85032000I250000J0D01*
G01*
G37*
G04 #@! TD.AperFunction*
G04 #@! TA.AperFunction,SMDPad,CuDef*
G36*
G01*
X158148000Y-82957000D02*
X159098000Y-82957000D01*
G75*
G02*
X159348000Y-83207000I0J-250000D01*
G01*
X159348000Y-83882000D01*
G75*
G02*
X159098000Y-84132000I-250000J0D01*
G01*
X158148000Y-84132000D01*
G75*
G02*
X157898000Y-83882000I0J250000D01*
G01*
X157898000Y-83207000D01*
G75*
G02*
X158148000Y-82957000I250000J0D01*
G01*
G37*
G04 #@! TD.AperFunction*
X136017000Y-122047000D03*
D18*
X136003500Y-101268500D03*
X136003500Y-105868500D03*
X136003500Y-103568500D03*
D19*
X142303500Y-103568500D03*
G04 #@! TA.AperFunction,SMDPad,CuDef*
G36*
G01*
X132307000Y-103093500D02*
X132307000Y-104043500D01*
G75*
G02*
X132057000Y-104293500I-250000J0D01*
G01*
X131382000Y-104293500D01*
G75*
G02*
X131132000Y-104043500I0J250000D01*
G01*
X131132000Y-103093500D01*
G75*
G02*
X131382000Y-102843500I250000J0D01*
G01*
X132057000Y-102843500D01*
G75*
G02*
X132307000Y-103093500I0J-250000D01*
G01*
G37*
G04 #@! TD.AperFunction*
G04 #@! TA.AperFunction,SMDPad,CuDef*
G36*
G01*
X134382000Y-103093500D02*
X134382000Y-104043500D01*
G75*
G02*
X134132000Y-104293500I-250000J0D01*
G01*
X133457000Y-104293500D01*
G75*
G02*
X133207000Y-104043500I0J250000D01*
G01*
X133207000Y-103093500D01*
G75*
G02*
X133457000Y-102843500I250000J0D01*
G01*
X134132000Y-102843500D01*
G75*
G02*
X134382000Y-103093500I0J-250000D01*
G01*
G37*
G04 #@! TD.AperFunction*
G04 #@! TA.AperFunction,SMDPad,CuDef*
G36*
G01*
X132307000Y-105379500D02*
X132307000Y-106329500D01*
G75*
G02*
X132057000Y-106579500I-250000J0D01*
G01*
X131382000Y-106579500D01*
G75*
G02*
X131132000Y-106329500I0J250000D01*
G01*
X131132000Y-105379500D01*
G75*
G02*
X131382000Y-105129500I250000J0D01*
G01*
X132057000Y-105129500D01*
G75*
G02*
X132307000Y-105379500I0J-250000D01*
G01*
G37*
G04 #@! TD.AperFunction*
G04 #@! TA.AperFunction,SMDPad,CuDef*
G36*
G01*
X134382000Y-105379500D02*
X134382000Y-106329500D01*
G75*
G02*
X134132000Y-106579500I-250000J0D01*
G01*
X133457000Y-106579500D01*
G75*
G02*
X133207000Y-106329500I0J250000D01*
G01*
X133207000Y-105379500D01*
G75*
G02*
X133457000Y-105129500I250000J0D01*
G01*
X134132000Y-105129500D01*
G75*
G02*
X134382000Y-105379500I0J-250000D01*
G01*
G37*
G04 #@! TD.AperFunction*
D16*
X145923000Y-122047000D03*
D20*
X137604500Y-81407000D03*
X138874500Y-79629000D03*
X138874500Y-103568500D03*
D21*
X127381000Y-81851500D03*
X129413000Y-80264000D03*
X129476500Y-83439000D03*
X129476500Y-78676500D03*
D22*
X135645000Y-84890500D02*
X135636000Y-84899500D01*
X135645000Y-82407000D02*
X135645000Y-84890500D01*
X135636000Y-84899500D02*
X135636000Y-88836500D01*
X139945000Y-81407000D02*
X137604500Y-81407000D01*
X138874500Y-80596502D02*
X138874500Y-79629000D01*
X139184998Y-80907000D02*
X138874500Y-80596502D01*
X139945000Y-80907000D02*
X139184998Y-80907000D01*
D23*
X138874500Y-77610500D02*
X138861000Y-77597000D01*
X138874500Y-79629000D02*
X138874500Y-77610500D01*
X136003500Y-103568500D02*
X138874500Y-103568500D01*
X138874500Y-103568500D02*
X142303500Y-103568500D01*
X136003500Y-103568500D02*
X133794500Y-103568500D01*
D22*
X132756000Y-80907000D02*
X135645000Y-80907000D01*
X132588000Y-80739000D02*
X132756000Y-80907000D01*
X132588000Y-80264000D02*
X132588000Y-80739000D01*
X133056000Y-81407000D02*
X135645000Y-81407000D01*
X132611500Y-81851500D02*
X133056000Y-81407000D01*
X134318500Y-80407000D02*
X132588000Y-78676500D01*
X135645000Y-80407000D02*
X134318500Y-80407000D01*
X151765000Y-85598000D02*
X153479500Y-85598000D01*
X153479500Y-85598000D02*
X155020000Y-85598000D01*
X158601500Y-85598000D02*
X158623000Y-85619500D01*
X156845000Y-85598000D02*
X158601500Y-85598000D01*
X161205000Y-85619500D02*
X161226500Y-85598000D01*
X158623000Y-85619500D02*
X161205000Y-85619500D01*
X141144500Y-82407000D02*
X143192500Y-84455000D01*
X139945000Y-82407000D02*
X141144500Y-82407000D01*
X144949000Y-81907000D02*
X148640000Y-85598000D01*
X139945000Y-81907000D02*
X144949000Y-81907000D01*
X145449000Y-80407000D02*
X148640000Y-77216000D01*
X139945000Y-80407000D02*
X145449000Y-80407000D01*
X151765000Y-77216000D02*
X153479500Y-77216000D01*
X153479500Y-77216000D02*
X155020000Y-77216000D01*
X156845000Y-77216000D02*
X158623000Y-77216000D01*
X158623000Y-77216000D02*
X161226500Y-77216000D01*
X134120000Y-81907000D02*
X135645000Y-81907000D01*
X132588000Y-83439000D02*
X134120000Y-81907000D01*
X130786500Y-81851500D02*
X127381000Y-81851500D01*
X130763000Y-80264000D02*
X129413000Y-80264000D01*
X130763000Y-83439000D02*
X129476500Y-83439000D01*
D23*
X133808500Y-105868500D02*
X133794500Y-105854500D01*
X136003500Y-105868500D02*
X133808500Y-105868500D01*
X136017000Y-105882000D02*
X136003500Y-105868500D01*
X136017000Y-110934500D02*
X136017000Y-105882000D01*
D22*
X130763000Y-78676500D02*
X129476500Y-78676500D01*
D24*
X201270001Y-126340000D02*
X108610000Y-126340000D01*
X108610000Y-121885967D01*
X134382000Y-121885967D01*
X134382000Y-122208033D01*
X134444832Y-122523912D01*
X134568082Y-122821463D01*
X134747013Y-123089252D01*
X134974748Y-123316987D01*
X135242537Y-123495918D01*
X135540088Y-123619168D01*
X135855967Y-123682000D01*
X136178033Y-123682000D01*
X136493912Y-123619168D01*
X136791463Y-123495918D01*
X137059252Y-123316987D01*
X137193826Y-123182413D01*
X144967192Y-123182413D01*
X145062956Y-123446814D01*
X145352571Y-123587704D01*
X145664108Y-123669384D01*
X145985595Y-123688718D01*
X146304675Y-123644961D01*
X146609088Y-123539795D01*
X146783044Y-123446814D01*
X146878808Y-123182413D01*
X145923000Y-122226605D01*
X144967192Y-123182413D01*
X137193826Y-123182413D01*
X137286987Y-123089252D01*
X137465918Y-122821463D01*
X137589168Y-122523912D01*
X137652000Y-122208033D01*
X137652000Y-122109595D01*
X144281282Y-122109595D01*
X144325039Y-122428675D01*
X144430205Y-122733088D01*
X144523186Y-122907044D01*
X144787587Y-123002808D01*
X145743395Y-122047000D01*
X146102605Y-122047000D01*
X147058413Y-123002808D01*
X147322814Y-122907044D01*
X147463704Y-122617429D01*
X147545384Y-122305892D01*
X147564718Y-121984405D01*
X147520961Y-121665325D01*
X147415795Y-121360912D01*
X147322814Y-121186956D01*
X147058413Y-121091192D01*
X146102605Y-122047000D01*
X145743395Y-122047000D01*
X144787587Y-121091192D01*
X144523186Y-121186956D01*
X144382296Y-121476571D01*
X144300616Y-121788108D01*
X144281282Y-122109595D01*
X137652000Y-122109595D01*
X137652000Y-121885967D01*
X137589168Y-121570088D01*
X137465918Y-121272537D01*
X137286987Y-121004748D01*
X137193826Y-120911587D01*
X144967192Y-120911587D01*
X145923000Y-121867395D01*
X146878808Y-120911587D01*
X146783044Y-120647186D01*
X146493429Y-120506296D01*
X146181892Y-120424616D01*
X145860405Y-120405282D01*
X145541325Y-120449039D01*
X145236912Y-120554205D01*
X145062956Y-120647186D01*
X144967192Y-120911587D01*
X137193826Y-120911587D01*
X137059252Y-120777013D01*
X136791463Y-120598082D01*
X136493912Y-120474832D01*
X136178033Y-120412000D01*
X135855967Y-120412000D01*
X135540088Y-120474832D01*
X135242537Y-120598082D01*
X134974748Y-120777013D01*
X134747013Y-121004748D01*
X134568082Y-121272537D01*
X134444832Y-121570088D01*
X134382000Y-121885967D01*
X108610000Y-121885967D01*
X108610000Y-119286872D01*
X111430000Y-119286872D01*
X111430000Y-119727128D01*
X111515890Y-120158925D01*
X111684369Y-120565669D01*
X111928962Y-120931729D01*
X112240271Y-121243038D01*
X112606331Y-121487631D01*
X113013075Y-121656110D01*
X113444872Y-121742000D01*
X113885128Y-121742000D01*
X114316925Y-121656110D01*
X114723669Y-121487631D01*
X115089729Y-121243038D01*
X115401038Y-120931729D01*
X115645631Y-120565669D01*
X115814110Y-120158925D01*
X115900000Y-119727128D01*
X115900000Y-119286872D01*
X115874739Y-119159872D01*
X193980000Y-119159872D01*
X193980000Y-119600128D01*
X194065890Y-120031925D01*
X194234369Y-120438669D01*
X194478962Y-120804729D01*
X194790271Y-121116038D01*
X195156331Y-121360631D01*
X195563075Y-121529110D01*
X195994872Y-121615000D01*
X196435128Y-121615000D01*
X196866925Y-121529110D01*
X197273669Y-121360631D01*
X197639729Y-121116038D01*
X197951038Y-120804729D01*
X198195631Y-120438669D01*
X198364110Y-120031925D01*
X198450000Y-119600128D01*
X198450000Y-119159872D01*
X198364110Y-118728075D01*
X198195631Y-118321331D01*
X197951038Y-117955271D01*
X197639729Y-117643962D01*
X197273669Y-117399369D01*
X196866925Y-117230890D01*
X196435128Y-117145000D01*
X195994872Y-117145000D01*
X195563075Y-117230890D01*
X195156331Y-117399369D01*
X194790271Y-117643962D01*
X194478962Y-117955271D01*
X194234369Y-118321331D01*
X194065890Y-118728075D01*
X193980000Y-119159872D01*
X115874739Y-119159872D01*
X115814110Y-118855075D01*
X115645631Y-118448331D01*
X115401038Y-118082271D01*
X115089729Y-117770962D01*
X114723669Y-117526369D01*
X114316925Y-117357890D01*
X113885128Y-117272000D01*
X113444872Y-117272000D01*
X113013075Y-117357890D01*
X112606331Y-117526369D01*
X112240271Y-117770962D01*
X111928962Y-118082271D01*
X111684369Y-118448331D01*
X111515890Y-118855075D01*
X111430000Y-119286872D01*
X108610000Y-119286872D01*
X108610000Y-106579500D01*
X130493928Y-106579500D01*
X130506188Y-106703982D01*
X130542498Y-106823680D01*
X130601463Y-106933994D01*
X130680815Y-107030685D01*
X130777506Y-107110037D01*
X130887820Y-107169002D01*
X131007518Y-107205312D01*
X131132000Y-107217572D01*
X131433750Y-107214500D01*
X131592500Y-107055750D01*
X131592500Y-105981500D01*
X130655750Y-105981500D01*
X130497000Y-106140250D01*
X130493928Y-106579500D01*
X108610000Y-106579500D01*
X108610000Y-104293500D01*
X130493928Y-104293500D01*
X130506188Y-104417982D01*
X130542498Y-104537680D01*
X130601463Y-104647994D01*
X130653581Y-104711500D01*
X130601463Y-104775006D01*
X130542498Y-104885320D01*
X130506188Y-105005018D01*
X130493928Y-105129500D01*
X130497000Y-105568750D01*
X130655750Y-105727500D01*
X131592500Y-105727500D01*
X131592500Y-103695500D01*
X130655750Y-103695500D01*
X130497000Y-103854250D01*
X130493928Y-104293500D01*
X108610000Y-104293500D01*
X108610000Y-102843500D01*
X130493928Y-102843500D01*
X130497000Y-103282750D01*
X130655750Y-103441500D01*
X131592500Y-103441500D01*
X131592500Y-102367250D01*
X131846500Y-102367250D01*
X131846500Y-103441500D01*
X131866500Y-103441500D01*
X131866500Y-103695500D01*
X131846500Y-103695500D01*
X131846500Y-105727500D01*
X131866500Y-105727500D01*
X131866500Y-105981500D01*
X131846500Y-105981500D01*
X131846500Y-107055750D01*
X132005250Y-107214500D01*
X132307000Y-107217572D01*
X132431482Y-107205312D01*
X132551180Y-107169002D01*
X132661494Y-107110037D01*
X132758185Y-107030685D01*
X132823658Y-106950906D01*
X132829038Y-106957462D01*
X132963614Y-107067905D01*
X133117150Y-107149972D01*
X133283746Y-107200508D01*
X133457000Y-107217572D01*
X134132000Y-107217572D01*
X134305254Y-107200508D01*
X134471850Y-107149972D01*
X134579822Y-107092259D01*
X134649006Y-107149037D01*
X134759320Y-107208002D01*
X134879018Y-107244312D01*
X135003500Y-107256572D01*
X135132001Y-107256572D01*
X135132000Y-109504799D01*
X135092518Y-109508688D01*
X134972820Y-109544998D01*
X134862506Y-109603963D01*
X134765815Y-109683315D01*
X134686463Y-109780006D01*
X134627498Y-109890320D01*
X134591188Y-110010018D01*
X134578928Y-110134500D01*
X134578928Y-111734500D01*
X134591188Y-111858982D01*
X134627498Y-111978680D01*
X134686463Y-112088994D01*
X134765815Y-112185685D01*
X134862506Y-112265037D01*
X134972820Y-112324002D01*
X135092518Y-112360312D01*
X135217000Y-112372572D01*
X136817000Y-112372572D01*
X136941482Y-112360312D01*
X137061180Y-112324002D01*
X137171494Y-112265037D01*
X137268185Y-112185685D01*
X137347537Y-112088994D01*
X137406502Y-111978680D01*
X137422117Y-111927202D01*
X137703903Y-111927202D01*
X137775486Y-112171171D01*
X138030996Y-112292071D01*
X138305184Y-112360800D01*
X138587512Y-112374717D01*
X138867130Y-112333287D01*
X139133292Y-112238103D01*
X139258514Y-112171171D01*
X139330097Y-111927202D01*
X138517000Y-111114105D01*
X137703903Y-111927202D01*
X137422117Y-111927202D01*
X137442812Y-111858982D01*
X137455072Y-111734500D01*
X137455072Y-111727285D01*
X137524298Y-111747597D01*
X138337395Y-110934500D01*
X138696605Y-110934500D01*
X139509702Y-111747597D01*
X139753671Y-111676014D01*
X139874571Y-111420504D01*
X139943300Y-111146316D01*
X139957217Y-110863988D01*
X139915787Y-110584370D01*
X139820603Y-110318208D01*
X139753671Y-110192986D01*
X139509702Y-110121403D01*
X138696605Y-110934500D01*
X138337395Y-110934500D01*
X137524298Y-110121403D01*
X137455072Y-110141715D01*
X137455072Y-110134500D01*
X137442812Y-110010018D01*
X137422118Y-109941798D01*
X137703903Y-109941798D01*
X138517000Y-110754895D01*
X139330097Y-109941798D01*
X139258514Y-109697829D01*
X139003004Y-109576929D01*
X138728816Y-109508200D01*
X138446488Y-109494283D01*
X138166870Y-109535713D01*
X137900708Y-109630897D01*
X137775486Y-109697829D01*
X137703903Y-109941798D01*
X137422118Y-109941798D01*
X137406502Y-109890320D01*
X137347537Y-109780006D01*
X137268185Y-109683315D01*
X137171494Y-109603963D01*
X137061180Y-109544998D01*
X136941482Y-109508688D01*
X136902000Y-109504799D01*
X136902000Y-107256572D01*
X137003500Y-107256572D01*
X137127982Y-107244312D01*
X137247680Y-107208002D01*
X137357994Y-107149037D01*
X137454685Y-107069685D01*
X137534037Y-106972994D01*
X137593002Y-106862680D01*
X137629312Y-106742982D01*
X137641572Y-106618500D01*
X137641572Y-105118500D01*
X137629312Y-104994018D01*
X137593002Y-104874320D01*
X137534037Y-104764006D01*
X137496691Y-104718500D01*
X137534037Y-104672994D01*
X137593002Y-104562680D01*
X137626121Y-104453500D01*
X138336046Y-104453500D01*
X138384244Y-104485705D01*
X138572602Y-104563726D01*
X138772561Y-104603500D01*
X138976439Y-104603500D01*
X139176398Y-104563726D01*
X139364756Y-104485705D01*
X139412954Y-104453500D01*
X140665428Y-104453500D01*
X140665428Y-105468500D01*
X140677688Y-105592982D01*
X140713998Y-105712680D01*
X140772963Y-105822994D01*
X140852315Y-105919685D01*
X140949006Y-105999037D01*
X141059320Y-106058002D01*
X141179018Y-106094312D01*
X141303500Y-106106572D01*
X143303500Y-106106572D01*
X143427982Y-106094312D01*
X143547680Y-106058002D01*
X143657994Y-105999037D01*
X143754685Y-105919685D01*
X143834037Y-105822994D01*
X143893002Y-105712680D01*
X143929312Y-105592982D01*
X143941572Y-105468500D01*
X143941572Y-101668500D01*
X143929312Y-101544018D01*
X143893002Y-101424320D01*
X143834037Y-101314006D01*
X143754685Y-101217315D01*
X143657994Y-101137963D01*
X143547680Y-101078998D01*
X143427982Y-101042688D01*
X143303500Y-101030428D01*
X141303500Y-101030428D01*
X141179018Y-101042688D01*
X141059320Y-101078998D01*
X140949006Y-101137963D01*
X140852315Y-101217315D01*
X140772963Y-101314006D01*
X140713998Y-101424320D01*
X140677688Y-101544018D01*
X140665428Y-101668500D01*
X140665428Y-102683500D01*
X139412954Y-102683500D01*
X139364756Y-102651295D01*
X139176398Y-102573274D01*
X138976439Y-102533500D01*
X138772561Y-102533500D01*
X138572602Y-102573274D01*
X138384244Y-102651295D01*
X138336046Y-102683500D01*
X137626121Y-102683500D01*
X137593002Y-102574320D01*
X137534037Y-102464006D01*
X137496691Y-102418500D01*
X137534037Y-102372994D01*
X137593002Y-102262680D01*
X137629312Y-102142982D01*
X137641572Y-102018500D01*
X137638500Y-101554250D01*
X137479750Y-101395500D01*
X136130500Y-101395500D01*
X136130500Y-101415500D01*
X135876500Y-101415500D01*
X135876500Y-101395500D01*
X134527250Y-101395500D01*
X134368500Y-101554250D01*
X134365428Y-102018500D01*
X134377688Y-102142982D01*
X134411592Y-102254749D01*
X134305254Y-102222492D01*
X134132000Y-102205428D01*
X133457000Y-102205428D01*
X133283746Y-102222492D01*
X133117150Y-102273028D01*
X132963614Y-102355095D01*
X132829038Y-102465538D01*
X132823658Y-102472094D01*
X132758185Y-102392315D01*
X132661494Y-102312963D01*
X132551180Y-102253998D01*
X132431482Y-102217688D01*
X132307000Y-102205428D01*
X132005250Y-102208500D01*
X131846500Y-102367250D01*
X131592500Y-102367250D01*
X131433750Y-102208500D01*
X131132000Y-102205428D01*
X131007518Y-102217688D01*
X130887820Y-102253998D01*
X130777506Y-102312963D01*
X130680815Y-102392315D01*
X130601463Y-102489006D01*
X130542498Y-102599320D01*
X130506188Y-102719018D01*
X130493928Y-102843500D01*
X108610000Y-102843500D01*
X108610000Y-100518500D01*
X134365428Y-100518500D01*
X134368500Y-100982750D01*
X134527250Y-101141500D01*
X135876500Y-101141500D01*
X135876500Y-100042250D01*
X136130500Y-100042250D01*
X136130500Y-101141500D01*
X137479750Y-101141500D01*
X137638500Y-100982750D01*
X137641572Y-100518500D01*
X137629312Y-100394018D01*
X137593002Y-100274320D01*
X137534037Y-100164006D01*
X137454685Y-100067315D01*
X137357994Y-99987963D01*
X137247680Y-99928998D01*
X137127982Y-99892688D01*
X137003500Y-99880428D01*
X136289250Y-99883500D01*
X136130500Y-100042250D01*
X135876500Y-100042250D01*
X135717750Y-99883500D01*
X135003500Y-99880428D01*
X134879018Y-99892688D01*
X134759320Y-99928998D01*
X134649006Y-99987963D01*
X134552315Y-100067315D01*
X134472963Y-100164006D01*
X134413998Y-100274320D01*
X134377688Y-100394018D01*
X134365428Y-100518500D01*
X108610000Y-100518500D01*
X108610000Y-95339000D01*
X137412928Y-95339000D01*
X137412928Y-96939000D01*
X137425188Y-97063482D01*
X137461498Y-97183180D01*
X137520463Y-97293494D01*
X137599815Y-97390185D01*
X137696506Y-97469537D01*
X137806820Y-97528502D01*
X137926518Y-97564812D01*
X138051000Y-97577072D01*
X139651000Y-97577072D01*
X139775482Y-97564812D01*
X139895180Y-97528502D01*
X140005494Y-97469537D01*
X140102185Y-97390185D01*
X140181537Y-97293494D01*
X140240502Y-97183180D01*
X140256117Y-97131702D01*
X140537903Y-97131702D01*
X140609486Y-97375671D01*
X140864996Y-97496571D01*
X141139184Y-97565300D01*
X141421512Y-97579217D01*
X141701130Y-97537787D01*
X141967292Y-97442603D01*
X142092514Y-97375671D01*
X142164097Y-97131702D01*
X141351000Y-96318605D01*
X140537903Y-97131702D01*
X140256117Y-97131702D01*
X140276812Y-97063482D01*
X140289072Y-96939000D01*
X140289072Y-96931785D01*
X140358298Y-96952097D01*
X141171395Y-96139000D01*
X141530605Y-96139000D01*
X142343702Y-96952097D01*
X142587671Y-96880514D01*
X142708571Y-96625004D01*
X142777300Y-96350816D01*
X142791217Y-96068488D01*
X142749787Y-95788870D01*
X142654603Y-95522708D01*
X142587671Y-95397486D01*
X142343702Y-95325903D01*
X141530605Y-96139000D01*
X141171395Y-96139000D01*
X140358298Y-95325903D01*
X140289072Y-95346215D01*
X140289072Y-95339000D01*
X140276812Y-95214518D01*
X140256118Y-95146298D01*
X140537903Y-95146298D01*
X141351000Y-95959395D01*
X142164097Y-95146298D01*
X142092514Y-94902329D01*
X141837004Y-94781429D01*
X141562816Y-94712700D01*
X141280488Y-94698783D01*
X141000870Y-94740213D01*
X140734708Y-94835397D01*
X140609486Y-94902329D01*
X140537903Y-95146298D01*
X140256118Y-95146298D01*
X140240502Y-95094820D01*
X140181537Y-94984506D01*
X140102185Y-94887815D01*
X140005494Y-94808463D01*
X139895180Y-94749498D01*
X139775482Y-94713188D01*
X139651000Y-94700928D01*
X138051000Y-94700928D01*
X137926518Y-94713188D01*
X137806820Y-94749498D01*
X137696506Y-94808463D01*
X137599815Y-94887815D01*
X137520463Y-94984506D01*
X137461498Y-95094820D01*
X137425188Y-95214518D01*
X137412928Y-95339000D01*
X108610000Y-95339000D01*
X108610000Y-91733000D01*
X118336428Y-91733000D01*
X118336428Y-93433000D01*
X118348688Y-93557482D01*
X118384998Y-93677180D01*
X118443963Y-93787494D01*
X118523315Y-93884185D01*
X118620006Y-93963537D01*
X118730320Y-94022502D01*
X118850018Y-94058812D01*
X118974500Y-94071072D01*
X120674500Y-94071072D01*
X120798982Y-94058812D01*
X120918680Y-94022502D01*
X121028994Y-93963537D01*
X121125685Y-93884185D01*
X121157504Y-93845413D01*
X160143692Y-93845413D01*
X160239456Y-94109814D01*
X160529071Y-94250704D01*
X160840608Y-94332384D01*
X161162095Y-94351718D01*
X161481175Y-94307961D01*
X161785588Y-94202795D01*
X161959544Y-94109814D01*
X162055308Y-93845413D01*
X161099500Y-92889605D01*
X160143692Y-93845413D01*
X121157504Y-93845413D01*
X121205037Y-93787494D01*
X121264002Y-93677180D01*
X121300312Y-93557482D01*
X121312572Y-93433000D01*
X121312572Y-92329202D01*
X134822903Y-92329202D01*
X134894486Y-92573171D01*
X135149996Y-92694071D01*
X135424184Y-92762800D01*
X135706512Y-92776717D01*
X135734332Y-92772595D01*
X159457782Y-92772595D01*
X159501539Y-93091675D01*
X159606705Y-93396088D01*
X159699686Y-93570044D01*
X159964087Y-93665808D01*
X160919895Y-92710000D01*
X161279105Y-92710000D01*
X162234913Y-93665808D01*
X162499314Y-93570044D01*
X162640204Y-93280429D01*
X162721884Y-92968892D01*
X162741218Y-92647405D01*
X162697461Y-92328325D01*
X162592295Y-92023912D01*
X162499314Y-91849956D01*
X162234913Y-91754192D01*
X161279105Y-92710000D01*
X160919895Y-92710000D01*
X159964087Y-91754192D01*
X159699686Y-91849956D01*
X159558796Y-92139571D01*
X159477116Y-92451108D01*
X159457782Y-92772595D01*
X135734332Y-92772595D01*
X135986130Y-92735287D01*
X136252292Y-92640103D01*
X136377514Y-92573171D01*
X136449097Y-92329202D01*
X135636000Y-91516105D01*
X134822903Y-92329202D01*
X121312572Y-92329202D01*
X121312572Y-91733000D01*
X121300312Y-91608518D01*
X121264002Y-91488820D01*
X121220275Y-91407012D01*
X134195783Y-91407012D01*
X134237213Y-91686630D01*
X134332397Y-91952792D01*
X134399329Y-92078014D01*
X134643298Y-92149597D01*
X135456395Y-91336500D01*
X135815605Y-91336500D01*
X136628702Y-92149597D01*
X136872671Y-92078014D01*
X136993571Y-91822504D01*
X137055714Y-91574587D01*
X160143692Y-91574587D01*
X161099500Y-92530395D01*
X162055308Y-91574587D01*
X161959544Y-91310186D01*
X161669929Y-91169296D01*
X161358392Y-91087616D01*
X161036905Y-91068282D01*
X160717825Y-91112039D01*
X160413412Y-91217205D01*
X160239456Y-91310186D01*
X160143692Y-91574587D01*
X137055714Y-91574587D01*
X137062300Y-91548316D01*
X137076217Y-91265988D01*
X137034787Y-90986370D01*
X136939603Y-90720208D01*
X136872671Y-90594986D01*
X136628702Y-90523403D01*
X135815605Y-91336500D01*
X135456395Y-91336500D01*
X134643298Y-90523403D01*
X134399329Y-90594986D01*
X134278429Y-90850496D01*
X134209700Y-91124684D01*
X134195783Y-91407012D01*
X121220275Y-91407012D01*
X121205037Y-91378506D01*
X121125685Y-91281815D01*
X121028994Y-91202463D01*
X120918680Y-91143498D01*
X120846120Y-91121487D01*
X120977975Y-90989632D01*
X121140490Y-90746411D01*
X121252432Y-90476158D01*
X121309500Y-90189260D01*
X121309500Y-89896740D01*
X121252432Y-89609842D01*
X121140490Y-89339589D01*
X120977975Y-89096368D01*
X120771132Y-88889525D01*
X120596740Y-88773000D01*
X120771132Y-88656475D01*
X120977975Y-88449632D01*
X121140490Y-88206411D01*
X121252432Y-87936158D01*
X121309500Y-87649260D01*
X121309500Y-87356740D01*
X121252432Y-87069842D01*
X121140490Y-86799589D01*
X120977975Y-86556368D01*
X120771132Y-86349525D01*
X120596740Y-86233000D01*
X120771132Y-86116475D01*
X120977975Y-85909632D01*
X121140490Y-85666411D01*
X121252432Y-85396158D01*
X121309500Y-85109260D01*
X121309500Y-84816740D01*
X121252432Y-84529842D01*
X121140490Y-84259589D01*
X120977975Y-84016368D01*
X120771132Y-83809525D01*
X120596740Y-83693000D01*
X120771132Y-83576475D01*
X120977975Y-83369632D01*
X121140490Y-83126411D01*
X121252432Y-82856158D01*
X121309500Y-82569260D01*
X121309500Y-82276740D01*
X121252432Y-81989842D01*
X121156985Y-81759411D01*
X126446000Y-81759411D01*
X126446000Y-81943589D01*
X126481932Y-82124229D01*
X126552414Y-82294389D01*
X126654738Y-82447528D01*
X126784972Y-82577762D01*
X126938111Y-82680086D01*
X127108271Y-82750568D01*
X127288911Y-82786500D01*
X127473089Y-82786500D01*
X127653729Y-82750568D01*
X127823889Y-82680086D01*
X127926535Y-82611500D01*
X129031986Y-82611500D01*
X128880472Y-82712738D01*
X128750238Y-82842972D01*
X128647914Y-82996111D01*
X128577432Y-83166271D01*
X128541500Y-83346911D01*
X128541500Y-83531089D01*
X128577432Y-83711729D01*
X128647914Y-83881889D01*
X128750238Y-84035028D01*
X128880472Y-84165262D01*
X129033611Y-84267586D01*
X129203771Y-84338068D01*
X129384411Y-84374000D01*
X129568589Y-84374000D01*
X129749229Y-84338068D01*
X129883177Y-84282585D01*
X129893877Y-84295623D01*
X130026558Y-84404512D01*
X130177933Y-84485423D01*
X130342184Y-84535248D01*
X130513000Y-84552072D01*
X131013000Y-84552072D01*
X131183816Y-84535248D01*
X131348067Y-84485423D01*
X131499442Y-84404512D01*
X131632123Y-84295623D01*
X131675500Y-84242768D01*
X131718877Y-84295623D01*
X131851558Y-84404512D01*
X132002933Y-84485423D01*
X132167184Y-84535248D01*
X132338000Y-84552072D01*
X132838000Y-84552072D01*
X133008816Y-84535248D01*
X133173067Y-84485423D01*
X133324442Y-84404512D01*
X133457123Y-84295623D01*
X133566012Y-84162942D01*
X133646923Y-84011567D01*
X133696748Y-83847316D01*
X133713572Y-83676500D01*
X133713572Y-83388229D01*
X134434802Y-82667000D01*
X134472379Y-82667000D01*
X134505498Y-82776180D01*
X134564463Y-82886494D01*
X134643815Y-82983185D01*
X134735343Y-83058300D01*
X134730113Y-83061095D01*
X134595538Y-83171538D01*
X134485095Y-83306113D01*
X134403028Y-83459649D01*
X134352492Y-83626245D01*
X134335428Y-83799499D01*
X134335428Y-85999501D01*
X134352492Y-86172755D01*
X134403028Y-86339351D01*
X134485095Y-86492887D01*
X134595538Y-86627462D01*
X134730113Y-86737905D01*
X134876000Y-86815884D01*
X134876001Y-87398428D01*
X134836000Y-87398428D01*
X134711518Y-87410688D01*
X134591820Y-87446998D01*
X134481506Y-87505963D01*
X134384815Y-87585315D01*
X134305463Y-87682006D01*
X134246498Y-87792320D01*
X134210188Y-87912018D01*
X134197928Y-88036500D01*
X134197928Y-89636500D01*
X134210188Y-89760982D01*
X134246498Y-89880680D01*
X134305463Y-89990994D01*
X134384815Y-90087685D01*
X134481506Y-90167037D01*
X134591820Y-90226002D01*
X134711518Y-90262312D01*
X134836000Y-90274572D01*
X134843215Y-90274572D01*
X134822903Y-90343798D01*
X135636000Y-91156895D01*
X136449097Y-90343798D01*
X136428785Y-90274572D01*
X136436000Y-90274572D01*
X136560482Y-90262312D01*
X136680180Y-90226002D01*
X136790494Y-90167037D01*
X136887185Y-90087685D01*
X136966537Y-89990994D01*
X137025502Y-89880680D01*
X137061812Y-89760982D01*
X137074072Y-89636500D01*
X137074072Y-88036500D01*
X137065327Y-87947702D01*
X142379403Y-87947702D01*
X142450986Y-88191671D01*
X142706496Y-88312571D01*
X142980684Y-88381300D01*
X143263012Y-88395217D01*
X143542630Y-88353787D01*
X143808792Y-88258603D01*
X143934014Y-88191671D01*
X144005597Y-87947702D01*
X143192500Y-87134605D01*
X142379403Y-87947702D01*
X137065327Y-87947702D01*
X137061812Y-87912018D01*
X137025502Y-87792320D01*
X136966537Y-87682006D01*
X136887185Y-87585315D01*
X136790494Y-87505963D01*
X136680180Y-87446998D01*
X136560482Y-87410688D01*
X136436000Y-87398428D01*
X136396000Y-87398428D01*
X136396000Y-87025512D01*
X141752283Y-87025512D01*
X141793713Y-87305130D01*
X141888897Y-87571292D01*
X141955829Y-87696514D01*
X142199798Y-87768097D01*
X143012895Y-86955000D01*
X143372105Y-86955000D01*
X144185202Y-87768097D01*
X144429171Y-87696514D01*
X144550071Y-87441004D01*
X144618800Y-87166816D01*
X144632717Y-86884488D01*
X144591287Y-86604870D01*
X144496103Y-86338708D01*
X144429171Y-86213486D01*
X144185202Y-86141903D01*
X143372105Y-86955000D01*
X143012895Y-86955000D01*
X142199798Y-86141903D01*
X141955829Y-86213486D01*
X141834929Y-86468996D01*
X141766200Y-86743184D01*
X141752283Y-87025512D01*
X136396000Y-87025512D01*
X136396000Y-86815884D01*
X136541887Y-86737905D01*
X136676462Y-86627462D01*
X136786905Y-86492887D01*
X136868972Y-86339351D01*
X136896227Y-86249500D01*
X137460428Y-86249500D01*
X137472688Y-86373982D01*
X137508998Y-86493680D01*
X137567963Y-86603994D01*
X137647315Y-86700685D01*
X137744006Y-86780037D01*
X137854320Y-86839002D01*
X137974018Y-86875312D01*
X138098500Y-86887572D01*
X138475250Y-86884500D01*
X138634000Y-86725750D01*
X138634000Y-85026500D01*
X138888000Y-85026500D01*
X138888000Y-86725750D01*
X139046750Y-86884500D01*
X139423500Y-86887572D01*
X139547982Y-86875312D01*
X139667680Y-86839002D01*
X139777994Y-86780037D01*
X139874685Y-86700685D01*
X139954037Y-86603994D01*
X140013002Y-86493680D01*
X140049312Y-86373982D01*
X140061572Y-86249500D01*
X140058500Y-85185250D01*
X139899750Y-85026500D01*
X138888000Y-85026500D01*
X138634000Y-85026500D01*
X137622250Y-85026500D01*
X137463500Y-85185250D01*
X137460428Y-86249500D01*
X136896227Y-86249500D01*
X136919508Y-86172755D01*
X136936572Y-85999501D01*
X136936572Y-83799499D01*
X136919508Y-83626245D01*
X136896228Y-83549500D01*
X137460428Y-83549500D01*
X137463500Y-84613750D01*
X137622250Y-84772500D01*
X138634000Y-84772500D01*
X138634000Y-83073250D01*
X138475250Y-82914500D01*
X138098500Y-82911428D01*
X137974018Y-82923688D01*
X137854320Y-82959998D01*
X137744006Y-83018963D01*
X137647315Y-83098315D01*
X137567963Y-83195006D01*
X137508998Y-83305320D01*
X137472688Y-83425018D01*
X137460428Y-83549500D01*
X136896228Y-83549500D01*
X136868972Y-83459649D01*
X136786905Y-83306113D01*
X136676462Y-83171538D01*
X136545951Y-83064431D01*
X136549494Y-83062537D01*
X136646185Y-82983185D01*
X136725537Y-82886494D01*
X136784502Y-82776180D01*
X136820812Y-82656482D01*
X136833072Y-82532000D01*
X136833072Y-82282000D01*
X136820812Y-82157518D01*
X136820655Y-82157000D01*
X136820812Y-82156482D01*
X136833072Y-82032000D01*
X136833072Y-81782000D01*
X136820812Y-81657518D01*
X136820655Y-81657000D01*
X136820812Y-81656482D01*
X136833072Y-81532000D01*
X136833072Y-81282000D01*
X136820812Y-81157518D01*
X136820655Y-81157000D01*
X136820812Y-81156482D01*
X136833072Y-81032000D01*
X136833072Y-80782000D01*
X136820812Y-80657518D01*
X136820655Y-80657000D01*
X136820812Y-80656482D01*
X136833072Y-80532000D01*
X136833072Y-80282000D01*
X136820812Y-80157518D01*
X136784502Y-80037820D01*
X136725537Y-79927506D01*
X136646185Y-79830815D01*
X136549494Y-79751463D01*
X136439180Y-79692498D01*
X136319482Y-79656188D01*
X136195000Y-79643928D01*
X135095000Y-79643928D01*
X135063808Y-79647000D01*
X134633302Y-79647000D01*
X133713572Y-78727271D01*
X133713572Y-78439000D01*
X133696748Y-78268184D01*
X133646923Y-78103933D01*
X133566012Y-77952558D01*
X133457123Y-77819877D01*
X133324442Y-77710988D01*
X133173067Y-77630077D01*
X133008816Y-77580252D01*
X132838000Y-77563428D01*
X132338000Y-77563428D01*
X132167184Y-77580252D01*
X132002933Y-77630077D01*
X131851558Y-77710988D01*
X131718877Y-77819877D01*
X131675500Y-77872732D01*
X131632123Y-77819877D01*
X131499442Y-77710988D01*
X131348067Y-77630077D01*
X131183816Y-77580252D01*
X131013000Y-77563428D01*
X130513000Y-77563428D01*
X130342184Y-77580252D01*
X130177933Y-77630077D01*
X130026558Y-77710988D01*
X129893877Y-77819877D01*
X129883177Y-77832915D01*
X129749229Y-77777432D01*
X129568589Y-77741500D01*
X129384411Y-77741500D01*
X129203771Y-77777432D01*
X129033611Y-77847914D01*
X128880472Y-77950238D01*
X128750238Y-78080472D01*
X128647914Y-78233611D01*
X128577432Y-78403771D01*
X128541500Y-78584411D01*
X128541500Y-78768589D01*
X128577432Y-78949229D01*
X128647914Y-79119389D01*
X128750238Y-79272528D01*
X128880472Y-79402762D01*
X128949725Y-79449035D01*
X128816972Y-79537738D01*
X128686738Y-79667972D01*
X128584414Y-79821111D01*
X128513932Y-79991271D01*
X128478000Y-80171911D01*
X128478000Y-80356089D01*
X128513932Y-80536729D01*
X128584414Y-80706889D01*
X128686738Y-80860028D01*
X128816972Y-80990262D01*
X128968486Y-81091500D01*
X127926535Y-81091500D01*
X127823889Y-81022914D01*
X127653729Y-80952432D01*
X127473089Y-80916500D01*
X127288911Y-80916500D01*
X127108271Y-80952432D01*
X126938111Y-81022914D01*
X126784972Y-81125238D01*
X126654738Y-81255472D01*
X126552414Y-81408611D01*
X126481932Y-81578771D01*
X126446000Y-81759411D01*
X121156985Y-81759411D01*
X121140490Y-81719589D01*
X120977975Y-81476368D01*
X120771132Y-81269525D01*
X120596740Y-81153000D01*
X120771132Y-81036475D01*
X120977975Y-80829632D01*
X121140490Y-80586411D01*
X121252432Y-80316158D01*
X121309500Y-80029260D01*
X121309500Y-79736740D01*
X121252432Y-79449842D01*
X121140490Y-79179589D01*
X120977975Y-78936368D01*
X120771132Y-78729525D01*
X120596740Y-78613000D01*
X120771132Y-78496475D01*
X120977975Y-78289632D01*
X121140490Y-78046411D01*
X121252432Y-77776158D01*
X121309500Y-77489260D01*
X121309500Y-77196740D01*
X121252432Y-76909842D01*
X121140490Y-76639589D01*
X121045215Y-76496999D01*
X137560428Y-76496999D01*
X137560428Y-78697001D01*
X137577492Y-78870255D01*
X137628028Y-79036851D01*
X137710095Y-79190387D01*
X137820538Y-79324962D01*
X137871397Y-79366701D01*
X137839500Y-79527061D01*
X137839500Y-79730939D01*
X137879274Y-79930898D01*
X137957295Y-80119256D01*
X138070563Y-80288774D01*
X138114500Y-80332711D01*
X138114500Y-80559179D01*
X138110824Y-80596502D01*
X138114500Y-80633824D01*
X138114500Y-80633834D01*
X138125497Y-80745487D01*
X138155138Y-80843201D01*
X138168954Y-80888748D01*
X138239526Y-81020778D01*
X138268420Y-81055985D01*
X138334499Y-81136503D01*
X138363502Y-81160305D01*
X138621198Y-81418002D01*
X138644997Y-81447001D01*
X138760722Y-81541974D01*
X138775746Y-81550004D01*
X138760000Y-81565750D01*
X138770114Y-81654467D01*
X138769188Y-81657518D01*
X138756928Y-81782000D01*
X138756928Y-82032000D01*
X138769188Y-82156482D01*
X138769345Y-82157000D01*
X138769188Y-82157518D01*
X138756928Y-82282000D01*
X138756928Y-82532000D01*
X138769188Y-82656482D01*
X138805498Y-82776180D01*
X138864463Y-82886494D01*
X138943815Y-82983185D01*
X138962627Y-82998623D01*
X138888000Y-83073250D01*
X138888000Y-84772500D01*
X139899750Y-84772500D01*
X140058500Y-84613750D01*
X140061572Y-83549500D01*
X140049312Y-83425018D01*
X140013002Y-83305320D01*
X139954037Y-83195006D01*
X139933574Y-83170072D01*
X140495000Y-83170072D01*
X140526192Y-83167000D01*
X140829699Y-83167000D01*
X141754428Y-84091730D01*
X141754428Y-85255000D01*
X141766688Y-85379482D01*
X141802998Y-85499180D01*
X141861963Y-85609494D01*
X141941315Y-85706185D01*
X142038006Y-85785537D01*
X142148320Y-85844502D01*
X142268018Y-85880812D01*
X142392500Y-85893072D01*
X142399715Y-85893072D01*
X142379403Y-85962298D01*
X143192500Y-86775395D01*
X144005597Y-85962298D01*
X143985285Y-85893072D01*
X143992500Y-85893072D01*
X144116982Y-85880812D01*
X144236680Y-85844502D01*
X144346994Y-85785537D01*
X144443685Y-85706185D01*
X144523037Y-85609494D01*
X144582002Y-85499180D01*
X144618312Y-85379482D01*
X144630572Y-85255000D01*
X144630572Y-83655000D01*
X144618312Y-83530518D01*
X144582002Y-83410820D01*
X144523037Y-83300506D01*
X144443685Y-83203815D01*
X144346994Y-83124463D01*
X144236680Y-83065498D01*
X144116982Y-83029188D01*
X143992500Y-83016928D01*
X142829230Y-83016928D01*
X142479302Y-82667000D01*
X144634199Y-82667000D01*
X147339428Y-85372230D01*
X147339428Y-86698001D01*
X147356492Y-86871255D01*
X147407028Y-87037851D01*
X147489095Y-87191387D01*
X147599538Y-87325962D01*
X147734113Y-87436405D01*
X147887649Y-87518472D01*
X148054245Y-87569008D01*
X148227499Y-87586072D01*
X149052501Y-87586072D01*
X149225755Y-87569008D01*
X149392351Y-87518472D01*
X149545887Y-87436405D01*
X149680462Y-87325962D01*
X149790905Y-87191387D01*
X149872972Y-87037851D01*
X149923508Y-86871255D01*
X149940572Y-86698001D01*
X149940572Y-84497999D01*
X150464428Y-84497999D01*
X150464428Y-86698001D01*
X150481492Y-86871255D01*
X150532028Y-87037851D01*
X150614095Y-87191387D01*
X150724538Y-87325962D01*
X150859113Y-87436405D01*
X151012649Y-87518472D01*
X151179245Y-87569008D01*
X151352499Y-87586072D01*
X152177501Y-87586072D01*
X152350755Y-87569008D01*
X152517351Y-87518472D01*
X152670887Y-87436405D01*
X152805462Y-87325962D01*
X152915905Y-87191387D01*
X152997972Y-87037851D01*
X153048508Y-86871255D01*
X153064898Y-86704841D01*
X153071184Y-86706748D01*
X153242000Y-86723572D01*
X153717000Y-86723572D01*
X153887816Y-86706748D01*
X154052067Y-86656923D01*
X154203442Y-86576012D01*
X154251116Y-86536887D01*
X154283558Y-86563512D01*
X154434933Y-86644423D01*
X154599184Y-86694248D01*
X154770000Y-86711072D01*
X155270000Y-86711072D01*
X155440816Y-86694248D01*
X155605067Y-86644423D01*
X155756442Y-86563512D01*
X155889123Y-86454623D01*
X155932500Y-86401768D01*
X155975877Y-86454623D01*
X156108558Y-86563512D01*
X156259933Y-86644423D01*
X156424184Y-86694248D01*
X156595000Y-86711072D01*
X157095000Y-86711072D01*
X157265816Y-86694248D01*
X157430067Y-86644423D01*
X157528429Y-86591848D01*
X157654614Y-86695405D01*
X157808150Y-86777472D01*
X157974746Y-86828008D01*
X158148000Y-86845072D01*
X159098000Y-86845072D01*
X159271254Y-86828008D01*
X159437850Y-86777472D01*
X159591386Y-86695405D01*
X159725962Y-86584962D01*
X159832681Y-86454924D01*
X159956513Y-86640252D01*
X160184248Y-86867987D01*
X160452037Y-87046918D01*
X160749588Y-87170168D01*
X161065467Y-87233000D01*
X161387533Y-87233000D01*
X161703412Y-87170168D01*
X162000963Y-87046918D01*
X162268752Y-86867987D01*
X162496487Y-86640252D01*
X162675418Y-86372463D01*
X162798668Y-86074912D01*
X162861500Y-85759033D01*
X162861500Y-85436967D01*
X162798668Y-85121088D01*
X162675418Y-84823537D01*
X162496487Y-84555748D01*
X162268752Y-84328013D01*
X162000963Y-84149082D01*
X161703412Y-84025832D01*
X161387533Y-83963000D01*
X161065467Y-83963000D01*
X160749588Y-84025832D01*
X160452037Y-84149082D01*
X160184248Y-84328013D01*
X159956513Y-84555748D01*
X159816843Y-84764778D01*
X159725962Y-84654038D01*
X159719406Y-84648658D01*
X159799185Y-84583185D01*
X159878537Y-84486494D01*
X159937502Y-84376180D01*
X159973812Y-84256482D01*
X159986072Y-84132000D01*
X159983000Y-83830250D01*
X159824250Y-83671500D01*
X158750000Y-83671500D01*
X158750000Y-83691500D01*
X158496000Y-83691500D01*
X158496000Y-83671500D01*
X157421750Y-83671500D01*
X157263000Y-83830250D01*
X157259928Y-84132000D01*
X157272188Y-84256482D01*
X157308498Y-84376180D01*
X157367463Y-84486494D01*
X157417828Y-84547864D01*
X157265816Y-84501752D01*
X157095000Y-84484928D01*
X156595000Y-84484928D01*
X156424184Y-84501752D01*
X156259933Y-84551577D01*
X156108558Y-84632488D01*
X155975877Y-84741377D01*
X155932500Y-84794232D01*
X155889123Y-84741377D01*
X155756442Y-84632488D01*
X155605067Y-84551577D01*
X155440816Y-84501752D01*
X155270000Y-84484928D01*
X154770000Y-84484928D01*
X154599184Y-84501752D01*
X154535191Y-84521164D01*
X154544002Y-84504680D01*
X154580312Y-84384982D01*
X154592572Y-84260500D01*
X154589500Y-84058750D01*
X154430750Y-83900000D01*
X153606500Y-83900000D01*
X153606500Y-83920000D01*
X153352500Y-83920000D01*
X153352500Y-83900000D01*
X153332500Y-83900000D01*
X153332500Y-83646000D01*
X153352500Y-83646000D01*
X153352500Y-82809250D01*
X153606500Y-82809250D01*
X153606500Y-83646000D01*
X154430750Y-83646000D01*
X154589500Y-83487250D01*
X154592572Y-83285500D01*
X154580312Y-83161018D01*
X154544002Y-83041320D01*
X154498932Y-82957000D01*
X157259928Y-82957000D01*
X157263000Y-83258750D01*
X157421750Y-83417500D01*
X158496000Y-83417500D01*
X158496000Y-82480750D01*
X158750000Y-82480750D01*
X158750000Y-83417500D01*
X159824250Y-83417500D01*
X159983000Y-83258750D01*
X159986072Y-82957000D01*
X159973812Y-82832518D01*
X159937502Y-82712820D01*
X159878537Y-82602506D01*
X159799185Y-82505815D01*
X159702494Y-82426463D01*
X159592180Y-82367498D01*
X159472482Y-82331188D01*
X159348000Y-82318928D01*
X158908750Y-82322000D01*
X158750000Y-82480750D01*
X158496000Y-82480750D01*
X158337250Y-82322000D01*
X157898000Y-82318928D01*
X157773518Y-82331188D01*
X157653820Y-82367498D01*
X157543506Y-82426463D01*
X157446815Y-82505815D01*
X157367463Y-82602506D01*
X157308498Y-82712820D01*
X157272188Y-82832518D01*
X157259928Y-82957000D01*
X154498932Y-82957000D01*
X154485037Y-82931006D01*
X154405685Y-82834315D01*
X154308994Y-82754963D01*
X154198680Y-82695998D01*
X154078982Y-82659688D01*
X153954500Y-82647428D01*
X153765250Y-82650500D01*
X153606500Y-82809250D01*
X153352500Y-82809250D01*
X153193750Y-82650500D01*
X153004500Y-82647428D01*
X152880018Y-82659688D01*
X152760320Y-82695998D01*
X152650006Y-82754963D01*
X152553315Y-82834315D01*
X152473963Y-82931006D01*
X152414998Y-83041320D01*
X152378688Y-83161018D01*
X152366428Y-83285500D01*
X152369500Y-83487250D01*
X152528248Y-83645998D01*
X152413410Y-83645998D01*
X152350755Y-83626992D01*
X152177501Y-83609928D01*
X151352499Y-83609928D01*
X151179245Y-83626992D01*
X151012649Y-83677528D01*
X150859113Y-83759595D01*
X150724538Y-83870038D01*
X150614095Y-84004613D01*
X150532028Y-84158149D01*
X150481492Y-84324745D01*
X150464428Y-84497999D01*
X149940572Y-84497999D01*
X149923508Y-84324745D01*
X149872972Y-84158149D01*
X149790905Y-84004613D01*
X149680462Y-83870038D01*
X149545887Y-83759595D01*
X149392351Y-83677528D01*
X149225755Y-83626992D01*
X149052501Y-83609928D01*
X148227499Y-83609928D01*
X148054245Y-83626992D01*
X147887649Y-83677528D01*
X147826835Y-83710034D01*
X145512804Y-81396003D01*
X145489001Y-81366999D01*
X145373276Y-81272026D01*
X145241247Y-81201454D01*
X145127665Y-81167000D01*
X145411678Y-81167000D01*
X145449000Y-81170676D01*
X145486322Y-81167000D01*
X145486333Y-81167000D01*
X145597986Y-81156003D01*
X145741247Y-81112546D01*
X145873276Y-81041974D01*
X145989001Y-80947001D01*
X146012804Y-80917997D01*
X147826836Y-79103966D01*
X147887649Y-79136472D01*
X148054245Y-79187008D01*
X148227499Y-79204072D01*
X149052501Y-79204072D01*
X149225755Y-79187008D01*
X149392351Y-79136472D01*
X149545887Y-79054405D01*
X149680462Y-78943962D01*
X149790905Y-78809387D01*
X149872972Y-78655851D01*
X149923508Y-78489255D01*
X149940572Y-78316001D01*
X149940572Y-76115999D01*
X150464428Y-76115999D01*
X150464428Y-78316001D01*
X150481492Y-78489255D01*
X150532028Y-78655851D01*
X150614095Y-78809387D01*
X150724538Y-78943962D01*
X150859113Y-79054405D01*
X151012649Y-79136472D01*
X151179245Y-79187008D01*
X151352499Y-79204072D01*
X152177501Y-79204072D01*
X152350755Y-79187008D01*
X152413410Y-79168002D01*
X152528248Y-79168002D01*
X152369500Y-79326750D01*
X152366428Y-79528500D01*
X152378688Y-79652982D01*
X152414998Y-79772680D01*
X152473963Y-79882994D01*
X152553315Y-79979685D01*
X152650006Y-80059037D01*
X152760320Y-80118002D01*
X152880018Y-80154312D01*
X153004500Y-80166572D01*
X153193750Y-80163500D01*
X153352500Y-80004750D01*
X153352500Y-79168000D01*
X153606500Y-79168000D01*
X153606500Y-80004750D01*
X153765250Y-80163500D01*
X153954500Y-80166572D01*
X154078982Y-80154312D01*
X154198680Y-80118002D01*
X154308994Y-80059037D01*
X154405685Y-79979685D01*
X154485037Y-79882994D01*
X154487439Y-79878500D01*
X157259928Y-79878500D01*
X157272188Y-80002982D01*
X157308498Y-80122680D01*
X157367463Y-80232994D01*
X157446815Y-80329685D01*
X157543506Y-80409037D01*
X157653820Y-80468002D01*
X157773518Y-80504312D01*
X157898000Y-80516572D01*
X158337250Y-80513500D01*
X158496000Y-80354750D01*
X158496000Y-79418000D01*
X158750000Y-79418000D01*
X158750000Y-80354750D01*
X158908750Y-80513500D01*
X159348000Y-80516572D01*
X159472482Y-80504312D01*
X159592180Y-80468002D01*
X159702494Y-80409037D01*
X159799185Y-80329685D01*
X159878537Y-80232994D01*
X159937502Y-80122680D01*
X159973812Y-80002982D01*
X159986072Y-79878500D01*
X159983000Y-79576750D01*
X159824250Y-79418000D01*
X158750000Y-79418000D01*
X158496000Y-79418000D01*
X157421750Y-79418000D01*
X157263000Y-79576750D01*
X157259928Y-79878500D01*
X154487439Y-79878500D01*
X154544002Y-79772680D01*
X154580312Y-79652982D01*
X154592572Y-79528500D01*
X154589500Y-79326750D01*
X154430750Y-79168000D01*
X153606500Y-79168000D01*
X153352500Y-79168000D01*
X153332500Y-79168000D01*
X153332500Y-78914000D01*
X153352500Y-78914000D01*
X153352500Y-78894000D01*
X153606500Y-78894000D01*
X153606500Y-78914000D01*
X154430750Y-78914000D01*
X154589500Y-78755250D01*
X154592572Y-78553500D01*
X154580312Y-78429018D01*
X154544002Y-78309320D01*
X154535191Y-78292836D01*
X154599184Y-78312248D01*
X154770000Y-78329072D01*
X155270000Y-78329072D01*
X155440816Y-78312248D01*
X155605067Y-78262423D01*
X155756442Y-78181512D01*
X155889123Y-78072623D01*
X155932500Y-78019768D01*
X155975877Y-78072623D01*
X156108558Y-78181512D01*
X156259933Y-78262423D01*
X156424184Y-78312248D01*
X156595000Y-78329072D01*
X157095000Y-78329072D01*
X157265816Y-78312248D01*
X157430067Y-78262423D01*
X157445125Y-78254374D01*
X157367463Y-78349006D01*
X157308498Y-78459320D01*
X157272188Y-78579018D01*
X157259928Y-78703500D01*
X157263000Y-79005250D01*
X157421750Y-79164000D01*
X158496000Y-79164000D01*
X158496000Y-79144000D01*
X158750000Y-79144000D01*
X158750000Y-79164000D01*
X159824250Y-79164000D01*
X159983000Y-79005250D01*
X159986072Y-78703500D01*
X159973812Y-78579018D01*
X159937502Y-78459320D01*
X159878537Y-78349006D01*
X159799185Y-78252315D01*
X159719406Y-78186842D01*
X159725962Y-78181462D01*
X159824762Y-78061073D01*
X159956513Y-78258252D01*
X160184248Y-78485987D01*
X160452037Y-78664918D01*
X160749588Y-78788168D01*
X161065467Y-78851000D01*
X161387533Y-78851000D01*
X161703412Y-78788168D01*
X162000963Y-78664918D01*
X162268752Y-78485987D01*
X162496487Y-78258252D01*
X162675418Y-77990463D01*
X162798668Y-77692912D01*
X162861500Y-77377033D01*
X162861500Y-77054967D01*
X162798668Y-76739088D01*
X162675418Y-76441537D01*
X162496487Y-76173748D01*
X162268752Y-75946013D01*
X162000963Y-75767082D01*
X161703412Y-75643832D01*
X161387533Y-75581000D01*
X161065467Y-75581000D01*
X160749588Y-75643832D01*
X160452037Y-75767082D01*
X160184248Y-75946013D01*
X159956513Y-76173748D01*
X159824762Y-76370927D01*
X159725962Y-76250538D01*
X159591386Y-76140095D01*
X159437850Y-76058028D01*
X159271254Y-76007492D01*
X159098000Y-75990428D01*
X158148000Y-75990428D01*
X157974746Y-76007492D01*
X157808150Y-76058028D01*
X157654614Y-76140095D01*
X157544294Y-76230632D01*
X157430067Y-76169577D01*
X157265816Y-76119752D01*
X157095000Y-76102928D01*
X156595000Y-76102928D01*
X156424184Y-76119752D01*
X156259933Y-76169577D01*
X156108558Y-76250488D01*
X155975877Y-76359377D01*
X155932500Y-76412232D01*
X155889123Y-76359377D01*
X155756442Y-76250488D01*
X155605067Y-76169577D01*
X155440816Y-76119752D01*
X155270000Y-76102928D01*
X154770000Y-76102928D01*
X154599184Y-76119752D01*
X154434933Y-76169577D01*
X154283558Y-76250488D01*
X154251116Y-76277113D01*
X154203442Y-76237988D01*
X154052067Y-76157077D01*
X153887816Y-76107252D01*
X153717000Y-76090428D01*
X153242000Y-76090428D01*
X153071184Y-76107252D01*
X153064898Y-76109159D01*
X153048508Y-75942745D01*
X152997972Y-75776149D01*
X152915905Y-75622613D01*
X152805462Y-75488038D01*
X152670887Y-75377595D01*
X152517351Y-75295528D01*
X152350755Y-75244992D01*
X152177501Y-75227928D01*
X151352499Y-75227928D01*
X151179245Y-75244992D01*
X151012649Y-75295528D01*
X150859113Y-75377595D01*
X150724538Y-75488038D01*
X150614095Y-75622613D01*
X150532028Y-75776149D01*
X150481492Y-75942745D01*
X150464428Y-76115999D01*
X149940572Y-76115999D01*
X149923508Y-75942745D01*
X149872972Y-75776149D01*
X149790905Y-75622613D01*
X149680462Y-75488038D01*
X149545887Y-75377595D01*
X149392351Y-75295528D01*
X149225755Y-75244992D01*
X149052501Y-75227928D01*
X148227499Y-75227928D01*
X148054245Y-75244992D01*
X147887649Y-75295528D01*
X147734113Y-75377595D01*
X147599538Y-75488038D01*
X147489095Y-75622613D01*
X147407028Y-75776149D01*
X147356492Y-75942745D01*
X147339428Y-76115999D01*
X147339428Y-77441769D01*
X145134199Y-79647000D01*
X140526192Y-79647000D01*
X140495000Y-79643928D01*
X139909500Y-79643928D01*
X139909500Y-79527061D01*
X139873814Y-79347652D01*
X139901462Y-79324962D01*
X140011905Y-79190387D01*
X140093972Y-79036851D01*
X140121227Y-78947000D01*
X140685428Y-78947000D01*
X140697688Y-79071482D01*
X140733998Y-79191180D01*
X140792963Y-79301494D01*
X140872315Y-79398185D01*
X140969006Y-79477537D01*
X141079320Y-79536502D01*
X141199018Y-79572812D01*
X141323500Y-79585072D01*
X141700250Y-79582000D01*
X141859000Y-79423250D01*
X141859000Y-77724000D01*
X142113000Y-77724000D01*
X142113000Y-79423250D01*
X142271750Y-79582000D01*
X142648500Y-79585072D01*
X142772982Y-79572812D01*
X142892680Y-79536502D01*
X143002994Y-79477537D01*
X143099685Y-79398185D01*
X143179037Y-79301494D01*
X143238002Y-79191180D01*
X143274312Y-79071482D01*
X143286572Y-78947000D01*
X143283500Y-77882750D01*
X143124750Y-77724000D01*
X142113000Y-77724000D01*
X141859000Y-77724000D01*
X140847250Y-77724000D01*
X140688500Y-77882750D01*
X140685428Y-78947000D01*
X140121227Y-78947000D01*
X140144508Y-78870255D01*
X140161572Y-78697001D01*
X140161572Y-76496999D01*
X140144508Y-76323745D01*
X140121228Y-76247000D01*
X140685428Y-76247000D01*
X140688500Y-77311250D01*
X140847250Y-77470000D01*
X141859000Y-77470000D01*
X141859000Y-75770750D01*
X142113000Y-75770750D01*
X142113000Y-77470000D01*
X143124750Y-77470000D01*
X143283500Y-77311250D01*
X143286572Y-76247000D01*
X143274312Y-76122518D01*
X143238002Y-76002820D01*
X143179037Y-75892506D01*
X143099685Y-75795815D01*
X143002994Y-75716463D01*
X142892680Y-75657498D01*
X142772982Y-75621188D01*
X142648500Y-75608928D01*
X142271750Y-75612000D01*
X142113000Y-75770750D01*
X141859000Y-75770750D01*
X141700250Y-75612000D01*
X141323500Y-75608928D01*
X141199018Y-75621188D01*
X141079320Y-75657498D01*
X140969006Y-75716463D01*
X140872315Y-75795815D01*
X140792963Y-75892506D01*
X140733998Y-76002820D01*
X140697688Y-76122518D01*
X140685428Y-76247000D01*
X140121228Y-76247000D01*
X140093972Y-76157149D01*
X140011905Y-76003613D01*
X139901462Y-75869038D01*
X139766887Y-75758595D01*
X139613351Y-75676528D01*
X139446755Y-75625992D01*
X139273501Y-75608928D01*
X138448499Y-75608928D01*
X138275245Y-75625992D01*
X138108649Y-75676528D01*
X137955113Y-75758595D01*
X137820538Y-75869038D01*
X137710095Y-76003613D01*
X137628028Y-76157149D01*
X137577492Y-76323745D01*
X137560428Y-76496999D01*
X121045215Y-76496999D01*
X120977975Y-76396368D01*
X120771132Y-76189525D01*
X120596740Y-76073000D01*
X120771132Y-75956475D01*
X120977975Y-75749632D01*
X121140490Y-75506411D01*
X121252432Y-75236158D01*
X121309500Y-74949260D01*
X121309500Y-74656740D01*
X121252432Y-74369842D01*
X121140490Y-74099589D01*
X120977975Y-73856368D01*
X120771132Y-73649525D01*
X120588966Y-73527805D01*
X120705855Y-73458178D01*
X120922088Y-73263269D01*
X121096141Y-73029920D01*
X121221325Y-72767099D01*
X121265976Y-72619890D01*
X121144655Y-72390000D01*
X119951500Y-72390000D01*
X119951500Y-72410000D01*
X119697500Y-72410000D01*
X119697500Y-72390000D01*
X118504345Y-72390000D01*
X118383024Y-72619890D01*
X118427675Y-72767099D01*
X118552859Y-73029920D01*
X118726912Y-73263269D01*
X118943145Y-73458178D01*
X119060034Y-73527805D01*
X118877868Y-73649525D01*
X118671025Y-73856368D01*
X118508510Y-74099589D01*
X118396568Y-74369842D01*
X118339500Y-74656740D01*
X118339500Y-74949260D01*
X118396568Y-75236158D01*
X118508510Y-75506411D01*
X118671025Y-75749632D01*
X118877868Y-75956475D01*
X119052260Y-76073000D01*
X118877868Y-76189525D01*
X118671025Y-76396368D01*
X118508510Y-76639589D01*
X118396568Y-76909842D01*
X118339500Y-77196740D01*
X118339500Y-77489260D01*
X118396568Y-77776158D01*
X118508510Y-78046411D01*
X118671025Y-78289632D01*
X118877868Y-78496475D01*
X119052260Y-78613000D01*
X118877868Y-78729525D01*
X118671025Y-78936368D01*
X118508510Y-79179589D01*
X118396568Y-79449842D01*
X118339500Y-79736740D01*
X118339500Y-80029260D01*
X118396568Y-80316158D01*
X118508510Y-80586411D01*
X118671025Y-80829632D01*
X118877868Y-81036475D01*
X119052260Y-81153000D01*
X118877868Y-81269525D01*
X118671025Y-81476368D01*
X118508510Y-81719589D01*
X118396568Y-81989842D01*
X118339500Y-82276740D01*
X118339500Y-82569260D01*
X118396568Y-82856158D01*
X118508510Y-83126411D01*
X118671025Y-83369632D01*
X118877868Y-83576475D01*
X119052260Y-83693000D01*
X118877868Y-83809525D01*
X118671025Y-84016368D01*
X118508510Y-84259589D01*
X118396568Y-84529842D01*
X118339500Y-84816740D01*
X118339500Y-85109260D01*
X118396568Y-85396158D01*
X118508510Y-85666411D01*
X118671025Y-85909632D01*
X118877868Y-86116475D01*
X119052260Y-86233000D01*
X118877868Y-86349525D01*
X118671025Y-86556368D01*
X118508510Y-86799589D01*
X118396568Y-87069842D01*
X118339500Y-87356740D01*
X118339500Y-87649260D01*
X118396568Y-87936158D01*
X118508510Y-88206411D01*
X118671025Y-88449632D01*
X118877868Y-88656475D01*
X119052260Y-88773000D01*
X118877868Y-88889525D01*
X118671025Y-89096368D01*
X118508510Y-89339589D01*
X118396568Y-89609842D01*
X118339500Y-89896740D01*
X118339500Y-90189260D01*
X118396568Y-90476158D01*
X118508510Y-90746411D01*
X118671025Y-90989632D01*
X118802880Y-91121487D01*
X118730320Y-91143498D01*
X118620006Y-91202463D01*
X118523315Y-91281815D01*
X118443963Y-91378506D01*
X118384998Y-91488820D01*
X118348688Y-91608518D01*
X118336428Y-91733000D01*
X108610000Y-91733000D01*
X108610000Y-74933045D01*
X111465000Y-74933045D01*
X111465000Y-75186955D01*
X111514535Y-75435987D01*
X111611703Y-75670570D01*
X111752768Y-75881690D01*
X111932310Y-76061232D01*
X112143430Y-76202297D01*
X112378013Y-76299465D01*
X112531524Y-76330000D01*
X112378013Y-76360535D01*
X112143430Y-76457703D01*
X111932310Y-76598768D01*
X111752768Y-76778310D01*
X111611703Y-76989430D01*
X111514535Y-77224013D01*
X111465000Y-77473045D01*
X111465000Y-77726955D01*
X111514535Y-77975987D01*
X111611703Y-78210570D01*
X111752768Y-78421690D01*
X111932310Y-78601232D01*
X112143430Y-78742297D01*
X112378013Y-78839465D01*
X112531524Y-78870000D01*
X112378013Y-78900535D01*
X112143430Y-78997703D01*
X111932310Y-79138768D01*
X111752768Y-79318310D01*
X111611703Y-79529430D01*
X111514535Y-79764013D01*
X111465000Y-80013045D01*
X111465000Y-80266955D01*
X111514535Y-80515987D01*
X111611703Y-80750570D01*
X111752768Y-80961690D01*
X111932310Y-81141232D01*
X112143430Y-81282297D01*
X112378013Y-81379465D01*
X112531524Y-81410000D01*
X112378013Y-81440535D01*
X112143430Y-81537703D01*
X111932310Y-81678768D01*
X111752768Y-81858310D01*
X111611703Y-82069430D01*
X111514535Y-82304013D01*
X111465000Y-82553045D01*
X111465000Y-82806955D01*
X111514535Y-83055987D01*
X111611703Y-83290570D01*
X111752768Y-83501690D01*
X111932310Y-83681232D01*
X112143430Y-83822297D01*
X112378013Y-83919465D01*
X112531524Y-83950000D01*
X112378013Y-83980535D01*
X112143430Y-84077703D01*
X111932310Y-84218768D01*
X111752768Y-84398310D01*
X111611703Y-84609430D01*
X111514535Y-84844013D01*
X111465000Y-85093045D01*
X111465000Y-85346955D01*
X111514535Y-85595987D01*
X111611703Y-85830570D01*
X111752768Y-86041690D01*
X111932310Y-86221232D01*
X112143430Y-86362297D01*
X112378013Y-86459465D01*
X112627045Y-86509000D01*
X112880955Y-86509000D01*
X113129987Y-86459465D01*
X113364570Y-86362297D01*
X113575690Y-86221232D01*
X113755232Y-86041690D01*
X113892668Y-85836000D01*
X114001928Y-85836000D01*
X114001928Y-87144000D01*
X114014188Y-87268482D01*
X114050498Y-87388180D01*
X114109463Y-87498494D01*
X114188815Y-87595185D01*
X114285506Y-87674537D01*
X114395820Y-87733502D01*
X114515518Y-87769812D01*
X114640000Y-87782072D01*
X115948000Y-87782072D01*
X116072482Y-87769812D01*
X116192180Y-87733502D01*
X116302494Y-87674537D01*
X116399185Y-87595185D01*
X116478537Y-87498494D01*
X116537502Y-87388180D01*
X116573812Y-87268482D01*
X116586072Y-87144000D01*
X116586072Y-85836000D01*
X116573812Y-85711518D01*
X116537502Y-85591820D01*
X116478537Y-85481506D01*
X116399185Y-85384815D01*
X116302494Y-85305463D01*
X116192180Y-85246498D01*
X116072482Y-85210188D01*
X115948000Y-85197928D01*
X115627440Y-85197928D01*
X115669987Y-85189465D01*
X115904570Y-85092297D01*
X116115690Y-84951232D01*
X116295232Y-84771690D01*
X116436297Y-84560570D01*
X116533465Y-84325987D01*
X116583000Y-84076955D01*
X116583000Y-83823045D01*
X116533465Y-83574013D01*
X116436297Y-83339430D01*
X116295232Y-83128310D01*
X116115690Y-82948768D01*
X115904570Y-82807703D01*
X115669987Y-82710535D01*
X115516476Y-82680000D01*
X115669987Y-82649465D01*
X115904570Y-82552297D01*
X116115690Y-82411232D01*
X116295232Y-82231690D01*
X116436297Y-82020570D01*
X116533465Y-81785987D01*
X116583000Y-81536955D01*
X116583000Y-81283045D01*
X116533465Y-81034013D01*
X116436297Y-80799430D01*
X116295232Y-80588310D01*
X116115690Y-80408768D01*
X115904570Y-80267703D01*
X115669987Y-80170535D01*
X115516476Y-80140000D01*
X115669987Y-80109465D01*
X115904570Y-80012297D01*
X116115690Y-79871232D01*
X116295232Y-79691690D01*
X116436297Y-79480570D01*
X116533465Y-79245987D01*
X116583000Y-78996955D01*
X116583000Y-78743045D01*
X116533465Y-78494013D01*
X116436297Y-78259430D01*
X116295232Y-78048310D01*
X116115690Y-77868768D01*
X115904570Y-77727703D01*
X115669987Y-77630535D01*
X115516001Y-77599906D01*
X115621079Y-77583259D01*
X115859293Y-77495368D01*
X115948907Y-77447468D01*
X116002782Y-77218387D01*
X115294000Y-76509605D01*
X114585218Y-77218387D01*
X114639093Y-77447468D01*
X114869684Y-77553763D01*
X115066484Y-77601003D01*
X114918013Y-77630535D01*
X114683430Y-77727703D01*
X114472310Y-77868768D01*
X114292768Y-78048310D01*
X114151703Y-78259430D01*
X114054535Y-78494013D01*
X114005000Y-78743045D01*
X114005000Y-78996955D01*
X114054535Y-79245987D01*
X114151703Y-79480570D01*
X114292768Y-79691690D01*
X114472310Y-79871232D01*
X114683430Y-80012297D01*
X114918013Y-80109465D01*
X115071524Y-80140000D01*
X114918013Y-80170535D01*
X114683430Y-80267703D01*
X114472310Y-80408768D01*
X114292768Y-80588310D01*
X114151703Y-80799430D01*
X114054535Y-81034013D01*
X114005000Y-81283045D01*
X114005000Y-81536955D01*
X114054535Y-81785987D01*
X114151703Y-82020570D01*
X114292768Y-82231690D01*
X114472310Y-82411232D01*
X114683430Y-82552297D01*
X114918013Y-82649465D01*
X115071524Y-82680000D01*
X114918013Y-82710535D01*
X114683430Y-82807703D01*
X114472310Y-82948768D01*
X114292768Y-83128310D01*
X114151703Y-83339430D01*
X114054535Y-83574013D01*
X114005000Y-83823045D01*
X114005000Y-84076955D01*
X114054535Y-84325987D01*
X114151703Y-84560570D01*
X114292768Y-84771690D01*
X114472310Y-84951232D01*
X114683430Y-85092297D01*
X114918013Y-85189465D01*
X114960560Y-85197928D01*
X114640000Y-85197928D01*
X114515518Y-85210188D01*
X114395820Y-85246498D01*
X114285506Y-85305463D01*
X114188815Y-85384815D01*
X114109463Y-85481506D01*
X114050498Y-85591820D01*
X114014188Y-85711518D01*
X114001928Y-85836000D01*
X113892668Y-85836000D01*
X113896297Y-85830570D01*
X113993465Y-85595987D01*
X114043000Y-85346955D01*
X114043000Y-85093045D01*
X113993465Y-84844013D01*
X113896297Y-84609430D01*
X113755232Y-84398310D01*
X113575690Y-84218768D01*
X113364570Y-84077703D01*
X113129987Y-83980535D01*
X112976476Y-83950000D01*
X113129987Y-83919465D01*
X113364570Y-83822297D01*
X113575690Y-83681232D01*
X113755232Y-83501690D01*
X113896297Y-83290570D01*
X113993465Y-83055987D01*
X114043000Y-82806955D01*
X114043000Y-82553045D01*
X113993465Y-82304013D01*
X113896297Y-82069430D01*
X113755232Y-81858310D01*
X113575690Y-81678768D01*
X113364570Y-81537703D01*
X113129987Y-81440535D01*
X112976476Y-81410000D01*
X113129987Y-81379465D01*
X113364570Y-81282297D01*
X113575690Y-81141232D01*
X113755232Y-80961690D01*
X113896297Y-80750570D01*
X113993465Y-80515987D01*
X114043000Y-80266955D01*
X114043000Y-80013045D01*
X113993465Y-79764013D01*
X113896297Y-79529430D01*
X113755232Y-79318310D01*
X113575690Y-79138768D01*
X113364570Y-78997703D01*
X113129987Y-78900535D01*
X112976476Y-78870000D01*
X113129987Y-78839465D01*
X113364570Y-78742297D01*
X113575690Y-78601232D01*
X113755232Y-78421690D01*
X113896297Y-78210570D01*
X113993465Y-77975987D01*
X114043000Y-77726955D01*
X114043000Y-77473045D01*
X113993465Y-77224013D01*
X113896297Y-76989430D01*
X113755232Y-76778310D01*
X113575690Y-76598768D01*
X113364570Y-76457703D01*
X113240464Y-76406296D01*
X114001012Y-76406296D01*
X114040741Y-76657079D01*
X114128632Y-76895293D01*
X114176532Y-76984907D01*
X114405613Y-77038782D01*
X115114395Y-76330000D01*
X115473605Y-76330000D01*
X116182387Y-77038782D01*
X116411468Y-76984907D01*
X116517763Y-76754316D01*
X116577028Y-76507419D01*
X116586988Y-76253704D01*
X116547259Y-76002921D01*
X116459368Y-75764707D01*
X116411468Y-75675093D01*
X116182387Y-75621218D01*
X115473605Y-76330000D01*
X115114395Y-76330000D01*
X114405613Y-75621218D01*
X114176532Y-75675093D01*
X114070237Y-75905684D01*
X114010972Y-76152581D01*
X114001012Y-76406296D01*
X113240464Y-76406296D01*
X113129987Y-76360535D01*
X112976476Y-76330000D01*
X113129987Y-76299465D01*
X113364570Y-76202297D01*
X113575690Y-76061232D01*
X113755232Y-75881690D01*
X113896297Y-75670570D01*
X113991134Y-75441613D01*
X114585218Y-75441613D01*
X115294000Y-76150395D01*
X116002782Y-75441613D01*
X115948907Y-75212532D01*
X115718316Y-75106237D01*
X115471419Y-75046972D01*
X115217704Y-75037012D01*
X114966921Y-75076741D01*
X114728707Y-75164632D01*
X114639093Y-75212532D01*
X114585218Y-75441613D01*
X113991134Y-75441613D01*
X113993465Y-75435987D01*
X114043000Y-75186955D01*
X114043000Y-74947450D01*
X114150011Y-74991775D01*
X114417589Y-75045000D01*
X114690411Y-75045000D01*
X114957989Y-74991775D01*
X115210043Y-74887371D01*
X115436886Y-74735799D01*
X115629799Y-74542886D01*
X115781371Y-74316043D01*
X115885775Y-74063989D01*
X115939000Y-73796411D01*
X115939000Y-73523589D01*
X115885775Y-73256011D01*
X115781371Y-73003957D01*
X115629799Y-72777114D01*
X115436886Y-72584201D01*
X115210043Y-72432629D01*
X114957989Y-72328225D01*
X114690411Y-72275000D01*
X114417589Y-72275000D01*
X114150011Y-72328225D01*
X113897957Y-72432629D01*
X113671114Y-72584201D01*
X113478201Y-72777114D01*
X113326629Y-73003957D01*
X113222225Y-73256011D01*
X113169000Y-73523589D01*
X113169000Y-73796411D01*
X113177733Y-73840312D01*
X113129987Y-73820535D01*
X112880955Y-73771000D01*
X112627045Y-73771000D01*
X112378013Y-73820535D01*
X112143430Y-73917703D01*
X111932310Y-74058768D01*
X111752768Y-74238310D01*
X111611703Y-74449430D01*
X111514535Y-74684013D01*
X111465000Y-74933045D01*
X108610000Y-74933045D01*
X108610000Y-69576740D01*
X118339500Y-69576740D01*
X118339500Y-69869260D01*
X118396568Y-70156158D01*
X118508510Y-70426411D01*
X118671025Y-70669632D01*
X118877868Y-70876475D01*
X119060034Y-70998195D01*
X118943145Y-71067822D01*
X118726912Y-71262731D01*
X118552859Y-71496080D01*
X118427675Y-71758901D01*
X118383024Y-71906110D01*
X118504345Y-72136000D01*
X119697500Y-72136000D01*
X119697500Y-72116000D01*
X119951500Y-72116000D01*
X119951500Y-72136000D01*
X121144655Y-72136000D01*
X121265976Y-71906110D01*
X121221325Y-71758901D01*
X121096141Y-71496080D01*
X120922088Y-71262731D01*
X120705855Y-71067822D01*
X120588966Y-70998195D01*
X120771132Y-70876475D01*
X120977975Y-70669632D01*
X121140490Y-70426411D01*
X121171969Y-70350413D01*
X160270692Y-70350413D01*
X160366456Y-70614814D01*
X160656071Y-70755704D01*
X160967608Y-70837384D01*
X161289095Y-70856718D01*
X161608175Y-70812961D01*
X161912588Y-70707795D01*
X162086544Y-70614814D01*
X162182308Y-70350413D01*
X161226500Y-69394605D01*
X160270692Y-70350413D01*
X121171969Y-70350413D01*
X121252432Y-70156158D01*
X121309500Y-69869260D01*
X121309500Y-69576740D01*
X121252432Y-69289842D01*
X121247360Y-69277595D01*
X159584782Y-69277595D01*
X159628539Y-69596675D01*
X159733705Y-69901088D01*
X159826686Y-70075044D01*
X160091087Y-70170808D01*
X161046895Y-69215000D01*
X161406105Y-69215000D01*
X162361913Y-70170808D01*
X162626314Y-70075044D01*
X162767204Y-69785429D01*
X162848884Y-69473892D01*
X162868218Y-69152405D01*
X162824461Y-68833325D01*
X162719295Y-68528912D01*
X162626314Y-68354956D01*
X162361913Y-68259192D01*
X161406105Y-69215000D01*
X161046895Y-69215000D01*
X160091087Y-68259192D01*
X159826686Y-68354956D01*
X159685796Y-68644571D01*
X159604116Y-68956108D01*
X159584782Y-69277595D01*
X121247360Y-69277595D01*
X121140490Y-69019589D01*
X120977975Y-68776368D01*
X120771132Y-68569525D01*
X120527911Y-68407010D01*
X120257658Y-68295068D01*
X119970760Y-68238000D01*
X119678240Y-68238000D01*
X119391342Y-68295068D01*
X119121089Y-68407010D01*
X118877868Y-68569525D01*
X118671025Y-68776368D01*
X118508510Y-69019589D01*
X118396568Y-69289842D01*
X118339500Y-69576740D01*
X108610000Y-69576740D01*
X108610000Y-68079587D01*
X160270692Y-68079587D01*
X161226500Y-69035395D01*
X162182308Y-68079587D01*
X162086544Y-67815186D01*
X161796929Y-67674296D01*
X161485392Y-67592616D01*
X161163905Y-67573282D01*
X160844825Y-67617039D01*
X160540412Y-67722205D01*
X160366456Y-67815186D01*
X160270692Y-68079587D01*
X108610000Y-68079587D01*
X108610000Y-61374872D01*
X111430000Y-61374872D01*
X111430000Y-61815128D01*
X111515890Y-62246925D01*
X111684369Y-62653669D01*
X111928962Y-63019729D01*
X112240271Y-63331038D01*
X112606331Y-63575631D01*
X113013075Y-63744110D01*
X113444872Y-63830000D01*
X113885128Y-63830000D01*
X114316925Y-63744110D01*
X114723669Y-63575631D01*
X115089729Y-63331038D01*
X115401038Y-63019729D01*
X115645631Y-62653669D01*
X115814110Y-62246925D01*
X115900000Y-61815128D01*
X115900000Y-61374872D01*
X193980000Y-61374872D01*
X193980000Y-61815128D01*
X194065890Y-62246925D01*
X194234369Y-62653669D01*
X194478962Y-63019729D01*
X194790271Y-63331038D01*
X195156331Y-63575631D01*
X195563075Y-63744110D01*
X195994872Y-63830000D01*
X196435128Y-63830000D01*
X196866925Y-63744110D01*
X197273669Y-63575631D01*
X197639729Y-63331038D01*
X197951038Y-63019729D01*
X198195631Y-62653669D01*
X198364110Y-62246925D01*
X198450000Y-61815128D01*
X198450000Y-61374872D01*
X198364110Y-60943075D01*
X198195631Y-60536331D01*
X197951038Y-60170271D01*
X197639729Y-59858962D01*
X197273669Y-59614369D01*
X196866925Y-59445890D01*
X196435128Y-59360000D01*
X195994872Y-59360000D01*
X195563075Y-59445890D01*
X195156331Y-59614369D01*
X194790271Y-59858962D01*
X194478962Y-60170271D01*
X194234369Y-60536331D01*
X194065890Y-60943075D01*
X193980000Y-61374872D01*
X115900000Y-61374872D01*
X115814110Y-60943075D01*
X115645631Y-60536331D01*
X115401038Y-60170271D01*
X115089729Y-59858962D01*
X114723669Y-59614369D01*
X114316925Y-59445890D01*
X113885128Y-59360000D01*
X113444872Y-59360000D01*
X113013075Y-59445890D01*
X112606331Y-59614369D01*
X112240271Y-59858962D01*
X111928962Y-60170271D01*
X111684369Y-60536331D01*
X111515890Y-60943075D01*
X111430000Y-61374872D01*
X108610000Y-61374872D01*
X108610000Y-55270000D01*
X201270000Y-55270000D01*
X201270001Y-126340000D01*
G04 #@! TA.AperFunction,Conductor*
D25*
G36*
X201270001Y-126340000D02*
G01*
X108610000Y-126340000D01*
X108610000Y-121885967D01*
X134382000Y-121885967D01*
X134382000Y-122208033D01*
X134444832Y-122523912D01*
X134568082Y-122821463D01*
X134747013Y-123089252D01*
X134974748Y-123316987D01*
X135242537Y-123495918D01*
X135540088Y-123619168D01*
X135855967Y-123682000D01*
X136178033Y-123682000D01*
X136493912Y-123619168D01*
X136791463Y-123495918D01*
X137059252Y-123316987D01*
X137193826Y-123182413D01*
X144967192Y-123182413D01*
X145062956Y-123446814D01*
X145352571Y-123587704D01*
X145664108Y-123669384D01*
X145985595Y-123688718D01*
X146304675Y-123644961D01*
X146609088Y-123539795D01*
X146783044Y-123446814D01*
X146878808Y-123182413D01*
X145923000Y-122226605D01*
X144967192Y-123182413D01*
X137193826Y-123182413D01*
X137286987Y-123089252D01*
X137465918Y-122821463D01*
X137589168Y-122523912D01*
X137652000Y-122208033D01*
X137652000Y-122109595D01*
X144281282Y-122109595D01*
X144325039Y-122428675D01*
X144430205Y-122733088D01*
X144523186Y-122907044D01*
X144787587Y-123002808D01*
X145743395Y-122047000D01*
X146102605Y-122047000D01*
X147058413Y-123002808D01*
X147322814Y-122907044D01*
X147463704Y-122617429D01*
X147545384Y-122305892D01*
X147564718Y-121984405D01*
X147520961Y-121665325D01*
X147415795Y-121360912D01*
X147322814Y-121186956D01*
X147058413Y-121091192D01*
X146102605Y-122047000D01*
X145743395Y-122047000D01*
X144787587Y-121091192D01*
X144523186Y-121186956D01*
X144382296Y-121476571D01*
X144300616Y-121788108D01*
X144281282Y-122109595D01*
X137652000Y-122109595D01*
X137652000Y-121885967D01*
X137589168Y-121570088D01*
X137465918Y-121272537D01*
X137286987Y-121004748D01*
X137193826Y-120911587D01*
X144967192Y-120911587D01*
X145923000Y-121867395D01*
X146878808Y-120911587D01*
X146783044Y-120647186D01*
X146493429Y-120506296D01*
X146181892Y-120424616D01*
X145860405Y-120405282D01*
X145541325Y-120449039D01*
X145236912Y-120554205D01*
X145062956Y-120647186D01*
X144967192Y-120911587D01*
X137193826Y-120911587D01*
X137059252Y-120777013D01*
X136791463Y-120598082D01*
X136493912Y-120474832D01*
X136178033Y-120412000D01*
X135855967Y-120412000D01*
X135540088Y-120474832D01*
X135242537Y-120598082D01*
X134974748Y-120777013D01*
X134747013Y-121004748D01*
X134568082Y-121272537D01*
X134444832Y-121570088D01*
X134382000Y-121885967D01*
X108610000Y-121885967D01*
X108610000Y-119286872D01*
X111430000Y-119286872D01*
X111430000Y-119727128D01*
X111515890Y-120158925D01*
X111684369Y-120565669D01*
X111928962Y-120931729D01*
X112240271Y-121243038D01*
X112606331Y-121487631D01*
X113013075Y-121656110D01*
X113444872Y-121742000D01*
X113885128Y-121742000D01*
X114316925Y-121656110D01*
X114723669Y-121487631D01*
X115089729Y-121243038D01*
X115401038Y-120931729D01*
X115645631Y-120565669D01*
X115814110Y-120158925D01*
X115900000Y-119727128D01*
X115900000Y-119286872D01*
X115874739Y-119159872D01*
X193980000Y-119159872D01*
X193980000Y-119600128D01*
X194065890Y-120031925D01*
X194234369Y-120438669D01*
X194478962Y-120804729D01*
X194790271Y-121116038D01*
X195156331Y-121360631D01*
X195563075Y-121529110D01*
X195994872Y-121615000D01*
X196435128Y-121615000D01*
X196866925Y-121529110D01*
X197273669Y-121360631D01*
X197639729Y-121116038D01*
X197951038Y-120804729D01*
X198195631Y-120438669D01*
X198364110Y-120031925D01*
X198450000Y-119600128D01*
X198450000Y-119159872D01*
X198364110Y-118728075D01*
X198195631Y-118321331D01*
X197951038Y-117955271D01*
X197639729Y-117643962D01*
X197273669Y-117399369D01*
X196866925Y-117230890D01*
X196435128Y-117145000D01*
X195994872Y-117145000D01*
X195563075Y-117230890D01*
X195156331Y-117399369D01*
X194790271Y-117643962D01*
X194478962Y-117955271D01*
X194234369Y-118321331D01*
X194065890Y-118728075D01*
X193980000Y-119159872D01*
X115874739Y-119159872D01*
X115814110Y-118855075D01*
X115645631Y-118448331D01*
X115401038Y-118082271D01*
X115089729Y-117770962D01*
X114723669Y-117526369D01*
X114316925Y-117357890D01*
X113885128Y-117272000D01*
X113444872Y-117272000D01*
X113013075Y-117357890D01*
X112606331Y-117526369D01*
X112240271Y-117770962D01*
X111928962Y-118082271D01*
X111684369Y-118448331D01*
X111515890Y-118855075D01*
X111430000Y-119286872D01*
X108610000Y-119286872D01*
X108610000Y-106579500D01*
X130493928Y-106579500D01*
X130506188Y-106703982D01*
X130542498Y-106823680D01*
X130601463Y-106933994D01*
X130680815Y-107030685D01*
X130777506Y-107110037D01*
X130887820Y-107169002D01*
X131007518Y-107205312D01*
X131132000Y-107217572D01*
X131433750Y-107214500D01*
X131592500Y-107055750D01*
X131592500Y-105981500D01*
X130655750Y-105981500D01*
X130497000Y-106140250D01*
X130493928Y-106579500D01*
X108610000Y-106579500D01*
X108610000Y-104293500D01*
X130493928Y-104293500D01*
X130506188Y-104417982D01*
X130542498Y-104537680D01*
X130601463Y-104647994D01*
X130653581Y-104711500D01*
X130601463Y-104775006D01*
X130542498Y-104885320D01*
X130506188Y-105005018D01*
X130493928Y-105129500D01*
X130497000Y-105568750D01*
X130655750Y-105727500D01*
X131592500Y-105727500D01*
X131592500Y-103695500D01*
X130655750Y-103695500D01*
X130497000Y-103854250D01*
X130493928Y-104293500D01*
X108610000Y-104293500D01*
X108610000Y-102843500D01*
X130493928Y-102843500D01*
X130497000Y-103282750D01*
X130655750Y-103441500D01*
X131592500Y-103441500D01*
X131592500Y-102367250D01*
X131846500Y-102367250D01*
X131846500Y-103441500D01*
X131866500Y-103441500D01*
X131866500Y-103695500D01*
X131846500Y-103695500D01*
X131846500Y-105727500D01*
X131866500Y-105727500D01*
X131866500Y-105981500D01*
X131846500Y-105981500D01*
X131846500Y-107055750D01*
X132005250Y-107214500D01*
X132307000Y-107217572D01*
X132431482Y-107205312D01*
X132551180Y-107169002D01*
X132661494Y-107110037D01*
X132758185Y-107030685D01*
X132823658Y-106950906D01*
X132829038Y-106957462D01*
X132963614Y-107067905D01*
X133117150Y-107149972D01*
X133283746Y-107200508D01*
X133457000Y-107217572D01*
X134132000Y-107217572D01*
X134305254Y-107200508D01*
X134471850Y-107149972D01*
X134579822Y-107092259D01*
X134649006Y-107149037D01*
X134759320Y-107208002D01*
X134879018Y-107244312D01*
X135003500Y-107256572D01*
X135132001Y-107256572D01*
X135132000Y-109504799D01*
X135092518Y-109508688D01*
X134972820Y-109544998D01*
X134862506Y-109603963D01*
X134765815Y-109683315D01*
X134686463Y-109780006D01*
X134627498Y-109890320D01*
X134591188Y-110010018D01*
X134578928Y-110134500D01*
X134578928Y-111734500D01*
X134591188Y-111858982D01*
X134627498Y-111978680D01*
X134686463Y-112088994D01*
X134765815Y-112185685D01*
X134862506Y-112265037D01*
X134972820Y-112324002D01*
X135092518Y-112360312D01*
X135217000Y-112372572D01*
X136817000Y-112372572D01*
X136941482Y-112360312D01*
X137061180Y-112324002D01*
X137171494Y-112265037D01*
X137268185Y-112185685D01*
X137347537Y-112088994D01*
X137406502Y-111978680D01*
X137422117Y-111927202D01*
X137703903Y-111927202D01*
X137775486Y-112171171D01*
X138030996Y-112292071D01*
X138305184Y-112360800D01*
X138587512Y-112374717D01*
X138867130Y-112333287D01*
X139133292Y-112238103D01*
X139258514Y-112171171D01*
X139330097Y-111927202D01*
X138517000Y-111114105D01*
X137703903Y-111927202D01*
X137422117Y-111927202D01*
X137442812Y-111858982D01*
X137455072Y-111734500D01*
X137455072Y-111727285D01*
X137524298Y-111747597D01*
X138337395Y-110934500D01*
X138696605Y-110934500D01*
X139509702Y-111747597D01*
X139753671Y-111676014D01*
X139874571Y-111420504D01*
X139943300Y-111146316D01*
X139957217Y-110863988D01*
X139915787Y-110584370D01*
X139820603Y-110318208D01*
X139753671Y-110192986D01*
X139509702Y-110121403D01*
X138696605Y-110934500D01*
X138337395Y-110934500D01*
X137524298Y-110121403D01*
X137455072Y-110141715D01*
X137455072Y-110134500D01*
X137442812Y-110010018D01*
X137422118Y-109941798D01*
X137703903Y-109941798D01*
X138517000Y-110754895D01*
X139330097Y-109941798D01*
X139258514Y-109697829D01*
X139003004Y-109576929D01*
X138728816Y-109508200D01*
X138446488Y-109494283D01*
X138166870Y-109535713D01*
X137900708Y-109630897D01*
X137775486Y-109697829D01*
X137703903Y-109941798D01*
X137422118Y-109941798D01*
X137406502Y-109890320D01*
X137347537Y-109780006D01*
X137268185Y-109683315D01*
X137171494Y-109603963D01*
X137061180Y-109544998D01*
X136941482Y-109508688D01*
X136902000Y-109504799D01*
X136902000Y-107256572D01*
X137003500Y-107256572D01*
X137127982Y-107244312D01*
X137247680Y-107208002D01*
X137357994Y-107149037D01*
X137454685Y-107069685D01*
X137534037Y-106972994D01*
X137593002Y-106862680D01*
X137629312Y-106742982D01*
X137641572Y-106618500D01*
X137641572Y-105118500D01*
X137629312Y-104994018D01*
X137593002Y-104874320D01*
X137534037Y-104764006D01*
X137496691Y-104718500D01*
X137534037Y-104672994D01*
X137593002Y-104562680D01*
X137626121Y-104453500D01*
X138336046Y-104453500D01*
X138384244Y-104485705D01*
X138572602Y-104563726D01*
X138772561Y-104603500D01*
X138976439Y-104603500D01*
X139176398Y-104563726D01*
X139364756Y-104485705D01*
X139412954Y-104453500D01*
X140665428Y-104453500D01*
X140665428Y-105468500D01*
X140677688Y-105592982D01*
X140713998Y-105712680D01*
X140772963Y-105822994D01*
X140852315Y-105919685D01*
X140949006Y-105999037D01*
X141059320Y-106058002D01*
X141179018Y-106094312D01*
X141303500Y-106106572D01*
X143303500Y-106106572D01*
X143427982Y-106094312D01*
X143547680Y-106058002D01*
X143657994Y-105999037D01*
X143754685Y-105919685D01*
X143834037Y-105822994D01*
X143893002Y-105712680D01*
X143929312Y-105592982D01*
X143941572Y-105468500D01*
X143941572Y-101668500D01*
X143929312Y-101544018D01*
X143893002Y-101424320D01*
X143834037Y-101314006D01*
X143754685Y-101217315D01*
X143657994Y-101137963D01*
X143547680Y-101078998D01*
X143427982Y-101042688D01*
X143303500Y-101030428D01*
X141303500Y-101030428D01*
X141179018Y-101042688D01*
X141059320Y-101078998D01*
X140949006Y-101137963D01*
X140852315Y-101217315D01*
X140772963Y-101314006D01*
X140713998Y-101424320D01*
X140677688Y-101544018D01*
X140665428Y-101668500D01*
X140665428Y-102683500D01*
X139412954Y-102683500D01*
X139364756Y-102651295D01*
X139176398Y-102573274D01*
X138976439Y-102533500D01*
X138772561Y-102533500D01*
X138572602Y-102573274D01*
X138384244Y-102651295D01*
X138336046Y-102683500D01*
X137626121Y-102683500D01*
X137593002Y-102574320D01*
X137534037Y-102464006D01*
X137496691Y-102418500D01*
X137534037Y-102372994D01*
X137593002Y-102262680D01*
X137629312Y-102142982D01*
X137641572Y-102018500D01*
X137638500Y-101554250D01*
X137479750Y-101395500D01*
X136130500Y-101395500D01*
X136130500Y-101415500D01*
X135876500Y-101415500D01*
X135876500Y-101395500D01*
X134527250Y-101395500D01*
X134368500Y-101554250D01*
X134365428Y-102018500D01*
X134377688Y-102142982D01*
X134411592Y-102254749D01*
X134305254Y-102222492D01*
X134132000Y-102205428D01*
X133457000Y-102205428D01*
X133283746Y-102222492D01*
X133117150Y-102273028D01*
X132963614Y-102355095D01*
X132829038Y-102465538D01*
X132823658Y-102472094D01*
X132758185Y-102392315D01*
X132661494Y-102312963D01*
X132551180Y-102253998D01*
X132431482Y-102217688D01*
X132307000Y-102205428D01*
X132005250Y-102208500D01*
X131846500Y-102367250D01*
X131592500Y-102367250D01*
X131433750Y-102208500D01*
X131132000Y-102205428D01*
X131007518Y-102217688D01*
X130887820Y-102253998D01*
X130777506Y-102312963D01*
X130680815Y-102392315D01*
X130601463Y-102489006D01*
X130542498Y-102599320D01*
X130506188Y-102719018D01*
X130493928Y-102843500D01*
X108610000Y-102843500D01*
X108610000Y-100518500D01*
X134365428Y-100518500D01*
X134368500Y-100982750D01*
X134527250Y-101141500D01*
X135876500Y-101141500D01*
X135876500Y-100042250D01*
X136130500Y-100042250D01*
X136130500Y-101141500D01*
X137479750Y-101141500D01*
X137638500Y-100982750D01*
X137641572Y-100518500D01*
X137629312Y-100394018D01*
X137593002Y-100274320D01*
X137534037Y-100164006D01*
X137454685Y-100067315D01*
X137357994Y-99987963D01*
X137247680Y-99928998D01*
X137127982Y-99892688D01*
X137003500Y-99880428D01*
X136289250Y-99883500D01*
X136130500Y-100042250D01*
X135876500Y-100042250D01*
X135717750Y-99883500D01*
X135003500Y-99880428D01*
X134879018Y-99892688D01*
X134759320Y-99928998D01*
X134649006Y-99987963D01*
X134552315Y-100067315D01*
X134472963Y-100164006D01*
X134413998Y-100274320D01*
X134377688Y-100394018D01*
X134365428Y-100518500D01*
X108610000Y-100518500D01*
X108610000Y-95339000D01*
X137412928Y-95339000D01*
X137412928Y-96939000D01*
X137425188Y-97063482D01*
X137461498Y-97183180D01*
X137520463Y-97293494D01*
X137599815Y-97390185D01*
X137696506Y-97469537D01*
X137806820Y-97528502D01*
X137926518Y-97564812D01*
X138051000Y-97577072D01*
X139651000Y-97577072D01*
X139775482Y-97564812D01*
X139895180Y-97528502D01*
X140005494Y-97469537D01*
X140102185Y-97390185D01*
X140181537Y-97293494D01*
X140240502Y-97183180D01*
X140256117Y-97131702D01*
X140537903Y-97131702D01*
X140609486Y-97375671D01*
X140864996Y-97496571D01*
X141139184Y-97565300D01*
X141421512Y-97579217D01*
X141701130Y-97537787D01*
X141967292Y-97442603D01*
X142092514Y-97375671D01*
X142164097Y-97131702D01*
X141351000Y-96318605D01*
X140537903Y-97131702D01*
X140256117Y-97131702D01*
X140276812Y-97063482D01*
X140289072Y-96939000D01*
X140289072Y-96931785D01*
X140358298Y-96952097D01*
X141171395Y-96139000D01*
X141530605Y-96139000D01*
X142343702Y-96952097D01*
X142587671Y-96880514D01*
X142708571Y-96625004D01*
X142777300Y-96350816D01*
X142791217Y-96068488D01*
X142749787Y-95788870D01*
X142654603Y-95522708D01*
X142587671Y-95397486D01*
X142343702Y-95325903D01*
X141530605Y-96139000D01*
X141171395Y-96139000D01*
X140358298Y-95325903D01*
X140289072Y-95346215D01*
X140289072Y-95339000D01*
X140276812Y-95214518D01*
X140256118Y-95146298D01*
X140537903Y-95146298D01*
X141351000Y-95959395D01*
X142164097Y-95146298D01*
X142092514Y-94902329D01*
X141837004Y-94781429D01*
X141562816Y-94712700D01*
X141280488Y-94698783D01*
X141000870Y-94740213D01*
X140734708Y-94835397D01*
X140609486Y-94902329D01*
X140537903Y-95146298D01*
X140256118Y-95146298D01*
X140240502Y-95094820D01*
X140181537Y-94984506D01*
X140102185Y-94887815D01*
X140005494Y-94808463D01*
X139895180Y-94749498D01*
X139775482Y-94713188D01*
X139651000Y-94700928D01*
X138051000Y-94700928D01*
X137926518Y-94713188D01*
X137806820Y-94749498D01*
X137696506Y-94808463D01*
X137599815Y-94887815D01*
X137520463Y-94984506D01*
X137461498Y-95094820D01*
X137425188Y-95214518D01*
X137412928Y-95339000D01*
X108610000Y-95339000D01*
X108610000Y-91733000D01*
X118336428Y-91733000D01*
X118336428Y-93433000D01*
X118348688Y-93557482D01*
X118384998Y-93677180D01*
X118443963Y-93787494D01*
X118523315Y-93884185D01*
X118620006Y-93963537D01*
X118730320Y-94022502D01*
X118850018Y-94058812D01*
X118974500Y-94071072D01*
X120674500Y-94071072D01*
X120798982Y-94058812D01*
X120918680Y-94022502D01*
X121028994Y-93963537D01*
X121125685Y-93884185D01*
X121157504Y-93845413D01*
X160143692Y-93845413D01*
X160239456Y-94109814D01*
X160529071Y-94250704D01*
X160840608Y-94332384D01*
X161162095Y-94351718D01*
X161481175Y-94307961D01*
X161785588Y-94202795D01*
X161959544Y-94109814D01*
X162055308Y-93845413D01*
X161099500Y-92889605D01*
X160143692Y-93845413D01*
X121157504Y-93845413D01*
X121205037Y-93787494D01*
X121264002Y-93677180D01*
X121300312Y-93557482D01*
X121312572Y-93433000D01*
X121312572Y-92329202D01*
X134822903Y-92329202D01*
X134894486Y-92573171D01*
X135149996Y-92694071D01*
X135424184Y-92762800D01*
X135706512Y-92776717D01*
X135734332Y-92772595D01*
X159457782Y-92772595D01*
X159501539Y-93091675D01*
X159606705Y-93396088D01*
X159699686Y-93570044D01*
X159964087Y-93665808D01*
X160919895Y-92710000D01*
X161279105Y-92710000D01*
X162234913Y-93665808D01*
X162499314Y-93570044D01*
X162640204Y-93280429D01*
X162721884Y-92968892D01*
X162741218Y-92647405D01*
X162697461Y-92328325D01*
X162592295Y-92023912D01*
X162499314Y-91849956D01*
X162234913Y-91754192D01*
X161279105Y-92710000D01*
X160919895Y-92710000D01*
X159964087Y-91754192D01*
X159699686Y-91849956D01*
X159558796Y-92139571D01*
X159477116Y-92451108D01*
X159457782Y-92772595D01*
X135734332Y-92772595D01*
X135986130Y-92735287D01*
X136252292Y-92640103D01*
X136377514Y-92573171D01*
X136449097Y-92329202D01*
X135636000Y-91516105D01*
X134822903Y-92329202D01*
X121312572Y-92329202D01*
X121312572Y-91733000D01*
X121300312Y-91608518D01*
X121264002Y-91488820D01*
X121220275Y-91407012D01*
X134195783Y-91407012D01*
X134237213Y-91686630D01*
X134332397Y-91952792D01*
X134399329Y-92078014D01*
X134643298Y-92149597D01*
X135456395Y-91336500D01*
X135815605Y-91336500D01*
X136628702Y-92149597D01*
X136872671Y-92078014D01*
X136993571Y-91822504D01*
X137055714Y-91574587D01*
X160143692Y-91574587D01*
X161099500Y-92530395D01*
X162055308Y-91574587D01*
X161959544Y-91310186D01*
X161669929Y-91169296D01*
X161358392Y-91087616D01*
X161036905Y-91068282D01*
X160717825Y-91112039D01*
X160413412Y-91217205D01*
X160239456Y-91310186D01*
X160143692Y-91574587D01*
X137055714Y-91574587D01*
X137062300Y-91548316D01*
X137076217Y-91265988D01*
X137034787Y-90986370D01*
X136939603Y-90720208D01*
X136872671Y-90594986D01*
X136628702Y-90523403D01*
X135815605Y-91336500D01*
X135456395Y-91336500D01*
X134643298Y-90523403D01*
X134399329Y-90594986D01*
X134278429Y-90850496D01*
X134209700Y-91124684D01*
X134195783Y-91407012D01*
X121220275Y-91407012D01*
X121205037Y-91378506D01*
X121125685Y-91281815D01*
X121028994Y-91202463D01*
X120918680Y-91143498D01*
X120846120Y-91121487D01*
X120977975Y-90989632D01*
X121140490Y-90746411D01*
X121252432Y-90476158D01*
X121309500Y-90189260D01*
X121309500Y-89896740D01*
X121252432Y-89609842D01*
X121140490Y-89339589D01*
X120977975Y-89096368D01*
X120771132Y-88889525D01*
X120596740Y-88773000D01*
X120771132Y-88656475D01*
X120977975Y-88449632D01*
X121140490Y-88206411D01*
X121252432Y-87936158D01*
X121309500Y-87649260D01*
X121309500Y-87356740D01*
X121252432Y-87069842D01*
X121140490Y-86799589D01*
X120977975Y-86556368D01*
X120771132Y-86349525D01*
X120596740Y-86233000D01*
X120771132Y-86116475D01*
X120977975Y-85909632D01*
X121140490Y-85666411D01*
X121252432Y-85396158D01*
X121309500Y-85109260D01*
X121309500Y-84816740D01*
X121252432Y-84529842D01*
X121140490Y-84259589D01*
X120977975Y-84016368D01*
X120771132Y-83809525D01*
X120596740Y-83693000D01*
X120771132Y-83576475D01*
X120977975Y-83369632D01*
X121140490Y-83126411D01*
X121252432Y-82856158D01*
X121309500Y-82569260D01*
X121309500Y-82276740D01*
X121252432Y-81989842D01*
X121156985Y-81759411D01*
X126446000Y-81759411D01*
X126446000Y-81943589D01*
X126481932Y-82124229D01*
X126552414Y-82294389D01*
X126654738Y-82447528D01*
X126784972Y-82577762D01*
X126938111Y-82680086D01*
X127108271Y-82750568D01*
X127288911Y-82786500D01*
X127473089Y-82786500D01*
X127653729Y-82750568D01*
X127823889Y-82680086D01*
X127926535Y-82611500D01*
X129031986Y-82611500D01*
X128880472Y-82712738D01*
X128750238Y-82842972D01*
X128647914Y-82996111D01*
X128577432Y-83166271D01*
X128541500Y-83346911D01*
X128541500Y-83531089D01*
X128577432Y-83711729D01*
X128647914Y-83881889D01*
X128750238Y-84035028D01*
X128880472Y-84165262D01*
X129033611Y-84267586D01*
X129203771Y-84338068D01*
X129384411Y-84374000D01*
X129568589Y-84374000D01*
X129749229Y-84338068D01*
X129883177Y-84282585D01*
X129893877Y-84295623D01*
X130026558Y-84404512D01*
X130177933Y-84485423D01*
X130342184Y-84535248D01*
X130513000Y-84552072D01*
X131013000Y-84552072D01*
X131183816Y-84535248D01*
X131348067Y-84485423D01*
X131499442Y-84404512D01*
X131632123Y-84295623D01*
X131675500Y-84242768D01*
X131718877Y-84295623D01*
X131851558Y-84404512D01*
X132002933Y-84485423D01*
X132167184Y-84535248D01*
X132338000Y-84552072D01*
X132838000Y-84552072D01*
X133008816Y-84535248D01*
X133173067Y-84485423D01*
X133324442Y-84404512D01*
X133457123Y-84295623D01*
X133566012Y-84162942D01*
X133646923Y-84011567D01*
X133696748Y-83847316D01*
X133713572Y-83676500D01*
X133713572Y-83388229D01*
X134434802Y-82667000D01*
X134472379Y-82667000D01*
X134505498Y-82776180D01*
X134564463Y-82886494D01*
X134643815Y-82983185D01*
X134735343Y-83058300D01*
X134730113Y-83061095D01*
X134595538Y-83171538D01*
X134485095Y-83306113D01*
X134403028Y-83459649D01*
X134352492Y-83626245D01*
X134335428Y-83799499D01*
X134335428Y-85999501D01*
X134352492Y-86172755D01*
X134403028Y-86339351D01*
X134485095Y-86492887D01*
X134595538Y-86627462D01*
X134730113Y-86737905D01*
X134876000Y-86815884D01*
X134876001Y-87398428D01*
X134836000Y-87398428D01*
X134711518Y-87410688D01*
X134591820Y-87446998D01*
X134481506Y-87505963D01*
X134384815Y-87585315D01*
X134305463Y-87682006D01*
X134246498Y-87792320D01*
X134210188Y-87912018D01*
X134197928Y-88036500D01*
X134197928Y-89636500D01*
X134210188Y-89760982D01*
X134246498Y-89880680D01*
X134305463Y-89990994D01*
X134384815Y-90087685D01*
X134481506Y-90167037D01*
X134591820Y-90226002D01*
X134711518Y-90262312D01*
X134836000Y-90274572D01*
X134843215Y-90274572D01*
X134822903Y-90343798D01*
X135636000Y-91156895D01*
X136449097Y-90343798D01*
X136428785Y-90274572D01*
X136436000Y-90274572D01*
X136560482Y-90262312D01*
X136680180Y-90226002D01*
X136790494Y-90167037D01*
X136887185Y-90087685D01*
X136966537Y-89990994D01*
X137025502Y-89880680D01*
X137061812Y-89760982D01*
X137074072Y-89636500D01*
X137074072Y-88036500D01*
X137065327Y-87947702D01*
X142379403Y-87947702D01*
X142450986Y-88191671D01*
X142706496Y-88312571D01*
X142980684Y-88381300D01*
X143263012Y-88395217D01*
X143542630Y-88353787D01*
X143808792Y-88258603D01*
X143934014Y-88191671D01*
X144005597Y-87947702D01*
X143192500Y-87134605D01*
X142379403Y-87947702D01*
X137065327Y-87947702D01*
X137061812Y-87912018D01*
X137025502Y-87792320D01*
X136966537Y-87682006D01*
X136887185Y-87585315D01*
X136790494Y-87505963D01*
X136680180Y-87446998D01*
X136560482Y-87410688D01*
X136436000Y-87398428D01*
X136396000Y-87398428D01*
X136396000Y-87025512D01*
X141752283Y-87025512D01*
X141793713Y-87305130D01*
X141888897Y-87571292D01*
X141955829Y-87696514D01*
X142199798Y-87768097D01*
X143012895Y-86955000D01*
X143372105Y-86955000D01*
X144185202Y-87768097D01*
X144429171Y-87696514D01*
X144550071Y-87441004D01*
X144618800Y-87166816D01*
X144632717Y-86884488D01*
X144591287Y-86604870D01*
X144496103Y-86338708D01*
X144429171Y-86213486D01*
X144185202Y-86141903D01*
X143372105Y-86955000D01*
X143012895Y-86955000D01*
X142199798Y-86141903D01*
X141955829Y-86213486D01*
X141834929Y-86468996D01*
X141766200Y-86743184D01*
X141752283Y-87025512D01*
X136396000Y-87025512D01*
X136396000Y-86815884D01*
X136541887Y-86737905D01*
X136676462Y-86627462D01*
X136786905Y-86492887D01*
X136868972Y-86339351D01*
X136896227Y-86249500D01*
X137460428Y-86249500D01*
X137472688Y-86373982D01*
X137508998Y-86493680D01*
X137567963Y-86603994D01*
X137647315Y-86700685D01*
X137744006Y-86780037D01*
X137854320Y-86839002D01*
X137974018Y-86875312D01*
X138098500Y-86887572D01*
X138475250Y-86884500D01*
X138634000Y-86725750D01*
X138634000Y-85026500D01*
X138888000Y-85026500D01*
X138888000Y-86725750D01*
X139046750Y-86884500D01*
X139423500Y-86887572D01*
X139547982Y-86875312D01*
X139667680Y-86839002D01*
X139777994Y-86780037D01*
X139874685Y-86700685D01*
X139954037Y-86603994D01*
X140013002Y-86493680D01*
X140049312Y-86373982D01*
X140061572Y-86249500D01*
X140058500Y-85185250D01*
X139899750Y-85026500D01*
X138888000Y-85026500D01*
X138634000Y-85026500D01*
X137622250Y-85026500D01*
X137463500Y-85185250D01*
X137460428Y-86249500D01*
X136896227Y-86249500D01*
X136919508Y-86172755D01*
X136936572Y-85999501D01*
X136936572Y-83799499D01*
X136919508Y-83626245D01*
X136896228Y-83549500D01*
X137460428Y-83549500D01*
X137463500Y-84613750D01*
X137622250Y-84772500D01*
X138634000Y-84772500D01*
X138634000Y-83073250D01*
X138475250Y-82914500D01*
X138098500Y-82911428D01*
X137974018Y-82923688D01*
X137854320Y-82959998D01*
X137744006Y-83018963D01*
X137647315Y-83098315D01*
X137567963Y-83195006D01*
X137508998Y-83305320D01*
X137472688Y-83425018D01*
X137460428Y-83549500D01*
X136896228Y-83549500D01*
X136868972Y-83459649D01*
X136786905Y-83306113D01*
X136676462Y-83171538D01*
X136545951Y-83064431D01*
X136549494Y-83062537D01*
X136646185Y-82983185D01*
X136725537Y-82886494D01*
X136784502Y-82776180D01*
X136820812Y-82656482D01*
X136833072Y-82532000D01*
X136833072Y-82282000D01*
X136820812Y-82157518D01*
X136820655Y-82157000D01*
X136820812Y-82156482D01*
X136833072Y-82032000D01*
X136833072Y-81782000D01*
X136820812Y-81657518D01*
X136820655Y-81657000D01*
X136820812Y-81656482D01*
X136833072Y-81532000D01*
X136833072Y-81282000D01*
X136820812Y-81157518D01*
X136820655Y-81157000D01*
X136820812Y-81156482D01*
X136833072Y-81032000D01*
X136833072Y-80782000D01*
X136820812Y-80657518D01*
X136820655Y-80657000D01*
X136820812Y-80656482D01*
X136833072Y-80532000D01*
X136833072Y-80282000D01*
X136820812Y-80157518D01*
X136784502Y-80037820D01*
X136725537Y-79927506D01*
X136646185Y-79830815D01*
X136549494Y-79751463D01*
X136439180Y-79692498D01*
X136319482Y-79656188D01*
X136195000Y-79643928D01*
X135095000Y-79643928D01*
X135063808Y-79647000D01*
X134633302Y-79647000D01*
X133713572Y-78727271D01*
X133713572Y-78439000D01*
X133696748Y-78268184D01*
X133646923Y-78103933D01*
X133566012Y-77952558D01*
X133457123Y-77819877D01*
X133324442Y-77710988D01*
X133173067Y-77630077D01*
X133008816Y-77580252D01*
X132838000Y-77563428D01*
X132338000Y-77563428D01*
X132167184Y-77580252D01*
X132002933Y-77630077D01*
X131851558Y-77710988D01*
X131718877Y-77819877D01*
X131675500Y-77872732D01*
X131632123Y-77819877D01*
X131499442Y-77710988D01*
X131348067Y-77630077D01*
X131183816Y-77580252D01*
X131013000Y-77563428D01*
X130513000Y-77563428D01*
X130342184Y-77580252D01*
X130177933Y-77630077D01*
X130026558Y-77710988D01*
X129893877Y-77819877D01*
X129883177Y-77832915D01*
X129749229Y-77777432D01*
X129568589Y-77741500D01*
X129384411Y-77741500D01*
X129203771Y-77777432D01*
X129033611Y-77847914D01*
X128880472Y-77950238D01*
X128750238Y-78080472D01*
X128647914Y-78233611D01*
X128577432Y-78403771D01*
X128541500Y-78584411D01*
X128541500Y-78768589D01*
X128577432Y-78949229D01*
X128647914Y-79119389D01*
X128750238Y-79272528D01*
X128880472Y-79402762D01*
X128949725Y-79449035D01*
X128816972Y-79537738D01*
X128686738Y-79667972D01*
X128584414Y-79821111D01*
X128513932Y-79991271D01*
X128478000Y-80171911D01*
X128478000Y-80356089D01*
X128513932Y-80536729D01*
X128584414Y-80706889D01*
X128686738Y-80860028D01*
X128816972Y-80990262D01*
X128968486Y-81091500D01*
X127926535Y-81091500D01*
X127823889Y-81022914D01*
X127653729Y-80952432D01*
X127473089Y-80916500D01*
X127288911Y-80916500D01*
X127108271Y-80952432D01*
X126938111Y-81022914D01*
X126784972Y-81125238D01*
X126654738Y-81255472D01*
X126552414Y-81408611D01*
X126481932Y-81578771D01*
X126446000Y-81759411D01*
X121156985Y-81759411D01*
X121140490Y-81719589D01*
X120977975Y-81476368D01*
X120771132Y-81269525D01*
X120596740Y-81153000D01*
X120771132Y-81036475D01*
X120977975Y-80829632D01*
X121140490Y-80586411D01*
X121252432Y-80316158D01*
X121309500Y-80029260D01*
X121309500Y-79736740D01*
X121252432Y-79449842D01*
X121140490Y-79179589D01*
X120977975Y-78936368D01*
X120771132Y-78729525D01*
X120596740Y-78613000D01*
X120771132Y-78496475D01*
X120977975Y-78289632D01*
X121140490Y-78046411D01*
X121252432Y-77776158D01*
X121309500Y-77489260D01*
X121309500Y-77196740D01*
X121252432Y-76909842D01*
X121140490Y-76639589D01*
X121045215Y-76496999D01*
X137560428Y-76496999D01*
X137560428Y-78697001D01*
X137577492Y-78870255D01*
X137628028Y-79036851D01*
X137710095Y-79190387D01*
X137820538Y-79324962D01*
X137871397Y-79366701D01*
X137839500Y-79527061D01*
X137839500Y-79730939D01*
X137879274Y-79930898D01*
X137957295Y-80119256D01*
X138070563Y-80288774D01*
X138114500Y-80332711D01*
X138114500Y-80559179D01*
X138110824Y-80596502D01*
X138114500Y-80633824D01*
X138114500Y-80633834D01*
X138125497Y-80745487D01*
X138155138Y-80843201D01*
X138168954Y-80888748D01*
X138239526Y-81020778D01*
X138268420Y-81055985D01*
X138334499Y-81136503D01*
X138363502Y-81160305D01*
X138621198Y-81418002D01*
X138644997Y-81447001D01*
X138760722Y-81541974D01*
X138775746Y-81550004D01*
X138760000Y-81565750D01*
X138770114Y-81654467D01*
X138769188Y-81657518D01*
X138756928Y-81782000D01*
X138756928Y-82032000D01*
X138769188Y-82156482D01*
X138769345Y-82157000D01*
X138769188Y-82157518D01*
X138756928Y-82282000D01*
X138756928Y-82532000D01*
X138769188Y-82656482D01*
X138805498Y-82776180D01*
X138864463Y-82886494D01*
X138943815Y-82983185D01*
X138962627Y-82998623D01*
X138888000Y-83073250D01*
X138888000Y-84772500D01*
X139899750Y-84772500D01*
X140058500Y-84613750D01*
X140061572Y-83549500D01*
X140049312Y-83425018D01*
X140013002Y-83305320D01*
X139954037Y-83195006D01*
X139933574Y-83170072D01*
X140495000Y-83170072D01*
X140526192Y-83167000D01*
X140829699Y-83167000D01*
X141754428Y-84091730D01*
X141754428Y-85255000D01*
X141766688Y-85379482D01*
X141802998Y-85499180D01*
X141861963Y-85609494D01*
X141941315Y-85706185D01*
X142038006Y-85785537D01*
X142148320Y-85844502D01*
X142268018Y-85880812D01*
X142392500Y-85893072D01*
X142399715Y-85893072D01*
X142379403Y-85962298D01*
X143192500Y-86775395D01*
X144005597Y-85962298D01*
X143985285Y-85893072D01*
X143992500Y-85893072D01*
X144116982Y-85880812D01*
X144236680Y-85844502D01*
X144346994Y-85785537D01*
X144443685Y-85706185D01*
X144523037Y-85609494D01*
X144582002Y-85499180D01*
X144618312Y-85379482D01*
X144630572Y-85255000D01*
X144630572Y-83655000D01*
X144618312Y-83530518D01*
X144582002Y-83410820D01*
X144523037Y-83300506D01*
X144443685Y-83203815D01*
X144346994Y-83124463D01*
X144236680Y-83065498D01*
X144116982Y-83029188D01*
X143992500Y-83016928D01*
X142829230Y-83016928D01*
X142479302Y-82667000D01*
X144634199Y-82667000D01*
X147339428Y-85372230D01*
X147339428Y-86698001D01*
X147356492Y-86871255D01*
X147407028Y-87037851D01*
X147489095Y-87191387D01*
X147599538Y-87325962D01*
X147734113Y-87436405D01*
X147887649Y-87518472D01*
X148054245Y-87569008D01*
X148227499Y-87586072D01*
X149052501Y-87586072D01*
X149225755Y-87569008D01*
X149392351Y-87518472D01*
X149545887Y-87436405D01*
X149680462Y-87325962D01*
X149790905Y-87191387D01*
X149872972Y-87037851D01*
X149923508Y-86871255D01*
X149940572Y-86698001D01*
X149940572Y-84497999D01*
X150464428Y-84497999D01*
X150464428Y-86698001D01*
X150481492Y-86871255D01*
X150532028Y-87037851D01*
X150614095Y-87191387D01*
X150724538Y-87325962D01*
X150859113Y-87436405D01*
X151012649Y-87518472D01*
X151179245Y-87569008D01*
X151352499Y-87586072D01*
X152177501Y-87586072D01*
X152350755Y-87569008D01*
X152517351Y-87518472D01*
X152670887Y-87436405D01*
X152805462Y-87325962D01*
X152915905Y-87191387D01*
X152997972Y-87037851D01*
X153048508Y-86871255D01*
X153064898Y-86704841D01*
X153071184Y-86706748D01*
X153242000Y-86723572D01*
X153717000Y-86723572D01*
X153887816Y-86706748D01*
X154052067Y-86656923D01*
X154203442Y-86576012D01*
X154251116Y-86536887D01*
X154283558Y-86563512D01*
X154434933Y-86644423D01*
X154599184Y-86694248D01*
X154770000Y-86711072D01*
X155270000Y-86711072D01*
X155440816Y-86694248D01*
X155605067Y-86644423D01*
X155756442Y-86563512D01*
X155889123Y-86454623D01*
X155932500Y-86401768D01*
X155975877Y-86454623D01*
X156108558Y-86563512D01*
X156259933Y-86644423D01*
X156424184Y-86694248D01*
X156595000Y-86711072D01*
X157095000Y-86711072D01*
X157265816Y-86694248D01*
X157430067Y-86644423D01*
X157528429Y-86591848D01*
X157654614Y-86695405D01*
X157808150Y-86777472D01*
X157974746Y-86828008D01*
X158148000Y-86845072D01*
X159098000Y-86845072D01*
X159271254Y-86828008D01*
X159437850Y-86777472D01*
X159591386Y-86695405D01*
X159725962Y-86584962D01*
X159832681Y-86454924D01*
X159956513Y-86640252D01*
X160184248Y-86867987D01*
X160452037Y-87046918D01*
X160749588Y-87170168D01*
X161065467Y-87233000D01*
X161387533Y-87233000D01*
X161703412Y-87170168D01*
X162000963Y-87046918D01*
X162268752Y-86867987D01*
X162496487Y-86640252D01*
X162675418Y-86372463D01*
X162798668Y-86074912D01*
X162861500Y-85759033D01*
X162861500Y-85436967D01*
X162798668Y-85121088D01*
X162675418Y-84823537D01*
X162496487Y-84555748D01*
X162268752Y-84328013D01*
X162000963Y-84149082D01*
X161703412Y-84025832D01*
X161387533Y-83963000D01*
X161065467Y-83963000D01*
X160749588Y-84025832D01*
X160452037Y-84149082D01*
X160184248Y-84328013D01*
X159956513Y-84555748D01*
X159816843Y-84764778D01*
X159725962Y-84654038D01*
X159719406Y-84648658D01*
X159799185Y-84583185D01*
X159878537Y-84486494D01*
X159937502Y-84376180D01*
X159973812Y-84256482D01*
X159986072Y-84132000D01*
X159983000Y-83830250D01*
X159824250Y-83671500D01*
X158750000Y-83671500D01*
X158750000Y-83691500D01*
X158496000Y-83691500D01*
X158496000Y-83671500D01*
X157421750Y-83671500D01*
X157263000Y-83830250D01*
X157259928Y-84132000D01*
X157272188Y-84256482D01*
X157308498Y-84376180D01*
X157367463Y-84486494D01*
X157417828Y-84547864D01*
X157265816Y-84501752D01*
X157095000Y-84484928D01*
X156595000Y-84484928D01*
X156424184Y-84501752D01*
X156259933Y-84551577D01*
X156108558Y-84632488D01*
X155975877Y-84741377D01*
X155932500Y-84794232D01*
X155889123Y-84741377D01*
X155756442Y-84632488D01*
X155605067Y-84551577D01*
X155440816Y-84501752D01*
X155270000Y-84484928D01*
X154770000Y-84484928D01*
X154599184Y-84501752D01*
X154535191Y-84521164D01*
X154544002Y-84504680D01*
X154580312Y-84384982D01*
X154592572Y-84260500D01*
X154589500Y-84058750D01*
X154430750Y-83900000D01*
X153606500Y-83900000D01*
X153606500Y-83920000D01*
X153352500Y-83920000D01*
X153352500Y-83900000D01*
X153332500Y-83900000D01*
X153332500Y-83646000D01*
X153352500Y-83646000D01*
X153352500Y-82809250D01*
X153606500Y-82809250D01*
X153606500Y-83646000D01*
X154430750Y-83646000D01*
X154589500Y-83487250D01*
X154592572Y-83285500D01*
X154580312Y-83161018D01*
X154544002Y-83041320D01*
X154498932Y-82957000D01*
X157259928Y-82957000D01*
X157263000Y-83258750D01*
X157421750Y-83417500D01*
X158496000Y-83417500D01*
X158496000Y-82480750D01*
X158750000Y-82480750D01*
X158750000Y-83417500D01*
X159824250Y-83417500D01*
X159983000Y-83258750D01*
X159986072Y-82957000D01*
X159973812Y-82832518D01*
X159937502Y-82712820D01*
X159878537Y-82602506D01*
X159799185Y-82505815D01*
X159702494Y-82426463D01*
X159592180Y-82367498D01*
X159472482Y-82331188D01*
X159348000Y-82318928D01*
X158908750Y-82322000D01*
X158750000Y-82480750D01*
X158496000Y-82480750D01*
X158337250Y-82322000D01*
X157898000Y-82318928D01*
X157773518Y-82331188D01*
X157653820Y-82367498D01*
X157543506Y-82426463D01*
X157446815Y-82505815D01*
X157367463Y-82602506D01*
X157308498Y-82712820D01*
X157272188Y-82832518D01*
X157259928Y-82957000D01*
X154498932Y-82957000D01*
X154485037Y-82931006D01*
X154405685Y-82834315D01*
X154308994Y-82754963D01*
X154198680Y-82695998D01*
X154078982Y-82659688D01*
X153954500Y-82647428D01*
X153765250Y-82650500D01*
X153606500Y-82809250D01*
X153352500Y-82809250D01*
X153193750Y-82650500D01*
X153004500Y-82647428D01*
X152880018Y-82659688D01*
X152760320Y-82695998D01*
X152650006Y-82754963D01*
X152553315Y-82834315D01*
X152473963Y-82931006D01*
X152414998Y-83041320D01*
X152378688Y-83161018D01*
X152366428Y-83285500D01*
X152369500Y-83487250D01*
X152528248Y-83645998D01*
X152413410Y-83645998D01*
X152350755Y-83626992D01*
X152177501Y-83609928D01*
X151352499Y-83609928D01*
X151179245Y-83626992D01*
X151012649Y-83677528D01*
X150859113Y-83759595D01*
X150724538Y-83870038D01*
X150614095Y-84004613D01*
X150532028Y-84158149D01*
X150481492Y-84324745D01*
X150464428Y-84497999D01*
X149940572Y-84497999D01*
X149923508Y-84324745D01*
X149872972Y-84158149D01*
X149790905Y-84004613D01*
X149680462Y-83870038D01*
X149545887Y-83759595D01*
X149392351Y-83677528D01*
X149225755Y-83626992D01*
X149052501Y-83609928D01*
X148227499Y-83609928D01*
X148054245Y-83626992D01*
X147887649Y-83677528D01*
X147826835Y-83710034D01*
X145512804Y-81396003D01*
X145489001Y-81366999D01*
X145373276Y-81272026D01*
X145241247Y-81201454D01*
X145127665Y-81167000D01*
X145411678Y-81167000D01*
X145449000Y-81170676D01*
X145486322Y-81167000D01*
X145486333Y-81167000D01*
X145597986Y-81156003D01*
X145741247Y-81112546D01*
X145873276Y-81041974D01*
X145989001Y-80947001D01*
X146012804Y-80917997D01*
X147826836Y-79103966D01*
X147887649Y-79136472D01*
X148054245Y-79187008D01*
X148227499Y-79204072D01*
X149052501Y-79204072D01*
X149225755Y-79187008D01*
X149392351Y-79136472D01*
X149545887Y-79054405D01*
X149680462Y-78943962D01*
X149790905Y-78809387D01*
X149872972Y-78655851D01*
X149923508Y-78489255D01*
X149940572Y-78316001D01*
X149940572Y-76115999D01*
X150464428Y-76115999D01*
X150464428Y-78316001D01*
X150481492Y-78489255D01*
X150532028Y-78655851D01*
X150614095Y-78809387D01*
X150724538Y-78943962D01*
X150859113Y-79054405D01*
X151012649Y-79136472D01*
X151179245Y-79187008D01*
X151352499Y-79204072D01*
X152177501Y-79204072D01*
X152350755Y-79187008D01*
X152413410Y-79168002D01*
X152528248Y-79168002D01*
X152369500Y-79326750D01*
X152366428Y-79528500D01*
X152378688Y-79652982D01*
X152414998Y-79772680D01*
X152473963Y-79882994D01*
X152553315Y-79979685D01*
X152650006Y-80059037D01*
X152760320Y-80118002D01*
X152880018Y-80154312D01*
X153004500Y-80166572D01*
X153193750Y-80163500D01*
X153352500Y-80004750D01*
X153352500Y-79168000D01*
X153606500Y-79168000D01*
X153606500Y-80004750D01*
X153765250Y-80163500D01*
X153954500Y-80166572D01*
X154078982Y-80154312D01*
X154198680Y-80118002D01*
X154308994Y-80059037D01*
X154405685Y-79979685D01*
X154485037Y-79882994D01*
X154487439Y-79878500D01*
X157259928Y-79878500D01*
X157272188Y-80002982D01*
X157308498Y-80122680D01*
X157367463Y-80232994D01*
X157446815Y-80329685D01*
X157543506Y-80409037D01*
X157653820Y-80468002D01*
X157773518Y-80504312D01*
X157898000Y-80516572D01*
X158337250Y-80513500D01*
X158496000Y-80354750D01*
X158496000Y-79418000D01*
X158750000Y-79418000D01*
X158750000Y-80354750D01*
X158908750Y-80513500D01*
X159348000Y-80516572D01*
X159472482Y-80504312D01*
X159592180Y-80468002D01*
X159702494Y-80409037D01*
X159799185Y-80329685D01*
X159878537Y-80232994D01*
X159937502Y-80122680D01*
X159973812Y-80002982D01*
X159986072Y-79878500D01*
X159983000Y-79576750D01*
X159824250Y-79418000D01*
X158750000Y-79418000D01*
X158496000Y-79418000D01*
X157421750Y-79418000D01*
X157263000Y-79576750D01*
X157259928Y-79878500D01*
X154487439Y-79878500D01*
X154544002Y-79772680D01*
X154580312Y-79652982D01*
X154592572Y-79528500D01*
X154589500Y-79326750D01*
X154430750Y-79168000D01*
X153606500Y-79168000D01*
X153352500Y-79168000D01*
X153332500Y-79168000D01*
X153332500Y-78914000D01*
X153352500Y-78914000D01*
X153352500Y-78894000D01*
X153606500Y-78894000D01*
X153606500Y-78914000D01*
X154430750Y-78914000D01*
X154589500Y-78755250D01*
X154592572Y-78553500D01*
X154580312Y-78429018D01*
X154544002Y-78309320D01*
X154535191Y-78292836D01*
X154599184Y-78312248D01*
X154770000Y-78329072D01*
X155270000Y-78329072D01*
X155440816Y-78312248D01*
X155605067Y-78262423D01*
X155756442Y-78181512D01*
X155889123Y-78072623D01*
X155932500Y-78019768D01*
X155975877Y-78072623D01*
X156108558Y-78181512D01*
X156259933Y-78262423D01*
X156424184Y-78312248D01*
X156595000Y-78329072D01*
X157095000Y-78329072D01*
X157265816Y-78312248D01*
X157430067Y-78262423D01*
X157445125Y-78254374D01*
X157367463Y-78349006D01*
X157308498Y-78459320D01*
X157272188Y-78579018D01*
X157259928Y-78703500D01*
X157263000Y-79005250D01*
X157421750Y-79164000D01*
X158496000Y-79164000D01*
X158496000Y-79144000D01*
X158750000Y-79144000D01*
X158750000Y-79164000D01*
X159824250Y-79164000D01*
X159983000Y-79005250D01*
X159986072Y-78703500D01*
X159973812Y-78579018D01*
X159937502Y-78459320D01*
X159878537Y-78349006D01*
X159799185Y-78252315D01*
X159719406Y-78186842D01*
X159725962Y-78181462D01*
X159824762Y-78061073D01*
X159956513Y-78258252D01*
X160184248Y-78485987D01*
X160452037Y-78664918D01*
X160749588Y-78788168D01*
X161065467Y-78851000D01*
X161387533Y-78851000D01*
X161703412Y-78788168D01*
X162000963Y-78664918D01*
X162268752Y-78485987D01*
X162496487Y-78258252D01*
X162675418Y-77990463D01*
X162798668Y-77692912D01*
X162861500Y-77377033D01*
X162861500Y-77054967D01*
X162798668Y-76739088D01*
X162675418Y-76441537D01*
X162496487Y-76173748D01*
X162268752Y-75946013D01*
X162000963Y-75767082D01*
X161703412Y-75643832D01*
X161387533Y-75581000D01*
X161065467Y-75581000D01*
X160749588Y-75643832D01*
X160452037Y-75767082D01*
X160184248Y-75946013D01*
X159956513Y-76173748D01*
X159824762Y-76370927D01*
X159725962Y-76250538D01*
X159591386Y-76140095D01*
X159437850Y-76058028D01*
X159271254Y-76007492D01*
X159098000Y-75990428D01*
X158148000Y-75990428D01*
X157974746Y-76007492D01*
X157808150Y-76058028D01*
X157654614Y-76140095D01*
X157544294Y-76230632D01*
X157430067Y-76169577D01*
X157265816Y-76119752D01*
X157095000Y-76102928D01*
X156595000Y-76102928D01*
X156424184Y-76119752D01*
X156259933Y-76169577D01*
X156108558Y-76250488D01*
X155975877Y-76359377D01*
X155932500Y-76412232D01*
X155889123Y-76359377D01*
X155756442Y-76250488D01*
X155605067Y-76169577D01*
X155440816Y-76119752D01*
X155270000Y-76102928D01*
X154770000Y-76102928D01*
X154599184Y-76119752D01*
X154434933Y-76169577D01*
X154283558Y-76250488D01*
X154251116Y-76277113D01*
X154203442Y-76237988D01*
X154052067Y-76157077D01*
X153887816Y-76107252D01*
X153717000Y-76090428D01*
X153242000Y-76090428D01*
X153071184Y-76107252D01*
X153064898Y-76109159D01*
X153048508Y-75942745D01*
X152997972Y-75776149D01*
X152915905Y-75622613D01*
X152805462Y-75488038D01*
X152670887Y-75377595D01*
X152517351Y-75295528D01*
X152350755Y-75244992D01*
X152177501Y-75227928D01*
X151352499Y-75227928D01*
X151179245Y-75244992D01*
X151012649Y-75295528D01*
X150859113Y-75377595D01*
X150724538Y-75488038D01*
X150614095Y-75622613D01*
X150532028Y-75776149D01*
X150481492Y-75942745D01*
X150464428Y-76115999D01*
X149940572Y-76115999D01*
X149923508Y-75942745D01*
X149872972Y-75776149D01*
X149790905Y-75622613D01*
X149680462Y-75488038D01*
X149545887Y-75377595D01*
X149392351Y-75295528D01*
X149225755Y-75244992D01*
X149052501Y-75227928D01*
X148227499Y-75227928D01*
X148054245Y-75244992D01*
X147887649Y-75295528D01*
X147734113Y-75377595D01*
X147599538Y-75488038D01*
X147489095Y-75622613D01*
X147407028Y-75776149D01*
X147356492Y-75942745D01*
X147339428Y-76115999D01*
X147339428Y-77441769D01*
X145134199Y-79647000D01*
X140526192Y-79647000D01*
X140495000Y-79643928D01*
X139909500Y-79643928D01*
X139909500Y-79527061D01*
X139873814Y-79347652D01*
X139901462Y-79324962D01*
X140011905Y-79190387D01*
X140093972Y-79036851D01*
X140121227Y-78947000D01*
X140685428Y-78947000D01*
X140697688Y-79071482D01*
X140733998Y-79191180D01*
X140792963Y-79301494D01*
X140872315Y-79398185D01*
X140969006Y-79477537D01*
X141079320Y-79536502D01*
X141199018Y-79572812D01*
X141323500Y-79585072D01*
X141700250Y-79582000D01*
X141859000Y-79423250D01*
X141859000Y-77724000D01*
X142113000Y-77724000D01*
X142113000Y-79423250D01*
X142271750Y-79582000D01*
X142648500Y-79585072D01*
X142772982Y-79572812D01*
X142892680Y-79536502D01*
X143002994Y-79477537D01*
X143099685Y-79398185D01*
X143179037Y-79301494D01*
X143238002Y-79191180D01*
X143274312Y-79071482D01*
X143286572Y-78947000D01*
X143283500Y-77882750D01*
X143124750Y-77724000D01*
X142113000Y-77724000D01*
X141859000Y-77724000D01*
X140847250Y-77724000D01*
X140688500Y-77882750D01*
X140685428Y-78947000D01*
X140121227Y-78947000D01*
X140144508Y-78870255D01*
X140161572Y-78697001D01*
X140161572Y-76496999D01*
X140144508Y-76323745D01*
X140121228Y-76247000D01*
X140685428Y-76247000D01*
X140688500Y-77311250D01*
X140847250Y-77470000D01*
X141859000Y-77470000D01*
X141859000Y-75770750D01*
X142113000Y-75770750D01*
X142113000Y-77470000D01*
X143124750Y-77470000D01*
X143283500Y-77311250D01*
X143286572Y-76247000D01*
X143274312Y-76122518D01*
X143238002Y-76002820D01*
X143179037Y-75892506D01*
X143099685Y-75795815D01*
X143002994Y-75716463D01*
X142892680Y-75657498D01*
X142772982Y-75621188D01*
X142648500Y-75608928D01*
X142271750Y-75612000D01*
X142113000Y-75770750D01*
X141859000Y-75770750D01*
X141700250Y-75612000D01*
X141323500Y-75608928D01*
X141199018Y-75621188D01*
X141079320Y-75657498D01*
X140969006Y-75716463D01*
X140872315Y-75795815D01*
X140792963Y-75892506D01*
X140733998Y-76002820D01*
X140697688Y-76122518D01*
X140685428Y-76247000D01*
X140121228Y-76247000D01*
X140093972Y-76157149D01*
X140011905Y-76003613D01*
X139901462Y-75869038D01*
X139766887Y-75758595D01*
X139613351Y-75676528D01*
X139446755Y-75625992D01*
X139273501Y-75608928D01*
X138448499Y-75608928D01*
X138275245Y-75625992D01*
X138108649Y-75676528D01*
X137955113Y-75758595D01*
X137820538Y-75869038D01*
X137710095Y-76003613D01*
X137628028Y-76157149D01*
X137577492Y-76323745D01*
X137560428Y-76496999D01*
X121045215Y-76496999D01*
X120977975Y-76396368D01*
X120771132Y-76189525D01*
X120596740Y-76073000D01*
X120771132Y-75956475D01*
X120977975Y-75749632D01*
X121140490Y-75506411D01*
X121252432Y-75236158D01*
X121309500Y-74949260D01*
X121309500Y-74656740D01*
X121252432Y-74369842D01*
X121140490Y-74099589D01*
X120977975Y-73856368D01*
X120771132Y-73649525D01*
X120588966Y-73527805D01*
X120705855Y-73458178D01*
X120922088Y-73263269D01*
X121096141Y-73029920D01*
X121221325Y-72767099D01*
X121265976Y-72619890D01*
X121144655Y-72390000D01*
X119951500Y-72390000D01*
X119951500Y-72410000D01*
X119697500Y-72410000D01*
X119697500Y-72390000D01*
X118504345Y-72390000D01*
X118383024Y-72619890D01*
X118427675Y-72767099D01*
X118552859Y-73029920D01*
X118726912Y-73263269D01*
X118943145Y-73458178D01*
X119060034Y-73527805D01*
X118877868Y-73649525D01*
X118671025Y-73856368D01*
X118508510Y-74099589D01*
X118396568Y-74369842D01*
X118339500Y-74656740D01*
X118339500Y-74949260D01*
X118396568Y-75236158D01*
X118508510Y-75506411D01*
X118671025Y-75749632D01*
X118877868Y-75956475D01*
X119052260Y-76073000D01*
X118877868Y-76189525D01*
X118671025Y-76396368D01*
X118508510Y-76639589D01*
X118396568Y-76909842D01*
X118339500Y-77196740D01*
X118339500Y-77489260D01*
X118396568Y-77776158D01*
X118508510Y-78046411D01*
X118671025Y-78289632D01*
X118877868Y-78496475D01*
X119052260Y-78613000D01*
X118877868Y-78729525D01*
X118671025Y-78936368D01*
X118508510Y-79179589D01*
X118396568Y-79449842D01*
X118339500Y-79736740D01*
X118339500Y-80029260D01*
X118396568Y-80316158D01*
X118508510Y-80586411D01*
X118671025Y-80829632D01*
X118877868Y-81036475D01*
X119052260Y-81153000D01*
X118877868Y-81269525D01*
X118671025Y-81476368D01*
X118508510Y-81719589D01*
X118396568Y-81989842D01*
X118339500Y-82276740D01*
X118339500Y-82569260D01*
X118396568Y-82856158D01*
X118508510Y-83126411D01*
X118671025Y-83369632D01*
X118877868Y-83576475D01*
X119052260Y-83693000D01*
X118877868Y-83809525D01*
X118671025Y-84016368D01*
X118508510Y-84259589D01*
X118396568Y-84529842D01*
X118339500Y-84816740D01*
X118339500Y-85109260D01*
X118396568Y-85396158D01*
X118508510Y-85666411D01*
X118671025Y-85909632D01*
X118877868Y-86116475D01*
X119052260Y-86233000D01*
X118877868Y-86349525D01*
X118671025Y-86556368D01*
X118508510Y-86799589D01*
X118396568Y-87069842D01*
X118339500Y-87356740D01*
X118339500Y-87649260D01*
X118396568Y-87936158D01*
X118508510Y-88206411D01*
X118671025Y-88449632D01*
X118877868Y-88656475D01*
X119052260Y-88773000D01*
X118877868Y-88889525D01*
X118671025Y-89096368D01*
X118508510Y-89339589D01*
X118396568Y-89609842D01*
X118339500Y-89896740D01*
X118339500Y-90189260D01*
X118396568Y-90476158D01*
X118508510Y-90746411D01*
X118671025Y-90989632D01*
X118802880Y-91121487D01*
X118730320Y-91143498D01*
X118620006Y-91202463D01*
X118523315Y-91281815D01*
X118443963Y-91378506D01*
X118384998Y-91488820D01*
X118348688Y-91608518D01*
X118336428Y-91733000D01*
X108610000Y-91733000D01*
X108610000Y-74933045D01*
X111465000Y-74933045D01*
X111465000Y-75186955D01*
X111514535Y-75435987D01*
X111611703Y-75670570D01*
X111752768Y-75881690D01*
X111932310Y-76061232D01*
X112143430Y-76202297D01*
X112378013Y-76299465D01*
X112531524Y-76330000D01*
X112378013Y-76360535D01*
X112143430Y-76457703D01*
X111932310Y-76598768D01*
X111752768Y-76778310D01*
X111611703Y-76989430D01*
X111514535Y-77224013D01*
X111465000Y-77473045D01*
X111465000Y-77726955D01*
X111514535Y-77975987D01*
X111611703Y-78210570D01*
X111752768Y-78421690D01*
X111932310Y-78601232D01*
X112143430Y-78742297D01*
X112378013Y-78839465D01*
X112531524Y-78870000D01*
X112378013Y-78900535D01*
X112143430Y-78997703D01*
X111932310Y-79138768D01*
X111752768Y-79318310D01*
X111611703Y-79529430D01*
X111514535Y-79764013D01*
X111465000Y-80013045D01*
X111465000Y-80266955D01*
X111514535Y-80515987D01*
X111611703Y-80750570D01*
X111752768Y-80961690D01*
X111932310Y-81141232D01*
X112143430Y-81282297D01*
X112378013Y-81379465D01*
X112531524Y-81410000D01*
X112378013Y-81440535D01*
X112143430Y-81537703D01*
X111932310Y-81678768D01*
X111752768Y-81858310D01*
X111611703Y-82069430D01*
X111514535Y-82304013D01*
X111465000Y-82553045D01*
X111465000Y-82806955D01*
X111514535Y-83055987D01*
X111611703Y-83290570D01*
X111752768Y-83501690D01*
X111932310Y-83681232D01*
X112143430Y-83822297D01*
X112378013Y-83919465D01*
X112531524Y-83950000D01*
X112378013Y-83980535D01*
X112143430Y-84077703D01*
X111932310Y-84218768D01*
X111752768Y-84398310D01*
X111611703Y-84609430D01*
X111514535Y-84844013D01*
X111465000Y-85093045D01*
X111465000Y-85346955D01*
X111514535Y-85595987D01*
X111611703Y-85830570D01*
X111752768Y-86041690D01*
X111932310Y-86221232D01*
X112143430Y-86362297D01*
X112378013Y-86459465D01*
X112627045Y-86509000D01*
X112880955Y-86509000D01*
X113129987Y-86459465D01*
X113364570Y-86362297D01*
X113575690Y-86221232D01*
X113755232Y-86041690D01*
X113892668Y-85836000D01*
X114001928Y-85836000D01*
X114001928Y-87144000D01*
X114014188Y-87268482D01*
X114050498Y-87388180D01*
X114109463Y-87498494D01*
X114188815Y-87595185D01*
X114285506Y-87674537D01*
X114395820Y-87733502D01*
X114515518Y-87769812D01*
X114640000Y-87782072D01*
X115948000Y-87782072D01*
X116072482Y-87769812D01*
X116192180Y-87733502D01*
X116302494Y-87674537D01*
X116399185Y-87595185D01*
X116478537Y-87498494D01*
X116537502Y-87388180D01*
X116573812Y-87268482D01*
X116586072Y-87144000D01*
X116586072Y-85836000D01*
X116573812Y-85711518D01*
X116537502Y-85591820D01*
X116478537Y-85481506D01*
X116399185Y-85384815D01*
X116302494Y-85305463D01*
X116192180Y-85246498D01*
X116072482Y-85210188D01*
X115948000Y-85197928D01*
X115627440Y-85197928D01*
X115669987Y-85189465D01*
X115904570Y-85092297D01*
X116115690Y-84951232D01*
X116295232Y-84771690D01*
X116436297Y-84560570D01*
X116533465Y-84325987D01*
X116583000Y-84076955D01*
X116583000Y-83823045D01*
X116533465Y-83574013D01*
X116436297Y-83339430D01*
X116295232Y-83128310D01*
X116115690Y-82948768D01*
X115904570Y-82807703D01*
X115669987Y-82710535D01*
X115516476Y-82680000D01*
X115669987Y-82649465D01*
X115904570Y-82552297D01*
X116115690Y-82411232D01*
X116295232Y-82231690D01*
X116436297Y-82020570D01*
X116533465Y-81785987D01*
X116583000Y-81536955D01*
X116583000Y-81283045D01*
X116533465Y-81034013D01*
X116436297Y-80799430D01*
X116295232Y-80588310D01*
X116115690Y-80408768D01*
X115904570Y-80267703D01*
X115669987Y-80170535D01*
X115516476Y-80140000D01*
X115669987Y-80109465D01*
X115904570Y-80012297D01*
X116115690Y-79871232D01*
X116295232Y-79691690D01*
X116436297Y-79480570D01*
X116533465Y-79245987D01*
X116583000Y-78996955D01*
X116583000Y-78743045D01*
X116533465Y-78494013D01*
X116436297Y-78259430D01*
X116295232Y-78048310D01*
X116115690Y-77868768D01*
X115904570Y-77727703D01*
X115669987Y-77630535D01*
X115516001Y-77599906D01*
X115621079Y-77583259D01*
X115859293Y-77495368D01*
X115948907Y-77447468D01*
X116002782Y-77218387D01*
X115294000Y-76509605D01*
X114585218Y-77218387D01*
X114639093Y-77447468D01*
X114869684Y-77553763D01*
X115066484Y-77601003D01*
X114918013Y-77630535D01*
X114683430Y-77727703D01*
X114472310Y-77868768D01*
X114292768Y-78048310D01*
X114151703Y-78259430D01*
X114054535Y-78494013D01*
X114005000Y-78743045D01*
X114005000Y-78996955D01*
X114054535Y-79245987D01*
X114151703Y-79480570D01*
X114292768Y-79691690D01*
X114472310Y-79871232D01*
X114683430Y-80012297D01*
X114918013Y-80109465D01*
X115071524Y-80140000D01*
X114918013Y-80170535D01*
X114683430Y-80267703D01*
X114472310Y-80408768D01*
X114292768Y-80588310D01*
X114151703Y-80799430D01*
X114054535Y-81034013D01*
X114005000Y-81283045D01*
X114005000Y-81536955D01*
X114054535Y-81785987D01*
X114151703Y-82020570D01*
X114292768Y-82231690D01*
X114472310Y-82411232D01*
X114683430Y-82552297D01*
X114918013Y-82649465D01*
X115071524Y-82680000D01*
X114918013Y-82710535D01*
X114683430Y-82807703D01*
X114472310Y-82948768D01*
X114292768Y-83128310D01*
X114151703Y-83339430D01*
X114054535Y-83574013D01*
X114005000Y-83823045D01*
X114005000Y-84076955D01*
X114054535Y-84325987D01*
X114151703Y-84560570D01*
X114292768Y-84771690D01*
X114472310Y-84951232D01*
X114683430Y-85092297D01*
X114918013Y-85189465D01*
X114960560Y-85197928D01*
X114640000Y-85197928D01*
X114515518Y-85210188D01*
X114395820Y-85246498D01*
X114285506Y-85305463D01*
X114188815Y-85384815D01*
X114109463Y-85481506D01*
X114050498Y-85591820D01*
X114014188Y-85711518D01*
X114001928Y-85836000D01*
X113892668Y-85836000D01*
X113896297Y-85830570D01*
X113993465Y-85595987D01*
X114043000Y-85346955D01*
X114043000Y-85093045D01*
X113993465Y-84844013D01*
X113896297Y-84609430D01*
X113755232Y-84398310D01*
X113575690Y-84218768D01*
X113364570Y-84077703D01*
X113129987Y-83980535D01*
X112976476Y-83950000D01*
X113129987Y-83919465D01*
X113364570Y-83822297D01*
X113575690Y-83681232D01*
X113755232Y-83501690D01*
X113896297Y-83290570D01*
X113993465Y-83055987D01*
X114043000Y-82806955D01*
X114043000Y-82553045D01*
X113993465Y-82304013D01*
X113896297Y-82069430D01*
X113755232Y-81858310D01*
X113575690Y-81678768D01*
X113364570Y-81537703D01*
X113129987Y-81440535D01*
X112976476Y-81410000D01*
X113129987Y-81379465D01*
X113364570Y-81282297D01*
X113575690Y-81141232D01*
X113755232Y-80961690D01*
X113896297Y-80750570D01*
X113993465Y-80515987D01*
X114043000Y-80266955D01*
X114043000Y-80013045D01*
X113993465Y-79764013D01*
X113896297Y-79529430D01*
X113755232Y-79318310D01*
X113575690Y-79138768D01*
X113364570Y-78997703D01*
X113129987Y-78900535D01*
X112976476Y-78870000D01*
X113129987Y-78839465D01*
X113364570Y-78742297D01*
X113575690Y-78601232D01*
X113755232Y-78421690D01*
X113896297Y-78210570D01*
X113993465Y-77975987D01*
X114043000Y-77726955D01*
X114043000Y-77473045D01*
X113993465Y-77224013D01*
X113896297Y-76989430D01*
X113755232Y-76778310D01*
X113575690Y-76598768D01*
X113364570Y-76457703D01*
X113240464Y-76406296D01*
X114001012Y-76406296D01*
X114040741Y-76657079D01*
X114128632Y-76895293D01*
X114176532Y-76984907D01*
X114405613Y-77038782D01*
X115114395Y-76330000D01*
X115473605Y-76330000D01*
X116182387Y-77038782D01*
X116411468Y-76984907D01*
X116517763Y-76754316D01*
X116577028Y-76507419D01*
X116586988Y-76253704D01*
X116547259Y-76002921D01*
X116459368Y-75764707D01*
X116411468Y-75675093D01*
X116182387Y-75621218D01*
X115473605Y-76330000D01*
X115114395Y-76330000D01*
X114405613Y-75621218D01*
X114176532Y-75675093D01*
X114070237Y-75905684D01*
X114010972Y-76152581D01*
X114001012Y-76406296D01*
X113240464Y-76406296D01*
X113129987Y-76360535D01*
X112976476Y-76330000D01*
X113129987Y-76299465D01*
X113364570Y-76202297D01*
X113575690Y-76061232D01*
X113755232Y-75881690D01*
X113896297Y-75670570D01*
X113991134Y-75441613D01*
X114585218Y-75441613D01*
X115294000Y-76150395D01*
X116002782Y-75441613D01*
X115948907Y-75212532D01*
X115718316Y-75106237D01*
X115471419Y-75046972D01*
X115217704Y-75037012D01*
X114966921Y-75076741D01*
X114728707Y-75164632D01*
X114639093Y-75212532D01*
X114585218Y-75441613D01*
X113991134Y-75441613D01*
X113993465Y-75435987D01*
X114043000Y-75186955D01*
X114043000Y-74947450D01*
X114150011Y-74991775D01*
X114417589Y-75045000D01*
X114690411Y-75045000D01*
X114957989Y-74991775D01*
X115210043Y-74887371D01*
X115436886Y-74735799D01*
X115629799Y-74542886D01*
X115781371Y-74316043D01*
X115885775Y-74063989D01*
X115939000Y-73796411D01*
X115939000Y-73523589D01*
X115885775Y-73256011D01*
X115781371Y-73003957D01*
X115629799Y-72777114D01*
X115436886Y-72584201D01*
X115210043Y-72432629D01*
X114957989Y-72328225D01*
X114690411Y-72275000D01*
X114417589Y-72275000D01*
X114150011Y-72328225D01*
X113897957Y-72432629D01*
X113671114Y-72584201D01*
X113478201Y-72777114D01*
X113326629Y-73003957D01*
X113222225Y-73256011D01*
X113169000Y-73523589D01*
X113169000Y-73796411D01*
X113177733Y-73840312D01*
X113129987Y-73820535D01*
X112880955Y-73771000D01*
X112627045Y-73771000D01*
X112378013Y-73820535D01*
X112143430Y-73917703D01*
X111932310Y-74058768D01*
X111752768Y-74238310D01*
X111611703Y-74449430D01*
X111514535Y-74684013D01*
X111465000Y-74933045D01*
X108610000Y-74933045D01*
X108610000Y-69576740D01*
X118339500Y-69576740D01*
X118339500Y-69869260D01*
X118396568Y-70156158D01*
X118508510Y-70426411D01*
X118671025Y-70669632D01*
X118877868Y-70876475D01*
X119060034Y-70998195D01*
X118943145Y-71067822D01*
X118726912Y-71262731D01*
X118552859Y-71496080D01*
X118427675Y-71758901D01*
X118383024Y-71906110D01*
X118504345Y-72136000D01*
X119697500Y-72136000D01*
X119697500Y-72116000D01*
X119951500Y-72116000D01*
X119951500Y-72136000D01*
X121144655Y-72136000D01*
X121265976Y-71906110D01*
X121221325Y-71758901D01*
X121096141Y-71496080D01*
X120922088Y-71262731D01*
X120705855Y-71067822D01*
X120588966Y-70998195D01*
X120771132Y-70876475D01*
X120977975Y-70669632D01*
X121140490Y-70426411D01*
X121171969Y-70350413D01*
X160270692Y-70350413D01*
X160366456Y-70614814D01*
X160656071Y-70755704D01*
X160967608Y-70837384D01*
X161289095Y-70856718D01*
X161608175Y-70812961D01*
X161912588Y-70707795D01*
X162086544Y-70614814D01*
X162182308Y-70350413D01*
X161226500Y-69394605D01*
X160270692Y-70350413D01*
X121171969Y-70350413D01*
X121252432Y-70156158D01*
X121309500Y-69869260D01*
X121309500Y-69576740D01*
X121252432Y-69289842D01*
X121247360Y-69277595D01*
X159584782Y-69277595D01*
X159628539Y-69596675D01*
X159733705Y-69901088D01*
X159826686Y-70075044D01*
X160091087Y-70170808D01*
X161046895Y-69215000D01*
X161406105Y-69215000D01*
X162361913Y-70170808D01*
X162626314Y-70075044D01*
X162767204Y-69785429D01*
X162848884Y-69473892D01*
X162868218Y-69152405D01*
X162824461Y-68833325D01*
X162719295Y-68528912D01*
X162626314Y-68354956D01*
X162361913Y-68259192D01*
X161406105Y-69215000D01*
X161046895Y-69215000D01*
X160091087Y-68259192D01*
X159826686Y-68354956D01*
X159685796Y-68644571D01*
X159604116Y-68956108D01*
X159584782Y-69277595D01*
X121247360Y-69277595D01*
X121140490Y-69019589D01*
X120977975Y-68776368D01*
X120771132Y-68569525D01*
X120527911Y-68407010D01*
X120257658Y-68295068D01*
X119970760Y-68238000D01*
X119678240Y-68238000D01*
X119391342Y-68295068D01*
X119121089Y-68407010D01*
X118877868Y-68569525D01*
X118671025Y-68776368D01*
X118508510Y-69019589D01*
X118396568Y-69289842D01*
X118339500Y-69576740D01*
X108610000Y-69576740D01*
X108610000Y-68079587D01*
X160270692Y-68079587D01*
X161226500Y-69035395D01*
X162182308Y-68079587D01*
X162086544Y-67815186D01*
X161796929Y-67674296D01*
X161485392Y-67592616D01*
X161163905Y-67573282D01*
X160844825Y-67617039D01*
X160540412Y-67722205D01*
X160366456Y-67815186D01*
X160270692Y-68079587D01*
X108610000Y-68079587D01*
X108610000Y-61374872D01*
X111430000Y-61374872D01*
X111430000Y-61815128D01*
X111515890Y-62246925D01*
X111684369Y-62653669D01*
X111928962Y-63019729D01*
X112240271Y-63331038D01*
X112606331Y-63575631D01*
X113013075Y-63744110D01*
X113444872Y-63830000D01*
X113885128Y-63830000D01*
X114316925Y-63744110D01*
X114723669Y-63575631D01*
X115089729Y-63331038D01*
X115401038Y-63019729D01*
X115645631Y-62653669D01*
X115814110Y-62246925D01*
X115900000Y-61815128D01*
X115900000Y-61374872D01*
X193980000Y-61374872D01*
X193980000Y-61815128D01*
X194065890Y-62246925D01*
X194234369Y-62653669D01*
X194478962Y-63019729D01*
X194790271Y-63331038D01*
X195156331Y-63575631D01*
X195563075Y-63744110D01*
X195994872Y-63830000D01*
X196435128Y-63830000D01*
X196866925Y-63744110D01*
X197273669Y-63575631D01*
X197639729Y-63331038D01*
X197951038Y-63019729D01*
X198195631Y-62653669D01*
X198364110Y-62246925D01*
X198450000Y-61815128D01*
X198450000Y-61374872D01*
X198364110Y-60943075D01*
X198195631Y-60536331D01*
X197951038Y-60170271D01*
X197639729Y-59858962D01*
X197273669Y-59614369D01*
X196866925Y-59445890D01*
X196435128Y-59360000D01*
X195994872Y-59360000D01*
X195563075Y-59445890D01*
X195156331Y-59614369D01*
X194790271Y-59858962D01*
X194478962Y-60170271D01*
X194234369Y-60536331D01*
X194065890Y-60943075D01*
X193980000Y-61374872D01*
X115900000Y-61374872D01*
X115814110Y-60943075D01*
X115645631Y-60536331D01*
X115401038Y-60170271D01*
X115089729Y-59858962D01*
X114723669Y-59614369D01*
X114316925Y-59445890D01*
X113885128Y-59360000D01*
X113444872Y-59360000D01*
X113013075Y-59445890D01*
X112606331Y-59614369D01*
X112240271Y-59858962D01*
X111928962Y-60170271D01*
X111684369Y-60536331D01*
X111515890Y-60943075D01*
X111430000Y-61374872D01*
X108610000Y-61374872D01*
X108610000Y-55270000D01*
X201270000Y-55270000D01*
X201270001Y-126340000D01*
G37*
G04 #@! TD.AperFunction*
M02*
