M48
; DRILL file {KiCad (5.1.10-0-10_14)} date Monday, October 25, 2021 at 07:37:08 PM
; FORMAT={-:-/ absolute / inch / decimal}
; #@! TF.CreationDate,2021-10-25T19:37:08+02:00
; #@! TF.GenerationSoftware,Kicad,Pcbnew,(5.1.10-0-10_14)
; #@! TF.FileFunction,Plated,1,2,PTH
FMAT,2
INCH
T1C0.0118
T2C0.0157
T3C0.0315
T4C0.0394
%
G90
G05
T1
X5.015Y-3.2225
X5.095Y-3.16
X5.0975Y-3.0975
X5.0975Y-3.285
T2
X5.4175Y-3.205
X5.4675Y-3.135
X5.4675Y-4.0775
T3
X4.4391Y-2.9551
X4.4391Y-3.0551
X4.4391Y-3.1551
X4.4391Y-3.2551
X4.4391Y-3.3551
X4.5391Y-3.0051
X4.5391Y-3.1051
X4.5391Y-3.2051
X4.5391Y-3.3051
X4.5391Y-3.4051
X5.34Y-3.4975
X5.34Y-3.5959
X5.355Y-4.3675
X5.4534Y-4.3675
X5.4666Y-3.785
X5.565Y-3.785
X5.6375Y-3.325
X5.6375Y-3.4234
T4
X4.7175Y-2.745
X4.7175Y-2.845
X4.7175Y-2.945
X4.7175Y-3.045
X4.7175Y-3.145
X4.7175Y-3.245
X4.7175Y-3.345
X4.7175Y-3.445
X4.7175Y-3.545
X4.7175Y-3.645
X5.355Y-4.805
X5.745Y-4.805
X6.3425Y-3.65
X6.3475Y-2.725
X6.3475Y-3.04
X6.3475Y-3.37
T0
M30
