G04 #@! TF.GenerationSoftware,KiCad,Pcbnew,(5.1.9-0-10_14)*
G04 #@! TF.CreationDate,2021-04-19T16:59:25+02:00*
G04 #@! TF.ProjectId,pre-amp-ecc88,7072652d-616d-4702-9d65-636338382e6b,rev?*
G04 #@! TF.SameCoordinates,Original*
G04 #@! TF.FileFunction,Legend,Top*
G04 #@! TF.FilePolarity,Positive*
%FSLAX46Y46*%
G04 Gerber Fmt 4.6, Leading zero omitted, Abs format (unit mm)*
G04 Created by KiCad (PCBNEW (5.1.9-0-10_14)) date 2021-04-19 16:59:25*
%MOMM*%
%LPD*%
G01*
G04 APERTURE LIST*
%ADD10C,0.150000*%
%ADD11C,0.120000*%
%ADD12C,0.378460*%
%ADD13C,0.100000*%
%ADD14C,0.304800*%
G04 APERTURE END LIST*
D10*
X77216000Y-86193380D02*
X77120761Y-86241000D01*
X77073142Y-86336238D01*
X77120761Y-86431476D01*
X77216000Y-86479095D01*
X77311238Y-86431476D01*
X77358857Y-86336238D01*
X77311238Y-86241000D01*
X77216000Y-86193380D01*
X76962000Y-125944380D02*
X76866761Y-125992000D01*
X76819142Y-126087238D01*
X76866761Y-126182476D01*
X76962000Y-126230095D01*
X77057238Y-126182476D01*
X77104857Y-126087238D01*
X77057238Y-125992000D01*
X76962000Y-125944380D01*
X132842000Y-151725380D02*
X132746761Y-151773000D01*
X132699142Y-151868238D01*
X132746761Y-151963476D01*
X132842000Y-152011095D01*
X132937238Y-151963476D01*
X132984857Y-151868238D01*
X132937238Y-151773000D01*
X132842000Y-151725380D01*
X151757095Y-106116380D02*
X151757095Y-105116380D01*
X152328523Y-106116380D02*
X151899952Y-105544952D01*
X152328523Y-105116380D02*
X151757095Y-105687809D01*
X108577095Y-131897380D02*
X108577095Y-130897380D01*
X109148523Y-131897380D02*
X108719952Y-131325952D01*
X109148523Y-130897380D02*
X108577095Y-131468809D01*
X108577095Y-92400380D02*
X108577095Y-91400380D01*
X109148523Y-92400380D02*
X108719952Y-91828952D01*
X109148523Y-91400380D02*
X108577095Y-91971809D01*
X75437904Y-73525000D02*
X75533142Y-73572619D01*
X75676000Y-73572619D01*
X75818857Y-73525000D01*
X75914095Y-73429761D01*
X75961714Y-73334523D01*
X76009333Y-73144047D01*
X76009333Y-73001190D01*
X75961714Y-72810714D01*
X75914095Y-72715476D01*
X75818857Y-72620238D01*
X75676000Y-72572619D01*
X75580761Y-72572619D01*
X75437904Y-72620238D01*
X75390285Y-72667857D01*
X75390285Y-73001190D01*
X75580761Y-73001190D01*
X74961714Y-72572619D02*
X74961714Y-73572619D01*
X74390285Y-72572619D01*
X74390285Y-73572619D01*
X73914095Y-72572619D02*
X73914095Y-73572619D01*
X73676000Y-73572619D01*
X73533142Y-73525000D01*
X73437904Y-73429761D01*
X73390285Y-73334523D01*
X73342666Y-73144047D01*
X73342666Y-73001190D01*
X73390285Y-72810714D01*
X73437904Y-72715476D01*
X73533142Y-72620238D01*
X73676000Y-72572619D01*
X73914095Y-72572619D01*
X109981904Y-73525000D02*
X110077142Y-73572619D01*
X110220000Y-73572619D01*
X110362857Y-73525000D01*
X110458095Y-73429761D01*
X110505714Y-73334523D01*
X110553333Y-73144047D01*
X110553333Y-73001190D01*
X110505714Y-72810714D01*
X110458095Y-72715476D01*
X110362857Y-72620238D01*
X110220000Y-72572619D01*
X110124761Y-72572619D01*
X109981904Y-72620238D01*
X109934285Y-72667857D01*
X109934285Y-73001190D01*
X110124761Y-73001190D01*
X109505714Y-72572619D02*
X109505714Y-73572619D01*
X108934285Y-72572619D01*
X108934285Y-73572619D01*
X108458095Y-72572619D02*
X108458095Y-73572619D01*
X108220000Y-73572619D01*
X108077142Y-73525000D01*
X107981904Y-73429761D01*
X107934285Y-73334523D01*
X107886666Y-73144047D01*
X107886666Y-73001190D01*
X107934285Y-72810714D01*
X107981904Y-72715476D01*
X108077142Y-72620238D01*
X108220000Y-72572619D01*
X108458095Y-72572619D01*
X87328000Y-72953571D02*
X86566095Y-72953571D01*
X86947047Y-72572619D02*
X86947047Y-73334523D01*
X85661333Y-73572619D02*
X85851809Y-73572619D01*
X85947047Y-73525000D01*
X85994666Y-73477380D01*
X86089904Y-73334523D01*
X86137523Y-73144047D01*
X86137523Y-72763095D01*
X86089904Y-72667857D01*
X86042285Y-72620238D01*
X85947047Y-72572619D01*
X85756571Y-72572619D01*
X85661333Y-72620238D01*
X85613714Y-72667857D01*
X85566095Y-72763095D01*
X85566095Y-73001190D01*
X85613714Y-73096428D01*
X85661333Y-73144047D01*
X85756571Y-73191666D01*
X85947047Y-73191666D01*
X86042285Y-73144047D01*
X86089904Y-73096428D01*
X86137523Y-73001190D01*
X85137523Y-72667857D02*
X85089904Y-72620238D01*
X85137523Y-72572619D01*
X85185142Y-72620238D01*
X85137523Y-72667857D01*
X85137523Y-72572619D01*
X84756571Y-73572619D02*
X84137523Y-73572619D01*
X84470857Y-73191666D01*
X84328000Y-73191666D01*
X84232761Y-73144047D01*
X84185142Y-73096428D01*
X84137523Y-73001190D01*
X84137523Y-72763095D01*
X84185142Y-72667857D01*
X84232761Y-72620238D01*
X84328000Y-72572619D01*
X84613714Y-72572619D01*
X84708952Y-72620238D01*
X84756571Y-72667857D01*
X83851809Y-73572619D02*
X83518476Y-72572619D01*
X83185142Y-73572619D01*
X82851809Y-72572619D02*
X82851809Y-73572619D01*
X82613714Y-73572619D01*
X82470857Y-73525000D01*
X82375619Y-73429761D01*
X82328000Y-73334523D01*
X82280380Y-73144047D01*
X82280380Y-73001190D01*
X82328000Y-72810714D01*
X82375619Y-72715476D01*
X82470857Y-72620238D01*
X82613714Y-72572619D01*
X82851809Y-72572619D01*
X81280380Y-72667857D02*
X81328000Y-72620238D01*
X81470857Y-72572619D01*
X81566095Y-72572619D01*
X81708952Y-72620238D01*
X81804190Y-72715476D01*
X81851809Y-72810714D01*
X81899428Y-73001190D01*
X81899428Y-73144047D01*
X81851809Y-73334523D01*
X81804190Y-73429761D01*
X81708952Y-73525000D01*
X81566095Y-73572619D01*
X81470857Y-73572619D01*
X81328000Y-73525000D01*
X81280380Y-73477380D01*
X121983095Y-72953571D02*
X121221190Y-72953571D01*
X121602142Y-72572619D02*
X121602142Y-73334523D01*
X120792619Y-73477380D02*
X120745000Y-73525000D01*
X120649761Y-73572619D01*
X120411666Y-73572619D01*
X120316428Y-73525000D01*
X120268809Y-73477380D01*
X120221190Y-73382142D01*
X120221190Y-73286904D01*
X120268809Y-73144047D01*
X120840238Y-72572619D01*
X120221190Y-72572619D01*
X119602142Y-73572619D02*
X119506904Y-73572619D01*
X119411666Y-73525000D01*
X119364047Y-73477380D01*
X119316428Y-73382142D01*
X119268809Y-73191666D01*
X119268809Y-72953571D01*
X119316428Y-72763095D01*
X119364047Y-72667857D01*
X119411666Y-72620238D01*
X119506904Y-72572619D01*
X119602142Y-72572619D01*
X119697380Y-72620238D01*
X119745000Y-72667857D01*
X119792619Y-72763095D01*
X119840238Y-72953571D01*
X119840238Y-73191666D01*
X119792619Y-73382142D01*
X119745000Y-73477380D01*
X119697380Y-73525000D01*
X119602142Y-73572619D01*
X118649761Y-73572619D02*
X118554523Y-73572619D01*
X118459285Y-73525000D01*
X118411666Y-73477380D01*
X118364047Y-73382142D01*
X118316428Y-73191666D01*
X118316428Y-72953571D01*
X118364047Y-72763095D01*
X118411666Y-72667857D01*
X118459285Y-72620238D01*
X118554523Y-72572619D01*
X118649761Y-72572619D01*
X118745000Y-72620238D01*
X118792619Y-72667857D01*
X118840238Y-72763095D01*
X118887857Y-72953571D01*
X118887857Y-73191666D01*
X118840238Y-73382142D01*
X118792619Y-73477380D01*
X118745000Y-73525000D01*
X118649761Y-73572619D01*
X118030714Y-73572619D02*
X117697380Y-72572619D01*
X117364047Y-73572619D01*
X117030714Y-72572619D02*
X117030714Y-73572619D01*
X116792619Y-73572619D01*
X116649761Y-73525000D01*
X116554523Y-73429761D01*
X116506904Y-73334523D01*
X116459285Y-73144047D01*
X116459285Y-73001190D01*
X116506904Y-72810714D01*
X116554523Y-72715476D01*
X116649761Y-72620238D01*
X116792619Y-72572619D01*
X117030714Y-72572619D01*
X115459285Y-72667857D02*
X115506904Y-72620238D01*
X115649761Y-72572619D01*
X115745000Y-72572619D01*
X115887857Y-72620238D01*
X115983095Y-72715476D01*
X116030714Y-72810714D01*
X116078333Y-73001190D01*
X116078333Y-73144047D01*
X116030714Y-73334523D01*
X115983095Y-73429761D01*
X115887857Y-73525000D01*
X115745000Y-73572619D01*
X115649761Y-73572619D01*
X115506904Y-73525000D01*
X115459285Y-73477380D01*
X150074380Y-96758000D02*
X150074380Y-96567523D01*
X150122000Y-96472285D01*
X150217238Y-96377047D01*
X150407714Y-96329428D01*
X150741047Y-96329428D01*
X150931523Y-96377047D01*
X151026761Y-96472285D01*
X151074380Y-96567523D01*
X151074380Y-96758000D01*
X151026761Y-96853238D01*
X150931523Y-96948476D01*
X150741047Y-96996095D01*
X150407714Y-96996095D01*
X150217238Y-96948476D01*
X150122000Y-96853238D01*
X150074380Y-96758000D01*
X150074380Y-95900857D02*
X150883904Y-95900857D01*
X150979142Y-95853238D01*
X151026761Y-95805619D01*
X151074380Y-95710380D01*
X151074380Y-95519904D01*
X151026761Y-95424666D01*
X150979142Y-95377047D01*
X150883904Y-95329428D01*
X150074380Y-95329428D01*
X150074380Y-94996095D02*
X150074380Y-94424666D01*
X151074380Y-94710380D02*
X150074380Y-94710380D01*
X150074380Y-123174000D02*
X150074380Y-122983523D01*
X150122000Y-122888285D01*
X150217238Y-122793047D01*
X150407714Y-122745428D01*
X150741047Y-122745428D01*
X150931523Y-122793047D01*
X151026761Y-122888285D01*
X151074380Y-122983523D01*
X151074380Y-123174000D01*
X151026761Y-123269238D01*
X150931523Y-123364476D01*
X150741047Y-123412095D01*
X150407714Y-123412095D01*
X150217238Y-123364476D01*
X150122000Y-123269238D01*
X150074380Y-123174000D01*
X150074380Y-122316857D02*
X150883904Y-122316857D01*
X150979142Y-122269238D01*
X151026761Y-122221619D01*
X151074380Y-122126380D01*
X151074380Y-121935904D01*
X151026761Y-121840666D01*
X150979142Y-121793047D01*
X150883904Y-121745428D01*
X150074380Y-121745428D01*
X150074380Y-121412095D02*
X150074380Y-120840666D01*
X151074380Y-121126380D02*
X150074380Y-121126380D01*
X150122000Y-128523904D02*
X150074380Y-128619142D01*
X150074380Y-128762000D01*
X150122000Y-128904857D01*
X150217238Y-129000095D01*
X150312476Y-129047714D01*
X150502952Y-129095333D01*
X150645809Y-129095333D01*
X150836285Y-129047714D01*
X150931523Y-129000095D01*
X151026761Y-128904857D01*
X151074380Y-128762000D01*
X151074380Y-128666761D01*
X151026761Y-128523904D01*
X150979142Y-128476285D01*
X150645809Y-128476285D01*
X150645809Y-128666761D01*
X151074380Y-128047714D02*
X150074380Y-128047714D01*
X151074380Y-127476285D01*
X150074380Y-127476285D01*
X151074380Y-127000095D02*
X150074380Y-127000095D01*
X150074380Y-126762000D01*
X150122000Y-126619142D01*
X150217238Y-126523904D01*
X150312476Y-126476285D01*
X150502952Y-126428666D01*
X150645809Y-126428666D01*
X150836285Y-126476285D01*
X150931523Y-126523904D01*
X151026761Y-126619142D01*
X151074380Y-126762000D01*
X151074380Y-127000095D01*
X150122000Y-90677904D02*
X150074380Y-90773142D01*
X150074380Y-90916000D01*
X150122000Y-91058857D01*
X150217238Y-91154095D01*
X150312476Y-91201714D01*
X150502952Y-91249333D01*
X150645809Y-91249333D01*
X150836285Y-91201714D01*
X150931523Y-91154095D01*
X151026761Y-91058857D01*
X151074380Y-90916000D01*
X151074380Y-90820761D01*
X151026761Y-90677904D01*
X150979142Y-90630285D01*
X150645809Y-90630285D01*
X150645809Y-90820761D01*
X151074380Y-90201714D02*
X150074380Y-90201714D01*
X151074380Y-89630285D01*
X150074380Y-89630285D01*
X151074380Y-89154095D02*
X150074380Y-89154095D01*
X150074380Y-88916000D01*
X150122000Y-88773142D01*
X150217238Y-88677904D01*
X150312476Y-88630285D01*
X150502952Y-88582666D01*
X150645809Y-88582666D01*
X150836285Y-88630285D01*
X150931523Y-88677904D01*
X151026761Y-88773142D01*
X151074380Y-88916000D01*
X151074380Y-89154095D01*
X41775000Y-101473095D02*
X41822619Y-101377857D01*
X41822619Y-101235000D01*
X41775000Y-101092142D01*
X41679761Y-100996904D01*
X41584523Y-100949285D01*
X41394047Y-100901666D01*
X41251190Y-100901666D01*
X41060714Y-100949285D01*
X40965476Y-100996904D01*
X40870238Y-101092142D01*
X40822619Y-101235000D01*
X40822619Y-101330238D01*
X40870238Y-101473095D01*
X40917857Y-101520714D01*
X41251190Y-101520714D01*
X41251190Y-101330238D01*
X40822619Y-101949285D02*
X41822619Y-101949285D01*
X40822619Y-102520714D01*
X41822619Y-102520714D01*
X40822619Y-102996904D02*
X41822619Y-102996904D01*
X41822619Y-103235000D01*
X41775000Y-103377857D01*
X41679761Y-103473095D01*
X41584523Y-103520714D01*
X41394047Y-103568333D01*
X41251190Y-103568333D01*
X41060714Y-103520714D01*
X40965476Y-103473095D01*
X40870238Y-103377857D01*
X40822619Y-103235000D01*
X40822619Y-102996904D01*
X41775000Y-122428095D02*
X41822619Y-122332857D01*
X41822619Y-122190000D01*
X41775000Y-122047142D01*
X41679761Y-121951904D01*
X41584523Y-121904285D01*
X41394047Y-121856666D01*
X41251190Y-121856666D01*
X41060714Y-121904285D01*
X40965476Y-121951904D01*
X40870238Y-122047142D01*
X40822619Y-122190000D01*
X40822619Y-122285238D01*
X40870238Y-122428095D01*
X40917857Y-122475714D01*
X41251190Y-122475714D01*
X41251190Y-122285238D01*
X40822619Y-122904285D02*
X41822619Y-122904285D01*
X40822619Y-123475714D01*
X41822619Y-123475714D01*
X40822619Y-123951904D02*
X41822619Y-123951904D01*
X41822619Y-124190000D01*
X41775000Y-124332857D01*
X41679761Y-124428095D01*
X41584523Y-124475714D01*
X41394047Y-124523333D01*
X41251190Y-124523333D01*
X41060714Y-124475714D01*
X40965476Y-124428095D01*
X40870238Y-124332857D01*
X40822619Y-124190000D01*
X40822619Y-123951904D01*
X40822619Y-132191190D02*
X41822619Y-132191190D01*
X40822619Y-132667380D02*
X41822619Y-132667380D01*
X40822619Y-133238809D01*
X41822619Y-133238809D01*
X40822619Y-92821190D02*
X41822619Y-92821190D01*
X40822619Y-93297380D02*
X41822619Y-93297380D01*
X40822619Y-93868809D01*
X41822619Y-93868809D01*
X52785380Y-73780571D02*
X53118714Y-73780571D01*
X53261571Y-74304380D02*
X52785380Y-74304380D01*
X52785380Y-73304380D01*
X53261571Y-73304380D01*
X54261571Y-74209142D02*
X54213952Y-74256761D01*
X54071095Y-74304380D01*
X53975857Y-74304380D01*
X53833000Y-74256761D01*
X53737761Y-74161523D01*
X53690142Y-74066285D01*
X53642523Y-73875809D01*
X53642523Y-73732952D01*
X53690142Y-73542476D01*
X53737761Y-73447238D01*
X53833000Y-73352000D01*
X53975857Y-73304380D01*
X54071095Y-73304380D01*
X54213952Y-73352000D01*
X54261571Y-73399619D01*
X55261571Y-74209142D02*
X55213952Y-74256761D01*
X55071095Y-74304380D01*
X54975857Y-74304380D01*
X54833000Y-74256761D01*
X54737761Y-74161523D01*
X54690142Y-74066285D01*
X54642523Y-73875809D01*
X54642523Y-73732952D01*
X54690142Y-73542476D01*
X54737761Y-73447238D01*
X54833000Y-73352000D01*
X54975857Y-73304380D01*
X55071095Y-73304380D01*
X55213952Y-73352000D01*
X55261571Y-73399619D01*
X55833000Y-73732952D02*
X55737761Y-73685333D01*
X55690142Y-73637714D01*
X55642523Y-73542476D01*
X55642523Y-73494857D01*
X55690142Y-73399619D01*
X55737761Y-73352000D01*
X55833000Y-73304380D01*
X56023476Y-73304380D01*
X56118714Y-73352000D01*
X56166333Y-73399619D01*
X56213952Y-73494857D01*
X56213952Y-73542476D01*
X56166333Y-73637714D01*
X56118714Y-73685333D01*
X56023476Y-73732952D01*
X55833000Y-73732952D01*
X55737761Y-73780571D01*
X55690142Y-73828190D01*
X55642523Y-73923428D01*
X55642523Y-74113904D01*
X55690142Y-74209142D01*
X55737761Y-74256761D01*
X55833000Y-74304380D01*
X56023476Y-74304380D01*
X56118714Y-74256761D01*
X56166333Y-74209142D01*
X56213952Y-74113904D01*
X56213952Y-73923428D01*
X56166333Y-73828190D01*
X56118714Y-73780571D01*
X56023476Y-73732952D01*
X56785380Y-73732952D02*
X56690142Y-73685333D01*
X56642523Y-73637714D01*
X56594904Y-73542476D01*
X56594904Y-73494857D01*
X56642523Y-73399619D01*
X56690142Y-73352000D01*
X56785380Y-73304380D01*
X56975857Y-73304380D01*
X57071095Y-73352000D01*
X57118714Y-73399619D01*
X57166333Y-73494857D01*
X57166333Y-73542476D01*
X57118714Y-73637714D01*
X57071095Y-73685333D01*
X56975857Y-73732952D01*
X56785380Y-73732952D01*
X56690142Y-73780571D01*
X56642523Y-73828190D01*
X56594904Y-73923428D01*
X56594904Y-74113904D01*
X56642523Y-74209142D01*
X56690142Y-74256761D01*
X56785380Y-74304380D01*
X56975857Y-74304380D01*
X57071095Y-74256761D01*
X57118714Y-74209142D01*
X57166333Y-74113904D01*
X57166333Y-73923428D01*
X57118714Y-73828190D01*
X57071095Y-73780571D01*
X56975857Y-73732952D01*
X58213952Y-73304380D02*
X58785380Y-73304380D01*
X58499666Y-74304380D02*
X58499666Y-73304380D01*
X59547285Y-73637714D02*
X59547285Y-74304380D01*
X59118714Y-73637714D02*
X59118714Y-74161523D01*
X59166333Y-74256761D01*
X59261571Y-74304380D01*
X59404428Y-74304380D01*
X59499666Y-74256761D01*
X59547285Y-74209142D01*
X60023476Y-74304380D02*
X60023476Y-73304380D01*
X60023476Y-73685333D02*
X60118714Y-73637714D01*
X60309190Y-73637714D01*
X60404428Y-73685333D01*
X60452047Y-73732952D01*
X60499666Y-73828190D01*
X60499666Y-74113904D01*
X60452047Y-74209142D01*
X60404428Y-74256761D01*
X60309190Y-74304380D01*
X60118714Y-74304380D01*
X60023476Y-74256761D01*
X61309190Y-74256761D02*
X61213952Y-74304380D01*
X61023476Y-74304380D01*
X60928238Y-74256761D01*
X60880619Y-74161523D01*
X60880619Y-73780571D01*
X60928238Y-73685333D01*
X61023476Y-73637714D01*
X61213952Y-73637714D01*
X61309190Y-73685333D01*
X61356809Y-73780571D01*
X61356809Y-73875809D01*
X60880619Y-73971047D01*
X62547285Y-74304380D02*
X62547285Y-73304380D01*
X62928238Y-73304380D01*
X63023476Y-73352000D01*
X63071095Y-73399619D01*
X63118714Y-73494857D01*
X63118714Y-73637714D01*
X63071095Y-73732952D01*
X63023476Y-73780571D01*
X62928238Y-73828190D01*
X62547285Y-73828190D01*
X63547285Y-74304380D02*
X63547285Y-73637714D01*
X63547285Y-73828190D02*
X63594904Y-73732952D01*
X63642523Y-73685333D01*
X63737761Y-73637714D01*
X63833000Y-73637714D01*
X64547285Y-74256761D02*
X64452047Y-74304380D01*
X64261571Y-74304380D01*
X64166333Y-74256761D01*
X64118714Y-74161523D01*
X64118714Y-73780571D01*
X64166333Y-73685333D01*
X64261571Y-73637714D01*
X64452047Y-73637714D01*
X64547285Y-73685333D01*
X64594904Y-73780571D01*
X64594904Y-73875809D01*
X64118714Y-73971047D01*
X65023476Y-73923428D02*
X65785380Y-73923428D01*
X66213952Y-74018666D02*
X66690142Y-74018666D01*
X66118714Y-74304380D02*
X66452047Y-73304380D01*
X66785380Y-74304380D01*
X67118714Y-74304380D02*
X67118714Y-73637714D01*
X67118714Y-73732952D02*
X67166333Y-73685333D01*
X67261571Y-73637714D01*
X67404428Y-73637714D01*
X67499666Y-73685333D01*
X67547285Y-73780571D01*
X67547285Y-74304380D01*
X67547285Y-73780571D02*
X67594904Y-73685333D01*
X67690142Y-73637714D01*
X67833000Y-73637714D01*
X67928238Y-73685333D01*
X67975857Y-73780571D01*
X67975857Y-74304380D01*
X68452047Y-73637714D02*
X68452047Y-74637714D01*
X68452047Y-73685333D02*
X68547285Y-73637714D01*
X68737761Y-73637714D01*
X68833000Y-73685333D01*
X68880619Y-73732952D01*
X68928238Y-73828190D01*
X68928238Y-74113904D01*
X68880619Y-74209142D01*
X68833000Y-74256761D01*
X68737761Y-74304380D01*
X68547285Y-74304380D01*
X68452047Y-74256761D01*
X60023476Y-74954380D02*
X60356809Y-75954380D01*
X60690142Y-74954380D01*
X61452047Y-75287714D02*
X61452047Y-75954380D01*
X61213952Y-74906761D02*
X60975857Y-75621047D01*
X61594904Y-75621047D01*
X55213952Y-77604380D02*
X55213952Y-76604380D01*
X55547285Y-77318666D01*
X55880619Y-76604380D01*
X55880619Y-77604380D01*
X56356809Y-77604380D02*
X56356809Y-76937714D01*
X56356809Y-76604380D02*
X56309190Y-76652000D01*
X56356809Y-76699619D01*
X56404428Y-76652000D01*
X56356809Y-76604380D01*
X56356809Y-76699619D01*
X57261571Y-77556761D02*
X57166333Y-77604380D01*
X56975857Y-77604380D01*
X56880619Y-77556761D01*
X56833000Y-77509142D01*
X56785380Y-77413904D01*
X56785380Y-77128190D01*
X56833000Y-77032952D01*
X56880619Y-76985333D01*
X56975857Y-76937714D01*
X57166333Y-76937714D01*
X57261571Y-76985333D01*
X57690142Y-77604380D02*
X57690142Y-76604380D01*
X58118714Y-77604380D02*
X58118714Y-77080571D01*
X58071095Y-76985333D01*
X57975857Y-76937714D01*
X57833000Y-76937714D01*
X57737761Y-76985333D01*
X57690142Y-77032952D01*
X59023476Y-77604380D02*
X59023476Y-77080571D01*
X58975857Y-76985333D01*
X58880619Y-76937714D01*
X58690142Y-76937714D01*
X58594904Y-76985333D01*
X59023476Y-77556761D02*
X58928238Y-77604380D01*
X58690142Y-77604380D01*
X58594904Y-77556761D01*
X58547285Y-77461523D01*
X58547285Y-77366285D01*
X58594904Y-77271047D01*
X58690142Y-77223428D01*
X58928238Y-77223428D01*
X59023476Y-77175809D01*
X59880619Y-77556761D02*
X59785380Y-77604380D01*
X59594904Y-77604380D01*
X59499666Y-77556761D01*
X59452047Y-77461523D01*
X59452047Y-77080571D01*
X59499666Y-76985333D01*
X59594904Y-76937714D01*
X59785380Y-76937714D01*
X59880619Y-76985333D01*
X59928238Y-77080571D01*
X59928238Y-77175809D01*
X59452047Y-77271047D01*
X60499666Y-77604380D02*
X60404428Y-77556761D01*
X60356809Y-77461523D01*
X60356809Y-76604380D01*
X61594904Y-77556761D02*
X61737761Y-77604380D01*
X61975857Y-77604380D01*
X62071095Y-77556761D01*
X62118714Y-77509142D01*
X62166333Y-77413904D01*
X62166333Y-77318666D01*
X62118714Y-77223428D01*
X62071095Y-77175809D01*
X61975857Y-77128190D01*
X61785380Y-77080571D01*
X61690142Y-77032952D01*
X61642523Y-76985333D01*
X61594904Y-76890095D01*
X61594904Y-76794857D01*
X61642523Y-76699619D01*
X61690142Y-76652000D01*
X61785380Y-76604380D01*
X62023476Y-76604380D01*
X62166333Y-76652000D01*
X63023476Y-77556761D02*
X62928238Y-77604380D01*
X62737761Y-77604380D01*
X62642523Y-77556761D01*
X62594904Y-77509142D01*
X62547285Y-77413904D01*
X62547285Y-77128190D01*
X62594904Y-77032952D01*
X62642523Y-76985333D01*
X62737761Y-76937714D01*
X62928238Y-76937714D01*
X63023476Y-76985333D01*
X63452047Y-77604380D02*
X63452047Y-76604380D01*
X63880619Y-77604380D02*
X63880619Y-77080571D01*
X63833000Y-76985333D01*
X63737761Y-76937714D01*
X63594904Y-76937714D01*
X63499666Y-76985333D01*
X63452047Y-77032952D01*
X64737761Y-77556761D02*
X64642523Y-77604380D01*
X64452047Y-77604380D01*
X64356809Y-77556761D01*
X64309190Y-77461523D01*
X64309190Y-77080571D01*
X64356809Y-76985333D01*
X64452047Y-76937714D01*
X64642523Y-76937714D01*
X64737761Y-76985333D01*
X64785380Y-77080571D01*
X64785380Y-77175809D01*
X64309190Y-77271047D01*
X65213952Y-76937714D02*
X65213952Y-77604380D01*
X65213952Y-77032952D02*
X65261571Y-76985333D01*
X65356809Y-76937714D01*
X65499666Y-76937714D01*
X65594904Y-76985333D01*
X65642523Y-77080571D01*
X65642523Y-77604380D01*
X66118714Y-77604380D02*
X66118714Y-76604380D01*
X66213952Y-77223428D02*
X66499666Y-77604380D01*
X66499666Y-76937714D02*
X66118714Y-77318666D01*
X56737761Y-78349619D02*
X56785380Y-78302000D01*
X56880619Y-78254380D01*
X57118714Y-78254380D01*
X57213952Y-78302000D01*
X57261571Y-78349619D01*
X57309190Y-78444857D01*
X57309190Y-78540095D01*
X57261571Y-78682952D01*
X56690142Y-79254380D01*
X57309190Y-79254380D01*
X57928238Y-78254380D02*
X58023476Y-78254380D01*
X58118714Y-78302000D01*
X58166333Y-78349619D01*
X58213952Y-78444857D01*
X58261571Y-78635333D01*
X58261571Y-78873428D01*
X58213952Y-79063904D01*
X58166333Y-79159142D01*
X58118714Y-79206761D01*
X58023476Y-79254380D01*
X57928238Y-79254380D01*
X57833000Y-79206761D01*
X57785380Y-79159142D01*
X57737761Y-79063904D01*
X57690142Y-78873428D01*
X57690142Y-78635333D01*
X57737761Y-78444857D01*
X57785380Y-78349619D01*
X57833000Y-78302000D01*
X57928238Y-78254380D01*
X58642523Y-78349619D02*
X58690142Y-78302000D01*
X58785380Y-78254380D01*
X59023476Y-78254380D01*
X59118714Y-78302000D01*
X59166333Y-78349619D01*
X59213952Y-78444857D01*
X59213952Y-78540095D01*
X59166333Y-78682952D01*
X58594904Y-79254380D01*
X59213952Y-79254380D01*
X60166333Y-79254380D02*
X59594904Y-79254380D01*
X59880619Y-79254380D02*
X59880619Y-78254380D01*
X59785380Y-78397238D01*
X59690142Y-78492476D01*
X59594904Y-78540095D01*
X60594904Y-79159142D02*
X60642523Y-79206761D01*
X60594904Y-79254380D01*
X60547285Y-79206761D01*
X60594904Y-79159142D01*
X60594904Y-79254380D01*
X61261571Y-78254380D02*
X61356809Y-78254380D01*
X61452047Y-78302000D01*
X61499666Y-78349619D01*
X61547285Y-78444857D01*
X61594904Y-78635333D01*
X61594904Y-78873428D01*
X61547285Y-79063904D01*
X61499666Y-79159142D01*
X61452047Y-79206761D01*
X61356809Y-79254380D01*
X61261571Y-79254380D01*
X61166333Y-79206761D01*
X61118714Y-79159142D01*
X61071095Y-79063904D01*
X61023476Y-78873428D01*
X61023476Y-78635333D01*
X61071095Y-78444857D01*
X61118714Y-78349619D01*
X61166333Y-78302000D01*
X61261571Y-78254380D01*
X62452047Y-78587714D02*
X62452047Y-79254380D01*
X62213952Y-78206761D02*
X61975857Y-78921047D01*
X62594904Y-78921047D01*
X62975857Y-79159142D02*
X63023476Y-79206761D01*
X62975857Y-79254380D01*
X62928238Y-79206761D01*
X62975857Y-79159142D01*
X62975857Y-79254380D01*
X63975857Y-79254380D02*
X63404428Y-79254380D01*
X63690142Y-79254380D02*
X63690142Y-78254380D01*
X63594904Y-78397238D01*
X63499666Y-78492476D01*
X63404428Y-78540095D01*
X64452047Y-79254380D02*
X64642523Y-79254380D01*
X64737761Y-79206761D01*
X64785380Y-79159142D01*
X64880619Y-79016285D01*
X64928238Y-78825809D01*
X64928238Y-78444857D01*
X64880619Y-78349619D01*
X64833000Y-78302000D01*
X64737761Y-78254380D01*
X64547285Y-78254380D01*
X64452047Y-78302000D01*
X64404428Y-78349619D01*
X64356809Y-78444857D01*
X64356809Y-78682952D01*
X64404428Y-78778190D01*
X64452047Y-78825809D01*
X64547285Y-78873428D01*
X64737761Y-78873428D01*
X64833000Y-78825809D01*
X64880619Y-78778190D01*
X64928238Y-78682952D01*
X74248714Y-161234380D02*
X74248714Y-160567714D01*
X74248714Y-160662952D02*
X74296333Y-160615333D01*
X74391571Y-160567714D01*
X74534428Y-160567714D01*
X74629666Y-160615333D01*
X74677285Y-160710571D01*
X74677285Y-161234380D01*
X74677285Y-160710571D02*
X74724904Y-160615333D01*
X74820142Y-160567714D01*
X74963000Y-160567714D01*
X75058238Y-160615333D01*
X75105857Y-160710571D01*
X75105857Y-161234380D01*
X75582047Y-161234380D02*
X75582047Y-160567714D01*
X75582047Y-160234380D02*
X75534428Y-160282000D01*
X75582047Y-160329619D01*
X75629666Y-160282000D01*
X75582047Y-160234380D01*
X75582047Y-160329619D01*
X76486809Y-161186761D02*
X76391571Y-161234380D01*
X76201095Y-161234380D01*
X76105857Y-161186761D01*
X76058238Y-161139142D01*
X76010619Y-161043904D01*
X76010619Y-160758190D01*
X76058238Y-160662952D01*
X76105857Y-160615333D01*
X76201095Y-160567714D01*
X76391571Y-160567714D01*
X76486809Y-160615333D01*
X76915380Y-161234380D02*
X76915380Y-160234380D01*
X77343952Y-161234380D02*
X77343952Y-160710571D01*
X77296333Y-160615333D01*
X77201095Y-160567714D01*
X77058238Y-160567714D01*
X76963000Y-160615333D01*
X76915380Y-160662952D01*
X78248714Y-161234380D02*
X78248714Y-160710571D01*
X78201095Y-160615333D01*
X78105857Y-160567714D01*
X77915380Y-160567714D01*
X77820142Y-160615333D01*
X78248714Y-161186761D02*
X78153476Y-161234380D01*
X77915380Y-161234380D01*
X77820142Y-161186761D01*
X77772523Y-161091523D01*
X77772523Y-160996285D01*
X77820142Y-160901047D01*
X77915380Y-160853428D01*
X78153476Y-160853428D01*
X78248714Y-160805809D01*
X79105857Y-161186761D02*
X79010619Y-161234380D01*
X78820142Y-161234380D01*
X78724904Y-161186761D01*
X78677285Y-161091523D01*
X78677285Y-160710571D01*
X78724904Y-160615333D01*
X78820142Y-160567714D01*
X79010619Y-160567714D01*
X79105857Y-160615333D01*
X79153476Y-160710571D01*
X79153476Y-160805809D01*
X78677285Y-160901047D01*
X79724904Y-161234380D02*
X79629666Y-161186761D01*
X79582047Y-161091523D01*
X79582047Y-160234380D01*
X80058238Y-161186761D02*
X80153476Y-161234380D01*
X80343952Y-161234380D01*
X80439190Y-161186761D01*
X80486809Y-161091523D01*
X80486809Y-161043904D01*
X80439190Y-160948666D01*
X80343952Y-160901047D01*
X80201095Y-160901047D01*
X80105857Y-160853428D01*
X80058238Y-160758190D01*
X80058238Y-160710571D01*
X80105857Y-160615333D01*
X80201095Y-160567714D01*
X80343952Y-160567714D01*
X80439190Y-160615333D01*
X81343952Y-161186761D02*
X81248714Y-161234380D01*
X81058238Y-161234380D01*
X80963000Y-161186761D01*
X80915380Y-161139142D01*
X80867761Y-161043904D01*
X80867761Y-160758190D01*
X80915380Y-160662952D01*
X80963000Y-160615333D01*
X81058238Y-160567714D01*
X81248714Y-160567714D01*
X81343952Y-160615333D01*
X81772523Y-161234380D02*
X81772523Y-160234380D01*
X82201095Y-161234380D02*
X82201095Y-160710571D01*
X82153476Y-160615333D01*
X82058238Y-160567714D01*
X81915380Y-160567714D01*
X81820142Y-160615333D01*
X81772523Y-160662952D01*
X83058238Y-161186761D02*
X82963000Y-161234380D01*
X82772523Y-161234380D01*
X82677285Y-161186761D01*
X82629666Y-161091523D01*
X82629666Y-160710571D01*
X82677285Y-160615333D01*
X82772523Y-160567714D01*
X82963000Y-160567714D01*
X83058238Y-160615333D01*
X83105857Y-160710571D01*
X83105857Y-160805809D01*
X82629666Y-160901047D01*
X83534428Y-160567714D02*
X83534428Y-161234380D01*
X83534428Y-160662952D02*
X83582047Y-160615333D01*
X83677285Y-160567714D01*
X83820142Y-160567714D01*
X83915380Y-160615333D01*
X83963000Y-160710571D01*
X83963000Y-161234380D01*
X84439190Y-161234380D02*
X84439190Y-160234380D01*
X84534428Y-160853428D02*
X84820142Y-161234380D01*
X84820142Y-160567714D02*
X84439190Y-160948666D01*
X85153476Y-160234380D02*
X85820142Y-160234380D01*
X85391571Y-161234380D01*
X86153476Y-160329619D02*
X86201095Y-160282000D01*
X86296333Y-160234380D01*
X86534428Y-160234380D01*
X86629666Y-160282000D01*
X86677285Y-160329619D01*
X86724904Y-160424857D01*
X86724904Y-160520095D01*
X86677285Y-160662952D01*
X86105857Y-161234380D01*
X86724904Y-161234380D01*
X87772523Y-160758190D02*
X87724904Y-160710571D01*
X87629666Y-160662952D01*
X87534428Y-160662952D01*
X87439190Y-160710571D01*
X87391571Y-160758190D01*
X87343952Y-160853428D01*
X87343952Y-160948666D01*
X87391571Y-161043904D01*
X87439190Y-161091523D01*
X87534428Y-161139142D01*
X87629666Y-161139142D01*
X87724904Y-161091523D01*
X87772523Y-161043904D01*
X87772523Y-160662952D02*
X87772523Y-161043904D01*
X87820142Y-161091523D01*
X87867761Y-161091523D01*
X87963000Y-161043904D01*
X88010619Y-160948666D01*
X88010619Y-160710571D01*
X87915380Y-160567714D01*
X87772523Y-160472476D01*
X87582047Y-160424857D01*
X87391571Y-160472476D01*
X87248714Y-160567714D01*
X87153476Y-160710571D01*
X87105857Y-160901047D01*
X87153476Y-161091523D01*
X87248714Y-161234380D01*
X87391571Y-161329619D01*
X87582047Y-161377238D01*
X87772523Y-161329619D01*
X87915380Y-161234380D01*
X88867761Y-160567714D02*
X88867761Y-161377238D01*
X88820142Y-161472476D01*
X88772523Y-161520095D01*
X88677285Y-161567714D01*
X88534428Y-161567714D01*
X88439190Y-161520095D01*
X88867761Y-161186761D02*
X88772523Y-161234380D01*
X88582047Y-161234380D01*
X88486809Y-161186761D01*
X88439190Y-161139142D01*
X88391571Y-161043904D01*
X88391571Y-160758190D01*
X88439190Y-160662952D01*
X88486809Y-160615333D01*
X88582047Y-160567714D01*
X88772523Y-160567714D01*
X88867761Y-160615333D01*
X89343952Y-161234380D02*
X89343952Y-160567714D01*
X89343952Y-160662952D02*
X89391571Y-160615333D01*
X89486809Y-160567714D01*
X89629666Y-160567714D01*
X89724904Y-160615333D01*
X89772523Y-160710571D01*
X89772523Y-161234380D01*
X89772523Y-160710571D02*
X89820142Y-160615333D01*
X89915380Y-160567714D01*
X90058238Y-160567714D01*
X90153476Y-160615333D01*
X90201095Y-160710571D01*
X90201095Y-161234380D01*
X91105857Y-161234380D02*
X91105857Y-160710571D01*
X91058238Y-160615333D01*
X90963000Y-160567714D01*
X90772523Y-160567714D01*
X90677285Y-160615333D01*
X91105857Y-161186761D02*
X91010619Y-161234380D01*
X90772523Y-161234380D01*
X90677285Y-161186761D01*
X90629666Y-161091523D01*
X90629666Y-160996285D01*
X90677285Y-160901047D01*
X90772523Y-160853428D01*
X91010619Y-160853428D01*
X91105857Y-160805809D01*
X91582047Y-161234380D02*
X91582047Y-160567714D01*
X91582047Y-160234380D02*
X91534428Y-160282000D01*
X91582047Y-160329619D01*
X91629666Y-160282000D01*
X91582047Y-160234380D01*
X91582047Y-160329619D01*
X92201095Y-161234380D02*
X92105857Y-161186761D01*
X92058238Y-161091523D01*
X92058238Y-160234380D01*
X92582047Y-161139142D02*
X92629666Y-161186761D01*
X92582047Y-161234380D01*
X92534428Y-161186761D01*
X92582047Y-161139142D01*
X92582047Y-161234380D01*
X93486809Y-161186761D02*
X93391571Y-161234380D01*
X93201095Y-161234380D01*
X93105857Y-161186761D01*
X93058238Y-161139142D01*
X93010619Y-161043904D01*
X93010619Y-160758190D01*
X93058238Y-160662952D01*
X93105857Y-160615333D01*
X93201095Y-160567714D01*
X93391571Y-160567714D01*
X93486809Y-160615333D01*
X94058238Y-161234380D02*
X93963000Y-161186761D01*
X93915380Y-161139142D01*
X93867761Y-161043904D01*
X93867761Y-160758190D01*
X93915380Y-160662952D01*
X93963000Y-160615333D01*
X94058238Y-160567714D01*
X94201095Y-160567714D01*
X94296333Y-160615333D01*
X94343952Y-160662952D01*
X94391571Y-160758190D01*
X94391571Y-161043904D01*
X94343952Y-161139142D01*
X94296333Y-161186761D01*
X94201095Y-161234380D01*
X94058238Y-161234380D01*
X94820142Y-161234380D02*
X94820142Y-160567714D01*
X94820142Y-160662952D02*
X94867761Y-160615333D01*
X94963000Y-160567714D01*
X95105857Y-160567714D01*
X95201095Y-160615333D01*
X95248714Y-160710571D01*
X95248714Y-161234380D01*
X95248714Y-160710571D02*
X95296333Y-160615333D01*
X95391571Y-160567714D01*
X95534428Y-160567714D01*
X95629666Y-160615333D01*
X95677285Y-160710571D01*
X95677285Y-161234380D01*
D11*
X143135500Y-125750000D02*
X143135500Y-123350000D01*
X145535500Y-125750000D02*
X145535500Y-123350000D01*
X145535500Y-92118500D02*
X145535500Y-94518500D01*
X143135500Y-92118500D02*
X143135500Y-94518500D01*
X146854000Y-105468000D02*
X146854000Y-104868000D01*
X148354000Y-105468000D02*
X148354000Y-104868000D01*
X148854000Y-105468000D02*
X148354000Y-105468000D01*
X145454000Y-105468000D02*
X146854000Y-105468000D01*
X142964000Y-105428000D02*
X143764000Y-105428000D01*
X140764000Y-105428000D02*
X141364000Y-105428000D01*
X138664000Y-105428000D02*
X139164000Y-105428000D01*
X138664000Y-112128000D02*
X138664000Y-105428000D01*
X139164000Y-112128000D02*
X138664000Y-112128000D01*
X141364000Y-112128000D02*
X140764000Y-112128000D01*
X143764000Y-112128000D02*
X142964000Y-112128000D01*
X146764000Y-112128000D02*
X145364000Y-112128000D01*
X148864000Y-112128000D02*
X148364000Y-112128000D01*
X148854000Y-105468000D02*
X148864000Y-112128000D01*
X137222000Y-156865000D02*
X139172000Y-156865000D01*
X137222000Y-156865000D02*
X135272000Y-156865000D01*
X137222000Y-151745000D02*
X139172000Y-151745000D01*
X137222000Y-151745000D02*
X133772000Y-151745000D01*
X140885936Y-147728000D02*
X141340064Y-147728000D01*
X140885936Y-149198000D02*
X141340064Y-149198000D01*
X138276000Y-149140936D02*
X138276000Y-149595064D01*
X136806000Y-149140936D02*
X136806000Y-149595064D01*
X132742000Y-149595064D02*
X132742000Y-149140936D01*
X134212000Y-149595064D02*
X134212000Y-149140936D01*
X154427000Y-112540000D02*
X153497000Y-112540000D01*
X151267000Y-112540000D02*
X152197000Y-112540000D01*
X151267000Y-112540000D02*
X151267000Y-114700000D01*
X154427000Y-112540000D02*
X154427000Y-114000000D01*
X152130000Y-106462000D02*
X150130000Y-106462000D01*
X150130000Y-106462000D02*
X150130000Y-110362000D01*
X152130000Y-106462000D02*
X152130000Y-110362000D01*
X129683000Y-151602000D02*
X131683000Y-151602000D01*
X131683000Y-151602000D02*
X131683000Y-147702000D01*
X129683000Y-151602000D02*
X129683000Y-147702000D01*
X141378000Y-154163752D02*
X141378000Y-153641248D01*
X142848000Y-154163752D02*
X142848000Y-153641248D01*
X140476248Y-157380000D02*
X140998752Y-157380000D01*
X140476248Y-158850000D02*
X140998752Y-158850000D01*
X128423000Y-153297000D02*
X128423000Y-161532000D01*
X128423000Y-161532000D02*
X132943000Y-161532000D01*
X132943000Y-161532000D02*
X132943000Y-153297000D01*
D12*
X91638120Y-98460560D02*
G75*
G03*
X91638120Y-98460560I-1498600J0D01*
G01*
X89461340Y-101483160D02*
G75*
G03*
X89461340Y-101483160I-1498600J0D01*
G01*
X85940900Y-102582980D02*
G75*
G03*
X85940900Y-102582980I-1498600J0D01*
G01*
X82410300Y-101457760D02*
G75*
G03*
X82410300Y-101457760I-1498600J0D01*
G01*
X80238600Y-98458020D02*
G75*
G03*
X80238600Y-98458020I-1498600J0D01*
G01*
X80236060Y-94759780D02*
G75*
G03*
X80236060Y-94759780I-1498600J0D01*
G01*
X82412840Y-91757500D02*
G75*
G03*
X82412840Y-91757500I-1498600J0D01*
G01*
X89461340Y-91757500D02*
G75*
G03*
X89461340Y-91757500I-1498600J0D01*
G01*
X91638120Y-94759780D02*
G75*
G03*
X91638120Y-94759780I-1498600J0D01*
G01*
X89938860Y-86509860D02*
X89865200Y-86809580D01*
X85940900Y-85209380D02*
X85839300Y-85410040D01*
X78915260Y-106685080D02*
X78988920Y-106509820D01*
X82964020Y-108008420D02*
X83040220Y-107807760D01*
X86240620Y-96608900D02*
G75*
G03*
X86240620Y-96608900I-1800860J0D01*
G01*
X93436440Y-96608900D02*
G75*
G03*
X93436440Y-96608900I-8996680J0D01*
G01*
X83042760Y-107784900D02*
G75*
G03*
X81640680Y-105133140I-2026920J624840D01*
G01*
X81666080Y-105133140D02*
G75*
G03*
X78988920Y-106509820I-650240J-2026920D01*
G01*
X85836760Y-85410040D02*
G75*
G03*
X87215980Y-88084660I2026920J-647700D01*
G01*
X87188040Y-88084660D02*
G75*
G03*
X89890600Y-86733380I675640J2026920D01*
G01*
X94538800Y-102108000D02*
G75*
G03*
X89938860Y-86509860I-10099040J5499100D01*
G01*
X82964020Y-108008420D02*
G75*
G03*
X95839280Y-98084640I1475740J11399520D01*
G01*
X74363580Y-91059000D02*
G75*
G03*
X78889860Y-106685080I10076180J-5549900D01*
G01*
X85940900Y-85209380D02*
G75*
G03*
X73040240Y-95107760I-1501140J-11399520D01*
G01*
X91638120Y-137830560D02*
G75*
G03*
X91638120Y-137830560I-1498600J0D01*
G01*
X89461340Y-140853160D02*
G75*
G03*
X89461340Y-140853160I-1498600J0D01*
G01*
X85940900Y-141952980D02*
G75*
G03*
X85940900Y-141952980I-1498600J0D01*
G01*
X82410300Y-140827760D02*
G75*
G03*
X82410300Y-140827760I-1498600J0D01*
G01*
X80238600Y-137828020D02*
G75*
G03*
X80238600Y-137828020I-1498600J0D01*
G01*
X80236060Y-134129780D02*
G75*
G03*
X80236060Y-134129780I-1498600J0D01*
G01*
X82412840Y-131127500D02*
G75*
G03*
X82412840Y-131127500I-1498600J0D01*
G01*
X89461340Y-131127500D02*
G75*
G03*
X89461340Y-131127500I-1498600J0D01*
G01*
X91638120Y-134129780D02*
G75*
G03*
X91638120Y-134129780I-1498600J0D01*
G01*
X89938860Y-125879860D02*
X89865200Y-126179580D01*
X85940900Y-124579380D02*
X85839300Y-124780040D01*
X78915260Y-146055080D02*
X78988920Y-145879820D01*
X82964020Y-147378420D02*
X83040220Y-147177760D01*
X86240620Y-135978900D02*
G75*
G03*
X86240620Y-135978900I-1800860J0D01*
G01*
X93436440Y-135978900D02*
G75*
G03*
X93436440Y-135978900I-8996680J0D01*
G01*
X83042760Y-147154900D02*
G75*
G03*
X81640680Y-144503140I-2026920J624840D01*
G01*
X81666080Y-144503140D02*
G75*
G03*
X78988920Y-145879820I-650240J-2026920D01*
G01*
X85836760Y-124780040D02*
G75*
G03*
X87215980Y-127454660I2026920J-647700D01*
G01*
X87188040Y-127454660D02*
G75*
G03*
X89890600Y-126103380I675640J2026920D01*
G01*
X94538800Y-141478000D02*
G75*
G03*
X89938860Y-125879860I-10099040J5499100D01*
G01*
X82964020Y-147378420D02*
G75*
G03*
X95839280Y-137454640I1475740J11399520D01*
G01*
X74363580Y-130429000D02*
G75*
G03*
X78889860Y-146055080I10076180J-5549900D01*
G01*
X85940900Y-124579380D02*
G75*
G03*
X73040240Y-134477760I-1501140J-11399520D01*
G01*
D11*
X109346000Y-92842000D02*
X106046000Y-92842000D01*
X106046000Y-92842000D02*
X106046000Y-99742000D01*
X109346000Y-92842000D02*
X109346000Y-99742000D01*
X109346000Y-132292000D02*
X106046000Y-132292000D01*
X106046000Y-132292000D02*
X106046000Y-139192000D01*
X109346000Y-132292000D02*
X109346000Y-139192000D01*
X142015000Y-94520000D02*
X110275000Y-94520000D01*
X142015000Y-83280000D02*
X110275000Y-83280000D01*
X142015000Y-94520000D02*
X142015000Y-83280000D01*
X110275000Y-94520000D02*
X110275000Y-83280000D01*
X142015000Y-134525000D02*
X110275000Y-134525000D01*
X142015000Y-123285000D02*
X110275000Y-123285000D01*
X142015000Y-134525000D02*
X142015000Y-123285000D01*
X110275000Y-134525000D02*
X110275000Y-123285000D01*
X77799491Y-117115000D02*
X77799491Y-115515000D01*
X78599491Y-116315000D02*
X76999491Y-116315000D01*
X61829000Y-112525000D02*
X61829000Y-110995000D01*
X61869000Y-112858000D02*
X61869000Y-110662000D01*
X61909000Y-113111000D02*
X61909000Y-110409000D01*
X61949000Y-113324000D02*
X61949000Y-110196000D01*
X61989000Y-113512000D02*
X61989000Y-110008000D01*
X62029000Y-113680000D02*
X62029000Y-109840000D01*
X62069000Y-113834000D02*
X62069000Y-109686000D01*
X62109000Y-113978000D02*
X62109000Y-109542000D01*
X62149000Y-114111000D02*
X62149000Y-109409000D01*
X62189000Y-114238000D02*
X62189000Y-109282000D01*
X62229000Y-114357000D02*
X62229000Y-109163000D01*
X62269000Y-114471000D02*
X62269000Y-109049000D01*
X62309000Y-114580000D02*
X62309000Y-108940000D01*
X62349000Y-114684000D02*
X62349000Y-108836000D01*
X62389000Y-114784000D02*
X62389000Y-108736000D01*
X62429000Y-114880000D02*
X62429000Y-108640000D01*
X62469000Y-114973000D02*
X62469000Y-108547000D01*
X62509000Y-115063000D02*
X62509000Y-108457000D01*
X62549000Y-115150000D02*
X62549000Y-108370000D01*
X62589000Y-115235000D02*
X62589000Y-108285000D01*
X62629000Y-115317000D02*
X62629000Y-108203000D01*
X62669000Y-115397000D02*
X62669000Y-108123000D01*
X62709000Y-115475000D02*
X62709000Y-108045000D01*
X62749000Y-115550000D02*
X62749000Y-107970000D01*
X62789000Y-115624000D02*
X62789000Y-107896000D01*
X62829000Y-115696000D02*
X62829000Y-107824000D01*
X62869000Y-115767000D02*
X62869000Y-107753000D01*
X62909000Y-115836000D02*
X62909000Y-107684000D01*
X62949000Y-115903000D02*
X62949000Y-107617000D01*
X62989000Y-115969000D02*
X62989000Y-107551000D01*
X63029000Y-116033000D02*
X63029000Y-107487000D01*
X63069000Y-116096000D02*
X63069000Y-107424000D01*
X63109000Y-116158000D02*
X63109000Y-107362000D01*
X63149000Y-116219000D02*
X63149000Y-107301000D01*
X63189000Y-116279000D02*
X63189000Y-107241000D01*
X63229000Y-116337000D02*
X63229000Y-107183000D01*
X63269000Y-116394000D02*
X63269000Y-107126000D01*
X63309000Y-116451000D02*
X63309000Y-107069000D01*
X63349000Y-116506000D02*
X63349000Y-107014000D01*
X63389000Y-116560000D02*
X63389000Y-106960000D01*
X63429000Y-116614000D02*
X63429000Y-106906000D01*
X63469000Y-116666000D02*
X63469000Y-106854000D01*
X63509000Y-116718000D02*
X63509000Y-106802000D01*
X63549000Y-116769000D02*
X63549000Y-106751000D01*
X63589000Y-116819000D02*
X63589000Y-106701000D01*
X63629000Y-116868000D02*
X63629000Y-106652000D01*
X63669000Y-116916000D02*
X63669000Y-106604000D01*
X63709000Y-116964000D02*
X63709000Y-106556000D01*
X63749000Y-117011000D02*
X63749000Y-106509000D01*
X63789000Y-117057000D02*
X63789000Y-106463000D01*
X63829000Y-117103000D02*
X63829000Y-106417000D01*
X63869000Y-117148000D02*
X63869000Y-106372000D01*
X63909000Y-117192000D02*
X63909000Y-106328000D01*
X63949000Y-117235000D02*
X63949000Y-106285000D01*
X63989000Y-117278000D02*
X63989000Y-106242000D01*
X64029000Y-117320000D02*
X64029000Y-106200000D01*
X64069000Y-117362000D02*
X64069000Y-106158000D01*
X64109000Y-117403000D02*
X64109000Y-106117000D01*
X64149000Y-117444000D02*
X64149000Y-106076000D01*
X64189000Y-117484000D02*
X64189000Y-106036000D01*
X64229000Y-117523000D02*
X64229000Y-105997000D01*
X64269000Y-117562000D02*
X64269000Y-105958000D01*
X64309000Y-117600000D02*
X64309000Y-105920000D01*
X64349000Y-117638000D02*
X64349000Y-105882000D01*
X64389000Y-117676000D02*
X64389000Y-105844000D01*
X64429000Y-117712000D02*
X64429000Y-105808000D01*
X64469000Y-117749000D02*
X64469000Y-105771000D01*
X64509000Y-117785000D02*
X64509000Y-105735000D01*
X64549000Y-117820000D02*
X64549000Y-105700000D01*
X64589000Y-117855000D02*
X64589000Y-105665000D01*
X64629000Y-117889000D02*
X64629000Y-105631000D01*
X64669000Y-117923000D02*
X64669000Y-105597000D01*
X64709000Y-117957000D02*
X64709000Y-105563000D01*
X64749000Y-110320000D02*
X64749000Y-105530000D01*
X64749000Y-117990000D02*
X64749000Y-113200000D01*
X64789000Y-110320000D02*
X64789000Y-105497000D01*
X64789000Y-118023000D02*
X64789000Y-113200000D01*
X64829000Y-110320000D02*
X64829000Y-105465000D01*
X64829000Y-118055000D02*
X64829000Y-113200000D01*
X64869000Y-110320000D02*
X64869000Y-105433000D01*
X64869000Y-118087000D02*
X64869000Y-113200000D01*
X64909000Y-110320000D02*
X64909000Y-105402000D01*
X64909000Y-118118000D02*
X64909000Y-113200000D01*
X64949000Y-110320000D02*
X64949000Y-105370000D01*
X64949000Y-118150000D02*
X64949000Y-113200000D01*
X64989000Y-110320000D02*
X64989000Y-105340000D01*
X64989000Y-118180000D02*
X64989000Y-113200000D01*
X65029000Y-110320000D02*
X65029000Y-105310000D01*
X65029000Y-118210000D02*
X65029000Y-113200000D01*
X65069000Y-110320000D02*
X65069000Y-105280000D01*
X65069000Y-118240000D02*
X65069000Y-113200000D01*
X65109000Y-110320000D02*
X65109000Y-105250000D01*
X65109000Y-118270000D02*
X65109000Y-113200000D01*
X65149000Y-110320000D02*
X65149000Y-105221000D01*
X65149000Y-118299000D02*
X65149000Y-113200000D01*
X65189000Y-110320000D02*
X65189000Y-105192000D01*
X65189000Y-118328000D02*
X65189000Y-113200000D01*
X65229000Y-110320000D02*
X65229000Y-105164000D01*
X65229000Y-118356000D02*
X65229000Y-113200000D01*
X65269000Y-110320000D02*
X65269000Y-105136000D01*
X65269000Y-118384000D02*
X65269000Y-113200000D01*
X65309000Y-110320000D02*
X65309000Y-105108000D01*
X65309000Y-118412000D02*
X65309000Y-113200000D01*
X65349000Y-110320000D02*
X65349000Y-105081000D01*
X65349000Y-118439000D02*
X65349000Y-113200000D01*
X65389000Y-110320000D02*
X65389000Y-105054000D01*
X65389000Y-118466000D02*
X65389000Y-113200000D01*
X65429000Y-110320000D02*
X65429000Y-105027000D01*
X65429000Y-118493000D02*
X65429000Y-113200000D01*
X65469000Y-110320000D02*
X65469000Y-105001000D01*
X65469000Y-118519000D02*
X65469000Y-113200000D01*
X65509000Y-110320000D02*
X65509000Y-104975000D01*
X65509000Y-118545000D02*
X65509000Y-113200000D01*
X65549000Y-110320000D02*
X65549000Y-104949000D01*
X65549000Y-118571000D02*
X65549000Y-113200000D01*
X65589000Y-110320000D02*
X65589000Y-104924000D01*
X65589000Y-118596000D02*
X65589000Y-113200000D01*
X65629000Y-110320000D02*
X65629000Y-104899000D01*
X65629000Y-118621000D02*
X65629000Y-113200000D01*
X65669000Y-110320000D02*
X65669000Y-104874000D01*
X65669000Y-118646000D02*
X65669000Y-113200000D01*
X65709000Y-110320000D02*
X65709000Y-104850000D01*
X65709000Y-118670000D02*
X65709000Y-113200000D01*
X65749000Y-110320000D02*
X65749000Y-104826000D01*
X65749000Y-118694000D02*
X65749000Y-113200000D01*
X65789000Y-110320000D02*
X65789000Y-104802000D01*
X65789000Y-118718000D02*
X65789000Y-113200000D01*
X65829000Y-110320000D02*
X65829000Y-104779000D01*
X65829000Y-118741000D02*
X65829000Y-113200000D01*
X65869000Y-110320000D02*
X65869000Y-104756000D01*
X65869000Y-118764000D02*
X65869000Y-113200000D01*
X65909000Y-110320000D02*
X65909000Y-104733000D01*
X65909000Y-118787000D02*
X65909000Y-113200000D01*
X65949000Y-110320000D02*
X65949000Y-104711000D01*
X65949000Y-118809000D02*
X65949000Y-113200000D01*
X65989000Y-110320000D02*
X65989000Y-104688000D01*
X65989000Y-118832000D02*
X65989000Y-113200000D01*
X66029000Y-110320000D02*
X66029000Y-104666000D01*
X66029000Y-118854000D02*
X66029000Y-113200000D01*
X66069000Y-110320000D02*
X66069000Y-104645000D01*
X66069000Y-118875000D02*
X66069000Y-113200000D01*
X66109000Y-110320000D02*
X66109000Y-104624000D01*
X66109000Y-118896000D02*
X66109000Y-113200000D01*
X66149000Y-110320000D02*
X66149000Y-104603000D01*
X66149000Y-118917000D02*
X66149000Y-113200000D01*
X66189000Y-110320000D02*
X66189000Y-104582000D01*
X66189000Y-118938000D02*
X66189000Y-113200000D01*
X66229000Y-110320000D02*
X66229000Y-104561000D01*
X66229000Y-118959000D02*
X66229000Y-113200000D01*
X66269000Y-110320000D02*
X66269000Y-104541000D01*
X66269000Y-118979000D02*
X66269000Y-113200000D01*
X66309000Y-110320000D02*
X66309000Y-104521000D01*
X66309000Y-118999000D02*
X66309000Y-113200000D01*
X66349000Y-110320000D02*
X66349000Y-104502000D01*
X66349000Y-119018000D02*
X66349000Y-113200000D01*
X66389000Y-110320000D02*
X66389000Y-104482000D01*
X66389000Y-119038000D02*
X66389000Y-113200000D01*
X66429000Y-110320000D02*
X66429000Y-104463000D01*
X66429000Y-119057000D02*
X66429000Y-113200000D01*
X66469000Y-110320000D02*
X66469000Y-104444000D01*
X66469000Y-119076000D02*
X66469000Y-113200000D01*
X66509000Y-110320000D02*
X66509000Y-104426000D01*
X66509000Y-119094000D02*
X66509000Y-113200000D01*
X66549000Y-110320000D02*
X66549000Y-104407000D01*
X66549000Y-119113000D02*
X66549000Y-113200000D01*
X66589000Y-110320000D02*
X66589000Y-104389000D01*
X66589000Y-119131000D02*
X66589000Y-113200000D01*
X66629000Y-110320000D02*
X66629000Y-104371000D01*
X66629000Y-119149000D02*
X66629000Y-113200000D01*
X66669000Y-110320000D02*
X66669000Y-104354000D01*
X66669000Y-119166000D02*
X66669000Y-113200000D01*
X66709000Y-110320000D02*
X66709000Y-104337000D01*
X66709000Y-119183000D02*
X66709000Y-113200000D01*
X66749000Y-110320000D02*
X66749000Y-104320000D01*
X66749000Y-119200000D02*
X66749000Y-113200000D01*
X66789000Y-110320000D02*
X66789000Y-104303000D01*
X66789000Y-119217000D02*
X66789000Y-113200000D01*
X66829000Y-110320000D02*
X66829000Y-104286000D01*
X66829000Y-119234000D02*
X66829000Y-113200000D01*
X66869000Y-110320000D02*
X66869000Y-104270000D01*
X66869000Y-119250000D02*
X66869000Y-113200000D01*
X66909000Y-110320000D02*
X66909000Y-104254000D01*
X66909000Y-119266000D02*
X66909000Y-113200000D01*
X66949000Y-110320000D02*
X66949000Y-104238000D01*
X66949000Y-119282000D02*
X66949000Y-113200000D01*
X66989000Y-110320000D02*
X66989000Y-104223000D01*
X66989000Y-119297000D02*
X66989000Y-113200000D01*
X67029000Y-110320000D02*
X67029000Y-104207000D01*
X67029000Y-119313000D02*
X67029000Y-113200000D01*
X67069000Y-110320000D02*
X67069000Y-104192000D01*
X67069000Y-119328000D02*
X67069000Y-113200000D01*
X67109000Y-110320000D02*
X67109000Y-104178000D01*
X67109000Y-119342000D02*
X67109000Y-113200000D01*
X67149000Y-110320000D02*
X67149000Y-104163000D01*
X67149000Y-119357000D02*
X67149000Y-113200000D01*
X67189000Y-110320000D02*
X67189000Y-104149000D01*
X67189000Y-119371000D02*
X67189000Y-113200000D01*
X67229000Y-110320000D02*
X67229000Y-104135000D01*
X67229000Y-119385000D02*
X67229000Y-113200000D01*
X67269000Y-110320000D02*
X67269000Y-104121000D01*
X67269000Y-119399000D02*
X67269000Y-113200000D01*
X67309000Y-110320000D02*
X67309000Y-104107000D01*
X67309000Y-119413000D02*
X67309000Y-113200000D01*
X67349000Y-110320000D02*
X67349000Y-104094000D01*
X67349000Y-119426000D02*
X67349000Y-113200000D01*
X67389000Y-110320000D02*
X67389000Y-104080000D01*
X67389000Y-119440000D02*
X67389000Y-113200000D01*
X67429000Y-110320000D02*
X67429000Y-104067000D01*
X67429000Y-119453000D02*
X67429000Y-113200000D01*
X67469000Y-110320000D02*
X67469000Y-104055000D01*
X67469000Y-119465000D02*
X67469000Y-113200000D01*
X67509000Y-110320000D02*
X67509000Y-104042000D01*
X67509000Y-119478000D02*
X67509000Y-113200000D01*
X67549000Y-110320000D02*
X67549000Y-104030000D01*
X67549000Y-119490000D02*
X67549000Y-113200000D01*
X67589000Y-110320000D02*
X67589000Y-104018000D01*
X67589000Y-119502000D02*
X67589000Y-113200000D01*
X67629000Y-119514000D02*
X67629000Y-104006000D01*
X67669000Y-119525000D02*
X67669000Y-103995000D01*
X67709000Y-119537000D02*
X67709000Y-103983000D01*
X67749000Y-119548000D02*
X67749000Y-103972000D01*
X67789000Y-119559000D02*
X67789000Y-103961000D01*
X67829000Y-119570000D02*
X67829000Y-103950000D01*
X67869000Y-119580000D02*
X67869000Y-103940000D01*
X67909000Y-119590000D02*
X67909000Y-103930000D01*
X67949000Y-119600000D02*
X67949000Y-103920000D01*
X67989000Y-119610000D02*
X67989000Y-103910000D01*
X68029000Y-119620000D02*
X68029000Y-103900000D01*
X68069000Y-119629000D02*
X68069000Y-103891000D01*
X68109000Y-119638000D02*
X68109000Y-103882000D01*
X68149000Y-119647000D02*
X68149000Y-103873000D01*
X68189000Y-119656000D02*
X68189000Y-103864000D01*
X68229000Y-119665000D02*
X68229000Y-103855000D01*
X68269000Y-119673000D02*
X68269000Y-103847000D01*
X68309000Y-119681000D02*
X68309000Y-103839000D01*
X68349000Y-119689000D02*
X68349000Y-103831000D01*
X68389000Y-119697000D02*
X68389000Y-103823000D01*
X68429000Y-119704000D02*
X68429000Y-103816000D01*
X68469000Y-119712000D02*
X68469000Y-103808000D01*
X68509000Y-119719000D02*
X68509000Y-103801000D01*
X68549000Y-119726000D02*
X68549000Y-103794000D01*
X68589000Y-119732000D02*
X68589000Y-103788000D01*
X68629000Y-119739000D02*
X68629000Y-103781000D01*
X68669000Y-119745000D02*
X68669000Y-103775000D01*
X68709000Y-119751000D02*
X68709000Y-103769000D01*
X68749000Y-119757000D02*
X68749000Y-103763000D01*
X68789000Y-119763000D02*
X68789000Y-103757000D01*
X68829000Y-119768000D02*
X68829000Y-103752000D01*
X68869000Y-119774000D02*
X68869000Y-103746000D01*
X68909000Y-119779000D02*
X68909000Y-103741000D01*
X68949000Y-119784000D02*
X68949000Y-103736000D01*
X68989000Y-119788000D02*
X68989000Y-103732000D01*
X69029000Y-119793000D02*
X69029000Y-103727000D01*
X69069000Y-119797000D02*
X69069000Y-103723000D01*
X69109000Y-119801000D02*
X69109000Y-103719000D01*
X69149000Y-119805000D02*
X69149000Y-103715000D01*
X69189000Y-119809000D02*
X69189000Y-103711000D01*
X69230000Y-119812000D02*
X69230000Y-103708000D01*
X69270000Y-119815000D02*
X69270000Y-103705000D01*
X69310000Y-119818000D02*
X69310000Y-103702000D01*
X69350000Y-119821000D02*
X69350000Y-103699000D01*
X69390000Y-119824000D02*
X69390000Y-103696000D01*
X69430000Y-119826000D02*
X69430000Y-103694000D01*
X69470000Y-119829000D02*
X69470000Y-103691000D01*
X69510000Y-119831000D02*
X69510000Y-103689000D01*
X69550000Y-119833000D02*
X69550000Y-103687000D01*
X69590000Y-119834000D02*
X69590000Y-103686000D01*
X69630000Y-119836000D02*
X69630000Y-103684000D01*
X69670000Y-119837000D02*
X69670000Y-103683000D01*
X69710000Y-119838000D02*
X69710000Y-103682000D01*
X69750000Y-119839000D02*
X69750000Y-103681000D01*
X69790000Y-119840000D02*
X69790000Y-103680000D01*
X69830000Y-119840000D02*
X69830000Y-103680000D01*
X69870000Y-119840000D02*
X69870000Y-103680000D01*
X69910000Y-119841000D02*
X69910000Y-103679000D01*
X78030000Y-111760000D02*
G75*
G03*
X78030000Y-111760000I-8120000J0D01*
G01*
X82396000Y-117980000D02*
X79656000Y-117980000D01*
X82396000Y-110540000D02*
X79656000Y-110540000D01*
X79656000Y-110540000D02*
X79656000Y-117980000D01*
X82396000Y-110540000D02*
X82396000Y-117980000D01*
X77799491Y-156485000D02*
X77799491Y-154885000D01*
X78599491Y-155685000D02*
X76999491Y-155685000D01*
X61829000Y-151895000D02*
X61829000Y-150365000D01*
X61869000Y-152228000D02*
X61869000Y-150032000D01*
X61909000Y-152481000D02*
X61909000Y-149779000D01*
X61949000Y-152694000D02*
X61949000Y-149566000D01*
X61989000Y-152882000D02*
X61989000Y-149378000D01*
X62029000Y-153050000D02*
X62029000Y-149210000D01*
X62069000Y-153204000D02*
X62069000Y-149056000D01*
X62109000Y-153348000D02*
X62109000Y-148912000D01*
X62149000Y-153481000D02*
X62149000Y-148779000D01*
X62189000Y-153608000D02*
X62189000Y-148652000D01*
X62229000Y-153727000D02*
X62229000Y-148533000D01*
X62269000Y-153841000D02*
X62269000Y-148419000D01*
X62309000Y-153950000D02*
X62309000Y-148310000D01*
X62349000Y-154054000D02*
X62349000Y-148206000D01*
X62389000Y-154154000D02*
X62389000Y-148106000D01*
X62429000Y-154250000D02*
X62429000Y-148010000D01*
X62469000Y-154343000D02*
X62469000Y-147917000D01*
X62509000Y-154433000D02*
X62509000Y-147827000D01*
X62549000Y-154520000D02*
X62549000Y-147740000D01*
X62589000Y-154605000D02*
X62589000Y-147655000D01*
X62629000Y-154687000D02*
X62629000Y-147573000D01*
X62669000Y-154767000D02*
X62669000Y-147493000D01*
X62709000Y-154845000D02*
X62709000Y-147415000D01*
X62749000Y-154920000D02*
X62749000Y-147340000D01*
X62789000Y-154994000D02*
X62789000Y-147266000D01*
X62829000Y-155066000D02*
X62829000Y-147194000D01*
X62869000Y-155137000D02*
X62869000Y-147123000D01*
X62909000Y-155206000D02*
X62909000Y-147054000D01*
X62949000Y-155273000D02*
X62949000Y-146987000D01*
X62989000Y-155339000D02*
X62989000Y-146921000D01*
X63029000Y-155403000D02*
X63029000Y-146857000D01*
X63069000Y-155466000D02*
X63069000Y-146794000D01*
X63109000Y-155528000D02*
X63109000Y-146732000D01*
X63149000Y-155589000D02*
X63149000Y-146671000D01*
X63189000Y-155649000D02*
X63189000Y-146611000D01*
X63229000Y-155707000D02*
X63229000Y-146553000D01*
X63269000Y-155764000D02*
X63269000Y-146496000D01*
X63309000Y-155821000D02*
X63309000Y-146439000D01*
X63349000Y-155876000D02*
X63349000Y-146384000D01*
X63389000Y-155930000D02*
X63389000Y-146330000D01*
X63429000Y-155984000D02*
X63429000Y-146276000D01*
X63469000Y-156036000D02*
X63469000Y-146224000D01*
X63509000Y-156088000D02*
X63509000Y-146172000D01*
X63549000Y-156139000D02*
X63549000Y-146121000D01*
X63589000Y-156189000D02*
X63589000Y-146071000D01*
X63629000Y-156238000D02*
X63629000Y-146022000D01*
X63669000Y-156286000D02*
X63669000Y-145974000D01*
X63709000Y-156334000D02*
X63709000Y-145926000D01*
X63749000Y-156381000D02*
X63749000Y-145879000D01*
X63789000Y-156427000D02*
X63789000Y-145833000D01*
X63829000Y-156473000D02*
X63829000Y-145787000D01*
X63869000Y-156518000D02*
X63869000Y-145742000D01*
X63909000Y-156562000D02*
X63909000Y-145698000D01*
X63949000Y-156605000D02*
X63949000Y-145655000D01*
X63989000Y-156648000D02*
X63989000Y-145612000D01*
X64029000Y-156690000D02*
X64029000Y-145570000D01*
X64069000Y-156732000D02*
X64069000Y-145528000D01*
X64109000Y-156773000D02*
X64109000Y-145487000D01*
X64149000Y-156814000D02*
X64149000Y-145446000D01*
X64189000Y-156854000D02*
X64189000Y-145406000D01*
X64229000Y-156893000D02*
X64229000Y-145367000D01*
X64269000Y-156932000D02*
X64269000Y-145328000D01*
X64309000Y-156970000D02*
X64309000Y-145290000D01*
X64349000Y-157008000D02*
X64349000Y-145252000D01*
X64389000Y-157046000D02*
X64389000Y-145214000D01*
X64429000Y-157082000D02*
X64429000Y-145178000D01*
X64469000Y-157119000D02*
X64469000Y-145141000D01*
X64509000Y-157155000D02*
X64509000Y-145105000D01*
X64549000Y-157190000D02*
X64549000Y-145070000D01*
X64589000Y-157225000D02*
X64589000Y-145035000D01*
X64629000Y-157259000D02*
X64629000Y-145001000D01*
X64669000Y-157293000D02*
X64669000Y-144967000D01*
X64709000Y-157327000D02*
X64709000Y-144933000D01*
X64749000Y-149690000D02*
X64749000Y-144900000D01*
X64749000Y-157360000D02*
X64749000Y-152570000D01*
X64789000Y-149690000D02*
X64789000Y-144867000D01*
X64789000Y-157393000D02*
X64789000Y-152570000D01*
X64829000Y-149690000D02*
X64829000Y-144835000D01*
X64829000Y-157425000D02*
X64829000Y-152570000D01*
X64869000Y-149690000D02*
X64869000Y-144803000D01*
X64869000Y-157457000D02*
X64869000Y-152570000D01*
X64909000Y-149690000D02*
X64909000Y-144772000D01*
X64909000Y-157488000D02*
X64909000Y-152570000D01*
X64949000Y-149690000D02*
X64949000Y-144740000D01*
X64949000Y-157520000D02*
X64949000Y-152570000D01*
X64989000Y-149690000D02*
X64989000Y-144710000D01*
X64989000Y-157550000D02*
X64989000Y-152570000D01*
X65029000Y-149690000D02*
X65029000Y-144680000D01*
X65029000Y-157580000D02*
X65029000Y-152570000D01*
X65069000Y-149690000D02*
X65069000Y-144650000D01*
X65069000Y-157610000D02*
X65069000Y-152570000D01*
X65109000Y-149690000D02*
X65109000Y-144620000D01*
X65109000Y-157640000D02*
X65109000Y-152570000D01*
X65149000Y-149690000D02*
X65149000Y-144591000D01*
X65149000Y-157669000D02*
X65149000Y-152570000D01*
X65189000Y-149690000D02*
X65189000Y-144562000D01*
X65189000Y-157698000D02*
X65189000Y-152570000D01*
X65229000Y-149690000D02*
X65229000Y-144534000D01*
X65229000Y-157726000D02*
X65229000Y-152570000D01*
X65269000Y-149690000D02*
X65269000Y-144506000D01*
X65269000Y-157754000D02*
X65269000Y-152570000D01*
X65309000Y-149690000D02*
X65309000Y-144478000D01*
X65309000Y-157782000D02*
X65309000Y-152570000D01*
X65349000Y-149690000D02*
X65349000Y-144451000D01*
X65349000Y-157809000D02*
X65349000Y-152570000D01*
X65389000Y-149690000D02*
X65389000Y-144424000D01*
X65389000Y-157836000D02*
X65389000Y-152570000D01*
X65429000Y-149690000D02*
X65429000Y-144397000D01*
X65429000Y-157863000D02*
X65429000Y-152570000D01*
X65469000Y-149690000D02*
X65469000Y-144371000D01*
X65469000Y-157889000D02*
X65469000Y-152570000D01*
X65509000Y-149690000D02*
X65509000Y-144345000D01*
X65509000Y-157915000D02*
X65509000Y-152570000D01*
X65549000Y-149690000D02*
X65549000Y-144319000D01*
X65549000Y-157941000D02*
X65549000Y-152570000D01*
X65589000Y-149690000D02*
X65589000Y-144294000D01*
X65589000Y-157966000D02*
X65589000Y-152570000D01*
X65629000Y-149690000D02*
X65629000Y-144269000D01*
X65629000Y-157991000D02*
X65629000Y-152570000D01*
X65669000Y-149690000D02*
X65669000Y-144244000D01*
X65669000Y-158016000D02*
X65669000Y-152570000D01*
X65709000Y-149690000D02*
X65709000Y-144220000D01*
X65709000Y-158040000D02*
X65709000Y-152570000D01*
X65749000Y-149690000D02*
X65749000Y-144196000D01*
X65749000Y-158064000D02*
X65749000Y-152570000D01*
X65789000Y-149690000D02*
X65789000Y-144172000D01*
X65789000Y-158088000D02*
X65789000Y-152570000D01*
X65829000Y-149690000D02*
X65829000Y-144149000D01*
X65829000Y-158111000D02*
X65829000Y-152570000D01*
X65869000Y-149690000D02*
X65869000Y-144126000D01*
X65869000Y-158134000D02*
X65869000Y-152570000D01*
X65909000Y-149690000D02*
X65909000Y-144103000D01*
X65909000Y-158157000D02*
X65909000Y-152570000D01*
X65949000Y-149690000D02*
X65949000Y-144081000D01*
X65949000Y-158179000D02*
X65949000Y-152570000D01*
X65989000Y-149690000D02*
X65989000Y-144058000D01*
X65989000Y-158202000D02*
X65989000Y-152570000D01*
X66029000Y-149690000D02*
X66029000Y-144036000D01*
X66029000Y-158224000D02*
X66029000Y-152570000D01*
X66069000Y-149690000D02*
X66069000Y-144015000D01*
X66069000Y-158245000D02*
X66069000Y-152570000D01*
X66109000Y-149690000D02*
X66109000Y-143994000D01*
X66109000Y-158266000D02*
X66109000Y-152570000D01*
X66149000Y-149690000D02*
X66149000Y-143973000D01*
X66149000Y-158287000D02*
X66149000Y-152570000D01*
X66189000Y-149690000D02*
X66189000Y-143952000D01*
X66189000Y-158308000D02*
X66189000Y-152570000D01*
X66229000Y-149690000D02*
X66229000Y-143931000D01*
X66229000Y-158329000D02*
X66229000Y-152570000D01*
X66269000Y-149690000D02*
X66269000Y-143911000D01*
X66269000Y-158349000D02*
X66269000Y-152570000D01*
X66309000Y-149690000D02*
X66309000Y-143891000D01*
X66309000Y-158369000D02*
X66309000Y-152570000D01*
X66349000Y-149690000D02*
X66349000Y-143872000D01*
X66349000Y-158388000D02*
X66349000Y-152570000D01*
X66389000Y-149690000D02*
X66389000Y-143852000D01*
X66389000Y-158408000D02*
X66389000Y-152570000D01*
X66429000Y-149690000D02*
X66429000Y-143833000D01*
X66429000Y-158427000D02*
X66429000Y-152570000D01*
X66469000Y-149690000D02*
X66469000Y-143814000D01*
X66469000Y-158446000D02*
X66469000Y-152570000D01*
X66509000Y-149690000D02*
X66509000Y-143796000D01*
X66509000Y-158464000D02*
X66509000Y-152570000D01*
X66549000Y-149690000D02*
X66549000Y-143777000D01*
X66549000Y-158483000D02*
X66549000Y-152570000D01*
X66589000Y-149690000D02*
X66589000Y-143759000D01*
X66589000Y-158501000D02*
X66589000Y-152570000D01*
X66629000Y-149690000D02*
X66629000Y-143741000D01*
X66629000Y-158519000D02*
X66629000Y-152570000D01*
X66669000Y-149690000D02*
X66669000Y-143724000D01*
X66669000Y-158536000D02*
X66669000Y-152570000D01*
X66709000Y-149690000D02*
X66709000Y-143707000D01*
X66709000Y-158553000D02*
X66709000Y-152570000D01*
X66749000Y-149690000D02*
X66749000Y-143690000D01*
X66749000Y-158570000D02*
X66749000Y-152570000D01*
X66789000Y-149690000D02*
X66789000Y-143673000D01*
X66789000Y-158587000D02*
X66789000Y-152570000D01*
X66829000Y-149690000D02*
X66829000Y-143656000D01*
X66829000Y-158604000D02*
X66829000Y-152570000D01*
X66869000Y-149690000D02*
X66869000Y-143640000D01*
X66869000Y-158620000D02*
X66869000Y-152570000D01*
X66909000Y-149690000D02*
X66909000Y-143624000D01*
X66909000Y-158636000D02*
X66909000Y-152570000D01*
X66949000Y-149690000D02*
X66949000Y-143608000D01*
X66949000Y-158652000D02*
X66949000Y-152570000D01*
X66989000Y-149690000D02*
X66989000Y-143593000D01*
X66989000Y-158667000D02*
X66989000Y-152570000D01*
X67029000Y-149690000D02*
X67029000Y-143577000D01*
X67029000Y-158683000D02*
X67029000Y-152570000D01*
X67069000Y-149690000D02*
X67069000Y-143562000D01*
X67069000Y-158698000D02*
X67069000Y-152570000D01*
X67109000Y-149690000D02*
X67109000Y-143548000D01*
X67109000Y-158712000D02*
X67109000Y-152570000D01*
X67149000Y-149690000D02*
X67149000Y-143533000D01*
X67149000Y-158727000D02*
X67149000Y-152570000D01*
X67189000Y-149690000D02*
X67189000Y-143519000D01*
X67189000Y-158741000D02*
X67189000Y-152570000D01*
X67229000Y-149690000D02*
X67229000Y-143505000D01*
X67229000Y-158755000D02*
X67229000Y-152570000D01*
X67269000Y-149690000D02*
X67269000Y-143491000D01*
X67269000Y-158769000D02*
X67269000Y-152570000D01*
X67309000Y-149690000D02*
X67309000Y-143477000D01*
X67309000Y-158783000D02*
X67309000Y-152570000D01*
X67349000Y-149690000D02*
X67349000Y-143464000D01*
X67349000Y-158796000D02*
X67349000Y-152570000D01*
X67389000Y-149690000D02*
X67389000Y-143450000D01*
X67389000Y-158810000D02*
X67389000Y-152570000D01*
X67429000Y-149690000D02*
X67429000Y-143437000D01*
X67429000Y-158823000D02*
X67429000Y-152570000D01*
X67469000Y-149690000D02*
X67469000Y-143425000D01*
X67469000Y-158835000D02*
X67469000Y-152570000D01*
X67509000Y-149690000D02*
X67509000Y-143412000D01*
X67509000Y-158848000D02*
X67509000Y-152570000D01*
X67549000Y-149690000D02*
X67549000Y-143400000D01*
X67549000Y-158860000D02*
X67549000Y-152570000D01*
X67589000Y-149690000D02*
X67589000Y-143388000D01*
X67589000Y-158872000D02*
X67589000Y-152570000D01*
X67629000Y-158884000D02*
X67629000Y-143376000D01*
X67669000Y-158895000D02*
X67669000Y-143365000D01*
X67709000Y-158907000D02*
X67709000Y-143353000D01*
X67749000Y-158918000D02*
X67749000Y-143342000D01*
X67789000Y-158929000D02*
X67789000Y-143331000D01*
X67829000Y-158940000D02*
X67829000Y-143320000D01*
X67869000Y-158950000D02*
X67869000Y-143310000D01*
X67909000Y-158960000D02*
X67909000Y-143300000D01*
X67949000Y-158970000D02*
X67949000Y-143290000D01*
X67989000Y-158980000D02*
X67989000Y-143280000D01*
X68029000Y-158990000D02*
X68029000Y-143270000D01*
X68069000Y-158999000D02*
X68069000Y-143261000D01*
X68109000Y-159008000D02*
X68109000Y-143252000D01*
X68149000Y-159017000D02*
X68149000Y-143243000D01*
X68189000Y-159026000D02*
X68189000Y-143234000D01*
X68229000Y-159035000D02*
X68229000Y-143225000D01*
X68269000Y-159043000D02*
X68269000Y-143217000D01*
X68309000Y-159051000D02*
X68309000Y-143209000D01*
X68349000Y-159059000D02*
X68349000Y-143201000D01*
X68389000Y-159067000D02*
X68389000Y-143193000D01*
X68429000Y-159074000D02*
X68429000Y-143186000D01*
X68469000Y-159082000D02*
X68469000Y-143178000D01*
X68509000Y-159089000D02*
X68509000Y-143171000D01*
X68549000Y-159096000D02*
X68549000Y-143164000D01*
X68589000Y-159102000D02*
X68589000Y-143158000D01*
X68629000Y-159109000D02*
X68629000Y-143151000D01*
X68669000Y-159115000D02*
X68669000Y-143145000D01*
X68709000Y-159121000D02*
X68709000Y-143139000D01*
X68749000Y-159127000D02*
X68749000Y-143133000D01*
X68789000Y-159133000D02*
X68789000Y-143127000D01*
X68829000Y-159138000D02*
X68829000Y-143122000D01*
X68869000Y-159144000D02*
X68869000Y-143116000D01*
X68909000Y-159149000D02*
X68909000Y-143111000D01*
X68949000Y-159154000D02*
X68949000Y-143106000D01*
X68989000Y-159158000D02*
X68989000Y-143102000D01*
X69029000Y-159163000D02*
X69029000Y-143097000D01*
X69069000Y-159167000D02*
X69069000Y-143093000D01*
X69109000Y-159171000D02*
X69109000Y-143089000D01*
X69149000Y-159175000D02*
X69149000Y-143085000D01*
X69189000Y-159179000D02*
X69189000Y-143081000D01*
X69230000Y-159182000D02*
X69230000Y-143078000D01*
X69270000Y-159185000D02*
X69270000Y-143075000D01*
X69310000Y-159188000D02*
X69310000Y-143072000D01*
X69350000Y-159191000D02*
X69350000Y-143069000D01*
X69390000Y-159194000D02*
X69390000Y-143066000D01*
X69430000Y-159196000D02*
X69430000Y-143064000D01*
X69470000Y-159199000D02*
X69470000Y-143061000D01*
X69510000Y-159201000D02*
X69510000Y-143059000D01*
X69550000Y-159203000D02*
X69550000Y-143057000D01*
X69590000Y-159204000D02*
X69590000Y-143056000D01*
X69630000Y-159206000D02*
X69630000Y-143054000D01*
X69670000Y-159207000D02*
X69670000Y-143053000D01*
X69710000Y-159208000D02*
X69710000Y-143052000D01*
X69750000Y-159209000D02*
X69750000Y-143051000D01*
X69790000Y-159210000D02*
X69790000Y-143050000D01*
X69830000Y-159210000D02*
X69830000Y-143050000D01*
X69870000Y-159210000D02*
X69870000Y-143050000D01*
X69910000Y-159211000D02*
X69910000Y-143049000D01*
X78030000Y-151130000D02*
G75*
G03*
X78030000Y-151130000I-8120000J0D01*
G01*
X82396000Y-157350000D02*
X79656000Y-157350000D01*
X82396000Y-149910000D02*
X79656000Y-149910000D01*
X79656000Y-149910000D02*
X79656000Y-157350000D01*
X82396000Y-149910000D02*
X82396000Y-157350000D01*
X145535500Y-83281500D02*
X145535500Y-85681500D01*
X143135500Y-83281500D02*
X143135500Y-85681500D01*
X97860000Y-92550000D02*
X97860000Y-90150000D01*
X100260000Y-92550000D02*
X100260000Y-90150000D01*
X102178000Y-92550000D02*
X102178000Y-90150000D01*
X104578000Y-92550000D02*
X104578000Y-90150000D01*
X69285000Y-92095000D02*
X69285000Y-89695000D01*
X71685000Y-92095000D02*
X71685000Y-89695000D01*
X100260000Y-101125000D02*
X100260000Y-103525000D01*
X97860000Y-101125000D02*
X97860000Y-103525000D01*
X104578000Y-101125000D02*
X104578000Y-103525000D01*
X102178000Y-101125000D02*
X102178000Y-103525000D01*
X70220000Y-100545000D02*
X69020000Y-100545000D01*
X69020000Y-98845000D02*
X70220000Y-98845000D01*
X62845000Y-92145000D02*
X65245000Y-92145000D01*
X62845000Y-94545000D02*
X65245000Y-94545000D01*
X56585000Y-96995000D02*
X56585000Y-94595000D01*
X58985000Y-96995000D02*
X58985000Y-94595000D01*
X149460000Y-90106500D02*
G75*
G03*
X149460000Y-90106500I-1251000J0D01*
G01*
X149460000Y-95758000D02*
G75*
G03*
X149460000Y-95758000I-1251000J0D01*
G01*
X76276781Y-76200000D02*
G75*
G03*
X76276781Y-76200000I-1600781J0D01*
G01*
X85928781Y-76200000D02*
G75*
G03*
X85928781Y-76200000I-1600781J0D01*
G01*
X45066000Y-102870000D02*
G75*
G03*
X45066000Y-102870000I-1251000J0D01*
G01*
X45066000Y-93345000D02*
G75*
G03*
X45066000Y-93345000I-1251000J0D01*
G01*
X109825560Y-98760000D02*
X109825560Y-100560000D01*
X108925560Y-99660000D02*
X110725560Y-99660000D01*
X127805000Y-104735000D02*
X127805000Y-104815000D01*
X127765000Y-103961000D02*
X127765000Y-105589000D01*
X127725000Y-103609000D02*
X127725000Y-105941000D01*
X127685000Y-103340000D02*
X127685000Y-106210000D01*
X127645000Y-103114000D02*
X127645000Y-106436000D01*
X127605000Y-102915000D02*
X127605000Y-106635000D01*
X127565000Y-102736000D02*
X127565000Y-106814000D01*
X127525000Y-102572000D02*
X127525000Y-106978000D01*
X127485000Y-102420000D02*
X127485000Y-107130000D01*
X127445000Y-102277000D02*
X127445000Y-107273000D01*
X127405000Y-102143000D02*
X127405000Y-107407000D01*
X127365000Y-102016000D02*
X127365000Y-107534000D01*
X127325000Y-101895000D02*
X127325000Y-107655000D01*
X127285000Y-101779000D02*
X127285000Y-107771000D01*
X127245000Y-101668000D02*
X127245000Y-107882000D01*
X127205000Y-101561000D02*
X127205000Y-107989000D01*
X127165000Y-101458000D02*
X127165000Y-108092000D01*
X127125000Y-101359000D02*
X127125000Y-108191000D01*
X127085000Y-101263000D02*
X127085000Y-108287000D01*
X127045000Y-101170000D02*
X127045000Y-108380000D01*
X127005000Y-101079000D02*
X127005000Y-108471000D01*
X126965000Y-100991000D02*
X126965000Y-108559000D01*
X126925000Y-100906000D02*
X126925000Y-108644000D01*
X126885000Y-100823000D02*
X126885000Y-108727000D01*
X126846000Y-100742000D02*
X126846000Y-108808000D01*
X126806000Y-100662000D02*
X126806000Y-108888000D01*
X126766000Y-100585000D02*
X126766000Y-108965000D01*
X126726000Y-100510000D02*
X126726000Y-109040000D01*
X126686000Y-100436000D02*
X126686000Y-109114000D01*
X126646000Y-100363000D02*
X126646000Y-109187000D01*
X126606000Y-100293000D02*
X126606000Y-109257000D01*
X126566000Y-100223000D02*
X126566000Y-109327000D01*
X126526000Y-100155000D02*
X126526000Y-109395000D01*
X126486000Y-100089000D02*
X126486000Y-109461000D01*
X126446000Y-100023000D02*
X126446000Y-109527000D01*
X126406000Y-99959000D02*
X126406000Y-109591000D01*
X126366000Y-99896000D02*
X126366000Y-109654000D01*
X126326000Y-99834000D02*
X126326000Y-109716000D01*
X126286000Y-99773000D02*
X126286000Y-109777000D01*
X126246000Y-99713000D02*
X126246000Y-109837000D01*
X126206000Y-99655000D02*
X126206000Y-109895000D01*
X126166000Y-99597000D02*
X126166000Y-109953000D01*
X126126000Y-99540000D02*
X126126000Y-110010000D01*
X126086000Y-99484000D02*
X126086000Y-110066000D01*
X126046000Y-99429000D02*
X126046000Y-110121000D01*
X126006000Y-99375000D02*
X126006000Y-110175000D01*
X125966000Y-99321000D02*
X125966000Y-110229000D01*
X125926000Y-99269000D02*
X125926000Y-110281000D01*
X125886000Y-99217000D02*
X125886000Y-110333000D01*
X125846000Y-99166000D02*
X125846000Y-110384000D01*
X125806000Y-99115000D02*
X125806000Y-110435000D01*
X125766000Y-99066000D02*
X125766000Y-110484000D01*
X125726000Y-99017000D02*
X125726000Y-110533000D01*
X125686000Y-98969000D02*
X125686000Y-110581000D01*
X125646000Y-98921000D02*
X125646000Y-110629000D01*
X125606000Y-98874000D02*
X125606000Y-110676000D01*
X125566000Y-98828000D02*
X125566000Y-110722000D01*
X125526000Y-98782000D02*
X125526000Y-110768000D01*
X125486000Y-98737000D02*
X125486000Y-110813000D01*
X125446000Y-98693000D02*
X125446000Y-110857000D01*
X125406000Y-98649000D02*
X125406000Y-110901000D01*
X125366000Y-98605000D02*
X125366000Y-110945000D01*
X125326000Y-98563000D02*
X125326000Y-110987000D01*
X125286000Y-98521000D02*
X125286000Y-111029000D01*
X125246000Y-98479000D02*
X125246000Y-111071000D01*
X125206000Y-98438000D02*
X125206000Y-111112000D01*
X125166000Y-98397000D02*
X125166000Y-111153000D01*
X125126000Y-98357000D02*
X125126000Y-111193000D01*
X125086000Y-98317000D02*
X125086000Y-111233000D01*
X125046000Y-98278000D02*
X125046000Y-111272000D01*
X125006000Y-98239000D02*
X125006000Y-111311000D01*
X124966000Y-98201000D02*
X124966000Y-111349000D01*
X124926000Y-98163000D02*
X124926000Y-111387000D01*
X124886000Y-98126000D02*
X124886000Y-111424000D01*
X124846000Y-98089000D02*
X124846000Y-111461000D01*
X124806000Y-98053000D02*
X124806000Y-111497000D01*
X124766000Y-98017000D02*
X124766000Y-111533000D01*
X124726000Y-97981000D02*
X124726000Y-111569000D01*
X124686000Y-97946000D02*
X124686000Y-111604000D01*
X124646000Y-97911000D02*
X124646000Y-111639000D01*
X124606000Y-97877000D02*
X124606000Y-111673000D01*
X124566000Y-97843000D02*
X124566000Y-111707000D01*
X124526000Y-97810000D02*
X124526000Y-111740000D01*
X124486000Y-97776000D02*
X124486000Y-111774000D01*
X124446000Y-97744000D02*
X124446000Y-111806000D01*
X124406000Y-97711000D02*
X124406000Y-111839000D01*
X124366000Y-97679000D02*
X124366000Y-111871000D01*
X124326000Y-97648000D02*
X124326000Y-111902000D01*
X124286000Y-97616000D02*
X124286000Y-111934000D01*
X124246000Y-97585000D02*
X124246000Y-111965000D01*
X124206000Y-97555000D02*
X124206000Y-111995000D01*
X124166000Y-97525000D02*
X124166000Y-112025000D01*
X124126000Y-97495000D02*
X124126000Y-112055000D01*
X124086000Y-97465000D02*
X124086000Y-112085000D01*
X124046000Y-97436000D02*
X124046000Y-112114000D01*
X124006000Y-97407000D02*
X124006000Y-112143000D01*
X123966000Y-97378000D02*
X123966000Y-112172000D01*
X123926000Y-97350000D02*
X123926000Y-112200000D01*
X123886000Y-97322000D02*
X123886000Y-112228000D01*
X123846000Y-106215000D02*
X123846000Y-112255000D01*
X123846000Y-97295000D02*
X123846000Y-103335000D01*
X123806000Y-106215000D02*
X123806000Y-112283000D01*
X123806000Y-97267000D02*
X123806000Y-103335000D01*
X123766000Y-106215000D02*
X123766000Y-112310000D01*
X123766000Y-97240000D02*
X123766000Y-103335000D01*
X123726000Y-106215000D02*
X123726000Y-112336000D01*
X123726000Y-97214000D02*
X123726000Y-103335000D01*
X123686000Y-106215000D02*
X123686000Y-112363000D01*
X123686000Y-97187000D02*
X123686000Y-103335000D01*
X123646000Y-106215000D02*
X123646000Y-112389000D01*
X123646000Y-97161000D02*
X123646000Y-103335000D01*
X123606000Y-106215000D02*
X123606000Y-112415000D01*
X123606000Y-97135000D02*
X123606000Y-103335000D01*
X123566000Y-106215000D02*
X123566000Y-112440000D01*
X123566000Y-97110000D02*
X123566000Y-103335000D01*
X123526000Y-106215000D02*
X123526000Y-112465000D01*
X123526000Y-97085000D02*
X123526000Y-103335000D01*
X123486000Y-106215000D02*
X123486000Y-112490000D01*
X123486000Y-97060000D02*
X123486000Y-103335000D01*
X123446000Y-106215000D02*
X123446000Y-112515000D01*
X123446000Y-97035000D02*
X123446000Y-103335000D01*
X123406000Y-106215000D02*
X123406000Y-112539000D01*
X123406000Y-97011000D02*
X123406000Y-103335000D01*
X123366000Y-106215000D02*
X123366000Y-112563000D01*
X123366000Y-96987000D02*
X123366000Y-103335000D01*
X123326000Y-106215000D02*
X123326000Y-112587000D01*
X123326000Y-96963000D02*
X123326000Y-103335000D01*
X123286000Y-106215000D02*
X123286000Y-112610000D01*
X123286000Y-96940000D02*
X123286000Y-103335000D01*
X123246000Y-106215000D02*
X123246000Y-112634000D01*
X123246000Y-96916000D02*
X123246000Y-103335000D01*
X123206000Y-106215000D02*
X123206000Y-112657000D01*
X123206000Y-96893000D02*
X123206000Y-103335000D01*
X123166000Y-106215000D02*
X123166000Y-112679000D01*
X123166000Y-96871000D02*
X123166000Y-103335000D01*
X123126000Y-106215000D02*
X123126000Y-112702000D01*
X123126000Y-96848000D02*
X123126000Y-103335000D01*
X123086000Y-106215000D02*
X123086000Y-112724000D01*
X123086000Y-96826000D02*
X123086000Y-103335000D01*
X123046000Y-106215000D02*
X123046000Y-112746000D01*
X123046000Y-96804000D02*
X123046000Y-103335000D01*
X123006000Y-106215000D02*
X123006000Y-112767000D01*
X123006000Y-96783000D02*
X123006000Y-103335000D01*
X122966000Y-106215000D02*
X122966000Y-112789000D01*
X122966000Y-96761000D02*
X122966000Y-103335000D01*
X122926000Y-106215000D02*
X122926000Y-112810000D01*
X122926000Y-96740000D02*
X122926000Y-103335000D01*
X122886000Y-106215000D02*
X122886000Y-112831000D01*
X122886000Y-96719000D02*
X122886000Y-103335000D01*
X122846000Y-106215000D02*
X122846000Y-112851000D01*
X122846000Y-96699000D02*
X122846000Y-103335000D01*
X122806000Y-106215000D02*
X122806000Y-112872000D01*
X122806000Y-96678000D02*
X122806000Y-103335000D01*
X122766000Y-106215000D02*
X122766000Y-112892000D01*
X122766000Y-96658000D02*
X122766000Y-103335000D01*
X122726000Y-106215000D02*
X122726000Y-112912000D01*
X122726000Y-96638000D02*
X122726000Y-103335000D01*
X122686000Y-106215000D02*
X122686000Y-112931000D01*
X122686000Y-96619000D02*
X122686000Y-103335000D01*
X122646000Y-106215000D02*
X122646000Y-112951000D01*
X122646000Y-96599000D02*
X122646000Y-103335000D01*
X122606000Y-106215000D02*
X122606000Y-112970000D01*
X122606000Y-96580000D02*
X122606000Y-103335000D01*
X122566000Y-106215000D02*
X122566000Y-112989000D01*
X122566000Y-96561000D02*
X122566000Y-103335000D01*
X122526000Y-106215000D02*
X122526000Y-113008000D01*
X122526000Y-96542000D02*
X122526000Y-103335000D01*
X122486000Y-106215000D02*
X122486000Y-113026000D01*
X122486000Y-96524000D02*
X122486000Y-103335000D01*
X122446000Y-106215000D02*
X122446000Y-113044000D01*
X122446000Y-96506000D02*
X122446000Y-103335000D01*
X122406000Y-106215000D02*
X122406000Y-113062000D01*
X122406000Y-96488000D02*
X122406000Y-103335000D01*
X122366000Y-106215000D02*
X122366000Y-113080000D01*
X122366000Y-96470000D02*
X122366000Y-103335000D01*
X122326000Y-106215000D02*
X122326000Y-113098000D01*
X122326000Y-96452000D02*
X122326000Y-103335000D01*
X122286000Y-106215000D02*
X122286000Y-113115000D01*
X122286000Y-96435000D02*
X122286000Y-103335000D01*
X122246000Y-106215000D02*
X122246000Y-113132000D01*
X122246000Y-96418000D02*
X122246000Y-103335000D01*
X122206000Y-106215000D02*
X122206000Y-113149000D01*
X122206000Y-96401000D02*
X122206000Y-103335000D01*
X122166000Y-106215000D02*
X122166000Y-113165000D01*
X122166000Y-96385000D02*
X122166000Y-103335000D01*
X122126000Y-106215000D02*
X122126000Y-113182000D01*
X122126000Y-96368000D02*
X122126000Y-103335000D01*
X122086000Y-106215000D02*
X122086000Y-113198000D01*
X122086000Y-96352000D02*
X122086000Y-103335000D01*
X122046000Y-106215000D02*
X122046000Y-113214000D01*
X122046000Y-96336000D02*
X122046000Y-103335000D01*
X122006000Y-106215000D02*
X122006000Y-113230000D01*
X122006000Y-96320000D02*
X122006000Y-103335000D01*
X121966000Y-106215000D02*
X121966000Y-113245000D01*
X121966000Y-96305000D02*
X121966000Y-103335000D01*
X121926000Y-106215000D02*
X121926000Y-113261000D01*
X121926000Y-96289000D02*
X121926000Y-103335000D01*
X121886000Y-106215000D02*
X121886000Y-113276000D01*
X121886000Y-96274000D02*
X121886000Y-103335000D01*
X121846000Y-106215000D02*
X121846000Y-113291000D01*
X121846000Y-96259000D02*
X121846000Y-103335000D01*
X121806000Y-106215000D02*
X121806000Y-113305000D01*
X121806000Y-96245000D02*
X121806000Y-103335000D01*
X121766000Y-106215000D02*
X121766000Y-113320000D01*
X121766000Y-96230000D02*
X121766000Y-103335000D01*
X121726000Y-106215000D02*
X121726000Y-113334000D01*
X121726000Y-96216000D02*
X121726000Y-103335000D01*
X121686000Y-106215000D02*
X121686000Y-113348000D01*
X121686000Y-96202000D02*
X121686000Y-103335000D01*
X121646000Y-106215000D02*
X121646000Y-113362000D01*
X121646000Y-96188000D02*
X121646000Y-103335000D01*
X121606000Y-106215000D02*
X121606000Y-113375000D01*
X121606000Y-96175000D02*
X121606000Y-103335000D01*
X121566000Y-106215000D02*
X121566000Y-113389000D01*
X121566000Y-96161000D02*
X121566000Y-103335000D01*
X121526000Y-106215000D02*
X121526000Y-113402000D01*
X121526000Y-96148000D02*
X121526000Y-103335000D01*
X121486000Y-106215000D02*
X121486000Y-113415000D01*
X121486000Y-96135000D02*
X121486000Y-103335000D01*
X121446000Y-106215000D02*
X121446000Y-113428000D01*
X121446000Y-96122000D02*
X121446000Y-103335000D01*
X121406000Y-106215000D02*
X121406000Y-113440000D01*
X121406000Y-96110000D02*
X121406000Y-103335000D01*
X121366000Y-106215000D02*
X121366000Y-113453000D01*
X121366000Y-96097000D02*
X121366000Y-103335000D01*
X121326000Y-106215000D02*
X121326000Y-113465000D01*
X121326000Y-96085000D02*
X121326000Y-103335000D01*
X121286000Y-106215000D02*
X121286000Y-113477000D01*
X121286000Y-96073000D02*
X121286000Y-103335000D01*
X121246000Y-106215000D02*
X121246000Y-113489000D01*
X121246000Y-96061000D02*
X121246000Y-103335000D01*
X121206000Y-106215000D02*
X121206000Y-113500000D01*
X121206000Y-96050000D02*
X121206000Y-103335000D01*
X121166000Y-106215000D02*
X121166000Y-113512000D01*
X121166000Y-96038000D02*
X121166000Y-103335000D01*
X121126000Y-106215000D02*
X121126000Y-113523000D01*
X121126000Y-96027000D02*
X121126000Y-103335000D01*
X121086000Y-106215000D02*
X121086000Y-113534000D01*
X121086000Y-96016000D02*
X121086000Y-103335000D01*
X121046000Y-106215000D02*
X121046000Y-113545000D01*
X121046000Y-96005000D02*
X121046000Y-103335000D01*
X121006000Y-106215000D02*
X121006000Y-113555000D01*
X121006000Y-95995000D02*
X121006000Y-103335000D01*
X120966000Y-95984000D02*
X120966000Y-113566000D01*
X120926000Y-95974000D02*
X120926000Y-113576000D01*
X120886000Y-95964000D02*
X120886000Y-113586000D01*
X120846000Y-95954000D02*
X120846000Y-113596000D01*
X120806000Y-95944000D02*
X120806000Y-113606000D01*
X120766000Y-95935000D02*
X120766000Y-113615000D01*
X120726000Y-95926000D02*
X120726000Y-113624000D01*
X120686000Y-95917000D02*
X120686000Y-113633000D01*
X120646000Y-95908000D02*
X120646000Y-113642000D01*
X120606000Y-95899000D02*
X120606000Y-113651000D01*
X120566000Y-95890000D02*
X120566000Y-113660000D01*
X120526000Y-95882000D02*
X120526000Y-113668000D01*
X120486000Y-95874000D02*
X120486000Y-113676000D01*
X120446000Y-95866000D02*
X120446000Y-113684000D01*
X120406000Y-95858000D02*
X120406000Y-113692000D01*
X120366000Y-95851000D02*
X120366000Y-113699000D01*
X120326000Y-95843000D02*
X120326000Y-113707000D01*
X120286000Y-95836000D02*
X120286000Y-113714000D01*
X120246000Y-95829000D02*
X120246000Y-113721000D01*
X120206000Y-95822000D02*
X120206000Y-113728000D01*
X120166000Y-95815000D02*
X120166000Y-113735000D01*
X120126000Y-95809000D02*
X120126000Y-113741000D01*
X120086000Y-95803000D02*
X120086000Y-113747000D01*
X120046000Y-95796000D02*
X120046000Y-113754000D01*
X120006000Y-95791000D02*
X120006000Y-113759000D01*
X119966000Y-95785000D02*
X119966000Y-113765000D01*
X119926000Y-95779000D02*
X119926000Y-113771000D01*
X119886000Y-95774000D02*
X119886000Y-113776000D01*
X119846000Y-95769000D02*
X119846000Y-113781000D01*
X119806000Y-95764000D02*
X119806000Y-113786000D01*
X119766000Y-95759000D02*
X119766000Y-113791000D01*
X119726000Y-95754000D02*
X119726000Y-113796000D01*
X119686000Y-95749000D02*
X119686000Y-113801000D01*
X119646000Y-95745000D02*
X119646000Y-113805000D01*
X119606000Y-95741000D02*
X119606000Y-113809000D01*
X119566000Y-95737000D02*
X119566000Y-113813000D01*
X119526000Y-95733000D02*
X119526000Y-113817000D01*
X119486000Y-95730000D02*
X119486000Y-113820000D01*
X119446000Y-95726000D02*
X119446000Y-113824000D01*
X119406000Y-95723000D02*
X119406000Y-113827000D01*
X119365000Y-95720000D02*
X119365000Y-113830000D01*
X119325000Y-95717000D02*
X119325000Y-113833000D01*
X119285000Y-95714000D02*
X119285000Y-113836000D01*
X119245000Y-95712000D02*
X119245000Y-113838000D01*
X119205000Y-95709000D02*
X119205000Y-113841000D01*
X119165000Y-95707000D02*
X119165000Y-113843000D01*
X119125000Y-95705000D02*
X119125000Y-113845000D01*
X119085000Y-95703000D02*
X119085000Y-113847000D01*
X119045000Y-95702000D02*
X119045000Y-113848000D01*
X119005000Y-95700000D02*
X119005000Y-113850000D01*
X118965000Y-95699000D02*
X118965000Y-113851000D01*
X118925000Y-95698000D02*
X118925000Y-113852000D01*
X118885000Y-95697000D02*
X118885000Y-113853000D01*
X118845000Y-95696000D02*
X118845000Y-113854000D01*
X118805000Y-95695000D02*
X118805000Y-113855000D01*
X118765000Y-95695000D02*
X118765000Y-113855000D01*
X118725000Y-95695000D02*
X118725000Y-113855000D01*
X118685000Y-95694000D02*
X118685000Y-113856000D01*
X127805000Y-104775000D02*
G75*
G03*
X127805000Y-104775000I-9120000J0D01*
G01*
X106280000Y-112864000D02*
X106280000Y-114380000D01*
X106280000Y-109140000D02*
X106280000Y-110656000D01*
X89540000Y-112864000D02*
X89540000Y-114380000D01*
X89540000Y-109140000D02*
X89540000Y-110656000D01*
X89540000Y-114380000D02*
X106280000Y-114380000D01*
X89540000Y-109140000D02*
X106280000Y-109140000D01*
X47675000Y-97065000D02*
X47675000Y-89625000D01*
X55115000Y-97065000D02*
X55115000Y-89625000D01*
X55115000Y-89625000D02*
X47675000Y-89625000D01*
X55115000Y-97065000D02*
X47675000Y-97065000D01*
X143135500Y-132060000D02*
X143135500Y-134460000D01*
X145535500Y-132060000D02*
X145535500Y-134460000D01*
X97860000Y-125255000D02*
X97860000Y-127655000D01*
X100260000Y-125255000D02*
X100260000Y-127655000D01*
X102178000Y-125255000D02*
X102178000Y-127655000D01*
X104578000Y-125255000D02*
X104578000Y-127655000D01*
X71685000Y-131465000D02*
X71685000Y-129065000D01*
X69285000Y-131465000D02*
X69285000Y-129065000D01*
X97860000Y-140495000D02*
X97860000Y-142895000D01*
X100260000Y-140495000D02*
X100260000Y-142895000D01*
X102178000Y-140495000D02*
X102178000Y-142895000D01*
X104578000Y-140495000D02*
X104578000Y-142895000D01*
X69020000Y-138215000D02*
X70220000Y-138215000D01*
X70220000Y-139915000D02*
X69020000Y-139915000D01*
X62845000Y-133915000D02*
X65245000Y-133915000D01*
X62845000Y-131515000D02*
X65245000Y-131515000D01*
X56585000Y-129065000D02*
X56585000Y-131465000D01*
X58985000Y-129065000D02*
X58985000Y-131465000D01*
X149523500Y-127698500D02*
G75*
G03*
X149523500Y-127698500I-1251000J0D01*
G01*
X149523500Y-122047000D02*
G75*
G03*
X149523500Y-122047000I-1251000J0D01*
G01*
X110820781Y-76200000D02*
G75*
G03*
X110820781Y-76200000I-1600781J0D01*
G01*
X120345781Y-76200000D02*
G75*
G03*
X120345781Y-76200000I-1600781J0D01*
G01*
X45066000Y-123190000D02*
G75*
G03*
X45066000Y-123190000I-1251000J0D01*
G01*
X45066000Y-132715000D02*
G75*
G03*
X45066000Y-132715000I-1251000J0D01*
G01*
X127805000Y-144145000D02*
G75*
G03*
X127805000Y-144145000I-9120000J0D01*
G01*
X118685000Y-135064000D02*
X118685000Y-153226000D01*
X118725000Y-135065000D02*
X118725000Y-153225000D01*
X118765000Y-135065000D02*
X118765000Y-153225000D01*
X118805000Y-135065000D02*
X118805000Y-153225000D01*
X118845000Y-135066000D02*
X118845000Y-153224000D01*
X118885000Y-135067000D02*
X118885000Y-153223000D01*
X118925000Y-135068000D02*
X118925000Y-153222000D01*
X118965000Y-135069000D02*
X118965000Y-153221000D01*
X119005000Y-135070000D02*
X119005000Y-153220000D01*
X119045000Y-135072000D02*
X119045000Y-153218000D01*
X119085000Y-135073000D02*
X119085000Y-153217000D01*
X119125000Y-135075000D02*
X119125000Y-153215000D01*
X119165000Y-135077000D02*
X119165000Y-153213000D01*
X119205000Y-135079000D02*
X119205000Y-153211000D01*
X119245000Y-135082000D02*
X119245000Y-153208000D01*
X119285000Y-135084000D02*
X119285000Y-153206000D01*
X119325000Y-135087000D02*
X119325000Y-153203000D01*
X119365000Y-135090000D02*
X119365000Y-153200000D01*
X119406000Y-135093000D02*
X119406000Y-153197000D01*
X119446000Y-135096000D02*
X119446000Y-153194000D01*
X119486000Y-135100000D02*
X119486000Y-153190000D01*
X119526000Y-135103000D02*
X119526000Y-153187000D01*
X119566000Y-135107000D02*
X119566000Y-153183000D01*
X119606000Y-135111000D02*
X119606000Y-153179000D01*
X119646000Y-135115000D02*
X119646000Y-153175000D01*
X119686000Y-135119000D02*
X119686000Y-153171000D01*
X119726000Y-135124000D02*
X119726000Y-153166000D01*
X119766000Y-135129000D02*
X119766000Y-153161000D01*
X119806000Y-135134000D02*
X119806000Y-153156000D01*
X119846000Y-135139000D02*
X119846000Y-153151000D01*
X119886000Y-135144000D02*
X119886000Y-153146000D01*
X119926000Y-135149000D02*
X119926000Y-153141000D01*
X119966000Y-135155000D02*
X119966000Y-153135000D01*
X120006000Y-135161000D02*
X120006000Y-153129000D01*
X120046000Y-135166000D02*
X120046000Y-153124000D01*
X120086000Y-135173000D02*
X120086000Y-153117000D01*
X120126000Y-135179000D02*
X120126000Y-153111000D01*
X120166000Y-135185000D02*
X120166000Y-153105000D01*
X120206000Y-135192000D02*
X120206000Y-153098000D01*
X120246000Y-135199000D02*
X120246000Y-153091000D01*
X120286000Y-135206000D02*
X120286000Y-153084000D01*
X120326000Y-135213000D02*
X120326000Y-153077000D01*
X120366000Y-135221000D02*
X120366000Y-153069000D01*
X120406000Y-135228000D02*
X120406000Y-153062000D01*
X120446000Y-135236000D02*
X120446000Y-153054000D01*
X120486000Y-135244000D02*
X120486000Y-153046000D01*
X120526000Y-135252000D02*
X120526000Y-153038000D01*
X120566000Y-135260000D02*
X120566000Y-153030000D01*
X120606000Y-135269000D02*
X120606000Y-153021000D01*
X120646000Y-135278000D02*
X120646000Y-153012000D01*
X120686000Y-135287000D02*
X120686000Y-153003000D01*
X120726000Y-135296000D02*
X120726000Y-152994000D01*
X120766000Y-135305000D02*
X120766000Y-152985000D01*
X120806000Y-135314000D02*
X120806000Y-152976000D01*
X120846000Y-135324000D02*
X120846000Y-152966000D01*
X120886000Y-135334000D02*
X120886000Y-152956000D01*
X120926000Y-135344000D02*
X120926000Y-152946000D01*
X120966000Y-135354000D02*
X120966000Y-152936000D01*
X121006000Y-135365000D02*
X121006000Y-142705000D01*
X121006000Y-145585000D02*
X121006000Y-152925000D01*
X121046000Y-135375000D02*
X121046000Y-142705000D01*
X121046000Y-145585000D02*
X121046000Y-152915000D01*
X121086000Y-135386000D02*
X121086000Y-142705000D01*
X121086000Y-145585000D02*
X121086000Y-152904000D01*
X121126000Y-135397000D02*
X121126000Y-142705000D01*
X121126000Y-145585000D02*
X121126000Y-152893000D01*
X121166000Y-135408000D02*
X121166000Y-142705000D01*
X121166000Y-145585000D02*
X121166000Y-152882000D01*
X121206000Y-135420000D02*
X121206000Y-142705000D01*
X121206000Y-145585000D02*
X121206000Y-152870000D01*
X121246000Y-135431000D02*
X121246000Y-142705000D01*
X121246000Y-145585000D02*
X121246000Y-152859000D01*
X121286000Y-135443000D02*
X121286000Y-142705000D01*
X121286000Y-145585000D02*
X121286000Y-152847000D01*
X121326000Y-135455000D02*
X121326000Y-142705000D01*
X121326000Y-145585000D02*
X121326000Y-152835000D01*
X121366000Y-135467000D02*
X121366000Y-142705000D01*
X121366000Y-145585000D02*
X121366000Y-152823000D01*
X121406000Y-135480000D02*
X121406000Y-142705000D01*
X121406000Y-145585000D02*
X121406000Y-152810000D01*
X121446000Y-135492000D02*
X121446000Y-142705000D01*
X121446000Y-145585000D02*
X121446000Y-152798000D01*
X121486000Y-135505000D02*
X121486000Y-142705000D01*
X121486000Y-145585000D02*
X121486000Y-152785000D01*
X121526000Y-135518000D02*
X121526000Y-142705000D01*
X121526000Y-145585000D02*
X121526000Y-152772000D01*
X121566000Y-135531000D02*
X121566000Y-142705000D01*
X121566000Y-145585000D02*
X121566000Y-152759000D01*
X121606000Y-135545000D02*
X121606000Y-142705000D01*
X121606000Y-145585000D02*
X121606000Y-152745000D01*
X121646000Y-135558000D02*
X121646000Y-142705000D01*
X121646000Y-145585000D02*
X121646000Y-152732000D01*
X121686000Y-135572000D02*
X121686000Y-142705000D01*
X121686000Y-145585000D02*
X121686000Y-152718000D01*
X121726000Y-135586000D02*
X121726000Y-142705000D01*
X121726000Y-145585000D02*
X121726000Y-152704000D01*
X121766000Y-135600000D02*
X121766000Y-142705000D01*
X121766000Y-145585000D02*
X121766000Y-152690000D01*
X121806000Y-135615000D02*
X121806000Y-142705000D01*
X121806000Y-145585000D02*
X121806000Y-152675000D01*
X121846000Y-135629000D02*
X121846000Y-142705000D01*
X121846000Y-145585000D02*
X121846000Y-152661000D01*
X121886000Y-135644000D02*
X121886000Y-142705000D01*
X121886000Y-145585000D02*
X121886000Y-152646000D01*
X121926000Y-135659000D02*
X121926000Y-142705000D01*
X121926000Y-145585000D02*
X121926000Y-152631000D01*
X121966000Y-135675000D02*
X121966000Y-142705000D01*
X121966000Y-145585000D02*
X121966000Y-152615000D01*
X122006000Y-135690000D02*
X122006000Y-142705000D01*
X122006000Y-145585000D02*
X122006000Y-152600000D01*
X122046000Y-135706000D02*
X122046000Y-142705000D01*
X122046000Y-145585000D02*
X122046000Y-152584000D01*
X122086000Y-135722000D02*
X122086000Y-142705000D01*
X122086000Y-145585000D02*
X122086000Y-152568000D01*
X122126000Y-135738000D02*
X122126000Y-142705000D01*
X122126000Y-145585000D02*
X122126000Y-152552000D01*
X122166000Y-135755000D02*
X122166000Y-142705000D01*
X122166000Y-145585000D02*
X122166000Y-152535000D01*
X122206000Y-135771000D02*
X122206000Y-142705000D01*
X122206000Y-145585000D02*
X122206000Y-152519000D01*
X122246000Y-135788000D02*
X122246000Y-142705000D01*
X122246000Y-145585000D02*
X122246000Y-152502000D01*
X122286000Y-135805000D02*
X122286000Y-142705000D01*
X122286000Y-145585000D02*
X122286000Y-152485000D01*
X122326000Y-135822000D02*
X122326000Y-142705000D01*
X122326000Y-145585000D02*
X122326000Y-152468000D01*
X122366000Y-135840000D02*
X122366000Y-142705000D01*
X122366000Y-145585000D02*
X122366000Y-152450000D01*
X122406000Y-135858000D02*
X122406000Y-142705000D01*
X122406000Y-145585000D02*
X122406000Y-152432000D01*
X122446000Y-135876000D02*
X122446000Y-142705000D01*
X122446000Y-145585000D02*
X122446000Y-152414000D01*
X122486000Y-135894000D02*
X122486000Y-142705000D01*
X122486000Y-145585000D02*
X122486000Y-152396000D01*
X122526000Y-135912000D02*
X122526000Y-142705000D01*
X122526000Y-145585000D02*
X122526000Y-152378000D01*
X122566000Y-135931000D02*
X122566000Y-142705000D01*
X122566000Y-145585000D02*
X122566000Y-152359000D01*
X122606000Y-135950000D02*
X122606000Y-142705000D01*
X122606000Y-145585000D02*
X122606000Y-152340000D01*
X122646000Y-135969000D02*
X122646000Y-142705000D01*
X122646000Y-145585000D02*
X122646000Y-152321000D01*
X122686000Y-135989000D02*
X122686000Y-142705000D01*
X122686000Y-145585000D02*
X122686000Y-152301000D01*
X122726000Y-136008000D02*
X122726000Y-142705000D01*
X122726000Y-145585000D02*
X122726000Y-152282000D01*
X122766000Y-136028000D02*
X122766000Y-142705000D01*
X122766000Y-145585000D02*
X122766000Y-152262000D01*
X122806000Y-136048000D02*
X122806000Y-142705000D01*
X122806000Y-145585000D02*
X122806000Y-152242000D01*
X122846000Y-136069000D02*
X122846000Y-142705000D01*
X122846000Y-145585000D02*
X122846000Y-152221000D01*
X122886000Y-136089000D02*
X122886000Y-142705000D01*
X122886000Y-145585000D02*
X122886000Y-152201000D01*
X122926000Y-136110000D02*
X122926000Y-142705000D01*
X122926000Y-145585000D02*
X122926000Y-152180000D01*
X122966000Y-136131000D02*
X122966000Y-142705000D01*
X122966000Y-145585000D02*
X122966000Y-152159000D01*
X123006000Y-136153000D02*
X123006000Y-142705000D01*
X123006000Y-145585000D02*
X123006000Y-152137000D01*
X123046000Y-136174000D02*
X123046000Y-142705000D01*
X123046000Y-145585000D02*
X123046000Y-152116000D01*
X123086000Y-136196000D02*
X123086000Y-142705000D01*
X123086000Y-145585000D02*
X123086000Y-152094000D01*
X123126000Y-136218000D02*
X123126000Y-142705000D01*
X123126000Y-145585000D02*
X123126000Y-152072000D01*
X123166000Y-136241000D02*
X123166000Y-142705000D01*
X123166000Y-145585000D02*
X123166000Y-152049000D01*
X123206000Y-136263000D02*
X123206000Y-142705000D01*
X123206000Y-145585000D02*
X123206000Y-152027000D01*
X123246000Y-136286000D02*
X123246000Y-142705000D01*
X123246000Y-145585000D02*
X123246000Y-152004000D01*
X123286000Y-136310000D02*
X123286000Y-142705000D01*
X123286000Y-145585000D02*
X123286000Y-151980000D01*
X123326000Y-136333000D02*
X123326000Y-142705000D01*
X123326000Y-145585000D02*
X123326000Y-151957000D01*
X123366000Y-136357000D02*
X123366000Y-142705000D01*
X123366000Y-145585000D02*
X123366000Y-151933000D01*
X123406000Y-136381000D02*
X123406000Y-142705000D01*
X123406000Y-145585000D02*
X123406000Y-151909000D01*
X123446000Y-136405000D02*
X123446000Y-142705000D01*
X123446000Y-145585000D02*
X123446000Y-151885000D01*
X123486000Y-136430000D02*
X123486000Y-142705000D01*
X123486000Y-145585000D02*
X123486000Y-151860000D01*
X123526000Y-136455000D02*
X123526000Y-142705000D01*
X123526000Y-145585000D02*
X123526000Y-151835000D01*
X123566000Y-136480000D02*
X123566000Y-142705000D01*
X123566000Y-145585000D02*
X123566000Y-151810000D01*
X123606000Y-136505000D02*
X123606000Y-142705000D01*
X123606000Y-145585000D02*
X123606000Y-151785000D01*
X123646000Y-136531000D02*
X123646000Y-142705000D01*
X123646000Y-145585000D02*
X123646000Y-151759000D01*
X123686000Y-136557000D02*
X123686000Y-142705000D01*
X123686000Y-145585000D02*
X123686000Y-151733000D01*
X123726000Y-136584000D02*
X123726000Y-142705000D01*
X123726000Y-145585000D02*
X123726000Y-151706000D01*
X123766000Y-136610000D02*
X123766000Y-142705000D01*
X123766000Y-145585000D02*
X123766000Y-151680000D01*
X123806000Y-136637000D02*
X123806000Y-142705000D01*
X123806000Y-145585000D02*
X123806000Y-151653000D01*
X123846000Y-136665000D02*
X123846000Y-142705000D01*
X123846000Y-145585000D02*
X123846000Y-151625000D01*
X123886000Y-136692000D02*
X123886000Y-151598000D01*
X123926000Y-136720000D02*
X123926000Y-151570000D01*
X123966000Y-136748000D02*
X123966000Y-151542000D01*
X124006000Y-136777000D02*
X124006000Y-151513000D01*
X124046000Y-136806000D02*
X124046000Y-151484000D01*
X124086000Y-136835000D02*
X124086000Y-151455000D01*
X124126000Y-136865000D02*
X124126000Y-151425000D01*
X124166000Y-136895000D02*
X124166000Y-151395000D01*
X124206000Y-136925000D02*
X124206000Y-151365000D01*
X124246000Y-136955000D02*
X124246000Y-151335000D01*
X124286000Y-136986000D02*
X124286000Y-151304000D01*
X124326000Y-137018000D02*
X124326000Y-151272000D01*
X124366000Y-137049000D02*
X124366000Y-151241000D01*
X124406000Y-137081000D02*
X124406000Y-151209000D01*
X124446000Y-137114000D02*
X124446000Y-151176000D01*
X124486000Y-137146000D02*
X124486000Y-151144000D01*
X124526000Y-137180000D02*
X124526000Y-151110000D01*
X124566000Y-137213000D02*
X124566000Y-151077000D01*
X124606000Y-137247000D02*
X124606000Y-151043000D01*
X124646000Y-137281000D02*
X124646000Y-151009000D01*
X124686000Y-137316000D02*
X124686000Y-150974000D01*
X124726000Y-137351000D02*
X124726000Y-150939000D01*
X124766000Y-137387000D02*
X124766000Y-150903000D01*
X124806000Y-137423000D02*
X124806000Y-150867000D01*
X124846000Y-137459000D02*
X124846000Y-150831000D01*
X124886000Y-137496000D02*
X124886000Y-150794000D01*
X124926000Y-137533000D02*
X124926000Y-150757000D01*
X124966000Y-137571000D02*
X124966000Y-150719000D01*
X125006000Y-137609000D02*
X125006000Y-150681000D01*
X125046000Y-137648000D02*
X125046000Y-150642000D01*
X125086000Y-137687000D02*
X125086000Y-150603000D01*
X125126000Y-137727000D02*
X125126000Y-150563000D01*
X125166000Y-137767000D02*
X125166000Y-150523000D01*
X125206000Y-137808000D02*
X125206000Y-150482000D01*
X125246000Y-137849000D02*
X125246000Y-150441000D01*
X125286000Y-137891000D02*
X125286000Y-150399000D01*
X125326000Y-137933000D02*
X125326000Y-150357000D01*
X125366000Y-137975000D02*
X125366000Y-150315000D01*
X125406000Y-138019000D02*
X125406000Y-150271000D01*
X125446000Y-138063000D02*
X125446000Y-150227000D01*
X125486000Y-138107000D02*
X125486000Y-150183000D01*
X125526000Y-138152000D02*
X125526000Y-150138000D01*
X125566000Y-138198000D02*
X125566000Y-150092000D01*
X125606000Y-138244000D02*
X125606000Y-150046000D01*
X125646000Y-138291000D02*
X125646000Y-149999000D01*
X125686000Y-138339000D02*
X125686000Y-149951000D01*
X125726000Y-138387000D02*
X125726000Y-149903000D01*
X125766000Y-138436000D02*
X125766000Y-149854000D01*
X125806000Y-138485000D02*
X125806000Y-149805000D01*
X125846000Y-138536000D02*
X125846000Y-149754000D01*
X125886000Y-138587000D02*
X125886000Y-149703000D01*
X125926000Y-138639000D02*
X125926000Y-149651000D01*
X125966000Y-138691000D02*
X125966000Y-149599000D01*
X126006000Y-138745000D02*
X126006000Y-149545000D01*
X126046000Y-138799000D02*
X126046000Y-149491000D01*
X126086000Y-138854000D02*
X126086000Y-149436000D01*
X126126000Y-138910000D02*
X126126000Y-149380000D01*
X126166000Y-138967000D02*
X126166000Y-149323000D01*
X126206000Y-139025000D02*
X126206000Y-149265000D01*
X126246000Y-139083000D02*
X126246000Y-149207000D01*
X126286000Y-139143000D02*
X126286000Y-149147000D01*
X126326000Y-139204000D02*
X126326000Y-149086000D01*
X126366000Y-139266000D02*
X126366000Y-149024000D01*
X126406000Y-139329000D02*
X126406000Y-148961000D01*
X126446000Y-139393000D02*
X126446000Y-148897000D01*
X126486000Y-139459000D02*
X126486000Y-148831000D01*
X126526000Y-139525000D02*
X126526000Y-148765000D01*
X126566000Y-139593000D02*
X126566000Y-148697000D01*
X126606000Y-139663000D02*
X126606000Y-148627000D01*
X126646000Y-139733000D02*
X126646000Y-148557000D01*
X126686000Y-139806000D02*
X126686000Y-148484000D01*
X126726000Y-139880000D02*
X126726000Y-148410000D01*
X126766000Y-139955000D02*
X126766000Y-148335000D01*
X126806000Y-140032000D02*
X126806000Y-148258000D01*
X126846000Y-140112000D02*
X126846000Y-148178000D01*
X126885000Y-140193000D02*
X126885000Y-148097000D01*
X126925000Y-140276000D02*
X126925000Y-148014000D01*
X126965000Y-140361000D02*
X126965000Y-147929000D01*
X127005000Y-140449000D02*
X127005000Y-147841000D01*
X127045000Y-140540000D02*
X127045000Y-147750000D01*
X127085000Y-140633000D02*
X127085000Y-147657000D01*
X127125000Y-140729000D02*
X127125000Y-147561000D01*
X127165000Y-140828000D02*
X127165000Y-147462000D01*
X127205000Y-140931000D02*
X127205000Y-147359000D01*
X127245000Y-141038000D02*
X127245000Y-147252000D01*
X127285000Y-141149000D02*
X127285000Y-147141000D01*
X127325000Y-141265000D02*
X127325000Y-147025000D01*
X127365000Y-141386000D02*
X127365000Y-146904000D01*
X127405000Y-141513000D02*
X127405000Y-146777000D01*
X127445000Y-141647000D02*
X127445000Y-146643000D01*
X127485000Y-141790000D02*
X127485000Y-146500000D01*
X127525000Y-141942000D02*
X127525000Y-146348000D01*
X127565000Y-142106000D02*
X127565000Y-146184000D01*
X127605000Y-142285000D02*
X127605000Y-146005000D01*
X127645000Y-142484000D02*
X127645000Y-145806000D01*
X127685000Y-142710000D02*
X127685000Y-145580000D01*
X127725000Y-142979000D02*
X127725000Y-145311000D01*
X127765000Y-143331000D02*
X127765000Y-144959000D01*
X127805000Y-144105000D02*
X127805000Y-144185000D01*
X108925560Y-139030000D02*
X110725560Y-139030000D01*
X109825560Y-138130000D02*
X109825560Y-139930000D01*
X89300000Y-147875000D02*
X106040000Y-147875000D01*
X89300000Y-153115000D02*
X106040000Y-153115000D01*
X89300000Y-147875000D02*
X89300000Y-149391000D01*
X89300000Y-151599000D02*
X89300000Y-153115000D01*
X106040000Y-147875000D02*
X106040000Y-149391000D01*
X106040000Y-151599000D02*
X106040000Y-153115000D01*
X55195000Y-136435000D02*
X47755000Y-136435000D01*
X55195000Y-128995000D02*
X47755000Y-128995000D01*
X55195000Y-136435000D02*
X55195000Y-128995000D01*
X47755000Y-136435000D02*
X47755000Y-128995000D01*
D13*
X79761880Y-88519000D02*
G75*
G03*
X79761880Y-88519000I-1199680J0D01*
G01*
X76129680Y-93522800D02*
G75*
G03*
X76129680Y-93522800I-1199680J0D01*
G01*
X76129680Y-99695000D02*
G75*
G03*
X76129680Y-99695000I-1199680J0D01*
G01*
X79761880Y-104698800D02*
G75*
G03*
X79761880Y-104698800I-1199680J0D01*
G01*
X85639440Y-106608880D02*
G75*
G03*
X85639440Y-106608880I-1199680J0D01*
G01*
X91517000Y-104698800D02*
G75*
G03*
X91517000Y-104698800I-1199680J0D01*
G01*
X95149200Y-99695000D02*
G75*
G03*
X95149200Y-99695000I-1199680J0D01*
G01*
X95149200Y-93522800D02*
G75*
G03*
X95149200Y-93522800I-1199680J0D01*
G01*
X91517000Y-88519000D02*
G75*
G03*
X91517000Y-88519000I-1199680J0D01*
G01*
X79761880Y-127889000D02*
G75*
G03*
X79761880Y-127889000I-1199680J0D01*
G01*
X76129680Y-132892800D02*
G75*
G03*
X76129680Y-132892800I-1199680J0D01*
G01*
X76129680Y-139065000D02*
G75*
G03*
X76129680Y-139065000I-1199680J0D01*
G01*
X79761880Y-144068800D02*
G75*
G03*
X79761880Y-144068800I-1199680J0D01*
G01*
X85639440Y-145978880D02*
G75*
G03*
X85639440Y-145978880I-1199680J0D01*
G01*
X91517000Y-144068800D02*
G75*
G03*
X91517000Y-144068800I-1199680J0D01*
G01*
X95149200Y-139065000D02*
G75*
G03*
X95149200Y-139065000I-1199680J0D01*
G01*
X95149200Y-132892800D02*
G75*
G03*
X95149200Y-132892800I-1199680J0D01*
G01*
X91517000Y-127889000D02*
G75*
G03*
X91517000Y-127889000I-1199680J0D01*
G01*
D10*
X144724380Y-119768857D02*
X144248190Y-120102190D01*
X144724380Y-120340285D02*
X143724380Y-120340285D01*
X143724380Y-119959333D01*
X143772000Y-119864095D01*
X143819619Y-119816476D01*
X143914857Y-119768857D01*
X144057714Y-119768857D01*
X144152952Y-119816476D01*
X144200571Y-119864095D01*
X144248190Y-119959333D01*
X144248190Y-120340285D01*
X143819619Y-119387904D02*
X143772000Y-119340285D01*
X143724380Y-119245047D01*
X143724380Y-119006952D01*
X143772000Y-118911714D01*
X143819619Y-118864095D01*
X143914857Y-118816476D01*
X144010095Y-118816476D01*
X144152952Y-118864095D01*
X144724380Y-119435523D01*
X144724380Y-118816476D01*
X144057714Y-117959333D02*
X144724380Y-117959333D01*
X143676761Y-118197428D02*
X144391047Y-118435523D01*
X144391047Y-117816476D01*
X144724380Y-99194857D02*
X144248190Y-99528190D01*
X144724380Y-99766285D02*
X143724380Y-99766285D01*
X143724380Y-99385333D01*
X143772000Y-99290095D01*
X143819619Y-99242476D01*
X143914857Y-99194857D01*
X144057714Y-99194857D01*
X144152952Y-99242476D01*
X144200571Y-99290095D01*
X144248190Y-99385333D01*
X144248190Y-99766285D01*
X143819619Y-98813904D02*
X143772000Y-98766285D01*
X143724380Y-98671047D01*
X143724380Y-98432952D01*
X143772000Y-98337714D01*
X143819619Y-98290095D01*
X143914857Y-98242476D01*
X144010095Y-98242476D01*
X144152952Y-98290095D01*
X144724380Y-98861523D01*
X144724380Y-98242476D01*
X143724380Y-97337714D02*
X143724380Y-97813904D01*
X144200571Y-97861523D01*
X144152952Y-97813904D01*
X144105333Y-97718666D01*
X144105333Y-97480571D01*
X144152952Y-97385333D01*
X144200571Y-97337714D01*
X144295809Y-97290095D01*
X144533904Y-97290095D01*
X144629142Y-97337714D01*
X144676761Y-97385333D01*
X144724380Y-97480571D01*
X144724380Y-97718666D01*
X144676761Y-97813904D01*
X144629142Y-97861523D01*
X138120380Y-109196095D02*
X137120380Y-109196095D01*
X138120380Y-108624666D02*
X137548952Y-109053238D01*
X137120380Y-108624666D02*
X137691809Y-109196095D01*
X138120380Y-107672285D02*
X138120380Y-108243714D01*
X138120380Y-107958000D02*
X137120380Y-107958000D01*
X137263238Y-108053238D01*
X137358476Y-108148476D01*
X137406095Y-108243714D01*
X139319095Y-150328380D02*
X139319095Y-151137904D01*
X139366714Y-151233142D01*
X139414333Y-151280761D01*
X139509571Y-151328380D01*
X139700047Y-151328380D01*
X139795285Y-151280761D01*
X139842904Y-151233142D01*
X139890523Y-151137904D01*
X139890523Y-150328380D01*
X140890523Y-151328380D02*
X140319095Y-151328380D01*
X140604809Y-151328380D02*
X140604809Y-150328380D01*
X140509571Y-150471238D01*
X140414333Y-150566476D01*
X140319095Y-150614095D01*
X140470142Y-147265380D02*
X140136809Y-146789190D01*
X139898714Y-147265380D02*
X139898714Y-146265380D01*
X140279666Y-146265380D01*
X140374904Y-146313000D01*
X140422523Y-146360619D01*
X140470142Y-146455857D01*
X140470142Y-146598714D01*
X140422523Y-146693952D01*
X140374904Y-146741571D01*
X140279666Y-146789190D01*
X139898714Y-146789190D01*
X140851095Y-146360619D02*
X140898714Y-146313000D01*
X140993952Y-146265380D01*
X141232047Y-146265380D01*
X141327285Y-146313000D01*
X141374904Y-146360619D01*
X141422523Y-146455857D01*
X141422523Y-146551095D01*
X141374904Y-146693952D01*
X140803476Y-147265380D01*
X141422523Y-147265380D01*
X141755857Y-146265380D02*
X142374904Y-146265380D01*
X142041571Y-146646333D01*
X142184428Y-146646333D01*
X142279666Y-146693952D01*
X142327285Y-146741571D01*
X142374904Y-146836809D01*
X142374904Y-147074904D01*
X142327285Y-147170142D01*
X142279666Y-147217761D01*
X142184428Y-147265380D01*
X141898714Y-147265380D01*
X141803476Y-147217761D01*
X141755857Y-147170142D01*
X137993380Y-146565857D02*
X137517190Y-146899190D01*
X137993380Y-147137285D02*
X136993380Y-147137285D01*
X136993380Y-146756333D01*
X137041000Y-146661095D01*
X137088619Y-146613476D01*
X137183857Y-146565857D01*
X137326714Y-146565857D01*
X137421952Y-146613476D01*
X137469571Y-146661095D01*
X137517190Y-146756333D01*
X137517190Y-147137285D01*
X137088619Y-146184904D02*
X137041000Y-146137285D01*
X136993380Y-146042047D01*
X136993380Y-145803952D01*
X137041000Y-145708714D01*
X137088619Y-145661095D01*
X137183857Y-145613476D01*
X137279095Y-145613476D01*
X137421952Y-145661095D01*
X137993380Y-146232523D01*
X137993380Y-145613476D01*
X136993380Y-144994428D02*
X136993380Y-144899190D01*
X137041000Y-144803952D01*
X137088619Y-144756333D01*
X137183857Y-144708714D01*
X137374333Y-144661095D01*
X137612428Y-144661095D01*
X137802904Y-144708714D01*
X137898142Y-144756333D01*
X137945761Y-144803952D01*
X137993380Y-144899190D01*
X137993380Y-144994428D01*
X137945761Y-145089666D01*
X137898142Y-145137285D01*
X137802904Y-145184904D01*
X137612428Y-145232523D01*
X137374333Y-145232523D01*
X137183857Y-145184904D01*
X137088619Y-145137285D01*
X137041000Y-145089666D01*
X136993380Y-144994428D01*
X133929380Y-146565857D02*
X133453190Y-146899190D01*
X133929380Y-147137285D02*
X132929380Y-147137285D01*
X132929380Y-146756333D01*
X132977000Y-146661095D01*
X133024619Y-146613476D01*
X133119857Y-146565857D01*
X133262714Y-146565857D01*
X133357952Y-146613476D01*
X133405571Y-146661095D01*
X133453190Y-146756333D01*
X133453190Y-147137285D01*
X133929380Y-145613476D02*
X133929380Y-146184904D01*
X133929380Y-145899190D02*
X132929380Y-145899190D01*
X133072238Y-145994428D01*
X133167476Y-146089666D01*
X133215095Y-146184904D01*
X133929380Y-145137285D02*
X133929380Y-144946809D01*
X133881761Y-144851571D01*
X133834142Y-144803952D01*
X133691285Y-144708714D01*
X133500809Y-144661095D01*
X133119857Y-144661095D01*
X133024619Y-144708714D01*
X132977000Y-144756333D01*
X132929380Y-144851571D01*
X132929380Y-145042047D01*
X132977000Y-145137285D01*
X133024619Y-145184904D01*
X133119857Y-145232523D01*
X133357952Y-145232523D01*
X133453190Y-145184904D01*
X133500809Y-145137285D01*
X133548428Y-145042047D01*
X133548428Y-144851571D01*
X133500809Y-144756333D01*
X133453190Y-144708714D01*
X133357952Y-144661095D01*
X156061619Y-112363238D02*
X156014000Y-112458476D01*
X155918761Y-112553714D01*
X155775904Y-112696571D01*
X155728285Y-112791809D01*
X155728285Y-112887047D01*
X155966380Y-112839428D02*
X155918761Y-112934666D01*
X155823523Y-113029904D01*
X155633047Y-113077523D01*
X155299714Y-113077523D01*
X155109238Y-113029904D01*
X155014000Y-112934666D01*
X154966380Y-112839428D01*
X154966380Y-112648952D01*
X155014000Y-112553714D01*
X155109238Y-112458476D01*
X155299714Y-112410857D01*
X155633047Y-112410857D01*
X155823523Y-112458476D01*
X155918761Y-112553714D01*
X155966380Y-112648952D01*
X155966380Y-112839428D01*
X155966380Y-111458476D02*
X155966380Y-112029904D01*
X155966380Y-111744190D02*
X154966380Y-111744190D01*
X155109238Y-111839428D01*
X155204476Y-111934666D01*
X155252095Y-112029904D01*
X153582380Y-109450095D02*
X152582380Y-109450095D01*
X152582380Y-109212000D01*
X152630000Y-109069142D01*
X152725238Y-108973904D01*
X152820476Y-108926285D01*
X153010952Y-108878666D01*
X153153809Y-108878666D01*
X153344285Y-108926285D01*
X153439523Y-108973904D01*
X153534761Y-109069142D01*
X153582380Y-109212000D01*
X153582380Y-109450095D01*
X152915714Y-108021523D02*
X153582380Y-108021523D01*
X152534761Y-108259619D02*
X153249047Y-108497714D01*
X153249047Y-107878666D01*
X131135380Y-146661095D02*
X130135380Y-146661095D01*
X130135380Y-146423000D01*
X130183000Y-146280142D01*
X130278238Y-146184904D01*
X130373476Y-146137285D01*
X130563952Y-146089666D01*
X130706809Y-146089666D01*
X130897285Y-146137285D01*
X130992523Y-146184904D01*
X131087761Y-146280142D01*
X131135380Y-146423000D01*
X131135380Y-146661095D01*
X130135380Y-145756333D02*
X130135380Y-145137285D01*
X130516333Y-145470619D01*
X130516333Y-145327761D01*
X130563952Y-145232523D01*
X130611571Y-145184904D01*
X130706809Y-145137285D01*
X130944904Y-145137285D01*
X131040142Y-145184904D01*
X131087761Y-145232523D01*
X131135380Y-145327761D01*
X131135380Y-145613476D01*
X131087761Y-145708714D01*
X131040142Y-145756333D01*
X144248142Y-154693857D02*
X144295761Y-154741476D01*
X144343380Y-154884333D01*
X144343380Y-154979571D01*
X144295761Y-155122428D01*
X144200523Y-155217666D01*
X144105285Y-155265285D01*
X143914809Y-155312904D01*
X143771952Y-155312904D01*
X143581476Y-155265285D01*
X143486238Y-155217666D01*
X143391000Y-155122428D01*
X143343380Y-154979571D01*
X143343380Y-154884333D01*
X143391000Y-154741476D01*
X143438619Y-154693857D01*
X144343380Y-153741476D02*
X144343380Y-154312904D01*
X144343380Y-154027190D02*
X143343380Y-154027190D01*
X143486238Y-154122428D01*
X143581476Y-154217666D01*
X143629095Y-154312904D01*
X143343380Y-152836714D02*
X143343380Y-153312904D01*
X143819571Y-153360523D01*
X143771952Y-153312904D01*
X143724333Y-153217666D01*
X143724333Y-152979571D01*
X143771952Y-152884333D01*
X143819571Y-152836714D01*
X143914809Y-152789095D01*
X144152904Y-152789095D01*
X144248142Y-152836714D01*
X144295761Y-152884333D01*
X144343380Y-152979571D01*
X144343380Y-153217666D01*
X144295761Y-153312904D01*
X144248142Y-153360523D01*
X140962142Y-160377142D02*
X140914523Y-160424761D01*
X140771666Y-160472380D01*
X140676428Y-160472380D01*
X140533571Y-160424761D01*
X140438333Y-160329523D01*
X140390714Y-160234285D01*
X140343095Y-160043809D01*
X140343095Y-159900952D01*
X140390714Y-159710476D01*
X140438333Y-159615238D01*
X140533571Y-159520000D01*
X140676428Y-159472380D01*
X140771666Y-159472380D01*
X140914523Y-159520000D01*
X140962142Y-159567619D01*
X141914523Y-160472380D02*
X141343095Y-160472380D01*
X141628809Y-160472380D02*
X141628809Y-159472380D01*
X141533571Y-159615238D01*
X141438333Y-159710476D01*
X141343095Y-159758095D01*
X142771666Y-159805714D02*
X142771666Y-160472380D01*
X142533571Y-159424761D02*
X142295476Y-160139047D01*
X142914523Y-160139047D01*
X127940142Y-157589857D02*
X127987761Y-157637476D01*
X128035380Y-157780333D01*
X128035380Y-157875571D01*
X127987761Y-158018428D01*
X127892523Y-158113666D01*
X127797285Y-158161285D01*
X127606809Y-158208904D01*
X127463952Y-158208904D01*
X127273476Y-158161285D01*
X127178238Y-158113666D01*
X127083000Y-158018428D01*
X127035380Y-157875571D01*
X127035380Y-157780333D01*
X127083000Y-157637476D01*
X127130619Y-157589857D01*
X128035380Y-156637476D02*
X128035380Y-157208904D01*
X128035380Y-156923190D02*
X127035380Y-156923190D01*
X127178238Y-157018428D01*
X127273476Y-157113666D01*
X127321095Y-157208904D01*
X127035380Y-156304142D02*
X127035380Y-155685095D01*
X127416333Y-156018428D01*
X127416333Y-155875571D01*
X127463952Y-155780333D01*
X127511571Y-155732714D01*
X127606809Y-155685095D01*
X127844904Y-155685095D01*
X127940142Y-155732714D01*
X127987761Y-155780333D01*
X128035380Y-155875571D01*
X128035380Y-156161285D01*
X127987761Y-156256523D01*
X127940142Y-156304142D01*
D14*
X83278617Y-108474328D02*
X84149474Y-108474328D01*
X83714045Y-109998328D02*
X83714045Y-108474328D01*
X84584902Y-108619471D02*
X84657474Y-108546900D01*
X84802617Y-108474328D01*
X85165474Y-108474328D01*
X85310617Y-108546900D01*
X85383188Y-108619471D01*
X85455760Y-108764614D01*
X85455760Y-108909757D01*
X85383188Y-109127471D01*
X84512331Y-109998328D01*
X85455760Y-109998328D01*
X83278617Y-147844328D02*
X84149474Y-147844328D01*
X83714045Y-149368328D02*
X83714045Y-147844328D01*
X85455760Y-149368328D02*
X84584902Y-149368328D01*
X85020331Y-149368328D02*
X85020331Y-147844328D01*
X84875188Y-148062042D01*
X84730045Y-148207185D01*
X84584902Y-148279757D01*
D10*
X110648380Y-97980095D02*
X109648380Y-97980095D01*
X109648380Y-97742000D01*
X109696000Y-97599142D01*
X109791238Y-97503904D01*
X109886476Y-97456285D01*
X110076952Y-97408666D01*
X110219809Y-97408666D01*
X110410285Y-97456285D01*
X110505523Y-97503904D01*
X110600761Y-97599142D01*
X110648380Y-97742000D01*
X110648380Y-97980095D01*
X109743619Y-97027714D02*
X109696000Y-96980095D01*
X109648380Y-96884857D01*
X109648380Y-96646761D01*
X109696000Y-96551523D01*
X109743619Y-96503904D01*
X109838857Y-96456285D01*
X109934095Y-96456285D01*
X110076952Y-96503904D01*
X110648380Y-97075333D01*
X110648380Y-96456285D01*
X110648380Y-137430095D02*
X109648380Y-137430095D01*
X109648380Y-137192000D01*
X109696000Y-137049142D01*
X109791238Y-136953904D01*
X109886476Y-136906285D01*
X110076952Y-136858666D01*
X110219809Y-136858666D01*
X110410285Y-136906285D01*
X110505523Y-136953904D01*
X110600761Y-137049142D01*
X110648380Y-137192000D01*
X110648380Y-137430095D01*
X110648380Y-135906285D02*
X110648380Y-136477714D01*
X110648380Y-136192000D02*
X109648380Y-136192000D01*
X109791238Y-136287238D01*
X109886476Y-136382476D01*
X109934095Y-136477714D01*
X125978333Y-96007142D02*
X125930714Y-96054761D01*
X125787857Y-96102380D01*
X125692619Y-96102380D01*
X125549761Y-96054761D01*
X125454523Y-95959523D01*
X125406904Y-95864285D01*
X125359285Y-95673809D01*
X125359285Y-95530952D01*
X125406904Y-95340476D01*
X125454523Y-95245238D01*
X125549761Y-95150000D01*
X125692619Y-95102380D01*
X125787857Y-95102380D01*
X125930714Y-95150000D01*
X125978333Y-95197619D01*
X126549761Y-95530952D02*
X126454523Y-95483333D01*
X126406904Y-95435714D01*
X126359285Y-95340476D01*
X126359285Y-95292857D01*
X126406904Y-95197619D01*
X126454523Y-95150000D01*
X126549761Y-95102380D01*
X126740238Y-95102380D01*
X126835476Y-95150000D01*
X126883095Y-95197619D01*
X126930714Y-95292857D01*
X126930714Y-95340476D01*
X126883095Y-95435714D01*
X126835476Y-95483333D01*
X126740238Y-95530952D01*
X126549761Y-95530952D01*
X126454523Y-95578571D01*
X126406904Y-95626190D01*
X126359285Y-95721428D01*
X126359285Y-95911904D01*
X126406904Y-96007142D01*
X126454523Y-96054761D01*
X126549761Y-96102380D01*
X126740238Y-96102380D01*
X126835476Y-96054761D01*
X126883095Y-96007142D01*
X126930714Y-95911904D01*
X126930714Y-95721428D01*
X126883095Y-95626190D01*
X126835476Y-95578571D01*
X126740238Y-95530952D01*
X125978333Y-136012142D02*
X125930714Y-136059761D01*
X125787857Y-136107380D01*
X125692619Y-136107380D01*
X125549761Y-136059761D01*
X125454523Y-135964523D01*
X125406904Y-135869285D01*
X125359285Y-135678809D01*
X125359285Y-135535952D01*
X125406904Y-135345476D01*
X125454523Y-135250238D01*
X125549761Y-135155000D01*
X125692619Y-135107380D01*
X125787857Y-135107380D01*
X125930714Y-135155000D01*
X125978333Y-135202619D01*
X126835476Y-135440714D02*
X126835476Y-136107380D01*
X126597380Y-135059761D02*
X126359285Y-135774047D01*
X126978333Y-135774047D01*
X69267142Y-121367142D02*
X69219523Y-121414761D01*
X69076666Y-121462380D01*
X68981428Y-121462380D01*
X68838571Y-121414761D01*
X68743333Y-121319523D01*
X68695714Y-121224285D01*
X68648095Y-121033809D01*
X68648095Y-120890952D01*
X68695714Y-120700476D01*
X68743333Y-120605238D01*
X68838571Y-120510000D01*
X68981428Y-120462380D01*
X69076666Y-120462380D01*
X69219523Y-120510000D01*
X69267142Y-120557619D01*
X70219523Y-121462380D02*
X69648095Y-121462380D01*
X69933809Y-121462380D02*
X69933809Y-120462380D01*
X69838571Y-120605238D01*
X69743333Y-120700476D01*
X69648095Y-120748095D01*
X70600476Y-120557619D02*
X70648095Y-120510000D01*
X70743333Y-120462380D01*
X70981428Y-120462380D01*
X71076666Y-120510000D01*
X71124285Y-120557619D01*
X71171904Y-120652857D01*
X71171904Y-120748095D01*
X71124285Y-120890952D01*
X70552857Y-121462380D01*
X71171904Y-121462380D01*
X83883142Y-117482857D02*
X83930761Y-117530476D01*
X83978380Y-117673333D01*
X83978380Y-117768571D01*
X83930761Y-117911428D01*
X83835523Y-118006666D01*
X83740285Y-118054285D01*
X83549809Y-118101904D01*
X83406952Y-118101904D01*
X83216476Y-118054285D01*
X83121238Y-118006666D01*
X83026000Y-117911428D01*
X82978380Y-117768571D01*
X82978380Y-117673333D01*
X83026000Y-117530476D01*
X83073619Y-117482857D01*
X83978380Y-116530476D02*
X83978380Y-117101904D01*
X83978380Y-116816190D02*
X82978380Y-116816190D01*
X83121238Y-116911428D01*
X83216476Y-117006666D01*
X83264095Y-117101904D01*
X83978380Y-115578095D02*
X83978380Y-116149523D01*
X83978380Y-115863809D02*
X82978380Y-115863809D01*
X83121238Y-115959047D01*
X83216476Y-116054285D01*
X83264095Y-116149523D01*
X69267142Y-160737142D02*
X69219523Y-160784761D01*
X69076666Y-160832380D01*
X68981428Y-160832380D01*
X68838571Y-160784761D01*
X68743333Y-160689523D01*
X68695714Y-160594285D01*
X68648095Y-160403809D01*
X68648095Y-160260952D01*
X68695714Y-160070476D01*
X68743333Y-159975238D01*
X68838571Y-159880000D01*
X68981428Y-159832380D01*
X69076666Y-159832380D01*
X69219523Y-159880000D01*
X69267142Y-159927619D01*
X70219523Y-160832380D02*
X69648095Y-160832380D01*
X69933809Y-160832380D02*
X69933809Y-159832380D01*
X69838571Y-159975238D01*
X69743333Y-160070476D01*
X69648095Y-160118095D01*
X70838571Y-159832380D02*
X70933809Y-159832380D01*
X71029047Y-159880000D01*
X71076666Y-159927619D01*
X71124285Y-160022857D01*
X71171904Y-160213333D01*
X71171904Y-160451428D01*
X71124285Y-160641904D01*
X71076666Y-160737142D01*
X71029047Y-160784761D01*
X70933809Y-160832380D01*
X70838571Y-160832380D01*
X70743333Y-160784761D01*
X70695714Y-160737142D01*
X70648095Y-160641904D01*
X70600476Y-160451428D01*
X70600476Y-160213333D01*
X70648095Y-160022857D01*
X70695714Y-159927619D01*
X70743333Y-159880000D01*
X70838571Y-159832380D01*
X83883142Y-153796666D02*
X83930761Y-153844285D01*
X83978380Y-153987142D01*
X83978380Y-154082380D01*
X83930761Y-154225238D01*
X83835523Y-154320476D01*
X83740285Y-154368095D01*
X83549809Y-154415714D01*
X83406952Y-154415714D01*
X83216476Y-154368095D01*
X83121238Y-154320476D01*
X83026000Y-154225238D01*
X82978380Y-154082380D01*
X82978380Y-153987142D01*
X83026000Y-153844285D01*
X83073619Y-153796666D01*
X83978380Y-153320476D02*
X83978380Y-153130000D01*
X83930761Y-153034761D01*
X83883142Y-152987142D01*
X83740285Y-152891904D01*
X83549809Y-152844285D01*
X83168857Y-152844285D01*
X83073619Y-152891904D01*
X83026000Y-152939523D01*
X82978380Y-153034761D01*
X82978380Y-153225238D01*
X83026000Y-153320476D01*
X83073619Y-153368095D01*
X83168857Y-153415714D01*
X83406952Y-153415714D01*
X83502190Y-153368095D01*
X83549809Y-153320476D01*
X83597428Y-153225238D01*
X83597428Y-153034761D01*
X83549809Y-152939523D01*
X83502190Y-152891904D01*
X83406952Y-152844285D01*
X144724380Y-79890857D02*
X144248190Y-80224190D01*
X144724380Y-80462285D02*
X143724380Y-80462285D01*
X143724380Y-80081333D01*
X143772000Y-79986095D01*
X143819619Y-79938476D01*
X143914857Y-79890857D01*
X144057714Y-79890857D01*
X144152952Y-79938476D01*
X144200571Y-79986095D01*
X144248190Y-80081333D01*
X144248190Y-80462285D01*
X144724380Y-78938476D02*
X144724380Y-79509904D01*
X144724380Y-79224190D02*
X143724380Y-79224190D01*
X143867238Y-79319428D01*
X143962476Y-79414666D01*
X144010095Y-79509904D01*
X144152952Y-78367047D02*
X144105333Y-78462285D01*
X144057714Y-78509904D01*
X143962476Y-78557523D01*
X143914857Y-78557523D01*
X143819619Y-78509904D01*
X143772000Y-78462285D01*
X143724380Y-78367047D01*
X143724380Y-78176571D01*
X143772000Y-78081333D01*
X143819619Y-78033714D01*
X143914857Y-77986095D01*
X143962476Y-77986095D01*
X144057714Y-78033714D01*
X144105333Y-78081333D01*
X144152952Y-78176571D01*
X144152952Y-78367047D01*
X144200571Y-78462285D01*
X144248190Y-78509904D01*
X144343428Y-78557523D01*
X144533904Y-78557523D01*
X144629142Y-78509904D01*
X144676761Y-78462285D01*
X144724380Y-78367047D01*
X144724380Y-78176571D01*
X144676761Y-78081333D01*
X144629142Y-78033714D01*
X144533904Y-77986095D01*
X144343428Y-77986095D01*
X144248190Y-78033714D01*
X144200571Y-78081333D01*
X144152952Y-78176571D01*
X96972380Y-92042857D02*
X96496190Y-92376190D01*
X96972380Y-92614285D02*
X95972380Y-92614285D01*
X95972380Y-92233333D01*
X96020000Y-92138095D01*
X96067619Y-92090476D01*
X96162857Y-92042857D01*
X96305714Y-92042857D01*
X96400952Y-92090476D01*
X96448571Y-92138095D01*
X96496190Y-92233333D01*
X96496190Y-92614285D01*
X96972380Y-91090476D02*
X96972380Y-91661904D01*
X96972380Y-91376190D02*
X95972380Y-91376190D01*
X96115238Y-91471428D01*
X96210476Y-91566666D01*
X96258095Y-91661904D01*
X95972380Y-90757142D02*
X95972380Y-90090476D01*
X96972380Y-90519047D01*
X101290380Y-92042857D02*
X100814190Y-92376190D01*
X101290380Y-92614285D02*
X100290380Y-92614285D01*
X100290380Y-92233333D01*
X100338000Y-92138095D01*
X100385619Y-92090476D01*
X100480857Y-92042857D01*
X100623714Y-92042857D01*
X100718952Y-92090476D01*
X100766571Y-92138095D01*
X100814190Y-92233333D01*
X100814190Y-92614285D01*
X101290380Y-91090476D02*
X101290380Y-91661904D01*
X101290380Y-91376190D02*
X100290380Y-91376190D01*
X100433238Y-91471428D01*
X100528476Y-91566666D01*
X100576095Y-91661904D01*
X100290380Y-90233333D02*
X100290380Y-90423809D01*
X100338000Y-90519047D01*
X100385619Y-90566666D01*
X100528476Y-90661904D01*
X100718952Y-90709523D01*
X101099904Y-90709523D01*
X101195142Y-90661904D01*
X101242761Y-90614285D01*
X101290380Y-90519047D01*
X101290380Y-90328571D01*
X101242761Y-90233333D01*
X101195142Y-90185714D01*
X101099904Y-90138095D01*
X100861809Y-90138095D01*
X100766571Y-90185714D01*
X100718952Y-90233333D01*
X100671333Y-90328571D01*
X100671333Y-90519047D01*
X100718952Y-90614285D01*
X100766571Y-90661904D01*
X100861809Y-90709523D01*
X73477380Y-88907857D02*
X73001190Y-89241190D01*
X73477380Y-89479285D02*
X72477380Y-89479285D01*
X72477380Y-89098333D01*
X72525000Y-89003095D01*
X72572619Y-88955476D01*
X72667857Y-88907857D01*
X72810714Y-88907857D01*
X72905952Y-88955476D01*
X72953571Y-89003095D01*
X73001190Y-89098333D01*
X73001190Y-89479285D01*
X73477380Y-87955476D02*
X73477380Y-88526904D01*
X73477380Y-88241190D02*
X72477380Y-88241190D01*
X72620238Y-88336428D01*
X72715476Y-88431666D01*
X72763095Y-88526904D01*
X72477380Y-87050714D02*
X72477380Y-87526904D01*
X72953571Y-87574523D01*
X72905952Y-87526904D01*
X72858333Y-87431666D01*
X72858333Y-87193571D01*
X72905952Y-87098333D01*
X72953571Y-87050714D01*
X73048809Y-87003095D01*
X73286904Y-87003095D01*
X73382142Y-87050714D01*
X73429761Y-87098333D01*
X73477380Y-87193571D01*
X73477380Y-87431666D01*
X73429761Y-87526904D01*
X73382142Y-87574523D01*
X96972380Y-102877857D02*
X96496190Y-103211190D01*
X96972380Y-103449285D02*
X95972380Y-103449285D01*
X95972380Y-103068333D01*
X96020000Y-102973095D01*
X96067619Y-102925476D01*
X96162857Y-102877857D01*
X96305714Y-102877857D01*
X96400952Y-102925476D01*
X96448571Y-102973095D01*
X96496190Y-103068333D01*
X96496190Y-103449285D01*
X96972380Y-101925476D02*
X96972380Y-102496904D01*
X96972380Y-102211190D02*
X95972380Y-102211190D01*
X96115238Y-102306428D01*
X96210476Y-102401666D01*
X96258095Y-102496904D01*
X96305714Y-101068333D02*
X96972380Y-101068333D01*
X95924761Y-101306428D02*
X96639047Y-101544523D01*
X96639047Y-100925476D01*
X101290380Y-102877857D02*
X100814190Y-103211190D01*
X101290380Y-103449285D02*
X100290380Y-103449285D01*
X100290380Y-103068333D01*
X100338000Y-102973095D01*
X100385619Y-102925476D01*
X100480857Y-102877857D01*
X100623714Y-102877857D01*
X100718952Y-102925476D01*
X100766571Y-102973095D01*
X100814190Y-103068333D01*
X100814190Y-103449285D01*
X101290380Y-101925476D02*
X101290380Y-102496904D01*
X101290380Y-102211190D02*
X100290380Y-102211190D01*
X100433238Y-102306428D01*
X100528476Y-102401666D01*
X100576095Y-102496904D01*
X100290380Y-101592142D02*
X100290380Y-100973095D01*
X100671333Y-101306428D01*
X100671333Y-101163571D01*
X100718952Y-101068333D01*
X100766571Y-101020714D01*
X100861809Y-100973095D01*
X101099904Y-100973095D01*
X101195142Y-101020714D01*
X101242761Y-101068333D01*
X101290380Y-101163571D01*
X101290380Y-101449285D01*
X101242761Y-101544523D01*
X101195142Y-101592142D01*
X68977142Y-102687380D02*
X68643809Y-102211190D01*
X68405714Y-102687380D02*
X68405714Y-101687380D01*
X68786666Y-101687380D01*
X68881904Y-101735000D01*
X68929523Y-101782619D01*
X68977142Y-101877857D01*
X68977142Y-102020714D01*
X68929523Y-102115952D01*
X68881904Y-102163571D01*
X68786666Y-102211190D01*
X68405714Y-102211190D01*
X69929523Y-102687380D02*
X69358095Y-102687380D01*
X69643809Y-102687380D02*
X69643809Y-101687380D01*
X69548571Y-101830238D01*
X69453333Y-101925476D01*
X69358095Y-101973095D01*
X70310476Y-101782619D02*
X70358095Y-101735000D01*
X70453333Y-101687380D01*
X70691428Y-101687380D01*
X70786666Y-101735000D01*
X70834285Y-101782619D01*
X70881904Y-101877857D01*
X70881904Y-101973095D01*
X70834285Y-102115952D01*
X70262857Y-102687380D01*
X70881904Y-102687380D01*
X63352142Y-96337380D02*
X63018809Y-95861190D01*
X62780714Y-96337380D02*
X62780714Y-95337380D01*
X63161666Y-95337380D01*
X63256904Y-95385000D01*
X63304523Y-95432619D01*
X63352142Y-95527857D01*
X63352142Y-95670714D01*
X63304523Y-95765952D01*
X63256904Y-95813571D01*
X63161666Y-95861190D01*
X62780714Y-95861190D01*
X64304523Y-96337380D02*
X63733095Y-96337380D01*
X64018809Y-96337380D02*
X64018809Y-95337380D01*
X63923571Y-95480238D01*
X63828333Y-95575476D01*
X63733095Y-95623095D01*
X65256904Y-96337380D02*
X64685476Y-96337380D01*
X64971190Y-96337380D02*
X64971190Y-95337380D01*
X64875952Y-95480238D01*
X64780714Y-95575476D01*
X64685476Y-95623095D01*
X60777380Y-99067857D02*
X60301190Y-99401190D01*
X60777380Y-99639285D02*
X59777380Y-99639285D01*
X59777380Y-99258333D01*
X59825000Y-99163095D01*
X59872619Y-99115476D01*
X59967857Y-99067857D01*
X60110714Y-99067857D01*
X60205952Y-99115476D01*
X60253571Y-99163095D01*
X60301190Y-99258333D01*
X60301190Y-99639285D01*
X60777380Y-98115476D02*
X60777380Y-98686904D01*
X60777380Y-98401190D02*
X59777380Y-98401190D01*
X59920238Y-98496428D01*
X60015476Y-98591666D01*
X60063095Y-98686904D01*
X59777380Y-97496428D02*
X59777380Y-97401190D01*
X59825000Y-97305952D01*
X59872619Y-97258333D01*
X59967857Y-97210714D01*
X60158333Y-97163095D01*
X60396428Y-97163095D01*
X60586904Y-97210714D01*
X60682142Y-97258333D01*
X60729761Y-97305952D01*
X60777380Y-97401190D01*
X60777380Y-97496428D01*
X60729761Y-97591666D01*
X60682142Y-97639285D01*
X60586904Y-97686904D01*
X60396428Y-97734523D01*
X60158333Y-97734523D01*
X59967857Y-97686904D01*
X59872619Y-97639285D01*
X59825000Y-97591666D01*
X59777380Y-97496428D01*
X147526476Y-87336380D02*
X147526476Y-88050666D01*
X147478857Y-88193523D01*
X147383619Y-88288761D01*
X147240761Y-88336380D01*
X147145523Y-88336380D01*
X148526476Y-88336380D02*
X147955047Y-88336380D01*
X148240761Y-88336380D02*
X148240761Y-87336380D01*
X148145523Y-87479238D01*
X148050285Y-87574476D01*
X147955047Y-87622095D01*
X148907428Y-87431619D02*
X148955047Y-87384000D01*
X149050285Y-87336380D01*
X149288380Y-87336380D01*
X149383619Y-87384000D01*
X149431238Y-87431619D01*
X149478857Y-87526857D01*
X149478857Y-87622095D01*
X149431238Y-87764952D01*
X148859809Y-88336380D01*
X149478857Y-88336380D01*
X147526476Y-98004380D02*
X147526476Y-98718666D01*
X147478857Y-98861523D01*
X147383619Y-98956761D01*
X147240761Y-99004380D01*
X147145523Y-99004380D01*
X148526476Y-99004380D02*
X147955047Y-99004380D01*
X148240761Y-99004380D02*
X148240761Y-98004380D01*
X148145523Y-98147238D01*
X148050285Y-98242476D01*
X147955047Y-98290095D01*
X149478857Y-99004380D02*
X148907428Y-99004380D01*
X149193142Y-99004380D02*
X149193142Y-98004380D01*
X149097904Y-98147238D01*
X149002666Y-98242476D01*
X148907428Y-98290095D01*
X73866476Y-78827380D02*
X73866476Y-79541666D01*
X73818857Y-79684523D01*
X73723619Y-79779761D01*
X73580761Y-79827380D01*
X73485523Y-79827380D01*
X74866476Y-79827380D02*
X74295047Y-79827380D01*
X74580761Y-79827380D02*
X74580761Y-78827380D01*
X74485523Y-78970238D01*
X74390285Y-79065476D01*
X74295047Y-79113095D01*
X75485523Y-78827380D02*
X75580761Y-78827380D01*
X75676000Y-78875000D01*
X75723619Y-78922619D01*
X75771238Y-79017857D01*
X75818857Y-79208333D01*
X75818857Y-79446428D01*
X75771238Y-79636904D01*
X75723619Y-79732142D01*
X75676000Y-79779761D01*
X75580761Y-79827380D01*
X75485523Y-79827380D01*
X75390285Y-79779761D01*
X75342666Y-79732142D01*
X75295047Y-79636904D01*
X75247428Y-79446428D01*
X75247428Y-79208333D01*
X75295047Y-79017857D01*
X75342666Y-78922619D01*
X75390285Y-78875000D01*
X75485523Y-78827380D01*
X83994666Y-78827380D02*
X83994666Y-79541666D01*
X83947047Y-79684523D01*
X83851809Y-79779761D01*
X83708952Y-79827380D01*
X83613714Y-79827380D01*
X84518476Y-79827380D02*
X84708952Y-79827380D01*
X84804190Y-79779761D01*
X84851809Y-79732142D01*
X84947047Y-79589285D01*
X84994666Y-79398809D01*
X84994666Y-79017857D01*
X84947047Y-78922619D01*
X84899428Y-78875000D01*
X84804190Y-78827380D01*
X84613714Y-78827380D01*
X84518476Y-78875000D01*
X84470857Y-78922619D01*
X84423238Y-79017857D01*
X84423238Y-79255952D01*
X84470857Y-79351190D01*
X84518476Y-79398809D01*
X84613714Y-79446428D01*
X84804190Y-79446428D01*
X84899428Y-79398809D01*
X84947047Y-79351190D01*
X84994666Y-79255952D01*
X43481666Y-104572380D02*
X43481666Y-105286666D01*
X43434047Y-105429523D01*
X43338809Y-105524761D01*
X43195952Y-105572380D01*
X43100714Y-105572380D01*
X43910238Y-104667619D02*
X43957857Y-104620000D01*
X44053095Y-104572380D01*
X44291190Y-104572380D01*
X44386428Y-104620000D01*
X44434047Y-104667619D01*
X44481666Y-104762857D01*
X44481666Y-104858095D01*
X44434047Y-105000952D01*
X43862619Y-105572380D01*
X44481666Y-105572380D01*
X43481666Y-95047380D02*
X43481666Y-95761666D01*
X43434047Y-95904523D01*
X43338809Y-95999761D01*
X43195952Y-96047380D01*
X43100714Y-96047380D01*
X44481666Y-96047380D02*
X43910238Y-96047380D01*
X44195952Y-96047380D02*
X44195952Y-95047380D01*
X44100714Y-95190238D01*
X44005476Y-95285476D01*
X43910238Y-95333095D01*
X118324333Y-116054142D02*
X118276714Y-116101761D01*
X118133857Y-116149380D01*
X118038619Y-116149380D01*
X117895761Y-116101761D01*
X117800523Y-116006523D01*
X117752904Y-115911285D01*
X117705285Y-115720809D01*
X117705285Y-115577952D01*
X117752904Y-115387476D01*
X117800523Y-115292238D01*
X117895761Y-115197000D01*
X118038619Y-115149380D01*
X118133857Y-115149380D01*
X118276714Y-115197000D01*
X118324333Y-115244619D01*
X118657666Y-115149380D02*
X119324333Y-115149380D01*
X118895761Y-116149380D01*
X105878333Y-108367142D02*
X105830714Y-108414761D01*
X105687857Y-108462380D01*
X105592619Y-108462380D01*
X105449761Y-108414761D01*
X105354523Y-108319523D01*
X105306904Y-108224285D01*
X105259285Y-108033809D01*
X105259285Y-107890952D01*
X105306904Y-107700476D01*
X105354523Y-107605238D01*
X105449761Y-107510000D01*
X105592619Y-107462380D01*
X105687857Y-107462380D01*
X105830714Y-107510000D01*
X105878333Y-107557619D01*
X106735476Y-107462380D02*
X106545000Y-107462380D01*
X106449761Y-107510000D01*
X106402142Y-107557619D01*
X106306904Y-107700476D01*
X106259285Y-107890952D01*
X106259285Y-108271904D01*
X106306904Y-108367142D01*
X106354523Y-108414761D01*
X106449761Y-108462380D01*
X106640238Y-108462380D01*
X106735476Y-108414761D01*
X106783095Y-108367142D01*
X106830714Y-108271904D01*
X106830714Y-108033809D01*
X106783095Y-107938571D01*
X106735476Y-107890952D01*
X106640238Y-107843333D01*
X106449761Y-107843333D01*
X106354523Y-107890952D01*
X106306904Y-107938571D01*
X106259285Y-108033809D01*
X51228333Y-98552142D02*
X51180714Y-98599761D01*
X51037857Y-98647380D01*
X50942619Y-98647380D01*
X50799761Y-98599761D01*
X50704523Y-98504523D01*
X50656904Y-98409285D01*
X50609285Y-98218809D01*
X50609285Y-98075952D01*
X50656904Y-97885476D01*
X50704523Y-97790238D01*
X50799761Y-97695000D01*
X50942619Y-97647380D01*
X51037857Y-97647380D01*
X51180714Y-97695000D01*
X51228333Y-97742619D01*
X52133095Y-97647380D02*
X51656904Y-97647380D01*
X51609285Y-98123571D01*
X51656904Y-98075952D01*
X51752142Y-98028333D01*
X51990238Y-98028333D01*
X52085476Y-98075952D01*
X52133095Y-98123571D01*
X52180714Y-98218809D01*
X52180714Y-98456904D01*
X52133095Y-98552142D01*
X52085476Y-98599761D01*
X51990238Y-98647380D01*
X51752142Y-98647380D01*
X51656904Y-98599761D01*
X51609285Y-98552142D01*
X144724380Y-138342666D02*
X144248190Y-138676000D01*
X144724380Y-138914095D02*
X143724380Y-138914095D01*
X143724380Y-138533142D01*
X143772000Y-138437904D01*
X143819619Y-138390285D01*
X143914857Y-138342666D01*
X144057714Y-138342666D01*
X144152952Y-138390285D01*
X144200571Y-138437904D01*
X144248190Y-138533142D01*
X144248190Y-138914095D01*
X144724380Y-137866476D02*
X144724380Y-137676000D01*
X144676761Y-137580761D01*
X144629142Y-137533142D01*
X144486285Y-137437904D01*
X144295809Y-137390285D01*
X143914857Y-137390285D01*
X143819619Y-137437904D01*
X143772000Y-137485523D01*
X143724380Y-137580761D01*
X143724380Y-137771238D01*
X143772000Y-137866476D01*
X143819619Y-137914095D01*
X143914857Y-137961714D01*
X144152952Y-137961714D01*
X144248190Y-137914095D01*
X144295809Y-137866476D01*
X144343428Y-137771238D01*
X144343428Y-137580761D01*
X144295809Y-137485523D01*
X144248190Y-137437904D01*
X144152952Y-137390285D01*
X96972380Y-126531666D02*
X96496190Y-126865000D01*
X96972380Y-127103095D02*
X95972380Y-127103095D01*
X95972380Y-126722142D01*
X96020000Y-126626904D01*
X96067619Y-126579285D01*
X96162857Y-126531666D01*
X96305714Y-126531666D01*
X96400952Y-126579285D01*
X96448571Y-126626904D01*
X96496190Y-126722142D01*
X96496190Y-127103095D01*
X96400952Y-125960238D02*
X96353333Y-126055476D01*
X96305714Y-126103095D01*
X96210476Y-126150714D01*
X96162857Y-126150714D01*
X96067619Y-126103095D01*
X96020000Y-126055476D01*
X95972380Y-125960238D01*
X95972380Y-125769761D01*
X96020000Y-125674523D01*
X96067619Y-125626904D01*
X96162857Y-125579285D01*
X96210476Y-125579285D01*
X96305714Y-125626904D01*
X96353333Y-125674523D01*
X96400952Y-125769761D01*
X96400952Y-125960238D01*
X96448571Y-126055476D01*
X96496190Y-126103095D01*
X96591428Y-126150714D01*
X96781904Y-126150714D01*
X96877142Y-126103095D01*
X96924761Y-126055476D01*
X96972380Y-125960238D01*
X96972380Y-125769761D01*
X96924761Y-125674523D01*
X96877142Y-125626904D01*
X96781904Y-125579285D01*
X96591428Y-125579285D01*
X96496190Y-125626904D01*
X96448571Y-125674523D01*
X96400952Y-125769761D01*
X101290380Y-126531666D02*
X100814190Y-126865000D01*
X101290380Y-127103095D02*
X100290380Y-127103095D01*
X100290380Y-126722142D01*
X100338000Y-126626904D01*
X100385619Y-126579285D01*
X100480857Y-126531666D01*
X100623714Y-126531666D01*
X100718952Y-126579285D01*
X100766571Y-126626904D01*
X100814190Y-126722142D01*
X100814190Y-127103095D01*
X100290380Y-126198333D02*
X100290380Y-125531666D01*
X101290380Y-125960238D01*
X73477380Y-127166666D02*
X73001190Y-127500000D01*
X73477380Y-127738095D02*
X72477380Y-127738095D01*
X72477380Y-127357142D01*
X72525000Y-127261904D01*
X72572619Y-127214285D01*
X72667857Y-127166666D01*
X72810714Y-127166666D01*
X72905952Y-127214285D01*
X72953571Y-127261904D01*
X73001190Y-127357142D01*
X73001190Y-127738095D01*
X72477380Y-126309523D02*
X72477380Y-126500000D01*
X72525000Y-126595238D01*
X72572619Y-126642857D01*
X72715476Y-126738095D01*
X72905952Y-126785714D01*
X73286904Y-126785714D01*
X73382142Y-126738095D01*
X73429761Y-126690476D01*
X73477380Y-126595238D01*
X73477380Y-126404761D01*
X73429761Y-126309523D01*
X73382142Y-126261904D01*
X73286904Y-126214285D01*
X73048809Y-126214285D01*
X72953571Y-126261904D01*
X72905952Y-126309523D01*
X72858333Y-126404761D01*
X72858333Y-126595238D01*
X72905952Y-126690476D01*
X72953571Y-126738095D01*
X73048809Y-126785714D01*
X96972380Y-141811666D02*
X96496190Y-142145000D01*
X96972380Y-142383095D02*
X95972380Y-142383095D01*
X95972380Y-142002142D01*
X96020000Y-141906904D01*
X96067619Y-141859285D01*
X96162857Y-141811666D01*
X96305714Y-141811666D01*
X96400952Y-141859285D01*
X96448571Y-141906904D01*
X96496190Y-142002142D01*
X96496190Y-142383095D01*
X95972380Y-140906904D02*
X95972380Y-141383095D01*
X96448571Y-141430714D01*
X96400952Y-141383095D01*
X96353333Y-141287857D01*
X96353333Y-141049761D01*
X96400952Y-140954523D01*
X96448571Y-140906904D01*
X96543809Y-140859285D01*
X96781904Y-140859285D01*
X96877142Y-140906904D01*
X96924761Y-140954523D01*
X96972380Y-141049761D01*
X96972380Y-141287857D01*
X96924761Y-141383095D01*
X96877142Y-141430714D01*
X101290380Y-141811666D02*
X100814190Y-142145000D01*
X101290380Y-142383095D02*
X100290380Y-142383095D01*
X100290380Y-142002142D01*
X100338000Y-141906904D01*
X100385619Y-141859285D01*
X100480857Y-141811666D01*
X100623714Y-141811666D01*
X100718952Y-141859285D01*
X100766571Y-141906904D01*
X100814190Y-142002142D01*
X100814190Y-142383095D01*
X100623714Y-140954523D02*
X101290380Y-140954523D01*
X100242761Y-141192619D02*
X100957047Y-141430714D01*
X100957047Y-140811666D01*
X69453333Y-142057380D02*
X69120000Y-141581190D01*
X68881904Y-142057380D02*
X68881904Y-141057380D01*
X69262857Y-141057380D01*
X69358095Y-141105000D01*
X69405714Y-141152619D01*
X69453333Y-141247857D01*
X69453333Y-141390714D01*
X69405714Y-141485952D01*
X69358095Y-141533571D01*
X69262857Y-141581190D01*
X68881904Y-141581190D01*
X69786666Y-141057380D02*
X70405714Y-141057380D01*
X70072380Y-141438333D01*
X70215238Y-141438333D01*
X70310476Y-141485952D01*
X70358095Y-141533571D01*
X70405714Y-141628809D01*
X70405714Y-141866904D01*
X70358095Y-141962142D01*
X70310476Y-142009761D01*
X70215238Y-142057380D01*
X69929523Y-142057380D01*
X69834285Y-142009761D01*
X69786666Y-141962142D01*
X63828333Y-130627380D02*
X63495000Y-130151190D01*
X63256904Y-130627380D02*
X63256904Y-129627380D01*
X63637857Y-129627380D01*
X63733095Y-129675000D01*
X63780714Y-129722619D01*
X63828333Y-129817857D01*
X63828333Y-129960714D01*
X63780714Y-130055952D01*
X63733095Y-130103571D01*
X63637857Y-130151190D01*
X63256904Y-130151190D01*
X64209285Y-129722619D02*
X64256904Y-129675000D01*
X64352142Y-129627380D01*
X64590238Y-129627380D01*
X64685476Y-129675000D01*
X64733095Y-129722619D01*
X64780714Y-129817857D01*
X64780714Y-129913095D01*
X64733095Y-130055952D01*
X64161666Y-130627380D01*
X64780714Y-130627380D01*
X60777380Y-127166666D02*
X60301190Y-127500000D01*
X60777380Y-127738095D02*
X59777380Y-127738095D01*
X59777380Y-127357142D01*
X59825000Y-127261904D01*
X59872619Y-127214285D01*
X59967857Y-127166666D01*
X60110714Y-127166666D01*
X60205952Y-127214285D01*
X60253571Y-127261904D01*
X60301190Y-127357142D01*
X60301190Y-127738095D01*
X60777380Y-126214285D02*
X60777380Y-126785714D01*
X60777380Y-126500000D02*
X59777380Y-126500000D01*
X59920238Y-126595238D01*
X60015476Y-126690476D01*
X60063095Y-126785714D01*
X148002666Y-130262380D02*
X148002666Y-130976666D01*
X147955047Y-131119523D01*
X147859809Y-131214761D01*
X147716952Y-131262380D01*
X147621714Y-131262380D01*
X148621714Y-130690952D02*
X148526476Y-130643333D01*
X148478857Y-130595714D01*
X148431238Y-130500476D01*
X148431238Y-130452857D01*
X148478857Y-130357619D01*
X148526476Y-130310000D01*
X148621714Y-130262380D01*
X148812190Y-130262380D01*
X148907428Y-130310000D01*
X148955047Y-130357619D01*
X149002666Y-130452857D01*
X149002666Y-130500476D01*
X148955047Y-130595714D01*
X148907428Y-130643333D01*
X148812190Y-130690952D01*
X148621714Y-130690952D01*
X148526476Y-130738571D01*
X148478857Y-130786190D01*
X148431238Y-130881428D01*
X148431238Y-131071904D01*
X148478857Y-131167142D01*
X148526476Y-131214761D01*
X148621714Y-131262380D01*
X148812190Y-131262380D01*
X148907428Y-131214761D01*
X148955047Y-131167142D01*
X149002666Y-131071904D01*
X149002666Y-130881428D01*
X148955047Y-130786190D01*
X148907428Y-130738571D01*
X148812190Y-130690952D01*
X148002666Y-119086380D02*
X148002666Y-119800666D01*
X147955047Y-119943523D01*
X147859809Y-120038761D01*
X147716952Y-120086380D01*
X147621714Y-120086380D01*
X148383619Y-119086380D02*
X149050285Y-119086380D01*
X148621714Y-120086380D01*
X108886666Y-78827380D02*
X108886666Y-79541666D01*
X108839047Y-79684523D01*
X108743809Y-79779761D01*
X108600952Y-79827380D01*
X108505714Y-79827380D01*
X109791428Y-78827380D02*
X109600952Y-78827380D01*
X109505714Y-78875000D01*
X109458095Y-78922619D01*
X109362857Y-79065476D01*
X109315238Y-79255952D01*
X109315238Y-79636904D01*
X109362857Y-79732142D01*
X109410476Y-79779761D01*
X109505714Y-79827380D01*
X109696190Y-79827380D01*
X109791428Y-79779761D01*
X109839047Y-79732142D01*
X109886666Y-79636904D01*
X109886666Y-79398809D01*
X109839047Y-79303571D01*
X109791428Y-79255952D01*
X109696190Y-79208333D01*
X109505714Y-79208333D01*
X109410476Y-79255952D01*
X109362857Y-79303571D01*
X109315238Y-79398809D01*
X118411666Y-78827380D02*
X118411666Y-79541666D01*
X118364047Y-79684523D01*
X118268809Y-79779761D01*
X118125952Y-79827380D01*
X118030714Y-79827380D01*
X119364047Y-78827380D02*
X118887857Y-78827380D01*
X118840238Y-79303571D01*
X118887857Y-79255952D01*
X118983095Y-79208333D01*
X119221190Y-79208333D01*
X119316428Y-79255952D01*
X119364047Y-79303571D01*
X119411666Y-79398809D01*
X119411666Y-79636904D01*
X119364047Y-79732142D01*
X119316428Y-79779761D01*
X119221190Y-79827380D01*
X118983095Y-79827380D01*
X118887857Y-79779761D01*
X118840238Y-79732142D01*
X43481666Y-124892380D02*
X43481666Y-125606666D01*
X43434047Y-125749523D01*
X43338809Y-125844761D01*
X43195952Y-125892380D01*
X43100714Y-125892380D01*
X44386428Y-125225714D02*
X44386428Y-125892380D01*
X44148333Y-124844761D02*
X43910238Y-125559047D01*
X44529285Y-125559047D01*
X43481666Y-134417380D02*
X43481666Y-135131666D01*
X43434047Y-135274523D01*
X43338809Y-135369761D01*
X43195952Y-135417380D01*
X43100714Y-135417380D01*
X43862619Y-134417380D02*
X44481666Y-134417380D01*
X44148333Y-134798333D01*
X44291190Y-134798333D01*
X44386428Y-134845952D01*
X44434047Y-134893571D01*
X44481666Y-134988809D01*
X44481666Y-135226904D01*
X44434047Y-135322142D01*
X44386428Y-135369761D01*
X44291190Y-135417380D01*
X44005476Y-135417380D01*
X43910238Y-135369761D01*
X43862619Y-135322142D01*
X146558095Y-76652380D02*
X146558095Y-75652380D01*
X146558095Y-76128571D02*
X147129523Y-76128571D01*
X147129523Y-76652380D02*
X147129523Y-75652380D01*
X148034285Y-75985714D02*
X148034285Y-76652380D01*
X147796190Y-75604761D02*
X147558095Y-76319047D01*
X148177142Y-76319047D01*
X146558095Y-158567380D02*
X146558095Y-157567380D01*
X146558095Y-158043571D02*
X147129523Y-158043571D01*
X147129523Y-158567380D02*
X147129523Y-157567380D01*
X147510476Y-157567380D02*
X148129523Y-157567380D01*
X147796190Y-157948333D01*
X147939047Y-157948333D01*
X148034285Y-157995952D01*
X148081904Y-158043571D01*
X148129523Y-158138809D01*
X148129523Y-158376904D01*
X148081904Y-158472142D01*
X148034285Y-158519761D01*
X147939047Y-158567380D01*
X147653333Y-158567380D01*
X147558095Y-158519761D01*
X147510476Y-158472142D01*
X48133095Y-158567380D02*
X48133095Y-157567380D01*
X48133095Y-158043571D02*
X48704523Y-158043571D01*
X48704523Y-158567380D02*
X48704523Y-157567380D01*
X49133095Y-157662619D02*
X49180714Y-157615000D01*
X49275952Y-157567380D01*
X49514047Y-157567380D01*
X49609285Y-157615000D01*
X49656904Y-157662619D01*
X49704523Y-157757857D01*
X49704523Y-157853095D01*
X49656904Y-157995952D01*
X49085476Y-158567380D01*
X49704523Y-158567380D01*
X48133095Y-76652380D02*
X48133095Y-75652380D01*
X48133095Y-76128571D02*
X48704523Y-76128571D01*
X48704523Y-76652380D02*
X48704523Y-75652380D01*
X49704523Y-76652380D02*
X49133095Y-76652380D01*
X49418809Y-76652380D02*
X49418809Y-75652380D01*
X49323571Y-75795238D01*
X49228333Y-75890476D01*
X49133095Y-75938095D01*
X118451333Y-155297142D02*
X118403714Y-155344761D01*
X118260857Y-155392380D01*
X118165619Y-155392380D01*
X118022761Y-155344761D01*
X117927523Y-155249523D01*
X117879904Y-155154285D01*
X117832285Y-154963809D01*
X117832285Y-154820952D01*
X117879904Y-154630476D01*
X117927523Y-154535238D01*
X118022761Y-154440000D01*
X118165619Y-154392380D01*
X118260857Y-154392380D01*
X118403714Y-154440000D01*
X118451333Y-154487619D01*
X118784666Y-154392380D02*
X119403714Y-154392380D01*
X119070380Y-154773333D01*
X119213238Y-154773333D01*
X119308476Y-154820952D01*
X119356095Y-154868571D01*
X119403714Y-154963809D01*
X119403714Y-155201904D01*
X119356095Y-155297142D01*
X119308476Y-155344761D01*
X119213238Y-155392380D01*
X118927523Y-155392380D01*
X118832285Y-155344761D01*
X118784666Y-155297142D01*
X105243333Y-147042142D02*
X105195714Y-147089761D01*
X105052857Y-147137380D01*
X104957619Y-147137380D01*
X104814761Y-147089761D01*
X104719523Y-146994523D01*
X104671904Y-146899285D01*
X104624285Y-146708809D01*
X104624285Y-146565952D01*
X104671904Y-146375476D01*
X104719523Y-146280238D01*
X104814761Y-146185000D01*
X104957619Y-146137380D01*
X105052857Y-146137380D01*
X105195714Y-146185000D01*
X105243333Y-146232619D01*
X105624285Y-146232619D02*
X105671904Y-146185000D01*
X105767142Y-146137380D01*
X106005238Y-146137380D01*
X106100476Y-146185000D01*
X106148095Y-146232619D01*
X106195714Y-146327857D01*
X106195714Y-146423095D01*
X106148095Y-146565952D01*
X105576666Y-147137380D01*
X106195714Y-147137380D01*
X51308333Y-137922142D02*
X51260714Y-137969761D01*
X51117857Y-138017380D01*
X51022619Y-138017380D01*
X50879761Y-137969761D01*
X50784523Y-137874523D01*
X50736904Y-137779285D01*
X50689285Y-137588809D01*
X50689285Y-137445952D01*
X50736904Y-137255476D01*
X50784523Y-137160238D01*
X50879761Y-137065000D01*
X51022619Y-137017380D01*
X51117857Y-137017380D01*
X51260714Y-137065000D01*
X51308333Y-137112619D01*
X52260714Y-138017380D02*
X51689285Y-138017380D01*
X51975000Y-138017380D02*
X51975000Y-137017380D01*
X51879761Y-137160238D01*
X51784523Y-137255476D01*
X51689285Y-137303095D01*
M02*
