G04 #@! TF.GenerationSoftware,KiCad,Pcbnew,(5.1.10-0-10_14)*
G04 #@! TF.CreationDate,2021-05-24T18:06:32+02:00*
G04 #@! TF.ProjectId,pic-breakout,7069632d-6272-4656-916b-6f75742e6b69,rev?*
G04 #@! TF.SameCoordinates,Original*
G04 #@! TF.FileFunction,Soldermask,Bot*
G04 #@! TF.FilePolarity,Negative*
%FSLAX46Y46*%
G04 Gerber Fmt 4.6, Leading zero omitted, Abs format (unit mm)*
G04 Created by KiCad (PCBNEW (5.1.10-0-10_14)) date 2021-05-24 18:06:32*
%MOMM*%
%LPD*%
G01*
G04 APERTURE LIST*
%ADD10O,1.700000X1.700000*%
%ADD11R,1.700000X1.700000*%
%ADD12R,0.900000X1.200000*%
%ADD13R,1.060000X0.650000*%
G04 APERTURE END LIST*
D10*
X198755000Y-144145000D03*
X198755000Y-141605000D03*
X198755000Y-139065000D03*
X198755000Y-136525000D03*
X198755000Y-133985000D03*
X198755000Y-131445000D03*
X198755000Y-128905000D03*
X198755000Y-126365000D03*
X198755000Y-123825000D03*
X198755000Y-121285000D03*
X198755000Y-118745000D03*
D11*
X198755000Y-116205000D03*
D10*
X183515000Y-144145000D03*
X183515000Y-141605000D03*
X183515000Y-139065000D03*
X183515000Y-136525000D03*
X183515000Y-133985000D03*
X183515000Y-131445000D03*
X183515000Y-128905000D03*
X183515000Y-126365000D03*
X183515000Y-123825000D03*
X183515000Y-121285000D03*
X183515000Y-118745000D03*
D11*
X183515000Y-116205000D03*
G36*
G01*
X186669500Y-133747500D02*
X186669500Y-134222500D01*
G75*
G02*
X186432000Y-134460000I-237500J0D01*
G01*
X185932000Y-134460000D01*
G75*
G02*
X185694500Y-134222500I0J237500D01*
G01*
X185694500Y-133747500D01*
G75*
G02*
X185932000Y-133510000I237500J0D01*
G01*
X186432000Y-133510000D01*
G75*
G02*
X186669500Y-133747500I0J-237500D01*
G01*
G37*
G36*
G01*
X188494500Y-133747500D02*
X188494500Y-134222500D01*
G75*
G02*
X188257000Y-134460000I-237500J0D01*
G01*
X187757000Y-134460000D01*
G75*
G02*
X187519500Y-134222500I0J237500D01*
G01*
X187519500Y-133747500D01*
G75*
G02*
X187757000Y-133510000I237500J0D01*
G01*
X188257000Y-133510000D01*
G75*
G02*
X188494500Y-133747500I0J-237500D01*
G01*
G37*
G36*
G01*
X186669500Y-138827500D02*
X186669500Y-139302500D01*
G75*
G02*
X186432000Y-139540000I-237500J0D01*
G01*
X185932000Y-139540000D01*
G75*
G02*
X185694500Y-139302500I0J237500D01*
G01*
X185694500Y-138827500D01*
G75*
G02*
X185932000Y-138590000I237500J0D01*
G01*
X186432000Y-138590000D01*
G75*
G02*
X186669500Y-138827500I0J-237500D01*
G01*
G37*
G36*
G01*
X188494500Y-138827500D02*
X188494500Y-139302500D01*
G75*
G02*
X188257000Y-139540000I-237500J0D01*
G01*
X187757000Y-139540000D01*
G75*
G02*
X187519500Y-139302500I0J237500D01*
G01*
X187519500Y-138827500D01*
G75*
G02*
X187757000Y-138590000I237500J0D01*
G01*
X188257000Y-138590000D01*
G75*
G02*
X188494500Y-138827500I0J-237500D01*
G01*
G37*
G36*
G01*
X186669500Y-136287500D02*
X186669500Y-136762500D01*
G75*
G02*
X186432000Y-137000000I-237500J0D01*
G01*
X185932000Y-137000000D01*
G75*
G02*
X185694500Y-136762500I0J237500D01*
G01*
X185694500Y-136287500D01*
G75*
G02*
X185932000Y-136050000I237500J0D01*
G01*
X186432000Y-136050000D01*
G75*
G02*
X186669500Y-136287500I0J-237500D01*
G01*
G37*
G36*
G01*
X188494500Y-136287500D02*
X188494500Y-136762500D01*
G75*
G02*
X188257000Y-137000000I-237500J0D01*
G01*
X187757000Y-137000000D01*
G75*
G02*
X187519500Y-136762500I0J237500D01*
G01*
X187519500Y-136287500D01*
G75*
G02*
X187757000Y-136050000I237500J0D01*
G01*
X188257000Y-136050000D01*
G75*
G02*
X188494500Y-136287500I0J-237500D01*
G01*
G37*
G36*
G01*
X194467000Y-120544001D02*
X194467000Y-119993999D01*
G75*
G02*
X194716999Y-119744000I249999J0D01*
G01*
X195517001Y-119744000D01*
G75*
G02*
X195767000Y-119993999I0J-249999D01*
G01*
X195767000Y-120544001D01*
G75*
G02*
X195517001Y-120794000I-249999J0D01*
G01*
X194716999Y-120794000D01*
G75*
G02*
X194467000Y-120544001I0J249999D01*
G01*
G37*
G36*
G01*
X192517000Y-120544001D02*
X192517000Y-119993999D01*
G75*
G02*
X192766999Y-119744000I249999J0D01*
G01*
X193567001Y-119744000D01*
G75*
G02*
X193817000Y-119993999I0J-249999D01*
G01*
X193817000Y-120544001D01*
G75*
G02*
X193567001Y-120794000I-249999J0D01*
G01*
X192766999Y-120794000D01*
G75*
G02*
X192517000Y-120544001I0J249999D01*
G01*
G37*
G36*
G01*
X189060501Y-117064000D02*
X188510499Y-117064000D01*
G75*
G02*
X188260500Y-116814001I0J249999D01*
G01*
X188260500Y-116013999D01*
G75*
G02*
X188510499Y-115764000I249999J0D01*
G01*
X189060501Y-115764000D01*
G75*
G02*
X189310500Y-116013999I0J-249999D01*
G01*
X189310500Y-116814001D01*
G75*
G02*
X189060501Y-117064000I-249999J0D01*
G01*
G37*
G36*
G01*
X189060501Y-119014000D02*
X188510499Y-119014000D01*
G75*
G02*
X188260500Y-118764001I0J249999D01*
G01*
X188260500Y-117963999D01*
G75*
G02*
X188510499Y-117714000I249999J0D01*
G01*
X189060501Y-117714000D01*
G75*
G02*
X189310500Y-117963999I0J-249999D01*
G01*
X189310500Y-118764001D01*
G75*
G02*
X189060501Y-119014000I-249999J0D01*
G01*
G37*
G36*
G01*
X195600500Y-136762500D02*
X195600500Y-136287500D01*
G75*
G02*
X195838000Y-136050000I237500J0D01*
G01*
X196338000Y-136050000D01*
G75*
G02*
X196575500Y-136287500I0J-237500D01*
G01*
X196575500Y-136762500D01*
G75*
G02*
X196338000Y-137000000I-237500J0D01*
G01*
X195838000Y-137000000D01*
G75*
G02*
X195600500Y-136762500I0J237500D01*
G01*
G37*
G36*
G01*
X193775500Y-136762500D02*
X193775500Y-136287500D01*
G75*
G02*
X194013000Y-136050000I237500J0D01*
G01*
X194513000Y-136050000D01*
G75*
G02*
X194750500Y-136287500I0J-237500D01*
G01*
X194750500Y-136762500D01*
G75*
G02*
X194513000Y-137000000I-237500J0D01*
G01*
X194013000Y-137000000D01*
G75*
G02*
X193775500Y-136762500I0J237500D01*
G01*
G37*
G36*
G01*
X195600500Y-141842500D02*
X195600500Y-141367500D01*
G75*
G02*
X195838000Y-141130000I237500J0D01*
G01*
X196338000Y-141130000D01*
G75*
G02*
X196575500Y-141367500I0J-237500D01*
G01*
X196575500Y-141842500D01*
G75*
G02*
X196338000Y-142080000I-237500J0D01*
G01*
X195838000Y-142080000D01*
G75*
G02*
X195600500Y-141842500I0J237500D01*
G01*
G37*
G36*
G01*
X193775500Y-141842500D02*
X193775500Y-141367500D01*
G75*
G02*
X194013000Y-141130000I237500J0D01*
G01*
X194513000Y-141130000D01*
G75*
G02*
X194750500Y-141367500I0J-237500D01*
G01*
X194750500Y-141842500D01*
G75*
G02*
X194513000Y-142080000I-237500J0D01*
G01*
X194013000Y-142080000D01*
G75*
G02*
X193775500Y-141842500I0J237500D01*
G01*
G37*
G36*
G01*
X195600500Y-139302500D02*
X195600500Y-138827500D01*
G75*
G02*
X195838000Y-138590000I237500J0D01*
G01*
X196338000Y-138590000D01*
G75*
G02*
X196575500Y-138827500I0J-237500D01*
G01*
X196575500Y-139302500D01*
G75*
G02*
X196338000Y-139540000I-237500J0D01*
G01*
X195838000Y-139540000D01*
G75*
G02*
X195600500Y-139302500I0J237500D01*
G01*
G37*
G36*
G01*
X193775500Y-139302500D02*
X193775500Y-138827500D01*
G75*
G02*
X194013000Y-138590000I237500J0D01*
G01*
X194513000Y-138590000D01*
G75*
G02*
X194750500Y-138827500I0J-237500D01*
G01*
X194750500Y-139302500D01*
G75*
G02*
X194513000Y-139540000I-237500J0D01*
G01*
X194013000Y-139540000D01*
G75*
G02*
X193775500Y-139302500I0J237500D01*
G01*
G37*
G36*
G01*
X191114500Y-123968500D02*
X191114500Y-124443500D01*
G75*
G02*
X190877000Y-124681000I-237500J0D01*
G01*
X190377000Y-124681000D01*
G75*
G02*
X190139500Y-124443500I0J237500D01*
G01*
X190139500Y-123968500D01*
G75*
G02*
X190377000Y-123731000I237500J0D01*
G01*
X190877000Y-123731000D01*
G75*
G02*
X191114500Y-123968500I0J-237500D01*
G01*
G37*
G36*
G01*
X192939500Y-123968500D02*
X192939500Y-124443500D01*
G75*
G02*
X192702000Y-124681000I-237500J0D01*
G01*
X192202000Y-124681000D01*
G75*
G02*
X191964500Y-124443500I0J237500D01*
G01*
X191964500Y-123968500D01*
G75*
G02*
X192202000Y-123731000I237500J0D01*
G01*
X192702000Y-123731000D01*
G75*
G02*
X192939500Y-123968500I0J-237500D01*
G01*
G37*
G36*
G01*
X186669500Y-141367500D02*
X186669500Y-141842500D01*
G75*
G02*
X186432000Y-142080000I-237500J0D01*
G01*
X185932000Y-142080000D01*
G75*
G02*
X185694500Y-141842500I0J237500D01*
G01*
X185694500Y-141367500D01*
G75*
G02*
X185932000Y-141130000I237500J0D01*
G01*
X186432000Y-141130000D01*
G75*
G02*
X186669500Y-141367500I0J-237500D01*
G01*
G37*
G36*
G01*
X188494500Y-141367500D02*
X188494500Y-141842500D01*
G75*
G02*
X188257000Y-142080000I-237500J0D01*
G01*
X187757000Y-142080000D01*
G75*
G02*
X187519500Y-141842500I0J237500D01*
G01*
X187519500Y-141367500D01*
G75*
G02*
X187757000Y-141130000I237500J0D01*
G01*
X188257000Y-141130000D01*
G75*
G02*
X188494500Y-141367500I0J-237500D01*
G01*
G37*
D10*
X197485000Y-112395000D03*
X194945000Y-112395000D03*
X192405000Y-112395000D03*
X189865000Y-112395000D03*
X187325000Y-112395000D03*
D11*
X184785000Y-112395000D03*
D12*
X188974000Y-125857000D03*
X185674000Y-125857000D03*
G36*
G01*
X188180000Y-127651500D02*
X188180000Y-128126500D01*
G75*
G02*
X187942500Y-128364000I-237500J0D01*
G01*
X187342500Y-128364000D01*
G75*
G02*
X187105000Y-128126500I0J237500D01*
G01*
X187105000Y-127651500D01*
G75*
G02*
X187342500Y-127414000I237500J0D01*
G01*
X187942500Y-127414000D01*
G75*
G02*
X188180000Y-127651500I0J-237500D01*
G01*
G37*
G36*
G01*
X189905000Y-127651500D02*
X189905000Y-128126500D01*
G75*
G02*
X189667500Y-128364000I-237500J0D01*
G01*
X189067500Y-128364000D01*
G75*
G02*
X188830000Y-128126500I0J237500D01*
G01*
X188830000Y-127651500D01*
G75*
G02*
X189067500Y-127414000I237500J0D01*
G01*
X189667500Y-127414000D01*
G75*
G02*
X189905000Y-127651500I0J-237500D01*
G01*
G37*
G36*
G01*
X191814500Y-126094500D02*
X191814500Y-125619500D01*
G75*
G02*
X192052000Y-125382000I237500J0D01*
G01*
X192652000Y-125382000D01*
G75*
G02*
X192889500Y-125619500I0J-237500D01*
G01*
X192889500Y-126094500D01*
G75*
G02*
X192652000Y-126332000I-237500J0D01*
G01*
X192052000Y-126332000D01*
G75*
G02*
X191814500Y-126094500I0J237500D01*
G01*
G37*
G36*
G01*
X190089500Y-126094500D02*
X190089500Y-125619500D01*
G75*
G02*
X190327000Y-125382000I237500J0D01*
G01*
X190927000Y-125382000D01*
G75*
G02*
X191164500Y-125619500I0J-237500D01*
G01*
X191164500Y-126094500D01*
G75*
G02*
X190927000Y-126332000I-237500J0D01*
G01*
X190327000Y-126332000D01*
G75*
G02*
X190089500Y-126094500I0J237500D01*
G01*
G37*
D13*
X193187500Y-118361500D03*
X193187500Y-116461500D03*
X190987500Y-116461500D03*
X190987500Y-117411500D03*
X190987500Y-118361500D03*
M02*
