G04 #@! TF.GenerationSoftware,KiCad,Pcbnew,(5.1.9-0-10_14)*
G04 #@! TF.CreationDate,2021-02-19T16:14:07+01:00*
G04 #@! TF.ProjectId,lt1115-phono-mm-mc,6c743131-3135-42d7-9068-6f6e6f2d6d6d,rev?*
G04 #@! TF.SameCoordinates,Original*
G04 #@! TF.FileFunction,Legend,Top*
G04 #@! TF.FilePolarity,Positive*
%FSLAX46Y46*%
G04 Gerber Fmt 4.6, Leading zero omitted, Abs format (unit mm)*
G04 Created by KiCad (PCBNEW (5.1.9-0-10_14)) date 2021-02-19 16:14:07*
%MOMM*%
%LPD*%
G01*
G04 APERTURE LIST*
%ADD10C,0.150000*%
%ADD11C,0.120000*%
G04 APERTURE END LIST*
D10*
X165822380Y-113268000D02*
X165822380Y-113077523D01*
X165870000Y-112982285D01*
X165965238Y-112887047D01*
X166155714Y-112839428D01*
X166489047Y-112839428D01*
X166679523Y-112887047D01*
X166774761Y-112982285D01*
X166822380Y-113077523D01*
X166822380Y-113268000D01*
X166774761Y-113363238D01*
X166679523Y-113458476D01*
X166489047Y-113506095D01*
X166155714Y-113506095D01*
X165965238Y-113458476D01*
X165870000Y-113363238D01*
X165822380Y-113268000D01*
X165822380Y-112410857D02*
X166631904Y-112410857D01*
X166727142Y-112363238D01*
X166774761Y-112315619D01*
X166822380Y-112220380D01*
X166822380Y-112029904D01*
X166774761Y-111934666D01*
X166727142Y-111887047D01*
X166631904Y-111839428D01*
X165822380Y-111839428D01*
X165822380Y-111506095D02*
X165822380Y-110934666D01*
X166822380Y-111220380D02*
X165822380Y-111220380D01*
X165870000Y-122935904D02*
X165822380Y-123031142D01*
X165822380Y-123174000D01*
X165870000Y-123316857D01*
X165965238Y-123412095D01*
X166060476Y-123459714D01*
X166250952Y-123507333D01*
X166393809Y-123507333D01*
X166584285Y-123459714D01*
X166679523Y-123412095D01*
X166774761Y-123316857D01*
X166822380Y-123174000D01*
X166822380Y-123078761D01*
X166774761Y-122935904D01*
X166727142Y-122888285D01*
X166393809Y-122888285D01*
X166393809Y-123078761D01*
X166822380Y-122459714D02*
X165822380Y-122459714D01*
X166822380Y-121888285D01*
X165822380Y-121888285D01*
X166822380Y-121412095D02*
X165822380Y-121412095D01*
X165822380Y-121174000D01*
X165870000Y-121031142D01*
X165965238Y-120935904D01*
X166060476Y-120888285D01*
X166250952Y-120840666D01*
X166393809Y-120840666D01*
X166584285Y-120888285D01*
X166679523Y-120935904D01*
X166774761Y-121031142D01*
X166822380Y-121174000D01*
X166822380Y-121412095D01*
X134620095Y-147074000D02*
X134524857Y-147026380D01*
X134382000Y-147026380D01*
X134239142Y-147074000D01*
X134143904Y-147169238D01*
X134096285Y-147264476D01*
X134048666Y-147454952D01*
X134048666Y-147597809D01*
X134096285Y-147788285D01*
X134143904Y-147883523D01*
X134239142Y-147978761D01*
X134382000Y-148026380D01*
X134477238Y-148026380D01*
X134620095Y-147978761D01*
X134667714Y-147931142D01*
X134667714Y-147597809D01*
X134477238Y-147597809D01*
X135096285Y-148026380D02*
X135096285Y-147026380D01*
X135667714Y-148026380D01*
X135667714Y-147026380D01*
X136143904Y-148026380D02*
X136143904Y-147026380D01*
X136382000Y-147026380D01*
X136524857Y-147074000D01*
X136620095Y-147169238D01*
X136667714Y-147264476D01*
X136715333Y-147454952D01*
X136715333Y-147597809D01*
X136667714Y-147788285D01*
X136620095Y-147883523D01*
X136524857Y-147978761D01*
X136382000Y-148026380D01*
X136143904Y-148026380D01*
X141240095Y-147645428D02*
X142002000Y-147645428D01*
X143002000Y-148026380D02*
X142430571Y-148026380D01*
X142716285Y-148026380D02*
X142716285Y-147026380D01*
X142621047Y-147169238D01*
X142525809Y-147264476D01*
X142430571Y-147312095D01*
X143906761Y-147026380D02*
X143430571Y-147026380D01*
X143382952Y-147502571D01*
X143430571Y-147454952D01*
X143525809Y-147407333D01*
X143763904Y-147407333D01*
X143859142Y-147454952D01*
X143906761Y-147502571D01*
X143954380Y-147597809D01*
X143954380Y-147835904D01*
X143906761Y-147931142D01*
X143859142Y-147978761D01*
X143763904Y-148026380D01*
X143525809Y-148026380D01*
X143430571Y-147978761D01*
X143382952Y-147931142D01*
X144240095Y-147026380D02*
X144573428Y-148026380D01*
X144906761Y-147026380D01*
X126254095Y-147645428D02*
X127016000Y-147645428D01*
X126635047Y-148026380D02*
X126635047Y-147264476D01*
X128016000Y-148026380D02*
X127444571Y-148026380D01*
X127730285Y-148026380D02*
X127730285Y-147026380D01*
X127635047Y-147169238D01*
X127539809Y-147264476D01*
X127444571Y-147312095D01*
X128920761Y-147026380D02*
X128444571Y-147026380D01*
X128396952Y-147502571D01*
X128444571Y-147454952D01*
X128539809Y-147407333D01*
X128777904Y-147407333D01*
X128873142Y-147454952D01*
X128920761Y-147502571D01*
X128968380Y-147597809D01*
X128968380Y-147835904D01*
X128920761Y-147931142D01*
X128873142Y-147978761D01*
X128777904Y-148026380D01*
X128539809Y-148026380D01*
X128444571Y-147978761D01*
X128396952Y-147931142D01*
X129254095Y-147026380D02*
X129587428Y-148026380D01*
X129920761Y-147026380D01*
X77970000Y-128778095D02*
X78017619Y-128682857D01*
X78017619Y-128540000D01*
X77970000Y-128397142D01*
X77874761Y-128301904D01*
X77779523Y-128254285D01*
X77589047Y-128206666D01*
X77446190Y-128206666D01*
X77255714Y-128254285D01*
X77160476Y-128301904D01*
X77065238Y-128397142D01*
X77017619Y-128540000D01*
X77017619Y-128635238D01*
X77065238Y-128778095D01*
X77112857Y-128825714D01*
X77446190Y-128825714D01*
X77446190Y-128635238D01*
X77017619Y-129254285D02*
X78017619Y-129254285D01*
X77017619Y-129825714D01*
X78017619Y-129825714D01*
X77017619Y-130301904D02*
X78017619Y-130301904D01*
X78017619Y-130540000D01*
X77970000Y-130682857D01*
X77874761Y-130778095D01*
X77779523Y-130825714D01*
X77589047Y-130873333D01*
X77446190Y-130873333D01*
X77255714Y-130825714D01*
X77160476Y-130778095D01*
X77065238Y-130682857D01*
X77017619Y-130540000D01*
X77017619Y-130301904D01*
X77017619Y-118856190D02*
X78017619Y-118856190D01*
X77017619Y-119332380D02*
X78017619Y-119332380D01*
X77017619Y-119903809D01*
X78017619Y-119903809D01*
X84924285Y-142757380D02*
X84448095Y-142757380D01*
X84448095Y-141757380D01*
X85114761Y-141757380D02*
X85686190Y-141757380D01*
X85400476Y-142757380D02*
X85400476Y-141757380D01*
X86543333Y-142757380D02*
X85971904Y-142757380D01*
X86257619Y-142757380D02*
X86257619Y-141757380D01*
X86162380Y-141900238D01*
X86067142Y-141995476D01*
X85971904Y-142043095D01*
X87495714Y-142757380D02*
X86924285Y-142757380D01*
X87210000Y-142757380D02*
X87210000Y-141757380D01*
X87114761Y-141900238D01*
X87019523Y-141995476D01*
X86924285Y-142043095D01*
X88448095Y-142757380D02*
X87876666Y-142757380D01*
X88162380Y-142757380D02*
X88162380Y-141757380D01*
X88067142Y-141900238D01*
X87971904Y-141995476D01*
X87876666Y-142043095D01*
X89352857Y-141757380D02*
X88876666Y-141757380D01*
X88829047Y-142233571D01*
X88876666Y-142185952D01*
X88971904Y-142138333D01*
X89210000Y-142138333D01*
X89305238Y-142185952D01*
X89352857Y-142233571D01*
X89400476Y-142328809D01*
X89400476Y-142566904D01*
X89352857Y-142662142D01*
X89305238Y-142709761D01*
X89210000Y-142757380D01*
X88971904Y-142757380D01*
X88876666Y-142709761D01*
X88829047Y-142662142D01*
X90590952Y-142757380D02*
X90590952Y-141757380D01*
X90924285Y-142471666D01*
X91257619Y-141757380D01*
X91257619Y-142757380D01*
X92305238Y-142662142D02*
X92257619Y-142709761D01*
X92114761Y-142757380D01*
X92019523Y-142757380D01*
X91876666Y-142709761D01*
X91781428Y-142614523D01*
X91733809Y-142519285D01*
X91686190Y-142328809D01*
X91686190Y-142185952D01*
X91733809Y-141995476D01*
X91781428Y-141900238D01*
X91876666Y-141805000D01*
X92019523Y-141757380D01*
X92114761Y-141757380D01*
X92257619Y-141805000D01*
X92305238Y-141852619D01*
X93448095Y-141709761D02*
X92590952Y-142995476D01*
X93781428Y-142757380D02*
X93781428Y-141757380D01*
X94114761Y-142471666D01*
X94448095Y-141757380D01*
X94448095Y-142757380D01*
X94924285Y-142757380D02*
X94924285Y-141757380D01*
X95257619Y-142471666D01*
X95590952Y-141757380D01*
X95590952Y-142757380D01*
X96829047Y-142757380D02*
X96829047Y-141757380D01*
X97210000Y-141757380D01*
X97305238Y-141805000D01*
X97352857Y-141852619D01*
X97400476Y-141947857D01*
X97400476Y-142090714D01*
X97352857Y-142185952D01*
X97305238Y-142233571D01*
X97210000Y-142281190D01*
X96829047Y-142281190D01*
X97829047Y-142757380D02*
X97829047Y-141757380D01*
X98257619Y-142757380D02*
X98257619Y-142233571D01*
X98210000Y-142138333D01*
X98114761Y-142090714D01*
X97971904Y-142090714D01*
X97876666Y-142138333D01*
X97829047Y-142185952D01*
X98876666Y-142757380D02*
X98781428Y-142709761D01*
X98733809Y-142662142D01*
X98686190Y-142566904D01*
X98686190Y-142281190D01*
X98733809Y-142185952D01*
X98781428Y-142138333D01*
X98876666Y-142090714D01*
X99019523Y-142090714D01*
X99114761Y-142138333D01*
X99162380Y-142185952D01*
X99210000Y-142281190D01*
X99210000Y-142566904D01*
X99162380Y-142662142D01*
X99114761Y-142709761D01*
X99019523Y-142757380D01*
X98876666Y-142757380D01*
X99638571Y-142090714D02*
X99638571Y-142757380D01*
X99638571Y-142185952D02*
X99686190Y-142138333D01*
X99781428Y-142090714D01*
X99924285Y-142090714D01*
X100019523Y-142138333D01*
X100067142Y-142233571D01*
X100067142Y-142757380D01*
X100686190Y-142757380D02*
X100590952Y-142709761D01*
X100543333Y-142662142D01*
X100495714Y-142566904D01*
X100495714Y-142281190D01*
X100543333Y-142185952D01*
X100590952Y-142138333D01*
X100686190Y-142090714D01*
X100829047Y-142090714D01*
X100924285Y-142138333D01*
X100971904Y-142185952D01*
X101019523Y-142281190D01*
X101019523Y-142566904D01*
X100971904Y-142662142D01*
X100924285Y-142709761D01*
X100829047Y-142757380D01*
X100686190Y-142757380D01*
X88876666Y-144407380D02*
X88876666Y-143407380D01*
X89257619Y-143407380D01*
X89352857Y-143455000D01*
X89400476Y-143502619D01*
X89448095Y-143597857D01*
X89448095Y-143740714D01*
X89400476Y-143835952D01*
X89352857Y-143883571D01*
X89257619Y-143931190D01*
X88876666Y-143931190D01*
X89876666Y-144407380D02*
X89876666Y-143740714D01*
X89876666Y-143931190D02*
X89924285Y-143835952D01*
X89971904Y-143788333D01*
X90067142Y-143740714D01*
X90162380Y-143740714D01*
X90876666Y-144359761D02*
X90781428Y-144407380D01*
X90590952Y-144407380D01*
X90495714Y-144359761D01*
X90448095Y-144264523D01*
X90448095Y-143883571D01*
X90495714Y-143788333D01*
X90590952Y-143740714D01*
X90781428Y-143740714D01*
X90876666Y-143788333D01*
X90924285Y-143883571D01*
X90924285Y-143978809D01*
X90448095Y-144074047D01*
X91305238Y-144121666D02*
X91781428Y-144121666D01*
X91210000Y-144407380D02*
X91543333Y-143407380D01*
X91876666Y-144407380D01*
X92210000Y-144407380D02*
X92210000Y-143740714D01*
X92210000Y-143835952D02*
X92257619Y-143788333D01*
X92352857Y-143740714D01*
X92495714Y-143740714D01*
X92590952Y-143788333D01*
X92638571Y-143883571D01*
X92638571Y-144407380D01*
X92638571Y-143883571D02*
X92686190Y-143788333D01*
X92781428Y-143740714D01*
X92924285Y-143740714D01*
X93019523Y-143788333D01*
X93067142Y-143883571D01*
X93067142Y-144407380D01*
X93543333Y-143740714D02*
X93543333Y-144740714D01*
X93543333Y-143788333D02*
X93638571Y-143740714D01*
X93829047Y-143740714D01*
X93924285Y-143788333D01*
X93971904Y-143835952D01*
X94019523Y-143931190D01*
X94019523Y-144216904D01*
X93971904Y-144312142D01*
X93924285Y-144359761D01*
X93829047Y-144407380D01*
X93638571Y-144407380D01*
X93543333Y-144359761D01*
X95067142Y-143407380D02*
X95400476Y-144407380D01*
X95733809Y-143407380D01*
X96590952Y-144407380D02*
X96019523Y-144407380D01*
X96305238Y-144407380D02*
X96305238Y-143407380D01*
X96210000Y-143550238D01*
X96114761Y-143645476D01*
X96019523Y-143693095D01*
X87090952Y-146057380D02*
X87090952Y-145057380D01*
X87424285Y-145771666D01*
X87757619Y-145057380D01*
X87757619Y-146057380D01*
X88233809Y-146057380D02*
X88233809Y-145390714D01*
X88233809Y-145057380D02*
X88186190Y-145105000D01*
X88233809Y-145152619D01*
X88281428Y-145105000D01*
X88233809Y-145057380D01*
X88233809Y-145152619D01*
X89138571Y-146009761D02*
X89043333Y-146057380D01*
X88852857Y-146057380D01*
X88757619Y-146009761D01*
X88710000Y-145962142D01*
X88662380Y-145866904D01*
X88662380Y-145581190D01*
X88710000Y-145485952D01*
X88757619Y-145438333D01*
X88852857Y-145390714D01*
X89043333Y-145390714D01*
X89138571Y-145438333D01*
X89567142Y-146057380D02*
X89567142Y-145057380D01*
X89995714Y-146057380D02*
X89995714Y-145533571D01*
X89948095Y-145438333D01*
X89852857Y-145390714D01*
X89710000Y-145390714D01*
X89614761Y-145438333D01*
X89567142Y-145485952D01*
X90900476Y-146057380D02*
X90900476Y-145533571D01*
X90852857Y-145438333D01*
X90757619Y-145390714D01*
X90567142Y-145390714D01*
X90471904Y-145438333D01*
X90900476Y-146009761D02*
X90805238Y-146057380D01*
X90567142Y-146057380D01*
X90471904Y-146009761D01*
X90424285Y-145914523D01*
X90424285Y-145819285D01*
X90471904Y-145724047D01*
X90567142Y-145676428D01*
X90805238Y-145676428D01*
X90900476Y-145628809D01*
X91757619Y-146009761D02*
X91662380Y-146057380D01*
X91471904Y-146057380D01*
X91376666Y-146009761D01*
X91329047Y-145914523D01*
X91329047Y-145533571D01*
X91376666Y-145438333D01*
X91471904Y-145390714D01*
X91662380Y-145390714D01*
X91757619Y-145438333D01*
X91805238Y-145533571D01*
X91805238Y-145628809D01*
X91329047Y-145724047D01*
X92376666Y-146057380D02*
X92281428Y-146009761D01*
X92233809Y-145914523D01*
X92233809Y-145057380D01*
X93471904Y-146009761D02*
X93614761Y-146057380D01*
X93852857Y-146057380D01*
X93948095Y-146009761D01*
X93995714Y-145962142D01*
X94043333Y-145866904D01*
X94043333Y-145771666D01*
X93995714Y-145676428D01*
X93948095Y-145628809D01*
X93852857Y-145581190D01*
X93662380Y-145533571D01*
X93567142Y-145485952D01*
X93519523Y-145438333D01*
X93471904Y-145343095D01*
X93471904Y-145247857D01*
X93519523Y-145152619D01*
X93567142Y-145105000D01*
X93662380Y-145057380D01*
X93900476Y-145057380D01*
X94043333Y-145105000D01*
X94900476Y-146009761D02*
X94805238Y-146057380D01*
X94614761Y-146057380D01*
X94519523Y-146009761D01*
X94471904Y-145962142D01*
X94424285Y-145866904D01*
X94424285Y-145581190D01*
X94471904Y-145485952D01*
X94519523Y-145438333D01*
X94614761Y-145390714D01*
X94805238Y-145390714D01*
X94900476Y-145438333D01*
X95329047Y-146057380D02*
X95329047Y-145057380D01*
X95757619Y-146057380D02*
X95757619Y-145533571D01*
X95710000Y-145438333D01*
X95614761Y-145390714D01*
X95471904Y-145390714D01*
X95376666Y-145438333D01*
X95329047Y-145485952D01*
X96614761Y-146009761D02*
X96519523Y-146057380D01*
X96329047Y-146057380D01*
X96233809Y-146009761D01*
X96186190Y-145914523D01*
X96186190Y-145533571D01*
X96233809Y-145438333D01*
X96329047Y-145390714D01*
X96519523Y-145390714D01*
X96614761Y-145438333D01*
X96662380Y-145533571D01*
X96662380Y-145628809D01*
X96186190Y-145724047D01*
X97090952Y-145390714D02*
X97090952Y-146057380D01*
X97090952Y-145485952D02*
X97138571Y-145438333D01*
X97233809Y-145390714D01*
X97376666Y-145390714D01*
X97471904Y-145438333D01*
X97519523Y-145533571D01*
X97519523Y-146057380D01*
X97995714Y-146057380D02*
X97995714Y-145057380D01*
X98090952Y-145676428D02*
X98376666Y-146057380D01*
X98376666Y-145390714D02*
X97995714Y-145771666D01*
X88614761Y-146802619D02*
X88662380Y-146755000D01*
X88757619Y-146707380D01*
X88995714Y-146707380D01*
X89090952Y-146755000D01*
X89138571Y-146802619D01*
X89186190Y-146897857D01*
X89186190Y-146993095D01*
X89138571Y-147135952D01*
X88567142Y-147707380D01*
X89186190Y-147707380D01*
X89805238Y-146707380D02*
X89900476Y-146707380D01*
X89995714Y-146755000D01*
X90043333Y-146802619D01*
X90090952Y-146897857D01*
X90138571Y-147088333D01*
X90138571Y-147326428D01*
X90090952Y-147516904D01*
X90043333Y-147612142D01*
X89995714Y-147659761D01*
X89900476Y-147707380D01*
X89805238Y-147707380D01*
X89710000Y-147659761D01*
X89662380Y-147612142D01*
X89614761Y-147516904D01*
X89567142Y-147326428D01*
X89567142Y-147088333D01*
X89614761Y-146897857D01*
X89662380Y-146802619D01*
X89710000Y-146755000D01*
X89805238Y-146707380D01*
X90519523Y-146802619D02*
X90567142Y-146755000D01*
X90662380Y-146707380D01*
X90900476Y-146707380D01*
X90995714Y-146755000D01*
X91043333Y-146802619D01*
X91090952Y-146897857D01*
X91090952Y-146993095D01*
X91043333Y-147135952D01*
X90471904Y-147707380D01*
X91090952Y-147707380D01*
X92043333Y-147707380D02*
X91471904Y-147707380D01*
X91757619Y-147707380D02*
X91757619Y-146707380D01*
X91662380Y-146850238D01*
X91567142Y-146945476D01*
X91471904Y-146993095D01*
X92471904Y-147612142D02*
X92519523Y-147659761D01*
X92471904Y-147707380D01*
X92424285Y-147659761D01*
X92471904Y-147612142D01*
X92471904Y-147707380D01*
X93138571Y-146707380D02*
X93233809Y-146707380D01*
X93329047Y-146755000D01*
X93376666Y-146802619D01*
X93424285Y-146897857D01*
X93471904Y-147088333D01*
X93471904Y-147326428D01*
X93424285Y-147516904D01*
X93376666Y-147612142D01*
X93329047Y-147659761D01*
X93233809Y-147707380D01*
X93138571Y-147707380D01*
X93043333Y-147659761D01*
X92995714Y-147612142D01*
X92948095Y-147516904D01*
X92900476Y-147326428D01*
X92900476Y-147088333D01*
X92948095Y-146897857D01*
X92995714Y-146802619D01*
X93043333Y-146755000D01*
X93138571Y-146707380D01*
X93852857Y-146802619D02*
X93900476Y-146755000D01*
X93995714Y-146707380D01*
X94233809Y-146707380D01*
X94329047Y-146755000D01*
X94376666Y-146802619D01*
X94424285Y-146897857D01*
X94424285Y-146993095D01*
X94376666Y-147135952D01*
X93805238Y-147707380D01*
X94424285Y-147707380D01*
X94852857Y-147612142D02*
X94900476Y-147659761D01*
X94852857Y-147707380D01*
X94805238Y-147659761D01*
X94852857Y-147612142D01*
X94852857Y-147707380D01*
X95852857Y-147707380D02*
X95281428Y-147707380D01*
X95567142Y-147707380D02*
X95567142Y-146707380D01*
X95471904Y-146850238D01*
X95376666Y-146945476D01*
X95281428Y-146993095D01*
X96329047Y-147707380D02*
X96519523Y-147707380D01*
X96614761Y-147659761D01*
X96662380Y-147612142D01*
X96757619Y-147469285D01*
X96805238Y-147278809D01*
X96805238Y-146897857D01*
X96757619Y-146802619D01*
X96710000Y-146755000D01*
X96614761Y-146707380D01*
X96424285Y-146707380D01*
X96329047Y-146755000D01*
X96281428Y-146802619D01*
X96233809Y-146897857D01*
X96233809Y-147135952D01*
X96281428Y-147231190D01*
X96329047Y-147278809D01*
X96424285Y-147326428D01*
X96614761Y-147326428D01*
X96710000Y-147278809D01*
X96757619Y-147231190D01*
X96805238Y-147135952D01*
X136097714Y-97226380D02*
X136097714Y-96559714D01*
X136097714Y-96654952D02*
X136145333Y-96607333D01*
X136240571Y-96559714D01*
X136383428Y-96559714D01*
X136478666Y-96607333D01*
X136526285Y-96702571D01*
X136526285Y-97226380D01*
X136526285Y-96702571D02*
X136573904Y-96607333D01*
X136669142Y-96559714D01*
X136812000Y-96559714D01*
X136907238Y-96607333D01*
X136954857Y-96702571D01*
X136954857Y-97226380D01*
X137431047Y-97226380D02*
X137431047Y-96559714D01*
X137431047Y-96226380D02*
X137383428Y-96274000D01*
X137431047Y-96321619D01*
X137478666Y-96274000D01*
X137431047Y-96226380D01*
X137431047Y-96321619D01*
X138335809Y-97178761D02*
X138240571Y-97226380D01*
X138050095Y-97226380D01*
X137954857Y-97178761D01*
X137907238Y-97131142D01*
X137859619Y-97035904D01*
X137859619Y-96750190D01*
X137907238Y-96654952D01*
X137954857Y-96607333D01*
X138050095Y-96559714D01*
X138240571Y-96559714D01*
X138335809Y-96607333D01*
X138764380Y-97226380D02*
X138764380Y-96226380D01*
X139192952Y-97226380D02*
X139192952Y-96702571D01*
X139145333Y-96607333D01*
X139050095Y-96559714D01*
X138907238Y-96559714D01*
X138812000Y-96607333D01*
X138764380Y-96654952D01*
X140097714Y-97226380D02*
X140097714Y-96702571D01*
X140050095Y-96607333D01*
X139954857Y-96559714D01*
X139764380Y-96559714D01*
X139669142Y-96607333D01*
X140097714Y-97178761D02*
X140002476Y-97226380D01*
X139764380Y-97226380D01*
X139669142Y-97178761D01*
X139621523Y-97083523D01*
X139621523Y-96988285D01*
X139669142Y-96893047D01*
X139764380Y-96845428D01*
X140002476Y-96845428D01*
X140097714Y-96797809D01*
X140954857Y-97178761D02*
X140859619Y-97226380D01*
X140669142Y-97226380D01*
X140573904Y-97178761D01*
X140526285Y-97083523D01*
X140526285Y-96702571D01*
X140573904Y-96607333D01*
X140669142Y-96559714D01*
X140859619Y-96559714D01*
X140954857Y-96607333D01*
X141002476Y-96702571D01*
X141002476Y-96797809D01*
X140526285Y-96893047D01*
X141573904Y-97226380D02*
X141478666Y-97178761D01*
X141431047Y-97083523D01*
X141431047Y-96226380D01*
X141907238Y-97178761D02*
X142002476Y-97226380D01*
X142192952Y-97226380D01*
X142288190Y-97178761D01*
X142335809Y-97083523D01*
X142335809Y-97035904D01*
X142288190Y-96940666D01*
X142192952Y-96893047D01*
X142050095Y-96893047D01*
X141954857Y-96845428D01*
X141907238Y-96750190D01*
X141907238Y-96702571D01*
X141954857Y-96607333D01*
X142050095Y-96559714D01*
X142192952Y-96559714D01*
X142288190Y-96607333D01*
X143192952Y-97178761D02*
X143097714Y-97226380D01*
X142907238Y-97226380D01*
X142812000Y-97178761D01*
X142764380Y-97131142D01*
X142716761Y-97035904D01*
X142716761Y-96750190D01*
X142764380Y-96654952D01*
X142812000Y-96607333D01*
X142907238Y-96559714D01*
X143097714Y-96559714D01*
X143192952Y-96607333D01*
X143621523Y-97226380D02*
X143621523Y-96226380D01*
X144050095Y-97226380D02*
X144050095Y-96702571D01*
X144002476Y-96607333D01*
X143907238Y-96559714D01*
X143764380Y-96559714D01*
X143669142Y-96607333D01*
X143621523Y-96654952D01*
X144907238Y-97178761D02*
X144812000Y-97226380D01*
X144621523Y-97226380D01*
X144526285Y-97178761D01*
X144478666Y-97083523D01*
X144478666Y-96702571D01*
X144526285Y-96607333D01*
X144621523Y-96559714D01*
X144812000Y-96559714D01*
X144907238Y-96607333D01*
X144954857Y-96702571D01*
X144954857Y-96797809D01*
X144478666Y-96893047D01*
X145383428Y-96559714D02*
X145383428Y-97226380D01*
X145383428Y-96654952D02*
X145431047Y-96607333D01*
X145526285Y-96559714D01*
X145669142Y-96559714D01*
X145764380Y-96607333D01*
X145812000Y-96702571D01*
X145812000Y-97226380D01*
X146288190Y-97226380D02*
X146288190Y-96226380D01*
X146383428Y-96845428D02*
X146669142Y-97226380D01*
X146669142Y-96559714D02*
X146288190Y-96940666D01*
X147002476Y-96226380D02*
X147669142Y-96226380D01*
X147240571Y-97226380D01*
X148002476Y-96321619D02*
X148050095Y-96274000D01*
X148145333Y-96226380D01*
X148383428Y-96226380D01*
X148478666Y-96274000D01*
X148526285Y-96321619D01*
X148573904Y-96416857D01*
X148573904Y-96512095D01*
X148526285Y-96654952D01*
X147954857Y-97226380D01*
X148573904Y-97226380D01*
X149621523Y-96750190D02*
X149573904Y-96702571D01*
X149478666Y-96654952D01*
X149383428Y-96654952D01*
X149288190Y-96702571D01*
X149240571Y-96750190D01*
X149192952Y-96845428D01*
X149192952Y-96940666D01*
X149240571Y-97035904D01*
X149288190Y-97083523D01*
X149383428Y-97131142D01*
X149478666Y-97131142D01*
X149573904Y-97083523D01*
X149621523Y-97035904D01*
X149621523Y-96654952D02*
X149621523Y-97035904D01*
X149669142Y-97083523D01*
X149716761Y-97083523D01*
X149812000Y-97035904D01*
X149859619Y-96940666D01*
X149859619Y-96702571D01*
X149764380Y-96559714D01*
X149621523Y-96464476D01*
X149431047Y-96416857D01*
X149240571Y-96464476D01*
X149097714Y-96559714D01*
X149002476Y-96702571D01*
X148954857Y-96893047D01*
X149002476Y-97083523D01*
X149097714Y-97226380D01*
X149240571Y-97321619D01*
X149431047Y-97369238D01*
X149621523Y-97321619D01*
X149764380Y-97226380D01*
X150716761Y-96559714D02*
X150716761Y-97369238D01*
X150669142Y-97464476D01*
X150621523Y-97512095D01*
X150526285Y-97559714D01*
X150383428Y-97559714D01*
X150288190Y-97512095D01*
X150716761Y-97178761D02*
X150621523Y-97226380D01*
X150431047Y-97226380D01*
X150335809Y-97178761D01*
X150288190Y-97131142D01*
X150240571Y-97035904D01*
X150240571Y-96750190D01*
X150288190Y-96654952D01*
X150335809Y-96607333D01*
X150431047Y-96559714D01*
X150621523Y-96559714D01*
X150716761Y-96607333D01*
X151192952Y-97226380D02*
X151192952Y-96559714D01*
X151192952Y-96654952D02*
X151240571Y-96607333D01*
X151335809Y-96559714D01*
X151478666Y-96559714D01*
X151573904Y-96607333D01*
X151621523Y-96702571D01*
X151621523Y-97226380D01*
X151621523Y-96702571D02*
X151669142Y-96607333D01*
X151764380Y-96559714D01*
X151907238Y-96559714D01*
X152002476Y-96607333D01*
X152050095Y-96702571D01*
X152050095Y-97226380D01*
X152954857Y-97226380D02*
X152954857Y-96702571D01*
X152907238Y-96607333D01*
X152812000Y-96559714D01*
X152621523Y-96559714D01*
X152526285Y-96607333D01*
X152954857Y-97178761D02*
X152859619Y-97226380D01*
X152621523Y-97226380D01*
X152526285Y-97178761D01*
X152478666Y-97083523D01*
X152478666Y-96988285D01*
X152526285Y-96893047D01*
X152621523Y-96845428D01*
X152859619Y-96845428D01*
X152954857Y-96797809D01*
X153431047Y-97226380D02*
X153431047Y-96559714D01*
X153431047Y-96226380D02*
X153383428Y-96274000D01*
X153431047Y-96321619D01*
X153478666Y-96274000D01*
X153431047Y-96226380D01*
X153431047Y-96321619D01*
X154050095Y-97226380D02*
X153954857Y-97178761D01*
X153907238Y-97083523D01*
X153907238Y-96226380D01*
X154431047Y-97131142D02*
X154478666Y-97178761D01*
X154431047Y-97226380D01*
X154383428Y-97178761D01*
X154431047Y-97131142D01*
X154431047Y-97226380D01*
X155335809Y-97178761D02*
X155240571Y-97226380D01*
X155050095Y-97226380D01*
X154954857Y-97178761D01*
X154907238Y-97131142D01*
X154859619Y-97035904D01*
X154859619Y-96750190D01*
X154907238Y-96654952D01*
X154954857Y-96607333D01*
X155050095Y-96559714D01*
X155240571Y-96559714D01*
X155335809Y-96607333D01*
X155907238Y-97226380D02*
X155812000Y-97178761D01*
X155764380Y-97131142D01*
X155716761Y-97035904D01*
X155716761Y-96750190D01*
X155764380Y-96654952D01*
X155812000Y-96607333D01*
X155907238Y-96559714D01*
X156050095Y-96559714D01*
X156145333Y-96607333D01*
X156192952Y-96654952D01*
X156240571Y-96750190D01*
X156240571Y-97035904D01*
X156192952Y-97131142D01*
X156145333Y-97178761D01*
X156050095Y-97226380D01*
X155907238Y-97226380D01*
X156669142Y-97226380D02*
X156669142Y-96559714D01*
X156669142Y-96654952D02*
X156716761Y-96607333D01*
X156812000Y-96559714D01*
X156954857Y-96559714D01*
X157050095Y-96607333D01*
X157097714Y-96702571D01*
X157097714Y-97226380D01*
X157097714Y-96702571D02*
X157145333Y-96607333D01*
X157240571Y-96559714D01*
X157383428Y-96559714D01*
X157478666Y-96607333D01*
X157526285Y-96702571D01*
X157526285Y-97226380D01*
D11*
X122016000Y-112624000D02*
X123776000Y-112624000D01*
X123776000Y-109554000D02*
X121346000Y-109554000D01*
X137603000Y-120656500D02*
X137603000Y-110415500D01*
X142244000Y-120656500D02*
X142244000Y-118300500D01*
X142244000Y-116170500D02*
X142244000Y-114900500D01*
X142244000Y-112770500D02*
X142244000Y-110415500D01*
X137603000Y-120656500D02*
X142244000Y-120656500D01*
X137603000Y-110415500D02*
X142244000Y-110415500D01*
X139112000Y-120656500D02*
X139112000Y-110415500D01*
X137603000Y-117385500D02*
X139112000Y-117385500D01*
X137603000Y-113685500D02*
X139112000Y-113685500D01*
X142244000Y-118935500D02*
X144874000Y-118935500D01*
X142244000Y-115535500D02*
X144858000Y-115535500D01*
X142244000Y-112135500D02*
X144858000Y-112135500D01*
X116439000Y-125541000D02*
X116439000Y-127491000D01*
X116439000Y-125541000D02*
X116439000Y-123591000D01*
X121559000Y-125541000D02*
X121559000Y-127491000D01*
X121559000Y-125541000D02*
X121559000Y-122091000D01*
X104410000Y-112970000D02*
X102760000Y-112970000D01*
X102760000Y-112970000D02*
X102760000Y-123250000D01*
X102760000Y-123250000D02*
X108060000Y-123250000D01*
X108060000Y-123250000D02*
X108060000Y-112970000D01*
X108060000Y-112970000D02*
X106410000Y-112970000D01*
X106410000Y-112970000D02*
G75*
G02*
X104410000Y-112970000I-1000000J0D01*
G01*
X127296936Y-111279000D02*
X127751064Y-111279000D01*
X127296936Y-112749000D02*
X127751064Y-112749000D01*
X122311936Y-113565000D02*
X122766064Y-113565000D01*
X122311936Y-115035000D02*
X122766064Y-115035000D01*
X156056000Y-112913936D02*
X156056000Y-113368064D01*
X154586000Y-112913936D02*
X154586000Y-113368064D01*
X151976064Y-112876000D02*
X151521936Y-112876000D01*
X151976064Y-111406000D02*
X151521936Y-111406000D01*
X133123000Y-115051064D02*
X133123000Y-114596936D01*
X134593000Y-115051064D02*
X134593000Y-114596936D01*
X132069064Y-121639000D02*
X131614936Y-121639000D01*
X132069064Y-120169000D02*
X131614936Y-120169000D01*
X114654000Y-101610936D02*
X114654000Y-102065064D01*
X113184000Y-101610936D02*
X113184000Y-102065064D01*
X124687000Y-125232936D02*
X124687000Y-125687064D01*
X123217000Y-125232936D02*
X123217000Y-125687064D01*
X92429000Y-109516936D02*
X92429000Y-109971064D01*
X90959000Y-109516936D02*
X90959000Y-109971064D01*
X107018064Y-103605000D02*
X106563936Y-103605000D01*
X107018064Y-102135000D02*
X106563936Y-102135000D01*
X109971064Y-112114000D02*
X109516936Y-112114000D01*
X109971064Y-110644000D02*
X109516936Y-110644000D01*
X99795000Y-114342936D02*
X99795000Y-114797064D01*
X98325000Y-114342936D02*
X98325000Y-114797064D01*
X90959000Y-114035064D02*
X90959000Y-113580936D01*
X92429000Y-114035064D02*
X92429000Y-113580936D01*
X93499000Y-114035064D02*
X93499000Y-113580936D01*
X94969000Y-114035064D02*
X94969000Y-113580936D01*
X96293000Y-116067064D02*
X96293000Y-115612936D01*
X97763000Y-116067064D02*
X97763000Y-115612936D01*
X90651000Y-120152936D02*
X90651000Y-120607064D01*
X89181000Y-120152936D02*
X89181000Y-120607064D01*
X165081000Y-122174000D02*
G75*
G03*
X165081000Y-122174000I-1251000J0D01*
G01*
X165081000Y-112141000D02*
G75*
G03*
X165081000Y-112141000I-1251000J0D01*
G01*
X144253000Y-144780000D02*
G75*
G03*
X144253000Y-144780000I-1251000J0D01*
G01*
X136760000Y-144780000D02*
G75*
G03*
X136760000Y-144780000I-1251000J0D01*
G01*
X129267000Y-144780000D02*
G75*
G03*
X129267000Y-144780000I-1251000J0D01*
G01*
X81261000Y-129413000D02*
G75*
G03*
X81261000Y-129413000I-1251000J0D01*
G01*
X81261000Y-119380000D02*
G75*
G03*
X81261000Y-119380000I-1251000J0D01*
G01*
X139795000Y-97823000D02*
X137905000Y-99783000D01*
X139945000Y-97913000D02*
X139795000Y-97823000D01*
X139265000Y-99963000D02*
X139945000Y-97913000D01*
X143035000Y-97813000D02*
X139265000Y-99963000D01*
X143155000Y-97933000D02*
X143035000Y-97813000D01*
X140275000Y-103233000D02*
X143155000Y-97933000D01*
X143075000Y-102573000D02*
X140275000Y-103233000D01*
X143135000Y-102753000D02*
X143075000Y-102573000D01*
X139415000Y-105253000D02*
X143135000Y-102753000D01*
X143125000Y-106873000D02*
X139415000Y-105263000D01*
X143125000Y-107543000D02*
X143125000Y-106873000D01*
X137375000Y-107543000D02*
X143125000Y-107543000D01*
X137375000Y-115443000D02*
X137375000Y-107543000D01*
X129925000Y-107543000D02*
X129925000Y-106873000D01*
X135675000Y-107543000D02*
X129925000Y-107543000D01*
X135675000Y-115443000D02*
X135675000Y-107543000D01*
X129925000Y-106873000D02*
X133635000Y-105263000D01*
X133105000Y-97913000D02*
X133255000Y-97823000D01*
X129895000Y-97933000D02*
X130015000Y-97813000D01*
X130015000Y-97813000D02*
X133785000Y-99963000D01*
X133785000Y-99963000D02*
X133105000Y-97913000D01*
X133255000Y-97823000D02*
X135145000Y-99783000D01*
X132775000Y-103233000D02*
X129895000Y-97933000D01*
X133635000Y-105253000D02*
X129915000Y-102753000D01*
X129915000Y-102753000D02*
X129975000Y-102573000D01*
X129975000Y-102573000D02*
X132775000Y-103233000D01*
X137375000Y-115443000D02*
X137375000Y-123343000D01*
X143125000Y-124013000D02*
X139415000Y-125623000D01*
X143125000Y-123343000D02*
X143125000Y-124013000D01*
X137375000Y-123343000D02*
X143125000Y-123343000D01*
X135675000Y-115443000D02*
X135675000Y-123343000D01*
X133785000Y-130923000D02*
X133105000Y-132973000D01*
X129895000Y-132953000D02*
X130015000Y-133073000D01*
X133105000Y-132973000D02*
X133255000Y-133063000D01*
X130015000Y-133073000D02*
X133785000Y-130923000D01*
X133255000Y-133063000D02*
X135145000Y-131103000D01*
X133635000Y-125633000D02*
X129915000Y-128133000D01*
X129975000Y-128313000D02*
X132775000Y-127653000D01*
X129915000Y-128133000D02*
X129975000Y-128313000D01*
X132775000Y-127653000D02*
X129895000Y-132953000D01*
X129925000Y-123343000D02*
X129925000Y-124013000D01*
X135675000Y-123343000D02*
X129925000Y-123343000D01*
X129925000Y-124013000D02*
X133635000Y-125623000D01*
X143155000Y-132953000D02*
X143035000Y-133073000D01*
X139795000Y-133063000D02*
X137905000Y-131103000D01*
X139265000Y-130923000D02*
X139945000Y-132973000D01*
X139945000Y-132973000D02*
X139795000Y-133063000D01*
X143035000Y-133073000D02*
X139265000Y-130923000D01*
X140275000Y-127653000D02*
X143155000Y-132953000D01*
X143075000Y-128313000D02*
X140275000Y-127653000D01*
X143135000Y-128133000D02*
X143075000Y-128313000D01*
X139415000Y-125633000D02*
X143135000Y-128133000D01*
X127759000Y-119853000D02*
X120319000Y-119853000D01*
X127759000Y-116113000D02*
X120319000Y-116113000D01*
X127759000Y-119853000D02*
X127759000Y-116113000D01*
X120319000Y-119853000D02*
X120319000Y-116113000D01*
X118264000Y-112380752D02*
X118264000Y-111858248D01*
X119734000Y-112380752D02*
X119734000Y-111858248D01*
X124939248Y-107215000D02*
X125461752Y-107215000D01*
X124939248Y-108685000D02*
X125461752Y-108685000D01*
X114858000Y-104810000D02*
X122298000Y-104810000D01*
X114858000Y-108550000D02*
X122298000Y-108550000D01*
X114858000Y-104810000D02*
X114858000Y-108550000D01*
X122298000Y-104810000D02*
X122298000Y-108550000D01*
X159152000Y-112992248D02*
X159152000Y-114414752D01*
X157332000Y-112992248D02*
X157332000Y-114414752D01*
X150325000Y-137033000D02*
G75*
G03*
X150325000Y-137033000I-4120000J0D01*
G01*
X146205000Y-132953000D02*
X146205000Y-141113000D01*
X146245000Y-132953000D02*
X146245000Y-141113000D01*
X146285000Y-132953000D02*
X146285000Y-141113000D01*
X146325000Y-132954000D02*
X146325000Y-141112000D01*
X146365000Y-132956000D02*
X146365000Y-141110000D01*
X146405000Y-132957000D02*
X146405000Y-141109000D01*
X146445000Y-132959000D02*
X146445000Y-141107000D01*
X146485000Y-132962000D02*
X146485000Y-141104000D01*
X146525000Y-132965000D02*
X146525000Y-141101000D01*
X146565000Y-132968000D02*
X146565000Y-141098000D01*
X146605000Y-132972000D02*
X146605000Y-141094000D01*
X146645000Y-132976000D02*
X146645000Y-141090000D01*
X146685000Y-132981000D02*
X146685000Y-141085000D01*
X146725000Y-132985000D02*
X146725000Y-141081000D01*
X146765000Y-132991000D02*
X146765000Y-141075000D01*
X146805000Y-132996000D02*
X146805000Y-141070000D01*
X146845000Y-133003000D02*
X146845000Y-141063000D01*
X146885000Y-133009000D02*
X146885000Y-141057000D01*
X146926000Y-133016000D02*
X146926000Y-135993000D01*
X146926000Y-138073000D02*
X146926000Y-141050000D01*
X146966000Y-133023000D02*
X146966000Y-135993000D01*
X146966000Y-138073000D02*
X146966000Y-141043000D01*
X147006000Y-133031000D02*
X147006000Y-135993000D01*
X147006000Y-138073000D02*
X147006000Y-141035000D01*
X147046000Y-133039000D02*
X147046000Y-135993000D01*
X147046000Y-138073000D02*
X147046000Y-141027000D01*
X147086000Y-133048000D02*
X147086000Y-135993000D01*
X147086000Y-138073000D02*
X147086000Y-141018000D01*
X147126000Y-133057000D02*
X147126000Y-135993000D01*
X147126000Y-138073000D02*
X147126000Y-141009000D01*
X147166000Y-133066000D02*
X147166000Y-135993000D01*
X147166000Y-138073000D02*
X147166000Y-141000000D01*
X147206000Y-133076000D02*
X147206000Y-135993000D01*
X147206000Y-138073000D02*
X147206000Y-140990000D01*
X147246000Y-133086000D02*
X147246000Y-135993000D01*
X147246000Y-138073000D02*
X147246000Y-140980000D01*
X147286000Y-133097000D02*
X147286000Y-135993000D01*
X147286000Y-138073000D02*
X147286000Y-140969000D01*
X147326000Y-133108000D02*
X147326000Y-135993000D01*
X147326000Y-138073000D02*
X147326000Y-140958000D01*
X147366000Y-133119000D02*
X147366000Y-135993000D01*
X147366000Y-138073000D02*
X147366000Y-140947000D01*
X147406000Y-133131000D02*
X147406000Y-135993000D01*
X147406000Y-138073000D02*
X147406000Y-140935000D01*
X147446000Y-133144000D02*
X147446000Y-135993000D01*
X147446000Y-138073000D02*
X147446000Y-140922000D01*
X147486000Y-133156000D02*
X147486000Y-135993000D01*
X147486000Y-138073000D02*
X147486000Y-140910000D01*
X147526000Y-133170000D02*
X147526000Y-135993000D01*
X147526000Y-138073000D02*
X147526000Y-140896000D01*
X147566000Y-133183000D02*
X147566000Y-135993000D01*
X147566000Y-138073000D02*
X147566000Y-140883000D01*
X147606000Y-133198000D02*
X147606000Y-135993000D01*
X147606000Y-138073000D02*
X147606000Y-140868000D01*
X147646000Y-133212000D02*
X147646000Y-135993000D01*
X147646000Y-138073000D02*
X147646000Y-140854000D01*
X147686000Y-133228000D02*
X147686000Y-135993000D01*
X147686000Y-138073000D02*
X147686000Y-140838000D01*
X147726000Y-133243000D02*
X147726000Y-135993000D01*
X147726000Y-138073000D02*
X147726000Y-140823000D01*
X147766000Y-133259000D02*
X147766000Y-135993000D01*
X147766000Y-138073000D02*
X147766000Y-140807000D01*
X147806000Y-133276000D02*
X147806000Y-135993000D01*
X147806000Y-138073000D02*
X147806000Y-140790000D01*
X147846000Y-133293000D02*
X147846000Y-135993000D01*
X147846000Y-138073000D02*
X147846000Y-140773000D01*
X147886000Y-133311000D02*
X147886000Y-135993000D01*
X147886000Y-138073000D02*
X147886000Y-140755000D01*
X147926000Y-133329000D02*
X147926000Y-135993000D01*
X147926000Y-138073000D02*
X147926000Y-140737000D01*
X147966000Y-133347000D02*
X147966000Y-135993000D01*
X147966000Y-138073000D02*
X147966000Y-140719000D01*
X148006000Y-133367000D02*
X148006000Y-135993000D01*
X148006000Y-138073000D02*
X148006000Y-140699000D01*
X148046000Y-133386000D02*
X148046000Y-135993000D01*
X148046000Y-138073000D02*
X148046000Y-140680000D01*
X148086000Y-133406000D02*
X148086000Y-135993000D01*
X148086000Y-138073000D02*
X148086000Y-140660000D01*
X148126000Y-133427000D02*
X148126000Y-135993000D01*
X148126000Y-138073000D02*
X148126000Y-140639000D01*
X148166000Y-133449000D02*
X148166000Y-135993000D01*
X148166000Y-138073000D02*
X148166000Y-140617000D01*
X148206000Y-133471000D02*
X148206000Y-135993000D01*
X148206000Y-138073000D02*
X148206000Y-140595000D01*
X148246000Y-133493000D02*
X148246000Y-135993000D01*
X148246000Y-138073000D02*
X148246000Y-140573000D01*
X148286000Y-133516000D02*
X148286000Y-135993000D01*
X148286000Y-138073000D02*
X148286000Y-140550000D01*
X148326000Y-133540000D02*
X148326000Y-135993000D01*
X148326000Y-138073000D02*
X148326000Y-140526000D01*
X148366000Y-133564000D02*
X148366000Y-135993000D01*
X148366000Y-138073000D02*
X148366000Y-140502000D01*
X148406000Y-133589000D02*
X148406000Y-135993000D01*
X148406000Y-138073000D02*
X148406000Y-140477000D01*
X148446000Y-133615000D02*
X148446000Y-135993000D01*
X148446000Y-138073000D02*
X148446000Y-140451000D01*
X148486000Y-133641000D02*
X148486000Y-135993000D01*
X148486000Y-138073000D02*
X148486000Y-140425000D01*
X148526000Y-133668000D02*
X148526000Y-135993000D01*
X148526000Y-138073000D02*
X148526000Y-140398000D01*
X148566000Y-133695000D02*
X148566000Y-135993000D01*
X148566000Y-138073000D02*
X148566000Y-140371000D01*
X148606000Y-133724000D02*
X148606000Y-135993000D01*
X148606000Y-138073000D02*
X148606000Y-140342000D01*
X148646000Y-133753000D02*
X148646000Y-135993000D01*
X148646000Y-138073000D02*
X148646000Y-140313000D01*
X148686000Y-133783000D02*
X148686000Y-135993000D01*
X148686000Y-138073000D02*
X148686000Y-140283000D01*
X148726000Y-133813000D02*
X148726000Y-135993000D01*
X148726000Y-138073000D02*
X148726000Y-140253000D01*
X148766000Y-133844000D02*
X148766000Y-135993000D01*
X148766000Y-138073000D02*
X148766000Y-140222000D01*
X148806000Y-133877000D02*
X148806000Y-135993000D01*
X148806000Y-138073000D02*
X148806000Y-140189000D01*
X148846000Y-133909000D02*
X148846000Y-135993000D01*
X148846000Y-138073000D02*
X148846000Y-140157000D01*
X148886000Y-133943000D02*
X148886000Y-135993000D01*
X148886000Y-138073000D02*
X148886000Y-140123000D01*
X148926000Y-133978000D02*
X148926000Y-135993000D01*
X148926000Y-138073000D02*
X148926000Y-140088000D01*
X148966000Y-134014000D02*
X148966000Y-135993000D01*
X148966000Y-138073000D02*
X148966000Y-140052000D01*
X149006000Y-134050000D02*
X149006000Y-140016000D01*
X149046000Y-134088000D02*
X149046000Y-139978000D01*
X149086000Y-134126000D02*
X149086000Y-139940000D01*
X149126000Y-134166000D02*
X149126000Y-139900000D01*
X149166000Y-134207000D02*
X149166000Y-139859000D01*
X149206000Y-134249000D02*
X149206000Y-139817000D01*
X149246000Y-134292000D02*
X149246000Y-139774000D01*
X149286000Y-134336000D02*
X149286000Y-139730000D01*
X149326000Y-134382000D02*
X149326000Y-139684000D01*
X149366000Y-134429000D02*
X149366000Y-139637000D01*
X149406000Y-134477000D02*
X149406000Y-139589000D01*
X149446000Y-134528000D02*
X149446000Y-139538000D01*
X149486000Y-134579000D02*
X149486000Y-139487000D01*
X149526000Y-134633000D02*
X149526000Y-139433000D01*
X149566000Y-134688000D02*
X149566000Y-139378000D01*
X149606000Y-134746000D02*
X149606000Y-139320000D01*
X149646000Y-134805000D02*
X149646000Y-139261000D01*
X149686000Y-134867000D02*
X149686000Y-139199000D01*
X149726000Y-134931000D02*
X149726000Y-139135000D01*
X149766000Y-134999000D02*
X149766000Y-139067000D01*
X149806000Y-135069000D02*
X149806000Y-138997000D01*
X149846000Y-135143000D02*
X149846000Y-138923000D01*
X149886000Y-135220000D02*
X149886000Y-138846000D01*
X149926000Y-135302000D02*
X149926000Y-138764000D01*
X149966000Y-135388000D02*
X149966000Y-138678000D01*
X150006000Y-135481000D02*
X150006000Y-138585000D01*
X150046000Y-135580000D02*
X150046000Y-138486000D01*
X150086000Y-135687000D02*
X150086000Y-138379000D01*
X150126000Y-135804000D02*
X150126000Y-138262000D01*
X150166000Y-135935000D02*
X150166000Y-138131000D01*
X150206000Y-136085000D02*
X150206000Y-137981000D01*
X150246000Y-136265000D02*
X150246000Y-137801000D01*
X150286000Y-136500000D02*
X150286000Y-137566000D01*
X141795302Y-134718000D02*
X142595302Y-134718000D01*
X142195302Y-134318000D02*
X142195302Y-135118000D01*
X151752752Y-116930000D02*
X150330248Y-116930000D01*
X151752752Y-114210000D02*
X150330248Y-114210000D01*
X129450000Y-116369752D02*
X129450000Y-114947248D01*
X132170000Y-116369752D02*
X132170000Y-114947248D01*
X130386000Y-137033000D02*
G75*
G03*
X130386000Y-137033000I-4120000J0D01*
G01*
X126266000Y-141113000D02*
X126266000Y-132953000D01*
X126226000Y-141113000D02*
X126226000Y-132953000D01*
X126186000Y-141113000D02*
X126186000Y-132953000D01*
X126146000Y-141112000D02*
X126146000Y-132954000D01*
X126106000Y-141110000D02*
X126106000Y-132956000D01*
X126066000Y-141109000D02*
X126066000Y-132957000D01*
X126026000Y-141107000D02*
X126026000Y-132959000D01*
X125986000Y-141104000D02*
X125986000Y-132962000D01*
X125946000Y-141101000D02*
X125946000Y-132965000D01*
X125906000Y-141098000D02*
X125906000Y-132968000D01*
X125866000Y-141094000D02*
X125866000Y-132972000D01*
X125826000Y-141090000D02*
X125826000Y-132976000D01*
X125786000Y-141085000D02*
X125786000Y-132981000D01*
X125746000Y-141081000D02*
X125746000Y-132985000D01*
X125706000Y-141075000D02*
X125706000Y-132991000D01*
X125666000Y-141070000D02*
X125666000Y-132996000D01*
X125626000Y-141063000D02*
X125626000Y-133003000D01*
X125586000Y-141057000D02*
X125586000Y-133009000D01*
X125545000Y-141050000D02*
X125545000Y-138073000D01*
X125545000Y-135993000D02*
X125545000Y-133016000D01*
X125505000Y-141043000D02*
X125505000Y-138073000D01*
X125505000Y-135993000D02*
X125505000Y-133023000D01*
X125465000Y-141035000D02*
X125465000Y-138073000D01*
X125465000Y-135993000D02*
X125465000Y-133031000D01*
X125425000Y-141027000D02*
X125425000Y-138073000D01*
X125425000Y-135993000D02*
X125425000Y-133039000D01*
X125385000Y-141018000D02*
X125385000Y-138073000D01*
X125385000Y-135993000D02*
X125385000Y-133048000D01*
X125345000Y-141009000D02*
X125345000Y-138073000D01*
X125345000Y-135993000D02*
X125345000Y-133057000D01*
X125305000Y-141000000D02*
X125305000Y-138073000D01*
X125305000Y-135993000D02*
X125305000Y-133066000D01*
X125265000Y-140990000D02*
X125265000Y-138073000D01*
X125265000Y-135993000D02*
X125265000Y-133076000D01*
X125225000Y-140980000D02*
X125225000Y-138073000D01*
X125225000Y-135993000D02*
X125225000Y-133086000D01*
X125185000Y-140969000D02*
X125185000Y-138073000D01*
X125185000Y-135993000D02*
X125185000Y-133097000D01*
X125145000Y-140958000D02*
X125145000Y-138073000D01*
X125145000Y-135993000D02*
X125145000Y-133108000D01*
X125105000Y-140947000D02*
X125105000Y-138073000D01*
X125105000Y-135993000D02*
X125105000Y-133119000D01*
X125065000Y-140935000D02*
X125065000Y-138073000D01*
X125065000Y-135993000D02*
X125065000Y-133131000D01*
X125025000Y-140922000D02*
X125025000Y-138073000D01*
X125025000Y-135993000D02*
X125025000Y-133144000D01*
X124985000Y-140910000D02*
X124985000Y-138073000D01*
X124985000Y-135993000D02*
X124985000Y-133156000D01*
X124945000Y-140896000D02*
X124945000Y-138073000D01*
X124945000Y-135993000D02*
X124945000Y-133170000D01*
X124905000Y-140883000D02*
X124905000Y-138073000D01*
X124905000Y-135993000D02*
X124905000Y-133183000D01*
X124865000Y-140868000D02*
X124865000Y-138073000D01*
X124865000Y-135993000D02*
X124865000Y-133198000D01*
X124825000Y-140854000D02*
X124825000Y-138073000D01*
X124825000Y-135993000D02*
X124825000Y-133212000D01*
X124785000Y-140838000D02*
X124785000Y-138073000D01*
X124785000Y-135993000D02*
X124785000Y-133228000D01*
X124745000Y-140823000D02*
X124745000Y-138073000D01*
X124745000Y-135993000D02*
X124745000Y-133243000D01*
X124705000Y-140807000D02*
X124705000Y-138073000D01*
X124705000Y-135993000D02*
X124705000Y-133259000D01*
X124665000Y-140790000D02*
X124665000Y-138073000D01*
X124665000Y-135993000D02*
X124665000Y-133276000D01*
X124625000Y-140773000D02*
X124625000Y-138073000D01*
X124625000Y-135993000D02*
X124625000Y-133293000D01*
X124585000Y-140755000D02*
X124585000Y-138073000D01*
X124585000Y-135993000D02*
X124585000Y-133311000D01*
X124545000Y-140737000D02*
X124545000Y-138073000D01*
X124545000Y-135993000D02*
X124545000Y-133329000D01*
X124505000Y-140719000D02*
X124505000Y-138073000D01*
X124505000Y-135993000D02*
X124505000Y-133347000D01*
X124465000Y-140699000D02*
X124465000Y-138073000D01*
X124465000Y-135993000D02*
X124465000Y-133367000D01*
X124425000Y-140680000D02*
X124425000Y-138073000D01*
X124425000Y-135993000D02*
X124425000Y-133386000D01*
X124385000Y-140660000D02*
X124385000Y-138073000D01*
X124385000Y-135993000D02*
X124385000Y-133406000D01*
X124345000Y-140639000D02*
X124345000Y-138073000D01*
X124345000Y-135993000D02*
X124345000Y-133427000D01*
X124305000Y-140617000D02*
X124305000Y-138073000D01*
X124305000Y-135993000D02*
X124305000Y-133449000D01*
X124265000Y-140595000D02*
X124265000Y-138073000D01*
X124265000Y-135993000D02*
X124265000Y-133471000D01*
X124225000Y-140573000D02*
X124225000Y-138073000D01*
X124225000Y-135993000D02*
X124225000Y-133493000D01*
X124185000Y-140550000D02*
X124185000Y-138073000D01*
X124185000Y-135993000D02*
X124185000Y-133516000D01*
X124145000Y-140526000D02*
X124145000Y-138073000D01*
X124145000Y-135993000D02*
X124145000Y-133540000D01*
X124105000Y-140502000D02*
X124105000Y-138073000D01*
X124105000Y-135993000D02*
X124105000Y-133564000D01*
X124065000Y-140477000D02*
X124065000Y-138073000D01*
X124065000Y-135993000D02*
X124065000Y-133589000D01*
X124025000Y-140451000D02*
X124025000Y-138073000D01*
X124025000Y-135993000D02*
X124025000Y-133615000D01*
X123985000Y-140425000D02*
X123985000Y-138073000D01*
X123985000Y-135993000D02*
X123985000Y-133641000D01*
X123945000Y-140398000D02*
X123945000Y-138073000D01*
X123945000Y-135993000D02*
X123945000Y-133668000D01*
X123905000Y-140371000D02*
X123905000Y-138073000D01*
X123905000Y-135993000D02*
X123905000Y-133695000D01*
X123865000Y-140342000D02*
X123865000Y-138073000D01*
X123865000Y-135993000D02*
X123865000Y-133724000D01*
X123825000Y-140313000D02*
X123825000Y-138073000D01*
X123825000Y-135993000D02*
X123825000Y-133753000D01*
X123785000Y-140283000D02*
X123785000Y-138073000D01*
X123785000Y-135993000D02*
X123785000Y-133783000D01*
X123745000Y-140253000D02*
X123745000Y-138073000D01*
X123745000Y-135993000D02*
X123745000Y-133813000D01*
X123705000Y-140222000D02*
X123705000Y-138073000D01*
X123705000Y-135993000D02*
X123705000Y-133844000D01*
X123665000Y-140189000D02*
X123665000Y-138073000D01*
X123665000Y-135993000D02*
X123665000Y-133877000D01*
X123625000Y-140157000D02*
X123625000Y-138073000D01*
X123625000Y-135993000D02*
X123625000Y-133909000D01*
X123585000Y-140123000D02*
X123585000Y-138073000D01*
X123585000Y-135993000D02*
X123585000Y-133943000D01*
X123545000Y-140088000D02*
X123545000Y-138073000D01*
X123545000Y-135993000D02*
X123545000Y-133978000D01*
X123505000Y-140052000D02*
X123505000Y-138073000D01*
X123505000Y-135993000D02*
X123505000Y-134014000D01*
X123465000Y-140016000D02*
X123465000Y-134050000D01*
X123425000Y-139978000D02*
X123425000Y-134088000D01*
X123385000Y-139940000D02*
X123385000Y-134126000D01*
X123345000Y-139900000D02*
X123345000Y-134166000D01*
X123305000Y-139859000D02*
X123305000Y-134207000D01*
X123265000Y-139817000D02*
X123265000Y-134249000D01*
X123225000Y-139774000D02*
X123225000Y-134292000D01*
X123185000Y-139730000D02*
X123185000Y-134336000D01*
X123145000Y-139684000D02*
X123145000Y-134382000D01*
X123105000Y-139637000D02*
X123105000Y-134429000D01*
X123065000Y-139589000D02*
X123065000Y-134477000D01*
X123025000Y-139538000D02*
X123025000Y-134528000D01*
X122985000Y-139487000D02*
X122985000Y-134579000D01*
X122945000Y-139433000D02*
X122945000Y-134633000D01*
X122905000Y-139378000D02*
X122905000Y-134688000D01*
X122865000Y-139320000D02*
X122865000Y-134746000D01*
X122825000Y-139261000D02*
X122825000Y-134805000D01*
X122785000Y-139199000D02*
X122785000Y-134867000D01*
X122745000Y-139135000D02*
X122745000Y-134931000D01*
X122705000Y-139067000D02*
X122705000Y-134999000D01*
X122665000Y-138997000D02*
X122665000Y-135069000D01*
X122625000Y-138923000D02*
X122625000Y-135143000D01*
X122585000Y-138846000D02*
X122585000Y-135220000D01*
X122545000Y-138764000D02*
X122545000Y-135302000D01*
X122505000Y-138678000D02*
X122505000Y-135388000D01*
X122465000Y-138585000D02*
X122465000Y-135481000D01*
X122425000Y-138486000D02*
X122425000Y-135580000D01*
X122385000Y-138379000D02*
X122385000Y-135687000D01*
X122345000Y-138262000D02*
X122345000Y-135804000D01*
X122305000Y-138131000D02*
X122305000Y-135935000D01*
X122265000Y-137981000D02*
X122265000Y-136085000D01*
X122225000Y-137801000D02*
X122225000Y-136265000D01*
X122185000Y-137566000D02*
X122185000Y-136500000D01*
X130675698Y-139348000D02*
X129875698Y-139348000D01*
X130275698Y-139748000D02*
X130275698Y-138948000D01*
X112104000Y-100596248D02*
X112104000Y-102018752D01*
X109384000Y-100596248D02*
X109384000Y-102018752D01*
X107683752Y-109241000D02*
X106261248Y-109241000D01*
X107683752Y-107421000D02*
X106261248Y-107421000D01*
X107089752Y-106272000D02*
X106567248Y-106272000D01*
X107089752Y-104802000D02*
X106567248Y-104802000D01*
X103970000Y-133858000D02*
G75*
G03*
X103970000Y-133858000I-4120000J0D01*
G01*
X99850000Y-129778000D02*
X99850000Y-137938000D01*
X99890000Y-129778000D02*
X99890000Y-137938000D01*
X99930000Y-129778000D02*
X99930000Y-137938000D01*
X99970000Y-129779000D02*
X99970000Y-137937000D01*
X100010000Y-129781000D02*
X100010000Y-137935000D01*
X100050000Y-129782000D02*
X100050000Y-137934000D01*
X100090000Y-129784000D02*
X100090000Y-137932000D01*
X100130000Y-129787000D02*
X100130000Y-137929000D01*
X100170000Y-129790000D02*
X100170000Y-137926000D01*
X100210000Y-129793000D02*
X100210000Y-137923000D01*
X100250000Y-129797000D02*
X100250000Y-137919000D01*
X100290000Y-129801000D02*
X100290000Y-137915000D01*
X100330000Y-129806000D02*
X100330000Y-137910000D01*
X100370000Y-129810000D02*
X100370000Y-137906000D01*
X100410000Y-129816000D02*
X100410000Y-137900000D01*
X100450000Y-129821000D02*
X100450000Y-137895000D01*
X100490000Y-129828000D02*
X100490000Y-137888000D01*
X100530000Y-129834000D02*
X100530000Y-137882000D01*
X100571000Y-129841000D02*
X100571000Y-132818000D01*
X100571000Y-134898000D02*
X100571000Y-137875000D01*
X100611000Y-129848000D02*
X100611000Y-132818000D01*
X100611000Y-134898000D02*
X100611000Y-137868000D01*
X100651000Y-129856000D02*
X100651000Y-132818000D01*
X100651000Y-134898000D02*
X100651000Y-137860000D01*
X100691000Y-129864000D02*
X100691000Y-132818000D01*
X100691000Y-134898000D02*
X100691000Y-137852000D01*
X100731000Y-129873000D02*
X100731000Y-132818000D01*
X100731000Y-134898000D02*
X100731000Y-137843000D01*
X100771000Y-129882000D02*
X100771000Y-132818000D01*
X100771000Y-134898000D02*
X100771000Y-137834000D01*
X100811000Y-129891000D02*
X100811000Y-132818000D01*
X100811000Y-134898000D02*
X100811000Y-137825000D01*
X100851000Y-129901000D02*
X100851000Y-132818000D01*
X100851000Y-134898000D02*
X100851000Y-137815000D01*
X100891000Y-129911000D02*
X100891000Y-132818000D01*
X100891000Y-134898000D02*
X100891000Y-137805000D01*
X100931000Y-129922000D02*
X100931000Y-132818000D01*
X100931000Y-134898000D02*
X100931000Y-137794000D01*
X100971000Y-129933000D02*
X100971000Y-132818000D01*
X100971000Y-134898000D02*
X100971000Y-137783000D01*
X101011000Y-129944000D02*
X101011000Y-132818000D01*
X101011000Y-134898000D02*
X101011000Y-137772000D01*
X101051000Y-129956000D02*
X101051000Y-132818000D01*
X101051000Y-134898000D02*
X101051000Y-137760000D01*
X101091000Y-129969000D02*
X101091000Y-132818000D01*
X101091000Y-134898000D02*
X101091000Y-137747000D01*
X101131000Y-129981000D02*
X101131000Y-132818000D01*
X101131000Y-134898000D02*
X101131000Y-137735000D01*
X101171000Y-129995000D02*
X101171000Y-132818000D01*
X101171000Y-134898000D02*
X101171000Y-137721000D01*
X101211000Y-130008000D02*
X101211000Y-132818000D01*
X101211000Y-134898000D02*
X101211000Y-137708000D01*
X101251000Y-130023000D02*
X101251000Y-132818000D01*
X101251000Y-134898000D02*
X101251000Y-137693000D01*
X101291000Y-130037000D02*
X101291000Y-132818000D01*
X101291000Y-134898000D02*
X101291000Y-137679000D01*
X101331000Y-130053000D02*
X101331000Y-132818000D01*
X101331000Y-134898000D02*
X101331000Y-137663000D01*
X101371000Y-130068000D02*
X101371000Y-132818000D01*
X101371000Y-134898000D02*
X101371000Y-137648000D01*
X101411000Y-130084000D02*
X101411000Y-132818000D01*
X101411000Y-134898000D02*
X101411000Y-137632000D01*
X101451000Y-130101000D02*
X101451000Y-132818000D01*
X101451000Y-134898000D02*
X101451000Y-137615000D01*
X101491000Y-130118000D02*
X101491000Y-132818000D01*
X101491000Y-134898000D02*
X101491000Y-137598000D01*
X101531000Y-130136000D02*
X101531000Y-132818000D01*
X101531000Y-134898000D02*
X101531000Y-137580000D01*
X101571000Y-130154000D02*
X101571000Y-132818000D01*
X101571000Y-134898000D02*
X101571000Y-137562000D01*
X101611000Y-130172000D02*
X101611000Y-132818000D01*
X101611000Y-134898000D02*
X101611000Y-137544000D01*
X101651000Y-130192000D02*
X101651000Y-132818000D01*
X101651000Y-134898000D02*
X101651000Y-137524000D01*
X101691000Y-130211000D02*
X101691000Y-132818000D01*
X101691000Y-134898000D02*
X101691000Y-137505000D01*
X101731000Y-130231000D02*
X101731000Y-132818000D01*
X101731000Y-134898000D02*
X101731000Y-137485000D01*
X101771000Y-130252000D02*
X101771000Y-132818000D01*
X101771000Y-134898000D02*
X101771000Y-137464000D01*
X101811000Y-130274000D02*
X101811000Y-132818000D01*
X101811000Y-134898000D02*
X101811000Y-137442000D01*
X101851000Y-130296000D02*
X101851000Y-132818000D01*
X101851000Y-134898000D02*
X101851000Y-137420000D01*
X101891000Y-130318000D02*
X101891000Y-132818000D01*
X101891000Y-134898000D02*
X101891000Y-137398000D01*
X101931000Y-130341000D02*
X101931000Y-132818000D01*
X101931000Y-134898000D02*
X101931000Y-137375000D01*
X101971000Y-130365000D02*
X101971000Y-132818000D01*
X101971000Y-134898000D02*
X101971000Y-137351000D01*
X102011000Y-130389000D02*
X102011000Y-132818000D01*
X102011000Y-134898000D02*
X102011000Y-137327000D01*
X102051000Y-130414000D02*
X102051000Y-132818000D01*
X102051000Y-134898000D02*
X102051000Y-137302000D01*
X102091000Y-130440000D02*
X102091000Y-132818000D01*
X102091000Y-134898000D02*
X102091000Y-137276000D01*
X102131000Y-130466000D02*
X102131000Y-132818000D01*
X102131000Y-134898000D02*
X102131000Y-137250000D01*
X102171000Y-130493000D02*
X102171000Y-132818000D01*
X102171000Y-134898000D02*
X102171000Y-137223000D01*
X102211000Y-130520000D02*
X102211000Y-132818000D01*
X102211000Y-134898000D02*
X102211000Y-137196000D01*
X102251000Y-130549000D02*
X102251000Y-132818000D01*
X102251000Y-134898000D02*
X102251000Y-137167000D01*
X102291000Y-130578000D02*
X102291000Y-132818000D01*
X102291000Y-134898000D02*
X102291000Y-137138000D01*
X102331000Y-130608000D02*
X102331000Y-132818000D01*
X102331000Y-134898000D02*
X102331000Y-137108000D01*
X102371000Y-130638000D02*
X102371000Y-132818000D01*
X102371000Y-134898000D02*
X102371000Y-137078000D01*
X102411000Y-130669000D02*
X102411000Y-132818000D01*
X102411000Y-134898000D02*
X102411000Y-137047000D01*
X102451000Y-130702000D02*
X102451000Y-132818000D01*
X102451000Y-134898000D02*
X102451000Y-137014000D01*
X102491000Y-130734000D02*
X102491000Y-132818000D01*
X102491000Y-134898000D02*
X102491000Y-136982000D01*
X102531000Y-130768000D02*
X102531000Y-132818000D01*
X102531000Y-134898000D02*
X102531000Y-136948000D01*
X102571000Y-130803000D02*
X102571000Y-132818000D01*
X102571000Y-134898000D02*
X102571000Y-136913000D01*
X102611000Y-130839000D02*
X102611000Y-132818000D01*
X102611000Y-134898000D02*
X102611000Y-136877000D01*
X102651000Y-130875000D02*
X102651000Y-136841000D01*
X102691000Y-130913000D02*
X102691000Y-136803000D01*
X102731000Y-130951000D02*
X102731000Y-136765000D01*
X102771000Y-130991000D02*
X102771000Y-136725000D01*
X102811000Y-131032000D02*
X102811000Y-136684000D01*
X102851000Y-131074000D02*
X102851000Y-136642000D01*
X102891000Y-131117000D02*
X102891000Y-136599000D01*
X102931000Y-131161000D02*
X102931000Y-136555000D01*
X102971000Y-131207000D02*
X102971000Y-136509000D01*
X103011000Y-131254000D02*
X103011000Y-136462000D01*
X103051000Y-131302000D02*
X103051000Y-136414000D01*
X103091000Y-131353000D02*
X103091000Y-136363000D01*
X103131000Y-131404000D02*
X103131000Y-136312000D01*
X103171000Y-131458000D02*
X103171000Y-136258000D01*
X103211000Y-131513000D02*
X103211000Y-136203000D01*
X103251000Y-131571000D02*
X103251000Y-136145000D01*
X103291000Y-131630000D02*
X103291000Y-136086000D01*
X103331000Y-131692000D02*
X103331000Y-136024000D01*
X103371000Y-131756000D02*
X103371000Y-135960000D01*
X103411000Y-131824000D02*
X103411000Y-135892000D01*
X103451000Y-131894000D02*
X103451000Y-135822000D01*
X103491000Y-131968000D02*
X103491000Y-135748000D01*
X103531000Y-132045000D02*
X103531000Y-135671000D01*
X103571000Y-132127000D02*
X103571000Y-135589000D01*
X103611000Y-132213000D02*
X103611000Y-135503000D01*
X103651000Y-132306000D02*
X103651000Y-135410000D01*
X103691000Y-132405000D02*
X103691000Y-135311000D01*
X103731000Y-132512000D02*
X103731000Y-135204000D01*
X103771000Y-132629000D02*
X103771000Y-135087000D01*
X103811000Y-132760000D02*
X103811000Y-134956000D01*
X103851000Y-132910000D02*
X103851000Y-134806000D01*
X103891000Y-133090000D02*
X103891000Y-134626000D01*
X103931000Y-133325000D02*
X103931000Y-134391000D01*
X95440302Y-131543000D02*
X96240302Y-131543000D01*
X95840302Y-131143000D02*
X95840302Y-131943000D01*
X99326248Y-124624000D02*
X100748752Y-124624000D01*
X99326248Y-127344000D02*
X100748752Y-127344000D01*
X112865248Y-115480000D02*
X114287752Y-115480000D01*
X112865248Y-118200000D02*
X114287752Y-118200000D01*
X113312000Y-129032000D02*
G75*
G03*
X113312000Y-129032000I-4120000J0D01*
G01*
X109192000Y-124952000D02*
X109192000Y-133112000D01*
X109232000Y-124952000D02*
X109232000Y-133112000D01*
X109272000Y-124952000D02*
X109272000Y-133112000D01*
X109312000Y-124953000D02*
X109312000Y-133111000D01*
X109352000Y-124955000D02*
X109352000Y-133109000D01*
X109392000Y-124956000D02*
X109392000Y-133108000D01*
X109432000Y-124958000D02*
X109432000Y-133106000D01*
X109472000Y-124961000D02*
X109472000Y-133103000D01*
X109512000Y-124964000D02*
X109512000Y-133100000D01*
X109552000Y-124967000D02*
X109552000Y-133097000D01*
X109592000Y-124971000D02*
X109592000Y-133093000D01*
X109632000Y-124975000D02*
X109632000Y-133089000D01*
X109672000Y-124980000D02*
X109672000Y-133084000D01*
X109712000Y-124984000D02*
X109712000Y-133080000D01*
X109752000Y-124990000D02*
X109752000Y-133074000D01*
X109792000Y-124995000D02*
X109792000Y-133069000D01*
X109832000Y-125002000D02*
X109832000Y-133062000D01*
X109872000Y-125008000D02*
X109872000Y-133056000D01*
X109913000Y-125015000D02*
X109913000Y-127992000D01*
X109913000Y-130072000D02*
X109913000Y-133049000D01*
X109953000Y-125022000D02*
X109953000Y-127992000D01*
X109953000Y-130072000D02*
X109953000Y-133042000D01*
X109993000Y-125030000D02*
X109993000Y-127992000D01*
X109993000Y-130072000D02*
X109993000Y-133034000D01*
X110033000Y-125038000D02*
X110033000Y-127992000D01*
X110033000Y-130072000D02*
X110033000Y-133026000D01*
X110073000Y-125047000D02*
X110073000Y-127992000D01*
X110073000Y-130072000D02*
X110073000Y-133017000D01*
X110113000Y-125056000D02*
X110113000Y-127992000D01*
X110113000Y-130072000D02*
X110113000Y-133008000D01*
X110153000Y-125065000D02*
X110153000Y-127992000D01*
X110153000Y-130072000D02*
X110153000Y-132999000D01*
X110193000Y-125075000D02*
X110193000Y-127992000D01*
X110193000Y-130072000D02*
X110193000Y-132989000D01*
X110233000Y-125085000D02*
X110233000Y-127992000D01*
X110233000Y-130072000D02*
X110233000Y-132979000D01*
X110273000Y-125096000D02*
X110273000Y-127992000D01*
X110273000Y-130072000D02*
X110273000Y-132968000D01*
X110313000Y-125107000D02*
X110313000Y-127992000D01*
X110313000Y-130072000D02*
X110313000Y-132957000D01*
X110353000Y-125118000D02*
X110353000Y-127992000D01*
X110353000Y-130072000D02*
X110353000Y-132946000D01*
X110393000Y-125130000D02*
X110393000Y-127992000D01*
X110393000Y-130072000D02*
X110393000Y-132934000D01*
X110433000Y-125143000D02*
X110433000Y-127992000D01*
X110433000Y-130072000D02*
X110433000Y-132921000D01*
X110473000Y-125155000D02*
X110473000Y-127992000D01*
X110473000Y-130072000D02*
X110473000Y-132909000D01*
X110513000Y-125169000D02*
X110513000Y-127992000D01*
X110513000Y-130072000D02*
X110513000Y-132895000D01*
X110553000Y-125182000D02*
X110553000Y-127992000D01*
X110553000Y-130072000D02*
X110553000Y-132882000D01*
X110593000Y-125197000D02*
X110593000Y-127992000D01*
X110593000Y-130072000D02*
X110593000Y-132867000D01*
X110633000Y-125211000D02*
X110633000Y-127992000D01*
X110633000Y-130072000D02*
X110633000Y-132853000D01*
X110673000Y-125227000D02*
X110673000Y-127992000D01*
X110673000Y-130072000D02*
X110673000Y-132837000D01*
X110713000Y-125242000D02*
X110713000Y-127992000D01*
X110713000Y-130072000D02*
X110713000Y-132822000D01*
X110753000Y-125258000D02*
X110753000Y-127992000D01*
X110753000Y-130072000D02*
X110753000Y-132806000D01*
X110793000Y-125275000D02*
X110793000Y-127992000D01*
X110793000Y-130072000D02*
X110793000Y-132789000D01*
X110833000Y-125292000D02*
X110833000Y-127992000D01*
X110833000Y-130072000D02*
X110833000Y-132772000D01*
X110873000Y-125310000D02*
X110873000Y-127992000D01*
X110873000Y-130072000D02*
X110873000Y-132754000D01*
X110913000Y-125328000D02*
X110913000Y-127992000D01*
X110913000Y-130072000D02*
X110913000Y-132736000D01*
X110953000Y-125346000D02*
X110953000Y-127992000D01*
X110953000Y-130072000D02*
X110953000Y-132718000D01*
X110993000Y-125366000D02*
X110993000Y-127992000D01*
X110993000Y-130072000D02*
X110993000Y-132698000D01*
X111033000Y-125385000D02*
X111033000Y-127992000D01*
X111033000Y-130072000D02*
X111033000Y-132679000D01*
X111073000Y-125405000D02*
X111073000Y-127992000D01*
X111073000Y-130072000D02*
X111073000Y-132659000D01*
X111113000Y-125426000D02*
X111113000Y-127992000D01*
X111113000Y-130072000D02*
X111113000Y-132638000D01*
X111153000Y-125448000D02*
X111153000Y-127992000D01*
X111153000Y-130072000D02*
X111153000Y-132616000D01*
X111193000Y-125470000D02*
X111193000Y-127992000D01*
X111193000Y-130072000D02*
X111193000Y-132594000D01*
X111233000Y-125492000D02*
X111233000Y-127992000D01*
X111233000Y-130072000D02*
X111233000Y-132572000D01*
X111273000Y-125515000D02*
X111273000Y-127992000D01*
X111273000Y-130072000D02*
X111273000Y-132549000D01*
X111313000Y-125539000D02*
X111313000Y-127992000D01*
X111313000Y-130072000D02*
X111313000Y-132525000D01*
X111353000Y-125563000D02*
X111353000Y-127992000D01*
X111353000Y-130072000D02*
X111353000Y-132501000D01*
X111393000Y-125588000D02*
X111393000Y-127992000D01*
X111393000Y-130072000D02*
X111393000Y-132476000D01*
X111433000Y-125614000D02*
X111433000Y-127992000D01*
X111433000Y-130072000D02*
X111433000Y-132450000D01*
X111473000Y-125640000D02*
X111473000Y-127992000D01*
X111473000Y-130072000D02*
X111473000Y-132424000D01*
X111513000Y-125667000D02*
X111513000Y-127992000D01*
X111513000Y-130072000D02*
X111513000Y-132397000D01*
X111553000Y-125694000D02*
X111553000Y-127992000D01*
X111553000Y-130072000D02*
X111553000Y-132370000D01*
X111593000Y-125723000D02*
X111593000Y-127992000D01*
X111593000Y-130072000D02*
X111593000Y-132341000D01*
X111633000Y-125752000D02*
X111633000Y-127992000D01*
X111633000Y-130072000D02*
X111633000Y-132312000D01*
X111673000Y-125782000D02*
X111673000Y-127992000D01*
X111673000Y-130072000D02*
X111673000Y-132282000D01*
X111713000Y-125812000D02*
X111713000Y-127992000D01*
X111713000Y-130072000D02*
X111713000Y-132252000D01*
X111753000Y-125843000D02*
X111753000Y-127992000D01*
X111753000Y-130072000D02*
X111753000Y-132221000D01*
X111793000Y-125876000D02*
X111793000Y-127992000D01*
X111793000Y-130072000D02*
X111793000Y-132188000D01*
X111833000Y-125908000D02*
X111833000Y-127992000D01*
X111833000Y-130072000D02*
X111833000Y-132156000D01*
X111873000Y-125942000D02*
X111873000Y-127992000D01*
X111873000Y-130072000D02*
X111873000Y-132122000D01*
X111913000Y-125977000D02*
X111913000Y-127992000D01*
X111913000Y-130072000D02*
X111913000Y-132087000D01*
X111953000Y-126013000D02*
X111953000Y-127992000D01*
X111953000Y-130072000D02*
X111953000Y-132051000D01*
X111993000Y-126049000D02*
X111993000Y-132015000D01*
X112033000Y-126087000D02*
X112033000Y-131977000D01*
X112073000Y-126125000D02*
X112073000Y-131939000D01*
X112113000Y-126165000D02*
X112113000Y-131899000D01*
X112153000Y-126206000D02*
X112153000Y-131858000D01*
X112193000Y-126248000D02*
X112193000Y-131816000D01*
X112233000Y-126291000D02*
X112233000Y-131773000D01*
X112273000Y-126335000D02*
X112273000Y-131729000D01*
X112313000Y-126381000D02*
X112313000Y-131683000D01*
X112353000Y-126428000D02*
X112353000Y-131636000D01*
X112393000Y-126476000D02*
X112393000Y-131588000D01*
X112433000Y-126527000D02*
X112433000Y-131537000D01*
X112473000Y-126578000D02*
X112473000Y-131486000D01*
X112513000Y-126632000D02*
X112513000Y-131432000D01*
X112553000Y-126687000D02*
X112553000Y-131377000D01*
X112593000Y-126745000D02*
X112593000Y-131319000D01*
X112633000Y-126804000D02*
X112633000Y-131260000D01*
X112673000Y-126866000D02*
X112673000Y-131198000D01*
X112713000Y-126930000D02*
X112713000Y-131134000D01*
X112753000Y-126998000D02*
X112753000Y-131066000D01*
X112793000Y-127068000D02*
X112793000Y-130996000D01*
X112833000Y-127142000D02*
X112833000Y-130922000D01*
X112873000Y-127219000D02*
X112873000Y-130845000D01*
X112913000Y-127301000D02*
X112913000Y-130763000D01*
X112953000Y-127387000D02*
X112953000Y-130677000D01*
X112993000Y-127480000D02*
X112993000Y-130584000D01*
X113033000Y-127579000D02*
X113033000Y-130485000D01*
X113073000Y-127686000D02*
X113073000Y-130378000D01*
X113113000Y-127803000D02*
X113113000Y-130261000D01*
X113153000Y-127934000D02*
X113153000Y-130130000D01*
X113193000Y-128084000D02*
X113193000Y-129980000D01*
X113233000Y-128264000D02*
X113233000Y-129800000D01*
X113273000Y-128499000D02*
X113273000Y-129565000D01*
X104782302Y-126717000D02*
X105582302Y-126717000D01*
X105182302Y-126317000D02*
X105182302Y-127117000D01*
X103672000Y-105958000D02*
G75*
G03*
X103672000Y-105958000I-5120000J0D01*
G01*
X93472000Y-105958000D02*
X103632000Y-105958000D01*
X93472000Y-105918000D02*
X103632000Y-105918000D01*
X93472000Y-105878000D02*
X103632000Y-105878000D01*
X93473000Y-105838000D02*
X103631000Y-105838000D01*
X93474000Y-105798000D02*
X103630000Y-105798000D01*
X93475000Y-105758000D02*
X103629000Y-105758000D01*
X93477000Y-105718000D02*
X103627000Y-105718000D01*
X93479000Y-105678000D02*
X103625000Y-105678000D01*
X93482000Y-105638000D02*
X103622000Y-105638000D01*
X93484000Y-105598000D02*
X103620000Y-105598000D01*
X93487000Y-105558000D02*
X103617000Y-105558000D01*
X93490000Y-105518000D02*
X103614000Y-105518000D01*
X93494000Y-105478000D02*
X103610000Y-105478000D01*
X93498000Y-105438000D02*
X103606000Y-105438000D01*
X93502000Y-105398000D02*
X103602000Y-105398000D01*
X93507000Y-105358000D02*
X103597000Y-105358000D01*
X93512000Y-105318000D02*
X103592000Y-105318000D01*
X93517000Y-105278000D02*
X103587000Y-105278000D01*
X93522000Y-105237000D02*
X103582000Y-105237000D01*
X93528000Y-105197000D02*
X103576000Y-105197000D01*
X93534000Y-105157000D02*
X103570000Y-105157000D01*
X93541000Y-105117000D02*
X103563000Y-105117000D01*
X93548000Y-105077000D02*
X103556000Y-105077000D01*
X93555000Y-105037000D02*
X103549000Y-105037000D01*
X93562000Y-104997000D02*
X103542000Y-104997000D01*
X93570000Y-104957000D02*
X103534000Y-104957000D01*
X93578000Y-104917000D02*
X103526000Y-104917000D01*
X93587000Y-104877000D02*
X103517000Y-104877000D01*
X93596000Y-104837000D02*
X103508000Y-104837000D01*
X93605000Y-104797000D02*
X103499000Y-104797000D01*
X93614000Y-104757000D02*
X103490000Y-104757000D01*
X93624000Y-104717000D02*
X103480000Y-104717000D01*
X93634000Y-104677000D02*
X97311000Y-104677000D01*
X99793000Y-104677000D02*
X103470000Y-104677000D01*
X93645000Y-104637000D02*
X97311000Y-104637000D01*
X99793000Y-104637000D02*
X103459000Y-104637000D01*
X93655000Y-104597000D02*
X97311000Y-104597000D01*
X99793000Y-104597000D02*
X103449000Y-104597000D01*
X93667000Y-104557000D02*
X97311000Y-104557000D01*
X99793000Y-104557000D02*
X103437000Y-104557000D01*
X93678000Y-104517000D02*
X97311000Y-104517000D01*
X99793000Y-104517000D02*
X103426000Y-104517000D01*
X93690000Y-104477000D02*
X97311000Y-104477000D01*
X99793000Y-104477000D02*
X103414000Y-104477000D01*
X93702000Y-104437000D02*
X97311000Y-104437000D01*
X99793000Y-104437000D02*
X103402000Y-104437000D01*
X93715000Y-104397000D02*
X97311000Y-104397000D01*
X99793000Y-104397000D02*
X103389000Y-104397000D01*
X93728000Y-104357000D02*
X97311000Y-104357000D01*
X99793000Y-104357000D02*
X103376000Y-104357000D01*
X93741000Y-104317000D02*
X97311000Y-104317000D01*
X99793000Y-104317000D02*
X103363000Y-104317000D01*
X93755000Y-104277000D02*
X97311000Y-104277000D01*
X99793000Y-104277000D02*
X103349000Y-104277000D01*
X93769000Y-104237000D02*
X97311000Y-104237000D01*
X99793000Y-104237000D02*
X103335000Y-104237000D01*
X93784000Y-104197000D02*
X97311000Y-104197000D01*
X99793000Y-104197000D02*
X103320000Y-104197000D01*
X93798000Y-104157000D02*
X97311000Y-104157000D01*
X99793000Y-104157000D02*
X103306000Y-104157000D01*
X93814000Y-104117000D02*
X97311000Y-104117000D01*
X99793000Y-104117000D02*
X103290000Y-104117000D01*
X93829000Y-104077000D02*
X97311000Y-104077000D01*
X99793000Y-104077000D02*
X103275000Y-104077000D01*
X93845000Y-104037000D02*
X97311000Y-104037000D01*
X99793000Y-104037000D02*
X103259000Y-104037000D01*
X93862000Y-103997000D02*
X97311000Y-103997000D01*
X99793000Y-103997000D02*
X103242000Y-103997000D01*
X93878000Y-103957000D02*
X97311000Y-103957000D01*
X99793000Y-103957000D02*
X103226000Y-103957000D01*
X93895000Y-103917000D02*
X97311000Y-103917000D01*
X99793000Y-103917000D02*
X103209000Y-103917000D01*
X93913000Y-103877000D02*
X97311000Y-103877000D01*
X99793000Y-103877000D02*
X103191000Y-103877000D01*
X93931000Y-103837000D02*
X97311000Y-103837000D01*
X99793000Y-103837000D02*
X103173000Y-103837000D01*
X93949000Y-103797000D02*
X97311000Y-103797000D01*
X99793000Y-103797000D02*
X103155000Y-103797000D01*
X93968000Y-103757000D02*
X97311000Y-103757000D01*
X99793000Y-103757000D02*
X103136000Y-103757000D01*
X93988000Y-103717000D02*
X97311000Y-103717000D01*
X99793000Y-103717000D02*
X103116000Y-103717000D01*
X94007000Y-103677000D02*
X97311000Y-103677000D01*
X99793000Y-103677000D02*
X103097000Y-103677000D01*
X94027000Y-103637000D02*
X97311000Y-103637000D01*
X99793000Y-103637000D02*
X103077000Y-103637000D01*
X94048000Y-103597000D02*
X97311000Y-103597000D01*
X99793000Y-103597000D02*
X103056000Y-103597000D01*
X94069000Y-103557000D02*
X97311000Y-103557000D01*
X99793000Y-103557000D02*
X103035000Y-103557000D01*
X94090000Y-103517000D02*
X97311000Y-103517000D01*
X99793000Y-103517000D02*
X103014000Y-103517000D01*
X94112000Y-103477000D02*
X97311000Y-103477000D01*
X99793000Y-103477000D02*
X102992000Y-103477000D01*
X94135000Y-103437000D02*
X97311000Y-103437000D01*
X99793000Y-103437000D02*
X102969000Y-103437000D01*
X94157000Y-103397000D02*
X97311000Y-103397000D01*
X99793000Y-103397000D02*
X102947000Y-103397000D01*
X94181000Y-103357000D02*
X97311000Y-103357000D01*
X99793000Y-103357000D02*
X102923000Y-103357000D01*
X94205000Y-103317000D02*
X97311000Y-103317000D01*
X99793000Y-103317000D02*
X102899000Y-103317000D01*
X94229000Y-103277000D02*
X97311000Y-103277000D01*
X99793000Y-103277000D02*
X102875000Y-103277000D01*
X94254000Y-103237000D02*
X97311000Y-103237000D01*
X99793000Y-103237000D02*
X102850000Y-103237000D01*
X94279000Y-103197000D02*
X97311000Y-103197000D01*
X99793000Y-103197000D02*
X102825000Y-103197000D01*
X94305000Y-103157000D02*
X97311000Y-103157000D01*
X99793000Y-103157000D02*
X102799000Y-103157000D01*
X94331000Y-103117000D02*
X97311000Y-103117000D01*
X99793000Y-103117000D02*
X102773000Y-103117000D01*
X94358000Y-103077000D02*
X97311000Y-103077000D01*
X99793000Y-103077000D02*
X102746000Y-103077000D01*
X94386000Y-103037000D02*
X97311000Y-103037000D01*
X99793000Y-103037000D02*
X102718000Y-103037000D01*
X94414000Y-102997000D02*
X97311000Y-102997000D01*
X99793000Y-102997000D02*
X102690000Y-102997000D01*
X94442000Y-102957000D02*
X97311000Y-102957000D01*
X99793000Y-102957000D02*
X102662000Y-102957000D01*
X94472000Y-102917000D02*
X97311000Y-102917000D01*
X99793000Y-102917000D02*
X102632000Y-102917000D01*
X94502000Y-102877000D02*
X97311000Y-102877000D01*
X99793000Y-102877000D02*
X102602000Y-102877000D01*
X94532000Y-102837000D02*
X97311000Y-102837000D01*
X99793000Y-102837000D02*
X102572000Y-102837000D01*
X94563000Y-102797000D02*
X97311000Y-102797000D01*
X99793000Y-102797000D02*
X102541000Y-102797000D01*
X94595000Y-102757000D02*
X97311000Y-102757000D01*
X99793000Y-102757000D02*
X102509000Y-102757000D01*
X94627000Y-102717000D02*
X97311000Y-102717000D01*
X99793000Y-102717000D02*
X102477000Y-102717000D01*
X94660000Y-102677000D02*
X97311000Y-102677000D01*
X99793000Y-102677000D02*
X102444000Y-102677000D01*
X94694000Y-102637000D02*
X97311000Y-102637000D01*
X99793000Y-102637000D02*
X102410000Y-102637000D01*
X94728000Y-102597000D02*
X97311000Y-102597000D01*
X99793000Y-102597000D02*
X102376000Y-102597000D01*
X94763000Y-102557000D02*
X97311000Y-102557000D01*
X99793000Y-102557000D02*
X102341000Y-102557000D01*
X94799000Y-102517000D02*
X97311000Y-102517000D01*
X99793000Y-102517000D02*
X102305000Y-102517000D01*
X94836000Y-102477000D02*
X97311000Y-102477000D01*
X99793000Y-102477000D02*
X102268000Y-102477000D01*
X94873000Y-102437000D02*
X97311000Y-102437000D01*
X99793000Y-102437000D02*
X102231000Y-102437000D01*
X94912000Y-102397000D02*
X97311000Y-102397000D01*
X99793000Y-102397000D02*
X102192000Y-102397000D01*
X94951000Y-102357000D02*
X97311000Y-102357000D01*
X99793000Y-102357000D02*
X102153000Y-102357000D01*
X94991000Y-102317000D02*
X97311000Y-102317000D01*
X99793000Y-102317000D02*
X102113000Y-102317000D01*
X95032000Y-102277000D02*
X97311000Y-102277000D01*
X99793000Y-102277000D02*
X102072000Y-102277000D01*
X95074000Y-102237000D02*
X97311000Y-102237000D01*
X99793000Y-102237000D02*
X102030000Y-102237000D01*
X95116000Y-102197000D02*
X101988000Y-102197000D01*
X95160000Y-102157000D02*
X101944000Y-102157000D01*
X95205000Y-102117000D02*
X101899000Y-102117000D01*
X95251000Y-102077000D02*
X101853000Y-102077000D01*
X95298000Y-102037000D02*
X101806000Y-102037000D01*
X95346000Y-101997000D02*
X101758000Y-101997000D01*
X95396000Y-101957000D02*
X101708000Y-101957000D01*
X95446000Y-101917000D02*
X101658000Y-101917000D01*
X95498000Y-101877000D02*
X101606000Y-101877000D01*
X95552000Y-101837000D02*
X101552000Y-101837000D01*
X95607000Y-101797000D02*
X101497000Y-101797000D01*
X95663000Y-101757000D02*
X101441000Y-101757000D01*
X95722000Y-101717000D02*
X101382000Y-101717000D01*
X95782000Y-101677000D02*
X101322000Y-101677000D01*
X95843000Y-101637000D02*
X101261000Y-101637000D01*
X95907000Y-101597000D02*
X101197000Y-101597000D01*
X95973000Y-101557000D02*
X101131000Y-101557000D01*
X96042000Y-101517000D02*
X101062000Y-101517000D01*
X96113000Y-101477000D02*
X100991000Y-101477000D01*
X96187000Y-101437000D02*
X100917000Y-101437000D01*
X96263000Y-101397000D02*
X100841000Y-101397000D01*
X96343000Y-101357000D02*
X100761000Y-101357000D01*
X96427000Y-101317000D02*
X100677000Y-101317000D01*
X96515000Y-101277000D02*
X100589000Y-101277000D01*
X96608000Y-101237000D02*
X100496000Y-101237000D01*
X96706000Y-101197000D02*
X100398000Y-101197000D01*
X96810000Y-101157000D02*
X100294000Y-101157000D01*
X96922000Y-101117000D02*
X100182000Y-101117000D01*
X97042000Y-101077000D02*
X100062000Y-101077000D01*
X97174000Y-101037000D02*
X99930000Y-101037000D01*
X97322000Y-100997000D02*
X99782000Y-100997000D01*
X97490000Y-100957000D02*
X99614000Y-100957000D01*
X97690000Y-100917000D02*
X99414000Y-100917000D01*
X97953000Y-100877000D02*
X99151000Y-100877000D01*
X95677000Y-111437646D02*
X95677000Y-110437646D01*
X95177000Y-110937646D02*
X96177000Y-110937646D01*
X81664000Y-107024000D02*
X89104000Y-107024000D01*
X81664000Y-114464000D02*
X89104000Y-114464000D01*
X81664000Y-107024000D02*
X81664000Y-114464000D01*
X89104000Y-107024000D02*
X89104000Y-114464000D01*
X94207000Y-120156248D02*
X94207000Y-120678752D01*
X92737000Y-120156248D02*
X92737000Y-120678752D01*
D10*
X157734095Y-145232380D02*
X157734095Y-144232380D01*
X157734095Y-144708571D02*
X158305523Y-144708571D01*
X158305523Y-145232380D02*
X158305523Y-144232380D01*
X159210285Y-144565714D02*
X159210285Y-145232380D01*
X158972190Y-144184761D02*
X158734095Y-144899047D01*
X159353142Y-144899047D01*
X84582095Y-145232380D02*
X84582095Y-144232380D01*
X84582095Y-144708571D02*
X85153523Y-144708571D01*
X85153523Y-145232380D02*
X85153523Y-144232380D01*
X85534476Y-144232380D02*
X86153523Y-144232380D01*
X85820190Y-144613333D01*
X85963047Y-144613333D01*
X86058285Y-144660952D01*
X86105904Y-144708571D01*
X86153523Y-144803809D01*
X86153523Y-145041904D01*
X86105904Y-145137142D01*
X86058285Y-145184761D01*
X85963047Y-145232380D01*
X85677333Y-145232380D01*
X85582095Y-145184761D01*
X85534476Y-145137142D01*
X157988095Y-99512380D02*
X157988095Y-98512380D01*
X157988095Y-98988571D02*
X158559523Y-98988571D01*
X158559523Y-99512380D02*
X158559523Y-98512380D01*
X158988095Y-98607619D02*
X159035714Y-98560000D01*
X159130952Y-98512380D01*
X159369047Y-98512380D01*
X159464285Y-98560000D01*
X159511904Y-98607619D01*
X159559523Y-98702857D01*
X159559523Y-98798095D01*
X159511904Y-98940952D01*
X158940476Y-99512380D01*
X159559523Y-99512380D01*
X84328095Y-99512380D02*
X84328095Y-98512380D01*
X84328095Y-98988571D02*
X84899523Y-98988571D01*
X84899523Y-99512380D02*
X84899523Y-98512380D01*
X85899523Y-99512380D02*
X85328095Y-99512380D01*
X85613809Y-99512380D02*
X85613809Y-98512380D01*
X85518571Y-98655238D01*
X85423333Y-98750476D01*
X85328095Y-98798095D01*
X122134095Y-108066380D02*
X122134095Y-108875904D01*
X122181714Y-108971142D01*
X122229333Y-109018761D01*
X122324571Y-109066380D01*
X122515047Y-109066380D01*
X122610285Y-109018761D01*
X122657904Y-108971142D01*
X122705523Y-108875904D01*
X122705523Y-108066380D01*
X123610285Y-108399714D02*
X123610285Y-109066380D01*
X123372190Y-108018761D02*
X123134095Y-108733047D01*
X123753142Y-108733047D01*
X136055380Y-116297404D02*
X136864904Y-116297404D01*
X136960142Y-116249785D01*
X137007761Y-116202166D01*
X137055380Y-116106928D01*
X137055380Y-115916452D01*
X137007761Y-115821214D01*
X136960142Y-115773595D01*
X136864904Y-115725976D01*
X136055380Y-115725976D01*
X136055380Y-115345023D02*
X136055380Y-114725976D01*
X136436333Y-115059309D01*
X136436333Y-114916452D01*
X136483952Y-114821214D01*
X136531571Y-114773595D01*
X136626809Y-114725976D01*
X136864904Y-114725976D01*
X136960142Y-114773595D01*
X137007761Y-114821214D01*
X137055380Y-114916452D01*
X137055380Y-115202166D01*
X137007761Y-115297404D01*
X136960142Y-115345023D01*
X118364095Y-130262380D02*
X118364095Y-131071904D01*
X118411714Y-131167142D01*
X118459333Y-131214761D01*
X118554571Y-131262380D01*
X118745047Y-131262380D01*
X118840285Y-131214761D01*
X118887904Y-131167142D01*
X118935523Y-131071904D01*
X118935523Y-130262380D01*
X119364095Y-130357619D02*
X119411714Y-130310000D01*
X119506952Y-130262380D01*
X119745047Y-130262380D01*
X119840285Y-130310000D01*
X119887904Y-130357619D01*
X119935523Y-130452857D01*
X119935523Y-130548095D01*
X119887904Y-130690952D01*
X119316476Y-131262380D01*
X119935523Y-131262380D01*
X104648095Y-111422380D02*
X104648095Y-112231904D01*
X104695714Y-112327142D01*
X104743333Y-112374761D01*
X104838571Y-112422380D01*
X105029047Y-112422380D01*
X105124285Y-112374761D01*
X105171904Y-112327142D01*
X105219523Y-112231904D01*
X105219523Y-111422380D01*
X106219523Y-112422380D02*
X105648095Y-112422380D01*
X105933809Y-112422380D02*
X105933809Y-111422380D01*
X105838571Y-111565238D01*
X105743333Y-111660476D01*
X105648095Y-111708095D01*
X126881142Y-110816380D02*
X126547809Y-110340190D01*
X126309714Y-110816380D02*
X126309714Y-109816380D01*
X126690666Y-109816380D01*
X126785904Y-109864000D01*
X126833523Y-109911619D01*
X126881142Y-110006857D01*
X126881142Y-110149714D01*
X126833523Y-110244952D01*
X126785904Y-110292571D01*
X126690666Y-110340190D01*
X126309714Y-110340190D01*
X127833523Y-110816380D02*
X127262095Y-110816380D01*
X127547809Y-110816380D02*
X127547809Y-109816380D01*
X127452571Y-109959238D01*
X127357333Y-110054476D01*
X127262095Y-110102095D01*
X128690666Y-109816380D02*
X128500190Y-109816380D01*
X128404952Y-109864000D01*
X128357333Y-109911619D01*
X128262095Y-110054476D01*
X128214476Y-110244952D01*
X128214476Y-110625904D01*
X128262095Y-110721142D01*
X128309714Y-110768761D01*
X128404952Y-110816380D01*
X128595428Y-110816380D01*
X128690666Y-110768761D01*
X128738285Y-110721142D01*
X128785904Y-110625904D01*
X128785904Y-110387809D01*
X128738285Y-110292571D01*
X128690666Y-110244952D01*
X128595428Y-110197333D01*
X128404952Y-110197333D01*
X128309714Y-110244952D01*
X128262095Y-110292571D01*
X128214476Y-110387809D01*
X125595142Y-115006380D02*
X125261809Y-114530190D01*
X125023714Y-115006380D02*
X125023714Y-114006380D01*
X125404666Y-114006380D01*
X125499904Y-114054000D01*
X125547523Y-114101619D01*
X125595142Y-114196857D01*
X125595142Y-114339714D01*
X125547523Y-114434952D01*
X125499904Y-114482571D01*
X125404666Y-114530190D01*
X125023714Y-114530190D01*
X126547523Y-115006380D02*
X125976095Y-115006380D01*
X126261809Y-115006380D02*
X126261809Y-114006380D01*
X126166571Y-114149238D01*
X126071333Y-114244476D01*
X125976095Y-114292095D01*
X127452285Y-114006380D02*
X126976095Y-114006380D01*
X126928476Y-114482571D01*
X126976095Y-114434952D01*
X127071333Y-114387333D01*
X127309428Y-114387333D01*
X127404666Y-114434952D01*
X127452285Y-114482571D01*
X127499904Y-114577809D01*
X127499904Y-114815904D01*
X127452285Y-114911142D01*
X127404666Y-114958761D01*
X127309428Y-115006380D01*
X127071333Y-115006380D01*
X126976095Y-114958761D01*
X126928476Y-114911142D01*
X155646380Y-117736857D02*
X155170190Y-118070190D01*
X155646380Y-118308285D02*
X154646380Y-118308285D01*
X154646380Y-117927333D01*
X154694000Y-117832095D01*
X154741619Y-117784476D01*
X154836857Y-117736857D01*
X154979714Y-117736857D01*
X155074952Y-117784476D01*
X155122571Y-117832095D01*
X155170190Y-117927333D01*
X155170190Y-118308285D01*
X155646380Y-116784476D02*
X155646380Y-117355904D01*
X155646380Y-117070190D02*
X154646380Y-117070190D01*
X154789238Y-117165428D01*
X154884476Y-117260666D01*
X154932095Y-117355904D01*
X154979714Y-115927333D02*
X155646380Y-115927333D01*
X154598761Y-116165428D02*
X155313047Y-116403523D01*
X155313047Y-115784476D01*
X150995142Y-110180380D02*
X150661809Y-109704190D01*
X150423714Y-110180380D02*
X150423714Y-109180380D01*
X150804666Y-109180380D01*
X150899904Y-109228000D01*
X150947523Y-109275619D01*
X150995142Y-109370857D01*
X150995142Y-109513714D01*
X150947523Y-109608952D01*
X150899904Y-109656571D01*
X150804666Y-109704190D01*
X150423714Y-109704190D01*
X151947523Y-110180380D02*
X151376095Y-110180380D01*
X151661809Y-110180380D02*
X151661809Y-109180380D01*
X151566571Y-109323238D01*
X151471333Y-109418476D01*
X151376095Y-109466095D01*
X152280857Y-109180380D02*
X152899904Y-109180380D01*
X152566571Y-109561333D01*
X152709428Y-109561333D01*
X152804666Y-109608952D01*
X152852285Y-109656571D01*
X152899904Y-109751809D01*
X152899904Y-109989904D01*
X152852285Y-110085142D01*
X152804666Y-110132761D01*
X152709428Y-110180380D01*
X152423714Y-110180380D01*
X152328476Y-110132761D01*
X152280857Y-110085142D01*
X134310380Y-111640857D02*
X133834190Y-111974190D01*
X134310380Y-112212285D02*
X133310380Y-112212285D01*
X133310380Y-111831333D01*
X133358000Y-111736095D01*
X133405619Y-111688476D01*
X133500857Y-111640857D01*
X133643714Y-111640857D01*
X133738952Y-111688476D01*
X133786571Y-111736095D01*
X133834190Y-111831333D01*
X133834190Y-112212285D01*
X134310380Y-110688476D02*
X134310380Y-111259904D01*
X134310380Y-110974190D02*
X133310380Y-110974190D01*
X133453238Y-111069428D01*
X133548476Y-111164666D01*
X133596095Y-111259904D01*
X133405619Y-110307523D02*
X133358000Y-110259904D01*
X133310380Y-110164666D01*
X133310380Y-109926571D01*
X133358000Y-109831333D01*
X133405619Y-109783714D01*
X133500857Y-109736095D01*
X133596095Y-109736095D01*
X133738952Y-109783714D01*
X134310380Y-110355142D01*
X134310380Y-109736095D01*
X127627142Y-121864380D02*
X127293809Y-121388190D01*
X127055714Y-121864380D02*
X127055714Y-120864380D01*
X127436666Y-120864380D01*
X127531904Y-120912000D01*
X127579523Y-120959619D01*
X127627142Y-121054857D01*
X127627142Y-121197714D01*
X127579523Y-121292952D01*
X127531904Y-121340571D01*
X127436666Y-121388190D01*
X127055714Y-121388190D01*
X128579523Y-121864380D02*
X128008095Y-121864380D01*
X128293809Y-121864380D02*
X128293809Y-120864380D01*
X128198571Y-121007238D01*
X128103333Y-121102476D01*
X128008095Y-121150095D01*
X129531904Y-121864380D02*
X128960476Y-121864380D01*
X129246190Y-121864380D02*
X129246190Y-120864380D01*
X129150952Y-121007238D01*
X129055714Y-121102476D01*
X128960476Y-121150095D01*
X116021380Y-102480857D02*
X115545190Y-102814190D01*
X116021380Y-103052285D02*
X115021380Y-103052285D01*
X115021380Y-102671333D01*
X115069000Y-102576095D01*
X115116619Y-102528476D01*
X115211857Y-102480857D01*
X115354714Y-102480857D01*
X115449952Y-102528476D01*
X115497571Y-102576095D01*
X115545190Y-102671333D01*
X115545190Y-103052285D01*
X116021380Y-101528476D02*
X116021380Y-102099904D01*
X116021380Y-101814190D02*
X115021380Y-101814190D01*
X115164238Y-101909428D01*
X115259476Y-102004666D01*
X115307095Y-102099904D01*
X115021380Y-100909428D02*
X115021380Y-100814190D01*
X115069000Y-100718952D01*
X115116619Y-100671333D01*
X115211857Y-100623714D01*
X115402333Y-100576095D01*
X115640428Y-100576095D01*
X115830904Y-100623714D01*
X115926142Y-100671333D01*
X115973761Y-100718952D01*
X116021380Y-100814190D01*
X116021380Y-100909428D01*
X115973761Y-101004666D01*
X115926142Y-101052285D01*
X115830904Y-101099904D01*
X115640428Y-101147523D01*
X115402333Y-101147523D01*
X115211857Y-101099904D01*
X115116619Y-101052285D01*
X115069000Y-101004666D01*
X115021380Y-100909428D01*
X126054380Y-125626666D02*
X125578190Y-125960000D01*
X126054380Y-126198095D02*
X125054380Y-126198095D01*
X125054380Y-125817142D01*
X125102000Y-125721904D01*
X125149619Y-125674285D01*
X125244857Y-125626666D01*
X125387714Y-125626666D01*
X125482952Y-125674285D01*
X125530571Y-125721904D01*
X125578190Y-125817142D01*
X125578190Y-126198095D01*
X126054380Y-125150476D02*
X126054380Y-124960000D01*
X126006761Y-124864761D01*
X125959142Y-124817142D01*
X125816285Y-124721904D01*
X125625809Y-124674285D01*
X125244857Y-124674285D01*
X125149619Y-124721904D01*
X125102000Y-124769523D01*
X125054380Y-124864761D01*
X125054380Y-125055238D01*
X125102000Y-125150476D01*
X125149619Y-125198095D01*
X125244857Y-125245714D01*
X125482952Y-125245714D01*
X125578190Y-125198095D01*
X125625809Y-125150476D01*
X125673428Y-125055238D01*
X125673428Y-124864761D01*
X125625809Y-124769523D01*
X125578190Y-124721904D01*
X125482952Y-124674285D01*
X94178380Y-110656666D02*
X93702190Y-110990000D01*
X94178380Y-111228095D02*
X93178380Y-111228095D01*
X93178380Y-110847142D01*
X93226000Y-110751904D01*
X93273619Y-110704285D01*
X93368857Y-110656666D01*
X93511714Y-110656666D01*
X93606952Y-110704285D01*
X93654571Y-110751904D01*
X93702190Y-110847142D01*
X93702190Y-111228095D01*
X93606952Y-110085238D02*
X93559333Y-110180476D01*
X93511714Y-110228095D01*
X93416476Y-110275714D01*
X93368857Y-110275714D01*
X93273619Y-110228095D01*
X93226000Y-110180476D01*
X93178380Y-110085238D01*
X93178380Y-109894761D01*
X93226000Y-109799523D01*
X93273619Y-109751904D01*
X93368857Y-109704285D01*
X93416476Y-109704285D01*
X93511714Y-109751904D01*
X93559333Y-109799523D01*
X93606952Y-109894761D01*
X93606952Y-110085238D01*
X93654571Y-110180476D01*
X93702190Y-110228095D01*
X93797428Y-110275714D01*
X93987904Y-110275714D01*
X94083142Y-110228095D01*
X94130761Y-110180476D01*
X94178380Y-110085238D01*
X94178380Y-109894761D01*
X94130761Y-109799523D01*
X94083142Y-109751904D01*
X93987904Y-109704285D01*
X93797428Y-109704285D01*
X93702190Y-109751904D01*
X93654571Y-109799523D01*
X93606952Y-109894761D01*
X106624333Y-101290380D02*
X106291000Y-100814190D01*
X106052904Y-101290380D02*
X106052904Y-100290380D01*
X106433857Y-100290380D01*
X106529095Y-100338000D01*
X106576714Y-100385619D01*
X106624333Y-100480857D01*
X106624333Y-100623714D01*
X106576714Y-100718952D01*
X106529095Y-100766571D01*
X106433857Y-100814190D01*
X106052904Y-100814190D01*
X106957666Y-100290380D02*
X107624333Y-100290380D01*
X107195761Y-101290380D01*
X112609333Y-111958380D02*
X112276000Y-111482190D01*
X112037904Y-111958380D02*
X112037904Y-110958380D01*
X112418857Y-110958380D01*
X112514095Y-111006000D01*
X112561714Y-111053619D01*
X112609333Y-111148857D01*
X112609333Y-111291714D01*
X112561714Y-111386952D01*
X112514095Y-111434571D01*
X112418857Y-111482190D01*
X112037904Y-111482190D01*
X113466476Y-110958380D02*
X113276000Y-110958380D01*
X113180761Y-111006000D01*
X113133142Y-111053619D01*
X113037904Y-111196476D01*
X112990285Y-111386952D01*
X112990285Y-111767904D01*
X113037904Y-111863142D01*
X113085523Y-111910761D01*
X113180761Y-111958380D01*
X113371238Y-111958380D01*
X113466476Y-111910761D01*
X113514095Y-111863142D01*
X113561714Y-111767904D01*
X113561714Y-111529809D01*
X113514095Y-111434571D01*
X113466476Y-111386952D01*
X113371238Y-111339333D01*
X113180761Y-111339333D01*
X113085523Y-111386952D01*
X113037904Y-111434571D01*
X112990285Y-111529809D01*
X99512380Y-118022666D02*
X99036190Y-118356000D01*
X99512380Y-118594095D02*
X98512380Y-118594095D01*
X98512380Y-118213142D01*
X98560000Y-118117904D01*
X98607619Y-118070285D01*
X98702857Y-118022666D01*
X98845714Y-118022666D01*
X98940952Y-118070285D01*
X98988571Y-118117904D01*
X99036190Y-118213142D01*
X99036190Y-118594095D01*
X98512380Y-117117904D02*
X98512380Y-117594095D01*
X98988571Y-117641714D01*
X98940952Y-117594095D01*
X98893333Y-117498857D01*
X98893333Y-117260761D01*
X98940952Y-117165523D01*
X98988571Y-117117904D01*
X99083809Y-117070285D01*
X99321904Y-117070285D01*
X99417142Y-117117904D01*
X99464761Y-117165523D01*
X99512380Y-117260761D01*
X99512380Y-117498857D01*
X99464761Y-117594095D01*
X99417142Y-117641714D01*
X91892380Y-117006666D02*
X91416190Y-117340000D01*
X91892380Y-117578095D02*
X90892380Y-117578095D01*
X90892380Y-117197142D01*
X90940000Y-117101904D01*
X90987619Y-117054285D01*
X91082857Y-117006666D01*
X91225714Y-117006666D01*
X91320952Y-117054285D01*
X91368571Y-117101904D01*
X91416190Y-117197142D01*
X91416190Y-117578095D01*
X91225714Y-116149523D02*
X91892380Y-116149523D01*
X90844761Y-116387619D02*
X91559047Y-116625714D01*
X91559047Y-116006666D01*
X94686380Y-117260666D02*
X94210190Y-117594000D01*
X94686380Y-117832095D02*
X93686380Y-117832095D01*
X93686380Y-117451142D01*
X93734000Y-117355904D01*
X93781619Y-117308285D01*
X93876857Y-117260666D01*
X94019714Y-117260666D01*
X94114952Y-117308285D01*
X94162571Y-117355904D01*
X94210190Y-117451142D01*
X94210190Y-117832095D01*
X93686380Y-116927333D02*
X93686380Y-116308285D01*
X94067333Y-116641619D01*
X94067333Y-116498761D01*
X94114952Y-116403523D01*
X94162571Y-116355904D01*
X94257809Y-116308285D01*
X94495904Y-116308285D01*
X94591142Y-116355904D01*
X94638761Y-116403523D01*
X94686380Y-116498761D01*
X94686380Y-116784476D01*
X94638761Y-116879714D01*
X94591142Y-116927333D01*
X97480380Y-119292666D02*
X97004190Y-119626000D01*
X97480380Y-119864095D02*
X96480380Y-119864095D01*
X96480380Y-119483142D01*
X96528000Y-119387904D01*
X96575619Y-119340285D01*
X96670857Y-119292666D01*
X96813714Y-119292666D01*
X96908952Y-119340285D01*
X96956571Y-119387904D01*
X97004190Y-119483142D01*
X97004190Y-119864095D01*
X96575619Y-118911714D02*
X96528000Y-118864095D01*
X96480380Y-118768857D01*
X96480380Y-118530761D01*
X96528000Y-118435523D01*
X96575619Y-118387904D01*
X96670857Y-118340285D01*
X96766095Y-118340285D01*
X96908952Y-118387904D01*
X97480380Y-118959333D01*
X97480380Y-118340285D01*
X90368380Y-123864666D02*
X89892190Y-124198000D01*
X90368380Y-124436095D02*
X89368380Y-124436095D01*
X89368380Y-124055142D01*
X89416000Y-123959904D01*
X89463619Y-123912285D01*
X89558857Y-123864666D01*
X89701714Y-123864666D01*
X89796952Y-123912285D01*
X89844571Y-123959904D01*
X89892190Y-124055142D01*
X89892190Y-124436095D01*
X90368380Y-122912285D02*
X90368380Y-123483714D01*
X90368380Y-123198000D02*
X89368380Y-123198000D01*
X89511238Y-123293238D01*
X89606476Y-123388476D01*
X89654095Y-123483714D01*
X160702666Y-121880380D02*
X160702666Y-122594666D01*
X160655047Y-122737523D01*
X160559809Y-122832761D01*
X160416952Y-122880380D01*
X160321714Y-122880380D01*
X161083619Y-121880380D02*
X161750285Y-121880380D01*
X161321714Y-122880380D01*
X160702666Y-111720380D02*
X160702666Y-112434666D01*
X160655047Y-112577523D01*
X160559809Y-112672761D01*
X160416952Y-112720380D01*
X160321714Y-112720380D01*
X161607428Y-111720380D02*
X161416952Y-111720380D01*
X161321714Y-111768000D01*
X161274095Y-111815619D01*
X161178857Y-111958476D01*
X161131238Y-112148952D01*
X161131238Y-112529904D01*
X161178857Y-112625142D01*
X161226476Y-112672761D01*
X161321714Y-112720380D01*
X161512190Y-112720380D01*
X161607428Y-112672761D01*
X161655047Y-112625142D01*
X161702666Y-112529904D01*
X161702666Y-112291809D01*
X161655047Y-112196571D01*
X161607428Y-112148952D01*
X161512190Y-112101333D01*
X161321714Y-112101333D01*
X161226476Y-112148952D01*
X161178857Y-112196571D01*
X161131238Y-112291809D01*
X142668666Y-141692380D02*
X142668666Y-142406666D01*
X142621047Y-142549523D01*
X142525809Y-142644761D01*
X142382952Y-142692380D01*
X142287714Y-142692380D01*
X143621047Y-141692380D02*
X143144857Y-141692380D01*
X143097238Y-142168571D01*
X143144857Y-142120952D01*
X143240095Y-142073333D01*
X143478190Y-142073333D01*
X143573428Y-142120952D01*
X143621047Y-142168571D01*
X143668666Y-142263809D01*
X143668666Y-142501904D01*
X143621047Y-142597142D01*
X143573428Y-142644761D01*
X143478190Y-142692380D01*
X143240095Y-142692380D01*
X143144857Y-142644761D01*
X143097238Y-142597142D01*
X135048666Y-141692380D02*
X135048666Y-142406666D01*
X135001047Y-142549523D01*
X134905809Y-142644761D01*
X134762952Y-142692380D01*
X134667714Y-142692380D01*
X135953428Y-142025714D02*
X135953428Y-142692380D01*
X135715333Y-141644761D02*
X135477238Y-142359047D01*
X136096285Y-142359047D01*
X127682666Y-141692380D02*
X127682666Y-142406666D01*
X127635047Y-142549523D01*
X127539809Y-142644761D01*
X127396952Y-142692380D01*
X127301714Y-142692380D01*
X128063619Y-141692380D02*
X128682666Y-141692380D01*
X128349333Y-142073333D01*
X128492190Y-142073333D01*
X128587428Y-142120952D01*
X128635047Y-142168571D01*
X128682666Y-142263809D01*
X128682666Y-142501904D01*
X128635047Y-142597142D01*
X128587428Y-142644761D01*
X128492190Y-142692380D01*
X128206476Y-142692380D01*
X128111238Y-142644761D01*
X128063619Y-142597142D01*
X82216666Y-128992380D02*
X82216666Y-129706666D01*
X82169047Y-129849523D01*
X82073809Y-129944761D01*
X81930952Y-129992380D01*
X81835714Y-129992380D01*
X82645238Y-129087619D02*
X82692857Y-129040000D01*
X82788095Y-128992380D01*
X83026190Y-128992380D01*
X83121428Y-129040000D01*
X83169047Y-129087619D01*
X83216666Y-129182857D01*
X83216666Y-129278095D01*
X83169047Y-129420952D01*
X82597619Y-129992380D01*
X83216666Y-129992380D01*
X82216666Y-118832380D02*
X82216666Y-119546666D01*
X82169047Y-119689523D01*
X82073809Y-119784761D01*
X81930952Y-119832380D01*
X81835714Y-119832380D01*
X83216666Y-119832380D02*
X82645238Y-119832380D01*
X82930952Y-119832380D02*
X82930952Y-118832380D01*
X82835714Y-118975238D01*
X82740476Y-119070476D01*
X82645238Y-119118095D01*
X134477380Y-116706095D02*
X133477380Y-116706095D01*
X133953571Y-116706095D02*
X133953571Y-116134666D01*
X134477380Y-116134666D02*
X133477380Y-116134666D01*
X134429761Y-115706095D02*
X134477380Y-115563238D01*
X134477380Y-115325142D01*
X134429761Y-115229904D01*
X134382142Y-115182285D01*
X134286904Y-115134666D01*
X134191666Y-115134666D01*
X134096428Y-115182285D01*
X134048809Y-115229904D01*
X134001190Y-115325142D01*
X133953571Y-115515619D01*
X133905952Y-115610857D01*
X133858333Y-115658476D01*
X133763095Y-115706095D01*
X133667857Y-115706095D01*
X133572619Y-115658476D01*
X133525000Y-115610857D01*
X133477380Y-115515619D01*
X133477380Y-115277523D01*
X133525000Y-115134666D01*
X134477380Y-114182285D02*
X134477380Y-114753714D01*
X134477380Y-114468000D02*
X133477380Y-114468000D01*
X133620238Y-114563238D01*
X133715476Y-114658476D01*
X133763095Y-114753714D01*
X123396142Y-121340142D02*
X123348523Y-121387761D01*
X123205666Y-121435380D01*
X123110428Y-121435380D01*
X122967571Y-121387761D01*
X122872333Y-121292523D01*
X122824714Y-121197285D01*
X122777095Y-121006809D01*
X122777095Y-120863952D01*
X122824714Y-120673476D01*
X122872333Y-120578238D01*
X122967571Y-120483000D01*
X123110428Y-120435380D01*
X123205666Y-120435380D01*
X123348523Y-120483000D01*
X123396142Y-120530619D01*
X124348523Y-121435380D02*
X123777095Y-121435380D01*
X124062809Y-121435380D02*
X124062809Y-120435380D01*
X123967571Y-120578238D01*
X123872333Y-120673476D01*
X123777095Y-120721095D01*
X124824714Y-121435380D02*
X125015190Y-121435380D01*
X125110428Y-121387761D01*
X125158047Y-121340142D01*
X125253285Y-121197285D01*
X125300904Y-121006809D01*
X125300904Y-120625857D01*
X125253285Y-120530619D01*
X125205666Y-120483000D01*
X125110428Y-120435380D01*
X124919952Y-120435380D01*
X124824714Y-120483000D01*
X124777095Y-120530619D01*
X124729476Y-120625857D01*
X124729476Y-120863952D01*
X124777095Y-120959190D01*
X124824714Y-121006809D01*
X124919952Y-121054428D01*
X125110428Y-121054428D01*
X125205666Y-121006809D01*
X125253285Y-120959190D01*
X125300904Y-120863952D01*
X117676142Y-112762357D02*
X117723761Y-112809976D01*
X117771380Y-112952833D01*
X117771380Y-113048071D01*
X117723761Y-113190928D01*
X117628523Y-113286166D01*
X117533285Y-113333785D01*
X117342809Y-113381404D01*
X117199952Y-113381404D01*
X117009476Y-113333785D01*
X116914238Y-113286166D01*
X116819000Y-113190928D01*
X116771380Y-113048071D01*
X116771380Y-112952833D01*
X116819000Y-112809976D01*
X116866619Y-112762357D01*
X117771380Y-111809976D02*
X117771380Y-112381404D01*
X117771380Y-112095690D02*
X116771380Y-112095690D01*
X116914238Y-112190928D01*
X117009476Y-112286166D01*
X117057095Y-112381404D01*
X117199952Y-111238547D02*
X117152333Y-111333785D01*
X117104714Y-111381404D01*
X117009476Y-111429023D01*
X116961857Y-111429023D01*
X116866619Y-111381404D01*
X116819000Y-111333785D01*
X116771380Y-111238547D01*
X116771380Y-111048071D01*
X116819000Y-110952833D01*
X116866619Y-110905214D01*
X116961857Y-110857595D01*
X117009476Y-110857595D01*
X117104714Y-110905214D01*
X117152333Y-110952833D01*
X117199952Y-111048071D01*
X117199952Y-111238547D01*
X117247571Y-111333785D01*
X117295190Y-111381404D01*
X117390428Y-111429023D01*
X117580904Y-111429023D01*
X117676142Y-111381404D01*
X117723761Y-111333785D01*
X117771380Y-111238547D01*
X117771380Y-111048071D01*
X117723761Y-110952833D01*
X117676142Y-110905214D01*
X117580904Y-110857595D01*
X117390428Y-110857595D01*
X117295190Y-110905214D01*
X117247571Y-110952833D01*
X117199952Y-111048071D01*
X124557642Y-106627142D02*
X124510023Y-106674761D01*
X124367166Y-106722380D01*
X124271928Y-106722380D01*
X124129071Y-106674761D01*
X124033833Y-106579523D01*
X123986214Y-106484285D01*
X123938595Y-106293809D01*
X123938595Y-106150952D01*
X123986214Y-105960476D01*
X124033833Y-105865238D01*
X124129071Y-105770000D01*
X124271928Y-105722380D01*
X124367166Y-105722380D01*
X124510023Y-105770000D01*
X124557642Y-105817619D01*
X125510023Y-106722380D02*
X124938595Y-106722380D01*
X125224309Y-106722380D02*
X125224309Y-105722380D01*
X125129071Y-105865238D01*
X125033833Y-105960476D01*
X124938595Y-106008095D01*
X125843357Y-105722380D02*
X126510023Y-105722380D01*
X126081452Y-106722380D01*
X117935142Y-104037142D02*
X117887523Y-104084761D01*
X117744666Y-104132380D01*
X117649428Y-104132380D01*
X117506571Y-104084761D01*
X117411333Y-103989523D01*
X117363714Y-103894285D01*
X117316095Y-103703809D01*
X117316095Y-103560952D01*
X117363714Y-103370476D01*
X117411333Y-103275238D01*
X117506571Y-103180000D01*
X117649428Y-103132380D01*
X117744666Y-103132380D01*
X117887523Y-103180000D01*
X117935142Y-103227619D01*
X118887523Y-104132380D02*
X118316095Y-104132380D01*
X118601809Y-104132380D02*
X118601809Y-103132380D01*
X118506571Y-103275238D01*
X118411333Y-103370476D01*
X118316095Y-103418095D01*
X119744666Y-103132380D02*
X119554190Y-103132380D01*
X119458952Y-103180000D01*
X119411333Y-103227619D01*
X119316095Y-103370476D01*
X119268476Y-103560952D01*
X119268476Y-103941904D01*
X119316095Y-104037142D01*
X119363714Y-104084761D01*
X119458952Y-104132380D01*
X119649428Y-104132380D01*
X119744666Y-104084761D01*
X119792285Y-104037142D01*
X119839904Y-103941904D01*
X119839904Y-103703809D01*
X119792285Y-103608571D01*
X119744666Y-103560952D01*
X119649428Y-103513333D01*
X119458952Y-103513333D01*
X119363714Y-103560952D01*
X119316095Y-103608571D01*
X119268476Y-103703809D01*
X158599142Y-119006857D02*
X158646761Y-119054476D01*
X158694380Y-119197333D01*
X158694380Y-119292571D01*
X158646761Y-119435428D01*
X158551523Y-119530666D01*
X158456285Y-119578285D01*
X158265809Y-119625904D01*
X158122952Y-119625904D01*
X157932476Y-119578285D01*
X157837238Y-119530666D01*
X157742000Y-119435428D01*
X157694380Y-119292571D01*
X157694380Y-119197333D01*
X157742000Y-119054476D01*
X157789619Y-119006857D01*
X158694380Y-118054476D02*
X158694380Y-118625904D01*
X158694380Y-118340190D02*
X157694380Y-118340190D01*
X157837238Y-118435428D01*
X157932476Y-118530666D01*
X157980095Y-118625904D01*
X157694380Y-117149714D02*
X157694380Y-117625904D01*
X158170571Y-117673523D01*
X158122952Y-117625904D01*
X158075333Y-117530666D01*
X158075333Y-117292571D01*
X158122952Y-117197333D01*
X158170571Y-117149714D01*
X158265809Y-117102095D01*
X158503904Y-117102095D01*
X158599142Y-117149714D01*
X158646761Y-117197333D01*
X158694380Y-117292571D01*
X158694380Y-117530666D01*
X158646761Y-117625904D01*
X158599142Y-117673523D01*
X139057142Y-137517142D02*
X139009523Y-137564761D01*
X138866666Y-137612380D01*
X138771428Y-137612380D01*
X138628571Y-137564761D01*
X138533333Y-137469523D01*
X138485714Y-137374285D01*
X138438095Y-137183809D01*
X138438095Y-137040952D01*
X138485714Y-136850476D01*
X138533333Y-136755238D01*
X138628571Y-136660000D01*
X138771428Y-136612380D01*
X138866666Y-136612380D01*
X139009523Y-136660000D01*
X139057142Y-136707619D01*
X140009523Y-137612380D02*
X139438095Y-137612380D01*
X139723809Y-137612380D02*
X139723809Y-136612380D01*
X139628571Y-136755238D01*
X139533333Y-136850476D01*
X139438095Y-136898095D01*
X140866666Y-136945714D02*
X140866666Y-137612380D01*
X140628571Y-136564761D02*
X140390476Y-137279047D01*
X141009523Y-137279047D01*
X150398642Y-118721142D02*
X150351023Y-118768761D01*
X150208166Y-118816380D01*
X150112928Y-118816380D01*
X149970071Y-118768761D01*
X149874833Y-118673523D01*
X149827214Y-118578285D01*
X149779595Y-118387809D01*
X149779595Y-118244952D01*
X149827214Y-118054476D01*
X149874833Y-117959238D01*
X149970071Y-117864000D01*
X150112928Y-117816380D01*
X150208166Y-117816380D01*
X150351023Y-117864000D01*
X150398642Y-117911619D01*
X151351023Y-118816380D02*
X150779595Y-118816380D01*
X151065309Y-118816380D02*
X151065309Y-117816380D01*
X150970071Y-117959238D01*
X150874833Y-118054476D01*
X150779595Y-118102095D01*
X151684357Y-117816380D02*
X152303404Y-117816380D01*
X151970071Y-118197333D01*
X152112928Y-118197333D01*
X152208166Y-118244952D01*
X152255785Y-118292571D01*
X152303404Y-118387809D01*
X152303404Y-118625904D01*
X152255785Y-118721142D01*
X152208166Y-118768761D01*
X152112928Y-118816380D01*
X151827214Y-118816380D01*
X151731976Y-118768761D01*
X151684357Y-118721142D01*
X131929142Y-111894857D02*
X131976761Y-111942476D01*
X132024380Y-112085333D01*
X132024380Y-112180571D01*
X131976761Y-112323428D01*
X131881523Y-112418666D01*
X131786285Y-112466285D01*
X131595809Y-112513904D01*
X131452952Y-112513904D01*
X131262476Y-112466285D01*
X131167238Y-112418666D01*
X131072000Y-112323428D01*
X131024380Y-112180571D01*
X131024380Y-112085333D01*
X131072000Y-111942476D01*
X131119619Y-111894857D01*
X132024380Y-110942476D02*
X132024380Y-111513904D01*
X132024380Y-111228190D02*
X131024380Y-111228190D01*
X131167238Y-111323428D01*
X131262476Y-111418666D01*
X131310095Y-111513904D01*
X131119619Y-110561523D02*
X131072000Y-110513904D01*
X131024380Y-110418666D01*
X131024380Y-110180571D01*
X131072000Y-110085333D01*
X131119619Y-110037714D01*
X131214857Y-109990095D01*
X131310095Y-109990095D01*
X131452952Y-110037714D01*
X132024380Y-110609142D01*
X132024380Y-109990095D01*
X119245142Y-137263142D02*
X119197523Y-137310761D01*
X119054666Y-137358380D01*
X118959428Y-137358380D01*
X118816571Y-137310761D01*
X118721333Y-137215523D01*
X118673714Y-137120285D01*
X118626095Y-136929809D01*
X118626095Y-136786952D01*
X118673714Y-136596476D01*
X118721333Y-136501238D01*
X118816571Y-136406000D01*
X118959428Y-136358380D01*
X119054666Y-136358380D01*
X119197523Y-136406000D01*
X119245142Y-136453619D01*
X120197523Y-137358380D02*
X119626095Y-137358380D01*
X119911809Y-137358380D02*
X119911809Y-136358380D01*
X119816571Y-136501238D01*
X119721333Y-136596476D01*
X119626095Y-136644095D01*
X121149904Y-137358380D02*
X120578476Y-137358380D01*
X120864190Y-137358380D02*
X120864190Y-136358380D01*
X120768952Y-136501238D01*
X120673714Y-136596476D01*
X120578476Y-136644095D01*
X111101142Y-97670857D02*
X111148761Y-97718476D01*
X111196380Y-97861333D01*
X111196380Y-97956571D01*
X111148761Y-98099428D01*
X111053523Y-98194666D01*
X110958285Y-98242285D01*
X110767809Y-98289904D01*
X110624952Y-98289904D01*
X110434476Y-98242285D01*
X110339238Y-98194666D01*
X110244000Y-98099428D01*
X110196380Y-97956571D01*
X110196380Y-97861333D01*
X110244000Y-97718476D01*
X110291619Y-97670857D01*
X111196380Y-96718476D02*
X111196380Y-97289904D01*
X111196380Y-97004190D02*
X110196380Y-97004190D01*
X110339238Y-97099428D01*
X110434476Y-97194666D01*
X110482095Y-97289904D01*
X110196380Y-96099428D02*
X110196380Y-96004190D01*
X110244000Y-95908952D01*
X110291619Y-95861333D01*
X110386857Y-95813714D01*
X110577333Y-95766095D01*
X110815428Y-95766095D01*
X111005904Y-95813714D01*
X111101142Y-95861333D01*
X111148761Y-95908952D01*
X111196380Y-96004190D01*
X111196380Y-96099428D01*
X111148761Y-96194666D01*
X111101142Y-96242285D01*
X111005904Y-96289904D01*
X110815428Y-96337523D01*
X110577333Y-96337523D01*
X110386857Y-96289904D01*
X110291619Y-96242285D01*
X110244000Y-96194666D01*
X110196380Y-96099428D01*
X110831333Y-108815142D02*
X110783714Y-108862761D01*
X110640857Y-108910380D01*
X110545619Y-108910380D01*
X110402761Y-108862761D01*
X110307523Y-108767523D01*
X110259904Y-108672285D01*
X110212285Y-108481809D01*
X110212285Y-108338952D01*
X110259904Y-108148476D01*
X110307523Y-108053238D01*
X110402761Y-107958000D01*
X110545619Y-107910380D01*
X110640857Y-107910380D01*
X110783714Y-107958000D01*
X110831333Y-108005619D01*
X111307523Y-108910380D02*
X111498000Y-108910380D01*
X111593238Y-108862761D01*
X111640857Y-108815142D01*
X111736095Y-108672285D01*
X111783714Y-108481809D01*
X111783714Y-108100857D01*
X111736095Y-108005619D01*
X111688476Y-107958000D01*
X111593238Y-107910380D01*
X111402761Y-107910380D01*
X111307523Y-107958000D01*
X111259904Y-108005619D01*
X111212285Y-108100857D01*
X111212285Y-108338952D01*
X111259904Y-108434190D01*
X111307523Y-108481809D01*
X111402761Y-108529428D01*
X111593238Y-108529428D01*
X111688476Y-108481809D01*
X111736095Y-108434190D01*
X111783714Y-108338952D01*
X110069333Y-106021142D02*
X110021714Y-106068761D01*
X109878857Y-106116380D01*
X109783619Y-106116380D01*
X109640761Y-106068761D01*
X109545523Y-105973523D01*
X109497904Y-105878285D01*
X109450285Y-105687809D01*
X109450285Y-105544952D01*
X109497904Y-105354476D01*
X109545523Y-105259238D01*
X109640761Y-105164000D01*
X109783619Y-105116380D01*
X109878857Y-105116380D01*
X110021714Y-105164000D01*
X110069333Y-105211619D01*
X110640761Y-105544952D02*
X110545523Y-105497333D01*
X110497904Y-105449714D01*
X110450285Y-105354476D01*
X110450285Y-105306857D01*
X110497904Y-105211619D01*
X110545523Y-105164000D01*
X110640761Y-105116380D01*
X110831238Y-105116380D01*
X110926476Y-105164000D01*
X110974095Y-105211619D01*
X111021714Y-105306857D01*
X111021714Y-105354476D01*
X110974095Y-105449714D01*
X110926476Y-105497333D01*
X110831238Y-105544952D01*
X110640761Y-105544952D01*
X110545523Y-105592571D01*
X110497904Y-105640190D01*
X110450285Y-105735428D01*
X110450285Y-105925904D01*
X110497904Y-106021142D01*
X110545523Y-106068761D01*
X110640761Y-106116380D01*
X110831238Y-106116380D01*
X110926476Y-106068761D01*
X110974095Y-106021142D01*
X111021714Y-105925904D01*
X111021714Y-105735428D01*
X110974095Y-105640190D01*
X110926476Y-105592571D01*
X110831238Y-105544952D01*
X99401333Y-139803142D02*
X99353714Y-139850761D01*
X99210857Y-139898380D01*
X99115619Y-139898380D01*
X98972761Y-139850761D01*
X98877523Y-139755523D01*
X98829904Y-139660285D01*
X98782285Y-139469809D01*
X98782285Y-139326952D01*
X98829904Y-139136476D01*
X98877523Y-139041238D01*
X98972761Y-138946000D01*
X99115619Y-138898380D01*
X99210857Y-138898380D01*
X99353714Y-138946000D01*
X99401333Y-138993619D01*
X99734666Y-138898380D02*
X100401333Y-138898380D01*
X99972761Y-139898380D01*
X99870833Y-124041142D02*
X99823214Y-124088761D01*
X99680357Y-124136380D01*
X99585119Y-124136380D01*
X99442261Y-124088761D01*
X99347023Y-123993523D01*
X99299404Y-123898285D01*
X99251785Y-123707809D01*
X99251785Y-123564952D01*
X99299404Y-123374476D01*
X99347023Y-123279238D01*
X99442261Y-123184000D01*
X99585119Y-123136380D01*
X99680357Y-123136380D01*
X99823214Y-123184000D01*
X99870833Y-123231619D01*
X100727976Y-123136380D02*
X100537500Y-123136380D01*
X100442261Y-123184000D01*
X100394642Y-123231619D01*
X100299404Y-123374476D01*
X100251785Y-123564952D01*
X100251785Y-123945904D01*
X100299404Y-124041142D01*
X100347023Y-124088761D01*
X100442261Y-124136380D01*
X100632738Y-124136380D01*
X100727976Y-124088761D01*
X100775595Y-124041142D01*
X100823214Y-123945904D01*
X100823214Y-123707809D01*
X100775595Y-123612571D01*
X100727976Y-123564952D01*
X100632738Y-123517333D01*
X100442261Y-123517333D01*
X100347023Y-123564952D01*
X100299404Y-123612571D01*
X100251785Y-123707809D01*
X113409833Y-114897142D02*
X113362214Y-114944761D01*
X113219357Y-114992380D01*
X113124119Y-114992380D01*
X112981261Y-114944761D01*
X112886023Y-114849523D01*
X112838404Y-114754285D01*
X112790785Y-114563809D01*
X112790785Y-114420952D01*
X112838404Y-114230476D01*
X112886023Y-114135238D01*
X112981261Y-114040000D01*
X113124119Y-113992380D01*
X113219357Y-113992380D01*
X113362214Y-114040000D01*
X113409833Y-114087619D01*
X114314595Y-113992380D02*
X113838404Y-113992380D01*
X113790785Y-114468571D01*
X113838404Y-114420952D01*
X113933642Y-114373333D01*
X114171738Y-114373333D01*
X114266976Y-114420952D01*
X114314595Y-114468571D01*
X114362214Y-114563809D01*
X114362214Y-114801904D01*
X114314595Y-114897142D01*
X114266976Y-114944761D01*
X114171738Y-114992380D01*
X113933642Y-114992380D01*
X113838404Y-114944761D01*
X113790785Y-114897142D01*
X109025333Y-135485142D02*
X108977714Y-135532761D01*
X108834857Y-135580380D01*
X108739619Y-135580380D01*
X108596761Y-135532761D01*
X108501523Y-135437523D01*
X108453904Y-135342285D01*
X108406285Y-135151809D01*
X108406285Y-135008952D01*
X108453904Y-134818476D01*
X108501523Y-134723238D01*
X108596761Y-134628000D01*
X108739619Y-134580380D01*
X108834857Y-134580380D01*
X108977714Y-134628000D01*
X109025333Y-134675619D01*
X109882476Y-134913714D02*
X109882476Y-135580380D01*
X109644380Y-134532761D02*
X109406285Y-135247047D01*
X110025333Y-135247047D01*
X92659142Y-106124666D02*
X92706761Y-106172285D01*
X92754380Y-106315142D01*
X92754380Y-106410380D01*
X92706761Y-106553238D01*
X92611523Y-106648476D01*
X92516285Y-106696095D01*
X92325809Y-106743714D01*
X92182952Y-106743714D01*
X91992476Y-106696095D01*
X91897238Y-106648476D01*
X91802000Y-106553238D01*
X91754380Y-106410380D01*
X91754380Y-106315142D01*
X91802000Y-106172285D01*
X91849619Y-106124666D01*
X91754380Y-105791333D02*
X91754380Y-105172285D01*
X92135333Y-105505619D01*
X92135333Y-105362761D01*
X92182952Y-105267523D01*
X92230571Y-105219904D01*
X92325809Y-105172285D01*
X92563904Y-105172285D01*
X92659142Y-105219904D01*
X92706761Y-105267523D01*
X92754380Y-105362761D01*
X92754380Y-105648476D01*
X92706761Y-105743714D01*
X92659142Y-105791333D01*
X85217333Y-106251142D02*
X85169714Y-106298761D01*
X85026857Y-106346380D01*
X84931619Y-106346380D01*
X84788761Y-106298761D01*
X84693523Y-106203523D01*
X84645904Y-106108285D01*
X84598285Y-105917809D01*
X84598285Y-105774952D01*
X84645904Y-105584476D01*
X84693523Y-105489238D01*
X84788761Y-105394000D01*
X84931619Y-105346380D01*
X85026857Y-105346380D01*
X85169714Y-105394000D01*
X85217333Y-105441619D01*
X85598285Y-105441619D02*
X85645904Y-105394000D01*
X85741142Y-105346380D01*
X85979238Y-105346380D01*
X86074476Y-105394000D01*
X86122095Y-105441619D01*
X86169714Y-105536857D01*
X86169714Y-105632095D01*
X86122095Y-105774952D01*
X85550666Y-106346380D01*
X86169714Y-106346380D01*
X93575142Y-124118666D02*
X93622761Y-124166285D01*
X93670380Y-124309142D01*
X93670380Y-124404380D01*
X93622761Y-124547238D01*
X93527523Y-124642476D01*
X93432285Y-124690095D01*
X93241809Y-124737714D01*
X93098952Y-124737714D01*
X92908476Y-124690095D01*
X92813238Y-124642476D01*
X92718000Y-124547238D01*
X92670380Y-124404380D01*
X92670380Y-124309142D01*
X92718000Y-124166285D01*
X92765619Y-124118666D01*
X93670380Y-123166285D02*
X93670380Y-123737714D01*
X93670380Y-123452000D02*
X92670380Y-123452000D01*
X92813238Y-123547238D01*
X92908476Y-123642476D01*
X92956095Y-123737714D01*
M02*
