G04 #@! TF.GenerationSoftware,KiCad,Pcbnew,(5.1.10-0-10_14)*
G04 #@! TF.CreationDate,2021-07-28T14:35:39+02:00*
G04 #@! TF.ProjectId,pre-amp-discret,7072652d-616d-4702-9d64-697363726574,rev?*
G04 #@! TF.SameCoordinates,Original*
G04 #@! TF.FileFunction,Copper,L1,Top*
G04 #@! TF.FilePolarity,Positive*
%FSLAX46Y46*%
G04 Gerber Fmt 4.6, Leading zero omitted, Abs format (unit mm)*
G04 Created by KiCad (PCBNEW (5.1.10-0-10_14)) date 2021-07-28 14:35:39*
%MOMM*%
%LPD*%
G01*
G04 APERTURE LIST*
G04 #@! TA.AperFunction,SMDPad,CuDef*
%ADD10R,0.650000X1.220000*%
G04 #@! TD*
G04 #@! TA.AperFunction,SMDPad,CuDef*
%ADD11R,0.900000X0.800000*%
G04 #@! TD*
G04 #@! TA.AperFunction,SMDPad,CuDef*
%ADD12R,0.800000X0.900000*%
G04 #@! TD*
G04 #@! TA.AperFunction,ComponentPad*
%ADD13C,2.000000*%
G04 #@! TD*
G04 #@! TA.AperFunction,ComponentPad*
%ADD14C,1.600000*%
G04 #@! TD*
G04 #@! TA.AperFunction,ViaPad*
%ADD15C,0.600000*%
G04 #@! TD*
G04 #@! TA.AperFunction,Conductor*
%ADD16C,0.250000*%
G04 #@! TD*
G04 #@! TA.AperFunction,Conductor*
%ADD17C,0.500000*%
G04 #@! TD*
G04 #@! TA.AperFunction,Conductor*
%ADD18C,0.254000*%
G04 #@! TD*
G04 #@! TA.AperFunction,Conductor*
%ADD19C,0.100000*%
G04 #@! TD*
G04 APERTURE END LIST*
G04 #@! TA.AperFunction,SMDPad,CuDef*
G36*
G01*
X152919000Y-107335501D02*
X152919000Y-105135499D01*
G75*
G02*
X153168999Y-104885500I249999J0D01*
G01*
X153994001Y-104885500D01*
G75*
G02*
X154244000Y-105135499I0J-249999D01*
G01*
X154244000Y-107335501D01*
G75*
G02*
X153994001Y-107585500I-249999J0D01*
G01*
X153168999Y-107585500D01*
G75*
G02*
X152919000Y-107335501I0J249999D01*
G01*
G37*
G04 #@! TD.AperFunction*
G04 #@! TA.AperFunction,SMDPad,CuDef*
G36*
G01*
X149794000Y-107335501D02*
X149794000Y-105135499D01*
G75*
G02*
X150043999Y-104885500I249999J0D01*
G01*
X150869001Y-104885500D01*
G75*
G02*
X151119000Y-105135499I0J-249999D01*
G01*
X151119000Y-107335501D01*
G75*
G02*
X150869001Y-107585500I-249999J0D01*
G01*
X150043999Y-107585500D01*
G75*
G02*
X149794000Y-107335501I0J249999D01*
G01*
G37*
G04 #@! TD.AperFunction*
G04 #@! TA.AperFunction,SMDPad,CuDef*
G36*
G01*
X152770000Y-136250499D02*
X152770000Y-138450501D01*
G75*
G02*
X152520001Y-138700500I-249999J0D01*
G01*
X151694999Y-138700500D01*
G75*
G02*
X151445000Y-138450501I0J249999D01*
G01*
X151445000Y-136250499D01*
G75*
G02*
X151694999Y-136000500I249999J0D01*
G01*
X152520001Y-136000500D01*
G75*
G02*
X152770000Y-136250499I0J-249999D01*
G01*
G37*
G04 #@! TD.AperFunction*
G04 #@! TA.AperFunction,SMDPad,CuDef*
G36*
G01*
X155895000Y-136250499D02*
X155895000Y-138450501D01*
G75*
G02*
X155645001Y-138700500I-249999J0D01*
G01*
X154819999Y-138700500D01*
G75*
G02*
X154570000Y-138450501I0J249999D01*
G01*
X154570000Y-136250499D01*
G75*
G02*
X154819999Y-136000500I249999J0D01*
G01*
X155645001Y-136000500D01*
G75*
G02*
X155895000Y-136250499I0J-249999D01*
G01*
G37*
G04 #@! TD.AperFunction*
G04 #@! TA.AperFunction,SMDPad,CuDef*
G36*
G01*
X171739500Y-136800500D02*
X171739500Y-137900500D01*
G75*
G02*
X171489500Y-138150500I-250000J0D01*
G01*
X168489500Y-138150500D01*
G75*
G02*
X168239500Y-137900500I0J250000D01*
G01*
X168239500Y-136800500D01*
G75*
G02*
X168489500Y-136550500I250000J0D01*
G01*
X171489500Y-136550500D01*
G75*
G02*
X171739500Y-136800500I0J-250000D01*
G01*
G37*
G04 #@! TD.AperFunction*
G04 #@! TA.AperFunction,SMDPad,CuDef*
G36*
G01*
X177139500Y-136800500D02*
X177139500Y-137900500D01*
G75*
G02*
X176889500Y-138150500I-250000J0D01*
G01*
X173889500Y-138150500D01*
G75*
G02*
X173639500Y-137900500I0J250000D01*
G01*
X173639500Y-136800500D01*
G75*
G02*
X173889500Y-136550500I250000J0D01*
G01*
X176889500Y-136550500D01*
G75*
G02*
X177139500Y-136800500I0J-250000D01*
G01*
G37*
G04 #@! TD.AperFunction*
G04 #@! TA.AperFunction,SMDPad,CuDef*
G36*
G01*
X173766500Y-106785500D02*
X173766500Y-105685500D01*
G75*
G02*
X174016500Y-105435500I250000J0D01*
G01*
X177016500Y-105435500D01*
G75*
G02*
X177266500Y-105685500I0J-250000D01*
G01*
X177266500Y-106785500D01*
G75*
G02*
X177016500Y-107035500I-250000J0D01*
G01*
X174016500Y-107035500D01*
G75*
G02*
X173766500Y-106785500I0J250000D01*
G01*
G37*
G04 #@! TD.AperFunction*
G04 #@! TA.AperFunction,SMDPad,CuDef*
G36*
G01*
X168366500Y-106785500D02*
X168366500Y-105685500D01*
G75*
G02*
X168616500Y-105435500I250000J0D01*
G01*
X171616500Y-105435500D01*
G75*
G02*
X171866500Y-105685500I0J-250000D01*
G01*
X171866500Y-106785500D01*
G75*
G02*
X171616500Y-107035500I-250000J0D01*
G01*
X168616500Y-107035500D01*
G75*
G02*
X168366500Y-106785500I0J250000D01*
G01*
G37*
G04 #@! TD.AperFunction*
G04 #@! TA.AperFunction,SMDPad,CuDef*
G36*
G01*
X163971000Y-136250499D02*
X163971000Y-138450501D01*
G75*
G02*
X163721001Y-138700500I-249999J0D01*
G01*
X162895999Y-138700500D01*
G75*
G02*
X162646000Y-138450501I0J249999D01*
G01*
X162646000Y-136250499D01*
G75*
G02*
X162895999Y-136000500I249999J0D01*
G01*
X163721001Y-136000500D01*
G75*
G02*
X163971000Y-136250499I0J-249999D01*
G01*
G37*
G04 #@! TD.AperFunction*
G04 #@! TA.AperFunction,SMDPad,CuDef*
G36*
G01*
X167096000Y-136250499D02*
X167096000Y-138450501D01*
G75*
G02*
X166846001Y-138700500I-249999J0D01*
G01*
X166020999Y-138700500D01*
G75*
G02*
X165771000Y-138450501I0J249999D01*
G01*
X165771000Y-136250499D01*
G75*
G02*
X166020999Y-136000500I249999J0D01*
G01*
X166846001Y-136000500D01*
G75*
G02*
X167096000Y-136250499I0J-249999D01*
G01*
G37*
G04 #@! TD.AperFunction*
G04 #@! TA.AperFunction,SMDPad,CuDef*
G36*
G01*
X165834500Y-107335501D02*
X165834500Y-105135499D01*
G75*
G02*
X166084499Y-104885500I249999J0D01*
G01*
X166909501Y-104885500D01*
G75*
G02*
X167159500Y-105135499I0J-249999D01*
G01*
X167159500Y-107335501D01*
G75*
G02*
X166909501Y-107585500I-249999J0D01*
G01*
X166084499Y-107585500D01*
G75*
G02*
X165834500Y-107335501I0J249999D01*
G01*
G37*
G04 #@! TD.AperFunction*
G04 #@! TA.AperFunction,SMDPad,CuDef*
G36*
G01*
X162709500Y-107335501D02*
X162709500Y-105135499D01*
G75*
G02*
X162959499Y-104885500I249999J0D01*
G01*
X163784501Y-104885500D01*
G75*
G02*
X164034500Y-105135499I0J-249999D01*
G01*
X164034500Y-107335501D01*
G75*
G02*
X163784501Y-107585500I-249999J0D01*
G01*
X162959499Y-107585500D01*
G75*
G02*
X162709500Y-107335501I0J249999D01*
G01*
G37*
G04 #@! TD.AperFunction*
G04 #@! TA.AperFunction,SMDPad,CuDef*
G36*
G01*
X158221499Y-114717000D02*
X160421501Y-114717000D01*
G75*
G02*
X160671500Y-114966999I0J-249999D01*
G01*
X160671500Y-115792001D01*
G75*
G02*
X160421501Y-116042000I-249999J0D01*
G01*
X158221499Y-116042000D01*
G75*
G02*
X157971500Y-115792001I0J249999D01*
G01*
X157971500Y-114966999D01*
G75*
G02*
X158221499Y-114717000I249999J0D01*
G01*
G37*
G04 #@! TD.AperFunction*
G04 #@! TA.AperFunction,SMDPad,CuDef*
G36*
G01*
X158221499Y-111592000D02*
X160421501Y-111592000D01*
G75*
G02*
X160671500Y-111841999I0J-249999D01*
G01*
X160671500Y-112667001D01*
G75*
G02*
X160421501Y-112917000I-249999J0D01*
G01*
X158221499Y-112917000D01*
G75*
G02*
X157971500Y-112667001I0J249999D01*
G01*
X157971500Y-111841999D01*
G75*
G02*
X158221499Y-111592000I249999J0D01*
G01*
G37*
G04 #@! TD.AperFunction*
G04 #@! TA.AperFunction,SMDPad,CuDef*
G36*
G01*
X153182501Y-113421500D02*
X150982499Y-113421500D01*
G75*
G02*
X150732500Y-113171501I0J249999D01*
G01*
X150732500Y-112346499D01*
G75*
G02*
X150982499Y-112096500I249999J0D01*
G01*
X153182501Y-112096500D01*
G75*
G02*
X153432500Y-112346499I0J-249999D01*
G01*
X153432500Y-113171501D01*
G75*
G02*
X153182501Y-113421500I-249999J0D01*
G01*
G37*
G04 #@! TD.AperFunction*
G04 #@! TA.AperFunction,SMDPad,CuDef*
G36*
G01*
X153182501Y-116546500D02*
X150982499Y-116546500D01*
G75*
G02*
X150732500Y-116296501I0J249999D01*
G01*
X150732500Y-115471499D01*
G75*
G02*
X150982499Y-115221500I249999J0D01*
G01*
X153182501Y-115221500D01*
G75*
G02*
X153432500Y-115471499I0J-249999D01*
G01*
X153432500Y-116296501D01*
G75*
G02*
X153182501Y-116546500I-249999J0D01*
G01*
G37*
G04 #@! TD.AperFunction*
G04 #@! TA.AperFunction,SMDPad,CuDef*
G36*
G01*
X145584999Y-133590000D02*
X147785001Y-133590000D01*
G75*
G02*
X148035000Y-133839999I0J-249999D01*
G01*
X148035000Y-134665001D01*
G75*
G02*
X147785001Y-134915000I-249999J0D01*
G01*
X145584999Y-134915000D01*
G75*
G02*
X145335000Y-134665001I0J249999D01*
G01*
X145335000Y-133839999D01*
G75*
G02*
X145584999Y-133590000I249999J0D01*
G01*
G37*
G04 #@! TD.AperFunction*
G04 #@! TA.AperFunction,SMDPad,CuDef*
G36*
G01*
X145584999Y-130465000D02*
X147785001Y-130465000D01*
G75*
G02*
X148035000Y-130714999I0J-249999D01*
G01*
X148035000Y-131540001D01*
G75*
G02*
X147785001Y-131790000I-249999J0D01*
G01*
X145584999Y-131790000D01*
G75*
G02*
X145335000Y-131540001I0J249999D01*
G01*
X145335000Y-130714999D01*
G75*
G02*
X145584999Y-130465000I249999J0D01*
G01*
G37*
G04 #@! TD.AperFunction*
G04 #@! TA.AperFunction,SMDPad,CuDef*
G36*
G01*
X143425999Y-108557500D02*
X145626001Y-108557500D01*
G75*
G02*
X145876000Y-108807499I0J-249999D01*
G01*
X145876000Y-109632501D01*
G75*
G02*
X145626001Y-109882500I-249999J0D01*
G01*
X143425999Y-109882500D01*
G75*
G02*
X143176000Y-109632501I0J249999D01*
G01*
X143176000Y-108807499D01*
G75*
G02*
X143425999Y-108557500I249999J0D01*
G01*
G37*
G04 #@! TD.AperFunction*
G04 #@! TA.AperFunction,SMDPad,CuDef*
G36*
G01*
X143425999Y-105432500D02*
X145626001Y-105432500D01*
G75*
G02*
X145876000Y-105682499I0J-249999D01*
G01*
X145876000Y-106507501D01*
G75*
G02*
X145626001Y-106757500I-249999J0D01*
G01*
X143425999Y-106757500D01*
G75*
G02*
X143176000Y-106507501I0J249999D01*
G01*
X143176000Y-105682499D01*
G75*
G02*
X143425999Y-105432500I249999J0D01*
G01*
G37*
G04 #@! TD.AperFunction*
D10*
X154754500Y-112759500D03*
X156654500Y-112759500D03*
X156654500Y-115379500D03*
X155704500Y-115379500D03*
X154754500Y-115379500D03*
G04 #@! TA.AperFunction,SMDPad,CuDef*
G36*
G01*
X167621000Y-116834499D02*
X167621000Y-117734501D01*
G75*
G02*
X167371001Y-117984500I-249999J0D01*
G01*
X166670999Y-117984500D01*
G75*
G02*
X166421000Y-117734501I0J249999D01*
G01*
X166421000Y-116834499D01*
G75*
G02*
X166670999Y-116584500I249999J0D01*
G01*
X167371001Y-116584500D01*
G75*
G02*
X167621000Y-116834499I0J-249999D01*
G01*
G37*
G04 #@! TD.AperFunction*
G04 #@! TA.AperFunction,SMDPad,CuDef*
G36*
G01*
X169621000Y-116834499D02*
X169621000Y-117734501D01*
G75*
G02*
X169371001Y-117984500I-249999J0D01*
G01*
X168670999Y-117984500D01*
G75*
G02*
X168421000Y-117734501I0J249999D01*
G01*
X168421000Y-116834499D01*
G75*
G02*
X168670999Y-116584500I249999J0D01*
G01*
X169371001Y-116584500D01*
G75*
G02*
X169621000Y-116834499I0J-249999D01*
G01*
G37*
G04 #@! TD.AperFunction*
G04 #@! TA.AperFunction,SMDPad,CuDef*
G36*
G01*
X157104501Y-109534500D02*
X156204499Y-109534500D01*
G75*
G02*
X155954500Y-109284501I0J249999D01*
G01*
X155954500Y-108584499D01*
G75*
G02*
X156204499Y-108334500I249999J0D01*
G01*
X157104501Y-108334500D01*
G75*
G02*
X157354500Y-108584499I0J-249999D01*
G01*
X157354500Y-109284501D01*
G75*
G02*
X157104501Y-109534500I-249999J0D01*
G01*
G37*
G04 #@! TD.AperFunction*
G04 #@! TA.AperFunction,SMDPad,CuDef*
G36*
G01*
X157104501Y-111534500D02*
X156204499Y-111534500D01*
G75*
G02*
X155954500Y-111284501I0J249999D01*
G01*
X155954500Y-110584499D01*
G75*
G02*
X156204499Y-110334500I249999J0D01*
G01*
X157104501Y-110334500D01*
G75*
G02*
X157354500Y-110584499I0J-249999D01*
G01*
X157354500Y-111284501D01*
G75*
G02*
X157104501Y-111534500I-249999J0D01*
G01*
G37*
G04 #@! TD.AperFunction*
G04 #@! TA.AperFunction,SMDPad,CuDef*
G36*
G01*
X153410499Y-121320000D02*
X154310501Y-121320000D01*
G75*
G02*
X154560500Y-121569999I0J-249999D01*
G01*
X154560500Y-122270001D01*
G75*
G02*
X154310501Y-122520000I-249999J0D01*
G01*
X153410499Y-122520000D01*
G75*
G02*
X153160500Y-122270001I0J249999D01*
G01*
X153160500Y-121569999D01*
G75*
G02*
X153410499Y-121320000I249999J0D01*
G01*
G37*
G04 #@! TD.AperFunction*
G04 #@! TA.AperFunction,SMDPad,CuDef*
G36*
G01*
X153410499Y-119320000D02*
X154310501Y-119320000D01*
G75*
G02*
X154560500Y-119569999I0J-249999D01*
G01*
X154560500Y-120270001D01*
G75*
G02*
X154310501Y-120520000I-249999J0D01*
G01*
X153410499Y-120520000D01*
G75*
G02*
X153160500Y-120270001I0J249999D01*
G01*
X153160500Y-119569999D01*
G75*
G02*
X153410499Y-119320000I249999J0D01*
G01*
G37*
G04 #@! TD.AperFunction*
G04 #@! TA.AperFunction,SMDPad,CuDef*
G36*
G01*
X149357501Y-111630000D02*
X148457499Y-111630000D01*
G75*
G02*
X148207500Y-111380001I0J249999D01*
G01*
X148207500Y-110679999D01*
G75*
G02*
X148457499Y-110430000I249999J0D01*
G01*
X149357501Y-110430000D01*
G75*
G02*
X149607500Y-110679999I0J-249999D01*
G01*
X149607500Y-111380001D01*
G75*
G02*
X149357501Y-111630000I-249999J0D01*
G01*
G37*
G04 #@! TD.AperFunction*
G04 #@! TA.AperFunction,SMDPad,CuDef*
G36*
G01*
X149357501Y-113630000D02*
X148457499Y-113630000D01*
G75*
G02*
X148207500Y-113380001I0J249999D01*
G01*
X148207500Y-112679999D01*
G75*
G02*
X148457499Y-112430000I249999J0D01*
G01*
X149357501Y-112430000D01*
G75*
G02*
X149607500Y-112679999I0J-249999D01*
G01*
X149607500Y-113380001D01*
G75*
G02*
X149357501Y-113630000I-249999J0D01*
G01*
G37*
G04 #@! TD.AperFunction*
G04 #@! TA.AperFunction,SMDPad,CuDef*
G36*
G01*
X141218499Y-110652000D02*
X142118501Y-110652000D01*
G75*
G02*
X142368500Y-110901999I0J-249999D01*
G01*
X142368500Y-111602001D01*
G75*
G02*
X142118501Y-111852000I-249999J0D01*
G01*
X141218499Y-111852000D01*
G75*
G02*
X140968500Y-111602001I0J249999D01*
G01*
X140968500Y-110901999D01*
G75*
G02*
X141218499Y-110652000I249999J0D01*
G01*
G37*
G04 #@! TD.AperFunction*
G04 #@! TA.AperFunction,SMDPad,CuDef*
G36*
G01*
X141218499Y-108652000D02*
X142118501Y-108652000D01*
G75*
G02*
X142368500Y-108901999I0J-249999D01*
G01*
X142368500Y-109602001D01*
G75*
G02*
X142118501Y-109852000I-249999J0D01*
G01*
X141218499Y-109852000D01*
G75*
G02*
X140968500Y-109602001I0J249999D01*
G01*
X140968500Y-108901999D01*
G75*
G02*
X141218499Y-108652000I249999J0D01*
G01*
G37*
G04 #@! TD.AperFunction*
D11*
X145161000Y-113030000D03*
X147161000Y-112080000D03*
X147161000Y-113980000D03*
D12*
X142621000Y-114998500D03*
X141671000Y-112998500D03*
X143571000Y-112998500D03*
G04 #@! TA.AperFunction,SMDPad,CuDef*
G36*
G01*
X145542500Y-126315500D02*
X145292500Y-126315500D01*
G75*
G02*
X145167500Y-126190500I0J125000D01*
G01*
X145167500Y-125015500D01*
G75*
G02*
X145292500Y-124890500I125000J0D01*
G01*
X145542500Y-124890500D01*
G75*
G02*
X145667500Y-125015500I0J-125000D01*
G01*
X145667500Y-126190500D01*
G75*
G02*
X145542500Y-126315500I-125000J0D01*
G01*
G37*
G04 #@! TD.AperFunction*
G04 #@! TA.AperFunction,SMDPad,CuDef*
G36*
G01*
X146492500Y-126315500D02*
X146242500Y-126315500D01*
G75*
G02*
X146117500Y-126190500I0J125000D01*
G01*
X146117500Y-125015500D01*
G75*
G02*
X146242500Y-124890500I125000J0D01*
G01*
X146492500Y-124890500D01*
G75*
G02*
X146617500Y-125015500I0J-125000D01*
G01*
X146617500Y-126190500D01*
G75*
G02*
X146492500Y-126315500I-125000J0D01*
G01*
G37*
G04 #@! TD.AperFunction*
G04 #@! TA.AperFunction,SMDPad,CuDef*
G36*
G01*
X147442500Y-126315500D02*
X147192500Y-126315500D01*
G75*
G02*
X147067500Y-126190500I0J125000D01*
G01*
X147067500Y-125015500D01*
G75*
G02*
X147192500Y-124890500I125000J0D01*
G01*
X147442500Y-124890500D01*
G75*
G02*
X147567500Y-125015500I0J-125000D01*
G01*
X147567500Y-126190500D01*
G75*
G02*
X147442500Y-126315500I-125000J0D01*
G01*
G37*
G04 #@! TD.AperFunction*
G04 #@! TA.AperFunction,SMDPad,CuDef*
G36*
G01*
X147442500Y-128590500D02*
X147192500Y-128590500D01*
G75*
G02*
X147067500Y-128465500I0J125000D01*
G01*
X147067500Y-127290500D01*
G75*
G02*
X147192500Y-127165500I125000J0D01*
G01*
X147442500Y-127165500D01*
G75*
G02*
X147567500Y-127290500I0J-125000D01*
G01*
X147567500Y-128465500D01*
G75*
G02*
X147442500Y-128590500I-125000J0D01*
G01*
G37*
G04 #@! TD.AperFunction*
G04 #@! TA.AperFunction,SMDPad,CuDef*
G36*
G01*
X146492500Y-128590500D02*
X146242500Y-128590500D01*
G75*
G02*
X146117500Y-128465500I0J125000D01*
G01*
X146117500Y-127290500D01*
G75*
G02*
X146242500Y-127165500I125000J0D01*
G01*
X146492500Y-127165500D01*
G75*
G02*
X146617500Y-127290500I0J-125000D01*
G01*
X146617500Y-128465500D01*
G75*
G02*
X146492500Y-128590500I-125000J0D01*
G01*
G37*
G04 #@! TD.AperFunction*
G04 #@! TA.AperFunction,SMDPad,CuDef*
G36*
G01*
X145542500Y-128590500D02*
X145292500Y-128590500D01*
G75*
G02*
X145167500Y-128465500I0J125000D01*
G01*
X145167500Y-127290500D01*
G75*
G02*
X145292500Y-127165500I125000J0D01*
G01*
X145542500Y-127165500D01*
G75*
G02*
X145667500Y-127290500I0J-125000D01*
G01*
X145667500Y-128465500D01*
G75*
G02*
X145542500Y-128590500I-125000J0D01*
G01*
G37*
G04 #@! TD.AperFunction*
G04 #@! TA.AperFunction,SMDPad,CuDef*
G36*
G01*
X143104000Y-121095000D02*
X143104000Y-120845000D01*
G75*
G02*
X143229000Y-120720000I125000J0D01*
G01*
X144404000Y-120720000D01*
G75*
G02*
X144529000Y-120845000I0J-125000D01*
G01*
X144529000Y-121095000D01*
G75*
G02*
X144404000Y-121220000I-125000J0D01*
G01*
X143229000Y-121220000D01*
G75*
G02*
X143104000Y-121095000I0J125000D01*
G01*
G37*
G04 #@! TD.AperFunction*
G04 #@! TA.AperFunction,SMDPad,CuDef*
G36*
G01*
X143104000Y-122045000D02*
X143104000Y-121795000D01*
G75*
G02*
X143229000Y-121670000I125000J0D01*
G01*
X144404000Y-121670000D01*
G75*
G02*
X144529000Y-121795000I0J-125000D01*
G01*
X144529000Y-122045000D01*
G75*
G02*
X144404000Y-122170000I-125000J0D01*
G01*
X143229000Y-122170000D01*
G75*
G02*
X143104000Y-122045000I0J125000D01*
G01*
G37*
G04 #@! TD.AperFunction*
G04 #@! TA.AperFunction,SMDPad,CuDef*
G36*
G01*
X143104000Y-122995000D02*
X143104000Y-122745000D01*
G75*
G02*
X143229000Y-122620000I125000J0D01*
G01*
X144404000Y-122620000D01*
G75*
G02*
X144529000Y-122745000I0J-125000D01*
G01*
X144529000Y-122995000D01*
G75*
G02*
X144404000Y-123120000I-125000J0D01*
G01*
X143229000Y-123120000D01*
G75*
G02*
X143104000Y-122995000I0J125000D01*
G01*
G37*
G04 #@! TD.AperFunction*
G04 #@! TA.AperFunction,SMDPad,CuDef*
G36*
G01*
X140829000Y-122995000D02*
X140829000Y-122745000D01*
G75*
G02*
X140954000Y-122620000I125000J0D01*
G01*
X142129000Y-122620000D01*
G75*
G02*
X142254000Y-122745000I0J-125000D01*
G01*
X142254000Y-122995000D01*
G75*
G02*
X142129000Y-123120000I-125000J0D01*
G01*
X140954000Y-123120000D01*
G75*
G02*
X140829000Y-122995000I0J125000D01*
G01*
G37*
G04 #@! TD.AperFunction*
G04 #@! TA.AperFunction,SMDPad,CuDef*
G36*
G01*
X140829000Y-122045000D02*
X140829000Y-121795000D01*
G75*
G02*
X140954000Y-121670000I125000J0D01*
G01*
X142129000Y-121670000D01*
G75*
G02*
X142254000Y-121795000I0J-125000D01*
G01*
X142254000Y-122045000D01*
G75*
G02*
X142129000Y-122170000I-125000J0D01*
G01*
X140954000Y-122170000D01*
G75*
G02*
X140829000Y-122045000I0J125000D01*
G01*
G37*
G04 #@! TD.AperFunction*
G04 #@! TA.AperFunction,SMDPad,CuDef*
G36*
G01*
X140829000Y-121095000D02*
X140829000Y-120845000D01*
G75*
G02*
X140954000Y-120720000I125000J0D01*
G01*
X142129000Y-120720000D01*
G75*
G02*
X142254000Y-120845000I0J-125000D01*
G01*
X142254000Y-121095000D01*
G75*
G02*
X142129000Y-121220000I-125000J0D01*
G01*
X140954000Y-121220000D01*
G75*
G02*
X140829000Y-121095000I0J125000D01*
G01*
G37*
G04 #@! TD.AperFunction*
D13*
X194754500Y-121920000D03*
X196215000Y-113030000D03*
X196088000Y-130619500D03*
G04 #@! TA.AperFunction,SMDPad,CuDef*
G36*
G01*
X156239500Y-116856500D02*
X156239500Y-117331500D01*
G75*
G02*
X156002000Y-117569000I-237500J0D01*
G01*
X155402000Y-117569000D01*
G75*
G02*
X155164500Y-117331500I0J237500D01*
G01*
X155164500Y-116856500D01*
G75*
G02*
X155402000Y-116619000I237500J0D01*
G01*
X156002000Y-116619000D01*
G75*
G02*
X156239500Y-116856500I0J-237500D01*
G01*
G37*
G04 #@! TD.AperFunction*
G04 #@! TA.AperFunction,SMDPad,CuDef*
G36*
G01*
X157964500Y-116856500D02*
X157964500Y-117331500D01*
G75*
G02*
X157727000Y-117569000I-237500J0D01*
G01*
X157127000Y-117569000D01*
G75*
G02*
X156889500Y-117331500I0J237500D01*
G01*
X156889500Y-116856500D01*
G75*
G02*
X157127000Y-116619000I237500J0D01*
G01*
X157727000Y-116619000D01*
G75*
G02*
X157964500Y-116856500I0J-237500D01*
G01*
G37*
G04 #@! TD.AperFunction*
G04 #@! TA.AperFunction,SMDPad,CuDef*
G36*
G01*
X154212000Y-111235500D02*
X154212000Y-110760500D01*
G75*
G02*
X154449500Y-110523000I237500J0D01*
G01*
X155049500Y-110523000D01*
G75*
G02*
X155287000Y-110760500I0J-237500D01*
G01*
X155287000Y-111235500D01*
G75*
G02*
X155049500Y-111473000I-237500J0D01*
G01*
X154449500Y-111473000D01*
G75*
G02*
X154212000Y-111235500I0J237500D01*
G01*
G37*
G04 #@! TD.AperFunction*
G04 #@! TA.AperFunction,SMDPad,CuDef*
G36*
G01*
X152487000Y-111235500D02*
X152487000Y-110760500D01*
G75*
G02*
X152724500Y-110523000I237500J0D01*
G01*
X153324500Y-110523000D01*
G75*
G02*
X153562000Y-110760500I0J-237500D01*
G01*
X153562000Y-111235500D01*
G75*
G02*
X153324500Y-111473000I-237500J0D01*
G01*
X152724500Y-111473000D01*
G75*
G02*
X152487000Y-111235500I0J237500D01*
G01*
G37*
G04 #@! TD.AperFunction*
X182181500Y-124968000D03*
X182181500Y-119888000D03*
X126365000Y-126936500D03*
X126301500Y-121920000D03*
D11*
X166529000Y-126108500D03*
X168529000Y-125158500D03*
X168529000Y-127058500D03*
G04 #@! TA.AperFunction,SMDPad,CuDef*
G36*
G01*
X157877000Y-125445500D02*
X157877000Y-126395500D01*
G75*
G02*
X157627000Y-126645500I-250000J0D01*
G01*
X156952000Y-126645500D01*
G75*
G02*
X156702000Y-126395500I0J250000D01*
G01*
X156702000Y-125445500D01*
G75*
G02*
X156952000Y-125195500I250000J0D01*
G01*
X157627000Y-125195500D01*
G75*
G02*
X157877000Y-125445500I0J-250000D01*
G01*
G37*
G04 #@! TD.AperFunction*
G04 #@! TA.AperFunction,SMDPad,CuDef*
G36*
G01*
X159952000Y-125445500D02*
X159952000Y-126395500D01*
G75*
G02*
X159702000Y-126645500I-250000J0D01*
G01*
X159027000Y-126645500D01*
G75*
G02*
X158777000Y-126395500I0J250000D01*
G01*
X158777000Y-125445500D01*
G75*
G02*
X159027000Y-125195500I250000J0D01*
G01*
X159702000Y-125195500D01*
G75*
G02*
X159952000Y-125445500I0J-250000D01*
G01*
G37*
G04 #@! TD.AperFunction*
G04 #@! TA.AperFunction,SMDPad,CuDef*
G36*
G01*
X157449500Y-121345200D02*
X158399500Y-121345200D01*
G75*
G02*
X158649500Y-121595200I0J-250000D01*
G01*
X158649500Y-122270200D01*
G75*
G02*
X158399500Y-122520200I-250000J0D01*
G01*
X157449500Y-122520200D01*
G75*
G02*
X157199500Y-122270200I0J250000D01*
G01*
X157199500Y-121595200D01*
G75*
G02*
X157449500Y-121345200I250000J0D01*
G01*
G37*
G04 #@! TD.AperFunction*
G04 #@! TA.AperFunction,SMDPad,CuDef*
G36*
G01*
X157449500Y-119270200D02*
X158399500Y-119270200D01*
G75*
G02*
X158649500Y-119520200I0J-250000D01*
G01*
X158649500Y-120195200D01*
G75*
G02*
X158399500Y-120445200I-250000J0D01*
G01*
X157449500Y-120445200D01*
G75*
G02*
X157199500Y-120195200I0J250000D01*
G01*
X157199500Y-119520200D01*
G75*
G02*
X157449500Y-119270200I250000J0D01*
G01*
G37*
G04 #@! TD.AperFunction*
X170529000Y-114678500D03*
X170529000Y-112778500D03*
X168529000Y-113728500D03*
G04 #@! TA.AperFunction,SMDPad,CuDef*
G36*
G01*
X137979999Y-123320000D02*
X138880001Y-123320000D01*
G75*
G02*
X139130000Y-123569999I0J-249999D01*
G01*
X139130000Y-124270001D01*
G75*
G02*
X138880001Y-124520000I-249999J0D01*
G01*
X137979999Y-124520000D01*
G75*
G02*
X137730000Y-124270001I0J249999D01*
G01*
X137730000Y-123569999D01*
G75*
G02*
X137979999Y-123320000I249999J0D01*
G01*
G37*
G04 #@! TD.AperFunction*
G04 #@! TA.AperFunction,SMDPad,CuDef*
G36*
G01*
X137979999Y-121320000D02*
X138880001Y-121320000D01*
G75*
G02*
X139130000Y-121569999I0J-249999D01*
G01*
X139130000Y-122270001D01*
G75*
G02*
X138880001Y-122520000I-249999J0D01*
G01*
X137979999Y-122520000D01*
G75*
G02*
X137730000Y-122270001I0J249999D01*
G01*
X137730000Y-121569999D01*
G75*
G02*
X137979999Y-121320000I249999J0D01*
G01*
G37*
G04 #@! TD.AperFunction*
G04 #@! TA.AperFunction,SMDPad,CuDef*
G36*
G01*
X170272000Y-119437999D02*
X170272000Y-120338001D01*
G75*
G02*
X170022001Y-120588000I-249999J0D01*
G01*
X169321999Y-120588000D01*
G75*
G02*
X169072000Y-120338001I0J249999D01*
G01*
X169072000Y-119437999D01*
G75*
G02*
X169321999Y-119188000I249999J0D01*
G01*
X170022001Y-119188000D01*
G75*
G02*
X170272000Y-119437999I0J-249999D01*
G01*
G37*
G04 #@! TD.AperFunction*
G04 #@! TA.AperFunction,SMDPad,CuDef*
G36*
G01*
X172272000Y-119437999D02*
X172272000Y-120338001D01*
G75*
G02*
X172022001Y-120588000I-249999J0D01*
G01*
X171321999Y-120588000D01*
G75*
G02*
X171072000Y-120338001I0J249999D01*
G01*
X171072000Y-119437999D01*
G75*
G02*
X171321999Y-119188000I249999J0D01*
G01*
X172022001Y-119188000D01*
G75*
G02*
X172272000Y-119437999I0J-249999D01*
G01*
G37*
G04 #@! TD.AperFunction*
G04 #@! TA.AperFunction,SMDPad,CuDef*
G36*
G01*
X170373500Y-111321001D02*
X170373500Y-110420999D01*
G75*
G02*
X170623499Y-110171000I249999J0D01*
G01*
X171323501Y-110171000D01*
G75*
G02*
X171573500Y-110420999I0J-249999D01*
G01*
X171573500Y-111321001D01*
G75*
G02*
X171323501Y-111571000I-249999J0D01*
G01*
X170623499Y-111571000D01*
G75*
G02*
X170373500Y-111321001I0J249999D01*
G01*
G37*
G04 #@! TD.AperFunction*
G04 #@! TA.AperFunction,SMDPad,CuDef*
G36*
G01*
X168373500Y-111321001D02*
X168373500Y-110420999D01*
G75*
G02*
X168623499Y-110171000I249999J0D01*
G01*
X169323501Y-110171000D01*
G75*
G02*
X169573500Y-110420999I0J-249999D01*
G01*
X169573500Y-111321001D01*
G75*
G02*
X169323501Y-111571000I-249999J0D01*
G01*
X168623499Y-111571000D01*
G75*
G02*
X168373500Y-111321001I0J249999D01*
G01*
G37*
G04 #@! TD.AperFunction*
G04 #@! TA.AperFunction,SMDPad,CuDef*
G36*
G01*
X165255500Y-110420999D02*
X165255500Y-111321001D01*
G75*
G02*
X165005501Y-111571000I-249999J0D01*
G01*
X164305499Y-111571000D01*
G75*
G02*
X164055500Y-111321001I0J249999D01*
G01*
X164055500Y-110420999D01*
G75*
G02*
X164305499Y-110171000I249999J0D01*
G01*
X165005501Y-110171000D01*
G75*
G02*
X165255500Y-110420999I0J-249999D01*
G01*
G37*
G04 #@! TD.AperFunction*
G04 #@! TA.AperFunction,SMDPad,CuDef*
G36*
G01*
X167255500Y-110420999D02*
X167255500Y-111321001D01*
G75*
G02*
X167005501Y-111571000I-249999J0D01*
G01*
X166305499Y-111571000D01*
G75*
G02*
X166055500Y-111321001I0J249999D01*
G01*
X166055500Y-110420999D01*
G75*
G02*
X166305499Y-110171000I249999J0D01*
G01*
X167005501Y-110171000D01*
G75*
G02*
X167255500Y-110420999I0J-249999D01*
G01*
G37*
G04 #@! TD.AperFunction*
G04 #@! TA.AperFunction,SMDPad,CuDef*
G36*
G01*
X155086899Y-129962100D02*
X155986901Y-129962100D01*
G75*
G02*
X156236900Y-130212099I0J-249999D01*
G01*
X156236900Y-130912101D01*
G75*
G02*
X155986901Y-131162100I-249999J0D01*
G01*
X155086899Y-131162100D01*
G75*
G02*
X154836900Y-130912101I0J249999D01*
G01*
X154836900Y-130212099D01*
G75*
G02*
X155086899Y-129962100I249999J0D01*
G01*
G37*
G04 #@! TD.AperFunction*
G04 #@! TA.AperFunction,SMDPad,CuDef*
G36*
G01*
X155086899Y-127962100D02*
X155986901Y-127962100D01*
G75*
G02*
X156236900Y-128212099I0J-249999D01*
G01*
X156236900Y-128912101D01*
G75*
G02*
X155986901Y-129162100I-249999J0D01*
G01*
X155086899Y-129162100D01*
G75*
G02*
X154836900Y-128912101I0J249999D01*
G01*
X154836900Y-128212099D01*
G75*
G02*
X155086899Y-127962100I249999J0D01*
G01*
G37*
G04 #@! TD.AperFunction*
G04 #@! TA.AperFunction,SMDPad,CuDef*
G36*
G01*
X155442499Y-121320000D02*
X156342501Y-121320000D01*
G75*
G02*
X156592500Y-121569999I0J-249999D01*
G01*
X156592500Y-122270001D01*
G75*
G02*
X156342501Y-122520000I-249999J0D01*
G01*
X155442499Y-122520000D01*
G75*
G02*
X155192500Y-122270001I0J249999D01*
G01*
X155192500Y-121569999D01*
G75*
G02*
X155442499Y-121320000I249999J0D01*
G01*
G37*
G04 #@! TD.AperFunction*
G04 #@! TA.AperFunction,SMDPad,CuDef*
G36*
G01*
X155442499Y-119320000D02*
X156342501Y-119320000D01*
G75*
G02*
X156592500Y-119569999I0J-249999D01*
G01*
X156592500Y-120270001D01*
G75*
G02*
X156342501Y-120520000I-249999J0D01*
G01*
X155442499Y-120520000D01*
G75*
G02*
X155192500Y-120270001I0J249999D01*
G01*
X155192500Y-119569999D01*
G75*
G02*
X155442499Y-119320000I249999J0D01*
G01*
G37*
G04 #@! TD.AperFunction*
G04 #@! TA.AperFunction,SMDPad,CuDef*
G36*
G01*
X151378499Y-123320000D02*
X152278501Y-123320000D01*
G75*
G02*
X152528500Y-123569999I0J-249999D01*
G01*
X152528500Y-124270001D01*
G75*
G02*
X152278501Y-124520000I-249999J0D01*
G01*
X151378499Y-124520000D01*
G75*
G02*
X151128500Y-124270001I0J249999D01*
G01*
X151128500Y-123569999D01*
G75*
G02*
X151378499Y-123320000I249999J0D01*
G01*
G37*
G04 #@! TD.AperFunction*
G04 #@! TA.AperFunction,SMDPad,CuDef*
G36*
G01*
X151378499Y-121320000D02*
X152278501Y-121320000D01*
G75*
G02*
X152528500Y-121569999I0J-249999D01*
G01*
X152528500Y-122270001D01*
G75*
G02*
X152278501Y-122520000I-249999J0D01*
G01*
X151378499Y-122520000D01*
G75*
G02*
X151128500Y-122270001I0J249999D01*
G01*
X151128500Y-121569999D01*
G75*
G02*
X151378499Y-121320000I249999J0D01*
G01*
G37*
G04 #@! TD.AperFunction*
G04 #@! TA.AperFunction,SMDPad,CuDef*
G36*
G01*
X148711499Y-126971500D02*
X149611501Y-126971500D01*
G75*
G02*
X149861500Y-127221499I0J-249999D01*
G01*
X149861500Y-127921501D01*
G75*
G02*
X149611501Y-128171500I-249999J0D01*
G01*
X148711499Y-128171500D01*
G75*
G02*
X148461500Y-127921501I0J249999D01*
G01*
X148461500Y-127221499D01*
G75*
G02*
X148711499Y-126971500I249999J0D01*
G01*
G37*
G04 #@! TD.AperFunction*
G04 #@! TA.AperFunction,SMDPad,CuDef*
G36*
G01*
X148711499Y-124971500D02*
X149611501Y-124971500D01*
G75*
G02*
X149861500Y-125221499I0J-249999D01*
G01*
X149861500Y-125921501D01*
G75*
G02*
X149611501Y-126171500I-249999J0D01*
G01*
X148711499Y-126171500D01*
G75*
G02*
X148461500Y-125921501I0J249999D01*
G01*
X148461500Y-125221499D01*
G75*
G02*
X148711499Y-124971500I249999J0D01*
G01*
G37*
G04 #@! TD.AperFunction*
G04 #@! TA.AperFunction,SMDPad,CuDef*
G36*
G01*
X143377499Y-118303500D02*
X144277501Y-118303500D01*
G75*
G02*
X144527500Y-118553499I0J-249999D01*
G01*
X144527500Y-119253501D01*
G75*
G02*
X144277501Y-119503500I-249999J0D01*
G01*
X143377499Y-119503500D01*
G75*
G02*
X143127500Y-119253501I0J249999D01*
G01*
X143127500Y-118553499D01*
G75*
G02*
X143377499Y-118303500I249999J0D01*
G01*
G37*
G04 #@! TD.AperFunction*
G04 #@! TA.AperFunction,SMDPad,CuDef*
G36*
G01*
X143377499Y-116303500D02*
X144277501Y-116303500D01*
G75*
G02*
X144527500Y-116553499I0J-249999D01*
G01*
X144527500Y-117253501D01*
G75*
G02*
X144277501Y-117503500I-249999J0D01*
G01*
X143377499Y-117503500D01*
G75*
G02*
X143127500Y-117253501I0J249999D01*
G01*
X143127500Y-116553499D01*
G75*
G02*
X143377499Y-116303500I249999J0D01*
G01*
G37*
G04 #@! TD.AperFunction*
G04 #@! TA.AperFunction,SMDPad,CuDef*
G36*
G01*
X143123499Y-129289000D02*
X144023501Y-129289000D01*
G75*
G02*
X144273500Y-129538999I0J-249999D01*
G01*
X144273500Y-130239001D01*
G75*
G02*
X144023501Y-130489000I-249999J0D01*
G01*
X143123499Y-130489000D01*
G75*
G02*
X142873500Y-130239001I0J249999D01*
G01*
X142873500Y-129538999D01*
G75*
G02*
X143123499Y-129289000I249999J0D01*
G01*
G37*
G04 #@! TD.AperFunction*
G04 #@! TA.AperFunction,SMDPad,CuDef*
G36*
G01*
X143123499Y-127289000D02*
X144023501Y-127289000D01*
G75*
G02*
X144273500Y-127538999I0J-249999D01*
G01*
X144273500Y-128239001D01*
G75*
G02*
X144023501Y-128489000I-249999J0D01*
G01*
X143123499Y-128489000D01*
G75*
G02*
X142873500Y-128239001I0J249999D01*
G01*
X142873500Y-127538999D01*
G75*
G02*
X143123499Y-127289000I249999J0D01*
G01*
G37*
G04 #@! TD.AperFunction*
G04 #@! TA.AperFunction,SMDPad,CuDef*
G36*
G01*
X141091499Y-118335500D02*
X141991501Y-118335500D01*
G75*
G02*
X142241500Y-118585499I0J-249999D01*
G01*
X142241500Y-119285501D01*
G75*
G02*
X141991501Y-119535500I-249999J0D01*
G01*
X141091499Y-119535500D01*
G75*
G02*
X140841500Y-119285501I0J249999D01*
G01*
X140841500Y-118585499D01*
G75*
G02*
X141091499Y-118335500I249999J0D01*
G01*
G37*
G04 #@! TD.AperFunction*
G04 #@! TA.AperFunction,SMDPad,CuDef*
G36*
G01*
X141091499Y-116335500D02*
X141991501Y-116335500D01*
G75*
G02*
X142241500Y-116585499I0J-249999D01*
G01*
X142241500Y-117285501D01*
G75*
G02*
X141991501Y-117535500I-249999J0D01*
G01*
X141091499Y-117535500D01*
G75*
G02*
X140841500Y-117285501I0J249999D01*
G01*
X140841500Y-116585499D01*
G75*
G02*
X141091499Y-116335500I249999J0D01*
G01*
G37*
G04 #@! TD.AperFunction*
X159365700Y-129512100D03*
X157365700Y-130462100D03*
X157365700Y-128562100D03*
X164052500Y-113731000D03*
X166052500Y-112781000D03*
X166052500Y-114681000D03*
D12*
X154607300Y-124885700D03*
X155557300Y-126885700D03*
X153657300Y-126885700D03*
D14*
X130810000Y-121920000D03*
X135810000Y-121920000D03*
D15*
X146050000Y-112077500D03*
X167830500Y-110871000D03*
X167830500Y-106235500D03*
X144526000Y-107886500D03*
X154749500Y-109982000D03*
X154749500Y-106235500D03*
X156521400Y-130562100D03*
X155702000Y-118237000D03*
X167640000Y-137350500D03*
X166497000Y-128397000D03*
X146653500Y-129889000D03*
X156527500Y-137350500D03*
X145415000Y-123380500D03*
X145415000Y-120967500D03*
X153670000Y-125920500D03*
X167576500Y-127063500D03*
X160528000Y-125920500D03*
X165163500Y-113728500D03*
X165862000Y-117284500D03*
X161226500Y-115379500D03*
X146748500Y-121920000D03*
X150558500Y-121920000D03*
X168529000Y-114617500D03*
X168529000Y-124269500D03*
X168529000Y-119888000D03*
X166624000Y-119888000D03*
X159131000Y-119888000D03*
X153860500Y-118808500D03*
X153860500Y-115379500D03*
X172783500Y-119888000D03*
X170116500Y-117284500D03*
X146367500Y-124206000D03*
X141541500Y-124206000D03*
X167649999Y-115242501D03*
X150114000Y-113030000D03*
D16*
X146052500Y-112080000D02*
X146050000Y-112077500D01*
X147161000Y-112080000D02*
X146052500Y-112080000D01*
X168973500Y-110871000D02*
X167830500Y-110871000D01*
X167830500Y-110871000D02*
X166655500Y-110871000D01*
D17*
X167830500Y-106235500D02*
X170116500Y-106235500D01*
X167830500Y-106235500D02*
X166497000Y-106235500D01*
D16*
X141700500Y-109220000D02*
X141668500Y-109252000D01*
D17*
X144526000Y-109220000D02*
X144526000Y-107886500D01*
D16*
X144494000Y-109252000D02*
X144526000Y-109220000D01*
X141668500Y-109252000D02*
X144494000Y-109252000D01*
X154754500Y-111003000D02*
X154749500Y-110998000D01*
X154754500Y-112759500D02*
X154754500Y-111003000D01*
X154749500Y-110998000D02*
X154749500Y-109982000D01*
D17*
X154749500Y-106235500D02*
X153581500Y-106235500D01*
D16*
X135810000Y-121920000D02*
X138430000Y-121920000D01*
X138430000Y-121920000D02*
X141541500Y-121920000D01*
X157265700Y-130562100D02*
X157365700Y-130462100D01*
X156521400Y-130562100D02*
X157265700Y-130562100D01*
X155702000Y-118237000D02*
X155702000Y-117094000D01*
X155702000Y-115382000D02*
X155704500Y-115379500D01*
X155702000Y-117094000D02*
X155702000Y-115382000D01*
D17*
X167640000Y-137350500D02*
X166433500Y-137350500D01*
X167640000Y-137350500D02*
X169989500Y-137350500D01*
D16*
X166529000Y-128365000D02*
X166497000Y-128397000D01*
X166529000Y-126108500D02*
X166529000Y-128365000D01*
X156521400Y-130562100D02*
X155536900Y-130562100D01*
X148972912Y-127571500D02*
X149161500Y-127571500D01*
X146655412Y-129889000D02*
X148972912Y-127571500D01*
X143573500Y-129889000D02*
X146653500Y-129889000D01*
X146685000Y-129918588D02*
X146655412Y-129889000D01*
X146685000Y-131127500D02*
X146685000Y-129918588D01*
X146653500Y-129889000D02*
X146655412Y-129889000D01*
D17*
X155232500Y-137350500D02*
X156527500Y-137350500D01*
D16*
X145417500Y-123383000D02*
X145415000Y-123380500D01*
X145417500Y-125603000D02*
X145417500Y-123383000D01*
X143819000Y-120967500D02*
X143816500Y-120970000D01*
X145415000Y-120967500D02*
X143819000Y-120967500D01*
X153657300Y-125933200D02*
X153670000Y-125920500D01*
X153657300Y-126885700D02*
X153657300Y-125933200D01*
X153670000Y-125920500D02*
X157289500Y-125920500D01*
X159365700Y-125921700D02*
X159364500Y-125920500D01*
X159365700Y-129512100D02*
X159365700Y-125921700D01*
X167581500Y-127058500D02*
X167576500Y-127063500D01*
X168529000Y-127058500D02*
X167581500Y-127058500D01*
X160528000Y-125920500D02*
X159364500Y-125920500D01*
X164055000Y-113728500D02*
X164052500Y-113731000D01*
X165163500Y-113728500D02*
X164055000Y-113728500D01*
X167021000Y-117284500D02*
X165862000Y-117284500D01*
X156654500Y-115379500D02*
X159321500Y-115379500D01*
X161226500Y-115379500D02*
X159321500Y-115379500D01*
X145406500Y-127889000D02*
X145417500Y-127878000D01*
X143573500Y-127889000D02*
X145406500Y-127889000D01*
X143795500Y-116935500D02*
X143827500Y-116903500D01*
X142621000Y-114998500D02*
X142621000Y-116840000D01*
X142621000Y-116840000D02*
X142525500Y-116935500D01*
X142525500Y-116935500D02*
X143795500Y-116935500D01*
X141541500Y-116935500D02*
X142525500Y-116935500D01*
X146954501Y-113773501D02*
X147161000Y-113980000D01*
X142446001Y-113773501D02*
X146954501Y-113773501D01*
X141671000Y-112998500D02*
X142446001Y-113773501D01*
X141671000Y-111254500D02*
X141668500Y-111252000D01*
X141671000Y-112998500D02*
X141671000Y-111254500D01*
X155536900Y-126906100D02*
X155557300Y-126885700D01*
X155536900Y-128562100D02*
X155536900Y-126906100D01*
X155536900Y-128562100D02*
X157365700Y-128562100D01*
X164655500Y-111384000D02*
X166052500Y-112781000D01*
X164655500Y-110871000D02*
X164655500Y-111384000D01*
X170973500Y-112334000D02*
X170529000Y-112778500D01*
X170973500Y-110871000D02*
X170973500Y-112334000D01*
X158308000Y-121981000D02*
X158356300Y-121932700D01*
X143816500Y-121920000D02*
X146748500Y-121920000D01*
X155905200Y-121932700D02*
X155892500Y-121920000D01*
X157924500Y-121932700D02*
X155905200Y-121932700D01*
X155892500Y-121920000D02*
X153860500Y-121920000D01*
X153860500Y-121920000D02*
X151828500Y-121920000D01*
X151828500Y-121920000D02*
X150558500Y-121920000D01*
X168529000Y-113728500D02*
X168529000Y-114617500D01*
X168529000Y-124269500D02*
X168529000Y-125158500D01*
X169672000Y-119888000D02*
X168529000Y-119888000D01*
X157862200Y-119920000D02*
X157924500Y-119857700D01*
X155892500Y-119920000D02*
X157862200Y-119920000D01*
X168529000Y-119888000D02*
X166624000Y-119888000D01*
X157954800Y-119888000D02*
X157924500Y-119857700D01*
X159131000Y-119888000D02*
X157954800Y-119888000D01*
X156654500Y-112759500D02*
X156654500Y-110934500D01*
X155719499Y-113694501D02*
X156654500Y-112759500D01*
X153018001Y-113694501D02*
X155719499Y-113694501D01*
X152082500Y-112759000D02*
X153018001Y-113694501D01*
X152777500Y-115379500D02*
X152273000Y-115884000D01*
X152717500Y-116328500D02*
X152273000Y-115884000D01*
X153860500Y-119920000D02*
X153860500Y-118808500D01*
X154754500Y-115379500D02*
X153860500Y-115379500D01*
X152587000Y-115379500D02*
X152082500Y-115884000D01*
X153860500Y-115379500D02*
X152587000Y-115379500D01*
X171672000Y-119888000D02*
X172783500Y-119888000D01*
X170116500Y-117284500D02*
X169021000Y-117284500D01*
X143859000Y-118872000D02*
X143827500Y-118903500D01*
X142778990Y-119952010D02*
X143827500Y-118903500D01*
X142778990Y-122544990D02*
X142778990Y-119952010D01*
X143104000Y-122870000D02*
X142778990Y-122544990D01*
X143816500Y-122870000D02*
X143104000Y-122870000D01*
X146367500Y-125603000D02*
X146367500Y-127878000D01*
X146367500Y-127878000D02*
X147317500Y-127878000D01*
X146367500Y-125603000D02*
X146367500Y-124206000D01*
X141541500Y-124206000D02*
X141541500Y-122870000D01*
X141541500Y-120970000D02*
X141541500Y-118935500D01*
X149130000Y-125603000D02*
X149161500Y-125571500D01*
X147317500Y-125603000D02*
X149130000Y-125603000D01*
X145129500Y-112998500D02*
X145161000Y-113030000D01*
X143571000Y-112998500D02*
X145129500Y-112998500D01*
X166614001Y-115242501D02*
X167649999Y-115242501D01*
X169964999Y-115242501D02*
X170529000Y-114678500D01*
X166052500Y-114681000D02*
X166614001Y-115242501D01*
X167649999Y-115242501D02*
X169964999Y-115242501D01*
X145161000Y-113030000D02*
X148907500Y-113030000D01*
X148907500Y-113030000D02*
X150114000Y-113030000D01*
D18*
X203175000Y-147295000D02*
X122580000Y-147295000D01*
X122580000Y-143289872D01*
X123749000Y-143289872D01*
X123749000Y-143730128D01*
X123834890Y-144161925D01*
X124003369Y-144568669D01*
X124247962Y-144934729D01*
X124559271Y-145246038D01*
X124925331Y-145490631D01*
X125332075Y-145659110D01*
X125763872Y-145745000D01*
X126204128Y-145745000D01*
X126635925Y-145659110D01*
X127042669Y-145490631D01*
X127408729Y-145246038D01*
X127720038Y-144934729D01*
X127964631Y-144568669D01*
X128133110Y-144161925D01*
X128219000Y-143730128D01*
X128219000Y-143289872D01*
X197409000Y-143289872D01*
X197409000Y-143730128D01*
X197494890Y-144161925D01*
X197663369Y-144568669D01*
X197907962Y-144934729D01*
X198219271Y-145246038D01*
X198585331Y-145490631D01*
X198992075Y-145659110D01*
X199423872Y-145745000D01*
X199864128Y-145745000D01*
X200295925Y-145659110D01*
X200702669Y-145490631D01*
X201068729Y-145246038D01*
X201380038Y-144934729D01*
X201624631Y-144568669D01*
X201793110Y-144161925D01*
X201879000Y-143730128D01*
X201879000Y-143289872D01*
X201793110Y-142858075D01*
X201624631Y-142451331D01*
X201380038Y-142085271D01*
X201068729Y-141773962D01*
X200702669Y-141529369D01*
X200295925Y-141360890D01*
X199864128Y-141275000D01*
X199423872Y-141275000D01*
X198992075Y-141360890D01*
X198585331Y-141529369D01*
X198219271Y-141773962D01*
X197907962Y-142085271D01*
X197663369Y-142451331D01*
X197494890Y-142858075D01*
X197409000Y-143289872D01*
X128219000Y-143289872D01*
X128133110Y-142858075D01*
X127964631Y-142451331D01*
X127720038Y-142085271D01*
X127408729Y-141773962D01*
X127042669Y-141529369D01*
X126635925Y-141360890D01*
X126204128Y-141275000D01*
X125763872Y-141275000D01*
X125332075Y-141360890D01*
X124925331Y-141529369D01*
X124559271Y-141773962D01*
X124247962Y-142085271D01*
X124003369Y-142451331D01*
X123834890Y-142858075D01*
X123749000Y-143289872D01*
X122580000Y-143289872D01*
X122580000Y-138700500D01*
X150806928Y-138700500D01*
X150819188Y-138824982D01*
X150855498Y-138944680D01*
X150914463Y-139054994D01*
X150993815Y-139151685D01*
X151090506Y-139231037D01*
X151200820Y-139290002D01*
X151320518Y-139326312D01*
X151445000Y-139338572D01*
X151821750Y-139335500D01*
X151980500Y-139176750D01*
X151980500Y-137477500D01*
X152234500Y-137477500D01*
X152234500Y-139176750D01*
X152393250Y-139335500D01*
X152770000Y-139338572D01*
X152894482Y-139326312D01*
X153014180Y-139290002D01*
X153124494Y-139231037D01*
X153221185Y-139151685D01*
X153300537Y-139054994D01*
X153359502Y-138944680D01*
X153395812Y-138824982D01*
X153408072Y-138700500D01*
X153405000Y-137636250D01*
X153246250Y-137477500D01*
X152234500Y-137477500D01*
X151980500Y-137477500D01*
X150968750Y-137477500D01*
X150810000Y-137636250D01*
X150806928Y-138700500D01*
X122580000Y-138700500D01*
X122580000Y-136000500D01*
X150806928Y-136000500D01*
X150810000Y-137064750D01*
X150968750Y-137223500D01*
X151980500Y-137223500D01*
X151980500Y-135524250D01*
X152234500Y-135524250D01*
X152234500Y-137223500D01*
X153246250Y-137223500D01*
X153405000Y-137064750D01*
X153407350Y-136250499D01*
X153931928Y-136250499D01*
X153931928Y-138450501D01*
X153948992Y-138623755D01*
X153999528Y-138790351D01*
X154081595Y-138943887D01*
X154192038Y-139078462D01*
X154326613Y-139188905D01*
X154480149Y-139270972D01*
X154646745Y-139321508D01*
X154819999Y-139338572D01*
X155645001Y-139338572D01*
X155818255Y-139321508D01*
X155984851Y-139270972D01*
X156138387Y-139188905D01*
X156272962Y-139078462D01*
X156383405Y-138943887D01*
X156465472Y-138790351D01*
X156492727Y-138700500D01*
X162007928Y-138700500D01*
X162020188Y-138824982D01*
X162056498Y-138944680D01*
X162115463Y-139054994D01*
X162194815Y-139151685D01*
X162291506Y-139231037D01*
X162401820Y-139290002D01*
X162521518Y-139326312D01*
X162646000Y-139338572D01*
X163022750Y-139335500D01*
X163181500Y-139176750D01*
X163181500Y-137477500D01*
X163435500Y-137477500D01*
X163435500Y-139176750D01*
X163594250Y-139335500D01*
X163971000Y-139338572D01*
X164095482Y-139326312D01*
X164215180Y-139290002D01*
X164325494Y-139231037D01*
X164422185Y-139151685D01*
X164501537Y-139054994D01*
X164560502Y-138944680D01*
X164596812Y-138824982D01*
X164609072Y-138700500D01*
X164606000Y-137636250D01*
X164447250Y-137477500D01*
X163435500Y-137477500D01*
X163181500Y-137477500D01*
X162169750Y-137477500D01*
X162011000Y-137636250D01*
X162007928Y-138700500D01*
X156492727Y-138700500D01*
X156516008Y-138623755D01*
X156533072Y-138450501D01*
X156533072Y-138285500D01*
X156619589Y-138285500D01*
X156800229Y-138249568D01*
X156970389Y-138179086D01*
X157123528Y-138076762D01*
X157253762Y-137946528D01*
X157356086Y-137793389D01*
X157426568Y-137623229D01*
X157462500Y-137442589D01*
X157462500Y-137258411D01*
X157426568Y-137077771D01*
X157356086Y-136907611D01*
X157253762Y-136754472D01*
X157123528Y-136624238D01*
X156970389Y-136521914D01*
X156800229Y-136451432D01*
X156619589Y-136415500D01*
X156533072Y-136415500D01*
X156533072Y-136250499D01*
X156516008Y-136077245D01*
X156492728Y-136000500D01*
X162007928Y-136000500D01*
X162011000Y-137064750D01*
X162169750Y-137223500D01*
X163181500Y-137223500D01*
X163181500Y-135524250D01*
X163435500Y-135524250D01*
X163435500Y-137223500D01*
X164447250Y-137223500D01*
X164606000Y-137064750D01*
X164608350Y-136250499D01*
X165132928Y-136250499D01*
X165132928Y-138450501D01*
X165149992Y-138623755D01*
X165200528Y-138790351D01*
X165282595Y-138943887D01*
X165393038Y-139078462D01*
X165527613Y-139188905D01*
X165681149Y-139270972D01*
X165847745Y-139321508D01*
X166020999Y-139338572D01*
X166846001Y-139338572D01*
X167019255Y-139321508D01*
X167185851Y-139270972D01*
X167339387Y-139188905D01*
X167473962Y-139078462D01*
X167584405Y-138943887D01*
X167666472Y-138790351D01*
X167717008Y-138623755D01*
X167734072Y-138450501D01*
X167734072Y-138362038D01*
X167751095Y-138393886D01*
X167861538Y-138528462D01*
X167996114Y-138638905D01*
X168149650Y-138720972D01*
X168316246Y-138771508D01*
X168489500Y-138788572D01*
X171489500Y-138788572D01*
X171662754Y-138771508D01*
X171829350Y-138720972D01*
X171982886Y-138638905D01*
X172117462Y-138528462D01*
X172227905Y-138393886D01*
X172309972Y-138240350D01*
X172337227Y-138150500D01*
X173001428Y-138150500D01*
X173013688Y-138274982D01*
X173049998Y-138394680D01*
X173108963Y-138504994D01*
X173188315Y-138601685D01*
X173285006Y-138681037D01*
X173395320Y-138740002D01*
X173515018Y-138776312D01*
X173639500Y-138788572D01*
X175103750Y-138785500D01*
X175262500Y-138626750D01*
X175262500Y-137477500D01*
X175516500Y-137477500D01*
X175516500Y-138626750D01*
X175675250Y-138785500D01*
X177139500Y-138788572D01*
X177263982Y-138776312D01*
X177383680Y-138740002D01*
X177493994Y-138681037D01*
X177590685Y-138601685D01*
X177670037Y-138504994D01*
X177729002Y-138394680D01*
X177765312Y-138274982D01*
X177777572Y-138150500D01*
X177774500Y-137636250D01*
X177615750Y-137477500D01*
X175516500Y-137477500D01*
X175262500Y-137477500D01*
X173163250Y-137477500D01*
X173004500Y-137636250D01*
X173001428Y-138150500D01*
X172337227Y-138150500D01*
X172360508Y-138073754D01*
X172377572Y-137900500D01*
X172377572Y-136800500D01*
X172360508Y-136627246D01*
X172337228Y-136550500D01*
X173001428Y-136550500D01*
X173004500Y-137064750D01*
X173163250Y-137223500D01*
X175262500Y-137223500D01*
X175262500Y-136074250D01*
X175516500Y-136074250D01*
X175516500Y-137223500D01*
X177615750Y-137223500D01*
X177774500Y-137064750D01*
X177777572Y-136550500D01*
X177765312Y-136426018D01*
X177729002Y-136306320D01*
X177670037Y-136196006D01*
X177590685Y-136099315D01*
X177493994Y-136019963D01*
X177383680Y-135960998D01*
X177263982Y-135924688D01*
X177139500Y-135912428D01*
X175675250Y-135915500D01*
X175516500Y-136074250D01*
X175262500Y-136074250D01*
X175103750Y-135915500D01*
X173639500Y-135912428D01*
X173515018Y-135924688D01*
X173395320Y-135960998D01*
X173285006Y-136019963D01*
X173188315Y-136099315D01*
X173108963Y-136196006D01*
X173049998Y-136306320D01*
X173013688Y-136426018D01*
X173001428Y-136550500D01*
X172337228Y-136550500D01*
X172309972Y-136460650D01*
X172227905Y-136307114D01*
X172117462Y-136172538D01*
X171982886Y-136062095D01*
X171829350Y-135980028D01*
X171662754Y-135929492D01*
X171489500Y-135912428D01*
X168489500Y-135912428D01*
X168316246Y-135929492D01*
X168149650Y-135980028D01*
X167996114Y-136062095D01*
X167861538Y-136172538D01*
X167751095Y-136307114D01*
X167734072Y-136338962D01*
X167734072Y-136250499D01*
X167717008Y-136077245D01*
X167666472Y-135910649D01*
X167584405Y-135757113D01*
X167473962Y-135622538D01*
X167339387Y-135512095D01*
X167185851Y-135430028D01*
X167019255Y-135379492D01*
X166846001Y-135362428D01*
X166020999Y-135362428D01*
X165847745Y-135379492D01*
X165681149Y-135430028D01*
X165527613Y-135512095D01*
X165393038Y-135622538D01*
X165282595Y-135757113D01*
X165200528Y-135910649D01*
X165149992Y-136077245D01*
X165132928Y-136250499D01*
X164608350Y-136250499D01*
X164609072Y-136000500D01*
X164596812Y-135876018D01*
X164560502Y-135756320D01*
X164501537Y-135646006D01*
X164422185Y-135549315D01*
X164325494Y-135469963D01*
X164215180Y-135410998D01*
X164095482Y-135374688D01*
X163971000Y-135362428D01*
X163594250Y-135365500D01*
X163435500Y-135524250D01*
X163181500Y-135524250D01*
X163022750Y-135365500D01*
X162646000Y-135362428D01*
X162521518Y-135374688D01*
X162401820Y-135410998D01*
X162291506Y-135469963D01*
X162194815Y-135549315D01*
X162115463Y-135646006D01*
X162056498Y-135756320D01*
X162020188Y-135876018D01*
X162007928Y-136000500D01*
X156492728Y-136000500D01*
X156465472Y-135910649D01*
X156383405Y-135757113D01*
X156272962Y-135622538D01*
X156138387Y-135512095D01*
X155984851Y-135430028D01*
X155818255Y-135379492D01*
X155645001Y-135362428D01*
X154819999Y-135362428D01*
X154646745Y-135379492D01*
X154480149Y-135430028D01*
X154326613Y-135512095D01*
X154192038Y-135622538D01*
X154081595Y-135757113D01*
X153999528Y-135910649D01*
X153948992Y-136077245D01*
X153931928Y-136250499D01*
X153407350Y-136250499D01*
X153408072Y-136000500D01*
X153395812Y-135876018D01*
X153359502Y-135756320D01*
X153300537Y-135646006D01*
X153221185Y-135549315D01*
X153124494Y-135469963D01*
X153014180Y-135410998D01*
X152894482Y-135374688D01*
X152770000Y-135362428D01*
X152393250Y-135365500D01*
X152234500Y-135524250D01*
X151980500Y-135524250D01*
X151821750Y-135365500D01*
X151445000Y-135362428D01*
X151320518Y-135374688D01*
X151200820Y-135410998D01*
X151090506Y-135469963D01*
X150993815Y-135549315D01*
X150914463Y-135646006D01*
X150855498Y-135756320D01*
X150819188Y-135876018D01*
X150806928Y-136000500D01*
X122580000Y-136000500D01*
X122580000Y-134915000D01*
X144696928Y-134915000D01*
X144709188Y-135039482D01*
X144745498Y-135159180D01*
X144804463Y-135269494D01*
X144883815Y-135366185D01*
X144980506Y-135445537D01*
X145090820Y-135504502D01*
X145210518Y-135540812D01*
X145335000Y-135553072D01*
X146399250Y-135550000D01*
X146558000Y-135391250D01*
X146558000Y-134379500D01*
X146812000Y-134379500D01*
X146812000Y-135391250D01*
X146970750Y-135550000D01*
X148035000Y-135553072D01*
X148159482Y-135540812D01*
X148279180Y-135504502D01*
X148389494Y-135445537D01*
X148486185Y-135366185D01*
X148565537Y-135269494D01*
X148624502Y-135159180D01*
X148660812Y-135039482D01*
X148673072Y-134915000D01*
X148670000Y-134538250D01*
X148511250Y-134379500D01*
X146812000Y-134379500D01*
X146558000Y-134379500D01*
X144858750Y-134379500D01*
X144700000Y-134538250D01*
X144696928Y-134915000D01*
X122580000Y-134915000D01*
X122580000Y-133590000D01*
X144696928Y-133590000D01*
X144700000Y-133966750D01*
X144858750Y-134125500D01*
X146558000Y-134125500D01*
X146558000Y-133113750D01*
X146812000Y-133113750D01*
X146812000Y-134125500D01*
X148511250Y-134125500D01*
X148670000Y-133966750D01*
X148673072Y-133590000D01*
X148660812Y-133465518D01*
X148624502Y-133345820D01*
X148565537Y-133235506D01*
X148486185Y-133138815D01*
X148389494Y-133059463D01*
X148279180Y-133000498D01*
X148159482Y-132964188D01*
X148035000Y-132951928D01*
X146970750Y-132955000D01*
X146812000Y-133113750D01*
X146558000Y-133113750D01*
X146399250Y-132955000D01*
X145335000Y-132951928D01*
X145210518Y-132964188D01*
X145090820Y-133000498D01*
X144980506Y-133059463D01*
X144883815Y-133138815D01*
X144804463Y-133235506D01*
X144745498Y-133345820D01*
X144709188Y-133465518D01*
X144696928Y-133590000D01*
X122580000Y-133590000D01*
X122580000Y-128071913D01*
X125409192Y-128071913D01*
X125504956Y-128336314D01*
X125794571Y-128477204D01*
X126106108Y-128558884D01*
X126427595Y-128578218D01*
X126746675Y-128534461D01*
X127051088Y-128429295D01*
X127225044Y-128336314D01*
X127320808Y-128071913D01*
X126365000Y-127116105D01*
X125409192Y-128071913D01*
X122580000Y-128071913D01*
X122580000Y-126999095D01*
X124723282Y-126999095D01*
X124767039Y-127318175D01*
X124872205Y-127622588D01*
X124965186Y-127796544D01*
X125229587Y-127892308D01*
X126185395Y-126936500D01*
X126544605Y-126936500D01*
X127500413Y-127892308D01*
X127764814Y-127796544D01*
X127905704Y-127506929D01*
X127987384Y-127195392D01*
X128006718Y-126873905D01*
X127962961Y-126554825D01*
X127857795Y-126250412D01*
X127764814Y-126076456D01*
X127500413Y-125980692D01*
X126544605Y-126936500D01*
X126185395Y-126936500D01*
X125229587Y-125980692D01*
X124965186Y-126076456D01*
X124824296Y-126366071D01*
X124742616Y-126677608D01*
X124723282Y-126999095D01*
X122580000Y-126999095D01*
X122580000Y-125801087D01*
X125409192Y-125801087D01*
X126365000Y-126756895D01*
X127320808Y-125801087D01*
X127225044Y-125536686D01*
X126935429Y-125395796D01*
X126623892Y-125314116D01*
X126302405Y-125294782D01*
X125983325Y-125338539D01*
X125678912Y-125443705D01*
X125504956Y-125536686D01*
X125409192Y-125801087D01*
X122580000Y-125801087D01*
X122580000Y-124520000D01*
X137091928Y-124520000D01*
X137104188Y-124644482D01*
X137140498Y-124764180D01*
X137199463Y-124874494D01*
X137278815Y-124971185D01*
X137375506Y-125050537D01*
X137485820Y-125109502D01*
X137605518Y-125145812D01*
X137730000Y-125158072D01*
X138144250Y-125155000D01*
X138303000Y-124996250D01*
X138303000Y-124047000D01*
X138557000Y-124047000D01*
X138557000Y-124996250D01*
X138715750Y-125155000D01*
X139130000Y-125158072D01*
X139254482Y-125145812D01*
X139374180Y-125109502D01*
X139484494Y-125050537D01*
X139581185Y-124971185D01*
X139660537Y-124874494D01*
X139719502Y-124764180D01*
X139755812Y-124644482D01*
X139768072Y-124520000D01*
X139765000Y-124205750D01*
X139606250Y-124047000D01*
X138557000Y-124047000D01*
X138303000Y-124047000D01*
X137253750Y-124047000D01*
X137095000Y-124205750D01*
X137091928Y-124520000D01*
X122580000Y-124520000D01*
X122580000Y-121758967D01*
X124666500Y-121758967D01*
X124666500Y-122081033D01*
X124729332Y-122396912D01*
X124852582Y-122694463D01*
X125031513Y-122962252D01*
X125259248Y-123189987D01*
X125527037Y-123368918D01*
X125824588Y-123492168D01*
X126140467Y-123555000D01*
X126462533Y-123555000D01*
X126778412Y-123492168D01*
X127075963Y-123368918D01*
X127343752Y-123189987D01*
X127571487Y-122962252D01*
X127750418Y-122694463D01*
X127873668Y-122396912D01*
X127936500Y-122081033D01*
X127936500Y-121778665D01*
X129375000Y-121778665D01*
X129375000Y-122061335D01*
X129430147Y-122338574D01*
X129538320Y-122599727D01*
X129695363Y-122834759D01*
X129895241Y-123034637D01*
X130130273Y-123191680D01*
X130391426Y-123299853D01*
X130668665Y-123355000D01*
X130951335Y-123355000D01*
X131228574Y-123299853D01*
X131489727Y-123191680D01*
X131724759Y-123034637D01*
X131924637Y-122834759D01*
X132081680Y-122599727D01*
X132189853Y-122338574D01*
X132245000Y-122061335D01*
X132245000Y-121778665D01*
X134375000Y-121778665D01*
X134375000Y-122061335D01*
X134430147Y-122338574D01*
X134538320Y-122599727D01*
X134695363Y-122834759D01*
X134895241Y-123034637D01*
X135130273Y-123191680D01*
X135391426Y-123299853D01*
X135668665Y-123355000D01*
X135951335Y-123355000D01*
X136228574Y-123299853D01*
X136489727Y-123191680D01*
X136724759Y-123034637D01*
X136924637Y-122834759D01*
X137028043Y-122680000D01*
X137197024Y-122680000D01*
X137241595Y-122763387D01*
X137308276Y-122844637D01*
X137278815Y-122868815D01*
X137199463Y-122965506D01*
X137140498Y-123075820D01*
X137104188Y-123195518D01*
X137091928Y-123320000D01*
X137095000Y-123634250D01*
X137253750Y-123793000D01*
X138303000Y-123793000D01*
X138303000Y-123773000D01*
X138557000Y-123773000D01*
X138557000Y-123793000D01*
X139606250Y-123793000D01*
X139765000Y-123634250D01*
X139768072Y-123320000D01*
X139755812Y-123195518D01*
X139719502Y-123075820D01*
X139660537Y-122965506D01*
X139581185Y-122868815D01*
X139551724Y-122844637D01*
X139618405Y-122763387D01*
X139662976Y-122680000D01*
X140197330Y-122680000D01*
X140190928Y-122745000D01*
X140190928Y-122995000D01*
X140205590Y-123143868D01*
X140249013Y-123287015D01*
X140319529Y-123418940D01*
X140414427Y-123534573D01*
X140530060Y-123629471D01*
X140661985Y-123699987D01*
X140739401Y-123723471D01*
X140712914Y-123763111D01*
X140642432Y-123933271D01*
X140606500Y-124113911D01*
X140606500Y-124298089D01*
X140642432Y-124478729D01*
X140712914Y-124648889D01*
X140815238Y-124802028D01*
X140945472Y-124932262D01*
X141098611Y-125034586D01*
X141268771Y-125105068D01*
X141449411Y-125141000D01*
X141633589Y-125141000D01*
X141814229Y-125105068D01*
X141984389Y-125034586D01*
X142137528Y-124932262D01*
X142267762Y-124802028D01*
X142370086Y-124648889D01*
X142440568Y-124478729D01*
X142476500Y-124298089D01*
X142476500Y-124113911D01*
X142440568Y-123933271D01*
X142370086Y-123763111D01*
X142343599Y-123723471D01*
X142421015Y-123699987D01*
X142552940Y-123629471D01*
X142668573Y-123534573D01*
X142679000Y-123521868D01*
X142689427Y-123534573D01*
X142805060Y-123629471D01*
X142936985Y-123699987D01*
X143080132Y-123743410D01*
X143229000Y-123758072D01*
X144404000Y-123758072D01*
X144552868Y-123743410D01*
X144553239Y-123743297D01*
X144586414Y-123823389D01*
X144657501Y-123929778D01*
X144657500Y-124592549D01*
X144587513Y-124723485D01*
X144544090Y-124866632D01*
X144529428Y-125015500D01*
X144529428Y-126190500D01*
X144544090Y-126339368D01*
X144587513Y-126482515D01*
X144658029Y-126614440D01*
X144752927Y-126730073D01*
X144765632Y-126740500D01*
X144752927Y-126750927D01*
X144658029Y-126866560D01*
X144639501Y-126901222D01*
X144516887Y-126800595D01*
X144363351Y-126718528D01*
X144196755Y-126667992D01*
X144023501Y-126650928D01*
X143123499Y-126650928D01*
X142950245Y-126667992D01*
X142783649Y-126718528D01*
X142630113Y-126800595D01*
X142495538Y-126911038D01*
X142385095Y-127045613D01*
X142303028Y-127199149D01*
X142252492Y-127365745D01*
X142235428Y-127538999D01*
X142235428Y-128239001D01*
X142252492Y-128412255D01*
X142303028Y-128578851D01*
X142385095Y-128732387D01*
X142495538Y-128866962D01*
X142522391Y-128889000D01*
X142495538Y-128911038D01*
X142385095Y-129045613D01*
X142303028Y-129199149D01*
X142252492Y-129365745D01*
X142235428Y-129538999D01*
X142235428Y-130239001D01*
X142252492Y-130412255D01*
X142303028Y-130578851D01*
X142385095Y-130732387D01*
X142495538Y-130866962D01*
X142630113Y-130977405D01*
X142783649Y-131059472D01*
X142950245Y-131110008D01*
X143123499Y-131127072D01*
X144023501Y-131127072D01*
X144196755Y-131110008D01*
X144363351Y-131059472D01*
X144516887Y-130977405D01*
X144651462Y-130866962D01*
X144696928Y-130811562D01*
X144696928Y-131540001D01*
X144713992Y-131713255D01*
X144764528Y-131879851D01*
X144846595Y-132033387D01*
X144957038Y-132167962D01*
X145091613Y-132278405D01*
X145245149Y-132360472D01*
X145411745Y-132411008D01*
X145584999Y-132428072D01*
X147785001Y-132428072D01*
X147958255Y-132411008D01*
X148124851Y-132360472D01*
X148278387Y-132278405D01*
X148412962Y-132167962D01*
X148523405Y-132033387D01*
X148605472Y-131879851D01*
X148656008Y-131713255D01*
X148673072Y-131540001D01*
X148673072Y-130714999D01*
X148656008Y-130541745D01*
X148605472Y-130375149D01*
X148523405Y-130221613D01*
X148412962Y-130087038D01*
X148278387Y-129976595D01*
X148124851Y-129894528D01*
X147958255Y-129843992D01*
X147791632Y-129827581D01*
X148809642Y-128809572D01*
X149611501Y-128809572D01*
X149784755Y-128792508D01*
X149951351Y-128741972D01*
X150104887Y-128659905D01*
X150239462Y-128549462D01*
X150349905Y-128414887D01*
X150431972Y-128261351D01*
X150482508Y-128094755D01*
X150499572Y-127921501D01*
X150499572Y-127221499D01*
X150482508Y-127048245D01*
X150431972Y-126881649D01*
X150349905Y-126728113D01*
X150239462Y-126593538D01*
X150212609Y-126571500D01*
X150239462Y-126549462D01*
X150332824Y-126435700D01*
X152619228Y-126435700D01*
X152619228Y-127335700D01*
X152631488Y-127460182D01*
X152667798Y-127579880D01*
X152726763Y-127690194D01*
X152806115Y-127786885D01*
X152902806Y-127866237D01*
X153013120Y-127925202D01*
X153132818Y-127961512D01*
X153257300Y-127973772D01*
X154057300Y-127973772D01*
X154181782Y-127961512D01*
X154245185Y-127942279D01*
X154215892Y-128038845D01*
X154198828Y-128212099D01*
X154198828Y-128912101D01*
X154215892Y-129085355D01*
X154266428Y-129251951D01*
X154348495Y-129405487D01*
X154458938Y-129540062D01*
X154485791Y-129562100D01*
X154458938Y-129584138D01*
X154348495Y-129718713D01*
X154266428Y-129872249D01*
X154215892Y-130038845D01*
X154198828Y-130212099D01*
X154198828Y-130912101D01*
X154215892Y-131085355D01*
X154266428Y-131251951D01*
X154348495Y-131405487D01*
X154458938Y-131540062D01*
X154593513Y-131650505D01*
X154747049Y-131732572D01*
X154913645Y-131783108D01*
X155086899Y-131800172D01*
X155986901Y-131800172D01*
X156160155Y-131783108D01*
X156326751Y-131732572D01*
X156480287Y-131650505D01*
X156614862Y-131540062D01*
X156657267Y-131488392D01*
X156739124Y-131472109D01*
X156791218Y-131487912D01*
X156915700Y-131500172D01*
X157815700Y-131500172D01*
X157940182Y-131487912D01*
X158059880Y-131451602D01*
X158170194Y-131392637D01*
X158266885Y-131313285D01*
X158346237Y-131216594D01*
X158405202Y-131106280D01*
X158441512Y-130986582D01*
X158453772Y-130862100D01*
X158453772Y-130350195D01*
X158464515Y-130363285D01*
X158561206Y-130442637D01*
X158671520Y-130501602D01*
X158791218Y-130537912D01*
X158915700Y-130550172D01*
X159815700Y-130550172D01*
X159940182Y-130537912D01*
X160059880Y-130501602D01*
X160140578Y-130458467D01*
X194453000Y-130458467D01*
X194453000Y-130780533D01*
X194515832Y-131096412D01*
X194639082Y-131393963D01*
X194818013Y-131661752D01*
X195045748Y-131889487D01*
X195313537Y-132068418D01*
X195611088Y-132191668D01*
X195926967Y-132254500D01*
X196249033Y-132254500D01*
X196564912Y-132191668D01*
X196862463Y-132068418D01*
X197130252Y-131889487D01*
X197357987Y-131661752D01*
X197536918Y-131393963D01*
X197660168Y-131096412D01*
X197723000Y-130780533D01*
X197723000Y-130458467D01*
X197660168Y-130142588D01*
X197536918Y-129845037D01*
X197357987Y-129577248D01*
X197130252Y-129349513D01*
X196862463Y-129170582D01*
X196564912Y-129047332D01*
X196249033Y-128984500D01*
X195926967Y-128984500D01*
X195611088Y-129047332D01*
X195313537Y-129170582D01*
X195045748Y-129349513D01*
X194818013Y-129577248D01*
X194639082Y-129845037D01*
X194515832Y-130142588D01*
X194453000Y-130458467D01*
X160140578Y-130458467D01*
X160170194Y-130442637D01*
X160266885Y-130363285D01*
X160346237Y-130266594D01*
X160405202Y-130156280D01*
X160441512Y-130036582D01*
X160453772Y-129912100D01*
X160453772Y-129112100D01*
X160441512Y-128987618D01*
X160405202Y-128867920D01*
X160346237Y-128757606D01*
X160266885Y-128660915D01*
X160170194Y-128581563D01*
X160125700Y-128557780D01*
X160125700Y-127171153D01*
X160195386Y-127133905D01*
X160329962Y-127023462D01*
X160440405Y-126888886D01*
X160458250Y-126855500D01*
X160620089Y-126855500D01*
X160800729Y-126819568D01*
X160970889Y-126749086D01*
X161124028Y-126646762D01*
X161254262Y-126516528D01*
X161356586Y-126363389D01*
X161427068Y-126193229D01*
X161463000Y-126012589D01*
X161463000Y-125828411D01*
X161439148Y-125708500D01*
X165440928Y-125708500D01*
X165440928Y-126508500D01*
X165453188Y-126632982D01*
X165489498Y-126752680D01*
X165548463Y-126862994D01*
X165627815Y-126959685D01*
X165724506Y-127039037D01*
X165769000Y-127062820D01*
X165769001Y-127803572D01*
X165668414Y-127954111D01*
X165597932Y-128124271D01*
X165562000Y-128304911D01*
X165562000Y-128489089D01*
X165597932Y-128669729D01*
X165668414Y-128839889D01*
X165770738Y-128993028D01*
X165900972Y-129123262D01*
X166054111Y-129225586D01*
X166224271Y-129296068D01*
X166404911Y-129332000D01*
X166589089Y-129332000D01*
X166769729Y-129296068D01*
X166939889Y-129225586D01*
X167093028Y-129123262D01*
X167223262Y-128993028D01*
X167325586Y-128839889D01*
X167396068Y-128669729D01*
X167432000Y-128489089D01*
X167432000Y-128304911D01*
X167396068Y-128124271D01*
X167331362Y-127968056D01*
X167484411Y-127998500D01*
X167668589Y-127998500D01*
X167722878Y-127987701D01*
X167724506Y-127989037D01*
X167834820Y-128048002D01*
X167954518Y-128084312D01*
X168079000Y-128096572D01*
X168979000Y-128096572D01*
X169103482Y-128084312D01*
X169223180Y-128048002D01*
X169333494Y-127989037D01*
X169430185Y-127909685D01*
X169509537Y-127812994D01*
X169568502Y-127702680D01*
X169604812Y-127582982D01*
X169617072Y-127458500D01*
X169617072Y-126658500D01*
X169604812Y-126534018D01*
X169568502Y-126414320D01*
X169509537Y-126304006D01*
X169430185Y-126207315D01*
X169333494Y-126127963D01*
X169297082Y-126108500D01*
X169306598Y-126103413D01*
X181225692Y-126103413D01*
X181321456Y-126367814D01*
X181611071Y-126508704D01*
X181922608Y-126590384D01*
X182244095Y-126609718D01*
X182563175Y-126565961D01*
X182867588Y-126460795D01*
X183041544Y-126367814D01*
X183137308Y-126103413D01*
X182181500Y-125147605D01*
X181225692Y-126103413D01*
X169306598Y-126103413D01*
X169333494Y-126089037D01*
X169430185Y-126009685D01*
X169509537Y-125912994D01*
X169568502Y-125802680D01*
X169604812Y-125682982D01*
X169617072Y-125558500D01*
X169617072Y-125030595D01*
X180539782Y-125030595D01*
X180583539Y-125349675D01*
X180688705Y-125654088D01*
X180781686Y-125828044D01*
X181046087Y-125923808D01*
X182001895Y-124968000D01*
X182361105Y-124968000D01*
X183316913Y-125923808D01*
X183581314Y-125828044D01*
X183722204Y-125538429D01*
X183803884Y-125226892D01*
X183823218Y-124905405D01*
X183779461Y-124586325D01*
X183674295Y-124281912D01*
X183581314Y-124107956D01*
X183316913Y-124012192D01*
X182361105Y-124968000D01*
X182001895Y-124968000D01*
X181046087Y-124012192D01*
X180781686Y-124107956D01*
X180640796Y-124397571D01*
X180559116Y-124709108D01*
X180539782Y-125030595D01*
X169617072Y-125030595D01*
X169617072Y-124758500D01*
X169604812Y-124634018D01*
X169568502Y-124514320D01*
X169509537Y-124404006D01*
X169464000Y-124348519D01*
X169464000Y-124177411D01*
X169428068Y-123996771D01*
X169360062Y-123832587D01*
X181225692Y-123832587D01*
X182181500Y-124788395D01*
X183137308Y-123832587D01*
X183041544Y-123568186D01*
X182751929Y-123427296D01*
X182440392Y-123345616D01*
X182118905Y-123326282D01*
X181799825Y-123370039D01*
X181495412Y-123475205D01*
X181321456Y-123568186D01*
X181225692Y-123832587D01*
X169360062Y-123832587D01*
X169357586Y-123826611D01*
X169255262Y-123673472D01*
X169125028Y-123543238D01*
X168971889Y-123440914D01*
X168801729Y-123370432D01*
X168621089Y-123334500D01*
X168436911Y-123334500D01*
X168256271Y-123370432D01*
X168086111Y-123440914D01*
X167932972Y-123543238D01*
X167802738Y-123673472D01*
X167700414Y-123826611D01*
X167629932Y-123996771D01*
X167594000Y-124177411D01*
X167594000Y-124348519D01*
X167548463Y-124404006D01*
X167489498Y-124514320D01*
X167453188Y-124634018D01*
X167440928Y-124758500D01*
X167440928Y-125270405D01*
X167430185Y-125257315D01*
X167333494Y-125177963D01*
X167223180Y-125118998D01*
X167103482Y-125082688D01*
X166979000Y-125070428D01*
X166079000Y-125070428D01*
X165954518Y-125082688D01*
X165834820Y-125118998D01*
X165724506Y-125177963D01*
X165627815Y-125257315D01*
X165548463Y-125354006D01*
X165489498Y-125464320D01*
X165453188Y-125584018D01*
X165440928Y-125708500D01*
X161439148Y-125708500D01*
X161427068Y-125647771D01*
X161356586Y-125477611D01*
X161254262Y-125324472D01*
X161124028Y-125194238D01*
X160970889Y-125091914D01*
X160800729Y-125021432D01*
X160620089Y-124985500D01*
X160458250Y-124985500D01*
X160440405Y-124952114D01*
X160329962Y-124817538D01*
X160195386Y-124707095D01*
X160041850Y-124625028D01*
X159875254Y-124574492D01*
X159702000Y-124557428D01*
X159027000Y-124557428D01*
X158853746Y-124574492D01*
X158687150Y-124625028D01*
X158533614Y-124707095D01*
X158399038Y-124817538D01*
X158327000Y-124905317D01*
X158254962Y-124817538D01*
X158120386Y-124707095D01*
X157966850Y-124625028D01*
X157800254Y-124574492D01*
X157627000Y-124557428D01*
X156952000Y-124557428D01*
X156778746Y-124574492D01*
X156612150Y-124625028D01*
X156458614Y-124707095D01*
X156324038Y-124817538D01*
X156213595Y-124952114D01*
X156131528Y-125105650D01*
X156114890Y-125160500D01*
X155631350Y-125160500D01*
X155483550Y-125012700D01*
X154734300Y-125012700D01*
X154734300Y-125032700D01*
X154480300Y-125032700D01*
X154480300Y-125012700D01*
X153898831Y-125012700D01*
X153762089Y-124985500D01*
X153577911Y-124985500D01*
X153397271Y-125021432D01*
X153227111Y-125091914D01*
X153073972Y-125194238D01*
X152943738Y-125324472D01*
X152841414Y-125477611D01*
X152770932Y-125647771D01*
X152735000Y-125828411D01*
X152735000Y-126012589D01*
X152744379Y-126059741D01*
X152726763Y-126081206D01*
X152667798Y-126191520D01*
X152631488Y-126311218D01*
X152619228Y-126435700D01*
X150332824Y-126435700D01*
X150349905Y-126414887D01*
X150431972Y-126261351D01*
X150482508Y-126094755D01*
X150499572Y-125921501D01*
X150499572Y-125221499D01*
X150482508Y-125048245D01*
X150431972Y-124881649D01*
X150349905Y-124728113D01*
X150239462Y-124593538D01*
X150149856Y-124520000D01*
X150490428Y-124520000D01*
X150502688Y-124644482D01*
X150538998Y-124764180D01*
X150597963Y-124874494D01*
X150677315Y-124971185D01*
X150774006Y-125050537D01*
X150884320Y-125109502D01*
X151004018Y-125145812D01*
X151128500Y-125158072D01*
X151542750Y-125155000D01*
X151701500Y-124996250D01*
X151701500Y-124047000D01*
X151955500Y-124047000D01*
X151955500Y-124996250D01*
X152114250Y-125155000D01*
X152528500Y-125158072D01*
X152652982Y-125145812D01*
X152772680Y-125109502D01*
X152882994Y-125050537D01*
X152979685Y-124971185D01*
X153059037Y-124874494D01*
X153118002Y-124764180D01*
X153154312Y-124644482D01*
X153166572Y-124520000D01*
X153165748Y-124435700D01*
X153569228Y-124435700D01*
X153572300Y-124599950D01*
X153731050Y-124758700D01*
X154480300Y-124758700D01*
X154480300Y-123959450D01*
X154734300Y-123959450D01*
X154734300Y-124758700D01*
X155483550Y-124758700D01*
X155642300Y-124599950D01*
X155645372Y-124435700D01*
X155633112Y-124311218D01*
X155596802Y-124191520D01*
X155537837Y-124081206D01*
X155458485Y-123984515D01*
X155361794Y-123905163D01*
X155251480Y-123846198D01*
X155131782Y-123809888D01*
X155007300Y-123797628D01*
X154893050Y-123800700D01*
X154734300Y-123959450D01*
X154480300Y-123959450D01*
X154321550Y-123800700D01*
X154207300Y-123797628D01*
X154082818Y-123809888D01*
X153963120Y-123846198D01*
X153852806Y-123905163D01*
X153756115Y-123984515D01*
X153676763Y-124081206D01*
X153617798Y-124191520D01*
X153581488Y-124311218D01*
X153569228Y-124435700D01*
X153165748Y-124435700D01*
X153163500Y-124205750D01*
X153004750Y-124047000D01*
X151955500Y-124047000D01*
X151701500Y-124047000D01*
X150652250Y-124047000D01*
X150493500Y-124205750D01*
X150490428Y-124520000D01*
X150149856Y-124520000D01*
X150104887Y-124483095D01*
X149951351Y-124401028D01*
X149784755Y-124350492D01*
X149611501Y-124333428D01*
X148711499Y-124333428D01*
X148538245Y-124350492D01*
X148371649Y-124401028D01*
X148218113Y-124483095D01*
X148083538Y-124593538D01*
X148080201Y-124597604D01*
X148076971Y-124591560D01*
X147982073Y-124475927D01*
X147866440Y-124381029D01*
X147734515Y-124310513D01*
X147591368Y-124267090D01*
X147442500Y-124252428D01*
X147302500Y-124252428D01*
X147302500Y-124113911D01*
X147266568Y-123933271D01*
X147196086Y-123763111D01*
X147093762Y-123609972D01*
X146963528Y-123479738D01*
X146810389Y-123377414D01*
X146640229Y-123306932D01*
X146459589Y-123271000D01*
X146346537Y-123271000D01*
X146314068Y-123107771D01*
X146243586Y-122937611D01*
X146141262Y-122784472D01*
X146036790Y-122680000D01*
X146202965Y-122680000D01*
X146305611Y-122748586D01*
X146475771Y-122819068D01*
X146656411Y-122855000D01*
X146840589Y-122855000D01*
X147021229Y-122819068D01*
X147191389Y-122748586D01*
X147344528Y-122646262D01*
X147474762Y-122516028D01*
X147577086Y-122362889D01*
X147647568Y-122192729D01*
X147683500Y-122012089D01*
X147683500Y-121827911D01*
X147647568Y-121647271D01*
X147577086Y-121477111D01*
X147474762Y-121323972D01*
X147344528Y-121193738D01*
X147191389Y-121091414D01*
X147021229Y-121020932D01*
X146840589Y-120985000D01*
X146656411Y-120985000D01*
X146475771Y-121020932D01*
X146347087Y-121074234D01*
X146350000Y-121059589D01*
X146350000Y-120875411D01*
X146314068Y-120694771D01*
X146243586Y-120524611D01*
X146141262Y-120371472D01*
X146011028Y-120241238D01*
X145857889Y-120138914D01*
X145687729Y-120068432D01*
X145507089Y-120032500D01*
X145322911Y-120032500D01*
X145142271Y-120068432D01*
X144972111Y-120138914D01*
X144869465Y-120207500D01*
X144822273Y-120207500D01*
X144696015Y-120140013D01*
X144552868Y-120096590D01*
X144545259Y-120095841D01*
X144617351Y-120073972D01*
X144770887Y-119991905D01*
X144905462Y-119881462D01*
X145015905Y-119746887D01*
X145097972Y-119593351D01*
X145148508Y-119426755D01*
X145165572Y-119253501D01*
X145165572Y-118553499D01*
X145148508Y-118380245D01*
X145097972Y-118213649D01*
X145015905Y-118060113D01*
X144905462Y-117925538D01*
X144878609Y-117903500D01*
X144905462Y-117881462D01*
X145015905Y-117746887D01*
X145097972Y-117593351D01*
X145148508Y-117426755D01*
X145165572Y-117253501D01*
X145165572Y-116553499D01*
X145148508Y-116380245D01*
X145097972Y-116213649D01*
X145015905Y-116060113D01*
X144905462Y-115925538D01*
X144770887Y-115815095D01*
X144617351Y-115733028D01*
X144450755Y-115682492D01*
X144277501Y-115665428D01*
X143618769Y-115665428D01*
X143646812Y-115572982D01*
X143659072Y-115448500D01*
X143659072Y-114548500D01*
X143657595Y-114533501D01*
X146093991Y-114533501D01*
X146121498Y-114624180D01*
X146180463Y-114734494D01*
X146259815Y-114831185D01*
X146356506Y-114910537D01*
X146466820Y-114969502D01*
X146586518Y-115005812D01*
X146711000Y-115018072D01*
X147611000Y-115018072D01*
X147735482Y-115005812D01*
X147855180Y-114969502D01*
X147965494Y-114910537D01*
X148062185Y-114831185D01*
X148141537Y-114734494D01*
X148200502Y-114624180D01*
X148236812Y-114504482D01*
X148249072Y-114380000D01*
X148249072Y-114240338D01*
X148284245Y-114251008D01*
X148457499Y-114268072D01*
X149357501Y-114268072D01*
X149530755Y-114251008D01*
X149697351Y-114200472D01*
X149850887Y-114118405D01*
X149985462Y-114007962D01*
X150020887Y-113964796D01*
X150021911Y-113965000D01*
X150206089Y-113965000D01*
X150386729Y-113929068D01*
X150470289Y-113894457D01*
X150489113Y-113909905D01*
X150642649Y-113991972D01*
X150809245Y-114042508D01*
X150982499Y-114059572D01*
X152308270Y-114059572D01*
X152454202Y-114205504D01*
X152478000Y-114234502D01*
X152593725Y-114329475D01*
X152725754Y-114400047D01*
X152869015Y-114443504D01*
X152980668Y-114454501D01*
X152980677Y-114454501D01*
X153018000Y-114458177D01*
X153055323Y-114454501D01*
X153718133Y-114454501D01*
X153587771Y-114480432D01*
X153417611Y-114550914D01*
X153344998Y-114599433D01*
X153182501Y-114583428D01*
X150982499Y-114583428D01*
X150809245Y-114600492D01*
X150642649Y-114651028D01*
X150489113Y-114733095D01*
X150354538Y-114843538D01*
X150244095Y-114978113D01*
X150162028Y-115131649D01*
X150111492Y-115298245D01*
X150094428Y-115471499D01*
X150094428Y-116296501D01*
X150111492Y-116469755D01*
X150162028Y-116636351D01*
X150244095Y-116789887D01*
X150354538Y-116924462D01*
X150489113Y-117034905D01*
X150642649Y-117116972D01*
X150809245Y-117167508D01*
X150982499Y-117184572D01*
X153182501Y-117184572D01*
X153355755Y-117167508D01*
X153522351Y-117116972D01*
X153675887Y-117034905D01*
X153810462Y-116924462D01*
X153920905Y-116789887D01*
X154002972Y-116636351D01*
X154045581Y-116495888D01*
X154075006Y-116520037D01*
X154185320Y-116579002D01*
X154305018Y-116615312D01*
X154429500Y-116627572D01*
X154560880Y-116627572D01*
X154543252Y-116685684D01*
X154526428Y-116856500D01*
X154526428Y-117331500D01*
X154543252Y-117502316D01*
X154593077Y-117666567D01*
X154673988Y-117817942D01*
X154782877Y-117950623D01*
X154802451Y-117966687D01*
X154767000Y-118144911D01*
X154767000Y-118329089D01*
X154802932Y-118509729D01*
X154873414Y-118679889D01*
X154968026Y-118821486D01*
X154949113Y-118831595D01*
X154876500Y-118891187D01*
X154803887Y-118831595D01*
X154795500Y-118827112D01*
X154795500Y-118716411D01*
X154759568Y-118535771D01*
X154689086Y-118365611D01*
X154586762Y-118212472D01*
X154456528Y-118082238D01*
X154303389Y-117979914D01*
X154133229Y-117909432D01*
X153952589Y-117873500D01*
X153768411Y-117873500D01*
X153587771Y-117909432D01*
X153417611Y-117979914D01*
X153264472Y-118082238D01*
X153134238Y-118212472D01*
X153031914Y-118365611D01*
X152961432Y-118535771D01*
X152925500Y-118716411D01*
X152925500Y-118827112D01*
X152917113Y-118831595D01*
X152782538Y-118942038D01*
X152672095Y-119076613D01*
X152590028Y-119230149D01*
X152539492Y-119396745D01*
X152522428Y-119569999D01*
X152522428Y-120270001D01*
X152539492Y-120443255D01*
X152590028Y-120609851D01*
X152672095Y-120763387D01*
X152693832Y-120789874D01*
X152618351Y-120749528D01*
X152451755Y-120698992D01*
X152278501Y-120681928D01*
X151378499Y-120681928D01*
X151205245Y-120698992D01*
X151038649Y-120749528D01*
X150885113Y-120831595D01*
X150750538Y-120942038D01*
X150706201Y-120996062D01*
X150650589Y-120985000D01*
X150466411Y-120985000D01*
X150285771Y-121020932D01*
X150115611Y-121091414D01*
X149962472Y-121193738D01*
X149832238Y-121323972D01*
X149729914Y-121477111D01*
X149659432Y-121647271D01*
X149623500Y-121827911D01*
X149623500Y-122012089D01*
X149659432Y-122192729D01*
X149729914Y-122362889D01*
X149832238Y-122516028D01*
X149962472Y-122646262D01*
X150115611Y-122748586D01*
X150285771Y-122819068D01*
X150466411Y-122855000D01*
X150650589Y-122855000D01*
X150706201Y-122843938D01*
X150706776Y-122844637D01*
X150677315Y-122868815D01*
X150597963Y-122965506D01*
X150538998Y-123075820D01*
X150502688Y-123195518D01*
X150490428Y-123320000D01*
X150493500Y-123634250D01*
X150652250Y-123793000D01*
X151701500Y-123793000D01*
X151701500Y-123773000D01*
X151955500Y-123773000D01*
X151955500Y-123793000D01*
X153004750Y-123793000D01*
X153163500Y-123634250D01*
X153166572Y-123320000D01*
X153154312Y-123195518D01*
X153127696Y-123107777D01*
X153237245Y-123141008D01*
X153410499Y-123158072D01*
X154310501Y-123158072D01*
X154483755Y-123141008D01*
X154650351Y-123090472D01*
X154803887Y-123008405D01*
X154876500Y-122948813D01*
X154949113Y-123008405D01*
X155102649Y-123090472D01*
X155269245Y-123141008D01*
X155442499Y-123158072D01*
X156342501Y-123158072D01*
X156515755Y-123141008D01*
X156682351Y-123090472D01*
X156835887Y-123008405D01*
X156895878Y-122959171D01*
X156956114Y-123008605D01*
X157109650Y-123090672D01*
X157276246Y-123141208D01*
X157449500Y-123158272D01*
X158399500Y-123158272D01*
X158572754Y-123141208D01*
X158739350Y-123090672D01*
X158805314Y-123055413D01*
X193798692Y-123055413D01*
X193894456Y-123319814D01*
X194184071Y-123460704D01*
X194495608Y-123542384D01*
X194817095Y-123561718D01*
X195136175Y-123517961D01*
X195440588Y-123412795D01*
X195614544Y-123319814D01*
X195710308Y-123055413D01*
X194754500Y-122099605D01*
X193798692Y-123055413D01*
X158805314Y-123055413D01*
X158892886Y-123008605D01*
X159027462Y-122898162D01*
X159137905Y-122763586D01*
X159219972Y-122610050D01*
X159270508Y-122443454D01*
X159287572Y-122270200D01*
X159287572Y-121982595D01*
X193112782Y-121982595D01*
X193156539Y-122301675D01*
X193261705Y-122606088D01*
X193354686Y-122780044D01*
X193619087Y-122875808D01*
X194574895Y-121920000D01*
X194934105Y-121920000D01*
X195889913Y-122875808D01*
X196154314Y-122780044D01*
X196295204Y-122490429D01*
X196376884Y-122178892D01*
X196396218Y-121857405D01*
X196352461Y-121538325D01*
X196247295Y-121233912D01*
X196154314Y-121059956D01*
X195889913Y-120964192D01*
X194934105Y-121920000D01*
X194574895Y-121920000D01*
X193619087Y-120964192D01*
X193354686Y-121059956D01*
X193213796Y-121349571D01*
X193132116Y-121661108D01*
X193112782Y-121982595D01*
X159287572Y-121982595D01*
X159287572Y-121595200D01*
X159270508Y-121421946D01*
X159219972Y-121255350D01*
X159137905Y-121101814D01*
X159027462Y-120967238D01*
X158939683Y-120895200D01*
X159027462Y-120823162D01*
X159029183Y-120821065D01*
X159038911Y-120823000D01*
X159223089Y-120823000D01*
X159403729Y-120787068D01*
X159573889Y-120716586D01*
X159727028Y-120614262D01*
X159857262Y-120484028D01*
X159959586Y-120330889D01*
X160030068Y-120160729D01*
X160066000Y-119980089D01*
X160066000Y-119795911D01*
X160030068Y-119615271D01*
X159959586Y-119445111D01*
X159857262Y-119291972D01*
X159727028Y-119161738D01*
X159573889Y-119059414D01*
X159403729Y-118988932D01*
X159223089Y-118953000D01*
X159077328Y-118953000D01*
X159027462Y-118892238D01*
X158892886Y-118781795D01*
X158739350Y-118699728D01*
X158572754Y-118649192D01*
X158399500Y-118632128D01*
X157449500Y-118632128D01*
X157276246Y-118649192D01*
X157109650Y-118699728D01*
X156956114Y-118781795D01*
X156865659Y-118856029D01*
X156835887Y-118831595D01*
X156682351Y-118749528D01*
X156517473Y-118699513D01*
X156530586Y-118679889D01*
X156601068Y-118509729D01*
X156637000Y-118329089D01*
X156637000Y-118154055D01*
X156645320Y-118158502D01*
X156765018Y-118194812D01*
X156889500Y-118207072D01*
X157141250Y-118204000D01*
X157300000Y-118045250D01*
X157300000Y-117221000D01*
X157554000Y-117221000D01*
X157554000Y-118045250D01*
X157712750Y-118204000D01*
X157964500Y-118207072D01*
X158088982Y-118194812D01*
X158208680Y-118158502D01*
X158318994Y-118099537D01*
X158415685Y-118020185D01*
X158495037Y-117923494D01*
X158554002Y-117813180D01*
X158590312Y-117693482D01*
X158602572Y-117569000D01*
X158599500Y-117379750D01*
X158440750Y-117221000D01*
X157554000Y-117221000D01*
X157300000Y-117221000D01*
X157280000Y-117221000D01*
X157280000Y-116967000D01*
X157300000Y-116967000D01*
X157300000Y-116947000D01*
X157554000Y-116947000D01*
X157554000Y-116967000D01*
X158440750Y-116967000D01*
X158599500Y-116808250D01*
X158601581Y-116680072D01*
X160421501Y-116680072D01*
X160594755Y-116663008D01*
X160761351Y-116612472D01*
X160914887Y-116530405D01*
X161049462Y-116419962D01*
X161136013Y-116314500D01*
X161318589Y-116314500D01*
X161499229Y-116278568D01*
X161669389Y-116208086D01*
X161822528Y-116105762D01*
X161952762Y-115975528D01*
X162055086Y-115822389D01*
X162125568Y-115652229D01*
X162161500Y-115471589D01*
X162161500Y-115287411D01*
X162125568Y-115106771D01*
X162055086Y-114936611D01*
X161952762Y-114783472D01*
X161822528Y-114653238D01*
X161669389Y-114550914D01*
X161499229Y-114480432D01*
X161318589Y-114444500D01*
X161136013Y-114444500D01*
X161049462Y-114339038D01*
X160914887Y-114228595D01*
X160761351Y-114146528D01*
X160594755Y-114095992D01*
X160421501Y-114078928D01*
X158221499Y-114078928D01*
X158048245Y-114095992D01*
X157881649Y-114146528D01*
X157728113Y-114228595D01*
X157593538Y-114339038D01*
X157518381Y-114430617D01*
X157510037Y-114415006D01*
X157430685Y-114318315D01*
X157333994Y-114238963D01*
X157223680Y-114179998D01*
X157103982Y-114143688D01*
X156979500Y-114131428D01*
X156357373Y-114131428D01*
X156481229Y-114007572D01*
X156979500Y-114007572D01*
X157103982Y-113995312D01*
X157223680Y-113959002D01*
X157333994Y-113900037D01*
X157430685Y-113820685D01*
X157510037Y-113723994D01*
X157569002Y-113613680D01*
X157605312Y-113493982D01*
X157610419Y-113442131D01*
X157617006Y-113447537D01*
X157727320Y-113506502D01*
X157847018Y-113542812D01*
X157971500Y-113555072D01*
X159035750Y-113552000D01*
X159194500Y-113393250D01*
X159194500Y-112381500D01*
X159448500Y-112381500D01*
X159448500Y-113393250D01*
X159607250Y-113552000D01*
X160671500Y-113555072D01*
X160795982Y-113542812D01*
X160915680Y-113506502D01*
X161025994Y-113447537D01*
X161122685Y-113368185D01*
X161153201Y-113331000D01*
X162964428Y-113331000D01*
X162964428Y-114131000D01*
X162976688Y-114255482D01*
X163012998Y-114375180D01*
X163071963Y-114485494D01*
X163151315Y-114582185D01*
X163248006Y-114661537D01*
X163358320Y-114720502D01*
X163478018Y-114756812D01*
X163602500Y-114769072D01*
X164502500Y-114769072D01*
X164626982Y-114756812D01*
X164746680Y-114720502D01*
X164856994Y-114661537D01*
X164896900Y-114628787D01*
X164964428Y-114642219D01*
X164964428Y-115081000D01*
X164976688Y-115205482D01*
X165012998Y-115325180D01*
X165071963Y-115435494D01*
X165151315Y-115532185D01*
X165248006Y-115611537D01*
X165358320Y-115670502D01*
X165478018Y-115706812D01*
X165602500Y-115719072D01*
X166015770Y-115719072D01*
X166050201Y-115753503D01*
X166074000Y-115782502D01*
X166189725Y-115877475D01*
X166321754Y-115948047D01*
X166435208Y-115982462D01*
X166331149Y-116014028D01*
X166177613Y-116096095D01*
X166043038Y-116206538D01*
X165932595Y-116341113D01*
X165928112Y-116349500D01*
X165769911Y-116349500D01*
X165589271Y-116385432D01*
X165419111Y-116455914D01*
X165265972Y-116558238D01*
X165135738Y-116688472D01*
X165033414Y-116841611D01*
X164962932Y-117011771D01*
X164927000Y-117192411D01*
X164927000Y-117376589D01*
X164962932Y-117557229D01*
X165033414Y-117727389D01*
X165135738Y-117880528D01*
X165265972Y-118010762D01*
X165419111Y-118113086D01*
X165589271Y-118183568D01*
X165769911Y-118219500D01*
X165928112Y-118219500D01*
X165932595Y-118227887D01*
X166043038Y-118362462D01*
X166177613Y-118472905D01*
X166331149Y-118554972D01*
X166497745Y-118605508D01*
X166670999Y-118622572D01*
X167371001Y-118622572D01*
X167544255Y-118605508D01*
X167710851Y-118554972D01*
X167864387Y-118472905D01*
X167998962Y-118362462D01*
X168021000Y-118335609D01*
X168043038Y-118362462D01*
X168177613Y-118472905D01*
X168331149Y-118554972D01*
X168497745Y-118605508D01*
X168670999Y-118622572D01*
X168972712Y-118622572D01*
X168828613Y-118699595D01*
X168694038Y-118810038D01*
X168583595Y-118944613D01*
X168579112Y-118953000D01*
X168436911Y-118953000D01*
X168256271Y-118988932D01*
X168086111Y-119059414D01*
X167983465Y-119128000D01*
X167169535Y-119128000D01*
X167066889Y-119059414D01*
X166896729Y-118988932D01*
X166716089Y-118953000D01*
X166531911Y-118953000D01*
X166351271Y-118988932D01*
X166181111Y-119059414D01*
X166027972Y-119161738D01*
X165897738Y-119291972D01*
X165795414Y-119445111D01*
X165724932Y-119615271D01*
X165689000Y-119795911D01*
X165689000Y-119980089D01*
X165724932Y-120160729D01*
X165795414Y-120330889D01*
X165897738Y-120484028D01*
X166027972Y-120614262D01*
X166181111Y-120716586D01*
X166351271Y-120787068D01*
X166531911Y-120823000D01*
X166716089Y-120823000D01*
X166896729Y-120787068D01*
X167066889Y-120716586D01*
X167169535Y-120648000D01*
X167983465Y-120648000D01*
X168086111Y-120716586D01*
X168256271Y-120787068D01*
X168436911Y-120823000D01*
X168579112Y-120823000D01*
X168583595Y-120831387D01*
X168694038Y-120965962D01*
X168828613Y-121076405D01*
X168982149Y-121158472D01*
X169148745Y-121209008D01*
X169321999Y-121226072D01*
X170022001Y-121226072D01*
X170195255Y-121209008D01*
X170361851Y-121158472D01*
X170515387Y-121076405D01*
X170649962Y-120965962D01*
X170672000Y-120939109D01*
X170694038Y-120965962D01*
X170828613Y-121076405D01*
X170982149Y-121158472D01*
X171148745Y-121209008D01*
X171321999Y-121226072D01*
X172022001Y-121226072D01*
X172195255Y-121209008D01*
X172361851Y-121158472D01*
X172515387Y-121076405D01*
X172649962Y-120965962D01*
X172760405Y-120831387D01*
X172764888Y-120823000D01*
X172875589Y-120823000D01*
X173056229Y-120787068D01*
X173226389Y-120716586D01*
X173379528Y-120614262D01*
X173509762Y-120484028D01*
X173612086Y-120330889D01*
X173682568Y-120160729D01*
X173718500Y-119980089D01*
X173718500Y-119795911D01*
X173704787Y-119726967D01*
X180546500Y-119726967D01*
X180546500Y-120049033D01*
X180609332Y-120364912D01*
X180732582Y-120662463D01*
X180911513Y-120930252D01*
X181139248Y-121157987D01*
X181407037Y-121336918D01*
X181704588Y-121460168D01*
X182020467Y-121523000D01*
X182342533Y-121523000D01*
X182658412Y-121460168D01*
X182955963Y-121336918D01*
X183223752Y-121157987D01*
X183451487Y-120930252D01*
X183548817Y-120784587D01*
X193798692Y-120784587D01*
X194754500Y-121740395D01*
X195710308Y-120784587D01*
X195614544Y-120520186D01*
X195324929Y-120379296D01*
X195013392Y-120297616D01*
X194691905Y-120278282D01*
X194372825Y-120322039D01*
X194068412Y-120427205D01*
X193894456Y-120520186D01*
X193798692Y-120784587D01*
X183548817Y-120784587D01*
X183630418Y-120662463D01*
X183753668Y-120364912D01*
X183816500Y-120049033D01*
X183816500Y-119726967D01*
X183753668Y-119411088D01*
X183630418Y-119113537D01*
X183451487Y-118845748D01*
X183223752Y-118618013D01*
X182955963Y-118439082D01*
X182658412Y-118315832D01*
X182342533Y-118253000D01*
X182020467Y-118253000D01*
X181704588Y-118315832D01*
X181407037Y-118439082D01*
X181139248Y-118618013D01*
X180911513Y-118845748D01*
X180732582Y-119113537D01*
X180609332Y-119411088D01*
X180546500Y-119726967D01*
X173704787Y-119726967D01*
X173682568Y-119615271D01*
X173612086Y-119445111D01*
X173509762Y-119291972D01*
X173379528Y-119161738D01*
X173226389Y-119059414D01*
X173056229Y-118988932D01*
X172875589Y-118953000D01*
X172764888Y-118953000D01*
X172760405Y-118944613D01*
X172649962Y-118810038D01*
X172515387Y-118699595D01*
X172361851Y-118617528D01*
X172195255Y-118566992D01*
X172022001Y-118549928D01*
X171321999Y-118549928D01*
X171148745Y-118566992D01*
X170982149Y-118617528D01*
X170828613Y-118699595D01*
X170694038Y-118810038D01*
X170672000Y-118836891D01*
X170649962Y-118810038D01*
X170515387Y-118699595D01*
X170361851Y-118617528D01*
X170195255Y-118566992D01*
X170022001Y-118549928D01*
X169720288Y-118549928D01*
X169864387Y-118472905D01*
X169998962Y-118362462D01*
X170109405Y-118227887D01*
X170113888Y-118219500D01*
X170208589Y-118219500D01*
X170389229Y-118183568D01*
X170559389Y-118113086D01*
X170712528Y-118010762D01*
X170842762Y-117880528D01*
X170945086Y-117727389D01*
X171015568Y-117557229D01*
X171051500Y-117376589D01*
X171051500Y-117192411D01*
X171015568Y-117011771D01*
X170945086Y-116841611D01*
X170842762Y-116688472D01*
X170712528Y-116558238D01*
X170559389Y-116455914D01*
X170389229Y-116385432D01*
X170208589Y-116349500D01*
X170113888Y-116349500D01*
X170109405Y-116341113D01*
X169998962Y-116206538D01*
X169864387Y-116096095D01*
X169710851Y-116014028D01*
X169672851Y-116002501D01*
X169927677Y-116002501D01*
X169964999Y-116006177D01*
X170002321Y-116002501D01*
X170002332Y-116002501D01*
X170113985Y-115991504D01*
X170257246Y-115948047D01*
X170389275Y-115877475D01*
X170505000Y-115782502D01*
X170528802Y-115753499D01*
X170565729Y-115716572D01*
X170979000Y-115716572D01*
X171103482Y-115704312D01*
X171223180Y-115668002D01*
X171333494Y-115609037D01*
X171430185Y-115529685D01*
X171509537Y-115432994D01*
X171568502Y-115322680D01*
X171604812Y-115202982D01*
X171617072Y-115078500D01*
X171617072Y-114278500D01*
X171604812Y-114154018D01*
X171568502Y-114034320D01*
X171509537Y-113924006D01*
X171430185Y-113827315D01*
X171333494Y-113747963D01*
X171297082Y-113728500D01*
X171333494Y-113709037D01*
X171430185Y-113629685D01*
X171509537Y-113532994D01*
X171568502Y-113422680D01*
X171604812Y-113302982D01*
X171617072Y-113178500D01*
X171617072Y-112868967D01*
X194580000Y-112868967D01*
X194580000Y-113191033D01*
X194642832Y-113506912D01*
X194766082Y-113804463D01*
X194945013Y-114072252D01*
X195172748Y-114299987D01*
X195440537Y-114478918D01*
X195738088Y-114602168D01*
X196053967Y-114665000D01*
X196376033Y-114665000D01*
X196691912Y-114602168D01*
X196989463Y-114478918D01*
X197257252Y-114299987D01*
X197484987Y-114072252D01*
X197663918Y-113804463D01*
X197787168Y-113506912D01*
X197850000Y-113191033D01*
X197850000Y-112868967D01*
X197787168Y-112553088D01*
X197663918Y-112255537D01*
X197484987Y-111987748D01*
X197257252Y-111760013D01*
X196989463Y-111581082D01*
X196691912Y-111457832D01*
X196376033Y-111395000D01*
X196053967Y-111395000D01*
X195738088Y-111457832D01*
X195440537Y-111581082D01*
X195172748Y-111760013D01*
X194945013Y-111987748D01*
X194766082Y-112255537D01*
X194642832Y-112553088D01*
X194580000Y-112868967D01*
X171617072Y-112868967D01*
X171617072Y-112742191D01*
X171679046Y-112626247D01*
X171685648Y-112604482D01*
X171722503Y-112482986D01*
X171733500Y-112371333D01*
X171733500Y-112371323D01*
X171737176Y-112334000D01*
X171733500Y-112296677D01*
X171733500Y-112103976D01*
X171816887Y-112059405D01*
X171951462Y-111948962D01*
X172061905Y-111814387D01*
X172143972Y-111660851D01*
X172194508Y-111494255D01*
X172211572Y-111321001D01*
X172211572Y-110420999D01*
X172194508Y-110247745D01*
X172143972Y-110081149D01*
X172061905Y-109927613D01*
X171951462Y-109793038D01*
X171816887Y-109682595D01*
X171663351Y-109600528D01*
X171496755Y-109549992D01*
X171323501Y-109532928D01*
X170623499Y-109532928D01*
X170450245Y-109549992D01*
X170283649Y-109600528D01*
X170130113Y-109682595D01*
X169995538Y-109793038D01*
X169973500Y-109819891D01*
X169951462Y-109793038D01*
X169816887Y-109682595D01*
X169663351Y-109600528D01*
X169496755Y-109549992D01*
X169323501Y-109532928D01*
X168623499Y-109532928D01*
X168450245Y-109549992D01*
X168283649Y-109600528D01*
X168130113Y-109682595D01*
X167995538Y-109793038D01*
X167885095Y-109927613D01*
X167880612Y-109936000D01*
X167748388Y-109936000D01*
X167743905Y-109927613D01*
X167633462Y-109793038D01*
X167498887Y-109682595D01*
X167345351Y-109600528D01*
X167178755Y-109549992D01*
X167005501Y-109532928D01*
X166305499Y-109532928D01*
X166132245Y-109549992D01*
X165965649Y-109600528D01*
X165812113Y-109682595D01*
X165677538Y-109793038D01*
X165655500Y-109819891D01*
X165633462Y-109793038D01*
X165498887Y-109682595D01*
X165345351Y-109600528D01*
X165178755Y-109549992D01*
X165005501Y-109532928D01*
X164305499Y-109532928D01*
X164132245Y-109549992D01*
X163965649Y-109600528D01*
X163812113Y-109682595D01*
X163677538Y-109793038D01*
X163567095Y-109927613D01*
X163485028Y-110081149D01*
X163434492Y-110247745D01*
X163417428Y-110420999D01*
X163417428Y-111321001D01*
X163434492Y-111494255D01*
X163485028Y-111660851D01*
X163567095Y-111814387D01*
X163677538Y-111948962D01*
X163812113Y-112059405D01*
X163965649Y-112141472D01*
X164132245Y-112192008D01*
X164305499Y-112209072D01*
X164405771Y-112209072D01*
X164964428Y-112767730D01*
X164964428Y-112814781D01*
X164891996Y-112829188D01*
X164856994Y-112800463D01*
X164746680Y-112741498D01*
X164626982Y-112705188D01*
X164502500Y-112692928D01*
X163602500Y-112692928D01*
X163478018Y-112705188D01*
X163358320Y-112741498D01*
X163248006Y-112800463D01*
X163151315Y-112879815D01*
X163071963Y-112976506D01*
X163012998Y-113086820D01*
X162976688Y-113206518D01*
X162964428Y-113331000D01*
X161153201Y-113331000D01*
X161202037Y-113271494D01*
X161261002Y-113161180D01*
X161297312Y-113041482D01*
X161309572Y-112917000D01*
X161306500Y-112540250D01*
X161147750Y-112381500D01*
X159448500Y-112381500D01*
X159194500Y-112381500D01*
X159174500Y-112381500D01*
X159174500Y-112127500D01*
X159194500Y-112127500D01*
X159194500Y-111115750D01*
X159448500Y-111115750D01*
X159448500Y-112127500D01*
X161147750Y-112127500D01*
X161306500Y-111968750D01*
X161309572Y-111592000D01*
X161297312Y-111467518D01*
X161261002Y-111347820D01*
X161202037Y-111237506D01*
X161122685Y-111140815D01*
X161025994Y-111061463D01*
X160915680Y-111002498D01*
X160795982Y-110966188D01*
X160671500Y-110953928D01*
X159607250Y-110957000D01*
X159448500Y-111115750D01*
X159194500Y-111115750D01*
X159035750Y-110957000D01*
X157992572Y-110953989D01*
X157992572Y-110584499D01*
X157975508Y-110411245D01*
X157924972Y-110244649D01*
X157842905Y-110091113D01*
X157776224Y-110009863D01*
X157805685Y-109985685D01*
X157885037Y-109888994D01*
X157944002Y-109778680D01*
X157980312Y-109658982D01*
X157992572Y-109534500D01*
X157989500Y-109220250D01*
X157830750Y-109061500D01*
X156781500Y-109061500D01*
X156781500Y-109081500D01*
X156527500Y-109081500D01*
X156527500Y-109061500D01*
X155478250Y-109061500D01*
X155319500Y-109220250D01*
X155319324Y-109238229D01*
X155192389Y-109153414D01*
X155022229Y-109082932D01*
X154841589Y-109047000D01*
X154657411Y-109047000D01*
X154476771Y-109082932D01*
X154306611Y-109153414D01*
X154153472Y-109255738D01*
X154023238Y-109385972D01*
X153920914Y-109539111D01*
X153850432Y-109709271D01*
X153814500Y-109889911D01*
X153814500Y-109937945D01*
X153806180Y-109933498D01*
X153686482Y-109897188D01*
X153562000Y-109884928D01*
X153310250Y-109888000D01*
X153151500Y-110046750D01*
X153151500Y-110871000D01*
X153171500Y-110871000D01*
X153171500Y-111125000D01*
X153151500Y-111125000D01*
X153151500Y-111145000D01*
X152897500Y-111145000D01*
X152897500Y-111125000D01*
X152010750Y-111125000D01*
X151852000Y-111283750D01*
X151849165Y-111458428D01*
X150982499Y-111458428D01*
X150809245Y-111475492D01*
X150642649Y-111526028D01*
X150489113Y-111608095D01*
X150354538Y-111718538D01*
X150244095Y-111853113D01*
X150162028Y-112006649D01*
X150135227Y-112095000D01*
X150041851Y-112095000D01*
X150058685Y-112081185D01*
X150138037Y-111984494D01*
X150197002Y-111874180D01*
X150233312Y-111754482D01*
X150245572Y-111630000D01*
X150242500Y-111315750D01*
X150083750Y-111157000D01*
X149034500Y-111157000D01*
X149034500Y-111177000D01*
X148780500Y-111177000D01*
X148780500Y-111157000D01*
X147974678Y-111157000D01*
X147965494Y-111149463D01*
X147855180Y-111090498D01*
X147735482Y-111054188D01*
X147611000Y-111041928D01*
X146711000Y-111041928D01*
X146586518Y-111054188D01*
X146466820Y-111090498D01*
X146356506Y-111149463D01*
X146321504Y-111178188D01*
X146142089Y-111142500D01*
X145957911Y-111142500D01*
X145777271Y-111178432D01*
X145607111Y-111248914D01*
X145453972Y-111351238D01*
X145323738Y-111481472D01*
X145221414Y-111634611D01*
X145150932Y-111804771D01*
X145115000Y-111985411D01*
X145115000Y-111991928D01*
X144711000Y-111991928D01*
X144586518Y-112004188D01*
X144466820Y-112040498D01*
X144397865Y-112077356D01*
X144325494Y-112017963D01*
X144215180Y-111958998D01*
X144095482Y-111922688D01*
X143971000Y-111910428D01*
X143171000Y-111910428D01*
X143046518Y-111922688D01*
X142930385Y-111957917D01*
X142938972Y-111941851D01*
X142989508Y-111775255D01*
X143006572Y-111602001D01*
X143006572Y-110901999D01*
X142989508Y-110728745D01*
X142938972Y-110562149D01*
X142856905Y-110408613D01*
X142746462Y-110274038D01*
X142719609Y-110252000D01*
X142746462Y-110229962D01*
X142759735Y-110213789D01*
X142798038Y-110260462D01*
X142932613Y-110370905D01*
X143086149Y-110452972D01*
X143252745Y-110503508D01*
X143425999Y-110520572D01*
X145626001Y-110520572D01*
X145799255Y-110503508D01*
X145965851Y-110452972D01*
X146008828Y-110430000D01*
X147569428Y-110430000D01*
X147572500Y-110744250D01*
X147731250Y-110903000D01*
X148780500Y-110903000D01*
X148780500Y-109953750D01*
X149034500Y-109953750D01*
X149034500Y-110903000D01*
X150083750Y-110903000D01*
X150242500Y-110744250D01*
X150244662Y-110523000D01*
X151848928Y-110523000D01*
X151852000Y-110712250D01*
X152010750Y-110871000D01*
X152897500Y-110871000D01*
X152897500Y-110046750D01*
X152738750Y-109888000D01*
X152487000Y-109884928D01*
X152362518Y-109897188D01*
X152242820Y-109933498D01*
X152132506Y-109992463D01*
X152035815Y-110071815D01*
X151956463Y-110168506D01*
X151897498Y-110278820D01*
X151861188Y-110398518D01*
X151848928Y-110523000D01*
X150244662Y-110523000D01*
X150245572Y-110430000D01*
X150233312Y-110305518D01*
X150197002Y-110185820D01*
X150138037Y-110075506D01*
X150058685Y-109978815D01*
X149961994Y-109899463D01*
X149851680Y-109840498D01*
X149731982Y-109804188D01*
X149607500Y-109791928D01*
X149193250Y-109795000D01*
X149034500Y-109953750D01*
X148780500Y-109953750D01*
X148621750Y-109795000D01*
X148207500Y-109791928D01*
X148083018Y-109804188D01*
X147963320Y-109840498D01*
X147853006Y-109899463D01*
X147756315Y-109978815D01*
X147676963Y-110075506D01*
X147617998Y-110185820D01*
X147581688Y-110305518D01*
X147569428Y-110430000D01*
X146008828Y-110430000D01*
X146119387Y-110370905D01*
X146253962Y-110260462D01*
X146364405Y-110125887D01*
X146446472Y-109972351D01*
X146497008Y-109805755D01*
X146514072Y-109632501D01*
X146514072Y-108807499D01*
X146497008Y-108634245D01*
X146446472Y-108467649D01*
X146375303Y-108334500D01*
X155316428Y-108334500D01*
X155319500Y-108648750D01*
X155478250Y-108807500D01*
X156527500Y-108807500D01*
X156527500Y-107858250D01*
X156781500Y-107858250D01*
X156781500Y-108807500D01*
X157830750Y-108807500D01*
X157989500Y-108648750D01*
X157992572Y-108334500D01*
X157980312Y-108210018D01*
X157944002Y-108090320D01*
X157885037Y-107980006D01*
X157805685Y-107883315D01*
X157708994Y-107803963D01*
X157598680Y-107744998D01*
X157478982Y-107708688D01*
X157354500Y-107696428D01*
X156940250Y-107699500D01*
X156781500Y-107858250D01*
X156527500Y-107858250D01*
X156368750Y-107699500D01*
X155954500Y-107696428D01*
X155830018Y-107708688D01*
X155710320Y-107744998D01*
X155600006Y-107803963D01*
X155503315Y-107883315D01*
X155423963Y-107980006D01*
X155364998Y-108090320D01*
X155328688Y-108210018D01*
X155316428Y-108334500D01*
X146375303Y-108334500D01*
X146364405Y-108314113D01*
X146253962Y-108179538D01*
X146119387Y-108069095D01*
X145965851Y-107987028D01*
X145799255Y-107936492D01*
X145626001Y-107919428D01*
X145461000Y-107919428D01*
X145461000Y-107794411D01*
X145425068Y-107613771D01*
X145413358Y-107585500D01*
X149155928Y-107585500D01*
X149168188Y-107709982D01*
X149204498Y-107829680D01*
X149263463Y-107939994D01*
X149342815Y-108036685D01*
X149439506Y-108116037D01*
X149549820Y-108175002D01*
X149669518Y-108211312D01*
X149794000Y-108223572D01*
X150170750Y-108220500D01*
X150329500Y-108061750D01*
X150329500Y-106362500D01*
X150583500Y-106362500D01*
X150583500Y-108061750D01*
X150742250Y-108220500D01*
X151119000Y-108223572D01*
X151243482Y-108211312D01*
X151363180Y-108175002D01*
X151473494Y-108116037D01*
X151570185Y-108036685D01*
X151649537Y-107939994D01*
X151708502Y-107829680D01*
X151744812Y-107709982D01*
X151757072Y-107585500D01*
X151754000Y-106521250D01*
X151595250Y-106362500D01*
X150583500Y-106362500D01*
X150329500Y-106362500D01*
X149317750Y-106362500D01*
X149159000Y-106521250D01*
X149155928Y-107585500D01*
X145413358Y-107585500D01*
X145354586Y-107443611D01*
X145321418Y-107393971D01*
X145876000Y-107395572D01*
X146000482Y-107383312D01*
X146120180Y-107347002D01*
X146230494Y-107288037D01*
X146327185Y-107208685D01*
X146406537Y-107111994D01*
X146465502Y-107001680D01*
X146501812Y-106881982D01*
X146514072Y-106757500D01*
X146511000Y-106380750D01*
X146352250Y-106222000D01*
X144653000Y-106222000D01*
X144653000Y-106242000D01*
X144399000Y-106242000D01*
X144399000Y-106222000D01*
X142699750Y-106222000D01*
X142541000Y-106380750D01*
X142537928Y-106757500D01*
X142550188Y-106881982D01*
X142586498Y-107001680D01*
X142645463Y-107111994D01*
X142724815Y-107208685D01*
X142821506Y-107288037D01*
X142931820Y-107347002D01*
X143051518Y-107383312D01*
X143176000Y-107395572D01*
X143730582Y-107393971D01*
X143697414Y-107443611D01*
X143626932Y-107613771D01*
X143591000Y-107794411D01*
X143591000Y-107919428D01*
X143425999Y-107919428D01*
X143252745Y-107936492D01*
X143086149Y-107987028D01*
X142932613Y-108069095D01*
X142798038Y-108179538D01*
X142730939Y-108261298D01*
X142611887Y-108163595D01*
X142458351Y-108081528D01*
X142291755Y-108030992D01*
X142118501Y-108013928D01*
X141218499Y-108013928D01*
X141045245Y-108030992D01*
X140878649Y-108081528D01*
X140725113Y-108163595D01*
X140590538Y-108274038D01*
X140480095Y-108408613D01*
X140398028Y-108562149D01*
X140347492Y-108728745D01*
X140330428Y-108901999D01*
X140330428Y-109602001D01*
X140347492Y-109775255D01*
X140398028Y-109941851D01*
X140480095Y-110095387D01*
X140590538Y-110229962D01*
X140617391Y-110252000D01*
X140590538Y-110274038D01*
X140480095Y-110408613D01*
X140398028Y-110562149D01*
X140347492Y-110728745D01*
X140330428Y-110901999D01*
X140330428Y-111602001D01*
X140347492Y-111775255D01*
X140398028Y-111941851D01*
X140480095Y-112095387D01*
X140590538Y-112229962D01*
X140681427Y-112304553D01*
X140645188Y-112424018D01*
X140632928Y-112548500D01*
X140632928Y-113448500D01*
X140645188Y-113572982D01*
X140681498Y-113692680D01*
X140740463Y-113802994D01*
X140819815Y-113899685D01*
X140916506Y-113979037D01*
X141026820Y-114038002D01*
X141146518Y-114074312D01*
X141271000Y-114086572D01*
X141684270Y-114086572D01*
X141736098Y-114138400D01*
X141690463Y-114194006D01*
X141631498Y-114304320D01*
X141595188Y-114424018D01*
X141582928Y-114548500D01*
X141582928Y-115448500D01*
X141595188Y-115572982D01*
X141631498Y-115692680D01*
X141634036Y-115697428D01*
X141091499Y-115697428D01*
X140918245Y-115714492D01*
X140751649Y-115765028D01*
X140598113Y-115847095D01*
X140463538Y-115957538D01*
X140353095Y-116092113D01*
X140271028Y-116245649D01*
X140220492Y-116412245D01*
X140203428Y-116585499D01*
X140203428Y-117285501D01*
X140220492Y-117458755D01*
X140271028Y-117625351D01*
X140353095Y-117778887D01*
X140463538Y-117913462D01*
X140490391Y-117935500D01*
X140463538Y-117957538D01*
X140353095Y-118092113D01*
X140271028Y-118245649D01*
X140220492Y-118412245D01*
X140203428Y-118585499D01*
X140203428Y-119285501D01*
X140220492Y-119458755D01*
X140271028Y-119625351D01*
X140353095Y-119778887D01*
X140463538Y-119913462D01*
X140598113Y-120023905D01*
X140751649Y-120105972D01*
X140762926Y-120109393D01*
X140661985Y-120140013D01*
X140530060Y-120210529D01*
X140414427Y-120305427D01*
X140319529Y-120421060D01*
X140249013Y-120552985D01*
X140205590Y-120696132D01*
X140190928Y-120845000D01*
X140190928Y-121095000D01*
X140197330Y-121160000D01*
X139662976Y-121160000D01*
X139618405Y-121076613D01*
X139507962Y-120942038D01*
X139373387Y-120831595D01*
X139219851Y-120749528D01*
X139053255Y-120698992D01*
X138880001Y-120681928D01*
X137979999Y-120681928D01*
X137806745Y-120698992D01*
X137640149Y-120749528D01*
X137486613Y-120831595D01*
X137352038Y-120942038D01*
X137241595Y-121076613D01*
X137197024Y-121160000D01*
X137028043Y-121160000D01*
X136924637Y-121005241D01*
X136724759Y-120805363D01*
X136489727Y-120648320D01*
X136228574Y-120540147D01*
X135951335Y-120485000D01*
X135668665Y-120485000D01*
X135391426Y-120540147D01*
X135130273Y-120648320D01*
X134895241Y-120805363D01*
X134695363Y-121005241D01*
X134538320Y-121240273D01*
X134430147Y-121501426D01*
X134375000Y-121778665D01*
X132245000Y-121778665D01*
X132189853Y-121501426D01*
X132081680Y-121240273D01*
X131924637Y-121005241D01*
X131724759Y-120805363D01*
X131489727Y-120648320D01*
X131228574Y-120540147D01*
X130951335Y-120485000D01*
X130668665Y-120485000D01*
X130391426Y-120540147D01*
X130130273Y-120648320D01*
X129895241Y-120805363D01*
X129695363Y-121005241D01*
X129538320Y-121240273D01*
X129430147Y-121501426D01*
X129375000Y-121778665D01*
X127936500Y-121778665D01*
X127936500Y-121758967D01*
X127873668Y-121443088D01*
X127750418Y-121145537D01*
X127571487Y-120877748D01*
X127343752Y-120650013D01*
X127075963Y-120471082D01*
X126778412Y-120347832D01*
X126462533Y-120285000D01*
X126140467Y-120285000D01*
X125824588Y-120347832D01*
X125527037Y-120471082D01*
X125259248Y-120650013D01*
X125031513Y-120877748D01*
X124852582Y-121145537D01*
X124729332Y-121443088D01*
X124666500Y-121758967D01*
X122580000Y-121758967D01*
X122580000Y-105432500D01*
X142537928Y-105432500D01*
X142541000Y-105809250D01*
X142699750Y-105968000D01*
X144399000Y-105968000D01*
X144399000Y-104956250D01*
X144653000Y-104956250D01*
X144653000Y-105968000D01*
X146352250Y-105968000D01*
X146511000Y-105809250D01*
X146514072Y-105432500D01*
X146501812Y-105308018D01*
X146465502Y-105188320D01*
X146406537Y-105078006D01*
X146327185Y-104981315D01*
X146230494Y-104901963D01*
X146199695Y-104885500D01*
X149155928Y-104885500D01*
X149159000Y-105949750D01*
X149317750Y-106108500D01*
X150329500Y-106108500D01*
X150329500Y-104409250D01*
X150583500Y-104409250D01*
X150583500Y-106108500D01*
X151595250Y-106108500D01*
X151754000Y-105949750D01*
X151756350Y-105135499D01*
X152280928Y-105135499D01*
X152280928Y-107335501D01*
X152297992Y-107508755D01*
X152348528Y-107675351D01*
X152430595Y-107828887D01*
X152541038Y-107963462D01*
X152675613Y-108073905D01*
X152829149Y-108155972D01*
X152995745Y-108206508D01*
X153168999Y-108223572D01*
X153994001Y-108223572D01*
X154167255Y-108206508D01*
X154333851Y-108155972D01*
X154487387Y-108073905D01*
X154621962Y-107963462D01*
X154732405Y-107828887D01*
X154814472Y-107675351D01*
X154841727Y-107585500D01*
X162071428Y-107585500D01*
X162083688Y-107709982D01*
X162119998Y-107829680D01*
X162178963Y-107939994D01*
X162258315Y-108036685D01*
X162355006Y-108116037D01*
X162465320Y-108175002D01*
X162585018Y-108211312D01*
X162709500Y-108223572D01*
X163086250Y-108220500D01*
X163245000Y-108061750D01*
X163245000Y-106362500D01*
X163499000Y-106362500D01*
X163499000Y-108061750D01*
X163657750Y-108220500D01*
X164034500Y-108223572D01*
X164158982Y-108211312D01*
X164278680Y-108175002D01*
X164388994Y-108116037D01*
X164485685Y-108036685D01*
X164565037Y-107939994D01*
X164624002Y-107829680D01*
X164660312Y-107709982D01*
X164672572Y-107585500D01*
X164669500Y-106521250D01*
X164510750Y-106362500D01*
X163499000Y-106362500D01*
X163245000Y-106362500D01*
X162233250Y-106362500D01*
X162074500Y-106521250D01*
X162071428Y-107585500D01*
X154841727Y-107585500D01*
X154865008Y-107508755D01*
X154882072Y-107335501D01*
X154882072Y-107162447D01*
X155022229Y-107134568D01*
X155192389Y-107064086D01*
X155345528Y-106961762D01*
X155475762Y-106831528D01*
X155578086Y-106678389D01*
X155648568Y-106508229D01*
X155684500Y-106327589D01*
X155684500Y-106143411D01*
X155648568Y-105962771D01*
X155578086Y-105792611D01*
X155475762Y-105639472D01*
X155345528Y-105509238D01*
X155192389Y-105406914D01*
X155022229Y-105336432D01*
X154882072Y-105308553D01*
X154882072Y-105135499D01*
X154865008Y-104962245D01*
X154841728Y-104885500D01*
X162071428Y-104885500D01*
X162074500Y-105949750D01*
X162233250Y-106108500D01*
X163245000Y-106108500D01*
X163245000Y-104409250D01*
X163499000Y-104409250D01*
X163499000Y-106108500D01*
X164510750Y-106108500D01*
X164669500Y-105949750D01*
X164671850Y-105135499D01*
X165196428Y-105135499D01*
X165196428Y-107335501D01*
X165213492Y-107508755D01*
X165264028Y-107675351D01*
X165346095Y-107828887D01*
X165456538Y-107963462D01*
X165591113Y-108073905D01*
X165744649Y-108155972D01*
X165911245Y-108206508D01*
X166084499Y-108223572D01*
X166909501Y-108223572D01*
X167082755Y-108206508D01*
X167249351Y-108155972D01*
X167402887Y-108073905D01*
X167537462Y-107963462D01*
X167647905Y-107828887D01*
X167729972Y-107675351D01*
X167780508Y-107508755D01*
X167797572Y-107335501D01*
X167797572Y-107170500D01*
X167820161Y-107170500D01*
X167878095Y-107278886D01*
X167988538Y-107413462D01*
X168123114Y-107523905D01*
X168276650Y-107605972D01*
X168443246Y-107656508D01*
X168616500Y-107673572D01*
X171616500Y-107673572D01*
X171789754Y-107656508D01*
X171956350Y-107605972D01*
X172109886Y-107523905D01*
X172244462Y-107413462D01*
X172354905Y-107278886D01*
X172436972Y-107125350D01*
X172464227Y-107035500D01*
X173128428Y-107035500D01*
X173140688Y-107159982D01*
X173176998Y-107279680D01*
X173235963Y-107389994D01*
X173315315Y-107486685D01*
X173412006Y-107566037D01*
X173522320Y-107625002D01*
X173642018Y-107661312D01*
X173766500Y-107673572D01*
X175230750Y-107670500D01*
X175389500Y-107511750D01*
X175389500Y-106362500D01*
X175643500Y-106362500D01*
X175643500Y-107511750D01*
X175802250Y-107670500D01*
X177266500Y-107673572D01*
X177390982Y-107661312D01*
X177510680Y-107625002D01*
X177620994Y-107566037D01*
X177717685Y-107486685D01*
X177797037Y-107389994D01*
X177856002Y-107279680D01*
X177892312Y-107159982D01*
X177904572Y-107035500D01*
X177901500Y-106521250D01*
X177742750Y-106362500D01*
X175643500Y-106362500D01*
X175389500Y-106362500D01*
X173290250Y-106362500D01*
X173131500Y-106521250D01*
X173128428Y-107035500D01*
X172464227Y-107035500D01*
X172487508Y-106958754D01*
X172504572Y-106785500D01*
X172504572Y-105685500D01*
X172487508Y-105512246D01*
X172464228Y-105435500D01*
X173128428Y-105435500D01*
X173131500Y-105949750D01*
X173290250Y-106108500D01*
X175389500Y-106108500D01*
X175389500Y-104959250D01*
X175643500Y-104959250D01*
X175643500Y-106108500D01*
X177742750Y-106108500D01*
X177901500Y-105949750D01*
X177904572Y-105435500D01*
X177892312Y-105311018D01*
X177856002Y-105191320D01*
X177797037Y-105081006D01*
X177717685Y-104984315D01*
X177620994Y-104904963D01*
X177510680Y-104845998D01*
X177390982Y-104809688D01*
X177266500Y-104797428D01*
X175802250Y-104800500D01*
X175643500Y-104959250D01*
X175389500Y-104959250D01*
X175230750Y-104800500D01*
X173766500Y-104797428D01*
X173642018Y-104809688D01*
X173522320Y-104845998D01*
X173412006Y-104904963D01*
X173315315Y-104984315D01*
X173235963Y-105081006D01*
X173176998Y-105191320D01*
X173140688Y-105311018D01*
X173128428Y-105435500D01*
X172464228Y-105435500D01*
X172436972Y-105345650D01*
X172354905Y-105192114D01*
X172244462Y-105057538D01*
X172109886Y-104947095D01*
X171956350Y-104865028D01*
X171789754Y-104814492D01*
X171616500Y-104797428D01*
X168616500Y-104797428D01*
X168443246Y-104814492D01*
X168276650Y-104865028D01*
X168123114Y-104947095D01*
X167988538Y-105057538D01*
X167878095Y-105192114D01*
X167820161Y-105300500D01*
X167797572Y-105300500D01*
X167797572Y-105135499D01*
X167780508Y-104962245D01*
X167729972Y-104795649D01*
X167647905Y-104642113D01*
X167537462Y-104507538D01*
X167402887Y-104397095D01*
X167249351Y-104315028D01*
X167082755Y-104264492D01*
X166909501Y-104247428D01*
X166084499Y-104247428D01*
X165911245Y-104264492D01*
X165744649Y-104315028D01*
X165591113Y-104397095D01*
X165456538Y-104507538D01*
X165346095Y-104642113D01*
X165264028Y-104795649D01*
X165213492Y-104962245D01*
X165196428Y-105135499D01*
X164671850Y-105135499D01*
X164672572Y-104885500D01*
X164660312Y-104761018D01*
X164624002Y-104641320D01*
X164565037Y-104531006D01*
X164485685Y-104434315D01*
X164388994Y-104354963D01*
X164278680Y-104295998D01*
X164158982Y-104259688D01*
X164034500Y-104247428D01*
X163657750Y-104250500D01*
X163499000Y-104409250D01*
X163245000Y-104409250D01*
X163086250Y-104250500D01*
X162709500Y-104247428D01*
X162585018Y-104259688D01*
X162465320Y-104295998D01*
X162355006Y-104354963D01*
X162258315Y-104434315D01*
X162178963Y-104531006D01*
X162119998Y-104641320D01*
X162083688Y-104761018D01*
X162071428Y-104885500D01*
X154841728Y-104885500D01*
X154814472Y-104795649D01*
X154732405Y-104642113D01*
X154621962Y-104507538D01*
X154487387Y-104397095D01*
X154333851Y-104315028D01*
X154167255Y-104264492D01*
X153994001Y-104247428D01*
X153168999Y-104247428D01*
X152995745Y-104264492D01*
X152829149Y-104315028D01*
X152675613Y-104397095D01*
X152541038Y-104507538D01*
X152430595Y-104642113D01*
X152348528Y-104795649D01*
X152297992Y-104962245D01*
X152280928Y-105135499D01*
X151756350Y-105135499D01*
X151757072Y-104885500D01*
X151744812Y-104761018D01*
X151708502Y-104641320D01*
X151649537Y-104531006D01*
X151570185Y-104434315D01*
X151473494Y-104354963D01*
X151363180Y-104295998D01*
X151243482Y-104259688D01*
X151119000Y-104247428D01*
X150742250Y-104250500D01*
X150583500Y-104409250D01*
X150329500Y-104409250D01*
X150170750Y-104250500D01*
X149794000Y-104247428D01*
X149669518Y-104259688D01*
X149549820Y-104295998D01*
X149439506Y-104354963D01*
X149342815Y-104434315D01*
X149263463Y-104531006D01*
X149204498Y-104641320D01*
X149168188Y-104761018D01*
X149155928Y-104885500D01*
X146199695Y-104885500D01*
X146120180Y-104842998D01*
X146000482Y-104806688D01*
X145876000Y-104794428D01*
X144811750Y-104797500D01*
X144653000Y-104956250D01*
X144399000Y-104956250D01*
X144240250Y-104797500D01*
X143176000Y-104794428D01*
X143051518Y-104806688D01*
X142931820Y-104842998D01*
X142821506Y-104901963D01*
X142724815Y-104981315D01*
X142645463Y-105078006D01*
X142586498Y-105188320D01*
X142550188Y-105308018D01*
X142537928Y-105432500D01*
X122580000Y-105432500D01*
X122580000Y-100109872D01*
X124003000Y-100109872D01*
X124003000Y-100550128D01*
X124088890Y-100981925D01*
X124257369Y-101388669D01*
X124501962Y-101754729D01*
X124813271Y-102066038D01*
X125179331Y-102310631D01*
X125586075Y-102479110D01*
X126017872Y-102565000D01*
X126458128Y-102565000D01*
X126889925Y-102479110D01*
X127296669Y-102310631D01*
X127662729Y-102066038D01*
X127974038Y-101754729D01*
X128218631Y-101388669D01*
X128387110Y-100981925D01*
X128473000Y-100550128D01*
X128473000Y-100109872D01*
X197409000Y-100109872D01*
X197409000Y-100550128D01*
X197494890Y-100981925D01*
X197663369Y-101388669D01*
X197907962Y-101754729D01*
X198219271Y-102066038D01*
X198585331Y-102310631D01*
X198992075Y-102479110D01*
X199423872Y-102565000D01*
X199864128Y-102565000D01*
X200295925Y-102479110D01*
X200702669Y-102310631D01*
X201068729Y-102066038D01*
X201380038Y-101754729D01*
X201624631Y-101388669D01*
X201793110Y-100981925D01*
X201879000Y-100550128D01*
X201879000Y-100109872D01*
X201793110Y-99678075D01*
X201624631Y-99271331D01*
X201380038Y-98905271D01*
X201068729Y-98593962D01*
X200702669Y-98349369D01*
X200295925Y-98180890D01*
X199864128Y-98095000D01*
X199423872Y-98095000D01*
X198992075Y-98180890D01*
X198585331Y-98349369D01*
X198219271Y-98593962D01*
X197907962Y-98905271D01*
X197663369Y-99271331D01*
X197494890Y-99678075D01*
X197409000Y-100109872D01*
X128473000Y-100109872D01*
X128387110Y-99678075D01*
X128218631Y-99271331D01*
X127974038Y-98905271D01*
X127662729Y-98593962D01*
X127296669Y-98349369D01*
X126889925Y-98180890D01*
X126458128Y-98095000D01*
X126017872Y-98095000D01*
X125586075Y-98180890D01*
X125179331Y-98349369D01*
X124813271Y-98593962D01*
X124501962Y-98905271D01*
X124257369Y-99271331D01*
X124088890Y-99678075D01*
X124003000Y-100109872D01*
X122580000Y-100109872D01*
X122580000Y-96545000D01*
X203175001Y-96545000D01*
X203175000Y-147295000D01*
G04 #@! TA.AperFunction,Conductor*
D19*
G36*
X203175000Y-147295000D02*
G01*
X122580000Y-147295000D01*
X122580000Y-143289872D01*
X123749000Y-143289872D01*
X123749000Y-143730128D01*
X123834890Y-144161925D01*
X124003369Y-144568669D01*
X124247962Y-144934729D01*
X124559271Y-145246038D01*
X124925331Y-145490631D01*
X125332075Y-145659110D01*
X125763872Y-145745000D01*
X126204128Y-145745000D01*
X126635925Y-145659110D01*
X127042669Y-145490631D01*
X127408729Y-145246038D01*
X127720038Y-144934729D01*
X127964631Y-144568669D01*
X128133110Y-144161925D01*
X128219000Y-143730128D01*
X128219000Y-143289872D01*
X197409000Y-143289872D01*
X197409000Y-143730128D01*
X197494890Y-144161925D01*
X197663369Y-144568669D01*
X197907962Y-144934729D01*
X198219271Y-145246038D01*
X198585331Y-145490631D01*
X198992075Y-145659110D01*
X199423872Y-145745000D01*
X199864128Y-145745000D01*
X200295925Y-145659110D01*
X200702669Y-145490631D01*
X201068729Y-145246038D01*
X201380038Y-144934729D01*
X201624631Y-144568669D01*
X201793110Y-144161925D01*
X201879000Y-143730128D01*
X201879000Y-143289872D01*
X201793110Y-142858075D01*
X201624631Y-142451331D01*
X201380038Y-142085271D01*
X201068729Y-141773962D01*
X200702669Y-141529369D01*
X200295925Y-141360890D01*
X199864128Y-141275000D01*
X199423872Y-141275000D01*
X198992075Y-141360890D01*
X198585331Y-141529369D01*
X198219271Y-141773962D01*
X197907962Y-142085271D01*
X197663369Y-142451331D01*
X197494890Y-142858075D01*
X197409000Y-143289872D01*
X128219000Y-143289872D01*
X128133110Y-142858075D01*
X127964631Y-142451331D01*
X127720038Y-142085271D01*
X127408729Y-141773962D01*
X127042669Y-141529369D01*
X126635925Y-141360890D01*
X126204128Y-141275000D01*
X125763872Y-141275000D01*
X125332075Y-141360890D01*
X124925331Y-141529369D01*
X124559271Y-141773962D01*
X124247962Y-142085271D01*
X124003369Y-142451331D01*
X123834890Y-142858075D01*
X123749000Y-143289872D01*
X122580000Y-143289872D01*
X122580000Y-138700500D01*
X150806928Y-138700500D01*
X150819188Y-138824982D01*
X150855498Y-138944680D01*
X150914463Y-139054994D01*
X150993815Y-139151685D01*
X151090506Y-139231037D01*
X151200820Y-139290002D01*
X151320518Y-139326312D01*
X151445000Y-139338572D01*
X151821750Y-139335500D01*
X151980500Y-139176750D01*
X151980500Y-137477500D01*
X152234500Y-137477500D01*
X152234500Y-139176750D01*
X152393250Y-139335500D01*
X152770000Y-139338572D01*
X152894482Y-139326312D01*
X153014180Y-139290002D01*
X153124494Y-139231037D01*
X153221185Y-139151685D01*
X153300537Y-139054994D01*
X153359502Y-138944680D01*
X153395812Y-138824982D01*
X153408072Y-138700500D01*
X153405000Y-137636250D01*
X153246250Y-137477500D01*
X152234500Y-137477500D01*
X151980500Y-137477500D01*
X150968750Y-137477500D01*
X150810000Y-137636250D01*
X150806928Y-138700500D01*
X122580000Y-138700500D01*
X122580000Y-136000500D01*
X150806928Y-136000500D01*
X150810000Y-137064750D01*
X150968750Y-137223500D01*
X151980500Y-137223500D01*
X151980500Y-135524250D01*
X152234500Y-135524250D01*
X152234500Y-137223500D01*
X153246250Y-137223500D01*
X153405000Y-137064750D01*
X153407350Y-136250499D01*
X153931928Y-136250499D01*
X153931928Y-138450501D01*
X153948992Y-138623755D01*
X153999528Y-138790351D01*
X154081595Y-138943887D01*
X154192038Y-139078462D01*
X154326613Y-139188905D01*
X154480149Y-139270972D01*
X154646745Y-139321508D01*
X154819999Y-139338572D01*
X155645001Y-139338572D01*
X155818255Y-139321508D01*
X155984851Y-139270972D01*
X156138387Y-139188905D01*
X156272962Y-139078462D01*
X156383405Y-138943887D01*
X156465472Y-138790351D01*
X156492727Y-138700500D01*
X162007928Y-138700500D01*
X162020188Y-138824982D01*
X162056498Y-138944680D01*
X162115463Y-139054994D01*
X162194815Y-139151685D01*
X162291506Y-139231037D01*
X162401820Y-139290002D01*
X162521518Y-139326312D01*
X162646000Y-139338572D01*
X163022750Y-139335500D01*
X163181500Y-139176750D01*
X163181500Y-137477500D01*
X163435500Y-137477500D01*
X163435500Y-139176750D01*
X163594250Y-139335500D01*
X163971000Y-139338572D01*
X164095482Y-139326312D01*
X164215180Y-139290002D01*
X164325494Y-139231037D01*
X164422185Y-139151685D01*
X164501537Y-139054994D01*
X164560502Y-138944680D01*
X164596812Y-138824982D01*
X164609072Y-138700500D01*
X164606000Y-137636250D01*
X164447250Y-137477500D01*
X163435500Y-137477500D01*
X163181500Y-137477500D01*
X162169750Y-137477500D01*
X162011000Y-137636250D01*
X162007928Y-138700500D01*
X156492727Y-138700500D01*
X156516008Y-138623755D01*
X156533072Y-138450501D01*
X156533072Y-138285500D01*
X156619589Y-138285500D01*
X156800229Y-138249568D01*
X156970389Y-138179086D01*
X157123528Y-138076762D01*
X157253762Y-137946528D01*
X157356086Y-137793389D01*
X157426568Y-137623229D01*
X157462500Y-137442589D01*
X157462500Y-137258411D01*
X157426568Y-137077771D01*
X157356086Y-136907611D01*
X157253762Y-136754472D01*
X157123528Y-136624238D01*
X156970389Y-136521914D01*
X156800229Y-136451432D01*
X156619589Y-136415500D01*
X156533072Y-136415500D01*
X156533072Y-136250499D01*
X156516008Y-136077245D01*
X156492728Y-136000500D01*
X162007928Y-136000500D01*
X162011000Y-137064750D01*
X162169750Y-137223500D01*
X163181500Y-137223500D01*
X163181500Y-135524250D01*
X163435500Y-135524250D01*
X163435500Y-137223500D01*
X164447250Y-137223500D01*
X164606000Y-137064750D01*
X164608350Y-136250499D01*
X165132928Y-136250499D01*
X165132928Y-138450501D01*
X165149992Y-138623755D01*
X165200528Y-138790351D01*
X165282595Y-138943887D01*
X165393038Y-139078462D01*
X165527613Y-139188905D01*
X165681149Y-139270972D01*
X165847745Y-139321508D01*
X166020999Y-139338572D01*
X166846001Y-139338572D01*
X167019255Y-139321508D01*
X167185851Y-139270972D01*
X167339387Y-139188905D01*
X167473962Y-139078462D01*
X167584405Y-138943887D01*
X167666472Y-138790351D01*
X167717008Y-138623755D01*
X167734072Y-138450501D01*
X167734072Y-138362038D01*
X167751095Y-138393886D01*
X167861538Y-138528462D01*
X167996114Y-138638905D01*
X168149650Y-138720972D01*
X168316246Y-138771508D01*
X168489500Y-138788572D01*
X171489500Y-138788572D01*
X171662754Y-138771508D01*
X171829350Y-138720972D01*
X171982886Y-138638905D01*
X172117462Y-138528462D01*
X172227905Y-138393886D01*
X172309972Y-138240350D01*
X172337227Y-138150500D01*
X173001428Y-138150500D01*
X173013688Y-138274982D01*
X173049998Y-138394680D01*
X173108963Y-138504994D01*
X173188315Y-138601685D01*
X173285006Y-138681037D01*
X173395320Y-138740002D01*
X173515018Y-138776312D01*
X173639500Y-138788572D01*
X175103750Y-138785500D01*
X175262500Y-138626750D01*
X175262500Y-137477500D01*
X175516500Y-137477500D01*
X175516500Y-138626750D01*
X175675250Y-138785500D01*
X177139500Y-138788572D01*
X177263982Y-138776312D01*
X177383680Y-138740002D01*
X177493994Y-138681037D01*
X177590685Y-138601685D01*
X177670037Y-138504994D01*
X177729002Y-138394680D01*
X177765312Y-138274982D01*
X177777572Y-138150500D01*
X177774500Y-137636250D01*
X177615750Y-137477500D01*
X175516500Y-137477500D01*
X175262500Y-137477500D01*
X173163250Y-137477500D01*
X173004500Y-137636250D01*
X173001428Y-138150500D01*
X172337227Y-138150500D01*
X172360508Y-138073754D01*
X172377572Y-137900500D01*
X172377572Y-136800500D01*
X172360508Y-136627246D01*
X172337228Y-136550500D01*
X173001428Y-136550500D01*
X173004500Y-137064750D01*
X173163250Y-137223500D01*
X175262500Y-137223500D01*
X175262500Y-136074250D01*
X175516500Y-136074250D01*
X175516500Y-137223500D01*
X177615750Y-137223500D01*
X177774500Y-137064750D01*
X177777572Y-136550500D01*
X177765312Y-136426018D01*
X177729002Y-136306320D01*
X177670037Y-136196006D01*
X177590685Y-136099315D01*
X177493994Y-136019963D01*
X177383680Y-135960998D01*
X177263982Y-135924688D01*
X177139500Y-135912428D01*
X175675250Y-135915500D01*
X175516500Y-136074250D01*
X175262500Y-136074250D01*
X175103750Y-135915500D01*
X173639500Y-135912428D01*
X173515018Y-135924688D01*
X173395320Y-135960998D01*
X173285006Y-136019963D01*
X173188315Y-136099315D01*
X173108963Y-136196006D01*
X173049998Y-136306320D01*
X173013688Y-136426018D01*
X173001428Y-136550500D01*
X172337228Y-136550500D01*
X172309972Y-136460650D01*
X172227905Y-136307114D01*
X172117462Y-136172538D01*
X171982886Y-136062095D01*
X171829350Y-135980028D01*
X171662754Y-135929492D01*
X171489500Y-135912428D01*
X168489500Y-135912428D01*
X168316246Y-135929492D01*
X168149650Y-135980028D01*
X167996114Y-136062095D01*
X167861538Y-136172538D01*
X167751095Y-136307114D01*
X167734072Y-136338962D01*
X167734072Y-136250499D01*
X167717008Y-136077245D01*
X167666472Y-135910649D01*
X167584405Y-135757113D01*
X167473962Y-135622538D01*
X167339387Y-135512095D01*
X167185851Y-135430028D01*
X167019255Y-135379492D01*
X166846001Y-135362428D01*
X166020999Y-135362428D01*
X165847745Y-135379492D01*
X165681149Y-135430028D01*
X165527613Y-135512095D01*
X165393038Y-135622538D01*
X165282595Y-135757113D01*
X165200528Y-135910649D01*
X165149992Y-136077245D01*
X165132928Y-136250499D01*
X164608350Y-136250499D01*
X164609072Y-136000500D01*
X164596812Y-135876018D01*
X164560502Y-135756320D01*
X164501537Y-135646006D01*
X164422185Y-135549315D01*
X164325494Y-135469963D01*
X164215180Y-135410998D01*
X164095482Y-135374688D01*
X163971000Y-135362428D01*
X163594250Y-135365500D01*
X163435500Y-135524250D01*
X163181500Y-135524250D01*
X163022750Y-135365500D01*
X162646000Y-135362428D01*
X162521518Y-135374688D01*
X162401820Y-135410998D01*
X162291506Y-135469963D01*
X162194815Y-135549315D01*
X162115463Y-135646006D01*
X162056498Y-135756320D01*
X162020188Y-135876018D01*
X162007928Y-136000500D01*
X156492728Y-136000500D01*
X156465472Y-135910649D01*
X156383405Y-135757113D01*
X156272962Y-135622538D01*
X156138387Y-135512095D01*
X155984851Y-135430028D01*
X155818255Y-135379492D01*
X155645001Y-135362428D01*
X154819999Y-135362428D01*
X154646745Y-135379492D01*
X154480149Y-135430028D01*
X154326613Y-135512095D01*
X154192038Y-135622538D01*
X154081595Y-135757113D01*
X153999528Y-135910649D01*
X153948992Y-136077245D01*
X153931928Y-136250499D01*
X153407350Y-136250499D01*
X153408072Y-136000500D01*
X153395812Y-135876018D01*
X153359502Y-135756320D01*
X153300537Y-135646006D01*
X153221185Y-135549315D01*
X153124494Y-135469963D01*
X153014180Y-135410998D01*
X152894482Y-135374688D01*
X152770000Y-135362428D01*
X152393250Y-135365500D01*
X152234500Y-135524250D01*
X151980500Y-135524250D01*
X151821750Y-135365500D01*
X151445000Y-135362428D01*
X151320518Y-135374688D01*
X151200820Y-135410998D01*
X151090506Y-135469963D01*
X150993815Y-135549315D01*
X150914463Y-135646006D01*
X150855498Y-135756320D01*
X150819188Y-135876018D01*
X150806928Y-136000500D01*
X122580000Y-136000500D01*
X122580000Y-134915000D01*
X144696928Y-134915000D01*
X144709188Y-135039482D01*
X144745498Y-135159180D01*
X144804463Y-135269494D01*
X144883815Y-135366185D01*
X144980506Y-135445537D01*
X145090820Y-135504502D01*
X145210518Y-135540812D01*
X145335000Y-135553072D01*
X146399250Y-135550000D01*
X146558000Y-135391250D01*
X146558000Y-134379500D01*
X146812000Y-134379500D01*
X146812000Y-135391250D01*
X146970750Y-135550000D01*
X148035000Y-135553072D01*
X148159482Y-135540812D01*
X148279180Y-135504502D01*
X148389494Y-135445537D01*
X148486185Y-135366185D01*
X148565537Y-135269494D01*
X148624502Y-135159180D01*
X148660812Y-135039482D01*
X148673072Y-134915000D01*
X148670000Y-134538250D01*
X148511250Y-134379500D01*
X146812000Y-134379500D01*
X146558000Y-134379500D01*
X144858750Y-134379500D01*
X144700000Y-134538250D01*
X144696928Y-134915000D01*
X122580000Y-134915000D01*
X122580000Y-133590000D01*
X144696928Y-133590000D01*
X144700000Y-133966750D01*
X144858750Y-134125500D01*
X146558000Y-134125500D01*
X146558000Y-133113750D01*
X146812000Y-133113750D01*
X146812000Y-134125500D01*
X148511250Y-134125500D01*
X148670000Y-133966750D01*
X148673072Y-133590000D01*
X148660812Y-133465518D01*
X148624502Y-133345820D01*
X148565537Y-133235506D01*
X148486185Y-133138815D01*
X148389494Y-133059463D01*
X148279180Y-133000498D01*
X148159482Y-132964188D01*
X148035000Y-132951928D01*
X146970750Y-132955000D01*
X146812000Y-133113750D01*
X146558000Y-133113750D01*
X146399250Y-132955000D01*
X145335000Y-132951928D01*
X145210518Y-132964188D01*
X145090820Y-133000498D01*
X144980506Y-133059463D01*
X144883815Y-133138815D01*
X144804463Y-133235506D01*
X144745498Y-133345820D01*
X144709188Y-133465518D01*
X144696928Y-133590000D01*
X122580000Y-133590000D01*
X122580000Y-128071913D01*
X125409192Y-128071913D01*
X125504956Y-128336314D01*
X125794571Y-128477204D01*
X126106108Y-128558884D01*
X126427595Y-128578218D01*
X126746675Y-128534461D01*
X127051088Y-128429295D01*
X127225044Y-128336314D01*
X127320808Y-128071913D01*
X126365000Y-127116105D01*
X125409192Y-128071913D01*
X122580000Y-128071913D01*
X122580000Y-126999095D01*
X124723282Y-126999095D01*
X124767039Y-127318175D01*
X124872205Y-127622588D01*
X124965186Y-127796544D01*
X125229587Y-127892308D01*
X126185395Y-126936500D01*
X126544605Y-126936500D01*
X127500413Y-127892308D01*
X127764814Y-127796544D01*
X127905704Y-127506929D01*
X127987384Y-127195392D01*
X128006718Y-126873905D01*
X127962961Y-126554825D01*
X127857795Y-126250412D01*
X127764814Y-126076456D01*
X127500413Y-125980692D01*
X126544605Y-126936500D01*
X126185395Y-126936500D01*
X125229587Y-125980692D01*
X124965186Y-126076456D01*
X124824296Y-126366071D01*
X124742616Y-126677608D01*
X124723282Y-126999095D01*
X122580000Y-126999095D01*
X122580000Y-125801087D01*
X125409192Y-125801087D01*
X126365000Y-126756895D01*
X127320808Y-125801087D01*
X127225044Y-125536686D01*
X126935429Y-125395796D01*
X126623892Y-125314116D01*
X126302405Y-125294782D01*
X125983325Y-125338539D01*
X125678912Y-125443705D01*
X125504956Y-125536686D01*
X125409192Y-125801087D01*
X122580000Y-125801087D01*
X122580000Y-124520000D01*
X137091928Y-124520000D01*
X137104188Y-124644482D01*
X137140498Y-124764180D01*
X137199463Y-124874494D01*
X137278815Y-124971185D01*
X137375506Y-125050537D01*
X137485820Y-125109502D01*
X137605518Y-125145812D01*
X137730000Y-125158072D01*
X138144250Y-125155000D01*
X138303000Y-124996250D01*
X138303000Y-124047000D01*
X138557000Y-124047000D01*
X138557000Y-124996250D01*
X138715750Y-125155000D01*
X139130000Y-125158072D01*
X139254482Y-125145812D01*
X139374180Y-125109502D01*
X139484494Y-125050537D01*
X139581185Y-124971185D01*
X139660537Y-124874494D01*
X139719502Y-124764180D01*
X139755812Y-124644482D01*
X139768072Y-124520000D01*
X139765000Y-124205750D01*
X139606250Y-124047000D01*
X138557000Y-124047000D01*
X138303000Y-124047000D01*
X137253750Y-124047000D01*
X137095000Y-124205750D01*
X137091928Y-124520000D01*
X122580000Y-124520000D01*
X122580000Y-121758967D01*
X124666500Y-121758967D01*
X124666500Y-122081033D01*
X124729332Y-122396912D01*
X124852582Y-122694463D01*
X125031513Y-122962252D01*
X125259248Y-123189987D01*
X125527037Y-123368918D01*
X125824588Y-123492168D01*
X126140467Y-123555000D01*
X126462533Y-123555000D01*
X126778412Y-123492168D01*
X127075963Y-123368918D01*
X127343752Y-123189987D01*
X127571487Y-122962252D01*
X127750418Y-122694463D01*
X127873668Y-122396912D01*
X127936500Y-122081033D01*
X127936500Y-121778665D01*
X129375000Y-121778665D01*
X129375000Y-122061335D01*
X129430147Y-122338574D01*
X129538320Y-122599727D01*
X129695363Y-122834759D01*
X129895241Y-123034637D01*
X130130273Y-123191680D01*
X130391426Y-123299853D01*
X130668665Y-123355000D01*
X130951335Y-123355000D01*
X131228574Y-123299853D01*
X131489727Y-123191680D01*
X131724759Y-123034637D01*
X131924637Y-122834759D01*
X132081680Y-122599727D01*
X132189853Y-122338574D01*
X132245000Y-122061335D01*
X132245000Y-121778665D01*
X134375000Y-121778665D01*
X134375000Y-122061335D01*
X134430147Y-122338574D01*
X134538320Y-122599727D01*
X134695363Y-122834759D01*
X134895241Y-123034637D01*
X135130273Y-123191680D01*
X135391426Y-123299853D01*
X135668665Y-123355000D01*
X135951335Y-123355000D01*
X136228574Y-123299853D01*
X136489727Y-123191680D01*
X136724759Y-123034637D01*
X136924637Y-122834759D01*
X137028043Y-122680000D01*
X137197024Y-122680000D01*
X137241595Y-122763387D01*
X137308276Y-122844637D01*
X137278815Y-122868815D01*
X137199463Y-122965506D01*
X137140498Y-123075820D01*
X137104188Y-123195518D01*
X137091928Y-123320000D01*
X137095000Y-123634250D01*
X137253750Y-123793000D01*
X138303000Y-123793000D01*
X138303000Y-123773000D01*
X138557000Y-123773000D01*
X138557000Y-123793000D01*
X139606250Y-123793000D01*
X139765000Y-123634250D01*
X139768072Y-123320000D01*
X139755812Y-123195518D01*
X139719502Y-123075820D01*
X139660537Y-122965506D01*
X139581185Y-122868815D01*
X139551724Y-122844637D01*
X139618405Y-122763387D01*
X139662976Y-122680000D01*
X140197330Y-122680000D01*
X140190928Y-122745000D01*
X140190928Y-122995000D01*
X140205590Y-123143868D01*
X140249013Y-123287015D01*
X140319529Y-123418940D01*
X140414427Y-123534573D01*
X140530060Y-123629471D01*
X140661985Y-123699987D01*
X140739401Y-123723471D01*
X140712914Y-123763111D01*
X140642432Y-123933271D01*
X140606500Y-124113911D01*
X140606500Y-124298089D01*
X140642432Y-124478729D01*
X140712914Y-124648889D01*
X140815238Y-124802028D01*
X140945472Y-124932262D01*
X141098611Y-125034586D01*
X141268771Y-125105068D01*
X141449411Y-125141000D01*
X141633589Y-125141000D01*
X141814229Y-125105068D01*
X141984389Y-125034586D01*
X142137528Y-124932262D01*
X142267762Y-124802028D01*
X142370086Y-124648889D01*
X142440568Y-124478729D01*
X142476500Y-124298089D01*
X142476500Y-124113911D01*
X142440568Y-123933271D01*
X142370086Y-123763111D01*
X142343599Y-123723471D01*
X142421015Y-123699987D01*
X142552940Y-123629471D01*
X142668573Y-123534573D01*
X142679000Y-123521868D01*
X142689427Y-123534573D01*
X142805060Y-123629471D01*
X142936985Y-123699987D01*
X143080132Y-123743410D01*
X143229000Y-123758072D01*
X144404000Y-123758072D01*
X144552868Y-123743410D01*
X144553239Y-123743297D01*
X144586414Y-123823389D01*
X144657501Y-123929778D01*
X144657500Y-124592549D01*
X144587513Y-124723485D01*
X144544090Y-124866632D01*
X144529428Y-125015500D01*
X144529428Y-126190500D01*
X144544090Y-126339368D01*
X144587513Y-126482515D01*
X144658029Y-126614440D01*
X144752927Y-126730073D01*
X144765632Y-126740500D01*
X144752927Y-126750927D01*
X144658029Y-126866560D01*
X144639501Y-126901222D01*
X144516887Y-126800595D01*
X144363351Y-126718528D01*
X144196755Y-126667992D01*
X144023501Y-126650928D01*
X143123499Y-126650928D01*
X142950245Y-126667992D01*
X142783649Y-126718528D01*
X142630113Y-126800595D01*
X142495538Y-126911038D01*
X142385095Y-127045613D01*
X142303028Y-127199149D01*
X142252492Y-127365745D01*
X142235428Y-127538999D01*
X142235428Y-128239001D01*
X142252492Y-128412255D01*
X142303028Y-128578851D01*
X142385095Y-128732387D01*
X142495538Y-128866962D01*
X142522391Y-128889000D01*
X142495538Y-128911038D01*
X142385095Y-129045613D01*
X142303028Y-129199149D01*
X142252492Y-129365745D01*
X142235428Y-129538999D01*
X142235428Y-130239001D01*
X142252492Y-130412255D01*
X142303028Y-130578851D01*
X142385095Y-130732387D01*
X142495538Y-130866962D01*
X142630113Y-130977405D01*
X142783649Y-131059472D01*
X142950245Y-131110008D01*
X143123499Y-131127072D01*
X144023501Y-131127072D01*
X144196755Y-131110008D01*
X144363351Y-131059472D01*
X144516887Y-130977405D01*
X144651462Y-130866962D01*
X144696928Y-130811562D01*
X144696928Y-131540001D01*
X144713992Y-131713255D01*
X144764528Y-131879851D01*
X144846595Y-132033387D01*
X144957038Y-132167962D01*
X145091613Y-132278405D01*
X145245149Y-132360472D01*
X145411745Y-132411008D01*
X145584999Y-132428072D01*
X147785001Y-132428072D01*
X147958255Y-132411008D01*
X148124851Y-132360472D01*
X148278387Y-132278405D01*
X148412962Y-132167962D01*
X148523405Y-132033387D01*
X148605472Y-131879851D01*
X148656008Y-131713255D01*
X148673072Y-131540001D01*
X148673072Y-130714999D01*
X148656008Y-130541745D01*
X148605472Y-130375149D01*
X148523405Y-130221613D01*
X148412962Y-130087038D01*
X148278387Y-129976595D01*
X148124851Y-129894528D01*
X147958255Y-129843992D01*
X147791632Y-129827581D01*
X148809642Y-128809572D01*
X149611501Y-128809572D01*
X149784755Y-128792508D01*
X149951351Y-128741972D01*
X150104887Y-128659905D01*
X150239462Y-128549462D01*
X150349905Y-128414887D01*
X150431972Y-128261351D01*
X150482508Y-128094755D01*
X150499572Y-127921501D01*
X150499572Y-127221499D01*
X150482508Y-127048245D01*
X150431972Y-126881649D01*
X150349905Y-126728113D01*
X150239462Y-126593538D01*
X150212609Y-126571500D01*
X150239462Y-126549462D01*
X150332824Y-126435700D01*
X152619228Y-126435700D01*
X152619228Y-127335700D01*
X152631488Y-127460182D01*
X152667798Y-127579880D01*
X152726763Y-127690194D01*
X152806115Y-127786885D01*
X152902806Y-127866237D01*
X153013120Y-127925202D01*
X153132818Y-127961512D01*
X153257300Y-127973772D01*
X154057300Y-127973772D01*
X154181782Y-127961512D01*
X154245185Y-127942279D01*
X154215892Y-128038845D01*
X154198828Y-128212099D01*
X154198828Y-128912101D01*
X154215892Y-129085355D01*
X154266428Y-129251951D01*
X154348495Y-129405487D01*
X154458938Y-129540062D01*
X154485791Y-129562100D01*
X154458938Y-129584138D01*
X154348495Y-129718713D01*
X154266428Y-129872249D01*
X154215892Y-130038845D01*
X154198828Y-130212099D01*
X154198828Y-130912101D01*
X154215892Y-131085355D01*
X154266428Y-131251951D01*
X154348495Y-131405487D01*
X154458938Y-131540062D01*
X154593513Y-131650505D01*
X154747049Y-131732572D01*
X154913645Y-131783108D01*
X155086899Y-131800172D01*
X155986901Y-131800172D01*
X156160155Y-131783108D01*
X156326751Y-131732572D01*
X156480287Y-131650505D01*
X156614862Y-131540062D01*
X156657267Y-131488392D01*
X156739124Y-131472109D01*
X156791218Y-131487912D01*
X156915700Y-131500172D01*
X157815700Y-131500172D01*
X157940182Y-131487912D01*
X158059880Y-131451602D01*
X158170194Y-131392637D01*
X158266885Y-131313285D01*
X158346237Y-131216594D01*
X158405202Y-131106280D01*
X158441512Y-130986582D01*
X158453772Y-130862100D01*
X158453772Y-130350195D01*
X158464515Y-130363285D01*
X158561206Y-130442637D01*
X158671520Y-130501602D01*
X158791218Y-130537912D01*
X158915700Y-130550172D01*
X159815700Y-130550172D01*
X159940182Y-130537912D01*
X160059880Y-130501602D01*
X160140578Y-130458467D01*
X194453000Y-130458467D01*
X194453000Y-130780533D01*
X194515832Y-131096412D01*
X194639082Y-131393963D01*
X194818013Y-131661752D01*
X195045748Y-131889487D01*
X195313537Y-132068418D01*
X195611088Y-132191668D01*
X195926967Y-132254500D01*
X196249033Y-132254500D01*
X196564912Y-132191668D01*
X196862463Y-132068418D01*
X197130252Y-131889487D01*
X197357987Y-131661752D01*
X197536918Y-131393963D01*
X197660168Y-131096412D01*
X197723000Y-130780533D01*
X197723000Y-130458467D01*
X197660168Y-130142588D01*
X197536918Y-129845037D01*
X197357987Y-129577248D01*
X197130252Y-129349513D01*
X196862463Y-129170582D01*
X196564912Y-129047332D01*
X196249033Y-128984500D01*
X195926967Y-128984500D01*
X195611088Y-129047332D01*
X195313537Y-129170582D01*
X195045748Y-129349513D01*
X194818013Y-129577248D01*
X194639082Y-129845037D01*
X194515832Y-130142588D01*
X194453000Y-130458467D01*
X160140578Y-130458467D01*
X160170194Y-130442637D01*
X160266885Y-130363285D01*
X160346237Y-130266594D01*
X160405202Y-130156280D01*
X160441512Y-130036582D01*
X160453772Y-129912100D01*
X160453772Y-129112100D01*
X160441512Y-128987618D01*
X160405202Y-128867920D01*
X160346237Y-128757606D01*
X160266885Y-128660915D01*
X160170194Y-128581563D01*
X160125700Y-128557780D01*
X160125700Y-127171153D01*
X160195386Y-127133905D01*
X160329962Y-127023462D01*
X160440405Y-126888886D01*
X160458250Y-126855500D01*
X160620089Y-126855500D01*
X160800729Y-126819568D01*
X160970889Y-126749086D01*
X161124028Y-126646762D01*
X161254262Y-126516528D01*
X161356586Y-126363389D01*
X161427068Y-126193229D01*
X161463000Y-126012589D01*
X161463000Y-125828411D01*
X161439148Y-125708500D01*
X165440928Y-125708500D01*
X165440928Y-126508500D01*
X165453188Y-126632982D01*
X165489498Y-126752680D01*
X165548463Y-126862994D01*
X165627815Y-126959685D01*
X165724506Y-127039037D01*
X165769000Y-127062820D01*
X165769001Y-127803572D01*
X165668414Y-127954111D01*
X165597932Y-128124271D01*
X165562000Y-128304911D01*
X165562000Y-128489089D01*
X165597932Y-128669729D01*
X165668414Y-128839889D01*
X165770738Y-128993028D01*
X165900972Y-129123262D01*
X166054111Y-129225586D01*
X166224271Y-129296068D01*
X166404911Y-129332000D01*
X166589089Y-129332000D01*
X166769729Y-129296068D01*
X166939889Y-129225586D01*
X167093028Y-129123262D01*
X167223262Y-128993028D01*
X167325586Y-128839889D01*
X167396068Y-128669729D01*
X167432000Y-128489089D01*
X167432000Y-128304911D01*
X167396068Y-128124271D01*
X167331362Y-127968056D01*
X167484411Y-127998500D01*
X167668589Y-127998500D01*
X167722878Y-127987701D01*
X167724506Y-127989037D01*
X167834820Y-128048002D01*
X167954518Y-128084312D01*
X168079000Y-128096572D01*
X168979000Y-128096572D01*
X169103482Y-128084312D01*
X169223180Y-128048002D01*
X169333494Y-127989037D01*
X169430185Y-127909685D01*
X169509537Y-127812994D01*
X169568502Y-127702680D01*
X169604812Y-127582982D01*
X169617072Y-127458500D01*
X169617072Y-126658500D01*
X169604812Y-126534018D01*
X169568502Y-126414320D01*
X169509537Y-126304006D01*
X169430185Y-126207315D01*
X169333494Y-126127963D01*
X169297082Y-126108500D01*
X169306598Y-126103413D01*
X181225692Y-126103413D01*
X181321456Y-126367814D01*
X181611071Y-126508704D01*
X181922608Y-126590384D01*
X182244095Y-126609718D01*
X182563175Y-126565961D01*
X182867588Y-126460795D01*
X183041544Y-126367814D01*
X183137308Y-126103413D01*
X182181500Y-125147605D01*
X181225692Y-126103413D01*
X169306598Y-126103413D01*
X169333494Y-126089037D01*
X169430185Y-126009685D01*
X169509537Y-125912994D01*
X169568502Y-125802680D01*
X169604812Y-125682982D01*
X169617072Y-125558500D01*
X169617072Y-125030595D01*
X180539782Y-125030595D01*
X180583539Y-125349675D01*
X180688705Y-125654088D01*
X180781686Y-125828044D01*
X181046087Y-125923808D01*
X182001895Y-124968000D01*
X182361105Y-124968000D01*
X183316913Y-125923808D01*
X183581314Y-125828044D01*
X183722204Y-125538429D01*
X183803884Y-125226892D01*
X183823218Y-124905405D01*
X183779461Y-124586325D01*
X183674295Y-124281912D01*
X183581314Y-124107956D01*
X183316913Y-124012192D01*
X182361105Y-124968000D01*
X182001895Y-124968000D01*
X181046087Y-124012192D01*
X180781686Y-124107956D01*
X180640796Y-124397571D01*
X180559116Y-124709108D01*
X180539782Y-125030595D01*
X169617072Y-125030595D01*
X169617072Y-124758500D01*
X169604812Y-124634018D01*
X169568502Y-124514320D01*
X169509537Y-124404006D01*
X169464000Y-124348519D01*
X169464000Y-124177411D01*
X169428068Y-123996771D01*
X169360062Y-123832587D01*
X181225692Y-123832587D01*
X182181500Y-124788395D01*
X183137308Y-123832587D01*
X183041544Y-123568186D01*
X182751929Y-123427296D01*
X182440392Y-123345616D01*
X182118905Y-123326282D01*
X181799825Y-123370039D01*
X181495412Y-123475205D01*
X181321456Y-123568186D01*
X181225692Y-123832587D01*
X169360062Y-123832587D01*
X169357586Y-123826611D01*
X169255262Y-123673472D01*
X169125028Y-123543238D01*
X168971889Y-123440914D01*
X168801729Y-123370432D01*
X168621089Y-123334500D01*
X168436911Y-123334500D01*
X168256271Y-123370432D01*
X168086111Y-123440914D01*
X167932972Y-123543238D01*
X167802738Y-123673472D01*
X167700414Y-123826611D01*
X167629932Y-123996771D01*
X167594000Y-124177411D01*
X167594000Y-124348519D01*
X167548463Y-124404006D01*
X167489498Y-124514320D01*
X167453188Y-124634018D01*
X167440928Y-124758500D01*
X167440928Y-125270405D01*
X167430185Y-125257315D01*
X167333494Y-125177963D01*
X167223180Y-125118998D01*
X167103482Y-125082688D01*
X166979000Y-125070428D01*
X166079000Y-125070428D01*
X165954518Y-125082688D01*
X165834820Y-125118998D01*
X165724506Y-125177963D01*
X165627815Y-125257315D01*
X165548463Y-125354006D01*
X165489498Y-125464320D01*
X165453188Y-125584018D01*
X165440928Y-125708500D01*
X161439148Y-125708500D01*
X161427068Y-125647771D01*
X161356586Y-125477611D01*
X161254262Y-125324472D01*
X161124028Y-125194238D01*
X160970889Y-125091914D01*
X160800729Y-125021432D01*
X160620089Y-124985500D01*
X160458250Y-124985500D01*
X160440405Y-124952114D01*
X160329962Y-124817538D01*
X160195386Y-124707095D01*
X160041850Y-124625028D01*
X159875254Y-124574492D01*
X159702000Y-124557428D01*
X159027000Y-124557428D01*
X158853746Y-124574492D01*
X158687150Y-124625028D01*
X158533614Y-124707095D01*
X158399038Y-124817538D01*
X158327000Y-124905317D01*
X158254962Y-124817538D01*
X158120386Y-124707095D01*
X157966850Y-124625028D01*
X157800254Y-124574492D01*
X157627000Y-124557428D01*
X156952000Y-124557428D01*
X156778746Y-124574492D01*
X156612150Y-124625028D01*
X156458614Y-124707095D01*
X156324038Y-124817538D01*
X156213595Y-124952114D01*
X156131528Y-125105650D01*
X156114890Y-125160500D01*
X155631350Y-125160500D01*
X155483550Y-125012700D01*
X154734300Y-125012700D01*
X154734300Y-125032700D01*
X154480300Y-125032700D01*
X154480300Y-125012700D01*
X153898831Y-125012700D01*
X153762089Y-124985500D01*
X153577911Y-124985500D01*
X153397271Y-125021432D01*
X153227111Y-125091914D01*
X153073972Y-125194238D01*
X152943738Y-125324472D01*
X152841414Y-125477611D01*
X152770932Y-125647771D01*
X152735000Y-125828411D01*
X152735000Y-126012589D01*
X152744379Y-126059741D01*
X152726763Y-126081206D01*
X152667798Y-126191520D01*
X152631488Y-126311218D01*
X152619228Y-126435700D01*
X150332824Y-126435700D01*
X150349905Y-126414887D01*
X150431972Y-126261351D01*
X150482508Y-126094755D01*
X150499572Y-125921501D01*
X150499572Y-125221499D01*
X150482508Y-125048245D01*
X150431972Y-124881649D01*
X150349905Y-124728113D01*
X150239462Y-124593538D01*
X150149856Y-124520000D01*
X150490428Y-124520000D01*
X150502688Y-124644482D01*
X150538998Y-124764180D01*
X150597963Y-124874494D01*
X150677315Y-124971185D01*
X150774006Y-125050537D01*
X150884320Y-125109502D01*
X151004018Y-125145812D01*
X151128500Y-125158072D01*
X151542750Y-125155000D01*
X151701500Y-124996250D01*
X151701500Y-124047000D01*
X151955500Y-124047000D01*
X151955500Y-124996250D01*
X152114250Y-125155000D01*
X152528500Y-125158072D01*
X152652982Y-125145812D01*
X152772680Y-125109502D01*
X152882994Y-125050537D01*
X152979685Y-124971185D01*
X153059037Y-124874494D01*
X153118002Y-124764180D01*
X153154312Y-124644482D01*
X153166572Y-124520000D01*
X153165748Y-124435700D01*
X153569228Y-124435700D01*
X153572300Y-124599950D01*
X153731050Y-124758700D01*
X154480300Y-124758700D01*
X154480300Y-123959450D01*
X154734300Y-123959450D01*
X154734300Y-124758700D01*
X155483550Y-124758700D01*
X155642300Y-124599950D01*
X155645372Y-124435700D01*
X155633112Y-124311218D01*
X155596802Y-124191520D01*
X155537837Y-124081206D01*
X155458485Y-123984515D01*
X155361794Y-123905163D01*
X155251480Y-123846198D01*
X155131782Y-123809888D01*
X155007300Y-123797628D01*
X154893050Y-123800700D01*
X154734300Y-123959450D01*
X154480300Y-123959450D01*
X154321550Y-123800700D01*
X154207300Y-123797628D01*
X154082818Y-123809888D01*
X153963120Y-123846198D01*
X153852806Y-123905163D01*
X153756115Y-123984515D01*
X153676763Y-124081206D01*
X153617798Y-124191520D01*
X153581488Y-124311218D01*
X153569228Y-124435700D01*
X153165748Y-124435700D01*
X153163500Y-124205750D01*
X153004750Y-124047000D01*
X151955500Y-124047000D01*
X151701500Y-124047000D01*
X150652250Y-124047000D01*
X150493500Y-124205750D01*
X150490428Y-124520000D01*
X150149856Y-124520000D01*
X150104887Y-124483095D01*
X149951351Y-124401028D01*
X149784755Y-124350492D01*
X149611501Y-124333428D01*
X148711499Y-124333428D01*
X148538245Y-124350492D01*
X148371649Y-124401028D01*
X148218113Y-124483095D01*
X148083538Y-124593538D01*
X148080201Y-124597604D01*
X148076971Y-124591560D01*
X147982073Y-124475927D01*
X147866440Y-124381029D01*
X147734515Y-124310513D01*
X147591368Y-124267090D01*
X147442500Y-124252428D01*
X147302500Y-124252428D01*
X147302500Y-124113911D01*
X147266568Y-123933271D01*
X147196086Y-123763111D01*
X147093762Y-123609972D01*
X146963528Y-123479738D01*
X146810389Y-123377414D01*
X146640229Y-123306932D01*
X146459589Y-123271000D01*
X146346537Y-123271000D01*
X146314068Y-123107771D01*
X146243586Y-122937611D01*
X146141262Y-122784472D01*
X146036790Y-122680000D01*
X146202965Y-122680000D01*
X146305611Y-122748586D01*
X146475771Y-122819068D01*
X146656411Y-122855000D01*
X146840589Y-122855000D01*
X147021229Y-122819068D01*
X147191389Y-122748586D01*
X147344528Y-122646262D01*
X147474762Y-122516028D01*
X147577086Y-122362889D01*
X147647568Y-122192729D01*
X147683500Y-122012089D01*
X147683500Y-121827911D01*
X147647568Y-121647271D01*
X147577086Y-121477111D01*
X147474762Y-121323972D01*
X147344528Y-121193738D01*
X147191389Y-121091414D01*
X147021229Y-121020932D01*
X146840589Y-120985000D01*
X146656411Y-120985000D01*
X146475771Y-121020932D01*
X146347087Y-121074234D01*
X146350000Y-121059589D01*
X146350000Y-120875411D01*
X146314068Y-120694771D01*
X146243586Y-120524611D01*
X146141262Y-120371472D01*
X146011028Y-120241238D01*
X145857889Y-120138914D01*
X145687729Y-120068432D01*
X145507089Y-120032500D01*
X145322911Y-120032500D01*
X145142271Y-120068432D01*
X144972111Y-120138914D01*
X144869465Y-120207500D01*
X144822273Y-120207500D01*
X144696015Y-120140013D01*
X144552868Y-120096590D01*
X144545259Y-120095841D01*
X144617351Y-120073972D01*
X144770887Y-119991905D01*
X144905462Y-119881462D01*
X145015905Y-119746887D01*
X145097972Y-119593351D01*
X145148508Y-119426755D01*
X145165572Y-119253501D01*
X145165572Y-118553499D01*
X145148508Y-118380245D01*
X145097972Y-118213649D01*
X145015905Y-118060113D01*
X144905462Y-117925538D01*
X144878609Y-117903500D01*
X144905462Y-117881462D01*
X145015905Y-117746887D01*
X145097972Y-117593351D01*
X145148508Y-117426755D01*
X145165572Y-117253501D01*
X145165572Y-116553499D01*
X145148508Y-116380245D01*
X145097972Y-116213649D01*
X145015905Y-116060113D01*
X144905462Y-115925538D01*
X144770887Y-115815095D01*
X144617351Y-115733028D01*
X144450755Y-115682492D01*
X144277501Y-115665428D01*
X143618769Y-115665428D01*
X143646812Y-115572982D01*
X143659072Y-115448500D01*
X143659072Y-114548500D01*
X143657595Y-114533501D01*
X146093991Y-114533501D01*
X146121498Y-114624180D01*
X146180463Y-114734494D01*
X146259815Y-114831185D01*
X146356506Y-114910537D01*
X146466820Y-114969502D01*
X146586518Y-115005812D01*
X146711000Y-115018072D01*
X147611000Y-115018072D01*
X147735482Y-115005812D01*
X147855180Y-114969502D01*
X147965494Y-114910537D01*
X148062185Y-114831185D01*
X148141537Y-114734494D01*
X148200502Y-114624180D01*
X148236812Y-114504482D01*
X148249072Y-114380000D01*
X148249072Y-114240338D01*
X148284245Y-114251008D01*
X148457499Y-114268072D01*
X149357501Y-114268072D01*
X149530755Y-114251008D01*
X149697351Y-114200472D01*
X149850887Y-114118405D01*
X149985462Y-114007962D01*
X150020887Y-113964796D01*
X150021911Y-113965000D01*
X150206089Y-113965000D01*
X150386729Y-113929068D01*
X150470289Y-113894457D01*
X150489113Y-113909905D01*
X150642649Y-113991972D01*
X150809245Y-114042508D01*
X150982499Y-114059572D01*
X152308270Y-114059572D01*
X152454202Y-114205504D01*
X152478000Y-114234502D01*
X152593725Y-114329475D01*
X152725754Y-114400047D01*
X152869015Y-114443504D01*
X152980668Y-114454501D01*
X152980677Y-114454501D01*
X153018000Y-114458177D01*
X153055323Y-114454501D01*
X153718133Y-114454501D01*
X153587771Y-114480432D01*
X153417611Y-114550914D01*
X153344998Y-114599433D01*
X153182501Y-114583428D01*
X150982499Y-114583428D01*
X150809245Y-114600492D01*
X150642649Y-114651028D01*
X150489113Y-114733095D01*
X150354538Y-114843538D01*
X150244095Y-114978113D01*
X150162028Y-115131649D01*
X150111492Y-115298245D01*
X150094428Y-115471499D01*
X150094428Y-116296501D01*
X150111492Y-116469755D01*
X150162028Y-116636351D01*
X150244095Y-116789887D01*
X150354538Y-116924462D01*
X150489113Y-117034905D01*
X150642649Y-117116972D01*
X150809245Y-117167508D01*
X150982499Y-117184572D01*
X153182501Y-117184572D01*
X153355755Y-117167508D01*
X153522351Y-117116972D01*
X153675887Y-117034905D01*
X153810462Y-116924462D01*
X153920905Y-116789887D01*
X154002972Y-116636351D01*
X154045581Y-116495888D01*
X154075006Y-116520037D01*
X154185320Y-116579002D01*
X154305018Y-116615312D01*
X154429500Y-116627572D01*
X154560880Y-116627572D01*
X154543252Y-116685684D01*
X154526428Y-116856500D01*
X154526428Y-117331500D01*
X154543252Y-117502316D01*
X154593077Y-117666567D01*
X154673988Y-117817942D01*
X154782877Y-117950623D01*
X154802451Y-117966687D01*
X154767000Y-118144911D01*
X154767000Y-118329089D01*
X154802932Y-118509729D01*
X154873414Y-118679889D01*
X154968026Y-118821486D01*
X154949113Y-118831595D01*
X154876500Y-118891187D01*
X154803887Y-118831595D01*
X154795500Y-118827112D01*
X154795500Y-118716411D01*
X154759568Y-118535771D01*
X154689086Y-118365611D01*
X154586762Y-118212472D01*
X154456528Y-118082238D01*
X154303389Y-117979914D01*
X154133229Y-117909432D01*
X153952589Y-117873500D01*
X153768411Y-117873500D01*
X153587771Y-117909432D01*
X153417611Y-117979914D01*
X153264472Y-118082238D01*
X153134238Y-118212472D01*
X153031914Y-118365611D01*
X152961432Y-118535771D01*
X152925500Y-118716411D01*
X152925500Y-118827112D01*
X152917113Y-118831595D01*
X152782538Y-118942038D01*
X152672095Y-119076613D01*
X152590028Y-119230149D01*
X152539492Y-119396745D01*
X152522428Y-119569999D01*
X152522428Y-120270001D01*
X152539492Y-120443255D01*
X152590028Y-120609851D01*
X152672095Y-120763387D01*
X152693832Y-120789874D01*
X152618351Y-120749528D01*
X152451755Y-120698992D01*
X152278501Y-120681928D01*
X151378499Y-120681928D01*
X151205245Y-120698992D01*
X151038649Y-120749528D01*
X150885113Y-120831595D01*
X150750538Y-120942038D01*
X150706201Y-120996062D01*
X150650589Y-120985000D01*
X150466411Y-120985000D01*
X150285771Y-121020932D01*
X150115611Y-121091414D01*
X149962472Y-121193738D01*
X149832238Y-121323972D01*
X149729914Y-121477111D01*
X149659432Y-121647271D01*
X149623500Y-121827911D01*
X149623500Y-122012089D01*
X149659432Y-122192729D01*
X149729914Y-122362889D01*
X149832238Y-122516028D01*
X149962472Y-122646262D01*
X150115611Y-122748586D01*
X150285771Y-122819068D01*
X150466411Y-122855000D01*
X150650589Y-122855000D01*
X150706201Y-122843938D01*
X150706776Y-122844637D01*
X150677315Y-122868815D01*
X150597963Y-122965506D01*
X150538998Y-123075820D01*
X150502688Y-123195518D01*
X150490428Y-123320000D01*
X150493500Y-123634250D01*
X150652250Y-123793000D01*
X151701500Y-123793000D01*
X151701500Y-123773000D01*
X151955500Y-123773000D01*
X151955500Y-123793000D01*
X153004750Y-123793000D01*
X153163500Y-123634250D01*
X153166572Y-123320000D01*
X153154312Y-123195518D01*
X153127696Y-123107777D01*
X153237245Y-123141008D01*
X153410499Y-123158072D01*
X154310501Y-123158072D01*
X154483755Y-123141008D01*
X154650351Y-123090472D01*
X154803887Y-123008405D01*
X154876500Y-122948813D01*
X154949113Y-123008405D01*
X155102649Y-123090472D01*
X155269245Y-123141008D01*
X155442499Y-123158072D01*
X156342501Y-123158072D01*
X156515755Y-123141008D01*
X156682351Y-123090472D01*
X156835887Y-123008405D01*
X156895878Y-122959171D01*
X156956114Y-123008605D01*
X157109650Y-123090672D01*
X157276246Y-123141208D01*
X157449500Y-123158272D01*
X158399500Y-123158272D01*
X158572754Y-123141208D01*
X158739350Y-123090672D01*
X158805314Y-123055413D01*
X193798692Y-123055413D01*
X193894456Y-123319814D01*
X194184071Y-123460704D01*
X194495608Y-123542384D01*
X194817095Y-123561718D01*
X195136175Y-123517961D01*
X195440588Y-123412795D01*
X195614544Y-123319814D01*
X195710308Y-123055413D01*
X194754500Y-122099605D01*
X193798692Y-123055413D01*
X158805314Y-123055413D01*
X158892886Y-123008605D01*
X159027462Y-122898162D01*
X159137905Y-122763586D01*
X159219972Y-122610050D01*
X159270508Y-122443454D01*
X159287572Y-122270200D01*
X159287572Y-121982595D01*
X193112782Y-121982595D01*
X193156539Y-122301675D01*
X193261705Y-122606088D01*
X193354686Y-122780044D01*
X193619087Y-122875808D01*
X194574895Y-121920000D01*
X194934105Y-121920000D01*
X195889913Y-122875808D01*
X196154314Y-122780044D01*
X196295204Y-122490429D01*
X196376884Y-122178892D01*
X196396218Y-121857405D01*
X196352461Y-121538325D01*
X196247295Y-121233912D01*
X196154314Y-121059956D01*
X195889913Y-120964192D01*
X194934105Y-121920000D01*
X194574895Y-121920000D01*
X193619087Y-120964192D01*
X193354686Y-121059956D01*
X193213796Y-121349571D01*
X193132116Y-121661108D01*
X193112782Y-121982595D01*
X159287572Y-121982595D01*
X159287572Y-121595200D01*
X159270508Y-121421946D01*
X159219972Y-121255350D01*
X159137905Y-121101814D01*
X159027462Y-120967238D01*
X158939683Y-120895200D01*
X159027462Y-120823162D01*
X159029183Y-120821065D01*
X159038911Y-120823000D01*
X159223089Y-120823000D01*
X159403729Y-120787068D01*
X159573889Y-120716586D01*
X159727028Y-120614262D01*
X159857262Y-120484028D01*
X159959586Y-120330889D01*
X160030068Y-120160729D01*
X160066000Y-119980089D01*
X160066000Y-119795911D01*
X160030068Y-119615271D01*
X159959586Y-119445111D01*
X159857262Y-119291972D01*
X159727028Y-119161738D01*
X159573889Y-119059414D01*
X159403729Y-118988932D01*
X159223089Y-118953000D01*
X159077328Y-118953000D01*
X159027462Y-118892238D01*
X158892886Y-118781795D01*
X158739350Y-118699728D01*
X158572754Y-118649192D01*
X158399500Y-118632128D01*
X157449500Y-118632128D01*
X157276246Y-118649192D01*
X157109650Y-118699728D01*
X156956114Y-118781795D01*
X156865659Y-118856029D01*
X156835887Y-118831595D01*
X156682351Y-118749528D01*
X156517473Y-118699513D01*
X156530586Y-118679889D01*
X156601068Y-118509729D01*
X156637000Y-118329089D01*
X156637000Y-118154055D01*
X156645320Y-118158502D01*
X156765018Y-118194812D01*
X156889500Y-118207072D01*
X157141250Y-118204000D01*
X157300000Y-118045250D01*
X157300000Y-117221000D01*
X157554000Y-117221000D01*
X157554000Y-118045250D01*
X157712750Y-118204000D01*
X157964500Y-118207072D01*
X158088982Y-118194812D01*
X158208680Y-118158502D01*
X158318994Y-118099537D01*
X158415685Y-118020185D01*
X158495037Y-117923494D01*
X158554002Y-117813180D01*
X158590312Y-117693482D01*
X158602572Y-117569000D01*
X158599500Y-117379750D01*
X158440750Y-117221000D01*
X157554000Y-117221000D01*
X157300000Y-117221000D01*
X157280000Y-117221000D01*
X157280000Y-116967000D01*
X157300000Y-116967000D01*
X157300000Y-116947000D01*
X157554000Y-116947000D01*
X157554000Y-116967000D01*
X158440750Y-116967000D01*
X158599500Y-116808250D01*
X158601581Y-116680072D01*
X160421501Y-116680072D01*
X160594755Y-116663008D01*
X160761351Y-116612472D01*
X160914887Y-116530405D01*
X161049462Y-116419962D01*
X161136013Y-116314500D01*
X161318589Y-116314500D01*
X161499229Y-116278568D01*
X161669389Y-116208086D01*
X161822528Y-116105762D01*
X161952762Y-115975528D01*
X162055086Y-115822389D01*
X162125568Y-115652229D01*
X162161500Y-115471589D01*
X162161500Y-115287411D01*
X162125568Y-115106771D01*
X162055086Y-114936611D01*
X161952762Y-114783472D01*
X161822528Y-114653238D01*
X161669389Y-114550914D01*
X161499229Y-114480432D01*
X161318589Y-114444500D01*
X161136013Y-114444500D01*
X161049462Y-114339038D01*
X160914887Y-114228595D01*
X160761351Y-114146528D01*
X160594755Y-114095992D01*
X160421501Y-114078928D01*
X158221499Y-114078928D01*
X158048245Y-114095992D01*
X157881649Y-114146528D01*
X157728113Y-114228595D01*
X157593538Y-114339038D01*
X157518381Y-114430617D01*
X157510037Y-114415006D01*
X157430685Y-114318315D01*
X157333994Y-114238963D01*
X157223680Y-114179998D01*
X157103982Y-114143688D01*
X156979500Y-114131428D01*
X156357373Y-114131428D01*
X156481229Y-114007572D01*
X156979500Y-114007572D01*
X157103982Y-113995312D01*
X157223680Y-113959002D01*
X157333994Y-113900037D01*
X157430685Y-113820685D01*
X157510037Y-113723994D01*
X157569002Y-113613680D01*
X157605312Y-113493982D01*
X157610419Y-113442131D01*
X157617006Y-113447537D01*
X157727320Y-113506502D01*
X157847018Y-113542812D01*
X157971500Y-113555072D01*
X159035750Y-113552000D01*
X159194500Y-113393250D01*
X159194500Y-112381500D01*
X159448500Y-112381500D01*
X159448500Y-113393250D01*
X159607250Y-113552000D01*
X160671500Y-113555072D01*
X160795982Y-113542812D01*
X160915680Y-113506502D01*
X161025994Y-113447537D01*
X161122685Y-113368185D01*
X161153201Y-113331000D01*
X162964428Y-113331000D01*
X162964428Y-114131000D01*
X162976688Y-114255482D01*
X163012998Y-114375180D01*
X163071963Y-114485494D01*
X163151315Y-114582185D01*
X163248006Y-114661537D01*
X163358320Y-114720502D01*
X163478018Y-114756812D01*
X163602500Y-114769072D01*
X164502500Y-114769072D01*
X164626982Y-114756812D01*
X164746680Y-114720502D01*
X164856994Y-114661537D01*
X164896900Y-114628787D01*
X164964428Y-114642219D01*
X164964428Y-115081000D01*
X164976688Y-115205482D01*
X165012998Y-115325180D01*
X165071963Y-115435494D01*
X165151315Y-115532185D01*
X165248006Y-115611537D01*
X165358320Y-115670502D01*
X165478018Y-115706812D01*
X165602500Y-115719072D01*
X166015770Y-115719072D01*
X166050201Y-115753503D01*
X166074000Y-115782502D01*
X166189725Y-115877475D01*
X166321754Y-115948047D01*
X166435208Y-115982462D01*
X166331149Y-116014028D01*
X166177613Y-116096095D01*
X166043038Y-116206538D01*
X165932595Y-116341113D01*
X165928112Y-116349500D01*
X165769911Y-116349500D01*
X165589271Y-116385432D01*
X165419111Y-116455914D01*
X165265972Y-116558238D01*
X165135738Y-116688472D01*
X165033414Y-116841611D01*
X164962932Y-117011771D01*
X164927000Y-117192411D01*
X164927000Y-117376589D01*
X164962932Y-117557229D01*
X165033414Y-117727389D01*
X165135738Y-117880528D01*
X165265972Y-118010762D01*
X165419111Y-118113086D01*
X165589271Y-118183568D01*
X165769911Y-118219500D01*
X165928112Y-118219500D01*
X165932595Y-118227887D01*
X166043038Y-118362462D01*
X166177613Y-118472905D01*
X166331149Y-118554972D01*
X166497745Y-118605508D01*
X166670999Y-118622572D01*
X167371001Y-118622572D01*
X167544255Y-118605508D01*
X167710851Y-118554972D01*
X167864387Y-118472905D01*
X167998962Y-118362462D01*
X168021000Y-118335609D01*
X168043038Y-118362462D01*
X168177613Y-118472905D01*
X168331149Y-118554972D01*
X168497745Y-118605508D01*
X168670999Y-118622572D01*
X168972712Y-118622572D01*
X168828613Y-118699595D01*
X168694038Y-118810038D01*
X168583595Y-118944613D01*
X168579112Y-118953000D01*
X168436911Y-118953000D01*
X168256271Y-118988932D01*
X168086111Y-119059414D01*
X167983465Y-119128000D01*
X167169535Y-119128000D01*
X167066889Y-119059414D01*
X166896729Y-118988932D01*
X166716089Y-118953000D01*
X166531911Y-118953000D01*
X166351271Y-118988932D01*
X166181111Y-119059414D01*
X166027972Y-119161738D01*
X165897738Y-119291972D01*
X165795414Y-119445111D01*
X165724932Y-119615271D01*
X165689000Y-119795911D01*
X165689000Y-119980089D01*
X165724932Y-120160729D01*
X165795414Y-120330889D01*
X165897738Y-120484028D01*
X166027972Y-120614262D01*
X166181111Y-120716586D01*
X166351271Y-120787068D01*
X166531911Y-120823000D01*
X166716089Y-120823000D01*
X166896729Y-120787068D01*
X167066889Y-120716586D01*
X167169535Y-120648000D01*
X167983465Y-120648000D01*
X168086111Y-120716586D01*
X168256271Y-120787068D01*
X168436911Y-120823000D01*
X168579112Y-120823000D01*
X168583595Y-120831387D01*
X168694038Y-120965962D01*
X168828613Y-121076405D01*
X168982149Y-121158472D01*
X169148745Y-121209008D01*
X169321999Y-121226072D01*
X170022001Y-121226072D01*
X170195255Y-121209008D01*
X170361851Y-121158472D01*
X170515387Y-121076405D01*
X170649962Y-120965962D01*
X170672000Y-120939109D01*
X170694038Y-120965962D01*
X170828613Y-121076405D01*
X170982149Y-121158472D01*
X171148745Y-121209008D01*
X171321999Y-121226072D01*
X172022001Y-121226072D01*
X172195255Y-121209008D01*
X172361851Y-121158472D01*
X172515387Y-121076405D01*
X172649962Y-120965962D01*
X172760405Y-120831387D01*
X172764888Y-120823000D01*
X172875589Y-120823000D01*
X173056229Y-120787068D01*
X173226389Y-120716586D01*
X173379528Y-120614262D01*
X173509762Y-120484028D01*
X173612086Y-120330889D01*
X173682568Y-120160729D01*
X173718500Y-119980089D01*
X173718500Y-119795911D01*
X173704787Y-119726967D01*
X180546500Y-119726967D01*
X180546500Y-120049033D01*
X180609332Y-120364912D01*
X180732582Y-120662463D01*
X180911513Y-120930252D01*
X181139248Y-121157987D01*
X181407037Y-121336918D01*
X181704588Y-121460168D01*
X182020467Y-121523000D01*
X182342533Y-121523000D01*
X182658412Y-121460168D01*
X182955963Y-121336918D01*
X183223752Y-121157987D01*
X183451487Y-120930252D01*
X183548817Y-120784587D01*
X193798692Y-120784587D01*
X194754500Y-121740395D01*
X195710308Y-120784587D01*
X195614544Y-120520186D01*
X195324929Y-120379296D01*
X195013392Y-120297616D01*
X194691905Y-120278282D01*
X194372825Y-120322039D01*
X194068412Y-120427205D01*
X193894456Y-120520186D01*
X193798692Y-120784587D01*
X183548817Y-120784587D01*
X183630418Y-120662463D01*
X183753668Y-120364912D01*
X183816500Y-120049033D01*
X183816500Y-119726967D01*
X183753668Y-119411088D01*
X183630418Y-119113537D01*
X183451487Y-118845748D01*
X183223752Y-118618013D01*
X182955963Y-118439082D01*
X182658412Y-118315832D01*
X182342533Y-118253000D01*
X182020467Y-118253000D01*
X181704588Y-118315832D01*
X181407037Y-118439082D01*
X181139248Y-118618013D01*
X180911513Y-118845748D01*
X180732582Y-119113537D01*
X180609332Y-119411088D01*
X180546500Y-119726967D01*
X173704787Y-119726967D01*
X173682568Y-119615271D01*
X173612086Y-119445111D01*
X173509762Y-119291972D01*
X173379528Y-119161738D01*
X173226389Y-119059414D01*
X173056229Y-118988932D01*
X172875589Y-118953000D01*
X172764888Y-118953000D01*
X172760405Y-118944613D01*
X172649962Y-118810038D01*
X172515387Y-118699595D01*
X172361851Y-118617528D01*
X172195255Y-118566992D01*
X172022001Y-118549928D01*
X171321999Y-118549928D01*
X171148745Y-118566992D01*
X170982149Y-118617528D01*
X170828613Y-118699595D01*
X170694038Y-118810038D01*
X170672000Y-118836891D01*
X170649962Y-118810038D01*
X170515387Y-118699595D01*
X170361851Y-118617528D01*
X170195255Y-118566992D01*
X170022001Y-118549928D01*
X169720288Y-118549928D01*
X169864387Y-118472905D01*
X169998962Y-118362462D01*
X170109405Y-118227887D01*
X170113888Y-118219500D01*
X170208589Y-118219500D01*
X170389229Y-118183568D01*
X170559389Y-118113086D01*
X170712528Y-118010762D01*
X170842762Y-117880528D01*
X170945086Y-117727389D01*
X171015568Y-117557229D01*
X171051500Y-117376589D01*
X171051500Y-117192411D01*
X171015568Y-117011771D01*
X170945086Y-116841611D01*
X170842762Y-116688472D01*
X170712528Y-116558238D01*
X170559389Y-116455914D01*
X170389229Y-116385432D01*
X170208589Y-116349500D01*
X170113888Y-116349500D01*
X170109405Y-116341113D01*
X169998962Y-116206538D01*
X169864387Y-116096095D01*
X169710851Y-116014028D01*
X169672851Y-116002501D01*
X169927677Y-116002501D01*
X169964999Y-116006177D01*
X170002321Y-116002501D01*
X170002332Y-116002501D01*
X170113985Y-115991504D01*
X170257246Y-115948047D01*
X170389275Y-115877475D01*
X170505000Y-115782502D01*
X170528802Y-115753499D01*
X170565729Y-115716572D01*
X170979000Y-115716572D01*
X171103482Y-115704312D01*
X171223180Y-115668002D01*
X171333494Y-115609037D01*
X171430185Y-115529685D01*
X171509537Y-115432994D01*
X171568502Y-115322680D01*
X171604812Y-115202982D01*
X171617072Y-115078500D01*
X171617072Y-114278500D01*
X171604812Y-114154018D01*
X171568502Y-114034320D01*
X171509537Y-113924006D01*
X171430185Y-113827315D01*
X171333494Y-113747963D01*
X171297082Y-113728500D01*
X171333494Y-113709037D01*
X171430185Y-113629685D01*
X171509537Y-113532994D01*
X171568502Y-113422680D01*
X171604812Y-113302982D01*
X171617072Y-113178500D01*
X171617072Y-112868967D01*
X194580000Y-112868967D01*
X194580000Y-113191033D01*
X194642832Y-113506912D01*
X194766082Y-113804463D01*
X194945013Y-114072252D01*
X195172748Y-114299987D01*
X195440537Y-114478918D01*
X195738088Y-114602168D01*
X196053967Y-114665000D01*
X196376033Y-114665000D01*
X196691912Y-114602168D01*
X196989463Y-114478918D01*
X197257252Y-114299987D01*
X197484987Y-114072252D01*
X197663918Y-113804463D01*
X197787168Y-113506912D01*
X197850000Y-113191033D01*
X197850000Y-112868967D01*
X197787168Y-112553088D01*
X197663918Y-112255537D01*
X197484987Y-111987748D01*
X197257252Y-111760013D01*
X196989463Y-111581082D01*
X196691912Y-111457832D01*
X196376033Y-111395000D01*
X196053967Y-111395000D01*
X195738088Y-111457832D01*
X195440537Y-111581082D01*
X195172748Y-111760013D01*
X194945013Y-111987748D01*
X194766082Y-112255537D01*
X194642832Y-112553088D01*
X194580000Y-112868967D01*
X171617072Y-112868967D01*
X171617072Y-112742191D01*
X171679046Y-112626247D01*
X171685648Y-112604482D01*
X171722503Y-112482986D01*
X171733500Y-112371333D01*
X171733500Y-112371323D01*
X171737176Y-112334000D01*
X171733500Y-112296677D01*
X171733500Y-112103976D01*
X171816887Y-112059405D01*
X171951462Y-111948962D01*
X172061905Y-111814387D01*
X172143972Y-111660851D01*
X172194508Y-111494255D01*
X172211572Y-111321001D01*
X172211572Y-110420999D01*
X172194508Y-110247745D01*
X172143972Y-110081149D01*
X172061905Y-109927613D01*
X171951462Y-109793038D01*
X171816887Y-109682595D01*
X171663351Y-109600528D01*
X171496755Y-109549992D01*
X171323501Y-109532928D01*
X170623499Y-109532928D01*
X170450245Y-109549992D01*
X170283649Y-109600528D01*
X170130113Y-109682595D01*
X169995538Y-109793038D01*
X169973500Y-109819891D01*
X169951462Y-109793038D01*
X169816887Y-109682595D01*
X169663351Y-109600528D01*
X169496755Y-109549992D01*
X169323501Y-109532928D01*
X168623499Y-109532928D01*
X168450245Y-109549992D01*
X168283649Y-109600528D01*
X168130113Y-109682595D01*
X167995538Y-109793038D01*
X167885095Y-109927613D01*
X167880612Y-109936000D01*
X167748388Y-109936000D01*
X167743905Y-109927613D01*
X167633462Y-109793038D01*
X167498887Y-109682595D01*
X167345351Y-109600528D01*
X167178755Y-109549992D01*
X167005501Y-109532928D01*
X166305499Y-109532928D01*
X166132245Y-109549992D01*
X165965649Y-109600528D01*
X165812113Y-109682595D01*
X165677538Y-109793038D01*
X165655500Y-109819891D01*
X165633462Y-109793038D01*
X165498887Y-109682595D01*
X165345351Y-109600528D01*
X165178755Y-109549992D01*
X165005501Y-109532928D01*
X164305499Y-109532928D01*
X164132245Y-109549992D01*
X163965649Y-109600528D01*
X163812113Y-109682595D01*
X163677538Y-109793038D01*
X163567095Y-109927613D01*
X163485028Y-110081149D01*
X163434492Y-110247745D01*
X163417428Y-110420999D01*
X163417428Y-111321001D01*
X163434492Y-111494255D01*
X163485028Y-111660851D01*
X163567095Y-111814387D01*
X163677538Y-111948962D01*
X163812113Y-112059405D01*
X163965649Y-112141472D01*
X164132245Y-112192008D01*
X164305499Y-112209072D01*
X164405771Y-112209072D01*
X164964428Y-112767730D01*
X164964428Y-112814781D01*
X164891996Y-112829188D01*
X164856994Y-112800463D01*
X164746680Y-112741498D01*
X164626982Y-112705188D01*
X164502500Y-112692928D01*
X163602500Y-112692928D01*
X163478018Y-112705188D01*
X163358320Y-112741498D01*
X163248006Y-112800463D01*
X163151315Y-112879815D01*
X163071963Y-112976506D01*
X163012998Y-113086820D01*
X162976688Y-113206518D01*
X162964428Y-113331000D01*
X161153201Y-113331000D01*
X161202037Y-113271494D01*
X161261002Y-113161180D01*
X161297312Y-113041482D01*
X161309572Y-112917000D01*
X161306500Y-112540250D01*
X161147750Y-112381500D01*
X159448500Y-112381500D01*
X159194500Y-112381500D01*
X159174500Y-112381500D01*
X159174500Y-112127500D01*
X159194500Y-112127500D01*
X159194500Y-111115750D01*
X159448500Y-111115750D01*
X159448500Y-112127500D01*
X161147750Y-112127500D01*
X161306500Y-111968750D01*
X161309572Y-111592000D01*
X161297312Y-111467518D01*
X161261002Y-111347820D01*
X161202037Y-111237506D01*
X161122685Y-111140815D01*
X161025994Y-111061463D01*
X160915680Y-111002498D01*
X160795982Y-110966188D01*
X160671500Y-110953928D01*
X159607250Y-110957000D01*
X159448500Y-111115750D01*
X159194500Y-111115750D01*
X159035750Y-110957000D01*
X157992572Y-110953989D01*
X157992572Y-110584499D01*
X157975508Y-110411245D01*
X157924972Y-110244649D01*
X157842905Y-110091113D01*
X157776224Y-110009863D01*
X157805685Y-109985685D01*
X157885037Y-109888994D01*
X157944002Y-109778680D01*
X157980312Y-109658982D01*
X157992572Y-109534500D01*
X157989500Y-109220250D01*
X157830750Y-109061500D01*
X156781500Y-109061500D01*
X156781500Y-109081500D01*
X156527500Y-109081500D01*
X156527500Y-109061500D01*
X155478250Y-109061500D01*
X155319500Y-109220250D01*
X155319324Y-109238229D01*
X155192389Y-109153414D01*
X155022229Y-109082932D01*
X154841589Y-109047000D01*
X154657411Y-109047000D01*
X154476771Y-109082932D01*
X154306611Y-109153414D01*
X154153472Y-109255738D01*
X154023238Y-109385972D01*
X153920914Y-109539111D01*
X153850432Y-109709271D01*
X153814500Y-109889911D01*
X153814500Y-109937945D01*
X153806180Y-109933498D01*
X153686482Y-109897188D01*
X153562000Y-109884928D01*
X153310250Y-109888000D01*
X153151500Y-110046750D01*
X153151500Y-110871000D01*
X153171500Y-110871000D01*
X153171500Y-111125000D01*
X153151500Y-111125000D01*
X153151500Y-111145000D01*
X152897500Y-111145000D01*
X152897500Y-111125000D01*
X152010750Y-111125000D01*
X151852000Y-111283750D01*
X151849165Y-111458428D01*
X150982499Y-111458428D01*
X150809245Y-111475492D01*
X150642649Y-111526028D01*
X150489113Y-111608095D01*
X150354538Y-111718538D01*
X150244095Y-111853113D01*
X150162028Y-112006649D01*
X150135227Y-112095000D01*
X150041851Y-112095000D01*
X150058685Y-112081185D01*
X150138037Y-111984494D01*
X150197002Y-111874180D01*
X150233312Y-111754482D01*
X150245572Y-111630000D01*
X150242500Y-111315750D01*
X150083750Y-111157000D01*
X149034500Y-111157000D01*
X149034500Y-111177000D01*
X148780500Y-111177000D01*
X148780500Y-111157000D01*
X147974678Y-111157000D01*
X147965494Y-111149463D01*
X147855180Y-111090498D01*
X147735482Y-111054188D01*
X147611000Y-111041928D01*
X146711000Y-111041928D01*
X146586518Y-111054188D01*
X146466820Y-111090498D01*
X146356506Y-111149463D01*
X146321504Y-111178188D01*
X146142089Y-111142500D01*
X145957911Y-111142500D01*
X145777271Y-111178432D01*
X145607111Y-111248914D01*
X145453972Y-111351238D01*
X145323738Y-111481472D01*
X145221414Y-111634611D01*
X145150932Y-111804771D01*
X145115000Y-111985411D01*
X145115000Y-111991928D01*
X144711000Y-111991928D01*
X144586518Y-112004188D01*
X144466820Y-112040498D01*
X144397865Y-112077356D01*
X144325494Y-112017963D01*
X144215180Y-111958998D01*
X144095482Y-111922688D01*
X143971000Y-111910428D01*
X143171000Y-111910428D01*
X143046518Y-111922688D01*
X142930385Y-111957917D01*
X142938972Y-111941851D01*
X142989508Y-111775255D01*
X143006572Y-111602001D01*
X143006572Y-110901999D01*
X142989508Y-110728745D01*
X142938972Y-110562149D01*
X142856905Y-110408613D01*
X142746462Y-110274038D01*
X142719609Y-110252000D01*
X142746462Y-110229962D01*
X142759735Y-110213789D01*
X142798038Y-110260462D01*
X142932613Y-110370905D01*
X143086149Y-110452972D01*
X143252745Y-110503508D01*
X143425999Y-110520572D01*
X145626001Y-110520572D01*
X145799255Y-110503508D01*
X145965851Y-110452972D01*
X146008828Y-110430000D01*
X147569428Y-110430000D01*
X147572500Y-110744250D01*
X147731250Y-110903000D01*
X148780500Y-110903000D01*
X148780500Y-109953750D01*
X149034500Y-109953750D01*
X149034500Y-110903000D01*
X150083750Y-110903000D01*
X150242500Y-110744250D01*
X150244662Y-110523000D01*
X151848928Y-110523000D01*
X151852000Y-110712250D01*
X152010750Y-110871000D01*
X152897500Y-110871000D01*
X152897500Y-110046750D01*
X152738750Y-109888000D01*
X152487000Y-109884928D01*
X152362518Y-109897188D01*
X152242820Y-109933498D01*
X152132506Y-109992463D01*
X152035815Y-110071815D01*
X151956463Y-110168506D01*
X151897498Y-110278820D01*
X151861188Y-110398518D01*
X151848928Y-110523000D01*
X150244662Y-110523000D01*
X150245572Y-110430000D01*
X150233312Y-110305518D01*
X150197002Y-110185820D01*
X150138037Y-110075506D01*
X150058685Y-109978815D01*
X149961994Y-109899463D01*
X149851680Y-109840498D01*
X149731982Y-109804188D01*
X149607500Y-109791928D01*
X149193250Y-109795000D01*
X149034500Y-109953750D01*
X148780500Y-109953750D01*
X148621750Y-109795000D01*
X148207500Y-109791928D01*
X148083018Y-109804188D01*
X147963320Y-109840498D01*
X147853006Y-109899463D01*
X147756315Y-109978815D01*
X147676963Y-110075506D01*
X147617998Y-110185820D01*
X147581688Y-110305518D01*
X147569428Y-110430000D01*
X146008828Y-110430000D01*
X146119387Y-110370905D01*
X146253962Y-110260462D01*
X146364405Y-110125887D01*
X146446472Y-109972351D01*
X146497008Y-109805755D01*
X146514072Y-109632501D01*
X146514072Y-108807499D01*
X146497008Y-108634245D01*
X146446472Y-108467649D01*
X146375303Y-108334500D01*
X155316428Y-108334500D01*
X155319500Y-108648750D01*
X155478250Y-108807500D01*
X156527500Y-108807500D01*
X156527500Y-107858250D01*
X156781500Y-107858250D01*
X156781500Y-108807500D01*
X157830750Y-108807500D01*
X157989500Y-108648750D01*
X157992572Y-108334500D01*
X157980312Y-108210018D01*
X157944002Y-108090320D01*
X157885037Y-107980006D01*
X157805685Y-107883315D01*
X157708994Y-107803963D01*
X157598680Y-107744998D01*
X157478982Y-107708688D01*
X157354500Y-107696428D01*
X156940250Y-107699500D01*
X156781500Y-107858250D01*
X156527500Y-107858250D01*
X156368750Y-107699500D01*
X155954500Y-107696428D01*
X155830018Y-107708688D01*
X155710320Y-107744998D01*
X155600006Y-107803963D01*
X155503315Y-107883315D01*
X155423963Y-107980006D01*
X155364998Y-108090320D01*
X155328688Y-108210018D01*
X155316428Y-108334500D01*
X146375303Y-108334500D01*
X146364405Y-108314113D01*
X146253962Y-108179538D01*
X146119387Y-108069095D01*
X145965851Y-107987028D01*
X145799255Y-107936492D01*
X145626001Y-107919428D01*
X145461000Y-107919428D01*
X145461000Y-107794411D01*
X145425068Y-107613771D01*
X145413358Y-107585500D01*
X149155928Y-107585500D01*
X149168188Y-107709982D01*
X149204498Y-107829680D01*
X149263463Y-107939994D01*
X149342815Y-108036685D01*
X149439506Y-108116037D01*
X149549820Y-108175002D01*
X149669518Y-108211312D01*
X149794000Y-108223572D01*
X150170750Y-108220500D01*
X150329500Y-108061750D01*
X150329500Y-106362500D01*
X150583500Y-106362500D01*
X150583500Y-108061750D01*
X150742250Y-108220500D01*
X151119000Y-108223572D01*
X151243482Y-108211312D01*
X151363180Y-108175002D01*
X151473494Y-108116037D01*
X151570185Y-108036685D01*
X151649537Y-107939994D01*
X151708502Y-107829680D01*
X151744812Y-107709982D01*
X151757072Y-107585500D01*
X151754000Y-106521250D01*
X151595250Y-106362500D01*
X150583500Y-106362500D01*
X150329500Y-106362500D01*
X149317750Y-106362500D01*
X149159000Y-106521250D01*
X149155928Y-107585500D01*
X145413358Y-107585500D01*
X145354586Y-107443611D01*
X145321418Y-107393971D01*
X145876000Y-107395572D01*
X146000482Y-107383312D01*
X146120180Y-107347002D01*
X146230494Y-107288037D01*
X146327185Y-107208685D01*
X146406537Y-107111994D01*
X146465502Y-107001680D01*
X146501812Y-106881982D01*
X146514072Y-106757500D01*
X146511000Y-106380750D01*
X146352250Y-106222000D01*
X144653000Y-106222000D01*
X144653000Y-106242000D01*
X144399000Y-106242000D01*
X144399000Y-106222000D01*
X142699750Y-106222000D01*
X142541000Y-106380750D01*
X142537928Y-106757500D01*
X142550188Y-106881982D01*
X142586498Y-107001680D01*
X142645463Y-107111994D01*
X142724815Y-107208685D01*
X142821506Y-107288037D01*
X142931820Y-107347002D01*
X143051518Y-107383312D01*
X143176000Y-107395572D01*
X143730582Y-107393971D01*
X143697414Y-107443611D01*
X143626932Y-107613771D01*
X143591000Y-107794411D01*
X143591000Y-107919428D01*
X143425999Y-107919428D01*
X143252745Y-107936492D01*
X143086149Y-107987028D01*
X142932613Y-108069095D01*
X142798038Y-108179538D01*
X142730939Y-108261298D01*
X142611887Y-108163595D01*
X142458351Y-108081528D01*
X142291755Y-108030992D01*
X142118501Y-108013928D01*
X141218499Y-108013928D01*
X141045245Y-108030992D01*
X140878649Y-108081528D01*
X140725113Y-108163595D01*
X140590538Y-108274038D01*
X140480095Y-108408613D01*
X140398028Y-108562149D01*
X140347492Y-108728745D01*
X140330428Y-108901999D01*
X140330428Y-109602001D01*
X140347492Y-109775255D01*
X140398028Y-109941851D01*
X140480095Y-110095387D01*
X140590538Y-110229962D01*
X140617391Y-110252000D01*
X140590538Y-110274038D01*
X140480095Y-110408613D01*
X140398028Y-110562149D01*
X140347492Y-110728745D01*
X140330428Y-110901999D01*
X140330428Y-111602001D01*
X140347492Y-111775255D01*
X140398028Y-111941851D01*
X140480095Y-112095387D01*
X140590538Y-112229962D01*
X140681427Y-112304553D01*
X140645188Y-112424018D01*
X140632928Y-112548500D01*
X140632928Y-113448500D01*
X140645188Y-113572982D01*
X140681498Y-113692680D01*
X140740463Y-113802994D01*
X140819815Y-113899685D01*
X140916506Y-113979037D01*
X141026820Y-114038002D01*
X141146518Y-114074312D01*
X141271000Y-114086572D01*
X141684270Y-114086572D01*
X141736098Y-114138400D01*
X141690463Y-114194006D01*
X141631498Y-114304320D01*
X141595188Y-114424018D01*
X141582928Y-114548500D01*
X141582928Y-115448500D01*
X141595188Y-115572982D01*
X141631498Y-115692680D01*
X141634036Y-115697428D01*
X141091499Y-115697428D01*
X140918245Y-115714492D01*
X140751649Y-115765028D01*
X140598113Y-115847095D01*
X140463538Y-115957538D01*
X140353095Y-116092113D01*
X140271028Y-116245649D01*
X140220492Y-116412245D01*
X140203428Y-116585499D01*
X140203428Y-117285501D01*
X140220492Y-117458755D01*
X140271028Y-117625351D01*
X140353095Y-117778887D01*
X140463538Y-117913462D01*
X140490391Y-117935500D01*
X140463538Y-117957538D01*
X140353095Y-118092113D01*
X140271028Y-118245649D01*
X140220492Y-118412245D01*
X140203428Y-118585499D01*
X140203428Y-119285501D01*
X140220492Y-119458755D01*
X140271028Y-119625351D01*
X140353095Y-119778887D01*
X140463538Y-119913462D01*
X140598113Y-120023905D01*
X140751649Y-120105972D01*
X140762926Y-120109393D01*
X140661985Y-120140013D01*
X140530060Y-120210529D01*
X140414427Y-120305427D01*
X140319529Y-120421060D01*
X140249013Y-120552985D01*
X140205590Y-120696132D01*
X140190928Y-120845000D01*
X140190928Y-121095000D01*
X140197330Y-121160000D01*
X139662976Y-121160000D01*
X139618405Y-121076613D01*
X139507962Y-120942038D01*
X139373387Y-120831595D01*
X139219851Y-120749528D01*
X139053255Y-120698992D01*
X138880001Y-120681928D01*
X137979999Y-120681928D01*
X137806745Y-120698992D01*
X137640149Y-120749528D01*
X137486613Y-120831595D01*
X137352038Y-120942038D01*
X137241595Y-121076613D01*
X137197024Y-121160000D01*
X137028043Y-121160000D01*
X136924637Y-121005241D01*
X136724759Y-120805363D01*
X136489727Y-120648320D01*
X136228574Y-120540147D01*
X135951335Y-120485000D01*
X135668665Y-120485000D01*
X135391426Y-120540147D01*
X135130273Y-120648320D01*
X134895241Y-120805363D01*
X134695363Y-121005241D01*
X134538320Y-121240273D01*
X134430147Y-121501426D01*
X134375000Y-121778665D01*
X132245000Y-121778665D01*
X132189853Y-121501426D01*
X132081680Y-121240273D01*
X131924637Y-121005241D01*
X131724759Y-120805363D01*
X131489727Y-120648320D01*
X131228574Y-120540147D01*
X130951335Y-120485000D01*
X130668665Y-120485000D01*
X130391426Y-120540147D01*
X130130273Y-120648320D01*
X129895241Y-120805363D01*
X129695363Y-121005241D01*
X129538320Y-121240273D01*
X129430147Y-121501426D01*
X129375000Y-121778665D01*
X127936500Y-121778665D01*
X127936500Y-121758967D01*
X127873668Y-121443088D01*
X127750418Y-121145537D01*
X127571487Y-120877748D01*
X127343752Y-120650013D01*
X127075963Y-120471082D01*
X126778412Y-120347832D01*
X126462533Y-120285000D01*
X126140467Y-120285000D01*
X125824588Y-120347832D01*
X125527037Y-120471082D01*
X125259248Y-120650013D01*
X125031513Y-120877748D01*
X124852582Y-121145537D01*
X124729332Y-121443088D01*
X124666500Y-121758967D01*
X122580000Y-121758967D01*
X122580000Y-105432500D01*
X142537928Y-105432500D01*
X142541000Y-105809250D01*
X142699750Y-105968000D01*
X144399000Y-105968000D01*
X144399000Y-104956250D01*
X144653000Y-104956250D01*
X144653000Y-105968000D01*
X146352250Y-105968000D01*
X146511000Y-105809250D01*
X146514072Y-105432500D01*
X146501812Y-105308018D01*
X146465502Y-105188320D01*
X146406537Y-105078006D01*
X146327185Y-104981315D01*
X146230494Y-104901963D01*
X146199695Y-104885500D01*
X149155928Y-104885500D01*
X149159000Y-105949750D01*
X149317750Y-106108500D01*
X150329500Y-106108500D01*
X150329500Y-104409250D01*
X150583500Y-104409250D01*
X150583500Y-106108500D01*
X151595250Y-106108500D01*
X151754000Y-105949750D01*
X151756350Y-105135499D01*
X152280928Y-105135499D01*
X152280928Y-107335501D01*
X152297992Y-107508755D01*
X152348528Y-107675351D01*
X152430595Y-107828887D01*
X152541038Y-107963462D01*
X152675613Y-108073905D01*
X152829149Y-108155972D01*
X152995745Y-108206508D01*
X153168999Y-108223572D01*
X153994001Y-108223572D01*
X154167255Y-108206508D01*
X154333851Y-108155972D01*
X154487387Y-108073905D01*
X154621962Y-107963462D01*
X154732405Y-107828887D01*
X154814472Y-107675351D01*
X154841727Y-107585500D01*
X162071428Y-107585500D01*
X162083688Y-107709982D01*
X162119998Y-107829680D01*
X162178963Y-107939994D01*
X162258315Y-108036685D01*
X162355006Y-108116037D01*
X162465320Y-108175002D01*
X162585018Y-108211312D01*
X162709500Y-108223572D01*
X163086250Y-108220500D01*
X163245000Y-108061750D01*
X163245000Y-106362500D01*
X163499000Y-106362500D01*
X163499000Y-108061750D01*
X163657750Y-108220500D01*
X164034500Y-108223572D01*
X164158982Y-108211312D01*
X164278680Y-108175002D01*
X164388994Y-108116037D01*
X164485685Y-108036685D01*
X164565037Y-107939994D01*
X164624002Y-107829680D01*
X164660312Y-107709982D01*
X164672572Y-107585500D01*
X164669500Y-106521250D01*
X164510750Y-106362500D01*
X163499000Y-106362500D01*
X163245000Y-106362500D01*
X162233250Y-106362500D01*
X162074500Y-106521250D01*
X162071428Y-107585500D01*
X154841727Y-107585500D01*
X154865008Y-107508755D01*
X154882072Y-107335501D01*
X154882072Y-107162447D01*
X155022229Y-107134568D01*
X155192389Y-107064086D01*
X155345528Y-106961762D01*
X155475762Y-106831528D01*
X155578086Y-106678389D01*
X155648568Y-106508229D01*
X155684500Y-106327589D01*
X155684500Y-106143411D01*
X155648568Y-105962771D01*
X155578086Y-105792611D01*
X155475762Y-105639472D01*
X155345528Y-105509238D01*
X155192389Y-105406914D01*
X155022229Y-105336432D01*
X154882072Y-105308553D01*
X154882072Y-105135499D01*
X154865008Y-104962245D01*
X154841728Y-104885500D01*
X162071428Y-104885500D01*
X162074500Y-105949750D01*
X162233250Y-106108500D01*
X163245000Y-106108500D01*
X163245000Y-104409250D01*
X163499000Y-104409250D01*
X163499000Y-106108500D01*
X164510750Y-106108500D01*
X164669500Y-105949750D01*
X164671850Y-105135499D01*
X165196428Y-105135499D01*
X165196428Y-107335501D01*
X165213492Y-107508755D01*
X165264028Y-107675351D01*
X165346095Y-107828887D01*
X165456538Y-107963462D01*
X165591113Y-108073905D01*
X165744649Y-108155972D01*
X165911245Y-108206508D01*
X166084499Y-108223572D01*
X166909501Y-108223572D01*
X167082755Y-108206508D01*
X167249351Y-108155972D01*
X167402887Y-108073905D01*
X167537462Y-107963462D01*
X167647905Y-107828887D01*
X167729972Y-107675351D01*
X167780508Y-107508755D01*
X167797572Y-107335501D01*
X167797572Y-107170500D01*
X167820161Y-107170500D01*
X167878095Y-107278886D01*
X167988538Y-107413462D01*
X168123114Y-107523905D01*
X168276650Y-107605972D01*
X168443246Y-107656508D01*
X168616500Y-107673572D01*
X171616500Y-107673572D01*
X171789754Y-107656508D01*
X171956350Y-107605972D01*
X172109886Y-107523905D01*
X172244462Y-107413462D01*
X172354905Y-107278886D01*
X172436972Y-107125350D01*
X172464227Y-107035500D01*
X173128428Y-107035500D01*
X173140688Y-107159982D01*
X173176998Y-107279680D01*
X173235963Y-107389994D01*
X173315315Y-107486685D01*
X173412006Y-107566037D01*
X173522320Y-107625002D01*
X173642018Y-107661312D01*
X173766500Y-107673572D01*
X175230750Y-107670500D01*
X175389500Y-107511750D01*
X175389500Y-106362500D01*
X175643500Y-106362500D01*
X175643500Y-107511750D01*
X175802250Y-107670500D01*
X177266500Y-107673572D01*
X177390982Y-107661312D01*
X177510680Y-107625002D01*
X177620994Y-107566037D01*
X177717685Y-107486685D01*
X177797037Y-107389994D01*
X177856002Y-107279680D01*
X177892312Y-107159982D01*
X177904572Y-107035500D01*
X177901500Y-106521250D01*
X177742750Y-106362500D01*
X175643500Y-106362500D01*
X175389500Y-106362500D01*
X173290250Y-106362500D01*
X173131500Y-106521250D01*
X173128428Y-107035500D01*
X172464227Y-107035500D01*
X172487508Y-106958754D01*
X172504572Y-106785500D01*
X172504572Y-105685500D01*
X172487508Y-105512246D01*
X172464228Y-105435500D01*
X173128428Y-105435500D01*
X173131500Y-105949750D01*
X173290250Y-106108500D01*
X175389500Y-106108500D01*
X175389500Y-104959250D01*
X175643500Y-104959250D01*
X175643500Y-106108500D01*
X177742750Y-106108500D01*
X177901500Y-105949750D01*
X177904572Y-105435500D01*
X177892312Y-105311018D01*
X177856002Y-105191320D01*
X177797037Y-105081006D01*
X177717685Y-104984315D01*
X177620994Y-104904963D01*
X177510680Y-104845998D01*
X177390982Y-104809688D01*
X177266500Y-104797428D01*
X175802250Y-104800500D01*
X175643500Y-104959250D01*
X175389500Y-104959250D01*
X175230750Y-104800500D01*
X173766500Y-104797428D01*
X173642018Y-104809688D01*
X173522320Y-104845998D01*
X173412006Y-104904963D01*
X173315315Y-104984315D01*
X173235963Y-105081006D01*
X173176998Y-105191320D01*
X173140688Y-105311018D01*
X173128428Y-105435500D01*
X172464228Y-105435500D01*
X172436972Y-105345650D01*
X172354905Y-105192114D01*
X172244462Y-105057538D01*
X172109886Y-104947095D01*
X171956350Y-104865028D01*
X171789754Y-104814492D01*
X171616500Y-104797428D01*
X168616500Y-104797428D01*
X168443246Y-104814492D01*
X168276650Y-104865028D01*
X168123114Y-104947095D01*
X167988538Y-105057538D01*
X167878095Y-105192114D01*
X167820161Y-105300500D01*
X167797572Y-105300500D01*
X167797572Y-105135499D01*
X167780508Y-104962245D01*
X167729972Y-104795649D01*
X167647905Y-104642113D01*
X167537462Y-104507538D01*
X167402887Y-104397095D01*
X167249351Y-104315028D01*
X167082755Y-104264492D01*
X166909501Y-104247428D01*
X166084499Y-104247428D01*
X165911245Y-104264492D01*
X165744649Y-104315028D01*
X165591113Y-104397095D01*
X165456538Y-104507538D01*
X165346095Y-104642113D01*
X165264028Y-104795649D01*
X165213492Y-104962245D01*
X165196428Y-105135499D01*
X164671850Y-105135499D01*
X164672572Y-104885500D01*
X164660312Y-104761018D01*
X164624002Y-104641320D01*
X164565037Y-104531006D01*
X164485685Y-104434315D01*
X164388994Y-104354963D01*
X164278680Y-104295998D01*
X164158982Y-104259688D01*
X164034500Y-104247428D01*
X163657750Y-104250500D01*
X163499000Y-104409250D01*
X163245000Y-104409250D01*
X163086250Y-104250500D01*
X162709500Y-104247428D01*
X162585018Y-104259688D01*
X162465320Y-104295998D01*
X162355006Y-104354963D01*
X162258315Y-104434315D01*
X162178963Y-104531006D01*
X162119998Y-104641320D01*
X162083688Y-104761018D01*
X162071428Y-104885500D01*
X154841728Y-104885500D01*
X154814472Y-104795649D01*
X154732405Y-104642113D01*
X154621962Y-104507538D01*
X154487387Y-104397095D01*
X154333851Y-104315028D01*
X154167255Y-104264492D01*
X153994001Y-104247428D01*
X153168999Y-104247428D01*
X152995745Y-104264492D01*
X152829149Y-104315028D01*
X152675613Y-104397095D01*
X152541038Y-104507538D01*
X152430595Y-104642113D01*
X152348528Y-104795649D01*
X152297992Y-104962245D01*
X152280928Y-105135499D01*
X151756350Y-105135499D01*
X151757072Y-104885500D01*
X151744812Y-104761018D01*
X151708502Y-104641320D01*
X151649537Y-104531006D01*
X151570185Y-104434315D01*
X151473494Y-104354963D01*
X151363180Y-104295998D01*
X151243482Y-104259688D01*
X151119000Y-104247428D01*
X150742250Y-104250500D01*
X150583500Y-104409250D01*
X150329500Y-104409250D01*
X150170750Y-104250500D01*
X149794000Y-104247428D01*
X149669518Y-104259688D01*
X149549820Y-104295998D01*
X149439506Y-104354963D01*
X149342815Y-104434315D01*
X149263463Y-104531006D01*
X149204498Y-104641320D01*
X149168188Y-104761018D01*
X149155928Y-104885500D01*
X146199695Y-104885500D01*
X146120180Y-104842998D01*
X146000482Y-104806688D01*
X145876000Y-104794428D01*
X144811750Y-104797500D01*
X144653000Y-104956250D01*
X144399000Y-104956250D01*
X144240250Y-104797500D01*
X143176000Y-104794428D01*
X143051518Y-104806688D01*
X142931820Y-104842998D01*
X142821506Y-104901963D01*
X142724815Y-104981315D01*
X142645463Y-105078006D01*
X142586498Y-105188320D01*
X142550188Y-105308018D01*
X142537928Y-105432500D01*
X122580000Y-105432500D01*
X122580000Y-100109872D01*
X124003000Y-100109872D01*
X124003000Y-100550128D01*
X124088890Y-100981925D01*
X124257369Y-101388669D01*
X124501962Y-101754729D01*
X124813271Y-102066038D01*
X125179331Y-102310631D01*
X125586075Y-102479110D01*
X126017872Y-102565000D01*
X126458128Y-102565000D01*
X126889925Y-102479110D01*
X127296669Y-102310631D01*
X127662729Y-102066038D01*
X127974038Y-101754729D01*
X128218631Y-101388669D01*
X128387110Y-100981925D01*
X128473000Y-100550128D01*
X128473000Y-100109872D01*
X197409000Y-100109872D01*
X197409000Y-100550128D01*
X197494890Y-100981925D01*
X197663369Y-101388669D01*
X197907962Y-101754729D01*
X198219271Y-102066038D01*
X198585331Y-102310631D01*
X198992075Y-102479110D01*
X199423872Y-102565000D01*
X199864128Y-102565000D01*
X200295925Y-102479110D01*
X200702669Y-102310631D01*
X201068729Y-102066038D01*
X201380038Y-101754729D01*
X201624631Y-101388669D01*
X201793110Y-100981925D01*
X201879000Y-100550128D01*
X201879000Y-100109872D01*
X201793110Y-99678075D01*
X201624631Y-99271331D01*
X201380038Y-98905271D01*
X201068729Y-98593962D01*
X200702669Y-98349369D01*
X200295925Y-98180890D01*
X199864128Y-98095000D01*
X199423872Y-98095000D01*
X198992075Y-98180890D01*
X198585331Y-98349369D01*
X198219271Y-98593962D01*
X197907962Y-98905271D01*
X197663369Y-99271331D01*
X197494890Y-99678075D01*
X197409000Y-100109872D01*
X128473000Y-100109872D01*
X128387110Y-99678075D01*
X128218631Y-99271331D01*
X127974038Y-98905271D01*
X127662729Y-98593962D01*
X127296669Y-98349369D01*
X126889925Y-98180890D01*
X126458128Y-98095000D01*
X126017872Y-98095000D01*
X125586075Y-98180890D01*
X125179331Y-98349369D01*
X124813271Y-98593962D01*
X124501962Y-98905271D01*
X124257369Y-99271331D01*
X124088890Y-99678075D01*
X124003000Y-100109872D01*
X122580000Y-100109872D01*
X122580000Y-96545000D01*
X203175001Y-96545000D01*
X203175000Y-147295000D01*
G37*
G04 #@! TD.AperFunction*
M02*
