M48
; DRILL file {KiCad (5.1.10-0-10_14)} date Wednesday, July 28, 2021 at 02:35:43 PM
; FORMAT={-:-/ absolute / inch / decimal}
; #@! TF.CreationDate,2021-07-28T14:35:43+02:00
; #@! TF.GenerationSoftware,Kicad,Pcbnew,(5.1.10-0-10_14)
; #@! TF.FileFunction,Plated,1,2,PTH
FMAT,2
INCH
T1C0.0118
T2C0.0315
T3C0.0394
%
G90
G05
T1
X5.5725Y-4.89
X5.69Y-4.2475
X5.725Y-4.7625
X5.725Y-4.8575
X5.75Y-4.4125
X5.7625Y-4.89
X5.7738Y-5.1137
X5.7775Y-4.8
X5.91Y-4.45
X5.9275Y-4.8
X6.05Y-4.9575
X6.0575Y-4.5425
X6.0575Y-4.6775
X6.0925Y-4.1825
X6.0925Y-4.33
X6.13Y-4.655
X6.1623Y-5.1402
X6.1625Y-5.4075
X6.265Y-4.72
X6.32Y-4.9575
X6.3475Y-4.5425
X6.5025Y-4.4775
X6.53Y-4.6175
X6.555Y-5.055
X6.56Y-4.72
X6.5975Y-5.0025
X6.6Y-5.4075
X6.6004Y-4.5371
X6.6075Y-4.1825
X6.6075Y-4.365
X6.635Y-4.5125
X6.635Y-4.72
X6.635Y-4.8925
X6.6975Y-4.6175
X6.8025Y-4.72
T2
X5.15Y-4.8
X5.3469Y-4.8
T3
X4.9725Y-4.8
X4.975Y-4.9975
X7.1725Y-4.72
X7.1725Y-4.92
X7.6675Y-4.8
X7.72Y-5.1425
X7.725Y-4.45
T0
M30
