G04 #@! TF.GenerationSoftware,KiCad,Pcbnew,(5.1.10-0-10_14)*
G04 #@! TF.CreationDate,2021-07-29T18:16:50+02:00*
G04 #@! TF.ProjectId,quasimodo,71756173-696d-46f6-946f-2e6b69636164,rev?*
G04 #@! TF.SameCoordinates,Original*
G04 #@! TF.FileFunction,Copper,L1,Top*
G04 #@! TF.FilePolarity,Positive*
%FSLAX46Y46*%
G04 Gerber Fmt 4.6, Leading zero omitted, Abs format (unit mm)*
G04 Created by KiCad (PCBNEW (5.1.10-0-10_14)) date 2021-07-29 18:16:50*
%MOMM*%
%LPD*%
G01*
G04 APERTURE LIST*
G04 #@! TA.AperFunction,ComponentPad*
%ADD10C,2.600000*%
G04 #@! TD*
G04 #@! TA.AperFunction,ComponentPad*
%ADD11C,2.000000*%
G04 #@! TD*
G04 #@! TA.AperFunction,ComponentPad*
%ADD12O,2.190000X1.740000*%
G04 #@! TD*
G04 #@! TA.AperFunction,ComponentPad*
%ADD13O,1.700000X1.700000*%
G04 #@! TD*
G04 #@! TA.AperFunction,ComponentPad*
%ADD14R,1.700000X1.700000*%
G04 #@! TD*
G04 #@! TA.AperFunction,ViaPad*
%ADD15C,0.800000*%
G04 #@! TD*
G04 #@! TA.AperFunction,Conductor*
%ADD16C,0.500000*%
G04 #@! TD*
G04 #@! TA.AperFunction,Conductor*
%ADD17C,0.254000*%
G04 #@! TD*
G04 #@! TA.AperFunction,Conductor*
%ADD18C,0.100000*%
G04 #@! TD*
G04 APERTURE END LIST*
G04 #@! TA.AperFunction,SMDPad,CuDef*
G36*
G01*
X129390000Y-114909500D02*
X129690000Y-114909500D01*
G75*
G02*
X129840000Y-115059500I0J-150000D01*
G01*
X129840000Y-116709500D01*
G75*
G02*
X129690000Y-116859500I-150000J0D01*
G01*
X129390000Y-116859500D01*
G75*
G02*
X129240000Y-116709500I0J150000D01*
G01*
X129240000Y-115059500D01*
G75*
G02*
X129390000Y-114909500I150000J0D01*
G01*
G37*
G04 #@! TD.AperFunction*
G04 #@! TA.AperFunction,SMDPad,CuDef*
G36*
G01*
X128120000Y-114909500D02*
X128420000Y-114909500D01*
G75*
G02*
X128570000Y-115059500I0J-150000D01*
G01*
X128570000Y-116709500D01*
G75*
G02*
X128420000Y-116859500I-150000J0D01*
G01*
X128120000Y-116859500D01*
G75*
G02*
X127970000Y-116709500I0J150000D01*
G01*
X127970000Y-115059500D01*
G75*
G02*
X128120000Y-114909500I150000J0D01*
G01*
G37*
G04 #@! TD.AperFunction*
G04 #@! TA.AperFunction,SMDPad,CuDef*
G36*
G01*
X126850000Y-114909500D02*
X127150000Y-114909500D01*
G75*
G02*
X127300000Y-115059500I0J-150000D01*
G01*
X127300000Y-116709500D01*
G75*
G02*
X127150000Y-116859500I-150000J0D01*
G01*
X126850000Y-116859500D01*
G75*
G02*
X126700000Y-116709500I0J150000D01*
G01*
X126700000Y-115059500D01*
G75*
G02*
X126850000Y-114909500I150000J0D01*
G01*
G37*
G04 #@! TD.AperFunction*
G04 #@! TA.AperFunction,SMDPad,CuDef*
G36*
G01*
X125580000Y-114909500D02*
X125880000Y-114909500D01*
G75*
G02*
X126030000Y-115059500I0J-150000D01*
G01*
X126030000Y-116709500D01*
G75*
G02*
X125880000Y-116859500I-150000J0D01*
G01*
X125580000Y-116859500D01*
G75*
G02*
X125430000Y-116709500I0J150000D01*
G01*
X125430000Y-115059500D01*
G75*
G02*
X125580000Y-114909500I150000J0D01*
G01*
G37*
G04 #@! TD.AperFunction*
G04 #@! TA.AperFunction,SMDPad,CuDef*
G36*
G01*
X125580000Y-109959500D02*
X125880000Y-109959500D01*
G75*
G02*
X126030000Y-110109500I0J-150000D01*
G01*
X126030000Y-111759500D01*
G75*
G02*
X125880000Y-111909500I-150000J0D01*
G01*
X125580000Y-111909500D01*
G75*
G02*
X125430000Y-111759500I0J150000D01*
G01*
X125430000Y-110109500D01*
G75*
G02*
X125580000Y-109959500I150000J0D01*
G01*
G37*
G04 #@! TD.AperFunction*
G04 #@! TA.AperFunction,SMDPad,CuDef*
G36*
G01*
X126850000Y-109959500D02*
X127150000Y-109959500D01*
G75*
G02*
X127300000Y-110109500I0J-150000D01*
G01*
X127300000Y-111759500D01*
G75*
G02*
X127150000Y-111909500I-150000J0D01*
G01*
X126850000Y-111909500D01*
G75*
G02*
X126700000Y-111759500I0J150000D01*
G01*
X126700000Y-110109500D01*
G75*
G02*
X126850000Y-109959500I150000J0D01*
G01*
G37*
G04 #@! TD.AperFunction*
G04 #@! TA.AperFunction,SMDPad,CuDef*
G36*
G01*
X128120000Y-109959500D02*
X128420000Y-109959500D01*
G75*
G02*
X128570000Y-110109500I0J-150000D01*
G01*
X128570000Y-111759500D01*
G75*
G02*
X128420000Y-111909500I-150000J0D01*
G01*
X128120000Y-111909500D01*
G75*
G02*
X127970000Y-111759500I0J150000D01*
G01*
X127970000Y-110109500D01*
G75*
G02*
X128120000Y-109959500I150000J0D01*
G01*
G37*
G04 #@! TD.AperFunction*
G04 #@! TA.AperFunction,SMDPad,CuDef*
G36*
G01*
X129390000Y-109959500D02*
X129690000Y-109959500D01*
G75*
G02*
X129840000Y-110109500I0J-150000D01*
G01*
X129840000Y-111759500D01*
G75*
G02*
X129690000Y-111909500I-150000J0D01*
G01*
X129390000Y-111909500D01*
G75*
G02*
X129240000Y-111759500I0J150000D01*
G01*
X129240000Y-110109500D01*
G75*
G02*
X129390000Y-109959500I150000J0D01*
G01*
G37*
G04 #@! TD.AperFunction*
G04 #@! TA.AperFunction,SMDPad,CuDef*
G36*
G01*
X125880000Y-102003500D02*
X125580000Y-102003500D01*
G75*
G02*
X125430000Y-101853500I0J150000D01*
G01*
X125430000Y-100203500D01*
G75*
G02*
X125580000Y-100053500I150000J0D01*
G01*
X125880000Y-100053500D01*
G75*
G02*
X126030000Y-100203500I0J-150000D01*
G01*
X126030000Y-101853500D01*
G75*
G02*
X125880000Y-102003500I-150000J0D01*
G01*
G37*
G04 #@! TD.AperFunction*
G04 #@! TA.AperFunction,SMDPad,CuDef*
G36*
G01*
X127150000Y-102003500D02*
X126850000Y-102003500D01*
G75*
G02*
X126700000Y-101853500I0J150000D01*
G01*
X126700000Y-100203500D01*
G75*
G02*
X126850000Y-100053500I150000J0D01*
G01*
X127150000Y-100053500D01*
G75*
G02*
X127300000Y-100203500I0J-150000D01*
G01*
X127300000Y-101853500D01*
G75*
G02*
X127150000Y-102003500I-150000J0D01*
G01*
G37*
G04 #@! TD.AperFunction*
G04 #@! TA.AperFunction,SMDPad,CuDef*
G36*
G01*
X128420000Y-102003500D02*
X128120000Y-102003500D01*
G75*
G02*
X127970000Y-101853500I0J150000D01*
G01*
X127970000Y-100203500D01*
G75*
G02*
X128120000Y-100053500I150000J0D01*
G01*
X128420000Y-100053500D01*
G75*
G02*
X128570000Y-100203500I0J-150000D01*
G01*
X128570000Y-101853500D01*
G75*
G02*
X128420000Y-102003500I-150000J0D01*
G01*
G37*
G04 #@! TD.AperFunction*
G04 #@! TA.AperFunction,SMDPad,CuDef*
G36*
G01*
X129690000Y-102003500D02*
X129390000Y-102003500D01*
G75*
G02*
X129240000Y-101853500I0J150000D01*
G01*
X129240000Y-100203500D01*
G75*
G02*
X129390000Y-100053500I150000J0D01*
G01*
X129690000Y-100053500D01*
G75*
G02*
X129840000Y-100203500I0J-150000D01*
G01*
X129840000Y-101853500D01*
G75*
G02*
X129690000Y-102003500I-150000J0D01*
G01*
G37*
G04 #@! TD.AperFunction*
G04 #@! TA.AperFunction,SMDPad,CuDef*
G36*
G01*
X129690000Y-106953500D02*
X129390000Y-106953500D01*
G75*
G02*
X129240000Y-106803500I0J150000D01*
G01*
X129240000Y-105153500D01*
G75*
G02*
X129390000Y-105003500I150000J0D01*
G01*
X129690000Y-105003500D01*
G75*
G02*
X129840000Y-105153500I0J-150000D01*
G01*
X129840000Y-106803500D01*
G75*
G02*
X129690000Y-106953500I-150000J0D01*
G01*
G37*
G04 #@! TD.AperFunction*
G04 #@! TA.AperFunction,SMDPad,CuDef*
G36*
G01*
X128420000Y-106953500D02*
X128120000Y-106953500D01*
G75*
G02*
X127970000Y-106803500I0J150000D01*
G01*
X127970000Y-105153500D01*
G75*
G02*
X128120000Y-105003500I150000J0D01*
G01*
X128420000Y-105003500D01*
G75*
G02*
X128570000Y-105153500I0J-150000D01*
G01*
X128570000Y-106803500D01*
G75*
G02*
X128420000Y-106953500I-150000J0D01*
G01*
G37*
G04 #@! TD.AperFunction*
G04 #@! TA.AperFunction,SMDPad,CuDef*
G36*
G01*
X127150000Y-106953500D02*
X126850000Y-106953500D01*
G75*
G02*
X126700000Y-106803500I0J150000D01*
G01*
X126700000Y-105153500D01*
G75*
G02*
X126850000Y-105003500I150000J0D01*
G01*
X127150000Y-105003500D01*
G75*
G02*
X127300000Y-105153500I0J-150000D01*
G01*
X127300000Y-106803500D01*
G75*
G02*
X127150000Y-106953500I-150000J0D01*
G01*
G37*
G04 #@! TD.AperFunction*
G04 #@! TA.AperFunction,SMDPad,CuDef*
G36*
G01*
X125880000Y-106953500D02*
X125580000Y-106953500D01*
G75*
G02*
X125430000Y-106803500I0J150000D01*
G01*
X125430000Y-105153500D01*
G75*
G02*
X125580000Y-105003500I150000J0D01*
G01*
X125880000Y-105003500D01*
G75*
G02*
X126030000Y-105153500I0J-150000D01*
G01*
X126030000Y-106803500D01*
G75*
G02*
X125880000Y-106953500I-150000J0D01*
G01*
G37*
G04 #@! TD.AperFunction*
G04 #@! TA.AperFunction,SMDPad,CuDef*
G36*
G01*
X134902500Y-91815499D02*
X134902500Y-92715501D01*
G75*
G02*
X134652501Y-92965500I-249999J0D01*
G01*
X133952499Y-92965500D01*
G75*
G02*
X133702500Y-92715501I0J249999D01*
G01*
X133702500Y-91815499D01*
G75*
G02*
X133952499Y-91565500I249999J0D01*
G01*
X134652501Y-91565500D01*
G75*
G02*
X134902500Y-91815499I0J-249999D01*
G01*
G37*
G04 #@! TD.AperFunction*
G04 #@! TA.AperFunction,SMDPad,CuDef*
G36*
G01*
X136902500Y-91815499D02*
X136902500Y-92715501D01*
G75*
G02*
X136652501Y-92965500I-249999J0D01*
G01*
X135952499Y-92965500D01*
G75*
G02*
X135702500Y-92715501I0J249999D01*
G01*
X135702500Y-91815499D01*
G75*
G02*
X135952499Y-91565500I249999J0D01*
G01*
X136652501Y-91565500D01*
G75*
G02*
X136902500Y-91815499I0J-249999D01*
G01*
G37*
G04 #@! TD.AperFunction*
G04 #@! TA.AperFunction,SMDPad,CuDef*
G36*
G01*
X128400000Y-108844501D02*
X128400000Y-107944499D01*
G75*
G02*
X128649999Y-107694500I249999J0D01*
G01*
X129350001Y-107694500D01*
G75*
G02*
X129600000Y-107944499I0J-249999D01*
G01*
X129600000Y-108844501D01*
G75*
G02*
X129350001Y-109094500I-249999J0D01*
G01*
X128649999Y-109094500D01*
G75*
G02*
X128400000Y-108844501I0J249999D01*
G01*
G37*
G04 #@! TD.AperFunction*
G04 #@! TA.AperFunction,SMDPad,CuDef*
G36*
G01*
X126400000Y-108844501D02*
X126400000Y-107944499D01*
G75*
G02*
X126649999Y-107694500I249999J0D01*
G01*
X127350001Y-107694500D01*
G75*
G02*
X127600000Y-107944499I0J-249999D01*
G01*
X127600000Y-108844501D01*
G75*
G02*
X127350001Y-109094500I-249999J0D01*
G01*
X126649999Y-109094500D01*
G75*
G02*
X126400000Y-108844501I0J249999D01*
G01*
G37*
G04 #@! TD.AperFunction*
G04 #@! TA.AperFunction,SMDPad,CuDef*
G36*
G01*
X130978000Y-92402800D02*
X130978000Y-92102800D01*
G75*
G02*
X131128000Y-91952800I150000J0D01*
G01*
X132778000Y-91952800D01*
G75*
G02*
X132928000Y-92102800I0J-150000D01*
G01*
X132928000Y-92402800D01*
G75*
G02*
X132778000Y-92552800I-150000J0D01*
G01*
X131128000Y-92552800D01*
G75*
G02*
X130978000Y-92402800I0J150000D01*
G01*
G37*
G04 #@! TD.AperFunction*
G04 #@! TA.AperFunction,SMDPad,CuDef*
G36*
G01*
X130978000Y-93672800D02*
X130978000Y-93372800D01*
G75*
G02*
X131128000Y-93222800I150000J0D01*
G01*
X132778000Y-93222800D01*
G75*
G02*
X132928000Y-93372800I0J-150000D01*
G01*
X132928000Y-93672800D01*
G75*
G02*
X132778000Y-93822800I-150000J0D01*
G01*
X131128000Y-93822800D01*
G75*
G02*
X130978000Y-93672800I0J150000D01*
G01*
G37*
G04 #@! TD.AperFunction*
G04 #@! TA.AperFunction,SMDPad,CuDef*
G36*
G01*
X130978000Y-94942800D02*
X130978000Y-94642800D01*
G75*
G02*
X131128000Y-94492800I150000J0D01*
G01*
X132778000Y-94492800D01*
G75*
G02*
X132928000Y-94642800I0J-150000D01*
G01*
X132928000Y-94942800D01*
G75*
G02*
X132778000Y-95092800I-150000J0D01*
G01*
X131128000Y-95092800D01*
G75*
G02*
X130978000Y-94942800I0J150000D01*
G01*
G37*
G04 #@! TD.AperFunction*
G04 #@! TA.AperFunction,SMDPad,CuDef*
G36*
G01*
X130978000Y-96212800D02*
X130978000Y-95912800D01*
G75*
G02*
X131128000Y-95762800I150000J0D01*
G01*
X132778000Y-95762800D01*
G75*
G02*
X132928000Y-95912800I0J-150000D01*
G01*
X132928000Y-96212800D01*
G75*
G02*
X132778000Y-96362800I-150000J0D01*
G01*
X131128000Y-96362800D01*
G75*
G02*
X130978000Y-96212800I0J150000D01*
G01*
G37*
G04 #@! TD.AperFunction*
G04 #@! TA.AperFunction,SMDPad,CuDef*
G36*
G01*
X126028000Y-96212800D02*
X126028000Y-95912800D01*
G75*
G02*
X126178000Y-95762800I150000J0D01*
G01*
X127828000Y-95762800D01*
G75*
G02*
X127978000Y-95912800I0J-150000D01*
G01*
X127978000Y-96212800D01*
G75*
G02*
X127828000Y-96362800I-150000J0D01*
G01*
X126178000Y-96362800D01*
G75*
G02*
X126028000Y-96212800I0J150000D01*
G01*
G37*
G04 #@! TD.AperFunction*
G04 #@! TA.AperFunction,SMDPad,CuDef*
G36*
G01*
X126028000Y-94942800D02*
X126028000Y-94642800D01*
G75*
G02*
X126178000Y-94492800I150000J0D01*
G01*
X127828000Y-94492800D01*
G75*
G02*
X127978000Y-94642800I0J-150000D01*
G01*
X127978000Y-94942800D01*
G75*
G02*
X127828000Y-95092800I-150000J0D01*
G01*
X126178000Y-95092800D01*
G75*
G02*
X126028000Y-94942800I0J150000D01*
G01*
G37*
G04 #@! TD.AperFunction*
G04 #@! TA.AperFunction,SMDPad,CuDef*
G36*
G01*
X126028000Y-93672800D02*
X126028000Y-93372800D01*
G75*
G02*
X126178000Y-93222800I150000J0D01*
G01*
X127828000Y-93222800D01*
G75*
G02*
X127978000Y-93372800I0J-150000D01*
G01*
X127978000Y-93672800D01*
G75*
G02*
X127828000Y-93822800I-150000J0D01*
G01*
X126178000Y-93822800D01*
G75*
G02*
X126028000Y-93672800I0J150000D01*
G01*
G37*
G04 #@! TD.AperFunction*
G04 #@! TA.AperFunction,SMDPad,CuDef*
G36*
G01*
X126028000Y-92402800D02*
X126028000Y-92102800D01*
G75*
G02*
X126178000Y-91952800I150000J0D01*
G01*
X127828000Y-91952800D01*
G75*
G02*
X127978000Y-92102800I0J-150000D01*
G01*
X127978000Y-92402800D01*
G75*
G02*
X127828000Y-92552800I-150000J0D01*
G01*
X126178000Y-92552800D01*
G75*
G02*
X126028000Y-92402800I0J150000D01*
G01*
G37*
G04 #@! TD.AperFunction*
D10*
X153987500Y-108204000D03*
X153987500Y-103124000D03*
D11*
X149796500Y-108204000D03*
X149796500Y-103124000D03*
D12*
X162496500Y-106870500D03*
G04 #@! TA.AperFunction,ComponentPad*
G36*
G01*
X161651499Y-103460500D02*
X163341501Y-103460500D01*
G75*
G02*
X163591500Y-103710499I0J-249999D01*
G01*
X163591500Y-104950501D01*
G75*
G02*
X163341501Y-105200500I-249999J0D01*
G01*
X161651499Y-105200500D01*
G75*
G02*
X161401500Y-104950501I0J249999D01*
G01*
X161401500Y-103710499D01*
G75*
G02*
X161651499Y-103460500I249999J0D01*
G01*
G37*
G04 #@! TD.AperFunction*
D11*
X162496500Y-98933000D03*
X162496500Y-92964000D03*
D13*
X135445500Y-115824000D03*
X137985500Y-115824000D03*
D14*
X140525500Y-115824000D03*
D13*
X144716500Y-115824000D03*
X144716500Y-113284000D03*
X144716500Y-110744000D03*
X144716500Y-108204000D03*
X144716500Y-105664000D03*
X144716500Y-103124000D03*
X144716500Y-100584000D03*
X144716500Y-98044000D03*
X144716500Y-95504000D03*
D14*
X144716500Y-92964000D03*
D13*
X144653000Y-89281000D03*
X142113000Y-89281000D03*
X139573000Y-89281000D03*
X137033000Y-89281000D03*
X134493000Y-89281000D03*
X131953000Y-89281000D03*
X129413000Y-89281000D03*
X126873000Y-89281000D03*
X124333000Y-89281000D03*
D14*
X121793000Y-89281000D03*
D11*
X119253000Y-104267000D03*
X119253000Y-97345500D03*
G04 #@! TA.AperFunction,SMDPad,CuDef*
G36*
G01*
X135796000Y-96229500D02*
X136746000Y-96229500D01*
G75*
G02*
X136996000Y-96479500I0J-250000D01*
G01*
X136996000Y-97154500D01*
G75*
G02*
X136746000Y-97404500I-250000J0D01*
G01*
X135796000Y-97404500D01*
G75*
G02*
X135546000Y-97154500I0J250000D01*
G01*
X135546000Y-96479500D01*
G75*
G02*
X135796000Y-96229500I250000J0D01*
G01*
G37*
G04 #@! TD.AperFunction*
G04 #@! TA.AperFunction,SMDPad,CuDef*
G36*
G01*
X135796000Y-94154500D02*
X136746000Y-94154500D01*
G75*
G02*
X136996000Y-94404500I0J-250000D01*
G01*
X136996000Y-95079500D01*
G75*
G02*
X136746000Y-95329500I-250000J0D01*
G01*
X135796000Y-95329500D01*
G75*
G02*
X135546000Y-95079500I0J250000D01*
G01*
X135546000Y-94404500D01*
G75*
G02*
X135796000Y-94154500I250000J0D01*
G01*
G37*
G04 #@! TD.AperFunction*
G04 #@! TA.AperFunction,SMDPad,CuDef*
G36*
G01*
X129778000Y-99154000D02*
X129778000Y-98204000D01*
G75*
G02*
X130028000Y-97954000I250000J0D01*
G01*
X130703000Y-97954000D01*
G75*
G02*
X130953000Y-98204000I0J-250000D01*
G01*
X130953000Y-99154000D01*
G75*
G02*
X130703000Y-99404000I-250000J0D01*
G01*
X130028000Y-99404000D01*
G75*
G02*
X129778000Y-99154000I0J250000D01*
G01*
G37*
G04 #@! TD.AperFunction*
G04 #@! TA.AperFunction,SMDPad,CuDef*
G36*
G01*
X127703000Y-99154000D02*
X127703000Y-98204000D01*
G75*
G02*
X127953000Y-97954000I250000J0D01*
G01*
X128628000Y-97954000D01*
G75*
G02*
X128878000Y-98204000I0J-250000D01*
G01*
X128878000Y-99154000D01*
G75*
G02*
X128628000Y-99404000I-250000J0D01*
G01*
X127953000Y-99404000D01*
G75*
G02*
X127703000Y-99154000I0J250000D01*
G01*
G37*
G04 #@! TD.AperFunction*
G04 #@! TA.AperFunction,SMDPad,CuDef*
G36*
G01*
X132361000Y-108869500D02*
X132361000Y-107919500D01*
G75*
G02*
X132611000Y-107669500I250000J0D01*
G01*
X133286000Y-107669500D01*
G75*
G02*
X133536000Y-107919500I0J-250000D01*
G01*
X133536000Y-108869500D01*
G75*
G02*
X133286000Y-109119500I-250000J0D01*
G01*
X132611000Y-109119500D01*
G75*
G02*
X132361000Y-108869500I0J250000D01*
G01*
G37*
G04 #@! TD.AperFunction*
G04 #@! TA.AperFunction,SMDPad,CuDef*
G36*
G01*
X130286000Y-108869500D02*
X130286000Y-107919500D01*
G75*
G02*
X130536000Y-107669500I250000J0D01*
G01*
X131211000Y-107669500D01*
G75*
G02*
X131461000Y-107919500I0J-250000D01*
G01*
X131461000Y-108869500D01*
G75*
G02*
X131211000Y-109119500I-250000J0D01*
G01*
X130536000Y-109119500D01*
G75*
G02*
X130286000Y-108869500I0J250000D01*
G01*
G37*
G04 #@! TD.AperFunction*
G04 #@! TA.AperFunction,SMDPad,CuDef*
G36*
G01*
X122778500Y-112442500D02*
X123728500Y-112442500D01*
G75*
G02*
X123978500Y-112692500I0J-250000D01*
G01*
X123978500Y-113367500D01*
G75*
G02*
X123728500Y-113617500I-250000J0D01*
G01*
X122778500Y-113617500D01*
G75*
G02*
X122528500Y-113367500I0J250000D01*
G01*
X122528500Y-112692500D01*
G75*
G02*
X122778500Y-112442500I250000J0D01*
G01*
G37*
G04 #@! TD.AperFunction*
G04 #@! TA.AperFunction,SMDPad,CuDef*
G36*
G01*
X122778500Y-110367500D02*
X123728500Y-110367500D01*
G75*
G02*
X123978500Y-110617500I0J-250000D01*
G01*
X123978500Y-111292500D01*
G75*
G02*
X123728500Y-111542500I-250000J0D01*
G01*
X122778500Y-111542500D01*
G75*
G02*
X122528500Y-111292500I0J250000D01*
G01*
X122528500Y-110617500D01*
G75*
G02*
X122778500Y-110367500I250000J0D01*
G01*
G37*
G04 #@! TD.AperFunction*
G04 #@! TA.AperFunction,SMDPad,CuDef*
G36*
G01*
X127196000Y-119029500D02*
X127196000Y-118079500D01*
G75*
G02*
X127446000Y-117829500I250000J0D01*
G01*
X128121000Y-117829500D01*
G75*
G02*
X128371000Y-118079500I0J-250000D01*
G01*
X128371000Y-119029500D01*
G75*
G02*
X128121000Y-119279500I-250000J0D01*
G01*
X127446000Y-119279500D01*
G75*
G02*
X127196000Y-119029500I0J250000D01*
G01*
G37*
G04 #@! TD.AperFunction*
G04 #@! TA.AperFunction,SMDPad,CuDef*
G36*
G01*
X125121000Y-119029500D02*
X125121000Y-118079500D01*
G75*
G02*
X125371000Y-117829500I250000J0D01*
G01*
X126046000Y-117829500D01*
G75*
G02*
X126296000Y-118079500I0J-250000D01*
G01*
X126296000Y-119029500D01*
G75*
G02*
X126046000Y-119279500I-250000J0D01*
G01*
X125371000Y-119279500D01*
G75*
G02*
X125121000Y-119029500I0J250000D01*
G01*
G37*
G04 #@! TD.AperFunction*
D15*
X128270000Y-97345500D03*
X136271000Y-93535500D03*
X124650500Y-110934500D03*
X129540000Y-114046000D03*
D16*
X125708500Y-115906000D02*
X125730000Y-115884500D01*
X125708500Y-118554500D02*
X125708500Y-115906000D01*
X128270000Y-98699500D02*
X128290500Y-98679000D01*
X128270000Y-101028500D02*
X128270000Y-98699500D01*
X128290500Y-97366000D02*
X128270000Y-97345500D01*
X128290500Y-98679000D02*
X128290500Y-97366000D01*
X136271000Y-92297000D02*
X136302500Y-92265500D01*
X136271000Y-94742000D02*
X136271000Y-93535500D01*
X136271000Y-93535500D02*
X136271000Y-92297000D01*
X123274000Y-110934500D02*
X123253500Y-110955000D01*
X125730000Y-110934500D02*
X124650500Y-110934500D01*
X124650500Y-110934500D02*
X123274000Y-110934500D01*
X129540000Y-115884500D02*
X129540000Y-114046000D01*
X128270000Y-109124500D02*
X129000000Y-108394500D01*
X128270000Y-110934500D02*
X128270000Y-109124500D01*
X129000000Y-108394500D02*
X130873500Y-108394500D01*
X128270000Y-111488044D02*
X128270000Y-110934500D01*
X127000000Y-112758044D02*
X128270000Y-111488044D01*
X127000000Y-115884500D02*
X127000000Y-112758044D01*
X131953000Y-96062800D02*
X131953000Y-94792800D01*
X131953000Y-94792800D02*
X131953000Y-93522800D01*
X131953000Y-93522800D02*
X131953000Y-92252800D01*
X131953000Y-92252800D02*
X131953000Y-89281000D01*
X131965700Y-92265500D02*
X131953000Y-92252800D01*
X134302500Y-92265500D02*
X131965700Y-92265500D01*
X127000000Y-96065800D02*
X127003000Y-96062800D01*
X127000000Y-101028500D02*
X127000000Y-96065800D01*
X127000000Y-110934500D02*
X127000000Y-108394500D01*
X127000000Y-108394500D02*
X127000000Y-105978500D01*
D17*
X169418000Y-122428000D02*
X115062000Y-122428000D01*
X115062000Y-118524872D01*
X116510000Y-118524872D01*
X116510000Y-118965128D01*
X116595890Y-119396925D01*
X116764369Y-119803669D01*
X117008962Y-120169729D01*
X117320271Y-120481038D01*
X117686331Y-120725631D01*
X118093075Y-120894110D01*
X118524872Y-120980000D01*
X118965128Y-120980000D01*
X119396925Y-120894110D01*
X119803669Y-120725631D01*
X120169729Y-120481038D01*
X120481038Y-120169729D01*
X120725631Y-119803669D01*
X120894110Y-119396925D01*
X120980000Y-118965128D01*
X120980000Y-118524872D01*
X120894110Y-118093075D01*
X120725631Y-117686331D01*
X120481038Y-117320271D01*
X120169729Y-117008962D01*
X119803669Y-116764369D01*
X119396925Y-116595890D01*
X118965128Y-116510000D01*
X118524872Y-116510000D01*
X118093075Y-116595890D01*
X117686331Y-116764369D01*
X117320271Y-117008962D01*
X117008962Y-117320271D01*
X116764369Y-117686331D01*
X116595890Y-118093075D01*
X116510000Y-118524872D01*
X115062000Y-118524872D01*
X115062000Y-113617500D01*
X121890428Y-113617500D01*
X121902688Y-113741982D01*
X121938998Y-113861680D01*
X121997963Y-113971994D01*
X122077315Y-114068685D01*
X122174006Y-114148037D01*
X122284320Y-114207002D01*
X122404018Y-114243312D01*
X122528500Y-114255572D01*
X122967750Y-114252500D01*
X123126500Y-114093750D01*
X123126500Y-113157000D01*
X123380500Y-113157000D01*
X123380500Y-114093750D01*
X123539250Y-114252500D01*
X123978500Y-114255572D01*
X124102982Y-114243312D01*
X124222680Y-114207002D01*
X124332994Y-114148037D01*
X124429685Y-114068685D01*
X124509037Y-113971994D01*
X124568002Y-113861680D01*
X124604312Y-113741982D01*
X124616572Y-113617500D01*
X124613500Y-113315750D01*
X124454750Y-113157000D01*
X123380500Y-113157000D01*
X123126500Y-113157000D01*
X122052250Y-113157000D01*
X121893500Y-113315750D01*
X121890428Y-113617500D01*
X115062000Y-113617500D01*
X115062000Y-110617500D01*
X121890428Y-110617500D01*
X121890428Y-111292500D01*
X121907492Y-111465754D01*
X121958028Y-111632350D01*
X122040095Y-111785886D01*
X122150538Y-111920462D01*
X122157094Y-111925842D01*
X122077315Y-111991315D01*
X121997963Y-112088006D01*
X121938998Y-112198320D01*
X121902688Y-112318018D01*
X121890428Y-112442500D01*
X121893500Y-112744250D01*
X122052250Y-112903000D01*
X123126500Y-112903000D01*
X123126500Y-112883000D01*
X123380500Y-112883000D01*
X123380500Y-112903000D01*
X124454750Y-112903000D01*
X124613500Y-112744250D01*
X124616572Y-112442500D01*
X124604312Y-112318018D01*
X124568002Y-112198320D01*
X124509037Y-112088006D01*
X124429685Y-111991315D01*
X124356569Y-111931311D01*
X124548561Y-111969500D01*
X124752439Y-111969500D01*
X124820056Y-111956050D01*
X124851916Y-112061082D01*
X124924742Y-112197329D01*
X125022749Y-112316751D01*
X125142171Y-112414758D01*
X125278418Y-112487584D01*
X125426255Y-112532429D01*
X125580000Y-112547572D01*
X125880000Y-112547572D01*
X126033745Y-112532429D01*
X126154753Y-112495722D01*
X126127805Y-112584554D01*
X126110719Y-112758044D01*
X126115001Y-112801523D01*
X126115001Y-114311219D01*
X126033745Y-114286571D01*
X125880000Y-114271428D01*
X125580000Y-114271428D01*
X125426255Y-114286571D01*
X125278418Y-114331416D01*
X125142171Y-114404242D01*
X125022749Y-114502249D01*
X124924742Y-114621671D01*
X124851916Y-114757918D01*
X124807071Y-114905755D01*
X124791928Y-115059500D01*
X124791928Y-116709500D01*
X124807071Y-116863245D01*
X124823501Y-116917407D01*
X124823500Y-117385505D01*
X124743038Y-117451538D01*
X124632595Y-117586114D01*
X124550528Y-117739650D01*
X124499992Y-117906246D01*
X124482928Y-118079500D01*
X124482928Y-119029500D01*
X124499992Y-119202754D01*
X124550528Y-119369350D01*
X124632595Y-119522886D01*
X124743038Y-119657462D01*
X124877614Y-119767905D01*
X125031150Y-119849972D01*
X125197746Y-119900508D01*
X125371000Y-119917572D01*
X126046000Y-119917572D01*
X126219254Y-119900508D01*
X126385850Y-119849972D01*
X126539386Y-119767905D01*
X126673962Y-119657462D01*
X126679342Y-119650906D01*
X126744815Y-119730685D01*
X126841506Y-119810037D01*
X126951820Y-119869002D01*
X127071518Y-119905312D01*
X127196000Y-119917572D01*
X127497750Y-119914500D01*
X127656500Y-119755750D01*
X127656500Y-118681500D01*
X127910500Y-118681500D01*
X127910500Y-119755750D01*
X128069250Y-119914500D01*
X128371000Y-119917572D01*
X128495482Y-119905312D01*
X128615180Y-119869002D01*
X128725494Y-119810037D01*
X128822185Y-119730685D01*
X128901537Y-119633994D01*
X128960502Y-119523680D01*
X128996812Y-119403982D01*
X129009072Y-119279500D01*
X129006000Y-118840250D01*
X128847250Y-118681500D01*
X127910500Y-118681500D01*
X127656500Y-118681500D01*
X127636500Y-118681500D01*
X127636500Y-118524872D01*
X163500000Y-118524872D01*
X163500000Y-118965128D01*
X163585890Y-119396925D01*
X163754369Y-119803669D01*
X163998962Y-120169729D01*
X164310271Y-120481038D01*
X164676331Y-120725631D01*
X165083075Y-120894110D01*
X165514872Y-120980000D01*
X165955128Y-120980000D01*
X166386925Y-120894110D01*
X166793669Y-120725631D01*
X167159729Y-120481038D01*
X167471038Y-120169729D01*
X167715631Y-119803669D01*
X167884110Y-119396925D01*
X167970000Y-118965128D01*
X167970000Y-118524872D01*
X167884110Y-118093075D01*
X167715631Y-117686331D01*
X167471038Y-117320271D01*
X167159729Y-117008962D01*
X166793669Y-116764369D01*
X166386925Y-116595890D01*
X165955128Y-116510000D01*
X165514872Y-116510000D01*
X165083075Y-116595890D01*
X164676331Y-116764369D01*
X164310271Y-117008962D01*
X163998962Y-117320271D01*
X163754369Y-117686331D01*
X163585890Y-118093075D01*
X163500000Y-118524872D01*
X127636500Y-118524872D01*
X127636500Y-118427500D01*
X127656500Y-118427500D01*
X127656500Y-118407500D01*
X127910500Y-118407500D01*
X127910500Y-118427500D01*
X128847250Y-118427500D01*
X129006000Y-118268750D01*
X129009072Y-117829500D01*
X128996812Y-117705018D01*
X128960502Y-117585320D01*
X128901537Y-117475006D01*
X128825320Y-117382135D01*
X128857829Y-117364758D01*
X128905000Y-117326046D01*
X128952171Y-117364758D01*
X129088418Y-117437584D01*
X129236255Y-117482429D01*
X129390000Y-117497572D01*
X129690000Y-117497572D01*
X129843745Y-117482429D01*
X129991582Y-117437584D01*
X130127829Y-117364758D01*
X130247251Y-117266751D01*
X130345258Y-117147329D01*
X130418084Y-117011082D01*
X130462929Y-116863245D01*
X130478072Y-116709500D01*
X130478072Y-116180891D01*
X134004019Y-116180891D01*
X134101343Y-116455252D01*
X134250322Y-116705355D01*
X134445231Y-116921588D01*
X134678580Y-117095641D01*
X134941401Y-117220825D01*
X135088610Y-117265476D01*
X135318500Y-117144155D01*
X135318500Y-115951000D01*
X135572500Y-115951000D01*
X135572500Y-117144155D01*
X135802390Y-117265476D01*
X135949599Y-117220825D01*
X136212420Y-117095641D01*
X136445769Y-116921588D01*
X136640678Y-116705355D01*
X136715500Y-116579745D01*
X136790322Y-116705355D01*
X136985231Y-116921588D01*
X137218580Y-117095641D01*
X137481401Y-117220825D01*
X137628610Y-117265476D01*
X137858500Y-117144155D01*
X137858500Y-115951000D01*
X135572500Y-115951000D01*
X135318500Y-115951000D01*
X134124686Y-115951000D01*
X134004019Y-116180891D01*
X130478072Y-116180891D01*
X130478072Y-115467109D01*
X134004019Y-115467109D01*
X134124686Y-115697000D01*
X135318500Y-115697000D01*
X135318500Y-114503845D01*
X135572500Y-114503845D01*
X135572500Y-115697000D01*
X137858500Y-115697000D01*
X137858500Y-114503845D01*
X138112500Y-114503845D01*
X138112500Y-115697000D01*
X138132500Y-115697000D01*
X138132500Y-115951000D01*
X138112500Y-115951000D01*
X138112500Y-117144155D01*
X138342390Y-117265476D01*
X138489599Y-117220825D01*
X138752420Y-117095641D01*
X138985769Y-116921588D01*
X139061534Y-116837534D01*
X139085998Y-116918180D01*
X139144963Y-117028494D01*
X139224315Y-117125185D01*
X139321006Y-117204537D01*
X139431320Y-117263502D01*
X139551018Y-117299812D01*
X139675500Y-117312072D01*
X141375500Y-117312072D01*
X141499982Y-117299812D01*
X141619680Y-117263502D01*
X141729994Y-117204537D01*
X141826685Y-117125185D01*
X141906037Y-117028494D01*
X141965002Y-116918180D01*
X142001312Y-116798482D01*
X142013572Y-116674000D01*
X142013572Y-114974000D01*
X142001312Y-114849518D01*
X141965002Y-114729820D01*
X141906037Y-114619506D01*
X141826685Y-114522815D01*
X141729994Y-114443463D01*
X141619680Y-114384498D01*
X141499982Y-114348188D01*
X141375500Y-114335928D01*
X139675500Y-114335928D01*
X139551018Y-114348188D01*
X139431320Y-114384498D01*
X139321006Y-114443463D01*
X139224315Y-114522815D01*
X139144963Y-114619506D01*
X139085998Y-114729820D01*
X139061534Y-114810466D01*
X138985769Y-114726412D01*
X138752420Y-114552359D01*
X138489599Y-114427175D01*
X138342390Y-114382524D01*
X138112500Y-114503845D01*
X137858500Y-114503845D01*
X137628610Y-114382524D01*
X137481401Y-114427175D01*
X137218580Y-114552359D01*
X136985231Y-114726412D01*
X136790322Y-114942645D01*
X136715500Y-115068255D01*
X136640678Y-114942645D01*
X136445769Y-114726412D01*
X136212420Y-114552359D01*
X135949599Y-114427175D01*
X135802390Y-114382524D01*
X135572500Y-114503845D01*
X135318500Y-114503845D01*
X135088610Y-114382524D01*
X134941401Y-114427175D01*
X134678580Y-114552359D01*
X134445231Y-114726412D01*
X134250322Y-114942645D01*
X134101343Y-115192748D01*
X134004019Y-115467109D01*
X130478072Y-115467109D01*
X130478072Y-115059500D01*
X130462929Y-114905755D01*
X130425000Y-114780717D01*
X130425000Y-114584454D01*
X130457205Y-114536256D01*
X130535226Y-114347898D01*
X130575000Y-114147939D01*
X130575000Y-113944061D01*
X130535226Y-113744102D01*
X130457205Y-113555744D01*
X130343937Y-113386226D01*
X130199774Y-113242063D01*
X130030256Y-113128795D01*
X129841898Y-113050774D01*
X129641939Y-113011000D01*
X129438061Y-113011000D01*
X129238102Y-113050774D01*
X129049744Y-113128795D01*
X128880226Y-113242063D01*
X128736063Y-113386226D01*
X128622795Y-113555744D01*
X128544774Y-113744102D01*
X128505000Y-113944061D01*
X128505000Y-114147939D01*
X128531753Y-114282435D01*
X128420000Y-114271428D01*
X128120000Y-114271428D01*
X127966255Y-114286571D01*
X127885000Y-114311219D01*
X127885000Y-113124622D01*
X128466645Y-112542978D01*
X128573745Y-112532429D01*
X128721582Y-112487584D01*
X128855936Y-112415770D01*
X128885506Y-112440037D01*
X128995820Y-112499002D01*
X129115518Y-112535312D01*
X129240000Y-112547572D01*
X129254250Y-112544500D01*
X129413000Y-112385750D01*
X129413000Y-111061500D01*
X129667000Y-111061500D01*
X129667000Y-112385750D01*
X129825750Y-112544500D01*
X129840000Y-112547572D01*
X129964482Y-112535312D01*
X130084180Y-112499002D01*
X130194494Y-112440037D01*
X130291185Y-112360685D01*
X130370537Y-112263994D01*
X130429502Y-112153680D01*
X130465812Y-112033982D01*
X130478072Y-111909500D01*
X130475000Y-111220250D01*
X130316250Y-111061500D01*
X129667000Y-111061500D01*
X129413000Y-111061500D01*
X129393000Y-111061500D01*
X129393000Y-110807500D01*
X129413000Y-110807500D01*
X129413000Y-110787500D01*
X129667000Y-110787500D01*
X129667000Y-110807500D01*
X130316250Y-110807500D01*
X130475000Y-110648750D01*
X130478072Y-109959500D01*
X130465812Y-109835018D01*
X130439434Y-109748061D01*
X130536000Y-109757572D01*
X131211000Y-109757572D01*
X131384254Y-109740508D01*
X131550850Y-109689972D01*
X131704386Y-109607905D01*
X131838962Y-109497462D01*
X131844342Y-109490906D01*
X131909815Y-109570685D01*
X132006506Y-109650037D01*
X132116820Y-109709002D01*
X132236518Y-109745312D01*
X132361000Y-109757572D01*
X132662750Y-109754500D01*
X132821500Y-109595750D01*
X132821500Y-108521500D01*
X133075500Y-108521500D01*
X133075500Y-109595750D01*
X133234250Y-109754500D01*
X133536000Y-109757572D01*
X133660482Y-109745312D01*
X133780180Y-109709002D01*
X133890494Y-109650037D01*
X133987185Y-109570685D01*
X134066537Y-109473994D01*
X134125502Y-109363680D01*
X134161812Y-109243982D01*
X134174072Y-109119500D01*
X134171000Y-108680250D01*
X134012250Y-108521500D01*
X133075500Y-108521500D01*
X132821500Y-108521500D01*
X132801500Y-108521500D01*
X132801500Y-108267500D01*
X132821500Y-108267500D01*
X132821500Y-107193250D01*
X133075500Y-107193250D01*
X133075500Y-108267500D01*
X134012250Y-108267500D01*
X134171000Y-108108750D01*
X134174072Y-107669500D01*
X134161812Y-107545018D01*
X134125502Y-107425320D01*
X134066537Y-107315006D01*
X133987185Y-107218315D01*
X133890494Y-107138963D01*
X133780180Y-107079998D01*
X133660482Y-107043688D01*
X133536000Y-107031428D01*
X133234250Y-107034500D01*
X133075500Y-107193250D01*
X132821500Y-107193250D01*
X132662750Y-107034500D01*
X132361000Y-107031428D01*
X132236518Y-107043688D01*
X132116820Y-107079998D01*
X132006506Y-107138963D01*
X131909815Y-107218315D01*
X131844342Y-107298094D01*
X131838962Y-107291538D01*
X131704386Y-107181095D01*
X131550850Y-107099028D01*
X131384254Y-107048492D01*
X131211000Y-107031428D01*
X130536000Y-107031428D01*
X130469754Y-107037953D01*
X130478072Y-106953500D01*
X130475000Y-106264250D01*
X130316250Y-106105500D01*
X129667000Y-106105500D01*
X129667000Y-106125500D01*
X129413000Y-106125500D01*
X129413000Y-106105500D01*
X128397000Y-106105500D01*
X128397000Y-106125500D01*
X128143000Y-106125500D01*
X128143000Y-106105500D01*
X128123000Y-106105500D01*
X128123000Y-105851500D01*
X128143000Y-105851500D01*
X128143000Y-104527250D01*
X128397000Y-104527250D01*
X128397000Y-105851500D01*
X129413000Y-105851500D01*
X129413000Y-104527250D01*
X129667000Y-104527250D01*
X129667000Y-105851500D01*
X130316250Y-105851500D01*
X130475000Y-105692750D01*
X130478072Y-105003500D01*
X130465812Y-104879018D01*
X130429502Y-104759320D01*
X130370537Y-104649006D01*
X130291185Y-104552315D01*
X130194494Y-104472963D01*
X130084180Y-104413998D01*
X129964482Y-104377688D01*
X129840000Y-104365428D01*
X129825750Y-104368500D01*
X129667000Y-104527250D01*
X129413000Y-104527250D01*
X129254250Y-104368500D01*
X129240000Y-104365428D01*
X129115518Y-104377688D01*
X128995820Y-104413998D01*
X128905000Y-104462543D01*
X128814180Y-104413998D01*
X128694482Y-104377688D01*
X128570000Y-104365428D01*
X128555750Y-104368500D01*
X128397000Y-104527250D01*
X128143000Y-104527250D01*
X127984250Y-104368500D01*
X127970000Y-104365428D01*
X127845518Y-104377688D01*
X127725820Y-104413998D01*
X127615506Y-104472963D01*
X127585936Y-104497230D01*
X127451582Y-104425416D01*
X127303745Y-104380571D01*
X127150000Y-104365428D01*
X126850000Y-104365428D01*
X126696255Y-104380571D01*
X126548418Y-104425416D01*
X126412171Y-104498242D01*
X126365000Y-104536954D01*
X126317829Y-104498242D01*
X126181582Y-104425416D01*
X126033745Y-104380571D01*
X125880000Y-104365428D01*
X125580000Y-104365428D01*
X125426255Y-104380571D01*
X125278418Y-104425416D01*
X125142171Y-104498242D01*
X125022749Y-104596249D01*
X124924742Y-104715671D01*
X124851916Y-104851918D01*
X124807071Y-104999755D01*
X124791928Y-105153500D01*
X124791928Y-106803500D01*
X124807071Y-106957245D01*
X124851916Y-107105082D01*
X124924742Y-107241329D01*
X125022749Y-107360751D01*
X125142171Y-107458758D01*
X125278418Y-107531584D01*
X125426255Y-107576429D01*
X125580000Y-107591572D01*
X125836518Y-107591572D01*
X125829528Y-107604649D01*
X125778992Y-107771245D01*
X125761928Y-107944499D01*
X125761928Y-108844501D01*
X125778992Y-109017755D01*
X125829528Y-109184351D01*
X125904064Y-109323798D01*
X125880000Y-109321428D01*
X125580000Y-109321428D01*
X125426255Y-109336571D01*
X125278418Y-109381416D01*
X125142171Y-109454242D01*
X125022749Y-109552249D01*
X124924742Y-109671671D01*
X124851916Y-109807918D01*
X124820056Y-109912950D01*
X124752439Y-109899500D01*
X124548561Y-109899500D01*
X124348602Y-109939274D01*
X124313122Y-109953970D01*
X124221886Y-109879095D01*
X124068350Y-109797028D01*
X123901754Y-109746492D01*
X123728500Y-109729428D01*
X122778500Y-109729428D01*
X122605246Y-109746492D01*
X122438650Y-109797028D01*
X122285114Y-109879095D01*
X122150538Y-109989538D01*
X122040095Y-110124114D01*
X121958028Y-110277650D01*
X121907492Y-110444246D01*
X121890428Y-110617500D01*
X115062000Y-110617500D01*
X115062000Y-105402413D01*
X118297192Y-105402413D01*
X118392956Y-105666814D01*
X118682571Y-105807704D01*
X118994108Y-105889384D01*
X119315595Y-105908718D01*
X119634675Y-105864961D01*
X119939088Y-105759795D01*
X120113044Y-105666814D01*
X120208808Y-105402413D01*
X119253000Y-104446605D01*
X118297192Y-105402413D01*
X115062000Y-105402413D01*
X115062000Y-104329595D01*
X117611282Y-104329595D01*
X117655039Y-104648675D01*
X117760205Y-104953088D01*
X117853186Y-105127044D01*
X118117587Y-105222808D01*
X119073395Y-104267000D01*
X119432605Y-104267000D01*
X120388413Y-105222808D01*
X120652814Y-105127044D01*
X120793704Y-104837429D01*
X120875384Y-104525892D01*
X120894718Y-104204405D01*
X120850961Y-103885325D01*
X120745795Y-103580912D01*
X120652814Y-103406956D01*
X120388413Y-103311192D01*
X119432605Y-104267000D01*
X119073395Y-104267000D01*
X118117587Y-103311192D01*
X117853186Y-103406956D01*
X117712296Y-103696571D01*
X117630616Y-104008108D01*
X117611282Y-104329595D01*
X115062000Y-104329595D01*
X115062000Y-103131587D01*
X118297192Y-103131587D01*
X119253000Y-104087395D01*
X120208808Y-103131587D01*
X120113044Y-102867186D01*
X119823429Y-102726296D01*
X119511892Y-102644616D01*
X119190405Y-102625282D01*
X118871325Y-102669039D01*
X118566912Y-102774205D01*
X118392956Y-102867186D01*
X118297192Y-103131587D01*
X115062000Y-103131587D01*
X115062000Y-100203500D01*
X124791928Y-100203500D01*
X124791928Y-101853500D01*
X124807071Y-102007245D01*
X124851916Y-102155082D01*
X124924742Y-102291329D01*
X125022749Y-102410751D01*
X125142171Y-102508758D01*
X125278418Y-102581584D01*
X125426255Y-102626429D01*
X125580000Y-102641572D01*
X125880000Y-102641572D01*
X126033745Y-102626429D01*
X126181582Y-102581584D01*
X126317829Y-102508758D01*
X126365000Y-102470046D01*
X126412171Y-102508758D01*
X126548418Y-102581584D01*
X126696255Y-102626429D01*
X126850000Y-102641572D01*
X127150000Y-102641572D01*
X127303745Y-102626429D01*
X127451582Y-102581584D01*
X127587829Y-102508758D01*
X127635000Y-102470046D01*
X127682171Y-102508758D01*
X127818418Y-102581584D01*
X127966255Y-102626429D01*
X128120000Y-102641572D01*
X128420000Y-102641572D01*
X128573745Y-102626429D01*
X128721582Y-102581584D01*
X128857829Y-102508758D01*
X128905000Y-102470046D01*
X128952171Y-102508758D01*
X129088418Y-102581584D01*
X129236255Y-102626429D01*
X129390000Y-102641572D01*
X129690000Y-102641572D01*
X129843745Y-102626429D01*
X129991582Y-102581584D01*
X130127829Y-102508758D01*
X130247251Y-102410751D01*
X130345258Y-102291329D01*
X130418084Y-102155082D01*
X130462929Y-102007245D01*
X130478072Y-101853500D01*
X130478072Y-100203500D01*
X130462929Y-100049755D01*
X130459667Y-100039000D01*
X130492502Y-100039000D01*
X130492502Y-99880252D01*
X130651250Y-100039000D01*
X130953000Y-100042072D01*
X131077482Y-100029812D01*
X131197180Y-99993502D01*
X131307494Y-99934537D01*
X131404185Y-99855185D01*
X131483537Y-99758494D01*
X131542502Y-99648180D01*
X131578812Y-99528482D01*
X131591072Y-99404000D01*
X131588000Y-98964750D01*
X131429250Y-98806000D01*
X130492500Y-98806000D01*
X130492500Y-98826000D01*
X130238500Y-98826000D01*
X130238500Y-98806000D01*
X130218500Y-98806000D01*
X130218500Y-98552000D01*
X130238500Y-98552000D01*
X130238500Y-97477750D01*
X130492500Y-97477750D01*
X130492500Y-98552000D01*
X131429250Y-98552000D01*
X131588000Y-98393250D01*
X131591072Y-97954000D01*
X131578812Y-97829518D01*
X131542502Y-97709820D01*
X131483537Y-97599506D01*
X131404185Y-97502815D01*
X131307494Y-97423463D01*
X131272018Y-97404500D01*
X134907928Y-97404500D01*
X134920188Y-97528982D01*
X134956498Y-97648680D01*
X135015463Y-97758994D01*
X135094815Y-97855685D01*
X135191506Y-97935037D01*
X135301820Y-97994002D01*
X135421518Y-98030312D01*
X135546000Y-98042572D01*
X135985250Y-98039500D01*
X136144000Y-97880750D01*
X136144000Y-96944000D01*
X136398000Y-96944000D01*
X136398000Y-97880750D01*
X136556750Y-98039500D01*
X136996000Y-98042572D01*
X137120482Y-98030312D01*
X137240180Y-97994002D01*
X137350494Y-97935037D01*
X137447185Y-97855685D01*
X137526537Y-97758994D01*
X137585502Y-97648680D01*
X137621812Y-97528982D01*
X137634072Y-97404500D01*
X137631000Y-97102750D01*
X137472250Y-96944000D01*
X136398000Y-96944000D01*
X136144000Y-96944000D01*
X135069750Y-96944000D01*
X134911000Y-97102750D01*
X134907928Y-97404500D01*
X131272018Y-97404500D01*
X131197180Y-97364498D01*
X131077482Y-97328188D01*
X130953000Y-97315928D01*
X130651250Y-97319000D01*
X130492500Y-97477750D01*
X130238500Y-97477750D01*
X130079750Y-97319000D01*
X129778000Y-97315928D01*
X129653518Y-97328188D01*
X129533820Y-97364498D01*
X129423506Y-97423463D01*
X129326815Y-97502815D01*
X129283482Y-97555616D01*
X129305000Y-97447439D01*
X129305000Y-97243561D01*
X129265226Y-97043602D01*
X129187205Y-96855244D01*
X129073937Y-96685726D01*
X128929774Y-96541563D01*
X128760256Y-96428295D01*
X128601331Y-96362466D01*
X128616072Y-96212800D01*
X128616072Y-95912800D01*
X128600929Y-95759055D01*
X128556084Y-95611218D01*
X128484270Y-95476864D01*
X128508537Y-95447294D01*
X128567502Y-95336980D01*
X128603812Y-95217282D01*
X128616072Y-95092800D01*
X128613000Y-95078550D01*
X128454250Y-94919800D01*
X127130000Y-94919800D01*
X127130000Y-94939800D01*
X126876000Y-94939800D01*
X126876000Y-94919800D01*
X125551750Y-94919800D01*
X125393000Y-95078550D01*
X125389928Y-95092800D01*
X125402188Y-95217282D01*
X125438498Y-95336980D01*
X125497463Y-95447294D01*
X125521730Y-95476864D01*
X125449916Y-95611218D01*
X125405071Y-95759055D01*
X125389928Y-95912800D01*
X125389928Y-96212800D01*
X125405071Y-96366545D01*
X125449916Y-96514382D01*
X125522742Y-96650629D01*
X125620749Y-96770051D01*
X125740171Y-96868058D01*
X125876418Y-96940884D01*
X126024255Y-96985729D01*
X126115001Y-96994667D01*
X126115000Y-99455219D01*
X126033745Y-99430571D01*
X125880000Y-99415428D01*
X125580000Y-99415428D01*
X125426255Y-99430571D01*
X125278418Y-99475416D01*
X125142171Y-99548242D01*
X125022749Y-99646249D01*
X124924742Y-99765671D01*
X124851916Y-99901918D01*
X124807071Y-100049755D01*
X124791928Y-100203500D01*
X115062000Y-100203500D01*
X115062000Y-97184467D01*
X117618000Y-97184467D01*
X117618000Y-97506533D01*
X117680832Y-97822412D01*
X117804082Y-98119963D01*
X117983013Y-98387752D01*
X118210748Y-98615487D01*
X118478537Y-98794418D01*
X118776088Y-98917668D01*
X119091967Y-98980500D01*
X119414033Y-98980500D01*
X119729912Y-98917668D01*
X120027463Y-98794418D01*
X120295252Y-98615487D01*
X120522987Y-98387752D01*
X120701918Y-98119963D01*
X120825168Y-97822412D01*
X120888000Y-97506533D01*
X120888000Y-97184467D01*
X120825168Y-96868588D01*
X120701918Y-96571037D01*
X120522987Y-96303248D01*
X120295252Y-96075513D01*
X120027463Y-95896582D01*
X119729912Y-95773332D01*
X119414033Y-95710500D01*
X119091967Y-95710500D01*
X118776088Y-95773332D01*
X118478537Y-95896582D01*
X118210748Y-96075513D01*
X117983013Y-96303248D01*
X117804082Y-96571037D01*
X117680832Y-96868588D01*
X117618000Y-97184467D01*
X115062000Y-97184467D01*
X115062000Y-93822800D01*
X125389928Y-93822800D01*
X125402188Y-93947282D01*
X125438498Y-94066980D01*
X125487043Y-94157800D01*
X125438498Y-94248620D01*
X125402188Y-94368318D01*
X125389928Y-94492800D01*
X125393000Y-94507050D01*
X125551750Y-94665800D01*
X126876000Y-94665800D01*
X126876000Y-93649800D01*
X127130000Y-93649800D01*
X127130000Y-94665800D01*
X128454250Y-94665800D01*
X128613000Y-94507050D01*
X128616072Y-94492800D01*
X128603812Y-94368318D01*
X128567502Y-94248620D01*
X128518957Y-94157800D01*
X128567502Y-94066980D01*
X128603812Y-93947282D01*
X128616072Y-93822800D01*
X128613000Y-93808550D01*
X128454250Y-93649800D01*
X127130000Y-93649800D01*
X126876000Y-93649800D01*
X125551750Y-93649800D01*
X125393000Y-93808550D01*
X125389928Y-93822800D01*
X115062000Y-93822800D01*
X115062000Y-92552800D01*
X125389928Y-92552800D01*
X125402188Y-92677282D01*
X125438498Y-92796980D01*
X125487043Y-92887800D01*
X125438498Y-92978620D01*
X125402188Y-93098318D01*
X125389928Y-93222800D01*
X125393000Y-93237050D01*
X125551750Y-93395800D01*
X126876000Y-93395800D01*
X126876000Y-92379800D01*
X127130000Y-92379800D01*
X127130000Y-93395800D01*
X128454250Y-93395800D01*
X128613000Y-93237050D01*
X128616072Y-93222800D01*
X128603812Y-93098318D01*
X128567502Y-92978620D01*
X128518957Y-92887800D01*
X128567502Y-92796980D01*
X128603812Y-92677282D01*
X128616072Y-92552800D01*
X128613000Y-92538550D01*
X128454250Y-92379800D01*
X127130000Y-92379800D01*
X126876000Y-92379800D01*
X125551750Y-92379800D01*
X125393000Y-92538550D01*
X125389928Y-92552800D01*
X115062000Y-92552800D01*
X115062000Y-91952800D01*
X125389928Y-91952800D01*
X125393000Y-91967050D01*
X125551750Y-92125800D01*
X126876000Y-92125800D01*
X126876000Y-91476550D01*
X127130000Y-91476550D01*
X127130000Y-92125800D01*
X128454250Y-92125800D01*
X128613000Y-91967050D01*
X128616072Y-91952800D01*
X128603812Y-91828318D01*
X128567502Y-91708620D01*
X128508537Y-91598306D01*
X128429185Y-91501615D01*
X128332494Y-91422263D01*
X128222180Y-91363298D01*
X128102482Y-91326988D01*
X127978000Y-91314728D01*
X127288750Y-91317800D01*
X127130000Y-91476550D01*
X126876000Y-91476550D01*
X126717250Y-91317800D01*
X126028000Y-91314728D01*
X125903518Y-91326988D01*
X125783820Y-91363298D01*
X125673506Y-91422263D01*
X125576815Y-91501615D01*
X125497463Y-91598306D01*
X125438498Y-91708620D01*
X125402188Y-91828318D01*
X125389928Y-91952800D01*
X115062000Y-91952800D01*
X115062000Y-88431000D01*
X120304928Y-88431000D01*
X120304928Y-90131000D01*
X120317188Y-90255482D01*
X120353498Y-90375180D01*
X120412463Y-90485494D01*
X120491815Y-90582185D01*
X120588506Y-90661537D01*
X120698820Y-90720502D01*
X120818518Y-90756812D01*
X120943000Y-90769072D01*
X122643000Y-90769072D01*
X122767482Y-90756812D01*
X122887180Y-90720502D01*
X122997494Y-90661537D01*
X123094185Y-90582185D01*
X123173537Y-90485494D01*
X123232502Y-90375180D01*
X123254513Y-90302620D01*
X123386368Y-90434475D01*
X123629589Y-90596990D01*
X123899842Y-90708932D01*
X124186740Y-90766000D01*
X124479260Y-90766000D01*
X124766158Y-90708932D01*
X125036411Y-90596990D01*
X125279632Y-90434475D01*
X125486475Y-90227632D01*
X125603000Y-90053240D01*
X125719525Y-90227632D01*
X125926368Y-90434475D01*
X126169589Y-90596990D01*
X126439842Y-90708932D01*
X126726740Y-90766000D01*
X127019260Y-90766000D01*
X127306158Y-90708932D01*
X127576411Y-90596990D01*
X127819632Y-90434475D01*
X128026475Y-90227632D01*
X128143000Y-90053240D01*
X128259525Y-90227632D01*
X128466368Y-90434475D01*
X128709589Y-90596990D01*
X128979842Y-90708932D01*
X129266740Y-90766000D01*
X129559260Y-90766000D01*
X129846158Y-90708932D01*
X130116411Y-90596990D01*
X130359632Y-90434475D01*
X130566475Y-90227632D01*
X130683000Y-90053240D01*
X130799525Y-90227632D01*
X131006368Y-90434475D01*
X131068001Y-90475657D01*
X131068000Y-91320638D01*
X130974255Y-91329871D01*
X130826418Y-91374716D01*
X130690171Y-91447542D01*
X130570749Y-91545549D01*
X130472742Y-91664971D01*
X130399916Y-91801218D01*
X130355071Y-91949055D01*
X130339928Y-92102800D01*
X130339928Y-92402800D01*
X130355071Y-92556545D01*
X130399916Y-92704382D01*
X130472742Y-92840629D01*
X130511454Y-92887800D01*
X130472742Y-92934971D01*
X130399916Y-93071218D01*
X130355071Y-93219055D01*
X130339928Y-93372800D01*
X130339928Y-93672800D01*
X130355071Y-93826545D01*
X130399916Y-93974382D01*
X130472742Y-94110629D01*
X130511454Y-94157800D01*
X130472742Y-94204971D01*
X130399916Y-94341218D01*
X130355071Y-94489055D01*
X130339928Y-94642800D01*
X130339928Y-94942800D01*
X130355071Y-95096545D01*
X130399916Y-95244382D01*
X130472742Y-95380629D01*
X130511454Y-95427800D01*
X130472742Y-95474971D01*
X130399916Y-95611218D01*
X130355071Y-95759055D01*
X130339928Y-95912800D01*
X130339928Y-96212800D01*
X130355071Y-96366545D01*
X130399916Y-96514382D01*
X130472742Y-96650629D01*
X130570749Y-96770051D01*
X130690171Y-96868058D01*
X130826418Y-96940884D01*
X130974255Y-96985729D01*
X131128000Y-97000872D01*
X132778000Y-97000872D01*
X132931745Y-96985729D01*
X133079582Y-96940884D01*
X133215829Y-96868058D01*
X133335251Y-96770051D01*
X133433258Y-96650629D01*
X133506084Y-96514382D01*
X133550929Y-96366545D01*
X133566072Y-96212800D01*
X133566072Y-95912800D01*
X133550929Y-95759055D01*
X133506084Y-95611218D01*
X133433258Y-95474971D01*
X133394546Y-95427800D01*
X133433258Y-95380629D01*
X133506084Y-95244382D01*
X133550929Y-95096545D01*
X133566072Y-94942800D01*
X133566072Y-94642800D01*
X133550929Y-94489055D01*
X133506084Y-94341218D01*
X133433258Y-94204971D01*
X133394546Y-94157800D01*
X133433258Y-94110629D01*
X133506084Y-93974382D01*
X133550929Y-93826545D01*
X133566072Y-93672800D01*
X133566072Y-93511076D01*
X133612649Y-93535972D01*
X133779245Y-93586508D01*
X133952499Y-93603572D01*
X134652501Y-93603572D01*
X134825755Y-93586508D01*
X134992351Y-93535972D01*
X135145887Y-93453905D01*
X135248744Y-93369492D01*
X135236000Y-93433561D01*
X135236000Y-93637439D01*
X135250248Y-93709070D01*
X135168038Y-93776538D01*
X135057595Y-93911114D01*
X134975528Y-94064650D01*
X134924992Y-94231246D01*
X134907928Y-94404500D01*
X134907928Y-95079500D01*
X134924992Y-95252754D01*
X134975528Y-95419350D01*
X135057595Y-95572886D01*
X135168038Y-95707462D01*
X135174594Y-95712842D01*
X135094815Y-95778315D01*
X135015463Y-95875006D01*
X134956498Y-95985320D01*
X134920188Y-96105018D01*
X134907928Y-96229500D01*
X134911000Y-96531250D01*
X135069750Y-96690000D01*
X136144000Y-96690000D01*
X136144000Y-96670000D01*
X136398000Y-96670000D01*
X136398000Y-96690000D01*
X137472250Y-96690000D01*
X137631000Y-96531250D01*
X137634072Y-96229500D01*
X137621812Y-96105018D01*
X137585502Y-95985320D01*
X137526537Y-95875006D01*
X137447185Y-95778315D01*
X137367406Y-95712842D01*
X137373962Y-95707462D01*
X137484405Y-95572886D01*
X137566472Y-95419350D01*
X137617008Y-95252754D01*
X137634072Y-95079500D01*
X137634072Y-94404500D01*
X137617008Y-94231246D01*
X137566472Y-94064650D01*
X137484405Y-93911114D01*
X137373962Y-93776538D01*
X137291752Y-93709070D01*
X137306000Y-93637439D01*
X137306000Y-93433561D01*
X137286592Y-93335992D01*
X137390905Y-93208887D01*
X137472972Y-93055351D01*
X137523508Y-92888755D01*
X137540572Y-92715501D01*
X137540572Y-92114000D01*
X143228428Y-92114000D01*
X143228428Y-93814000D01*
X143240688Y-93938482D01*
X143276998Y-94058180D01*
X143335963Y-94168494D01*
X143415315Y-94265185D01*
X143512006Y-94344537D01*
X143622320Y-94403502D01*
X143694880Y-94425513D01*
X143563025Y-94557368D01*
X143400510Y-94800589D01*
X143288568Y-95070842D01*
X143231500Y-95357740D01*
X143231500Y-95650260D01*
X143288568Y-95937158D01*
X143400510Y-96207411D01*
X143563025Y-96450632D01*
X143769868Y-96657475D01*
X143944260Y-96774000D01*
X143769868Y-96890525D01*
X143563025Y-97097368D01*
X143400510Y-97340589D01*
X143288568Y-97610842D01*
X143231500Y-97897740D01*
X143231500Y-98190260D01*
X143288568Y-98477158D01*
X143400510Y-98747411D01*
X143563025Y-98990632D01*
X143769868Y-99197475D01*
X143944260Y-99314000D01*
X143769868Y-99430525D01*
X143563025Y-99637368D01*
X143400510Y-99880589D01*
X143288568Y-100150842D01*
X143231500Y-100437740D01*
X143231500Y-100730260D01*
X143288568Y-101017158D01*
X143400510Y-101287411D01*
X143563025Y-101530632D01*
X143769868Y-101737475D01*
X143944260Y-101854000D01*
X143769868Y-101970525D01*
X143563025Y-102177368D01*
X143400510Y-102420589D01*
X143288568Y-102690842D01*
X143231500Y-102977740D01*
X143231500Y-103270260D01*
X143288568Y-103557158D01*
X143400510Y-103827411D01*
X143563025Y-104070632D01*
X143769868Y-104277475D01*
X143944260Y-104394000D01*
X143769868Y-104510525D01*
X143563025Y-104717368D01*
X143400510Y-104960589D01*
X143288568Y-105230842D01*
X143231500Y-105517740D01*
X143231500Y-105810260D01*
X143288568Y-106097158D01*
X143400510Y-106367411D01*
X143563025Y-106610632D01*
X143769868Y-106817475D01*
X143944260Y-106934000D01*
X143769868Y-107050525D01*
X143563025Y-107257368D01*
X143400510Y-107500589D01*
X143288568Y-107770842D01*
X143231500Y-108057740D01*
X143231500Y-108350260D01*
X143288568Y-108637158D01*
X143400510Y-108907411D01*
X143563025Y-109150632D01*
X143769868Y-109357475D01*
X143944260Y-109474000D01*
X143769868Y-109590525D01*
X143563025Y-109797368D01*
X143400510Y-110040589D01*
X143288568Y-110310842D01*
X143231500Y-110597740D01*
X143231500Y-110890260D01*
X143288568Y-111177158D01*
X143400510Y-111447411D01*
X143563025Y-111690632D01*
X143769868Y-111897475D01*
X143944260Y-112014000D01*
X143769868Y-112130525D01*
X143563025Y-112337368D01*
X143400510Y-112580589D01*
X143288568Y-112850842D01*
X143231500Y-113137740D01*
X143231500Y-113430260D01*
X143288568Y-113717158D01*
X143400510Y-113987411D01*
X143563025Y-114230632D01*
X143769868Y-114437475D01*
X143944260Y-114554000D01*
X143769868Y-114670525D01*
X143563025Y-114877368D01*
X143400510Y-115120589D01*
X143288568Y-115390842D01*
X143231500Y-115677740D01*
X143231500Y-115970260D01*
X143288568Y-116257158D01*
X143400510Y-116527411D01*
X143563025Y-116770632D01*
X143769868Y-116977475D01*
X144013089Y-117139990D01*
X144283342Y-117251932D01*
X144570240Y-117309000D01*
X144862760Y-117309000D01*
X145149658Y-117251932D01*
X145419911Y-117139990D01*
X145663132Y-116977475D01*
X145869975Y-116770632D01*
X146032490Y-116527411D01*
X146144432Y-116257158D01*
X146201500Y-115970260D01*
X146201500Y-115677740D01*
X146144432Y-115390842D01*
X146032490Y-115120589D01*
X145869975Y-114877368D01*
X145663132Y-114670525D01*
X145488740Y-114554000D01*
X145663132Y-114437475D01*
X145869975Y-114230632D01*
X146032490Y-113987411D01*
X146144432Y-113717158D01*
X146201500Y-113430260D01*
X146201500Y-113137740D01*
X146144432Y-112850842D01*
X146032490Y-112580589D01*
X145869975Y-112337368D01*
X145663132Y-112130525D01*
X145488740Y-112014000D01*
X145663132Y-111897475D01*
X145869975Y-111690632D01*
X146032490Y-111447411D01*
X146144432Y-111177158D01*
X146201500Y-110890260D01*
X146201500Y-110597740D01*
X146144432Y-110310842D01*
X146032490Y-110040589D01*
X145869975Y-109797368D01*
X145663132Y-109590525D01*
X145488740Y-109474000D01*
X145663132Y-109357475D01*
X145681194Y-109339413D01*
X148840692Y-109339413D01*
X148936456Y-109603814D01*
X149226071Y-109744704D01*
X149537608Y-109826384D01*
X149859095Y-109845718D01*
X150178175Y-109801961D01*
X150482588Y-109696795D01*
X150656544Y-109603814D01*
X150674867Y-109553224D01*
X152817881Y-109553224D01*
X152949817Y-109848312D01*
X153290545Y-110019159D01*
X153658057Y-110120250D01*
X154038229Y-110147701D01*
X154416451Y-110100457D01*
X154778190Y-109980333D01*
X155025183Y-109848312D01*
X155157119Y-109553224D01*
X153987500Y-108383605D01*
X152817881Y-109553224D01*
X150674867Y-109553224D01*
X150752308Y-109339413D01*
X149796500Y-108383605D01*
X148840692Y-109339413D01*
X145681194Y-109339413D01*
X145869975Y-109150632D01*
X146032490Y-108907411D01*
X146144432Y-108637158D01*
X146201500Y-108350260D01*
X146201500Y-108266595D01*
X148154782Y-108266595D01*
X148198539Y-108585675D01*
X148303705Y-108890088D01*
X148396686Y-109064044D01*
X148661087Y-109159808D01*
X149616895Y-108204000D01*
X149976105Y-108204000D01*
X150931913Y-109159808D01*
X151196314Y-109064044D01*
X151337204Y-108774429D01*
X151418884Y-108462892D01*
X151431402Y-108254729D01*
X152043799Y-108254729D01*
X152091043Y-108632951D01*
X152211167Y-108994690D01*
X152343188Y-109241683D01*
X152638276Y-109373619D01*
X153807895Y-108204000D01*
X154167105Y-108204000D01*
X155336724Y-109373619D01*
X155631812Y-109241683D01*
X155802659Y-108900955D01*
X155903750Y-108533443D01*
X155931201Y-108153271D01*
X155883957Y-107775049D01*
X155763833Y-107413310D01*
X155666136Y-107230531D01*
X160810198Y-107230531D01*
X160826949Y-107318091D01*
X160942026Y-107591309D01*
X161108194Y-107836826D01*
X161319067Y-108045208D01*
X161566542Y-108208447D01*
X161841108Y-108320269D01*
X162132214Y-108376377D01*
X162369500Y-108220876D01*
X162369500Y-106997500D01*
X162623500Y-106997500D01*
X162623500Y-108220876D01*
X162860786Y-108376377D01*
X163151892Y-108320269D01*
X163426458Y-108208447D01*
X163673933Y-108045208D01*
X163884806Y-107836826D01*
X164050974Y-107591309D01*
X164166051Y-107318091D01*
X164182802Y-107230531D01*
X164061746Y-106997500D01*
X162623500Y-106997500D01*
X162369500Y-106997500D01*
X160931254Y-106997500D01*
X160810198Y-107230531D01*
X155666136Y-107230531D01*
X155631812Y-107166317D01*
X155336724Y-107034381D01*
X154167105Y-108204000D01*
X153807895Y-108204000D01*
X152638276Y-107034381D01*
X152343188Y-107166317D01*
X152172341Y-107507045D01*
X152071250Y-107874557D01*
X152043799Y-108254729D01*
X151431402Y-108254729D01*
X151438218Y-108141405D01*
X151394461Y-107822325D01*
X151289295Y-107517912D01*
X151196314Y-107343956D01*
X150931913Y-107248192D01*
X149976105Y-108204000D01*
X149616895Y-108204000D01*
X148661087Y-107248192D01*
X148396686Y-107343956D01*
X148255796Y-107633571D01*
X148174116Y-107945108D01*
X148154782Y-108266595D01*
X146201500Y-108266595D01*
X146201500Y-108057740D01*
X146144432Y-107770842D01*
X146032490Y-107500589D01*
X145869975Y-107257368D01*
X145681194Y-107068587D01*
X148840692Y-107068587D01*
X149796500Y-108024395D01*
X150752308Y-107068587D01*
X150674868Y-106854776D01*
X152817881Y-106854776D01*
X153987500Y-108024395D01*
X155157119Y-106854776D01*
X155025183Y-106559688D01*
X154684455Y-106388841D01*
X154316943Y-106287750D01*
X153936771Y-106260299D01*
X153558549Y-106307543D01*
X153196810Y-106427667D01*
X152949817Y-106559688D01*
X152817881Y-106854776D01*
X150674868Y-106854776D01*
X150656544Y-106804186D01*
X150366929Y-106663296D01*
X150055392Y-106581616D01*
X149733905Y-106562282D01*
X149414825Y-106606039D01*
X149110412Y-106711205D01*
X148936456Y-106804186D01*
X148840692Y-107068587D01*
X145681194Y-107068587D01*
X145663132Y-107050525D01*
X145488740Y-106934000D01*
X145663132Y-106817475D01*
X145869975Y-106610632D01*
X146032490Y-106367411D01*
X146144432Y-106097158D01*
X146201500Y-105810260D01*
X146201500Y-105517740D01*
X146144432Y-105230842D01*
X146032490Y-104960589D01*
X145869975Y-104717368D01*
X145663132Y-104510525D01*
X145488740Y-104394000D01*
X145663132Y-104277475D01*
X145869975Y-104070632D01*
X146032490Y-103827411D01*
X146144432Y-103557158D01*
X146201500Y-103270260D01*
X146201500Y-102977740D01*
X146198562Y-102962967D01*
X148161500Y-102962967D01*
X148161500Y-103285033D01*
X148224332Y-103600912D01*
X148347582Y-103898463D01*
X148526513Y-104166252D01*
X148754248Y-104393987D01*
X149022037Y-104572918D01*
X149319588Y-104696168D01*
X149635467Y-104759000D01*
X149957533Y-104759000D01*
X150273412Y-104696168D01*
X150570963Y-104572918D01*
X150838752Y-104393987D01*
X151066487Y-104166252D01*
X151245418Y-103898463D01*
X151368668Y-103600912D01*
X151431500Y-103285033D01*
X151431500Y-102962967D01*
X151425623Y-102933419D01*
X152052500Y-102933419D01*
X152052500Y-103314581D01*
X152126861Y-103688419D01*
X152272725Y-104040566D01*
X152484487Y-104357491D01*
X152754009Y-104627013D01*
X153070934Y-104838775D01*
X153423081Y-104984639D01*
X153796919Y-105059000D01*
X154178081Y-105059000D01*
X154551919Y-104984639D01*
X154904066Y-104838775D01*
X155220991Y-104627013D01*
X155490513Y-104357491D01*
X155702275Y-104040566D01*
X155838993Y-103710499D01*
X160763428Y-103710499D01*
X160763428Y-104950501D01*
X160780492Y-105123755D01*
X160831028Y-105290351D01*
X160913095Y-105443887D01*
X161023538Y-105578462D01*
X161158113Y-105688905D01*
X161267090Y-105747155D01*
X161108194Y-105904174D01*
X160942026Y-106149691D01*
X160826949Y-106422909D01*
X160810198Y-106510469D01*
X160931254Y-106743500D01*
X162369500Y-106743500D01*
X162369500Y-106723500D01*
X162623500Y-106723500D01*
X162623500Y-106743500D01*
X164061746Y-106743500D01*
X164182802Y-106510469D01*
X164166051Y-106422909D01*
X164050974Y-106149691D01*
X163884806Y-105904174D01*
X163725910Y-105747155D01*
X163834887Y-105688905D01*
X163969462Y-105578462D01*
X164079905Y-105443887D01*
X164161972Y-105290351D01*
X164212508Y-105123755D01*
X164229572Y-104950501D01*
X164229572Y-103710499D01*
X164212508Y-103537245D01*
X164161972Y-103370649D01*
X164079905Y-103217113D01*
X163969462Y-103082538D01*
X163834887Y-102972095D01*
X163681351Y-102890028D01*
X163514755Y-102839492D01*
X163341501Y-102822428D01*
X161651499Y-102822428D01*
X161478245Y-102839492D01*
X161311649Y-102890028D01*
X161158113Y-102972095D01*
X161023538Y-103082538D01*
X160913095Y-103217113D01*
X160831028Y-103370649D01*
X160780492Y-103537245D01*
X160763428Y-103710499D01*
X155838993Y-103710499D01*
X155848139Y-103688419D01*
X155922500Y-103314581D01*
X155922500Y-102933419D01*
X155848139Y-102559581D01*
X155702275Y-102207434D01*
X155490513Y-101890509D01*
X155220991Y-101620987D01*
X154904066Y-101409225D01*
X154551919Y-101263361D01*
X154178081Y-101189000D01*
X153796919Y-101189000D01*
X153423081Y-101263361D01*
X153070934Y-101409225D01*
X152754009Y-101620987D01*
X152484487Y-101890509D01*
X152272725Y-102207434D01*
X152126861Y-102559581D01*
X152052500Y-102933419D01*
X151425623Y-102933419D01*
X151368668Y-102647088D01*
X151245418Y-102349537D01*
X151066487Y-102081748D01*
X150838752Y-101854013D01*
X150570963Y-101675082D01*
X150273412Y-101551832D01*
X149957533Y-101489000D01*
X149635467Y-101489000D01*
X149319588Y-101551832D01*
X149022037Y-101675082D01*
X148754248Y-101854013D01*
X148526513Y-102081748D01*
X148347582Y-102349537D01*
X148224332Y-102647088D01*
X148161500Y-102962967D01*
X146198562Y-102962967D01*
X146144432Y-102690842D01*
X146032490Y-102420589D01*
X145869975Y-102177368D01*
X145663132Y-101970525D01*
X145488740Y-101854000D01*
X145663132Y-101737475D01*
X145869975Y-101530632D01*
X146032490Y-101287411D01*
X146144432Y-101017158D01*
X146201500Y-100730260D01*
X146201500Y-100437740D01*
X146144432Y-100150842D01*
X146110289Y-100068413D01*
X161540692Y-100068413D01*
X161636456Y-100332814D01*
X161926071Y-100473704D01*
X162237608Y-100555384D01*
X162559095Y-100574718D01*
X162878175Y-100530961D01*
X163182588Y-100425795D01*
X163356544Y-100332814D01*
X163452308Y-100068413D01*
X162496500Y-99112605D01*
X161540692Y-100068413D01*
X146110289Y-100068413D01*
X146032490Y-99880589D01*
X145869975Y-99637368D01*
X145663132Y-99430525D01*
X145488740Y-99314000D01*
X145663132Y-99197475D01*
X145865012Y-98995595D01*
X160854782Y-98995595D01*
X160898539Y-99314675D01*
X161003705Y-99619088D01*
X161096686Y-99793044D01*
X161361087Y-99888808D01*
X162316895Y-98933000D01*
X162676105Y-98933000D01*
X163631913Y-99888808D01*
X163896314Y-99793044D01*
X164037204Y-99503429D01*
X164118884Y-99191892D01*
X164138218Y-98870405D01*
X164094461Y-98551325D01*
X163989295Y-98246912D01*
X163896314Y-98072956D01*
X163631913Y-97977192D01*
X162676105Y-98933000D01*
X162316895Y-98933000D01*
X161361087Y-97977192D01*
X161096686Y-98072956D01*
X160955796Y-98362571D01*
X160874116Y-98674108D01*
X160854782Y-98995595D01*
X145865012Y-98995595D01*
X145869975Y-98990632D01*
X146032490Y-98747411D01*
X146144432Y-98477158D01*
X146201500Y-98190260D01*
X146201500Y-97897740D01*
X146181579Y-97797587D01*
X161540692Y-97797587D01*
X162496500Y-98753395D01*
X163452308Y-97797587D01*
X163356544Y-97533186D01*
X163066929Y-97392296D01*
X162755392Y-97310616D01*
X162433905Y-97291282D01*
X162114825Y-97335039D01*
X161810412Y-97440205D01*
X161636456Y-97533186D01*
X161540692Y-97797587D01*
X146181579Y-97797587D01*
X146144432Y-97610842D01*
X146032490Y-97340589D01*
X145869975Y-97097368D01*
X145663132Y-96890525D01*
X145488740Y-96774000D01*
X145663132Y-96657475D01*
X145869975Y-96450632D01*
X146032490Y-96207411D01*
X146144432Y-95937158D01*
X146201500Y-95650260D01*
X146201500Y-95357740D01*
X146144432Y-95070842D01*
X146032490Y-94800589D01*
X145869975Y-94557368D01*
X145738120Y-94425513D01*
X145810680Y-94403502D01*
X145920994Y-94344537D01*
X146017685Y-94265185D01*
X146097037Y-94168494D01*
X146156002Y-94058180D01*
X146192312Y-93938482D01*
X146204572Y-93814000D01*
X146204572Y-92802967D01*
X160861500Y-92802967D01*
X160861500Y-93125033D01*
X160924332Y-93440912D01*
X161047582Y-93738463D01*
X161226513Y-94006252D01*
X161454248Y-94233987D01*
X161722037Y-94412918D01*
X162019588Y-94536168D01*
X162335467Y-94599000D01*
X162657533Y-94599000D01*
X162973412Y-94536168D01*
X163270963Y-94412918D01*
X163538752Y-94233987D01*
X163766487Y-94006252D01*
X163945418Y-93738463D01*
X164068668Y-93440912D01*
X164131500Y-93125033D01*
X164131500Y-92802967D01*
X164068668Y-92487088D01*
X163945418Y-92189537D01*
X163766487Y-91921748D01*
X163538752Y-91694013D01*
X163270963Y-91515082D01*
X162973412Y-91391832D01*
X162657533Y-91329000D01*
X162335467Y-91329000D01*
X162019588Y-91391832D01*
X161722037Y-91515082D01*
X161454248Y-91694013D01*
X161226513Y-91921748D01*
X161047582Y-92189537D01*
X160924332Y-92487088D01*
X160861500Y-92802967D01*
X146204572Y-92802967D01*
X146204572Y-92114000D01*
X146192312Y-91989518D01*
X146156002Y-91869820D01*
X146097037Y-91759506D01*
X146017685Y-91662815D01*
X145920994Y-91583463D01*
X145810680Y-91524498D01*
X145690982Y-91488188D01*
X145566500Y-91475928D01*
X143866500Y-91475928D01*
X143742018Y-91488188D01*
X143622320Y-91524498D01*
X143512006Y-91583463D01*
X143415315Y-91662815D01*
X143335963Y-91759506D01*
X143276998Y-91869820D01*
X143240688Y-91989518D01*
X143228428Y-92114000D01*
X137540572Y-92114000D01*
X137540572Y-91815499D01*
X137523508Y-91642245D01*
X137472972Y-91475649D01*
X137390905Y-91322113D01*
X137280462Y-91187538D01*
X137145887Y-91077095D01*
X136992351Y-90995028D01*
X136825755Y-90944492D01*
X136652501Y-90927428D01*
X135952499Y-90927428D01*
X135779245Y-90944492D01*
X135612649Y-90995028D01*
X135459113Y-91077095D01*
X135324538Y-91187538D01*
X135302500Y-91214391D01*
X135280462Y-91187538D01*
X135145887Y-91077095D01*
X134992351Y-90995028D01*
X134825755Y-90944492D01*
X134652501Y-90927428D01*
X133952499Y-90927428D01*
X133779245Y-90944492D01*
X133612649Y-90995028D01*
X133459113Y-91077095D01*
X133324538Y-91187538D01*
X133214095Y-91322113D01*
X133182886Y-91380500D01*
X133090403Y-91380500D01*
X133079582Y-91374716D01*
X132931745Y-91329871D01*
X132838000Y-91320638D01*
X132838000Y-90475656D01*
X132899632Y-90434475D01*
X133106475Y-90227632D01*
X133223000Y-90053240D01*
X133339525Y-90227632D01*
X133546368Y-90434475D01*
X133789589Y-90596990D01*
X134059842Y-90708932D01*
X134346740Y-90766000D01*
X134639260Y-90766000D01*
X134926158Y-90708932D01*
X135196411Y-90596990D01*
X135439632Y-90434475D01*
X135646475Y-90227632D01*
X135763000Y-90053240D01*
X135879525Y-90227632D01*
X136086368Y-90434475D01*
X136329589Y-90596990D01*
X136599842Y-90708932D01*
X136886740Y-90766000D01*
X137179260Y-90766000D01*
X137466158Y-90708932D01*
X137736411Y-90596990D01*
X137979632Y-90434475D01*
X138186475Y-90227632D01*
X138303000Y-90053240D01*
X138419525Y-90227632D01*
X138626368Y-90434475D01*
X138869589Y-90596990D01*
X139139842Y-90708932D01*
X139426740Y-90766000D01*
X139719260Y-90766000D01*
X140006158Y-90708932D01*
X140276411Y-90596990D01*
X140519632Y-90434475D01*
X140726475Y-90227632D01*
X140843000Y-90053240D01*
X140959525Y-90227632D01*
X141166368Y-90434475D01*
X141409589Y-90596990D01*
X141679842Y-90708932D01*
X141966740Y-90766000D01*
X142259260Y-90766000D01*
X142546158Y-90708932D01*
X142816411Y-90596990D01*
X143059632Y-90434475D01*
X143266475Y-90227632D01*
X143383000Y-90053240D01*
X143499525Y-90227632D01*
X143706368Y-90434475D01*
X143949589Y-90596990D01*
X144219842Y-90708932D01*
X144506740Y-90766000D01*
X144799260Y-90766000D01*
X145086158Y-90708932D01*
X145356411Y-90596990D01*
X145599632Y-90434475D01*
X145806475Y-90227632D01*
X145968990Y-89984411D01*
X146080932Y-89714158D01*
X146138000Y-89427260D01*
X146138000Y-89134740D01*
X146080932Y-88847842D01*
X145968990Y-88577589D01*
X145806475Y-88334368D01*
X145599632Y-88127525D01*
X145356411Y-87965010D01*
X145086158Y-87853068D01*
X144799260Y-87796000D01*
X144506740Y-87796000D01*
X144219842Y-87853068D01*
X143949589Y-87965010D01*
X143706368Y-88127525D01*
X143499525Y-88334368D01*
X143383000Y-88508760D01*
X143266475Y-88334368D01*
X143059632Y-88127525D01*
X142816411Y-87965010D01*
X142546158Y-87853068D01*
X142259260Y-87796000D01*
X141966740Y-87796000D01*
X141679842Y-87853068D01*
X141409589Y-87965010D01*
X141166368Y-88127525D01*
X140959525Y-88334368D01*
X140843000Y-88508760D01*
X140726475Y-88334368D01*
X140519632Y-88127525D01*
X140276411Y-87965010D01*
X140006158Y-87853068D01*
X139719260Y-87796000D01*
X139426740Y-87796000D01*
X139139842Y-87853068D01*
X138869589Y-87965010D01*
X138626368Y-88127525D01*
X138419525Y-88334368D01*
X138303000Y-88508760D01*
X138186475Y-88334368D01*
X137979632Y-88127525D01*
X137736411Y-87965010D01*
X137466158Y-87853068D01*
X137179260Y-87796000D01*
X136886740Y-87796000D01*
X136599842Y-87853068D01*
X136329589Y-87965010D01*
X136086368Y-88127525D01*
X135879525Y-88334368D01*
X135763000Y-88508760D01*
X135646475Y-88334368D01*
X135439632Y-88127525D01*
X135196411Y-87965010D01*
X134926158Y-87853068D01*
X134639260Y-87796000D01*
X134346740Y-87796000D01*
X134059842Y-87853068D01*
X133789589Y-87965010D01*
X133546368Y-88127525D01*
X133339525Y-88334368D01*
X133223000Y-88508760D01*
X133106475Y-88334368D01*
X132899632Y-88127525D01*
X132656411Y-87965010D01*
X132386158Y-87853068D01*
X132099260Y-87796000D01*
X131806740Y-87796000D01*
X131519842Y-87853068D01*
X131249589Y-87965010D01*
X131006368Y-88127525D01*
X130799525Y-88334368D01*
X130683000Y-88508760D01*
X130566475Y-88334368D01*
X130359632Y-88127525D01*
X130116411Y-87965010D01*
X129846158Y-87853068D01*
X129559260Y-87796000D01*
X129266740Y-87796000D01*
X128979842Y-87853068D01*
X128709589Y-87965010D01*
X128466368Y-88127525D01*
X128259525Y-88334368D01*
X128143000Y-88508760D01*
X128026475Y-88334368D01*
X127819632Y-88127525D01*
X127576411Y-87965010D01*
X127306158Y-87853068D01*
X127019260Y-87796000D01*
X126726740Y-87796000D01*
X126439842Y-87853068D01*
X126169589Y-87965010D01*
X125926368Y-88127525D01*
X125719525Y-88334368D01*
X125603000Y-88508760D01*
X125486475Y-88334368D01*
X125279632Y-88127525D01*
X125036411Y-87965010D01*
X124766158Y-87853068D01*
X124479260Y-87796000D01*
X124186740Y-87796000D01*
X123899842Y-87853068D01*
X123629589Y-87965010D01*
X123386368Y-88127525D01*
X123254513Y-88259380D01*
X123232502Y-88186820D01*
X123173537Y-88076506D01*
X123094185Y-87979815D01*
X122997494Y-87900463D01*
X122887180Y-87841498D01*
X122767482Y-87805188D01*
X122643000Y-87792928D01*
X120943000Y-87792928D01*
X120818518Y-87805188D01*
X120698820Y-87841498D01*
X120588506Y-87900463D01*
X120491815Y-87979815D01*
X120412463Y-88076506D01*
X120353498Y-88186820D01*
X120317188Y-88306518D01*
X120304928Y-88431000D01*
X115062000Y-88431000D01*
X115062000Y-82329872D01*
X116510000Y-82329872D01*
X116510000Y-82770128D01*
X116595890Y-83201925D01*
X116764369Y-83608669D01*
X117008962Y-83974729D01*
X117320271Y-84286038D01*
X117686331Y-84530631D01*
X118093075Y-84699110D01*
X118524872Y-84785000D01*
X118965128Y-84785000D01*
X119396925Y-84699110D01*
X119803669Y-84530631D01*
X120169729Y-84286038D01*
X120481038Y-83974729D01*
X120725631Y-83608669D01*
X120894110Y-83201925D01*
X120980000Y-82770128D01*
X120980000Y-82329872D01*
X163500000Y-82329872D01*
X163500000Y-82770128D01*
X163585890Y-83201925D01*
X163754369Y-83608669D01*
X163998962Y-83974729D01*
X164310271Y-84286038D01*
X164676331Y-84530631D01*
X165083075Y-84699110D01*
X165514872Y-84785000D01*
X165955128Y-84785000D01*
X166386925Y-84699110D01*
X166793669Y-84530631D01*
X167159729Y-84286038D01*
X167471038Y-83974729D01*
X167715631Y-83608669D01*
X167884110Y-83201925D01*
X167970000Y-82770128D01*
X167970000Y-82329872D01*
X167884110Y-81898075D01*
X167715631Y-81491331D01*
X167471038Y-81125271D01*
X167159729Y-80813962D01*
X166793669Y-80569369D01*
X166386925Y-80400890D01*
X165955128Y-80315000D01*
X165514872Y-80315000D01*
X165083075Y-80400890D01*
X164676331Y-80569369D01*
X164310271Y-80813962D01*
X163998962Y-81125271D01*
X163754369Y-81491331D01*
X163585890Y-81898075D01*
X163500000Y-82329872D01*
X120980000Y-82329872D01*
X120894110Y-81898075D01*
X120725631Y-81491331D01*
X120481038Y-81125271D01*
X120169729Y-80813962D01*
X119803669Y-80569369D01*
X119396925Y-80400890D01*
X118965128Y-80315000D01*
X118524872Y-80315000D01*
X118093075Y-80400890D01*
X117686331Y-80569369D01*
X117320271Y-80813962D01*
X117008962Y-81125271D01*
X116764369Y-81491331D01*
X116595890Y-81898075D01*
X116510000Y-82329872D01*
X115062000Y-82329872D01*
X115062000Y-78867000D01*
X169418000Y-78867000D01*
X169418000Y-122428000D01*
G04 #@! TA.AperFunction,Conductor*
D18*
G36*
X169418000Y-122428000D02*
G01*
X115062000Y-122428000D01*
X115062000Y-118524872D01*
X116510000Y-118524872D01*
X116510000Y-118965128D01*
X116595890Y-119396925D01*
X116764369Y-119803669D01*
X117008962Y-120169729D01*
X117320271Y-120481038D01*
X117686331Y-120725631D01*
X118093075Y-120894110D01*
X118524872Y-120980000D01*
X118965128Y-120980000D01*
X119396925Y-120894110D01*
X119803669Y-120725631D01*
X120169729Y-120481038D01*
X120481038Y-120169729D01*
X120725631Y-119803669D01*
X120894110Y-119396925D01*
X120980000Y-118965128D01*
X120980000Y-118524872D01*
X120894110Y-118093075D01*
X120725631Y-117686331D01*
X120481038Y-117320271D01*
X120169729Y-117008962D01*
X119803669Y-116764369D01*
X119396925Y-116595890D01*
X118965128Y-116510000D01*
X118524872Y-116510000D01*
X118093075Y-116595890D01*
X117686331Y-116764369D01*
X117320271Y-117008962D01*
X117008962Y-117320271D01*
X116764369Y-117686331D01*
X116595890Y-118093075D01*
X116510000Y-118524872D01*
X115062000Y-118524872D01*
X115062000Y-113617500D01*
X121890428Y-113617500D01*
X121902688Y-113741982D01*
X121938998Y-113861680D01*
X121997963Y-113971994D01*
X122077315Y-114068685D01*
X122174006Y-114148037D01*
X122284320Y-114207002D01*
X122404018Y-114243312D01*
X122528500Y-114255572D01*
X122967750Y-114252500D01*
X123126500Y-114093750D01*
X123126500Y-113157000D01*
X123380500Y-113157000D01*
X123380500Y-114093750D01*
X123539250Y-114252500D01*
X123978500Y-114255572D01*
X124102982Y-114243312D01*
X124222680Y-114207002D01*
X124332994Y-114148037D01*
X124429685Y-114068685D01*
X124509037Y-113971994D01*
X124568002Y-113861680D01*
X124604312Y-113741982D01*
X124616572Y-113617500D01*
X124613500Y-113315750D01*
X124454750Y-113157000D01*
X123380500Y-113157000D01*
X123126500Y-113157000D01*
X122052250Y-113157000D01*
X121893500Y-113315750D01*
X121890428Y-113617500D01*
X115062000Y-113617500D01*
X115062000Y-110617500D01*
X121890428Y-110617500D01*
X121890428Y-111292500D01*
X121907492Y-111465754D01*
X121958028Y-111632350D01*
X122040095Y-111785886D01*
X122150538Y-111920462D01*
X122157094Y-111925842D01*
X122077315Y-111991315D01*
X121997963Y-112088006D01*
X121938998Y-112198320D01*
X121902688Y-112318018D01*
X121890428Y-112442500D01*
X121893500Y-112744250D01*
X122052250Y-112903000D01*
X123126500Y-112903000D01*
X123126500Y-112883000D01*
X123380500Y-112883000D01*
X123380500Y-112903000D01*
X124454750Y-112903000D01*
X124613500Y-112744250D01*
X124616572Y-112442500D01*
X124604312Y-112318018D01*
X124568002Y-112198320D01*
X124509037Y-112088006D01*
X124429685Y-111991315D01*
X124356569Y-111931311D01*
X124548561Y-111969500D01*
X124752439Y-111969500D01*
X124820056Y-111956050D01*
X124851916Y-112061082D01*
X124924742Y-112197329D01*
X125022749Y-112316751D01*
X125142171Y-112414758D01*
X125278418Y-112487584D01*
X125426255Y-112532429D01*
X125580000Y-112547572D01*
X125880000Y-112547572D01*
X126033745Y-112532429D01*
X126154753Y-112495722D01*
X126127805Y-112584554D01*
X126110719Y-112758044D01*
X126115001Y-112801523D01*
X126115001Y-114311219D01*
X126033745Y-114286571D01*
X125880000Y-114271428D01*
X125580000Y-114271428D01*
X125426255Y-114286571D01*
X125278418Y-114331416D01*
X125142171Y-114404242D01*
X125022749Y-114502249D01*
X124924742Y-114621671D01*
X124851916Y-114757918D01*
X124807071Y-114905755D01*
X124791928Y-115059500D01*
X124791928Y-116709500D01*
X124807071Y-116863245D01*
X124823501Y-116917407D01*
X124823500Y-117385505D01*
X124743038Y-117451538D01*
X124632595Y-117586114D01*
X124550528Y-117739650D01*
X124499992Y-117906246D01*
X124482928Y-118079500D01*
X124482928Y-119029500D01*
X124499992Y-119202754D01*
X124550528Y-119369350D01*
X124632595Y-119522886D01*
X124743038Y-119657462D01*
X124877614Y-119767905D01*
X125031150Y-119849972D01*
X125197746Y-119900508D01*
X125371000Y-119917572D01*
X126046000Y-119917572D01*
X126219254Y-119900508D01*
X126385850Y-119849972D01*
X126539386Y-119767905D01*
X126673962Y-119657462D01*
X126679342Y-119650906D01*
X126744815Y-119730685D01*
X126841506Y-119810037D01*
X126951820Y-119869002D01*
X127071518Y-119905312D01*
X127196000Y-119917572D01*
X127497750Y-119914500D01*
X127656500Y-119755750D01*
X127656500Y-118681500D01*
X127910500Y-118681500D01*
X127910500Y-119755750D01*
X128069250Y-119914500D01*
X128371000Y-119917572D01*
X128495482Y-119905312D01*
X128615180Y-119869002D01*
X128725494Y-119810037D01*
X128822185Y-119730685D01*
X128901537Y-119633994D01*
X128960502Y-119523680D01*
X128996812Y-119403982D01*
X129009072Y-119279500D01*
X129006000Y-118840250D01*
X128847250Y-118681500D01*
X127910500Y-118681500D01*
X127656500Y-118681500D01*
X127636500Y-118681500D01*
X127636500Y-118524872D01*
X163500000Y-118524872D01*
X163500000Y-118965128D01*
X163585890Y-119396925D01*
X163754369Y-119803669D01*
X163998962Y-120169729D01*
X164310271Y-120481038D01*
X164676331Y-120725631D01*
X165083075Y-120894110D01*
X165514872Y-120980000D01*
X165955128Y-120980000D01*
X166386925Y-120894110D01*
X166793669Y-120725631D01*
X167159729Y-120481038D01*
X167471038Y-120169729D01*
X167715631Y-119803669D01*
X167884110Y-119396925D01*
X167970000Y-118965128D01*
X167970000Y-118524872D01*
X167884110Y-118093075D01*
X167715631Y-117686331D01*
X167471038Y-117320271D01*
X167159729Y-117008962D01*
X166793669Y-116764369D01*
X166386925Y-116595890D01*
X165955128Y-116510000D01*
X165514872Y-116510000D01*
X165083075Y-116595890D01*
X164676331Y-116764369D01*
X164310271Y-117008962D01*
X163998962Y-117320271D01*
X163754369Y-117686331D01*
X163585890Y-118093075D01*
X163500000Y-118524872D01*
X127636500Y-118524872D01*
X127636500Y-118427500D01*
X127656500Y-118427500D01*
X127656500Y-118407500D01*
X127910500Y-118407500D01*
X127910500Y-118427500D01*
X128847250Y-118427500D01*
X129006000Y-118268750D01*
X129009072Y-117829500D01*
X128996812Y-117705018D01*
X128960502Y-117585320D01*
X128901537Y-117475006D01*
X128825320Y-117382135D01*
X128857829Y-117364758D01*
X128905000Y-117326046D01*
X128952171Y-117364758D01*
X129088418Y-117437584D01*
X129236255Y-117482429D01*
X129390000Y-117497572D01*
X129690000Y-117497572D01*
X129843745Y-117482429D01*
X129991582Y-117437584D01*
X130127829Y-117364758D01*
X130247251Y-117266751D01*
X130345258Y-117147329D01*
X130418084Y-117011082D01*
X130462929Y-116863245D01*
X130478072Y-116709500D01*
X130478072Y-116180891D01*
X134004019Y-116180891D01*
X134101343Y-116455252D01*
X134250322Y-116705355D01*
X134445231Y-116921588D01*
X134678580Y-117095641D01*
X134941401Y-117220825D01*
X135088610Y-117265476D01*
X135318500Y-117144155D01*
X135318500Y-115951000D01*
X135572500Y-115951000D01*
X135572500Y-117144155D01*
X135802390Y-117265476D01*
X135949599Y-117220825D01*
X136212420Y-117095641D01*
X136445769Y-116921588D01*
X136640678Y-116705355D01*
X136715500Y-116579745D01*
X136790322Y-116705355D01*
X136985231Y-116921588D01*
X137218580Y-117095641D01*
X137481401Y-117220825D01*
X137628610Y-117265476D01*
X137858500Y-117144155D01*
X137858500Y-115951000D01*
X135572500Y-115951000D01*
X135318500Y-115951000D01*
X134124686Y-115951000D01*
X134004019Y-116180891D01*
X130478072Y-116180891D01*
X130478072Y-115467109D01*
X134004019Y-115467109D01*
X134124686Y-115697000D01*
X135318500Y-115697000D01*
X135318500Y-114503845D01*
X135572500Y-114503845D01*
X135572500Y-115697000D01*
X137858500Y-115697000D01*
X137858500Y-114503845D01*
X138112500Y-114503845D01*
X138112500Y-115697000D01*
X138132500Y-115697000D01*
X138132500Y-115951000D01*
X138112500Y-115951000D01*
X138112500Y-117144155D01*
X138342390Y-117265476D01*
X138489599Y-117220825D01*
X138752420Y-117095641D01*
X138985769Y-116921588D01*
X139061534Y-116837534D01*
X139085998Y-116918180D01*
X139144963Y-117028494D01*
X139224315Y-117125185D01*
X139321006Y-117204537D01*
X139431320Y-117263502D01*
X139551018Y-117299812D01*
X139675500Y-117312072D01*
X141375500Y-117312072D01*
X141499982Y-117299812D01*
X141619680Y-117263502D01*
X141729994Y-117204537D01*
X141826685Y-117125185D01*
X141906037Y-117028494D01*
X141965002Y-116918180D01*
X142001312Y-116798482D01*
X142013572Y-116674000D01*
X142013572Y-114974000D01*
X142001312Y-114849518D01*
X141965002Y-114729820D01*
X141906037Y-114619506D01*
X141826685Y-114522815D01*
X141729994Y-114443463D01*
X141619680Y-114384498D01*
X141499982Y-114348188D01*
X141375500Y-114335928D01*
X139675500Y-114335928D01*
X139551018Y-114348188D01*
X139431320Y-114384498D01*
X139321006Y-114443463D01*
X139224315Y-114522815D01*
X139144963Y-114619506D01*
X139085998Y-114729820D01*
X139061534Y-114810466D01*
X138985769Y-114726412D01*
X138752420Y-114552359D01*
X138489599Y-114427175D01*
X138342390Y-114382524D01*
X138112500Y-114503845D01*
X137858500Y-114503845D01*
X137628610Y-114382524D01*
X137481401Y-114427175D01*
X137218580Y-114552359D01*
X136985231Y-114726412D01*
X136790322Y-114942645D01*
X136715500Y-115068255D01*
X136640678Y-114942645D01*
X136445769Y-114726412D01*
X136212420Y-114552359D01*
X135949599Y-114427175D01*
X135802390Y-114382524D01*
X135572500Y-114503845D01*
X135318500Y-114503845D01*
X135088610Y-114382524D01*
X134941401Y-114427175D01*
X134678580Y-114552359D01*
X134445231Y-114726412D01*
X134250322Y-114942645D01*
X134101343Y-115192748D01*
X134004019Y-115467109D01*
X130478072Y-115467109D01*
X130478072Y-115059500D01*
X130462929Y-114905755D01*
X130425000Y-114780717D01*
X130425000Y-114584454D01*
X130457205Y-114536256D01*
X130535226Y-114347898D01*
X130575000Y-114147939D01*
X130575000Y-113944061D01*
X130535226Y-113744102D01*
X130457205Y-113555744D01*
X130343937Y-113386226D01*
X130199774Y-113242063D01*
X130030256Y-113128795D01*
X129841898Y-113050774D01*
X129641939Y-113011000D01*
X129438061Y-113011000D01*
X129238102Y-113050774D01*
X129049744Y-113128795D01*
X128880226Y-113242063D01*
X128736063Y-113386226D01*
X128622795Y-113555744D01*
X128544774Y-113744102D01*
X128505000Y-113944061D01*
X128505000Y-114147939D01*
X128531753Y-114282435D01*
X128420000Y-114271428D01*
X128120000Y-114271428D01*
X127966255Y-114286571D01*
X127885000Y-114311219D01*
X127885000Y-113124622D01*
X128466645Y-112542978D01*
X128573745Y-112532429D01*
X128721582Y-112487584D01*
X128855936Y-112415770D01*
X128885506Y-112440037D01*
X128995820Y-112499002D01*
X129115518Y-112535312D01*
X129240000Y-112547572D01*
X129254250Y-112544500D01*
X129413000Y-112385750D01*
X129413000Y-111061500D01*
X129667000Y-111061500D01*
X129667000Y-112385750D01*
X129825750Y-112544500D01*
X129840000Y-112547572D01*
X129964482Y-112535312D01*
X130084180Y-112499002D01*
X130194494Y-112440037D01*
X130291185Y-112360685D01*
X130370537Y-112263994D01*
X130429502Y-112153680D01*
X130465812Y-112033982D01*
X130478072Y-111909500D01*
X130475000Y-111220250D01*
X130316250Y-111061500D01*
X129667000Y-111061500D01*
X129413000Y-111061500D01*
X129393000Y-111061500D01*
X129393000Y-110807500D01*
X129413000Y-110807500D01*
X129413000Y-110787500D01*
X129667000Y-110787500D01*
X129667000Y-110807500D01*
X130316250Y-110807500D01*
X130475000Y-110648750D01*
X130478072Y-109959500D01*
X130465812Y-109835018D01*
X130439434Y-109748061D01*
X130536000Y-109757572D01*
X131211000Y-109757572D01*
X131384254Y-109740508D01*
X131550850Y-109689972D01*
X131704386Y-109607905D01*
X131838962Y-109497462D01*
X131844342Y-109490906D01*
X131909815Y-109570685D01*
X132006506Y-109650037D01*
X132116820Y-109709002D01*
X132236518Y-109745312D01*
X132361000Y-109757572D01*
X132662750Y-109754500D01*
X132821500Y-109595750D01*
X132821500Y-108521500D01*
X133075500Y-108521500D01*
X133075500Y-109595750D01*
X133234250Y-109754500D01*
X133536000Y-109757572D01*
X133660482Y-109745312D01*
X133780180Y-109709002D01*
X133890494Y-109650037D01*
X133987185Y-109570685D01*
X134066537Y-109473994D01*
X134125502Y-109363680D01*
X134161812Y-109243982D01*
X134174072Y-109119500D01*
X134171000Y-108680250D01*
X134012250Y-108521500D01*
X133075500Y-108521500D01*
X132821500Y-108521500D01*
X132801500Y-108521500D01*
X132801500Y-108267500D01*
X132821500Y-108267500D01*
X132821500Y-107193250D01*
X133075500Y-107193250D01*
X133075500Y-108267500D01*
X134012250Y-108267500D01*
X134171000Y-108108750D01*
X134174072Y-107669500D01*
X134161812Y-107545018D01*
X134125502Y-107425320D01*
X134066537Y-107315006D01*
X133987185Y-107218315D01*
X133890494Y-107138963D01*
X133780180Y-107079998D01*
X133660482Y-107043688D01*
X133536000Y-107031428D01*
X133234250Y-107034500D01*
X133075500Y-107193250D01*
X132821500Y-107193250D01*
X132662750Y-107034500D01*
X132361000Y-107031428D01*
X132236518Y-107043688D01*
X132116820Y-107079998D01*
X132006506Y-107138963D01*
X131909815Y-107218315D01*
X131844342Y-107298094D01*
X131838962Y-107291538D01*
X131704386Y-107181095D01*
X131550850Y-107099028D01*
X131384254Y-107048492D01*
X131211000Y-107031428D01*
X130536000Y-107031428D01*
X130469754Y-107037953D01*
X130478072Y-106953500D01*
X130475000Y-106264250D01*
X130316250Y-106105500D01*
X129667000Y-106105500D01*
X129667000Y-106125500D01*
X129413000Y-106125500D01*
X129413000Y-106105500D01*
X128397000Y-106105500D01*
X128397000Y-106125500D01*
X128143000Y-106125500D01*
X128143000Y-106105500D01*
X128123000Y-106105500D01*
X128123000Y-105851500D01*
X128143000Y-105851500D01*
X128143000Y-104527250D01*
X128397000Y-104527250D01*
X128397000Y-105851500D01*
X129413000Y-105851500D01*
X129413000Y-104527250D01*
X129667000Y-104527250D01*
X129667000Y-105851500D01*
X130316250Y-105851500D01*
X130475000Y-105692750D01*
X130478072Y-105003500D01*
X130465812Y-104879018D01*
X130429502Y-104759320D01*
X130370537Y-104649006D01*
X130291185Y-104552315D01*
X130194494Y-104472963D01*
X130084180Y-104413998D01*
X129964482Y-104377688D01*
X129840000Y-104365428D01*
X129825750Y-104368500D01*
X129667000Y-104527250D01*
X129413000Y-104527250D01*
X129254250Y-104368500D01*
X129240000Y-104365428D01*
X129115518Y-104377688D01*
X128995820Y-104413998D01*
X128905000Y-104462543D01*
X128814180Y-104413998D01*
X128694482Y-104377688D01*
X128570000Y-104365428D01*
X128555750Y-104368500D01*
X128397000Y-104527250D01*
X128143000Y-104527250D01*
X127984250Y-104368500D01*
X127970000Y-104365428D01*
X127845518Y-104377688D01*
X127725820Y-104413998D01*
X127615506Y-104472963D01*
X127585936Y-104497230D01*
X127451582Y-104425416D01*
X127303745Y-104380571D01*
X127150000Y-104365428D01*
X126850000Y-104365428D01*
X126696255Y-104380571D01*
X126548418Y-104425416D01*
X126412171Y-104498242D01*
X126365000Y-104536954D01*
X126317829Y-104498242D01*
X126181582Y-104425416D01*
X126033745Y-104380571D01*
X125880000Y-104365428D01*
X125580000Y-104365428D01*
X125426255Y-104380571D01*
X125278418Y-104425416D01*
X125142171Y-104498242D01*
X125022749Y-104596249D01*
X124924742Y-104715671D01*
X124851916Y-104851918D01*
X124807071Y-104999755D01*
X124791928Y-105153500D01*
X124791928Y-106803500D01*
X124807071Y-106957245D01*
X124851916Y-107105082D01*
X124924742Y-107241329D01*
X125022749Y-107360751D01*
X125142171Y-107458758D01*
X125278418Y-107531584D01*
X125426255Y-107576429D01*
X125580000Y-107591572D01*
X125836518Y-107591572D01*
X125829528Y-107604649D01*
X125778992Y-107771245D01*
X125761928Y-107944499D01*
X125761928Y-108844501D01*
X125778992Y-109017755D01*
X125829528Y-109184351D01*
X125904064Y-109323798D01*
X125880000Y-109321428D01*
X125580000Y-109321428D01*
X125426255Y-109336571D01*
X125278418Y-109381416D01*
X125142171Y-109454242D01*
X125022749Y-109552249D01*
X124924742Y-109671671D01*
X124851916Y-109807918D01*
X124820056Y-109912950D01*
X124752439Y-109899500D01*
X124548561Y-109899500D01*
X124348602Y-109939274D01*
X124313122Y-109953970D01*
X124221886Y-109879095D01*
X124068350Y-109797028D01*
X123901754Y-109746492D01*
X123728500Y-109729428D01*
X122778500Y-109729428D01*
X122605246Y-109746492D01*
X122438650Y-109797028D01*
X122285114Y-109879095D01*
X122150538Y-109989538D01*
X122040095Y-110124114D01*
X121958028Y-110277650D01*
X121907492Y-110444246D01*
X121890428Y-110617500D01*
X115062000Y-110617500D01*
X115062000Y-105402413D01*
X118297192Y-105402413D01*
X118392956Y-105666814D01*
X118682571Y-105807704D01*
X118994108Y-105889384D01*
X119315595Y-105908718D01*
X119634675Y-105864961D01*
X119939088Y-105759795D01*
X120113044Y-105666814D01*
X120208808Y-105402413D01*
X119253000Y-104446605D01*
X118297192Y-105402413D01*
X115062000Y-105402413D01*
X115062000Y-104329595D01*
X117611282Y-104329595D01*
X117655039Y-104648675D01*
X117760205Y-104953088D01*
X117853186Y-105127044D01*
X118117587Y-105222808D01*
X119073395Y-104267000D01*
X119432605Y-104267000D01*
X120388413Y-105222808D01*
X120652814Y-105127044D01*
X120793704Y-104837429D01*
X120875384Y-104525892D01*
X120894718Y-104204405D01*
X120850961Y-103885325D01*
X120745795Y-103580912D01*
X120652814Y-103406956D01*
X120388413Y-103311192D01*
X119432605Y-104267000D01*
X119073395Y-104267000D01*
X118117587Y-103311192D01*
X117853186Y-103406956D01*
X117712296Y-103696571D01*
X117630616Y-104008108D01*
X117611282Y-104329595D01*
X115062000Y-104329595D01*
X115062000Y-103131587D01*
X118297192Y-103131587D01*
X119253000Y-104087395D01*
X120208808Y-103131587D01*
X120113044Y-102867186D01*
X119823429Y-102726296D01*
X119511892Y-102644616D01*
X119190405Y-102625282D01*
X118871325Y-102669039D01*
X118566912Y-102774205D01*
X118392956Y-102867186D01*
X118297192Y-103131587D01*
X115062000Y-103131587D01*
X115062000Y-100203500D01*
X124791928Y-100203500D01*
X124791928Y-101853500D01*
X124807071Y-102007245D01*
X124851916Y-102155082D01*
X124924742Y-102291329D01*
X125022749Y-102410751D01*
X125142171Y-102508758D01*
X125278418Y-102581584D01*
X125426255Y-102626429D01*
X125580000Y-102641572D01*
X125880000Y-102641572D01*
X126033745Y-102626429D01*
X126181582Y-102581584D01*
X126317829Y-102508758D01*
X126365000Y-102470046D01*
X126412171Y-102508758D01*
X126548418Y-102581584D01*
X126696255Y-102626429D01*
X126850000Y-102641572D01*
X127150000Y-102641572D01*
X127303745Y-102626429D01*
X127451582Y-102581584D01*
X127587829Y-102508758D01*
X127635000Y-102470046D01*
X127682171Y-102508758D01*
X127818418Y-102581584D01*
X127966255Y-102626429D01*
X128120000Y-102641572D01*
X128420000Y-102641572D01*
X128573745Y-102626429D01*
X128721582Y-102581584D01*
X128857829Y-102508758D01*
X128905000Y-102470046D01*
X128952171Y-102508758D01*
X129088418Y-102581584D01*
X129236255Y-102626429D01*
X129390000Y-102641572D01*
X129690000Y-102641572D01*
X129843745Y-102626429D01*
X129991582Y-102581584D01*
X130127829Y-102508758D01*
X130247251Y-102410751D01*
X130345258Y-102291329D01*
X130418084Y-102155082D01*
X130462929Y-102007245D01*
X130478072Y-101853500D01*
X130478072Y-100203500D01*
X130462929Y-100049755D01*
X130459667Y-100039000D01*
X130492502Y-100039000D01*
X130492502Y-99880252D01*
X130651250Y-100039000D01*
X130953000Y-100042072D01*
X131077482Y-100029812D01*
X131197180Y-99993502D01*
X131307494Y-99934537D01*
X131404185Y-99855185D01*
X131483537Y-99758494D01*
X131542502Y-99648180D01*
X131578812Y-99528482D01*
X131591072Y-99404000D01*
X131588000Y-98964750D01*
X131429250Y-98806000D01*
X130492500Y-98806000D01*
X130492500Y-98826000D01*
X130238500Y-98826000D01*
X130238500Y-98806000D01*
X130218500Y-98806000D01*
X130218500Y-98552000D01*
X130238500Y-98552000D01*
X130238500Y-97477750D01*
X130492500Y-97477750D01*
X130492500Y-98552000D01*
X131429250Y-98552000D01*
X131588000Y-98393250D01*
X131591072Y-97954000D01*
X131578812Y-97829518D01*
X131542502Y-97709820D01*
X131483537Y-97599506D01*
X131404185Y-97502815D01*
X131307494Y-97423463D01*
X131272018Y-97404500D01*
X134907928Y-97404500D01*
X134920188Y-97528982D01*
X134956498Y-97648680D01*
X135015463Y-97758994D01*
X135094815Y-97855685D01*
X135191506Y-97935037D01*
X135301820Y-97994002D01*
X135421518Y-98030312D01*
X135546000Y-98042572D01*
X135985250Y-98039500D01*
X136144000Y-97880750D01*
X136144000Y-96944000D01*
X136398000Y-96944000D01*
X136398000Y-97880750D01*
X136556750Y-98039500D01*
X136996000Y-98042572D01*
X137120482Y-98030312D01*
X137240180Y-97994002D01*
X137350494Y-97935037D01*
X137447185Y-97855685D01*
X137526537Y-97758994D01*
X137585502Y-97648680D01*
X137621812Y-97528982D01*
X137634072Y-97404500D01*
X137631000Y-97102750D01*
X137472250Y-96944000D01*
X136398000Y-96944000D01*
X136144000Y-96944000D01*
X135069750Y-96944000D01*
X134911000Y-97102750D01*
X134907928Y-97404500D01*
X131272018Y-97404500D01*
X131197180Y-97364498D01*
X131077482Y-97328188D01*
X130953000Y-97315928D01*
X130651250Y-97319000D01*
X130492500Y-97477750D01*
X130238500Y-97477750D01*
X130079750Y-97319000D01*
X129778000Y-97315928D01*
X129653518Y-97328188D01*
X129533820Y-97364498D01*
X129423506Y-97423463D01*
X129326815Y-97502815D01*
X129283482Y-97555616D01*
X129305000Y-97447439D01*
X129305000Y-97243561D01*
X129265226Y-97043602D01*
X129187205Y-96855244D01*
X129073937Y-96685726D01*
X128929774Y-96541563D01*
X128760256Y-96428295D01*
X128601331Y-96362466D01*
X128616072Y-96212800D01*
X128616072Y-95912800D01*
X128600929Y-95759055D01*
X128556084Y-95611218D01*
X128484270Y-95476864D01*
X128508537Y-95447294D01*
X128567502Y-95336980D01*
X128603812Y-95217282D01*
X128616072Y-95092800D01*
X128613000Y-95078550D01*
X128454250Y-94919800D01*
X127130000Y-94919800D01*
X127130000Y-94939800D01*
X126876000Y-94939800D01*
X126876000Y-94919800D01*
X125551750Y-94919800D01*
X125393000Y-95078550D01*
X125389928Y-95092800D01*
X125402188Y-95217282D01*
X125438498Y-95336980D01*
X125497463Y-95447294D01*
X125521730Y-95476864D01*
X125449916Y-95611218D01*
X125405071Y-95759055D01*
X125389928Y-95912800D01*
X125389928Y-96212800D01*
X125405071Y-96366545D01*
X125449916Y-96514382D01*
X125522742Y-96650629D01*
X125620749Y-96770051D01*
X125740171Y-96868058D01*
X125876418Y-96940884D01*
X126024255Y-96985729D01*
X126115001Y-96994667D01*
X126115000Y-99455219D01*
X126033745Y-99430571D01*
X125880000Y-99415428D01*
X125580000Y-99415428D01*
X125426255Y-99430571D01*
X125278418Y-99475416D01*
X125142171Y-99548242D01*
X125022749Y-99646249D01*
X124924742Y-99765671D01*
X124851916Y-99901918D01*
X124807071Y-100049755D01*
X124791928Y-100203500D01*
X115062000Y-100203500D01*
X115062000Y-97184467D01*
X117618000Y-97184467D01*
X117618000Y-97506533D01*
X117680832Y-97822412D01*
X117804082Y-98119963D01*
X117983013Y-98387752D01*
X118210748Y-98615487D01*
X118478537Y-98794418D01*
X118776088Y-98917668D01*
X119091967Y-98980500D01*
X119414033Y-98980500D01*
X119729912Y-98917668D01*
X120027463Y-98794418D01*
X120295252Y-98615487D01*
X120522987Y-98387752D01*
X120701918Y-98119963D01*
X120825168Y-97822412D01*
X120888000Y-97506533D01*
X120888000Y-97184467D01*
X120825168Y-96868588D01*
X120701918Y-96571037D01*
X120522987Y-96303248D01*
X120295252Y-96075513D01*
X120027463Y-95896582D01*
X119729912Y-95773332D01*
X119414033Y-95710500D01*
X119091967Y-95710500D01*
X118776088Y-95773332D01*
X118478537Y-95896582D01*
X118210748Y-96075513D01*
X117983013Y-96303248D01*
X117804082Y-96571037D01*
X117680832Y-96868588D01*
X117618000Y-97184467D01*
X115062000Y-97184467D01*
X115062000Y-93822800D01*
X125389928Y-93822800D01*
X125402188Y-93947282D01*
X125438498Y-94066980D01*
X125487043Y-94157800D01*
X125438498Y-94248620D01*
X125402188Y-94368318D01*
X125389928Y-94492800D01*
X125393000Y-94507050D01*
X125551750Y-94665800D01*
X126876000Y-94665800D01*
X126876000Y-93649800D01*
X127130000Y-93649800D01*
X127130000Y-94665800D01*
X128454250Y-94665800D01*
X128613000Y-94507050D01*
X128616072Y-94492800D01*
X128603812Y-94368318D01*
X128567502Y-94248620D01*
X128518957Y-94157800D01*
X128567502Y-94066980D01*
X128603812Y-93947282D01*
X128616072Y-93822800D01*
X128613000Y-93808550D01*
X128454250Y-93649800D01*
X127130000Y-93649800D01*
X126876000Y-93649800D01*
X125551750Y-93649800D01*
X125393000Y-93808550D01*
X125389928Y-93822800D01*
X115062000Y-93822800D01*
X115062000Y-92552800D01*
X125389928Y-92552800D01*
X125402188Y-92677282D01*
X125438498Y-92796980D01*
X125487043Y-92887800D01*
X125438498Y-92978620D01*
X125402188Y-93098318D01*
X125389928Y-93222800D01*
X125393000Y-93237050D01*
X125551750Y-93395800D01*
X126876000Y-93395800D01*
X126876000Y-92379800D01*
X127130000Y-92379800D01*
X127130000Y-93395800D01*
X128454250Y-93395800D01*
X128613000Y-93237050D01*
X128616072Y-93222800D01*
X128603812Y-93098318D01*
X128567502Y-92978620D01*
X128518957Y-92887800D01*
X128567502Y-92796980D01*
X128603812Y-92677282D01*
X128616072Y-92552800D01*
X128613000Y-92538550D01*
X128454250Y-92379800D01*
X127130000Y-92379800D01*
X126876000Y-92379800D01*
X125551750Y-92379800D01*
X125393000Y-92538550D01*
X125389928Y-92552800D01*
X115062000Y-92552800D01*
X115062000Y-91952800D01*
X125389928Y-91952800D01*
X125393000Y-91967050D01*
X125551750Y-92125800D01*
X126876000Y-92125800D01*
X126876000Y-91476550D01*
X127130000Y-91476550D01*
X127130000Y-92125800D01*
X128454250Y-92125800D01*
X128613000Y-91967050D01*
X128616072Y-91952800D01*
X128603812Y-91828318D01*
X128567502Y-91708620D01*
X128508537Y-91598306D01*
X128429185Y-91501615D01*
X128332494Y-91422263D01*
X128222180Y-91363298D01*
X128102482Y-91326988D01*
X127978000Y-91314728D01*
X127288750Y-91317800D01*
X127130000Y-91476550D01*
X126876000Y-91476550D01*
X126717250Y-91317800D01*
X126028000Y-91314728D01*
X125903518Y-91326988D01*
X125783820Y-91363298D01*
X125673506Y-91422263D01*
X125576815Y-91501615D01*
X125497463Y-91598306D01*
X125438498Y-91708620D01*
X125402188Y-91828318D01*
X125389928Y-91952800D01*
X115062000Y-91952800D01*
X115062000Y-88431000D01*
X120304928Y-88431000D01*
X120304928Y-90131000D01*
X120317188Y-90255482D01*
X120353498Y-90375180D01*
X120412463Y-90485494D01*
X120491815Y-90582185D01*
X120588506Y-90661537D01*
X120698820Y-90720502D01*
X120818518Y-90756812D01*
X120943000Y-90769072D01*
X122643000Y-90769072D01*
X122767482Y-90756812D01*
X122887180Y-90720502D01*
X122997494Y-90661537D01*
X123094185Y-90582185D01*
X123173537Y-90485494D01*
X123232502Y-90375180D01*
X123254513Y-90302620D01*
X123386368Y-90434475D01*
X123629589Y-90596990D01*
X123899842Y-90708932D01*
X124186740Y-90766000D01*
X124479260Y-90766000D01*
X124766158Y-90708932D01*
X125036411Y-90596990D01*
X125279632Y-90434475D01*
X125486475Y-90227632D01*
X125603000Y-90053240D01*
X125719525Y-90227632D01*
X125926368Y-90434475D01*
X126169589Y-90596990D01*
X126439842Y-90708932D01*
X126726740Y-90766000D01*
X127019260Y-90766000D01*
X127306158Y-90708932D01*
X127576411Y-90596990D01*
X127819632Y-90434475D01*
X128026475Y-90227632D01*
X128143000Y-90053240D01*
X128259525Y-90227632D01*
X128466368Y-90434475D01*
X128709589Y-90596990D01*
X128979842Y-90708932D01*
X129266740Y-90766000D01*
X129559260Y-90766000D01*
X129846158Y-90708932D01*
X130116411Y-90596990D01*
X130359632Y-90434475D01*
X130566475Y-90227632D01*
X130683000Y-90053240D01*
X130799525Y-90227632D01*
X131006368Y-90434475D01*
X131068001Y-90475657D01*
X131068000Y-91320638D01*
X130974255Y-91329871D01*
X130826418Y-91374716D01*
X130690171Y-91447542D01*
X130570749Y-91545549D01*
X130472742Y-91664971D01*
X130399916Y-91801218D01*
X130355071Y-91949055D01*
X130339928Y-92102800D01*
X130339928Y-92402800D01*
X130355071Y-92556545D01*
X130399916Y-92704382D01*
X130472742Y-92840629D01*
X130511454Y-92887800D01*
X130472742Y-92934971D01*
X130399916Y-93071218D01*
X130355071Y-93219055D01*
X130339928Y-93372800D01*
X130339928Y-93672800D01*
X130355071Y-93826545D01*
X130399916Y-93974382D01*
X130472742Y-94110629D01*
X130511454Y-94157800D01*
X130472742Y-94204971D01*
X130399916Y-94341218D01*
X130355071Y-94489055D01*
X130339928Y-94642800D01*
X130339928Y-94942800D01*
X130355071Y-95096545D01*
X130399916Y-95244382D01*
X130472742Y-95380629D01*
X130511454Y-95427800D01*
X130472742Y-95474971D01*
X130399916Y-95611218D01*
X130355071Y-95759055D01*
X130339928Y-95912800D01*
X130339928Y-96212800D01*
X130355071Y-96366545D01*
X130399916Y-96514382D01*
X130472742Y-96650629D01*
X130570749Y-96770051D01*
X130690171Y-96868058D01*
X130826418Y-96940884D01*
X130974255Y-96985729D01*
X131128000Y-97000872D01*
X132778000Y-97000872D01*
X132931745Y-96985729D01*
X133079582Y-96940884D01*
X133215829Y-96868058D01*
X133335251Y-96770051D01*
X133433258Y-96650629D01*
X133506084Y-96514382D01*
X133550929Y-96366545D01*
X133566072Y-96212800D01*
X133566072Y-95912800D01*
X133550929Y-95759055D01*
X133506084Y-95611218D01*
X133433258Y-95474971D01*
X133394546Y-95427800D01*
X133433258Y-95380629D01*
X133506084Y-95244382D01*
X133550929Y-95096545D01*
X133566072Y-94942800D01*
X133566072Y-94642800D01*
X133550929Y-94489055D01*
X133506084Y-94341218D01*
X133433258Y-94204971D01*
X133394546Y-94157800D01*
X133433258Y-94110629D01*
X133506084Y-93974382D01*
X133550929Y-93826545D01*
X133566072Y-93672800D01*
X133566072Y-93511076D01*
X133612649Y-93535972D01*
X133779245Y-93586508D01*
X133952499Y-93603572D01*
X134652501Y-93603572D01*
X134825755Y-93586508D01*
X134992351Y-93535972D01*
X135145887Y-93453905D01*
X135248744Y-93369492D01*
X135236000Y-93433561D01*
X135236000Y-93637439D01*
X135250248Y-93709070D01*
X135168038Y-93776538D01*
X135057595Y-93911114D01*
X134975528Y-94064650D01*
X134924992Y-94231246D01*
X134907928Y-94404500D01*
X134907928Y-95079500D01*
X134924992Y-95252754D01*
X134975528Y-95419350D01*
X135057595Y-95572886D01*
X135168038Y-95707462D01*
X135174594Y-95712842D01*
X135094815Y-95778315D01*
X135015463Y-95875006D01*
X134956498Y-95985320D01*
X134920188Y-96105018D01*
X134907928Y-96229500D01*
X134911000Y-96531250D01*
X135069750Y-96690000D01*
X136144000Y-96690000D01*
X136144000Y-96670000D01*
X136398000Y-96670000D01*
X136398000Y-96690000D01*
X137472250Y-96690000D01*
X137631000Y-96531250D01*
X137634072Y-96229500D01*
X137621812Y-96105018D01*
X137585502Y-95985320D01*
X137526537Y-95875006D01*
X137447185Y-95778315D01*
X137367406Y-95712842D01*
X137373962Y-95707462D01*
X137484405Y-95572886D01*
X137566472Y-95419350D01*
X137617008Y-95252754D01*
X137634072Y-95079500D01*
X137634072Y-94404500D01*
X137617008Y-94231246D01*
X137566472Y-94064650D01*
X137484405Y-93911114D01*
X137373962Y-93776538D01*
X137291752Y-93709070D01*
X137306000Y-93637439D01*
X137306000Y-93433561D01*
X137286592Y-93335992D01*
X137390905Y-93208887D01*
X137472972Y-93055351D01*
X137523508Y-92888755D01*
X137540572Y-92715501D01*
X137540572Y-92114000D01*
X143228428Y-92114000D01*
X143228428Y-93814000D01*
X143240688Y-93938482D01*
X143276998Y-94058180D01*
X143335963Y-94168494D01*
X143415315Y-94265185D01*
X143512006Y-94344537D01*
X143622320Y-94403502D01*
X143694880Y-94425513D01*
X143563025Y-94557368D01*
X143400510Y-94800589D01*
X143288568Y-95070842D01*
X143231500Y-95357740D01*
X143231500Y-95650260D01*
X143288568Y-95937158D01*
X143400510Y-96207411D01*
X143563025Y-96450632D01*
X143769868Y-96657475D01*
X143944260Y-96774000D01*
X143769868Y-96890525D01*
X143563025Y-97097368D01*
X143400510Y-97340589D01*
X143288568Y-97610842D01*
X143231500Y-97897740D01*
X143231500Y-98190260D01*
X143288568Y-98477158D01*
X143400510Y-98747411D01*
X143563025Y-98990632D01*
X143769868Y-99197475D01*
X143944260Y-99314000D01*
X143769868Y-99430525D01*
X143563025Y-99637368D01*
X143400510Y-99880589D01*
X143288568Y-100150842D01*
X143231500Y-100437740D01*
X143231500Y-100730260D01*
X143288568Y-101017158D01*
X143400510Y-101287411D01*
X143563025Y-101530632D01*
X143769868Y-101737475D01*
X143944260Y-101854000D01*
X143769868Y-101970525D01*
X143563025Y-102177368D01*
X143400510Y-102420589D01*
X143288568Y-102690842D01*
X143231500Y-102977740D01*
X143231500Y-103270260D01*
X143288568Y-103557158D01*
X143400510Y-103827411D01*
X143563025Y-104070632D01*
X143769868Y-104277475D01*
X143944260Y-104394000D01*
X143769868Y-104510525D01*
X143563025Y-104717368D01*
X143400510Y-104960589D01*
X143288568Y-105230842D01*
X143231500Y-105517740D01*
X143231500Y-105810260D01*
X143288568Y-106097158D01*
X143400510Y-106367411D01*
X143563025Y-106610632D01*
X143769868Y-106817475D01*
X143944260Y-106934000D01*
X143769868Y-107050525D01*
X143563025Y-107257368D01*
X143400510Y-107500589D01*
X143288568Y-107770842D01*
X143231500Y-108057740D01*
X143231500Y-108350260D01*
X143288568Y-108637158D01*
X143400510Y-108907411D01*
X143563025Y-109150632D01*
X143769868Y-109357475D01*
X143944260Y-109474000D01*
X143769868Y-109590525D01*
X143563025Y-109797368D01*
X143400510Y-110040589D01*
X143288568Y-110310842D01*
X143231500Y-110597740D01*
X143231500Y-110890260D01*
X143288568Y-111177158D01*
X143400510Y-111447411D01*
X143563025Y-111690632D01*
X143769868Y-111897475D01*
X143944260Y-112014000D01*
X143769868Y-112130525D01*
X143563025Y-112337368D01*
X143400510Y-112580589D01*
X143288568Y-112850842D01*
X143231500Y-113137740D01*
X143231500Y-113430260D01*
X143288568Y-113717158D01*
X143400510Y-113987411D01*
X143563025Y-114230632D01*
X143769868Y-114437475D01*
X143944260Y-114554000D01*
X143769868Y-114670525D01*
X143563025Y-114877368D01*
X143400510Y-115120589D01*
X143288568Y-115390842D01*
X143231500Y-115677740D01*
X143231500Y-115970260D01*
X143288568Y-116257158D01*
X143400510Y-116527411D01*
X143563025Y-116770632D01*
X143769868Y-116977475D01*
X144013089Y-117139990D01*
X144283342Y-117251932D01*
X144570240Y-117309000D01*
X144862760Y-117309000D01*
X145149658Y-117251932D01*
X145419911Y-117139990D01*
X145663132Y-116977475D01*
X145869975Y-116770632D01*
X146032490Y-116527411D01*
X146144432Y-116257158D01*
X146201500Y-115970260D01*
X146201500Y-115677740D01*
X146144432Y-115390842D01*
X146032490Y-115120589D01*
X145869975Y-114877368D01*
X145663132Y-114670525D01*
X145488740Y-114554000D01*
X145663132Y-114437475D01*
X145869975Y-114230632D01*
X146032490Y-113987411D01*
X146144432Y-113717158D01*
X146201500Y-113430260D01*
X146201500Y-113137740D01*
X146144432Y-112850842D01*
X146032490Y-112580589D01*
X145869975Y-112337368D01*
X145663132Y-112130525D01*
X145488740Y-112014000D01*
X145663132Y-111897475D01*
X145869975Y-111690632D01*
X146032490Y-111447411D01*
X146144432Y-111177158D01*
X146201500Y-110890260D01*
X146201500Y-110597740D01*
X146144432Y-110310842D01*
X146032490Y-110040589D01*
X145869975Y-109797368D01*
X145663132Y-109590525D01*
X145488740Y-109474000D01*
X145663132Y-109357475D01*
X145681194Y-109339413D01*
X148840692Y-109339413D01*
X148936456Y-109603814D01*
X149226071Y-109744704D01*
X149537608Y-109826384D01*
X149859095Y-109845718D01*
X150178175Y-109801961D01*
X150482588Y-109696795D01*
X150656544Y-109603814D01*
X150674867Y-109553224D01*
X152817881Y-109553224D01*
X152949817Y-109848312D01*
X153290545Y-110019159D01*
X153658057Y-110120250D01*
X154038229Y-110147701D01*
X154416451Y-110100457D01*
X154778190Y-109980333D01*
X155025183Y-109848312D01*
X155157119Y-109553224D01*
X153987500Y-108383605D01*
X152817881Y-109553224D01*
X150674867Y-109553224D01*
X150752308Y-109339413D01*
X149796500Y-108383605D01*
X148840692Y-109339413D01*
X145681194Y-109339413D01*
X145869975Y-109150632D01*
X146032490Y-108907411D01*
X146144432Y-108637158D01*
X146201500Y-108350260D01*
X146201500Y-108266595D01*
X148154782Y-108266595D01*
X148198539Y-108585675D01*
X148303705Y-108890088D01*
X148396686Y-109064044D01*
X148661087Y-109159808D01*
X149616895Y-108204000D01*
X149976105Y-108204000D01*
X150931913Y-109159808D01*
X151196314Y-109064044D01*
X151337204Y-108774429D01*
X151418884Y-108462892D01*
X151431402Y-108254729D01*
X152043799Y-108254729D01*
X152091043Y-108632951D01*
X152211167Y-108994690D01*
X152343188Y-109241683D01*
X152638276Y-109373619D01*
X153807895Y-108204000D01*
X154167105Y-108204000D01*
X155336724Y-109373619D01*
X155631812Y-109241683D01*
X155802659Y-108900955D01*
X155903750Y-108533443D01*
X155931201Y-108153271D01*
X155883957Y-107775049D01*
X155763833Y-107413310D01*
X155666136Y-107230531D01*
X160810198Y-107230531D01*
X160826949Y-107318091D01*
X160942026Y-107591309D01*
X161108194Y-107836826D01*
X161319067Y-108045208D01*
X161566542Y-108208447D01*
X161841108Y-108320269D01*
X162132214Y-108376377D01*
X162369500Y-108220876D01*
X162369500Y-106997500D01*
X162623500Y-106997500D01*
X162623500Y-108220876D01*
X162860786Y-108376377D01*
X163151892Y-108320269D01*
X163426458Y-108208447D01*
X163673933Y-108045208D01*
X163884806Y-107836826D01*
X164050974Y-107591309D01*
X164166051Y-107318091D01*
X164182802Y-107230531D01*
X164061746Y-106997500D01*
X162623500Y-106997500D01*
X162369500Y-106997500D01*
X160931254Y-106997500D01*
X160810198Y-107230531D01*
X155666136Y-107230531D01*
X155631812Y-107166317D01*
X155336724Y-107034381D01*
X154167105Y-108204000D01*
X153807895Y-108204000D01*
X152638276Y-107034381D01*
X152343188Y-107166317D01*
X152172341Y-107507045D01*
X152071250Y-107874557D01*
X152043799Y-108254729D01*
X151431402Y-108254729D01*
X151438218Y-108141405D01*
X151394461Y-107822325D01*
X151289295Y-107517912D01*
X151196314Y-107343956D01*
X150931913Y-107248192D01*
X149976105Y-108204000D01*
X149616895Y-108204000D01*
X148661087Y-107248192D01*
X148396686Y-107343956D01*
X148255796Y-107633571D01*
X148174116Y-107945108D01*
X148154782Y-108266595D01*
X146201500Y-108266595D01*
X146201500Y-108057740D01*
X146144432Y-107770842D01*
X146032490Y-107500589D01*
X145869975Y-107257368D01*
X145681194Y-107068587D01*
X148840692Y-107068587D01*
X149796500Y-108024395D01*
X150752308Y-107068587D01*
X150674868Y-106854776D01*
X152817881Y-106854776D01*
X153987500Y-108024395D01*
X155157119Y-106854776D01*
X155025183Y-106559688D01*
X154684455Y-106388841D01*
X154316943Y-106287750D01*
X153936771Y-106260299D01*
X153558549Y-106307543D01*
X153196810Y-106427667D01*
X152949817Y-106559688D01*
X152817881Y-106854776D01*
X150674868Y-106854776D01*
X150656544Y-106804186D01*
X150366929Y-106663296D01*
X150055392Y-106581616D01*
X149733905Y-106562282D01*
X149414825Y-106606039D01*
X149110412Y-106711205D01*
X148936456Y-106804186D01*
X148840692Y-107068587D01*
X145681194Y-107068587D01*
X145663132Y-107050525D01*
X145488740Y-106934000D01*
X145663132Y-106817475D01*
X145869975Y-106610632D01*
X146032490Y-106367411D01*
X146144432Y-106097158D01*
X146201500Y-105810260D01*
X146201500Y-105517740D01*
X146144432Y-105230842D01*
X146032490Y-104960589D01*
X145869975Y-104717368D01*
X145663132Y-104510525D01*
X145488740Y-104394000D01*
X145663132Y-104277475D01*
X145869975Y-104070632D01*
X146032490Y-103827411D01*
X146144432Y-103557158D01*
X146201500Y-103270260D01*
X146201500Y-102977740D01*
X146198562Y-102962967D01*
X148161500Y-102962967D01*
X148161500Y-103285033D01*
X148224332Y-103600912D01*
X148347582Y-103898463D01*
X148526513Y-104166252D01*
X148754248Y-104393987D01*
X149022037Y-104572918D01*
X149319588Y-104696168D01*
X149635467Y-104759000D01*
X149957533Y-104759000D01*
X150273412Y-104696168D01*
X150570963Y-104572918D01*
X150838752Y-104393987D01*
X151066487Y-104166252D01*
X151245418Y-103898463D01*
X151368668Y-103600912D01*
X151431500Y-103285033D01*
X151431500Y-102962967D01*
X151425623Y-102933419D01*
X152052500Y-102933419D01*
X152052500Y-103314581D01*
X152126861Y-103688419D01*
X152272725Y-104040566D01*
X152484487Y-104357491D01*
X152754009Y-104627013D01*
X153070934Y-104838775D01*
X153423081Y-104984639D01*
X153796919Y-105059000D01*
X154178081Y-105059000D01*
X154551919Y-104984639D01*
X154904066Y-104838775D01*
X155220991Y-104627013D01*
X155490513Y-104357491D01*
X155702275Y-104040566D01*
X155838993Y-103710499D01*
X160763428Y-103710499D01*
X160763428Y-104950501D01*
X160780492Y-105123755D01*
X160831028Y-105290351D01*
X160913095Y-105443887D01*
X161023538Y-105578462D01*
X161158113Y-105688905D01*
X161267090Y-105747155D01*
X161108194Y-105904174D01*
X160942026Y-106149691D01*
X160826949Y-106422909D01*
X160810198Y-106510469D01*
X160931254Y-106743500D01*
X162369500Y-106743500D01*
X162369500Y-106723500D01*
X162623500Y-106723500D01*
X162623500Y-106743500D01*
X164061746Y-106743500D01*
X164182802Y-106510469D01*
X164166051Y-106422909D01*
X164050974Y-106149691D01*
X163884806Y-105904174D01*
X163725910Y-105747155D01*
X163834887Y-105688905D01*
X163969462Y-105578462D01*
X164079905Y-105443887D01*
X164161972Y-105290351D01*
X164212508Y-105123755D01*
X164229572Y-104950501D01*
X164229572Y-103710499D01*
X164212508Y-103537245D01*
X164161972Y-103370649D01*
X164079905Y-103217113D01*
X163969462Y-103082538D01*
X163834887Y-102972095D01*
X163681351Y-102890028D01*
X163514755Y-102839492D01*
X163341501Y-102822428D01*
X161651499Y-102822428D01*
X161478245Y-102839492D01*
X161311649Y-102890028D01*
X161158113Y-102972095D01*
X161023538Y-103082538D01*
X160913095Y-103217113D01*
X160831028Y-103370649D01*
X160780492Y-103537245D01*
X160763428Y-103710499D01*
X155838993Y-103710499D01*
X155848139Y-103688419D01*
X155922500Y-103314581D01*
X155922500Y-102933419D01*
X155848139Y-102559581D01*
X155702275Y-102207434D01*
X155490513Y-101890509D01*
X155220991Y-101620987D01*
X154904066Y-101409225D01*
X154551919Y-101263361D01*
X154178081Y-101189000D01*
X153796919Y-101189000D01*
X153423081Y-101263361D01*
X153070934Y-101409225D01*
X152754009Y-101620987D01*
X152484487Y-101890509D01*
X152272725Y-102207434D01*
X152126861Y-102559581D01*
X152052500Y-102933419D01*
X151425623Y-102933419D01*
X151368668Y-102647088D01*
X151245418Y-102349537D01*
X151066487Y-102081748D01*
X150838752Y-101854013D01*
X150570963Y-101675082D01*
X150273412Y-101551832D01*
X149957533Y-101489000D01*
X149635467Y-101489000D01*
X149319588Y-101551832D01*
X149022037Y-101675082D01*
X148754248Y-101854013D01*
X148526513Y-102081748D01*
X148347582Y-102349537D01*
X148224332Y-102647088D01*
X148161500Y-102962967D01*
X146198562Y-102962967D01*
X146144432Y-102690842D01*
X146032490Y-102420589D01*
X145869975Y-102177368D01*
X145663132Y-101970525D01*
X145488740Y-101854000D01*
X145663132Y-101737475D01*
X145869975Y-101530632D01*
X146032490Y-101287411D01*
X146144432Y-101017158D01*
X146201500Y-100730260D01*
X146201500Y-100437740D01*
X146144432Y-100150842D01*
X146110289Y-100068413D01*
X161540692Y-100068413D01*
X161636456Y-100332814D01*
X161926071Y-100473704D01*
X162237608Y-100555384D01*
X162559095Y-100574718D01*
X162878175Y-100530961D01*
X163182588Y-100425795D01*
X163356544Y-100332814D01*
X163452308Y-100068413D01*
X162496500Y-99112605D01*
X161540692Y-100068413D01*
X146110289Y-100068413D01*
X146032490Y-99880589D01*
X145869975Y-99637368D01*
X145663132Y-99430525D01*
X145488740Y-99314000D01*
X145663132Y-99197475D01*
X145865012Y-98995595D01*
X160854782Y-98995595D01*
X160898539Y-99314675D01*
X161003705Y-99619088D01*
X161096686Y-99793044D01*
X161361087Y-99888808D01*
X162316895Y-98933000D01*
X162676105Y-98933000D01*
X163631913Y-99888808D01*
X163896314Y-99793044D01*
X164037204Y-99503429D01*
X164118884Y-99191892D01*
X164138218Y-98870405D01*
X164094461Y-98551325D01*
X163989295Y-98246912D01*
X163896314Y-98072956D01*
X163631913Y-97977192D01*
X162676105Y-98933000D01*
X162316895Y-98933000D01*
X161361087Y-97977192D01*
X161096686Y-98072956D01*
X160955796Y-98362571D01*
X160874116Y-98674108D01*
X160854782Y-98995595D01*
X145865012Y-98995595D01*
X145869975Y-98990632D01*
X146032490Y-98747411D01*
X146144432Y-98477158D01*
X146201500Y-98190260D01*
X146201500Y-97897740D01*
X146181579Y-97797587D01*
X161540692Y-97797587D01*
X162496500Y-98753395D01*
X163452308Y-97797587D01*
X163356544Y-97533186D01*
X163066929Y-97392296D01*
X162755392Y-97310616D01*
X162433905Y-97291282D01*
X162114825Y-97335039D01*
X161810412Y-97440205D01*
X161636456Y-97533186D01*
X161540692Y-97797587D01*
X146181579Y-97797587D01*
X146144432Y-97610842D01*
X146032490Y-97340589D01*
X145869975Y-97097368D01*
X145663132Y-96890525D01*
X145488740Y-96774000D01*
X145663132Y-96657475D01*
X145869975Y-96450632D01*
X146032490Y-96207411D01*
X146144432Y-95937158D01*
X146201500Y-95650260D01*
X146201500Y-95357740D01*
X146144432Y-95070842D01*
X146032490Y-94800589D01*
X145869975Y-94557368D01*
X145738120Y-94425513D01*
X145810680Y-94403502D01*
X145920994Y-94344537D01*
X146017685Y-94265185D01*
X146097037Y-94168494D01*
X146156002Y-94058180D01*
X146192312Y-93938482D01*
X146204572Y-93814000D01*
X146204572Y-92802967D01*
X160861500Y-92802967D01*
X160861500Y-93125033D01*
X160924332Y-93440912D01*
X161047582Y-93738463D01*
X161226513Y-94006252D01*
X161454248Y-94233987D01*
X161722037Y-94412918D01*
X162019588Y-94536168D01*
X162335467Y-94599000D01*
X162657533Y-94599000D01*
X162973412Y-94536168D01*
X163270963Y-94412918D01*
X163538752Y-94233987D01*
X163766487Y-94006252D01*
X163945418Y-93738463D01*
X164068668Y-93440912D01*
X164131500Y-93125033D01*
X164131500Y-92802967D01*
X164068668Y-92487088D01*
X163945418Y-92189537D01*
X163766487Y-91921748D01*
X163538752Y-91694013D01*
X163270963Y-91515082D01*
X162973412Y-91391832D01*
X162657533Y-91329000D01*
X162335467Y-91329000D01*
X162019588Y-91391832D01*
X161722037Y-91515082D01*
X161454248Y-91694013D01*
X161226513Y-91921748D01*
X161047582Y-92189537D01*
X160924332Y-92487088D01*
X160861500Y-92802967D01*
X146204572Y-92802967D01*
X146204572Y-92114000D01*
X146192312Y-91989518D01*
X146156002Y-91869820D01*
X146097037Y-91759506D01*
X146017685Y-91662815D01*
X145920994Y-91583463D01*
X145810680Y-91524498D01*
X145690982Y-91488188D01*
X145566500Y-91475928D01*
X143866500Y-91475928D01*
X143742018Y-91488188D01*
X143622320Y-91524498D01*
X143512006Y-91583463D01*
X143415315Y-91662815D01*
X143335963Y-91759506D01*
X143276998Y-91869820D01*
X143240688Y-91989518D01*
X143228428Y-92114000D01*
X137540572Y-92114000D01*
X137540572Y-91815499D01*
X137523508Y-91642245D01*
X137472972Y-91475649D01*
X137390905Y-91322113D01*
X137280462Y-91187538D01*
X137145887Y-91077095D01*
X136992351Y-90995028D01*
X136825755Y-90944492D01*
X136652501Y-90927428D01*
X135952499Y-90927428D01*
X135779245Y-90944492D01*
X135612649Y-90995028D01*
X135459113Y-91077095D01*
X135324538Y-91187538D01*
X135302500Y-91214391D01*
X135280462Y-91187538D01*
X135145887Y-91077095D01*
X134992351Y-90995028D01*
X134825755Y-90944492D01*
X134652501Y-90927428D01*
X133952499Y-90927428D01*
X133779245Y-90944492D01*
X133612649Y-90995028D01*
X133459113Y-91077095D01*
X133324538Y-91187538D01*
X133214095Y-91322113D01*
X133182886Y-91380500D01*
X133090403Y-91380500D01*
X133079582Y-91374716D01*
X132931745Y-91329871D01*
X132838000Y-91320638D01*
X132838000Y-90475656D01*
X132899632Y-90434475D01*
X133106475Y-90227632D01*
X133223000Y-90053240D01*
X133339525Y-90227632D01*
X133546368Y-90434475D01*
X133789589Y-90596990D01*
X134059842Y-90708932D01*
X134346740Y-90766000D01*
X134639260Y-90766000D01*
X134926158Y-90708932D01*
X135196411Y-90596990D01*
X135439632Y-90434475D01*
X135646475Y-90227632D01*
X135763000Y-90053240D01*
X135879525Y-90227632D01*
X136086368Y-90434475D01*
X136329589Y-90596990D01*
X136599842Y-90708932D01*
X136886740Y-90766000D01*
X137179260Y-90766000D01*
X137466158Y-90708932D01*
X137736411Y-90596990D01*
X137979632Y-90434475D01*
X138186475Y-90227632D01*
X138303000Y-90053240D01*
X138419525Y-90227632D01*
X138626368Y-90434475D01*
X138869589Y-90596990D01*
X139139842Y-90708932D01*
X139426740Y-90766000D01*
X139719260Y-90766000D01*
X140006158Y-90708932D01*
X140276411Y-90596990D01*
X140519632Y-90434475D01*
X140726475Y-90227632D01*
X140843000Y-90053240D01*
X140959525Y-90227632D01*
X141166368Y-90434475D01*
X141409589Y-90596990D01*
X141679842Y-90708932D01*
X141966740Y-90766000D01*
X142259260Y-90766000D01*
X142546158Y-90708932D01*
X142816411Y-90596990D01*
X143059632Y-90434475D01*
X143266475Y-90227632D01*
X143383000Y-90053240D01*
X143499525Y-90227632D01*
X143706368Y-90434475D01*
X143949589Y-90596990D01*
X144219842Y-90708932D01*
X144506740Y-90766000D01*
X144799260Y-90766000D01*
X145086158Y-90708932D01*
X145356411Y-90596990D01*
X145599632Y-90434475D01*
X145806475Y-90227632D01*
X145968990Y-89984411D01*
X146080932Y-89714158D01*
X146138000Y-89427260D01*
X146138000Y-89134740D01*
X146080932Y-88847842D01*
X145968990Y-88577589D01*
X145806475Y-88334368D01*
X145599632Y-88127525D01*
X145356411Y-87965010D01*
X145086158Y-87853068D01*
X144799260Y-87796000D01*
X144506740Y-87796000D01*
X144219842Y-87853068D01*
X143949589Y-87965010D01*
X143706368Y-88127525D01*
X143499525Y-88334368D01*
X143383000Y-88508760D01*
X143266475Y-88334368D01*
X143059632Y-88127525D01*
X142816411Y-87965010D01*
X142546158Y-87853068D01*
X142259260Y-87796000D01*
X141966740Y-87796000D01*
X141679842Y-87853068D01*
X141409589Y-87965010D01*
X141166368Y-88127525D01*
X140959525Y-88334368D01*
X140843000Y-88508760D01*
X140726475Y-88334368D01*
X140519632Y-88127525D01*
X140276411Y-87965010D01*
X140006158Y-87853068D01*
X139719260Y-87796000D01*
X139426740Y-87796000D01*
X139139842Y-87853068D01*
X138869589Y-87965010D01*
X138626368Y-88127525D01*
X138419525Y-88334368D01*
X138303000Y-88508760D01*
X138186475Y-88334368D01*
X137979632Y-88127525D01*
X137736411Y-87965010D01*
X137466158Y-87853068D01*
X137179260Y-87796000D01*
X136886740Y-87796000D01*
X136599842Y-87853068D01*
X136329589Y-87965010D01*
X136086368Y-88127525D01*
X135879525Y-88334368D01*
X135763000Y-88508760D01*
X135646475Y-88334368D01*
X135439632Y-88127525D01*
X135196411Y-87965010D01*
X134926158Y-87853068D01*
X134639260Y-87796000D01*
X134346740Y-87796000D01*
X134059842Y-87853068D01*
X133789589Y-87965010D01*
X133546368Y-88127525D01*
X133339525Y-88334368D01*
X133223000Y-88508760D01*
X133106475Y-88334368D01*
X132899632Y-88127525D01*
X132656411Y-87965010D01*
X132386158Y-87853068D01*
X132099260Y-87796000D01*
X131806740Y-87796000D01*
X131519842Y-87853068D01*
X131249589Y-87965010D01*
X131006368Y-88127525D01*
X130799525Y-88334368D01*
X130683000Y-88508760D01*
X130566475Y-88334368D01*
X130359632Y-88127525D01*
X130116411Y-87965010D01*
X129846158Y-87853068D01*
X129559260Y-87796000D01*
X129266740Y-87796000D01*
X128979842Y-87853068D01*
X128709589Y-87965010D01*
X128466368Y-88127525D01*
X128259525Y-88334368D01*
X128143000Y-88508760D01*
X128026475Y-88334368D01*
X127819632Y-88127525D01*
X127576411Y-87965010D01*
X127306158Y-87853068D01*
X127019260Y-87796000D01*
X126726740Y-87796000D01*
X126439842Y-87853068D01*
X126169589Y-87965010D01*
X125926368Y-88127525D01*
X125719525Y-88334368D01*
X125603000Y-88508760D01*
X125486475Y-88334368D01*
X125279632Y-88127525D01*
X125036411Y-87965010D01*
X124766158Y-87853068D01*
X124479260Y-87796000D01*
X124186740Y-87796000D01*
X123899842Y-87853068D01*
X123629589Y-87965010D01*
X123386368Y-88127525D01*
X123254513Y-88259380D01*
X123232502Y-88186820D01*
X123173537Y-88076506D01*
X123094185Y-87979815D01*
X122997494Y-87900463D01*
X122887180Y-87841498D01*
X122767482Y-87805188D01*
X122643000Y-87792928D01*
X120943000Y-87792928D01*
X120818518Y-87805188D01*
X120698820Y-87841498D01*
X120588506Y-87900463D01*
X120491815Y-87979815D01*
X120412463Y-88076506D01*
X120353498Y-88186820D01*
X120317188Y-88306518D01*
X120304928Y-88431000D01*
X115062000Y-88431000D01*
X115062000Y-82329872D01*
X116510000Y-82329872D01*
X116510000Y-82770128D01*
X116595890Y-83201925D01*
X116764369Y-83608669D01*
X117008962Y-83974729D01*
X117320271Y-84286038D01*
X117686331Y-84530631D01*
X118093075Y-84699110D01*
X118524872Y-84785000D01*
X118965128Y-84785000D01*
X119396925Y-84699110D01*
X119803669Y-84530631D01*
X120169729Y-84286038D01*
X120481038Y-83974729D01*
X120725631Y-83608669D01*
X120894110Y-83201925D01*
X120980000Y-82770128D01*
X120980000Y-82329872D01*
X163500000Y-82329872D01*
X163500000Y-82770128D01*
X163585890Y-83201925D01*
X163754369Y-83608669D01*
X163998962Y-83974729D01*
X164310271Y-84286038D01*
X164676331Y-84530631D01*
X165083075Y-84699110D01*
X165514872Y-84785000D01*
X165955128Y-84785000D01*
X166386925Y-84699110D01*
X166793669Y-84530631D01*
X167159729Y-84286038D01*
X167471038Y-83974729D01*
X167715631Y-83608669D01*
X167884110Y-83201925D01*
X167970000Y-82770128D01*
X167970000Y-82329872D01*
X167884110Y-81898075D01*
X167715631Y-81491331D01*
X167471038Y-81125271D01*
X167159729Y-80813962D01*
X166793669Y-80569369D01*
X166386925Y-80400890D01*
X165955128Y-80315000D01*
X165514872Y-80315000D01*
X165083075Y-80400890D01*
X164676331Y-80569369D01*
X164310271Y-80813962D01*
X163998962Y-81125271D01*
X163754369Y-81491331D01*
X163585890Y-81898075D01*
X163500000Y-82329872D01*
X120980000Y-82329872D01*
X120894110Y-81898075D01*
X120725631Y-81491331D01*
X120481038Y-81125271D01*
X120169729Y-80813962D01*
X119803669Y-80569369D01*
X119396925Y-80400890D01*
X118965128Y-80315000D01*
X118524872Y-80315000D01*
X118093075Y-80400890D01*
X117686331Y-80569369D01*
X117320271Y-80813962D01*
X117008962Y-81125271D01*
X116764369Y-81491331D01*
X116595890Y-81898075D01*
X116510000Y-82329872D01*
X115062000Y-82329872D01*
X115062000Y-78867000D01*
X169418000Y-78867000D01*
X169418000Y-122428000D01*
G37*
G04 #@! TD.AperFunction*
M02*
