G04 #@! TF.GenerationSoftware,KiCad,Pcbnew,(5.1.8-0-10_14)*
G04 #@! TF.CreationDate,2020-11-13T17:03:07+01:00*
G04 #@! TF.ProjectId,lv-lownoise-psu,6c762d6c-6f77-46e6-9f69-73652d707375,rev?*
G04 #@! TF.SameCoordinates,Original*
G04 #@! TF.FileFunction,Copper,L2,Bot*
G04 #@! TF.FilePolarity,Positive*
%FSLAX46Y46*%
G04 Gerber Fmt 4.6, Leading zero omitted, Abs format (unit mm)*
G04 Created by KiCad (PCBNEW (5.1.8-0-10_14)) date 2020-11-13 17:03:07*
%MOMM*%
%LPD*%
G01*
G04 APERTURE LIST*
G04 #@! TA.AperFunction,ComponentPad*
%ADD10C,1.600000*%
G04 #@! TD*
G04 #@! TA.AperFunction,ComponentPad*
%ADD11R,1.600000X1.600000*%
G04 #@! TD*
G04 #@! TA.AperFunction,ComponentPad*
%ADD12C,2.400000*%
G04 #@! TD*
G04 #@! TA.AperFunction,ComponentPad*
%ADD13R,2.400000X2.400000*%
G04 #@! TD*
G04 #@! TA.AperFunction,ComponentPad*
%ADD14O,1.600000X1.600000*%
G04 #@! TD*
G04 #@! TA.AperFunction,ComponentPad*
%ADD15C,2.600000*%
G04 #@! TD*
G04 #@! TA.AperFunction,ComponentPad*
%ADD16O,1.800000X1.800000*%
G04 #@! TD*
G04 #@! TA.AperFunction,ComponentPad*
%ADD17R,1.800000X1.800000*%
G04 #@! TD*
G04 #@! TA.AperFunction,ComponentPad*
%ADD18C,1.440000*%
G04 #@! TD*
G04 #@! TA.AperFunction,ViaPad*
%ADD19C,0.800000*%
G04 #@! TD*
G04 #@! TA.AperFunction,ViaPad*
%ADD20C,0.600000*%
G04 #@! TD*
G04 #@! TA.AperFunction,Conductor*
%ADD21C,0.500000*%
G04 #@! TD*
G04 #@! TA.AperFunction,Conductor*
%ADD22C,0.250000*%
G04 #@! TD*
G04 APERTURE END LIST*
D10*
X116205000Y-87884000D03*
D11*
X116205000Y-84384000D03*
D10*
X114173000Y-40457000D03*
D11*
X114173000Y-36957000D03*
D12*
X107950000Y-76835000D03*
D13*
X107950000Y-69335000D03*
D12*
X107950000Y-55760000D03*
D13*
X107950000Y-48260000D03*
D11*
X97028000Y-64643000D03*
D14*
X89408000Y-59563000D03*
X97028000Y-59563000D03*
X89408000Y-64643000D03*
D15*
X129540000Y-87884000D03*
X137160000Y-87884000D03*
X93091000Y-36957000D03*
X100584000Y-36957000D03*
X137160000Y-36957000D03*
X129540000Y-36957000D03*
D16*
X120459500Y-75120500D03*
X122999500Y-75120500D03*
D17*
X125539500Y-75120500D03*
D16*
X120523000Y-49974500D03*
X123063000Y-49974500D03*
D17*
X125603000Y-49974500D03*
D18*
X134670800Y-80137000D03*
X134670800Y-77597000D03*
X134670800Y-75057000D03*
X134620000Y-61976000D03*
X134620000Y-59436000D03*
X134620000Y-56896000D03*
D15*
X141859000Y-71501000D03*
X141859000Y-62357000D03*
X141859000Y-53340000D03*
X86360000Y-54610000D03*
X86360000Y-62230000D03*
X86360000Y-69850000D03*
G04 #@! TA.AperFunction,SMDPad,CuDef*
G36*
G01*
X130015000Y-72117800D02*
X129065000Y-72117800D01*
G75*
G02*
X128815000Y-71867800I0J250000D01*
G01*
X128815000Y-71192800D01*
G75*
G02*
X129065000Y-70942800I250000J0D01*
G01*
X130015000Y-70942800D01*
G75*
G02*
X130265000Y-71192800I0J-250000D01*
G01*
X130265000Y-71867800D01*
G75*
G02*
X130015000Y-72117800I-250000J0D01*
G01*
G37*
G04 #@! TD.AperFunction*
G04 #@! TA.AperFunction,SMDPad,CuDef*
G36*
G01*
X130015000Y-74192800D02*
X129065000Y-74192800D01*
G75*
G02*
X128815000Y-73942800I0J250000D01*
G01*
X128815000Y-73267800D01*
G75*
G02*
X129065000Y-73017800I250000J0D01*
G01*
X130015000Y-73017800D01*
G75*
G02*
X130265000Y-73267800I0J-250000D01*
G01*
X130265000Y-73942800D01*
G75*
G02*
X130015000Y-74192800I-250000J0D01*
G01*
G37*
G04 #@! TD.AperFunction*
G04 #@! TA.AperFunction,SMDPad,CuDef*
G36*
G01*
X128912600Y-54755200D02*
X129862600Y-54755200D01*
G75*
G02*
X130112600Y-55005200I0J-250000D01*
G01*
X130112600Y-55680200D01*
G75*
G02*
X129862600Y-55930200I-250000J0D01*
G01*
X128912600Y-55930200D01*
G75*
G02*
X128662600Y-55680200I0J250000D01*
G01*
X128662600Y-55005200D01*
G75*
G02*
X128912600Y-54755200I250000J0D01*
G01*
G37*
G04 #@! TD.AperFunction*
G04 #@! TA.AperFunction,SMDPad,CuDef*
G36*
G01*
X128912600Y-52680200D02*
X129862600Y-52680200D01*
G75*
G02*
X130112600Y-52930200I0J-250000D01*
G01*
X130112600Y-53605200D01*
G75*
G02*
X129862600Y-53855200I-250000J0D01*
G01*
X128912600Y-53855200D01*
G75*
G02*
X128662600Y-53605200I0J250000D01*
G01*
X128662600Y-52930200D01*
G75*
G02*
X128912600Y-52680200I250000J0D01*
G01*
G37*
G04 #@! TD.AperFunction*
D19*
X132296001Y-53302001D03*
X135509000Y-53340000D03*
D20*
X130791001Y-53302001D03*
D19*
X135382000Y-71501000D03*
X132334000Y-71628000D03*
D20*
X130890000Y-71628000D03*
D19*
X132130800Y-56896000D03*
X132130800Y-75209400D03*
D20*
X128171001Y-55202001D03*
X128270000Y-73528000D03*
D19*
X107696000Y-36957000D03*
X123317000Y-40259000D03*
X120269000Y-83058000D03*
D21*
X121348500Y-48260000D02*
X107950000Y-48260000D01*
X123063000Y-49974500D02*
X121348500Y-48260000D01*
X107950000Y-52421000D02*
X107950000Y-48260000D01*
X97028000Y-63343000D02*
X107950000Y-52421000D01*
X97028000Y-64643000D02*
X97028000Y-63343000D01*
D22*
X130756700Y-53267700D02*
X130791001Y-53302001D01*
X129387600Y-53267700D02*
X130756700Y-53267700D01*
D21*
X135509000Y-53340000D02*
X141859000Y-53340000D01*
X132296001Y-54572001D02*
X134620000Y-56896000D01*
X132296001Y-53302001D02*
X132296001Y-54572001D01*
X135382000Y-71501000D02*
X141859000Y-71501000D01*
X132334000Y-72720200D02*
X134670800Y-75057000D01*
X132334000Y-71628000D02*
X132334000Y-72720200D01*
D22*
X130792300Y-71530300D02*
X130890000Y-71628000D01*
X129540000Y-71530300D02*
X130792300Y-71530300D01*
D21*
X132130800Y-56946800D02*
X134620000Y-59436000D01*
X132130800Y-56896000D02*
X132130800Y-56946800D01*
X134620000Y-59436000D02*
X134620000Y-61976000D01*
X134670800Y-77597000D02*
X134670800Y-80137000D01*
X132283200Y-75209400D02*
X134670800Y-77597000D01*
X132130800Y-75209400D02*
X132283200Y-75209400D01*
D22*
X128311700Y-55342700D02*
X128171001Y-55202001D01*
X129387600Y-55342700D02*
X128311700Y-55342700D01*
X128347300Y-73605300D02*
X128270000Y-73528000D01*
X129540000Y-73605300D02*
X128347300Y-73605300D01*
D21*
X117475000Y-40259000D02*
X114173000Y-36957000D01*
X123317000Y-40259000D02*
X117475000Y-40259000D01*
X114173000Y-36957000D02*
X129540000Y-36957000D01*
X114173000Y-36957000D02*
X107696000Y-36957000D01*
X120269000Y-83820000D02*
X116205000Y-87884000D01*
X120269000Y-83058000D02*
X120269000Y-83820000D01*
X116205000Y-87884000D02*
X129540000Y-87884000D01*
X122999500Y-75120500D02*
X121285000Y-76835000D01*
X121285000Y-76835000D02*
X111125000Y-76835000D01*
X106809998Y-76835000D02*
X107950000Y-76835000D01*
X95777999Y-65803001D02*
X106809998Y-76835000D01*
X95777999Y-60813001D02*
X95777999Y-65803001D01*
X97028000Y-59563000D02*
X95777999Y-60813001D01*
X111125000Y-76835000D02*
X107950000Y-76835000D01*
X89408000Y-57658000D02*
X86360000Y-54610000D01*
X89408000Y-59563000D02*
X89408000Y-57658000D01*
X89408000Y-66802000D02*
X86360000Y-69850000D01*
X89408000Y-64643000D02*
X89408000Y-66802000D01*
M02*
