G04 #@! TF.GenerationSoftware,KiCad,Pcbnew,(5.1.8-0-10_14)*
G04 #@! TF.CreationDate,2020-11-13T17:03:07+01:00*
G04 #@! TF.ProjectId,lv-lownoise-psu,6c762d6c-6f77-46e6-9f69-73652d707375,rev?*
G04 #@! TF.SameCoordinates,Original*
G04 #@! TF.FileFunction,Copper,L1,Top*
G04 #@! TF.FilePolarity,Positive*
%FSLAX46Y46*%
G04 Gerber Fmt 4.6, Leading zero omitted, Abs format (unit mm)*
G04 Created by KiCad (PCBNEW (5.1.8-0-10_14)) date 2020-11-13 17:03:07*
%MOMM*%
%LPD*%
G01*
G04 APERTURE LIST*
G04 #@! TA.AperFunction,ComponentPad*
%ADD10C,1.600000*%
G04 #@! TD*
G04 #@! TA.AperFunction,ComponentPad*
%ADD11R,1.600000X1.600000*%
G04 #@! TD*
G04 #@! TA.AperFunction,ComponentPad*
%ADD12C,2.400000*%
G04 #@! TD*
G04 #@! TA.AperFunction,ComponentPad*
%ADD13R,2.400000X2.400000*%
G04 #@! TD*
G04 #@! TA.AperFunction,ComponentPad*
%ADD14O,1.600000X1.600000*%
G04 #@! TD*
G04 #@! TA.AperFunction,SMDPad,CuDef*
%ADD15R,0.900000X1.300000*%
G04 #@! TD*
G04 #@! TA.AperFunction,SMDPad,CuDef*
%ADD16C,0.100000*%
G04 #@! TD*
G04 #@! TA.AperFunction,SMDPad,CuDef*
%ADD17R,1.300000X0.900000*%
G04 #@! TD*
G04 #@! TA.AperFunction,ComponentPad*
%ADD18C,2.600000*%
G04 #@! TD*
G04 #@! TA.AperFunction,ComponentPad*
%ADD19O,1.800000X1.800000*%
G04 #@! TD*
G04 #@! TA.AperFunction,ComponentPad*
%ADD20R,1.800000X1.800000*%
G04 #@! TD*
G04 #@! TA.AperFunction,SMDPad,CuDef*
%ADD21R,1.220000X0.650000*%
G04 #@! TD*
G04 #@! TA.AperFunction,ComponentPad*
%ADD22C,1.440000*%
G04 #@! TD*
G04 #@! TA.AperFunction,ViaPad*
%ADD23C,0.800000*%
G04 #@! TD*
G04 #@! TA.AperFunction,ViaPad*
%ADD24C,0.600000*%
G04 #@! TD*
G04 #@! TA.AperFunction,Conductor*
%ADD25C,0.500000*%
G04 #@! TD*
G04 #@! TA.AperFunction,Conductor*
%ADD26C,0.250000*%
G04 #@! TD*
G04 #@! TA.AperFunction,Conductor*
%ADD27C,0.254000*%
G04 #@! TD*
G04 #@! TA.AperFunction,Conductor*
%ADD28C,0.100000*%
G04 #@! TD*
G04 APERTURE END LIST*
D10*
X116205000Y-87884000D03*
D11*
X116205000Y-84384000D03*
D10*
X114173000Y-40457000D03*
D11*
X114173000Y-36957000D03*
D12*
X107950000Y-76835000D03*
D13*
X107950000Y-69335000D03*
D12*
X107950000Y-55760000D03*
D13*
X107950000Y-48260000D03*
D11*
X97028000Y-64643000D03*
D14*
X89408000Y-59563000D03*
X97028000Y-59563000D03*
X89408000Y-64643000D03*
G04 #@! TA.AperFunction,SMDPad,CuDef*
G36*
G01*
X125017000Y-78289999D02*
X125017000Y-79190001D01*
G75*
G02*
X124767001Y-79440000I-249999J0D01*
G01*
X124116999Y-79440000D01*
G75*
G02*
X123867000Y-79190001I0J249999D01*
G01*
X123867000Y-78289999D01*
G75*
G02*
X124116999Y-78040000I249999J0D01*
G01*
X124767001Y-78040000D01*
G75*
G02*
X125017000Y-78289999I0J-249999D01*
G01*
G37*
G04 #@! TD.AperFunction*
G04 #@! TA.AperFunction,SMDPad,CuDef*
G36*
G01*
X127067000Y-78289999D02*
X127067000Y-79190001D01*
G75*
G02*
X126817001Y-79440000I-249999J0D01*
G01*
X126166999Y-79440000D01*
G75*
G02*
X125917000Y-79190001I0J249999D01*
G01*
X125917000Y-78289999D01*
G75*
G02*
X126166999Y-78040000I249999J0D01*
G01*
X126817001Y-78040000D01*
G75*
G02*
X127067000Y-78289999I0J-249999D01*
G01*
G37*
G04 #@! TD.AperFunction*
G04 #@! TA.AperFunction,SMDPad,CuDef*
G36*
G01*
X122107000Y-79190001D02*
X122107000Y-78289999D01*
G75*
G02*
X122356999Y-78040000I249999J0D01*
G01*
X123007001Y-78040000D01*
G75*
G02*
X123257000Y-78289999I0J-249999D01*
G01*
X123257000Y-79190001D01*
G75*
G02*
X123007001Y-79440000I-249999J0D01*
G01*
X122356999Y-79440000D01*
G75*
G02*
X122107000Y-79190001I0J249999D01*
G01*
G37*
G04 #@! TD.AperFunction*
G04 #@! TA.AperFunction,SMDPad,CuDef*
G36*
G01*
X120057000Y-79190001D02*
X120057000Y-78289999D01*
G75*
G02*
X120306999Y-78040000I249999J0D01*
G01*
X120957001Y-78040000D01*
G75*
G02*
X121207000Y-78289999I0J-249999D01*
G01*
X121207000Y-79190001D01*
G75*
G02*
X120957001Y-79440000I-249999J0D01*
G01*
X120306999Y-79440000D01*
G75*
G02*
X120057000Y-79190001I0J249999D01*
G01*
G37*
G04 #@! TD.AperFunction*
G04 #@! TA.AperFunction,SMDPad,CuDef*
G36*
G01*
X119797500Y-44483000D02*
X119797500Y-45433000D01*
G75*
G02*
X119547500Y-45683000I-250000J0D01*
G01*
X118872500Y-45683000D01*
G75*
G02*
X118622500Y-45433000I0J250000D01*
G01*
X118622500Y-44483000D01*
G75*
G02*
X118872500Y-44233000I250000J0D01*
G01*
X119547500Y-44233000D01*
G75*
G02*
X119797500Y-44483000I0J-250000D01*
G01*
G37*
G04 #@! TD.AperFunction*
G04 #@! TA.AperFunction,SMDPad,CuDef*
G36*
G01*
X121872500Y-44483000D02*
X121872500Y-45433000D01*
G75*
G02*
X121622500Y-45683000I-250000J0D01*
G01*
X120947500Y-45683000D01*
G75*
G02*
X120697500Y-45433000I0J250000D01*
G01*
X120697500Y-44483000D01*
G75*
G02*
X120947500Y-44233000I250000J0D01*
G01*
X121622500Y-44233000D01*
G75*
G02*
X121872500Y-44483000I0J-250000D01*
G01*
G37*
G04 #@! TD.AperFunction*
G04 #@! TA.AperFunction,SMDPad,CuDef*
G36*
G01*
X125681000Y-47567001D02*
X125681000Y-46666999D01*
G75*
G02*
X125930999Y-46417000I249999J0D01*
G01*
X126581001Y-46417000D01*
G75*
G02*
X126831000Y-46666999I0J-249999D01*
G01*
X126831000Y-47567001D01*
G75*
G02*
X126581001Y-47817000I-249999J0D01*
G01*
X125930999Y-47817000D01*
G75*
G02*
X125681000Y-47567001I0J249999D01*
G01*
G37*
G04 #@! TD.AperFunction*
G04 #@! TA.AperFunction,SMDPad,CuDef*
G36*
G01*
X123631000Y-47567001D02*
X123631000Y-46666999D01*
G75*
G02*
X123880999Y-46417000I249999J0D01*
G01*
X124531001Y-46417000D01*
G75*
G02*
X124781000Y-46666999I0J-249999D01*
G01*
X124781000Y-47567001D01*
G75*
G02*
X124531001Y-47817000I-249999J0D01*
G01*
X123880999Y-47817000D01*
G75*
G02*
X123631000Y-47567001I0J249999D01*
G01*
G37*
G04 #@! TD.AperFunction*
G04 #@! TA.AperFunction,SMDPad,CuDef*
G36*
G01*
X120953000Y-46666999D02*
X120953000Y-47567001D01*
G75*
G02*
X120703001Y-47817000I-249999J0D01*
G01*
X120052999Y-47817000D01*
G75*
G02*
X119803000Y-47567001I0J249999D01*
G01*
X119803000Y-46666999D01*
G75*
G02*
X120052999Y-46417000I249999J0D01*
G01*
X120703001Y-46417000D01*
G75*
G02*
X120953000Y-46666999I0J-249999D01*
G01*
G37*
G04 #@! TD.AperFunction*
G04 #@! TA.AperFunction,SMDPad,CuDef*
G36*
G01*
X123003000Y-46666999D02*
X123003000Y-47567001D01*
G75*
G02*
X122753001Y-47817000I-249999J0D01*
G01*
X122102999Y-47817000D01*
G75*
G02*
X121853000Y-47567001I0J249999D01*
G01*
X121853000Y-46666999D01*
G75*
G02*
X122102999Y-46417000I249999J0D01*
G01*
X122753001Y-46417000D01*
G75*
G02*
X123003000Y-46666999I0J-249999D01*
G01*
G37*
G04 #@! TD.AperFunction*
D15*
X125071000Y-83059000D03*
X122071000Y-83059000D03*
G04 #@! TA.AperFunction,SMDPad,CuDef*
D16*
G36*
X122704500Y-87009000D02*
G01*
X122704500Y-83884000D01*
X123121000Y-83884000D01*
X123121000Y-82409000D01*
X124021000Y-82409000D01*
X124021000Y-83884000D01*
X124437500Y-83884000D01*
X124437500Y-87009000D01*
X122704500Y-87009000D01*
G37*
G04 #@! TD.AperFunction*
G04 #@! TA.AperFunction,SMDPad,CuDef*
G36*
X127267000Y-44324500D02*
G01*
X124142000Y-44324500D01*
X124142000Y-43908000D01*
X122667000Y-43908000D01*
X122667000Y-43008000D01*
X124142000Y-43008000D01*
X124142000Y-42591500D01*
X127267000Y-42591500D01*
X127267000Y-44324500D01*
G37*
G04 #@! TD.AperFunction*
D17*
X123317000Y-44958000D03*
X123317000Y-41958000D03*
G04 #@! TA.AperFunction,SMDPad,CuDef*
G36*
G01*
X105683000Y-37407001D02*
X105683000Y-36506999D01*
G75*
G02*
X105932999Y-36257000I249999J0D01*
G01*
X106633001Y-36257000D01*
G75*
G02*
X106883000Y-36506999I0J-249999D01*
G01*
X106883000Y-37407001D01*
G75*
G02*
X106633001Y-37657000I-249999J0D01*
G01*
X105932999Y-37657000D01*
G75*
G02*
X105683000Y-37407001I0J249999D01*
G01*
G37*
G04 #@! TD.AperFunction*
G04 #@! TA.AperFunction,SMDPad,CuDef*
G36*
G01*
X103683000Y-37407001D02*
X103683000Y-36506999D01*
G75*
G02*
X103932999Y-36257000I249999J0D01*
G01*
X104633001Y-36257000D01*
G75*
G02*
X104883000Y-36506999I0J-249999D01*
G01*
X104883000Y-37407001D01*
G75*
G02*
X104633001Y-37657000I-249999J0D01*
G01*
X103932999Y-37657000D01*
G75*
G02*
X103683000Y-37407001I0J249999D01*
G01*
G37*
G04 #@! TD.AperFunction*
D18*
X129540000Y-87884000D03*
X137160000Y-87884000D03*
X93091000Y-36957000D03*
X100584000Y-36957000D03*
G04 #@! TA.AperFunction,SMDPad,CuDef*
G36*
G01*
X120951500Y-81374000D02*
X120951500Y-80424000D01*
G75*
G02*
X121201500Y-80174000I250000J0D01*
G01*
X121876500Y-80174000D01*
G75*
G02*
X122126500Y-80424000I0J-250000D01*
G01*
X122126500Y-81374000D01*
G75*
G02*
X121876500Y-81624000I-250000J0D01*
G01*
X121201500Y-81624000D01*
G75*
G02*
X120951500Y-81374000I0J250000D01*
G01*
G37*
G04 #@! TD.AperFunction*
G04 #@! TA.AperFunction,SMDPad,CuDef*
G36*
G01*
X118876500Y-81374000D02*
X118876500Y-80424000D01*
G75*
G02*
X119126500Y-80174000I250000J0D01*
G01*
X119801500Y-80174000D01*
G75*
G02*
X120051500Y-80424000I0J-250000D01*
G01*
X120051500Y-81374000D01*
G75*
G02*
X119801500Y-81624000I-250000J0D01*
G01*
X119126500Y-81624000D01*
G75*
G02*
X118876500Y-81374000I0J250000D01*
G01*
G37*
G04 #@! TD.AperFunction*
G04 #@! TA.AperFunction,SMDPad,CuDef*
G36*
G01*
X124158500Y-80424000D02*
X124158500Y-81374000D01*
G75*
G02*
X123908500Y-81624000I-250000J0D01*
G01*
X123233500Y-81624000D01*
G75*
G02*
X122983500Y-81374000I0J250000D01*
G01*
X122983500Y-80424000D01*
G75*
G02*
X123233500Y-80174000I250000J0D01*
G01*
X123908500Y-80174000D01*
G75*
G02*
X124158500Y-80424000I0J-250000D01*
G01*
G37*
G04 #@! TD.AperFunction*
G04 #@! TA.AperFunction,SMDPad,CuDef*
G36*
G01*
X126233500Y-80424000D02*
X126233500Y-81374000D01*
G75*
G02*
X125983500Y-81624000I-250000J0D01*
G01*
X125308500Y-81624000D01*
G75*
G02*
X125058500Y-81374000I0J250000D01*
G01*
X125058500Y-80424000D01*
G75*
G02*
X125308500Y-80174000I250000J0D01*
G01*
X125983500Y-80174000D01*
G75*
G02*
X126233500Y-80424000I0J-250000D01*
G01*
G37*
G04 #@! TD.AperFunction*
X137160000Y-36957000D03*
X129540000Y-36957000D03*
G04 #@! TA.AperFunction,SMDPad,CuDef*
G36*
G01*
X119797500Y-41562000D02*
X119797500Y-42512000D01*
G75*
G02*
X119547500Y-42762000I-250000J0D01*
G01*
X118872500Y-42762000D01*
G75*
G02*
X118622500Y-42512000I0J250000D01*
G01*
X118622500Y-41562000D01*
G75*
G02*
X118872500Y-41312000I250000J0D01*
G01*
X119547500Y-41312000D01*
G75*
G02*
X119797500Y-41562000I0J-250000D01*
G01*
G37*
G04 #@! TD.AperFunction*
G04 #@! TA.AperFunction,SMDPad,CuDef*
G36*
G01*
X121872500Y-41562000D02*
X121872500Y-42512000D01*
G75*
G02*
X121622500Y-42762000I-250000J0D01*
G01*
X120947500Y-42762000D01*
G75*
G02*
X120697500Y-42512000I0J250000D01*
G01*
X120697500Y-41562000D01*
G75*
G02*
X120947500Y-41312000I250000J0D01*
G01*
X121622500Y-41312000D01*
G75*
G02*
X121872500Y-41562000I0J-250000D01*
G01*
G37*
G04 #@! TD.AperFunction*
G04 #@! TA.AperFunction,SMDPad,CuDef*
G36*
G01*
X123057499Y-71901000D02*
X123957501Y-71901000D01*
G75*
G02*
X124207500Y-72150999I0J-249999D01*
G01*
X124207500Y-72851001D01*
G75*
G02*
X123957501Y-73101000I-249999J0D01*
G01*
X123057499Y-73101000D01*
G75*
G02*
X122807500Y-72851001I0J249999D01*
G01*
X122807500Y-72150999D01*
G75*
G02*
X123057499Y-71901000I249999J0D01*
G01*
G37*
G04 #@! TD.AperFunction*
G04 #@! TA.AperFunction,SMDPad,CuDef*
G36*
G01*
X123057499Y-69901000D02*
X123957501Y-69901000D01*
G75*
G02*
X124207500Y-70150999I0J-249999D01*
G01*
X124207500Y-70851001D01*
G75*
G02*
X123957501Y-71101000I-249999J0D01*
G01*
X123057499Y-71101000D01*
G75*
G02*
X122807500Y-70851001I0J249999D01*
G01*
X122807500Y-70150999D01*
G75*
G02*
X123057499Y-69901000I249999J0D01*
G01*
G37*
G04 #@! TD.AperFunction*
G04 #@! TA.AperFunction,SMDPad,CuDef*
G36*
G01*
X120939000Y-71062001D02*
X120939000Y-70161999D01*
G75*
G02*
X121188999Y-69912000I249999J0D01*
G01*
X121889001Y-69912000D01*
G75*
G02*
X122139000Y-70161999I0J-249999D01*
G01*
X122139000Y-71062001D01*
G75*
G02*
X121889001Y-71312000I-249999J0D01*
G01*
X121188999Y-71312000D01*
G75*
G02*
X120939000Y-71062001I0J249999D01*
G01*
G37*
G04 #@! TD.AperFunction*
G04 #@! TA.AperFunction,SMDPad,CuDef*
G36*
G01*
X118939000Y-71062001D02*
X118939000Y-70161999D01*
G75*
G02*
X119188999Y-69912000I249999J0D01*
G01*
X119889001Y-69912000D01*
G75*
G02*
X120139000Y-70161999I0J-249999D01*
G01*
X120139000Y-71062001D01*
G75*
G02*
X119889001Y-71312000I-249999J0D01*
G01*
X119188999Y-71312000D01*
G75*
G02*
X118939000Y-71062001I0J249999D01*
G01*
G37*
G04 #@! TD.AperFunction*
G04 #@! TA.AperFunction,SMDPad,CuDef*
G36*
G01*
X120059500Y-54731499D02*
X120059500Y-55631501D01*
G75*
G02*
X119809501Y-55881500I-249999J0D01*
G01*
X119109499Y-55881500D01*
G75*
G02*
X118859500Y-55631501I0J249999D01*
G01*
X118859500Y-54731499D01*
G75*
G02*
X119109499Y-54481500I249999J0D01*
G01*
X119809501Y-54481500D01*
G75*
G02*
X120059500Y-54731499I0J-249999D01*
G01*
G37*
G04 #@! TD.AperFunction*
G04 #@! TA.AperFunction,SMDPad,CuDef*
G36*
G01*
X122059500Y-54731499D02*
X122059500Y-55631501D01*
G75*
G02*
X121809501Y-55881500I-249999J0D01*
G01*
X121109499Y-55881500D01*
G75*
G02*
X120859500Y-55631501I0J249999D01*
G01*
X120859500Y-54731499D01*
G75*
G02*
X121109499Y-54481500I249999J0D01*
G01*
X121809501Y-54481500D01*
G75*
G02*
X122059500Y-54731499I0J-249999D01*
G01*
G37*
G04 #@! TD.AperFunction*
G04 #@! TA.AperFunction,SMDPad,CuDef*
G36*
G01*
X122993999Y-54692500D02*
X123894001Y-54692500D01*
G75*
G02*
X124144000Y-54942499I0J-249999D01*
G01*
X124144000Y-55642501D01*
G75*
G02*
X123894001Y-55892500I-249999J0D01*
G01*
X122993999Y-55892500D01*
G75*
G02*
X122744000Y-55642501I0J249999D01*
G01*
X122744000Y-54942499D01*
G75*
G02*
X122993999Y-54692500I249999J0D01*
G01*
G37*
G04 #@! TD.AperFunction*
G04 #@! TA.AperFunction,SMDPad,CuDef*
G36*
G01*
X122993999Y-52692500D02*
X123894001Y-52692500D01*
G75*
G02*
X124144000Y-52942499I0J-249999D01*
G01*
X124144000Y-53642501D01*
G75*
G02*
X123894001Y-53892500I-249999J0D01*
G01*
X122993999Y-53892500D01*
G75*
G02*
X122744000Y-53642501I0J249999D01*
G01*
X122744000Y-52942499D01*
G75*
G02*
X122993999Y-52692500I249999J0D01*
G01*
G37*
G04 #@! TD.AperFunction*
D19*
X120459500Y-75120500D03*
X122999500Y-75120500D03*
D20*
X125539500Y-75120500D03*
D19*
X120523000Y-49974500D03*
X123063000Y-49974500D03*
D20*
X125603000Y-49974500D03*
D21*
X130890000Y-71628000D03*
X130890000Y-73528000D03*
X128270000Y-73528000D03*
X128270000Y-72578000D03*
X128270000Y-71628000D03*
X130791001Y-53302001D03*
X130791001Y-55202001D03*
X128171001Y-55202001D03*
X128171001Y-54252001D03*
X128171001Y-53302001D03*
D22*
X134670800Y-80137000D03*
X134670800Y-77597000D03*
X134670800Y-75057000D03*
X134620000Y-61976000D03*
X134620000Y-59436000D03*
X134620000Y-56896000D03*
G04 #@! TA.AperFunction,SMDPad,CuDef*
G36*
G01*
X131310801Y-75809400D02*
X130410799Y-75809400D01*
G75*
G02*
X130160800Y-75559401I0J249999D01*
G01*
X130160800Y-74859399D01*
G75*
G02*
X130410799Y-74609400I249999J0D01*
G01*
X131310801Y-74609400D01*
G75*
G02*
X131560800Y-74859399I0J-249999D01*
G01*
X131560800Y-75559401D01*
G75*
G02*
X131310801Y-75809400I-249999J0D01*
G01*
G37*
G04 #@! TD.AperFunction*
G04 #@! TA.AperFunction,SMDPad,CuDef*
G36*
G01*
X131310801Y-77809400D02*
X130410799Y-77809400D01*
G75*
G02*
X130160800Y-77559401I0J249999D01*
G01*
X130160800Y-76859399D01*
G75*
G02*
X130410799Y-76609400I249999J0D01*
G01*
X131310801Y-76609400D01*
G75*
G02*
X131560800Y-76859399I0J-249999D01*
G01*
X131560800Y-77559401D01*
G75*
G02*
X131310801Y-77809400I-249999J0D01*
G01*
G37*
G04 #@! TD.AperFunction*
G04 #@! TA.AperFunction,SMDPad,CuDef*
G36*
G01*
X130359999Y-58296000D02*
X131260001Y-58296000D01*
G75*
G02*
X131510000Y-58545999I0J-249999D01*
G01*
X131510000Y-59246001D01*
G75*
G02*
X131260001Y-59496000I-249999J0D01*
G01*
X130359999Y-59496000D01*
G75*
G02*
X130110000Y-59246001I0J249999D01*
G01*
X130110000Y-58545999D01*
G75*
G02*
X130359999Y-58296000I249999J0D01*
G01*
G37*
G04 #@! TD.AperFunction*
G04 #@! TA.AperFunction,SMDPad,CuDef*
G36*
G01*
X130359999Y-56296000D02*
X131260001Y-56296000D01*
G75*
G02*
X131510000Y-56545999I0J-249999D01*
G01*
X131510000Y-57246001D01*
G75*
G02*
X131260001Y-57496000I-249999J0D01*
G01*
X130359999Y-57496000D01*
G75*
G02*
X130110000Y-57246001I0J249999D01*
G01*
X130110000Y-56545999D01*
G75*
G02*
X130359999Y-56296000I249999J0D01*
G01*
G37*
G04 #@! TD.AperFunction*
D18*
X141859000Y-71501000D03*
X141859000Y-62357000D03*
X141859000Y-53340000D03*
X86360000Y-54610000D03*
X86360000Y-62230000D03*
X86360000Y-69850000D03*
G04 #@! TA.AperFunction,SMDPad,CuDef*
G36*
G01*
X133383000Y-70935000D02*
X134333000Y-70935000D01*
G75*
G02*
X134583000Y-71185000I0J-250000D01*
G01*
X134583000Y-71860000D01*
G75*
G02*
X134333000Y-72110000I-250000J0D01*
G01*
X133383000Y-72110000D01*
G75*
G02*
X133133000Y-71860000I0J250000D01*
G01*
X133133000Y-71185000D01*
G75*
G02*
X133383000Y-70935000I250000J0D01*
G01*
G37*
G04 #@! TD.AperFunction*
G04 #@! TA.AperFunction,SMDPad,CuDef*
G36*
G01*
X133383000Y-68860000D02*
X134333000Y-68860000D01*
G75*
G02*
X134583000Y-69110000I0J-250000D01*
G01*
X134583000Y-69785000D01*
G75*
G02*
X134333000Y-70035000I-250000J0D01*
G01*
X133383000Y-70035000D01*
G75*
G02*
X133133000Y-69785000I0J250000D01*
G01*
X133133000Y-69110000D01*
G75*
G02*
X133383000Y-68860000I250000J0D01*
G01*
G37*
G04 #@! TD.AperFunction*
G04 #@! TA.AperFunction,SMDPad,CuDef*
G36*
G01*
X134333000Y-51852500D02*
X133383000Y-51852500D01*
G75*
G02*
X133133000Y-51602500I0J250000D01*
G01*
X133133000Y-50927500D01*
G75*
G02*
X133383000Y-50677500I250000J0D01*
G01*
X134333000Y-50677500D01*
G75*
G02*
X134583000Y-50927500I0J-250000D01*
G01*
X134583000Y-51602500D01*
G75*
G02*
X134333000Y-51852500I-250000J0D01*
G01*
G37*
G04 #@! TD.AperFunction*
G04 #@! TA.AperFunction,SMDPad,CuDef*
G36*
G01*
X134333000Y-53927500D02*
X133383000Y-53927500D01*
G75*
G02*
X133133000Y-53677500I0J250000D01*
G01*
X133133000Y-53002500D01*
G75*
G02*
X133383000Y-52752500I250000J0D01*
G01*
X134333000Y-52752500D01*
G75*
G02*
X134583000Y-53002500I0J-250000D01*
G01*
X134583000Y-53677500D01*
G75*
G02*
X134333000Y-53927500I-250000J0D01*
G01*
G37*
G04 #@! TD.AperFunction*
G04 #@! TA.AperFunction,SMDPad,CuDef*
G36*
G01*
X129885000Y-68973000D02*
X131735000Y-68973000D01*
G75*
G02*
X131985000Y-69223000I0J-250000D01*
G01*
X131985000Y-70223000D01*
G75*
G02*
X131735000Y-70473000I-250000J0D01*
G01*
X129885000Y-70473000D01*
G75*
G02*
X129635000Y-70223000I0J250000D01*
G01*
X129635000Y-69223000D01*
G75*
G02*
X129885000Y-68973000I250000J0D01*
G01*
G37*
G04 #@! TD.AperFunction*
G04 #@! TA.AperFunction,SMDPad,CuDef*
G36*
G01*
X129885000Y-65723000D02*
X131735000Y-65723000D01*
G75*
G02*
X131985000Y-65973000I0J-250000D01*
G01*
X131985000Y-66973000D01*
G75*
G02*
X131735000Y-67223000I-250000J0D01*
G01*
X129885000Y-67223000D01*
G75*
G02*
X129635000Y-66973000I0J250000D01*
G01*
X129635000Y-65973000D01*
G75*
G02*
X129885000Y-65723000I250000J0D01*
G01*
G37*
G04 #@! TD.AperFunction*
G04 #@! TA.AperFunction,SMDPad,CuDef*
G36*
G01*
X131735000Y-48808000D02*
X129885000Y-48808000D01*
G75*
G02*
X129635000Y-48558000I0J250000D01*
G01*
X129635000Y-47558000D01*
G75*
G02*
X129885000Y-47308000I250000J0D01*
G01*
X131735000Y-47308000D01*
G75*
G02*
X131985000Y-47558000I0J-250000D01*
G01*
X131985000Y-48558000D01*
G75*
G02*
X131735000Y-48808000I-250000J0D01*
G01*
G37*
G04 #@! TD.AperFunction*
G04 #@! TA.AperFunction,SMDPad,CuDef*
G36*
G01*
X131735000Y-52058000D02*
X129885000Y-52058000D01*
G75*
G02*
X129635000Y-51808000I0J250000D01*
G01*
X129635000Y-50808000D01*
G75*
G02*
X129885000Y-50558000I250000J0D01*
G01*
X131735000Y-50558000D01*
G75*
G02*
X131985000Y-50808000I0J-250000D01*
G01*
X131985000Y-51808000D01*
G75*
G02*
X131735000Y-52058000I-250000J0D01*
G01*
G37*
G04 #@! TD.AperFunction*
G04 #@! TA.AperFunction,SMDPad,CuDef*
G36*
G01*
X125064500Y-71972500D02*
X126014500Y-71972500D01*
G75*
G02*
X126264500Y-72222500I0J-250000D01*
G01*
X126264500Y-72897500D01*
G75*
G02*
X126014500Y-73147500I-250000J0D01*
G01*
X125064500Y-73147500D01*
G75*
G02*
X124814500Y-72897500I0J250000D01*
G01*
X124814500Y-72222500D01*
G75*
G02*
X125064500Y-71972500I250000J0D01*
G01*
G37*
G04 #@! TD.AperFunction*
G04 #@! TA.AperFunction,SMDPad,CuDef*
G36*
G01*
X125064500Y-69897500D02*
X126014500Y-69897500D01*
G75*
G02*
X126264500Y-70147500I0J-250000D01*
G01*
X126264500Y-70822500D01*
G75*
G02*
X126014500Y-71072500I-250000J0D01*
G01*
X125064500Y-71072500D01*
G75*
G02*
X124814500Y-70822500I0J250000D01*
G01*
X124814500Y-70147500D01*
G75*
G02*
X125064500Y-69897500I250000J0D01*
G01*
G37*
G04 #@! TD.AperFunction*
G04 #@! TA.AperFunction,SMDPad,CuDef*
G36*
G01*
X125128000Y-54764000D02*
X126078000Y-54764000D01*
G75*
G02*
X126328000Y-55014000I0J-250000D01*
G01*
X126328000Y-55689000D01*
G75*
G02*
X126078000Y-55939000I-250000J0D01*
G01*
X125128000Y-55939000D01*
G75*
G02*
X124878000Y-55689000I0J250000D01*
G01*
X124878000Y-55014000D01*
G75*
G02*
X125128000Y-54764000I250000J0D01*
G01*
G37*
G04 #@! TD.AperFunction*
G04 #@! TA.AperFunction,SMDPad,CuDef*
G36*
G01*
X125128000Y-52689000D02*
X126078000Y-52689000D01*
G75*
G02*
X126328000Y-52939000I0J-250000D01*
G01*
X126328000Y-53614000D01*
G75*
G02*
X126078000Y-53864000I-250000J0D01*
G01*
X125128000Y-53864000D01*
G75*
G02*
X124878000Y-53614000I0J250000D01*
G01*
X124878000Y-52939000D01*
G75*
G02*
X125128000Y-52689000I250000J0D01*
G01*
G37*
G04 #@! TD.AperFunction*
D23*
X132296001Y-53302001D03*
X135509000Y-53340000D03*
D24*
X130791001Y-53302001D03*
D23*
X135382000Y-71501000D03*
X132334000Y-71628000D03*
D24*
X130890000Y-71628000D03*
D23*
X132130800Y-56896000D03*
X132130800Y-75209400D03*
D24*
X128171001Y-55202001D03*
X128270000Y-73528000D03*
D23*
X107696000Y-36957000D03*
X123317000Y-40259000D03*
X120269000Y-83058000D03*
D25*
X126702499Y-54252001D02*
X125603000Y-55351500D01*
X128171001Y-54252001D02*
X126702499Y-54252001D01*
D26*
X126682500Y-71628000D02*
X125539500Y-70485000D01*
X128270000Y-71628000D02*
X126682500Y-71628000D01*
D25*
X123460000Y-53276500D02*
X123444000Y-53292500D01*
X123444000Y-50355500D02*
X123063000Y-49974500D01*
X123444000Y-53292500D02*
X123444000Y-50355500D01*
X123063000Y-49802000D02*
X120378000Y-47117000D01*
X123063000Y-49974500D02*
X123063000Y-49802000D01*
X133820001Y-53302001D02*
X133858000Y-53340000D01*
X130791001Y-51326999D02*
X130810000Y-51308000D01*
X130791001Y-53302001D02*
X130791001Y-51326999D01*
X132296001Y-53302001D02*
X133820001Y-53302001D01*
X130791001Y-53302001D02*
X132296001Y-53302001D01*
X133858000Y-53340000D02*
X135509000Y-53340000D01*
X130890000Y-69803000D02*
X130810000Y-69723000D01*
X130890000Y-71628000D02*
X130890000Y-69803000D01*
X133752500Y-71628000D02*
X133858000Y-71522500D01*
X135360500Y-71522500D02*
X135382000Y-71501000D01*
X133858000Y-71522500D02*
X135360500Y-71522500D01*
X132334000Y-71628000D02*
X133752500Y-71628000D01*
X130890000Y-71628000D02*
X132334000Y-71628000D01*
X130791001Y-56877001D02*
X130810000Y-56896000D01*
X130791001Y-55202001D02*
X130791001Y-56877001D01*
X130810000Y-56896000D02*
X132130800Y-56896000D01*
X130890000Y-75180200D02*
X130860800Y-75209400D01*
X130890000Y-73528000D02*
X130890000Y-75180200D01*
X130860800Y-75209400D02*
X132130800Y-75209400D01*
X128145500Y-53276500D02*
X128171001Y-53302001D01*
X125603000Y-53276500D02*
X128145500Y-53276500D01*
X125603000Y-49720500D02*
X125539500Y-49657000D01*
X125603000Y-53276500D02*
X125603000Y-49974500D01*
X125603000Y-47770000D02*
X126256000Y-47117000D01*
X125603000Y-49974500D02*
X125603000Y-47770000D01*
X125496500Y-72517000D02*
X125539500Y-72560000D01*
X128252000Y-72560000D02*
X128270000Y-72578000D01*
X125539500Y-72560000D02*
X128252000Y-72560000D01*
X125539500Y-75120500D02*
X125539500Y-72560000D01*
X125539500Y-77787500D02*
X126492000Y-78740000D01*
X125539500Y-75120500D02*
X125539500Y-77787500D01*
X121570500Y-55292500D02*
X121459500Y-55181500D01*
X123444000Y-55292500D02*
X121570500Y-55292500D01*
X121459500Y-50911000D02*
X120523000Y-49974500D01*
X121459500Y-55181500D02*
X121459500Y-50911000D01*
X121650000Y-70501000D02*
X121539000Y-70612000D01*
X121539000Y-74041000D02*
X120459500Y-75120500D01*
X121539000Y-70612000D02*
X121539000Y-74041000D01*
X123507500Y-70501000D02*
X121650000Y-70501000D01*
X106172000Y-36957000D02*
X106283000Y-36957000D01*
X121364000Y-41958000D02*
X121285000Y-42037000D01*
X123317000Y-41958000D02*
X121364000Y-41958000D01*
X106283000Y-36957000D02*
X107696000Y-36957000D01*
X123317000Y-41958000D02*
X123317000Y-40259000D01*
X123571000Y-78867000D02*
X123698000Y-78740000D01*
X123698000Y-78740000D02*
X122682000Y-78740000D01*
X123571000Y-80899000D02*
X123571000Y-78867000D01*
X124442000Y-78740000D02*
X123698000Y-78740000D01*
X123571000Y-83146500D02*
X123571000Y-80899000D01*
X121539000Y-82527000D02*
X122071000Y-83059000D01*
X121539000Y-80899000D02*
X121539000Y-82527000D01*
X122070000Y-83058000D02*
X122071000Y-83059000D01*
X120269000Y-83058000D02*
X122070000Y-83058000D01*
X104283000Y-36957000D02*
X100584000Y-36957000D01*
X123317000Y-44958000D02*
X123317000Y-47117000D01*
X123317000Y-47117000D02*
X124206000Y-47117000D01*
X122428000Y-47117000D02*
X123317000Y-47117000D01*
X123317000Y-44958000D02*
X121285000Y-44958000D01*
X123566500Y-72560000D02*
X123507500Y-72501000D01*
X123507500Y-74612500D02*
X122999500Y-75120500D01*
X123507500Y-72501000D02*
X123507500Y-74612500D01*
X120632000Y-77488000D02*
X122999500Y-75120500D01*
X120632000Y-78740000D02*
X120632000Y-77488000D01*
D27*
X149733000Y-91233772D02*
X81407000Y-91312853D01*
X81407000Y-87409872D01*
X82855000Y-87409872D01*
X82855000Y-87850128D01*
X82940890Y-88281925D01*
X83109369Y-88688669D01*
X83353962Y-89054729D01*
X83665271Y-89366038D01*
X84031331Y-89610631D01*
X84438075Y-89779110D01*
X84869872Y-89865000D01*
X85310128Y-89865000D01*
X85741925Y-89779110D01*
X86148669Y-89610631D01*
X86514729Y-89366038D01*
X86826038Y-89054729D01*
X87070631Y-88688669D01*
X87239110Y-88281925D01*
X87325000Y-87850128D01*
X87325000Y-87742665D01*
X114770000Y-87742665D01*
X114770000Y-88025335D01*
X114825147Y-88302574D01*
X114933320Y-88563727D01*
X115090363Y-88798759D01*
X115290241Y-88998637D01*
X115525273Y-89155680D01*
X115786426Y-89263853D01*
X116063665Y-89319000D01*
X116346335Y-89319000D01*
X116623574Y-89263853D01*
X116884727Y-89155680D01*
X117119759Y-88998637D01*
X117319637Y-88798759D01*
X117476680Y-88563727D01*
X117584853Y-88302574D01*
X117640000Y-88025335D01*
X117640000Y-87742665D01*
X117630205Y-87693419D01*
X127605000Y-87693419D01*
X127605000Y-88074581D01*
X127679361Y-88448419D01*
X127825225Y-88800566D01*
X128036987Y-89117491D01*
X128306509Y-89387013D01*
X128623434Y-89598775D01*
X128975581Y-89744639D01*
X129349419Y-89819000D01*
X129730581Y-89819000D01*
X130104419Y-89744639D01*
X130456566Y-89598775D01*
X130773491Y-89387013D01*
X130927280Y-89233224D01*
X135990381Y-89233224D01*
X136122317Y-89528312D01*
X136463045Y-89699159D01*
X136830557Y-89800250D01*
X137210729Y-89827701D01*
X137588951Y-89780457D01*
X137950690Y-89660333D01*
X138197683Y-89528312D01*
X138329619Y-89233224D01*
X137160000Y-88063605D01*
X135990381Y-89233224D01*
X130927280Y-89233224D01*
X131043013Y-89117491D01*
X131254775Y-88800566D01*
X131400639Y-88448419D01*
X131475000Y-88074581D01*
X131475000Y-87934729D01*
X135216299Y-87934729D01*
X135263543Y-88312951D01*
X135383667Y-88674690D01*
X135515688Y-88921683D01*
X135810776Y-89053619D01*
X136980395Y-87884000D01*
X137339605Y-87884000D01*
X138509224Y-89053619D01*
X138804312Y-88921683D01*
X138975159Y-88580955D01*
X139076250Y-88213443D01*
X139103701Y-87833271D01*
X139056457Y-87455049D01*
X139041455Y-87409872D01*
X143815000Y-87409872D01*
X143815000Y-87850128D01*
X143900890Y-88281925D01*
X144069369Y-88688669D01*
X144313962Y-89054729D01*
X144625271Y-89366038D01*
X144991331Y-89610631D01*
X145398075Y-89779110D01*
X145829872Y-89865000D01*
X146270128Y-89865000D01*
X146701925Y-89779110D01*
X147108669Y-89610631D01*
X147474729Y-89366038D01*
X147786038Y-89054729D01*
X148030631Y-88688669D01*
X148199110Y-88281925D01*
X148285000Y-87850128D01*
X148285000Y-87409872D01*
X148199110Y-86978075D01*
X148030631Y-86571331D01*
X147786038Y-86205271D01*
X147474729Y-85893962D01*
X147108669Y-85649369D01*
X146701925Y-85480890D01*
X146270128Y-85395000D01*
X145829872Y-85395000D01*
X145398075Y-85480890D01*
X144991331Y-85649369D01*
X144625271Y-85893962D01*
X144313962Y-86205271D01*
X144069369Y-86571331D01*
X143900890Y-86978075D01*
X143815000Y-87409872D01*
X139041455Y-87409872D01*
X138936333Y-87093310D01*
X138804312Y-86846317D01*
X138509224Y-86714381D01*
X137339605Y-87884000D01*
X136980395Y-87884000D01*
X135810776Y-86714381D01*
X135515688Y-86846317D01*
X135344841Y-87187045D01*
X135243750Y-87554557D01*
X135216299Y-87934729D01*
X131475000Y-87934729D01*
X131475000Y-87693419D01*
X131400639Y-87319581D01*
X131254775Y-86967434D01*
X131043013Y-86650509D01*
X130927280Y-86534776D01*
X135990381Y-86534776D01*
X137160000Y-87704395D01*
X138329619Y-86534776D01*
X138197683Y-86239688D01*
X137856955Y-86068841D01*
X137489443Y-85967750D01*
X137109271Y-85940299D01*
X136731049Y-85987543D01*
X136369310Y-86107667D01*
X136122317Y-86239688D01*
X135990381Y-86534776D01*
X130927280Y-86534776D01*
X130773491Y-86380987D01*
X130456566Y-86169225D01*
X130104419Y-86023361D01*
X129730581Y-85949000D01*
X129349419Y-85949000D01*
X128975581Y-86023361D01*
X128623434Y-86169225D01*
X128306509Y-86380987D01*
X128036987Y-86650509D01*
X127825225Y-86967434D01*
X127679361Y-87319581D01*
X127605000Y-87693419D01*
X117630205Y-87693419D01*
X117584853Y-87465426D01*
X117476680Y-87204273D01*
X117319637Y-86969241D01*
X117119759Y-86769363D01*
X116884727Y-86612320D01*
X116623574Y-86504147D01*
X116346335Y-86449000D01*
X116063665Y-86449000D01*
X115786426Y-86504147D01*
X115525273Y-86612320D01*
X115290241Y-86769363D01*
X115090363Y-86969241D01*
X114933320Y-87204273D01*
X114825147Y-87465426D01*
X114770000Y-87742665D01*
X87325000Y-87742665D01*
X87325000Y-87409872D01*
X87239110Y-86978075D01*
X87070631Y-86571331D01*
X86826038Y-86205271D01*
X86514729Y-85893962D01*
X86148669Y-85649369D01*
X85741925Y-85480890D01*
X85310128Y-85395000D01*
X84869872Y-85395000D01*
X84438075Y-85480890D01*
X84031331Y-85649369D01*
X83665271Y-85893962D01*
X83353962Y-86205271D01*
X83109369Y-86571331D01*
X82940890Y-86978075D01*
X82855000Y-87409872D01*
X81407000Y-87409872D01*
X81407000Y-85184000D01*
X114766928Y-85184000D01*
X114779188Y-85308482D01*
X114815498Y-85428180D01*
X114874463Y-85538494D01*
X114953815Y-85635185D01*
X115050506Y-85714537D01*
X115160820Y-85773502D01*
X115280518Y-85809812D01*
X115405000Y-85822072D01*
X115919250Y-85819000D01*
X116078000Y-85660250D01*
X116078000Y-84511000D01*
X116332000Y-84511000D01*
X116332000Y-85660250D01*
X116490750Y-85819000D01*
X117005000Y-85822072D01*
X117129482Y-85809812D01*
X117249180Y-85773502D01*
X117359494Y-85714537D01*
X117456185Y-85635185D01*
X117535537Y-85538494D01*
X117594502Y-85428180D01*
X117630812Y-85308482D01*
X117643072Y-85184000D01*
X117640000Y-84669750D01*
X117481250Y-84511000D01*
X116332000Y-84511000D01*
X116078000Y-84511000D01*
X114928750Y-84511000D01*
X114770000Y-84669750D01*
X114766928Y-85184000D01*
X81407000Y-85184000D01*
X81407000Y-83584000D01*
X114766928Y-83584000D01*
X114770000Y-84098250D01*
X114928750Y-84257000D01*
X116078000Y-84257000D01*
X116078000Y-83107750D01*
X116332000Y-83107750D01*
X116332000Y-84257000D01*
X117481250Y-84257000D01*
X117640000Y-84098250D01*
X117643072Y-83584000D01*
X117630812Y-83459518D01*
X117594502Y-83339820D01*
X117535537Y-83229506D01*
X117456185Y-83132815D01*
X117359494Y-83053463D01*
X117249180Y-82994498D01*
X117129482Y-82958188D01*
X117005000Y-82945928D01*
X116490750Y-82949000D01*
X116332000Y-83107750D01*
X116078000Y-83107750D01*
X115919250Y-82949000D01*
X115405000Y-82945928D01*
X115280518Y-82958188D01*
X115160820Y-82994498D01*
X115050506Y-83053463D01*
X114953815Y-83132815D01*
X114874463Y-83229506D01*
X114815498Y-83339820D01*
X114779188Y-83459518D01*
X114766928Y-83584000D01*
X81407000Y-83584000D01*
X81407000Y-81624000D01*
X118238428Y-81624000D01*
X118250688Y-81748482D01*
X118286998Y-81868180D01*
X118345963Y-81978494D01*
X118425315Y-82075185D01*
X118522006Y-82154537D01*
X118632320Y-82213502D01*
X118752018Y-82249812D01*
X118876500Y-82262072D01*
X119178250Y-82259000D01*
X119337000Y-82100250D01*
X119337000Y-81026000D01*
X118400250Y-81026000D01*
X118241500Y-81184750D01*
X118238428Y-81624000D01*
X81407000Y-81624000D01*
X81407000Y-80174000D01*
X118238428Y-80174000D01*
X118241500Y-80613250D01*
X118400250Y-80772000D01*
X119337000Y-80772000D01*
X119337000Y-79697750D01*
X119178250Y-79539000D01*
X118876500Y-79535928D01*
X118752018Y-79548188D01*
X118632320Y-79584498D01*
X118522006Y-79643463D01*
X118425315Y-79722815D01*
X118345963Y-79819506D01*
X118286998Y-79929820D01*
X118250688Y-80049518D01*
X118238428Y-80174000D01*
X81407000Y-80174000D01*
X81407000Y-76654268D01*
X106115000Y-76654268D01*
X106115000Y-77015732D01*
X106185518Y-77370250D01*
X106323844Y-77704199D01*
X106524662Y-78004744D01*
X106780256Y-78260338D01*
X107080801Y-78461156D01*
X107414750Y-78599482D01*
X107769268Y-78670000D01*
X108130732Y-78670000D01*
X108485250Y-78599482D01*
X108819199Y-78461156D01*
X109119744Y-78260338D01*
X109375338Y-78004744D01*
X109576156Y-77704199D01*
X109714482Y-77370250D01*
X109785000Y-77015732D01*
X109785000Y-76654268D01*
X109714482Y-76299750D01*
X109576156Y-75965801D01*
X109375338Y-75665256D01*
X109119744Y-75409662D01*
X108819199Y-75208844D01*
X108485250Y-75070518D01*
X108130732Y-75000000D01*
X107769268Y-75000000D01*
X107414750Y-75070518D01*
X107080801Y-75208844D01*
X106780256Y-75409662D01*
X106524662Y-75665256D01*
X106323844Y-75965801D01*
X106185518Y-76299750D01*
X106115000Y-76654268D01*
X81407000Y-76654268D01*
X81407000Y-74969316D01*
X118924500Y-74969316D01*
X118924500Y-75271684D01*
X118983489Y-75568243D01*
X119099201Y-75847595D01*
X119267188Y-76099005D01*
X119480995Y-76312812D01*
X119732405Y-76480799D01*
X120011757Y-76596511D01*
X120228749Y-76639673D01*
X120036951Y-76831471D01*
X120003184Y-76859183D01*
X119975471Y-76892951D01*
X119975468Y-76892954D01*
X119892590Y-76993941D01*
X119810412Y-77147687D01*
X119759805Y-77314510D01*
X119742719Y-77488000D01*
X119747001Y-77531478D01*
X119747001Y-77606262D01*
X119679038Y-77662038D01*
X119568595Y-77796613D01*
X119486528Y-77950149D01*
X119435992Y-78116745D01*
X119418928Y-78289999D01*
X119418928Y-79190001D01*
X119435992Y-79363255D01*
X119486528Y-79529851D01*
X119568595Y-79683387D01*
X119591000Y-79710688D01*
X119591000Y-80772000D01*
X119611000Y-80772000D01*
X119611000Y-81026000D01*
X119591000Y-81026000D01*
X119591000Y-82100250D01*
X119690505Y-82199755D01*
X119609226Y-82254063D01*
X119465063Y-82398226D01*
X119351795Y-82567744D01*
X119273774Y-82756102D01*
X119234000Y-82956061D01*
X119234000Y-83159939D01*
X119273774Y-83359898D01*
X119351795Y-83548256D01*
X119465063Y-83717774D01*
X119609226Y-83861937D01*
X119778744Y-83975205D01*
X119967102Y-84053226D01*
X120167061Y-84093000D01*
X120370939Y-84093000D01*
X120570898Y-84053226D01*
X120759256Y-83975205D01*
X120807454Y-83943000D01*
X121028410Y-83943000D01*
X121031498Y-83953180D01*
X121090463Y-84063494D01*
X121169815Y-84160185D01*
X121266506Y-84239537D01*
X121376820Y-84298502D01*
X121496518Y-84334812D01*
X121621000Y-84347072D01*
X122066428Y-84347072D01*
X122066428Y-87009000D01*
X122078688Y-87133482D01*
X122114998Y-87253180D01*
X122173963Y-87363494D01*
X122253315Y-87460185D01*
X122350006Y-87539537D01*
X122460320Y-87598502D01*
X122580018Y-87634812D01*
X122704500Y-87647072D01*
X124437500Y-87647072D01*
X124561982Y-87634812D01*
X124681680Y-87598502D01*
X124791994Y-87539537D01*
X124888685Y-87460185D01*
X124968037Y-87363494D01*
X125027002Y-87253180D01*
X125063312Y-87133482D01*
X125075572Y-87009000D01*
X125075572Y-84344000D01*
X125198002Y-84344000D01*
X125198002Y-84185252D01*
X125356750Y-84344000D01*
X125521000Y-84347072D01*
X125645482Y-84334812D01*
X125765180Y-84298502D01*
X125875494Y-84239537D01*
X125972185Y-84160185D01*
X126051537Y-84063494D01*
X126110502Y-83953180D01*
X126146812Y-83833482D01*
X126159072Y-83709000D01*
X126156000Y-83344750D01*
X125997250Y-83186000D01*
X125198000Y-83186000D01*
X125198000Y-83206000D01*
X124944000Y-83206000D01*
X124944000Y-83186000D01*
X124924000Y-83186000D01*
X124924000Y-82932000D01*
X124944000Y-82932000D01*
X124944000Y-82912000D01*
X125198000Y-82912000D01*
X125198000Y-82932000D01*
X125997250Y-82932000D01*
X126156000Y-82773250D01*
X126159072Y-82409000D01*
X126146812Y-82284518D01*
X126139713Y-82261117D01*
X126233500Y-82262072D01*
X126357982Y-82249812D01*
X126477680Y-82213502D01*
X126587994Y-82154537D01*
X126684685Y-82075185D01*
X126764037Y-81978494D01*
X126823002Y-81868180D01*
X126859312Y-81748482D01*
X126871572Y-81624000D01*
X126868500Y-81184750D01*
X126709750Y-81026000D01*
X125773000Y-81026000D01*
X125773000Y-81046000D01*
X125519000Y-81046000D01*
X125519000Y-81026000D01*
X125499000Y-81026000D01*
X125499000Y-80772000D01*
X125519000Y-80772000D01*
X125519000Y-80752000D01*
X125773000Y-80752000D01*
X125773000Y-80772000D01*
X126709750Y-80772000D01*
X126868500Y-80613250D01*
X126871572Y-80174000D01*
X126861691Y-80073670D01*
X126990255Y-80061008D01*
X127156851Y-80010472D01*
X127310387Y-79928405D01*
X127444962Y-79817962D01*
X127555405Y-79683387D01*
X127637472Y-79529851D01*
X127688008Y-79363255D01*
X127705072Y-79190001D01*
X127705072Y-78289999D01*
X127688008Y-78116745D01*
X127637472Y-77950149D01*
X127562240Y-77809400D01*
X129522728Y-77809400D01*
X129534988Y-77933882D01*
X129571298Y-78053580D01*
X129630263Y-78163894D01*
X129709615Y-78260585D01*
X129806306Y-78339937D01*
X129916620Y-78398902D01*
X130036318Y-78435212D01*
X130160800Y-78447472D01*
X130575050Y-78444400D01*
X130733800Y-78285650D01*
X130733800Y-77336400D01*
X130987800Y-77336400D01*
X130987800Y-78285650D01*
X131146550Y-78444400D01*
X131560800Y-78447472D01*
X131685282Y-78435212D01*
X131804980Y-78398902D01*
X131915294Y-78339937D01*
X132011985Y-78260585D01*
X132091337Y-78163894D01*
X132150302Y-78053580D01*
X132186612Y-77933882D01*
X132198872Y-77809400D01*
X132195800Y-77495150D01*
X132037050Y-77336400D01*
X130987800Y-77336400D01*
X130733800Y-77336400D01*
X129684550Y-77336400D01*
X129525800Y-77495150D01*
X129522728Y-77809400D01*
X127562240Y-77809400D01*
X127555405Y-77796613D01*
X127444962Y-77662038D01*
X127310387Y-77551595D01*
X127156851Y-77469528D01*
X126990255Y-77418992D01*
X126817001Y-77401928D01*
X126424500Y-77401928D01*
X126424500Y-76658572D01*
X126439500Y-76658572D01*
X126563982Y-76646312D01*
X126683680Y-76610002D01*
X126793994Y-76551037D01*
X126890685Y-76471685D01*
X126970037Y-76374994D01*
X127029002Y-76264680D01*
X127065312Y-76144982D01*
X127077572Y-76020500D01*
X127077572Y-74220500D01*
X127065312Y-74096018D01*
X127029002Y-73976320D01*
X126970037Y-73866006D01*
X126890685Y-73769315D01*
X126793994Y-73689963D01*
X126683680Y-73630998D01*
X126563982Y-73594688D01*
X126558739Y-73594172D01*
X126642462Y-73525462D01*
X126708495Y-73445000D01*
X127021928Y-73445000D01*
X127021928Y-73853000D01*
X127034188Y-73977482D01*
X127070498Y-74097180D01*
X127129463Y-74207494D01*
X127208815Y-74304185D01*
X127305506Y-74383537D01*
X127415820Y-74442502D01*
X127535518Y-74478812D01*
X127660000Y-74491072D01*
X128880000Y-74491072D01*
X129004482Y-74478812D01*
X129124180Y-74442502D01*
X129234494Y-74383537D01*
X129331185Y-74304185D01*
X129410537Y-74207494D01*
X129469502Y-74097180D01*
X129505812Y-73977482D01*
X129518072Y-73853000D01*
X129518072Y-73203000D01*
X129505812Y-73078518D01*
X129498071Y-73053000D01*
X129505812Y-73027482D01*
X129518072Y-72903000D01*
X129518072Y-72253000D01*
X129505812Y-72128518D01*
X129498071Y-72103000D01*
X129505812Y-72077482D01*
X129518072Y-71953000D01*
X129515000Y-71913750D01*
X129356250Y-71755000D01*
X129274141Y-71755000D01*
X129234494Y-71722463D01*
X129124180Y-71663498D01*
X129004482Y-71627188D01*
X128880000Y-71614928D01*
X127660000Y-71614928D01*
X127535518Y-71627188D01*
X127415820Y-71663498D01*
X127394302Y-71675000D01*
X126708495Y-71675000D01*
X126642462Y-71594538D01*
X126635906Y-71589158D01*
X126715685Y-71523685D01*
X126795037Y-71426994D01*
X126854002Y-71316680D01*
X126858151Y-71303000D01*
X127021928Y-71303000D01*
X127025000Y-71342250D01*
X127183750Y-71501000D01*
X128143000Y-71501000D01*
X128143000Y-70826750D01*
X128397000Y-70826750D01*
X128397000Y-71501000D01*
X129356250Y-71501000D01*
X129515000Y-71342250D01*
X129518072Y-71303000D01*
X129505812Y-71178518D01*
X129469502Y-71058820D01*
X129427759Y-70980725D01*
X129545150Y-71043472D01*
X129682514Y-71085141D01*
X129654188Y-71178518D01*
X129641928Y-71303000D01*
X129641928Y-71953000D01*
X129654188Y-72077482D01*
X129690498Y-72197180D01*
X129749463Y-72307494D01*
X129828815Y-72404185D01*
X129925506Y-72483537D01*
X130035820Y-72542502D01*
X130152841Y-72578000D01*
X130035820Y-72613498D01*
X129925506Y-72672463D01*
X129828815Y-72751815D01*
X129749463Y-72848506D01*
X129690498Y-72958820D01*
X129654188Y-73078518D01*
X129641928Y-73203000D01*
X129641928Y-73853000D01*
X129654188Y-73977482D01*
X129690498Y-74097180D01*
X129749463Y-74207494D01*
X129775976Y-74239800D01*
X129672395Y-74366013D01*
X129590328Y-74519549D01*
X129539792Y-74686145D01*
X129522728Y-74859399D01*
X129522728Y-75559401D01*
X129539792Y-75732655D01*
X129590328Y-75899251D01*
X129672395Y-76052787D01*
X129739076Y-76134037D01*
X129709615Y-76158215D01*
X129630263Y-76254906D01*
X129571298Y-76365220D01*
X129534988Y-76484918D01*
X129522728Y-76609400D01*
X129525800Y-76923650D01*
X129684550Y-77082400D01*
X130733800Y-77082400D01*
X130733800Y-77062400D01*
X130987800Y-77062400D01*
X130987800Y-77082400D01*
X132037050Y-77082400D01*
X132195800Y-76923650D01*
X132198872Y-76609400D01*
X132186612Y-76484918D01*
X132150302Y-76365220D01*
X132091337Y-76254906D01*
X132082715Y-76244400D01*
X132232739Y-76244400D01*
X132432698Y-76204626D01*
X132621056Y-76126605D01*
X132790574Y-76013337D01*
X132934737Y-75869174D01*
X133048005Y-75699656D01*
X133126026Y-75511298D01*
X133165800Y-75311339D01*
X133165800Y-75107461D01*
X133129217Y-74923544D01*
X133315800Y-74923544D01*
X133315800Y-75190456D01*
X133367872Y-75452239D01*
X133470015Y-75698833D01*
X133618303Y-75920762D01*
X133807038Y-76109497D01*
X134028967Y-76257785D01*
X134196066Y-76327000D01*
X134028967Y-76396215D01*
X133807038Y-76544503D01*
X133618303Y-76733238D01*
X133470015Y-76955167D01*
X133367872Y-77201761D01*
X133315800Y-77463544D01*
X133315800Y-77730456D01*
X133367872Y-77992239D01*
X133470015Y-78238833D01*
X133618303Y-78460762D01*
X133807038Y-78649497D01*
X134028967Y-78797785D01*
X134196066Y-78867000D01*
X134028967Y-78936215D01*
X133807038Y-79084503D01*
X133618303Y-79273238D01*
X133470015Y-79495167D01*
X133367872Y-79741761D01*
X133315800Y-80003544D01*
X133315800Y-80270456D01*
X133367872Y-80532239D01*
X133470015Y-80778833D01*
X133618303Y-81000762D01*
X133807038Y-81189497D01*
X134028967Y-81337785D01*
X134275561Y-81439928D01*
X134537344Y-81492000D01*
X134804256Y-81492000D01*
X135066039Y-81439928D01*
X135312633Y-81337785D01*
X135534562Y-81189497D01*
X135723297Y-81000762D01*
X135871585Y-80778833D01*
X135973728Y-80532239D01*
X136025800Y-80270456D01*
X136025800Y-80003544D01*
X135973728Y-79741761D01*
X135871585Y-79495167D01*
X135723297Y-79273238D01*
X135534562Y-79084503D01*
X135312633Y-78936215D01*
X135145534Y-78867000D01*
X135312633Y-78797785D01*
X135534562Y-78649497D01*
X135723297Y-78460762D01*
X135871585Y-78238833D01*
X135973728Y-77992239D01*
X136025800Y-77730456D01*
X136025800Y-77463544D01*
X135973728Y-77201761D01*
X135871585Y-76955167D01*
X135723297Y-76733238D01*
X135534562Y-76544503D01*
X135312633Y-76396215D01*
X135145534Y-76327000D01*
X135312633Y-76257785D01*
X135534562Y-76109497D01*
X135723297Y-75920762D01*
X135871585Y-75698833D01*
X135973728Y-75452239D01*
X136025800Y-75190456D01*
X136025800Y-74923544D01*
X135973728Y-74661761D01*
X135871585Y-74415167D01*
X135723297Y-74193238D01*
X135534562Y-74004503D01*
X135312633Y-73856215D01*
X135066039Y-73754072D01*
X134804256Y-73702000D01*
X134537344Y-73702000D01*
X134275561Y-73754072D01*
X134028967Y-73856215D01*
X133807038Y-74004503D01*
X133618303Y-74193238D01*
X133470015Y-74415167D01*
X133367872Y-74661761D01*
X133315800Y-74923544D01*
X133129217Y-74923544D01*
X133126026Y-74907502D01*
X133048005Y-74719144D01*
X132934737Y-74549626D01*
X132790574Y-74405463D01*
X132621056Y-74292195D01*
X132432698Y-74214174D01*
X132232739Y-74174400D01*
X132048226Y-74174400D01*
X132089502Y-74097180D01*
X132125812Y-73977482D01*
X132138072Y-73853000D01*
X132138072Y-73203000D01*
X132125812Y-73078518D01*
X132089502Y-72958820D01*
X132030537Y-72848506D01*
X131951185Y-72751815D01*
X131854494Y-72672463D01*
X131744180Y-72613498D01*
X131627159Y-72578000D01*
X131744180Y-72542502D01*
X131797247Y-72514137D01*
X131843744Y-72545205D01*
X132032102Y-72623226D01*
X132232061Y-72663000D01*
X132435939Y-72663000D01*
X132635898Y-72623226D01*
X132824256Y-72545205D01*
X132824550Y-72545009D01*
X132889614Y-72598405D01*
X133043150Y-72680472D01*
X133209746Y-72731008D01*
X133383000Y-72748072D01*
X134333000Y-72748072D01*
X134506254Y-72731008D01*
X134672850Y-72680472D01*
X134826386Y-72598405D01*
X134960962Y-72487962D01*
X134986126Y-72457300D01*
X135080102Y-72496226D01*
X135280061Y-72536000D01*
X135483939Y-72536000D01*
X135683898Y-72496226D01*
X135872256Y-72418205D01*
X136041774Y-72304937D01*
X136185937Y-72160774D01*
X136299205Y-71991256D01*
X136377226Y-71802898D01*
X136417000Y-71602939D01*
X136417000Y-71399061D01*
X136399369Y-71310419D01*
X139924000Y-71310419D01*
X139924000Y-71691581D01*
X139998361Y-72065419D01*
X140144225Y-72417566D01*
X140355987Y-72734491D01*
X140625509Y-73004013D01*
X140942434Y-73215775D01*
X141294581Y-73361639D01*
X141668419Y-73436000D01*
X142049581Y-73436000D01*
X142423419Y-73361639D01*
X142775566Y-73215775D01*
X143092491Y-73004013D01*
X143362013Y-72734491D01*
X143573775Y-72417566D01*
X143719639Y-72065419D01*
X143794000Y-71691581D01*
X143794000Y-71310419D01*
X143719639Y-70936581D01*
X143573775Y-70584434D01*
X143362013Y-70267509D01*
X143092491Y-69997987D01*
X142775566Y-69786225D01*
X142423419Y-69640361D01*
X142049581Y-69566000D01*
X141668419Y-69566000D01*
X141294581Y-69640361D01*
X140942434Y-69786225D01*
X140625509Y-69997987D01*
X140355987Y-70267509D01*
X140144225Y-70584434D01*
X139998361Y-70936581D01*
X139924000Y-71310419D01*
X136399369Y-71310419D01*
X136377226Y-71199102D01*
X136299205Y-71010744D01*
X136185937Y-70841226D01*
X136041774Y-70697063D01*
X135872256Y-70583795D01*
X135683898Y-70505774D01*
X135483939Y-70466000D01*
X135280061Y-70466000D01*
X135080102Y-70505774D01*
X134959412Y-70555766D01*
X134954406Y-70551658D01*
X135034185Y-70486185D01*
X135113537Y-70389494D01*
X135172502Y-70279180D01*
X135208812Y-70159482D01*
X135221072Y-70035000D01*
X135218000Y-69733250D01*
X135059250Y-69574500D01*
X133985000Y-69574500D01*
X133985000Y-69594500D01*
X133731000Y-69594500D01*
X133731000Y-69574500D01*
X133711000Y-69574500D01*
X133711000Y-69320500D01*
X133731000Y-69320500D01*
X133731000Y-68383750D01*
X133985000Y-68383750D01*
X133985000Y-69320500D01*
X135059250Y-69320500D01*
X135218000Y-69161750D01*
X135221072Y-68860000D01*
X135208812Y-68735518D01*
X135172502Y-68615820D01*
X135113537Y-68505506D01*
X135034185Y-68408815D01*
X134937494Y-68329463D01*
X134827180Y-68270498D01*
X134707482Y-68234188D01*
X134583000Y-68221928D01*
X134143750Y-68225000D01*
X133985000Y-68383750D01*
X133731000Y-68383750D01*
X133572250Y-68225000D01*
X133133000Y-68221928D01*
X133008518Y-68234188D01*
X132888820Y-68270498D01*
X132778506Y-68329463D01*
X132681815Y-68408815D01*
X132602463Y-68505506D01*
X132543498Y-68615820D01*
X132507188Y-68735518D01*
X132502423Y-68783902D01*
X132473405Y-68729614D01*
X132362962Y-68595038D01*
X132228386Y-68484595D01*
X132074850Y-68402528D01*
X131908254Y-68351992D01*
X131735000Y-68334928D01*
X129885000Y-68334928D01*
X129711746Y-68351992D01*
X129545150Y-68402528D01*
X129391614Y-68484595D01*
X129257038Y-68595038D01*
X129146595Y-68729614D01*
X129064528Y-68883150D01*
X129013992Y-69049746D01*
X128996928Y-69223000D01*
X128996928Y-70223000D01*
X129013992Y-70396254D01*
X129064528Y-70562850D01*
X129146595Y-70716386D01*
X129159889Y-70732585D01*
X129124180Y-70713498D01*
X129004482Y-70677188D01*
X128880000Y-70664928D01*
X128555750Y-70668000D01*
X128397000Y-70826750D01*
X128143000Y-70826750D01*
X127984250Y-70668000D01*
X127660000Y-70664928D01*
X127535518Y-70677188D01*
X127415820Y-70713498D01*
X127305506Y-70772463D01*
X127208815Y-70851815D01*
X127129463Y-70948506D01*
X127070498Y-71058820D01*
X127034188Y-71178518D01*
X127021928Y-71303000D01*
X126858151Y-71303000D01*
X126890312Y-71196982D01*
X126902572Y-71072500D01*
X126899500Y-70770750D01*
X126740750Y-70612000D01*
X125666500Y-70612000D01*
X125666500Y-70632000D01*
X125412500Y-70632000D01*
X125412500Y-70612000D01*
X125392500Y-70612000D01*
X125392500Y-70358000D01*
X125412500Y-70358000D01*
X125412500Y-69421250D01*
X125666500Y-69421250D01*
X125666500Y-70358000D01*
X126740750Y-70358000D01*
X126899500Y-70199250D01*
X126902572Y-69897500D01*
X126890312Y-69773018D01*
X126854002Y-69653320D01*
X126795037Y-69543006D01*
X126715685Y-69446315D01*
X126618994Y-69366963D01*
X126508680Y-69307998D01*
X126388982Y-69271688D01*
X126264500Y-69259428D01*
X125825250Y-69262500D01*
X125666500Y-69421250D01*
X125412500Y-69421250D01*
X125253750Y-69262500D01*
X124814500Y-69259428D01*
X124690018Y-69271688D01*
X124570320Y-69307998D01*
X124460006Y-69366963D01*
X124422737Y-69397549D01*
X124297351Y-69330528D01*
X124130755Y-69279992D01*
X123957501Y-69262928D01*
X123057499Y-69262928D01*
X122884245Y-69279992D01*
X122717649Y-69330528D01*
X122564113Y-69412595D01*
X122466548Y-69492664D01*
X122382387Y-69423595D01*
X122228851Y-69341528D01*
X122062255Y-69290992D01*
X121889001Y-69273928D01*
X121188999Y-69273928D01*
X121015745Y-69290992D01*
X120849149Y-69341528D01*
X120695613Y-69423595D01*
X120614363Y-69490276D01*
X120590185Y-69460815D01*
X120493494Y-69381463D01*
X120383180Y-69322498D01*
X120263482Y-69286188D01*
X120139000Y-69273928D01*
X119824750Y-69277000D01*
X119666000Y-69435750D01*
X119666000Y-70485000D01*
X119686000Y-70485000D01*
X119686000Y-70739000D01*
X119666000Y-70739000D01*
X119666000Y-71788250D01*
X119824750Y-71947000D01*
X120139000Y-71950072D01*
X120263482Y-71937812D01*
X120383180Y-71901502D01*
X120493494Y-71842537D01*
X120590185Y-71763185D01*
X120614363Y-71733724D01*
X120654000Y-71766254D01*
X120654001Y-73594116D01*
X120610684Y-73585500D01*
X120308316Y-73585500D01*
X120011757Y-73644489D01*
X119732405Y-73760201D01*
X119480995Y-73928188D01*
X119267188Y-74141995D01*
X119099201Y-74393405D01*
X118983489Y-74672757D01*
X118924500Y-74969316D01*
X81407000Y-74969316D01*
X81407000Y-69659419D01*
X84425000Y-69659419D01*
X84425000Y-70040581D01*
X84499361Y-70414419D01*
X84645225Y-70766566D01*
X84856987Y-71083491D01*
X85126509Y-71353013D01*
X85443434Y-71564775D01*
X85795581Y-71710639D01*
X86169419Y-71785000D01*
X86550581Y-71785000D01*
X86924419Y-71710639D01*
X87276566Y-71564775D01*
X87593491Y-71353013D01*
X87634504Y-71312000D01*
X118300928Y-71312000D01*
X118313188Y-71436482D01*
X118349498Y-71556180D01*
X118408463Y-71666494D01*
X118487815Y-71763185D01*
X118584506Y-71842537D01*
X118694820Y-71901502D01*
X118814518Y-71937812D01*
X118939000Y-71950072D01*
X119253250Y-71947000D01*
X119412000Y-71788250D01*
X119412000Y-70739000D01*
X118462750Y-70739000D01*
X118304000Y-70897750D01*
X118300928Y-71312000D01*
X87634504Y-71312000D01*
X87863013Y-71083491D01*
X88074775Y-70766566D01*
X88170692Y-70535000D01*
X106111928Y-70535000D01*
X106124188Y-70659482D01*
X106160498Y-70779180D01*
X106219463Y-70889494D01*
X106298815Y-70986185D01*
X106395506Y-71065537D01*
X106505820Y-71124502D01*
X106625518Y-71160812D01*
X106750000Y-71173072D01*
X107664250Y-71170000D01*
X107823000Y-71011250D01*
X107823000Y-69462000D01*
X108077000Y-69462000D01*
X108077000Y-71011250D01*
X108235750Y-71170000D01*
X109150000Y-71173072D01*
X109274482Y-71160812D01*
X109394180Y-71124502D01*
X109504494Y-71065537D01*
X109601185Y-70986185D01*
X109680537Y-70889494D01*
X109739502Y-70779180D01*
X109775812Y-70659482D01*
X109788072Y-70535000D01*
X109785979Y-69912000D01*
X118300928Y-69912000D01*
X118304000Y-70326250D01*
X118462750Y-70485000D01*
X119412000Y-70485000D01*
X119412000Y-69435750D01*
X119253250Y-69277000D01*
X118939000Y-69273928D01*
X118814518Y-69286188D01*
X118694820Y-69322498D01*
X118584506Y-69381463D01*
X118487815Y-69460815D01*
X118408463Y-69557506D01*
X118349498Y-69667820D01*
X118313188Y-69787518D01*
X118300928Y-69912000D01*
X109785979Y-69912000D01*
X109785000Y-69620750D01*
X109626250Y-69462000D01*
X108077000Y-69462000D01*
X107823000Y-69462000D01*
X106273750Y-69462000D01*
X106115000Y-69620750D01*
X106111928Y-70535000D01*
X88170692Y-70535000D01*
X88220639Y-70414419D01*
X88295000Y-70040581D01*
X88295000Y-69659419D01*
X88220639Y-69285581D01*
X88074775Y-68933434D01*
X87863013Y-68616509D01*
X87593491Y-68346987D01*
X87276566Y-68135225D01*
X87276023Y-68135000D01*
X106111928Y-68135000D01*
X106115000Y-69049250D01*
X106273750Y-69208000D01*
X107823000Y-69208000D01*
X107823000Y-67658750D01*
X108077000Y-67658750D01*
X108077000Y-69208000D01*
X109626250Y-69208000D01*
X109785000Y-69049250D01*
X109788072Y-68135000D01*
X109775812Y-68010518D01*
X109739502Y-67890820D01*
X109680537Y-67780506D01*
X109601185Y-67683815D01*
X109504494Y-67604463D01*
X109394180Y-67545498D01*
X109274482Y-67509188D01*
X109150000Y-67496928D01*
X108235750Y-67500000D01*
X108077000Y-67658750D01*
X107823000Y-67658750D01*
X107664250Y-67500000D01*
X106750000Y-67496928D01*
X106625518Y-67509188D01*
X106505820Y-67545498D01*
X106395506Y-67604463D01*
X106298815Y-67683815D01*
X106219463Y-67780506D01*
X106160498Y-67890820D01*
X106124188Y-68010518D01*
X106111928Y-68135000D01*
X87276023Y-68135000D01*
X86924419Y-67989361D01*
X86550581Y-67915000D01*
X86169419Y-67915000D01*
X85795581Y-67989361D01*
X85443434Y-68135225D01*
X85126509Y-68346987D01*
X84856987Y-68616509D01*
X84645225Y-68933434D01*
X84499361Y-69285581D01*
X84425000Y-69659419D01*
X81407000Y-69659419D01*
X81407000Y-67223000D01*
X128996928Y-67223000D01*
X129009188Y-67347482D01*
X129045498Y-67467180D01*
X129104463Y-67577494D01*
X129183815Y-67674185D01*
X129280506Y-67753537D01*
X129390820Y-67812502D01*
X129510518Y-67848812D01*
X129635000Y-67861072D01*
X130524250Y-67858000D01*
X130683000Y-67699250D01*
X130683000Y-66600000D01*
X130937000Y-66600000D01*
X130937000Y-67699250D01*
X131095750Y-67858000D01*
X131985000Y-67861072D01*
X132109482Y-67848812D01*
X132229180Y-67812502D01*
X132339494Y-67753537D01*
X132436185Y-67674185D01*
X132515537Y-67577494D01*
X132574502Y-67467180D01*
X132610812Y-67347482D01*
X132623072Y-67223000D01*
X132620000Y-66758750D01*
X132461250Y-66600000D01*
X130937000Y-66600000D01*
X130683000Y-66600000D01*
X129158750Y-66600000D01*
X129000000Y-66758750D01*
X128996928Y-67223000D01*
X81407000Y-67223000D01*
X81407000Y-64501665D01*
X87973000Y-64501665D01*
X87973000Y-64784335D01*
X88028147Y-65061574D01*
X88136320Y-65322727D01*
X88293363Y-65557759D01*
X88493241Y-65757637D01*
X88728273Y-65914680D01*
X88989426Y-66022853D01*
X89266665Y-66078000D01*
X89549335Y-66078000D01*
X89826574Y-66022853D01*
X90087727Y-65914680D01*
X90322759Y-65757637D01*
X90522637Y-65557759D01*
X90679680Y-65322727D01*
X90787853Y-65061574D01*
X90843000Y-64784335D01*
X90843000Y-64501665D01*
X90787853Y-64224426D01*
X90679680Y-63963273D01*
X90599317Y-63843000D01*
X95589928Y-63843000D01*
X95589928Y-65443000D01*
X95602188Y-65567482D01*
X95638498Y-65687180D01*
X95697463Y-65797494D01*
X95776815Y-65894185D01*
X95873506Y-65973537D01*
X95983820Y-66032502D01*
X96103518Y-66068812D01*
X96228000Y-66081072D01*
X97828000Y-66081072D01*
X97952482Y-66068812D01*
X98072180Y-66032502D01*
X98182494Y-65973537D01*
X98279185Y-65894185D01*
X98358537Y-65797494D01*
X98398355Y-65723000D01*
X128996928Y-65723000D01*
X129000000Y-66187250D01*
X129158750Y-66346000D01*
X130683000Y-66346000D01*
X130683000Y-65246750D01*
X130937000Y-65246750D01*
X130937000Y-66346000D01*
X132461250Y-66346000D01*
X132620000Y-66187250D01*
X132623072Y-65723000D01*
X132610812Y-65598518D01*
X132574502Y-65478820D01*
X132515537Y-65368506D01*
X132436185Y-65271815D01*
X132339494Y-65192463D01*
X132229180Y-65133498D01*
X132109482Y-65097188D01*
X131985000Y-65084928D01*
X131095750Y-65088000D01*
X130937000Y-65246750D01*
X130683000Y-65246750D01*
X130524250Y-65088000D01*
X129635000Y-65084928D01*
X129510518Y-65097188D01*
X129390820Y-65133498D01*
X129280506Y-65192463D01*
X129183815Y-65271815D01*
X129104463Y-65368506D01*
X129045498Y-65478820D01*
X129009188Y-65598518D01*
X128996928Y-65723000D01*
X98398355Y-65723000D01*
X98417502Y-65687180D01*
X98453812Y-65567482D01*
X98466072Y-65443000D01*
X98466072Y-63843000D01*
X98453812Y-63718518D01*
X98450083Y-63706224D01*
X140689381Y-63706224D01*
X140821317Y-64001312D01*
X141162045Y-64172159D01*
X141529557Y-64273250D01*
X141909729Y-64300701D01*
X142287951Y-64253457D01*
X142649690Y-64133333D01*
X142896683Y-64001312D01*
X143028619Y-63706224D01*
X141859000Y-62536605D01*
X140689381Y-63706224D01*
X98450083Y-63706224D01*
X98417502Y-63598820D01*
X98358537Y-63488506D01*
X98279185Y-63391815D01*
X98182494Y-63312463D01*
X98072180Y-63253498D01*
X97952482Y-63217188D01*
X97828000Y-63204928D01*
X96228000Y-63204928D01*
X96103518Y-63217188D01*
X95983820Y-63253498D01*
X95873506Y-63312463D01*
X95776815Y-63391815D01*
X95697463Y-63488506D01*
X95638498Y-63598820D01*
X95602188Y-63718518D01*
X95589928Y-63843000D01*
X90599317Y-63843000D01*
X90522637Y-63728241D01*
X90322759Y-63528363D01*
X90087727Y-63371320D01*
X89826574Y-63263147D01*
X89549335Y-63208000D01*
X89266665Y-63208000D01*
X88989426Y-63263147D01*
X88728273Y-63371320D01*
X88493241Y-63528363D01*
X88293363Y-63728241D01*
X88136320Y-63963273D01*
X88028147Y-64224426D01*
X87973000Y-64501665D01*
X81407000Y-64501665D01*
X81407000Y-63579224D01*
X85190381Y-63579224D01*
X85322317Y-63874312D01*
X85663045Y-64045159D01*
X86030557Y-64146250D01*
X86410729Y-64173701D01*
X86788951Y-64126457D01*
X87150690Y-64006333D01*
X87397683Y-63874312D01*
X87529619Y-63579224D01*
X86360000Y-62409605D01*
X85190381Y-63579224D01*
X81407000Y-63579224D01*
X81407000Y-62280729D01*
X84416299Y-62280729D01*
X84463543Y-62658951D01*
X84583667Y-63020690D01*
X84715688Y-63267683D01*
X85010776Y-63399619D01*
X86180395Y-62230000D01*
X86539605Y-62230000D01*
X87709224Y-63399619D01*
X88004312Y-63267683D01*
X88175159Y-62926955D01*
X88276250Y-62559443D01*
X88303701Y-62179271D01*
X88256457Y-61801049D01*
X88136333Y-61439310D01*
X88004312Y-61192317D01*
X87709224Y-61060381D01*
X86539605Y-62230000D01*
X86180395Y-62230000D01*
X85010776Y-61060381D01*
X84715688Y-61192317D01*
X84544841Y-61533045D01*
X84443750Y-61900557D01*
X84416299Y-62280729D01*
X81407000Y-62280729D01*
X81407000Y-60880776D01*
X85190381Y-60880776D01*
X86360000Y-62050395D01*
X87529619Y-60880776D01*
X87397683Y-60585688D01*
X87056955Y-60414841D01*
X86689443Y-60313750D01*
X86309271Y-60286299D01*
X85931049Y-60333543D01*
X85569310Y-60453667D01*
X85322317Y-60585688D01*
X85190381Y-60880776D01*
X81407000Y-60880776D01*
X81407000Y-59421665D01*
X87973000Y-59421665D01*
X87973000Y-59704335D01*
X88028147Y-59981574D01*
X88136320Y-60242727D01*
X88293363Y-60477759D01*
X88493241Y-60677637D01*
X88728273Y-60834680D01*
X88989426Y-60942853D01*
X89266665Y-60998000D01*
X89549335Y-60998000D01*
X89826574Y-60942853D01*
X90087727Y-60834680D01*
X90322759Y-60677637D01*
X90522637Y-60477759D01*
X90679680Y-60242727D01*
X90787853Y-59981574D01*
X90843000Y-59704335D01*
X90843000Y-59421665D01*
X95593000Y-59421665D01*
X95593000Y-59704335D01*
X95648147Y-59981574D01*
X95756320Y-60242727D01*
X95913363Y-60477759D01*
X96113241Y-60677637D01*
X96348273Y-60834680D01*
X96609426Y-60942853D01*
X96886665Y-60998000D01*
X97169335Y-60998000D01*
X97446574Y-60942853D01*
X97707727Y-60834680D01*
X97942759Y-60677637D01*
X98142637Y-60477759D01*
X98299680Y-60242727D01*
X98407853Y-59981574D01*
X98463000Y-59704335D01*
X98463000Y-59496000D01*
X129471928Y-59496000D01*
X129484188Y-59620482D01*
X129520498Y-59740180D01*
X129579463Y-59850494D01*
X129658815Y-59947185D01*
X129755506Y-60026537D01*
X129865820Y-60085502D01*
X129985518Y-60121812D01*
X130110000Y-60134072D01*
X130524250Y-60131000D01*
X130683000Y-59972250D01*
X130683000Y-59023000D01*
X130937000Y-59023000D01*
X130937000Y-59972250D01*
X131095750Y-60131000D01*
X131510000Y-60134072D01*
X131634482Y-60121812D01*
X131754180Y-60085502D01*
X131864494Y-60026537D01*
X131961185Y-59947185D01*
X132040537Y-59850494D01*
X132099502Y-59740180D01*
X132135812Y-59620482D01*
X132148072Y-59496000D01*
X132145000Y-59181750D01*
X131986250Y-59023000D01*
X130937000Y-59023000D01*
X130683000Y-59023000D01*
X129633750Y-59023000D01*
X129475000Y-59181750D01*
X129471928Y-59496000D01*
X98463000Y-59496000D01*
X98463000Y-59421665D01*
X98407853Y-59144426D01*
X98299680Y-58883273D01*
X98142637Y-58648241D01*
X97942759Y-58448363D01*
X97707727Y-58291320D01*
X97446574Y-58183147D01*
X97169335Y-58128000D01*
X96886665Y-58128000D01*
X96609426Y-58183147D01*
X96348273Y-58291320D01*
X96113241Y-58448363D01*
X95913363Y-58648241D01*
X95756320Y-58883273D01*
X95648147Y-59144426D01*
X95593000Y-59421665D01*
X90843000Y-59421665D01*
X90787853Y-59144426D01*
X90679680Y-58883273D01*
X90522637Y-58648241D01*
X90322759Y-58448363D01*
X90087727Y-58291320D01*
X89826574Y-58183147D01*
X89549335Y-58128000D01*
X89266665Y-58128000D01*
X88989426Y-58183147D01*
X88728273Y-58291320D01*
X88493241Y-58448363D01*
X88293363Y-58648241D01*
X88136320Y-58883273D01*
X88028147Y-59144426D01*
X87973000Y-59421665D01*
X81407000Y-59421665D01*
X81407000Y-57037980D01*
X106851626Y-57037980D01*
X106971514Y-57322836D01*
X107295210Y-57483699D01*
X107644069Y-57578322D01*
X108004684Y-57603067D01*
X108363198Y-57556985D01*
X108705833Y-57441846D01*
X108928486Y-57322836D01*
X109048374Y-57037980D01*
X107950000Y-55939605D01*
X106851626Y-57037980D01*
X81407000Y-57037980D01*
X81407000Y-54419419D01*
X84425000Y-54419419D01*
X84425000Y-54800581D01*
X84499361Y-55174419D01*
X84645225Y-55526566D01*
X84856987Y-55843491D01*
X85126509Y-56113013D01*
X85443434Y-56324775D01*
X85795581Y-56470639D01*
X86169419Y-56545000D01*
X86550581Y-56545000D01*
X86924419Y-56470639D01*
X87276566Y-56324775D01*
X87593491Y-56113013D01*
X87863013Y-55843491D01*
X87882261Y-55814684D01*
X106106933Y-55814684D01*
X106153015Y-56173198D01*
X106268154Y-56515833D01*
X106387164Y-56738486D01*
X106672020Y-56858374D01*
X107770395Y-55760000D01*
X108129605Y-55760000D01*
X109227980Y-56858374D01*
X109512836Y-56738486D01*
X109673699Y-56414790D01*
X109768322Y-56065931D01*
X109780977Y-55881500D01*
X118221428Y-55881500D01*
X118233688Y-56005982D01*
X118269998Y-56125680D01*
X118328963Y-56235994D01*
X118408315Y-56332685D01*
X118505006Y-56412037D01*
X118615320Y-56471002D01*
X118735018Y-56507312D01*
X118859500Y-56519572D01*
X119173750Y-56516500D01*
X119332500Y-56357750D01*
X119332500Y-55308500D01*
X118383250Y-55308500D01*
X118224500Y-55467250D01*
X118221428Y-55881500D01*
X109780977Y-55881500D01*
X109793067Y-55705316D01*
X109746985Y-55346802D01*
X109631846Y-55004167D01*
X109512836Y-54781514D01*
X109227980Y-54661626D01*
X108129605Y-55760000D01*
X107770395Y-55760000D01*
X106672020Y-54661626D01*
X106387164Y-54781514D01*
X106226301Y-55105210D01*
X106131678Y-55454069D01*
X106106933Y-55814684D01*
X87882261Y-55814684D01*
X88074775Y-55526566D01*
X88220639Y-55174419D01*
X88295000Y-54800581D01*
X88295000Y-54482020D01*
X106851626Y-54482020D01*
X107950000Y-55580395D01*
X109048374Y-54482020D01*
X109048156Y-54481500D01*
X118221428Y-54481500D01*
X118224500Y-54895750D01*
X118383250Y-55054500D01*
X119332500Y-55054500D01*
X119332500Y-54005250D01*
X119173750Y-53846500D01*
X118859500Y-53843428D01*
X118735018Y-53855688D01*
X118615320Y-53891998D01*
X118505006Y-53950963D01*
X118408315Y-54030315D01*
X118328963Y-54127006D01*
X118269998Y-54237320D01*
X118233688Y-54357018D01*
X118221428Y-54481500D01*
X109048156Y-54481500D01*
X108928486Y-54197164D01*
X108604790Y-54036301D01*
X108255931Y-53941678D01*
X107895316Y-53916933D01*
X107536802Y-53963015D01*
X107194167Y-54078154D01*
X106971514Y-54197164D01*
X106851626Y-54482020D01*
X88295000Y-54482020D01*
X88295000Y-54419419D01*
X88220639Y-54045581D01*
X88074775Y-53693434D01*
X87863013Y-53376509D01*
X87593491Y-53106987D01*
X87276566Y-52895225D01*
X86924419Y-52749361D01*
X86550581Y-52675000D01*
X86169419Y-52675000D01*
X85795581Y-52749361D01*
X85443434Y-52895225D01*
X85126509Y-53106987D01*
X84856987Y-53376509D01*
X84645225Y-53693434D01*
X84499361Y-54045581D01*
X84425000Y-54419419D01*
X81407000Y-54419419D01*
X81407000Y-47060000D01*
X106111928Y-47060000D01*
X106111928Y-49460000D01*
X106124188Y-49584482D01*
X106160498Y-49704180D01*
X106219463Y-49814494D01*
X106298815Y-49911185D01*
X106395506Y-49990537D01*
X106505820Y-50049502D01*
X106625518Y-50085812D01*
X106750000Y-50098072D01*
X109150000Y-50098072D01*
X109274482Y-50085812D01*
X109394180Y-50049502D01*
X109504494Y-49990537D01*
X109601185Y-49911185D01*
X109673296Y-49823316D01*
X118988000Y-49823316D01*
X118988000Y-50125684D01*
X119046989Y-50422243D01*
X119162701Y-50701595D01*
X119330688Y-50953005D01*
X119544495Y-51166812D01*
X119795905Y-51334799D01*
X120075257Y-51450511D01*
X120371816Y-51509500D01*
X120574501Y-51509500D01*
X120574500Y-54027246D01*
X120534863Y-54059776D01*
X120510685Y-54030315D01*
X120413994Y-53950963D01*
X120303680Y-53891998D01*
X120183982Y-53855688D01*
X120059500Y-53843428D01*
X119745250Y-53846500D01*
X119586500Y-54005250D01*
X119586500Y-55054500D01*
X119606500Y-55054500D01*
X119606500Y-55308500D01*
X119586500Y-55308500D01*
X119586500Y-56357750D01*
X119745250Y-56516500D01*
X120059500Y-56519572D01*
X120183982Y-56507312D01*
X120303680Y-56471002D01*
X120413994Y-56412037D01*
X120510685Y-56332685D01*
X120534863Y-56303224D01*
X120616113Y-56369905D01*
X120769649Y-56451972D01*
X120936245Y-56502508D01*
X121109499Y-56519572D01*
X121809501Y-56519572D01*
X121982755Y-56502508D01*
X122149351Y-56451972D01*
X122302887Y-56369905D01*
X122395048Y-56294270D01*
X122500613Y-56380905D01*
X122654149Y-56462972D01*
X122820745Y-56513508D01*
X122993999Y-56530572D01*
X123894001Y-56530572D01*
X124067255Y-56513508D01*
X124233851Y-56462972D01*
X124387387Y-56380905D01*
X124406396Y-56365305D01*
X124426815Y-56390185D01*
X124523506Y-56469537D01*
X124633820Y-56528502D01*
X124753518Y-56564812D01*
X124878000Y-56577072D01*
X125317250Y-56574000D01*
X125476000Y-56415250D01*
X125476000Y-55478500D01*
X125456000Y-55478500D01*
X125456000Y-55224500D01*
X125476000Y-55224500D01*
X125476000Y-55204500D01*
X125730000Y-55204500D01*
X125730000Y-55224500D01*
X125750000Y-55224500D01*
X125750000Y-55478500D01*
X125730000Y-55478500D01*
X125730000Y-56415250D01*
X125888750Y-56574000D01*
X126328000Y-56577072D01*
X126452482Y-56564812D01*
X126572180Y-56528502D01*
X126682494Y-56469537D01*
X126779185Y-56390185D01*
X126858537Y-56293494D01*
X126917502Y-56183180D01*
X126953812Y-56063482D01*
X126966072Y-55939000D01*
X126964116Y-55746842D01*
X126971499Y-55771181D01*
X127030464Y-55881495D01*
X127109816Y-55978186D01*
X127206507Y-56057538D01*
X127316821Y-56116503D01*
X127436519Y-56152813D01*
X127561001Y-56165073D01*
X128781001Y-56165073D01*
X128905483Y-56152813D01*
X129025181Y-56116503D01*
X129135495Y-56057538D01*
X129232186Y-55978186D01*
X129311538Y-55881495D01*
X129370503Y-55771181D01*
X129406813Y-55651483D01*
X129419073Y-55527001D01*
X129419073Y-54877001D01*
X129406813Y-54752519D01*
X129399072Y-54727001D01*
X129406813Y-54701483D01*
X129419073Y-54577001D01*
X129416001Y-54537751D01*
X129257251Y-54379001D01*
X129175142Y-54379001D01*
X129135495Y-54346464D01*
X129025181Y-54287499D01*
X128908160Y-54252001D01*
X129025181Y-54216503D01*
X129135495Y-54157538D01*
X129175142Y-54125001D01*
X129257251Y-54125001D01*
X129416001Y-53966251D01*
X129419073Y-53927001D01*
X129406813Y-53802519D01*
X129399072Y-53777001D01*
X129406813Y-53751483D01*
X129419073Y-53627001D01*
X129419073Y-52977001D01*
X129406813Y-52852519D01*
X129370503Y-52732821D01*
X129311538Y-52622507D01*
X129232186Y-52525816D01*
X129135495Y-52446464D01*
X129025181Y-52387499D01*
X128905483Y-52351189D01*
X128781001Y-52338929D01*
X127561001Y-52338929D01*
X127436519Y-52351189D01*
X127316821Y-52387499D01*
X127309336Y-52391500D01*
X126771995Y-52391500D01*
X126705962Y-52311038D01*
X126571386Y-52200595D01*
X126488000Y-52156024D01*
X126488000Y-51512572D01*
X126503000Y-51512572D01*
X126627482Y-51500312D01*
X126747180Y-51464002D01*
X126857494Y-51405037D01*
X126954185Y-51325685D01*
X127033537Y-51228994D01*
X127092502Y-51118680D01*
X127128812Y-50998982D01*
X127141072Y-50874500D01*
X127141072Y-50808000D01*
X128996928Y-50808000D01*
X128996928Y-51808000D01*
X129013992Y-51981254D01*
X129064528Y-52147850D01*
X129146595Y-52301386D01*
X129257038Y-52435962D01*
X129391614Y-52546405D01*
X129545150Y-52628472D01*
X129633027Y-52655129D01*
X129591499Y-52732821D01*
X129555189Y-52852519D01*
X129542929Y-52977001D01*
X129542929Y-53627001D01*
X129555189Y-53751483D01*
X129591499Y-53871181D01*
X129650464Y-53981495D01*
X129729816Y-54078186D01*
X129826507Y-54157538D01*
X129936821Y-54216503D01*
X130053842Y-54252001D01*
X129936821Y-54287499D01*
X129826507Y-54346464D01*
X129729816Y-54425816D01*
X129650464Y-54522507D01*
X129591499Y-54632821D01*
X129555189Y-54752519D01*
X129542929Y-54877001D01*
X129542929Y-55527001D01*
X129555189Y-55651483D01*
X129591499Y-55771181D01*
X129650464Y-55881495D01*
X129706246Y-55949466D01*
X129621595Y-56052613D01*
X129539528Y-56206149D01*
X129488992Y-56372745D01*
X129471928Y-56545999D01*
X129471928Y-57246001D01*
X129488992Y-57419255D01*
X129539528Y-57585851D01*
X129621595Y-57739387D01*
X129688276Y-57820637D01*
X129658815Y-57844815D01*
X129579463Y-57941506D01*
X129520498Y-58051820D01*
X129484188Y-58171518D01*
X129471928Y-58296000D01*
X129475000Y-58610250D01*
X129633750Y-58769000D01*
X130683000Y-58769000D01*
X130683000Y-58749000D01*
X130937000Y-58749000D01*
X130937000Y-58769000D01*
X131986250Y-58769000D01*
X132145000Y-58610250D01*
X132148072Y-58296000D01*
X132135812Y-58171518D01*
X132099502Y-58051820D01*
X132040537Y-57941506D01*
X132031915Y-57931000D01*
X132232739Y-57931000D01*
X132432698Y-57891226D01*
X132621056Y-57813205D01*
X132790574Y-57699937D01*
X132934737Y-57555774D01*
X133048005Y-57386256D01*
X133126026Y-57197898D01*
X133165800Y-56997939D01*
X133165800Y-56794061D01*
X133159531Y-56762544D01*
X133265000Y-56762544D01*
X133265000Y-57029456D01*
X133317072Y-57291239D01*
X133419215Y-57537833D01*
X133567503Y-57759762D01*
X133756238Y-57948497D01*
X133978167Y-58096785D01*
X134145266Y-58166000D01*
X133978167Y-58235215D01*
X133756238Y-58383503D01*
X133567503Y-58572238D01*
X133419215Y-58794167D01*
X133317072Y-59040761D01*
X133265000Y-59302544D01*
X133265000Y-59569456D01*
X133317072Y-59831239D01*
X133419215Y-60077833D01*
X133567503Y-60299762D01*
X133756238Y-60488497D01*
X133978167Y-60636785D01*
X134145266Y-60706000D01*
X133978167Y-60775215D01*
X133756238Y-60923503D01*
X133567503Y-61112238D01*
X133419215Y-61334167D01*
X133317072Y-61580761D01*
X133265000Y-61842544D01*
X133265000Y-62109456D01*
X133317072Y-62371239D01*
X133419215Y-62617833D01*
X133567503Y-62839762D01*
X133756238Y-63028497D01*
X133978167Y-63176785D01*
X134224761Y-63278928D01*
X134486544Y-63331000D01*
X134753456Y-63331000D01*
X135015239Y-63278928D01*
X135261833Y-63176785D01*
X135483762Y-63028497D01*
X135672497Y-62839762D01*
X135820785Y-62617833D01*
X135907813Y-62407729D01*
X139915299Y-62407729D01*
X139962543Y-62785951D01*
X140082667Y-63147690D01*
X140214688Y-63394683D01*
X140509776Y-63526619D01*
X141679395Y-62357000D01*
X142038605Y-62357000D01*
X143208224Y-63526619D01*
X143503312Y-63394683D01*
X143674159Y-63053955D01*
X143775250Y-62686443D01*
X143802701Y-62306271D01*
X143755457Y-61928049D01*
X143635333Y-61566310D01*
X143503312Y-61319317D01*
X143208224Y-61187381D01*
X142038605Y-62357000D01*
X141679395Y-62357000D01*
X140509776Y-61187381D01*
X140214688Y-61319317D01*
X140043841Y-61660045D01*
X139942750Y-62027557D01*
X139915299Y-62407729D01*
X135907813Y-62407729D01*
X135922928Y-62371239D01*
X135975000Y-62109456D01*
X135975000Y-61842544D01*
X135922928Y-61580761D01*
X135820785Y-61334167D01*
X135672497Y-61112238D01*
X135568035Y-61007776D01*
X140689381Y-61007776D01*
X141859000Y-62177395D01*
X143028619Y-61007776D01*
X142896683Y-60712688D01*
X142555955Y-60541841D01*
X142188443Y-60440750D01*
X141808271Y-60413299D01*
X141430049Y-60460543D01*
X141068310Y-60580667D01*
X140821317Y-60712688D01*
X140689381Y-61007776D01*
X135568035Y-61007776D01*
X135483762Y-60923503D01*
X135261833Y-60775215D01*
X135094734Y-60706000D01*
X135261833Y-60636785D01*
X135483762Y-60488497D01*
X135672497Y-60299762D01*
X135820785Y-60077833D01*
X135922928Y-59831239D01*
X135975000Y-59569456D01*
X135975000Y-59302544D01*
X135922928Y-59040761D01*
X135820785Y-58794167D01*
X135672497Y-58572238D01*
X135483762Y-58383503D01*
X135261833Y-58235215D01*
X135094734Y-58166000D01*
X135261833Y-58096785D01*
X135483762Y-57948497D01*
X135672497Y-57759762D01*
X135820785Y-57537833D01*
X135922928Y-57291239D01*
X135975000Y-57029456D01*
X135975000Y-56762544D01*
X135922928Y-56500761D01*
X135820785Y-56254167D01*
X135672497Y-56032238D01*
X135483762Y-55843503D01*
X135261833Y-55695215D01*
X135015239Y-55593072D01*
X134753456Y-55541000D01*
X134486544Y-55541000D01*
X134224761Y-55593072D01*
X133978167Y-55695215D01*
X133756238Y-55843503D01*
X133567503Y-56032238D01*
X133419215Y-56254167D01*
X133317072Y-56500761D01*
X133265000Y-56762544D01*
X133159531Y-56762544D01*
X133126026Y-56594102D01*
X133048005Y-56405744D01*
X132934737Y-56236226D01*
X132790574Y-56092063D01*
X132621056Y-55978795D01*
X132432698Y-55900774D01*
X132232739Y-55861000D01*
X132028861Y-55861000D01*
X131932218Y-55880223D01*
X131990503Y-55771181D01*
X132026813Y-55651483D01*
X132039073Y-55527001D01*
X132039073Y-54877001D01*
X132026813Y-54752519D01*
X131990503Y-54632821D01*
X131931538Y-54522507D01*
X131852186Y-54425816D01*
X131755495Y-54346464D01*
X131645181Y-54287499D01*
X131528160Y-54252001D01*
X131645181Y-54216503D01*
X131700374Y-54187001D01*
X131757547Y-54187001D01*
X131805745Y-54219206D01*
X131994103Y-54297227D01*
X132194062Y-54337001D01*
X132397940Y-54337001D01*
X132597899Y-54297227D01*
X132710129Y-54250740D01*
X132755038Y-54305462D01*
X132889614Y-54415905D01*
X133043150Y-54497972D01*
X133209746Y-54548508D01*
X133383000Y-54565572D01*
X134333000Y-54565572D01*
X134506254Y-54548508D01*
X134672850Y-54497972D01*
X134826386Y-54415905D01*
X134960962Y-54305462D01*
X135007003Y-54249360D01*
X135018744Y-54257205D01*
X135207102Y-54335226D01*
X135407061Y-54375000D01*
X135610939Y-54375000D01*
X135810898Y-54335226D01*
X135999256Y-54257205D01*
X136168774Y-54143937D01*
X136312937Y-53999774D01*
X136426205Y-53830256D01*
X136504226Y-53641898D01*
X136544000Y-53441939D01*
X136544000Y-53238061D01*
X136526369Y-53149419D01*
X139924000Y-53149419D01*
X139924000Y-53530581D01*
X139998361Y-53904419D01*
X140144225Y-54256566D01*
X140355987Y-54573491D01*
X140625509Y-54843013D01*
X140942434Y-55054775D01*
X141294581Y-55200639D01*
X141668419Y-55275000D01*
X142049581Y-55275000D01*
X142423419Y-55200639D01*
X142775566Y-55054775D01*
X143092491Y-54843013D01*
X143362013Y-54573491D01*
X143573775Y-54256566D01*
X143719639Y-53904419D01*
X143794000Y-53530581D01*
X143794000Y-53149419D01*
X143719639Y-52775581D01*
X143573775Y-52423434D01*
X143362013Y-52106509D01*
X143092491Y-51836987D01*
X142775566Y-51625225D01*
X142423419Y-51479361D01*
X142049581Y-51405000D01*
X141668419Y-51405000D01*
X141294581Y-51479361D01*
X140942434Y-51625225D01*
X140625509Y-51836987D01*
X140355987Y-52106509D01*
X140144225Y-52423434D01*
X139998361Y-52775581D01*
X139924000Y-53149419D01*
X136526369Y-53149419D01*
X136504226Y-53038102D01*
X136426205Y-52849744D01*
X136312937Y-52680226D01*
X136168774Y-52536063D01*
X135999256Y-52422795D01*
X135810898Y-52344774D01*
X135610939Y-52305000D01*
X135407061Y-52305000D01*
X135207102Y-52344774D01*
X135018744Y-52422795D01*
X135007003Y-52430640D01*
X134960962Y-52374538D01*
X134954406Y-52369158D01*
X135034185Y-52303685D01*
X135113537Y-52206994D01*
X135172502Y-52096680D01*
X135208812Y-51976982D01*
X135221072Y-51852500D01*
X135218000Y-51550750D01*
X135059250Y-51392000D01*
X133985000Y-51392000D01*
X133985000Y-51412000D01*
X133731000Y-51412000D01*
X133731000Y-51392000D01*
X133711000Y-51392000D01*
X133711000Y-51138000D01*
X133731000Y-51138000D01*
X133731000Y-50201250D01*
X133985000Y-50201250D01*
X133985000Y-51138000D01*
X135059250Y-51138000D01*
X135218000Y-50979250D01*
X135221072Y-50677500D01*
X135208812Y-50553018D01*
X135172502Y-50433320D01*
X135113537Y-50323006D01*
X135034185Y-50226315D01*
X134937494Y-50146963D01*
X134827180Y-50087998D01*
X134707482Y-50051688D01*
X134583000Y-50039428D01*
X134143750Y-50042500D01*
X133985000Y-50201250D01*
X133731000Y-50201250D01*
X133572250Y-50042500D01*
X133133000Y-50039428D01*
X133008518Y-50051688D01*
X132888820Y-50087998D01*
X132778506Y-50146963D01*
X132681815Y-50226315D01*
X132602463Y-50323006D01*
X132543498Y-50433320D01*
X132541093Y-50441249D01*
X132473405Y-50314614D01*
X132362962Y-50180038D01*
X132228386Y-50069595D01*
X132074850Y-49987528D01*
X131908254Y-49936992D01*
X131735000Y-49919928D01*
X129885000Y-49919928D01*
X129711746Y-49936992D01*
X129545150Y-49987528D01*
X129391614Y-50069595D01*
X129257038Y-50180038D01*
X129146595Y-50314614D01*
X129064528Y-50468150D01*
X129013992Y-50634746D01*
X128996928Y-50808000D01*
X127141072Y-50808000D01*
X127141072Y-49074500D01*
X127128812Y-48950018D01*
X127092502Y-48830320D01*
X127080572Y-48808000D01*
X128996928Y-48808000D01*
X129009188Y-48932482D01*
X129045498Y-49052180D01*
X129104463Y-49162494D01*
X129183815Y-49259185D01*
X129280506Y-49338537D01*
X129390820Y-49397502D01*
X129510518Y-49433812D01*
X129635000Y-49446072D01*
X130524250Y-49443000D01*
X130683000Y-49284250D01*
X130683000Y-48185000D01*
X130937000Y-48185000D01*
X130937000Y-49284250D01*
X131095750Y-49443000D01*
X131985000Y-49446072D01*
X132109482Y-49433812D01*
X132229180Y-49397502D01*
X132339494Y-49338537D01*
X132436185Y-49259185D01*
X132515537Y-49162494D01*
X132574502Y-49052180D01*
X132610812Y-48932482D01*
X132623072Y-48808000D01*
X132620000Y-48343750D01*
X132461250Y-48185000D01*
X130937000Y-48185000D01*
X130683000Y-48185000D01*
X129158750Y-48185000D01*
X129000000Y-48343750D01*
X128996928Y-48808000D01*
X127080572Y-48808000D01*
X127033537Y-48720006D01*
X126954185Y-48623315D01*
X126857494Y-48543963D01*
X126747180Y-48484998D01*
X126631976Y-48450051D01*
X126754255Y-48438008D01*
X126920851Y-48387472D01*
X127074387Y-48305405D01*
X127208962Y-48194962D01*
X127319405Y-48060387D01*
X127401472Y-47906851D01*
X127452008Y-47740255D01*
X127469072Y-47567001D01*
X127469072Y-47308000D01*
X128996928Y-47308000D01*
X129000000Y-47772250D01*
X129158750Y-47931000D01*
X130683000Y-47931000D01*
X130683000Y-46831750D01*
X130937000Y-46831750D01*
X130937000Y-47931000D01*
X132461250Y-47931000D01*
X132620000Y-47772250D01*
X132623072Y-47308000D01*
X132610812Y-47183518D01*
X132574502Y-47063820D01*
X132515537Y-46953506D01*
X132436185Y-46856815D01*
X132339494Y-46777463D01*
X132229180Y-46718498D01*
X132109482Y-46682188D01*
X131985000Y-46669928D01*
X131095750Y-46673000D01*
X130937000Y-46831750D01*
X130683000Y-46831750D01*
X130524250Y-46673000D01*
X129635000Y-46669928D01*
X129510518Y-46682188D01*
X129390820Y-46718498D01*
X129280506Y-46777463D01*
X129183815Y-46856815D01*
X129104463Y-46953506D01*
X129045498Y-47063820D01*
X129009188Y-47183518D01*
X128996928Y-47308000D01*
X127469072Y-47308000D01*
X127469072Y-46666999D01*
X127452008Y-46493745D01*
X127401472Y-46327149D01*
X127319405Y-46173613D01*
X127208962Y-46039038D01*
X127074387Y-45928595D01*
X126920851Y-45846528D01*
X126754255Y-45795992D01*
X126581001Y-45778928D01*
X125930999Y-45778928D01*
X125757745Y-45795992D01*
X125591149Y-45846528D01*
X125437613Y-45928595D01*
X125303038Y-46039038D01*
X125231000Y-46126816D01*
X125158962Y-46039038D01*
X125024387Y-45928595D01*
X124870851Y-45846528D01*
X124704255Y-45795992D01*
X124531001Y-45778928D01*
X124484050Y-45778928D01*
X124497537Y-45762494D01*
X124556502Y-45652180D01*
X124592812Y-45532482D01*
X124605072Y-45408000D01*
X124605072Y-44508000D01*
X124592812Y-44383518D01*
X124556502Y-44263820D01*
X124497537Y-44153506D01*
X124418185Y-44056815D01*
X124321494Y-43977463D01*
X124211180Y-43918498D01*
X124091482Y-43882188D01*
X123967000Y-43869928D01*
X122667000Y-43869928D01*
X122542518Y-43882188D01*
X122422820Y-43918498D01*
X122339216Y-43963186D01*
X122250462Y-43855038D01*
X122115886Y-43744595D01*
X121962350Y-43662528D01*
X121795754Y-43611992D01*
X121622500Y-43594928D01*
X120947500Y-43594928D01*
X120774246Y-43611992D01*
X120607650Y-43662528D01*
X120454114Y-43744595D01*
X120319538Y-43855038D01*
X120314158Y-43861594D01*
X120248685Y-43781815D01*
X120151994Y-43702463D01*
X120041680Y-43643498D01*
X119921982Y-43607188D01*
X119797500Y-43594928D01*
X119495750Y-43598000D01*
X119337000Y-43756750D01*
X119337000Y-44831000D01*
X119357000Y-44831000D01*
X119357000Y-45085000D01*
X119337000Y-45085000D01*
X119337000Y-46146312D01*
X119314595Y-46173613D01*
X119232528Y-46327149D01*
X119181992Y-46493745D01*
X119164928Y-46666999D01*
X119164928Y-47567001D01*
X119181992Y-47740255D01*
X119232528Y-47906851D01*
X119314595Y-48060387D01*
X119425038Y-48194962D01*
X119559613Y-48305405D01*
X119713149Y-48387472D01*
X119879745Y-48438008D01*
X120052999Y-48455072D01*
X120293530Y-48455072D01*
X120075257Y-48498489D01*
X119795905Y-48614201D01*
X119544495Y-48782188D01*
X119330688Y-48995995D01*
X119162701Y-49247405D01*
X119046989Y-49526757D01*
X118988000Y-49823316D01*
X109673296Y-49823316D01*
X109680537Y-49814494D01*
X109739502Y-49704180D01*
X109775812Y-49584482D01*
X109788072Y-49460000D01*
X109788072Y-47060000D01*
X109775812Y-46935518D01*
X109739502Y-46815820D01*
X109680537Y-46705506D01*
X109601185Y-46608815D01*
X109504494Y-46529463D01*
X109394180Y-46470498D01*
X109274482Y-46434188D01*
X109150000Y-46421928D01*
X106750000Y-46421928D01*
X106625518Y-46434188D01*
X106505820Y-46470498D01*
X106395506Y-46529463D01*
X106298815Y-46608815D01*
X106219463Y-46705506D01*
X106160498Y-46815820D01*
X106124188Y-46935518D01*
X106111928Y-47060000D01*
X81407000Y-47060000D01*
X81407000Y-45683000D01*
X117984428Y-45683000D01*
X117996688Y-45807482D01*
X118032998Y-45927180D01*
X118091963Y-46037494D01*
X118171315Y-46134185D01*
X118268006Y-46213537D01*
X118378320Y-46272502D01*
X118498018Y-46308812D01*
X118622500Y-46321072D01*
X118924250Y-46318000D01*
X119083000Y-46159250D01*
X119083000Y-45085000D01*
X118146250Y-45085000D01*
X117987500Y-45243750D01*
X117984428Y-45683000D01*
X81407000Y-45683000D01*
X81407000Y-44233000D01*
X117984428Y-44233000D01*
X117987500Y-44672250D01*
X118146250Y-44831000D01*
X119083000Y-44831000D01*
X119083000Y-43756750D01*
X118924250Y-43598000D01*
X118622500Y-43594928D01*
X118498018Y-43607188D01*
X118378320Y-43643498D01*
X118268006Y-43702463D01*
X118171315Y-43781815D01*
X118091963Y-43878506D01*
X118032998Y-43988820D01*
X117996688Y-44108518D01*
X117984428Y-44233000D01*
X81407000Y-44233000D01*
X81407000Y-42762000D01*
X117984428Y-42762000D01*
X117996688Y-42886482D01*
X118032998Y-43006180D01*
X118091963Y-43116494D01*
X118171315Y-43213185D01*
X118268006Y-43292537D01*
X118378320Y-43351502D01*
X118498018Y-43387812D01*
X118622500Y-43400072D01*
X118924250Y-43397000D01*
X119083000Y-43238250D01*
X119083000Y-42164000D01*
X118146250Y-42164000D01*
X117987500Y-42322750D01*
X117984428Y-42762000D01*
X81407000Y-42762000D01*
X81407000Y-41449702D01*
X113359903Y-41449702D01*
X113431486Y-41693671D01*
X113686996Y-41814571D01*
X113961184Y-41883300D01*
X114243512Y-41897217D01*
X114523130Y-41855787D01*
X114789292Y-41760603D01*
X114914514Y-41693671D01*
X114986097Y-41449702D01*
X114848395Y-41312000D01*
X117984428Y-41312000D01*
X117987500Y-41751250D01*
X118146250Y-41910000D01*
X119083000Y-41910000D01*
X119083000Y-40835750D01*
X119337000Y-40835750D01*
X119337000Y-41910000D01*
X119357000Y-41910000D01*
X119357000Y-42164000D01*
X119337000Y-42164000D01*
X119337000Y-43238250D01*
X119495750Y-43397000D01*
X119797500Y-43400072D01*
X119921982Y-43387812D01*
X120041680Y-43351502D01*
X120151994Y-43292537D01*
X120248685Y-43213185D01*
X120314158Y-43133406D01*
X120319538Y-43139962D01*
X120454114Y-43250405D01*
X120607650Y-43332472D01*
X120774246Y-43383008D01*
X120947500Y-43400072D01*
X121622500Y-43400072D01*
X121795754Y-43383008D01*
X121962350Y-43332472D01*
X122115886Y-43250405D01*
X122250462Y-43139962D01*
X122360905Y-43005386D01*
X122377941Y-42973513D01*
X122422820Y-42997502D01*
X122542518Y-43033812D01*
X122667000Y-43046072D01*
X123967000Y-43046072D01*
X124091482Y-43033812D01*
X124211180Y-42997502D01*
X124321494Y-42938537D01*
X124418185Y-42859185D01*
X124497537Y-42762494D01*
X124556502Y-42652180D01*
X124592812Y-42532482D01*
X124605072Y-42408000D01*
X124605072Y-41508000D01*
X124592812Y-41383518D01*
X124556502Y-41263820D01*
X124497537Y-41153506D01*
X124418185Y-41056815D01*
X124321494Y-40977463D01*
X124211180Y-40918498D01*
X124202000Y-40915713D01*
X124202000Y-40797454D01*
X124234205Y-40749256D01*
X124312226Y-40560898D01*
X124352000Y-40360939D01*
X124352000Y-40157061D01*
X124312226Y-39957102D01*
X124234205Y-39768744D01*
X124120937Y-39599226D01*
X123976774Y-39455063D01*
X123807256Y-39341795D01*
X123618898Y-39263774D01*
X123418939Y-39224000D01*
X123215061Y-39224000D01*
X123015102Y-39263774D01*
X122826744Y-39341795D01*
X122657226Y-39455063D01*
X122513063Y-39599226D01*
X122399795Y-39768744D01*
X122321774Y-39957102D01*
X122282000Y-40157061D01*
X122282000Y-40360939D01*
X122321774Y-40560898D01*
X122399795Y-40749256D01*
X122432001Y-40797455D01*
X122432001Y-40915713D01*
X122422820Y-40918498D01*
X122312506Y-40977463D01*
X122296727Y-40990412D01*
X122250462Y-40934038D01*
X122115886Y-40823595D01*
X121962350Y-40741528D01*
X121795754Y-40690992D01*
X121622500Y-40673928D01*
X120947500Y-40673928D01*
X120774246Y-40690992D01*
X120607650Y-40741528D01*
X120454114Y-40823595D01*
X120319538Y-40934038D01*
X120314158Y-40940594D01*
X120248685Y-40860815D01*
X120151994Y-40781463D01*
X120041680Y-40722498D01*
X119921982Y-40686188D01*
X119797500Y-40673928D01*
X119495750Y-40677000D01*
X119337000Y-40835750D01*
X119083000Y-40835750D01*
X118924250Y-40677000D01*
X118622500Y-40673928D01*
X118498018Y-40686188D01*
X118378320Y-40722498D01*
X118268006Y-40781463D01*
X118171315Y-40860815D01*
X118091963Y-40957506D01*
X118032998Y-41067820D01*
X117996688Y-41187518D01*
X117984428Y-41312000D01*
X114848395Y-41312000D01*
X114173000Y-40636605D01*
X113359903Y-41449702D01*
X81407000Y-41449702D01*
X81407000Y-40527512D01*
X112732783Y-40527512D01*
X112774213Y-40807130D01*
X112869397Y-41073292D01*
X112936329Y-41198514D01*
X113180298Y-41270097D01*
X113993395Y-40457000D01*
X114352605Y-40457000D01*
X115165702Y-41270097D01*
X115409671Y-41198514D01*
X115530571Y-40943004D01*
X115599300Y-40668816D01*
X115613217Y-40386488D01*
X115571787Y-40106870D01*
X115476603Y-39840708D01*
X115409671Y-39715486D01*
X115165702Y-39643903D01*
X114352605Y-40457000D01*
X113993395Y-40457000D01*
X113180298Y-39643903D01*
X112936329Y-39715486D01*
X112815429Y-39970996D01*
X112746700Y-40245184D01*
X112732783Y-40527512D01*
X81407000Y-40527512D01*
X81407000Y-39464298D01*
X113359903Y-39464298D01*
X114173000Y-40277395D01*
X114986097Y-39464298D01*
X114914514Y-39220329D01*
X114659004Y-39099429D01*
X114384816Y-39030700D01*
X114102488Y-39016783D01*
X113822870Y-39058213D01*
X113556708Y-39153397D01*
X113431486Y-39220329D01*
X113359903Y-39464298D01*
X81407000Y-39464298D01*
X81407000Y-36609872D01*
X82855000Y-36609872D01*
X82855000Y-37050128D01*
X82940890Y-37481925D01*
X83109369Y-37888669D01*
X83353962Y-38254729D01*
X83665271Y-38566038D01*
X84031331Y-38810631D01*
X84438075Y-38979110D01*
X84869872Y-39065000D01*
X85310128Y-39065000D01*
X85741925Y-38979110D01*
X86148669Y-38810631D01*
X86514729Y-38566038D01*
X86774543Y-38306224D01*
X91921381Y-38306224D01*
X92053317Y-38601312D01*
X92394045Y-38772159D01*
X92761557Y-38873250D01*
X93141729Y-38900701D01*
X93519951Y-38853457D01*
X93881690Y-38733333D01*
X94128683Y-38601312D01*
X94260619Y-38306224D01*
X93091000Y-37136605D01*
X91921381Y-38306224D01*
X86774543Y-38306224D01*
X86826038Y-38254729D01*
X87070631Y-37888669D01*
X87239110Y-37481925D01*
X87325000Y-37050128D01*
X87325000Y-37007729D01*
X91147299Y-37007729D01*
X91194543Y-37385951D01*
X91314667Y-37747690D01*
X91446688Y-37994683D01*
X91741776Y-38126619D01*
X92911395Y-36957000D01*
X93270605Y-36957000D01*
X94440224Y-38126619D01*
X94735312Y-37994683D01*
X94906159Y-37653955D01*
X95007250Y-37286443D01*
X95034701Y-36906271D01*
X95017232Y-36766419D01*
X98649000Y-36766419D01*
X98649000Y-37147581D01*
X98723361Y-37521419D01*
X98869225Y-37873566D01*
X99080987Y-38190491D01*
X99350509Y-38460013D01*
X99667434Y-38671775D01*
X100019581Y-38817639D01*
X100393419Y-38892000D01*
X100774581Y-38892000D01*
X101148419Y-38817639D01*
X101500566Y-38671775D01*
X101817491Y-38460013D01*
X102087013Y-38190491D01*
X102298775Y-37873566D01*
X102311850Y-37842000D01*
X103163386Y-37842000D01*
X103194595Y-37900387D01*
X103305038Y-38034962D01*
X103439613Y-38145405D01*
X103593149Y-38227472D01*
X103759745Y-38278008D01*
X103932999Y-38295072D01*
X104633001Y-38295072D01*
X104806255Y-38278008D01*
X104972851Y-38227472D01*
X105126387Y-38145405D01*
X105260962Y-38034962D01*
X105283000Y-38008109D01*
X105305038Y-38034962D01*
X105439613Y-38145405D01*
X105593149Y-38227472D01*
X105759745Y-38278008D01*
X105932999Y-38295072D01*
X106633001Y-38295072D01*
X106806255Y-38278008D01*
X106972851Y-38227472D01*
X107126387Y-38145405D01*
X107260962Y-38034962D01*
X107345413Y-37932058D01*
X107394102Y-37952226D01*
X107594061Y-37992000D01*
X107797939Y-37992000D01*
X107997898Y-37952226D01*
X108186256Y-37874205D01*
X108355774Y-37760937D01*
X108499937Y-37616774D01*
X108613205Y-37447256D01*
X108691226Y-37258898D01*
X108731000Y-37058939D01*
X108731000Y-36855061D01*
X108691226Y-36655102D01*
X108613205Y-36466744D01*
X108499937Y-36297226D01*
X108359711Y-36157000D01*
X112734928Y-36157000D01*
X112734928Y-37757000D01*
X112747188Y-37881482D01*
X112783498Y-38001180D01*
X112842463Y-38111494D01*
X112921815Y-38208185D01*
X113018506Y-38287537D01*
X113128820Y-38346502D01*
X113248518Y-38382812D01*
X113373000Y-38395072D01*
X114973000Y-38395072D01*
X115097482Y-38382812D01*
X115217180Y-38346502D01*
X115327494Y-38287537D01*
X115424185Y-38208185D01*
X115503537Y-38111494D01*
X115562502Y-38001180D01*
X115598812Y-37881482D01*
X115611072Y-37757000D01*
X115611072Y-36766419D01*
X127605000Y-36766419D01*
X127605000Y-37147581D01*
X127679361Y-37521419D01*
X127825225Y-37873566D01*
X128036987Y-38190491D01*
X128306509Y-38460013D01*
X128623434Y-38671775D01*
X128975581Y-38817639D01*
X129349419Y-38892000D01*
X129730581Y-38892000D01*
X130104419Y-38817639D01*
X130456566Y-38671775D01*
X130773491Y-38460013D01*
X130927280Y-38306224D01*
X135990381Y-38306224D01*
X136122317Y-38601312D01*
X136463045Y-38772159D01*
X136830557Y-38873250D01*
X137210729Y-38900701D01*
X137588951Y-38853457D01*
X137950690Y-38733333D01*
X138197683Y-38601312D01*
X138329619Y-38306224D01*
X137160000Y-37136605D01*
X135990381Y-38306224D01*
X130927280Y-38306224D01*
X131043013Y-38190491D01*
X131254775Y-37873566D01*
X131400639Y-37521419D01*
X131475000Y-37147581D01*
X131475000Y-37007729D01*
X135216299Y-37007729D01*
X135263543Y-37385951D01*
X135383667Y-37747690D01*
X135515688Y-37994683D01*
X135810776Y-38126619D01*
X136980395Y-36957000D01*
X137339605Y-36957000D01*
X138509224Y-38126619D01*
X138804312Y-37994683D01*
X138975159Y-37653955D01*
X139076250Y-37286443D01*
X139103701Y-36906271D01*
X139066678Y-36609872D01*
X143815000Y-36609872D01*
X143815000Y-37050128D01*
X143900890Y-37481925D01*
X144069369Y-37888669D01*
X144313962Y-38254729D01*
X144625271Y-38566038D01*
X144991331Y-38810631D01*
X145398075Y-38979110D01*
X145829872Y-39065000D01*
X146270128Y-39065000D01*
X146701925Y-38979110D01*
X147108669Y-38810631D01*
X147474729Y-38566038D01*
X147786038Y-38254729D01*
X148030631Y-37888669D01*
X148199110Y-37481925D01*
X148285000Y-37050128D01*
X148285000Y-36609872D01*
X148199110Y-36178075D01*
X148030631Y-35771331D01*
X147786038Y-35405271D01*
X147474729Y-35093962D01*
X147108669Y-34849369D01*
X146701925Y-34680890D01*
X146270128Y-34595000D01*
X145829872Y-34595000D01*
X145398075Y-34680890D01*
X144991331Y-34849369D01*
X144625271Y-35093962D01*
X144313962Y-35405271D01*
X144069369Y-35771331D01*
X143900890Y-36178075D01*
X143815000Y-36609872D01*
X139066678Y-36609872D01*
X139056457Y-36528049D01*
X138936333Y-36166310D01*
X138804312Y-35919317D01*
X138509224Y-35787381D01*
X137339605Y-36957000D01*
X136980395Y-36957000D01*
X135810776Y-35787381D01*
X135515688Y-35919317D01*
X135344841Y-36260045D01*
X135243750Y-36627557D01*
X135216299Y-37007729D01*
X131475000Y-37007729D01*
X131475000Y-36766419D01*
X131400639Y-36392581D01*
X131254775Y-36040434D01*
X131043013Y-35723509D01*
X130927280Y-35607776D01*
X135990381Y-35607776D01*
X137160000Y-36777395D01*
X138329619Y-35607776D01*
X138197683Y-35312688D01*
X137856955Y-35141841D01*
X137489443Y-35040750D01*
X137109271Y-35013299D01*
X136731049Y-35060543D01*
X136369310Y-35180667D01*
X136122317Y-35312688D01*
X135990381Y-35607776D01*
X130927280Y-35607776D01*
X130773491Y-35453987D01*
X130456566Y-35242225D01*
X130104419Y-35096361D01*
X129730581Y-35022000D01*
X129349419Y-35022000D01*
X128975581Y-35096361D01*
X128623434Y-35242225D01*
X128306509Y-35453987D01*
X128036987Y-35723509D01*
X127825225Y-36040434D01*
X127679361Y-36392581D01*
X127605000Y-36766419D01*
X115611072Y-36766419D01*
X115611072Y-36157000D01*
X115598812Y-36032518D01*
X115562502Y-35912820D01*
X115503537Y-35802506D01*
X115424185Y-35705815D01*
X115327494Y-35626463D01*
X115217180Y-35567498D01*
X115097482Y-35531188D01*
X114973000Y-35518928D01*
X113373000Y-35518928D01*
X113248518Y-35531188D01*
X113128820Y-35567498D01*
X113018506Y-35626463D01*
X112921815Y-35705815D01*
X112842463Y-35802506D01*
X112783498Y-35912820D01*
X112747188Y-36032518D01*
X112734928Y-36157000D01*
X108359711Y-36157000D01*
X108355774Y-36153063D01*
X108186256Y-36039795D01*
X107997898Y-35961774D01*
X107797939Y-35922000D01*
X107594061Y-35922000D01*
X107394102Y-35961774D01*
X107345413Y-35981942D01*
X107260962Y-35879038D01*
X107126387Y-35768595D01*
X106972851Y-35686528D01*
X106806255Y-35635992D01*
X106633001Y-35618928D01*
X105932999Y-35618928D01*
X105759745Y-35635992D01*
X105593149Y-35686528D01*
X105439613Y-35768595D01*
X105305038Y-35879038D01*
X105283000Y-35905891D01*
X105260962Y-35879038D01*
X105126387Y-35768595D01*
X104972851Y-35686528D01*
X104806255Y-35635992D01*
X104633001Y-35618928D01*
X103932999Y-35618928D01*
X103759745Y-35635992D01*
X103593149Y-35686528D01*
X103439613Y-35768595D01*
X103305038Y-35879038D01*
X103194595Y-36013613D01*
X103163386Y-36072000D01*
X102311850Y-36072000D01*
X102298775Y-36040434D01*
X102087013Y-35723509D01*
X101817491Y-35453987D01*
X101500566Y-35242225D01*
X101148419Y-35096361D01*
X100774581Y-35022000D01*
X100393419Y-35022000D01*
X100019581Y-35096361D01*
X99667434Y-35242225D01*
X99350509Y-35453987D01*
X99080987Y-35723509D01*
X98869225Y-36040434D01*
X98723361Y-36392581D01*
X98649000Y-36766419D01*
X95017232Y-36766419D01*
X94987457Y-36528049D01*
X94867333Y-36166310D01*
X94735312Y-35919317D01*
X94440224Y-35787381D01*
X93270605Y-36957000D01*
X92911395Y-36957000D01*
X91741776Y-35787381D01*
X91446688Y-35919317D01*
X91275841Y-36260045D01*
X91174750Y-36627557D01*
X91147299Y-37007729D01*
X87325000Y-37007729D01*
X87325000Y-36609872D01*
X87239110Y-36178075D01*
X87070631Y-35771331D01*
X86961348Y-35607776D01*
X91921381Y-35607776D01*
X93091000Y-36777395D01*
X94260619Y-35607776D01*
X94128683Y-35312688D01*
X93787955Y-35141841D01*
X93420443Y-35040750D01*
X93040271Y-35013299D01*
X92662049Y-35060543D01*
X92300310Y-35180667D01*
X92053317Y-35312688D01*
X91921381Y-35607776D01*
X86961348Y-35607776D01*
X86826038Y-35405271D01*
X86514729Y-35093962D01*
X86148669Y-34849369D01*
X85741925Y-34680890D01*
X85310128Y-34595000D01*
X84869872Y-34595000D01*
X84438075Y-34680890D01*
X84031331Y-34849369D01*
X83665271Y-35093962D01*
X83353962Y-35405271D01*
X83109369Y-35771331D01*
X82940890Y-36178075D01*
X82855000Y-36609872D01*
X81407000Y-36609872D01*
X81407000Y-33186541D01*
X149733000Y-33107460D01*
X149733000Y-91233772D01*
G04 #@! TA.AperFunction,Conductor*
D28*
G36*
X149733000Y-91233772D02*
G01*
X81407000Y-91312853D01*
X81407000Y-87409872D01*
X82855000Y-87409872D01*
X82855000Y-87850128D01*
X82940890Y-88281925D01*
X83109369Y-88688669D01*
X83353962Y-89054729D01*
X83665271Y-89366038D01*
X84031331Y-89610631D01*
X84438075Y-89779110D01*
X84869872Y-89865000D01*
X85310128Y-89865000D01*
X85741925Y-89779110D01*
X86148669Y-89610631D01*
X86514729Y-89366038D01*
X86826038Y-89054729D01*
X87070631Y-88688669D01*
X87239110Y-88281925D01*
X87325000Y-87850128D01*
X87325000Y-87742665D01*
X114770000Y-87742665D01*
X114770000Y-88025335D01*
X114825147Y-88302574D01*
X114933320Y-88563727D01*
X115090363Y-88798759D01*
X115290241Y-88998637D01*
X115525273Y-89155680D01*
X115786426Y-89263853D01*
X116063665Y-89319000D01*
X116346335Y-89319000D01*
X116623574Y-89263853D01*
X116884727Y-89155680D01*
X117119759Y-88998637D01*
X117319637Y-88798759D01*
X117476680Y-88563727D01*
X117584853Y-88302574D01*
X117640000Y-88025335D01*
X117640000Y-87742665D01*
X117630205Y-87693419D01*
X127605000Y-87693419D01*
X127605000Y-88074581D01*
X127679361Y-88448419D01*
X127825225Y-88800566D01*
X128036987Y-89117491D01*
X128306509Y-89387013D01*
X128623434Y-89598775D01*
X128975581Y-89744639D01*
X129349419Y-89819000D01*
X129730581Y-89819000D01*
X130104419Y-89744639D01*
X130456566Y-89598775D01*
X130773491Y-89387013D01*
X130927280Y-89233224D01*
X135990381Y-89233224D01*
X136122317Y-89528312D01*
X136463045Y-89699159D01*
X136830557Y-89800250D01*
X137210729Y-89827701D01*
X137588951Y-89780457D01*
X137950690Y-89660333D01*
X138197683Y-89528312D01*
X138329619Y-89233224D01*
X137160000Y-88063605D01*
X135990381Y-89233224D01*
X130927280Y-89233224D01*
X131043013Y-89117491D01*
X131254775Y-88800566D01*
X131400639Y-88448419D01*
X131475000Y-88074581D01*
X131475000Y-87934729D01*
X135216299Y-87934729D01*
X135263543Y-88312951D01*
X135383667Y-88674690D01*
X135515688Y-88921683D01*
X135810776Y-89053619D01*
X136980395Y-87884000D01*
X137339605Y-87884000D01*
X138509224Y-89053619D01*
X138804312Y-88921683D01*
X138975159Y-88580955D01*
X139076250Y-88213443D01*
X139103701Y-87833271D01*
X139056457Y-87455049D01*
X139041455Y-87409872D01*
X143815000Y-87409872D01*
X143815000Y-87850128D01*
X143900890Y-88281925D01*
X144069369Y-88688669D01*
X144313962Y-89054729D01*
X144625271Y-89366038D01*
X144991331Y-89610631D01*
X145398075Y-89779110D01*
X145829872Y-89865000D01*
X146270128Y-89865000D01*
X146701925Y-89779110D01*
X147108669Y-89610631D01*
X147474729Y-89366038D01*
X147786038Y-89054729D01*
X148030631Y-88688669D01*
X148199110Y-88281925D01*
X148285000Y-87850128D01*
X148285000Y-87409872D01*
X148199110Y-86978075D01*
X148030631Y-86571331D01*
X147786038Y-86205271D01*
X147474729Y-85893962D01*
X147108669Y-85649369D01*
X146701925Y-85480890D01*
X146270128Y-85395000D01*
X145829872Y-85395000D01*
X145398075Y-85480890D01*
X144991331Y-85649369D01*
X144625271Y-85893962D01*
X144313962Y-86205271D01*
X144069369Y-86571331D01*
X143900890Y-86978075D01*
X143815000Y-87409872D01*
X139041455Y-87409872D01*
X138936333Y-87093310D01*
X138804312Y-86846317D01*
X138509224Y-86714381D01*
X137339605Y-87884000D01*
X136980395Y-87884000D01*
X135810776Y-86714381D01*
X135515688Y-86846317D01*
X135344841Y-87187045D01*
X135243750Y-87554557D01*
X135216299Y-87934729D01*
X131475000Y-87934729D01*
X131475000Y-87693419D01*
X131400639Y-87319581D01*
X131254775Y-86967434D01*
X131043013Y-86650509D01*
X130927280Y-86534776D01*
X135990381Y-86534776D01*
X137160000Y-87704395D01*
X138329619Y-86534776D01*
X138197683Y-86239688D01*
X137856955Y-86068841D01*
X137489443Y-85967750D01*
X137109271Y-85940299D01*
X136731049Y-85987543D01*
X136369310Y-86107667D01*
X136122317Y-86239688D01*
X135990381Y-86534776D01*
X130927280Y-86534776D01*
X130773491Y-86380987D01*
X130456566Y-86169225D01*
X130104419Y-86023361D01*
X129730581Y-85949000D01*
X129349419Y-85949000D01*
X128975581Y-86023361D01*
X128623434Y-86169225D01*
X128306509Y-86380987D01*
X128036987Y-86650509D01*
X127825225Y-86967434D01*
X127679361Y-87319581D01*
X127605000Y-87693419D01*
X117630205Y-87693419D01*
X117584853Y-87465426D01*
X117476680Y-87204273D01*
X117319637Y-86969241D01*
X117119759Y-86769363D01*
X116884727Y-86612320D01*
X116623574Y-86504147D01*
X116346335Y-86449000D01*
X116063665Y-86449000D01*
X115786426Y-86504147D01*
X115525273Y-86612320D01*
X115290241Y-86769363D01*
X115090363Y-86969241D01*
X114933320Y-87204273D01*
X114825147Y-87465426D01*
X114770000Y-87742665D01*
X87325000Y-87742665D01*
X87325000Y-87409872D01*
X87239110Y-86978075D01*
X87070631Y-86571331D01*
X86826038Y-86205271D01*
X86514729Y-85893962D01*
X86148669Y-85649369D01*
X85741925Y-85480890D01*
X85310128Y-85395000D01*
X84869872Y-85395000D01*
X84438075Y-85480890D01*
X84031331Y-85649369D01*
X83665271Y-85893962D01*
X83353962Y-86205271D01*
X83109369Y-86571331D01*
X82940890Y-86978075D01*
X82855000Y-87409872D01*
X81407000Y-87409872D01*
X81407000Y-85184000D01*
X114766928Y-85184000D01*
X114779188Y-85308482D01*
X114815498Y-85428180D01*
X114874463Y-85538494D01*
X114953815Y-85635185D01*
X115050506Y-85714537D01*
X115160820Y-85773502D01*
X115280518Y-85809812D01*
X115405000Y-85822072D01*
X115919250Y-85819000D01*
X116078000Y-85660250D01*
X116078000Y-84511000D01*
X116332000Y-84511000D01*
X116332000Y-85660250D01*
X116490750Y-85819000D01*
X117005000Y-85822072D01*
X117129482Y-85809812D01*
X117249180Y-85773502D01*
X117359494Y-85714537D01*
X117456185Y-85635185D01*
X117535537Y-85538494D01*
X117594502Y-85428180D01*
X117630812Y-85308482D01*
X117643072Y-85184000D01*
X117640000Y-84669750D01*
X117481250Y-84511000D01*
X116332000Y-84511000D01*
X116078000Y-84511000D01*
X114928750Y-84511000D01*
X114770000Y-84669750D01*
X114766928Y-85184000D01*
X81407000Y-85184000D01*
X81407000Y-83584000D01*
X114766928Y-83584000D01*
X114770000Y-84098250D01*
X114928750Y-84257000D01*
X116078000Y-84257000D01*
X116078000Y-83107750D01*
X116332000Y-83107750D01*
X116332000Y-84257000D01*
X117481250Y-84257000D01*
X117640000Y-84098250D01*
X117643072Y-83584000D01*
X117630812Y-83459518D01*
X117594502Y-83339820D01*
X117535537Y-83229506D01*
X117456185Y-83132815D01*
X117359494Y-83053463D01*
X117249180Y-82994498D01*
X117129482Y-82958188D01*
X117005000Y-82945928D01*
X116490750Y-82949000D01*
X116332000Y-83107750D01*
X116078000Y-83107750D01*
X115919250Y-82949000D01*
X115405000Y-82945928D01*
X115280518Y-82958188D01*
X115160820Y-82994498D01*
X115050506Y-83053463D01*
X114953815Y-83132815D01*
X114874463Y-83229506D01*
X114815498Y-83339820D01*
X114779188Y-83459518D01*
X114766928Y-83584000D01*
X81407000Y-83584000D01*
X81407000Y-81624000D01*
X118238428Y-81624000D01*
X118250688Y-81748482D01*
X118286998Y-81868180D01*
X118345963Y-81978494D01*
X118425315Y-82075185D01*
X118522006Y-82154537D01*
X118632320Y-82213502D01*
X118752018Y-82249812D01*
X118876500Y-82262072D01*
X119178250Y-82259000D01*
X119337000Y-82100250D01*
X119337000Y-81026000D01*
X118400250Y-81026000D01*
X118241500Y-81184750D01*
X118238428Y-81624000D01*
X81407000Y-81624000D01*
X81407000Y-80174000D01*
X118238428Y-80174000D01*
X118241500Y-80613250D01*
X118400250Y-80772000D01*
X119337000Y-80772000D01*
X119337000Y-79697750D01*
X119178250Y-79539000D01*
X118876500Y-79535928D01*
X118752018Y-79548188D01*
X118632320Y-79584498D01*
X118522006Y-79643463D01*
X118425315Y-79722815D01*
X118345963Y-79819506D01*
X118286998Y-79929820D01*
X118250688Y-80049518D01*
X118238428Y-80174000D01*
X81407000Y-80174000D01*
X81407000Y-76654268D01*
X106115000Y-76654268D01*
X106115000Y-77015732D01*
X106185518Y-77370250D01*
X106323844Y-77704199D01*
X106524662Y-78004744D01*
X106780256Y-78260338D01*
X107080801Y-78461156D01*
X107414750Y-78599482D01*
X107769268Y-78670000D01*
X108130732Y-78670000D01*
X108485250Y-78599482D01*
X108819199Y-78461156D01*
X109119744Y-78260338D01*
X109375338Y-78004744D01*
X109576156Y-77704199D01*
X109714482Y-77370250D01*
X109785000Y-77015732D01*
X109785000Y-76654268D01*
X109714482Y-76299750D01*
X109576156Y-75965801D01*
X109375338Y-75665256D01*
X109119744Y-75409662D01*
X108819199Y-75208844D01*
X108485250Y-75070518D01*
X108130732Y-75000000D01*
X107769268Y-75000000D01*
X107414750Y-75070518D01*
X107080801Y-75208844D01*
X106780256Y-75409662D01*
X106524662Y-75665256D01*
X106323844Y-75965801D01*
X106185518Y-76299750D01*
X106115000Y-76654268D01*
X81407000Y-76654268D01*
X81407000Y-74969316D01*
X118924500Y-74969316D01*
X118924500Y-75271684D01*
X118983489Y-75568243D01*
X119099201Y-75847595D01*
X119267188Y-76099005D01*
X119480995Y-76312812D01*
X119732405Y-76480799D01*
X120011757Y-76596511D01*
X120228749Y-76639673D01*
X120036951Y-76831471D01*
X120003184Y-76859183D01*
X119975471Y-76892951D01*
X119975468Y-76892954D01*
X119892590Y-76993941D01*
X119810412Y-77147687D01*
X119759805Y-77314510D01*
X119742719Y-77488000D01*
X119747001Y-77531478D01*
X119747001Y-77606262D01*
X119679038Y-77662038D01*
X119568595Y-77796613D01*
X119486528Y-77950149D01*
X119435992Y-78116745D01*
X119418928Y-78289999D01*
X119418928Y-79190001D01*
X119435992Y-79363255D01*
X119486528Y-79529851D01*
X119568595Y-79683387D01*
X119591000Y-79710688D01*
X119591000Y-80772000D01*
X119611000Y-80772000D01*
X119611000Y-81026000D01*
X119591000Y-81026000D01*
X119591000Y-82100250D01*
X119690505Y-82199755D01*
X119609226Y-82254063D01*
X119465063Y-82398226D01*
X119351795Y-82567744D01*
X119273774Y-82756102D01*
X119234000Y-82956061D01*
X119234000Y-83159939D01*
X119273774Y-83359898D01*
X119351795Y-83548256D01*
X119465063Y-83717774D01*
X119609226Y-83861937D01*
X119778744Y-83975205D01*
X119967102Y-84053226D01*
X120167061Y-84093000D01*
X120370939Y-84093000D01*
X120570898Y-84053226D01*
X120759256Y-83975205D01*
X120807454Y-83943000D01*
X121028410Y-83943000D01*
X121031498Y-83953180D01*
X121090463Y-84063494D01*
X121169815Y-84160185D01*
X121266506Y-84239537D01*
X121376820Y-84298502D01*
X121496518Y-84334812D01*
X121621000Y-84347072D01*
X122066428Y-84347072D01*
X122066428Y-87009000D01*
X122078688Y-87133482D01*
X122114998Y-87253180D01*
X122173963Y-87363494D01*
X122253315Y-87460185D01*
X122350006Y-87539537D01*
X122460320Y-87598502D01*
X122580018Y-87634812D01*
X122704500Y-87647072D01*
X124437500Y-87647072D01*
X124561982Y-87634812D01*
X124681680Y-87598502D01*
X124791994Y-87539537D01*
X124888685Y-87460185D01*
X124968037Y-87363494D01*
X125027002Y-87253180D01*
X125063312Y-87133482D01*
X125075572Y-87009000D01*
X125075572Y-84344000D01*
X125198002Y-84344000D01*
X125198002Y-84185252D01*
X125356750Y-84344000D01*
X125521000Y-84347072D01*
X125645482Y-84334812D01*
X125765180Y-84298502D01*
X125875494Y-84239537D01*
X125972185Y-84160185D01*
X126051537Y-84063494D01*
X126110502Y-83953180D01*
X126146812Y-83833482D01*
X126159072Y-83709000D01*
X126156000Y-83344750D01*
X125997250Y-83186000D01*
X125198000Y-83186000D01*
X125198000Y-83206000D01*
X124944000Y-83206000D01*
X124944000Y-83186000D01*
X124924000Y-83186000D01*
X124924000Y-82932000D01*
X124944000Y-82932000D01*
X124944000Y-82912000D01*
X125198000Y-82912000D01*
X125198000Y-82932000D01*
X125997250Y-82932000D01*
X126156000Y-82773250D01*
X126159072Y-82409000D01*
X126146812Y-82284518D01*
X126139713Y-82261117D01*
X126233500Y-82262072D01*
X126357982Y-82249812D01*
X126477680Y-82213502D01*
X126587994Y-82154537D01*
X126684685Y-82075185D01*
X126764037Y-81978494D01*
X126823002Y-81868180D01*
X126859312Y-81748482D01*
X126871572Y-81624000D01*
X126868500Y-81184750D01*
X126709750Y-81026000D01*
X125773000Y-81026000D01*
X125773000Y-81046000D01*
X125519000Y-81046000D01*
X125519000Y-81026000D01*
X125499000Y-81026000D01*
X125499000Y-80772000D01*
X125519000Y-80772000D01*
X125519000Y-80752000D01*
X125773000Y-80752000D01*
X125773000Y-80772000D01*
X126709750Y-80772000D01*
X126868500Y-80613250D01*
X126871572Y-80174000D01*
X126861691Y-80073670D01*
X126990255Y-80061008D01*
X127156851Y-80010472D01*
X127310387Y-79928405D01*
X127444962Y-79817962D01*
X127555405Y-79683387D01*
X127637472Y-79529851D01*
X127688008Y-79363255D01*
X127705072Y-79190001D01*
X127705072Y-78289999D01*
X127688008Y-78116745D01*
X127637472Y-77950149D01*
X127562240Y-77809400D01*
X129522728Y-77809400D01*
X129534988Y-77933882D01*
X129571298Y-78053580D01*
X129630263Y-78163894D01*
X129709615Y-78260585D01*
X129806306Y-78339937D01*
X129916620Y-78398902D01*
X130036318Y-78435212D01*
X130160800Y-78447472D01*
X130575050Y-78444400D01*
X130733800Y-78285650D01*
X130733800Y-77336400D01*
X130987800Y-77336400D01*
X130987800Y-78285650D01*
X131146550Y-78444400D01*
X131560800Y-78447472D01*
X131685282Y-78435212D01*
X131804980Y-78398902D01*
X131915294Y-78339937D01*
X132011985Y-78260585D01*
X132091337Y-78163894D01*
X132150302Y-78053580D01*
X132186612Y-77933882D01*
X132198872Y-77809400D01*
X132195800Y-77495150D01*
X132037050Y-77336400D01*
X130987800Y-77336400D01*
X130733800Y-77336400D01*
X129684550Y-77336400D01*
X129525800Y-77495150D01*
X129522728Y-77809400D01*
X127562240Y-77809400D01*
X127555405Y-77796613D01*
X127444962Y-77662038D01*
X127310387Y-77551595D01*
X127156851Y-77469528D01*
X126990255Y-77418992D01*
X126817001Y-77401928D01*
X126424500Y-77401928D01*
X126424500Y-76658572D01*
X126439500Y-76658572D01*
X126563982Y-76646312D01*
X126683680Y-76610002D01*
X126793994Y-76551037D01*
X126890685Y-76471685D01*
X126970037Y-76374994D01*
X127029002Y-76264680D01*
X127065312Y-76144982D01*
X127077572Y-76020500D01*
X127077572Y-74220500D01*
X127065312Y-74096018D01*
X127029002Y-73976320D01*
X126970037Y-73866006D01*
X126890685Y-73769315D01*
X126793994Y-73689963D01*
X126683680Y-73630998D01*
X126563982Y-73594688D01*
X126558739Y-73594172D01*
X126642462Y-73525462D01*
X126708495Y-73445000D01*
X127021928Y-73445000D01*
X127021928Y-73853000D01*
X127034188Y-73977482D01*
X127070498Y-74097180D01*
X127129463Y-74207494D01*
X127208815Y-74304185D01*
X127305506Y-74383537D01*
X127415820Y-74442502D01*
X127535518Y-74478812D01*
X127660000Y-74491072D01*
X128880000Y-74491072D01*
X129004482Y-74478812D01*
X129124180Y-74442502D01*
X129234494Y-74383537D01*
X129331185Y-74304185D01*
X129410537Y-74207494D01*
X129469502Y-74097180D01*
X129505812Y-73977482D01*
X129518072Y-73853000D01*
X129518072Y-73203000D01*
X129505812Y-73078518D01*
X129498071Y-73053000D01*
X129505812Y-73027482D01*
X129518072Y-72903000D01*
X129518072Y-72253000D01*
X129505812Y-72128518D01*
X129498071Y-72103000D01*
X129505812Y-72077482D01*
X129518072Y-71953000D01*
X129515000Y-71913750D01*
X129356250Y-71755000D01*
X129274141Y-71755000D01*
X129234494Y-71722463D01*
X129124180Y-71663498D01*
X129004482Y-71627188D01*
X128880000Y-71614928D01*
X127660000Y-71614928D01*
X127535518Y-71627188D01*
X127415820Y-71663498D01*
X127394302Y-71675000D01*
X126708495Y-71675000D01*
X126642462Y-71594538D01*
X126635906Y-71589158D01*
X126715685Y-71523685D01*
X126795037Y-71426994D01*
X126854002Y-71316680D01*
X126858151Y-71303000D01*
X127021928Y-71303000D01*
X127025000Y-71342250D01*
X127183750Y-71501000D01*
X128143000Y-71501000D01*
X128143000Y-70826750D01*
X128397000Y-70826750D01*
X128397000Y-71501000D01*
X129356250Y-71501000D01*
X129515000Y-71342250D01*
X129518072Y-71303000D01*
X129505812Y-71178518D01*
X129469502Y-71058820D01*
X129427759Y-70980725D01*
X129545150Y-71043472D01*
X129682514Y-71085141D01*
X129654188Y-71178518D01*
X129641928Y-71303000D01*
X129641928Y-71953000D01*
X129654188Y-72077482D01*
X129690498Y-72197180D01*
X129749463Y-72307494D01*
X129828815Y-72404185D01*
X129925506Y-72483537D01*
X130035820Y-72542502D01*
X130152841Y-72578000D01*
X130035820Y-72613498D01*
X129925506Y-72672463D01*
X129828815Y-72751815D01*
X129749463Y-72848506D01*
X129690498Y-72958820D01*
X129654188Y-73078518D01*
X129641928Y-73203000D01*
X129641928Y-73853000D01*
X129654188Y-73977482D01*
X129690498Y-74097180D01*
X129749463Y-74207494D01*
X129775976Y-74239800D01*
X129672395Y-74366013D01*
X129590328Y-74519549D01*
X129539792Y-74686145D01*
X129522728Y-74859399D01*
X129522728Y-75559401D01*
X129539792Y-75732655D01*
X129590328Y-75899251D01*
X129672395Y-76052787D01*
X129739076Y-76134037D01*
X129709615Y-76158215D01*
X129630263Y-76254906D01*
X129571298Y-76365220D01*
X129534988Y-76484918D01*
X129522728Y-76609400D01*
X129525800Y-76923650D01*
X129684550Y-77082400D01*
X130733800Y-77082400D01*
X130733800Y-77062400D01*
X130987800Y-77062400D01*
X130987800Y-77082400D01*
X132037050Y-77082400D01*
X132195800Y-76923650D01*
X132198872Y-76609400D01*
X132186612Y-76484918D01*
X132150302Y-76365220D01*
X132091337Y-76254906D01*
X132082715Y-76244400D01*
X132232739Y-76244400D01*
X132432698Y-76204626D01*
X132621056Y-76126605D01*
X132790574Y-76013337D01*
X132934737Y-75869174D01*
X133048005Y-75699656D01*
X133126026Y-75511298D01*
X133165800Y-75311339D01*
X133165800Y-75107461D01*
X133129217Y-74923544D01*
X133315800Y-74923544D01*
X133315800Y-75190456D01*
X133367872Y-75452239D01*
X133470015Y-75698833D01*
X133618303Y-75920762D01*
X133807038Y-76109497D01*
X134028967Y-76257785D01*
X134196066Y-76327000D01*
X134028967Y-76396215D01*
X133807038Y-76544503D01*
X133618303Y-76733238D01*
X133470015Y-76955167D01*
X133367872Y-77201761D01*
X133315800Y-77463544D01*
X133315800Y-77730456D01*
X133367872Y-77992239D01*
X133470015Y-78238833D01*
X133618303Y-78460762D01*
X133807038Y-78649497D01*
X134028967Y-78797785D01*
X134196066Y-78867000D01*
X134028967Y-78936215D01*
X133807038Y-79084503D01*
X133618303Y-79273238D01*
X133470015Y-79495167D01*
X133367872Y-79741761D01*
X133315800Y-80003544D01*
X133315800Y-80270456D01*
X133367872Y-80532239D01*
X133470015Y-80778833D01*
X133618303Y-81000762D01*
X133807038Y-81189497D01*
X134028967Y-81337785D01*
X134275561Y-81439928D01*
X134537344Y-81492000D01*
X134804256Y-81492000D01*
X135066039Y-81439928D01*
X135312633Y-81337785D01*
X135534562Y-81189497D01*
X135723297Y-81000762D01*
X135871585Y-80778833D01*
X135973728Y-80532239D01*
X136025800Y-80270456D01*
X136025800Y-80003544D01*
X135973728Y-79741761D01*
X135871585Y-79495167D01*
X135723297Y-79273238D01*
X135534562Y-79084503D01*
X135312633Y-78936215D01*
X135145534Y-78867000D01*
X135312633Y-78797785D01*
X135534562Y-78649497D01*
X135723297Y-78460762D01*
X135871585Y-78238833D01*
X135973728Y-77992239D01*
X136025800Y-77730456D01*
X136025800Y-77463544D01*
X135973728Y-77201761D01*
X135871585Y-76955167D01*
X135723297Y-76733238D01*
X135534562Y-76544503D01*
X135312633Y-76396215D01*
X135145534Y-76327000D01*
X135312633Y-76257785D01*
X135534562Y-76109497D01*
X135723297Y-75920762D01*
X135871585Y-75698833D01*
X135973728Y-75452239D01*
X136025800Y-75190456D01*
X136025800Y-74923544D01*
X135973728Y-74661761D01*
X135871585Y-74415167D01*
X135723297Y-74193238D01*
X135534562Y-74004503D01*
X135312633Y-73856215D01*
X135066039Y-73754072D01*
X134804256Y-73702000D01*
X134537344Y-73702000D01*
X134275561Y-73754072D01*
X134028967Y-73856215D01*
X133807038Y-74004503D01*
X133618303Y-74193238D01*
X133470015Y-74415167D01*
X133367872Y-74661761D01*
X133315800Y-74923544D01*
X133129217Y-74923544D01*
X133126026Y-74907502D01*
X133048005Y-74719144D01*
X132934737Y-74549626D01*
X132790574Y-74405463D01*
X132621056Y-74292195D01*
X132432698Y-74214174D01*
X132232739Y-74174400D01*
X132048226Y-74174400D01*
X132089502Y-74097180D01*
X132125812Y-73977482D01*
X132138072Y-73853000D01*
X132138072Y-73203000D01*
X132125812Y-73078518D01*
X132089502Y-72958820D01*
X132030537Y-72848506D01*
X131951185Y-72751815D01*
X131854494Y-72672463D01*
X131744180Y-72613498D01*
X131627159Y-72578000D01*
X131744180Y-72542502D01*
X131797247Y-72514137D01*
X131843744Y-72545205D01*
X132032102Y-72623226D01*
X132232061Y-72663000D01*
X132435939Y-72663000D01*
X132635898Y-72623226D01*
X132824256Y-72545205D01*
X132824550Y-72545009D01*
X132889614Y-72598405D01*
X133043150Y-72680472D01*
X133209746Y-72731008D01*
X133383000Y-72748072D01*
X134333000Y-72748072D01*
X134506254Y-72731008D01*
X134672850Y-72680472D01*
X134826386Y-72598405D01*
X134960962Y-72487962D01*
X134986126Y-72457300D01*
X135080102Y-72496226D01*
X135280061Y-72536000D01*
X135483939Y-72536000D01*
X135683898Y-72496226D01*
X135872256Y-72418205D01*
X136041774Y-72304937D01*
X136185937Y-72160774D01*
X136299205Y-71991256D01*
X136377226Y-71802898D01*
X136417000Y-71602939D01*
X136417000Y-71399061D01*
X136399369Y-71310419D01*
X139924000Y-71310419D01*
X139924000Y-71691581D01*
X139998361Y-72065419D01*
X140144225Y-72417566D01*
X140355987Y-72734491D01*
X140625509Y-73004013D01*
X140942434Y-73215775D01*
X141294581Y-73361639D01*
X141668419Y-73436000D01*
X142049581Y-73436000D01*
X142423419Y-73361639D01*
X142775566Y-73215775D01*
X143092491Y-73004013D01*
X143362013Y-72734491D01*
X143573775Y-72417566D01*
X143719639Y-72065419D01*
X143794000Y-71691581D01*
X143794000Y-71310419D01*
X143719639Y-70936581D01*
X143573775Y-70584434D01*
X143362013Y-70267509D01*
X143092491Y-69997987D01*
X142775566Y-69786225D01*
X142423419Y-69640361D01*
X142049581Y-69566000D01*
X141668419Y-69566000D01*
X141294581Y-69640361D01*
X140942434Y-69786225D01*
X140625509Y-69997987D01*
X140355987Y-70267509D01*
X140144225Y-70584434D01*
X139998361Y-70936581D01*
X139924000Y-71310419D01*
X136399369Y-71310419D01*
X136377226Y-71199102D01*
X136299205Y-71010744D01*
X136185937Y-70841226D01*
X136041774Y-70697063D01*
X135872256Y-70583795D01*
X135683898Y-70505774D01*
X135483939Y-70466000D01*
X135280061Y-70466000D01*
X135080102Y-70505774D01*
X134959412Y-70555766D01*
X134954406Y-70551658D01*
X135034185Y-70486185D01*
X135113537Y-70389494D01*
X135172502Y-70279180D01*
X135208812Y-70159482D01*
X135221072Y-70035000D01*
X135218000Y-69733250D01*
X135059250Y-69574500D01*
X133985000Y-69574500D01*
X133985000Y-69594500D01*
X133731000Y-69594500D01*
X133731000Y-69574500D01*
X133711000Y-69574500D01*
X133711000Y-69320500D01*
X133731000Y-69320500D01*
X133731000Y-68383750D01*
X133985000Y-68383750D01*
X133985000Y-69320500D01*
X135059250Y-69320500D01*
X135218000Y-69161750D01*
X135221072Y-68860000D01*
X135208812Y-68735518D01*
X135172502Y-68615820D01*
X135113537Y-68505506D01*
X135034185Y-68408815D01*
X134937494Y-68329463D01*
X134827180Y-68270498D01*
X134707482Y-68234188D01*
X134583000Y-68221928D01*
X134143750Y-68225000D01*
X133985000Y-68383750D01*
X133731000Y-68383750D01*
X133572250Y-68225000D01*
X133133000Y-68221928D01*
X133008518Y-68234188D01*
X132888820Y-68270498D01*
X132778506Y-68329463D01*
X132681815Y-68408815D01*
X132602463Y-68505506D01*
X132543498Y-68615820D01*
X132507188Y-68735518D01*
X132502423Y-68783902D01*
X132473405Y-68729614D01*
X132362962Y-68595038D01*
X132228386Y-68484595D01*
X132074850Y-68402528D01*
X131908254Y-68351992D01*
X131735000Y-68334928D01*
X129885000Y-68334928D01*
X129711746Y-68351992D01*
X129545150Y-68402528D01*
X129391614Y-68484595D01*
X129257038Y-68595038D01*
X129146595Y-68729614D01*
X129064528Y-68883150D01*
X129013992Y-69049746D01*
X128996928Y-69223000D01*
X128996928Y-70223000D01*
X129013992Y-70396254D01*
X129064528Y-70562850D01*
X129146595Y-70716386D01*
X129159889Y-70732585D01*
X129124180Y-70713498D01*
X129004482Y-70677188D01*
X128880000Y-70664928D01*
X128555750Y-70668000D01*
X128397000Y-70826750D01*
X128143000Y-70826750D01*
X127984250Y-70668000D01*
X127660000Y-70664928D01*
X127535518Y-70677188D01*
X127415820Y-70713498D01*
X127305506Y-70772463D01*
X127208815Y-70851815D01*
X127129463Y-70948506D01*
X127070498Y-71058820D01*
X127034188Y-71178518D01*
X127021928Y-71303000D01*
X126858151Y-71303000D01*
X126890312Y-71196982D01*
X126902572Y-71072500D01*
X126899500Y-70770750D01*
X126740750Y-70612000D01*
X125666500Y-70612000D01*
X125666500Y-70632000D01*
X125412500Y-70632000D01*
X125412500Y-70612000D01*
X125392500Y-70612000D01*
X125392500Y-70358000D01*
X125412500Y-70358000D01*
X125412500Y-69421250D01*
X125666500Y-69421250D01*
X125666500Y-70358000D01*
X126740750Y-70358000D01*
X126899500Y-70199250D01*
X126902572Y-69897500D01*
X126890312Y-69773018D01*
X126854002Y-69653320D01*
X126795037Y-69543006D01*
X126715685Y-69446315D01*
X126618994Y-69366963D01*
X126508680Y-69307998D01*
X126388982Y-69271688D01*
X126264500Y-69259428D01*
X125825250Y-69262500D01*
X125666500Y-69421250D01*
X125412500Y-69421250D01*
X125253750Y-69262500D01*
X124814500Y-69259428D01*
X124690018Y-69271688D01*
X124570320Y-69307998D01*
X124460006Y-69366963D01*
X124422737Y-69397549D01*
X124297351Y-69330528D01*
X124130755Y-69279992D01*
X123957501Y-69262928D01*
X123057499Y-69262928D01*
X122884245Y-69279992D01*
X122717649Y-69330528D01*
X122564113Y-69412595D01*
X122466548Y-69492664D01*
X122382387Y-69423595D01*
X122228851Y-69341528D01*
X122062255Y-69290992D01*
X121889001Y-69273928D01*
X121188999Y-69273928D01*
X121015745Y-69290992D01*
X120849149Y-69341528D01*
X120695613Y-69423595D01*
X120614363Y-69490276D01*
X120590185Y-69460815D01*
X120493494Y-69381463D01*
X120383180Y-69322498D01*
X120263482Y-69286188D01*
X120139000Y-69273928D01*
X119824750Y-69277000D01*
X119666000Y-69435750D01*
X119666000Y-70485000D01*
X119686000Y-70485000D01*
X119686000Y-70739000D01*
X119666000Y-70739000D01*
X119666000Y-71788250D01*
X119824750Y-71947000D01*
X120139000Y-71950072D01*
X120263482Y-71937812D01*
X120383180Y-71901502D01*
X120493494Y-71842537D01*
X120590185Y-71763185D01*
X120614363Y-71733724D01*
X120654000Y-71766254D01*
X120654001Y-73594116D01*
X120610684Y-73585500D01*
X120308316Y-73585500D01*
X120011757Y-73644489D01*
X119732405Y-73760201D01*
X119480995Y-73928188D01*
X119267188Y-74141995D01*
X119099201Y-74393405D01*
X118983489Y-74672757D01*
X118924500Y-74969316D01*
X81407000Y-74969316D01*
X81407000Y-69659419D01*
X84425000Y-69659419D01*
X84425000Y-70040581D01*
X84499361Y-70414419D01*
X84645225Y-70766566D01*
X84856987Y-71083491D01*
X85126509Y-71353013D01*
X85443434Y-71564775D01*
X85795581Y-71710639D01*
X86169419Y-71785000D01*
X86550581Y-71785000D01*
X86924419Y-71710639D01*
X87276566Y-71564775D01*
X87593491Y-71353013D01*
X87634504Y-71312000D01*
X118300928Y-71312000D01*
X118313188Y-71436482D01*
X118349498Y-71556180D01*
X118408463Y-71666494D01*
X118487815Y-71763185D01*
X118584506Y-71842537D01*
X118694820Y-71901502D01*
X118814518Y-71937812D01*
X118939000Y-71950072D01*
X119253250Y-71947000D01*
X119412000Y-71788250D01*
X119412000Y-70739000D01*
X118462750Y-70739000D01*
X118304000Y-70897750D01*
X118300928Y-71312000D01*
X87634504Y-71312000D01*
X87863013Y-71083491D01*
X88074775Y-70766566D01*
X88170692Y-70535000D01*
X106111928Y-70535000D01*
X106124188Y-70659482D01*
X106160498Y-70779180D01*
X106219463Y-70889494D01*
X106298815Y-70986185D01*
X106395506Y-71065537D01*
X106505820Y-71124502D01*
X106625518Y-71160812D01*
X106750000Y-71173072D01*
X107664250Y-71170000D01*
X107823000Y-71011250D01*
X107823000Y-69462000D01*
X108077000Y-69462000D01*
X108077000Y-71011250D01*
X108235750Y-71170000D01*
X109150000Y-71173072D01*
X109274482Y-71160812D01*
X109394180Y-71124502D01*
X109504494Y-71065537D01*
X109601185Y-70986185D01*
X109680537Y-70889494D01*
X109739502Y-70779180D01*
X109775812Y-70659482D01*
X109788072Y-70535000D01*
X109785979Y-69912000D01*
X118300928Y-69912000D01*
X118304000Y-70326250D01*
X118462750Y-70485000D01*
X119412000Y-70485000D01*
X119412000Y-69435750D01*
X119253250Y-69277000D01*
X118939000Y-69273928D01*
X118814518Y-69286188D01*
X118694820Y-69322498D01*
X118584506Y-69381463D01*
X118487815Y-69460815D01*
X118408463Y-69557506D01*
X118349498Y-69667820D01*
X118313188Y-69787518D01*
X118300928Y-69912000D01*
X109785979Y-69912000D01*
X109785000Y-69620750D01*
X109626250Y-69462000D01*
X108077000Y-69462000D01*
X107823000Y-69462000D01*
X106273750Y-69462000D01*
X106115000Y-69620750D01*
X106111928Y-70535000D01*
X88170692Y-70535000D01*
X88220639Y-70414419D01*
X88295000Y-70040581D01*
X88295000Y-69659419D01*
X88220639Y-69285581D01*
X88074775Y-68933434D01*
X87863013Y-68616509D01*
X87593491Y-68346987D01*
X87276566Y-68135225D01*
X87276023Y-68135000D01*
X106111928Y-68135000D01*
X106115000Y-69049250D01*
X106273750Y-69208000D01*
X107823000Y-69208000D01*
X107823000Y-67658750D01*
X108077000Y-67658750D01*
X108077000Y-69208000D01*
X109626250Y-69208000D01*
X109785000Y-69049250D01*
X109788072Y-68135000D01*
X109775812Y-68010518D01*
X109739502Y-67890820D01*
X109680537Y-67780506D01*
X109601185Y-67683815D01*
X109504494Y-67604463D01*
X109394180Y-67545498D01*
X109274482Y-67509188D01*
X109150000Y-67496928D01*
X108235750Y-67500000D01*
X108077000Y-67658750D01*
X107823000Y-67658750D01*
X107664250Y-67500000D01*
X106750000Y-67496928D01*
X106625518Y-67509188D01*
X106505820Y-67545498D01*
X106395506Y-67604463D01*
X106298815Y-67683815D01*
X106219463Y-67780506D01*
X106160498Y-67890820D01*
X106124188Y-68010518D01*
X106111928Y-68135000D01*
X87276023Y-68135000D01*
X86924419Y-67989361D01*
X86550581Y-67915000D01*
X86169419Y-67915000D01*
X85795581Y-67989361D01*
X85443434Y-68135225D01*
X85126509Y-68346987D01*
X84856987Y-68616509D01*
X84645225Y-68933434D01*
X84499361Y-69285581D01*
X84425000Y-69659419D01*
X81407000Y-69659419D01*
X81407000Y-67223000D01*
X128996928Y-67223000D01*
X129009188Y-67347482D01*
X129045498Y-67467180D01*
X129104463Y-67577494D01*
X129183815Y-67674185D01*
X129280506Y-67753537D01*
X129390820Y-67812502D01*
X129510518Y-67848812D01*
X129635000Y-67861072D01*
X130524250Y-67858000D01*
X130683000Y-67699250D01*
X130683000Y-66600000D01*
X130937000Y-66600000D01*
X130937000Y-67699250D01*
X131095750Y-67858000D01*
X131985000Y-67861072D01*
X132109482Y-67848812D01*
X132229180Y-67812502D01*
X132339494Y-67753537D01*
X132436185Y-67674185D01*
X132515537Y-67577494D01*
X132574502Y-67467180D01*
X132610812Y-67347482D01*
X132623072Y-67223000D01*
X132620000Y-66758750D01*
X132461250Y-66600000D01*
X130937000Y-66600000D01*
X130683000Y-66600000D01*
X129158750Y-66600000D01*
X129000000Y-66758750D01*
X128996928Y-67223000D01*
X81407000Y-67223000D01*
X81407000Y-64501665D01*
X87973000Y-64501665D01*
X87973000Y-64784335D01*
X88028147Y-65061574D01*
X88136320Y-65322727D01*
X88293363Y-65557759D01*
X88493241Y-65757637D01*
X88728273Y-65914680D01*
X88989426Y-66022853D01*
X89266665Y-66078000D01*
X89549335Y-66078000D01*
X89826574Y-66022853D01*
X90087727Y-65914680D01*
X90322759Y-65757637D01*
X90522637Y-65557759D01*
X90679680Y-65322727D01*
X90787853Y-65061574D01*
X90843000Y-64784335D01*
X90843000Y-64501665D01*
X90787853Y-64224426D01*
X90679680Y-63963273D01*
X90599317Y-63843000D01*
X95589928Y-63843000D01*
X95589928Y-65443000D01*
X95602188Y-65567482D01*
X95638498Y-65687180D01*
X95697463Y-65797494D01*
X95776815Y-65894185D01*
X95873506Y-65973537D01*
X95983820Y-66032502D01*
X96103518Y-66068812D01*
X96228000Y-66081072D01*
X97828000Y-66081072D01*
X97952482Y-66068812D01*
X98072180Y-66032502D01*
X98182494Y-65973537D01*
X98279185Y-65894185D01*
X98358537Y-65797494D01*
X98398355Y-65723000D01*
X128996928Y-65723000D01*
X129000000Y-66187250D01*
X129158750Y-66346000D01*
X130683000Y-66346000D01*
X130683000Y-65246750D01*
X130937000Y-65246750D01*
X130937000Y-66346000D01*
X132461250Y-66346000D01*
X132620000Y-66187250D01*
X132623072Y-65723000D01*
X132610812Y-65598518D01*
X132574502Y-65478820D01*
X132515537Y-65368506D01*
X132436185Y-65271815D01*
X132339494Y-65192463D01*
X132229180Y-65133498D01*
X132109482Y-65097188D01*
X131985000Y-65084928D01*
X131095750Y-65088000D01*
X130937000Y-65246750D01*
X130683000Y-65246750D01*
X130524250Y-65088000D01*
X129635000Y-65084928D01*
X129510518Y-65097188D01*
X129390820Y-65133498D01*
X129280506Y-65192463D01*
X129183815Y-65271815D01*
X129104463Y-65368506D01*
X129045498Y-65478820D01*
X129009188Y-65598518D01*
X128996928Y-65723000D01*
X98398355Y-65723000D01*
X98417502Y-65687180D01*
X98453812Y-65567482D01*
X98466072Y-65443000D01*
X98466072Y-63843000D01*
X98453812Y-63718518D01*
X98450083Y-63706224D01*
X140689381Y-63706224D01*
X140821317Y-64001312D01*
X141162045Y-64172159D01*
X141529557Y-64273250D01*
X141909729Y-64300701D01*
X142287951Y-64253457D01*
X142649690Y-64133333D01*
X142896683Y-64001312D01*
X143028619Y-63706224D01*
X141859000Y-62536605D01*
X140689381Y-63706224D01*
X98450083Y-63706224D01*
X98417502Y-63598820D01*
X98358537Y-63488506D01*
X98279185Y-63391815D01*
X98182494Y-63312463D01*
X98072180Y-63253498D01*
X97952482Y-63217188D01*
X97828000Y-63204928D01*
X96228000Y-63204928D01*
X96103518Y-63217188D01*
X95983820Y-63253498D01*
X95873506Y-63312463D01*
X95776815Y-63391815D01*
X95697463Y-63488506D01*
X95638498Y-63598820D01*
X95602188Y-63718518D01*
X95589928Y-63843000D01*
X90599317Y-63843000D01*
X90522637Y-63728241D01*
X90322759Y-63528363D01*
X90087727Y-63371320D01*
X89826574Y-63263147D01*
X89549335Y-63208000D01*
X89266665Y-63208000D01*
X88989426Y-63263147D01*
X88728273Y-63371320D01*
X88493241Y-63528363D01*
X88293363Y-63728241D01*
X88136320Y-63963273D01*
X88028147Y-64224426D01*
X87973000Y-64501665D01*
X81407000Y-64501665D01*
X81407000Y-63579224D01*
X85190381Y-63579224D01*
X85322317Y-63874312D01*
X85663045Y-64045159D01*
X86030557Y-64146250D01*
X86410729Y-64173701D01*
X86788951Y-64126457D01*
X87150690Y-64006333D01*
X87397683Y-63874312D01*
X87529619Y-63579224D01*
X86360000Y-62409605D01*
X85190381Y-63579224D01*
X81407000Y-63579224D01*
X81407000Y-62280729D01*
X84416299Y-62280729D01*
X84463543Y-62658951D01*
X84583667Y-63020690D01*
X84715688Y-63267683D01*
X85010776Y-63399619D01*
X86180395Y-62230000D01*
X86539605Y-62230000D01*
X87709224Y-63399619D01*
X88004312Y-63267683D01*
X88175159Y-62926955D01*
X88276250Y-62559443D01*
X88303701Y-62179271D01*
X88256457Y-61801049D01*
X88136333Y-61439310D01*
X88004312Y-61192317D01*
X87709224Y-61060381D01*
X86539605Y-62230000D01*
X86180395Y-62230000D01*
X85010776Y-61060381D01*
X84715688Y-61192317D01*
X84544841Y-61533045D01*
X84443750Y-61900557D01*
X84416299Y-62280729D01*
X81407000Y-62280729D01*
X81407000Y-60880776D01*
X85190381Y-60880776D01*
X86360000Y-62050395D01*
X87529619Y-60880776D01*
X87397683Y-60585688D01*
X87056955Y-60414841D01*
X86689443Y-60313750D01*
X86309271Y-60286299D01*
X85931049Y-60333543D01*
X85569310Y-60453667D01*
X85322317Y-60585688D01*
X85190381Y-60880776D01*
X81407000Y-60880776D01*
X81407000Y-59421665D01*
X87973000Y-59421665D01*
X87973000Y-59704335D01*
X88028147Y-59981574D01*
X88136320Y-60242727D01*
X88293363Y-60477759D01*
X88493241Y-60677637D01*
X88728273Y-60834680D01*
X88989426Y-60942853D01*
X89266665Y-60998000D01*
X89549335Y-60998000D01*
X89826574Y-60942853D01*
X90087727Y-60834680D01*
X90322759Y-60677637D01*
X90522637Y-60477759D01*
X90679680Y-60242727D01*
X90787853Y-59981574D01*
X90843000Y-59704335D01*
X90843000Y-59421665D01*
X95593000Y-59421665D01*
X95593000Y-59704335D01*
X95648147Y-59981574D01*
X95756320Y-60242727D01*
X95913363Y-60477759D01*
X96113241Y-60677637D01*
X96348273Y-60834680D01*
X96609426Y-60942853D01*
X96886665Y-60998000D01*
X97169335Y-60998000D01*
X97446574Y-60942853D01*
X97707727Y-60834680D01*
X97942759Y-60677637D01*
X98142637Y-60477759D01*
X98299680Y-60242727D01*
X98407853Y-59981574D01*
X98463000Y-59704335D01*
X98463000Y-59496000D01*
X129471928Y-59496000D01*
X129484188Y-59620482D01*
X129520498Y-59740180D01*
X129579463Y-59850494D01*
X129658815Y-59947185D01*
X129755506Y-60026537D01*
X129865820Y-60085502D01*
X129985518Y-60121812D01*
X130110000Y-60134072D01*
X130524250Y-60131000D01*
X130683000Y-59972250D01*
X130683000Y-59023000D01*
X130937000Y-59023000D01*
X130937000Y-59972250D01*
X131095750Y-60131000D01*
X131510000Y-60134072D01*
X131634482Y-60121812D01*
X131754180Y-60085502D01*
X131864494Y-60026537D01*
X131961185Y-59947185D01*
X132040537Y-59850494D01*
X132099502Y-59740180D01*
X132135812Y-59620482D01*
X132148072Y-59496000D01*
X132145000Y-59181750D01*
X131986250Y-59023000D01*
X130937000Y-59023000D01*
X130683000Y-59023000D01*
X129633750Y-59023000D01*
X129475000Y-59181750D01*
X129471928Y-59496000D01*
X98463000Y-59496000D01*
X98463000Y-59421665D01*
X98407853Y-59144426D01*
X98299680Y-58883273D01*
X98142637Y-58648241D01*
X97942759Y-58448363D01*
X97707727Y-58291320D01*
X97446574Y-58183147D01*
X97169335Y-58128000D01*
X96886665Y-58128000D01*
X96609426Y-58183147D01*
X96348273Y-58291320D01*
X96113241Y-58448363D01*
X95913363Y-58648241D01*
X95756320Y-58883273D01*
X95648147Y-59144426D01*
X95593000Y-59421665D01*
X90843000Y-59421665D01*
X90787853Y-59144426D01*
X90679680Y-58883273D01*
X90522637Y-58648241D01*
X90322759Y-58448363D01*
X90087727Y-58291320D01*
X89826574Y-58183147D01*
X89549335Y-58128000D01*
X89266665Y-58128000D01*
X88989426Y-58183147D01*
X88728273Y-58291320D01*
X88493241Y-58448363D01*
X88293363Y-58648241D01*
X88136320Y-58883273D01*
X88028147Y-59144426D01*
X87973000Y-59421665D01*
X81407000Y-59421665D01*
X81407000Y-57037980D01*
X106851626Y-57037980D01*
X106971514Y-57322836D01*
X107295210Y-57483699D01*
X107644069Y-57578322D01*
X108004684Y-57603067D01*
X108363198Y-57556985D01*
X108705833Y-57441846D01*
X108928486Y-57322836D01*
X109048374Y-57037980D01*
X107950000Y-55939605D01*
X106851626Y-57037980D01*
X81407000Y-57037980D01*
X81407000Y-54419419D01*
X84425000Y-54419419D01*
X84425000Y-54800581D01*
X84499361Y-55174419D01*
X84645225Y-55526566D01*
X84856987Y-55843491D01*
X85126509Y-56113013D01*
X85443434Y-56324775D01*
X85795581Y-56470639D01*
X86169419Y-56545000D01*
X86550581Y-56545000D01*
X86924419Y-56470639D01*
X87276566Y-56324775D01*
X87593491Y-56113013D01*
X87863013Y-55843491D01*
X87882261Y-55814684D01*
X106106933Y-55814684D01*
X106153015Y-56173198D01*
X106268154Y-56515833D01*
X106387164Y-56738486D01*
X106672020Y-56858374D01*
X107770395Y-55760000D01*
X108129605Y-55760000D01*
X109227980Y-56858374D01*
X109512836Y-56738486D01*
X109673699Y-56414790D01*
X109768322Y-56065931D01*
X109780977Y-55881500D01*
X118221428Y-55881500D01*
X118233688Y-56005982D01*
X118269998Y-56125680D01*
X118328963Y-56235994D01*
X118408315Y-56332685D01*
X118505006Y-56412037D01*
X118615320Y-56471002D01*
X118735018Y-56507312D01*
X118859500Y-56519572D01*
X119173750Y-56516500D01*
X119332500Y-56357750D01*
X119332500Y-55308500D01*
X118383250Y-55308500D01*
X118224500Y-55467250D01*
X118221428Y-55881500D01*
X109780977Y-55881500D01*
X109793067Y-55705316D01*
X109746985Y-55346802D01*
X109631846Y-55004167D01*
X109512836Y-54781514D01*
X109227980Y-54661626D01*
X108129605Y-55760000D01*
X107770395Y-55760000D01*
X106672020Y-54661626D01*
X106387164Y-54781514D01*
X106226301Y-55105210D01*
X106131678Y-55454069D01*
X106106933Y-55814684D01*
X87882261Y-55814684D01*
X88074775Y-55526566D01*
X88220639Y-55174419D01*
X88295000Y-54800581D01*
X88295000Y-54482020D01*
X106851626Y-54482020D01*
X107950000Y-55580395D01*
X109048374Y-54482020D01*
X109048156Y-54481500D01*
X118221428Y-54481500D01*
X118224500Y-54895750D01*
X118383250Y-55054500D01*
X119332500Y-55054500D01*
X119332500Y-54005250D01*
X119173750Y-53846500D01*
X118859500Y-53843428D01*
X118735018Y-53855688D01*
X118615320Y-53891998D01*
X118505006Y-53950963D01*
X118408315Y-54030315D01*
X118328963Y-54127006D01*
X118269998Y-54237320D01*
X118233688Y-54357018D01*
X118221428Y-54481500D01*
X109048156Y-54481500D01*
X108928486Y-54197164D01*
X108604790Y-54036301D01*
X108255931Y-53941678D01*
X107895316Y-53916933D01*
X107536802Y-53963015D01*
X107194167Y-54078154D01*
X106971514Y-54197164D01*
X106851626Y-54482020D01*
X88295000Y-54482020D01*
X88295000Y-54419419D01*
X88220639Y-54045581D01*
X88074775Y-53693434D01*
X87863013Y-53376509D01*
X87593491Y-53106987D01*
X87276566Y-52895225D01*
X86924419Y-52749361D01*
X86550581Y-52675000D01*
X86169419Y-52675000D01*
X85795581Y-52749361D01*
X85443434Y-52895225D01*
X85126509Y-53106987D01*
X84856987Y-53376509D01*
X84645225Y-53693434D01*
X84499361Y-54045581D01*
X84425000Y-54419419D01*
X81407000Y-54419419D01*
X81407000Y-47060000D01*
X106111928Y-47060000D01*
X106111928Y-49460000D01*
X106124188Y-49584482D01*
X106160498Y-49704180D01*
X106219463Y-49814494D01*
X106298815Y-49911185D01*
X106395506Y-49990537D01*
X106505820Y-50049502D01*
X106625518Y-50085812D01*
X106750000Y-50098072D01*
X109150000Y-50098072D01*
X109274482Y-50085812D01*
X109394180Y-50049502D01*
X109504494Y-49990537D01*
X109601185Y-49911185D01*
X109673296Y-49823316D01*
X118988000Y-49823316D01*
X118988000Y-50125684D01*
X119046989Y-50422243D01*
X119162701Y-50701595D01*
X119330688Y-50953005D01*
X119544495Y-51166812D01*
X119795905Y-51334799D01*
X120075257Y-51450511D01*
X120371816Y-51509500D01*
X120574501Y-51509500D01*
X120574500Y-54027246D01*
X120534863Y-54059776D01*
X120510685Y-54030315D01*
X120413994Y-53950963D01*
X120303680Y-53891998D01*
X120183982Y-53855688D01*
X120059500Y-53843428D01*
X119745250Y-53846500D01*
X119586500Y-54005250D01*
X119586500Y-55054500D01*
X119606500Y-55054500D01*
X119606500Y-55308500D01*
X119586500Y-55308500D01*
X119586500Y-56357750D01*
X119745250Y-56516500D01*
X120059500Y-56519572D01*
X120183982Y-56507312D01*
X120303680Y-56471002D01*
X120413994Y-56412037D01*
X120510685Y-56332685D01*
X120534863Y-56303224D01*
X120616113Y-56369905D01*
X120769649Y-56451972D01*
X120936245Y-56502508D01*
X121109499Y-56519572D01*
X121809501Y-56519572D01*
X121982755Y-56502508D01*
X122149351Y-56451972D01*
X122302887Y-56369905D01*
X122395048Y-56294270D01*
X122500613Y-56380905D01*
X122654149Y-56462972D01*
X122820745Y-56513508D01*
X122993999Y-56530572D01*
X123894001Y-56530572D01*
X124067255Y-56513508D01*
X124233851Y-56462972D01*
X124387387Y-56380905D01*
X124406396Y-56365305D01*
X124426815Y-56390185D01*
X124523506Y-56469537D01*
X124633820Y-56528502D01*
X124753518Y-56564812D01*
X124878000Y-56577072D01*
X125317250Y-56574000D01*
X125476000Y-56415250D01*
X125476000Y-55478500D01*
X125456000Y-55478500D01*
X125456000Y-55224500D01*
X125476000Y-55224500D01*
X125476000Y-55204500D01*
X125730000Y-55204500D01*
X125730000Y-55224500D01*
X125750000Y-55224500D01*
X125750000Y-55478500D01*
X125730000Y-55478500D01*
X125730000Y-56415250D01*
X125888750Y-56574000D01*
X126328000Y-56577072D01*
X126452482Y-56564812D01*
X126572180Y-56528502D01*
X126682494Y-56469537D01*
X126779185Y-56390185D01*
X126858537Y-56293494D01*
X126917502Y-56183180D01*
X126953812Y-56063482D01*
X126966072Y-55939000D01*
X126964116Y-55746842D01*
X126971499Y-55771181D01*
X127030464Y-55881495D01*
X127109816Y-55978186D01*
X127206507Y-56057538D01*
X127316821Y-56116503D01*
X127436519Y-56152813D01*
X127561001Y-56165073D01*
X128781001Y-56165073D01*
X128905483Y-56152813D01*
X129025181Y-56116503D01*
X129135495Y-56057538D01*
X129232186Y-55978186D01*
X129311538Y-55881495D01*
X129370503Y-55771181D01*
X129406813Y-55651483D01*
X129419073Y-55527001D01*
X129419073Y-54877001D01*
X129406813Y-54752519D01*
X129399072Y-54727001D01*
X129406813Y-54701483D01*
X129419073Y-54577001D01*
X129416001Y-54537751D01*
X129257251Y-54379001D01*
X129175142Y-54379001D01*
X129135495Y-54346464D01*
X129025181Y-54287499D01*
X128908160Y-54252001D01*
X129025181Y-54216503D01*
X129135495Y-54157538D01*
X129175142Y-54125001D01*
X129257251Y-54125001D01*
X129416001Y-53966251D01*
X129419073Y-53927001D01*
X129406813Y-53802519D01*
X129399072Y-53777001D01*
X129406813Y-53751483D01*
X129419073Y-53627001D01*
X129419073Y-52977001D01*
X129406813Y-52852519D01*
X129370503Y-52732821D01*
X129311538Y-52622507D01*
X129232186Y-52525816D01*
X129135495Y-52446464D01*
X129025181Y-52387499D01*
X128905483Y-52351189D01*
X128781001Y-52338929D01*
X127561001Y-52338929D01*
X127436519Y-52351189D01*
X127316821Y-52387499D01*
X127309336Y-52391500D01*
X126771995Y-52391500D01*
X126705962Y-52311038D01*
X126571386Y-52200595D01*
X126488000Y-52156024D01*
X126488000Y-51512572D01*
X126503000Y-51512572D01*
X126627482Y-51500312D01*
X126747180Y-51464002D01*
X126857494Y-51405037D01*
X126954185Y-51325685D01*
X127033537Y-51228994D01*
X127092502Y-51118680D01*
X127128812Y-50998982D01*
X127141072Y-50874500D01*
X127141072Y-50808000D01*
X128996928Y-50808000D01*
X128996928Y-51808000D01*
X129013992Y-51981254D01*
X129064528Y-52147850D01*
X129146595Y-52301386D01*
X129257038Y-52435962D01*
X129391614Y-52546405D01*
X129545150Y-52628472D01*
X129633027Y-52655129D01*
X129591499Y-52732821D01*
X129555189Y-52852519D01*
X129542929Y-52977001D01*
X129542929Y-53627001D01*
X129555189Y-53751483D01*
X129591499Y-53871181D01*
X129650464Y-53981495D01*
X129729816Y-54078186D01*
X129826507Y-54157538D01*
X129936821Y-54216503D01*
X130053842Y-54252001D01*
X129936821Y-54287499D01*
X129826507Y-54346464D01*
X129729816Y-54425816D01*
X129650464Y-54522507D01*
X129591499Y-54632821D01*
X129555189Y-54752519D01*
X129542929Y-54877001D01*
X129542929Y-55527001D01*
X129555189Y-55651483D01*
X129591499Y-55771181D01*
X129650464Y-55881495D01*
X129706246Y-55949466D01*
X129621595Y-56052613D01*
X129539528Y-56206149D01*
X129488992Y-56372745D01*
X129471928Y-56545999D01*
X129471928Y-57246001D01*
X129488992Y-57419255D01*
X129539528Y-57585851D01*
X129621595Y-57739387D01*
X129688276Y-57820637D01*
X129658815Y-57844815D01*
X129579463Y-57941506D01*
X129520498Y-58051820D01*
X129484188Y-58171518D01*
X129471928Y-58296000D01*
X129475000Y-58610250D01*
X129633750Y-58769000D01*
X130683000Y-58769000D01*
X130683000Y-58749000D01*
X130937000Y-58749000D01*
X130937000Y-58769000D01*
X131986250Y-58769000D01*
X132145000Y-58610250D01*
X132148072Y-58296000D01*
X132135812Y-58171518D01*
X132099502Y-58051820D01*
X132040537Y-57941506D01*
X132031915Y-57931000D01*
X132232739Y-57931000D01*
X132432698Y-57891226D01*
X132621056Y-57813205D01*
X132790574Y-57699937D01*
X132934737Y-57555774D01*
X133048005Y-57386256D01*
X133126026Y-57197898D01*
X133165800Y-56997939D01*
X133165800Y-56794061D01*
X133159531Y-56762544D01*
X133265000Y-56762544D01*
X133265000Y-57029456D01*
X133317072Y-57291239D01*
X133419215Y-57537833D01*
X133567503Y-57759762D01*
X133756238Y-57948497D01*
X133978167Y-58096785D01*
X134145266Y-58166000D01*
X133978167Y-58235215D01*
X133756238Y-58383503D01*
X133567503Y-58572238D01*
X133419215Y-58794167D01*
X133317072Y-59040761D01*
X133265000Y-59302544D01*
X133265000Y-59569456D01*
X133317072Y-59831239D01*
X133419215Y-60077833D01*
X133567503Y-60299762D01*
X133756238Y-60488497D01*
X133978167Y-60636785D01*
X134145266Y-60706000D01*
X133978167Y-60775215D01*
X133756238Y-60923503D01*
X133567503Y-61112238D01*
X133419215Y-61334167D01*
X133317072Y-61580761D01*
X133265000Y-61842544D01*
X133265000Y-62109456D01*
X133317072Y-62371239D01*
X133419215Y-62617833D01*
X133567503Y-62839762D01*
X133756238Y-63028497D01*
X133978167Y-63176785D01*
X134224761Y-63278928D01*
X134486544Y-63331000D01*
X134753456Y-63331000D01*
X135015239Y-63278928D01*
X135261833Y-63176785D01*
X135483762Y-63028497D01*
X135672497Y-62839762D01*
X135820785Y-62617833D01*
X135907813Y-62407729D01*
X139915299Y-62407729D01*
X139962543Y-62785951D01*
X140082667Y-63147690D01*
X140214688Y-63394683D01*
X140509776Y-63526619D01*
X141679395Y-62357000D01*
X142038605Y-62357000D01*
X143208224Y-63526619D01*
X143503312Y-63394683D01*
X143674159Y-63053955D01*
X143775250Y-62686443D01*
X143802701Y-62306271D01*
X143755457Y-61928049D01*
X143635333Y-61566310D01*
X143503312Y-61319317D01*
X143208224Y-61187381D01*
X142038605Y-62357000D01*
X141679395Y-62357000D01*
X140509776Y-61187381D01*
X140214688Y-61319317D01*
X140043841Y-61660045D01*
X139942750Y-62027557D01*
X139915299Y-62407729D01*
X135907813Y-62407729D01*
X135922928Y-62371239D01*
X135975000Y-62109456D01*
X135975000Y-61842544D01*
X135922928Y-61580761D01*
X135820785Y-61334167D01*
X135672497Y-61112238D01*
X135568035Y-61007776D01*
X140689381Y-61007776D01*
X141859000Y-62177395D01*
X143028619Y-61007776D01*
X142896683Y-60712688D01*
X142555955Y-60541841D01*
X142188443Y-60440750D01*
X141808271Y-60413299D01*
X141430049Y-60460543D01*
X141068310Y-60580667D01*
X140821317Y-60712688D01*
X140689381Y-61007776D01*
X135568035Y-61007776D01*
X135483762Y-60923503D01*
X135261833Y-60775215D01*
X135094734Y-60706000D01*
X135261833Y-60636785D01*
X135483762Y-60488497D01*
X135672497Y-60299762D01*
X135820785Y-60077833D01*
X135922928Y-59831239D01*
X135975000Y-59569456D01*
X135975000Y-59302544D01*
X135922928Y-59040761D01*
X135820785Y-58794167D01*
X135672497Y-58572238D01*
X135483762Y-58383503D01*
X135261833Y-58235215D01*
X135094734Y-58166000D01*
X135261833Y-58096785D01*
X135483762Y-57948497D01*
X135672497Y-57759762D01*
X135820785Y-57537833D01*
X135922928Y-57291239D01*
X135975000Y-57029456D01*
X135975000Y-56762544D01*
X135922928Y-56500761D01*
X135820785Y-56254167D01*
X135672497Y-56032238D01*
X135483762Y-55843503D01*
X135261833Y-55695215D01*
X135015239Y-55593072D01*
X134753456Y-55541000D01*
X134486544Y-55541000D01*
X134224761Y-55593072D01*
X133978167Y-55695215D01*
X133756238Y-55843503D01*
X133567503Y-56032238D01*
X133419215Y-56254167D01*
X133317072Y-56500761D01*
X133265000Y-56762544D01*
X133159531Y-56762544D01*
X133126026Y-56594102D01*
X133048005Y-56405744D01*
X132934737Y-56236226D01*
X132790574Y-56092063D01*
X132621056Y-55978795D01*
X132432698Y-55900774D01*
X132232739Y-55861000D01*
X132028861Y-55861000D01*
X131932218Y-55880223D01*
X131990503Y-55771181D01*
X132026813Y-55651483D01*
X132039073Y-55527001D01*
X132039073Y-54877001D01*
X132026813Y-54752519D01*
X131990503Y-54632821D01*
X131931538Y-54522507D01*
X131852186Y-54425816D01*
X131755495Y-54346464D01*
X131645181Y-54287499D01*
X131528160Y-54252001D01*
X131645181Y-54216503D01*
X131700374Y-54187001D01*
X131757547Y-54187001D01*
X131805745Y-54219206D01*
X131994103Y-54297227D01*
X132194062Y-54337001D01*
X132397940Y-54337001D01*
X132597899Y-54297227D01*
X132710129Y-54250740D01*
X132755038Y-54305462D01*
X132889614Y-54415905D01*
X133043150Y-54497972D01*
X133209746Y-54548508D01*
X133383000Y-54565572D01*
X134333000Y-54565572D01*
X134506254Y-54548508D01*
X134672850Y-54497972D01*
X134826386Y-54415905D01*
X134960962Y-54305462D01*
X135007003Y-54249360D01*
X135018744Y-54257205D01*
X135207102Y-54335226D01*
X135407061Y-54375000D01*
X135610939Y-54375000D01*
X135810898Y-54335226D01*
X135999256Y-54257205D01*
X136168774Y-54143937D01*
X136312937Y-53999774D01*
X136426205Y-53830256D01*
X136504226Y-53641898D01*
X136544000Y-53441939D01*
X136544000Y-53238061D01*
X136526369Y-53149419D01*
X139924000Y-53149419D01*
X139924000Y-53530581D01*
X139998361Y-53904419D01*
X140144225Y-54256566D01*
X140355987Y-54573491D01*
X140625509Y-54843013D01*
X140942434Y-55054775D01*
X141294581Y-55200639D01*
X141668419Y-55275000D01*
X142049581Y-55275000D01*
X142423419Y-55200639D01*
X142775566Y-55054775D01*
X143092491Y-54843013D01*
X143362013Y-54573491D01*
X143573775Y-54256566D01*
X143719639Y-53904419D01*
X143794000Y-53530581D01*
X143794000Y-53149419D01*
X143719639Y-52775581D01*
X143573775Y-52423434D01*
X143362013Y-52106509D01*
X143092491Y-51836987D01*
X142775566Y-51625225D01*
X142423419Y-51479361D01*
X142049581Y-51405000D01*
X141668419Y-51405000D01*
X141294581Y-51479361D01*
X140942434Y-51625225D01*
X140625509Y-51836987D01*
X140355987Y-52106509D01*
X140144225Y-52423434D01*
X139998361Y-52775581D01*
X139924000Y-53149419D01*
X136526369Y-53149419D01*
X136504226Y-53038102D01*
X136426205Y-52849744D01*
X136312937Y-52680226D01*
X136168774Y-52536063D01*
X135999256Y-52422795D01*
X135810898Y-52344774D01*
X135610939Y-52305000D01*
X135407061Y-52305000D01*
X135207102Y-52344774D01*
X135018744Y-52422795D01*
X135007003Y-52430640D01*
X134960962Y-52374538D01*
X134954406Y-52369158D01*
X135034185Y-52303685D01*
X135113537Y-52206994D01*
X135172502Y-52096680D01*
X135208812Y-51976982D01*
X135221072Y-51852500D01*
X135218000Y-51550750D01*
X135059250Y-51392000D01*
X133985000Y-51392000D01*
X133985000Y-51412000D01*
X133731000Y-51412000D01*
X133731000Y-51392000D01*
X133711000Y-51392000D01*
X133711000Y-51138000D01*
X133731000Y-51138000D01*
X133731000Y-50201250D01*
X133985000Y-50201250D01*
X133985000Y-51138000D01*
X135059250Y-51138000D01*
X135218000Y-50979250D01*
X135221072Y-50677500D01*
X135208812Y-50553018D01*
X135172502Y-50433320D01*
X135113537Y-50323006D01*
X135034185Y-50226315D01*
X134937494Y-50146963D01*
X134827180Y-50087998D01*
X134707482Y-50051688D01*
X134583000Y-50039428D01*
X134143750Y-50042500D01*
X133985000Y-50201250D01*
X133731000Y-50201250D01*
X133572250Y-50042500D01*
X133133000Y-50039428D01*
X133008518Y-50051688D01*
X132888820Y-50087998D01*
X132778506Y-50146963D01*
X132681815Y-50226315D01*
X132602463Y-50323006D01*
X132543498Y-50433320D01*
X132541093Y-50441249D01*
X132473405Y-50314614D01*
X132362962Y-50180038D01*
X132228386Y-50069595D01*
X132074850Y-49987528D01*
X131908254Y-49936992D01*
X131735000Y-49919928D01*
X129885000Y-49919928D01*
X129711746Y-49936992D01*
X129545150Y-49987528D01*
X129391614Y-50069595D01*
X129257038Y-50180038D01*
X129146595Y-50314614D01*
X129064528Y-50468150D01*
X129013992Y-50634746D01*
X128996928Y-50808000D01*
X127141072Y-50808000D01*
X127141072Y-49074500D01*
X127128812Y-48950018D01*
X127092502Y-48830320D01*
X127080572Y-48808000D01*
X128996928Y-48808000D01*
X129009188Y-48932482D01*
X129045498Y-49052180D01*
X129104463Y-49162494D01*
X129183815Y-49259185D01*
X129280506Y-49338537D01*
X129390820Y-49397502D01*
X129510518Y-49433812D01*
X129635000Y-49446072D01*
X130524250Y-49443000D01*
X130683000Y-49284250D01*
X130683000Y-48185000D01*
X130937000Y-48185000D01*
X130937000Y-49284250D01*
X131095750Y-49443000D01*
X131985000Y-49446072D01*
X132109482Y-49433812D01*
X132229180Y-49397502D01*
X132339494Y-49338537D01*
X132436185Y-49259185D01*
X132515537Y-49162494D01*
X132574502Y-49052180D01*
X132610812Y-48932482D01*
X132623072Y-48808000D01*
X132620000Y-48343750D01*
X132461250Y-48185000D01*
X130937000Y-48185000D01*
X130683000Y-48185000D01*
X129158750Y-48185000D01*
X129000000Y-48343750D01*
X128996928Y-48808000D01*
X127080572Y-48808000D01*
X127033537Y-48720006D01*
X126954185Y-48623315D01*
X126857494Y-48543963D01*
X126747180Y-48484998D01*
X126631976Y-48450051D01*
X126754255Y-48438008D01*
X126920851Y-48387472D01*
X127074387Y-48305405D01*
X127208962Y-48194962D01*
X127319405Y-48060387D01*
X127401472Y-47906851D01*
X127452008Y-47740255D01*
X127469072Y-47567001D01*
X127469072Y-47308000D01*
X128996928Y-47308000D01*
X129000000Y-47772250D01*
X129158750Y-47931000D01*
X130683000Y-47931000D01*
X130683000Y-46831750D01*
X130937000Y-46831750D01*
X130937000Y-47931000D01*
X132461250Y-47931000D01*
X132620000Y-47772250D01*
X132623072Y-47308000D01*
X132610812Y-47183518D01*
X132574502Y-47063820D01*
X132515537Y-46953506D01*
X132436185Y-46856815D01*
X132339494Y-46777463D01*
X132229180Y-46718498D01*
X132109482Y-46682188D01*
X131985000Y-46669928D01*
X131095750Y-46673000D01*
X130937000Y-46831750D01*
X130683000Y-46831750D01*
X130524250Y-46673000D01*
X129635000Y-46669928D01*
X129510518Y-46682188D01*
X129390820Y-46718498D01*
X129280506Y-46777463D01*
X129183815Y-46856815D01*
X129104463Y-46953506D01*
X129045498Y-47063820D01*
X129009188Y-47183518D01*
X128996928Y-47308000D01*
X127469072Y-47308000D01*
X127469072Y-46666999D01*
X127452008Y-46493745D01*
X127401472Y-46327149D01*
X127319405Y-46173613D01*
X127208962Y-46039038D01*
X127074387Y-45928595D01*
X126920851Y-45846528D01*
X126754255Y-45795992D01*
X126581001Y-45778928D01*
X125930999Y-45778928D01*
X125757745Y-45795992D01*
X125591149Y-45846528D01*
X125437613Y-45928595D01*
X125303038Y-46039038D01*
X125231000Y-46126816D01*
X125158962Y-46039038D01*
X125024387Y-45928595D01*
X124870851Y-45846528D01*
X124704255Y-45795992D01*
X124531001Y-45778928D01*
X124484050Y-45778928D01*
X124497537Y-45762494D01*
X124556502Y-45652180D01*
X124592812Y-45532482D01*
X124605072Y-45408000D01*
X124605072Y-44508000D01*
X124592812Y-44383518D01*
X124556502Y-44263820D01*
X124497537Y-44153506D01*
X124418185Y-44056815D01*
X124321494Y-43977463D01*
X124211180Y-43918498D01*
X124091482Y-43882188D01*
X123967000Y-43869928D01*
X122667000Y-43869928D01*
X122542518Y-43882188D01*
X122422820Y-43918498D01*
X122339216Y-43963186D01*
X122250462Y-43855038D01*
X122115886Y-43744595D01*
X121962350Y-43662528D01*
X121795754Y-43611992D01*
X121622500Y-43594928D01*
X120947500Y-43594928D01*
X120774246Y-43611992D01*
X120607650Y-43662528D01*
X120454114Y-43744595D01*
X120319538Y-43855038D01*
X120314158Y-43861594D01*
X120248685Y-43781815D01*
X120151994Y-43702463D01*
X120041680Y-43643498D01*
X119921982Y-43607188D01*
X119797500Y-43594928D01*
X119495750Y-43598000D01*
X119337000Y-43756750D01*
X119337000Y-44831000D01*
X119357000Y-44831000D01*
X119357000Y-45085000D01*
X119337000Y-45085000D01*
X119337000Y-46146312D01*
X119314595Y-46173613D01*
X119232528Y-46327149D01*
X119181992Y-46493745D01*
X119164928Y-46666999D01*
X119164928Y-47567001D01*
X119181992Y-47740255D01*
X119232528Y-47906851D01*
X119314595Y-48060387D01*
X119425038Y-48194962D01*
X119559613Y-48305405D01*
X119713149Y-48387472D01*
X119879745Y-48438008D01*
X120052999Y-48455072D01*
X120293530Y-48455072D01*
X120075257Y-48498489D01*
X119795905Y-48614201D01*
X119544495Y-48782188D01*
X119330688Y-48995995D01*
X119162701Y-49247405D01*
X119046989Y-49526757D01*
X118988000Y-49823316D01*
X109673296Y-49823316D01*
X109680537Y-49814494D01*
X109739502Y-49704180D01*
X109775812Y-49584482D01*
X109788072Y-49460000D01*
X109788072Y-47060000D01*
X109775812Y-46935518D01*
X109739502Y-46815820D01*
X109680537Y-46705506D01*
X109601185Y-46608815D01*
X109504494Y-46529463D01*
X109394180Y-46470498D01*
X109274482Y-46434188D01*
X109150000Y-46421928D01*
X106750000Y-46421928D01*
X106625518Y-46434188D01*
X106505820Y-46470498D01*
X106395506Y-46529463D01*
X106298815Y-46608815D01*
X106219463Y-46705506D01*
X106160498Y-46815820D01*
X106124188Y-46935518D01*
X106111928Y-47060000D01*
X81407000Y-47060000D01*
X81407000Y-45683000D01*
X117984428Y-45683000D01*
X117996688Y-45807482D01*
X118032998Y-45927180D01*
X118091963Y-46037494D01*
X118171315Y-46134185D01*
X118268006Y-46213537D01*
X118378320Y-46272502D01*
X118498018Y-46308812D01*
X118622500Y-46321072D01*
X118924250Y-46318000D01*
X119083000Y-46159250D01*
X119083000Y-45085000D01*
X118146250Y-45085000D01*
X117987500Y-45243750D01*
X117984428Y-45683000D01*
X81407000Y-45683000D01*
X81407000Y-44233000D01*
X117984428Y-44233000D01*
X117987500Y-44672250D01*
X118146250Y-44831000D01*
X119083000Y-44831000D01*
X119083000Y-43756750D01*
X118924250Y-43598000D01*
X118622500Y-43594928D01*
X118498018Y-43607188D01*
X118378320Y-43643498D01*
X118268006Y-43702463D01*
X118171315Y-43781815D01*
X118091963Y-43878506D01*
X118032998Y-43988820D01*
X117996688Y-44108518D01*
X117984428Y-44233000D01*
X81407000Y-44233000D01*
X81407000Y-42762000D01*
X117984428Y-42762000D01*
X117996688Y-42886482D01*
X118032998Y-43006180D01*
X118091963Y-43116494D01*
X118171315Y-43213185D01*
X118268006Y-43292537D01*
X118378320Y-43351502D01*
X118498018Y-43387812D01*
X118622500Y-43400072D01*
X118924250Y-43397000D01*
X119083000Y-43238250D01*
X119083000Y-42164000D01*
X118146250Y-42164000D01*
X117987500Y-42322750D01*
X117984428Y-42762000D01*
X81407000Y-42762000D01*
X81407000Y-41449702D01*
X113359903Y-41449702D01*
X113431486Y-41693671D01*
X113686996Y-41814571D01*
X113961184Y-41883300D01*
X114243512Y-41897217D01*
X114523130Y-41855787D01*
X114789292Y-41760603D01*
X114914514Y-41693671D01*
X114986097Y-41449702D01*
X114848395Y-41312000D01*
X117984428Y-41312000D01*
X117987500Y-41751250D01*
X118146250Y-41910000D01*
X119083000Y-41910000D01*
X119083000Y-40835750D01*
X119337000Y-40835750D01*
X119337000Y-41910000D01*
X119357000Y-41910000D01*
X119357000Y-42164000D01*
X119337000Y-42164000D01*
X119337000Y-43238250D01*
X119495750Y-43397000D01*
X119797500Y-43400072D01*
X119921982Y-43387812D01*
X120041680Y-43351502D01*
X120151994Y-43292537D01*
X120248685Y-43213185D01*
X120314158Y-43133406D01*
X120319538Y-43139962D01*
X120454114Y-43250405D01*
X120607650Y-43332472D01*
X120774246Y-43383008D01*
X120947500Y-43400072D01*
X121622500Y-43400072D01*
X121795754Y-43383008D01*
X121962350Y-43332472D01*
X122115886Y-43250405D01*
X122250462Y-43139962D01*
X122360905Y-43005386D01*
X122377941Y-42973513D01*
X122422820Y-42997502D01*
X122542518Y-43033812D01*
X122667000Y-43046072D01*
X123967000Y-43046072D01*
X124091482Y-43033812D01*
X124211180Y-42997502D01*
X124321494Y-42938537D01*
X124418185Y-42859185D01*
X124497537Y-42762494D01*
X124556502Y-42652180D01*
X124592812Y-42532482D01*
X124605072Y-42408000D01*
X124605072Y-41508000D01*
X124592812Y-41383518D01*
X124556502Y-41263820D01*
X124497537Y-41153506D01*
X124418185Y-41056815D01*
X124321494Y-40977463D01*
X124211180Y-40918498D01*
X124202000Y-40915713D01*
X124202000Y-40797454D01*
X124234205Y-40749256D01*
X124312226Y-40560898D01*
X124352000Y-40360939D01*
X124352000Y-40157061D01*
X124312226Y-39957102D01*
X124234205Y-39768744D01*
X124120937Y-39599226D01*
X123976774Y-39455063D01*
X123807256Y-39341795D01*
X123618898Y-39263774D01*
X123418939Y-39224000D01*
X123215061Y-39224000D01*
X123015102Y-39263774D01*
X122826744Y-39341795D01*
X122657226Y-39455063D01*
X122513063Y-39599226D01*
X122399795Y-39768744D01*
X122321774Y-39957102D01*
X122282000Y-40157061D01*
X122282000Y-40360939D01*
X122321774Y-40560898D01*
X122399795Y-40749256D01*
X122432001Y-40797455D01*
X122432001Y-40915713D01*
X122422820Y-40918498D01*
X122312506Y-40977463D01*
X122296727Y-40990412D01*
X122250462Y-40934038D01*
X122115886Y-40823595D01*
X121962350Y-40741528D01*
X121795754Y-40690992D01*
X121622500Y-40673928D01*
X120947500Y-40673928D01*
X120774246Y-40690992D01*
X120607650Y-40741528D01*
X120454114Y-40823595D01*
X120319538Y-40934038D01*
X120314158Y-40940594D01*
X120248685Y-40860815D01*
X120151994Y-40781463D01*
X120041680Y-40722498D01*
X119921982Y-40686188D01*
X119797500Y-40673928D01*
X119495750Y-40677000D01*
X119337000Y-40835750D01*
X119083000Y-40835750D01*
X118924250Y-40677000D01*
X118622500Y-40673928D01*
X118498018Y-40686188D01*
X118378320Y-40722498D01*
X118268006Y-40781463D01*
X118171315Y-40860815D01*
X118091963Y-40957506D01*
X118032998Y-41067820D01*
X117996688Y-41187518D01*
X117984428Y-41312000D01*
X114848395Y-41312000D01*
X114173000Y-40636605D01*
X113359903Y-41449702D01*
X81407000Y-41449702D01*
X81407000Y-40527512D01*
X112732783Y-40527512D01*
X112774213Y-40807130D01*
X112869397Y-41073292D01*
X112936329Y-41198514D01*
X113180298Y-41270097D01*
X113993395Y-40457000D01*
X114352605Y-40457000D01*
X115165702Y-41270097D01*
X115409671Y-41198514D01*
X115530571Y-40943004D01*
X115599300Y-40668816D01*
X115613217Y-40386488D01*
X115571787Y-40106870D01*
X115476603Y-39840708D01*
X115409671Y-39715486D01*
X115165702Y-39643903D01*
X114352605Y-40457000D01*
X113993395Y-40457000D01*
X113180298Y-39643903D01*
X112936329Y-39715486D01*
X112815429Y-39970996D01*
X112746700Y-40245184D01*
X112732783Y-40527512D01*
X81407000Y-40527512D01*
X81407000Y-39464298D01*
X113359903Y-39464298D01*
X114173000Y-40277395D01*
X114986097Y-39464298D01*
X114914514Y-39220329D01*
X114659004Y-39099429D01*
X114384816Y-39030700D01*
X114102488Y-39016783D01*
X113822870Y-39058213D01*
X113556708Y-39153397D01*
X113431486Y-39220329D01*
X113359903Y-39464298D01*
X81407000Y-39464298D01*
X81407000Y-36609872D01*
X82855000Y-36609872D01*
X82855000Y-37050128D01*
X82940890Y-37481925D01*
X83109369Y-37888669D01*
X83353962Y-38254729D01*
X83665271Y-38566038D01*
X84031331Y-38810631D01*
X84438075Y-38979110D01*
X84869872Y-39065000D01*
X85310128Y-39065000D01*
X85741925Y-38979110D01*
X86148669Y-38810631D01*
X86514729Y-38566038D01*
X86774543Y-38306224D01*
X91921381Y-38306224D01*
X92053317Y-38601312D01*
X92394045Y-38772159D01*
X92761557Y-38873250D01*
X93141729Y-38900701D01*
X93519951Y-38853457D01*
X93881690Y-38733333D01*
X94128683Y-38601312D01*
X94260619Y-38306224D01*
X93091000Y-37136605D01*
X91921381Y-38306224D01*
X86774543Y-38306224D01*
X86826038Y-38254729D01*
X87070631Y-37888669D01*
X87239110Y-37481925D01*
X87325000Y-37050128D01*
X87325000Y-37007729D01*
X91147299Y-37007729D01*
X91194543Y-37385951D01*
X91314667Y-37747690D01*
X91446688Y-37994683D01*
X91741776Y-38126619D01*
X92911395Y-36957000D01*
X93270605Y-36957000D01*
X94440224Y-38126619D01*
X94735312Y-37994683D01*
X94906159Y-37653955D01*
X95007250Y-37286443D01*
X95034701Y-36906271D01*
X95017232Y-36766419D01*
X98649000Y-36766419D01*
X98649000Y-37147581D01*
X98723361Y-37521419D01*
X98869225Y-37873566D01*
X99080987Y-38190491D01*
X99350509Y-38460013D01*
X99667434Y-38671775D01*
X100019581Y-38817639D01*
X100393419Y-38892000D01*
X100774581Y-38892000D01*
X101148419Y-38817639D01*
X101500566Y-38671775D01*
X101817491Y-38460013D01*
X102087013Y-38190491D01*
X102298775Y-37873566D01*
X102311850Y-37842000D01*
X103163386Y-37842000D01*
X103194595Y-37900387D01*
X103305038Y-38034962D01*
X103439613Y-38145405D01*
X103593149Y-38227472D01*
X103759745Y-38278008D01*
X103932999Y-38295072D01*
X104633001Y-38295072D01*
X104806255Y-38278008D01*
X104972851Y-38227472D01*
X105126387Y-38145405D01*
X105260962Y-38034962D01*
X105283000Y-38008109D01*
X105305038Y-38034962D01*
X105439613Y-38145405D01*
X105593149Y-38227472D01*
X105759745Y-38278008D01*
X105932999Y-38295072D01*
X106633001Y-38295072D01*
X106806255Y-38278008D01*
X106972851Y-38227472D01*
X107126387Y-38145405D01*
X107260962Y-38034962D01*
X107345413Y-37932058D01*
X107394102Y-37952226D01*
X107594061Y-37992000D01*
X107797939Y-37992000D01*
X107997898Y-37952226D01*
X108186256Y-37874205D01*
X108355774Y-37760937D01*
X108499937Y-37616774D01*
X108613205Y-37447256D01*
X108691226Y-37258898D01*
X108731000Y-37058939D01*
X108731000Y-36855061D01*
X108691226Y-36655102D01*
X108613205Y-36466744D01*
X108499937Y-36297226D01*
X108359711Y-36157000D01*
X112734928Y-36157000D01*
X112734928Y-37757000D01*
X112747188Y-37881482D01*
X112783498Y-38001180D01*
X112842463Y-38111494D01*
X112921815Y-38208185D01*
X113018506Y-38287537D01*
X113128820Y-38346502D01*
X113248518Y-38382812D01*
X113373000Y-38395072D01*
X114973000Y-38395072D01*
X115097482Y-38382812D01*
X115217180Y-38346502D01*
X115327494Y-38287537D01*
X115424185Y-38208185D01*
X115503537Y-38111494D01*
X115562502Y-38001180D01*
X115598812Y-37881482D01*
X115611072Y-37757000D01*
X115611072Y-36766419D01*
X127605000Y-36766419D01*
X127605000Y-37147581D01*
X127679361Y-37521419D01*
X127825225Y-37873566D01*
X128036987Y-38190491D01*
X128306509Y-38460013D01*
X128623434Y-38671775D01*
X128975581Y-38817639D01*
X129349419Y-38892000D01*
X129730581Y-38892000D01*
X130104419Y-38817639D01*
X130456566Y-38671775D01*
X130773491Y-38460013D01*
X130927280Y-38306224D01*
X135990381Y-38306224D01*
X136122317Y-38601312D01*
X136463045Y-38772159D01*
X136830557Y-38873250D01*
X137210729Y-38900701D01*
X137588951Y-38853457D01*
X137950690Y-38733333D01*
X138197683Y-38601312D01*
X138329619Y-38306224D01*
X137160000Y-37136605D01*
X135990381Y-38306224D01*
X130927280Y-38306224D01*
X131043013Y-38190491D01*
X131254775Y-37873566D01*
X131400639Y-37521419D01*
X131475000Y-37147581D01*
X131475000Y-37007729D01*
X135216299Y-37007729D01*
X135263543Y-37385951D01*
X135383667Y-37747690D01*
X135515688Y-37994683D01*
X135810776Y-38126619D01*
X136980395Y-36957000D01*
X137339605Y-36957000D01*
X138509224Y-38126619D01*
X138804312Y-37994683D01*
X138975159Y-37653955D01*
X139076250Y-37286443D01*
X139103701Y-36906271D01*
X139066678Y-36609872D01*
X143815000Y-36609872D01*
X143815000Y-37050128D01*
X143900890Y-37481925D01*
X144069369Y-37888669D01*
X144313962Y-38254729D01*
X144625271Y-38566038D01*
X144991331Y-38810631D01*
X145398075Y-38979110D01*
X145829872Y-39065000D01*
X146270128Y-39065000D01*
X146701925Y-38979110D01*
X147108669Y-38810631D01*
X147474729Y-38566038D01*
X147786038Y-38254729D01*
X148030631Y-37888669D01*
X148199110Y-37481925D01*
X148285000Y-37050128D01*
X148285000Y-36609872D01*
X148199110Y-36178075D01*
X148030631Y-35771331D01*
X147786038Y-35405271D01*
X147474729Y-35093962D01*
X147108669Y-34849369D01*
X146701925Y-34680890D01*
X146270128Y-34595000D01*
X145829872Y-34595000D01*
X145398075Y-34680890D01*
X144991331Y-34849369D01*
X144625271Y-35093962D01*
X144313962Y-35405271D01*
X144069369Y-35771331D01*
X143900890Y-36178075D01*
X143815000Y-36609872D01*
X139066678Y-36609872D01*
X139056457Y-36528049D01*
X138936333Y-36166310D01*
X138804312Y-35919317D01*
X138509224Y-35787381D01*
X137339605Y-36957000D01*
X136980395Y-36957000D01*
X135810776Y-35787381D01*
X135515688Y-35919317D01*
X135344841Y-36260045D01*
X135243750Y-36627557D01*
X135216299Y-37007729D01*
X131475000Y-37007729D01*
X131475000Y-36766419D01*
X131400639Y-36392581D01*
X131254775Y-36040434D01*
X131043013Y-35723509D01*
X130927280Y-35607776D01*
X135990381Y-35607776D01*
X137160000Y-36777395D01*
X138329619Y-35607776D01*
X138197683Y-35312688D01*
X137856955Y-35141841D01*
X137489443Y-35040750D01*
X137109271Y-35013299D01*
X136731049Y-35060543D01*
X136369310Y-35180667D01*
X136122317Y-35312688D01*
X135990381Y-35607776D01*
X130927280Y-35607776D01*
X130773491Y-35453987D01*
X130456566Y-35242225D01*
X130104419Y-35096361D01*
X129730581Y-35022000D01*
X129349419Y-35022000D01*
X128975581Y-35096361D01*
X128623434Y-35242225D01*
X128306509Y-35453987D01*
X128036987Y-35723509D01*
X127825225Y-36040434D01*
X127679361Y-36392581D01*
X127605000Y-36766419D01*
X115611072Y-36766419D01*
X115611072Y-36157000D01*
X115598812Y-36032518D01*
X115562502Y-35912820D01*
X115503537Y-35802506D01*
X115424185Y-35705815D01*
X115327494Y-35626463D01*
X115217180Y-35567498D01*
X115097482Y-35531188D01*
X114973000Y-35518928D01*
X113373000Y-35518928D01*
X113248518Y-35531188D01*
X113128820Y-35567498D01*
X113018506Y-35626463D01*
X112921815Y-35705815D01*
X112842463Y-35802506D01*
X112783498Y-35912820D01*
X112747188Y-36032518D01*
X112734928Y-36157000D01*
X108359711Y-36157000D01*
X108355774Y-36153063D01*
X108186256Y-36039795D01*
X107997898Y-35961774D01*
X107797939Y-35922000D01*
X107594061Y-35922000D01*
X107394102Y-35961774D01*
X107345413Y-35981942D01*
X107260962Y-35879038D01*
X107126387Y-35768595D01*
X106972851Y-35686528D01*
X106806255Y-35635992D01*
X106633001Y-35618928D01*
X105932999Y-35618928D01*
X105759745Y-35635992D01*
X105593149Y-35686528D01*
X105439613Y-35768595D01*
X105305038Y-35879038D01*
X105283000Y-35905891D01*
X105260962Y-35879038D01*
X105126387Y-35768595D01*
X104972851Y-35686528D01*
X104806255Y-35635992D01*
X104633001Y-35618928D01*
X103932999Y-35618928D01*
X103759745Y-35635992D01*
X103593149Y-35686528D01*
X103439613Y-35768595D01*
X103305038Y-35879038D01*
X103194595Y-36013613D01*
X103163386Y-36072000D01*
X102311850Y-36072000D01*
X102298775Y-36040434D01*
X102087013Y-35723509D01*
X101817491Y-35453987D01*
X101500566Y-35242225D01*
X101148419Y-35096361D01*
X100774581Y-35022000D01*
X100393419Y-35022000D01*
X100019581Y-35096361D01*
X99667434Y-35242225D01*
X99350509Y-35453987D01*
X99080987Y-35723509D01*
X98869225Y-36040434D01*
X98723361Y-36392581D01*
X98649000Y-36766419D01*
X95017232Y-36766419D01*
X94987457Y-36528049D01*
X94867333Y-36166310D01*
X94735312Y-35919317D01*
X94440224Y-35787381D01*
X93270605Y-36957000D01*
X92911395Y-36957000D01*
X91741776Y-35787381D01*
X91446688Y-35919317D01*
X91275841Y-36260045D01*
X91174750Y-36627557D01*
X91147299Y-37007729D01*
X87325000Y-37007729D01*
X87325000Y-36609872D01*
X87239110Y-36178075D01*
X87070631Y-35771331D01*
X86961348Y-35607776D01*
X91921381Y-35607776D01*
X93091000Y-36777395D01*
X94260619Y-35607776D01*
X94128683Y-35312688D01*
X93787955Y-35141841D01*
X93420443Y-35040750D01*
X93040271Y-35013299D01*
X92662049Y-35060543D01*
X92300310Y-35180667D01*
X92053317Y-35312688D01*
X91921381Y-35607776D01*
X86961348Y-35607776D01*
X86826038Y-35405271D01*
X86514729Y-35093962D01*
X86148669Y-34849369D01*
X85741925Y-34680890D01*
X85310128Y-34595000D01*
X84869872Y-34595000D01*
X84438075Y-34680890D01*
X84031331Y-34849369D01*
X83665271Y-35093962D01*
X83353962Y-35405271D01*
X83109369Y-35771331D01*
X82940890Y-36178075D01*
X82855000Y-36609872D01*
X81407000Y-36609872D01*
X81407000Y-33186541D01*
X149733000Y-33107460D01*
X149733000Y-91233772D01*
G37*
G04 #@! TD.AperFunction*
D27*
X127316821Y-54216503D02*
X127433842Y-54252001D01*
X127316821Y-54287499D01*
X127206507Y-54346464D01*
X127166860Y-54379001D01*
X127084751Y-54379001D01*
X126926001Y-54537751D01*
X126925373Y-54545769D01*
X126917502Y-54519820D01*
X126858537Y-54409506D01*
X126779185Y-54312815D01*
X126699406Y-54247342D01*
X126705962Y-54241962D01*
X126771995Y-54161500D01*
X127213919Y-54161500D01*
X127316821Y-54216503D01*
G04 #@! TA.AperFunction,Conductor*
D28*
G36*
X127316821Y-54216503D02*
G01*
X127433842Y-54252001D01*
X127316821Y-54287499D01*
X127206507Y-54346464D01*
X127166860Y-54379001D01*
X127084751Y-54379001D01*
X126926001Y-54537751D01*
X126925373Y-54545769D01*
X126917502Y-54519820D01*
X126858537Y-54409506D01*
X126779185Y-54312815D01*
X126699406Y-54247342D01*
X126705962Y-54241962D01*
X126771995Y-54161500D01*
X127213919Y-54161500D01*
X127316821Y-54216503D01*
G37*
G04 #@! TD.AperFunction*
M02*
