G04 #@! TF.GenerationSoftware,KiCad,Pcbnew,(5.1.10-0-10_14)*
G04 #@! TF.CreationDate,2021-06-26T15:35:32+02:00*
G04 #@! TF.ProjectId,dac,6461632e-6b69-4636-9164-5f7063625858,rev?*
G04 #@! TF.SameCoordinates,Original*
G04 #@! TF.FileFunction,Copper,L4,Bot*
G04 #@! TF.FilePolarity,Positive*
%FSLAX46Y46*%
G04 Gerber Fmt 4.6, Leading zero omitted, Abs format (unit mm)*
G04 Created by KiCad (PCBNEW (5.1.10-0-10_14)) date 2021-06-26 15:35:32*
%MOMM*%
%LPD*%
G01*
G04 APERTURE LIST*
G04 #@! TA.AperFunction,EtchedComponent*
%ADD10C,0.100000*%
G04 #@! TD*
G04 #@! TA.AperFunction,ComponentPad*
%ADD11C,1.308000*%
G04 #@! TD*
G04 #@! TA.AperFunction,ComponentPad*
%ADD12C,1.650000*%
G04 #@! TD*
G04 #@! TA.AperFunction,ComponentPad*
%ADD13C,2.000000*%
G04 #@! TD*
G04 #@! TA.AperFunction,ComponentPad*
%ADD14R,1.308000X1.308000*%
G04 #@! TD*
G04 #@! TA.AperFunction,ComponentPad*
%ADD15O,1.700000X1.700000*%
G04 #@! TD*
G04 #@! TA.AperFunction,ComponentPad*
%ADD16R,1.700000X1.700000*%
G04 #@! TD*
G04 #@! TA.AperFunction,SMDPad,CuDef*
%ADD17C,0.100000*%
G04 #@! TD*
G04 #@! TA.AperFunction,SMDPad,CuDef*
%ADD18R,1.500000X1.000000*%
G04 #@! TD*
G04 #@! TA.AperFunction,ComponentPad*
%ADD19C,1.600000*%
G04 #@! TD*
G04 #@! TA.AperFunction,ComponentPad*
%ADD20R,1.600000X1.600000*%
G04 #@! TD*
G04 #@! TA.AperFunction,ViaPad*
%ADD21C,0.450000*%
G04 #@! TD*
G04 #@! TA.AperFunction,ViaPad*
%ADD22C,0.600000*%
G04 #@! TD*
G04 #@! TA.AperFunction,ViaPad*
%ADD23C,0.800000*%
G04 #@! TD*
G04 #@! TA.AperFunction,Conductor*
%ADD24C,0.250000*%
G04 #@! TD*
G04 #@! TA.AperFunction,Conductor*
%ADD25C,0.500000*%
G04 #@! TD*
G04 APERTURE END LIST*
D10*
G36*
X130043200Y-103638400D02*
G01*
X130043200Y-103138400D01*
X129443200Y-103138400D01*
X129443200Y-103638400D01*
X130043200Y-103638400D01*
G37*
D11*
X115088500Y-96393000D03*
X115088500Y-98933000D03*
X115088500Y-101473000D03*
D12*
X112458500Y-101473000D03*
X112458500Y-96393000D03*
D11*
X115025000Y-83185000D03*
X115025000Y-85725000D03*
X115025000Y-88265000D03*
D12*
X112395000Y-88265000D03*
X112395000Y-83185000D03*
D11*
X115025000Y-70104000D03*
X115025000Y-72644000D03*
X115025000Y-75184000D03*
D12*
X112395000Y-75184000D03*
X112395000Y-70104000D03*
G04 #@! TA.AperFunction,SMDPad,CuDef*
G36*
G01*
X116539000Y-100528000D02*
X117014000Y-100528000D01*
G75*
G02*
X117251500Y-100765500I0J-237500D01*
G01*
X117251500Y-101365500D01*
G75*
G02*
X117014000Y-101603000I-237500J0D01*
G01*
X116539000Y-101603000D01*
G75*
G02*
X116301500Y-101365500I0J237500D01*
G01*
X116301500Y-100765500D01*
G75*
G02*
X116539000Y-100528000I237500J0D01*
G01*
G37*
G04 #@! TD.AperFunction*
G04 #@! TA.AperFunction,SMDPad,CuDef*
G36*
G01*
X116539000Y-98803000D02*
X117014000Y-98803000D01*
G75*
G02*
X117251500Y-99040500I0J-237500D01*
G01*
X117251500Y-99640500D01*
G75*
G02*
X117014000Y-99878000I-237500J0D01*
G01*
X116539000Y-99878000D01*
G75*
G02*
X116301500Y-99640500I0J237500D01*
G01*
X116301500Y-99040500D01*
G75*
G02*
X116539000Y-98803000I237500J0D01*
G01*
G37*
G04 #@! TD.AperFunction*
G04 #@! TA.AperFunction,SMDPad,CuDef*
G36*
G01*
X116475500Y-87256500D02*
X116950500Y-87256500D01*
G75*
G02*
X117188000Y-87494000I0J-237500D01*
G01*
X117188000Y-88094000D01*
G75*
G02*
X116950500Y-88331500I-237500J0D01*
G01*
X116475500Y-88331500D01*
G75*
G02*
X116238000Y-88094000I0J237500D01*
G01*
X116238000Y-87494000D01*
G75*
G02*
X116475500Y-87256500I237500J0D01*
G01*
G37*
G04 #@! TD.AperFunction*
G04 #@! TA.AperFunction,SMDPad,CuDef*
G36*
G01*
X116475500Y-85531500D02*
X116950500Y-85531500D01*
G75*
G02*
X117188000Y-85769000I0J-237500D01*
G01*
X117188000Y-86369000D01*
G75*
G02*
X116950500Y-86606500I-237500J0D01*
G01*
X116475500Y-86606500D01*
G75*
G02*
X116238000Y-86369000I0J237500D01*
G01*
X116238000Y-85769000D01*
G75*
G02*
X116475500Y-85531500I237500J0D01*
G01*
G37*
G04 #@! TD.AperFunction*
G04 #@! TA.AperFunction,SMDPad,CuDef*
G36*
G01*
X116475500Y-74175500D02*
X116950500Y-74175500D01*
G75*
G02*
X117188000Y-74413000I0J-237500D01*
G01*
X117188000Y-75013000D01*
G75*
G02*
X116950500Y-75250500I-237500J0D01*
G01*
X116475500Y-75250500D01*
G75*
G02*
X116238000Y-75013000I0J237500D01*
G01*
X116238000Y-74413000D01*
G75*
G02*
X116475500Y-74175500I237500J0D01*
G01*
G37*
G04 #@! TD.AperFunction*
G04 #@! TA.AperFunction,SMDPad,CuDef*
G36*
G01*
X116475500Y-72450500D02*
X116950500Y-72450500D01*
G75*
G02*
X117188000Y-72688000I0J-237500D01*
G01*
X117188000Y-73288000D01*
G75*
G02*
X116950500Y-73525500I-237500J0D01*
G01*
X116475500Y-73525500D01*
G75*
G02*
X116238000Y-73288000I0J237500D01*
G01*
X116238000Y-72688000D01*
G75*
G02*
X116475500Y-72450500I237500J0D01*
G01*
G37*
G04 #@! TD.AperFunction*
D13*
X127952500Y-60325000D03*
X133350000Y-60325000D03*
D14*
X130238500Y-109728000D03*
D11*
X131508500Y-107188000D03*
X132778500Y-109728000D03*
X134048500Y-107188000D03*
X135318500Y-109728000D03*
X136588500Y-107188000D03*
X137858500Y-109728000D03*
X139128500Y-107188000D03*
X140398500Y-109728000D03*
X141668500Y-107188000D03*
D14*
X182245000Y-99060000D03*
D11*
X179705000Y-97790000D03*
X182245000Y-96520000D03*
X179705000Y-95250000D03*
X182245000Y-93980000D03*
X179705000Y-92710000D03*
X182245000Y-91440000D03*
X179705000Y-90170000D03*
X182245000Y-88900000D03*
X179705000Y-87630000D03*
D14*
X182245000Y-80645000D03*
D11*
X179705000Y-79375000D03*
X182245000Y-78105000D03*
X179705000Y-76835000D03*
X182245000Y-75565000D03*
X179705000Y-74295000D03*
X182245000Y-73025000D03*
X179705000Y-71755000D03*
X182245000Y-70485000D03*
X179705000Y-69215000D03*
D15*
X137223500Y-79438500D03*
X134683500Y-79438500D03*
D16*
X132143500Y-79438500D03*
G04 #@! TA.AperFunction,SMDPad,CuDef*
D17*
G36*
X130493200Y-103488400D02*
G01*
X130493200Y-104038400D01*
X130492598Y-104038400D01*
X130492598Y-104062934D01*
X130487788Y-104111765D01*
X130478216Y-104159890D01*
X130463972Y-104206845D01*
X130445195Y-104252178D01*
X130422064Y-104295451D01*
X130394804Y-104336250D01*
X130363676Y-104374179D01*
X130328979Y-104408876D01*
X130291050Y-104440004D01*
X130250251Y-104467264D01*
X130206978Y-104490395D01*
X130161645Y-104509172D01*
X130114690Y-104523416D01*
X130066565Y-104532988D01*
X130017734Y-104537798D01*
X129993200Y-104537798D01*
X129993200Y-104538400D01*
X129493200Y-104538400D01*
X129493200Y-104537798D01*
X129468666Y-104537798D01*
X129419835Y-104532988D01*
X129371710Y-104523416D01*
X129324755Y-104509172D01*
X129279422Y-104490395D01*
X129236149Y-104467264D01*
X129195350Y-104440004D01*
X129157421Y-104408876D01*
X129122724Y-104374179D01*
X129091596Y-104336250D01*
X129064336Y-104295451D01*
X129041205Y-104252178D01*
X129022428Y-104206845D01*
X129008184Y-104159890D01*
X128998612Y-104111765D01*
X128993802Y-104062934D01*
X128993802Y-104038400D01*
X128993200Y-104038400D01*
X128993200Y-103488400D01*
X130493200Y-103488400D01*
G37*
G04 #@! TD.AperFunction*
D18*
X129743200Y-102738400D03*
G04 #@! TA.AperFunction,SMDPad,CuDef*
D17*
G36*
X128993802Y-101438400D02*
G01*
X128993802Y-101413866D01*
X128998612Y-101365035D01*
X129008184Y-101316910D01*
X129022428Y-101269955D01*
X129041205Y-101224622D01*
X129064336Y-101181349D01*
X129091596Y-101140550D01*
X129122724Y-101102621D01*
X129157421Y-101067924D01*
X129195350Y-101036796D01*
X129236149Y-101009536D01*
X129279422Y-100986405D01*
X129324755Y-100967628D01*
X129371710Y-100953384D01*
X129419835Y-100943812D01*
X129468666Y-100939002D01*
X129493200Y-100939002D01*
X129493200Y-100938400D01*
X129993200Y-100938400D01*
X129993200Y-100939002D01*
X130017734Y-100939002D01*
X130066565Y-100943812D01*
X130114690Y-100953384D01*
X130161645Y-100967628D01*
X130206978Y-100986405D01*
X130250251Y-101009536D01*
X130291050Y-101036796D01*
X130328979Y-101067924D01*
X130363676Y-101102621D01*
X130394804Y-101140550D01*
X130422064Y-101181349D01*
X130445195Y-101224622D01*
X130463972Y-101269955D01*
X130478216Y-101316910D01*
X130487788Y-101365035D01*
X130492598Y-101413866D01*
X130492598Y-101438400D01*
X130493200Y-101438400D01*
X130493200Y-101988400D01*
X128993200Y-101988400D01*
X128993200Y-101438400D01*
X128993802Y-101438400D01*
G37*
G04 #@! TD.AperFunction*
D13*
X166243000Y-110363000D03*
X160210500Y-110363000D03*
D19*
X160210500Y-101402000D03*
D20*
X160210500Y-104902000D03*
D15*
X125476000Y-86156800D03*
X125476000Y-88696800D03*
X125476000Y-91236800D03*
X125476000Y-93776800D03*
X125476000Y-96316800D03*
D16*
X125476000Y-98856800D03*
D21*
X165709600Y-72542400D03*
X165735000Y-74295000D03*
X164566600Y-87401400D03*
D22*
X170992800Y-58216800D03*
X141757400Y-73152000D03*
X147535900Y-74053700D03*
X157124400Y-81432400D03*
X146685000Y-80340200D03*
X131508500Y-96329500D03*
D21*
X166096000Y-85770400D03*
X172491400Y-80391000D03*
X162411400Y-88693000D03*
D22*
X155445800Y-61470200D03*
X160629600Y-68072000D03*
X170977600Y-63007200D03*
D21*
X132160000Y-83422500D03*
D22*
X152579000Y-81840000D03*
D21*
X140415000Y-99932500D03*
D23*
X131508500Y-101663500D03*
D22*
X140447000Y-67515500D03*
X146240500Y-68453000D03*
X143778001Y-76439999D03*
X148858001Y-76439999D03*
D23*
X152590500Y-96329500D03*
D21*
X155600400Y-79603600D03*
X159258000Y-78837000D03*
X155600400Y-77520800D03*
X161772225Y-77485808D03*
X135331200Y-88696800D03*
X134061200Y-91236800D03*
X158902400Y-80873600D03*
X144208500Y-84667000D03*
X151299000Y-84667000D03*
X151257000Y-86868000D03*
X178175999Y-71755000D03*
X178175999Y-87878999D03*
X141668500Y-85217000D03*
X159054800Y-82194400D03*
X149796499Y-85217001D03*
X159067500Y-85217000D03*
X177625999Y-74295000D03*
X177625999Y-86470501D03*
X162204400Y-79400400D03*
D22*
X165989000Y-93281500D03*
D21*
X167690800Y-74218800D03*
X167690800Y-72491600D03*
X163271200Y-85699600D03*
X161747200Y-79959200D03*
X161571002Y-82854800D03*
X161594800Y-85750400D03*
X160528000Y-83718400D03*
X140970000Y-94615000D03*
X160518001Y-94053499D03*
X178725999Y-84227501D03*
X172466000Y-77978000D03*
X170624500Y-77851000D03*
X174879000Y-75565000D03*
X170624500Y-78867000D03*
X171653200Y-72694800D03*
X160985200Y-74853800D03*
X171653200Y-74828400D03*
X169189400Y-83693000D03*
X174180500Y-96520000D03*
X170459400Y-82372200D03*
X173101000Y-93980000D03*
X170510200Y-81322199D03*
X171450000Y-91440000D03*
X170053000Y-62992000D03*
X170053000Y-68707000D03*
X173228000Y-61925200D03*
X175975998Y-80645000D03*
X162119800Y-83362800D03*
X170027600Y-72694800D03*
X164033200Y-82550000D03*
X173228000Y-59740800D03*
X139128500Y-97980500D03*
X137843498Y-97995502D03*
X139128500Y-85344000D03*
X139128500Y-82296000D03*
X135318500Y-97980500D03*
X134048500Y-97980500D03*
X141668500Y-97980500D03*
X144208500Y-98044000D03*
X143573500Y-89979500D03*
X143573500Y-100457000D03*
X142938500Y-98044000D03*
D23*
X149987000Y-104902000D03*
X164211000Y-104902000D03*
D22*
X123952000Y-70104000D03*
X123952000Y-83210400D03*
D23*
X123952000Y-96393000D03*
D21*
X136601200Y-94538800D03*
X149542500Y-89281000D03*
X177075999Y-76835000D03*
X177075999Y-89255499D03*
X136588500Y-85534500D03*
X140411200Y-88849200D03*
X145542000Y-89281000D03*
X166573200Y-74117200D03*
X147525377Y-70942158D03*
X141746826Y-70068312D03*
X168240800Y-73790771D03*
X159639000Y-76009500D03*
X164759261Y-77153338D03*
X159639000Y-74485500D03*
X163703000Y-76898500D03*
X164592000Y-73888600D03*
X155676600Y-73406000D03*
X151320500Y-73406000D03*
X151320500Y-60896500D03*
X165608000Y-77152500D03*
X145986500Y-77660500D03*
X135699500Y-64897000D03*
X141097000Y-70053200D03*
X146875500Y-70954900D03*
X144398044Y-81914740D03*
D24*
X115369000Y-72988000D02*
X115025000Y-72644000D01*
X116713000Y-72988000D02*
X115369000Y-72988000D01*
X115369000Y-86069000D02*
X115025000Y-85725000D01*
X116713000Y-86069000D02*
X115369000Y-86069000D01*
X115496000Y-99340500D02*
X115088500Y-98933000D01*
X116776500Y-99340500D02*
X115496000Y-99340500D01*
X166096000Y-85770400D02*
X166096000Y-85770400D01*
D25*
X125488700Y-96329500D02*
X125476000Y-96316800D01*
X152579000Y-64337000D02*
X155445800Y-61470200D01*
D24*
X152654000Y-68072000D02*
X152579000Y-68147000D01*
D25*
X152755600Y-68072000D02*
X152579000Y-67895400D01*
X160629600Y-68072000D02*
X152755600Y-68072000D01*
X152579000Y-67895400D02*
X152579000Y-64337000D01*
X152579000Y-68147000D02*
X152579000Y-67895400D01*
X170977600Y-62582936D02*
X170977600Y-63007200D01*
X169864864Y-61470200D02*
X170977600Y-62582936D01*
X155445800Y-61470200D02*
X169864864Y-61470200D01*
D24*
X134586201Y-96299799D02*
X134556500Y-96329500D01*
X134611201Y-96104801D02*
X134835900Y-96329500D01*
D25*
X134556500Y-96329500D02*
X134835900Y-96329500D01*
D24*
X132160000Y-96313000D02*
X132143500Y-96329500D01*
X132160000Y-83422500D02*
X132160000Y-96313000D01*
D25*
X132143500Y-96329500D02*
X134556500Y-96329500D01*
X131508500Y-96329500D02*
X132143500Y-96329500D01*
D24*
X152488900Y-70764400D02*
X152579000Y-70854500D01*
X152514300Y-70015100D02*
X152579000Y-70079800D01*
D25*
X152579000Y-70854500D02*
X152579000Y-70079800D01*
X129968300Y-101663500D02*
X129743200Y-101438400D01*
X152579000Y-81840000D02*
X152579000Y-78665000D01*
D24*
X132160000Y-79455000D02*
X132143500Y-79438500D01*
X132160000Y-83422500D02*
X132160000Y-79455000D01*
X125463300Y-96329500D02*
X125476000Y-96316800D01*
D25*
X131508500Y-101663500D02*
X129968300Y-101663500D01*
D24*
X152512999Y-76439999D02*
X152579000Y-76506000D01*
D25*
X152579000Y-76506000D02*
X152579000Y-70854500D01*
X152579000Y-78665000D02*
X152579000Y-76506000D01*
D24*
X148858001Y-76439999D02*
X152512999Y-76439999D01*
X143778001Y-76439999D02*
X148858001Y-76439999D01*
X146240500Y-68453000D02*
X152504000Y-68453000D01*
X152504000Y-68453000D02*
X152579000Y-68528000D01*
D25*
X152579000Y-68528000D02*
X152579000Y-68147000D01*
X152579000Y-70079800D02*
X152579000Y-68528000D01*
D24*
X145303000Y-67515500D02*
X146240500Y-68453000D01*
X140447000Y-67515500D02*
X145303000Y-67515500D01*
D25*
X152590500Y-96329500D02*
X143129000Y-96329500D01*
X152590500Y-90868500D02*
X152579000Y-90857000D01*
X152590500Y-96329500D02*
X152590500Y-90868500D01*
D24*
X152637500Y-88693000D02*
X152579000Y-88634500D01*
X162411400Y-88693000D02*
X152637500Y-88693000D01*
D25*
X152579000Y-88634500D02*
X152579000Y-81840000D01*
X152579000Y-90857000D02*
X152579000Y-88634500D01*
X165003502Y-96329500D02*
X172491400Y-88841602D01*
X152590500Y-96329500D02*
X165003502Y-96329500D01*
D24*
X172447900Y-85770400D02*
X172491400Y-85813900D01*
D25*
X172491400Y-85813900D02*
X172491400Y-80391000D01*
D24*
X166096000Y-85770400D02*
X172447900Y-85770400D01*
D25*
X172491400Y-88841602D02*
X172491400Y-85813900D01*
X131508500Y-101663500D02*
X131508500Y-96329500D01*
D24*
X140415000Y-96440000D02*
X140525500Y-96329500D01*
D25*
X140525500Y-96329500D02*
X134835900Y-96329500D01*
D24*
X140415000Y-99932500D02*
X140415000Y-96440000D01*
D25*
X143129000Y-96329500D02*
X140525500Y-96329500D01*
D24*
X165544500Y-82740500D02*
X162204400Y-79400400D01*
X165544500Y-82955000D02*
X165544500Y-82740500D01*
X165544500Y-82955000D02*
X165544500Y-92837000D01*
X165544500Y-92837000D02*
X165989000Y-93281500D01*
X165989000Y-93281500D02*
X165989000Y-93281500D01*
D25*
X129818100Y-103963500D02*
X129743200Y-104038400D01*
X160210500Y-104902000D02*
X149987000Y-104902000D01*
X160210500Y-104902000D02*
X164211000Y-104902000D01*
X160210500Y-110363000D02*
X160210500Y-104902000D01*
X149123400Y-104038400D02*
X149987000Y-104902000D01*
X129743200Y-104038400D02*
X149123400Y-104038400D01*
X127152400Y-100864812D02*
X127152400Y-83210400D01*
X127152400Y-83210400D02*
X123952000Y-83210400D01*
X127152400Y-83210400D02*
X127152400Y-70104000D01*
X127152400Y-70104000D02*
X123952000Y-70104000D01*
X129025988Y-102738400D02*
X127152400Y-100864812D01*
X129743200Y-102738400D02*
X129025988Y-102738400D01*
X123952000Y-96393000D02*
X123952000Y-83210400D01*
D24*
X115496000Y-74713000D02*
X115025000Y-75184000D01*
X116713000Y-74713000D02*
X115496000Y-74713000D01*
X115496000Y-87794000D02*
X115025000Y-88265000D01*
X116713000Y-87794000D02*
X115496000Y-87794000D01*
X115496000Y-101065500D02*
X115088500Y-101473000D01*
X116776500Y-101065500D02*
X115496000Y-101065500D01*
M02*
