G04 #@! TF.GenerationSoftware,KiCad,Pcbnew,(5.1.10-0-10_14)*
G04 #@! TF.CreationDate,2021-06-26T15:35:32+02:00*
G04 #@! TF.ProjectId,dac,6461632e-6b69-4636-9164-5f7063625858,rev?*
G04 #@! TF.SameCoordinates,Original*
G04 #@! TF.FileFunction,Soldermask,Top*
G04 #@! TF.FilePolarity,Negative*
%FSLAX46Y46*%
G04 Gerber Fmt 4.6, Leading zero omitted, Abs format (unit mm)*
G04 Created by KiCad (PCBNEW (5.1.10-0-10_14)) date 2021-06-26 15:35:32*
%MOMM*%
%LPD*%
G01*
G04 APERTURE LIST*
%ADD10C,1.308000*%
%ADD11C,1.650000*%
%ADD12R,1.600000X1.000000*%
%ADD13R,0.400000X1.500000*%
%ADD14C,2.000000*%
%ADD15R,1.308000X1.308000*%
%ADD16C,1.500000*%
%ADD17O,1.700000X1.700000*%
%ADD18R,1.700000X1.700000*%
%ADD19R,0.900000X1.200000*%
%ADD20R,0.650000X1.060000*%
%ADD21R,2.000000X1.500000*%
%ADD22R,2.000000X3.800000*%
%ADD23R,3.500000X2.000000*%
%ADD24C,1.600000*%
%ADD25R,1.600000X1.600000*%
%ADD26C,3.200000*%
%ADD27R,1.300000X0.250000*%
%ADD28R,0.250000X1.300000*%
G04 APERTURE END LIST*
D10*
X115088500Y-96393000D03*
X115088500Y-98933000D03*
X115088500Y-101473000D03*
D11*
X112458500Y-101473000D03*
X112458500Y-96393000D03*
D10*
X115025000Y-83185000D03*
X115025000Y-85725000D03*
X115025000Y-88265000D03*
D11*
X112395000Y-88265000D03*
X112395000Y-83185000D03*
D10*
X115025000Y-70104000D03*
X115025000Y-72644000D03*
X115025000Y-75184000D03*
D11*
X112395000Y-75184000D03*
X112395000Y-70104000D03*
D12*
X137471000Y-64897000D03*
X148971000Y-64897000D03*
X137471000Y-62357000D03*
X148971000Y-62357000D03*
X137471000Y-59817000D03*
X148971000Y-59817000D03*
D13*
X143778001Y-77692001D03*
X145078001Y-77692001D03*
X145078001Y-80352001D03*
X144428001Y-80352001D03*
X143778001Y-80352001D03*
G36*
G01*
X122107500Y-96743001D02*
X122107500Y-96042999D01*
G75*
G02*
X122357499Y-95793000I249999J0D01*
G01*
X122907501Y-95793000D01*
G75*
G02*
X123157500Y-96042999I0J-249999D01*
G01*
X123157500Y-96743001D01*
G75*
G02*
X122907501Y-96993000I-249999J0D01*
G01*
X122357499Y-96993000D01*
G75*
G02*
X122107500Y-96743001I0J249999D01*
G01*
G37*
G36*
G01*
X119807500Y-96743001D02*
X119807500Y-96042999D01*
G75*
G02*
X120057499Y-95793000I249999J0D01*
G01*
X120607501Y-95793000D01*
G75*
G02*
X120857500Y-96042999I0J-249999D01*
G01*
X120857500Y-96743001D01*
G75*
G02*
X120607501Y-96993000I-249999J0D01*
G01*
X120057499Y-96993000D01*
G75*
G02*
X119807500Y-96743001I0J249999D01*
G01*
G37*
G36*
G01*
X142576500Y-75327500D02*
X142576500Y-75802500D01*
G75*
G02*
X142339000Y-76040000I-237500J0D01*
G01*
X141739000Y-76040000D01*
G75*
G02*
X141501500Y-75802500I0J237500D01*
G01*
X141501500Y-75327500D01*
G75*
G02*
X141739000Y-75090000I237500J0D01*
G01*
X142339000Y-75090000D01*
G75*
G02*
X142576500Y-75327500I0J-237500D01*
G01*
G37*
G36*
G01*
X144301500Y-75327500D02*
X144301500Y-75802500D01*
G75*
G02*
X144064000Y-76040000I-237500J0D01*
G01*
X143464000Y-76040000D01*
G75*
G02*
X143226500Y-75802500I0J237500D01*
G01*
X143226500Y-75327500D01*
G75*
G02*
X143464000Y-75090000I237500J0D01*
G01*
X144064000Y-75090000D01*
G75*
G02*
X144301500Y-75327500I0J-237500D01*
G01*
G37*
G36*
G01*
X118444000Y-95855500D02*
X118919000Y-95855500D01*
G75*
G02*
X119156500Y-96093000I0J-237500D01*
G01*
X119156500Y-96693000D01*
G75*
G02*
X118919000Y-96930500I-237500J0D01*
G01*
X118444000Y-96930500D01*
G75*
G02*
X118206500Y-96693000I0J237500D01*
G01*
X118206500Y-96093000D01*
G75*
G02*
X118444000Y-95855500I237500J0D01*
G01*
G37*
G36*
G01*
X118444000Y-94130500D02*
X118919000Y-94130500D01*
G75*
G02*
X119156500Y-94368000I0J-237500D01*
G01*
X119156500Y-94968000D01*
G75*
G02*
X118919000Y-95205500I-237500J0D01*
G01*
X118444000Y-95205500D01*
G75*
G02*
X118206500Y-94968000I0J237500D01*
G01*
X118206500Y-94368000D01*
G75*
G02*
X118444000Y-94130500I237500J0D01*
G01*
G37*
G36*
G01*
X151784500Y-59579500D02*
X151784500Y-60054500D01*
G75*
G02*
X151547000Y-60292000I-237500J0D01*
G01*
X151047000Y-60292000D01*
G75*
G02*
X150809500Y-60054500I0J237500D01*
G01*
X150809500Y-59579500D01*
G75*
G02*
X151047000Y-59342000I237500J0D01*
G01*
X151547000Y-59342000D01*
G75*
G02*
X151784500Y-59579500I0J-237500D01*
G01*
G37*
G36*
G01*
X153609500Y-59579500D02*
X153609500Y-60054500D01*
G75*
G02*
X153372000Y-60292000I-237500J0D01*
G01*
X152872000Y-60292000D01*
G75*
G02*
X152634500Y-60054500I0J237500D01*
G01*
X152634500Y-59579500D01*
G75*
G02*
X152872000Y-59342000I237500J0D01*
G01*
X153372000Y-59342000D01*
G75*
G02*
X153609500Y-59579500I0J-237500D01*
G01*
G37*
D14*
X127952500Y-60325000D03*
X133350000Y-60325000D03*
G36*
G01*
X153831000Y-73643500D02*
X153831000Y-73168500D01*
G75*
G02*
X154068500Y-72931000I237500J0D01*
G01*
X154668500Y-72931000D01*
G75*
G02*
X154906000Y-73168500I0J-237500D01*
G01*
X154906000Y-73643500D01*
G75*
G02*
X154668500Y-73881000I-237500J0D01*
G01*
X154068500Y-73881000D01*
G75*
G02*
X153831000Y-73643500I0J237500D01*
G01*
G37*
G36*
G01*
X152106000Y-73643500D02*
X152106000Y-73168500D01*
G75*
G02*
X152343500Y-72931000I237500J0D01*
G01*
X152943500Y-72931000D01*
G75*
G02*
X153181000Y-73168500I0J-237500D01*
G01*
X153181000Y-73643500D01*
G75*
G02*
X152943500Y-73881000I-237500J0D01*
G01*
X152343500Y-73881000D01*
G75*
G02*
X152106000Y-73643500I0J237500D01*
G01*
G37*
G36*
G01*
X157831500Y-74710300D02*
X157831500Y-74235300D01*
G75*
G02*
X158069000Y-73997800I237500J0D01*
G01*
X158669000Y-73997800D01*
G75*
G02*
X158906500Y-74235300I0J-237500D01*
G01*
X158906500Y-74710300D01*
G75*
G02*
X158669000Y-74947800I-237500J0D01*
G01*
X158069000Y-74947800D01*
G75*
G02*
X157831500Y-74710300I0J237500D01*
G01*
G37*
G36*
G01*
X156106500Y-74710300D02*
X156106500Y-74235300D01*
G75*
G02*
X156344000Y-73997800I237500J0D01*
G01*
X156944000Y-73997800D01*
G75*
G02*
X157181500Y-74235300I0J-237500D01*
G01*
X157181500Y-74710300D01*
G75*
G02*
X156944000Y-74947800I-237500J0D01*
G01*
X156344000Y-74947800D01*
G75*
G02*
X156106500Y-74710300I0J237500D01*
G01*
G37*
G36*
G01*
X157829300Y-76259700D02*
X157829300Y-75784700D01*
G75*
G02*
X158066800Y-75547200I237500J0D01*
G01*
X158666800Y-75547200D01*
G75*
G02*
X158904300Y-75784700I0J-237500D01*
G01*
X158904300Y-76259700D01*
G75*
G02*
X158666800Y-76497200I-237500J0D01*
G01*
X158066800Y-76497200D01*
G75*
G02*
X157829300Y-76259700I0J237500D01*
G01*
G37*
G36*
G01*
X156104300Y-76259700D02*
X156104300Y-75784700D01*
G75*
G02*
X156341800Y-75547200I237500J0D01*
G01*
X156941800Y-75547200D01*
G75*
G02*
X157179300Y-75784700I0J-237500D01*
G01*
X157179300Y-76259700D01*
G75*
G02*
X156941800Y-76497200I-237500J0D01*
G01*
X156341800Y-76497200D01*
G75*
G02*
X156104300Y-76259700I0J237500D01*
G01*
G37*
D15*
X130238500Y-109728000D03*
D10*
X131508500Y-107188000D03*
X132778500Y-109728000D03*
X134048500Y-107188000D03*
X135318500Y-109728000D03*
X136588500Y-107188000D03*
X137858500Y-109728000D03*
X139128500Y-107188000D03*
X140398500Y-109728000D03*
X141668500Y-107188000D03*
D16*
X143068500Y-108988000D03*
D15*
X182245000Y-99060000D03*
D10*
X179705000Y-97790000D03*
X182245000Y-96520000D03*
X179705000Y-95250000D03*
X182245000Y-93980000D03*
X179705000Y-92710000D03*
X182245000Y-91440000D03*
X179705000Y-90170000D03*
X182245000Y-88900000D03*
X179705000Y-87630000D03*
D16*
X181505000Y-86230000D03*
D15*
X182245000Y-80645000D03*
D10*
X179705000Y-79375000D03*
X182245000Y-78105000D03*
X179705000Y-76835000D03*
X182245000Y-75565000D03*
X179705000Y-74295000D03*
X182245000Y-73025000D03*
X179705000Y-71755000D03*
X182245000Y-70485000D03*
X179705000Y-69215000D03*
D16*
X181505000Y-67815000D03*
G36*
G01*
X147062000Y-89043500D02*
X147062000Y-89518500D01*
G75*
G02*
X146824500Y-89756000I-237500J0D01*
G01*
X146324500Y-89756000D01*
G75*
G02*
X146087000Y-89518500I0J237500D01*
G01*
X146087000Y-89043500D01*
G75*
G02*
X146324500Y-88806000I237500J0D01*
G01*
X146824500Y-88806000D01*
G75*
G02*
X147062000Y-89043500I0J-237500D01*
G01*
G37*
G36*
G01*
X148887000Y-89043500D02*
X148887000Y-89518500D01*
G75*
G02*
X148649500Y-89756000I-237500J0D01*
G01*
X148149500Y-89756000D01*
G75*
G02*
X147912000Y-89518500I0J237500D01*
G01*
X147912000Y-89043500D01*
G75*
G02*
X148149500Y-88806000I237500J0D01*
G01*
X148649500Y-88806000D01*
G75*
G02*
X148887000Y-89043500I0J-237500D01*
G01*
G37*
G36*
G01*
X121936500Y-99508500D02*
X122411500Y-99508500D01*
G75*
G02*
X122649000Y-99746000I0J-237500D01*
G01*
X122649000Y-100246000D01*
G75*
G02*
X122411500Y-100483500I-237500J0D01*
G01*
X121936500Y-100483500D01*
G75*
G02*
X121699000Y-100246000I0J237500D01*
G01*
X121699000Y-99746000D01*
G75*
G02*
X121936500Y-99508500I237500J0D01*
G01*
G37*
G36*
G01*
X121936500Y-97683500D02*
X122411500Y-97683500D01*
G75*
G02*
X122649000Y-97921000I0J-237500D01*
G01*
X122649000Y-98421000D01*
G75*
G02*
X122411500Y-98658500I-237500J0D01*
G01*
X121936500Y-98658500D01*
G75*
G02*
X121699000Y-98421000I0J237500D01*
G01*
X121699000Y-97921000D01*
G75*
G02*
X121936500Y-97683500I237500J0D01*
G01*
G37*
D17*
X137223500Y-79438500D03*
X134683500Y-79438500D03*
D18*
X132143500Y-79438500D03*
D19*
X122176000Y-102044500D03*
X125476000Y-102044500D03*
G36*
G01*
X123361500Y-104352100D02*
X123361500Y-103877100D01*
G75*
G02*
X123599000Y-103639600I237500J0D01*
G01*
X124199000Y-103639600D01*
G75*
G02*
X124436500Y-103877100I0J-237500D01*
G01*
X124436500Y-104352100D01*
G75*
G02*
X124199000Y-104589600I-237500J0D01*
G01*
X123599000Y-104589600D01*
G75*
G02*
X123361500Y-104352100I0J237500D01*
G01*
G37*
G36*
G01*
X121636500Y-104352100D02*
X121636500Y-103877100D01*
G75*
G02*
X121874000Y-103639600I237500J0D01*
G01*
X122474000Y-103639600D01*
G75*
G02*
X122711500Y-103877100I0J-237500D01*
G01*
X122711500Y-104352100D01*
G75*
G02*
X122474000Y-104589600I-237500J0D01*
G01*
X121874000Y-104589600D01*
G75*
G02*
X121636500Y-104352100I0J237500D01*
G01*
G37*
G36*
G01*
X122120200Y-83560401D02*
X122120200Y-82860399D01*
G75*
G02*
X122370199Y-82610400I249999J0D01*
G01*
X122920201Y-82610400D01*
G75*
G02*
X123170200Y-82860399I0J-249999D01*
G01*
X123170200Y-83560401D01*
G75*
G02*
X122920201Y-83810400I-249999J0D01*
G01*
X122370199Y-83810400D01*
G75*
G02*
X122120200Y-83560401I0J249999D01*
G01*
G37*
G36*
G01*
X119820200Y-83560401D02*
X119820200Y-82860399D01*
G75*
G02*
X120070199Y-82610400I249999J0D01*
G01*
X120620201Y-82610400D01*
G75*
G02*
X120870200Y-82860399I0J-249999D01*
G01*
X120870200Y-83560401D01*
G75*
G02*
X120620201Y-83810400I-249999J0D01*
G01*
X120070199Y-83810400D01*
G75*
G02*
X119820200Y-83560401I0J249999D01*
G01*
G37*
G36*
G01*
X122171000Y-70454001D02*
X122171000Y-69753999D01*
G75*
G02*
X122420999Y-69504000I249999J0D01*
G01*
X122971001Y-69504000D01*
G75*
G02*
X123221000Y-69753999I0J-249999D01*
G01*
X123221000Y-70454001D01*
G75*
G02*
X122971001Y-70704000I-249999J0D01*
G01*
X122420999Y-70704000D01*
G75*
G02*
X122171000Y-70454001I0J249999D01*
G01*
G37*
G36*
G01*
X119871000Y-70454001D02*
X119871000Y-69753999D01*
G75*
G02*
X120120999Y-69504000I249999J0D01*
G01*
X120671001Y-69504000D01*
G75*
G02*
X120921000Y-69753999I0J-249999D01*
G01*
X120921000Y-70454001D01*
G75*
G02*
X120671001Y-70704000I-249999J0D01*
G01*
X120120999Y-70704000D01*
G75*
G02*
X119871000Y-70454001I0J249999D01*
G01*
G37*
G36*
G01*
X141752500Y-100948500D02*
X141752500Y-100473500D01*
G75*
G02*
X141990000Y-100236000I237500J0D01*
G01*
X142490000Y-100236000D01*
G75*
G02*
X142727500Y-100473500I0J-237500D01*
G01*
X142727500Y-100948500D01*
G75*
G02*
X142490000Y-101186000I-237500J0D01*
G01*
X141990000Y-101186000D01*
G75*
G02*
X141752500Y-100948500I0J237500D01*
G01*
G37*
G36*
G01*
X139927500Y-100948500D02*
X139927500Y-100473500D01*
G75*
G02*
X140165000Y-100236000I237500J0D01*
G01*
X140665000Y-100236000D01*
G75*
G02*
X140902500Y-100473500I0J-237500D01*
G01*
X140902500Y-100948500D01*
G75*
G02*
X140665000Y-101186000I-237500J0D01*
G01*
X140165000Y-101186000D01*
G75*
G02*
X139927500Y-100948500I0J237500D01*
G01*
G37*
G36*
G01*
X141752500Y-99297500D02*
X141752500Y-98822500D01*
G75*
G02*
X141990000Y-98585000I237500J0D01*
G01*
X142490000Y-98585000D01*
G75*
G02*
X142727500Y-98822500I0J-237500D01*
G01*
X142727500Y-99297500D01*
G75*
G02*
X142490000Y-99535000I-237500J0D01*
G01*
X141990000Y-99535000D01*
G75*
G02*
X141752500Y-99297500I0J237500D01*
G01*
G37*
G36*
G01*
X139927500Y-99297500D02*
X139927500Y-98822500D01*
G75*
G02*
X140165000Y-98585000I237500J0D01*
G01*
X140665000Y-98585000D01*
G75*
G02*
X140902500Y-98822500I0J-237500D01*
G01*
X140902500Y-99297500D01*
G75*
G02*
X140665000Y-99535000I-237500J0D01*
G01*
X140165000Y-99535000D01*
G75*
G02*
X139927500Y-99297500I0J237500D01*
G01*
G37*
G36*
G01*
X133497500Y-84692500D02*
X133497500Y-84217500D01*
G75*
G02*
X133735000Y-83980000I237500J0D01*
G01*
X134235000Y-83980000D01*
G75*
G02*
X134472500Y-84217500I0J-237500D01*
G01*
X134472500Y-84692500D01*
G75*
G02*
X134235000Y-84930000I-237500J0D01*
G01*
X133735000Y-84930000D01*
G75*
G02*
X133497500Y-84692500I0J237500D01*
G01*
G37*
G36*
G01*
X131672500Y-84692500D02*
X131672500Y-84217500D01*
G75*
G02*
X131910000Y-83980000I237500J0D01*
G01*
X132410000Y-83980000D01*
G75*
G02*
X132647500Y-84217500I0J-237500D01*
G01*
X132647500Y-84692500D01*
G75*
G02*
X132410000Y-84930000I-237500J0D01*
G01*
X131910000Y-84930000D01*
G75*
G02*
X131672500Y-84692500I0J237500D01*
G01*
G37*
G36*
G01*
X133497500Y-82533500D02*
X133497500Y-82058500D01*
G75*
G02*
X133735000Y-81821000I237500J0D01*
G01*
X134235000Y-81821000D01*
G75*
G02*
X134472500Y-82058500I0J-237500D01*
G01*
X134472500Y-82533500D01*
G75*
G02*
X134235000Y-82771000I-237500J0D01*
G01*
X133735000Y-82771000D01*
G75*
G02*
X133497500Y-82533500I0J237500D01*
G01*
G37*
G36*
G01*
X131672500Y-82533500D02*
X131672500Y-82058500D01*
G75*
G02*
X131910000Y-81821000I237500J0D01*
G01*
X132410000Y-81821000D01*
G75*
G02*
X132647500Y-82058500I0J-237500D01*
G01*
X132647500Y-82533500D01*
G75*
G02*
X132410000Y-82771000I-237500J0D01*
G01*
X131910000Y-82771000D01*
G75*
G02*
X131672500Y-82533500I0J237500D01*
G01*
G37*
G36*
G01*
X136320000Y-84004999D02*
X136320000Y-84905001D01*
G75*
G02*
X136070001Y-85155000I-249999J0D01*
G01*
X135419999Y-85155000D01*
G75*
G02*
X135170000Y-84905001I0J249999D01*
G01*
X135170000Y-84004999D01*
G75*
G02*
X135419999Y-83755000I249999J0D01*
G01*
X136070001Y-83755000D01*
G75*
G02*
X136320000Y-84004999I0J-249999D01*
G01*
G37*
G36*
G01*
X138370000Y-84004999D02*
X138370000Y-84905001D01*
G75*
G02*
X138120001Y-85155000I-249999J0D01*
G01*
X137469999Y-85155000D01*
G75*
G02*
X137220000Y-84905001I0J249999D01*
G01*
X137220000Y-84004999D01*
G75*
G02*
X137469999Y-83755000I249999J0D01*
G01*
X138120001Y-83755000D01*
G75*
G02*
X138370000Y-84004999I0J-249999D01*
G01*
G37*
G36*
G01*
X136320000Y-81845999D02*
X136320000Y-82746001D01*
G75*
G02*
X136070001Y-82996000I-249999J0D01*
G01*
X135419999Y-82996000D01*
G75*
G02*
X135170000Y-82746001I0J249999D01*
G01*
X135170000Y-81845999D01*
G75*
G02*
X135419999Y-81596000I249999J0D01*
G01*
X136070001Y-81596000D01*
G75*
G02*
X136320000Y-81845999I0J-249999D01*
G01*
G37*
G36*
G01*
X138370000Y-81845999D02*
X138370000Y-82746001D01*
G75*
G02*
X138120001Y-82996000I-249999J0D01*
G01*
X137469999Y-82996000D01*
G75*
G02*
X137220000Y-82746001I0J249999D01*
G01*
X137220000Y-81845999D01*
G75*
G02*
X137469999Y-81596000I249999J0D01*
G01*
X138120001Y-81596000D01*
G75*
G02*
X138370000Y-81845999I0J-249999D01*
G01*
G37*
G36*
G01*
X163089300Y-68309500D02*
X163089300Y-67834500D01*
G75*
G02*
X163326800Y-67597000I237500J0D01*
G01*
X163926800Y-67597000D01*
G75*
G02*
X164164300Y-67834500I0J-237500D01*
G01*
X164164300Y-68309500D01*
G75*
G02*
X163926800Y-68547000I-237500J0D01*
G01*
X163326800Y-68547000D01*
G75*
G02*
X163089300Y-68309500I0J237500D01*
G01*
G37*
G36*
G01*
X161364300Y-68309500D02*
X161364300Y-67834500D01*
G75*
G02*
X161601800Y-67597000I237500J0D01*
G01*
X162201800Y-67597000D01*
G75*
G02*
X162439300Y-67834500I0J-237500D01*
G01*
X162439300Y-68309500D01*
G75*
G02*
X162201800Y-68547000I-237500J0D01*
G01*
X161601800Y-68547000D01*
G75*
G02*
X161364300Y-68309500I0J237500D01*
G01*
G37*
D13*
X146240500Y-69730000D03*
X147540500Y-69730000D03*
X147540500Y-72390000D03*
X146890500Y-72390000D03*
X146240500Y-72390000D03*
X140447000Y-68790200D03*
X141747000Y-68790200D03*
X141747000Y-71450200D03*
X141097000Y-71450200D03*
X140447000Y-71450200D03*
G36*
G01*
X144415500Y-70910500D02*
X144890500Y-70910500D01*
G75*
G02*
X145128000Y-71148000I0J-237500D01*
G01*
X145128000Y-71748000D01*
G75*
G02*
X144890500Y-71985500I-237500J0D01*
G01*
X144415500Y-71985500D01*
G75*
G02*
X144178000Y-71748000I0J237500D01*
G01*
X144178000Y-71148000D01*
G75*
G02*
X144415500Y-70910500I237500J0D01*
G01*
G37*
G36*
G01*
X144415500Y-69185500D02*
X144890500Y-69185500D01*
G75*
G02*
X145128000Y-69423000I0J-237500D01*
G01*
X145128000Y-70023000D01*
G75*
G02*
X144890500Y-70260500I-237500J0D01*
G01*
X144415500Y-70260500D01*
G75*
G02*
X144178000Y-70023000I0J237500D01*
G01*
X144178000Y-69423000D01*
G75*
G02*
X144415500Y-69185500I237500J0D01*
G01*
G37*
G36*
G01*
X138637000Y-69958000D02*
X139112000Y-69958000D01*
G75*
G02*
X139349500Y-70195500I0J-237500D01*
G01*
X139349500Y-70795500D01*
G75*
G02*
X139112000Y-71033000I-237500J0D01*
G01*
X138637000Y-71033000D01*
G75*
G02*
X138399500Y-70795500I0J237500D01*
G01*
X138399500Y-70195500D01*
G75*
G02*
X138637000Y-69958000I237500J0D01*
G01*
G37*
G36*
G01*
X138637000Y-68233000D02*
X139112000Y-68233000D01*
G75*
G02*
X139349500Y-68470500I0J-237500D01*
G01*
X139349500Y-69070500D01*
G75*
G02*
X139112000Y-69308000I-237500J0D01*
G01*
X138637000Y-69308000D01*
G75*
G02*
X138399500Y-69070500I0J237500D01*
G01*
X138399500Y-68470500D01*
G75*
G02*
X138637000Y-68233000I237500J0D01*
G01*
G37*
D20*
X170977600Y-61925200D03*
X171927600Y-61925200D03*
X170027600Y-61925200D03*
X170027600Y-59725200D03*
X170977600Y-59725200D03*
X171927600Y-59725200D03*
G36*
G01*
X171530300Y-63770500D02*
X171530300Y-64245500D01*
G75*
G02*
X171292800Y-64483000I-237500J0D01*
G01*
X170692800Y-64483000D01*
G75*
G02*
X170455300Y-64245500I0J237500D01*
G01*
X170455300Y-63770500D01*
G75*
G02*
X170692800Y-63533000I237500J0D01*
G01*
X171292800Y-63533000D01*
G75*
G02*
X171530300Y-63770500I0J-237500D01*
G01*
G37*
G36*
G01*
X173255300Y-63770500D02*
X173255300Y-64245500D01*
G75*
G02*
X173017800Y-64483000I-237500J0D01*
G01*
X172417800Y-64483000D01*
G75*
G02*
X172180300Y-64245500I0J237500D01*
G01*
X172180300Y-63770500D01*
G75*
G02*
X172417800Y-63533000I237500J0D01*
G01*
X173017800Y-63533000D01*
G75*
G02*
X173255300Y-63770500I0J-237500D01*
G01*
G37*
G36*
G01*
X156752300Y-66171900D02*
X156277300Y-66171900D01*
G75*
G02*
X156039800Y-65934400I0J237500D01*
G01*
X156039800Y-65434400D01*
G75*
G02*
X156277300Y-65196900I237500J0D01*
G01*
X156752300Y-65196900D01*
G75*
G02*
X156989800Y-65434400I0J-237500D01*
G01*
X156989800Y-65934400D01*
G75*
G02*
X156752300Y-66171900I-237500J0D01*
G01*
G37*
G36*
G01*
X156752300Y-67996900D02*
X156277300Y-67996900D01*
G75*
G02*
X156039800Y-67759400I0J237500D01*
G01*
X156039800Y-67259400D01*
G75*
G02*
X156277300Y-67021900I237500J0D01*
G01*
X156752300Y-67021900D01*
G75*
G02*
X156989800Y-67259400I0J-237500D01*
G01*
X156989800Y-67759400D01*
G75*
G02*
X156752300Y-67996900I-237500J0D01*
G01*
G37*
G36*
G01*
X154567900Y-61955500D02*
X154092900Y-61955500D01*
G75*
G02*
X153855400Y-61718000I0J237500D01*
G01*
X153855400Y-61218000D01*
G75*
G02*
X154092900Y-60980500I237500J0D01*
G01*
X154567900Y-60980500D01*
G75*
G02*
X154805400Y-61218000I0J-237500D01*
G01*
X154805400Y-61718000D01*
G75*
G02*
X154567900Y-61955500I-237500J0D01*
G01*
G37*
G36*
G01*
X154567900Y-63780500D02*
X154092900Y-63780500D01*
G75*
G02*
X153855400Y-63543000I0J237500D01*
G01*
X153855400Y-63043000D01*
G75*
G02*
X154092900Y-62805500I237500J0D01*
G01*
X154567900Y-62805500D01*
G75*
G02*
X154805400Y-63043000I0J-237500D01*
G01*
X154805400Y-63543000D01*
G75*
G02*
X154567900Y-63780500I-237500J0D01*
G01*
G37*
G36*
G01*
X170265100Y-70188900D02*
X169790100Y-70188900D01*
G75*
G02*
X169552600Y-69951400I0J237500D01*
G01*
X169552600Y-69451400D01*
G75*
G02*
X169790100Y-69213900I237500J0D01*
G01*
X170265100Y-69213900D01*
G75*
G02*
X170502600Y-69451400I0J-237500D01*
G01*
X170502600Y-69951400D01*
G75*
G02*
X170265100Y-70188900I-237500J0D01*
G01*
G37*
G36*
G01*
X170265100Y-72013900D02*
X169790100Y-72013900D01*
G75*
G02*
X169552600Y-71776400I0J237500D01*
G01*
X169552600Y-71276400D01*
G75*
G02*
X169790100Y-71038900I237500J0D01*
G01*
X170265100Y-71038900D01*
G75*
G02*
X170502600Y-71276400I0J-237500D01*
G01*
X170502600Y-71776400D01*
G75*
G02*
X170265100Y-72013900I-237500J0D01*
G01*
G37*
G36*
G01*
X171890700Y-70188900D02*
X171415700Y-70188900D01*
G75*
G02*
X171178200Y-69951400I0J237500D01*
G01*
X171178200Y-69451400D01*
G75*
G02*
X171415700Y-69213900I237500J0D01*
G01*
X171890700Y-69213900D01*
G75*
G02*
X172128200Y-69451400I0J-237500D01*
G01*
X172128200Y-69951400D01*
G75*
G02*
X171890700Y-70188900I-237500J0D01*
G01*
G37*
G36*
G01*
X171890700Y-72013900D02*
X171415700Y-72013900D01*
G75*
G02*
X171178200Y-71776400I0J237500D01*
G01*
X171178200Y-71276400D01*
G75*
G02*
X171415700Y-71038900I237500J0D01*
G01*
X171890700Y-71038900D01*
G75*
G02*
X172128200Y-71276400I0J-237500D01*
G01*
X172128200Y-71776400D01*
G75*
G02*
X171890700Y-72013900I-237500J0D01*
G01*
G37*
G36*
G01*
X161357300Y-88205500D02*
X161832300Y-88205500D01*
G75*
G02*
X162069800Y-88443000I0J-237500D01*
G01*
X162069800Y-88943000D01*
G75*
G02*
X161832300Y-89180500I-237500J0D01*
G01*
X161357300Y-89180500D01*
G75*
G02*
X161119800Y-88943000I0J237500D01*
G01*
X161119800Y-88443000D01*
G75*
G02*
X161357300Y-88205500I237500J0D01*
G01*
G37*
G36*
G01*
X161357300Y-86380500D02*
X161832300Y-86380500D01*
G75*
G02*
X162069800Y-86618000I0J-237500D01*
G01*
X162069800Y-87118000D01*
G75*
G02*
X161832300Y-87355500I-237500J0D01*
G01*
X161357300Y-87355500D01*
G75*
G02*
X161119800Y-87118000I0J237500D01*
G01*
X161119800Y-86618000D01*
G75*
G02*
X161357300Y-86380500I237500J0D01*
G01*
G37*
G36*
G01*
X163033700Y-88205500D02*
X163508700Y-88205500D01*
G75*
G02*
X163746200Y-88443000I0J-237500D01*
G01*
X163746200Y-88943000D01*
G75*
G02*
X163508700Y-89180500I-237500J0D01*
G01*
X163033700Y-89180500D01*
G75*
G02*
X162796200Y-88943000I0J237500D01*
G01*
X162796200Y-88443000D01*
G75*
G02*
X163033700Y-88205500I237500J0D01*
G01*
G37*
G36*
G01*
X163033700Y-86380500D02*
X163508700Y-86380500D01*
G75*
G02*
X163746200Y-86618000I0J-237500D01*
G01*
X163746200Y-87118000D01*
G75*
G02*
X163508700Y-87355500I-237500J0D01*
G01*
X163033700Y-87355500D01*
G75*
G02*
X162796200Y-87118000I0J237500D01*
G01*
X162796200Y-86618000D01*
G75*
G02*
X163033700Y-86380500I237500J0D01*
G01*
G37*
G36*
G01*
X150185300Y-77758300D02*
X150185300Y-77283300D01*
G75*
G02*
X150422800Y-77045800I237500J0D01*
G01*
X150922800Y-77045800D01*
G75*
G02*
X151160300Y-77283300I0J-237500D01*
G01*
X151160300Y-77758300D01*
G75*
G02*
X150922800Y-77995800I-237500J0D01*
G01*
X150422800Y-77995800D01*
G75*
G02*
X150185300Y-77758300I0J237500D01*
G01*
G37*
G36*
G01*
X148360300Y-77758300D02*
X148360300Y-77283300D01*
G75*
G02*
X148597800Y-77045800I237500J0D01*
G01*
X149097800Y-77045800D01*
G75*
G02*
X149335300Y-77283300I0J-237500D01*
G01*
X149335300Y-77758300D01*
G75*
G02*
X149097800Y-77995800I-237500J0D01*
G01*
X148597800Y-77995800D01*
G75*
G02*
X148360300Y-77758300I0J237500D01*
G01*
G37*
G36*
G01*
X150181500Y-79841100D02*
X150181500Y-79366100D01*
G75*
G02*
X150419000Y-79128600I237500J0D01*
G01*
X150919000Y-79128600D01*
G75*
G02*
X151156500Y-79366100I0J-237500D01*
G01*
X151156500Y-79841100D01*
G75*
G02*
X150919000Y-80078600I-237500J0D01*
G01*
X150419000Y-80078600D01*
G75*
G02*
X150181500Y-79841100I0J237500D01*
G01*
G37*
G36*
G01*
X148356500Y-79841100D02*
X148356500Y-79366100D01*
G75*
G02*
X148594000Y-79128600I237500J0D01*
G01*
X149094000Y-79128600D01*
G75*
G02*
X149331500Y-79366100I0J-237500D01*
G01*
X149331500Y-79841100D01*
G75*
G02*
X149094000Y-80078600I-237500J0D01*
G01*
X148594000Y-80078600D01*
G75*
G02*
X148356500Y-79841100I0J237500D01*
G01*
G37*
D14*
X166243000Y-110363000D03*
X160210500Y-110363000D03*
G36*
G01*
X149559000Y-83189000D02*
X150034000Y-83189000D01*
G75*
G02*
X150271500Y-83426500I0J-237500D01*
G01*
X150271500Y-83926500D01*
G75*
G02*
X150034000Y-84164000I-237500J0D01*
G01*
X149559000Y-84164000D01*
G75*
G02*
X149321500Y-83926500I0J237500D01*
G01*
X149321500Y-83426500D01*
G75*
G02*
X149559000Y-83189000I237500J0D01*
G01*
G37*
G36*
G01*
X149559000Y-81364000D02*
X150034000Y-81364000D01*
G75*
G02*
X150271500Y-81601500I0J-237500D01*
G01*
X150271500Y-82101500D01*
G75*
G02*
X150034000Y-82339000I-237500J0D01*
G01*
X149559000Y-82339000D01*
G75*
G02*
X149321500Y-82101500I0J237500D01*
G01*
X149321500Y-81601500D01*
G75*
G02*
X149559000Y-81364000I237500J0D01*
G01*
G37*
G36*
G01*
X151083000Y-83189000D02*
X151558000Y-83189000D01*
G75*
G02*
X151795500Y-83426500I0J-237500D01*
G01*
X151795500Y-83926500D01*
G75*
G02*
X151558000Y-84164000I-237500J0D01*
G01*
X151083000Y-84164000D01*
G75*
G02*
X150845500Y-83926500I0J237500D01*
G01*
X150845500Y-83426500D01*
G75*
G02*
X151083000Y-83189000I237500J0D01*
G01*
G37*
G36*
G01*
X151083000Y-81364000D02*
X151558000Y-81364000D01*
G75*
G02*
X151795500Y-81601500I0J-237500D01*
G01*
X151795500Y-82101500D01*
G75*
G02*
X151558000Y-82339000I-237500J0D01*
G01*
X151083000Y-82339000D01*
G75*
G02*
X150845500Y-82101500I0J237500D01*
G01*
X150845500Y-81601500D01*
G75*
G02*
X151083000Y-81364000I237500J0D01*
G01*
G37*
G36*
G01*
X166328100Y-87532500D02*
X165853100Y-87532500D01*
G75*
G02*
X165615600Y-87295000I0J237500D01*
G01*
X165615600Y-86695000D01*
G75*
G02*
X165853100Y-86457500I237500J0D01*
G01*
X166328100Y-86457500D01*
G75*
G02*
X166565600Y-86695000I0J-237500D01*
G01*
X166565600Y-87295000D01*
G75*
G02*
X166328100Y-87532500I-237500J0D01*
G01*
G37*
G36*
G01*
X166328100Y-89257500D02*
X165853100Y-89257500D01*
G75*
G02*
X165615600Y-89020000I0J237500D01*
G01*
X165615600Y-88420000D01*
G75*
G02*
X165853100Y-88182500I237500J0D01*
G01*
X166328100Y-88182500D01*
G75*
G02*
X166565600Y-88420000I0J-237500D01*
G01*
X166565600Y-89020000D01*
G75*
G02*
X166328100Y-89257500I-237500J0D01*
G01*
G37*
G36*
G01*
X157902900Y-78860700D02*
X158377900Y-78860700D01*
G75*
G02*
X158615400Y-79098200I0J-237500D01*
G01*
X158615400Y-79698200D01*
G75*
G02*
X158377900Y-79935700I-237500J0D01*
G01*
X157902900Y-79935700D01*
G75*
G02*
X157665400Y-79698200I0J237500D01*
G01*
X157665400Y-79098200D01*
G75*
G02*
X157902900Y-78860700I237500J0D01*
G01*
G37*
G36*
G01*
X157902900Y-77135700D02*
X158377900Y-77135700D01*
G75*
G02*
X158615400Y-77373200I0J-237500D01*
G01*
X158615400Y-77973200D01*
G75*
G02*
X158377900Y-78210700I-237500J0D01*
G01*
X157902900Y-78210700D01*
G75*
G02*
X157665400Y-77973200I0J237500D01*
G01*
X157665400Y-77373200D01*
G75*
G02*
X157902900Y-77135700I237500J0D01*
G01*
G37*
G36*
G01*
X163075500Y-73516500D02*
X163075500Y-73041500D01*
G75*
G02*
X163313000Y-72804000I237500J0D01*
G01*
X163913000Y-72804000D01*
G75*
G02*
X164150500Y-73041500I0J-237500D01*
G01*
X164150500Y-73516500D01*
G75*
G02*
X163913000Y-73754000I-237500J0D01*
G01*
X163313000Y-73754000D01*
G75*
G02*
X163075500Y-73516500I0J237500D01*
G01*
G37*
G36*
G01*
X161350500Y-73516500D02*
X161350500Y-73041500D01*
G75*
G02*
X161588000Y-72804000I237500J0D01*
G01*
X162188000Y-72804000D01*
G75*
G02*
X162425500Y-73041500I0J-237500D01*
G01*
X162425500Y-73516500D01*
G75*
G02*
X162188000Y-73754000I-237500J0D01*
G01*
X161588000Y-73754000D01*
G75*
G02*
X161350500Y-73516500I0J237500D01*
G01*
G37*
G36*
G01*
X171339500Y-79853500D02*
X171814500Y-79853500D01*
G75*
G02*
X172052000Y-80091000I0J-237500D01*
G01*
X172052000Y-80691000D01*
G75*
G02*
X171814500Y-80928500I-237500J0D01*
G01*
X171339500Y-80928500D01*
G75*
G02*
X171102000Y-80691000I0J237500D01*
G01*
X171102000Y-80091000D01*
G75*
G02*
X171339500Y-79853500I237500J0D01*
G01*
G37*
G36*
G01*
X171339500Y-78128500D02*
X171814500Y-78128500D01*
G75*
G02*
X172052000Y-78366000I0J-237500D01*
G01*
X172052000Y-78966000D01*
G75*
G02*
X171814500Y-79203500I-237500J0D01*
G01*
X171339500Y-79203500D01*
G75*
G02*
X171102000Y-78966000I0J237500D01*
G01*
X171102000Y-78366000D01*
G75*
G02*
X171339500Y-78128500I237500J0D01*
G01*
G37*
G36*
G01*
X156277300Y-62657700D02*
X156752300Y-62657700D01*
G75*
G02*
X156989800Y-62895200I0J-237500D01*
G01*
X156989800Y-63495200D01*
G75*
G02*
X156752300Y-63732700I-237500J0D01*
G01*
X156277300Y-63732700D01*
G75*
G02*
X156039800Y-63495200I0J237500D01*
G01*
X156039800Y-62895200D01*
G75*
G02*
X156277300Y-62657700I237500J0D01*
G01*
G37*
G36*
G01*
X156277300Y-60932700D02*
X156752300Y-60932700D01*
G75*
G02*
X156989800Y-61170200I0J-237500D01*
G01*
X156989800Y-61770200D01*
G75*
G02*
X156752300Y-62007700I-237500J0D01*
G01*
X156277300Y-62007700D01*
G75*
G02*
X156039800Y-61770200I0J237500D01*
G01*
X156039800Y-61170200D01*
G75*
G02*
X156277300Y-60932700I237500J0D01*
G01*
G37*
G36*
G01*
X132214500Y-98789500D02*
X132214500Y-98314500D01*
G75*
G02*
X132452000Y-98077000I237500J0D01*
G01*
X133052000Y-98077000D01*
G75*
G02*
X133289500Y-98314500I0J-237500D01*
G01*
X133289500Y-98789500D01*
G75*
G02*
X133052000Y-99027000I-237500J0D01*
G01*
X132452000Y-99027000D01*
G75*
G02*
X132214500Y-98789500I0J237500D01*
G01*
G37*
G36*
G01*
X130489500Y-98789500D02*
X130489500Y-98314500D01*
G75*
G02*
X130727000Y-98077000I237500J0D01*
G01*
X131327000Y-98077000D01*
G75*
G02*
X131564500Y-98314500I0J-237500D01*
G01*
X131564500Y-98789500D01*
G75*
G02*
X131327000Y-99027000I-237500J0D01*
G01*
X130727000Y-99027000D01*
G75*
G02*
X130489500Y-98789500I0J237500D01*
G01*
G37*
G36*
G01*
X118380500Y-82672900D02*
X118855500Y-82672900D01*
G75*
G02*
X119093000Y-82910400I0J-237500D01*
G01*
X119093000Y-83510400D01*
G75*
G02*
X118855500Y-83747900I-237500J0D01*
G01*
X118380500Y-83747900D01*
G75*
G02*
X118143000Y-83510400I0J237500D01*
G01*
X118143000Y-82910400D01*
G75*
G02*
X118380500Y-82672900I237500J0D01*
G01*
G37*
G36*
G01*
X118380500Y-80947900D02*
X118855500Y-80947900D01*
G75*
G02*
X119093000Y-81185400I0J-237500D01*
G01*
X119093000Y-81785400D01*
G75*
G02*
X118855500Y-82022900I-237500J0D01*
G01*
X118380500Y-82022900D01*
G75*
G02*
X118143000Y-81785400I0J237500D01*
G01*
X118143000Y-81185400D01*
G75*
G02*
X118380500Y-80947900I237500J0D01*
G01*
G37*
G36*
G01*
X118380500Y-69566500D02*
X118855500Y-69566500D01*
G75*
G02*
X119093000Y-69804000I0J-237500D01*
G01*
X119093000Y-70404000D01*
G75*
G02*
X118855500Y-70641500I-237500J0D01*
G01*
X118380500Y-70641500D01*
G75*
G02*
X118143000Y-70404000I0J237500D01*
G01*
X118143000Y-69804000D01*
G75*
G02*
X118380500Y-69566500I237500J0D01*
G01*
G37*
G36*
G01*
X118380500Y-67841500D02*
X118855500Y-67841500D01*
G75*
G02*
X119093000Y-68079000I0J-237500D01*
G01*
X119093000Y-68679000D01*
G75*
G02*
X118855500Y-68916500I-237500J0D01*
G01*
X118380500Y-68916500D01*
G75*
G02*
X118143000Y-68679000I0J237500D01*
G01*
X118143000Y-68079000D01*
G75*
G02*
X118380500Y-67841500I237500J0D01*
G01*
G37*
G36*
G01*
X167953700Y-70262700D02*
X167478700Y-70262700D01*
G75*
G02*
X167241200Y-70025200I0J237500D01*
G01*
X167241200Y-69425200D01*
G75*
G02*
X167478700Y-69187700I237500J0D01*
G01*
X167953700Y-69187700D01*
G75*
G02*
X168191200Y-69425200I0J-237500D01*
G01*
X168191200Y-70025200D01*
G75*
G02*
X167953700Y-70262700I-237500J0D01*
G01*
G37*
G36*
G01*
X167953700Y-71987700D02*
X167478700Y-71987700D01*
G75*
G02*
X167241200Y-71750200I0J237500D01*
G01*
X167241200Y-71150200D01*
G75*
G02*
X167478700Y-70912700I237500J0D01*
G01*
X167953700Y-70912700D01*
G75*
G02*
X168191200Y-71150200I0J-237500D01*
G01*
X168191200Y-71750200D01*
G75*
G02*
X167953700Y-71987700I-237500J0D01*
G01*
G37*
G36*
G01*
X165472100Y-70912700D02*
X165947100Y-70912700D01*
G75*
G02*
X166184600Y-71150200I0J-237500D01*
G01*
X166184600Y-71750200D01*
G75*
G02*
X165947100Y-71987700I-237500J0D01*
G01*
X165472100Y-71987700D01*
G75*
G02*
X165234600Y-71750200I0J237500D01*
G01*
X165234600Y-71150200D01*
G75*
G02*
X165472100Y-70912700I237500J0D01*
G01*
G37*
G36*
G01*
X165472100Y-69187700D02*
X165947100Y-69187700D01*
G75*
G02*
X166184600Y-69425200I0J-237500D01*
G01*
X166184600Y-70025200D01*
G75*
G02*
X165947100Y-70262700I-237500J0D01*
G01*
X165472100Y-70262700D01*
G75*
G02*
X165234600Y-70025200I0J237500D01*
G01*
X165234600Y-69425200D01*
G75*
G02*
X165472100Y-69187700I237500J0D01*
G01*
G37*
D21*
X165925500Y-100302000D03*
X165925500Y-104902000D03*
X165925500Y-102602000D03*
D22*
X172225500Y-102602000D03*
D21*
X148145500Y-100341000D03*
X148145500Y-104941000D03*
X148145500Y-102641000D03*
D22*
X154445500Y-102641000D03*
D23*
X159514400Y-61484400D03*
X166014400Y-61484400D03*
X166014400Y-65684400D03*
X159514400Y-65684400D03*
G36*
G01*
X165203500Y-93690000D02*
X165203500Y-95540000D01*
G75*
G02*
X164953500Y-95790000I-250000J0D01*
G01*
X163953500Y-95790000D01*
G75*
G02*
X163703500Y-95540000I0J250000D01*
G01*
X163703500Y-93690000D01*
G75*
G02*
X163953500Y-93440000I250000J0D01*
G01*
X164953500Y-93440000D01*
G75*
G02*
X165203500Y-93690000I0J-250000D01*
G01*
G37*
G36*
G01*
X168453500Y-93690000D02*
X168453500Y-95540000D01*
G75*
G02*
X168203500Y-95790000I-250000J0D01*
G01*
X167203500Y-95790000D01*
G75*
G02*
X166953500Y-95540000I0J250000D01*
G01*
X166953500Y-93690000D01*
G75*
G02*
X167203500Y-93440000I250000J0D01*
G01*
X168203500Y-93440000D01*
G75*
G02*
X168453500Y-93690000I0J-250000D01*
G01*
G37*
G36*
G01*
X155079000Y-95222500D02*
X155079000Y-93372500D01*
G75*
G02*
X155329000Y-93122500I250000J0D01*
G01*
X156329000Y-93122500D01*
G75*
G02*
X156579000Y-93372500I0J-250000D01*
G01*
X156579000Y-95222500D01*
G75*
G02*
X156329000Y-95472500I-250000J0D01*
G01*
X155329000Y-95472500D01*
G75*
G02*
X155079000Y-95222500I0J250000D01*
G01*
G37*
G36*
G01*
X151829000Y-95222500D02*
X151829000Y-93372500D01*
G75*
G02*
X152079000Y-93122500I250000J0D01*
G01*
X153079000Y-93122500D01*
G75*
G02*
X153329000Y-93372500I0J-250000D01*
G01*
X153329000Y-95222500D01*
G75*
G02*
X153079000Y-95472500I-250000J0D01*
G01*
X152079000Y-95472500D01*
G75*
G02*
X151829000Y-95222500I0J250000D01*
G01*
G37*
G36*
G01*
X166237500Y-97124500D02*
X166237500Y-98074500D01*
G75*
G02*
X165987500Y-98324500I-250000J0D01*
G01*
X165312500Y-98324500D01*
G75*
G02*
X165062500Y-98074500I0J250000D01*
G01*
X165062500Y-97124500D01*
G75*
G02*
X165312500Y-96874500I250000J0D01*
G01*
X165987500Y-96874500D01*
G75*
G02*
X166237500Y-97124500I0J-250000D01*
G01*
G37*
G36*
G01*
X168312500Y-97124500D02*
X168312500Y-98074500D01*
G75*
G02*
X168062500Y-98324500I-250000J0D01*
G01*
X167387500Y-98324500D01*
G75*
G02*
X167137500Y-98074500I0J250000D01*
G01*
X167137500Y-97124500D01*
G75*
G02*
X167387500Y-96874500I250000J0D01*
G01*
X168062500Y-96874500D01*
G75*
G02*
X168312500Y-97124500I0J-250000D01*
G01*
G37*
G36*
G01*
X154078000Y-98138000D02*
X154078000Y-97188000D01*
G75*
G02*
X154328000Y-96938000I250000J0D01*
G01*
X155003000Y-96938000D01*
G75*
G02*
X155253000Y-97188000I0J-250000D01*
G01*
X155253000Y-98138000D01*
G75*
G02*
X155003000Y-98388000I-250000J0D01*
G01*
X154328000Y-98388000D01*
G75*
G02*
X154078000Y-98138000I0J250000D01*
G01*
G37*
G36*
G01*
X152003000Y-98138000D02*
X152003000Y-97188000D01*
G75*
G02*
X152253000Y-96938000I250000J0D01*
G01*
X152928000Y-96938000D01*
G75*
G02*
X153178000Y-97188000I0J-250000D01*
G01*
X153178000Y-98138000D01*
G75*
G02*
X152928000Y-98388000I-250000J0D01*
G01*
X152253000Y-98388000D01*
G75*
G02*
X152003000Y-98138000I0J250000D01*
G01*
G37*
G36*
G01*
X167413000Y-107790000D02*
X167413000Y-106840000D01*
G75*
G02*
X167663000Y-106590000I250000J0D01*
G01*
X168338000Y-106590000D01*
G75*
G02*
X168588000Y-106840000I0J-250000D01*
G01*
X168588000Y-107790000D01*
G75*
G02*
X168338000Y-108040000I-250000J0D01*
G01*
X167663000Y-108040000D01*
G75*
G02*
X167413000Y-107790000I0J250000D01*
G01*
G37*
G36*
G01*
X165338000Y-107790000D02*
X165338000Y-106840000D01*
G75*
G02*
X165588000Y-106590000I250000J0D01*
G01*
X166263000Y-106590000D01*
G75*
G02*
X166513000Y-106840000I0J-250000D01*
G01*
X166513000Y-107790000D01*
G75*
G02*
X166263000Y-108040000I-250000J0D01*
G01*
X165588000Y-108040000D01*
G75*
G02*
X165338000Y-107790000I0J250000D01*
G01*
G37*
G36*
G01*
X149633000Y-107853500D02*
X149633000Y-106903500D01*
G75*
G02*
X149883000Y-106653500I250000J0D01*
G01*
X150558000Y-106653500D01*
G75*
G02*
X150808000Y-106903500I0J-250000D01*
G01*
X150808000Y-107853500D01*
G75*
G02*
X150558000Y-108103500I-250000J0D01*
G01*
X149883000Y-108103500D01*
G75*
G02*
X149633000Y-107853500I0J250000D01*
G01*
G37*
G36*
G01*
X147558000Y-107853500D02*
X147558000Y-106903500D01*
G75*
G02*
X147808000Y-106653500I250000J0D01*
G01*
X148483000Y-106653500D01*
G75*
G02*
X148733000Y-106903500I0J-250000D01*
G01*
X148733000Y-107853500D01*
G75*
G02*
X148483000Y-108103500I-250000J0D01*
G01*
X147808000Y-108103500D01*
G75*
G02*
X147558000Y-107853500I0J250000D01*
G01*
G37*
D24*
X160210500Y-101402000D03*
D25*
X160210500Y-104902000D03*
D17*
X125476000Y-86156800D03*
X125476000Y-88696800D03*
X125476000Y-91236800D03*
X125476000Y-93776800D03*
X125476000Y-96316800D03*
D18*
X125476000Y-98856800D03*
G36*
G01*
X161139500Y-69814000D02*
X161139500Y-71664000D01*
G75*
G02*
X160889500Y-71914000I-250000J0D01*
G01*
X159889500Y-71914000D01*
G75*
G02*
X159639500Y-71664000I0J250000D01*
G01*
X159639500Y-69814000D01*
G75*
G02*
X159889500Y-69564000I250000J0D01*
G01*
X160889500Y-69564000D01*
G75*
G02*
X161139500Y-69814000I0J-250000D01*
G01*
G37*
G36*
G01*
X164389500Y-69814000D02*
X164389500Y-71664000D01*
G75*
G02*
X164139500Y-71914000I-250000J0D01*
G01*
X163139500Y-71914000D01*
G75*
G02*
X162889500Y-71664000I0J250000D01*
G01*
X162889500Y-69814000D01*
G75*
G02*
X163139500Y-69564000I250000J0D01*
G01*
X164139500Y-69564000D01*
G75*
G02*
X164389500Y-69814000I0J-250000D01*
G01*
G37*
G36*
G01*
X175105500Y-77891000D02*
X173255500Y-77891000D01*
G75*
G02*
X173005500Y-77641000I0J250000D01*
G01*
X173005500Y-76641000D01*
G75*
G02*
X173255500Y-76391000I250000J0D01*
G01*
X175105500Y-76391000D01*
G75*
G02*
X175355500Y-76641000I0J-250000D01*
G01*
X175355500Y-77641000D01*
G75*
G02*
X175105500Y-77891000I-250000J0D01*
G01*
G37*
G36*
G01*
X175105500Y-81141000D02*
X173255500Y-81141000D01*
G75*
G02*
X173005500Y-80891000I0J250000D01*
G01*
X173005500Y-79891000D01*
G75*
G02*
X173255500Y-79641000I250000J0D01*
G01*
X175105500Y-79641000D01*
G75*
G02*
X175355500Y-79891000I0J-250000D01*
G01*
X175355500Y-80891000D01*
G75*
G02*
X175105500Y-81141000I-250000J0D01*
G01*
G37*
G36*
G01*
X130338000Y-93803500D02*
X128488000Y-93803500D01*
G75*
G02*
X128238000Y-93553500I0J250000D01*
G01*
X128238000Y-92553500D01*
G75*
G02*
X128488000Y-92303500I250000J0D01*
G01*
X130338000Y-92303500D01*
G75*
G02*
X130588000Y-92553500I0J-250000D01*
G01*
X130588000Y-93553500D01*
G75*
G02*
X130338000Y-93803500I-250000J0D01*
G01*
G37*
G36*
G01*
X130338000Y-97053500D02*
X128488000Y-97053500D01*
G75*
G02*
X128238000Y-96803500I0J250000D01*
G01*
X128238000Y-95803500D01*
G75*
G02*
X128488000Y-95553500I250000J0D01*
G01*
X130338000Y-95553500D01*
G75*
G02*
X130588000Y-95803500I0J-250000D01*
G01*
X130588000Y-96803500D01*
G75*
G02*
X130338000Y-97053500I-250000J0D01*
G01*
G37*
G36*
G01*
X132928500Y-88054500D02*
X132628500Y-88054500D01*
G75*
G02*
X132478500Y-87904500I0J150000D01*
G01*
X132478500Y-86154500D01*
G75*
G02*
X132628500Y-86004500I150000J0D01*
G01*
X132928500Y-86004500D01*
G75*
G02*
X133078500Y-86154500I0J-150000D01*
G01*
X133078500Y-87904500D01*
G75*
G02*
X132928500Y-88054500I-150000J0D01*
G01*
G37*
G36*
G01*
X134198500Y-88054500D02*
X133898500Y-88054500D01*
G75*
G02*
X133748500Y-87904500I0J150000D01*
G01*
X133748500Y-86154500D01*
G75*
G02*
X133898500Y-86004500I150000J0D01*
G01*
X134198500Y-86004500D01*
G75*
G02*
X134348500Y-86154500I0J-150000D01*
G01*
X134348500Y-87904500D01*
G75*
G02*
X134198500Y-88054500I-150000J0D01*
G01*
G37*
G36*
G01*
X135468500Y-88054500D02*
X135168500Y-88054500D01*
G75*
G02*
X135018500Y-87904500I0J150000D01*
G01*
X135018500Y-86154500D01*
G75*
G02*
X135168500Y-86004500I150000J0D01*
G01*
X135468500Y-86004500D01*
G75*
G02*
X135618500Y-86154500I0J-150000D01*
G01*
X135618500Y-87904500D01*
G75*
G02*
X135468500Y-88054500I-150000J0D01*
G01*
G37*
G36*
G01*
X136738500Y-88054500D02*
X136438500Y-88054500D01*
G75*
G02*
X136288500Y-87904500I0J150000D01*
G01*
X136288500Y-86154500D01*
G75*
G02*
X136438500Y-86004500I150000J0D01*
G01*
X136738500Y-86004500D01*
G75*
G02*
X136888500Y-86154500I0J-150000D01*
G01*
X136888500Y-87904500D01*
G75*
G02*
X136738500Y-88054500I-150000J0D01*
G01*
G37*
G36*
G01*
X138008500Y-88054500D02*
X137708500Y-88054500D01*
G75*
G02*
X137558500Y-87904500I0J150000D01*
G01*
X137558500Y-86154500D01*
G75*
G02*
X137708500Y-86004500I150000J0D01*
G01*
X138008500Y-86004500D01*
G75*
G02*
X138158500Y-86154500I0J-150000D01*
G01*
X138158500Y-87904500D01*
G75*
G02*
X138008500Y-88054500I-150000J0D01*
G01*
G37*
G36*
G01*
X139278500Y-88054500D02*
X138978500Y-88054500D01*
G75*
G02*
X138828500Y-87904500I0J150000D01*
G01*
X138828500Y-86154500D01*
G75*
G02*
X138978500Y-86004500I150000J0D01*
G01*
X139278500Y-86004500D01*
G75*
G02*
X139428500Y-86154500I0J-150000D01*
G01*
X139428500Y-87904500D01*
G75*
G02*
X139278500Y-88054500I-150000J0D01*
G01*
G37*
G36*
G01*
X140548500Y-88054500D02*
X140248500Y-88054500D01*
G75*
G02*
X140098500Y-87904500I0J150000D01*
G01*
X140098500Y-86154500D01*
G75*
G02*
X140248500Y-86004500I150000J0D01*
G01*
X140548500Y-86004500D01*
G75*
G02*
X140698500Y-86154500I0J-150000D01*
G01*
X140698500Y-87904500D01*
G75*
G02*
X140548500Y-88054500I-150000J0D01*
G01*
G37*
G36*
G01*
X141818500Y-88054500D02*
X141518500Y-88054500D01*
G75*
G02*
X141368500Y-87904500I0J150000D01*
G01*
X141368500Y-86154500D01*
G75*
G02*
X141518500Y-86004500I150000J0D01*
G01*
X141818500Y-86004500D01*
G75*
G02*
X141968500Y-86154500I0J-150000D01*
G01*
X141968500Y-87904500D01*
G75*
G02*
X141818500Y-88054500I-150000J0D01*
G01*
G37*
G36*
G01*
X143088500Y-88054500D02*
X142788500Y-88054500D01*
G75*
G02*
X142638500Y-87904500I0J150000D01*
G01*
X142638500Y-86154500D01*
G75*
G02*
X142788500Y-86004500I150000J0D01*
G01*
X143088500Y-86004500D01*
G75*
G02*
X143238500Y-86154500I0J-150000D01*
G01*
X143238500Y-87904500D01*
G75*
G02*
X143088500Y-88054500I-150000J0D01*
G01*
G37*
G36*
G01*
X144358500Y-88054500D02*
X144058500Y-88054500D01*
G75*
G02*
X143908500Y-87904500I0J150000D01*
G01*
X143908500Y-86154500D01*
G75*
G02*
X144058500Y-86004500I150000J0D01*
G01*
X144358500Y-86004500D01*
G75*
G02*
X144508500Y-86154500I0J-150000D01*
G01*
X144508500Y-87904500D01*
G75*
G02*
X144358500Y-88054500I-150000J0D01*
G01*
G37*
G36*
G01*
X144358500Y-97354500D02*
X144058500Y-97354500D01*
G75*
G02*
X143908500Y-97204500I0J150000D01*
G01*
X143908500Y-95454500D01*
G75*
G02*
X144058500Y-95304500I150000J0D01*
G01*
X144358500Y-95304500D01*
G75*
G02*
X144508500Y-95454500I0J-150000D01*
G01*
X144508500Y-97204500D01*
G75*
G02*
X144358500Y-97354500I-150000J0D01*
G01*
G37*
G36*
G01*
X143088500Y-97354500D02*
X142788500Y-97354500D01*
G75*
G02*
X142638500Y-97204500I0J150000D01*
G01*
X142638500Y-95454500D01*
G75*
G02*
X142788500Y-95304500I150000J0D01*
G01*
X143088500Y-95304500D01*
G75*
G02*
X143238500Y-95454500I0J-150000D01*
G01*
X143238500Y-97204500D01*
G75*
G02*
X143088500Y-97354500I-150000J0D01*
G01*
G37*
G36*
G01*
X141818500Y-97354500D02*
X141518500Y-97354500D01*
G75*
G02*
X141368500Y-97204500I0J150000D01*
G01*
X141368500Y-95454500D01*
G75*
G02*
X141518500Y-95304500I150000J0D01*
G01*
X141818500Y-95304500D01*
G75*
G02*
X141968500Y-95454500I0J-150000D01*
G01*
X141968500Y-97204500D01*
G75*
G02*
X141818500Y-97354500I-150000J0D01*
G01*
G37*
G36*
G01*
X140548500Y-97354500D02*
X140248500Y-97354500D01*
G75*
G02*
X140098500Y-97204500I0J150000D01*
G01*
X140098500Y-95454500D01*
G75*
G02*
X140248500Y-95304500I150000J0D01*
G01*
X140548500Y-95304500D01*
G75*
G02*
X140698500Y-95454500I0J-150000D01*
G01*
X140698500Y-97204500D01*
G75*
G02*
X140548500Y-97354500I-150000J0D01*
G01*
G37*
G36*
G01*
X139278500Y-97354500D02*
X138978500Y-97354500D01*
G75*
G02*
X138828500Y-97204500I0J150000D01*
G01*
X138828500Y-95454500D01*
G75*
G02*
X138978500Y-95304500I150000J0D01*
G01*
X139278500Y-95304500D01*
G75*
G02*
X139428500Y-95454500I0J-150000D01*
G01*
X139428500Y-97204500D01*
G75*
G02*
X139278500Y-97354500I-150000J0D01*
G01*
G37*
G36*
G01*
X138008500Y-97354500D02*
X137708500Y-97354500D01*
G75*
G02*
X137558500Y-97204500I0J150000D01*
G01*
X137558500Y-95454500D01*
G75*
G02*
X137708500Y-95304500I150000J0D01*
G01*
X138008500Y-95304500D01*
G75*
G02*
X138158500Y-95454500I0J-150000D01*
G01*
X138158500Y-97204500D01*
G75*
G02*
X138008500Y-97354500I-150000J0D01*
G01*
G37*
G36*
G01*
X136738500Y-97354500D02*
X136438500Y-97354500D01*
G75*
G02*
X136288500Y-97204500I0J150000D01*
G01*
X136288500Y-95454500D01*
G75*
G02*
X136438500Y-95304500I150000J0D01*
G01*
X136738500Y-95304500D01*
G75*
G02*
X136888500Y-95454500I0J-150000D01*
G01*
X136888500Y-97204500D01*
G75*
G02*
X136738500Y-97354500I-150000J0D01*
G01*
G37*
G36*
G01*
X135468500Y-97354500D02*
X135168500Y-97354500D01*
G75*
G02*
X135018500Y-97204500I0J150000D01*
G01*
X135018500Y-95454500D01*
G75*
G02*
X135168500Y-95304500I150000J0D01*
G01*
X135468500Y-95304500D01*
G75*
G02*
X135618500Y-95454500I0J-150000D01*
G01*
X135618500Y-97204500D01*
G75*
G02*
X135468500Y-97354500I-150000J0D01*
G01*
G37*
G36*
G01*
X134198500Y-97354500D02*
X133898500Y-97354500D01*
G75*
G02*
X133748500Y-97204500I0J150000D01*
G01*
X133748500Y-95454500D01*
G75*
G02*
X133898500Y-95304500I150000J0D01*
G01*
X134198500Y-95304500D01*
G75*
G02*
X134348500Y-95454500I0J-150000D01*
G01*
X134348500Y-97204500D01*
G75*
G02*
X134198500Y-97354500I-150000J0D01*
G01*
G37*
G36*
G01*
X132928500Y-97354500D02*
X132628500Y-97354500D01*
G75*
G02*
X132478500Y-97204500I0J150000D01*
G01*
X132478500Y-95454500D01*
G75*
G02*
X132628500Y-95304500I150000J0D01*
G01*
X132928500Y-95304500D01*
G75*
G02*
X133078500Y-95454500I0J-150000D01*
G01*
X133078500Y-97204500D01*
G75*
G02*
X132928500Y-97354500I-150000J0D01*
G01*
G37*
D26*
X113665000Y-109220000D03*
X180975000Y-109220000D03*
X180975000Y-61595000D03*
X113665000Y-61595000D03*
D27*
X169196000Y-77387000D03*
X169196000Y-77887000D03*
X169196000Y-78387000D03*
X169196000Y-78887000D03*
X169196000Y-79387000D03*
X169196000Y-79887000D03*
X169196000Y-80387000D03*
X169196000Y-80887000D03*
X169196000Y-81387000D03*
X169196000Y-81887000D03*
X169196000Y-82387000D03*
X169196000Y-82887000D03*
D28*
X167596000Y-84487000D03*
X167096000Y-84487000D03*
X166596000Y-84487000D03*
X166096000Y-84487000D03*
X165596000Y-84487000D03*
X165096000Y-84487000D03*
X164596000Y-84487000D03*
X164096000Y-84487000D03*
X163596000Y-84487000D03*
X163096000Y-84487000D03*
X162596000Y-84487000D03*
X162096000Y-84487000D03*
D27*
X160496000Y-82887000D03*
X160496000Y-82387000D03*
X160496000Y-81887000D03*
X160496000Y-81387000D03*
X160496000Y-80887000D03*
X160496000Y-80387000D03*
X160496000Y-79887000D03*
X160496000Y-79387000D03*
X160496000Y-78887000D03*
X160496000Y-78387000D03*
X160496000Y-77887000D03*
X160496000Y-77387000D03*
D28*
X162096000Y-75787000D03*
X162596000Y-75787000D03*
X163096000Y-75787000D03*
X163596000Y-75787000D03*
X164096000Y-75787000D03*
X164596000Y-75787000D03*
X165096000Y-75787000D03*
X165596000Y-75787000D03*
X166096000Y-75787000D03*
X166596000Y-75787000D03*
X167096000Y-75787000D03*
X167596000Y-75787000D03*
G36*
G01*
X152906200Y-77070799D02*
X152906200Y-77970801D01*
G75*
G02*
X152656201Y-78220800I-249999J0D01*
G01*
X152006199Y-78220800D01*
G75*
G02*
X151756200Y-77970801I0J249999D01*
G01*
X151756200Y-77070799D01*
G75*
G02*
X152006199Y-76820800I249999J0D01*
G01*
X152656201Y-76820800D01*
G75*
G02*
X152906200Y-77070799I0J-249999D01*
G01*
G37*
G36*
G01*
X154956200Y-77070799D02*
X154956200Y-77970801D01*
G75*
G02*
X154706201Y-78220800I-249999J0D01*
G01*
X154056199Y-78220800D01*
G75*
G02*
X153806200Y-77970801I0J249999D01*
G01*
X153806200Y-77070799D01*
G75*
G02*
X154056199Y-76820800I249999J0D01*
G01*
X154706201Y-76820800D01*
G75*
G02*
X154956200Y-77070799I0J-249999D01*
G01*
G37*
G36*
G01*
X152906200Y-79153599D02*
X152906200Y-80053601D01*
G75*
G02*
X152656201Y-80303600I-249999J0D01*
G01*
X152006199Y-80303600D01*
G75*
G02*
X151756200Y-80053601I0J249999D01*
G01*
X151756200Y-79153599D01*
G75*
G02*
X152006199Y-78903600I249999J0D01*
G01*
X152656201Y-78903600D01*
G75*
G02*
X152906200Y-79153599I0J-249999D01*
G01*
G37*
G36*
G01*
X154956200Y-79153599D02*
X154956200Y-80053601D01*
G75*
G02*
X154706201Y-80303600I-249999J0D01*
G01*
X154056199Y-80303600D01*
G75*
G02*
X153806200Y-80053601I0J249999D01*
G01*
X153806200Y-79153599D01*
G75*
G02*
X154056199Y-78903600I249999J0D01*
G01*
X154706201Y-78903600D01*
G75*
G02*
X154956200Y-79153599I0J-249999D01*
G01*
G37*
M02*
