G04 #@! TF.GenerationSoftware,KiCad,Pcbnew,(5.1.10-0-10_14)*
G04 #@! TF.CreationDate,2021-06-26T15:44:58+02:00*
G04 #@! TF.ProjectId,dac,6461632e-6b69-4636-9164-5f7063625858,rev?*
G04 #@! TF.SameCoordinates,Original*
G04 #@! TF.FileFunction,Copper,L2,Inr*
G04 #@! TF.FilePolarity,Positive*
%FSLAX46Y46*%
G04 Gerber Fmt 4.6, Leading zero omitted, Abs format (unit mm)*
G04 Created by KiCad (PCBNEW (5.1.10-0-10_14)) date 2021-06-26 15:44:58*
%MOMM*%
%LPD*%
G01*
G04 APERTURE LIST*
G04 #@! TA.AperFunction,ComponentPad*
%ADD10C,1.308000*%
G04 #@! TD*
G04 #@! TA.AperFunction,ComponentPad*
%ADD11C,1.650000*%
G04 #@! TD*
G04 #@! TA.AperFunction,ComponentPad*
%ADD12C,2.000000*%
G04 #@! TD*
G04 #@! TA.AperFunction,ComponentPad*
%ADD13R,1.308000X1.308000*%
G04 #@! TD*
G04 #@! TA.AperFunction,ComponentPad*
%ADD14O,1.700000X1.700000*%
G04 #@! TD*
G04 #@! TA.AperFunction,ComponentPad*
%ADD15R,1.700000X1.700000*%
G04 #@! TD*
G04 #@! TA.AperFunction,ComponentPad*
%ADD16C,1.600000*%
G04 #@! TD*
G04 #@! TA.AperFunction,ComponentPad*
%ADD17R,1.600000X1.600000*%
G04 #@! TD*
G04 #@! TA.AperFunction,ViaPad*
%ADD18C,0.450000*%
G04 #@! TD*
G04 #@! TA.AperFunction,ViaPad*
%ADD19C,0.600000*%
G04 #@! TD*
G04 #@! TA.AperFunction,ViaPad*
%ADD20C,0.800000*%
G04 #@! TD*
G04 #@! TA.AperFunction,Conductor*
%ADD21C,0.250000*%
G04 #@! TD*
G04 #@! TA.AperFunction,Conductor*
%ADD22C,0.500000*%
G04 #@! TD*
G04 APERTURE END LIST*
D10*
X115088500Y-96393000D03*
X115088500Y-98933000D03*
X115088500Y-101473000D03*
D11*
X112458500Y-101473000D03*
X112458500Y-96393000D03*
D10*
X115025000Y-83185000D03*
X115025000Y-85725000D03*
X115025000Y-88265000D03*
D11*
X112395000Y-88265000D03*
X112395000Y-83185000D03*
D10*
X115025000Y-70104000D03*
X115025000Y-72644000D03*
X115025000Y-75184000D03*
D11*
X112395000Y-75184000D03*
X112395000Y-70104000D03*
D12*
X127952500Y-60325000D03*
X133350000Y-60325000D03*
D13*
X130238500Y-109728000D03*
D10*
X131508500Y-107188000D03*
X132778500Y-109728000D03*
X134048500Y-107188000D03*
X135318500Y-109728000D03*
X136588500Y-107188000D03*
X137858500Y-109728000D03*
X139128500Y-107188000D03*
X140398500Y-109728000D03*
X141668500Y-107188000D03*
D13*
X182245000Y-99060000D03*
D10*
X179705000Y-97790000D03*
X182245000Y-96520000D03*
X179705000Y-95250000D03*
X182245000Y-93980000D03*
X179705000Y-92710000D03*
X182245000Y-91440000D03*
X179705000Y-90170000D03*
X182245000Y-88900000D03*
X179705000Y-87630000D03*
D13*
X182245000Y-80645000D03*
D10*
X179705000Y-79375000D03*
X182245000Y-78105000D03*
X179705000Y-76835000D03*
X182245000Y-75565000D03*
X179705000Y-74295000D03*
X182245000Y-73025000D03*
X179705000Y-71755000D03*
X182245000Y-70485000D03*
X179705000Y-69215000D03*
D14*
X137223500Y-79438500D03*
X134683500Y-79438500D03*
D15*
X132143500Y-79438500D03*
D12*
X166243000Y-110363000D03*
X160210500Y-110363000D03*
D16*
X160210500Y-101402000D03*
D17*
X160210500Y-104902000D03*
D14*
X125476000Y-86156800D03*
X125476000Y-88696800D03*
X125476000Y-91236800D03*
X125476000Y-93776800D03*
X125476000Y-96316800D03*
D15*
X125476000Y-98856800D03*
D18*
X165709600Y-72542400D03*
X165735000Y-74295000D03*
X164566600Y-87401400D03*
D19*
X170992800Y-58216800D03*
X141757400Y-73152000D03*
X147535900Y-74053700D03*
X157124400Y-81432400D03*
X146685000Y-80340200D03*
X131508500Y-96329500D03*
D18*
X166096000Y-85770400D03*
X172491400Y-80391000D03*
X162411400Y-88693000D03*
D19*
X155445800Y-61470200D03*
X160629600Y-68072000D03*
X170977600Y-63007200D03*
D18*
X132160000Y-83422500D03*
D19*
X152579000Y-81840000D03*
D18*
X140415000Y-99932500D03*
D20*
X131508500Y-101663500D03*
D19*
X140447000Y-67515500D03*
X146240500Y-68453000D03*
X143778001Y-76439999D03*
X148858001Y-76439999D03*
D20*
X152590500Y-96329500D03*
D18*
X155600400Y-79603600D03*
X159258000Y-78837000D03*
X155600400Y-77520800D03*
X161772225Y-77485808D03*
X135331200Y-88696800D03*
X134061200Y-91236800D03*
X158902400Y-80873600D03*
X144208500Y-84667000D03*
X151299000Y-84667000D03*
X151257000Y-86868000D03*
X178175999Y-71755000D03*
X178175999Y-87878999D03*
X141668500Y-85217000D03*
X159054800Y-82194400D03*
X149796499Y-85217001D03*
X159067500Y-85217000D03*
X177625999Y-74295000D03*
X177625999Y-86470501D03*
X162204400Y-79400400D03*
D19*
X165989000Y-93281500D03*
D18*
X167690800Y-74218800D03*
X167690800Y-72491600D03*
X163271200Y-85699600D03*
X161747200Y-79959200D03*
X161571002Y-82854800D03*
X161594800Y-85750400D03*
X160528000Y-83718400D03*
X140970000Y-94615000D03*
X160518001Y-94053499D03*
X178725999Y-84227501D03*
X172466000Y-77978000D03*
X170624500Y-77851000D03*
X174879000Y-75565000D03*
X170624500Y-78867000D03*
X171653200Y-72694800D03*
X160985200Y-74853800D03*
X171653200Y-74828400D03*
X169189400Y-83693000D03*
X174180500Y-96520000D03*
X170459400Y-82372200D03*
X173101000Y-93980000D03*
X170510200Y-81322199D03*
X171450000Y-91440000D03*
X170053000Y-62992000D03*
X170053000Y-68707000D03*
X173228000Y-61925200D03*
X175975998Y-80645000D03*
X162119800Y-83362800D03*
X170027600Y-72694800D03*
X164033200Y-82550000D03*
X173228000Y-59740800D03*
X139128500Y-97980500D03*
X137843498Y-97995502D03*
X139128500Y-85344000D03*
X139128500Y-82296000D03*
X135318500Y-97980500D03*
X134048500Y-97980500D03*
X141668500Y-97980500D03*
X144208500Y-98044000D03*
X143573500Y-89979500D03*
X143573500Y-100457000D03*
X142938500Y-98044000D03*
D20*
X149987000Y-104902000D03*
X164211000Y-104902000D03*
D19*
X123952000Y-70104000D03*
X123952000Y-83210400D03*
D20*
X123952000Y-96393000D03*
D18*
X136601200Y-94538800D03*
X149542500Y-89281000D03*
X177075999Y-76835000D03*
X177075999Y-89255499D03*
X136588500Y-85534500D03*
X140411200Y-88849200D03*
X145542000Y-89281000D03*
X166573200Y-74117200D03*
X147525377Y-70942158D03*
X141746826Y-70068312D03*
X168240800Y-73790771D03*
X159639000Y-76009500D03*
X164759261Y-77153338D03*
X159639000Y-74485500D03*
X163703000Y-76898500D03*
X164592000Y-73888600D03*
X155676600Y-73406000D03*
X151320500Y-73406000D03*
X151320500Y-60896500D03*
X165608000Y-77152500D03*
X145986500Y-77660500D03*
X135699500Y-64897000D03*
X141097000Y-70053200D03*
X146875500Y-70954900D03*
X144398044Y-81914740D03*
D21*
X165735000Y-72567800D02*
X165709600Y-72542400D01*
X165735000Y-74295000D02*
X165735000Y-72567800D01*
D22*
X131508500Y-107188000D02*
X131508500Y-101663500D01*
D21*
X151299000Y-86826000D02*
X151257000Y-86868000D01*
X151299000Y-84667000D02*
X151299000Y-86826000D01*
X178175999Y-88640999D02*
X179705000Y-90170000D01*
X178175999Y-87878999D02*
X178175999Y-88640999D01*
X178175999Y-71755000D02*
X178175999Y-87878999D01*
X159067500Y-82207100D02*
X159054800Y-82194400D01*
X159067500Y-85217000D02*
X159067500Y-82207100D01*
X179705000Y-92710000D02*
X177625999Y-90630999D01*
X177625999Y-86470501D02*
X177625999Y-74295000D01*
X177625999Y-90630999D02*
X177625999Y-86470501D01*
X167690800Y-74218800D02*
X167690800Y-72491600D01*
X163271200Y-81483200D02*
X161747200Y-79959200D01*
X163271200Y-85699600D02*
X163271200Y-81483200D01*
X161346003Y-85501603D02*
X161594800Y-85750400D01*
X161346003Y-83079799D02*
X161346003Y-85501603D01*
X161571002Y-82854800D02*
X161346003Y-83079799D01*
X160528000Y-94043500D02*
X160518001Y-94053499D01*
X160528000Y-83718400D02*
X160528000Y-94043500D01*
X178725999Y-70194001D02*
X179705000Y-69215000D01*
X179705000Y-87630000D02*
X178725999Y-86650999D01*
X178725999Y-84227501D02*
X178725999Y-70194001D01*
X178725999Y-86650999D02*
X178725999Y-84227501D01*
X172910500Y-75565000D02*
X174879000Y-75565000D01*
X170624500Y-77851000D02*
X172910500Y-75565000D01*
X171653200Y-74828400D02*
X171653200Y-72694800D01*
X169189400Y-91528900D02*
X174180500Y-96520000D01*
X169189400Y-83693000D02*
X169189400Y-91528900D01*
X173101000Y-93905002D02*
X173101000Y-93980000D01*
X170459400Y-91263402D02*
X173101000Y-93905002D01*
X170459400Y-82372200D02*
X170459400Y-91263402D01*
X171009401Y-90999401D02*
X171450000Y-91440000D01*
X171009401Y-81821400D02*
X171009401Y-90999401D01*
X170510200Y-81322199D02*
X171009401Y-81821400D01*
X170053000Y-62992000D02*
X170053000Y-68707000D01*
X175975998Y-80500502D02*
X175958500Y-80483004D01*
X175975998Y-80645000D02*
X175975998Y-80500502D01*
X175958500Y-80483004D02*
X175958500Y-62738000D01*
X175145700Y-61925200D02*
X173228000Y-61925200D01*
X175958500Y-62738000D02*
X175145700Y-61925200D01*
X170027600Y-76555600D02*
X164033200Y-82550000D01*
X170027600Y-72694800D02*
X170027600Y-76555600D01*
X176525998Y-96059920D02*
X176525998Y-60900502D01*
X179526078Y-99060000D02*
X176525998Y-96059920D01*
X182245000Y-99060000D02*
X179526078Y-99060000D01*
X175366296Y-59740800D02*
X173228000Y-59740800D01*
X176525998Y-60900502D02*
X175366296Y-59740800D01*
X136243395Y-109728000D02*
X137858500Y-108112895D01*
X135318500Y-109728000D02*
X136243395Y-109728000D01*
X137858500Y-99250500D02*
X139128500Y-97980500D01*
X137858500Y-108112895D02*
X137858500Y-99250500D01*
X136588500Y-99250500D02*
X136588500Y-107188000D01*
X137843498Y-97995502D02*
X136588500Y-99250500D01*
X139128500Y-85344000D02*
X139128500Y-82296000D01*
X135318500Y-108112895D02*
X135318500Y-97980500D01*
X133703395Y-109728000D02*
X135318500Y-108112895D01*
X132778500Y-109728000D02*
X133703395Y-109728000D01*
X134048500Y-97980500D02*
X134048500Y-107188000D01*
X141668500Y-104648000D02*
X141668500Y-97980500D01*
X139128500Y-107188000D02*
X141668500Y-104648000D01*
X144208500Y-106256998D02*
X144208500Y-98044000D01*
X140737498Y-109728000D02*
X144208500Y-106256998D01*
X140398500Y-109728000D02*
X140737498Y-109728000D01*
X143573500Y-89979500D02*
X143573500Y-100457000D01*
X141668500Y-107188000D02*
X143573500Y-105283000D01*
X143573500Y-104394000D02*
X143573500Y-100457000D01*
X143573500Y-105283000D02*
X143573500Y-104394000D01*
X140144500Y-106808410D02*
X142938500Y-104014410D01*
X140144500Y-108366895D02*
X140144500Y-106808410D01*
X142938500Y-104014410D02*
X142938500Y-98044000D01*
X138783395Y-109728000D02*
X140144500Y-108366895D01*
X137858500Y-109728000D02*
X138783395Y-109728000D01*
X177075999Y-77153198D02*
X177075999Y-76835000D01*
X179705000Y-95250000D02*
X177075998Y-92620998D01*
X177075999Y-89255499D02*
X177075999Y-77153198D01*
X177075998Y-92620998D02*
X177075999Y-89255499D01*
X136588500Y-81343500D02*
X134683500Y-79438500D01*
X136588500Y-85534500D02*
X136588500Y-81343500D01*
X151320500Y-73406000D02*
X151320500Y-63754000D01*
X151320500Y-63754000D02*
X151320500Y-60896500D01*
M02*
