G04 #@! TF.GenerationSoftware,KiCad,Pcbnew,(5.1.9-0-10_14)*
G04 #@! TF.CreationDate,2021-03-22T16:22:46+01:00*
G04 #@! TF.ProjectId,dac,6461632e-6b69-4636-9164-5f7063625858,rev?*
G04 #@! TF.SameCoordinates,Original*
G04 #@! TF.FileFunction,Soldermask,Bot*
G04 #@! TF.FilePolarity,Negative*
%FSLAX46Y46*%
G04 Gerber Fmt 4.6, Leading zero omitted, Abs format (unit mm)*
G04 Created by KiCad (PCBNEW (5.1.9-0-10_14)) date 2021-03-22 16:22:46*
%MOMM*%
%LPD*%
G01*
G04 APERTURE LIST*
%ADD10C,1.308000*%
%ADD11C,1.650000*%
%ADD12C,2.000000*%
%ADD13R,1.308000X1.308000*%
%ADD14C,1.500000*%
%ADD15O,1.700000X1.700000*%
%ADD16R,1.700000X1.700000*%
%ADD17C,1.600000*%
%ADD18R,1.600000X1.600000*%
%ADD19C,3.200000*%
%ADD20C,2.400000*%
%ADD21R,2.400000X2.400000*%
G04 APERTURE END LIST*
D10*
X115025000Y-83185000D03*
X115025000Y-85725000D03*
X115025000Y-88265000D03*
D11*
X112395000Y-88265000D03*
X112395000Y-83185000D03*
D10*
X115025000Y-70104000D03*
X115025000Y-72644000D03*
X115025000Y-75184000D03*
D11*
X112395000Y-75184000D03*
X112395000Y-70104000D03*
D12*
X141986000Y-122047000D03*
X135890000Y-122047000D03*
D13*
X190246000Y-100266500D03*
D10*
X187706000Y-98996500D03*
X190246000Y-97726500D03*
X187706000Y-96456500D03*
X190246000Y-95186500D03*
X187706000Y-93916500D03*
X190246000Y-92646500D03*
X187706000Y-91376500D03*
X190246000Y-90106500D03*
X187706000Y-88836500D03*
D14*
X189506000Y-87436500D03*
D15*
X184023000Y-86296500D03*
X184023000Y-88836500D03*
X184023000Y-91376500D03*
X184023000Y-93916500D03*
X184023000Y-96456500D03*
X184023000Y-98996500D03*
X184023000Y-101536500D03*
D16*
X184023000Y-104076500D03*
D15*
X153162000Y-74866500D03*
X153162000Y-72326500D03*
D16*
X153162000Y-69786500D03*
D15*
X131699000Y-75247500D03*
X131699000Y-77787500D03*
D16*
X131699000Y-80327500D03*
D15*
X184023000Y-61785500D03*
X184023000Y-64325500D03*
X184023000Y-66865500D03*
X184023000Y-69405500D03*
X184023000Y-71945500D03*
X184023000Y-74485500D03*
X184023000Y-77025500D03*
D16*
X184023000Y-79565500D03*
D15*
X148526500Y-80137000D03*
X148526500Y-82677000D03*
D16*
X148526500Y-85217000D03*
D13*
X112458500Y-96774000D03*
D10*
X114998500Y-98044000D03*
X112458500Y-99314000D03*
X114998500Y-100584000D03*
X112458500Y-101854000D03*
X114998500Y-103124000D03*
X112458500Y-104394000D03*
X114998500Y-105664000D03*
X112458500Y-106934000D03*
X114998500Y-108204000D03*
D14*
X113198500Y-109604000D03*
D13*
X190224000Y-75755500D03*
D10*
X187684000Y-74485500D03*
X190224000Y-73215500D03*
X187684000Y-71945500D03*
X190224000Y-70675500D03*
X187684000Y-69405500D03*
X190224000Y-68135500D03*
X187684000Y-66865500D03*
X190224000Y-65595500D03*
X187684000Y-64325500D03*
D14*
X189484000Y-62925500D03*
D17*
X164211000Y-112331500D03*
D18*
X160711000Y-112331500D03*
D15*
X125539500Y-86106000D03*
X125539500Y-88646000D03*
X125539500Y-91186000D03*
X125539500Y-93726000D03*
X125539500Y-96266000D03*
D16*
X125539500Y-98806000D03*
D12*
X122047000Y-122047000D03*
X128143000Y-122047000D03*
X155067000Y-122047000D03*
X160655000Y-122047000D03*
X166751000Y-122047000D03*
X148971000Y-122047000D03*
D19*
X113665000Y-119507000D03*
X196215000Y-119380000D03*
X196215000Y-61595000D03*
X113665000Y-61595000D03*
D20*
X135890000Y-109681000D03*
D21*
X135890000Y-114681000D03*
M02*
