G04 #@! TF.GenerationSoftware,KiCad,Pcbnew,(5.1.10-0-10_14)*
G04 #@! TF.CreationDate,2021-10-17T20:39:04+02:00*
G04 #@! TF.ProjectId,lv-lownoise-psu,6c762d6c-6f77-46e6-9f69-73652d707375,rev?*
G04 #@! TF.SameCoordinates,Original*
G04 #@! TF.FileFunction,Legend,Top*
G04 #@! TF.FilePolarity,Positive*
%FSLAX46Y46*%
G04 Gerber Fmt 4.6, Leading zero omitted, Abs format (unit mm)*
G04 Created by KiCad (PCBNEW (5.1.10-0-10_14)) date 2021-10-17 20:39:04*
%MOMM*%
%LPD*%
G01*
G04 APERTURE LIST*
%ADD10C,0.150000*%
%ADD11C,0.120000*%
G04 APERTURE END LIST*
D10*
X123444047Y-74366428D02*
X124205952Y-74366428D01*
X123825000Y-74747380D02*
X123825000Y-73985476D01*
X125476047Y-49474428D02*
X126237952Y-49474428D01*
X125857000Y-49855380D02*
X125857000Y-49093476D01*
X132842047Y-55697428D02*
X133603952Y-55697428D01*
X133223000Y-56078380D02*
X133223000Y-55316476D01*
X116776500Y-71143880D02*
X116681261Y-71191500D01*
X116633642Y-71286738D01*
X116681261Y-71381976D01*
X116776500Y-71429595D01*
X116871738Y-71381976D01*
X116919357Y-71286738D01*
X116871738Y-71191500D01*
X116776500Y-71143880D01*
X116776500Y-46251880D02*
X116681261Y-46299500D01*
X116633642Y-46394738D01*
X116681261Y-46489976D01*
X116776500Y-46537595D01*
X116871738Y-46489976D01*
X116919357Y-46394738D01*
X116871738Y-46299500D01*
X116776500Y-46251880D01*
X127698547Y-74810928D02*
X128460452Y-74810928D01*
X128079500Y-75191880D02*
X128079500Y-74429976D01*
X126365000Y-67587880D02*
X126269761Y-67635500D01*
X126222142Y-67730738D01*
X126269761Y-67825976D01*
X126365000Y-67873595D01*
X126460238Y-67825976D01*
X126507857Y-67730738D01*
X126460238Y-67635500D01*
X126365000Y-67587880D01*
X135001000Y-51204880D02*
X134905761Y-51252500D01*
X134858142Y-51347738D01*
X134905761Y-51442976D01*
X135001000Y-51490595D01*
X135096238Y-51442976D01*
X135143857Y-51347738D01*
X135096238Y-51252500D01*
X135001000Y-51204880D01*
X135001000Y-72604380D02*
X134905761Y-72652000D01*
X134858142Y-72747238D01*
X134905761Y-72842476D01*
X135001000Y-72890095D01*
X135096238Y-72842476D01*
X135143857Y-72747238D01*
X135096238Y-72652000D01*
X135001000Y-72604380D01*
X126682500Y-46442380D02*
X126587261Y-46490000D01*
X126539642Y-46585238D01*
X126587261Y-46680476D01*
X126682500Y-46728095D01*
X126777738Y-46680476D01*
X126825357Y-46585238D01*
X126777738Y-46490000D01*
X126682500Y-46442380D01*
X132707095Y-60777380D02*
X132707095Y-59777380D01*
X133278523Y-60777380D02*
X132849952Y-60205952D01*
X133278523Y-59777380D02*
X132707095Y-60348809D01*
X116514595Y-57094380D02*
X116514595Y-56094380D01*
X117086023Y-57094380D02*
X116657452Y-56522952D01*
X117086023Y-56094380D02*
X116514595Y-56665809D01*
X85907595Y-65603380D02*
X85907595Y-64603380D01*
X86479023Y-65603380D02*
X86050452Y-65031952D01*
X86479023Y-64603380D02*
X85907595Y-65174809D01*
X96131095Y-51379380D02*
X96131095Y-50379380D01*
X96702523Y-51379380D02*
X96273952Y-50807952D01*
X96702523Y-50379380D02*
X96131095Y-50950809D01*
X89663738Y-81542880D02*
X89187547Y-81542880D01*
X89187547Y-80542880D01*
X90139928Y-81542880D02*
X90044690Y-81495261D01*
X89997071Y-81447642D01*
X89949452Y-81352404D01*
X89949452Y-81066690D01*
X89997071Y-80971452D01*
X90044690Y-80923833D01*
X90139928Y-80876214D01*
X90282785Y-80876214D01*
X90378023Y-80923833D01*
X90425642Y-80971452D01*
X90473261Y-81066690D01*
X90473261Y-81352404D01*
X90425642Y-81447642D01*
X90378023Y-81495261D01*
X90282785Y-81542880D01*
X90139928Y-81542880D01*
X90806595Y-80876214D02*
X90997071Y-81542880D01*
X91187547Y-81066690D01*
X91378023Y-81542880D01*
X91568499Y-80876214D01*
X92711357Y-80876214D02*
X92711357Y-81542880D01*
X92711357Y-80971452D02*
X92758976Y-80923833D01*
X92854214Y-80876214D01*
X92997071Y-80876214D01*
X93092309Y-80923833D01*
X93139928Y-81019071D01*
X93139928Y-81542880D01*
X93758976Y-81542880D02*
X93663738Y-81495261D01*
X93616119Y-81447642D01*
X93568499Y-81352404D01*
X93568499Y-81066690D01*
X93616119Y-80971452D01*
X93663738Y-80923833D01*
X93758976Y-80876214D01*
X93901833Y-80876214D01*
X93997071Y-80923833D01*
X94044690Y-80971452D01*
X94092309Y-81066690D01*
X94092309Y-81352404D01*
X94044690Y-81447642D01*
X93997071Y-81495261D01*
X93901833Y-81542880D01*
X93758976Y-81542880D01*
X94520880Y-81542880D02*
X94520880Y-80876214D01*
X94520880Y-80542880D02*
X94473261Y-80590500D01*
X94520880Y-80638119D01*
X94568499Y-80590500D01*
X94520880Y-80542880D01*
X94520880Y-80638119D01*
X94949452Y-81495261D02*
X95044690Y-81542880D01*
X95235166Y-81542880D01*
X95330404Y-81495261D01*
X95378023Y-81400023D01*
X95378023Y-81352404D01*
X95330404Y-81257166D01*
X95235166Y-81209547D01*
X95092309Y-81209547D01*
X94997071Y-81161928D01*
X94949452Y-81066690D01*
X94949452Y-81019071D01*
X94997071Y-80923833D01*
X95092309Y-80876214D01*
X95235166Y-80876214D01*
X95330404Y-80923833D01*
X96187547Y-81495261D02*
X96092309Y-81542880D01*
X95901833Y-81542880D01*
X95806595Y-81495261D01*
X95758976Y-81400023D01*
X95758976Y-81019071D01*
X95806595Y-80923833D01*
X95901833Y-80876214D01*
X96092309Y-80876214D01*
X96187547Y-80923833D01*
X96235166Y-81019071D01*
X96235166Y-81114309D01*
X95758976Y-81209547D01*
X97854214Y-81542880D02*
X97854214Y-80542880D01*
X97854214Y-81495261D02*
X97758976Y-81542880D01*
X97568500Y-81542880D01*
X97473261Y-81495261D01*
X97425642Y-81447642D01*
X97378023Y-81352404D01*
X97378023Y-81066690D01*
X97425642Y-80971452D01*
X97473261Y-80923833D01*
X97568500Y-80876214D01*
X97758976Y-80876214D01*
X97854214Y-80923833D01*
X98758976Y-80876214D02*
X98758976Y-81542880D01*
X98330404Y-80876214D02*
X98330404Y-81400023D01*
X98378023Y-81495261D01*
X98473261Y-81542880D01*
X98616119Y-81542880D01*
X98711357Y-81495261D01*
X98758976Y-81447642D01*
X99663738Y-81542880D02*
X99663738Y-81019071D01*
X99616119Y-80923833D01*
X99520880Y-80876214D01*
X99330404Y-80876214D01*
X99235166Y-80923833D01*
X99663738Y-81495261D02*
X99568499Y-81542880D01*
X99330404Y-81542880D01*
X99235166Y-81495261D01*
X99187547Y-81400023D01*
X99187547Y-81304785D01*
X99235166Y-81209547D01*
X99330404Y-81161928D01*
X99568499Y-81161928D01*
X99663738Y-81114309D01*
X100282785Y-81542880D02*
X100187547Y-81495261D01*
X100139928Y-81400023D01*
X100139928Y-80542880D01*
X101425642Y-80876214D02*
X101425642Y-81876214D01*
X101425642Y-80923833D02*
X101520880Y-80876214D01*
X101711357Y-80876214D01*
X101806595Y-80923833D01*
X101854214Y-80971452D01*
X101901833Y-81066690D01*
X101901833Y-81352404D01*
X101854214Y-81447642D01*
X101806595Y-81495261D01*
X101711357Y-81542880D01*
X101520880Y-81542880D01*
X101425642Y-81495261D01*
X102473261Y-81542880D02*
X102378023Y-81495261D01*
X102330404Y-81447642D01*
X102282785Y-81352404D01*
X102282785Y-81066690D01*
X102330404Y-80971452D01*
X102378023Y-80923833D01*
X102473261Y-80876214D01*
X102616119Y-80876214D01*
X102711357Y-80923833D01*
X102758976Y-80971452D01*
X102806595Y-81066690D01*
X102806595Y-81352404D01*
X102758976Y-81447642D01*
X102711357Y-81495261D01*
X102616119Y-81542880D01*
X102473261Y-81542880D01*
X103139928Y-80876214D02*
X103330404Y-81542880D01*
X103520880Y-81066690D01*
X103711357Y-81542880D01*
X103901833Y-80876214D01*
X104663738Y-81495261D02*
X104568499Y-81542880D01*
X104378023Y-81542880D01*
X104282785Y-81495261D01*
X104235166Y-81400023D01*
X104235166Y-81019071D01*
X104282785Y-80923833D01*
X104378023Y-80876214D01*
X104568499Y-80876214D01*
X104663738Y-80923833D01*
X104711357Y-81019071D01*
X104711357Y-81114309D01*
X104235166Y-81209547D01*
X105139928Y-81542880D02*
X105139928Y-80876214D01*
X105139928Y-81066690D02*
X105187547Y-80971452D01*
X105235166Y-80923833D01*
X105330404Y-80876214D01*
X105425642Y-80876214D01*
X106473261Y-81495261D02*
X106568500Y-81542880D01*
X106758976Y-81542880D01*
X106854214Y-81495261D01*
X106901833Y-81400023D01*
X106901833Y-81352404D01*
X106854214Y-81257166D01*
X106758976Y-81209547D01*
X106616119Y-81209547D01*
X106520880Y-81161928D01*
X106473261Y-81066690D01*
X106473261Y-81019071D01*
X106520880Y-80923833D01*
X106616119Y-80876214D01*
X106758976Y-80876214D01*
X106854214Y-80923833D01*
X107758976Y-80876214D02*
X107758976Y-81542880D01*
X107330404Y-80876214D02*
X107330404Y-81400023D01*
X107378023Y-81495261D01*
X107473261Y-81542880D01*
X107616119Y-81542880D01*
X107711357Y-81495261D01*
X107758976Y-81447642D01*
X108235166Y-80876214D02*
X108235166Y-81876214D01*
X108235166Y-80923833D02*
X108330404Y-80876214D01*
X108520880Y-80876214D01*
X108616119Y-80923833D01*
X108663738Y-80971452D01*
X108711357Y-81066690D01*
X108711357Y-81352404D01*
X108663738Y-81447642D01*
X108616119Y-81495261D01*
X108520880Y-81542880D01*
X108330404Y-81542880D01*
X108235166Y-81495261D01*
X109139928Y-80876214D02*
X109139928Y-81876214D01*
X109139928Y-80923833D02*
X109235166Y-80876214D01*
X109425642Y-80876214D01*
X109520880Y-80923833D01*
X109568499Y-80971452D01*
X109616119Y-81066690D01*
X109616119Y-81352404D01*
X109568499Y-81447642D01*
X109520880Y-81495261D01*
X109425642Y-81542880D01*
X109235166Y-81542880D01*
X109139928Y-81495261D01*
X110187547Y-81542880D02*
X110092309Y-81495261D01*
X110044690Y-81400023D01*
X110044690Y-80542880D01*
X110473261Y-80876214D02*
X110711357Y-81542880D01*
X110949452Y-80876214D02*
X110711357Y-81542880D01*
X110616119Y-81780976D01*
X110568499Y-81828595D01*
X110473261Y-81876214D01*
X111949452Y-80542880D02*
X112282785Y-81542880D01*
X112616119Y-80542880D01*
X112854214Y-80542880D02*
X113473261Y-80542880D01*
X113139928Y-80923833D01*
X113282785Y-80923833D01*
X113378023Y-80971452D01*
X113425642Y-81019071D01*
X113473261Y-81114309D01*
X113473261Y-81352404D01*
X113425642Y-81447642D01*
X113378023Y-81495261D01*
X113282785Y-81542880D01*
X112997071Y-81542880D01*
X112901833Y-81495261D01*
X112854214Y-81447642D01*
X114330404Y-81542880D02*
X114330404Y-80542880D01*
X114330404Y-81495261D02*
X114235166Y-81542880D01*
X114044690Y-81542880D01*
X113949452Y-81495261D01*
X113901833Y-81447642D01*
X113854214Y-81352404D01*
X113854214Y-81066690D01*
X113901833Y-80971452D01*
X113949452Y-80923833D01*
X114044690Y-80876214D01*
X114235166Y-80876214D01*
X114330404Y-80923833D01*
X114806595Y-81161928D02*
X115568499Y-81161928D01*
X115949452Y-80542880D02*
X116568499Y-80542880D01*
X116235166Y-80923833D01*
X116378023Y-80923833D01*
X116473261Y-80971452D01*
X116520880Y-81019071D01*
X116568499Y-81114309D01*
X116568499Y-81352404D01*
X116520880Y-81447642D01*
X116473261Y-81495261D01*
X116378023Y-81542880D01*
X116092309Y-81542880D01*
X115997071Y-81495261D01*
X115949452Y-81447642D01*
X116997071Y-81447642D02*
X117044690Y-81495261D01*
X116997071Y-81542880D01*
X116949452Y-81495261D01*
X116997071Y-81447642D01*
X116997071Y-81542880D01*
X117663738Y-80542880D02*
X117758976Y-80542880D01*
X117854214Y-80590500D01*
X117901833Y-80638119D01*
X117949452Y-80733357D01*
X117997071Y-80923833D01*
X117997071Y-81161928D01*
X117949452Y-81352404D01*
X117901833Y-81447642D01*
X117854214Y-81495261D01*
X117758976Y-81542880D01*
X117663738Y-81542880D01*
X117568499Y-81495261D01*
X117520880Y-81447642D01*
X117473261Y-81352404D01*
X117425642Y-81161928D01*
X117425642Y-80923833D01*
X117473261Y-80733357D01*
X117520880Y-80638119D01*
X117568499Y-80590500D01*
X117663738Y-80542880D01*
X101735166Y-83192880D02*
X101735166Y-82192880D01*
X102068500Y-82907166D01*
X102401833Y-82192880D01*
X102401833Y-83192880D01*
X102830404Y-83145261D02*
X102973261Y-83192880D01*
X103211357Y-83192880D01*
X103306595Y-83145261D01*
X103354214Y-83097642D01*
X103401833Y-83002404D01*
X103401833Y-82907166D01*
X103354214Y-82811928D01*
X103306595Y-82764309D01*
X103211357Y-82716690D01*
X103020880Y-82669071D01*
X102925642Y-82621452D01*
X102878023Y-82573833D01*
X102830404Y-82478595D01*
X102830404Y-82383357D01*
X102878023Y-82288119D01*
X102925642Y-82240500D01*
X103020880Y-82192880D01*
X103258976Y-82192880D01*
X103401833Y-82240500D01*
X104020880Y-82192880D02*
X104211357Y-82192880D01*
X104306595Y-82240500D01*
X104401833Y-82335738D01*
X104449452Y-82526214D01*
X104449452Y-82859547D01*
X104401833Y-83050023D01*
X104306595Y-83145261D01*
X104211357Y-83192880D01*
X104020880Y-83192880D01*
X103925642Y-83145261D01*
X103830404Y-83050023D01*
X103782785Y-82859547D01*
X103782785Y-82526214D01*
X103830404Y-82335738D01*
X103925642Y-82240500D01*
X104020880Y-82192880D01*
X104878023Y-83192880D02*
X104878023Y-82192880D01*
X105258976Y-82192880D01*
X105354214Y-82240500D01*
X105401833Y-82288119D01*
X105449452Y-82383357D01*
X105449452Y-82526214D01*
X105401833Y-82621452D01*
X105354214Y-82669071D01*
X105258976Y-82716690D01*
X104878023Y-82716690D01*
X93044690Y-84842880D02*
X93044690Y-83842880D01*
X93378023Y-84557166D01*
X93711357Y-83842880D01*
X93711357Y-84842880D01*
X94187547Y-84842880D02*
X94187547Y-84176214D01*
X94187547Y-83842880D02*
X94139928Y-83890500D01*
X94187547Y-83938119D01*
X94235166Y-83890500D01*
X94187547Y-83842880D01*
X94187547Y-83938119D01*
X95092309Y-84795261D02*
X94997071Y-84842880D01*
X94806595Y-84842880D01*
X94711357Y-84795261D01*
X94663738Y-84747642D01*
X94616119Y-84652404D01*
X94616119Y-84366690D01*
X94663738Y-84271452D01*
X94711357Y-84223833D01*
X94806595Y-84176214D01*
X94997071Y-84176214D01*
X95092309Y-84223833D01*
X95520880Y-84842880D02*
X95520880Y-83842880D01*
X95949452Y-84842880D02*
X95949452Y-84319071D01*
X95901833Y-84223833D01*
X95806595Y-84176214D01*
X95663738Y-84176214D01*
X95568500Y-84223833D01*
X95520880Y-84271452D01*
X96854214Y-84842880D02*
X96854214Y-84319071D01*
X96806595Y-84223833D01*
X96711357Y-84176214D01*
X96520880Y-84176214D01*
X96425642Y-84223833D01*
X96854214Y-84795261D02*
X96758976Y-84842880D01*
X96520880Y-84842880D01*
X96425642Y-84795261D01*
X96378023Y-84700023D01*
X96378023Y-84604785D01*
X96425642Y-84509547D01*
X96520880Y-84461928D01*
X96758976Y-84461928D01*
X96854214Y-84414309D01*
X97711357Y-84795261D02*
X97616119Y-84842880D01*
X97425642Y-84842880D01*
X97330404Y-84795261D01*
X97282785Y-84700023D01*
X97282785Y-84319071D01*
X97330404Y-84223833D01*
X97425642Y-84176214D01*
X97616119Y-84176214D01*
X97711357Y-84223833D01*
X97758976Y-84319071D01*
X97758976Y-84414309D01*
X97282785Y-84509547D01*
X98330404Y-84842880D02*
X98235166Y-84795261D01*
X98187547Y-84700023D01*
X98187547Y-83842880D01*
X99425642Y-84795261D02*
X99568500Y-84842880D01*
X99806595Y-84842880D01*
X99901833Y-84795261D01*
X99949452Y-84747642D01*
X99997071Y-84652404D01*
X99997071Y-84557166D01*
X99949452Y-84461928D01*
X99901833Y-84414309D01*
X99806595Y-84366690D01*
X99616119Y-84319071D01*
X99520880Y-84271452D01*
X99473261Y-84223833D01*
X99425642Y-84128595D01*
X99425642Y-84033357D01*
X99473261Y-83938119D01*
X99520880Y-83890500D01*
X99616119Y-83842880D01*
X99854214Y-83842880D01*
X99997071Y-83890500D01*
X100854214Y-84795261D02*
X100758976Y-84842880D01*
X100568500Y-84842880D01*
X100473261Y-84795261D01*
X100425642Y-84747642D01*
X100378023Y-84652404D01*
X100378023Y-84366690D01*
X100425642Y-84271452D01*
X100473261Y-84223833D01*
X100568500Y-84176214D01*
X100758976Y-84176214D01*
X100854214Y-84223833D01*
X101282785Y-84842880D02*
X101282785Y-83842880D01*
X101711357Y-84842880D02*
X101711357Y-84319071D01*
X101663738Y-84223833D01*
X101568500Y-84176214D01*
X101425642Y-84176214D01*
X101330404Y-84223833D01*
X101282785Y-84271452D01*
X102568500Y-84795261D02*
X102473261Y-84842880D01*
X102282785Y-84842880D01*
X102187547Y-84795261D01*
X102139928Y-84700023D01*
X102139928Y-84319071D01*
X102187547Y-84223833D01*
X102282785Y-84176214D01*
X102473261Y-84176214D01*
X102568500Y-84223833D01*
X102616119Y-84319071D01*
X102616119Y-84414309D01*
X102139928Y-84509547D01*
X103044690Y-84176214D02*
X103044690Y-84842880D01*
X103044690Y-84271452D02*
X103092309Y-84223833D01*
X103187547Y-84176214D01*
X103330404Y-84176214D01*
X103425642Y-84223833D01*
X103473261Y-84319071D01*
X103473261Y-84842880D01*
X103949452Y-84842880D02*
X103949452Y-83842880D01*
X104044690Y-84461928D02*
X104330404Y-84842880D01*
X104330404Y-84176214D02*
X103949452Y-84557166D01*
X104806595Y-84795261D02*
X104806595Y-84842880D01*
X104758976Y-84938119D01*
X104711357Y-84985738D01*
X105949452Y-83938119D02*
X105997071Y-83890500D01*
X106092309Y-83842880D01*
X106330404Y-83842880D01*
X106425642Y-83890500D01*
X106473261Y-83938119D01*
X106520880Y-84033357D01*
X106520880Y-84128595D01*
X106473261Y-84271452D01*
X105901833Y-84842880D01*
X106520880Y-84842880D01*
X107139928Y-83842880D02*
X107235166Y-83842880D01*
X107330404Y-83890500D01*
X107378023Y-83938119D01*
X107425642Y-84033357D01*
X107473261Y-84223833D01*
X107473261Y-84461928D01*
X107425642Y-84652404D01*
X107378023Y-84747642D01*
X107330404Y-84795261D01*
X107235166Y-84842880D01*
X107139928Y-84842880D01*
X107044690Y-84795261D01*
X106997071Y-84747642D01*
X106949452Y-84652404D01*
X106901833Y-84461928D01*
X106901833Y-84223833D01*
X106949452Y-84033357D01*
X106997071Y-83938119D01*
X107044690Y-83890500D01*
X107139928Y-83842880D01*
X107854214Y-83938119D02*
X107901833Y-83890500D01*
X107997071Y-83842880D01*
X108235166Y-83842880D01*
X108330404Y-83890500D01*
X108378023Y-83938119D01*
X108425642Y-84033357D01*
X108425642Y-84128595D01*
X108378023Y-84271452D01*
X107806595Y-84842880D01*
X108425642Y-84842880D01*
X109378023Y-84842880D02*
X108806595Y-84842880D01*
X109092309Y-84842880D02*
X109092309Y-83842880D01*
X108997071Y-83985738D01*
X108901833Y-84080976D01*
X108806595Y-84128595D01*
X109806595Y-84747642D02*
X109854214Y-84795261D01*
X109806595Y-84842880D01*
X109758976Y-84795261D01*
X109806595Y-84747642D01*
X109806595Y-84842880D01*
X110806595Y-84842880D02*
X110235166Y-84842880D01*
X110520880Y-84842880D02*
X110520880Y-83842880D01*
X110425642Y-83985738D01*
X110330404Y-84080976D01*
X110235166Y-84128595D01*
X111425642Y-83842880D02*
X111520880Y-83842880D01*
X111616119Y-83890500D01*
X111663738Y-83938119D01*
X111711357Y-84033357D01*
X111758976Y-84223833D01*
X111758976Y-84461928D01*
X111711357Y-84652404D01*
X111663738Y-84747642D01*
X111616119Y-84795261D01*
X111520880Y-84842880D01*
X111425642Y-84842880D01*
X111330404Y-84795261D01*
X111282785Y-84747642D01*
X111235166Y-84652404D01*
X111187547Y-84461928D01*
X111187547Y-84223833D01*
X111235166Y-84033357D01*
X111282785Y-83938119D01*
X111330404Y-83890500D01*
X111425642Y-83842880D01*
X112187547Y-84747642D02*
X112235166Y-84795261D01*
X112187547Y-84842880D01*
X112139928Y-84795261D01*
X112187547Y-84747642D01*
X112187547Y-84842880D01*
X113187547Y-84842880D02*
X112616119Y-84842880D01*
X112901833Y-84842880D02*
X112901833Y-83842880D01*
X112806595Y-83985738D01*
X112711357Y-84080976D01*
X112616119Y-84128595D01*
X113520880Y-83842880D02*
X114187547Y-83842880D01*
X113758976Y-84842880D01*
X129730404Y-29329000D02*
X129825642Y-29376619D01*
X129968500Y-29376619D01*
X130111357Y-29329000D01*
X130206595Y-29233761D01*
X130254214Y-29138523D01*
X130301833Y-28948047D01*
X130301833Y-28805190D01*
X130254214Y-28614714D01*
X130206595Y-28519476D01*
X130111357Y-28424238D01*
X129968500Y-28376619D01*
X129873261Y-28376619D01*
X129730404Y-28424238D01*
X129682785Y-28471857D01*
X129682785Y-28805190D01*
X129873261Y-28805190D01*
X129254214Y-28376619D02*
X129254214Y-29376619D01*
X128682785Y-28376619D01*
X128682785Y-29376619D01*
X128206595Y-28376619D02*
X128206595Y-29376619D01*
X127968500Y-29376619D01*
X127825642Y-29329000D01*
X127730404Y-29233761D01*
X127682785Y-29138523D01*
X127635166Y-28948047D01*
X127635166Y-28805190D01*
X127682785Y-28614714D01*
X127730404Y-28519476D01*
X127825642Y-28424238D01*
X127968500Y-28376619D01*
X128206595Y-28376619D01*
X121300714Y-28694071D02*
X120538809Y-28694071D01*
X120919761Y-28313119D02*
X120919761Y-29075023D01*
X119586428Y-29313119D02*
X120062619Y-29313119D01*
X120110238Y-28836928D01*
X120062619Y-28884547D01*
X119967380Y-28932166D01*
X119729285Y-28932166D01*
X119634047Y-28884547D01*
X119586428Y-28836928D01*
X119538809Y-28741690D01*
X119538809Y-28503595D01*
X119586428Y-28408357D01*
X119634047Y-28360738D01*
X119729285Y-28313119D01*
X119967380Y-28313119D01*
X120062619Y-28360738D01*
X120110238Y-28408357D01*
X119253095Y-29313119D02*
X118919761Y-28313119D01*
X118586428Y-29313119D01*
X118411785Y-88145928D02*
X119173690Y-88145928D01*
X120126071Y-87526880D02*
X119649880Y-87526880D01*
X119602261Y-88003071D01*
X119649880Y-87955452D01*
X119745119Y-87907833D01*
X119983214Y-87907833D01*
X120078452Y-87955452D01*
X120126071Y-88003071D01*
X120173690Y-88098309D01*
X120173690Y-88336404D01*
X120126071Y-88431642D01*
X120078452Y-88479261D01*
X119983214Y-88526880D01*
X119745119Y-88526880D01*
X119649880Y-88479261D01*
X119602261Y-88431642D01*
X120459404Y-87526880D02*
X120792738Y-88526880D01*
X121126071Y-87526880D01*
X128270095Y-87638000D02*
X128174857Y-87590380D01*
X128032000Y-87590380D01*
X127889142Y-87638000D01*
X127793904Y-87733238D01*
X127746285Y-87828476D01*
X127698666Y-88018952D01*
X127698666Y-88161809D01*
X127746285Y-88352285D01*
X127793904Y-88447523D01*
X127889142Y-88542761D01*
X128032000Y-88590380D01*
X128127238Y-88590380D01*
X128270095Y-88542761D01*
X128317714Y-88495142D01*
X128317714Y-88161809D01*
X128127238Y-88161809D01*
X128746285Y-88590380D02*
X128746285Y-87590380D01*
X129317714Y-88590380D01*
X129317714Y-87590380D01*
X129793904Y-88590380D02*
X129793904Y-87590380D01*
X130032000Y-87590380D01*
X130174857Y-87638000D01*
X130270095Y-87733238D01*
X130317714Y-87828476D01*
X130365333Y-88018952D01*
X130365333Y-88161809D01*
X130317714Y-88352285D01*
X130270095Y-88447523D01*
X130174857Y-88542761D01*
X130032000Y-88590380D01*
X129793904Y-88590380D01*
X94678404Y-29202000D02*
X94773642Y-29249619D01*
X94916500Y-29249619D01*
X95059357Y-29202000D01*
X95154595Y-29106761D01*
X95202214Y-29011523D01*
X95249833Y-28821047D01*
X95249833Y-28678190D01*
X95202214Y-28487714D01*
X95154595Y-28392476D01*
X95059357Y-28297238D01*
X94916500Y-28249619D01*
X94821261Y-28249619D01*
X94678404Y-28297238D01*
X94630785Y-28344857D01*
X94630785Y-28678190D01*
X94821261Y-28678190D01*
X94202214Y-28249619D02*
X94202214Y-29249619D01*
X93630785Y-28249619D01*
X93630785Y-29249619D01*
X93154595Y-28249619D02*
X93154595Y-29249619D01*
X92916500Y-29249619D01*
X92773642Y-29202000D01*
X92678404Y-29106761D01*
X92630785Y-29011523D01*
X92583166Y-28821047D01*
X92583166Y-28678190D01*
X92630785Y-28487714D01*
X92678404Y-28392476D01*
X92773642Y-28297238D01*
X92916500Y-28249619D01*
X93154595Y-28249619D01*
X102179357Y-28249619D02*
X102655547Y-28249619D01*
X102655547Y-29249619D01*
X101846023Y-28773428D02*
X101512690Y-28773428D01*
X101369833Y-28249619D02*
X101846023Y-28249619D01*
X101846023Y-29249619D01*
X101369833Y-29249619D01*
X100941261Y-28249619D02*
X100941261Y-29249619D01*
X100703166Y-29249619D01*
X100560309Y-29202000D01*
X100465071Y-29106761D01*
X100417452Y-29011523D01*
X100369833Y-28821047D01*
X100369833Y-28678190D01*
X100417452Y-28487714D01*
X100465071Y-28392476D01*
X100560309Y-28297238D01*
X100703166Y-28249619D01*
X100941261Y-28249619D01*
X92409714Y-37663380D02*
X92409714Y-36996714D01*
X92409714Y-37091952D02*
X92457333Y-37044333D01*
X92552571Y-36996714D01*
X92695428Y-36996714D01*
X92790666Y-37044333D01*
X92838285Y-37139571D01*
X92838285Y-37663380D01*
X92838285Y-37139571D02*
X92885904Y-37044333D01*
X92981142Y-36996714D01*
X93124000Y-36996714D01*
X93219238Y-37044333D01*
X93266857Y-37139571D01*
X93266857Y-37663380D01*
X93743047Y-37663380D02*
X93743047Y-36996714D01*
X93743047Y-36663380D02*
X93695428Y-36711000D01*
X93743047Y-36758619D01*
X93790666Y-36711000D01*
X93743047Y-36663380D01*
X93743047Y-36758619D01*
X94647809Y-37615761D02*
X94552571Y-37663380D01*
X94362095Y-37663380D01*
X94266857Y-37615761D01*
X94219238Y-37568142D01*
X94171619Y-37472904D01*
X94171619Y-37187190D01*
X94219238Y-37091952D01*
X94266857Y-37044333D01*
X94362095Y-36996714D01*
X94552571Y-36996714D01*
X94647809Y-37044333D01*
X95076380Y-37663380D02*
X95076380Y-36663380D01*
X95504952Y-37663380D02*
X95504952Y-37139571D01*
X95457333Y-37044333D01*
X95362095Y-36996714D01*
X95219238Y-36996714D01*
X95124000Y-37044333D01*
X95076380Y-37091952D01*
X96409714Y-37663380D02*
X96409714Y-37139571D01*
X96362095Y-37044333D01*
X96266857Y-36996714D01*
X96076380Y-36996714D01*
X95981142Y-37044333D01*
X96409714Y-37615761D02*
X96314476Y-37663380D01*
X96076380Y-37663380D01*
X95981142Y-37615761D01*
X95933523Y-37520523D01*
X95933523Y-37425285D01*
X95981142Y-37330047D01*
X96076380Y-37282428D01*
X96314476Y-37282428D01*
X96409714Y-37234809D01*
X97266857Y-37615761D02*
X97171619Y-37663380D01*
X96981142Y-37663380D01*
X96885904Y-37615761D01*
X96838285Y-37520523D01*
X96838285Y-37139571D01*
X96885904Y-37044333D01*
X96981142Y-36996714D01*
X97171619Y-36996714D01*
X97266857Y-37044333D01*
X97314476Y-37139571D01*
X97314476Y-37234809D01*
X96838285Y-37330047D01*
X97885904Y-37663380D02*
X97790666Y-37615761D01*
X97743047Y-37520523D01*
X97743047Y-36663380D01*
X98219238Y-37615761D02*
X98314476Y-37663380D01*
X98504952Y-37663380D01*
X98600190Y-37615761D01*
X98647809Y-37520523D01*
X98647809Y-37472904D01*
X98600190Y-37377666D01*
X98504952Y-37330047D01*
X98362095Y-37330047D01*
X98266857Y-37282428D01*
X98219238Y-37187190D01*
X98219238Y-37139571D01*
X98266857Y-37044333D01*
X98362095Y-36996714D01*
X98504952Y-36996714D01*
X98600190Y-37044333D01*
X99504952Y-37615761D02*
X99409714Y-37663380D01*
X99219238Y-37663380D01*
X99124000Y-37615761D01*
X99076380Y-37568142D01*
X99028761Y-37472904D01*
X99028761Y-37187190D01*
X99076380Y-37091952D01*
X99124000Y-37044333D01*
X99219238Y-36996714D01*
X99409714Y-36996714D01*
X99504952Y-37044333D01*
X99933523Y-37663380D02*
X99933523Y-36663380D01*
X100362095Y-37663380D02*
X100362095Y-37139571D01*
X100314476Y-37044333D01*
X100219238Y-36996714D01*
X100076380Y-36996714D01*
X99981142Y-37044333D01*
X99933523Y-37091952D01*
X101219238Y-37615761D02*
X101124000Y-37663380D01*
X100933523Y-37663380D01*
X100838285Y-37615761D01*
X100790666Y-37520523D01*
X100790666Y-37139571D01*
X100838285Y-37044333D01*
X100933523Y-36996714D01*
X101124000Y-36996714D01*
X101219238Y-37044333D01*
X101266857Y-37139571D01*
X101266857Y-37234809D01*
X100790666Y-37330047D01*
X101695428Y-36996714D02*
X101695428Y-37663380D01*
X101695428Y-37091952D02*
X101743047Y-37044333D01*
X101838285Y-36996714D01*
X101981142Y-36996714D01*
X102076380Y-37044333D01*
X102124000Y-37139571D01*
X102124000Y-37663380D01*
X102600190Y-37663380D02*
X102600190Y-36663380D01*
X102695428Y-37282428D02*
X102981142Y-37663380D01*
X102981142Y-36996714D02*
X102600190Y-37377666D01*
X103314476Y-36663380D02*
X103981142Y-36663380D01*
X103552571Y-37663380D01*
X104314476Y-36758619D02*
X104362095Y-36711000D01*
X104457333Y-36663380D01*
X104695428Y-36663380D01*
X104790666Y-36711000D01*
X104838285Y-36758619D01*
X104885904Y-36853857D01*
X104885904Y-36949095D01*
X104838285Y-37091952D01*
X104266857Y-37663380D01*
X104885904Y-37663380D01*
X105933523Y-37187190D02*
X105885904Y-37139571D01*
X105790666Y-37091952D01*
X105695428Y-37091952D01*
X105600190Y-37139571D01*
X105552571Y-37187190D01*
X105504952Y-37282428D01*
X105504952Y-37377666D01*
X105552571Y-37472904D01*
X105600190Y-37520523D01*
X105695428Y-37568142D01*
X105790666Y-37568142D01*
X105885904Y-37520523D01*
X105933523Y-37472904D01*
X105933523Y-37091952D02*
X105933523Y-37472904D01*
X105981142Y-37520523D01*
X106028761Y-37520523D01*
X106124000Y-37472904D01*
X106171619Y-37377666D01*
X106171619Y-37139571D01*
X106076380Y-36996714D01*
X105933523Y-36901476D01*
X105743047Y-36853857D01*
X105552571Y-36901476D01*
X105409714Y-36996714D01*
X105314476Y-37139571D01*
X105266857Y-37330047D01*
X105314476Y-37520523D01*
X105409714Y-37663380D01*
X105552571Y-37758619D01*
X105743047Y-37806238D01*
X105933523Y-37758619D01*
X106076380Y-37663380D01*
X107028761Y-36996714D02*
X107028761Y-37806238D01*
X106981142Y-37901476D01*
X106933523Y-37949095D01*
X106838285Y-37996714D01*
X106695428Y-37996714D01*
X106600190Y-37949095D01*
X107028761Y-37615761D02*
X106933523Y-37663380D01*
X106743047Y-37663380D01*
X106647809Y-37615761D01*
X106600190Y-37568142D01*
X106552571Y-37472904D01*
X106552571Y-37187190D01*
X106600190Y-37091952D01*
X106647809Y-37044333D01*
X106743047Y-36996714D01*
X106933523Y-36996714D01*
X107028761Y-37044333D01*
X107504952Y-37663380D02*
X107504952Y-36996714D01*
X107504952Y-37091952D02*
X107552571Y-37044333D01*
X107647809Y-36996714D01*
X107790666Y-36996714D01*
X107885904Y-37044333D01*
X107933523Y-37139571D01*
X107933523Y-37663380D01*
X107933523Y-37139571D02*
X107981142Y-37044333D01*
X108076380Y-36996714D01*
X108219238Y-36996714D01*
X108314476Y-37044333D01*
X108362095Y-37139571D01*
X108362095Y-37663380D01*
X109266857Y-37663380D02*
X109266857Y-37139571D01*
X109219238Y-37044333D01*
X109124000Y-36996714D01*
X108933523Y-36996714D01*
X108838285Y-37044333D01*
X109266857Y-37615761D02*
X109171619Y-37663380D01*
X108933523Y-37663380D01*
X108838285Y-37615761D01*
X108790666Y-37520523D01*
X108790666Y-37425285D01*
X108838285Y-37330047D01*
X108933523Y-37282428D01*
X109171619Y-37282428D01*
X109266857Y-37234809D01*
X109743047Y-37663380D02*
X109743047Y-36996714D01*
X109743047Y-36663380D02*
X109695428Y-36711000D01*
X109743047Y-36758619D01*
X109790666Y-36711000D01*
X109743047Y-36663380D01*
X109743047Y-36758619D01*
X110362095Y-37663380D02*
X110266857Y-37615761D01*
X110219238Y-37520523D01*
X110219238Y-36663380D01*
X110743047Y-37568142D02*
X110790666Y-37615761D01*
X110743047Y-37663380D01*
X110695428Y-37615761D01*
X110743047Y-37568142D01*
X110743047Y-37663380D01*
X111647809Y-37615761D02*
X111552571Y-37663380D01*
X111362095Y-37663380D01*
X111266857Y-37615761D01*
X111219238Y-37568142D01*
X111171619Y-37472904D01*
X111171619Y-37187190D01*
X111219238Y-37091952D01*
X111266857Y-37044333D01*
X111362095Y-36996714D01*
X111552571Y-36996714D01*
X111647809Y-37044333D01*
X112219238Y-37663380D02*
X112124000Y-37615761D01*
X112076380Y-37568142D01*
X112028761Y-37472904D01*
X112028761Y-37187190D01*
X112076380Y-37091952D01*
X112124000Y-37044333D01*
X112219238Y-36996714D01*
X112362095Y-36996714D01*
X112457333Y-37044333D01*
X112504952Y-37091952D01*
X112552571Y-37187190D01*
X112552571Y-37472904D01*
X112504952Y-37568142D01*
X112457333Y-37615761D01*
X112362095Y-37663380D01*
X112219238Y-37663380D01*
X112981142Y-37663380D02*
X112981142Y-36996714D01*
X112981142Y-37091952D02*
X113028761Y-37044333D01*
X113124000Y-36996714D01*
X113266857Y-36996714D01*
X113362095Y-37044333D01*
X113409714Y-37139571D01*
X113409714Y-37663380D01*
X113409714Y-37139571D02*
X113457333Y-37044333D01*
X113552571Y-36996714D01*
X113695428Y-36996714D01*
X113790666Y-37044333D01*
X113838285Y-37139571D01*
X113838285Y-37663380D01*
X84066000Y-57467595D02*
X84113619Y-57372357D01*
X84113619Y-57229500D01*
X84066000Y-57086642D01*
X83970761Y-56991404D01*
X83875523Y-56943785D01*
X83685047Y-56896166D01*
X83542190Y-56896166D01*
X83351714Y-56943785D01*
X83256476Y-56991404D01*
X83161238Y-57086642D01*
X83113619Y-57229500D01*
X83113619Y-57324738D01*
X83161238Y-57467595D01*
X83208857Y-57515214D01*
X83542190Y-57515214D01*
X83542190Y-57324738D01*
X83113619Y-57943785D02*
X84113619Y-57943785D01*
X83113619Y-58515214D01*
X84113619Y-58515214D01*
X83113619Y-58991404D02*
X84113619Y-58991404D01*
X84113619Y-59229500D01*
X84066000Y-59372357D01*
X83970761Y-59467595D01*
X83875523Y-59515214D01*
X83685047Y-59562833D01*
X83542190Y-59562833D01*
X83351714Y-59515214D01*
X83256476Y-59467595D01*
X83161238Y-59372357D01*
X83113619Y-59229500D01*
X83113619Y-58991404D01*
X80960933Y-66521104D02*
X80960933Y-66997295D01*
X80675219Y-66425866D02*
X81675219Y-66759200D01*
X80675219Y-67092533D01*
X80770457Y-67997295D02*
X80722838Y-67949676D01*
X80675219Y-67806819D01*
X80675219Y-67711580D01*
X80722838Y-67568723D01*
X80818076Y-67473485D01*
X80913314Y-67425866D01*
X81103790Y-67378247D01*
X81246647Y-67378247D01*
X81437123Y-67425866D01*
X81532361Y-67473485D01*
X81627600Y-67568723D01*
X81675219Y-67711580D01*
X81675219Y-67806819D01*
X81627600Y-67949676D01*
X81579980Y-67997295D01*
X80859333Y-48995104D02*
X80859333Y-49471295D01*
X80573619Y-48899866D02*
X81573619Y-49233200D01*
X80573619Y-49566533D01*
X80668857Y-50471295D02*
X80621238Y-50423676D01*
X80573619Y-50280819D01*
X80573619Y-50185580D01*
X80621238Y-50042723D01*
X80716476Y-49947485D01*
X80811714Y-49899866D01*
X81002190Y-49852247D01*
X81145047Y-49852247D01*
X81335523Y-49899866D01*
X81430761Y-49947485D01*
X81526000Y-50042723D01*
X81573619Y-50185580D01*
X81573619Y-50280819D01*
X81526000Y-50423676D01*
X81478380Y-50471295D01*
X145549928Y-70786404D02*
X145549928Y-70024500D01*
X145930880Y-69024500D02*
X145930880Y-69595928D01*
X145930880Y-69310214D02*
X144930880Y-69310214D01*
X145073738Y-69405452D01*
X145168976Y-69500690D01*
X145216595Y-69595928D01*
X144930880Y-68119738D02*
X144930880Y-68595928D01*
X145407071Y-68643547D01*
X145359452Y-68595928D01*
X145311833Y-68500690D01*
X145311833Y-68262595D01*
X145359452Y-68167357D01*
X145407071Y-68119738D01*
X145502309Y-68072119D01*
X145740404Y-68072119D01*
X145835642Y-68119738D01*
X145883261Y-68167357D01*
X145930880Y-68262595D01*
X145930880Y-68500690D01*
X145883261Y-68595928D01*
X145835642Y-68643547D01*
X144930880Y-67786404D02*
X145930880Y-67453071D01*
X144930880Y-67119738D01*
X148344000Y-58800904D02*
X148296380Y-58896142D01*
X148296380Y-59039000D01*
X148344000Y-59181857D01*
X148439238Y-59277095D01*
X148534476Y-59324714D01*
X148724952Y-59372333D01*
X148867809Y-59372333D01*
X149058285Y-59324714D01*
X149153523Y-59277095D01*
X149248761Y-59181857D01*
X149296380Y-59039000D01*
X149296380Y-58943761D01*
X149248761Y-58800904D01*
X149201142Y-58753285D01*
X148867809Y-58753285D01*
X148867809Y-58943761D01*
X149296380Y-58324714D02*
X148296380Y-58324714D01*
X149296380Y-57753285D01*
X148296380Y-57753285D01*
X149296380Y-57277095D02*
X148296380Y-57277095D01*
X148296380Y-57039000D01*
X148344000Y-56896142D01*
X148439238Y-56800904D01*
X148534476Y-56753285D01*
X148724952Y-56705666D01*
X148867809Y-56705666D01*
X149058285Y-56753285D01*
X149153523Y-56800904D01*
X149248761Y-56896142D01*
X149296380Y-57039000D01*
X149296380Y-57277095D01*
X145549928Y-49577404D02*
X145549928Y-48815500D01*
X145930880Y-49196452D02*
X145168976Y-49196452D01*
X145930880Y-47815500D02*
X145930880Y-48386928D01*
X145930880Y-48101214D02*
X144930880Y-48101214D01*
X145073738Y-48196452D01*
X145168976Y-48291690D01*
X145216595Y-48386928D01*
X144930880Y-46910738D02*
X144930880Y-47386928D01*
X145407071Y-47434547D01*
X145359452Y-47386928D01*
X145311833Y-47291690D01*
X145311833Y-47053595D01*
X145359452Y-46958357D01*
X145407071Y-46910738D01*
X145502309Y-46863119D01*
X145740404Y-46863119D01*
X145835642Y-46910738D01*
X145883261Y-46958357D01*
X145930880Y-47053595D01*
X145930880Y-47291690D01*
X145883261Y-47386928D01*
X145835642Y-47434547D01*
X144930880Y-46577404D02*
X145930880Y-46244071D01*
X144930880Y-45910738D01*
D11*
X129784500Y-54913500D02*
X134169500Y-54913500D01*
X134169500Y-54913500D02*
X134169500Y-51893500D01*
X134169500Y-51893500D02*
X129784500Y-51893500D01*
X140535000Y-61544854D02*
X139535000Y-61544854D01*
X140035000Y-61044854D02*
X140035000Y-62044854D01*
X137759000Y-71605500D02*
X136561000Y-71605500D01*
X138022000Y-71565500D02*
X136298000Y-71565500D01*
X138222000Y-71525500D02*
X136098000Y-71525500D01*
X138390000Y-71485500D02*
X135930000Y-71485500D01*
X138538000Y-71445500D02*
X135782000Y-71445500D01*
X138670000Y-71405500D02*
X135650000Y-71405500D01*
X138790000Y-71365500D02*
X135530000Y-71365500D01*
X138902000Y-71325500D02*
X135418000Y-71325500D01*
X139006000Y-71285500D02*
X135314000Y-71285500D01*
X139104000Y-71245500D02*
X135216000Y-71245500D01*
X139197000Y-71205500D02*
X135123000Y-71205500D01*
X139285000Y-71165500D02*
X135035000Y-71165500D01*
X139369000Y-71125500D02*
X134951000Y-71125500D01*
X139449000Y-71085500D02*
X134871000Y-71085500D01*
X139525000Y-71045500D02*
X134795000Y-71045500D01*
X139599000Y-71005500D02*
X134721000Y-71005500D01*
X139670000Y-70965500D02*
X134650000Y-70965500D01*
X139739000Y-70925500D02*
X134581000Y-70925500D01*
X139805000Y-70885500D02*
X134515000Y-70885500D01*
X139869000Y-70845500D02*
X134451000Y-70845500D01*
X139930000Y-70805500D02*
X134390000Y-70805500D01*
X139990000Y-70765500D02*
X134330000Y-70765500D01*
X140049000Y-70725500D02*
X134271000Y-70725500D01*
X140105000Y-70685500D02*
X134215000Y-70685500D01*
X140160000Y-70645500D02*
X134160000Y-70645500D01*
X140214000Y-70605500D02*
X134106000Y-70605500D01*
X140266000Y-70565500D02*
X134054000Y-70565500D01*
X140316000Y-70525500D02*
X134004000Y-70525500D01*
X140366000Y-70485500D02*
X133954000Y-70485500D01*
X140414000Y-70445500D02*
X133906000Y-70445500D01*
X140461000Y-70405500D02*
X133859000Y-70405500D01*
X140507000Y-70365500D02*
X133813000Y-70365500D01*
X140552000Y-70325500D02*
X133768000Y-70325500D01*
X140596000Y-70285500D02*
X133724000Y-70285500D01*
X135919000Y-70245500D02*
X133682000Y-70245500D01*
X140638000Y-70245500D02*
X138401000Y-70245500D01*
X135919000Y-70205500D02*
X133640000Y-70205500D01*
X140680000Y-70205500D02*
X138401000Y-70205500D01*
X135919000Y-70165500D02*
X133599000Y-70165500D01*
X140721000Y-70165500D02*
X138401000Y-70165500D01*
X135919000Y-70125500D02*
X133559000Y-70125500D01*
X140761000Y-70125500D02*
X138401000Y-70125500D01*
X135919000Y-70085500D02*
X133520000Y-70085500D01*
X140800000Y-70085500D02*
X138401000Y-70085500D01*
X135919000Y-70045500D02*
X133481000Y-70045500D01*
X140839000Y-70045500D02*
X138401000Y-70045500D01*
X135919000Y-70005500D02*
X133444000Y-70005500D01*
X140876000Y-70005500D02*
X138401000Y-70005500D01*
X135919000Y-69965500D02*
X133407000Y-69965500D01*
X140913000Y-69965500D02*
X138401000Y-69965500D01*
X135919000Y-69925500D02*
X133371000Y-69925500D01*
X140949000Y-69925500D02*
X138401000Y-69925500D01*
X135919000Y-69885500D02*
X133336000Y-69885500D01*
X140984000Y-69885500D02*
X138401000Y-69885500D01*
X135919000Y-69845500D02*
X133302000Y-69845500D01*
X141018000Y-69845500D02*
X138401000Y-69845500D01*
X135919000Y-69805500D02*
X133268000Y-69805500D01*
X141052000Y-69805500D02*
X138401000Y-69805500D01*
X135919000Y-69765500D02*
X133235000Y-69765500D01*
X141085000Y-69765500D02*
X138401000Y-69765500D01*
X135919000Y-69725500D02*
X133203000Y-69725500D01*
X141117000Y-69725500D02*
X138401000Y-69725500D01*
X135919000Y-69685500D02*
X133171000Y-69685500D01*
X141149000Y-69685500D02*
X138401000Y-69685500D01*
X135919000Y-69645500D02*
X133140000Y-69645500D01*
X141180000Y-69645500D02*
X138401000Y-69645500D01*
X135919000Y-69605500D02*
X133110000Y-69605500D01*
X141210000Y-69605500D02*
X138401000Y-69605500D01*
X135919000Y-69565500D02*
X133080000Y-69565500D01*
X141240000Y-69565500D02*
X138401000Y-69565500D01*
X135919000Y-69525500D02*
X133050000Y-69525500D01*
X141270000Y-69525500D02*
X138401000Y-69525500D01*
X135919000Y-69485500D02*
X133022000Y-69485500D01*
X141298000Y-69485500D02*
X138401000Y-69485500D01*
X135919000Y-69445500D02*
X132994000Y-69445500D01*
X141326000Y-69445500D02*
X138401000Y-69445500D01*
X135919000Y-69405500D02*
X132966000Y-69405500D01*
X141354000Y-69405500D02*
X138401000Y-69405500D01*
X135919000Y-69365500D02*
X132939000Y-69365500D01*
X141381000Y-69365500D02*
X138401000Y-69365500D01*
X135919000Y-69325500D02*
X132913000Y-69325500D01*
X141407000Y-69325500D02*
X138401000Y-69325500D01*
X135919000Y-69285500D02*
X132887000Y-69285500D01*
X141433000Y-69285500D02*
X138401000Y-69285500D01*
X135919000Y-69245500D02*
X132862000Y-69245500D01*
X141458000Y-69245500D02*
X138401000Y-69245500D01*
X135919000Y-69205500D02*
X132837000Y-69205500D01*
X141483000Y-69205500D02*
X138401000Y-69205500D01*
X135919000Y-69165500D02*
X132813000Y-69165500D01*
X141507000Y-69165500D02*
X138401000Y-69165500D01*
X135919000Y-69125500D02*
X132789000Y-69125500D01*
X141531000Y-69125500D02*
X138401000Y-69125500D01*
X135919000Y-69085500D02*
X132765000Y-69085500D01*
X141555000Y-69085500D02*
X138401000Y-69085500D01*
X135919000Y-69045500D02*
X132743000Y-69045500D01*
X141577000Y-69045500D02*
X138401000Y-69045500D01*
X135919000Y-69005500D02*
X132720000Y-69005500D01*
X141600000Y-69005500D02*
X138401000Y-69005500D01*
X135919000Y-68965500D02*
X132698000Y-68965500D01*
X141622000Y-68965500D02*
X138401000Y-68965500D01*
X135919000Y-68925500D02*
X132677000Y-68925500D01*
X141643000Y-68925500D02*
X138401000Y-68925500D01*
X135919000Y-68885500D02*
X132656000Y-68885500D01*
X141664000Y-68885500D02*
X138401000Y-68885500D01*
X135919000Y-68845500D02*
X132635000Y-68845500D01*
X141685000Y-68845500D02*
X138401000Y-68845500D01*
X135919000Y-68805500D02*
X132615000Y-68805500D01*
X141705000Y-68805500D02*
X138401000Y-68805500D01*
X135919000Y-68765500D02*
X132596000Y-68765500D01*
X141724000Y-68765500D02*
X138401000Y-68765500D01*
X135919000Y-68725500D02*
X132576000Y-68725500D01*
X141744000Y-68725500D02*
X138401000Y-68725500D01*
X135919000Y-68685500D02*
X132557000Y-68685500D01*
X141763000Y-68685500D02*
X138401000Y-68685500D01*
X135919000Y-68645500D02*
X132539000Y-68645500D01*
X141781000Y-68645500D02*
X138401000Y-68645500D01*
X135919000Y-68605500D02*
X132521000Y-68605500D01*
X141799000Y-68605500D02*
X138401000Y-68605500D01*
X135919000Y-68565500D02*
X132503000Y-68565500D01*
X141817000Y-68565500D02*
X138401000Y-68565500D01*
X135919000Y-68525500D02*
X132486000Y-68525500D01*
X141834000Y-68525500D02*
X138401000Y-68525500D01*
X135919000Y-68485500D02*
X132470000Y-68485500D01*
X141850000Y-68485500D02*
X138401000Y-68485500D01*
X135919000Y-68445500D02*
X132453000Y-68445500D01*
X141867000Y-68445500D02*
X138401000Y-68445500D01*
X135919000Y-68405500D02*
X132437000Y-68405500D01*
X141883000Y-68405500D02*
X138401000Y-68405500D01*
X135919000Y-68365500D02*
X132422000Y-68365500D01*
X141898000Y-68365500D02*
X138401000Y-68365500D01*
X135919000Y-68325500D02*
X132406000Y-68325500D01*
X141914000Y-68325500D02*
X138401000Y-68325500D01*
X135919000Y-68285500D02*
X132392000Y-68285500D01*
X141928000Y-68285500D02*
X138401000Y-68285500D01*
X135919000Y-68245500D02*
X132377000Y-68245500D01*
X141943000Y-68245500D02*
X138401000Y-68245500D01*
X135919000Y-68205500D02*
X132363000Y-68205500D01*
X141957000Y-68205500D02*
X138401000Y-68205500D01*
X135919000Y-68165500D02*
X132349000Y-68165500D01*
X141971000Y-68165500D02*
X138401000Y-68165500D01*
X135919000Y-68125500D02*
X132336000Y-68125500D01*
X141984000Y-68125500D02*
X138401000Y-68125500D01*
X135919000Y-68085500D02*
X132323000Y-68085500D01*
X141997000Y-68085500D02*
X138401000Y-68085500D01*
X135919000Y-68045500D02*
X132310000Y-68045500D01*
X142010000Y-68045500D02*
X138401000Y-68045500D01*
X135919000Y-68005500D02*
X132298000Y-68005500D01*
X142022000Y-68005500D02*
X138401000Y-68005500D01*
X135919000Y-67965500D02*
X132286000Y-67965500D01*
X142034000Y-67965500D02*
X138401000Y-67965500D01*
X135919000Y-67925500D02*
X132275000Y-67925500D01*
X142045000Y-67925500D02*
X138401000Y-67925500D01*
X135919000Y-67885500D02*
X132263000Y-67885500D01*
X142057000Y-67885500D02*
X138401000Y-67885500D01*
X135919000Y-67845500D02*
X132253000Y-67845500D01*
X142067000Y-67845500D02*
X138401000Y-67845500D01*
X135919000Y-67805500D02*
X132242000Y-67805500D01*
X142078000Y-67805500D02*
X138401000Y-67805500D01*
X142088000Y-67765500D02*
X132232000Y-67765500D01*
X142098000Y-67725500D02*
X132222000Y-67725500D01*
X142107000Y-67685500D02*
X132213000Y-67685500D01*
X142116000Y-67645500D02*
X132204000Y-67645500D01*
X142125000Y-67605500D02*
X132195000Y-67605500D01*
X142134000Y-67565500D02*
X132186000Y-67565500D01*
X142142000Y-67525500D02*
X132178000Y-67525500D01*
X142150000Y-67485500D02*
X132170000Y-67485500D01*
X142157000Y-67445500D02*
X132163000Y-67445500D01*
X142164000Y-67405500D02*
X132156000Y-67405500D01*
X142171000Y-67365500D02*
X132149000Y-67365500D01*
X142178000Y-67325500D02*
X132142000Y-67325500D01*
X142184000Y-67285500D02*
X132136000Y-67285500D01*
X142190000Y-67245500D02*
X132130000Y-67245500D01*
X142195000Y-67204500D02*
X132125000Y-67204500D01*
X142200000Y-67164500D02*
X132120000Y-67164500D01*
X142205000Y-67124500D02*
X132115000Y-67124500D01*
X142210000Y-67084500D02*
X132110000Y-67084500D01*
X142214000Y-67044500D02*
X132106000Y-67044500D01*
X142218000Y-67004500D02*
X132102000Y-67004500D01*
X142222000Y-66964500D02*
X132098000Y-66964500D01*
X142225000Y-66924500D02*
X132095000Y-66924500D01*
X142228000Y-66884500D02*
X132092000Y-66884500D01*
X142230000Y-66844500D02*
X132090000Y-66844500D01*
X142233000Y-66804500D02*
X132087000Y-66804500D01*
X142235000Y-66764500D02*
X132085000Y-66764500D01*
X142237000Y-66724500D02*
X132083000Y-66724500D01*
X142238000Y-66684500D02*
X132082000Y-66684500D01*
X142239000Y-66644500D02*
X132081000Y-66644500D01*
X142240000Y-66604500D02*
X132080000Y-66604500D01*
X142240000Y-66564500D02*
X132080000Y-66564500D01*
X142240000Y-66524500D02*
X132080000Y-66524500D01*
X142280000Y-66524500D02*
G75*
G03*
X142280000Y-66524500I-5120000J0D01*
G01*
X134420000Y-50295146D02*
X135420000Y-50295146D01*
X134920000Y-50795146D02*
X134920000Y-49795146D01*
X137196000Y-40234500D02*
X138394000Y-40234500D01*
X136933000Y-40274500D02*
X138657000Y-40274500D01*
X136733000Y-40314500D02*
X138857000Y-40314500D01*
X136565000Y-40354500D02*
X139025000Y-40354500D01*
X136417000Y-40394500D02*
X139173000Y-40394500D01*
X136285000Y-40434500D02*
X139305000Y-40434500D01*
X136165000Y-40474500D02*
X139425000Y-40474500D01*
X136053000Y-40514500D02*
X139537000Y-40514500D01*
X135949000Y-40554500D02*
X139641000Y-40554500D01*
X135851000Y-40594500D02*
X139739000Y-40594500D01*
X135758000Y-40634500D02*
X139832000Y-40634500D01*
X135670000Y-40674500D02*
X139920000Y-40674500D01*
X135586000Y-40714500D02*
X140004000Y-40714500D01*
X135506000Y-40754500D02*
X140084000Y-40754500D01*
X135430000Y-40794500D02*
X140160000Y-40794500D01*
X135356000Y-40834500D02*
X140234000Y-40834500D01*
X135285000Y-40874500D02*
X140305000Y-40874500D01*
X135216000Y-40914500D02*
X140374000Y-40914500D01*
X135150000Y-40954500D02*
X140440000Y-40954500D01*
X135086000Y-40994500D02*
X140504000Y-40994500D01*
X135025000Y-41034500D02*
X140565000Y-41034500D01*
X134965000Y-41074500D02*
X140625000Y-41074500D01*
X134906000Y-41114500D02*
X140684000Y-41114500D01*
X134850000Y-41154500D02*
X140740000Y-41154500D01*
X134795000Y-41194500D02*
X140795000Y-41194500D01*
X134741000Y-41234500D02*
X140849000Y-41234500D01*
X134689000Y-41274500D02*
X140901000Y-41274500D01*
X134639000Y-41314500D02*
X140951000Y-41314500D01*
X134589000Y-41354500D02*
X141001000Y-41354500D01*
X134541000Y-41394500D02*
X141049000Y-41394500D01*
X134494000Y-41434500D02*
X141096000Y-41434500D01*
X134448000Y-41474500D02*
X141142000Y-41474500D01*
X134403000Y-41514500D02*
X141187000Y-41514500D01*
X134359000Y-41554500D02*
X141231000Y-41554500D01*
X139036000Y-41594500D02*
X141273000Y-41594500D01*
X134317000Y-41594500D02*
X136554000Y-41594500D01*
X139036000Y-41634500D02*
X141315000Y-41634500D01*
X134275000Y-41634500D02*
X136554000Y-41634500D01*
X139036000Y-41674500D02*
X141356000Y-41674500D01*
X134234000Y-41674500D02*
X136554000Y-41674500D01*
X139036000Y-41714500D02*
X141396000Y-41714500D01*
X134194000Y-41714500D02*
X136554000Y-41714500D01*
X139036000Y-41754500D02*
X141435000Y-41754500D01*
X134155000Y-41754500D02*
X136554000Y-41754500D01*
X139036000Y-41794500D02*
X141474000Y-41794500D01*
X134116000Y-41794500D02*
X136554000Y-41794500D01*
X139036000Y-41834500D02*
X141511000Y-41834500D01*
X134079000Y-41834500D02*
X136554000Y-41834500D01*
X139036000Y-41874500D02*
X141548000Y-41874500D01*
X134042000Y-41874500D02*
X136554000Y-41874500D01*
X139036000Y-41914500D02*
X141584000Y-41914500D01*
X134006000Y-41914500D02*
X136554000Y-41914500D01*
X139036000Y-41954500D02*
X141619000Y-41954500D01*
X133971000Y-41954500D02*
X136554000Y-41954500D01*
X139036000Y-41994500D02*
X141653000Y-41994500D01*
X133937000Y-41994500D02*
X136554000Y-41994500D01*
X139036000Y-42034500D02*
X141687000Y-42034500D01*
X133903000Y-42034500D02*
X136554000Y-42034500D01*
X139036000Y-42074500D02*
X141720000Y-42074500D01*
X133870000Y-42074500D02*
X136554000Y-42074500D01*
X139036000Y-42114500D02*
X141752000Y-42114500D01*
X133838000Y-42114500D02*
X136554000Y-42114500D01*
X139036000Y-42154500D02*
X141784000Y-42154500D01*
X133806000Y-42154500D02*
X136554000Y-42154500D01*
X139036000Y-42194500D02*
X141815000Y-42194500D01*
X133775000Y-42194500D02*
X136554000Y-42194500D01*
X139036000Y-42234500D02*
X141845000Y-42234500D01*
X133745000Y-42234500D02*
X136554000Y-42234500D01*
X139036000Y-42274500D02*
X141875000Y-42274500D01*
X133715000Y-42274500D02*
X136554000Y-42274500D01*
X139036000Y-42314500D02*
X141905000Y-42314500D01*
X133685000Y-42314500D02*
X136554000Y-42314500D01*
X139036000Y-42354500D02*
X141933000Y-42354500D01*
X133657000Y-42354500D02*
X136554000Y-42354500D01*
X139036000Y-42394500D02*
X141961000Y-42394500D01*
X133629000Y-42394500D02*
X136554000Y-42394500D01*
X139036000Y-42434500D02*
X141989000Y-42434500D01*
X133601000Y-42434500D02*
X136554000Y-42434500D01*
X139036000Y-42474500D02*
X142016000Y-42474500D01*
X133574000Y-42474500D02*
X136554000Y-42474500D01*
X139036000Y-42514500D02*
X142042000Y-42514500D01*
X133548000Y-42514500D02*
X136554000Y-42514500D01*
X139036000Y-42554500D02*
X142068000Y-42554500D01*
X133522000Y-42554500D02*
X136554000Y-42554500D01*
X139036000Y-42594500D02*
X142093000Y-42594500D01*
X133497000Y-42594500D02*
X136554000Y-42594500D01*
X139036000Y-42634500D02*
X142118000Y-42634500D01*
X133472000Y-42634500D02*
X136554000Y-42634500D01*
X139036000Y-42674500D02*
X142142000Y-42674500D01*
X133448000Y-42674500D02*
X136554000Y-42674500D01*
X139036000Y-42714500D02*
X142166000Y-42714500D01*
X133424000Y-42714500D02*
X136554000Y-42714500D01*
X139036000Y-42754500D02*
X142190000Y-42754500D01*
X133400000Y-42754500D02*
X136554000Y-42754500D01*
X139036000Y-42794500D02*
X142212000Y-42794500D01*
X133378000Y-42794500D02*
X136554000Y-42794500D01*
X139036000Y-42834500D02*
X142235000Y-42834500D01*
X133355000Y-42834500D02*
X136554000Y-42834500D01*
X139036000Y-42874500D02*
X142257000Y-42874500D01*
X133333000Y-42874500D02*
X136554000Y-42874500D01*
X139036000Y-42914500D02*
X142278000Y-42914500D01*
X133312000Y-42914500D02*
X136554000Y-42914500D01*
X139036000Y-42954500D02*
X142299000Y-42954500D01*
X133291000Y-42954500D02*
X136554000Y-42954500D01*
X139036000Y-42994500D02*
X142320000Y-42994500D01*
X133270000Y-42994500D02*
X136554000Y-42994500D01*
X139036000Y-43034500D02*
X142340000Y-43034500D01*
X133250000Y-43034500D02*
X136554000Y-43034500D01*
X139036000Y-43074500D02*
X142359000Y-43074500D01*
X133231000Y-43074500D02*
X136554000Y-43074500D01*
X139036000Y-43114500D02*
X142379000Y-43114500D01*
X133211000Y-43114500D02*
X136554000Y-43114500D01*
X139036000Y-43154500D02*
X142398000Y-43154500D01*
X133192000Y-43154500D02*
X136554000Y-43154500D01*
X139036000Y-43194500D02*
X142416000Y-43194500D01*
X133174000Y-43194500D02*
X136554000Y-43194500D01*
X139036000Y-43234500D02*
X142434000Y-43234500D01*
X133156000Y-43234500D02*
X136554000Y-43234500D01*
X139036000Y-43274500D02*
X142452000Y-43274500D01*
X133138000Y-43274500D02*
X136554000Y-43274500D01*
X139036000Y-43314500D02*
X142469000Y-43314500D01*
X133121000Y-43314500D02*
X136554000Y-43314500D01*
X139036000Y-43354500D02*
X142485000Y-43354500D01*
X133105000Y-43354500D02*
X136554000Y-43354500D01*
X139036000Y-43394500D02*
X142502000Y-43394500D01*
X133088000Y-43394500D02*
X136554000Y-43394500D01*
X139036000Y-43434500D02*
X142518000Y-43434500D01*
X133072000Y-43434500D02*
X136554000Y-43434500D01*
X139036000Y-43474500D02*
X142533000Y-43474500D01*
X133057000Y-43474500D02*
X136554000Y-43474500D01*
X139036000Y-43514500D02*
X142549000Y-43514500D01*
X133041000Y-43514500D02*
X136554000Y-43514500D01*
X139036000Y-43554500D02*
X142563000Y-43554500D01*
X133027000Y-43554500D02*
X136554000Y-43554500D01*
X139036000Y-43594500D02*
X142578000Y-43594500D01*
X133012000Y-43594500D02*
X136554000Y-43594500D01*
X139036000Y-43634500D02*
X142592000Y-43634500D01*
X132998000Y-43634500D02*
X136554000Y-43634500D01*
X139036000Y-43674500D02*
X142606000Y-43674500D01*
X132984000Y-43674500D02*
X136554000Y-43674500D01*
X139036000Y-43714500D02*
X142619000Y-43714500D01*
X132971000Y-43714500D02*
X136554000Y-43714500D01*
X139036000Y-43754500D02*
X142632000Y-43754500D01*
X132958000Y-43754500D02*
X136554000Y-43754500D01*
X139036000Y-43794500D02*
X142645000Y-43794500D01*
X132945000Y-43794500D02*
X136554000Y-43794500D01*
X139036000Y-43834500D02*
X142657000Y-43834500D01*
X132933000Y-43834500D02*
X136554000Y-43834500D01*
X139036000Y-43874500D02*
X142669000Y-43874500D01*
X132921000Y-43874500D02*
X136554000Y-43874500D01*
X139036000Y-43914500D02*
X142680000Y-43914500D01*
X132910000Y-43914500D02*
X136554000Y-43914500D01*
X139036000Y-43954500D02*
X142692000Y-43954500D01*
X132898000Y-43954500D02*
X136554000Y-43954500D01*
X139036000Y-43994500D02*
X142702000Y-43994500D01*
X132888000Y-43994500D02*
X136554000Y-43994500D01*
X139036000Y-44034500D02*
X142713000Y-44034500D01*
X132877000Y-44034500D02*
X136554000Y-44034500D01*
X132867000Y-44074500D02*
X142723000Y-44074500D01*
X132857000Y-44114500D02*
X142733000Y-44114500D01*
X132848000Y-44154500D02*
X142742000Y-44154500D01*
X132839000Y-44194500D02*
X142751000Y-44194500D01*
X132830000Y-44234500D02*
X142760000Y-44234500D01*
X132821000Y-44274500D02*
X142769000Y-44274500D01*
X132813000Y-44314500D02*
X142777000Y-44314500D01*
X132805000Y-44354500D02*
X142785000Y-44354500D01*
X132798000Y-44394500D02*
X142792000Y-44394500D01*
X132791000Y-44434500D02*
X142799000Y-44434500D01*
X132784000Y-44474500D02*
X142806000Y-44474500D01*
X132777000Y-44514500D02*
X142813000Y-44514500D01*
X132771000Y-44554500D02*
X142819000Y-44554500D01*
X132765000Y-44594500D02*
X142825000Y-44594500D01*
X132760000Y-44635500D02*
X142830000Y-44635500D01*
X132755000Y-44675500D02*
X142835000Y-44675500D01*
X132750000Y-44715500D02*
X142840000Y-44715500D01*
X132745000Y-44755500D02*
X142845000Y-44755500D01*
X132741000Y-44795500D02*
X142849000Y-44795500D01*
X132737000Y-44835500D02*
X142853000Y-44835500D01*
X132733000Y-44875500D02*
X142857000Y-44875500D01*
X132730000Y-44915500D02*
X142860000Y-44915500D01*
X132727000Y-44955500D02*
X142863000Y-44955500D01*
X132725000Y-44995500D02*
X142865000Y-44995500D01*
X132722000Y-45035500D02*
X142868000Y-45035500D01*
X132720000Y-45075500D02*
X142870000Y-45075500D01*
X132718000Y-45115500D02*
X142872000Y-45115500D01*
X132717000Y-45155500D02*
X142873000Y-45155500D01*
X132716000Y-45195500D02*
X142874000Y-45195500D01*
X132715000Y-45235500D02*
X142875000Y-45235500D01*
X132715000Y-45275500D02*
X142875000Y-45275500D01*
X132715000Y-45315500D02*
X142875000Y-45315500D01*
X142915000Y-45315500D02*
G75*
G03*
X142915000Y-45315500I-5120000J0D01*
G01*
X128832500Y-72759500D02*
X130332500Y-72759500D01*
X128832500Y-72759500D02*
X127332500Y-72759500D01*
X128832500Y-68539500D02*
X130332500Y-68539500D01*
X128832500Y-68539500D02*
X125957500Y-68539500D01*
X129404000Y-51535500D02*
X130904000Y-51535500D01*
X129404000Y-51535500D02*
X127904000Y-51535500D01*
X129404000Y-47315500D02*
X130904000Y-47315500D01*
X129404000Y-47315500D02*
X126529000Y-47315500D01*
X123685752Y-67648500D02*
X122263248Y-67648500D01*
X123685752Y-65828500D02*
X122263248Y-65828500D01*
X122249748Y-50207500D02*
X123672252Y-50207500D01*
X122249748Y-52027500D02*
X123672252Y-52027500D01*
X133348000Y-73229500D02*
X128963000Y-73229500D01*
X128963000Y-73229500D02*
X128963000Y-76249500D01*
X128963000Y-76249500D02*
X133348000Y-76249500D01*
X122315000Y-69153500D02*
X122315000Y-73538500D01*
X122315000Y-73538500D02*
X125335000Y-73538500D01*
X125335000Y-73538500D02*
X125335000Y-69153500D01*
X122378500Y-45202500D02*
X122378500Y-49587500D01*
X122378500Y-49587500D02*
X125398500Y-49587500D01*
X125398500Y-49587500D02*
X125398500Y-45202500D01*
X123685752Y-65108500D02*
X122263248Y-65108500D01*
X123685752Y-63288500D02*
X122263248Y-63288500D01*
X122263248Y-52747500D02*
X123685752Y-52747500D01*
X122263248Y-54567500D02*
X123685752Y-54567500D01*
X121012000Y-85471000D02*
G75*
G03*
X121012000Y-85471000I-1251000J0D01*
G01*
X130283000Y-85471000D02*
G75*
G03*
X130283000Y-85471000I-1251000J0D01*
G01*
X130219500Y-31369000D02*
G75*
G03*
X130219500Y-31369000I-1251000J0D01*
G01*
X121266000Y-31369000D02*
G75*
G03*
X121266000Y-31369000I-1251000J0D01*
G01*
X95167500Y-31305500D02*
G75*
G03*
X95167500Y-31305500I-1251000J0D01*
G01*
X102787500Y-31305500D02*
G75*
G03*
X102787500Y-31305500I-1251000J0D01*
G01*
X149206000Y-69024500D02*
G75*
G03*
X149206000Y-69024500I-1251000J0D01*
G01*
X147364500Y-58039000D02*
G75*
G03*
X147364500Y-58039000I-1251000J0D01*
G01*
X149206000Y-47815500D02*
G75*
G03*
X149206000Y-47815500I-1251000J0D01*
G01*
X127471000Y-62214000D02*
X123571000Y-62214000D01*
X127471000Y-60214000D02*
X123571000Y-60214000D01*
X127471000Y-62214000D02*
X127471000Y-60214000D01*
X132233500Y-62214000D02*
X128333500Y-62214000D01*
X132233500Y-60214000D02*
X128333500Y-60214000D01*
X132233500Y-62214000D02*
X132233500Y-60214000D01*
X127035000Y-55642000D02*
X130935000Y-55642000D01*
X127035000Y-57642000D02*
X130935000Y-57642000D01*
X127035000Y-55642000D02*
X127035000Y-57642000D01*
X122272500Y-55642000D02*
X126172500Y-55642000D01*
X122272500Y-57642000D02*
X126172500Y-57642000D01*
X122272500Y-55642000D02*
X122272500Y-57642000D01*
X125082752Y-84561000D02*
X123660248Y-84561000D01*
X125082752Y-86381000D02*
X123660248Y-86381000D01*
X123773748Y-32279000D02*
X125196252Y-32279000D01*
X123773748Y-30459000D02*
X125196252Y-30459000D01*
X122696248Y-33555000D02*
X123218752Y-33555000D01*
X122696248Y-35025000D02*
X123218752Y-35025000D01*
X115670000Y-63024000D02*
X112930000Y-63024000D01*
X112930000Y-63024000D02*
X112930000Y-69564000D01*
X112930000Y-69564000D02*
X115670000Y-69564000D01*
X115670000Y-69564000D02*
X115670000Y-63024000D01*
X114300000Y-62254000D02*
X114300000Y-63024000D01*
X114300000Y-70334000D02*
X114300000Y-69564000D01*
X115670000Y-48292000D02*
X112930000Y-48292000D01*
X112930000Y-48292000D02*
X112930000Y-54832000D01*
X112930000Y-54832000D02*
X115670000Y-54832000D01*
X115670000Y-54832000D02*
X115670000Y-48292000D01*
X114300000Y-47522000D02*
X114300000Y-48292000D01*
X114300000Y-55602000D02*
X114300000Y-54832000D01*
X84682000Y-45381936D02*
X84682000Y-45836064D01*
X83212000Y-45381936D02*
X83212000Y-45836064D01*
X86688436Y-71528000D02*
X87142564Y-71528000D01*
X86688436Y-72998000D02*
X87142564Y-72998000D01*
X116688500Y-70858500D02*
X116688500Y-62618500D01*
X120178500Y-70858500D02*
X120178500Y-62618500D01*
X116688500Y-70858500D02*
X120178500Y-70858500D01*
X116688500Y-62618500D02*
X120178500Y-62618500D01*
X116688500Y-68338500D02*
X117758500Y-68338500D01*
X119858500Y-68338500D02*
X120178500Y-68338500D01*
X116688500Y-65137500D02*
X118268500Y-65137500D01*
X119348500Y-65137500D02*
X120178500Y-65137500D01*
X120230000Y-46997500D02*
X120230000Y-55237500D01*
X116740000Y-46997500D02*
X116740000Y-55237500D01*
X120230000Y-46997500D02*
X116740000Y-46997500D01*
X120230000Y-55237500D02*
X116740000Y-55237500D01*
X120230000Y-49517500D02*
X119160000Y-49517500D01*
X117060000Y-49517500D02*
X116740000Y-49517500D01*
X120230000Y-52718500D02*
X118650000Y-52718500D01*
X117570000Y-52718500D02*
X116740000Y-52718500D01*
X122708500Y-62214000D02*
X122708500Y-60214000D01*
X122708500Y-60214000D02*
X118808500Y-60214000D01*
X122708500Y-62214000D02*
X118808500Y-62214000D01*
X117510000Y-55642000D02*
X117510000Y-57642000D01*
X117510000Y-57642000D02*
X121410000Y-57642000D01*
X117510000Y-55642000D02*
X121410000Y-55642000D01*
X87150752Y-45375500D02*
X86628248Y-45375500D01*
X87150752Y-43905500D02*
X86628248Y-43905500D01*
X84682000Y-70943748D02*
X84682000Y-71466252D01*
X83212000Y-70943748D02*
X83212000Y-71466252D01*
X83212000Y-53876752D02*
X83212000Y-53354248D01*
X84682000Y-53876752D02*
X84682000Y-53354248D01*
X83212000Y-63612752D02*
X83212000Y-63090248D01*
X84682000Y-63612752D02*
X84682000Y-63090248D01*
X126311000Y-76740000D02*
X126311000Y-78250000D01*
X122610000Y-76740000D02*
X122610000Y-78250000D01*
X119340000Y-78250000D02*
X129580000Y-78250000D01*
X129580000Y-76740000D02*
X129580000Y-81381000D01*
X119340000Y-76740000D02*
X119340000Y-81381000D01*
X119340000Y-81381000D02*
X129580000Y-81381000D01*
X119340000Y-76740000D02*
X129580000Y-76740000D01*
X122609000Y-40100000D02*
X122609000Y-38590000D01*
X126310000Y-40100000D02*
X126310000Y-38590000D01*
X129580000Y-38590000D02*
X119340000Y-38590000D01*
X119340000Y-40100000D02*
X119340000Y-35459000D01*
X129580000Y-40100000D02*
X129580000Y-35459000D01*
X129580000Y-35459000D02*
X119340000Y-35459000D01*
X129580000Y-40100000D02*
X119340000Y-40100000D01*
X95727600Y-54228000D02*
X95727600Y-50928000D01*
X95727600Y-50928000D02*
X88827600Y-50928000D01*
X95727600Y-54228000D02*
X88827600Y-54228000D01*
X95727600Y-50621200D02*
X95727600Y-47321200D01*
X95727600Y-47321200D02*
X88827600Y-47321200D01*
X95727600Y-50621200D02*
X88827600Y-50621200D01*
X86826000Y-61646800D02*
X86826000Y-64946800D01*
X86826000Y-64946800D02*
X93726000Y-64946800D01*
X86826000Y-61646800D02*
X93726000Y-61646800D01*
X86826000Y-65304400D02*
X86826000Y-68604400D01*
X86826000Y-68604400D02*
X93726000Y-68604400D01*
X86826000Y-65304400D02*
X93726000Y-65304400D01*
X112260000Y-68901000D02*
G75*
G03*
X112260000Y-68901000I-8120000J0D01*
G01*
X96059000Y-68901000D02*
X112221000Y-68901000D01*
X96060000Y-68861000D02*
X112220000Y-68861000D01*
X96060000Y-68821000D02*
X112220000Y-68821000D01*
X96060000Y-68781000D02*
X112220000Y-68781000D01*
X96061000Y-68741000D02*
X112219000Y-68741000D01*
X96062000Y-68701000D02*
X112218000Y-68701000D01*
X96063000Y-68661000D02*
X112217000Y-68661000D01*
X96064000Y-68621000D02*
X112216000Y-68621000D01*
X96066000Y-68581000D02*
X112214000Y-68581000D01*
X96067000Y-68541000D02*
X112213000Y-68541000D01*
X96069000Y-68501000D02*
X112211000Y-68501000D01*
X96071000Y-68461000D02*
X112209000Y-68461000D01*
X96074000Y-68421000D02*
X112206000Y-68421000D01*
X96076000Y-68381000D02*
X112204000Y-68381000D01*
X96079000Y-68341000D02*
X112201000Y-68341000D01*
X96082000Y-68301000D02*
X112198000Y-68301000D01*
X96085000Y-68261000D02*
X112195000Y-68261000D01*
X96088000Y-68221000D02*
X112192000Y-68221000D01*
X96091000Y-68180000D02*
X112189000Y-68180000D01*
X96095000Y-68140000D02*
X112185000Y-68140000D01*
X96099000Y-68100000D02*
X112181000Y-68100000D01*
X96103000Y-68060000D02*
X112177000Y-68060000D01*
X96107000Y-68020000D02*
X112173000Y-68020000D01*
X96112000Y-67980000D02*
X112168000Y-67980000D01*
X96116000Y-67940000D02*
X112164000Y-67940000D01*
X96121000Y-67900000D02*
X112159000Y-67900000D01*
X96126000Y-67860000D02*
X112154000Y-67860000D01*
X96132000Y-67820000D02*
X112148000Y-67820000D01*
X96137000Y-67780000D02*
X112143000Y-67780000D01*
X96143000Y-67740000D02*
X112137000Y-67740000D01*
X96149000Y-67700000D02*
X112131000Y-67700000D01*
X96155000Y-67660000D02*
X112125000Y-67660000D01*
X96161000Y-67620000D02*
X112119000Y-67620000D01*
X96168000Y-67580000D02*
X112112000Y-67580000D01*
X96174000Y-67540000D02*
X112106000Y-67540000D01*
X96181000Y-67500000D02*
X112099000Y-67500000D01*
X96188000Y-67460000D02*
X112092000Y-67460000D01*
X96196000Y-67420000D02*
X112084000Y-67420000D01*
X96203000Y-67380000D02*
X112077000Y-67380000D01*
X96211000Y-67340000D02*
X112069000Y-67340000D01*
X96219000Y-67300000D02*
X112061000Y-67300000D01*
X96227000Y-67260000D02*
X112053000Y-67260000D01*
X96235000Y-67220000D02*
X112045000Y-67220000D01*
X96244000Y-67180000D02*
X112036000Y-67180000D01*
X96253000Y-67140000D02*
X112027000Y-67140000D01*
X96262000Y-67100000D02*
X112018000Y-67100000D01*
X96271000Y-67060000D02*
X112009000Y-67060000D01*
X96280000Y-67020000D02*
X112000000Y-67020000D01*
X96290000Y-66980000D02*
X111990000Y-66980000D01*
X96300000Y-66940000D02*
X111980000Y-66940000D01*
X96310000Y-66900000D02*
X111970000Y-66900000D01*
X96320000Y-66860000D02*
X111960000Y-66860000D01*
X96330000Y-66820000D02*
X111950000Y-66820000D01*
X96341000Y-66780000D02*
X111939000Y-66780000D01*
X96352000Y-66740000D02*
X111928000Y-66740000D01*
X96363000Y-66700000D02*
X111917000Y-66700000D01*
X96375000Y-66660000D02*
X111905000Y-66660000D01*
X96386000Y-66620000D02*
X111894000Y-66620000D01*
X96398000Y-66580000D02*
X102700000Y-66580000D01*
X105580000Y-66580000D02*
X111882000Y-66580000D01*
X96410000Y-66540000D02*
X102700000Y-66540000D01*
X105580000Y-66540000D02*
X111870000Y-66540000D01*
X96422000Y-66500000D02*
X102700000Y-66500000D01*
X105580000Y-66500000D02*
X111858000Y-66500000D01*
X96435000Y-66460000D02*
X102700000Y-66460000D01*
X105580000Y-66460000D02*
X111845000Y-66460000D01*
X96447000Y-66420000D02*
X102700000Y-66420000D01*
X105580000Y-66420000D02*
X111833000Y-66420000D01*
X96460000Y-66380000D02*
X102700000Y-66380000D01*
X105580000Y-66380000D02*
X111820000Y-66380000D01*
X96474000Y-66340000D02*
X102700000Y-66340000D01*
X105580000Y-66340000D02*
X111806000Y-66340000D01*
X96487000Y-66300000D02*
X102700000Y-66300000D01*
X105580000Y-66300000D02*
X111793000Y-66300000D01*
X96501000Y-66260000D02*
X102700000Y-66260000D01*
X105580000Y-66260000D02*
X111779000Y-66260000D01*
X96515000Y-66220000D02*
X102700000Y-66220000D01*
X105580000Y-66220000D02*
X111765000Y-66220000D01*
X96529000Y-66180000D02*
X102700000Y-66180000D01*
X105580000Y-66180000D02*
X111751000Y-66180000D01*
X96543000Y-66140000D02*
X102700000Y-66140000D01*
X105580000Y-66140000D02*
X111737000Y-66140000D01*
X96558000Y-66100000D02*
X102700000Y-66100000D01*
X105580000Y-66100000D02*
X111722000Y-66100000D01*
X96572000Y-66060000D02*
X102700000Y-66060000D01*
X105580000Y-66060000D02*
X111708000Y-66060000D01*
X96587000Y-66020000D02*
X102700000Y-66020000D01*
X105580000Y-66020000D02*
X111693000Y-66020000D01*
X96603000Y-65980000D02*
X102700000Y-65980000D01*
X105580000Y-65980000D02*
X111677000Y-65980000D01*
X96618000Y-65940000D02*
X102700000Y-65940000D01*
X105580000Y-65940000D02*
X111662000Y-65940000D01*
X96634000Y-65900000D02*
X102700000Y-65900000D01*
X105580000Y-65900000D02*
X111646000Y-65900000D01*
X96650000Y-65860000D02*
X102700000Y-65860000D01*
X105580000Y-65860000D02*
X111630000Y-65860000D01*
X96666000Y-65820000D02*
X102700000Y-65820000D01*
X105580000Y-65820000D02*
X111614000Y-65820000D01*
X96683000Y-65780000D02*
X102700000Y-65780000D01*
X105580000Y-65780000D02*
X111597000Y-65780000D01*
X96700000Y-65740000D02*
X102700000Y-65740000D01*
X105580000Y-65740000D02*
X111580000Y-65740000D01*
X96717000Y-65700000D02*
X102700000Y-65700000D01*
X105580000Y-65700000D02*
X111563000Y-65700000D01*
X96734000Y-65660000D02*
X102700000Y-65660000D01*
X105580000Y-65660000D02*
X111546000Y-65660000D01*
X96751000Y-65620000D02*
X102700000Y-65620000D01*
X105580000Y-65620000D02*
X111529000Y-65620000D01*
X96769000Y-65580000D02*
X102700000Y-65580000D01*
X105580000Y-65580000D02*
X111511000Y-65580000D01*
X96787000Y-65540000D02*
X102700000Y-65540000D01*
X105580000Y-65540000D02*
X111493000Y-65540000D01*
X96806000Y-65500000D02*
X102700000Y-65500000D01*
X105580000Y-65500000D02*
X111474000Y-65500000D01*
X96824000Y-65460000D02*
X102700000Y-65460000D01*
X105580000Y-65460000D02*
X111456000Y-65460000D01*
X96843000Y-65420000D02*
X102700000Y-65420000D01*
X105580000Y-65420000D02*
X111437000Y-65420000D01*
X96862000Y-65380000D02*
X102700000Y-65380000D01*
X105580000Y-65380000D02*
X111418000Y-65380000D01*
X96882000Y-65340000D02*
X102700000Y-65340000D01*
X105580000Y-65340000D02*
X111398000Y-65340000D01*
X96901000Y-65300000D02*
X102700000Y-65300000D01*
X105580000Y-65300000D02*
X111379000Y-65300000D01*
X96921000Y-65260000D02*
X102700000Y-65260000D01*
X105580000Y-65260000D02*
X111359000Y-65260000D01*
X96941000Y-65220000D02*
X102700000Y-65220000D01*
X105580000Y-65220000D02*
X111339000Y-65220000D01*
X96962000Y-65180000D02*
X102700000Y-65180000D01*
X105580000Y-65180000D02*
X111318000Y-65180000D01*
X96983000Y-65140000D02*
X102700000Y-65140000D01*
X105580000Y-65140000D02*
X111297000Y-65140000D01*
X97004000Y-65100000D02*
X102700000Y-65100000D01*
X105580000Y-65100000D02*
X111276000Y-65100000D01*
X97025000Y-65060000D02*
X102700000Y-65060000D01*
X105580000Y-65060000D02*
X111255000Y-65060000D01*
X97046000Y-65020000D02*
X102700000Y-65020000D01*
X105580000Y-65020000D02*
X111234000Y-65020000D01*
X97068000Y-64980000D02*
X102700000Y-64980000D01*
X105580000Y-64980000D02*
X111212000Y-64980000D01*
X97091000Y-64940000D02*
X102700000Y-64940000D01*
X105580000Y-64940000D02*
X111189000Y-64940000D01*
X97113000Y-64900000D02*
X102700000Y-64900000D01*
X105580000Y-64900000D02*
X111167000Y-64900000D01*
X97136000Y-64860000D02*
X102700000Y-64860000D01*
X105580000Y-64860000D02*
X111144000Y-64860000D01*
X97159000Y-64820000D02*
X102700000Y-64820000D01*
X105580000Y-64820000D02*
X111121000Y-64820000D01*
X97182000Y-64780000D02*
X102700000Y-64780000D01*
X105580000Y-64780000D02*
X111098000Y-64780000D01*
X97206000Y-64740000D02*
X102700000Y-64740000D01*
X105580000Y-64740000D02*
X111074000Y-64740000D01*
X97230000Y-64700000D02*
X102700000Y-64700000D01*
X105580000Y-64700000D02*
X111050000Y-64700000D01*
X97254000Y-64660000D02*
X102700000Y-64660000D01*
X105580000Y-64660000D02*
X111026000Y-64660000D01*
X97279000Y-64620000D02*
X102700000Y-64620000D01*
X105580000Y-64620000D02*
X111001000Y-64620000D01*
X97304000Y-64580000D02*
X102700000Y-64580000D01*
X105580000Y-64580000D02*
X110976000Y-64580000D01*
X97329000Y-64540000D02*
X102700000Y-64540000D01*
X105580000Y-64540000D02*
X110951000Y-64540000D01*
X97355000Y-64500000D02*
X102700000Y-64500000D01*
X105580000Y-64500000D02*
X110925000Y-64500000D01*
X97381000Y-64460000D02*
X102700000Y-64460000D01*
X105580000Y-64460000D02*
X110899000Y-64460000D01*
X97407000Y-64420000D02*
X102700000Y-64420000D01*
X105580000Y-64420000D02*
X110873000Y-64420000D01*
X97434000Y-64380000D02*
X102700000Y-64380000D01*
X105580000Y-64380000D02*
X110846000Y-64380000D01*
X97461000Y-64340000D02*
X102700000Y-64340000D01*
X105580000Y-64340000D02*
X110819000Y-64340000D01*
X97488000Y-64300000D02*
X102700000Y-64300000D01*
X105580000Y-64300000D02*
X110792000Y-64300000D01*
X97516000Y-64260000D02*
X102700000Y-64260000D01*
X105580000Y-64260000D02*
X110764000Y-64260000D01*
X97544000Y-64220000D02*
X102700000Y-64220000D01*
X105580000Y-64220000D02*
X110736000Y-64220000D01*
X97572000Y-64180000D02*
X102700000Y-64180000D01*
X105580000Y-64180000D02*
X110708000Y-64180000D01*
X97601000Y-64140000D02*
X102700000Y-64140000D01*
X105580000Y-64140000D02*
X110679000Y-64140000D01*
X97630000Y-64100000D02*
X102700000Y-64100000D01*
X105580000Y-64100000D02*
X110650000Y-64100000D01*
X97660000Y-64060000D02*
X102700000Y-64060000D01*
X105580000Y-64060000D02*
X110620000Y-64060000D01*
X97690000Y-64020000D02*
X102700000Y-64020000D01*
X105580000Y-64020000D02*
X110590000Y-64020000D01*
X97720000Y-63980000D02*
X102700000Y-63980000D01*
X105580000Y-63980000D02*
X110560000Y-63980000D01*
X97750000Y-63940000D02*
X102700000Y-63940000D01*
X105580000Y-63940000D02*
X110530000Y-63940000D01*
X97782000Y-63900000D02*
X102700000Y-63900000D01*
X105580000Y-63900000D02*
X110498000Y-63900000D01*
X97813000Y-63860000D02*
X102700000Y-63860000D01*
X105580000Y-63860000D02*
X110467000Y-63860000D01*
X97845000Y-63820000D02*
X102700000Y-63820000D01*
X105580000Y-63820000D02*
X110435000Y-63820000D01*
X97877000Y-63780000D02*
X102700000Y-63780000D01*
X105580000Y-63780000D02*
X110403000Y-63780000D01*
X97910000Y-63740000D02*
X102700000Y-63740000D01*
X105580000Y-63740000D02*
X110370000Y-63740000D01*
X97943000Y-63700000D02*
X110337000Y-63700000D01*
X97977000Y-63660000D02*
X110303000Y-63660000D01*
X98011000Y-63620000D02*
X110269000Y-63620000D01*
X98045000Y-63580000D02*
X110235000Y-63580000D01*
X98080000Y-63540000D02*
X110200000Y-63540000D01*
X98115000Y-63500000D02*
X110165000Y-63500000D01*
X98151000Y-63460000D02*
X110129000Y-63460000D01*
X98188000Y-63420000D02*
X110092000Y-63420000D01*
X98224000Y-63380000D02*
X110056000Y-63380000D01*
X98262000Y-63340000D02*
X110018000Y-63340000D01*
X98300000Y-63300000D02*
X109980000Y-63300000D01*
X98338000Y-63260000D02*
X109942000Y-63260000D01*
X98377000Y-63220000D02*
X109903000Y-63220000D01*
X98416000Y-63180000D02*
X109864000Y-63180000D01*
X98456000Y-63140000D02*
X109824000Y-63140000D01*
X98497000Y-63100000D02*
X109783000Y-63100000D01*
X98538000Y-63060000D02*
X109742000Y-63060000D01*
X98580000Y-63020000D02*
X109700000Y-63020000D01*
X98622000Y-62980000D02*
X109658000Y-62980000D01*
X98665000Y-62940000D02*
X109615000Y-62940000D01*
X98708000Y-62900000D02*
X109572000Y-62900000D01*
X98752000Y-62860000D02*
X109528000Y-62860000D01*
X98797000Y-62820000D02*
X109483000Y-62820000D01*
X98843000Y-62780000D02*
X109437000Y-62780000D01*
X98889000Y-62740000D02*
X109391000Y-62740000D01*
X98936000Y-62700000D02*
X109344000Y-62700000D01*
X98984000Y-62660000D02*
X109296000Y-62660000D01*
X99032000Y-62620000D02*
X109248000Y-62620000D01*
X99081000Y-62580000D02*
X109199000Y-62580000D01*
X99131000Y-62540000D02*
X109149000Y-62540000D01*
X99182000Y-62500000D02*
X109098000Y-62500000D01*
X99234000Y-62460000D02*
X109046000Y-62460000D01*
X99286000Y-62420000D02*
X108994000Y-62420000D01*
X99340000Y-62380000D02*
X108940000Y-62380000D01*
X99394000Y-62340000D02*
X108886000Y-62340000D01*
X99449000Y-62300000D02*
X108831000Y-62300000D01*
X99506000Y-62260000D02*
X108774000Y-62260000D01*
X99563000Y-62220000D02*
X108717000Y-62220000D01*
X99621000Y-62180000D02*
X108659000Y-62180000D01*
X99681000Y-62140000D02*
X108599000Y-62140000D01*
X99742000Y-62100000D02*
X108538000Y-62100000D01*
X99804000Y-62060000D02*
X108476000Y-62060000D01*
X99867000Y-62020000D02*
X108413000Y-62020000D01*
X99931000Y-61980000D02*
X108349000Y-61980000D01*
X99997000Y-61940000D02*
X108283000Y-61940000D01*
X100064000Y-61900000D02*
X108216000Y-61900000D01*
X100133000Y-61860000D02*
X108147000Y-61860000D01*
X100204000Y-61820000D02*
X108076000Y-61820000D01*
X100276000Y-61780000D02*
X108004000Y-61780000D01*
X100350000Y-61740000D02*
X107930000Y-61740000D01*
X100425000Y-61700000D02*
X107855000Y-61700000D01*
X100503000Y-61660000D02*
X107777000Y-61660000D01*
X100583000Y-61620000D02*
X107697000Y-61620000D01*
X100665000Y-61580000D02*
X107615000Y-61580000D01*
X100750000Y-61540000D02*
X107530000Y-61540000D01*
X100837000Y-61500000D02*
X107443000Y-61500000D01*
X100927000Y-61460000D02*
X107353000Y-61460000D01*
X101020000Y-61420000D02*
X107260000Y-61420000D01*
X101116000Y-61380000D02*
X107164000Y-61380000D01*
X101216000Y-61340000D02*
X107064000Y-61340000D01*
X101320000Y-61300000D02*
X106960000Y-61300000D01*
X101429000Y-61260000D02*
X106851000Y-61260000D01*
X101543000Y-61220000D02*
X106737000Y-61220000D01*
X101662000Y-61180000D02*
X106618000Y-61180000D01*
X101789000Y-61140000D02*
X106491000Y-61140000D01*
X101922000Y-61100000D02*
X106358000Y-61100000D01*
X102066000Y-61060000D02*
X106214000Y-61060000D01*
X102220000Y-61020000D02*
X106060000Y-61020000D01*
X102388000Y-60980000D02*
X105892000Y-60980000D01*
X102576000Y-60940000D02*
X105704000Y-60940000D01*
X102789000Y-60900000D02*
X105491000Y-60900000D01*
X103042000Y-60860000D02*
X105238000Y-60860000D01*
X103375000Y-60820000D02*
X104905000Y-60820000D01*
X99585000Y-77590491D02*
X99585000Y-75990491D01*
X98785000Y-76790491D02*
X100385000Y-76790491D01*
X112260000Y-47050000D02*
G75*
G03*
X112260000Y-47050000I-8120000J0D01*
G01*
X96059000Y-47050000D02*
X112221000Y-47050000D01*
X96060000Y-47010000D02*
X112220000Y-47010000D01*
X96060000Y-46970000D02*
X112220000Y-46970000D01*
X96060000Y-46930000D02*
X112220000Y-46930000D01*
X96061000Y-46890000D02*
X112219000Y-46890000D01*
X96062000Y-46850000D02*
X112218000Y-46850000D01*
X96063000Y-46810000D02*
X112217000Y-46810000D01*
X96064000Y-46770000D02*
X112216000Y-46770000D01*
X96066000Y-46730000D02*
X112214000Y-46730000D01*
X96067000Y-46690000D02*
X112213000Y-46690000D01*
X96069000Y-46650000D02*
X112211000Y-46650000D01*
X96071000Y-46610000D02*
X112209000Y-46610000D01*
X96074000Y-46570000D02*
X112206000Y-46570000D01*
X96076000Y-46530000D02*
X112204000Y-46530000D01*
X96079000Y-46490000D02*
X112201000Y-46490000D01*
X96082000Y-46450000D02*
X112198000Y-46450000D01*
X96085000Y-46410000D02*
X112195000Y-46410000D01*
X96088000Y-46370000D02*
X112192000Y-46370000D01*
X96091000Y-46329000D02*
X112189000Y-46329000D01*
X96095000Y-46289000D02*
X112185000Y-46289000D01*
X96099000Y-46249000D02*
X112181000Y-46249000D01*
X96103000Y-46209000D02*
X112177000Y-46209000D01*
X96107000Y-46169000D02*
X112173000Y-46169000D01*
X96112000Y-46129000D02*
X112168000Y-46129000D01*
X96116000Y-46089000D02*
X112164000Y-46089000D01*
X96121000Y-46049000D02*
X112159000Y-46049000D01*
X96126000Y-46009000D02*
X112154000Y-46009000D01*
X96132000Y-45969000D02*
X112148000Y-45969000D01*
X96137000Y-45929000D02*
X112143000Y-45929000D01*
X96143000Y-45889000D02*
X112137000Y-45889000D01*
X96149000Y-45849000D02*
X112131000Y-45849000D01*
X96155000Y-45809000D02*
X112125000Y-45809000D01*
X96161000Y-45769000D02*
X112119000Y-45769000D01*
X96168000Y-45729000D02*
X112112000Y-45729000D01*
X96174000Y-45689000D02*
X112106000Y-45689000D01*
X96181000Y-45649000D02*
X112099000Y-45649000D01*
X96188000Y-45609000D02*
X112092000Y-45609000D01*
X96196000Y-45569000D02*
X112084000Y-45569000D01*
X96203000Y-45529000D02*
X112077000Y-45529000D01*
X96211000Y-45489000D02*
X112069000Y-45489000D01*
X96219000Y-45449000D02*
X112061000Y-45449000D01*
X96227000Y-45409000D02*
X112053000Y-45409000D01*
X96235000Y-45369000D02*
X112045000Y-45369000D01*
X96244000Y-45329000D02*
X112036000Y-45329000D01*
X96253000Y-45289000D02*
X112027000Y-45289000D01*
X96262000Y-45249000D02*
X112018000Y-45249000D01*
X96271000Y-45209000D02*
X112009000Y-45209000D01*
X96280000Y-45169000D02*
X112000000Y-45169000D01*
X96290000Y-45129000D02*
X111990000Y-45129000D01*
X96300000Y-45089000D02*
X111980000Y-45089000D01*
X96310000Y-45049000D02*
X111970000Y-45049000D01*
X96320000Y-45009000D02*
X111960000Y-45009000D01*
X96330000Y-44969000D02*
X111950000Y-44969000D01*
X96341000Y-44929000D02*
X111939000Y-44929000D01*
X96352000Y-44889000D02*
X111928000Y-44889000D01*
X96363000Y-44849000D02*
X111917000Y-44849000D01*
X96375000Y-44809000D02*
X111905000Y-44809000D01*
X96386000Y-44769000D02*
X111894000Y-44769000D01*
X96398000Y-44729000D02*
X102700000Y-44729000D01*
X105580000Y-44729000D02*
X111882000Y-44729000D01*
X96410000Y-44689000D02*
X102700000Y-44689000D01*
X105580000Y-44689000D02*
X111870000Y-44689000D01*
X96422000Y-44649000D02*
X102700000Y-44649000D01*
X105580000Y-44649000D02*
X111858000Y-44649000D01*
X96435000Y-44609000D02*
X102700000Y-44609000D01*
X105580000Y-44609000D02*
X111845000Y-44609000D01*
X96447000Y-44569000D02*
X102700000Y-44569000D01*
X105580000Y-44569000D02*
X111833000Y-44569000D01*
X96460000Y-44529000D02*
X102700000Y-44529000D01*
X105580000Y-44529000D02*
X111820000Y-44529000D01*
X96474000Y-44489000D02*
X102700000Y-44489000D01*
X105580000Y-44489000D02*
X111806000Y-44489000D01*
X96487000Y-44449000D02*
X102700000Y-44449000D01*
X105580000Y-44449000D02*
X111793000Y-44449000D01*
X96501000Y-44409000D02*
X102700000Y-44409000D01*
X105580000Y-44409000D02*
X111779000Y-44409000D01*
X96515000Y-44369000D02*
X102700000Y-44369000D01*
X105580000Y-44369000D02*
X111765000Y-44369000D01*
X96529000Y-44329000D02*
X102700000Y-44329000D01*
X105580000Y-44329000D02*
X111751000Y-44329000D01*
X96543000Y-44289000D02*
X102700000Y-44289000D01*
X105580000Y-44289000D02*
X111737000Y-44289000D01*
X96558000Y-44249000D02*
X102700000Y-44249000D01*
X105580000Y-44249000D02*
X111722000Y-44249000D01*
X96572000Y-44209000D02*
X102700000Y-44209000D01*
X105580000Y-44209000D02*
X111708000Y-44209000D01*
X96587000Y-44169000D02*
X102700000Y-44169000D01*
X105580000Y-44169000D02*
X111693000Y-44169000D01*
X96603000Y-44129000D02*
X102700000Y-44129000D01*
X105580000Y-44129000D02*
X111677000Y-44129000D01*
X96618000Y-44089000D02*
X102700000Y-44089000D01*
X105580000Y-44089000D02*
X111662000Y-44089000D01*
X96634000Y-44049000D02*
X102700000Y-44049000D01*
X105580000Y-44049000D02*
X111646000Y-44049000D01*
X96650000Y-44009000D02*
X102700000Y-44009000D01*
X105580000Y-44009000D02*
X111630000Y-44009000D01*
X96666000Y-43969000D02*
X102700000Y-43969000D01*
X105580000Y-43969000D02*
X111614000Y-43969000D01*
X96683000Y-43929000D02*
X102700000Y-43929000D01*
X105580000Y-43929000D02*
X111597000Y-43929000D01*
X96700000Y-43889000D02*
X102700000Y-43889000D01*
X105580000Y-43889000D02*
X111580000Y-43889000D01*
X96717000Y-43849000D02*
X102700000Y-43849000D01*
X105580000Y-43849000D02*
X111563000Y-43849000D01*
X96734000Y-43809000D02*
X102700000Y-43809000D01*
X105580000Y-43809000D02*
X111546000Y-43809000D01*
X96751000Y-43769000D02*
X102700000Y-43769000D01*
X105580000Y-43769000D02*
X111529000Y-43769000D01*
X96769000Y-43729000D02*
X102700000Y-43729000D01*
X105580000Y-43729000D02*
X111511000Y-43729000D01*
X96787000Y-43689000D02*
X102700000Y-43689000D01*
X105580000Y-43689000D02*
X111493000Y-43689000D01*
X96806000Y-43649000D02*
X102700000Y-43649000D01*
X105580000Y-43649000D02*
X111474000Y-43649000D01*
X96824000Y-43609000D02*
X102700000Y-43609000D01*
X105580000Y-43609000D02*
X111456000Y-43609000D01*
X96843000Y-43569000D02*
X102700000Y-43569000D01*
X105580000Y-43569000D02*
X111437000Y-43569000D01*
X96862000Y-43529000D02*
X102700000Y-43529000D01*
X105580000Y-43529000D02*
X111418000Y-43529000D01*
X96882000Y-43489000D02*
X102700000Y-43489000D01*
X105580000Y-43489000D02*
X111398000Y-43489000D01*
X96901000Y-43449000D02*
X102700000Y-43449000D01*
X105580000Y-43449000D02*
X111379000Y-43449000D01*
X96921000Y-43409000D02*
X102700000Y-43409000D01*
X105580000Y-43409000D02*
X111359000Y-43409000D01*
X96941000Y-43369000D02*
X102700000Y-43369000D01*
X105580000Y-43369000D02*
X111339000Y-43369000D01*
X96962000Y-43329000D02*
X102700000Y-43329000D01*
X105580000Y-43329000D02*
X111318000Y-43329000D01*
X96983000Y-43289000D02*
X102700000Y-43289000D01*
X105580000Y-43289000D02*
X111297000Y-43289000D01*
X97004000Y-43249000D02*
X102700000Y-43249000D01*
X105580000Y-43249000D02*
X111276000Y-43249000D01*
X97025000Y-43209000D02*
X102700000Y-43209000D01*
X105580000Y-43209000D02*
X111255000Y-43209000D01*
X97046000Y-43169000D02*
X102700000Y-43169000D01*
X105580000Y-43169000D02*
X111234000Y-43169000D01*
X97068000Y-43129000D02*
X102700000Y-43129000D01*
X105580000Y-43129000D02*
X111212000Y-43129000D01*
X97091000Y-43089000D02*
X102700000Y-43089000D01*
X105580000Y-43089000D02*
X111189000Y-43089000D01*
X97113000Y-43049000D02*
X102700000Y-43049000D01*
X105580000Y-43049000D02*
X111167000Y-43049000D01*
X97136000Y-43009000D02*
X102700000Y-43009000D01*
X105580000Y-43009000D02*
X111144000Y-43009000D01*
X97159000Y-42969000D02*
X102700000Y-42969000D01*
X105580000Y-42969000D02*
X111121000Y-42969000D01*
X97182000Y-42929000D02*
X102700000Y-42929000D01*
X105580000Y-42929000D02*
X111098000Y-42929000D01*
X97206000Y-42889000D02*
X102700000Y-42889000D01*
X105580000Y-42889000D02*
X111074000Y-42889000D01*
X97230000Y-42849000D02*
X102700000Y-42849000D01*
X105580000Y-42849000D02*
X111050000Y-42849000D01*
X97254000Y-42809000D02*
X102700000Y-42809000D01*
X105580000Y-42809000D02*
X111026000Y-42809000D01*
X97279000Y-42769000D02*
X102700000Y-42769000D01*
X105580000Y-42769000D02*
X111001000Y-42769000D01*
X97304000Y-42729000D02*
X102700000Y-42729000D01*
X105580000Y-42729000D02*
X110976000Y-42729000D01*
X97329000Y-42689000D02*
X102700000Y-42689000D01*
X105580000Y-42689000D02*
X110951000Y-42689000D01*
X97355000Y-42649000D02*
X102700000Y-42649000D01*
X105580000Y-42649000D02*
X110925000Y-42649000D01*
X97381000Y-42609000D02*
X102700000Y-42609000D01*
X105580000Y-42609000D02*
X110899000Y-42609000D01*
X97407000Y-42569000D02*
X102700000Y-42569000D01*
X105580000Y-42569000D02*
X110873000Y-42569000D01*
X97434000Y-42529000D02*
X102700000Y-42529000D01*
X105580000Y-42529000D02*
X110846000Y-42529000D01*
X97461000Y-42489000D02*
X102700000Y-42489000D01*
X105580000Y-42489000D02*
X110819000Y-42489000D01*
X97488000Y-42449000D02*
X102700000Y-42449000D01*
X105580000Y-42449000D02*
X110792000Y-42449000D01*
X97516000Y-42409000D02*
X102700000Y-42409000D01*
X105580000Y-42409000D02*
X110764000Y-42409000D01*
X97544000Y-42369000D02*
X102700000Y-42369000D01*
X105580000Y-42369000D02*
X110736000Y-42369000D01*
X97572000Y-42329000D02*
X102700000Y-42329000D01*
X105580000Y-42329000D02*
X110708000Y-42329000D01*
X97601000Y-42289000D02*
X102700000Y-42289000D01*
X105580000Y-42289000D02*
X110679000Y-42289000D01*
X97630000Y-42249000D02*
X102700000Y-42249000D01*
X105580000Y-42249000D02*
X110650000Y-42249000D01*
X97660000Y-42209000D02*
X102700000Y-42209000D01*
X105580000Y-42209000D02*
X110620000Y-42209000D01*
X97690000Y-42169000D02*
X102700000Y-42169000D01*
X105580000Y-42169000D02*
X110590000Y-42169000D01*
X97720000Y-42129000D02*
X102700000Y-42129000D01*
X105580000Y-42129000D02*
X110560000Y-42129000D01*
X97750000Y-42089000D02*
X102700000Y-42089000D01*
X105580000Y-42089000D02*
X110530000Y-42089000D01*
X97782000Y-42049000D02*
X102700000Y-42049000D01*
X105580000Y-42049000D02*
X110498000Y-42049000D01*
X97813000Y-42009000D02*
X102700000Y-42009000D01*
X105580000Y-42009000D02*
X110467000Y-42009000D01*
X97845000Y-41969000D02*
X102700000Y-41969000D01*
X105580000Y-41969000D02*
X110435000Y-41969000D01*
X97877000Y-41929000D02*
X102700000Y-41929000D01*
X105580000Y-41929000D02*
X110403000Y-41929000D01*
X97910000Y-41889000D02*
X102700000Y-41889000D01*
X105580000Y-41889000D02*
X110370000Y-41889000D01*
X97943000Y-41849000D02*
X110337000Y-41849000D01*
X97977000Y-41809000D02*
X110303000Y-41809000D01*
X98011000Y-41769000D02*
X110269000Y-41769000D01*
X98045000Y-41729000D02*
X110235000Y-41729000D01*
X98080000Y-41689000D02*
X110200000Y-41689000D01*
X98115000Y-41649000D02*
X110165000Y-41649000D01*
X98151000Y-41609000D02*
X110129000Y-41609000D01*
X98188000Y-41569000D02*
X110092000Y-41569000D01*
X98224000Y-41529000D02*
X110056000Y-41529000D01*
X98262000Y-41489000D02*
X110018000Y-41489000D01*
X98300000Y-41449000D02*
X109980000Y-41449000D01*
X98338000Y-41409000D02*
X109942000Y-41409000D01*
X98377000Y-41369000D02*
X109903000Y-41369000D01*
X98416000Y-41329000D02*
X109864000Y-41329000D01*
X98456000Y-41289000D02*
X109824000Y-41289000D01*
X98497000Y-41249000D02*
X109783000Y-41249000D01*
X98538000Y-41209000D02*
X109742000Y-41209000D01*
X98580000Y-41169000D02*
X109700000Y-41169000D01*
X98622000Y-41129000D02*
X109658000Y-41129000D01*
X98665000Y-41089000D02*
X109615000Y-41089000D01*
X98708000Y-41049000D02*
X109572000Y-41049000D01*
X98752000Y-41009000D02*
X109528000Y-41009000D01*
X98797000Y-40969000D02*
X109483000Y-40969000D01*
X98843000Y-40929000D02*
X109437000Y-40929000D01*
X98889000Y-40889000D02*
X109391000Y-40889000D01*
X98936000Y-40849000D02*
X109344000Y-40849000D01*
X98984000Y-40809000D02*
X109296000Y-40809000D01*
X99032000Y-40769000D02*
X109248000Y-40769000D01*
X99081000Y-40729000D02*
X109199000Y-40729000D01*
X99131000Y-40689000D02*
X109149000Y-40689000D01*
X99182000Y-40649000D02*
X109098000Y-40649000D01*
X99234000Y-40609000D02*
X109046000Y-40609000D01*
X99286000Y-40569000D02*
X108994000Y-40569000D01*
X99340000Y-40529000D02*
X108940000Y-40529000D01*
X99394000Y-40489000D02*
X108886000Y-40489000D01*
X99449000Y-40449000D02*
X108831000Y-40449000D01*
X99506000Y-40409000D02*
X108774000Y-40409000D01*
X99563000Y-40369000D02*
X108717000Y-40369000D01*
X99621000Y-40329000D02*
X108659000Y-40329000D01*
X99681000Y-40289000D02*
X108599000Y-40289000D01*
X99742000Y-40249000D02*
X108538000Y-40249000D01*
X99804000Y-40209000D02*
X108476000Y-40209000D01*
X99867000Y-40169000D02*
X108413000Y-40169000D01*
X99931000Y-40129000D02*
X108349000Y-40129000D01*
X99997000Y-40089000D02*
X108283000Y-40089000D01*
X100064000Y-40049000D02*
X108216000Y-40049000D01*
X100133000Y-40009000D02*
X108147000Y-40009000D01*
X100204000Y-39969000D02*
X108076000Y-39969000D01*
X100276000Y-39929000D02*
X108004000Y-39929000D01*
X100350000Y-39889000D02*
X107930000Y-39889000D01*
X100425000Y-39849000D02*
X107855000Y-39849000D01*
X100503000Y-39809000D02*
X107777000Y-39809000D01*
X100583000Y-39769000D02*
X107697000Y-39769000D01*
X100665000Y-39729000D02*
X107615000Y-39729000D01*
X100750000Y-39689000D02*
X107530000Y-39689000D01*
X100837000Y-39649000D02*
X107443000Y-39649000D01*
X100927000Y-39609000D02*
X107353000Y-39609000D01*
X101020000Y-39569000D02*
X107260000Y-39569000D01*
X101116000Y-39529000D02*
X107164000Y-39529000D01*
X101216000Y-39489000D02*
X107064000Y-39489000D01*
X101320000Y-39449000D02*
X106960000Y-39449000D01*
X101429000Y-39409000D02*
X106851000Y-39409000D01*
X101543000Y-39369000D02*
X106737000Y-39369000D01*
X101662000Y-39329000D02*
X106618000Y-39329000D01*
X101789000Y-39289000D02*
X106491000Y-39289000D01*
X101922000Y-39249000D02*
X106358000Y-39249000D01*
X102066000Y-39209000D02*
X106214000Y-39209000D01*
X102220000Y-39169000D02*
X106060000Y-39169000D01*
X102388000Y-39129000D02*
X105892000Y-39129000D01*
X102576000Y-39089000D02*
X105704000Y-39089000D01*
X102789000Y-39049000D02*
X105491000Y-39049000D01*
X103042000Y-39009000D02*
X105238000Y-39009000D01*
X103375000Y-38969000D02*
X104905000Y-38969000D01*
X99585000Y-55739491D02*
X99585000Y-54139491D01*
X98785000Y-54939491D02*
X100385000Y-54939491D01*
X105166936Y-30570500D02*
X105621064Y-30570500D01*
X105166936Y-32040500D02*
X105621064Y-32040500D01*
X128298752Y-83285000D02*
X127776248Y-83285000D01*
X128298752Y-81815000D02*
X127776248Y-81815000D01*
X123161248Y-81815000D02*
X123683752Y-81815000D01*
X123161248Y-83285000D02*
X123683752Y-83285000D01*
X127776248Y-33555000D02*
X128298752Y-33555000D01*
X127776248Y-35025000D02*
X128298752Y-35025000D01*
X144267500Y-77269500D02*
X134497500Y-77269500D01*
X144267500Y-72199500D02*
X134497500Y-72199500D01*
X144267500Y-77269500D02*
X144267500Y-72199500D01*
X134497500Y-77269500D02*
X134497500Y-72199500D01*
X144331000Y-55933500D02*
X134561000Y-55933500D01*
X144331000Y-50863500D02*
X134561000Y-50863500D01*
X144331000Y-55933500D02*
X144331000Y-50863500D01*
X134561000Y-55933500D02*
X134561000Y-50863500D01*
X85522381Y-49631600D02*
G75*
G03*
X85522381Y-49631600I-1600781J0D01*
G01*
X87960781Y-58166000D02*
G75*
G03*
X87960781Y-58166000I-1600781J0D01*
G01*
X85573181Y-67259200D02*
G75*
G03*
X85573181Y-67259200I-1600781J0D01*
G01*
D10*
X126865142Y-52808142D02*
X126817523Y-52855761D01*
X126674666Y-52903380D01*
X126579428Y-52903380D01*
X126436571Y-52855761D01*
X126341333Y-52760523D01*
X126293714Y-52665285D01*
X126246095Y-52474809D01*
X126246095Y-52331952D01*
X126293714Y-52141476D01*
X126341333Y-52046238D01*
X126436571Y-51951000D01*
X126579428Y-51903380D01*
X126674666Y-51903380D01*
X126817523Y-51951000D01*
X126865142Y-51998619D01*
X127817523Y-52903380D02*
X127246095Y-52903380D01*
X127531809Y-52903380D02*
X127531809Y-51903380D01*
X127436571Y-52046238D01*
X127341333Y-52141476D01*
X127246095Y-52189095D01*
X128674666Y-51903380D02*
X128484190Y-51903380D01*
X128388952Y-51951000D01*
X128341333Y-51998619D01*
X128246095Y-52141476D01*
X128198476Y-52331952D01*
X128198476Y-52712904D01*
X128246095Y-52808142D01*
X128293714Y-52855761D01*
X128388952Y-52903380D01*
X128579428Y-52903380D01*
X128674666Y-52855761D01*
X128722285Y-52808142D01*
X128769904Y-52712904D01*
X128769904Y-52474809D01*
X128722285Y-52379571D01*
X128674666Y-52331952D01*
X128579428Y-52284333D01*
X128388952Y-52284333D01*
X128293714Y-52331952D01*
X128246095Y-52379571D01*
X128198476Y-52474809D01*
X143767142Y-67167357D02*
X143814761Y-67214976D01*
X143862380Y-67357833D01*
X143862380Y-67453071D01*
X143814761Y-67595928D01*
X143719523Y-67691166D01*
X143624285Y-67738785D01*
X143433809Y-67786404D01*
X143290952Y-67786404D01*
X143100476Y-67738785D01*
X143005238Y-67691166D01*
X142910000Y-67595928D01*
X142862380Y-67453071D01*
X142862380Y-67357833D01*
X142910000Y-67214976D01*
X142957619Y-67167357D01*
X143862380Y-66214976D02*
X143862380Y-66786404D01*
X143862380Y-66500690D02*
X142862380Y-66500690D01*
X143005238Y-66595928D01*
X143100476Y-66691166D01*
X143148095Y-66786404D01*
X143290952Y-65643547D02*
X143243333Y-65738785D01*
X143195714Y-65786404D01*
X143100476Y-65834023D01*
X143052857Y-65834023D01*
X142957619Y-65786404D01*
X142910000Y-65738785D01*
X142862380Y-65643547D01*
X142862380Y-65453071D01*
X142910000Y-65357833D01*
X142957619Y-65310214D01*
X143052857Y-65262595D01*
X143100476Y-65262595D01*
X143195714Y-65310214D01*
X143243333Y-65357833D01*
X143290952Y-65453071D01*
X143290952Y-65643547D01*
X143338571Y-65738785D01*
X143386190Y-65786404D01*
X143481428Y-65834023D01*
X143671904Y-65834023D01*
X143767142Y-65786404D01*
X143814761Y-65738785D01*
X143862380Y-65643547D01*
X143862380Y-65453071D01*
X143814761Y-65357833D01*
X143767142Y-65310214D01*
X143671904Y-65262595D01*
X143481428Y-65262595D01*
X143386190Y-65310214D01*
X143338571Y-65357833D01*
X143290952Y-65453071D01*
X131902142Y-45958357D02*
X131949761Y-46005976D01*
X131997380Y-46148833D01*
X131997380Y-46244071D01*
X131949761Y-46386928D01*
X131854523Y-46482166D01*
X131759285Y-46529785D01*
X131568809Y-46577404D01*
X131425952Y-46577404D01*
X131235476Y-46529785D01*
X131140238Y-46482166D01*
X131045000Y-46386928D01*
X130997380Y-46244071D01*
X130997380Y-46148833D01*
X131045000Y-46005976D01*
X131092619Y-45958357D01*
X131997380Y-45005976D02*
X131997380Y-45577404D01*
X131997380Y-45291690D02*
X130997380Y-45291690D01*
X131140238Y-45386928D01*
X131235476Y-45482166D01*
X131283095Y-45577404D01*
X130997380Y-44672642D02*
X130997380Y-44005976D01*
X131997380Y-44434547D01*
X128070595Y-67151880D02*
X128070595Y-67961404D01*
X128118214Y-68056642D01*
X128165833Y-68104261D01*
X128261071Y-68151880D01*
X128451547Y-68151880D01*
X128546785Y-68104261D01*
X128594404Y-68056642D01*
X128642023Y-67961404D01*
X128642023Y-67151880D01*
X129546785Y-67485214D02*
X129546785Y-68151880D01*
X129308690Y-67104261D02*
X129070595Y-67818547D01*
X129689642Y-67818547D01*
X128642095Y-45927880D02*
X128642095Y-46737404D01*
X128689714Y-46832642D01*
X128737333Y-46880261D01*
X128832571Y-46927880D01*
X129023047Y-46927880D01*
X129118285Y-46880261D01*
X129165904Y-46832642D01*
X129213523Y-46737404D01*
X129213523Y-45927880D01*
X129594476Y-45927880D02*
X130213523Y-45927880D01*
X129880190Y-46308833D01*
X130023047Y-46308833D01*
X130118285Y-46356452D01*
X130165904Y-46404071D01*
X130213523Y-46499309D01*
X130213523Y-46737404D01*
X130165904Y-46832642D01*
X130118285Y-46880261D01*
X130023047Y-46927880D01*
X129737333Y-46927880D01*
X129642095Y-46880261D01*
X129594476Y-46832642D01*
X121769142Y-71445357D02*
X121816761Y-71492976D01*
X121864380Y-71635833D01*
X121864380Y-71731071D01*
X121816761Y-71873928D01*
X121721523Y-71969166D01*
X121626285Y-72016785D01*
X121435809Y-72064404D01*
X121292952Y-72064404D01*
X121102476Y-72016785D01*
X121007238Y-71969166D01*
X120912000Y-71873928D01*
X120864380Y-71731071D01*
X120864380Y-71635833D01*
X120912000Y-71492976D01*
X120959619Y-71445357D01*
X120959619Y-71064404D02*
X120912000Y-71016785D01*
X120864380Y-70921547D01*
X120864380Y-70683452D01*
X120912000Y-70588214D01*
X120959619Y-70540595D01*
X121054857Y-70492976D01*
X121150095Y-70492976D01*
X121292952Y-70540595D01*
X121864380Y-71112023D01*
X121864380Y-70492976D01*
X120959619Y-70112023D02*
X120912000Y-70064404D01*
X120864380Y-69969166D01*
X120864380Y-69731071D01*
X120912000Y-69635833D01*
X120959619Y-69588214D01*
X121054857Y-69540595D01*
X121150095Y-69540595D01*
X121292952Y-69588214D01*
X121864380Y-70159642D01*
X121864380Y-69540595D01*
X121150142Y-49696642D02*
X121102523Y-49744261D01*
X120959666Y-49791880D01*
X120864428Y-49791880D01*
X120721571Y-49744261D01*
X120626333Y-49649023D01*
X120578714Y-49553785D01*
X120531095Y-49363309D01*
X120531095Y-49220452D01*
X120578714Y-49029976D01*
X120626333Y-48934738D01*
X120721571Y-48839500D01*
X120864428Y-48791880D01*
X120959666Y-48791880D01*
X121102523Y-48839500D01*
X121150142Y-48887119D01*
X121531095Y-48887119D02*
X121578714Y-48839500D01*
X121673952Y-48791880D01*
X121912047Y-48791880D01*
X122007285Y-48839500D01*
X122054904Y-48887119D01*
X122102523Y-48982357D01*
X122102523Y-49077595D01*
X122054904Y-49220452D01*
X121483476Y-49791880D01*
X122102523Y-49791880D01*
X123054904Y-49791880D02*
X122483476Y-49791880D01*
X122769190Y-49791880D02*
X122769190Y-48791880D01*
X122673952Y-48934738D01*
X122578714Y-49029976D01*
X122483476Y-49077595D01*
X131119642Y-77700142D02*
X131072023Y-77747761D01*
X130929166Y-77795380D01*
X130833928Y-77795380D01*
X130691071Y-77747761D01*
X130595833Y-77652523D01*
X130548214Y-77557285D01*
X130500595Y-77366809D01*
X130500595Y-77223952D01*
X130548214Y-77033476D01*
X130595833Y-76938238D01*
X130691071Y-76843000D01*
X130833928Y-76795380D01*
X130929166Y-76795380D01*
X131072023Y-76843000D01*
X131119642Y-76890619D01*
X131500595Y-76890619D02*
X131548214Y-76843000D01*
X131643452Y-76795380D01*
X131881547Y-76795380D01*
X131976785Y-76843000D01*
X132024404Y-76890619D01*
X132072023Y-76985857D01*
X132072023Y-77081095D01*
X132024404Y-77223952D01*
X131452976Y-77795380D01*
X132072023Y-77795380D01*
X132691071Y-76795380D02*
X132786309Y-76795380D01*
X132881547Y-76843000D01*
X132929166Y-76890619D01*
X132976785Y-76985857D01*
X133024404Y-77176333D01*
X133024404Y-77414428D01*
X132976785Y-77604904D01*
X132929166Y-77700142D01*
X132881547Y-77747761D01*
X132786309Y-77795380D01*
X132691071Y-77795380D01*
X132595833Y-77747761D01*
X132548214Y-77700142D01*
X132500595Y-77604904D01*
X132452976Y-77414428D01*
X132452976Y-77176333D01*
X132500595Y-76985857D01*
X132548214Y-76890619D01*
X132595833Y-76843000D01*
X132691071Y-76795380D01*
X126293642Y-66778142D02*
X126246023Y-66825761D01*
X126103166Y-66873380D01*
X126007928Y-66873380D01*
X125865071Y-66825761D01*
X125769833Y-66730523D01*
X125722214Y-66635285D01*
X125674595Y-66444809D01*
X125674595Y-66301952D01*
X125722214Y-66111476D01*
X125769833Y-66016238D01*
X125865071Y-65921000D01*
X126007928Y-65873380D01*
X126103166Y-65873380D01*
X126246023Y-65921000D01*
X126293642Y-65968619D01*
X127246023Y-66873380D02*
X126674595Y-66873380D01*
X126960309Y-66873380D02*
X126960309Y-65873380D01*
X126865071Y-66016238D01*
X126769833Y-66111476D01*
X126674595Y-66159095D01*
X127722214Y-66873380D02*
X127912690Y-66873380D01*
X128007928Y-66825761D01*
X128055547Y-66778142D01*
X128150785Y-66635285D01*
X128198404Y-66444809D01*
X128198404Y-66063857D01*
X128150785Y-65968619D01*
X128103166Y-65921000D01*
X128007928Y-65873380D01*
X127817452Y-65873380D01*
X127722214Y-65921000D01*
X127674595Y-65968619D01*
X127626976Y-66063857D01*
X127626976Y-66301952D01*
X127674595Y-66397190D01*
X127722214Y-66444809D01*
X127817452Y-66492428D01*
X128007928Y-66492428D01*
X128103166Y-66444809D01*
X128150785Y-66397190D01*
X128198404Y-66301952D01*
X124309142Y-43251357D02*
X124356761Y-43298976D01*
X124404380Y-43441833D01*
X124404380Y-43537071D01*
X124356761Y-43679928D01*
X124261523Y-43775166D01*
X124166285Y-43822785D01*
X123975809Y-43870404D01*
X123832952Y-43870404D01*
X123642476Y-43822785D01*
X123547238Y-43775166D01*
X123452000Y-43679928D01*
X123404380Y-43537071D01*
X123404380Y-43441833D01*
X123452000Y-43298976D01*
X123499619Y-43251357D01*
X124404380Y-42298976D02*
X124404380Y-42870404D01*
X124404380Y-42584690D02*
X123404380Y-42584690D01*
X123547238Y-42679928D01*
X123642476Y-42775166D01*
X123690095Y-42870404D01*
X123404380Y-41394214D02*
X123404380Y-41870404D01*
X123880571Y-41918023D01*
X123832952Y-41870404D01*
X123785333Y-41775166D01*
X123785333Y-41537071D01*
X123832952Y-41441833D01*
X123880571Y-41394214D01*
X123975809Y-41346595D01*
X124213904Y-41346595D01*
X124309142Y-41394214D01*
X124356761Y-41441833D01*
X124404380Y-41537071D01*
X124404380Y-41775166D01*
X124356761Y-41870404D01*
X124309142Y-41918023D01*
X123420142Y-64365166D02*
X123467761Y-64412785D01*
X123515380Y-64555642D01*
X123515380Y-64650880D01*
X123467761Y-64793738D01*
X123372523Y-64888976D01*
X123277285Y-64936595D01*
X123086809Y-64984214D01*
X122943952Y-64984214D01*
X122753476Y-64936595D01*
X122658238Y-64888976D01*
X122563000Y-64793738D01*
X122515380Y-64650880D01*
X122515380Y-64555642D01*
X122563000Y-64412785D01*
X122610619Y-64365166D01*
X123515380Y-63888976D02*
X123515380Y-63698500D01*
X123467761Y-63603261D01*
X123420142Y-63555642D01*
X123277285Y-63460404D01*
X123086809Y-63412785D01*
X122705857Y-63412785D01*
X122610619Y-63460404D01*
X122563000Y-63508023D01*
X122515380Y-63603261D01*
X122515380Y-63793738D01*
X122563000Y-63888976D01*
X122610619Y-63936595D01*
X122705857Y-63984214D01*
X122943952Y-63984214D01*
X123039190Y-63936595D01*
X123086809Y-63888976D01*
X123134428Y-63793738D01*
X123134428Y-63603261D01*
X123086809Y-63508023D01*
X123039190Y-63460404D01*
X122943952Y-63412785D01*
X126198333Y-54713142D02*
X126150714Y-54760761D01*
X126007857Y-54808380D01*
X125912619Y-54808380D01*
X125769761Y-54760761D01*
X125674523Y-54665523D01*
X125626904Y-54570285D01*
X125579285Y-54379809D01*
X125579285Y-54236952D01*
X125626904Y-54046476D01*
X125674523Y-53951238D01*
X125769761Y-53856000D01*
X125912619Y-53808380D01*
X126007857Y-53808380D01*
X126150714Y-53856000D01*
X126198333Y-53903619D01*
X126531666Y-53808380D02*
X127198333Y-53808380D01*
X126769761Y-54808380D01*
X118951476Y-87173380D02*
X118951476Y-87887666D01*
X118903857Y-88030523D01*
X118808619Y-88125761D01*
X118665761Y-88173380D01*
X118570523Y-88173380D01*
X119951476Y-88173380D02*
X119380047Y-88173380D01*
X119665761Y-88173380D02*
X119665761Y-87173380D01*
X119570523Y-87316238D01*
X119475285Y-87411476D01*
X119380047Y-87459095D01*
X120332428Y-87268619D02*
X120380047Y-87221000D01*
X120475285Y-87173380D01*
X120713380Y-87173380D01*
X120808619Y-87221000D01*
X120856238Y-87268619D01*
X120903857Y-87363857D01*
X120903857Y-87459095D01*
X120856238Y-87601952D01*
X120284809Y-88173380D01*
X120903857Y-88173380D01*
X128222476Y-87173380D02*
X128222476Y-87887666D01*
X128174857Y-88030523D01*
X128079619Y-88125761D01*
X127936761Y-88173380D01*
X127841523Y-88173380D01*
X129222476Y-88173380D02*
X128651047Y-88173380D01*
X128936761Y-88173380D02*
X128936761Y-87173380D01*
X128841523Y-87316238D01*
X128746285Y-87411476D01*
X128651047Y-87459095D01*
X130174857Y-88173380D02*
X129603428Y-88173380D01*
X129889142Y-88173380D02*
X129889142Y-87173380D01*
X129793904Y-87316238D01*
X129698666Y-87411476D01*
X129603428Y-87459095D01*
X128158976Y-33071380D02*
X128158976Y-33785666D01*
X128111357Y-33928523D01*
X128016119Y-34023761D01*
X127873261Y-34071380D01*
X127778023Y-34071380D01*
X129158976Y-34071380D02*
X128587547Y-34071380D01*
X128873261Y-34071380D02*
X128873261Y-33071380D01*
X128778023Y-33214238D01*
X128682785Y-33309476D01*
X128587547Y-33357095D01*
X129778023Y-33071380D02*
X129873261Y-33071380D01*
X129968500Y-33119000D01*
X130016119Y-33166619D01*
X130063738Y-33261857D01*
X130111357Y-33452333D01*
X130111357Y-33690428D01*
X130063738Y-33880904D01*
X130016119Y-33976142D01*
X129968500Y-34023761D01*
X129873261Y-34071380D01*
X129778023Y-34071380D01*
X129682785Y-34023761D01*
X129635166Y-33976142D01*
X129587547Y-33880904D01*
X129539928Y-33690428D01*
X129539928Y-33452333D01*
X129587547Y-33261857D01*
X129635166Y-33166619D01*
X129682785Y-33119000D01*
X129778023Y-33071380D01*
X119681666Y-33071380D02*
X119681666Y-33785666D01*
X119634047Y-33928523D01*
X119538809Y-34023761D01*
X119395952Y-34071380D01*
X119300714Y-34071380D01*
X120205476Y-34071380D02*
X120395952Y-34071380D01*
X120491190Y-34023761D01*
X120538809Y-33976142D01*
X120634047Y-33833285D01*
X120681666Y-33642809D01*
X120681666Y-33261857D01*
X120634047Y-33166619D01*
X120586428Y-33119000D01*
X120491190Y-33071380D01*
X120300714Y-33071380D01*
X120205476Y-33119000D01*
X120157857Y-33166619D01*
X120110238Y-33261857D01*
X120110238Y-33499952D01*
X120157857Y-33595190D01*
X120205476Y-33642809D01*
X120300714Y-33690428D01*
X120491190Y-33690428D01*
X120586428Y-33642809D01*
X120634047Y-33595190D01*
X120681666Y-33499952D01*
X93583166Y-33007880D02*
X93583166Y-33722166D01*
X93535547Y-33865023D01*
X93440309Y-33960261D01*
X93297452Y-34007880D01*
X93202214Y-34007880D01*
X94202214Y-33436452D02*
X94106976Y-33388833D01*
X94059357Y-33341214D01*
X94011738Y-33245976D01*
X94011738Y-33198357D01*
X94059357Y-33103119D01*
X94106976Y-33055500D01*
X94202214Y-33007880D01*
X94392690Y-33007880D01*
X94487928Y-33055500D01*
X94535547Y-33103119D01*
X94583166Y-33198357D01*
X94583166Y-33245976D01*
X94535547Y-33341214D01*
X94487928Y-33388833D01*
X94392690Y-33436452D01*
X94202214Y-33436452D01*
X94106976Y-33484071D01*
X94059357Y-33531690D01*
X94011738Y-33626928D01*
X94011738Y-33817404D01*
X94059357Y-33912642D01*
X94106976Y-33960261D01*
X94202214Y-34007880D01*
X94392690Y-34007880D01*
X94487928Y-33960261D01*
X94535547Y-33912642D01*
X94583166Y-33817404D01*
X94583166Y-33626928D01*
X94535547Y-33531690D01*
X94487928Y-33484071D01*
X94392690Y-33436452D01*
X101203166Y-33007880D02*
X101203166Y-33722166D01*
X101155547Y-33865023D01*
X101060309Y-33960261D01*
X100917452Y-34007880D01*
X100822214Y-34007880D01*
X101584119Y-33007880D02*
X102250785Y-33007880D01*
X101822214Y-34007880D01*
X147621666Y-70726880D02*
X147621666Y-71441166D01*
X147574047Y-71584023D01*
X147478809Y-71679261D01*
X147335952Y-71726880D01*
X147240714Y-71726880D01*
X148526428Y-70726880D02*
X148335952Y-70726880D01*
X148240714Y-70774500D01*
X148193095Y-70822119D01*
X148097857Y-70964976D01*
X148050238Y-71155452D01*
X148050238Y-71536404D01*
X148097857Y-71631642D01*
X148145476Y-71679261D01*
X148240714Y-71726880D01*
X148431190Y-71726880D01*
X148526428Y-71679261D01*
X148574047Y-71631642D01*
X148621666Y-71536404D01*
X148621666Y-71298309D01*
X148574047Y-71203071D01*
X148526428Y-71155452D01*
X148431190Y-71107833D01*
X148240714Y-71107833D01*
X148145476Y-71155452D01*
X148097857Y-71203071D01*
X148050238Y-71298309D01*
X145780166Y-59741380D02*
X145780166Y-60455666D01*
X145732547Y-60598523D01*
X145637309Y-60693761D01*
X145494452Y-60741380D01*
X145399214Y-60741380D01*
X146732547Y-59741380D02*
X146256357Y-59741380D01*
X146208738Y-60217571D01*
X146256357Y-60169952D01*
X146351595Y-60122333D01*
X146589690Y-60122333D01*
X146684928Y-60169952D01*
X146732547Y-60217571D01*
X146780166Y-60312809D01*
X146780166Y-60550904D01*
X146732547Y-60646142D01*
X146684928Y-60693761D01*
X146589690Y-60741380D01*
X146351595Y-60741380D01*
X146256357Y-60693761D01*
X146208738Y-60646142D01*
X147621666Y-49517880D02*
X147621666Y-50232166D01*
X147574047Y-50375023D01*
X147478809Y-50470261D01*
X147335952Y-50517880D01*
X147240714Y-50517880D01*
X148526428Y-49851214D02*
X148526428Y-50517880D01*
X148288333Y-49470261D02*
X148050238Y-50184547D01*
X148669285Y-50184547D01*
X124960214Y-59824880D02*
X124960214Y-58824880D01*
X125198309Y-58824880D01*
X125341166Y-58872500D01*
X125436404Y-58967738D01*
X125484023Y-59062976D01*
X125531642Y-59253452D01*
X125531642Y-59396309D01*
X125484023Y-59586785D01*
X125436404Y-59682023D01*
X125341166Y-59777261D01*
X125198309Y-59824880D01*
X124960214Y-59824880D01*
X126484023Y-59824880D02*
X125912595Y-59824880D01*
X126198309Y-59824880D02*
X126198309Y-58824880D01*
X126103071Y-58967738D01*
X126007833Y-59062976D01*
X125912595Y-59110595D01*
X127103071Y-58824880D02*
X127198309Y-58824880D01*
X127293547Y-58872500D01*
X127341166Y-58920119D01*
X127388785Y-59015357D01*
X127436404Y-59205833D01*
X127436404Y-59443928D01*
X127388785Y-59634404D01*
X127341166Y-59729642D01*
X127293547Y-59777261D01*
X127198309Y-59824880D01*
X127103071Y-59824880D01*
X127007833Y-59777261D01*
X126960214Y-59729642D01*
X126912595Y-59634404D01*
X126864976Y-59443928D01*
X126864976Y-59205833D01*
X126912595Y-59015357D01*
X126960214Y-58920119D01*
X127007833Y-58872500D01*
X127103071Y-58824880D01*
X130706904Y-59888380D02*
X130706904Y-58888380D01*
X130945000Y-58888380D01*
X131087857Y-58936000D01*
X131183095Y-59031238D01*
X131230714Y-59126476D01*
X131278333Y-59316952D01*
X131278333Y-59459809D01*
X131230714Y-59650285D01*
X131183095Y-59745523D01*
X131087857Y-59840761D01*
X130945000Y-59888380D01*
X130706904Y-59888380D01*
X131754523Y-59888380D02*
X131945000Y-59888380D01*
X132040238Y-59840761D01*
X132087857Y-59793142D01*
X132183095Y-59650285D01*
X132230714Y-59459809D01*
X132230714Y-59078857D01*
X132183095Y-58983619D01*
X132135476Y-58936000D01*
X132040238Y-58888380D01*
X131849761Y-58888380D01*
X131754523Y-58936000D01*
X131706904Y-58983619D01*
X131659285Y-59078857D01*
X131659285Y-59316952D01*
X131706904Y-59412190D01*
X131754523Y-59459809D01*
X131849761Y-59507428D01*
X132040238Y-59507428D01*
X132135476Y-59459809D01*
X132183095Y-59412190D01*
X132230714Y-59316952D01*
X128420904Y-58999380D02*
X128420904Y-57999380D01*
X128659000Y-57999380D01*
X128801857Y-58047000D01*
X128897095Y-58142238D01*
X128944714Y-58237476D01*
X128992333Y-58427952D01*
X128992333Y-58570809D01*
X128944714Y-58761285D01*
X128897095Y-58856523D01*
X128801857Y-58951761D01*
X128659000Y-58999380D01*
X128420904Y-58999380D01*
X129563761Y-58427952D02*
X129468523Y-58380333D01*
X129420904Y-58332714D01*
X129373285Y-58237476D01*
X129373285Y-58189857D01*
X129420904Y-58094619D01*
X129468523Y-58047000D01*
X129563761Y-57999380D01*
X129754238Y-57999380D01*
X129849476Y-58047000D01*
X129897095Y-58094619D01*
X129944714Y-58189857D01*
X129944714Y-58237476D01*
X129897095Y-58332714D01*
X129849476Y-58380333D01*
X129754238Y-58427952D01*
X129563761Y-58427952D01*
X129468523Y-58475571D01*
X129420904Y-58523190D01*
X129373285Y-58618428D01*
X129373285Y-58808904D01*
X129420904Y-58904142D01*
X129468523Y-58951761D01*
X129563761Y-58999380D01*
X129754238Y-58999380D01*
X129849476Y-58951761D01*
X129897095Y-58904142D01*
X129944714Y-58808904D01*
X129944714Y-58618428D01*
X129897095Y-58523190D01*
X129849476Y-58475571D01*
X129754238Y-58427952D01*
X123213904Y-58999380D02*
X123213904Y-57999380D01*
X123452000Y-57999380D01*
X123594857Y-58047000D01*
X123690095Y-58142238D01*
X123737714Y-58237476D01*
X123785333Y-58427952D01*
X123785333Y-58570809D01*
X123737714Y-58761285D01*
X123690095Y-58856523D01*
X123594857Y-58951761D01*
X123452000Y-58999380D01*
X123213904Y-58999380D01*
X124118666Y-57999380D02*
X124785333Y-57999380D01*
X124356761Y-58999380D01*
X123728642Y-87678142D02*
X123681023Y-87725761D01*
X123538166Y-87773380D01*
X123442928Y-87773380D01*
X123300071Y-87725761D01*
X123204833Y-87630523D01*
X123157214Y-87535285D01*
X123109595Y-87344809D01*
X123109595Y-87201952D01*
X123157214Y-87011476D01*
X123204833Y-86916238D01*
X123300071Y-86821000D01*
X123442928Y-86773380D01*
X123538166Y-86773380D01*
X123681023Y-86821000D01*
X123728642Y-86868619D01*
X124681023Y-87773380D02*
X124109595Y-87773380D01*
X124395309Y-87773380D02*
X124395309Y-86773380D01*
X124300071Y-86916238D01*
X124204833Y-87011476D01*
X124109595Y-87059095D01*
X125538166Y-87106714D02*
X125538166Y-87773380D01*
X125300071Y-86725761D02*
X125061976Y-87440047D01*
X125681023Y-87440047D01*
X123842142Y-29876142D02*
X123794523Y-29923761D01*
X123651666Y-29971380D01*
X123556428Y-29971380D01*
X123413571Y-29923761D01*
X123318333Y-29828523D01*
X123270714Y-29733285D01*
X123223095Y-29542809D01*
X123223095Y-29399952D01*
X123270714Y-29209476D01*
X123318333Y-29114238D01*
X123413571Y-29019000D01*
X123556428Y-28971380D01*
X123651666Y-28971380D01*
X123794523Y-29019000D01*
X123842142Y-29066619D01*
X124794523Y-29971380D02*
X124223095Y-29971380D01*
X124508809Y-29971380D02*
X124508809Y-28971380D01*
X124413571Y-29114238D01*
X124318333Y-29209476D01*
X124223095Y-29257095D01*
X125127857Y-28971380D02*
X125746904Y-28971380D01*
X125413571Y-29352333D01*
X125556428Y-29352333D01*
X125651666Y-29399952D01*
X125699285Y-29447571D01*
X125746904Y-29542809D01*
X125746904Y-29780904D01*
X125699285Y-29876142D01*
X125651666Y-29923761D01*
X125556428Y-29971380D01*
X125270714Y-29971380D01*
X125175476Y-29923761D01*
X125127857Y-29876142D01*
X118927642Y-34647142D02*
X118880023Y-34694761D01*
X118737166Y-34742380D01*
X118641928Y-34742380D01*
X118499071Y-34694761D01*
X118403833Y-34599523D01*
X118356214Y-34504285D01*
X118308595Y-34313809D01*
X118308595Y-34170952D01*
X118356214Y-33980476D01*
X118403833Y-33885238D01*
X118499071Y-33790000D01*
X118641928Y-33742380D01*
X118737166Y-33742380D01*
X118880023Y-33790000D01*
X118927642Y-33837619D01*
X119880023Y-34742380D02*
X119308595Y-34742380D01*
X119594309Y-34742380D02*
X119594309Y-33742380D01*
X119499071Y-33885238D01*
X119403833Y-33980476D01*
X119308595Y-34028095D01*
X120832404Y-34742380D02*
X120260976Y-34742380D01*
X120546690Y-34742380D02*
X120546690Y-33742380D01*
X120451452Y-33885238D01*
X120356214Y-33980476D01*
X120260976Y-34028095D01*
X112339380Y-61190166D02*
X111863190Y-61523500D01*
X112339380Y-61761595D02*
X111339380Y-61761595D01*
X111339380Y-61380642D01*
X111387000Y-61285404D01*
X111434619Y-61237785D01*
X111529857Y-61190166D01*
X111672714Y-61190166D01*
X111767952Y-61237785D01*
X111815571Y-61285404D01*
X111863190Y-61380642D01*
X111863190Y-61761595D01*
X111767952Y-60618738D02*
X111720333Y-60713976D01*
X111672714Y-60761595D01*
X111577476Y-60809214D01*
X111529857Y-60809214D01*
X111434619Y-60761595D01*
X111387000Y-60713976D01*
X111339380Y-60618738D01*
X111339380Y-60428261D01*
X111387000Y-60333023D01*
X111434619Y-60285404D01*
X111529857Y-60237785D01*
X111577476Y-60237785D01*
X111672714Y-60285404D01*
X111720333Y-60333023D01*
X111767952Y-60428261D01*
X111767952Y-60618738D01*
X111815571Y-60713976D01*
X111863190Y-60761595D01*
X111958428Y-60809214D01*
X112148904Y-60809214D01*
X112244142Y-60761595D01*
X112291761Y-60713976D01*
X112339380Y-60618738D01*
X112339380Y-60428261D01*
X112291761Y-60333023D01*
X112244142Y-60285404D01*
X112148904Y-60237785D01*
X111958428Y-60237785D01*
X111863190Y-60285404D01*
X111815571Y-60333023D01*
X111767952Y-60428261D01*
X112402880Y-56808666D02*
X111926690Y-57142000D01*
X112402880Y-57380095D02*
X111402880Y-57380095D01*
X111402880Y-56999142D01*
X111450500Y-56903904D01*
X111498119Y-56856285D01*
X111593357Y-56808666D01*
X111736214Y-56808666D01*
X111831452Y-56856285D01*
X111879071Y-56903904D01*
X111926690Y-56999142D01*
X111926690Y-57380095D01*
X111402880Y-56475333D02*
X111402880Y-55808666D01*
X112402880Y-56237238D01*
X84399380Y-42902166D02*
X83923190Y-43235500D01*
X84399380Y-43473595D02*
X83399380Y-43473595D01*
X83399380Y-43092642D01*
X83447000Y-42997404D01*
X83494619Y-42949785D01*
X83589857Y-42902166D01*
X83732714Y-42902166D01*
X83827952Y-42949785D01*
X83875571Y-42997404D01*
X83923190Y-43092642D01*
X83923190Y-43473595D01*
X83399380Y-42045023D02*
X83399380Y-42235500D01*
X83447000Y-42330738D01*
X83494619Y-42378357D01*
X83637476Y-42473595D01*
X83827952Y-42521214D01*
X84208904Y-42521214D01*
X84304142Y-42473595D01*
X84351761Y-42425976D01*
X84399380Y-42330738D01*
X84399380Y-42140261D01*
X84351761Y-42045023D01*
X84304142Y-41997404D01*
X84208904Y-41949785D01*
X83970809Y-41949785D01*
X83875571Y-41997404D01*
X83827952Y-42045023D01*
X83780333Y-42140261D01*
X83780333Y-42330738D01*
X83827952Y-42425976D01*
X83875571Y-42473595D01*
X83970809Y-42521214D01*
X89622333Y-72651880D02*
X89289000Y-72175690D01*
X89050904Y-72651880D02*
X89050904Y-71651880D01*
X89431857Y-71651880D01*
X89527095Y-71699500D01*
X89574714Y-71747119D01*
X89622333Y-71842357D01*
X89622333Y-71985214D01*
X89574714Y-72080452D01*
X89527095Y-72128071D01*
X89431857Y-72175690D01*
X89050904Y-72175690D01*
X90527095Y-71651880D02*
X90050904Y-71651880D01*
X90003285Y-72128071D01*
X90050904Y-72080452D01*
X90146142Y-72032833D01*
X90384238Y-72032833D01*
X90479476Y-72080452D01*
X90527095Y-72128071D01*
X90574714Y-72223309D01*
X90574714Y-72461404D01*
X90527095Y-72556642D01*
X90479476Y-72604261D01*
X90384238Y-72651880D01*
X90146142Y-72651880D01*
X90050904Y-72604261D01*
X90003285Y-72556642D01*
X119419619Y-72485238D02*
X119372000Y-72580476D01*
X119276761Y-72675714D01*
X119133904Y-72818571D01*
X119086285Y-72913809D01*
X119086285Y-73009047D01*
X119324380Y-72961428D02*
X119276761Y-73056666D01*
X119181523Y-73151904D01*
X118991047Y-73199523D01*
X118657714Y-73199523D01*
X118467238Y-73151904D01*
X118372000Y-73056666D01*
X118324380Y-72961428D01*
X118324380Y-72770952D01*
X118372000Y-72675714D01*
X118467238Y-72580476D01*
X118657714Y-72532857D01*
X118991047Y-72532857D01*
X119181523Y-72580476D01*
X119276761Y-72675714D01*
X119324380Y-72770952D01*
X119324380Y-72961428D01*
X118419619Y-72151904D02*
X118372000Y-72104285D01*
X118324380Y-72009047D01*
X118324380Y-71770952D01*
X118372000Y-71675714D01*
X118419619Y-71628095D01*
X118514857Y-71580476D01*
X118610095Y-71580476D01*
X118752952Y-71628095D01*
X119324380Y-72199523D01*
X119324380Y-71580476D01*
X118594119Y-45688238D02*
X118546500Y-45783476D01*
X118451261Y-45878714D01*
X118308404Y-46021571D01*
X118260785Y-46116809D01*
X118260785Y-46212047D01*
X118498880Y-46164428D02*
X118451261Y-46259666D01*
X118356023Y-46354904D01*
X118165547Y-46402523D01*
X117832214Y-46402523D01*
X117641738Y-46354904D01*
X117546500Y-46259666D01*
X117498880Y-46164428D01*
X117498880Y-45973952D01*
X117546500Y-45878714D01*
X117641738Y-45783476D01*
X117832214Y-45735857D01*
X118165547Y-45735857D01*
X118356023Y-45783476D01*
X118451261Y-45878714D01*
X118498880Y-45973952D01*
X118498880Y-46164428D01*
X118498880Y-44783476D02*
X118498880Y-45354904D01*
X118498880Y-45069190D02*
X117498880Y-45069190D01*
X117641738Y-45164428D01*
X117736976Y-45259666D01*
X117784595Y-45354904D01*
X121308904Y-59888380D02*
X121308904Y-58888380D01*
X121547000Y-58888380D01*
X121689857Y-58936000D01*
X121785095Y-59031238D01*
X121832714Y-59126476D01*
X121880333Y-59316952D01*
X121880333Y-59459809D01*
X121832714Y-59650285D01*
X121785095Y-59745523D01*
X121689857Y-59840761D01*
X121547000Y-59888380D01*
X121308904Y-59888380D01*
X122737476Y-58888380D02*
X122547000Y-58888380D01*
X122451761Y-58936000D01*
X122404142Y-58983619D01*
X122308904Y-59126476D01*
X122261285Y-59316952D01*
X122261285Y-59697904D01*
X122308904Y-59793142D01*
X122356523Y-59840761D01*
X122451761Y-59888380D01*
X122642238Y-59888380D01*
X122737476Y-59840761D01*
X122785095Y-59793142D01*
X122832714Y-59697904D01*
X122832714Y-59459809D01*
X122785095Y-59364571D01*
X122737476Y-59316952D01*
X122642238Y-59269333D01*
X122451761Y-59269333D01*
X122356523Y-59316952D01*
X122308904Y-59364571D01*
X122261285Y-59459809D01*
X117371904Y-59062880D02*
X117371904Y-58062880D01*
X117610000Y-58062880D01*
X117752857Y-58110500D01*
X117848095Y-58205738D01*
X117895714Y-58300976D01*
X117943333Y-58491452D01*
X117943333Y-58634309D01*
X117895714Y-58824785D01*
X117848095Y-58920023D01*
X117752857Y-59015261D01*
X117610000Y-59062880D01*
X117371904Y-59062880D01*
X118848095Y-58062880D02*
X118371904Y-58062880D01*
X118324285Y-58539071D01*
X118371904Y-58491452D01*
X118467142Y-58443833D01*
X118705238Y-58443833D01*
X118800476Y-58491452D01*
X118848095Y-58539071D01*
X118895714Y-58634309D01*
X118895714Y-58872404D01*
X118848095Y-58967642D01*
X118800476Y-59015261D01*
X118705238Y-59062880D01*
X118467142Y-59062880D01*
X118371904Y-59015261D01*
X118324285Y-58967642D01*
X89685833Y-44997642D02*
X89638214Y-45045261D01*
X89495357Y-45092880D01*
X89400119Y-45092880D01*
X89257261Y-45045261D01*
X89162023Y-44950023D01*
X89114404Y-44854785D01*
X89066785Y-44664309D01*
X89066785Y-44521452D01*
X89114404Y-44330976D01*
X89162023Y-44235738D01*
X89257261Y-44140500D01*
X89400119Y-44092880D01*
X89495357Y-44092880D01*
X89638214Y-44140500D01*
X89685833Y-44188119D01*
X90542976Y-44092880D02*
X90352500Y-44092880D01*
X90257261Y-44140500D01*
X90209642Y-44188119D01*
X90114404Y-44330976D01*
X90066785Y-44521452D01*
X90066785Y-44902404D01*
X90114404Y-44997642D01*
X90162023Y-45045261D01*
X90257261Y-45092880D01*
X90447738Y-45092880D01*
X90542976Y-45045261D01*
X90590595Y-44997642D01*
X90638214Y-44902404D01*
X90638214Y-44664309D01*
X90590595Y-44569071D01*
X90542976Y-44521452D01*
X90447738Y-44473833D01*
X90257261Y-44473833D01*
X90162023Y-44521452D01*
X90114404Y-44569071D01*
X90066785Y-44664309D01*
X84304142Y-74652166D02*
X84351761Y-74699785D01*
X84399380Y-74842642D01*
X84399380Y-74937880D01*
X84351761Y-75080738D01*
X84256523Y-75175976D01*
X84161285Y-75223595D01*
X83970809Y-75271214D01*
X83827952Y-75271214D01*
X83637476Y-75223595D01*
X83542238Y-75175976D01*
X83447000Y-75080738D01*
X83399380Y-74937880D01*
X83399380Y-74842642D01*
X83447000Y-74699785D01*
X83494619Y-74652166D01*
X83399380Y-73747404D02*
X83399380Y-74223595D01*
X83875571Y-74271214D01*
X83827952Y-74223595D01*
X83780333Y-74128357D01*
X83780333Y-73890261D01*
X83827952Y-73795023D01*
X83875571Y-73747404D01*
X83970809Y-73699785D01*
X84208904Y-73699785D01*
X84304142Y-73747404D01*
X84351761Y-73795023D01*
X84399380Y-73890261D01*
X84399380Y-74128357D01*
X84351761Y-74223595D01*
X84304142Y-74271214D01*
X82624142Y-53782166D02*
X82671761Y-53829785D01*
X82719380Y-53972642D01*
X82719380Y-54067880D01*
X82671761Y-54210738D01*
X82576523Y-54305976D01*
X82481285Y-54353595D01*
X82290809Y-54401214D01*
X82147952Y-54401214D01*
X81957476Y-54353595D01*
X81862238Y-54305976D01*
X81767000Y-54210738D01*
X81719380Y-54067880D01*
X81719380Y-53972642D01*
X81767000Y-53829785D01*
X81814619Y-53782166D01*
X82052714Y-52925023D02*
X82719380Y-52925023D01*
X81671761Y-53163119D02*
X82386047Y-53401214D01*
X82386047Y-52782166D01*
X82624142Y-63518166D02*
X82671761Y-63565785D01*
X82719380Y-63708642D01*
X82719380Y-63803880D01*
X82671761Y-63946738D01*
X82576523Y-64041976D01*
X82481285Y-64089595D01*
X82290809Y-64137214D01*
X82147952Y-64137214D01*
X81957476Y-64089595D01*
X81862238Y-64041976D01*
X81767000Y-63946738D01*
X81719380Y-63803880D01*
X81719380Y-63708642D01*
X81767000Y-63565785D01*
X81814619Y-63518166D01*
X81719380Y-63184833D02*
X81719380Y-62565785D01*
X82100333Y-62899119D01*
X82100333Y-62756261D01*
X82147952Y-62661023D01*
X82195571Y-62613404D01*
X82290809Y-62565785D01*
X82528904Y-62565785D01*
X82624142Y-62613404D01*
X82671761Y-62661023D01*
X82719380Y-62756261D01*
X82719380Y-63041976D01*
X82671761Y-63137214D01*
X82624142Y-63184833D01*
X117348095Y-76668380D02*
X117348095Y-77477904D01*
X117395714Y-77573142D01*
X117443333Y-77620761D01*
X117538571Y-77668380D01*
X117729047Y-77668380D01*
X117824285Y-77620761D01*
X117871904Y-77573142D01*
X117919523Y-77477904D01*
X117919523Y-76668380D01*
X118348095Y-76763619D02*
X118395714Y-76716000D01*
X118490952Y-76668380D01*
X118729047Y-76668380D01*
X118824285Y-76716000D01*
X118871904Y-76763619D01*
X118919523Y-76858857D01*
X118919523Y-76954095D01*
X118871904Y-77096952D01*
X118300476Y-77668380D01*
X118919523Y-77668380D01*
X117475095Y-39076380D02*
X117475095Y-39885904D01*
X117522714Y-39981142D01*
X117570333Y-40028761D01*
X117665571Y-40076380D01*
X117856047Y-40076380D01*
X117951285Y-40028761D01*
X117998904Y-39981142D01*
X118046523Y-39885904D01*
X118046523Y-39076380D01*
X119046523Y-40076380D02*
X118475095Y-40076380D01*
X118760809Y-40076380D02*
X118760809Y-39076380D01*
X118665571Y-39219238D01*
X118570333Y-39314476D01*
X118475095Y-39362095D01*
X94054704Y-55530380D02*
X94054704Y-54530380D01*
X94292800Y-54530380D01*
X94435657Y-54578000D01*
X94530895Y-54673238D01*
X94578514Y-54768476D01*
X94626133Y-54958952D01*
X94626133Y-55101809D01*
X94578514Y-55292285D01*
X94530895Y-55387523D01*
X94435657Y-55482761D01*
X94292800Y-55530380D01*
X94054704Y-55530380D01*
X95483276Y-54863714D02*
X95483276Y-55530380D01*
X95245180Y-54482761D02*
X95007085Y-55197047D01*
X95626133Y-55197047D01*
X94054704Y-46883580D02*
X94054704Y-45883580D01*
X94292800Y-45883580D01*
X94435657Y-45931200D01*
X94530895Y-46026438D01*
X94578514Y-46121676D01*
X94626133Y-46312152D01*
X94626133Y-46455009D01*
X94578514Y-46645485D01*
X94530895Y-46740723D01*
X94435657Y-46835961D01*
X94292800Y-46883580D01*
X94054704Y-46883580D01*
X94959466Y-45883580D02*
X95578514Y-45883580D01*
X95245180Y-46264533D01*
X95388038Y-46264533D01*
X95483276Y-46312152D01*
X95530895Y-46359771D01*
X95578514Y-46455009D01*
X95578514Y-46693104D01*
X95530895Y-46788342D01*
X95483276Y-46835961D01*
X95388038Y-46883580D01*
X95102323Y-46883580D01*
X95007085Y-46835961D01*
X94959466Y-46788342D01*
X94156304Y-61107580D02*
X94156304Y-60107580D01*
X94394400Y-60107580D01*
X94537257Y-60155200D01*
X94632495Y-60250438D01*
X94680114Y-60345676D01*
X94727733Y-60536152D01*
X94727733Y-60679009D01*
X94680114Y-60869485D01*
X94632495Y-60964723D01*
X94537257Y-61059961D01*
X94394400Y-61107580D01*
X94156304Y-61107580D01*
X95108685Y-60202819D02*
X95156304Y-60155200D01*
X95251542Y-60107580D01*
X95489638Y-60107580D01*
X95584876Y-60155200D01*
X95632495Y-60202819D01*
X95680114Y-60298057D01*
X95680114Y-60393295D01*
X95632495Y-60536152D01*
X95061066Y-61107580D01*
X95680114Y-61107580D01*
X94054704Y-70149980D02*
X94054704Y-69149980D01*
X94292800Y-69149980D01*
X94435657Y-69197600D01*
X94530895Y-69292838D01*
X94578514Y-69388076D01*
X94626133Y-69578552D01*
X94626133Y-69721409D01*
X94578514Y-69911885D01*
X94530895Y-70007123D01*
X94435657Y-70102361D01*
X94292800Y-70149980D01*
X94054704Y-70149980D01*
X95578514Y-70149980D02*
X95007085Y-70149980D01*
X95292800Y-70149980D02*
X95292800Y-69149980D01*
X95197561Y-69292838D01*
X95102323Y-69388076D01*
X95007085Y-69435695D01*
X110212142Y-61533066D02*
X110259761Y-61580685D01*
X110307380Y-61723542D01*
X110307380Y-61818780D01*
X110259761Y-61961638D01*
X110164523Y-62056876D01*
X110069285Y-62104495D01*
X109878809Y-62152114D01*
X109735952Y-62152114D01*
X109545476Y-62104495D01*
X109450238Y-62056876D01*
X109355000Y-61961638D01*
X109307380Y-61818780D01*
X109307380Y-61723542D01*
X109355000Y-61580685D01*
X109402619Y-61533066D01*
X109402619Y-61152114D02*
X109355000Y-61104495D01*
X109307380Y-61009257D01*
X109307380Y-60771161D01*
X109355000Y-60675923D01*
X109402619Y-60628304D01*
X109497857Y-60580685D01*
X109593095Y-60580685D01*
X109735952Y-60628304D01*
X110307380Y-61199733D01*
X110307380Y-60580685D01*
X110212142Y-54979866D02*
X110259761Y-55027485D01*
X110307380Y-55170342D01*
X110307380Y-55265580D01*
X110259761Y-55408438D01*
X110164523Y-55503676D01*
X110069285Y-55551295D01*
X109878809Y-55598914D01*
X109735952Y-55598914D01*
X109545476Y-55551295D01*
X109450238Y-55503676D01*
X109355000Y-55408438D01*
X109307380Y-55265580D01*
X109307380Y-55170342D01*
X109355000Y-55027485D01*
X109402619Y-54979866D01*
X110307380Y-54027485D02*
X110307380Y-54598914D01*
X110307380Y-54313200D02*
X109307380Y-54313200D01*
X109450238Y-54408438D01*
X109545476Y-54503676D01*
X109593095Y-54598914D01*
X105227333Y-30107880D02*
X104894000Y-29631690D01*
X104655904Y-30107880D02*
X104655904Y-29107880D01*
X105036857Y-29107880D01*
X105132095Y-29155500D01*
X105179714Y-29203119D01*
X105227333Y-29298357D01*
X105227333Y-29441214D01*
X105179714Y-29536452D01*
X105132095Y-29584071D01*
X105036857Y-29631690D01*
X104655904Y-29631690D01*
X105560666Y-29107880D02*
X106179714Y-29107880D01*
X105846380Y-29488833D01*
X105989238Y-29488833D01*
X106084476Y-29536452D01*
X106132095Y-29584071D01*
X106179714Y-29679309D01*
X106179714Y-29917404D01*
X106132095Y-30012642D01*
X106084476Y-30060261D01*
X105989238Y-30107880D01*
X105703523Y-30107880D01*
X105608285Y-30060261D01*
X105560666Y-30012642D01*
X130802142Y-82907142D02*
X130754523Y-82954761D01*
X130611666Y-83002380D01*
X130516428Y-83002380D01*
X130373571Y-82954761D01*
X130278333Y-82859523D01*
X130230714Y-82764285D01*
X130183095Y-82573809D01*
X130183095Y-82430952D01*
X130230714Y-82240476D01*
X130278333Y-82145238D01*
X130373571Y-82050000D01*
X130516428Y-82002380D01*
X130611666Y-82002380D01*
X130754523Y-82050000D01*
X130802142Y-82097619D01*
X131754523Y-83002380D02*
X131183095Y-83002380D01*
X131468809Y-83002380D02*
X131468809Y-82002380D01*
X131373571Y-82145238D01*
X131278333Y-82240476D01*
X131183095Y-82288095D01*
X132135476Y-82097619D02*
X132183095Y-82050000D01*
X132278333Y-82002380D01*
X132516428Y-82002380D01*
X132611666Y-82050000D01*
X132659285Y-82097619D01*
X132706904Y-82192857D01*
X132706904Y-82288095D01*
X132659285Y-82430952D01*
X132087857Y-83002380D01*
X132706904Y-83002380D01*
X119308642Y-82907142D02*
X119261023Y-82954761D01*
X119118166Y-83002380D01*
X119022928Y-83002380D01*
X118880071Y-82954761D01*
X118784833Y-82859523D01*
X118737214Y-82764285D01*
X118689595Y-82573809D01*
X118689595Y-82430952D01*
X118737214Y-82240476D01*
X118784833Y-82145238D01*
X118880071Y-82050000D01*
X119022928Y-82002380D01*
X119118166Y-82002380D01*
X119261023Y-82050000D01*
X119308642Y-82097619D01*
X120261023Y-83002380D02*
X119689595Y-83002380D01*
X119975309Y-83002380D02*
X119975309Y-82002380D01*
X119880071Y-82145238D01*
X119784833Y-82240476D01*
X119689595Y-82288095D01*
X120880071Y-82002380D02*
X120975309Y-82002380D01*
X121070547Y-82050000D01*
X121118166Y-82097619D01*
X121165785Y-82192857D01*
X121213404Y-82383333D01*
X121213404Y-82621428D01*
X121165785Y-82811904D01*
X121118166Y-82907142D01*
X121070547Y-82954761D01*
X120975309Y-83002380D01*
X120880071Y-83002380D01*
X120784833Y-82954761D01*
X120737214Y-82907142D01*
X120689595Y-82811904D01*
X120641976Y-82621428D01*
X120641976Y-82383333D01*
X120689595Y-82192857D01*
X120737214Y-82097619D01*
X120784833Y-82050000D01*
X120880071Y-82002380D01*
X130897333Y-34647142D02*
X130849714Y-34694761D01*
X130706857Y-34742380D01*
X130611619Y-34742380D01*
X130468761Y-34694761D01*
X130373523Y-34599523D01*
X130325904Y-34504285D01*
X130278285Y-34313809D01*
X130278285Y-34170952D01*
X130325904Y-33980476D01*
X130373523Y-33885238D01*
X130468761Y-33790000D01*
X130611619Y-33742380D01*
X130706857Y-33742380D01*
X130849714Y-33790000D01*
X130897333Y-33837619D01*
X131468761Y-34170952D02*
X131373523Y-34123333D01*
X131325904Y-34075714D01*
X131278285Y-33980476D01*
X131278285Y-33932857D01*
X131325904Y-33837619D01*
X131373523Y-33790000D01*
X131468761Y-33742380D01*
X131659238Y-33742380D01*
X131754476Y-33790000D01*
X131802095Y-33837619D01*
X131849714Y-33932857D01*
X131849714Y-33980476D01*
X131802095Y-34075714D01*
X131754476Y-34123333D01*
X131659238Y-34170952D01*
X131468761Y-34170952D01*
X131373523Y-34218571D01*
X131325904Y-34266190D01*
X131278285Y-34361428D01*
X131278285Y-34551904D01*
X131325904Y-34647142D01*
X131373523Y-34694761D01*
X131468761Y-34742380D01*
X131659238Y-34742380D01*
X131754476Y-34694761D01*
X131802095Y-34647142D01*
X131849714Y-34551904D01*
X131849714Y-34361428D01*
X131802095Y-34266190D01*
X131754476Y-34218571D01*
X131659238Y-34170952D01*
X145391261Y-77414380D02*
X145057928Y-76938190D01*
X144819833Y-77414380D02*
X144819833Y-76414380D01*
X145200785Y-76414380D01*
X145296023Y-76462000D01*
X145343642Y-76509619D01*
X145391261Y-76604857D01*
X145391261Y-76747714D01*
X145343642Y-76842952D01*
X145296023Y-76890571D01*
X145200785Y-76938190D01*
X144819833Y-76938190D01*
X145676976Y-76414380D02*
X146010309Y-77414380D01*
X146343642Y-76414380D01*
X146629357Y-76509619D02*
X146676976Y-76462000D01*
X146772214Y-76414380D01*
X147010309Y-76414380D01*
X147105547Y-76462000D01*
X147153166Y-76509619D01*
X147200785Y-76604857D01*
X147200785Y-76700095D01*
X147153166Y-76842952D01*
X146581738Y-77414380D01*
X147200785Y-77414380D01*
X145327761Y-51760380D02*
X144994428Y-51284190D01*
X144756333Y-51760380D02*
X144756333Y-50760380D01*
X145137285Y-50760380D01*
X145232523Y-50808000D01*
X145280142Y-50855619D01*
X145327761Y-50950857D01*
X145327761Y-51093714D01*
X145280142Y-51188952D01*
X145232523Y-51236571D01*
X145137285Y-51284190D01*
X144756333Y-51284190D01*
X145613476Y-50760380D02*
X145946809Y-51760380D01*
X146280142Y-50760380D01*
X147137285Y-51760380D02*
X146565857Y-51760380D01*
X146851571Y-51760380D02*
X146851571Y-50760380D01*
X146756333Y-50903238D01*
X146661095Y-50998476D01*
X146565857Y-51046095D01*
X85645666Y-51331880D02*
X85645666Y-52046166D01*
X85598047Y-52189023D01*
X85502809Y-52284261D01*
X85359952Y-52331880D01*
X85264714Y-52331880D01*
X86026619Y-51331880D02*
X86645666Y-51331880D01*
X86312333Y-51712833D01*
X86455190Y-51712833D01*
X86550428Y-51760452D01*
X86598047Y-51808071D01*
X86645666Y-51903309D01*
X86645666Y-52141404D01*
X86598047Y-52236642D01*
X86550428Y-52284261D01*
X86455190Y-52331880D01*
X86169476Y-52331880D01*
X86074238Y-52284261D01*
X86026619Y-52236642D01*
X88606380Y-58435833D02*
X89320666Y-58435833D01*
X89463523Y-58483452D01*
X89558761Y-58578690D01*
X89606380Y-58721547D01*
X89606380Y-58816785D01*
X88701619Y-58007261D02*
X88654000Y-57959642D01*
X88606380Y-57864404D01*
X88606380Y-57626309D01*
X88654000Y-57531071D01*
X88701619Y-57483452D01*
X88796857Y-57435833D01*
X88892095Y-57435833D01*
X89034952Y-57483452D01*
X89606380Y-58054880D01*
X89606380Y-57435833D01*
X85645666Y-68921380D02*
X85645666Y-69635666D01*
X85598047Y-69778523D01*
X85502809Y-69873761D01*
X85359952Y-69921380D01*
X85264714Y-69921380D01*
X86645666Y-69921380D02*
X86074238Y-69921380D01*
X86359952Y-69921380D02*
X86359952Y-68921380D01*
X86264714Y-69064238D01*
X86169476Y-69159476D01*
X86074238Y-69207095D01*
X145288095Y-29344880D02*
X145288095Y-28344880D01*
X145288095Y-28821071D02*
X145859523Y-28821071D01*
X145859523Y-29344880D02*
X145859523Y-28344880D01*
X146764285Y-28678214D02*
X146764285Y-29344880D01*
X146526190Y-28297261D02*
X146288095Y-29011547D01*
X146907142Y-29011547D01*
X145288095Y-88590380D02*
X145288095Y-87590380D01*
X145288095Y-88066571D02*
X145859523Y-88066571D01*
X145859523Y-88590380D02*
X145859523Y-87590380D01*
X146240476Y-87590380D02*
X146859523Y-87590380D01*
X146526190Y-87971333D01*
X146669047Y-87971333D01*
X146764285Y-88018952D01*
X146811904Y-88066571D01*
X146859523Y-88161809D01*
X146859523Y-88399904D01*
X146811904Y-88495142D01*
X146764285Y-88542761D01*
X146669047Y-88590380D01*
X146383333Y-88590380D01*
X146288095Y-88542761D01*
X146240476Y-88495142D01*
X84328095Y-88653880D02*
X84328095Y-87653880D01*
X84328095Y-88130071D02*
X84899523Y-88130071D01*
X84899523Y-88653880D02*
X84899523Y-87653880D01*
X85328095Y-87749119D02*
X85375714Y-87701500D01*
X85470952Y-87653880D01*
X85709047Y-87653880D01*
X85804285Y-87701500D01*
X85851904Y-87749119D01*
X85899523Y-87844357D01*
X85899523Y-87939595D01*
X85851904Y-88082452D01*
X85280476Y-88653880D01*
X85899523Y-88653880D01*
X84391595Y-29344880D02*
X84391595Y-28344880D01*
X84391595Y-28821071D02*
X84963023Y-28821071D01*
X84963023Y-29344880D02*
X84963023Y-28344880D01*
X85963023Y-29344880D02*
X85391595Y-29344880D01*
X85677309Y-29344880D02*
X85677309Y-28344880D01*
X85582071Y-28487738D01*
X85486833Y-28582976D01*
X85391595Y-28630595D01*
M02*
