G04 #@! TF.GenerationSoftware,KiCad,Pcbnew,(5.1.10-0-10_14)*
G04 #@! TF.CreationDate,2021-05-14T17:15:12+02:00*
G04 #@! TF.ProjectId,dac-i2s-nos,6461632d-6932-4732-9d6e-6f732e6b6963,rev?*
G04 #@! TF.SameCoordinates,Original*
G04 #@! TF.FileFunction,Soldermask,Top*
G04 #@! TF.FilePolarity,Negative*
%FSLAX46Y46*%
G04 Gerber Fmt 4.6, Leading zero omitted, Abs format (unit mm)*
G04 Created by KiCad (PCBNEW (5.1.10-0-10_14)) date 2021-05-14 17:15:12*
%MOMM*%
%LPD*%
G01*
G04 APERTURE LIST*
%ADD10R,1.308000X1.308000*%
%ADD11C,1.308000*%
%ADD12C,1.500000*%
%ADD13O,1.350000X1.350000*%
%ADD14R,1.350000X1.350000*%
%ADD15C,2.000000*%
%ADD16O,1.600000X1.600000*%
%ADD17R,1.600000X1.600000*%
%ADD18R,1.500000X0.550000*%
%ADD19R,0.550000X1.500000*%
%ADD20R,0.650000X1.060000*%
%ADD21C,3.200000*%
G04 APERTURE END LIST*
D10*
X115421000Y-85982000D03*
D11*
X112881000Y-84712000D03*
X115421000Y-83442000D03*
X112881000Y-82172000D03*
X115421000Y-80902000D03*
X112881000Y-79632000D03*
X115421000Y-78362000D03*
X112881000Y-77092000D03*
X115421000Y-75822000D03*
X112881000Y-74552000D03*
D12*
X114681000Y-73152000D03*
G36*
G01*
X146922500Y-92538500D02*
X146447500Y-92538500D01*
G75*
G02*
X146210000Y-92301000I0J237500D01*
G01*
X146210000Y-91701000D01*
G75*
G02*
X146447500Y-91463500I237500J0D01*
G01*
X146922500Y-91463500D01*
G75*
G02*
X147160000Y-91701000I0J-237500D01*
G01*
X147160000Y-92301000D01*
G75*
G02*
X146922500Y-92538500I-237500J0D01*
G01*
G37*
G36*
G01*
X146922500Y-94263500D02*
X146447500Y-94263500D01*
G75*
G02*
X146210000Y-94026000I0J237500D01*
G01*
X146210000Y-93426000D01*
G75*
G02*
X146447500Y-93188500I237500J0D01*
G01*
X146922500Y-93188500D01*
G75*
G02*
X147160000Y-93426000I0J-237500D01*
G01*
X147160000Y-94026000D01*
G75*
G02*
X146922500Y-94263500I-237500J0D01*
G01*
G37*
G36*
G01*
X150003500Y-89833500D02*
X150478500Y-89833500D01*
G75*
G02*
X150716000Y-90071000I0J-237500D01*
G01*
X150716000Y-90671000D01*
G75*
G02*
X150478500Y-90908500I-237500J0D01*
G01*
X150003500Y-90908500D01*
G75*
G02*
X149766000Y-90671000I0J237500D01*
G01*
X149766000Y-90071000D01*
G75*
G02*
X150003500Y-89833500I237500J0D01*
G01*
G37*
G36*
G01*
X150003500Y-88108500D02*
X150478500Y-88108500D01*
G75*
G02*
X150716000Y-88346000I0J-237500D01*
G01*
X150716000Y-88946000D01*
G75*
G02*
X150478500Y-89183500I-237500J0D01*
G01*
X150003500Y-89183500D01*
G75*
G02*
X149766000Y-88946000I0J237500D01*
G01*
X149766000Y-88346000D01*
G75*
G02*
X150003500Y-88108500I237500J0D01*
G01*
G37*
G36*
G01*
X150478500Y-105238500D02*
X150003500Y-105238500D01*
G75*
G02*
X149766000Y-105001000I0J237500D01*
G01*
X149766000Y-104401000D01*
G75*
G02*
X150003500Y-104163500I237500J0D01*
G01*
X150478500Y-104163500D01*
G75*
G02*
X150716000Y-104401000I0J-237500D01*
G01*
X150716000Y-105001000D01*
G75*
G02*
X150478500Y-105238500I-237500J0D01*
G01*
G37*
G36*
G01*
X150478500Y-106963500D02*
X150003500Y-106963500D01*
G75*
G02*
X149766000Y-106726000I0J237500D01*
G01*
X149766000Y-106126000D01*
G75*
G02*
X150003500Y-105888500I237500J0D01*
G01*
X150478500Y-105888500D01*
G75*
G02*
X150716000Y-106126000I0J-237500D01*
G01*
X150716000Y-106726000D01*
G75*
G02*
X150478500Y-106963500I-237500J0D01*
G01*
G37*
G36*
G01*
X146922500Y-97618500D02*
X146447500Y-97618500D01*
G75*
G02*
X146210000Y-97381000I0J237500D01*
G01*
X146210000Y-96781000D01*
G75*
G02*
X146447500Y-96543500I237500J0D01*
G01*
X146922500Y-96543500D01*
G75*
G02*
X147160000Y-96781000I0J-237500D01*
G01*
X147160000Y-97381000D01*
G75*
G02*
X146922500Y-97618500I-237500J0D01*
G01*
G37*
G36*
G01*
X146922500Y-99343500D02*
X146447500Y-99343500D01*
G75*
G02*
X146210000Y-99106000I0J237500D01*
G01*
X146210000Y-98506000D01*
G75*
G02*
X146447500Y-98268500I237500J0D01*
G01*
X146922500Y-98268500D01*
G75*
G02*
X147160000Y-98506000I0J-237500D01*
G01*
X147160000Y-99106000D01*
G75*
G02*
X146922500Y-99343500I-237500J0D01*
G01*
G37*
G36*
G01*
X146986000Y-73806000D02*
X146511000Y-73806000D01*
G75*
G02*
X146273500Y-73568500I0J237500D01*
G01*
X146273500Y-72968500D01*
G75*
G02*
X146511000Y-72731000I237500J0D01*
G01*
X146986000Y-72731000D01*
G75*
G02*
X147223500Y-72968500I0J-237500D01*
G01*
X147223500Y-73568500D01*
G75*
G02*
X146986000Y-73806000I-237500J0D01*
G01*
G37*
G36*
G01*
X146986000Y-75531000D02*
X146511000Y-75531000D01*
G75*
G02*
X146273500Y-75293500I0J237500D01*
G01*
X146273500Y-74693500D01*
G75*
G02*
X146511000Y-74456000I237500J0D01*
G01*
X146986000Y-74456000D01*
G75*
G02*
X147223500Y-74693500I0J-237500D01*
G01*
X147223500Y-75293500D01*
G75*
G02*
X146986000Y-75531000I-237500J0D01*
G01*
G37*
G36*
G01*
X146986000Y-68726000D02*
X146511000Y-68726000D01*
G75*
G02*
X146273500Y-68488500I0J237500D01*
G01*
X146273500Y-67888500D01*
G75*
G02*
X146511000Y-67651000I237500J0D01*
G01*
X146986000Y-67651000D01*
G75*
G02*
X147223500Y-67888500I0J-237500D01*
G01*
X147223500Y-68488500D01*
G75*
G02*
X146986000Y-68726000I-237500J0D01*
G01*
G37*
G36*
G01*
X146986000Y-70451000D02*
X146511000Y-70451000D01*
G75*
G02*
X146273500Y-70213500I0J237500D01*
G01*
X146273500Y-69613500D01*
G75*
G02*
X146511000Y-69376000I237500J0D01*
G01*
X146986000Y-69376000D01*
G75*
G02*
X147223500Y-69613500I0J-237500D01*
G01*
X147223500Y-70213500D01*
G75*
G02*
X146986000Y-70451000I-237500J0D01*
G01*
G37*
G36*
G01*
X150067000Y-66021000D02*
X150542000Y-66021000D01*
G75*
G02*
X150779500Y-66258500I0J-237500D01*
G01*
X150779500Y-66858500D01*
G75*
G02*
X150542000Y-67096000I-237500J0D01*
G01*
X150067000Y-67096000D01*
G75*
G02*
X149829500Y-66858500I0J237500D01*
G01*
X149829500Y-66258500D01*
G75*
G02*
X150067000Y-66021000I237500J0D01*
G01*
G37*
G36*
G01*
X150067000Y-64296000D02*
X150542000Y-64296000D01*
G75*
G02*
X150779500Y-64533500I0J-237500D01*
G01*
X150779500Y-65133500D01*
G75*
G02*
X150542000Y-65371000I-237500J0D01*
G01*
X150067000Y-65371000D01*
G75*
G02*
X149829500Y-65133500I0J237500D01*
G01*
X149829500Y-64533500D01*
G75*
G02*
X150067000Y-64296000I237500J0D01*
G01*
G37*
G36*
G01*
X150542000Y-81362500D02*
X150067000Y-81362500D01*
G75*
G02*
X149829500Y-81125000I0J237500D01*
G01*
X149829500Y-80525000D01*
G75*
G02*
X150067000Y-80287500I237500J0D01*
G01*
X150542000Y-80287500D01*
G75*
G02*
X150779500Y-80525000I0J-237500D01*
G01*
X150779500Y-81125000D01*
G75*
G02*
X150542000Y-81362500I-237500J0D01*
G01*
G37*
G36*
G01*
X150542000Y-83087500D02*
X150067000Y-83087500D01*
G75*
G02*
X149829500Y-82850000I0J237500D01*
G01*
X149829500Y-82250000D01*
G75*
G02*
X150067000Y-82012500I237500J0D01*
G01*
X150542000Y-82012500D01*
G75*
G02*
X150779500Y-82250000I0J-237500D01*
G01*
X150779500Y-82850000D01*
G75*
G02*
X150542000Y-83087500I-237500J0D01*
G01*
G37*
G36*
G01*
X171235500Y-76096000D02*
X171235500Y-75796000D01*
G75*
G02*
X171385500Y-75646000I150000J0D01*
G01*
X173035500Y-75646000D01*
G75*
G02*
X173185500Y-75796000I0J-150000D01*
G01*
X173185500Y-76096000D01*
G75*
G02*
X173035500Y-76246000I-150000J0D01*
G01*
X171385500Y-76246000D01*
G75*
G02*
X171235500Y-76096000I0J150000D01*
G01*
G37*
G36*
G01*
X171235500Y-77366000D02*
X171235500Y-77066000D01*
G75*
G02*
X171385500Y-76916000I150000J0D01*
G01*
X173035500Y-76916000D01*
G75*
G02*
X173185500Y-77066000I0J-150000D01*
G01*
X173185500Y-77366000D01*
G75*
G02*
X173035500Y-77516000I-150000J0D01*
G01*
X171385500Y-77516000D01*
G75*
G02*
X171235500Y-77366000I0J150000D01*
G01*
G37*
G36*
G01*
X171235500Y-78636000D02*
X171235500Y-78336000D01*
G75*
G02*
X171385500Y-78186000I150000J0D01*
G01*
X173035500Y-78186000D01*
G75*
G02*
X173185500Y-78336000I0J-150000D01*
G01*
X173185500Y-78636000D01*
G75*
G02*
X173035500Y-78786000I-150000J0D01*
G01*
X171385500Y-78786000D01*
G75*
G02*
X171235500Y-78636000I0J150000D01*
G01*
G37*
G36*
G01*
X171235500Y-79906000D02*
X171235500Y-79606000D01*
G75*
G02*
X171385500Y-79456000I150000J0D01*
G01*
X173035500Y-79456000D01*
G75*
G02*
X173185500Y-79606000I0J-150000D01*
G01*
X173185500Y-79906000D01*
G75*
G02*
X173035500Y-80056000I-150000J0D01*
G01*
X171385500Y-80056000D01*
G75*
G02*
X171235500Y-79906000I0J150000D01*
G01*
G37*
G36*
G01*
X166285500Y-79906000D02*
X166285500Y-79606000D01*
G75*
G02*
X166435500Y-79456000I150000J0D01*
G01*
X168085500Y-79456000D01*
G75*
G02*
X168235500Y-79606000I0J-150000D01*
G01*
X168235500Y-79906000D01*
G75*
G02*
X168085500Y-80056000I-150000J0D01*
G01*
X166435500Y-80056000D01*
G75*
G02*
X166285500Y-79906000I0J150000D01*
G01*
G37*
G36*
G01*
X166285500Y-78636000D02*
X166285500Y-78336000D01*
G75*
G02*
X166435500Y-78186000I150000J0D01*
G01*
X168085500Y-78186000D01*
G75*
G02*
X168235500Y-78336000I0J-150000D01*
G01*
X168235500Y-78636000D01*
G75*
G02*
X168085500Y-78786000I-150000J0D01*
G01*
X166435500Y-78786000D01*
G75*
G02*
X166285500Y-78636000I0J150000D01*
G01*
G37*
G36*
G01*
X166285500Y-77366000D02*
X166285500Y-77066000D01*
G75*
G02*
X166435500Y-76916000I150000J0D01*
G01*
X168085500Y-76916000D01*
G75*
G02*
X168235500Y-77066000I0J-150000D01*
G01*
X168235500Y-77366000D01*
G75*
G02*
X168085500Y-77516000I-150000J0D01*
G01*
X166435500Y-77516000D01*
G75*
G02*
X166285500Y-77366000I0J150000D01*
G01*
G37*
G36*
G01*
X166285500Y-76096000D02*
X166285500Y-75796000D01*
G75*
G02*
X166435500Y-75646000I150000J0D01*
G01*
X168085500Y-75646000D01*
G75*
G02*
X168235500Y-75796000I0J-150000D01*
G01*
X168235500Y-76096000D01*
G75*
G02*
X168085500Y-76246000I-150000J0D01*
G01*
X166435500Y-76246000D01*
G75*
G02*
X166285500Y-76096000I0J150000D01*
G01*
G37*
G36*
G01*
X171542000Y-71304999D02*
X171542000Y-72205001D01*
G75*
G02*
X171292001Y-72455000I-249999J0D01*
G01*
X170591999Y-72455000D01*
G75*
G02*
X170342000Y-72205001I0J249999D01*
G01*
X170342000Y-71304999D01*
G75*
G02*
X170591999Y-71055000I249999J0D01*
G01*
X171292001Y-71055000D01*
G75*
G02*
X171542000Y-71304999I0J-249999D01*
G01*
G37*
G36*
G01*
X173542000Y-71304999D02*
X173542000Y-72205001D01*
G75*
G02*
X173292001Y-72455000I-249999J0D01*
G01*
X172591999Y-72455000D01*
G75*
G02*
X172342000Y-72205001I0J249999D01*
G01*
X172342000Y-71304999D01*
G75*
G02*
X172591999Y-71055000I249999J0D01*
G01*
X173292001Y-71055000D01*
G75*
G02*
X173542000Y-71304999I0J-249999D01*
G01*
G37*
G36*
G01*
X166554999Y-73187000D02*
X167455001Y-73187000D01*
G75*
G02*
X167705000Y-73436999I0J-249999D01*
G01*
X167705000Y-74137001D01*
G75*
G02*
X167455001Y-74387000I-249999J0D01*
G01*
X166554999Y-74387000D01*
G75*
G02*
X166305000Y-74137001I0J249999D01*
G01*
X166305000Y-73436999D01*
G75*
G02*
X166554999Y-73187000I249999J0D01*
G01*
G37*
G36*
G01*
X166554999Y-71187000D02*
X167455001Y-71187000D01*
G75*
G02*
X167705000Y-71436999I0J-249999D01*
G01*
X167705000Y-72137001D01*
G75*
G02*
X167455001Y-72387000I-249999J0D01*
G01*
X166554999Y-72387000D01*
G75*
G02*
X166305000Y-72137001I0J249999D01*
G01*
X166305000Y-71436999D01*
G75*
G02*
X166554999Y-71187000I249999J0D01*
G01*
G37*
G36*
G01*
X164522999Y-73187000D02*
X165423001Y-73187000D01*
G75*
G02*
X165673000Y-73436999I0J-249999D01*
G01*
X165673000Y-74137001D01*
G75*
G02*
X165423001Y-74387000I-249999J0D01*
G01*
X164522999Y-74387000D01*
G75*
G02*
X164273000Y-74137001I0J249999D01*
G01*
X164273000Y-73436999D01*
G75*
G02*
X164522999Y-73187000I249999J0D01*
G01*
G37*
G36*
G01*
X164522999Y-71187000D02*
X165423001Y-71187000D01*
G75*
G02*
X165673000Y-71436999I0J-249999D01*
G01*
X165673000Y-72137001D01*
G75*
G02*
X165423001Y-72387000I-249999J0D01*
G01*
X164522999Y-72387000D01*
G75*
G02*
X164273000Y-72137001I0J249999D01*
G01*
X164273000Y-71436999D01*
G75*
G02*
X164522999Y-71187000I249999J0D01*
G01*
G37*
G36*
G01*
X164522999Y-76981000D02*
X165423001Y-76981000D01*
G75*
G02*
X165673000Y-77230999I0J-249999D01*
G01*
X165673000Y-77931001D01*
G75*
G02*
X165423001Y-78181000I-249999J0D01*
G01*
X164522999Y-78181000D01*
G75*
G02*
X164273000Y-77931001I0J249999D01*
G01*
X164273000Y-77230999D01*
G75*
G02*
X164522999Y-76981000I249999J0D01*
G01*
G37*
G36*
G01*
X164522999Y-74981000D02*
X165423001Y-74981000D01*
G75*
G02*
X165673000Y-75230999I0J-249999D01*
G01*
X165673000Y-75931001D01*
G75*
G02*
X165423001Y-76181000I-249999J0D01*
G01*
X164522999Y-76181000D01*
G75*
G02*
X164273000Y-75931001I0J249999D01*
G01*
X164273000Y-75230999D01*
G75*
G02*
X164522999Y-74981000I249999J0D01*
G01*
G37*
G36*
G01*
X170397500Y-74262000D02*
X170397500Y-73312000D01*
G75*
G02*
X170647500Y-73062000I250000J0D01*
G01*
X171322500Y-73062000D01*
G75*
G02*
X171572500Y-73312000I0J-250000D01*
G01*
X171572500Y-74262000D01*
G75*
G02*
X171322500Y-74512000I-250000J0D01*
G01*
X170647500Y-74512000D01*
G75*
G02*
X170397500Y-74262000I0J250000D01*
G01*
G37*
G36*
G01*
X168322500Y-74262000D02*
X168322500Y-73312000D01*
G75*
G02*
X168572500Y-73062000I250000J0D01*
G01*
X169247500Y-73062000D01*
G75*
G02*
X169497500Y-73312000I0J-250000D01*
G01*
X169497500Y-74262000D01*
G75*
G02*
X169247500Y-74512000I-250000J0D01*
G01*
X168572500Y-74512000D01*
G75*
G02*
X168322500Y-74262000I0J250000D01*
G01*
G37*
G36*
G01*
X169512000Y-70267500D02*
X168562000Y-70267500D01*
G75*
G02*
X168312000Y-70017500I0J250000D01*
G01*
X168312000Y-69342500D01*
G75*
G02*
X168562000Y-69092500I250000J0D01*
G01*
X169512000Y-69092500D01*
G75*
G02*
X169762000Y-69342500I0J-250000D01*
G01*
X169762000Y-70017500D01*
G75*
G02*
X169512000Y-70267500I-250000J0D01*
G01*
G37*
G36*
G01*
X169512000Y-72342500D02*
X168562000Y-72342500D01*
G75*
G02*
X168312000Y-72092500I0J250000D01*
G01*
X168312000Y-71417500D01*
G75*
G02*
X168562000Y-71167500I250000J0D01*
G01*
X169512000Y-71167500D01*
G75*
G02*
X169762000Y-71417500I0J-250000D01*
G01*
X169762000Y-72092500D01*
G75*
G02*
X169512000Y-72342500I-250000J0D01*
G01*
G37*
G36*
G01*
X163416000Y-76131000D02*
X162466000Y-76131000D01*
G75*
G02*
X162216000Y-75881000I0J250000D01*
G01*
X162216000Y-75206000D01*
G75*
G02*
X162466000Y-74956000I250000J0D01*
G01*
X163416000Y-74956000D01*
G75*
G02*
X163666000Y-75206000I0J-250000D01*
G01*
X163666000Y-75881000D01*
G75*
G02*
X163416000Y-76131000I-250000J0D01*
G01*
G37*
G36*
G01*
X163416000Y-78206000D02*
X162466000Y-78206000D01*
G75*
G02*
X162216000Y-77956000I0J250000D01*
G01*
X162216000Y-77281000D01*
G75*
G02*
X162466000Y-77031000I250000J0D01*
G01*
X163416000Y-77031000D01*
G75*
G02*
X163666000Y-77281000I0J-250000D01*
G01*
X163666000Y-77956000D01*
G75*
G02*
X163416000Y-78206000I-250000J0D01*
G01*
G37*
G36*
G01*
X165464500Y-80293500D02*
X164989500Y-80293500D01*
G75*
G02*
X164752000Y-80056000I0J237500D01*
G01*
X164752000Y-79456000D01*
G75*
G02*
X164989500Y-79218500I237500J0D01*
G01*
X165464500Y-79218500D01*
G75*
G02*
X165702000Y-79456000I0J-237500D01*
G01*
X165702000Y-80056000D01*
G75*
G02*
X165464500Y-80293500I-237500J0D01*
G01*
G37*
G36*
G01*
X165464500Y-82018500D02*
X164989500Y-82018500D01*
G75*
G02*
X164752000Y-81781000I0J237500D01*
G01*
X164752000Y-81181000D01*
G75*
G02*
X164989500Y-80943500I237500J0D01*
G01*
X165464500Y-80943500D01*
G75*
G02*
X165702000Y-81181000I0J-237500D01*
G01*
X165702000Y-81781000D01*
G75*
G02*
X165464500Y-82018500I-237500J0D01*
G01*
G37*
G36*
G01*
X174481500Y-74758500D02*
X174006500Y-74758500D01*
G75*
G02*
X173769000Y-74521000I0J237500D01*
G01*
X173769000Y-73921000D01*
G75*
G02*
X174006500Y-73683500I237500J0D01*
G01*
X174481500Y-73683500D01*
G75*
G02*
X174719000Y-73921000I0J-237500D01*
G01*
X174719000Y-74521000D01*
G75*
G02*
X174481500Y-74758500I-237500J0D01*
G01*
G37*
G36*
G01*
X174481500Y-76483500D02*
X174006500Y-76483500D01*
G75*
G02*
X173769000Y-76246000I0J237500D01*
G01*
X173769000Y-75646000D01*
G75*
G02*
X174006500Y-75408500I237500J0D01*
G01*
X174481500Y-75408500D01*
G75*
G02*
X174719000Y-75646000I0J-237500D01*
G01*
X174719000Y-76246000D01*
G75*
G02*
X174481500Y-76483500I-237500J0D01*
G01*
G37*
G36*
G01*
X163231000Y-80506000D02*
X161381000Y-80506000D01*
G75*
G02*
X161131000Y-80256000I0J250000D01*
G01*
X161131000Y-79256000D01*
G75*
G02*
X161381000Y-79006000I250000J0D01*
G01*
X163231000Y-79006000D01*
G75*
G02*
X163481000Y-79256000I0J-250000D01*
G01*
X163481000Y-80256000D01*
G75*
G02*
X163231000Y-80506000I-250000J0D01*
G01*
G37*
G36*
G01*
X163231000Y-83756000D02*
X161381000Y-83756000D01*
G75*
G02*
X161131000Y-83506000I0J250000D01*
G01*
X161131000Y-82506000D01*
G75*
G02*
X161381000Y-82256000I250000J0D01*
G01*
X163231000Y-82256000D01*
G75*
G02*
X163481000Y-82506000I0J-250000D01*
G01*
X163481000Y-83506000D01*
G75*
G02*
X163231000Y-83756000I-250000J0D01*
G01*
G37*
G36*
G01*
X177899500Y-73446000D02*
X176049500Y-73446000D01*
G75*
G02*
X175799500Y-73196000I0J250000D01*
G01*
X175799500Y-72196000D01*
G75*
G02*
X176049500Y-71946000I250000J0D01*
G01*
X177899500Y-71946000D01*
G75*
G02*
X178149500Y-72196000I0J-250000D01*
G01*
X178149500Y-73196000D01*
G75*
G02*
X177899500Y-73446000I-250000J0D01*
G01*
G37*
G36*
G01*
X177899500Y-76696000D02*
X176049500Y-76696000D01*
G75*
G02*
X175799500Y-76446000I0J250000D01*
G01*
X175799500Y-75446000D01*
G75*
G02*
X176049500Y-75196000I250000J0D01*
G01*
X177899500Y-75196000D01*
G75*
G02*
X178149500Y-75446000I0J-250000D01*
G01*
X178149500Y-76446000D01*
G75*
G02*
X177899500Y-76696000I-250000J0D01*
G01*
G37*
G36*
G01*
X142792001Y-75781000D02*
X141941999Y-75781000D01*
G75*
G02*
X141692000Y-75531001I0J249999D01*
G01*
X141692000Y-74455999D01*
G75*
G02*
X141941999Y-74206000I249999J0D01*
G01*
X142792001Y-74206000D01*
G75*
G02*
X143042000Y-74455999I0J-249999D01*
G01*
X143042000Y-75531001D01*
G75*
G02*
X142792001Y-75781000I-249999J0D01*
G01*
G37*
G36*
G01*
X142792001Y-78656000D02*
X141941999Y-78656000D01*
G75*
G02*
X141692000Y-78406001I0J249999D01*
G01*
X141692000Y-77330999D01*
G75*
G02*
X141941999Y-77081000I249999J0D01*
G01*
X142792001Y-77081000D01*
G75*
G02*
X143042000Y-77330999I0J-249999D01*
G01*
X143042000Y-78406001D01*
G75*
G02*
X142792001Y-78656000I-249999J0D01*
G01*
G37*
G36*
G01*
X142792001Y-67826000D02*
X141941999Y-67826000D01*
G75*
G02*
X141692000Y-67576001I0J249999D01*
G01*
X141692000Y-66500999D01*
G75*
G02*
X141941999Y-66251000I249999J0D01*
G01*
X142792001Y-66251000D01*
G75*
G02*
X143042000Y-66500999I0J-249999D01*
G01*
X143042000Y-67576001D01*
G75*
G02*
X142792001Y-67826000I-249999J0D01*
G01*
G37*
G36*
G01*
X142792001Y-70701000D02*
X141941999Y-70701000D01*
G75*
G02*
X141692000Y-70451001I0J249999D01*
G01*
X141692000Y-69375999D01*
G75*
G02*
X141941999Y-69126000I249999J0D01*
G01*
X142792001Y-69126000D01*
G75*
G02*
X143042000Y-69375999I0J-249999D01*
G01*
X143042000Y-70451001D01*
G75*
G02*
X142792001Y-70701000I-249999J0D01*
G01*
G37*
G36*
G01*
X155410000Y-64408499D02*
X155410000Y-65258501D01*
G75*
G02*
X155160001Y-65508500I-249999J0D01*
G01*
X154084999Y-65508500D01*
G75*
G02*
X153835000Y-65258501I0J249999D01*
G01*
X153835000Y-64408499D01*
G75*
G02*
X154084999Y-64158500I249999J0D01*
G01*
X155160001Y-64158500D01*
G75*
G02*
X155410000Y-64408499I0J-249999D01*
G01*
G37*
G36*
G01*
X158285000Y-64408499D02*
X158285000Y-65258501D01*
G75*
G02*
X158035001Y-65508500I-249999J0D01*
G01*
X156959999Y-65508500D01*
G75*
G02*
X156710000Y-65258501I0J249999D01*
G01*
X156710000Y-64408499D01*
G75*
G02*
X156959999Y-64158500I249999J0D01*
G01*
X158035001Y-64158500D01*
G75*
G02*
X158285000Y-64408499I0J-249999D01*
G01*
G37*
G36*
G01*
X156710000Y-83038501D02*
X156710000Y-82188499D01*
G75*
G02*
X156959999Y-81938500I249999J0D01*
G01*
X158035001Y-81938500D01*
G75*
G02*
X158285000Y-82188499I0J-249999D01*
G01*
X158285000Y-83038501D01*
G75*
G02*
X158035001Y-83288500I-249999J0D01*
G01*
X156959999Y-83288500D01*
G75*
G02*
X156710000Y-83038501I0J249999D01*
G01*
G37*
G36*
G01*
X153835000Y-83038501D02*
X153835000Y-82188499D01*
G75*
G02*
X154084999Y-81938500I249999J0D01*
G01*
X155160001Y-81938500D01*
G75*
G02*
X155410000Y-82188499I0J-249999D01*
G01*
X155410000Y-83038501D01*
G75*
G02*
X155160001Y-83288500I-249999J0D01*
G01*
X154084999Y-83288500D01*
G75*
G02*
X153835000Y-83038501I0J249999D01*
G01*
G37*
G36*
G01*
X155410000Y-88220999D02*
X155410000Y-89071001D01*
G75*
G02*
X155160001Y-89321000I-249999J0D01*
G01*
X154084999Y-89321000D01*
G75*
G02*
X153835000Y-89071001I0J249999D01*
G01*
X153835000Y-88220999D01*
G75*
G02*
X154084999Y-87971000I249999J0D01*
G01*
X155160001Y-87971000D01*
G75*
G02*
X155410000Y-88220999I0J-249999D01*
G01*
G37*
G36*
G01*
X158285000Y-88220999D02*
X158285000Y-89071001D01*
G75*
G02*
X158035001Y-89321000I-249999J0D01*
G01*
X156959999Y-89321000D01*
G75*
G02*
X156710000Y-89071001I0J249999D01*
G01*
X156710000Y-88220999D01*
G75*
G02*
X156959999Y-87971000I249999J0D01*
G01*
X158035001Y-87971000D01*
G75*
G02*
X158285000Y-88220999I0J-249999D01*
G01*
G37*
G36*
G01*
X156710000Y-106851001D02*
X156710000Y-106000999D01*
G75*
G02*
X156959999Y-105751000I249999J0D01*
G01*
X158035001Y-105751000D01*
G75*
G02*
X158285000Y-106000999I0J-249999D01*
G01*
X158285000Y-106851001D01*
G75*
G02*
X158035001Y-107101000I-249999J0D01*
G01*
X156959999Y-107101000D01*
G75*
G02*
X156710000Y-106851001I0J249999D01*
G01*
G37*
G36*
G01*
X153835000Y-106851001D02*
X153835000Y-106000999D01*
G75*
G02*
X154084999Y-105751000I249999J0D01*
G01*
X155160001Y-105751000D01*
G75*
G02*
X155410000Y-106000999I0J-249999D01*
G01*
X155410000Y-106851001D01*
G75*
G02*
X155160001Y-107101000I-249999J0D01*
G01*
X154084999Y-107101000D01*
G75*
G02*
X153835000Y-106851001I0J249999D01*
G01*
G37*
G36*
G01*
X142792001Y-99593500D02*
X141941999Y-99593500D01*
G75*
G02*
X141692000Y-99343501I0J249999D01*
G01*
X141692000Y-98268499D01*
G75*
G02*
X141941999Y-98018500I249999J0D01*
G01*
X142792001Y-98018500D01*
G75*
G02*
X143042000Y-98268499I0J-249999D01*
G01*
X143042000Y-99343501D01*
G75*
G02*
X142792001Y-99593500I-249999J0D01*
G01*
G37*
G36*
G01*
X142792001Y-102468500D02*
X141941999Y-102468500D01*
G75*
G02*
X141692000Y-102218501I0J249999D01*
G01*
X141692000Y-101143499D01*
G75*
G02*
X141941999Y-100893500I249999J0D01*
G01*
X142792001Y-100893500D01*
G75*
G02*
X143042000Y-101143499I0J-249999D01*
G01*
X143042000Y-102218501D01*
G75*
G02*
X142792001Y-102468500I-249999J0D01*
G01*
G37*
G36*
G01*
X142792001Y-91638500D02*
X141941999Y-91638500D01*
G75*
G02*
X141692000Y-91388501I0J249999D01*
G01*
X141692000Y-90313499D01*
G75*
G02*
X141941999Y-90063500I249999J0D01*
G01*
X142792001Y-90063500D01*
G75*
G02*
X143042000Y-90313499I0J-249999D01*
G01*
X143042000Y-91388501D01*
G75*
G02*
X142792001Y-91638500I-249999J0D01*
G01*
G37*
G36*
G01*
X142792001Y-94513500D02*
X141941999Y-94513500D01*
G75*
G02*
X141692000Y-94263501I0J249999D01*
G01*
X141692000Y-93188499D01*
G75*
G02*
X141941999Y-92938500I249999J0D01*
G01*
X142792001Y-92938500D01*
G75*
G02*
X143042000Y-93188499I0J-249999D01*
G01*
X143042000Y-94263501D01*
G75*
G02*
X142792001Y-94513500I-249999J0D01*
G01*
G37*
G36*
G01*
X171237000Y-99845000D02*
X171237000Y-99545000D01*
G75*
G02*
X171387000Y-99395000I150000J0D01*
G01*
X173037000Y-99395000D01*
G75*
G02*
X173187000Y-99545000I0J-150000D01*
G01*
X173187000Y-99845000D01*
G75*
G02*
X173037000Y-99995000I-150000J0D01*
G01*
X171387000Y-99995000D01*
G75*
G02*
X171237000Y-99845000I0J150000D01*
G01*
G37*
G36*
G01*
X171237000Y-101115000D02*
X171237000Y-100815000D01*
G75*
G02*
X171387000Y-100665000I150000J0D01*
G01*
X173037000Y-100665000D01*
G75*
G02*
X173187000Y-100815000I0J-150000D01*
G01*
X173187000Y-101115000D01*
G75*
G02*
X173037000Y-101265000I-150000J0D01*
G01*
X171387000Y-101265000D01*
G75*
G02*
X171237000Y-101115000I0J150000D01*
G01*
G37*
G36*
G01*
X171237000Y-102385000D02*
X171237000Y-102085000D01*
G75*
G02*
X171387000Y-101935000I150000J0D01*
G01*
X173037000Y-101935000D01*
G75*
G02*
X173187000Y-102085000I0J-150000D01*
G01*
X173187000Y-102385000D01*
G75*
G02*
X173037000Y-102535000I-150000J0D01*
G01*
X171387000Y-102535000D01*
G75*
G02*
X171237000Y-102385000I0J150000D01*
G01*
G37*
G36*
G01*
X171237000Y-103655000D02*
X171237000Y-103355000D01*
G75*
G02*
X171387000Y-103205000I150000J0D01*
G01*
X173037000Y-103205000D01*
G75*
G02*
X173187000Y-103355000I0J-150000D01*
G01*
X173187000Y-103655000D01*
G75*
G02*
X173037000Y-103805000I-150000J0D01*
G01*
X171387000Y-103805000D01*
G75*
G02*
X171237000Y-103655000I0J150000D01*
G01*
G37*
G36*
G01*
X166287000Y-103655000D02*
X166287000Y-103355000D01*
G75*
G02*
X166437000Y-103205000I150000J0D01*
G01*
X168087000Y-103205000D01*
G75*
G02*
X168237000Y-103355000I0J-150000D01*
G01*
X168237000Y-103655000D01*
G75*
G02*
X168087000Y-103805000I-150000J0D01*
G01*
X166437000Y-103805000D01*
G75*
G02*
X166287000Y-103655000I0J150000D01*
G01*
G37*
G36*
G01*
X166287000Y-102385000D02*
X166287000Y-102085000D01*
G75*
G02*
X166437000Y-101935000I150000J0D01*
G01*
X168087000Y-101935000D01*
G75*
G02*
X168237000Y-102085000I0J-150000D01*
G01*
X168237000Y-102385000D01*
G75*
G02*
X168087000Y-102535000I-150000J0D01*
G01*
X166437000Y-102535000D01*
G75*
G02*
X166287000Y-102385000I0J150000D01*
G01*
G37*
G36*
G01*
X166287000Y-101115000D02*
X166287000Y-100815000D01*
G75*
G02*
X166437000Y-100665000I150000J0D01*
G01*
X168087000Y-100665000D01*
G75*
G02*
X168237000Y-100815000I0J-150000D01*
G01*
X168237000Y-101115000D01*
G75*
G02*
X168087000Y-101265000I-150000J0D01*
G01*
X166437000Y-101265000D01*
G75*
G02*
X166287000Y-101115000I0J150000D01*
G01*
G37*
G36*
G01*
X166287000Y-99845000D02*
X166287000Y-99545000D01*
G75*
G02*
X166437000Y-99395000I150000J0D01*
G01*
X168087000Y-99395000D01*
G75*
G02*
X168237000Y-99545000I0J-150000D01*
G01*
X168237000Y-99845000D01*
G75*
G02*
X168087000Y-99995000I-150000J0D01*
G01*
X166437000Y-99995000D01*
G75*
G02*
X166287000Y-99845000I0J150000D01*
G01*
G37*
G36*
G01*
X165464500Y-104042500D02*
X164989500Y-104042500D01*
G75*
G02*
X164752000Y-103805000I0J237500D01*
G01*
X164752000Y-103205000D01*
G75*
G02*
X164989500Y-102967500I237500J0D01*
G01*
X165464500Y-102967500D01*
G75*
G02*
X165702000Y-103205000I0J-237500D01*
G01*
X165702000Y-103805000D01*
G75*
G02*
X165464500Y-104042500I-237500J0D01*
G01*
G37*
G36*
G01*
X165464500Y-105767500D02*
X164989500Y-105767500D01*
G75*
G02*
X164752000Y-105530000I0J237500D01*
G01*
X164752000Y-104930000D01*
G75*
G02*
X164989500Y-104692500I237500J0D01*
G01*
X165464500Y-104692500D01*
G75*
G02*
X165702000Y-104930000I0J-237500D01*
G01*
X165702000Y-105530000D01*
G75*
G02*
X165464500Y-105767500I-237500J0D01*
G01*
G37*
G36*
G01*
X174481500Y-98507500D02*
X174006500Y-98507500D01*
G75*
G02*
X173769000Y-98270000I0J237500D01*
G01*
X173769000Y-97670000D01*
G75*
G02*
X174006500Y-97432500I237500J0D01*
G01*
X174481500Y-97432500D01*
G75*
G02*
X174719000Y-97670000I0J-237500D01*
G01*
X174719000Y-98270000D01*
G75*
G02*
X174481500Y-98507500I-237500J0D01*
G01*
G37*
G36*
G01*
X174481500Y-100232500D02*
X174006500Y-100232500D01*
G75*
G02*
X173769000Y-99995000I0J237500D01*
G01*
X173769000Y-99395000D01*
G75*
G02*
X174006500Y-99157500I237500J0D01*
G01*
X174481500Y-99157500D01*
G75*
G02*
X174719000Y-99395000I0J-237500D01*
G01*
X174719000Y-99995000D01*
G75*
G02*
X174481500Y-100232500I-237500J0D01*
G01*
G37*
G36*
G01*
X171542000Y-94926999D02*
X171542000Y-95827001D01*
G75*
G02*
X171292001Y-96077000I-249999J0D01*
G01*
X170591999Y-96077000D01*
G75*
G02*
X170342000Y-95827001I0J249999D01*
G01*
X170342000Y-94926999D01*
G75*
G02*
X170591999Y-94677000I249999J0D01*
G01*
X171292001Y-94677000D01*
G75*
G02*
X171542000Y-94926999I0J-249999D01*
G01*
G37*
G36*
G01*
X173542000Y-94926999D02*
X173542000Y-95827001D01*
G75*
G02*
X173292001Y-96077000I-249999J0D01*
G01*
X172591999Y-96077000D01*
G75*
G02*
X172342000Y-95827001I0J249999D01*
G01*
X172342000Y-94926999D01*
G75*
G02*
X172591999Y-94677000I249999J0D01*
G01*
X173292001Y-94677000D01*
G75*
G02*
X173542000Y-94926999I0J-249999D01*
G01*
G37*
G36*
G01*
X166554999Y-96777000D02*
X167455001Y-96777000D01*
G75*
G02*
X167705000Y-97026999I0J-249999D01*
G01*
X167705000Y-97727001D01*
G75*
G02*
X167455001Y-97977000I-249999J0D01*
G01*
X166554999Y-97977000D01*
G75*
G02*
X166305000Y-97727001I0J249999D01*
G01*
X166305000Y-97026999D01*
G75*
G02*
X166554999Y-96777000I249999J0D01*
G01*
G37*
G36*
G01*
X166554999Y-94777000D02*
X167455001Y-94777000D01*
G75*
G02*
X167705000Y-95026999I0J-249999D01*
G01*
X167705000Y-95727001D01*
G75*
G02*
X167455001Y-95977000I-249999J0D01*
G01*
X166554999Y-95977000D01*
G75*
G02*
X166305000Y-95727001I0J249999D01*
G01*
X166305000Y-95026999D01*
G75*
G02*
X166554999Y-94777000I249999J0D01*
G01*
G37*
G36*
G01*
X164522999Y-96809000D02*
X165423001Y-96809000D01*
G75*
G02*
X165673000Y-97058999I0J-249999D01*
G01*
X165673000Y-97759001D01*
G75*
G02*
X165423001Y-98009000I-249999J0D01*
G01*
X164522999Y-98009000D01*
G75*
G02*
X164273000Y-97759001I0J249999D01*
G01*
X164273000Y-97058999D01*
G75*
G02*
X164522999Y-96809000I249999J0D01*
G01*
G37*
G36*
G01*
X164522999Y-94809000D02*
X165423001Y-94809000D01*
G75*
G02*
X165673000Y-95058999I0J-249999D01*
G01*
X165673000Y-95759001D01*
G75*
G02*
X165423001Y-96009000I-249999J0D01*
G01*
X164522999Y-96009000D01*
G75*
G02*
X164273000Y-95759001I0J249999D01*
G01*
X164273000Y-95058999D01*
G75*
G02*
X164522999Y-94809000I249999J0D01*
G01*
G37*
G36*
G01*
X164522999Y-100746000D02*
X165423001Y-100746000D01*
G75*
G02*
X165673000Y-100995999I0J-249999D01*
G01*
X165673000Y-101696001D01*
G75*
G02*
X165423001Y-101946000I-249999J0D01*
G01*
X164522999Y-101946000D01*
G75*
G02*
X164273000Y-101696001I0J249999D01*
G01*
X164273000Y-100995999D01*
G75*
G02*
X164522999Y-100746000I249999J0D01*
G01*
G37*
G36*
G01*
X164522999Y-98746000D02*
X165423001Y-98746000D01*
G75*
G02*
X165673000Y-98995999I0J-249999D01*
G01*
X165673000Y-99696001D01*
G75*
G02*
X165423001Y-99946000I-249999J0D01*
G01*
X164522999Y-99946000D01*
G75*
G02*
X164273000Y-99696001I0J249999D01*
G01*
X164273000Y-98995999D01*
G75*
G02*
X164522999Y-98746000I249999J0D01*
G01*
G37*
G36*
G01*
X163104000Y-104255000D02*
X161254000Y-104255000D01*
G75*
G02*
X161004000Y-104005000I0J250000D01*
G01*
X161004000Y-103005000D01*
G75*
G02*
X161254000Y-102755000I250000J0D01*
G01*
X163104000Y-102755000D01*
G75*
G02*
X163354000Y-103005000I0J-250000D01*
G01*
X163354000Y-104005000D01*
G75*
G02*
X163104000Y-104255000I-250000J0D01*
G01*
G37*
G36*
G01*
X163104000Y-107505000D02*
X161254000Y-107505000D01*
G75*
G02*
X161004000Y-107255000I0J250000D01*
G01*
X161004000Y-106255000D01*
G75*
G02*
X161254000Y-106005000I250000J0D01*
G01*
X163104000Y-106005000D01*
G75*
G02*
X163354000Y-106255000I0J-250000D01*
G01*
X163354000Y-107255000D01*
G75*
G02*
X163104000Y-107505000I-250000J0D01*
G01*
G37*
G36*
G01*
X177963000Y-97195000D02*
X176113000Y-97195000D01*
G75*
G02*
X175863000Y-96945000I0J250000D01*
G01*
X175863000Y-95945000D01*
G75*
G02*
X176113000Y-95695000I250000J0D01*
G01*
X177963000Y-95695000D01*
G75*
G02*
X178213000Y-95945000I0J-250000D01*
G01*
X178213000Y-96945000D01*
G75*
G02*
X177963000Y-97195000I-250000J0D01*
G01*
G37*
G36*
G01*
X177963000Y-100445000D02*
X176113000Y-100445000D01*
G75*
G02*
X175863000Y-100195000I0J250000D01*
G01*
X175863000Y-99195000D01*
G75*
G02*
X176113000Y-98945000I250000J0D01*
G01*
X177963000Y-98945000D01*
G75*
G02*
X178213000Y-99195000I0J-250000D01*
G01*
X178213000Y-100195000D01*
G75*
G02*
X177963000Y-100445000I-250000J0D01*
G01*
G37*
G36*
G01*
X170397500Y-97884000D02*
X170397500Y-96934000D01*
G75*
G02*
X170647500Y-96684000I250000J0D01*
G01*
X171322500Y-96684000D01*
G75*
G02*
X171572500Y-96934000I0J-250000D01*
G01*
X171572500Y-97884000D01*
G75*
G02*
X171322500Y-98134000I-250000J0D01*
G01*
X170647500Y-98134000D01*
G75*
G02*
X170397500Y-97884000I0J250000D01*
G01*
G37*
G36*
G01*
X168322500Y-97884000D02*
X168322500Y-96934000D01*
G75*
G02*
X168572500Y-96684000I250000J0D01*
G01*
X169247500Y-96684000D01*
G75*
G02*
X169497500Y-96934000I0J-250000D01*
G01*
X169497500Y-97884000D01*
G75*
G02*
X169247500Y-98134000I-250000J0D01*
G01*
X168572500Y-98134000D01*
G75*
G02*
X168322500Y-97884000I0J250000D01*
G01*
G37*
G36*
G01*
X169512000Y-93889500D02*
X168562000Y-93889500D01*
G75*
G02*
X168312000Y-93639500I0J250000D01*
G01*
X168312000Y-92964500D01*
G75*
G02*
X168562000Y-92714500I250000J0D01*
G01*
X169512000Y-92714500D01*
G75*
G02*
X169762000Y-92964500I0J-250000D01*
G01*
X169762000Y-93639500D01*
G75*
G02*
X169512000Y-93889500I-250000J0D01*
G01*
G37*
G36*
G01*
X169512000Y-95964500D02*
X168562000Y-95964500D01*
G75*
G02*
X168312000Y-95714500I0J250000D01*
G01*
X168312000Y-95039500D01*
G75*
G02*
X168562000Y-94789500I250000J0D01*
G01*
X169512000Y-94789500D01*
G75*
G02*
X169762000Y-95039500I0J-250000D01*
G01*
X169762000Y-95714500D01*
G75*
G02*
X169512000Y-95964500I-250000J0D01*
G01*
G37*
G36*
G01*
X163289000Y-99901500D02*
X162339000Y-99901500D01*
G75*
G02*
X162089000Y-99651500I0J250000D01*
G01*
X162089000Y-98976500D01*
G75*
G02*
X162339000Y-98726500I250000J0D01*
G01*
X163289000Y-98726500D01*
G75*
G02*
X163539000Y-98976500I0J-250000D01*
G01*
X163539000Y-99651500D01*
G75*
G02*
X163289000Y-99901500I-250000J0D01*
G01*
G37*
G36*
G01*
X163289000Y-101976500D02*
X162339000Y-101976500D01*
G75*
G02*
X162089000Y-101726500I0J250000D01*
G01*
X162089000Y-101051500D01*
G75*
G02*
X162339000Y-100801500I250000J0D01*
G01*
X163289000Y-100801500D01*
G75*
G02*
X163539000Y-101051500I0J-250000D01*
G01*
X163539000Y-101726500D01*
G75*
G02*
X163289000Y-101976500I-250000J0D01*
G01*
G37*
G36*
G01*
X122922000Y-95377500D02*
X122922000Y-95127500D01*
G75*
G02*
X123047000Y-95002500I125000J0D01*
G01*
X124222000Y-95002500D01*
G75*
G02*
X124347000Y-95127500I0J-125000D01*
G01*
X124347000Y-95377500D01*
G75*
G02*
X124222000Y-95502500I-125000J0D01*
G01*
X123047000Y-95502500D01*
G75*
G02*
X122922000Y-95377500I0J125000D01*
G01*
G37*
G36*
G01*
X122922000Y-96327500D02*
X122922000Y-96077500D01*
G75*
G02*
X123047000Y-95952500I125000J0D01*
G01*
X124222000Y-95952500D01*
G75*
G02*
X124347000Y-96077500I0J-125000D01*
G01*
X124347000Y-96327500D01*
G75*
G02*
X124222000Y-96452500I-125000J0D01*
G01*
X123047000Y-96452500D01*
G75*
G02*
X122922000Y-96327500I0J125000D01*
G01*
G37*
G36*
G01*
X122922000Y-97277500D02*
X122922000Y-97027500D01*
G75*
G02*
X123047000Y-96902500I125000J0D01*
G01*
X124222000Y-96902500D01*
G75*
G02*
X124347000Y-97027500I0J-125000D01*
G01*
X124347000Y-97277500D01*
G75*
G02*
X124222000Y-97402500I-125000J0D01*
G01*
X123047000Y-97402500D01*
G75*
G02*
X122922000Y-97277500I0J125000D01*
G01*
G37*
G36*
G01*
X120647000Y-97277500D02*
X120647000Y-97027500D01*
G75*
G02*
X120772000Y-96902500I125000J0D01*
G01*
X121947000Y-96902500D01*
G75*
G02*
X122072000Y-97027500I0J-125000D01*
G01*
X122072000Y-97277500D01*
G75*
G02*
X121947000Y-97402500I-125000J0D01*
G01*
X120772000Y-97402500D01*
G75*
G02*
X120647000Y-97277500I0J125000D01*
G01*
G37*
G36*
G01*
X120647000Y-96327500D02*
X120647000Y-96077500D01*
G75*
G02*
X120772000Y-95952500I125000J0D01*
G01*
X121947000Y-95952500D01*
G75*
G02*
X122072000Y-96077500I0J-125000D01*
G01*
X122072000Y-96327500D01*
G75*
G02*
X121947000Y-96452500I-125000J0D01*
G01*
X120772000Y-96452500D01*
G75*
G02*
X120647000Y-96327500I0J125000D01*
G01*
G37*
G36*
G01*
X120647000Y-95377500D02*
X120647000Y-95127500D01*
G75*
G02*
X120772000Y-95002500I125000J0D01*
G01*
X121947000Y-95002500D01*
G75*
G02*
X122072000Y-95127500I0J-125000D01*
G01*
X122072000Y-95377500D01*
G75*
G02*
X121947000Y-95502500I-125000J0D01*
G01*
X120772000Y-95502500D01*
G75*
G02*
X120647000Y-95377500I0J125000D01*
G01*
G37*
D13*
X114808000Y-103948000D03*
X112808000Y-103948000D03*
X114808000Y-101948000D03*
X112808000Y-101948000D03*
X114808000Y-99948000D03*
X112808000Y-99948000D03*
X114808000Y-97948000D03*
X112808000Y-97948000D03*
X114808000Y-95948000D03*
X112808000Y-95948000D03*
X114808000Y-93948000D03*
X112808000Y-93948000D03*
X114808000Y-91948000D03*
D14*
X112808000Y-91948000D03*
D15*
X181102000Y-93472000D03*
X181102000Y-100965000D03*
D16*
X152294000Y-88646000D03*
X144674000Y-106426000D03*
X152294000Y-91186000D03*
X144674000Y-103886000D03*
X152294000Y-93726000D03*
X144674000Y-101346000D03*
X152294000Y-96266000D03*
X144674000Y-98806000D03*
X152294000Y-98806000D03*
X144674000Y-96266000D03*
X152294000Y-101346000D03*
X144674000Y-93726000D03*
X152294000Y-103886000D03*
X144674000Y-91186000D03*
X152294000Y-106426000D03*
D17*
X144674000Y-88646000D03*
G36*
G01*
X157110000Y-91836002D02*
X157110000Y-90535998D01*
G75*
G02*
X157359998Y-90286000I249998J0D01*
G01*
X158185002Y-90286000D01*
G75*
G02*
X158435000Y-90535998I0J-249998D01*
G01*
X158435000Y-91836002D01*
G75*
G02*
X158185002Y-92086000I-249998J0D01*
G01*
X157359998Y-92086000D01*
G75*
G02*
X157110000Y-91836002I0J249998D01*
G01*
G37*
G36*
G01*
X153985000Y-91836002D02*
X153985000Y-90535998D01*
G75*
G02*
X154234998Y-90286000I249998J0D01*
G01*
X155060002Y-90286000D01*
G75*
G02*
X155310000Y-90535998I0J-249998D01*
G01*
X155310000Y-91836002D01*
G75*
G02*
X155060002Y-92086000I-249998J0D01*
G01*
X154234998Y-92086000D01*
G75*
G02*
X153985000Y-91836002I0J249998D01*
G01*
G37*
G36*
G01*
X157110000Y-94376002D02*
X157110000Y-93075998D01*
G75*
G02*
X157359998Y-92826000I249998J0D01*
G01*
X158185002Y-92826000D01*
G75*
G02*
X158435000Y-93075998I0J-249998D01*
G01*
X158435000Y-94376002D01*
G75*
G02*
X158185002Y-94626000I-249998J0D01*
G01*
X157359998Y-94626000D01*
G75*
G02*
X157110000Y-94376002I0J249998D01*
G01*
G37*
G36*
G01*
X153985000Y-94376002D02*
X153985000Y-93075998D01*
G75*
G02*
X154234998Y-92826000I249998J0D01*
G01*
X155060002Y-92826000D01*
G75*
G02*
X155310000Y-93075998I0J-249998D01*
G01*
X155310000Y-94376002D01*
G75*
G02*
X155060002Y-94626000I-249998J0D01*
G01*
X154234998Y-94626000D01*
G75*
G02*
X153985000Y-94376002I0J249998D01*
G01*
G37*
G36*
G01*
X157148500Y-104536002D02*
X157148500Y-103235998D01*
G75*
G02*
X157398498Y-102986000I249998J0D01*
G01*
X158223502Y-102986000D01*
G75*
G02*
X158473500Y-103235998I0J-249998D01*
G01*
X158473500Y-104536002D01*
G75*
G02*
X158223502Y-104786000I-249998J0D01*
G01*
X157398498Y-104786000D01*
G75*
G02*
X157148500Y-104536002I0J249998D01*
G01*
G37*
G36*
G01*
X154023500Y-104536002D02*
X154023500Y-103235998D01*
G75*
G02*
X154273498Y-102986000I249998J0D01*
G01*
X155098502Y-102986000D01*
G75*
G02*
X155348500Y-103235998I0J-249998D01*
G01*
X155348500Y-104536002D01*
G75*
G02*
X155098502Y-104786000I-249998J0D01*
G01*
X154273498Y-104786000D01*
G75*
G02*
X154023500Y-104536002I0J249998D01*
G01*
G37*
D15*
X169672000Y-111569500D03*
X164211000Y-111569500D03*
X175133000Y-111569500D03*
X181102000Y-84709000D03*
X181102000Y-77216000D03*
X148463000Y-111569500D03*
X143002000Y-111569500D03*
X153924000Y-111569500D03*
G36*
G01*
X156958000Y-68023502D02*
X156958000Y-66723498D01*
G75*
G02*
X157207998Y-66473500I249998J0D01*
G01*
X158033002Y-66473500D01*
G75*
G02*
X158283000Y-66723498I0J-249998D01*
G01*
X158283000Y-68023502D01*
G75*
G02*
X158033002Y-68273500I-249998J0D01*
G01*
X157207998Y-68273500D01*
G75*
G02*
X156958000Y-68023502I0J249998D01*
G01*
G37*
G36*
G01*
X153833000Y-68023502D02*
X153833000Y-66723498D01*
G75*
G02*
X154082998Y-66473500I249998J0D01*
G01*
X154908002Y-66473500D01*
G75*
G02*
X155158000Y-66723498I0J-249998D01*
G01*
X155158000Y-68023502D01*
G75*
G02*
X154908002Y-68273500I-249998J0D01*
G01*
X154082998Y-68273500D01*
G75*
G02*
X153833000Y-68023502I0J249998D01*
G01*
G37*
G36*
G01*
X156958000Y-70563502D02*
X156958000Y-69263498D01*
G75*
G02*
X157207998Y-69013500I249998J0D01*
G01*
X158033002Y-69013500D01*
G75*
G02*
X158283000Y-69263498I0J-249998D01*
G01*
X158283000Y-70563502D01*
G75*
G02*
X158033002Y-70813500I-249998J0D01*
G01*
X157207998Y-70813500D01*
G75*
G02*
X156958000Y-70563502I0J249998D01*
G01*
G37*
G36*
G01*
X153833000Y-70563502D02*
X153833000Y-69263498D01*
G75*
G02*
X154082998Y-69013500I249998J0D01*
G01*
X154908002Y-69013500D01*
G75*
G02*
X155158000Y-69263498I0J-249998D01*
G01*
X155158000Y-70563502D01*
G75*
G02*
X154908002Y-70813500I-249998J0D01*
G01*
X154082998Y-70813500D01*
G75*
G02*
X153833000Y-70563502I0J249998D01*
G01*
G37*
G36*
G01*
X156958000Y-80723502D02*
X156958000Y-79423498D01*
G75*
G02*
X157207998Y-79173500I249998J0D01*
G01*
X158033002Y-79173500D01*
G75*
G02*
X158283000Y-79423498I0J-249998D01*
G01*
X158283000Y-80723502D01*
G75*
G02*
X158033002Y-80973500I-249998J0D01*
G01*
X157207998Y-80973500D01*
G75*
G02*
X156958000Y-80723502I0J249998D01*
G01*
G37*
G36*
G01*
X153833000Y-80723502D02*
X153833000Y-79423498D01*
G75*
G02*
X154082998Y-79173500I249998J0D01*
G01*
X154908002Y-79173500D01*
G75*
G02*
X155158000Y-79423498I0J-249998D01*
G01*
X155158000Y-80723502D01*
G75*
G02*
X154908002Y-80973500I-249998J0D01*
G01*
X154082998Y-80973500D01*
G75*
G02*
X153833000Y-80723502I0J249998D01*
G01*
G37*
G36*
G01*
X129694000Y-104170500D02*
X129694000Y-103220500D01*
G75*
G02*
X129944000Y-102970500I250000J0D01*
G01*
X130619000Y-102970500D01*
G75*
G02*
X130869000Y-103220500I0J-250000D01*
G01*
X130869000Y-104170500D01*
G75*
G02*
X130619000Y-104420500I-250000J0D01*
G01*
X129944000Y-104420500D01*
G75*
G02*
X129694000Y-104170500I0J250000D01*
G01*
G37*
G36*
G01*
X127619000Y-104170500D02*
X127619000Y-103220500D01*
G75*
G02*
X127869000Y-102970500I250000J0D01*
G01*
X128544000Y-102970500D01*
G75*
G02*
X128794000Y-103220500I0J-250000D01*
G01*
X128794000Y-104170500D01*
G75*
G02*
X128544000Y-104420500I-250000J0D01*
G01*
X127869000Y-104420500D01*
G75*
G02*
X127619000Y-104170500I0J250000D01*
G01*
G37*
G36*
G01*
X135536000Y-104170500D02*
X135536000Y-103220500D01*
G75*
G02*
X135786000Y-102970500I250000J0D01*
G01*
X136461000Y-102970500D01*
G75*
G02*
X136711000Y-103220500I0J-250000D01*
G01*
X136711000Y-104170500D01*
G75*
G02*
X136461000Y-104420500I-250000J0D01*
G01*
X135786000Y-104420500D01*
G75*
G02*
X135536000Y-104170500I0J250000D01*
G01*
G37*
G36*
G01*
X133461000Y-104170500D02*
X133461000Y-103220500D01*
G75*
G02*
X133711000Y-102970500I250000J0D01*
G01*
X134386000Y-102970500D01*
G75*
G02*
X134636000Y-103220500I0J-250000D01*
G01*
X134636000Y-104170500D01*
G75*
G02*
X134386000Y-104420500I-250000J0D01*
G01*
X133711000Y-104420500D01*
G75*
G02*
X133461000Y-104170500I0J250000D01*
G01*
G37*
G36*
G01*
X126141500Y-105637000D02*
X125191500Y-105637000D01*
G75*
G02*
X124941500Y-105387000I0J250000D01*
G01*
X124941500Y-104712000D01*
G75*
G02*
X125191500Y-104462000I250000J0D01*
G01*
X126141500Y-104462000D01*
G75*
G02*
X126391500Y-104712000I0J-250000D01*
G01*
X126391500Y-105387000D01*
G75*
G02*
X126141500Y-105637000I-250000J0D01*
G01*
G37*
G36*
G01*
X126141500Y-107712000D02*
X125191500Y-107712000D01*
G75*
G02*
X124941500Y-107462000I0J250000D01*
G01*
X124941500Y-106787000D01*
G75*
G02*
X125191500Y-106537000I250000J0D01*
G01*
X126141500Y-106537000D01*
G75*
G02*
X126391500Y-106787000I0J-250000D01*
G01*
X126391500Y-107462000D01*
G75*
G02*
X126141500Y-107712000I-250000J0D01*
G01*
G37*
D16*
X152318501Y-64821001D03*
X144698501Y-82601001D03*
X152318501Y-67361001D03*
X144698501Y-80061001D03*
X152318501Y-69901001D03*
X144698501Y-77521001D03*
X152318501Y-72441001D03*
X144698501Y-74981001D03*
X152318501Y-74981001D03*
X144698501Y-72441001D03*
X152318501Y-77521001D03*
X144698501Y-69901001D03*
X152318501Y-80061001D03*
X144698501Y-67361001D03*
X152318501Y-82601001D03*
D17*
X144698501Y-64821001D03*
G36*
G01*
X132350500Y-71699000D02*
X132825500Y-71699000D01*
G75*
G02*
X133063000Y-71936500I0J-237500D01*
G01*
X133063000Y-72536500D01*
G75*
G02*
X132825500Y-72774000I-237500J0D01*
G01*
X132350500Y-72774000D01*
G75*
G02*
X132113000Y-72536500I0J237500D01*
G01*
X132113000Y-71936500D01*
G75*
G02*
X132350500Y-71699000I237500J0D01*
G01*
G37*
G36*
G01*
X132350500Y-69974000D02*
X132825500Y-69974000D01*
G75*
G02*
X133063000Y-70211500I0J-237500D01*
G01*
X133063000Y-70811500D01*
G75*
G02*
X132825500Y-71049000I-237500J0D01*
G01*
X132350500Y-71049000D01*
G75*
G02*
X132113000Y-70811500I0J237500D01*
G01*
X132113000Y-70211500D01*
G75*
G02*
X132350500Y-69974000I237500J0D01*
G01*
G37*
G36*
G01*
X139375000Y-81677500D02*
X139375000Y-82152500D01*
G75*
G02*
X139137500Y-82390000I-237500J0D01*
G01*
X138537500Y-82390000D01*
G75*
G02*
X138300000Y-82152500I0J237500D01*
G01*
X138300000Y-81677500D01*
G75*
G02*
X138537500Y-81440000I237500J0D01*
G01*
X139137500Y-81440000D01*
G75*
G02*
X139375000Y-81677500I0J-237500D01*
G01*
G37*
G36*
G01*
X141100000Y-81677500D02*
X141100000Y-82152500D01*
G75*
G02*
X140862500Y-82390000I-237500J0D01*
G01*
X140262500Y-82390000D01*
G75*
G02*
X140025000Y-82152500I0J237500D01*
G01*
X140025000Y-81677500D01*
G75*
G02*
X140262500Y-81440000I237500J0D01*
G01*
X140862500Y-81440000D01*
G75*
G02*
X141100000Y-81677500I0J-237500D01*
G01*
G37*
G36*
G01*
X122525500Y-77326500D02*
X122525500Y-76851500D01*
G75*
G02*
X122763000Y-76614000I237500J0D01*
G01*
X123363000Y-76614000D01*
G75*
G02*
X123600500Y-76851500I0J-237500D01*
G01*
X123600500Y-77326500D01*
G75*
G02*
X123363000Y-77564000I-237500J0D01*
G01*
X122763000Y-77564000D01*
G75*
G02*
X122525500Y-77326500I0J237500D01*
G01*
G37*
G36*
G01*
X120800500Y-77326500D02*
X120800500Y-76851500D01*
G75*
G02*
X121038000Y-76614000I237500J0D01*
G01*
X121638000Y-76614000D01*
G75*
G02*
X121875500Y-76851500I0J-237500D01*
G01*
X121875500Y-77326500D01*
G75*
G02*
X121638000Y-77564000I-237500J0D01*
G01*
X121038000Y-77564000D01*
G75*
G02*
X120800500Y-77326500I0J237500D01*
G01*
G37*
D18*
X125349000Y-84315000D03*
X125349000Y-83515000D03*
X125349000Y-82715000D03*
X125349000Y-81915000D03*
X125349000Y-81115000D03*
X125349000Y-80315000D03*
X125349000Y-79515000D03*
X125349000Y-78715000D03*
X125349000Y-77915000D03*
X125349000Y-77115000D03*
X125349000Y-76315000D03*
D19*
X127049000Y-74615000D03*
X127849000Y-74615000D03*
X128649000Y-74615000D03*
X129449000Y-74615000D03*
X130249000Y-74615000D03*
X131049000Y-74615000D03*
X131849000Y-74615000D03*
X132649000Y-74615000D03*
X133449000Y-74615000D03*
X134249000Y-74615000D03*
X135049000Y-74615000D03*
D18*
X136749000Y-76315000D03*
X136749000Y-77115000D03*
X136749000Y-77915000D03*
X136749000Y-78715000D03*
X136749000Y-79515000D03*
X136749000Y-80315000D03*
X136749000Y-81115000D03*
X136749000Y-81915000D03*
X136749000Y-82715000D03*
X136749000Y-83515000D03*
X136749000Y-84315000D03*
D19*
X135049000Y-86015000D03*
X134249000Y-86015000D03*
X133449000Y-86015000D03*
X132649000Y-86015000D03*
X131849000Y-86015000D03*
X131049000Y-86015000D03*
X130249000Y-86015000D03*
X129449000Y-86015000D03*
X128649000Y-86015000D03*
X127849000Y-86015000D03*
X127049000Y-86015000D03*
D20*
X128211500Y-106321500D03*
X130111500Y-106321500D03*
X130111500Y-108521500D03*
X129161500Y-108521500D03*
X128211500Y-108521500D03*
X134048500Y-106321500D03*
X135948500Y-106321500D03*
X135948500Y-108521500D03*
X134998500Y-108521500D03*
X134048500Y-108521500D03*
G36*
G01*
X131288500Y-88121500D02*
X131288500Y-87646500D01*
G75*
G02*
X131526000Y-87409000I237500J0D01*
G01*
X132126000Y-87409000D01*
G75*
G02*
X132363500Y-87646500I0J-237500D01*
G01*
X132363500Y-88121500D01*
G75*
G02*
X132126000Y-88359000I-237500J0D01*
G01*
X131526000Y-88359000D01*
G75*
G02*
X131288500Y-88121500I0J237500D01*
G01*
G37*
G36*
G01*
X129563500Y-88121500D02*
X129563500Y-87646500D01*
G75*
G02*
X129801000Y-87409000I237500J0D01*
G01*
X130401000Y-87409000D01*
G75*
G02*
X130638500Y-87646500I0J-237500D01*
G01*
X130638500Y-88121500D01*
G75*
G02*
X130401000Y-88359000I-237500J0D01*
G01*
X129801000Y-88359000D01*
G75*
G02*
X129563500Y-88121500I0J237500D01*
G01*
G37*
G36*
G01*
X122241500Y-80120500D02*
X122241500Y-79645500D01*
G75*
G02*
X122479000Y-79408000I237500J0D01*
G01*
X122979000Y-79408000D01*
G75*
G02*
X123216500Y-79645500I0J-237500D01*
G01*
X123216500Y-80120500D01*
G75*
G02*
X122979000Y-80358000I-237500J0D01*
G01*
X122479000Y-80358000D01*
G75*
G02*
X122241500Y-80120500I0J237500D01*
G01*
G37*
G36*
G01*
X120416500Y-80120500D02*
X120416500Y-79645500D01*
G75*
G02*
X120654000Y-79408000I237500J0D01*
G01*
X121154000Y-79408000D01*
G75*
G02*
X121391500Y-79645500I0J-237500D01*
G01*
X121391500Y-80120500D01*
G75*
G02*
X121154000Y-80358000I-237500J0D01*
G01*
X120654000Y-80358000D01*
G75*
G02*
X120416500Y-80120500I0J237500D01*
G01*
G37*
G36*
G01*
X122241500Y-81771500D02*
X122241500Y-81296500D01*
G75*
G02*
X122479000Y-81059000I237500J0D01*
G01*
X122979000Y-81059000D01*
G75*
G02*
X123216500Y-81296500I0J-237500D01*
G01*
X123216500Y-81771500D01*
G75*
G02*
X122979000Y-82009000I-237500J0D01*
G01*
X122479000Y-82009000D01*
G75*
G02*
X122241500Y-81771500I0J237500D01*
G01*
G37*
G36*
G01*
X120416500Y-81771500D02*
X120416500Y-81296500D01*
G75*
G02*
X120654000Y-81059000I237500J0D01*
G01*
X121154000Y-81059000D01*
G75*
G02*
X121391500Y-81296500I0J-237500D01*
G01*
X121391500Y-81771500D01*
G75*
G02*
X121154000Y-82009000I-237500J0D01*
G01*
X120654000Y-82009000D01*
G75*
G02*
X120416500Y-81771500I0J237500D01*
G01*
G37*
G36*
G01*
X122241500Y-83422500D02*
X122241500Y-82947500D01*
G75*
G02*
X122479000Y-82710000I237500J0D01*
G01*
X122979000Y-82710000D01*
G75*
G02*
X123216500Y-82947500I0J-237500D01*
G01*
X123216500Y-83422500D01*
G75*
G02*
X122979000Y-83660000I-237500J0D01*
G01*
X122479000Y-83660000D01*
G75*
G02*
X122241500Y-83422500I0J237500D01*
G01*
G37*
G36*
G01*
X120416500Y-83422500D02*
X120416500Y-82947500D01*
G75*
G02*
X120654000Y-82710000I237500J0D01*
G01*
X121154000Y-82710000D01*
G75*
G02*
X121391500Y-82947500I0J-237500D01*
G01*
X121391500Y-83422500D01*
G75*
G02*
X121154000Y-83660000I-237500J0D01*
G01*
X120654000Y-83660000D01*
G75*
G02*
X120416500Y-83422500I0J237500D01*
G01*
G37*
G36*
G01*
X122194500Y-85073500D02*
X122194500Y-84598500D01*
G75*
G02*
X122432000Y-84361000I237500J0D01*
G01*
X122932000Y-84361000D01*
G75*
G02*
X123169500Y-84598500I0J-237500D01*
G01*
X123169500Y-85073500D01*
G75*
G02*
X122932000Y-85311000I-237500J0D01*
G01*
X122432000Y-85311000D01*
G75*
G02*
X122194500Y-85073500I0J237500D01*
G01*
G37*
G36*
G01*
X120369500Y-85073500D02*
X120369500Y-84598500D01*
G75*
G02*
X120607000Y-84361000I237500J0D01*
G01*
X121107000Y-84361000D01*
G75*
G02*
X121344500Y-84598500I0J-237500D01*
G01*
X121344500Y-85073500D01*
G75*
G02*
X121107000Y-85311000I-237500J0D01*
G01*
X120607000Y-85311000D01*
G75*
G02*
X120369500Y-85073500I0J237500D01*
G01*
G37*
D15*
X134556500Y-111569500D03*
X128460500Y-111569500D03*
D21*
X113030000Y-110363000D03*
X180340000Y-110363000D03*
X180340000Y-66040000D03*
X113030000Y-66040000D03*
M02*
