G04 #@! TF.GenerationSoftware,KiCad,Pcbnew,(5.1.10-0-10_14)*
G04 #@! TF.CreationDate,2021-10-03T15:14:27+02:00*
G04 #@! TF.ProjectId,lv-lownoise-psu,6c762d6c-6f77-46e6-9f69-73652d707375,rev?*
G04 #@! TF.SameCoordinates,Original*
G04 #@! TF.FileFunction,Copper,L2,Bot*
G04 #@! TF.FilePolarity,Positive*
%FSLAX46Y46*%
G04 Gerber Fmt 4.6, Leading zero omitted, Abs format (unit mm)*
G04 Created by KiCad (PCBNEW (5.1.10-0-10_14)) date 2021-10-03 15:14:27*
%MOMM*%
%LPD*%
G01*
G04 APERTURE LIST*
G04 #@! TA.AperFunction,ComponentPad*
%ADD10C,1.440000*%
G04 #@! TD*
G04 #@! TA.AperFunction,ComponentPad*
%ADD11C,2.000000*%
G04 #@! TD*
G04 #@! TA.AperFunction,ComponentPad*
%ADD12C,1.600000*%
G04 #@! TD*
G04 #@! TA.AperFunction,ComponentPad*
%ADD13R,1.600000X1.600000*%
G04 #@! TD*
G04 #@! TA.AperFunction,ComponentPad*
%ADD14O,2.000000X1.905000*%
G04 #@! TD*
G04 #@! TA.AperFunction,ComponentPad*
%ADD15R,2.000000X1.905000*%
G04 #@! TD*
G04 #@! TA.AperFunction,ComponentPad*
%ADD16O,1.905000X2.000000*%
G04 #@! TD*
G04 #@! TA.AperFunction,ComponentPad*
%ADD17R,1.905000X2.000000*%
G04 #@! TD*
G04 #@! TA.AperFunction,ComponentPad*
%ADD18C,2.400000*%
G04 #@! TD*
G04 #@! TA.AperFunction,ComponentPad*
%ADD19R,2.400000X2.400000*%
G04 #@! TD*
G04 #@! TA.AperFunction,ComponentPad*
%ADD20C,2.600000*%
G04 #@! TD*
G04 #@! TA.AperFunction,ViaPad*
%ADD21C,0.800000*%
G04 #@! TD*
G04 #@! TA.AperFunction,Conductor*
%ADD22C,0.500000*%
G04 #@! TD*
G04 #@! TA.AperFunction,Conductor*
%ADD23C,0.250000*%
G04 #@! TD*
G04 APERTURE END LIST*
D10*
X135255000Y-77025500D03*
X132715000Y-77025500D03*
X130175000Y-77025500D03*
X135255000Y-57023000D03*
X132715000Y-57023000D03*
X130175000Y-57023000D03*
D11*
X148018500Y-49784000D03*
D12*
X137922000Y-69532500D03*
D13*
X137922000Y-67032500D03*
D12*
X137922000Y-47220500D03*
D13*
X137922000Y-49720500D03*
D12*
X129222500Y-72183000D03*
D13*
X129222500Y-67183000D03*
D12*
X129222500Y-47324000D03*
D13*
X129222500Y-52324000D03*
D11*
X94551500Y-86550500D03*
X103822500Y-86550500D03*
X103822500Y-30353000D03*
X94869000Y-30353000D03*
X124333000Y-30353000D03*
X115379500Y-30353000D03*
X147955000Y-66548000D03*
X146113500Y-58039000D03*
D14*
X120650000Y-69469000D03*
X120650000Y-72009000D03*
D15*
X120650000Y-74549000D03*
D14*
X120650000Y-47244000D03*
X120650000Y-49784000D03*
D15*
X120650000Y-52324000D03*
D16*
X101790500Y-81089500D03*
X99250500Y-81089500D03*
D17*
X96710500Y-81089500D03*
D16*
X96774000Y-35814000D03*
X99314000Y-35814000D03*
D17*
X101854000Y-35814000D03*
D18*
X104394000Y-62992000D03*
D19*
X104394000Y-70492000D03*
D18*
X104394000Y-45840000D03*
D19*
X104394000Y-53340000D03*
D20*
X83921600Y-49631600D03*
X86360000Y-58166000D03*
X83972400Y-67259200D03*
D21*
X93827600Y-50800000D03*
X114236500Y-47244000D03*
X88849200Y-50647600D03*
X88726000Y-61997600D03*
X93726000Y-65125600D03*
X114109500Y-72009000D03*
X108331000Y-30353000D03*
X88747600Y-65125600D03*
X91338400Y-50800000D03*
X123571000Y-72707500D03*
X123571000Y-52959000D03*
D22*
X101854000Y-50800000D02*
X104394000Y-53340000D01*
X93827600Y-50800000D02*
X101854000Y-50800000D01*
X101854000Y-35814000D02*
X101854000Y-50800000D01*
X110490000Y-47244000D02*
X104394000Y-53340000D01*
X114236500Y-47244000D02*
X110490000Y-47244000D01*
X87833200Y-49631600D02*
X88849200Y-50647600D01*
X83921600Y-49631600D02*
X87833200Y-49631600D01*
X88849200Y-61874400D02*
X88726000Y-61997600D01*
X88849200Y-50647600D02*
X88849200Y-61874400D01*
X93751400Y-65151000D02*
X93726000Y-65125600D01*
X102260400Y-65125600D02*
X104394000Y-62992000D01*
X93726000Y-65125600D02*
X102260400Y-65125600D01*
X113411000Y-72009000D02*
X104394000Y-62992000D01*
X114109500Y-72009000D02*
X113411000Y-72009000D01*
X104394000Y-62992000D02*
X99250500Y-68135500D01*
X99250500Y-68135500D02*
X99250500Y-81089500D01*
D23*
X94805500Y-30289500D02*
X94869000Y-30353000D01*
D22*
X94869000Y-30353000D02*
X96319001Y-31803001D01*
X96319001Y-31803001D02*
X97091500Y-32575500D01*
X106108500Y-32575500D02*
X108331000Y-30353000D01*
X97091500Y-32575500D02*
X106108500Y-32575500D01*
X147993100Y-49809400D02*
X148018500Y-49784000D01*
X137985500Y-49784000D02*
X137922000Y-49720500D01*
X148018500Y-49784000D02*
X137985500Y-49784000D01*
X120713500Y-49720500D02*
X120650000Y-49784000D01*
X137922000Y-49720500D02*
X120713500Y-49720500D01*
X147929600Y-66522600D02*
X147955000Y-66548000D01*
X120713500Y-69532500D02*
X120650000Y-69469000D01*
X137922000Y-69532500D02*
X120713500Y-69532500D01*
X144970500Y-69532500D02*
X147955000Y-66548000D01*
X137922000Y-69532500D02*
X144970500Y-69532500D01*
X83972400Y-67259200D02*
X86106000Y-65125600D01*
X86106000Y-65125600D02*
X88747600Y-65125600D01*
X88747600Y-65125600D02*
X89865200Y-65125600D01*
X91338400Y-63652400D02*
X91338400Y-50800000D01*
X89865200Y-65125600D02*
X91338400Y-63652400D01*
X128698000Y-72707500D02*
X129222500Y-72183000D01*
X123571000Y-72707500D02*
X128698000Y-72707500D01*
X123571000Y-72707500D02*
X123571000Y-73279000D01*
X127889000Y-77025500D02*
X123571000Y-72707500D01*
X130175000Y-77025500D02*
X127889000Y-77025500D01*
X121285000Y-52959000D02*
X120650000Y-52324000D01*
X123571000Y-52959000D02*
X121285000Y-52959000D01*
X128587500Y-52959000D02*
X129222500Y-52324000D01*
X123571000Y-52959000D02*
X128587500Y-52959000D01*
X127635000Y-57023000D02*
X123571000Y-52959000D01*
X130175000Y-57023000D02*
X127635000Y-57023000D01*
M02*
