G04 #@! TF.GenerationSoftware,KiCad,Pcbnew,(5.1.9-0-10_14)*
G04 #@! TF.CreationDate,2021-04-24T14:40:39+02:00*
G04 #@! TF.ProjectId,xilinx-cpld-breakout,78696c69-6e78-42d6-9370-6c642d627265,rev?*
G04 #@! TF.SameCoordinates,Original*
G04 #@! TF.FileFunction,Copper,L2,Bot*
G04 #@! TF.FilePolarity,Positive*
%FSLAX46Y46*%
G04 Gerber Fmt 4.6, Leading zero omitted, Abs format (unit mm)*
G04 Created by KiCad (PCBNEW (5.1.9-0-10_14)) date 2021-04-24 14:40:39*
%MOMM*%
%LPD*%
G01*
G04 APERTURE LIST*
G04 #@! TA.AperFunction,ComponentPad*
%ADD10O,1.350000X1.350000*%
G04 #@! TD*
G04 #@! TA.AperFunction,ComponentPad*
%ADD11R,1.350000X1.350000*%
G04 #@! TD*
G04 #@! TA.AperFunction,ComponentPad*
%ADD12O,1.700000X1.700000*%
G04 #@! TD*
G04 #@! TA.AperFunction,ComponentPad*
%ADD13R,1.700000X1.700000*%
G04 #@! TD*
G04 #@! TA.AperFunction,SMDPad,CuDef*
%ADD14R,0.650000X1.060000*%
G04 #@! TD*
G04 #@! TA.AperFunction,SMDPad,CuDef*
%ADD15C,0.100000*%
G04 #@! TD*
G04 #@! TA.AperFunction,ViaPad*
%ADD16C,0.600000*%
G04 #@! TD*
G04 #@! TA.AperFunction,ViaPad*
%ADD17C,0.800000*%
G04 #@! TD*
G04 #@! TA.AperFunction,Conductor*
%ADD18C,0.250000*%
G04 #@! TD*
G04 #@! TA.AperFunction,Conductor*
%ADD19C,0.254000*%
G04 #@! TD*
G04 #@! TA.AperFunction,Conductor*
%ADD20C,0.100000*%
G04 #@! TD*
G04 APERTURE END LIST*
D10*
X113854000Y-157385000D03*
X113854000Y-159385000D03*
X111854000Y-157385000D03*
X111854000Y-159385000D03*
X109854000Y-157385000D03*
X109854000Y-159385000D03*
X107854000Y-157385000D03*
X107854000Y-159385000D03*
X105854000Y-157385000D03*
X105854000Y-159385000D03*
X103854000Y-157385000D03*
X103854000Y-159385000D03*
X101854000Y-157385000D03*
D11*
X101854000Y-159385000D03*
G04 #@! TA.AperFunction,SMDPad,CuDef*
G36*
G01*
X109368632Y-136230992D02*
X109704508Y-136566868D01*
G75*
G02*
X109704508Y-136902744I-167938J-167938D01*
G01*
X109280244Y-137327008D01*
G75*
G02*
X108944368Y-137327008I-167938J167938D01*
G01*
X108608492Y-136991132D01*
G75*
G02*
X108608492Y-136655256I167938J167938D01*
G01*
X109032756Y-136230992D01*
G75*
G02*
X109368632Y-136230992I167938J-167938D01*
G01*
G37*
G04 #@! TD.AperFunction*
G04 #@! TA.AperFunction,SMDPad,CuDef*
G36*
G01*
X110588392Y-135011232D02*
X110924268Y-135347108D01*
G75*
G02*
X110924268Y-135682984I-167938J-167938D01*
G01*
X110500004Y-136107248D01*
G75*
G02*
X110164128Y-136107248I-167938J167938D01*
G01*
X109828252Y-135771372D01*
G75*
G02*
X109828252Y-135435496I167938J167938D01*
G01*
X110252516Y-135011232D01*
G75*
G02*
X110588392Y-135011232I167938J-167938D01*
G01*
G37*
G04 #@! TD.AperFunction*
D12*
X119380000Y-110490000D03*
X119380000Y-113030000D03*
X119380000Y-115570000D03*
X119380000Y-118110000D03*
X119380000Y-120650000D03*
X119380000Y-123190000D03*
X119380000Y-125730000D03*
X119380000Y-128270000D03*
X119380000Y-130810000D03*
X119380000Y-133350000D03*
X119380000Y-135890000D03*
X119380000Y-138430000D03*
X119380000Y-140970000D03*
X119380000Y-143510000D03*
X119380000Y-146050000D03*
X119380000Y-148590000D03*
X119380000Y-151130000D03*
X119380000Y-153670000D03*
X119380000Y-156210000D03*
D13*
X119380000Y-158750000D03*
D12*
X96520000Y-158750000D03*
X96520000Y-156210000D03*
X96520000Y-153670000D03*
X96520000Y-151130000D03*
X96520000Y-148590000D03*
X96520000Y-146050000D03*
X96520000Y-143510000D03*
X96520000Y-140970000D03*
X96520000Y-138430000D03*
X96520000Y-135890000D03*
X96520000Y-133350000D03*
X96520000Y-130810000D03*
X96520000Y-128270000D03*
X96520000Y-125730000D03*
X96520000Y-123190000D03*
X96520000Y-120650000D03*
X96520000Y-118110000D03*
X96520000Y-115570000D03*
X96520000Y-113030000D03*
D13*
X96520000Y-110490000D03*
D14*
X104968000Y-115801500D03*
X106868000Y-115801500D03*
X106868000Y-113601500D03*
X105918000Y-113601500D03*
X104968000Y-113601500D03*
X100457000Y-115801500D03*
X102357000Y-115801500D03*
X102357000Y-113601500D03*
X101407000Y-113601500D03*
X100457000Y-113601500D03*
X112776000Y-117770000D03*
X114676000Y-117770000D03*
X114676000Y-115570000D03*
X113726000Y-115570000D03*
X112776000Y-115570000D03*
G04 #@! TA.AperFunction,SMDPad,CuDef*
D15*
G36*
X107455723Y-134371117D02*
G01*
X108516383Y-135431777D01*
X107809277Y-136138883D01*
X106748617Y-135078223D01*
X107455723Y-134371117D01*
G37*
G04 #@! TD.AperFunction*
G04 #@! TA.AperFunction,SMDPad,CuDef*
G36*
X107243165Y-136704143D02*
G01*
X107225817Y-136721492D01*
X107187887Y-136752619D01*
X107147089Y-136779880D01*
X107103815Y-136803010D01*
X107058483Y-136821788D01*
X107011528Y-136836031D01*
X106963403Y-136845604D01*
X106914572Y-136850413D01*
X106865503Y-136850413D01*
X106816673Y-136845604D01*
X106768548Y-136836031D01*
X106721593Y-136821788D01*
X106676260Y-136803010D01*
X106632986Y-136779880D01*
X106592188Y-136752619D01*
X106554258Y-136721492D01*
X106536910Y-136704143D01*
X106536484Y-136704569D01*
X106182931Y-136351016D01*
X106183357Y-136350590D01*
X106166008Y-136333242D01*
X106134881Y-136295312D01*
X106107620Y-136254514D01*
X106084490Y-136211240D01*
X106065712Y-136165907D01*
X106051469Y-136118952D01*
X106041896Y-136070827D01*
X106037087Y-136021997D01*
X106037087Y-135972928D01*
X106041896Y-135924097D01*
X106051469Y-135875972D01*
X106065712Y-135829017D01*
X106084490Y-135783685D01*
X106107620Y-135740411D01*
X106134881Y-135699613D01*
X106166008Y-135661683D01*
X106183357Y-135644335D01*
X106182931Y-135643909D01*
X106571840Y-135255000D01*
X107632500Y-136315660D01*
X107243591Y-136704569D01*
X107243165Y-136704143D01*
G37*
G04 #@! TD.AperFunction*
G04 #@! TA.AperFunction,SMDPad,CuDef*
G36*
X107632500Y-134194340D02*
G01*
X108021409Y-133805431D01*
X108021835Y-133805857D01*
X108039183Y-133788508D01*
X108077113Y-133757381D01*
X108117911Y-133730120D01*
X108161185Y-133706990D01*
X108206517Y-133688212D01*
X108253472Y-133673969D01*
X108301597Y-133664396D01*
X108350428Y-133659587D01*
X108399497Y-133659587D01*
X108448327Y-133664396D01*
X108496452Y-133673969D01*
X108543407Y-133688212D01*
X108588740Y-133706990D01*
X108632014Y-133730120D01*
X108672812Y-133757381D01*
X108710742Y-133788508D01*
X108728090Y-133805857D01*
X108728516Y-133805431D01*
X109082069Y-134158984D01*
X109081643Y-134159410D01*
X109098992Y-134176758D01*
X109130119Y-134214688D01*
X109157380Y-134255486D01*
X109180510Y-134298760D01*
X109199288Y-134344093D01*
X109213531Y-134391048D01*
X109223104Y-134439173D01*
X109227913Y-134488003D01*
X109227913Y-134537072D01*
X109223104Y-134585903D01*
X109213531Y-134634028D01*
X109199288Y-134680983D01*
X109180510Y-134726315D01*
X109157380Y-134769589D01*
X109130119Y-134810387D01*
X109098992Y-134848317D01*
X109081643Y-134865665D01*
X109082069Y-134866091D01*
X108693160Y-135255000D01*
X107632500Y-134194340D01*
G37*
G04 #@! TD.AperFunction*
G04 #@! TA.AperFunction,SMDPad,CuDef*
G36*
X106058723Y-131894617D02*
G01*
X107119383Y-132955277D01*
X106412277Y-133662383D01*
X105351617Y-132601723D01*
X106058723Y-131894617D01*
G37*
G04 #@! TD.AperFunction*
G04 #@! TA.AperFunction,SMDPad,CuDef*
G36*
X105846165Y-134227643D02*
G01*
X105828817Y-134244992D01*
X105790887Y-134276119D01*
X105750089Y-134303380D01*
X105706815Y-134326510D01*
X105661483Y-134345288D01*
X105614528Y-134359531D01*
X105566403Y-134369104D01*
X105517572Y-134373913D01*
X105468503Y-134373913D01*
X105419673Y-134369104D01*
X105371548Y-134359531D01*
X105324593Y-134345288D01*
X105279260Y-134326510D01*
X105235986Y-134303380D01*
X105195188Y-134276119D01*
X105157258Y-134244992D01*
X105139910Y-134227643D01*
X105139484Y-134228069D01*
X104785931Y-133874516D01*
X104786357Y-133874090D01*
X104769008Y-133856742D01*
X104737881Y-133818812D01*
X104710620Y-133778014D01*
X104687490Y-133734740D01*
X104668712Y-133689407D01*
X104654469Y-133642452D01*
X104644896Y-133594327D01*
X104640087Y-133545497D01*
X104640087Y-133496428D01*
X104644896Y-133447597D01*
X104654469Y-133399472D01*
X104668712Y-133352517D01*
X104687490Y-133307185D01*
X104710620Y-133263911D01*
X104737881Y-133223113D01*
X104769008Y-133185183D01*
X104786357Y-133167835D01*
X104785931Y-133167409D01*
X105174840Y-132778500D01*
X106235500Y-133839160D01*
X105846591Y-134228069D01*
X105846165Y-134227643D01*
G37*
G04 #@! TD.AperFunction*
G04 #@! TA.AperFunction,SMDPad,CuDef*
G36*
X106235500Y-131717840D02*
G01*
X106624409Y-131328931D01*
X106624835Y-131329357D01*
X106642183Y-131312008D01*
X106680113Y-131280881D01*
X106720911Y-131253620D01*
X106764185Y-131230490D01*
X106809517Y-131211712D01*
X106856472Y-131197469D01*
X106904597Y-131187896D01*
X106953428Y-131183087D01*
X107002497Y-131183087D01*
X107051327Y-131187896D01*
X107099452Y-131197469D01*
X107146407Y-131211712D01*
X107191740Y-131230490D01*
X107235014Y-131253620D01*
X107275812Y-131280881D01*
X107313742Y-131312008D01*
X107331090Y-131329357D01*
X107331516Y-131328931D01*
X107685069Y-131682484D01*
X107684643Y-131682910D01*
X107701992Y-131700258D01*
X107733119Y-131738188D01*
X107760380Y-131778986D01*
X107783510Y-131822260D01*
X107802288Y-131867593D01*
X107816531Y-131914548D01*
X107826104Y-131962673D01*
X107830913Y-132011503D01*
X107830913Y-132060572D01*
X107826104Y-132109403D01*
X107816531Y-132157528D01*
X107802288Y-132204483D01*
X107783510Y-132249815D01*
X107760380Y-132293089D01*
X107733119Y-132333887D01*
X107701992Y-132371817D01*
X107684643Y-132389165D01*
X107685069Y-132389591D01*
X107296160Y-132778500D01*
X106235500Y-131717840D01*
G37*
G04 #@! TD.AperFunction*
G04 #@! TA.AperFunction,SMDPad,CuDef*
G36*
G01*
X106453000Y-118204000D02*
X106453000Y-117254000D01*
G75*
G02*
X106703000Y-117004000I250000J0D01*
G01*
X107378000Y-117004000D01*
G75*
G02*
X107628000Y-117254000I0J-250000D01*
G01*
X107628000Y-118204000D01*
G75*
G02*
X107378000Y-118454000I-250000J0D01*
G01*
X106703000Y-118454000D01*
G75*
G02*
X106453000Y-118204000I0J250000D01*
G01*
G37*
G04 #@! TD.AperFunction*
G04 #@! TA.AperFunction,SMDPad,CuDef*
G36*
G01*
X104378000Y-118204000D02*
X104378000Y-117254000D01*
G75*
G02*
X104628000Y-117004000I250000J0D01*
G01*
X105303000Y-117004000D01*
G75*
G02*
X105553000Y-117254000I0J-250000D01*
G01*
X105553000Y-118204000D01*
G75*
G02*
X105303000Y-118454000I-250000J0D01*
G01*
X104628000Y-118454000D01*
G75*
G02*
X104378000Y-118204000I0J250000D01*
G01*
G37*
G04 #@! TD.AperFunction*
G04 #@! TA.AperFunction,SMDPad,CuDef*
G36*
G01*
X101944500Y-118204000D02*
X101944500Y-117254000D01*
G75*
G02*
X102194500Y-117004000I250000J0D01*
G01*
X102869500Y-117004000D01*
G75*
G02*
X103119500Y-117254000I0J-250000D01*
G01*
X103119500Y-118204000D01*
G75*
G02*
X102869500Y-118454000I-250000J0D01*
G01*
X102194500Y-118454000D01*
G75*
G02*
X101944500Y-118204000I0J250000D01*
G01*
G37*
G04 #@! TD.AperFunction*
G04 #@! TA.AperFunction,SMDPad,CuDef*
G36*
G01*
X99869500Y-118204000D02*
X99869500Y-117254000D01*
G75*
G02*
X100119500Y-117004000I250000J0D01*
G01*
X100794500Y-117004000D01*
G75*
G02*
X101044500Y-117254000I0J-250000D01*
G01*
X101044500Y-118204000D01*
G75*
G02*
X100794500Y-118454000I-250000J0D01*
G01*
X100119500Y-118454000D01*
G75*
G02*
X99869500Y-118204000I0J250000D01*
G01*
G37*
G04 #@! TD.AperFunction*
G04 #@! TA.AperFunction,SMDPad,CuDef*
G36*
G01*
X109949000Y-113193500D02*
X108999000Y-113193500D01*
G75*
G02*
X108749000Y-112943500I0J250000D01*
G01*
X108749000Y-112268500D01*
G75*
G02*
X108999000Y-112018500I250000J0D01*
G01*
X109949000Y-112018500D01*
G75*
G02*
X110199000Y-112268500I0J-250000D01*
G01*
X110199000Y-112943500D01*
G75*
G02*
X109949000Y-113193500I-250000J0D01*
G01*
G37*
G04 #@! TD.AperFunction*
G04 #@! TA.AperFunction,SMDPad,CuDef*
G36*
G01*
X109949000Y-115268500D02*
X108999000Y-115268500D01*
G75*
G02*
X108749000Y-115018500I0J250000D01*
G01*
X108749000Y-114343500D01*
G75*
G02*
X108999000Y-114093500I250000J0D01*
G01*
X109949000Y-114093500D01*
G75*
G02*
X110199000Y-114343500I0J-250000D01*
G01*
X110199000Y-115018500D01*
G75*
G02*
X109949000Y-115268500I-250000J0D01*
G01*
G37*
G04 #@! TD.AperFunction*
G04 #@! TA.AperFunction,SMDPad,CuDef*
G36*
G01*
X113701000Y-110885000D02*
X111851000Y-110885000D01*
G75*
G02*
X111601000Y-110635000I0J250000D01*
G01*
X111601000Y-109635000D01*
G75*
G02*
X111851000Y-109385000I250000J0D01*
G01*
X113701000Y-109385000D01*
G75*
G02*
X113951000Y-109635000I0J-250000D01*
G01*
X113951000Y-110635000D01*
G75*
G02*
X113701000Y-110885000I-250000J0D01*
G01*
G37*
G04 #@! TD.AperFunction*
G04 #@! TA.AperFunction,SMDPad,CuDef*
G36*
G01*
X113701000Y-114135000D02*
X111851000Y-114135000D01*
G75*
G02*
X111601000Y-113885000I0J250000D01*
G01*
X111601000Y-112885000D01*
G75*
G02*
X111851000Y-112635000I250000J0D01*
G01*
X113701000Y-112635000D01*
G75*
G02*
X113951000Y-112885000I0J-250000D01*
G01*
X113951000Y-113885000D01*
G75*
G02*
X113701000Y-114135000I-250000J0D01*
G01*
G37*
G04 #@! TD.AperFunction*
G04 #@! TA.AperFunction,SMDPad,CuDef*
G36*
G01*
X104537748Y-131827628D02*
X104201872Y-131491752D01*
G75*
G02*
X104201872Y-131155876I167938J167938D01*
G01*
X104626136Y-130731612D01*
G75*
G02*
X104962012Y-130731612I167938J-167938D01*
G01*
X105297888Y-131067488D01*
G75*
G02*
X105297888Y-131403364I-167938J-167938D01*
G01*
X104873624Y-131827628D01*
G75*
G02*
X104537748Y-131827628I-167938J167938D01*
G01*
G37*
G04 #@! TD.AperFunction*
G04 #@! TA.AperFunction,SMDPad,CuDef*
G36*
G01*
X103317988Y-133047388D02*
X102982112Y-132711512D01*
G75*
G02*
X102982112Y-132375636I167938J167938D01*
G01*
X103406376Y-131951372D01*
G75*
G02*
X103742252Y-131951372I167938J-167938D01*
G01*
X104078128Y-132287248D01*
G75*
G02*
X104078128Y-132623124I-167938J-167938D01*
G01*
X103653864Y-133047388D01*
G75*
G02*
X103317988Y-133047388I-167938J167938D01*
G01*
G37*
G04 #@! TD.AperFunction*
G04 #@! TA.AperFunction,SMDPad,CuDef*
G36*
G01*
X102639492Y-134280868D02*
X102975368Y-133944992D01*
G75*
G02*
X103311244Y-133944992I167938J-167938D01*
G01*
X103735508Y-134369256D01*
G75*
G02*
X103735508Y-134705132I-167938J-167938D01*
G01*
X103399632Y-135041008D01*
G75*
G02*
X103063756Y-135041008I-167938J167938D01*
G01*
X102639492Y-134616744D01*
G75*
G02*
X102639492Y-134280868I167938J167938D01*
G01*
G37*
G04 #@! TD.AperFunction*
G04 #@! TA.AperFunction,SMDPad,CuDef*
G36*
G01*
X101419732Y-133061108D02*
X101755608Y-132725232D01*
G75*
G02*
X102091484Y-132725232I167938J-167938D01*
G01*
X102515748Y-133149496D01*
G75*
G02*
X102515748Y-133485372I-167938J-167938D01*
G01*
X102179872Y-133821248D01*
G75*
G02*
X101843996Y-133821248I-167938J167938D01*
G01*
X101419732Y-133396984D01*
G75*
G02*
X101419732Y-133061108I167938J167938D01*
G01*
G37*
G04 #@! TD.AperFunction*
G04 #@! TA.AperFunction,SMDPad,CuDef*
G36*
G01*
X111694872Y-133366748D02*
X112030748Y-133030872D01*
G75*
G02*
X112366624Y-133030872I167938J-167938D01*
G01*
X112790888Y-133455136D01*
G75*
G02*
X112790888Y-133791012I-167938J-167938D01*
G01*
X112455012Y-134126888D01*
G75*
G02*
X112119136Y-134126888I-167938J167938D01*
G01*
X111694872Y-133702624D01*
G75*
G02*
X111694872Y-133366748I167938J167938D01*
G01*
G37*
G04 #@! TD.AperFunction*
G04 #@! TA.AperFunction,SMDPad,CuDef*
G36*
G01*
X110475112Y-132146988D02*
X110810988Y-131811112D01*
G75*
G02*
X111146864Y-131811112I167938J-167938D01*
G01*
X111571128Y-132235376D01*
G75*
G02*
X111571128Y-132571252I-167938J-167938D01*
G01*
X111235252Y-132907128D01*
G75*
G02*
X110899376Y-132907128I-167938J167938D01*
G01*
X110475112Y-132482864D01*
G75*
G02*
X110475112Y-132146988I167938J167938D01*
G01*
G37*
G04 #@! TD.AperFunction*
D16*
X104965500Y-119189500D03*
X112966500Y-132842000D03*
X109601000Y-133286500D03*
X108140500Y-130873500D03*
X108049990Y-150368000D03*
X105537000Y-150368000D03*
X105410000Y-153987500D03*
X103949500Y-127127000D03*
X105156000Y-136144000D03*
D17*
X108774990Y-138430000D03*
D16*
X107315000Y-128524000D03*
X107315000Y-125095000D03*
X103865879Y-135171379D03*
X101346000Y-119126000D03*
X104140000Y-130683000D03*
X109982000Y-137668000D03*
X100012500Y-131064000D03*
X105854000Y-155896000D03*
X104267000Y-150622000D03*
X105791000Y-142240000D03*
X111252000Y-149733000D03*
X101092000Y-129857500D03*
X108966000Y-142113000D03*
X100565195Y-130459563D03*
X106799990Y-141732000D03*
X116078000Y-115570000D03*
X113792000Y-117729000D03*
D18*
X104968000Y-117726500D02*
X104965500Y-117729000D01*
X104968000Y-115801500D02*
X104968000Y-117726500D01*
X104965500Y-117729000D02*
X104965500Y-119189500D01*
X112242880Y-133565620D02*
X112966500Y-132842000D01*
X112242880Y-133578880D02*
X112242880Y-133565620D01*
X108551739Y-134335761D02*
X109601000Y-133286500D01*
X107154739Y-131859261D02*
X108140500Y-130873500D01*
X108049990Y-150368000D02*
X105537000Y-150368000D01*
X113726000Y-114790000D02*
X114216000Y-114300000D01*
X113726000Y-115570000D02*
X113726000Y-114790000D01*
X114216000Y-114300000D02*
X114935000Y-114300000D01*
X105918000Y-113601500D02*
X105918000Y-111887000D01*
X101407000Y-113601500D02*
X101407000Y-112080000D01*
X102756260Y-133273240D02*
X103530120Y-132499380D01*
X101967740Y-133273240D02*
X102756260Y-133273240D01*
X100457000Y-115801500D02*
X100457000Y-117729000D01*
X107315000Y-128524000D02*
X107315000Y-125095000D01*
X103865879Y-135171379D02*
X103187500Y-134493000D01*
X103865879Y-135148121D02*
X105316261Y-133697739D01*
X103865879Y-135171379D02*
X103865879Y-135148121D01*
X105316261Y-134777239D02*
X106713261Y-136174239D01*
X105316261Y-133697739D02*
X105316261Y-134777239D01*
X101346000Y-118618000D02*
X100457000Y-117729000D01*
X101346000Y-119126000D02*
X101346000Y-118618000D01*
X104153260Y-130683000D02*
X104749880Y-131279620D01*
X104140000Y-130683000D02*
X104153260Y-130683000D01*
X104749880Y-131292880D02*
X106235500Y-132778500D01*
X104749880Y-131279620D02*
X104749880Y-131292880D01*
X109982000Y-137604500D02*
X109156500Y-136779000D01*
X109982000Y-137668000D02*
X109982000Y-137604500D01*
X109156500Y-136779000D02*
X107632500Y-135255000D01*
X105854000Y-155896000D02*
X104267000Y-154309000D01*
X104267000Y-154309000D02*
X104267000Y-150622000D01*
X100012500Y-136461500D02*
X100012500Y-136334500D01*
X105791000Y-142240000D02*
X100012500Y-136461500D01*
X100012500Y-136334500D02*
X100012500Y-136497502D01*
X100012500Y-131064000D02*
X100012500Y-136334500D01*
X107854000Y-157385000D02*
X111252000Y-153987000D01*
X111252000Y-153987000D02*
X111252000Y-149733000D01*
X101391999Y-130157499D02*
X101092000Y-129857500D01*
X101391999Y-131245913D02*
X101391999Y-130157499D01*
X101025160Y-131612752D02*
X101391999Y-131245913D01*
X101025160Y-134172160D02*
X101025160Y-131612752D01*
X108966000Y-142113000D02*
X101025160Y-134172160D01*
X100565195Y-130459563D02*
X100690441Y-130584809D01*
X100565195Y-135497205D02*
X106799990Y-141732000D01*
X100565195Y-130459563D02*
X100865194Y-130759562D01*
X100865194Y-130759562D02*
X100865194Y-131136308D01*
X100865194Y-131136308D02*
X100565195Y-131436307D01*
X100565195Y-131436307D02*
X100565195Y-135497205D01*
X112776000Y-115570000D02*
X112776000Y-113385000D01*
X114676000Y-116350000D02*
X114676000Y-115570000D01*
X114600999Y-116425001D02*
X114676000Y-116350000D01*
X112851001Y-116425001D02*
X114600999Y-116425001D01*
X112776000Y-116350000D02*
X112851001Y-116425001D01*
X112776000Y-115570000D02*
X112776000Y-116350000D01*
X114676000Y-115570000D02*
X116078000Y-115570000D01*
X100756500Y-114681000D02*
X100457000Y-114381500D01*
X100457000Y-114381500D02*
X100457000Y-113601500D01*
X102357000Y-114549000D02*
X102489000Y-114681000D01*
X102489000Y-114681000D02*
X100756500Y-114681000D01*
X102357000Y-113601500D02*
X102357000Y-114549000D01*
X104968000Y-113601500D02*
X104968000Y-114620000D01*
X105029000Y-114681000D02*
X102489000Y-114681000D01*
X104968000Y-114620000D02*
X105029000Y-114681000D01*
X106868000Y-114615000D02*
X106934000Y-114681000D01*
X106868000Y-113601500D02*
X106868000Y-114615000D01*
X106934000Y-114681000D02*
X105029000Y-114681000D01*
X109474000Y-114681000D02*
X106934000Y-114681000D01*
X113751000Y-117770000D02*
X113792000Y-117729000D01*
X112776000Y-117770000D02*
X113751000Y-117770000D01*
X109474000Y-115043000D02*
X109474000Y-114681000D01*
X112201000Y-117770000D02*
X109474000Y-115043000D01*
X112776000Y-117770000D02*
X112201000Y-117770000D01*
D19*
X121260001Y-160630000D02*
X114258936Y-160630000D01*
X114284528Y-160622238D01*
X114517629Y-160514473D01*
X114725227Y-160363303D01*
X114899344Y-160174537D01*
X115033289Y-159955430D01*
X115121915Y-159714401D01*
X114999085Y-159512000D01*
X113981000Y-159512000D01*
X113981000Y-159532000D01*
X113727000Y-159532000D01*
X113727000Y-159512000D01*
X111981000Y-159512000D01*
X111981000Y-159532000D01*
X111727000Y-159532000D01*
X111727000Y-159512000D01*
X109981000Y-159512000D01*
X109981000Y-159532000D01*
X109727000Y-159532000D01*
X109727000Y-159512000D01*
X107981000Y-159512000D01*
X107981000Y-159532000D01*
X107727000Y-159532000D01*
X107727000Y-159512000D01*
X105981000Y-159512000D01*
X105981000Y-159532000D01*
X105727000Y-159532000D01*
X105727000Y-159512000D01*
X103981000Y-159512000D01*
X103981000Y-159532000D01*
X103727000Y-159532000D01*
X103727000Y-159512000D01*
X101981000Y-159512000D01*
X101981000Y-159532000D01*
X101727000Y-159532000D01*
X101727000Y-159512000D01*
X100702750Y-159512000D01*
X100544000Y-159670750D01*
X100540928Y-160060000D01*
X100553188Y-160184482D01*
X100589498Y-160304180D01*
X100648463Y-160414494D01*
X100727815Y-160511185D01*
X100824506Y-160590537D01*
X100898335Y-160630000D01*
X94640000Y-160630000D01*
X94640000Y-159106890D01*
X95078524Y-159106890D01*
X95123175Y-159254099D01*
X95248359Y-159516920D01*
X95422412Y-159750269D01*
X95638645Y-159945178D01*
X95888748Y-160094157D01*
X96163109Y-160191481D01*
X96393000Y-160070814D01*
X96393000Y-158877000D01*
X96647000Y-158877000D01*
X96647000Y-160070814D01*
X96876891Y-160191481D01*
X97151252Y-160094157D01*
X97401355Y-159945178D01*
X97617588Y-159750269D01*
X97791641Y-159516920D01*
X97916825Y-159254099D01*
X97961476Y-159106890D01*
X97840155Y-158877000D01*
X96647000Y-158877000D01*
X96393000Y-158877000D01*
X95199845Y-158877000D01*
X95078524Y-159106890D01*
X94640000Y-159106890D01*
X94640000Y-158710000D01*
X100540928Y-158710000D01*
X100544000Y-159099250D01*
X100702750Y-159258000D01*
X101727000Y-159258000D01*
X101727000Y-159238000D01*
X101981000Y-159238000D01*
X101981000Y-159258000D01*
X103727000Y-159258000D01*
X103727000Y-159238000D01*
X103981000Y-159238000D01*
X103981000Y-159258000D01*
X105727000Y-159258000D01*
X105727000Y-159238000D01*
X105981000Y-159238000D01*
X105981000Y-159258000D01*
X107727000Y-159258000D01*
X107727000Y-159238000D01*
X107981000Y-159238000D01*
X107981000Y-159258000D01*
X109727000Y-159258000D01*
X109727000Y-159238000D01*
X109981000Y-159238000D01*
X109981000Y-159258000D01*
X111727000Y-159258000D01*
X111727000Y-159238000D01*
X111981000Y-159238000D01*
X111981000Y-159258000D01*
X113727000Y-159258000D01*
X113727000Y-159238000D01*
X113981000Y-159238000D01*
X113981000Y-159258000D01*
X114999085Y-159258000D01*
X115121915Y-159055599D01*
X115033289Y-158814570D01*
X114899344Y-158595463D01*
X114725227Y-158406697D01*
X114701906Y-158389715D01*
X114871544Y-158220077D01*
X115014907Y-158005518D01*
X115058614Y-157900000D01*
X117891928Y-157900000D01*
X117891928Y-159600000D01*
X117904188Y-159724482D01*
X117940498Y-159844180D01*
X117999463Y-159954494D01*
X118078815Y-160051185D01*
X118175506Y-160130537D01*
X118285820Y-160189502D01*
X118405518Y-160225812D01*
X118530000Y-160238072D01*
X120230000Y-160238072D01*
X120354482Y-160225812D01*
X120474180Y-160189502D01*
X120584494Y-160130537D01*
X120681185Y-160051185D01*
X120760537Y-159954494D01*
X120819502Y-159844180D01*
X120855812Y-159724482D01*
X120868072Y-159600000D01*
X120868072Y-157900000D01*
X120855812Y-157775518D01*
X120819502Y-157655820D01*
X120760537Y-157545506D01*
X120681185Y-157448815D01*
X120584494Y-157369463D01*
X120474180Y-157310498D01*
X120401620Y-157288487D01*
X120533475Y-157156632D01*
X120695990Y-156913411D01*
X120807932Y-156643158D01*
X120865000Y-156356260D01*
X120865000Y-156063740D01*
X120807932Y-155776842D01*
X120695990Y-155506589D01*
X120533475Y-155263368D01*
X120326632Y-155056525D01*
X120152240Y-154940000D01*
X120326632Y-154823475D01*
X120533475Y-154616632D01*
X120695990Y-154373411D01*
X120807932Y-154103158D01*
X120865000Y-153816260D01*
X120865000Y-153523740D01*
X120807932Y-153236842D01*
X120695990Y-152966589D01*
X120533475Y-152723368D01*
X120326632Y-152516525D01*
X120152240Y-152400000D01*
X120326632Y-152283475D01*
X120533475Y-152076632D01*
X120695990Y-151833411D01*
X120807932Y-151563158D01*
X120865000Y-151276260D01*
X120865000Y-150983740D01*
X120807932Y-150696842D01*
X120695990Y-150426589D01*
X120533475Y-150183368D01*
X120326632Y-149976525D01*
X120152240Y-149860000D01*
X120326632Y-149743475D01*
X120533475Y-149536632D01*
X120695990Y-149293411D01*
X120807932Y-149023158D01*
X120865000Y-148736260D01*
X120865000Y-148443740D01*
X120807932Y-148156842D01*
X120695990Y-147886589D01*
X120533475Y-147643368D01*
X120326632Y-147436525D01*
X120152240Y-147320000D01*
X120326632Y-147203475D01*
X120533475Y-146996632D01*
X120695990Y-146753411D01*
X120807932Y-146483158D01*
X120865000Y-146196260D01*
X120865000Y-145903740D01*
X120807932Y-145616842D01*
X120695990Y-145346589D01*
X120533475Y-145103368D01*
X120326632Y-144896525D01*
X120152240Y-144780000D01*
X120326632Y-144663475D01*
X120533475Y-144456632D01*
X120695990Y-144213411D01*
X120807932Y-143943158D01*
X120865000Y-143656260D01*
X120865000Y-143363740D01*
X120807932Y-143076842D01*
X120695990Y-142806589D01*
X120533475Y-142563368D01*
X120326632Y-142356525D01*
X120152240Y-142240000D01*
X120326632Y-142123475D01*
X120533475Y-141916632D01*
X120695990Y-141673411D01*
X120807932Y-141403158D01*
X120865000Y-141116260D01*
X120865000Y-140823740D01*
X120807932Y-140536842D01*
X120695990Y-140266589D01*
X120533475Y-140023368D01*
X120326632Y-139816525D01*
X120152240Y-139700000D01*
X120326632Y-139583475D01*
X120533475Y-139376632D01*
X120695990Y-139133411D01*
X120807932Y-138863158D01*
X120865000Y-138576260D01*
X120865000Y-138283740D01*
X120807932Y-137996842D01*
X120695990Y-137726589D01*
X120533475Y-137483368D01*
X120326632Y-137276525D01*
X120152240Y-137160000D01*
X120326632Y-137043475D01*
X120533475Y-136836632D01*
X120695990Y-136593411D01*
X120807932Y-136323158D01*
X120865000Y-136036260D01*
X120865000Y-135743740D01*
X120807932Y-135456842D01*
X120695990Y-135186589D01*
X120533475Y-134943368D01*
X120326632Y-134736525D01*
X120152240Y-134620000D01*
X120326632Y-134503475D01*
X120533475Y-134296632D01*
X120695990Y-134053411D01*
X120807932Y-133783158D01*
X120865000Y-133496260D01*
X120865000Y-133203740D01*
X120807932Y-132916842D01*
X120695990Y-132646589D01*
X120533475Y-132403368D01*
X120326632Y-132196525D01*
X120152240Y-132080000D01*
X120326632Y-131963475D01*
X120533475Y-131756632D01*
X120695990Y-131513411D01*
X120807932Y-131243158D01*
X120865000Y-130956260D01*
X120865000Y-130663740D01*
X120807932Y-130376842D01*
X120695990Y-130106589D01*
X120533475Y-129863368D01*
X120326632Y-129656525D01*
X120152240Y-129540000D01*
X120326632Y-129423475D01*
X120533475Y-129216632D01*
X120695990Y-128973411D01*
X120807932Y-128703158D01*
X120865000Y-128416260D01*
X120865000Y-128123740D01*
X120807932Y-127836842D01*
X120695990Y-127566589D01*
X120533475Y-127323368D01*
X120326632Y-127116525D01*
X120152240Y-127000000D01*
X120326632Y-126883475D01*
X120533475Y-126676632D01*
X120695990Y-126433411D01*
X120807932Y-126163158D01*
X120865000Y-125876260D01*
X120865000Y-125583740D01*
X120807932Y-125296842D01*
X120695990Y-125026589D01*
X120533475Y-124783368D01*
X120326632Y-124576525D01*
X120152240Y-124460000D01*
X120326632Y-124343475D01*
X120533475Y-124136632D01*
X120695990Y-123893411D01*
X120807932Y-123623158D01*
X120865000Y-123336260D01*
X120865000Y-123043740D01*
X120807932Y-122756842D01*
X120695990Y-122486589D01*
X120533475Y-122243368D01*
X120326632Y-122036525D01*
X120152240Y-121920000D01*
X120326632Y-121803475D01*
X120533475Y-121596632D01*
X120695990Y-121353411D01*
X120807932Y-121083158D01*
X120865000Y-120796260D01*
X120865000Y-120503740D01*
X120807932Y-120216842D01*
X120695990Y-119946589D01*
X120533475Y-119703368D01*
X120326632Y-119496525D01*
X120152240Y-119380000D01*
X120326632Y-119263475D01*
X120533475Y-119056632D01*
X120695990Y-118813411D01*
X120807932Y-118543158D01*
X120865000Y-118256260D01*
X120865000Y-117963740D01*
X120807932Y-117676842D01*
X120695990Y-117406589D01*
X120533475Y-117163368D01*
X120326632Y-116956525D01*
X120152240Y-116840000D01*
X120326632Y-116723475D01*
X120533475Y-116516632D01*
X120695990Y-116273411D01*
X120807932Y-116003158D01*
X120865000Y-115716260D01*
X120865000Y-115423740D01*
X120807932Y-115136842D01*
X120695990Y-114866589D01*
X120533475Y-114623368D01*
X120326632Y-114416525D01*
X120152240Y-114300000D01*
X120326632Y-114183475D01*
X120533475Y-113976632D01*
X120695990Y-113733411D01*
X120807932Y-113463158D01*
X120865000Y-113176260D01*
X120865000Y-112883740D01*
X120807932Y-112596842D01*
X120695990Y-112326589D01*
X120533475Y-112083368D01*
X120326632Y-111876525D01*
X120152240Y-111760000D01*
X120326632Y-111643475D01*
X120533475Y-111436632D01*
X120695990Y-111193411D01*
X120807932Y-110923158D01*
X120865000Y-110636260D01*
X120865000Y-110343740D01*
X120807932Y-110056842D01*
X120695990Y-109786589D01*
X120533475Y-109543368D01*
X120326632Y-109336525D01*
X120083411Y-109174010D01*
X119813158Y-109062068D01*
X119526260Y-109005000D01*
X119233740Y-109005000D01*
X118946842Y-109062068D01*
X118676589Y-109174010D01*
X118433368Y-109336525D01*
X118226525Y-109543368D01*
X118064010Y-109786589D01*
X117952068Y-110056842D01*
X117895000Y-110343740D01*
X117895000Y-110636260D01*
X117952068Y-110923158D01*
X118064010Y-111193411D01*
X118226525Y-111436632D01*
X118433368Y-111643475D01*
X118607760Y-111760000D01*
X118433368Y-111876525D01*
X118226525Y-112083368D01*
X118064010Y-112326589D01*
X117952068Y-112596842D01*
X117895000Y-112883740D01*
X117895000Y-113176260D01*
X117952068Y-113463158D01*
X118064010Y-113733411D01*
X118226525Y-113976632D01*
X118433368Y-114183475D01*
X118607760Y-114300000D01*
X118433368Y-114416525D01*
X118226525Y-114623368D01*
X118064010Y-114866589D01*
X117952068Y-115136842D01*
X117895000Y-115423740D01*
X117895000Y-115716260D01*
X117952068Y-116003158D01*
X118064010Y-116273411D01*
X118226525Y-116516632D01*
X118433368Y-116723475D01*
X118607760Y-116840000D01*
X118433368Y-116956525D01*
X118226525Y-117163368D01*
X118064010Y-117406589D01*
X117952068Y-117676842D01*
X117895000Y-117963740D01*
X117895000Y-118256260D01*
X117952068Y-118543158D01*
X118064010Y-118813411D01*
X118226525Y-119056632D01*
X118433368Y-119263475D01*
X118607760Y-119380000D01*
X118433368Y-119496525D01*
X118226525Y-119703368D01*
X118064010Y-119946589D01*
X117952068Y-120216842D01*
X117895000Y-120503740D01*
X117895000Y-120796260D01*
X117952068Y-121083158D01*
X118064010Y-121353411D01*
X118226525Y-121596632D01*
X118433368Y-121803475D01*
X118607760Y-121920000D01*
X118433368Y-122036525D01*
X118226525Y-122243368D01*
X118064010Y-122486589D01*
X117952068Y-122756842D01*
X117895000Y-123043740D01*
X117895000Y-123336260D01*
X117952068Y-123623158D01*
X118064010Y-123893411D01*
X118226525Y-124136632D01*
X118433368Y-124343475D01*
X118607760Y-124460000D01*
X118433368Y-124576525D01*
X118226525Y-124783368D01*
X118064010Y-125026589D01*
X117952068Y-125296842D01*
X117895000Y-125583740D01*
X117895000Y-125876260D01*
X117952068Y-126163158D01*
X118064010Y-126433411D01*
X118226525Y-126676632D01*
X118433368Y-126883475D01*
X118607760Y-127000000D01*
X118433368Y-127116525D01*
X118226525Y-127323368D01*
X118064010Y-127566589D01*
X117952068Y-127836842D01*
X117895000Y-128123740D01*
X117895000Y-128416260D01*
X117952068Y-128703158D01*
X118064010Y-128973411D01*
X118226525Y-129216632D01*
X118433368Y-129423475D01*
X118607760Y-129540000D01*
X118433368Y-129656525D01*
X118226525Y-129863368D01*
X118064010Y-130106589D01*
X117952068Y-130376842D01*
X117895000Y-130663740D01*
X117895000Y-130956260D01*
X117952068Y-131243158D01*
X118064010Y-131513411D01*
X118226525Y-131756632D01*
X118433368Y-131963475D01*
X118607760Y-132080000D01*
X118433368Y-132196525D01*
X118226525Y-132403368D01*
X118064010Y-132646589D01*
X117952068Y-132916842D01*
X117895000Y-133203740D01*
X117895000Y-133496260D01*
X117952068Y-133783158D01*
X118064010Y-134053411D01*
X118226525Y-134296632D01*
X118433368Y-134503475D01*
X118607760Y-134620000D01*
X118433368Y-134736525D01*
X118226525Y-134943368D01*
X118064010Y-135186589D01*
X117952068Y-135456842D01*
X117895000Y-135743740D01*
X117895000Y-136036260D01*
X117952068Y-136323158D01*
X118064010Y-136593411D01*
X118226525Y-136836632D01*
X118433368Y-137043475D01*
X118607760Y-137160000D01*
X118433368Y-137276525D01*
X118226525Y-137483368D01*
X118064010Y-137726589D01*
X117952068Y-137996842D01*
X117895000Y-138283740D01*
X117895000Y-138576260D01*
X117952068Y-138863158D01*
X118064010Y-139133411D01*
X118226525Y-139376632D01*
X118433368Y-139583475D01*
X118607760Y-139700000D01*
X118433368Y-139816525D01*
X118226525Y-140023368D01*
X118064010Y-140266589D01*
X117952068Y-140536842D01*
X117895000Y-140823740D01*
X117895000Y-141116260D01*
X117952068Y-141403158D01*
X118064010Y-141673411D01*
X118226525Y-141916632D01*
X118433368Y-142123475D01*
X118607760Y-142240000D01*
X118433368Y-142356525D01*
X118226525Y-142563368D01*
X118064010Y-142806589D01*
X117952068Y-143076842D01*
X117895000Y-143363740D01*
X117895000Y-143656260D01*
X117952068Y-143943158D01*
X118064010Y-144213411D01*
X118226525Y-144456632D01*
X118433368Y-144663475D01*
X118607760Y-144780000D01*
X118433368Y-144896525D01*
X118226525Y-145103368D01*
X118064010Y-145346589D01*
X117952068Y-145616842D01*
X117895000Y-145903740D01*
X117895000Y-146196260D01*
X117952068Y-146483158D01*
X118064010Y-146753411D01*
X118226525Y-146996632D01*
X118433368Y-147203475D01*
X118607760Y-147320000D01*
X118433368Y-147436525D01*
X118226525Y-147643368D01*
X118064010Y-147886589D01*
X117952068Y-148156842D01*
X117895000Y-148443740D01*
X117895000Y-148736260D01*
X117952068Y-149023158D01*
X118064010Y-149293411D01*
X118226525Y-149536632D01*
X118433368Y-149743475D01*
X118607760Y-149860000D01*
X118433368Y-149976525D01*
X118226525Y-150183368D01*
X118064010Y-150426589D01*
X117952068Y-150696842D01*
X117895000Y-150983740D01*
X117895000Y-151276260D01*
X117952068Y-151563158D01*
X118064010Y-151833411D01*
X118226525Y-152076632D01*
X118433368Y-152283475D01*
X118607760Y-152400000D01*
X118433368Y-152516525D01*
X118226525Y-152723368D01*
X118064010Y-152966589D01*
X117952068Y-153236842D01*
X117895000Y-153523740D01*
X117895000Y-153816260D01*
X117952068Y-154103158D01*
X118064010Y-154373411D01*
X118226525Y-154616632D01*
X118433368Y-154823475D01*
X118607760Y-154940000D01*
X118433368Y-155056525D01*
X118226525Y-155263368D01*
X118064010Y-155506589D01*
X117952068Y-155776842D01*
X117895000Y-156063740D01*
X117895000Y-156356260D01*
X117952068Y-156643158D01*
X118064010Y-156913411D01*
X118226525Y-157156632D01*
X118358380Y-157288487D01*
X118285820Y-157310498D01*
X118175506Y-157369463D01*
X118078815Y-157448815D01*
X117999463Y-157545506D01*
X117940498Y-157655820D01*
X117904188Y-157775518D01*
X117891928Y-157900000D01*
X115058614Y-157900000D01*
X115113658Y-157767113D01*
X115164000Y-157514024D01*
X115164000Y-157255976D01*
X115113658Y-157002887D01*
X115014907Y-156764482D01*
X114871544Y-156549923D01*
X114689077Y-156367456D01*
X114474518Y-156224093D01*
X114236113Y-156125342D01*
X113983024Y-156075000D01*
X113724976Y-156075000D01*
X113471887Y-156125342D01*
X113233482Y-156224093D01*
X113018923Y-156367456D01*
X112854000Y-156532379D01*
X112689077Y-156367456D01*
X112474518Y-156224093D01*
X112236113Y-156125342D01*
X111983024Y-156075000D01*
X111724976Y-156075000D01*
X111471887Y-156125342D01*
X111233482Y-156224093D01*
X111018923Y-156367456D01*
X110854000Y-156532379D01*
X110689077Y-156367456D01*
X110474518Y-156224093D01*
X110236113Y-156125342D01*
X110196366Y-156117436D01*
X111763004Y-154550798D01*
X111792001Y-154527001D01*
X111886974Y-154411276D01*
X111957546Y-154279247D01*
X112001003Y-154135986D01*
X112012000Y-154024333D01*
X112012000Y-154024325D01*
X112015676Y-153987000D01*
X112012000Y-153949675D01*
X112012000Y-150278535D01*
X112080586Y-150175889D01*
X112151068Y-150005729D01*
X112187000Y-149825089D01*
X112187000Y-149640911D01*
X112151068Y-149460271D01*
X112080586Y-149290111D01*
X111978262Y-149136972D01*
X111848028Y-149006738D01*
X111694889Y-148904414D01*
X111524729Y-148833932D01*
X111344089Y-148798000D01*
X111159911Y-148798000D01*
X110979271Y-148833932D01*
X110809111Y-148904414D01*
X110655972Y-149006738D01*
X110525738Y-149136972D01*
X110423414Y-149290111D01*
X110352932Y-149460271D01*
X110317000Y-149640911D01*
X110317000Y-149825089D01*
X110352932Y-150005729D01*
X110423414Y-150175889D01*
X110492001Y-150278537D01*
X110492000Y-153672198D01*
X108071583Y-156092615D01*
X107983024Y-156075000D01*
X107724976Y-156075000D01*
X107471887Y-156125342D01*
X107233482Y-156224093D01*
X107018923Y-156367456D01*
X106854000Y-156532379D01*
X106689077Y-156367456D01*
X106671393Y-156355640D01*
X106682586Y-156338889D01*
X106753068Y-156168729D01*
X106789000Y-155988089D01*
X106789000Y-155803911D01*
X106753068Y-155623271D01*
X106682586Y-155453111D01*
X106580262Y-155299972D01*
X106450028Y-155169738D01*
X106296889Y-155067414D01*
X106126729Y-154996932D01*
X106005649Y-154972847D01*
X105027000Y-153994199D01*
X105027000Y-151167535D01*
X105034295Y-151156618D01*
X105094111Y-151196586D01*
X105264271Y-151267068D01*
X105444911Y-151303000D01*
X105629089Y-151303000D01*
X105809729Y-151267068D01*
X105979889Y-151196586D01*
X106082535Y-151128000D01*
X107504455Y-151128000D01*
X107607101Y-151196586D01*
X107777261Y-151267068D01*
X107957901Y-151303000D01*
X108142079Y-151303000D01*
X108322719Y-151267068D01*
X108492879Y-151196586D01*
X108646018Y-151094262D01*
X108776252Y-150964028D01*
X108878576Y-150810889D01*
X108949058Y-150640729D01*
X108984990Y-150460089D01*
X108984990Y-150275911D01*
X108949058Y-150095271D01*
X108878576Y-149925111D01*
X108776252Y-149771972D01*
X108646018Y-149641738D01*
X108492879Y-149539414D01*
X108322719Y-149468932D01*
X108142079Y-149433000D01*
X107957901Y-149433000D01*
X107777261Y-149468932D01*
X107607101Y-149539414D01*
X107504455Y-149608000D01*
X106082535Y-149608000D01*
X105979889Y-149539414D01*
X105809729Y-149468932D01*
X105629089Y-149433000D01*
X105444911Y-149433000D01*
X105264271Y-149468932D01*
X105094111Y-149539414D01*
X104940972Y-149641738D01*
X104810738Y-149771972D01*
X104769705Y-149833382D01*
X104709889Y-149793414D01*
X104539729Y-149722932D01*
X104359089Y-149687000D01*
X104174911Y-149687000D01*
X103994271Y-149722932D01*
X103824111Y-149793414D01*
X103670972Y-149895738D01*
X103540738Y-150025972D01*
X103438414Y-150179111D01*
X103367932Y-150349271D01*
X103332000Y-150529911D01*
X103332000Y-150714089D01*
X103367932Y-150894729D01*
X103438414Y-151064889D01*
X103507001Y-151167537D01*
X103507000Y-154271677D01*
X103503324Y-154309000D01*
X103507000Y-154346322D01*
X103507000Y-154346332D01*
X103517997Y-154457985D01*
X103561454Y-154601246D01*
X103632026Y-154733276D01*
X103646307Y-154750677D01*
X103726999Y-154849001D01*
X103756003Y-154872804D01*
X104930847Y-156047649D01*
X104954932Y-156168729D01*
X105025414Y-156338889D01*
X105036607Y-156355640D01*
X105018923Y-156367456D01*
X104854000Y-156532379D01*
X104689077Y-156367456D01*
X104474518Y-156224093D01*
X104236113Y-156125342D01*
X103983024Y-156075000D01*
X103724976Y-156075000D01*
X103471887Y-156125342D01*
X103233482Y-156224093D01*
X103018923Y-156367456D01*
X102854000Y-156532379D01*
X102689077Y-156367456D01*
X102474518Y-156224093D01*
X102236113Y-156125342D01*
X101983024Y-156075000D01*
X101724976Y-156075000D01*
X101471887Y-156125342D01*
X101233482Y-156224093D01*
X101018923Y-156367456D01*
X100836456Y-156549923D01*
X100693093Y-156764482D01*
X100594342Y-157002887D01*
X100544000Y-157255976D01*
X100544000Y-157514024D01*
X100594342Y-157767113D01*
X100693093Y-158005518D01*
X100814697Y-158187513D01*
X100727815Y-158258815D01*
X100648463Y-158355506D01*
X100589498Y-158465820D01*
X100553188Y-158585518D01*
X100540928Y-158710000D01*
X94640000Y-158710000D01*
X94640000Y-109640000D01*
X95031928Y-109640000D01*
X95031928Y-111340000D01*
X95044188Y-111464482D01*
X95080498Y-111584180D01*
X95139463Y-111694494D01*
X95218815Y-111791185D01*
X95315506Y-111870537D01*
X95425820Y-111929502D01*
X95498380Y-111951513D01*
X95366525Y-112083368D01*
X95204010Y-112326589D01*
X95092068Y-112596842D01*
X95035000Y-112883740D01*
X95035000Y-113176260D01*
X95092068Y-113463158D01*
X95204010Y-113733411D01*
X95366525Y-113976632D01*
X95573368Y-114183475D01*
X95747760Y-114300000D01*
X95573368Y-114416525D01*
X95366525Y-114623368D01*
X95204010Y-114866589D01*
X95092068Y-115136842D01*
X95035000Y-115423740D01*
X95035000Y-115716260D01*
X95092068Y-116003158D01*
X95204010Y-116273411D01*
X95366525Y-116516632D01*
X95573368Y-116723475D01*
X95747760Y-116840000D01*
X95573368Y-116956525D01*
X95366525Y-117163368D01*
X95204010Y-117406589D01*
X95092068Y-117676842D01*
X95035000Y-117963740D01*
X95035000Y-118256260D01*
X95092068Y-118543158D01*
X95204010Y-118813411D01*
X95366525Y-119056632D01*
X95573368Y-119263475D01*
X95747760Y-119380000D01*
X95573368Y-119496525D01*
X95366525Y-119703368D01*
X95204010Y-119946589D01*
X95092068Y-120216842D01*
X95035000Y-120503740D01*
X95035000Y-120796260D01*
X95092068Y-121083158D01*
X95204010Y-121353411D01*
X95366525Y-121596632D01*
X95573368Y-121803475D01*
X95747760Y-121920000D01*
X95573368Y-122036525D01*
X95366525Y-122243368D01*
X95204010Y-122486589D01*
X95092068Y-122756842D01*
X95035000Y-123043740D01*
X95035000Y-123336260D01*
X95092068Y-123623158D01*
X95204010Y-123893411D01*
X95366525Y-124136632D01*
X95573368Y-124343475D01*
X95747760Y-124460000D01*
X95573368Y-124576525D01*
X95366525Y-124783368D01*
X95204010Y-125026589D01*
X95092068Y-125296842D01*
X95035000Y-125583740D01*
X95035000Y-125876260D01*
X95092068Y-126163158D01*
X95204010Y-126433411D01*
X95366525Y-126676632D01*
X95573368Y-126883475D01*
X95747760Y-127000000D01*
X95573368Y-127116525D01*
X95366525Y-127323368D01*
X95204010Y-127566589D01*
X95092068Y-127836842D01*
X95035000Y-128123740D01*
X95035000Y-128416260D01*
X95092068Y-128703158D01*
X95204010Y-128973411D01*
X95366525Y-129216632D01*
X95573368Y-129423475D01*
X95747760Y-129540000D01*
X95573368Y-129656525D01*
X95366525Y-129863368D01*
X95204010Y-130106589D01*
X95092068Y-130376842D01*
X95035000Y-130663740D01*
X95035000Y-130956260D01*
X95092068Y-131243158D01*
X95204010Y-131513411D01*
X95366525Y-131756632D01*
X95573368Y-131963475D01*
X95747760Y-132080000D01*
X95573368Y-132196525D01*
X95366525Y-132403368D01*
X95204010Y-132646589D01*
X95092068Y-132916842D01*
X95035000Y-133203740D01*
X95035000Y-133496260D01*
X95092068Y-133783158D01*
X95204010Y-134053411D01*
X95366525Y-134296632D01*
X95573368Y-134503475D01*
X95747760Y-134620000D01*
X95573368Y-134736525D01*
X95366525Y-134943368D01*
X95204010Y-135186589D01*
X95092068Y-135456842D01*
X95035000Y-135743740D01*
X95035000Y-136036260D01*
X95092068Y-136323158D01*
X95204010Y-136593411D01*
X95366525Y-136836632D01*
X95573368Y-137043475D01*
X95747760Y-137160000D01*
X95573368Y-137276525D01*
X95366525Y-137483368D01*
X95204010Y-137726589D01*
X95092068Y-137996842D01*
X95035000Y-138283740D01*
X95035000Y-138576260D01*
X95092068Y-138863158D01*
X95204010Y-139133411D01*
X95366525Y-139376632D01*
X95573368Y-139583475D01*
X95747760Y-139700000D01*
X95573368Y-139816525D01*
X95366525Y-140023368D01*
X95204010Y-140266589D01*
X95092068Y-140536842D01*
X95035000Y-140823740D01*
X95035000Y-141116260D01*
X95092068Y-141403158D01*
X95204010Y-141673411D01*
X95366525Y-141916632D01*
X95573368Y-142123475D01*
X95747760Y-142240000D01*
X95573368Y-142356525D01*
X95366525Y-142563368D01*
X95204010Y-142806589D01*
X95092068Y-143076842D01*
X95035000Y-143363740D01*
X95035000Y-143656260D01*
X95092068Y-143943158D01*
X95204010Y-144213411D01*
X95366525Y-144456632D01*
X95573368Y-144663475D01*
X95747760Y-144780000D01*
X95573368Y-144896525D01*
X95366525Y-145103368D01*
X95204010Y-145346589D01*
X95092068Y-145616842D01*
X95035000Y-145903740D01*
X95035000Y-146196260D01*
X95092068Y-146483158D01*
X95204010Y-146753411D01*
X95366525Y-146996632D01*
X95573368Y-147203475D01*
X95747760Y-147320000D01*
X95573368Y-147436525D01*
X95366525Y-147643368D01*
X95204010Y-147886589D01*
X95092068Y-148156842D01*
X95035000Y-148443740D01*
X95035000Y-148736260D01*
X95092068Y-149023158D01*
X95204010Y-149293411D01*
X95366525Y-149536632D01*
X95573368Y-149743475D01*
X95747760Y-149860000D01*
X95573368Y-149976525D01*
X95366525Y-150183368D01*
X95204010Y-150426589D01*
X95092068Y-150696842D01*
X95035000Y-150983740D01*
X95035000Y-151276260D01*
X95092068Y-151563158D01*
X95204010Y-151833411D01*
X95366525Y-152076632D01*
X95573368Y-152283475D01*
X95747760Y-152400000D01*
X95573368Y-152516525D01*
X95366525Y-152723368D01*
X95204010Y-152966589D01*
X95092068Y-153236842D01*
X95035000Y-153523740D01*
X95035000Y-153816260D01*
X95092068Y-154103158D01*
X95204010Y-154373411D01*
X95366525Y-154616632D01*
X95573368Y-154823475D01*
X95747760Y-154940000D01*
X95573368Y-155056525D01*
X95366525Y-155263368D01*
X95204010Y-155506589D01*
X95092068Y-155776842D01*
X95035000Y-156063740D01*
X95035000Y-156356260D01*
X95092068Y-156643158D01*
X95204010Y-156913411D01*
X95366525Y-157156632D01*
X95573368Y-157363475D01*
X95755534Y-157485195D01*
X95638645Y-157554822D01*
X95422412Y-157749731D01*
X95248359Y-157983080D01*
X95123175Y-158245901D01*
X95078524Y-158393110D01*
X95199845Y-158623000D01*
X96393000Y-158623000D01*
X96393000Y-158603000D01*
X96647000Y-158603000D01*
X96647000Y-158623000D01*
X97840155Y-158623000D01*
X97961476Y-158393110D01*
X97916825Y-158245901D01*
X97791641Y-157983080D01*
X97617588Y-157749731D01*
X97401355Y-157554822D01*
X97284466Y-157485195D01*
X97466632Y-157363475D01*
X97673475Y-157156632D01*
X97835990Y-156913411D01*
X97947932Y-156643158D01*
X98005000Y-156356260D01*
X98005000Y-156063740D01*
X97947932Y-155776842D01*
X97835990Y-155506589D01*
X97673475Y-155263368D01*
X97466632Y-155056525D01*
X97292240Y-154940000D01*
X97466632Y-154823475D01*
X97673475Y-154616632D01*
X97835990Y-154373411D01*
X97947932Y-154103158D01*
X98005000Y-153816260D01*
X98005000Y-153523740D01*
X97947932Y-153236842D01*
X97835990Y-152966589D01*
X97673475Y-152723368D01*
X97466632Y-152516525D01*
X97292240Y-152400000D01*
X97466632Y-152283475D01*
X97673475Y-152076632D01*
X97835990Y-151833411D01*
X97947932Y-151563158D01*
X98005000Y-151276260D01*
X98005000Y-150983740D01*
X97947932Y-150696842D01*
X97835990Y-150426589D01*
X97673475Y-150183368D01*
X97466632Y-149976525D01*
X97292240Y-149860000D01*
X97466632Y-149743475D01*
X97673475Y-149536632D01*
X97835990Y-149293411D01*
X97947932Y-149023158D01*
X98005000Y-148736260D01*
X98005000Y-148443740D01*
X97947932Y-148156842D01*
X97835990Y-147886589D01*
X97673475Y-147643368D01*
X97466632Y-147436525D01*
X97292240Y-147320000D01*
X97466632Y-147203475D01*
X97673475Y-146996632D01*
X97835990Y-146753411D01*
X97947932Y-146483158D01*
X98005000Y-146196260D01*
X98005000Y-145903740D01*
X97947932Y-145616842D01*
X97835990Y-145346589D01*
X97673475Y-145103368D01*
X97466632Y-144896525D01*
X97292240Y-144780000D01*
X97466632Y-144663475D01*
X97673475Y-144456632D01*
X97835990Y-144213411D01*
X97947932Y-143943158D01*
X98005000Y-143656260D01*
X98005000Y-143363740D01*
X97947932Y-143076842D01*
X97835990Y-142806589D01*
X97673475Y-142563368D01*
X97466632Y-142356525D01*
X97292240Y-142240000D01*
X97466632Y-142123475D01*
X97673475Y-141916632D01*
X97835990Y-141673411D01*
X97947932Y-141403158D01*
X98005000Y-141116260D01*
X98005000Y-140823740D01*
X97947932Y-140536842D01*
X97835990Y-140266589D01*
X97673475Y-140023368D01*
X97466632Y-139816525D01*
X97292240Y-139700000D01*
X97466632Y-139583475D01*
X97673475Y-139376632D01*
X97835990Y-139133411D01*
X97947932Y-138863158D01*
X98005000Y-138576260D01*
X98005000Y-138283740D01*
X97947932Y-137996842D01*
X97835990Y-137726589D01*
X97673475Y-137483368D01*
X97466632Y-137276525D01*
X97292240Y-137160000D01*
X97466632Y-137043475D01*
X97673475Y-136836632D01*
X97835990Y-136593411D01*
X97947932Y-136323158D01*
X98005000Y-136036260D01*
X98005000Y-135743740D01*
X97947932Y-135456842D01*
X97835990Y-135186589D01*
X97673475Y-134943368D01*
X97466632Y-134736525D01*
X97292240Y-134620000D01*
X97466632Y-134503475D01*
X97673475Y-134296632D01*
X97835990Y-134053411D01*
X97947932Y-133783158D01*
X98005000Y-133496260D01*
X98005000Y-133203740D01*
X97947932Y-132916842D01*
X97835990Y-132646589D01*
X97673475Y-132403368D01*
X97466632Y-132196525D01*
X97292240Y-132080000D01*
X97466632Y-131963475D01*
X97673475Y-131756632D01*
X97835990Y-131513411D01*
X97947932Y-131243158D01*
X98001886Y-130971911D01*
X99077500Y-130971911D01*
X99077500Y-131156089D01*
X99113432Y-131336729D01*
X99183914Y-131506889D01*
X99252500Y-131609536D01*
X99252501Y-136297158D01*
X99252500Y-136297168D01*
X99252500Y-136424178D01*
X99248824Y-136461500D01*
X99252500Y-136498822D01*
X99252500Y-136534835D01*
X99263497Y-136646488D01*
X99306954Y-136789749D01*
X99377526Y-136921778D01*
X99472499Y-137037503D01*
X99588225Y-137132476D01*
X99632158Y-137155959D01*
X104867847Y-142391649D01*
X104891932Y-142512729D01*
X104962414Y-142682889D01*
X105064738Y-142836028D01*
X105194972Y-142966262D01*
X105348111Y-143068586D01*
X105518271Y-143139068D01*
X105698911Y-143175000D01*
X105883089Y-143175000D01*
X106063729Y-143139068D01*
X106233889Y-143068586D01*
X106387028Y-142966262D01*
X106517262Y-142836028D01*
X106619586Y-142682889D01*
X106632389Y-142651980D01*
X106707901Y-142667000D01*
X106892079Y-142667000D01*
X107072719Y-142631068D01*
X107242879Y-142560586D01*
X107396018Y-142458262D01*
X107526252Y-142328028D01*
X107628576Y-142174889D01*
X107699058Y-142004729D01*
X107712973Y-141934775D01*
X108042847Y-142264649D01*
X108066932Y-142385729D01*
X108137414Y-142555889D01*
X108239738Y-142709028D01*
X108369972Y-142839262D01*
X108523111Y-142941586D01*
X108693271Y-143012068D01*
X108873911Y-143048000D01*
X109058089Y-143048000D01*
X109238729Y-143012068D01*
X109408889Y-142941586D01*
X109562028Y-142839262D01*
X109692262Y-142709028D01*
X109794586Y-142555889D01*
X109865068Y-142385729D01*
X109901000Y-142205089D01*
X109901000Y-142020911D01*
X109865068Y-141840271D01*
X109794586Y-141670111D01*
X109692262Y-141516972D01*
X109562028Y-141386738D01*
X109408889Y-141284414D01*
X109238729Y-141213932D01*
X109117649Y-141189847D01*
X104021536Y-136093734D01*
X104138608Y-136070447D01*
X104308768Y-135999965D01*
X104461907Y-135897641D01*
X104592141Y-135767407D01*
X104694465Y-135614268D01*
X104764947Y-135444108D01*
X104788229Y-135327062D01*
X104805259Y-135341038D01*
X105401883Y-135937662D01*
X105400820Y-135948454D01*
X105400820Y-136046470D01*
X105413080Y-136170949D01*
X105432202Y-136267084D01*
X105468513Y-136386787D01*
X105506023Y-136477343D01*
X105564988Y-136587657D01*
X105619443Y-136669154D01*
X105698794Y-136765843D01*
X105716158Y-136783207D01*
X105731746Y-136802201D01*
X106085299Y-137155754D01*
X106104293Y-137171342D01*
X106121657Y-137188706D01*
X106218346Y-137268057D01*
X106299843Y-137322512D01*
X106410157Y-137381477D01*
X106500713Y-137418987D01*
X106620416Y-137455298D01*
X106716551Y-137474420D01*
X106841030Y-137486680D01*
X106939046Y-137486680D01*
X107063525Y-137474420D01*
X107159660Y-137455298D01*
X107279366Y-137418986D01*
X107369921Y-137381476D01*
X107480229Y-137322514D01*
X107561727Y-137268059D01*
X107658426Y-137188700D01*
X107675791Y-137171335D01*
X107694776Y-137155754D01*
X107912198Y-136938332D01*
X107917682Y-136994010D01*
X107967507Y-137158261D01*
X108048418Y-137309636D01*
X108157307Y-137442317D01*
X108493183Y-137778193D01*
X108625864Y-137887082D01*
X108777239Y-137967993D01*
X108941490Y-138017818D01*
X109112306Y-138034642D01*
X109121458Y-138033741D01*
X109153414Y-138110889D01*
X109255738Y-138264028D01*
X109385972Y-138394262D01*
X109539111Y-138496586D01*
X109709271Y-138567068D01*
X109889911Y-138603000D01*
X110074089Y-138603000D01*
X110254729Y-138567068D01*
X110424889Y-138496586D01*
X110578028Y-138394262D01*
X110708262Y-138264028D01*
X110810586Y-138110889D01*
X110881068Y-137940729D01*
X110917000Y-137760089D01*
X110917000Y-137575911D01*
X110881068Y-137395271D01*
X110810586Y-137225111D01*
X110708262Y-137071972D01*
X110578028Y-136941738D01*
X110498162Y-136888374D01*
X110576245Y-136864688D01*
X110686560Y-136805724D01*
X110783251Y-136726371D01*
X110959093Y-136546184D01*
X110959093Y-136321678D01*
X110376260Y-135738845D01*
X110362118Y-135752988D01*
X110182513Y-135573383D01*
X110196655Y-135559240D01*
X110555865Y-135559240D01*
X111138698Y-136142073D01*
X111363204Y-136142073D01*
X111543391Y-135966231D01*
X111622744Y-135869540D01*
X111681708Y-135759225D01*
X111718017Y-135639527D01*
X111730278Y-135515046D01*
X111718017Y-135390565D01*
X111681708Y-135270866D01*
X111622744Y-135160552D01*
X111543391Y-135063861D01*
X111407398Y-134932213D01*
X111182892Y-134932213D01*
X110555865Y-135559240D01*
X110196655Y-135559240D01*
X110182513Y-135545098D01*
X110362118Y-135365493D01*
X110376260Y-135379635D01*
X111003287Y-134752608D01*
X111003287Y-134528102D01*
X110871639Y-134392109D01*
X110774948Y-134312756D01*
X110664634Y-134253792D01*
X110544935Y-134217483D01*
X110420454Y-134205222D01*
X110295973Y-134217483D01*
X110176275Y-134253792D01*
X110065960Y-134312756D01*
X109969269Y-134392109D01*
X109864180Y-134499795D01*
X109864180Y-134463530D01*
X109851920Y-134339051D01*
X109832798Y-134242916D01*
X109818721Y-134196510D01*
X109873729Y-134185568D01*
X110043889Y-134115086D01*
X110197028Y-134012762D01*
X110327262Y-133882528D01*
X110429586Y-133729389D01*
X110500068Y-133559229D01*
X110525168Y-133433043D01*
X110616129Y-133526251D01*
X110712820Y-133605604D01*
X110823135Y-133664568D01*
X110942833Y-133700877D01*
X111004502Y-133706951D01*
X111053887Y-133869753D01*
X111134798Y-134021128D01*
X111243687Y-134153809D01*
X111667951Y-134578073D01*
X111800632Y-134686962D01*
X111952007Y-134767873D01*
X112116258Y-134817698D01*
X112287074Y-134834522D01*
X112457890Y-134817698D01*
X112622141Y-134767873D01*
X112773516Y-134686962D01*
X112906197Y-134578073D01*
X113242073Y-134242197D01*
X113350962Y-134109516D01*
X113431873Y-133958141D01*
X113481698Y-133793890D01*
X113498522Y-133623074D01*
X113497409Y-133611773D01*
X113562528Y-133568262D01*
X113692762Y-133438028D01*
X113795086Y-133284889D01*
X113865568Y-133114729D01*
X113901500Y-132934089D01*
X113901500Y-132749911D01*
X113865568Y-132569271D01*
X113795086Y-132399111D01*
X113692762Y-132245972D01*
X113562528Y-132115738D01*
X113409389Y-132013414D01*
X113239229Y-131942932D01*
X113058589Y-131907000D01*
X112874411Y-131907000D01*
X112693771Y-131942932D01*
X112523611Y-132013414D01*
X112370472Y-132115738D01*
X112328048Y-132158162D01*
X112269604Y-132048820D01*
X112190251Y-131952129D01*
X112010064Y-131776287D01*
X111785558Y-131776287D01*
X111202725Y-132359120D01*
X111216868Y-132373263D01*
X111037263Y-132552868D01*
X111023120Y-132538725D01*
X111008978Y-132552868D01*
X110829373Y-132373263D01*
X110843515Y-132359120D01*
X110216488Y-131732093D01*
X109991982Y-131732093D01*
X109855989Y-131863741D01*
X109776636Y-131960432D01*
X109717672Y-132070746D01*
X109681363Y-132190445D01*
X109669102Y-132314926D01*
X109672704Y-132351500D01*
X109508911Y-132351500D01*
X109328271Y-132387432D01*
X109158111Y-132457914D01*
X109004972Y-132560238D01*
X108874738Y-132690472D01*
X108772414Y-132843611D01*
X108701932Y-133013771D01*
X108690990Y-133068779D01*
X108644584Y-133054702D01*
X108548449Y-133035580D01*
X108423970Y-133023320D01*
X108325954Y-133023320D01*
X108201475Y-133035580D01*
X108105340Y-133054702D01*
X107985634Y-133091014D01*
X107895079Y-133128524D01*
X107795025Y-133182005D01*
X108136254Y-132840776D01*
X108151835Y-132821791D01*
X108169200Y-132804426D01*
X108248559Y-132707727D01*
X108303014Y-132626229D01*
X108361976Y-132515921D01*
X108399486Y-132425366D01*
X108435798Y-132305660D01*
X108454920Y-132209525D01*
X108467180Y-132085046D01*
X108467180Y-131987030D01*
X108454920Y-131862551D01*
X108435798Y-131766416D01*
X108434937Y-131763576D01*
X108583389Y-131702086D01*
X108736528Y-131599762D01*
X108866762Y-131469528D01*
X108961339Y-131327982D01*
X110396093Y-131327982D01*
X110396093Y-131552488D01*
X111023120Y-132179515D01*
X111605953Y-131596682D01*
X111605953Y-131372176D01*
X111430111Y-131191989D01*
X111333420Y-131112636D01*
X111223105Y-131053672D01*
X111103407Y-131017363D01*
X110978926Y-131005102D01*
X110854445Y-131017363D01*
X110734746Y-131053672D01*
X110624432Y-131112636D01*
X110527741Y-131191989D01*
X110396093Y-131327982D01*
X108961339Y-131327982D01*
X108969086Y-131316389D01*
X109039568Y-131146229D01*
X109075500Y-130965589D01*
X109075500Y-130781411D01*
X109039568Y-130600771D01*
X108969086Y-130430611D01*
X108866762Y-130277472D01*
X108736528Y-130147238D01*
X108583389Y-130044914D01*
X108413229Y-129974432D01*
X108232589Y-129938500D01*
X108048411Y-129938500D01*
X107867771Y-129974432D01*
X107697611Y-130044914D01*
X107544472Y-130147238D01*
X107414238Y-130277472D01*
X107311914Y-130430611D01*
X107250424Y-130579063D01*
X107247584Y-130578202D01*
X107151449Y-130559080D01*
X107026970Y-130546820D01*
X106928954Y-130546820D01*
X106804475Y-130559080D01*
X106708340Y-130578202D01*
X106588634Y-130614514D01*
X106498079Y-130652024D01*
X106387771Y-130710986D01*
X106306273Y-130765441D01*
X106209574Y-130844800D01*
X106192209Y-130862165D01*
X106173224Y-130877746D01*
X105988154Y-131062816D01*
X105938873Y-130900359D01*
X105857962Y-130748984D01*
X105749073Y-130616303D01*
X105413197Y-130280427D01*
X105280516Y-130171538D01*
X105129141Y-130090627D01*
X104964890Y-130040802D01*
X104804272Y-130024982D01*
X104736028Y-129956738D01*
X104582889Y-129854414D01*
X104412729Y-129783932D01*
X104232089Y-129748000D01*
X104047911Y-129748000D01*
X103867271Y-129783932D01*
X103697111Y-129854414D01*
X103543972Y-129956738D01*
X103413738Y-130086972D01*
X103311414Y-130240111D01*
X103240932Y-130410271D01*
X103205000Y-130590911D01*
X103205000Y-130775089D01*
X103240932Y-130955729D01*
X103311414Y-131125889D01*
X103352372Y-131187187D01*
X103330135Y-131193932D01*
X103219820Y-131252896D01*
X103123129Y-131332249D01*
X102947287Y-131512436D01*
X102947287Y-131736942D01*
X103530120Y-132319775D01*
X103544263Y-132305633D01*
X103723868Y-132485238D01*
X103709725Y-132499380D01*
X103723868Y-132513523D01*
X103544263Y-132693128D01*
X103530120Y-132678985D01*
X103515978Y-132693128D01*
X103336373Y-132513523D01*
X103350515Y-132499380D01*
X102767682Y-131916547D01*
X102543176Y-131916547D01*
X102362989Y-132092389D01*
X102360986Y-132094829D01*
X102278040Y-132026756D01*
X102167725Y-131967792D01*
X102048027Y-131931483D01*
X101923546Y-131919222D01*
X101799065Y-131931483D01*
X101785160Y-131935701D01*
X101785160Y-131927553D01*
X101902997Y-131809716D01*
X101932000Y-131785914D01*
X102026973Y-131670189D01*
X102097545Y-131538160D01*
X102141002Y-131394899D01*
X102151999Y-131283246D01*
X102151999Y-131283238D01*
X102155675Y-131245913D01*
X102151999Y-131208588D01*
X102151999Y-130194824D01*
X102155675Y-130157499D01*
X102151999Y-130120174D01*
X102151999Y-130120166D01*
X102141002Y-130008513D01*
X102097545Y-129865252D01*
X102026973Y-129733223D01*
X102018558Y-129722969D01*
X101991068Y-129584771D01*
X101920586Y-129414611D01*
X101818262Y-129261472D01*
X101688028Y-129131238D01*
X101534889Y-129028914D01*
X101364729Y-128958432D01*
X101184089Y-128922500D01*
X100999911Y-128922500D01*
X100819271Y-128958432D01*
X100649111Y-129028914D01*
X100495972Y-129131238D01*
X100365738Y-129261472D01*
X100263414Y-129414611D01*
X100192932Y-129584771D01*
X100189257Y-129603245D01*
X100122306Y-129630977D01*
X99969167Y-129733301D01*
X99838933Y-129863535D01*
X99736609Y-130016674D01*
X99666127Y-130186834D01*
X99664262Y-130196208D01*
X99569611Y-130235414D01*
X99416472Y-130337738D01*
X99286238Y-130467972D01*
X99183914Y-130621111D01*
X99113432Y-130791271D01*
X99077500Y-130971911D01*
X98001886Y-130971911D01*
X98005000Y-130956260D01*
X98005000Y-130663740D01*
X97947932Y-130376842D01*
X97835990Y-130106589D01*
X97673475Y-129863368D01*
X97466632Y-129656525D01*
X97292240Y-129540000D01*
X97466632Y-129423475D01*
X97673475Y-129216632D01*
X97835990Y-128973411D01*
X97947932Y-128703158D01*
X98005000Y-128416260D01*
X98005000Y-128123740D01*
X97947932Y-127836842D01*
X97835990Y-127566589D01*
X97673475Y-127323368D01*
X97466632Y-127116525D01*
X97292240Y-127000000D01*
X97466632Y-126883475D01*
X97673475Y-126676632D01*
X97835990Y-126433411D01*
X97947932Y-126163158D01*
X98005000Y-125876260D01*
X98005000Y-125583740D01*
X97947932Y-125296842D01*
X97835990Y-125026589D01*
X97820169Y-125002911D01*
X106380000Y-125002911D01*
X106380000Y-125187089D01*
X106415932Y-125367729D01*
X106486414Y-125537889D01*
X106555001Y-125640537D01*
X106555000Y-127978464D01*
X106486414Y-128081111D01*
X106415932Y-128251271D01*
X106380000Y-128431911D01*
X106380000Y-128616089D01*
X106415932Y-128796729D01*
X106486414Y-128966889D01*
X106588738Y-129120028D01*
X106718972Y-129250262D01*
X106872111Y-129352586D01*
X107042271Y-129423068D01*
X107222911Y-129459000D01*
X107407089Y-129459000D01*
X107587729Y-129423068D01*
X107757889Y-129352586D01*
X107911028Y-129250262D01*
X108041262Y-129120028D01*
X108143586Y-128966889D01*
X108214068Y-128796729D01*
X108250000Y-128616089D01*
X108250000Y-128431911D01*
X108214068Y-128251271D01*
X108143586Y-128081111D01*
X108075000Y-127978465D01*
X108075000Y-125640535D01*
X108143586Y-125537889D01*
X108214068Y-125367729D01*
X108250000Y-125187089D01*
X108250000Y-125002911D01*
X108214068Y-124822271D01*
X108143586Y-124652111D01*
X108041262Y-124498972D01*
X107911028Y-124368738D01*
X107757889Y-124266414D01*
X107587729Y-124195932D01*
X107407089Y-124160000D01*
X107222911Y-124160000D01*
X107042271Y-124195932D01*
X106872111Y-124266414D01*
X106718972Y-124368738D01*
X106588738Y-124498972D01*
X106486414Y-124652111D01*
X106415932Y-124822271D01*
X106380000Y-125002911D01*
X97820169Y-125002911D01*
X97673475Y-124783368D01*
X97466632Y-124576525D01*
X97292240Y-124460000D01*
X97466632Y-124343475D01*
X97673475Y-124136632D01*
X97835990Y-123893411D01*
X97947932Y-123623158D01*
X98005000Y-123336260D01*
X98005000Y-123043740D01*
X97947932Y-122756842D01*
X97835990Y-122486589D01*
X97673475Y-122243368D01*
X97466632Y-122036525D01*
X97292240Y-121920000D01*
X97466632Y-121803475D01*
X97673475Y-121596632D01*
X97835990Y-121353411D01*
X97947932Y-121083158D01*
X98005000Y-120796260D01*
X98005000Y-120503740D01*
X97947932Y-120216842D01*
X97835990Y-119946589D01*
X97673475Y-119703368D01*
X97466632Y-119496525D01*
X97292240Y-119380000D01*
X97466632Y-119263475D01*
X97673475Y-119056632D01*
X97835990Y-118813411D01*
X97947932Y-118543158D01*
X98005000Y-118256260D01*
X98005000Y-117963740D01*
X97947932Y-117676842D01*
X97835990Y-117406589D01*
X97734034Y-117254000D01*
X99231428Y-117254000D01*
X99231428Y-118204000D01*
X99248492Y-118377254D01*
X99299028Y-118543850D01*
X99381095Y-118697386D01*
X99491538Y-118831962D01*
X99626114Y-118942405D01*
X99779650Y-119024472D01*
X99946246Y-119075008D01*
X100119500Y-119092072D01*
X100411000Y-119092072D01*
X100411000Y-119218089D01*
X100446932Y-119398729D01*
X100517414Y-119568889D01*
X100619738Y-119722028D01*
X100749972Y-119852262D01*
X100903111Y-119954586D01*
X101073271Y-120025068D01*
X101253911Y-120061000D01*
X101438089Y-120061000D01*
X101618729Y-120025068D01*
X101788889Y-119954586D01*
X101942028Y-119852262D01*
X102072262Y-119722028D01*
X102174586Y-119568889D01*
X102245068Y-119398729D01*
X102281000Y-119218089D01*
X102281000Y-119054250D01*
X102405000Y-118930250D01*
X102405000Y-117856000D01*
X102385000Y-117856000D01*
X102385000Y-117602000D01*
X102405000Y-117602000D01*
X102405000Y-117582000D01*
X102659000Y-117582000D01*
X102659000Y-117602000D01*
X102679000Y-117602000D01*
X102679000Y-117856000D01*
X102659000Y-117856000D01*
X102659000Y-118930250D01*
X102817750Y-119089000D01*
X103119500Y-119092072D01*
X103243982Y-119079812D01*
X103363680Y-119043502D01*
X103473994Y-118984537D01*
X103570685Y-118905185D01*
X103650037Y-118808494D01*
X103709002Y-118698180D01*
X103745312Y-118578482D01*
X103757572Y-118454000D01*
X103757036Y-118377400D01*
X103807528Y-118543850D01*
X103889595Y-118697386D01*
X104000038Y-118831962D01*
X104075805Y-118894142D01*
X104066432Y-118916771D01*
X104030500Y-119097411D01*
X104030500Y-119281589D01*
X104066432Y-119462229D01*
X104136914Y-119632389D01*
X104239238Y-119785528D01*
X104369472Y-119915762D01*
X104522611Y-120018086D01*
X104692771Y-120088568D01*
X104873411Y-120124500D01*
X105057589Y-120124500D01*
X105238229Y-120088568D01*
X105408389Y-120018086D01*
X105561528Y-119915762D01*
X105691762Y-119785528D01*
X105794086Y-119632389D01*
X105864568Y-119462229D01*
X105900500Y-119281589D01*
X105900500Y-119097411D01*
X105864568Y-118916771D01*
X105855195Y-118894142D01*
X105930962Y-118831962D01*
X105936342Y-118825406D01*
X106001815Y-118905185D01*
X106098506Y-118984537D01*
X106208820Y-119043502D01*
X106328518Y-119079812D01*
X106453000Y-119092072D01*
X106754750Y-119089000D01*
X106913500Y-118930250D01*
X106913500Y-117856000D01*
X107167500Y-117856000D01*
X107167500Y-118930250D01*
X107326250Y-119089000D01*
X107628000Y-119092072D01*
X107752482Y-119079812D01*
X107872180Y-119043502D01*
X107982494Y-118984537D01*
X108079185Y-118905185D01*
X108158537Y-118808494D01*
X108217502Y-118698180D01*
X108253812Y-118578482D01*
X108266072Y-118454000D01*
X108263000Y-118014750D01*
X108104250Y-117856000D01*
X107167500Y-117856000D01*
X106913500Y-117856000D01*
X106893500Y-117856000D01*
X106893500Y-117602000D01*
X106913500Y-117602000D01*
X106913500Y-117582000D01*
X107167500Y-117582000D01*
X107167500Y-117602000D01*
X108104250Y-117602000D01*
X108263000Y-117443250D01*
X108266072Y-117004000D01*
X108253812Y-116879518D01*
X108217502Y-116759820D01*
X108158537Y-116649506D01*
X108079185Y-116552815D01*
X107982494Y-116473463D01*
X107872180Y-116414498D01*
X107824327Y-116399982D01*
X107831072Y-116331500D01*
X107831072Y-115441000D01*
X108222706Y-115441000D01*
X108260595Y-115511886D01*
X108371038Y-115646462D01*
X108505614Y-115756905D01*
X108659150Y-115838972D01*
X108825746Y-115889508D01*
X108999000Y-115906572D01*
X109262771Y-115906572D01*
X111637205Y-118281008D01*
X111660999Y-118310001D01*
X111689992Y-118333795D01*
X111689996Y-118333799D01*
X111723719Y-118361474D01*
X111776724Y-118404974D01*
X111827504Y-118432117D01*
X111861498Y-118544180D01*
X111920463Y-118654494D01*
X111999815Y-118751185D01*
X112096506Y-118830537D01*
X112206820Y-118889502D01*
X112326518Y-118925812D01*
X112451000Y-118938072D01*
X113101000Y-118938072D01*
X113225482Y-118925812D01*
X113345180Y-118889502D01*
X113455494Y-118830537D01*
X113552185Y-118751185D01*
X113631537Y-118654494D01*
X113633515Y-118650793D01*
X113699911Y-118664000D01*
X113828264Y-118664000D01*
X113899815Y-118751185D01*
X113996506Y-118830537D01*
X114106820Y-118889502D01*
X114226518Y-118925812D01*
X114351000Y-118938072D01*
X115001000Y-118938072D01*
X115125482Y-118925812D01*
X115245180Y-118889502D01*
X115355494Y-118830537D01*
X115452185Y-118751185D01*
X115531537Y-118654494D01*
X115590502Y-118544180D01*
X115626812Y-118424482D01*
X115639072Y-118300000D01*
X115639072Y-117240000D01*
X115626812Y-117115518D01*
X115590502Y-116995820D01*
X115531537Y-116885506D01*
X115452185Y-116788815D01*
X115355494Y-116709463D01*
X115347812Y-116705357D01*
X115381546Y-116642247D01*
X115394911Y-116598189D01*
X115452185Y-116551185D01*
X115531537Y-116454494D01*
X115580813Y-116362306D01*
X115635111Y-116398586D01*
X115805271Y-116469068D01*
X115985911Y-116505000D01*
X116170089Y-116505000D01*
X116350729Y-116469068D01*
X116520889Y-116398586D01*
X116674028Y-116296262D01*
X116804262Y-116166028D01*
X116906586Y-116012889D01*
X116977068Y-115842729D01*
X117013000Y-115662089D01*
X117013000Y-115477911D01*
X116977068Y-115297271D01*
X116906586Y-115127111D01*
X116804262Y-114973972D01*
X116674028Y-114843738D01*
X116520889Y-114741414D01*
X116350729Y-114670932D01*
X116170089Y-114635000D01*
X115985911Y-114635000D01*
X115805271Y-114670932D01*
X115635111Y-114741414D01*
X115580813Y-114777694D01*
X115531537Y-114685506D01*
X115452185Y-114588815D01*
X115355494Y-114509463D01*
X115245180Y-114450498D01*
X115125482Y-114414188D01*
X115001000Y-114401928D01*
X114420085Y-114401928D01*
X114439405Y-114378386D01*
X114521472Y-114224850D01*
X114572008Y-114058254D01*
X114589072Y-113885000D01*
X114589072Y-112885000D01*
X114572008Y-112711746D01*
X114521472Y-112545150D01*
X114439405Y-112391614D01*
X114328962Y-112257038D01*
X114194386Y-112146595D01*
X114040850Y-112064528D01*
X113874254Y-112013992D01*
X113701000Y-111996928D01*
X111851000Y-111996928D01*
X111677746Y-112013992D01*
X111511150Y-112064528D01*
X111357614Y-112146595D01*
X111223038Y-112257038D01*
X111112595Y-112391614D01*
X111030528Y-112545150D01*
X110979992Y-112711746D01*
X110962928Y-112885000D01*
X110962928Y-113885000D01*
X110979992Y-114058254D01*
X111030528Y-114224850D01*
X111112595Y-114378386D01*
X111223038Y-114512962D01*
X111357614Y-114623405D01*
X111511150Y-114705472D01*
X111677746Y-114756008D01*
X111851000Y-114773072D01*
X111873657Y-114773072D01*
X111861498Y-114795820D01*
X111825188Y-114915518D01*
X111812928Y-115040000D01*
X111812928Y-116100000D01*
X111825188Y-116224482D01*
X111861498Y-116344180D01*
X111874722Y-116368919D01*
X110791508Y-115285706D01*
X110820008Y-115191754D01*
X110837072Y-115018500D01*
X110837072Y-114343500D01*
X110820008Y-114170246D01*
X110769472Y-114003650D01*
X110687405Y-113850114D01*
X110576962Y-113715538D01*
X110570406Y-113710158D01*
X110650185Y-113644685D01*
X110729537Y-113547994D01*
X110788502Y-113437680D01*
X110824812Y-113317982D01*
X110837072Y-113193500D01*
X110834000Y-112891750D01*
X110675250Y-112733000D01*
X109601000Y-112733000D01*
X109601000Y-112753000D01*
X109347000Y-112753000D01*
X109347000Y-112733000D01*
X108272750Y-112733000D01*
X108114000Y-112891750D01*
X108110928Y-113193500D01*
X108123188Y-113317982D01*
X108159498Y-113437680D01*
X108218463Y-113547994D01*
X108297815Y-113644685D01*
X108377594Y-113710158D01*
X108371038Y-113715538D01*
X108260595Y-113850114D01*
X108222706Y-113921000D01*
X107831072Y-113921000D01*
X107831072Y-113071500D01*
X107818812Y-112947018D01*
X107782502Y-112827320D01*
X107723537Y-112717006D01*
X107644185Y-112620315D01*
X107547494Y-112540963D01*
X107437180Y-112481998D01*
X107317482Y-112445688D01*
X107193000Y-112433428D01*
X106543000Y-112433428D01*
X106418518Y-112445688D01*
X106393000Y-112453429D01*
X106367482Y-112445688D01*
X106243000Y-112433428D01*
X106203750Y-112436500D01*
X106045000Y-112595250D01*
X106045000Y-112677359D01*
X106012463Y-112717006D01*
X105953498Y-112827320D01*
X105918000Y-112944341D01*
X105882502Y-112827320D01*
X105823537Y-112717006D01*
X105791000Y-112677359D01*
X105791000Y-112595250D01*
X105632250Y-112436500D01*
X105593000Y-112433428D01*
X105468518Y-112445688D01*
X105443000Y-112453429D01*
X105417482Y-112445688D01*
X105293000Y-112433428D01*
X104643000Y-112433428D01*
X104518518Y-112445688D01*
X104398820Y-112481998D01*
X104288506Y-112540963D01*
X104191815Y-112620315D01*
X104112463Y-112717006D01*
X104053498Y-112827320D01*
X104017188Y-112947018D01*
X104004928Y-113071500D01*
X104004928Y-113921000D01*
X103320072Y-113921000D01*
X103320072Y-113071500D01*
X103307812Y-112947018D01*
X103271502Y-112827320D01*
X103212537Y-112717006D01*
X103133185Y-112620315D01*
X103036494Y-112540963D01*
X102926180Y-112481998D01*
X102806482Y-112445688D01*
X102682000Y-112433428D01*
X102032000Y-112433428D01*
X101907518Y-112445688D01*
X101882000Y-112453429D01*
X101856482Y-112445688D01*
X101732000Y-112433428D01*
X101692750Y-112436500D01*
X101534000Y-112595250D01*
X101534000Y-112677359D01*
X101501463Y-112717006D01*
X101442498Y-112827320D01*
X101407000Y-112944341D01*
X101371502Y-112827320D01*
X101312537Y-112717006D01*
X101280000Y-112677359D01*
X101280000Y-112595250D01*
X101121250Y-112436500D01*
X101082000Y-112433428D01*
X100957518Y-112445688D01*
X100932000Y-112453429D01*
X100906482Y-112445688D01*
X100782000Y-112433428D01*
X100132000Y-112433428D01*
X100007518Y-112445688D01*
X99887820Y-112481998D01*
X99777506Y-112540963D01*
X99680815Y-112620315D01*
X99601463Y-112717006D01*
X99542498Y-112827320D01*
X99506188Y-112947018D01*
X99493928Y-113071500D01*
X99493928Y-114131500D01*
X99506188Y-114255982D01*
X99542498Y-114375680D01*
X99601463Y-114485994D01*
X99680815Y-114582685D01*
X99738090Y-114629689D01*
X99739224Y-114633428D01*
X99751454Y-114673746D01*
X99785188Y-114736857D01*
X99777506Y-114740963D01*
X99680815Y-114820315D01*
X99601463Y-114917006D01*
X99542498Y-115027320D01*
X99506188Y-115147018D01*
X99493928Y-115271500D01*
X99493928Y-116331500D01*
X99506188Y-116455982D01*
X99542498Y-116575680D01*
X99545670Y-116581614D01*
X99491538Y-116626038D01*
X99381095Y-116760614D01*
X99299028Y-116914150D01*
X99248492Y-117080746D01*
X99231428Y-117254000D01*
X97734034Y-117254000D01*
X97673475Y-117163368D01*
X97466632Y-116956525D01*
X97292240Y-116840000D01*
X97466632Y-116723475D01*
X97673475Y-116516632D01*
X97835990Y-116273411D01*
X97947932Y-116003158D01*
X98005000Y-115716260D01*
X98005000Y-115423740D01*
X97947932Y-115136842D01*
X97835990Y-114866589D01*
X97673475Y-114623368D01*
X97466632Y-114416525D01*
X97292240Y-114300000D01*
X97466632Y-114183475D01*
X97673475Y-113976632D01*
X97835990Y-113733411D01*
X97947932Y-113463158D01*
X98005000Y-113176260D01*
X98005000Y-112883740D01*
X97947932Y-112596842D01*
X97835990Y-112326589D01*
X97673475Y-112083368D01*
X97608607Y-112018500D01*
X108110928Y-112018500D01*
X108114000Y-112320250D01*
X108272750Y-112479000D01*
X109347000Y-112479000D01*
X109347000Y-111542250D01*
X109601000Y-111542250D01*
X109601000Y-112479000D01*
X110675250Y-112479000D01*
X110834000Y-112320250D01*
X110837072Y-112018500D01*
X110824812Y-111894018D01*
X110788502Y-111774320D01*
X110729537Y-111664006D01*
X110650185Y-111567315D01*
X110553494Y-111487963D01*
X110443180Y-111428998D01*
X110323482Y-111392688D01*
X110199000Y-111380428D01*
X109759750Y-111383500D01*
X109601000Y-111542250D01*
X109347000Y-111542250D01*
X109188250Y-111383500D01*
X108749000Y-111380428D01*
X108624518Y-111392688D01*
X108504820Y-111428998D01*
X108394506Y-111487963D01*
X108297815Y-111567315D01*
X108218463Y-111664006D01*
X108159498Y-111774320D01*
X108123188Y-111894018D01*
X108110928Y-112018500D01*
X97608607Y-112018500D01*
X97541620Y-111951513D01*
X97614180Y-111929502D01*
X97724494Y-111870537D01*
X97821185Y-111791185D01*
X97900537Y-111694494D01*
X97959502Y-111584180D01*
X97995812Y-111464482D01*
X98008072Y-111340000D01*
X98008072Y-110885000D01*
X110962928Y-110885000D01*
X110975188Y-111009482D01*
X111011498Y-111129180D01*
X111070463Y-111239494D01*
X111149815Y-111336185D01*
X111246506Y-111415537D01*
X111356820Y-111474502D01*
X111476518Y-111510812D01*
X111601000Y-111523072D01*
X112490250Y-111520000D01*
X112649000Y-111361250D01*
X112649000Y-110262000D01*
X112903000Y-110262000D01*
X112903000Y-111361250D01*
X113061750Y-111520000D01*
X113951000Y-111523072D01*
X114075482Y-111510812D01*
X114195180Y-111474502D01*
X114305494Y-111415537D01*
X114402185Y-111336185D01*
X114481537Y-111239494D01*
X114540502Y-111129180D01*
X114576812Y-111009482D01*
X114589072Y-110885000D01*
X114586000Y-110420750D01*
X114427250Y-110262000D01*
X112903000Y-110262000D01*
X112649000Y-110262000D01*
X111124750Y-110262000D01*
X110966000Y-110420750D01*
X110962928Y-110885000D01*
X98008072Y-110885000D01*
X98008072Y-109640000D01*
X97995812Y-109515518D01*
X97959502Y-109395820D01*
X97953719Y-109385000D01*
X110962928Y-109385000D01*
X110966000Y-109849250D01*
X111124750Y-110008000D01*
X112649000Y-110008000D01*
X112649000Y-108908750D01*
X112903000Y-108908750D01*
X112903000Y-110008000D01*
X114427250Y-110008000D01*
X114586000Y-109849250D01*
X114589072Y-109385000D01*
X114576812Y-109260518D01*
X114540502Y-109140820D01*
X114481537Y-109030506D01*
X114402185Y-108933815D01*
X114305494Y-108854463D01*
X114195180Y-108795498D01*
X114075482Y-108759188D01*
X113951000Y-108746928D01*
X113061750Y-108750000D01*
X112903000Y-108908750D01*
X112649000Y-108908750D01*
X112490250Y-108750000D01*
X111601000Y-108746928D01*
X111476518Y-108759188D01*
X111356820Y-108795498D01*
X111246506Y-108854463D01*
X111149815Y-108933815D01*
X111070463Y-109030506D01*
X111011498Y-109140820D01*
X110975188Y-109260518D01*
X110962928Y-109385000D01*
X97953719Y-109385000D01*
X97900537Y-109285506D01*
X97821185Y-109188815D01*
X97724494Y-109109463D01*
X97614180Y-109050498D01*
X97494482Y-109014188D01*
X97370000Y-109001928D01*
X95670000Y-109001928D01*
X95545518Y-109014188D01*
X95425820Y-109050498D01*
X95315506Y-109109463D01*
X95218815Y-109188815D01*
X95139463Y-109285506D01*
X95080498Y-109395820D01*
X95044188Y-109515518D01*
X95031928Y-109640000D01*
X94640000Y-109640000D01*
X94640000Y-108610000D01*
X121260000Y-108610000D01*
X121260001Y-160630000D01*
G04 #@! TA.AperFunction,Conductor*
D20*
G36*
X121260001Y-160630000D02*
G01*
X114258936Y-160630000D01*
X114284528Y-160622238D01*
X114517629Y-160514473D01*
X114725227Y-160363303D01*
X114899344Y-160174537D01*
X115033289Y-159955430D01*
X115121915Y-159714401D01*
X114999085Y-159512000D01*
X113981000Y-159512000D01*
X113981000Y-159532000D01*
X113727000Y-159532000D01*
X113727000Y-159512000D01*
X111981000Y-159512000D01*
X111981000Y-159532000D01*
X111727000Y-159532000D01*
X111727000Y-159512000D01*
X109981000Y-159512000D01*
X109981000Y-159532000D01*
X109727000Y-159532000D01*
X109727000Y-159512000D01*
X107981000Y-159512000D01*
X107981000Y-159532000D01*
X107727000Y-159532000D01*
X107727000Y-159512000D01*
X105981000Y-159512000D01*
X105981000Y-159532000D01*
X105727000Y-159532000D01*
X105727000Y-159512000D01*
X103981000Y-159512000D01*
X103981000Y-159532000D01*
X103727000Y-159532000D01*
X103727000Y-159512000D01*
X101981000Y-159512000D01*
X101981000Y-159532000D01*
X101727000Y-159532000D01*
X101727000Y-159512000D01*
X100702750Y-159512000D01*
X100544000Y-159670750D01*
X100540928Y-160060000D01*
X100553188Y-160184482D01*
X100589498Y-160304180D01*
X100648463Y-160414494D01*
X100727815Y-160511185D01*
X100824506Y-160590537D01*
X100898335Y-160630000D01*
X94640000Y-160630000D01*
X94640000Y-159106890D01*
X95078524Y-159106890D01*
X95123175Y-159254099D01*
X95248359Y-159516920D01*
X95422412Y-159750269D01*
X95638645Y-159945178D01*
X95888748Y-160094157D01*
X96163109Y-160191481D01*
X96393000Y-160070814D01*
X96393000Y-158877000D01*
X96647000Y-158877000D01*
X96647000Y-160070814D01*
X96876891Y-160191481D01*
X97151252Y-160094157D01*
X97401355Y-159945178D01*
X97617588Y-159750269D01*
X97791641Y-159516920D01*
X97916825Y-159254099D01*
X97961476Y-159106890D01*
X97840155Y-158877000D01*
X96647000Y-158877000D01*
X96393000Y-158877000D01*
X95199845Y-158877000D01*
X95078524Y-159106890D01*
X94640000Y-159106890D01*
X94640000Y-158710000D01*
X100540928Y-158710000D01*
X100544000Y-159099250D01*
X100702750Y-159258000D01*
X101727000Y-159258000D01*
X101727000Y-159238000D01*
X101981000Y-159238000D01*
X101981000Y-159258000D01*
X103727000Y-159258000D01*
X103727000Y-159238000D01*
X103981000Y-159238000D01*
X103981000Y-159258000D01*
X105727000Y-159258000D01*
X105727000Y-159238000D01*
X105981000Y-159238000D01*
X105981000Y-159258000D01*
X107727000Y-159258000D01*
X107727000Y-159238000D01*
X107981000Y-159238000D01*
X107981000Y-159258000D01*
X109727000Y-159258000D01*
X109727000Y-159238000D01*
X109981000Y-159238000D01*
X109981000Y-159258000D01*
X111727000Y-159258000D01*
X111727000Y-159238000D01*
X111981000Y-159238000D01*
X111981000Y-159258000D01*
X113727000Y-159258000D01*
X113727000Y-159238000D01*
X113981000Y-159238000D01*
X113981000Y-159258000D01*
X114999085Y-159258000D01*
X115121915Y-159055599D01*
X115033289Y-158814570D01*
X114899344Y-158595463D01*
X114725227Y-158406697D01*
X114701906Y-158389715D01*
X114871544Y-158220077D01*
X115014907Y-158005518D01*
X115058614Y-157900000D01*
X117891928Y-157900000D01*
X117891928Y-159600000D01*
X117904188Y-159724482D01*
X117940498Y-159844180D01*
X117999463Y-159954494D01*
X118078815Y-160051185D01*
X118175506Y-160130537D01*
X118285820Y-160189502D01*
X118405518Y-160225812D01*
X118530000Y-160238072D01*
X120230000Y-160238072D01*
X120354482Y-160225812D01*
X120474180Y-160189502D01*
X120584494Y-160130537D01*
X120681185Y-160051185D01*
X120760537Y-159954494D01*
X120819502Y-159844180D01*
X120855812Y-159724482D01*
X120868072Y-159600000D01*
X120868072Y-157900000D01*
X120855812Y-157775518D01*
X120819502Y-157655820D01*
X120760537Y-157545506D01*
X120681185Y-157448815D01*
X120584494Y-157369463D01*
X120474180Y-157310498D01*
X120401620Y-157288487D01*
X120533475Y-157156632D01*
X120695990Y-156913411D01*
X120807932Y-156643158D01*
X120865000Y-156356260D01*
X120865000Y-156063740D01*
X120807932Y-155776842D01*
X120695990Y-155506589D01*
X120533475Y-155263368D01*
X120326632Y-155056525D01*
X120152240Y-154940000D01*
X120326632Y-154823475D01*
X120533475Y-154616632D01*
X120695990Y-154373411D01*
X120807932Y-154103158D01*
X120865000Y-153816260D01*
X120865000Y-153523740D01*
X120807932Y-153236842D01*
X120695990Y-152966589D01*
X120533475Y-152723368D01*
X120326632Y-152516525D01*
X120152240Y-152400000D01*
X120326632Y-152283475D01*
X120533475Y-152076632D01*
X120695990Y-151833411D01*
X120807932Y-151563158D01*
X120865000Y-151276260D01*
X120865000Y-150983740D01*
X120807932Y-150696842D01*
X120695990Y-150426589D01*
X120533475Y-150183368D01*
X120326632Y-149976525D01*
X120152240Y-149860000D01*
X120326632Y-149743475D01*
X120533475Y-149536632D01*
X120695990Y-149293411D01*
X120807932Y-149023158D01*
X120865000Y-148736260D01*
X120865000Y-148443740D01*
X120807932Y-148156842D01*
X120695990Y-147886589D01*
X120533475Y-147643368D01*
X120326632Y-147436525D01*
X120152240Y-147320000D01*
X120326632Y-147203475D01*
X120533475Y-146996632D01*
X120695990Y-146753411D01*
X120807932Y-146483158D01*
X120865000Y-146196260D01*
X120865000Y-145903740D01*
X120807932Y-145616842D01*
X120695990Y-145346589D01*
X120533475Y-145103368D01*
X120326632Y-144896525D01*
X120152240Y-144780000D01*
X120326632Y-144663475D01*
X120533475Y-144456632D01*
X120695990Y-144213411D01*
X120807932Y-143943158D01*
X120865000Y-143656260D01*
X120865000Y-143363740D01*
X120807932Y-143076842D01*
X120695990Y-142806589D01*
X120533475Y-142563368D01*
X120326632Y-142356525D01*
X120152240Y-142240000D01*
X120326632Y-142123475D01*
X120533475Y-141916632D01*
X120695990Y-141673411D01*
X120807932Y-141403158D01*
X120865000Y-141116260D01*
X120865000Y-140823740D01*
X120807932Y-140536842D01*
X120695990Y-140266589D01*
X120533475Y-140023368D01*
X120326632Y-139816525D01*
X120152240Y-139700000D01*
X120326632Y-139583475D01*
X120533475Y-139376632D01*
X120695990Y-139133411D01*
X120807932Y-138863158D01*
X120865000Y-138576260D01*
X120865000Y-138283740D01*
X120807932Y-137996842D01*
X120695990Y-137726589D01*
X120533475Y-137483368D01*
X120326632Y-137276525D01*
X120152240Y-137160000D01*
X120326632Y-137043475D01*
X120533475Y-136836632D01*
X120695990Y-136593411D01*
X120807932Y-136323158D01*
X120865000Y-136036260D01*
X120865000Y-135743740D01*
X120807932Y-135456842D01*
X120695990Y-135186589D01*
X120533475Y-134943368D01*
X120326632Y-134736525D01*
X120152240Y-134620000D01*
X120326632Y-134503475D01*
X120533475Y-134296632D01*
X120695990Y-134053411D01*
X120807932Y-133783158D01*
X120865000Y-133496260D01*
X120865000Y-133203740D01*
X120807932Y-132916842D01*
X120695990Y-132646589D01*
X120533475Y-132403368D01*
X120326632Y-132196525D01*
X120152240Y-132080000D01*
X120326632Y-131963475D01*
X120533475Y-131756632D01*
X120695990Y-131513411D01*
X120807932Y-131243158D01*
X120865000Y-130956260D01*
X120865000Y-130663740D01*
X120807932Y-130376842D01*
X120695990Y-130106589D01*
X120533475Y-129863368D01*
X120326632Y-129656525D01*
X120152240Y-129540000D01*
X120326632Y-129423475D01*
X120533475Y-129216632D01*
X120695990Y-128973411D01*
X120807932Y-128703158D01*
X120865000Y-128416260D01*
X120865000Y-128123740D01*
X120807932Y-127836842D01*
X120695990Y-127566589D01*
X120533475Y-127323368D01*
X120326632Y-127116525D01*
X120152240Y-127000000D01*
X120326632Y-126883475D01*
X120533475Y-126676632D01*
X120695990Y-126433411D01*
X120807932Y-126163158D01*
X120865000Y-125876260D01*
X120865000Y-125583740D01*
X120807932Y-125296842D01*
X120695990Y-125026589D01*
X120533475Y-124783368D01*
X120326632Y-124576525D01*
X120152240Y-124460000D01*
X120326632Y-124343475D01*
X120533475Y-124136632D01*
X120695990Y-123893411D01*
X120807932Y-123623158D01*
X120865000Y-123336260D01*
X120865000Y-123043740D01*
X120807932Y-122756842D01*
X120695990Y-122486589D01*
X120533475Y-122243368D01*
X120326632Y-122036525D01*
X120152240Y-121920000D01*
X120326632Y-121803475D01*
X120533475Y-121596632D01*
X120695990Y-121353411D01*
X120807932Y-121083158D01*
X120865000Y-120796260D01*
X120865000Y-120503740D01*
X120807932Y-120216842D01*
X120695990Y-119946589D01*
X120533475Y-119703368D01*
X120326632Y-119496525D01*
X120152240Y-119380000D01*
X120326632Y-119263475D01*
X120533475Y-119056632D01*
X120695990Y-118813411D01*
X120807932Y-118543158D01*
X120865000Y-118256260D01*
X120865000Y-117963740D01*
X120807932Y-117676842D01*
X120695990Y-117406589D01*
X120533475Y-117163368D01*
X120326632Y-116956525D01*
X120152240Y-116840000D01*
X120326632Y-116723475D01*
X120533475Y-116516632D01*
X120695990Y-116273411D01*
X120807932Y-116003158D01*
X120865000Y-115716260D01*
X120865000Y-115423740D01*
X120807932Y-115136842D01*
X120695990Y-114866589D01*
X120533475Y-114623368D01*
X120326632Y-114416525D01*
X120152240Y-114300000D01*
X120326632Y-114183475D01*
X120533475Y-113976632D01*
X120695990Y-113733411D01*
X120807932Y-113463158D01*
X120865000Y-113176260D01*
X120865000Y-112883740D01*
X120807932Y-112596842D01*
X120695990Y-112326589D01*
X120533475Y-112083368D01*
X120326632Y-111876525D01*
X120152240Y-111760000D01*
X120326632Y-111643475D01*
X120533475Y-111436632D01*
X120695990Y-111193411D01*
X120807932Y-110923158D01*
X120865000Y-110636260D01*
X120865000Y-110343740D01*
X120807932Y-110056842D01*
X120695990Y-109786589D01*
X120533475Y-109543368D01*
X120326632Y-109336525D01*
X120083411Y-109174010D01*
X119813158Y-109062068D01*
X119526260Y-109005000D01*
X119233740Y-109005000D01*
X118946842Y-109062068D01*
X118676589Y-109174010D01*
X118433368Y-109336525D01*
X118226525Y-109543368D01*
X118064010Y-109786589D01*
X117952068Y-110056842D01*
X117895000Y-110343740D01*
X117895000Y-110636260D01*
X117952068Y-110923158D01*
X118064010Y-111193411D01*
X118226525Y-111436632D01*
X118433368Y-111643475D01*
X118607760Y-111760000D01*
X118433368Y-111876525D01*
X118226525Y-112083368D01*
X118064010Y-112326589D01*
X117952068Y-112596842D01*
X117895000Y-112883740D01*
X117895000Y-113176260D01*
X117952068Y-113463158D01*
X118064010Y-113733411D01*
X118226525Y-113976632D01*
X118433368Y-114183475D01*
X118607760Y-114300000D01*
X118433368Y-114416525D01*
X118226525Y-114623368D01*
X118064010Y-114866589D01*
X117952068Y-115136842D01*
X117895000Y-115423740D01*
X117895000Y-115716260D01*
X117952068Y-116003158D01*
X118064010Y-116273411D01*
X118226525Y-116516632D01*
X118433368Y-116723475D01*
X118607760Y-116840000D01*
X118433368Y-116956525D01*
X118226525Y-117163368D01*
X118064010Y-117406589D01*
X117952068Y-117676842D01*
X117895000Y-117963740D01*
X117895000Y-118256260D01*
X117952068Y-118543158D01*
X118064010Y-118813411D01*
X118226525Y-119056632D01*
X118433368Y-119263475D01*
X118607760Y-119380000D01*
X118433368Y-119496525D01*
X118226525Y-119703368D01*
X118064010Y-119946589D01*
X117952068Y-120216842D01*
X117895000Y-120503740D01*
X117895000Y-120796260D01*
X117952068Y-121083158D01*
X118064010Y-121353411D01*
X118226525Y-121596632D01*
X118433368Y-121803475D01*
X118607760Y-121920000D01*
X118433368Y-122036525D01*
X118226525Y-122243368D01*
X118064010Y-122486589D01*
X117952068Y-122756842D01*
X117895000Y-123043740D01*
X117895000Y-123336260D01*
X117952068Y-123623158D01*
X118064010Y-123893411D01*
X118226525Y-124136632D01*
X118433368Y-124343475D01*
X118607760Y-124460000D01*
X118433368Y-124576525D01*
X118226525Y-124783368D01*
X118064010Y-125026589D01*
X117952068Y-125296842D01*
X117895000Y-125583740D01*
X117895000Y-125876260D01*
X117952068Y-126163158D01*
X118064010Y-126433411D01*
X118226525Y-126676632D01*
X118433368Y-126883475D01*
X118607760Y-127000000D01*
X118433368Y-127116525D01*
X118226525Y-127323368D01*
X118064010Y-127566589D01*
X117952068Y-127836842D01*
X117895000Y-128123740D01*
X117895000Y-128416260D01*
X117952068Y-128703158D01*
X118064010Y-128973411D01*
X118226525Y-129216632D01*
X118433368Y-129423475D01*
X118607760Y-129540000D01*
X118433368Y-129656525D01*
X118226525Y-129863368D01*
X118064010Y-130106589D01*
X117952068Y-130376842D01*
X117895000Y-130663740D01*
X117895000Y-130956260D01*
X117952068Y-131243158D01*
X118064010Y-131513411D01*
X118226525Y-131756632D01*
X118433368Y-131963475D01*
X118607760Y-132080000D01*
X118433368Y-132196525D01*
X118226525Y-132403368D01*
X118064010Y-132646589D01*
X117952068Y-132916842D01*
X117895000Y-133203740D01*
X117895000Y-133496260D01*
X117952068Y-133783158D01*
X118064010Y-134053411D01*
X118226525Y-134296632D01*
X118433368Y-134503475D01*
X118607760Y-134620000D01*
X118433368Y-134736525D01*
X118226525Y-134943368D01*
X118064010Y-135186589D01*
X117952068Y-135456842D01*
X117895000Y-135743740D01*
X117895000Y-136036260D01*
X117952068Y-136323158D01*
X118064010Y-136593411D01*
X118226525Y-136836632D01*
X118433368Y-137043475D01*
X118607760Y-137160000D01*
X118433368Y-137276525D01*
X118226525Y-137483368D01*
X118064010Y-137726589D01*
X117952068Y-137996842D01*
X117895000Y-138283740D01*
X117895000Y-138576260D01*
X117952068Y-138863158D01*
X118064010Y-139133411D01*
X118226525Y-139376632D01*
X118433368Y-139583475D01*
X118607760Y-139700000D01*
X118433368Y-139816525D01*
X118226525Y-140023368D01*
X118064010Y-140266589D01*
X117952068Y-140536842D01*
X117895000Y-140823740D01*
X117895000Y-141116260D01*
X117952068Y-141403158D01*
X118064010Y-141673411D01*
X118226525Y-141916632D01*
X118433368Y-142123475D01*
X118607760Y-142240000D01*
X118433368Y-142356525D01*
X118226525Y-142563368D01*
X118064010Y-142806589D01*
X117952068Y-143076842D01*
X117895000Y-143363740D01*
X117895000Y-143656260D01*
X117952068Y-143943158D01*
X118064010Y-144213411D01*
X118226525Y-144456632D01*
X118433368Y-144663475D01*
X118607760Y-144780000D01*
X118433368Y-144896525D01*
X118226525Y-145103368D01*
X118064010Y-145346589D01*
X117952068Y-145616842D01*
X117895000Y-145903740D01*
X117895000Y-146196260D01*
X117952068Y-146483158D01*
X118064010Y-146753411D01*
X118226525Y-146996632D01*
X118433368Y-147203475D01*
X118607760Y-147320000D01*
X118433368Y-147436525D01*
X118226525Y-147643368D01*
X118064010Y-147886589D01*
X117952068Y-148156842D01*
X117895000Y-148443740D01*
X117895000Y-148736260D01*
X117952068Y-149023158D01*
X118064010Y-149293411D01*
X118226525Y-149536632D01*
X118433368Y-149743475D01*
X118607760Y-149860000D01*
X118433368Y-149976525D01*
X118226525Y-150183368D01*
X118064010Y-150426589D01*
X117952068Y-150696842D01*
X117895000Y-150983740D01*
X117895000Y-151276260D01*
X117952068Y-151563158D01*
X118064010Y-151833411D01*
X118226525Y-152076632D01*
X118433368Y-152283475D01*
X118607760Y-152400000D01*
X118433368Y-152516525D01*
X118226525Y-152723368D01*
X118064010Y-152966589D01*
X117952068Y-153236842D01*
X117895000Y-153523740D01*
X117895000Y-153816260D01*
X117952068Y-154103158D01*
X118064010Y-154373411D01*
X118226525Y-154616632D01*
X118433368Y-154823475D01*
X118607760Y-154940000D01*
X118433368Y-155056525D01*
X118226525Y-155263368D01*
X118064010Y-155506589D01*
X117952068Y-155776842D01*
X117895000Y-156063740D01*
X117895000Y-156356260D01*
X117952068Y-156643158D01*
X118064010Y-156913411D01*
X118226525Y-157156632D01*
X118358380Y-157288487D01*
X118285820Y-157310498D01*
X118175506Y-157369463D01*
X118078815Y-157448815D01*
X117999463Y-157545506D01*
X117940498Y-157655820D01*
X117904188Y-157775518D01*
X117891928Y-157900000D01*
X115058614Y-157900000D01*
X115113658Y-157767113D01*
X115164000Y-157514024D01*
X115164000Y-157255976D01*
X115113658Y-157002887D01*
X115014907Y-156764482D01*
X114871544Y-156549923D01*
X114689077Y-156367456D01*
X114474518Y-156224093D01*
X114236113Y-156125342D01*
X113983024Y-156075000D01*
X113724976Y-156075000D01*
X113471887Y-156125342D01*
X113233482Y-156224093D01*
X113018923Y-156367456D01*
X112854000Y-156532379D01*
X112689077Y-156367456D01*
X112474518Y-156224093D01*
X112236113Y-156125342D01*
X111983024Y-156075000D01*
X111724976Y-156075000D01*
X111471887Y-156125342D01*
X111233482Y-156224093D01*
X111018923Y-156367456D01*
X110854000Y-156532379D01*
X110689077Y-156367456D01*
X110474518Y-156224093D01*
X110236113Y-156125342D01*
X110196366Y-156117436D01*
X111763004Y-154550798D01*
X111792001Y-154527001D01*
X111886974Y-154411276D01*
X111957546Y-154279247D01*
X112001003Y-154135986D01*
X112012000Y-154024333D01*
X112012000Y-154024325D01*
X112015676Y-153987000D01*
X112012000Y-153949675D01*
X112012000Y-150278535D01*
X112080586Y-150175889D01*
X112151068Y-150005729D01*
X112187000Y-149825089D01*
X112187000Y-149640911D01*
X112151068Y-149460271D01*
X112080586Y-149290111D01*
X111978262Y-149136972D01*
X111848028Y-149006738D01*
X111694889Y-148904414D01*
X111524729Y-148833932D01*
X111344089Y-148798000D01*
X111159911Y-148798000D01*
X110979271Y-148833932D01*
X110809111Y-148904414D01*
X110655972Y-149006738D01*
X110525738Y-149136972D01*
X110423414Y-149290111D01*
X110352932Y-149460271D01*
X110317000Y-149640911D01*
X110317000Y-149825089D01*
X110352932Y-150005729D01*
X110423414Y-150175889D01*
X110492001Y-150278537D01*
X110492000Y-153672198D01*
X108071583Y-156092615D01*
X107983024Y-156075000D01*
X107724976Y-156075000D01*
X107471887Y-156125342D01*
X107233482Y-156224093D01*
X107018923Y-156367456D01*
X106854000Y-156532379D01*
X106689077Y-156367456D01*
X106671393Y-156355640D01*
X106682586Y-156338889D01*
X106753068Y-156168729D01*
X106789000Y-155988089D01*
X106789000Y-155803911D01*
X106753068Y-155623271D01*
X106682586Y-155453111D01*
X106580262Y-155299972D01*
X106450028Y-155169738D01*
X106296889Y-155067414D01*
X106126729Y-154996932D01*
X106005649Y-154972847D01*
X105027000Y-153994199D01*
X105027000Y-151167535D01*
X105034295Y-151156618D01*
X105094111Y-151196586D01*
X105264271Y-151267068D01*
X105444911Y-151303000D01*
X105629089Y-151303000D01*
X105809729Y-151267068D01*
X105979889Y-151196586D01*
X106082535Y-151128000D01*
X107504455Y-151128000D01*
X107607101Y-151196586D01*
X107777261Y-151267068D01*
X107957901Y-151303000D01*
X108142079Y-151303000D01*
X108322719Y-151267068D01*
X108492879Y-151196586D01*
X108646018Y-151094262D01*
X108776252Y-150964028D01*
X108878576Y-150810889D01*
X108949058Y-150640729D01*
X108984990Y-150460089D01*
X108984990Y-150275911D01*
X108949058Y-150095271D01*
X108878576Y-149925111D01*
X108776252Y-149771972D01*
X108646018Y-149641738D01*
X108492879Y-149539414D01*
X108322719Y-149468932D01*
X108142079Y-149433000D01*
X107957901Y-149433000D01*
X107777261Y-149468932D01*
X107607101Y-149539414D01*
X107504455Y-149608000D01*
X106082535Y-149608000D01*
X105979889Y-149539414D01*
X105809729Y-149468932D01*
X105629089Y-149433000D01*
X105444911Y-149433000D01*
X105264271Y-149468932D01*
X105094111Y-149539414D01*
X104940972Y-149641738D01*
X104810738Y-149771972D01*
X104769705Y-149833382D01*
X104709889Y-149793414D01*
X104539729Y-149722932D01*
X104359089Y-149687000D01*
X104174911Y-149687000D01*
X103994271Y-149722932D01*
X103824111Y-149793414D01*
X103670972Y-149895738D01*
X103540738Y-150025972D01*
X103438414Y-150179111D01*
X103367932Y-150349271D01*
X103332000Y-150529911D01*
X103332000Y-150714089D01*
X103367932Y-150894729D01*
X103438414Y-151064889D01*
X103507001Y-151167537D01*
X103507000Y-154271677D01*
X103503324Y-154309000D01*
X103507000Y-154346322D01*
X103507000Y-154346332D01*
X103517997Y-154457985D01*
X103561454Y-154601246D01*
X103632026Y-154733276D01*
X103646307Y-154750677D01*
X103726999Y-154849001D01*
X103756003Y-154872804D01*
X104930847Y-156047649D01*
X104954932Y-156168729D01*
X105025414Y-156338889D01*
X105036607Y-156355640D01*
X105018923Y-156367456D01*
X104854000Y-156532379D01*
X104689077Y-156367456D01*
X104474518Y-156224093D01*
X104236113Y-156125342D01*
X103983024Y-156075000D01*
X103724976Y-156075000D01*
X103471887Y-156125342D01*
X103233482Y-156224093D01*
X103018923Y-156367456D01*
X102854000Y-156532379D01*
X102689077Y-156367456D01*
X102474518Y-156224093D01*
X102236113Y-156125342D01*
X101983024Y-156075000D01*
X101724976Y-156075000D01*
X101471887Y-156125342D01*
X101233482Y-156224093D01*
X101018923Y-156367456D01*
X100836456Y-156549923D01*
X100693093Y-156764482D01*
X100594342Y-157002887D01*
X100544000Y-157255976D01*
X100544000Y-157514024D01*
X100594342Y-157767113D01*
X100693093Y-158005518D01*
X100814697Y-158187513D01*
X100727815Y-158258815D01*
X100648463Y-158355506D01*
X100589498Y-158465820D01*
X100553188Y-158585518D01*
X100540928Y-158710000D01*
X94640000Y-158710000D01*
X94640000Y-109640000D01*
X95031928Y-109640000D01*
X95031928Y-111340000D01*
X95044188Y-111464482D01*
X95080498Y-111584180D01*
X95139463Y-111694494D01*
X95218815Y-111791185D01*
X95315506Y-111870537D01*
X95425820Y-111929502D01*
X95498380Y-111951513D01*
X95366525Y-112083368D01*
X95204010Y-112326589D01*
X95092068Y-112596842D01*
X95035000Y-112883740D01*
X95035000Y-113176260D01*
X95092068Y-113463158D01*
X95204010Y-113733411D01*
X95366525Y-113976632D01*
X95573368Y-114183475D01*
X95747760Y-114300000D01*
X95573368Y-114416525D01*
X95366525Y-114623368D01*
X95204010Y-114866589D01*
X95092068Y-115136842D01*
X95035000Y-115423740D01*
X95035000Y-115716260D01*
X95092068Y-116003158D01*
X95204010Y-116273411D01*
X95366525Y-116516632D01*
X95573368Y-116723475D01*
X95747760Y-116840000D01*
X95573368Y-116956525D01*
X95366525Y-117163368D01*
X95204010Y-117406589D01*
X95092068Y-117676842D01*
X95035000Y-117963740D01*
X95035000Y-118256260D01*
X95092068Y-118543158D01*
X95204010Y-118813411D01*
X95366525Y-119056632D01*
X95573368Y-119263475D01*
X95747760Y-119380000D01*
X95573368Y-119496525D01*
X95366525Y-119703368D01*
X95204010Y-119946589D01*
X95092068Y-120216842D01*
X95035000Y-120503740D01*
X95035000Y-120796260D01*
X95092068Y-121083158D01*
X95204010Y-121353411D01*
X95366525Y-121596632D01*
X95573368Y-121803475D01*
X95747760Y-121920000D01*
X95573368Y-122036525D01*
X95366525Y-122243368D01*
X95204010Y-122486589D01*
X95092068Y-122756842D01*
X95035000Y-123043740D01*
X95035000Y-123336260D01*
X95092068Y-123623158D01*
X95204010Y-123893411D01*
X95366525Y-124136632D01*
X95573368Y-124343475D01*
X95747760Y-124460000D01*
X95573368Y-124576525D01*
X95366525Y-124783368D01*
X95204010Y-125026589D01*
X95092068Y-125296842D01*
X95035000Y-125583740D01*
X95035000Y-125876260D01*
X95092068Y-126163158D01*
X95204010Y-126433411D01*
X95366525Y-126676632D01*
X95573368Y-126883475D01*
X95747760Y-127000000D01*
X95573368Y-127116525D01*
X95366525Y-127323368D01*
X95204010Y-127566589D01*
X95092068Y-127836842D01*
X95035000Y-128123740D01*
X95035000Y-128416260D01*
X95092068Y-128703158D01*
X95204010Y-128973411D01*
X95366525Y-129216632D01*
X95573368Y-129423475D01*
X95747760Y-129540000D01*
X95573368Y-129656525D01*
X95366525Y-129863368D01*
X95204010Y-130106589D01*
X95092068Y-130376842D01*
X95035000Y-130663740D01*
X95035000Y-130956260D01*
X95092068Y-131243158D01*
X95204010Y-131513411D01*
X95366525Y-131756632D01*
X95573368Y-131963475D01*
X95747760Y-132080000D01*
X95573368Y-132196525D01*
X95366525Y-132403368D01*
X95204010Y-132646589D01*
X95092068Y-132916842D01*
X95035000Y-133203740D01*
X95035000Y-133496260D01*
X95092068Y-133783158D01*
X95204010Y-134053411D01*
X95366525Y-134296632D01*
X95573368Y-134503475D01*
X95747760Y-134620000D01*
X95573368Y-134736525D01*
X95366525Y-134943368D01*
X95204010Y-135186589D01*
X95092068Y-135456842D01*
X95035000Y-135743740D01*
X95035000Y-136036260D01*
X95092068Y-136323158D01*
X95204010Y-136593411D01*
X95366525Y-136836632D01*
X95573368Y-137043475D01*
X95747760Y-137160000D01*
X95573368Y-137276525D01*
X95366525Y-137483368D01*
X95204010Y-137726589D01*
X95092068Y-137996842D01*
X95035000Y-138283740D01*
X95035000Y-138576260D01*
X95092068Y-138863158D01*
X95204010Y-139133411D01*
X95366525Y-139376632D01*
X95573368Y-139583475D01*
X95747760Y-139700000D01*
X95573368Y-139816525D01*
X95366525Y-140023368D01*
X95204010Y-140266589D01*
X95092068Y-140536842D01*
X95035000Y-140823740D01*
X95035000Y-141116260D01*
X95092068Y-141403158D01*
X95204010Y-141673411D01*
X95366525Y-141916632D01*
X95573368Y-142123475D01*
X95747760Y-142240000D01*
X95573368Y-142356525D01*
X95366525Y-142563368D01*
X95204010Y-142806589D01*
X95092068Y-143076842D01*
X95035000Y-143363740D01*
X95035000Y-143656260D01*
X95092068Y-143943158D01*
X95204010Y-144213411D01*
X95366525Y-144456632D01*
X95573368Y-144663475D01*
X95747760Y-144780000D01*
X95573368Y-144896525D01*
X95366525Y-145103368D01*
X95204010Y-145346589D01*
X95092068Y-145616842D01*
X95035000Y-145903740D01*
X95035000Y-146196260D01*
X95092068Y-146483158D01*
X95204010Y-146753411D01*
X95366525Y-146996632D01*
X95573368Y-147203475D01*
X95747760Y-147320000D01*
X95573368Y-147436525D01*
X95366525Y-147643368D01*
X95204010Y-147886589D01*
X95092068Y-148156842D01*
X95035000Y-148443740D01*
X95035000Y-148736260D01*
X95092068Y-149023158D01*
X95204010Y-149293411D01*
X95366525Y-149536632D01*
X95573368Y-149743475D01*
X95747760Y-149860000D01*
X95573368Y-149976525D01*
X95366525Y-150183368D01*
X95204010Y-150426589D01*
X95092068Y-150696842D01*
X95035000Y-150983740D01*
X95035000Y-151276260D01*
X95092068Y-151563158D01*
X95204010Y-151833411D01*
X95366525Y-152076632D01*
X95573368Y-152283475D01*
X95747760Y-152400000D01*
X95573368Y-152516525D01*
X95366525Y-152723368D01*
X95204010Y-152966589D01*
X95092068Y-153236842D01*
X95035000Y-153523740D01*
X95035000Y-153816260D01*
X95092068Y-154103158D01*
X95204010Y-154373411D01*
X95366525Y-154616632D01*
X95573368Y-154823475D01*
X95747760Y-154940000D01*
X95573368Y-155056525D01*
X95366525Y-155263368D01*
X95204010Y-155506589D01*
X95092068Y-155776842D01*
X95035000Y-156063740D01*
X95035000Y-156356260D01*
X95092068Y-156643158D01*
X95204010Y-156913411D01*
X95366525Y-157156632D01*
X95573368Y-157363475D01*
X95755534Y-157485195D01*
X95638645Y-157554822D01*
X95422412Y-157749731D01*
X95248359Y-157983080D01*
X95123175Y-158245901D01*
X95078524Y-158393110D01*
X95199845Y-158623000D01*
X96393000Y-158623000D01*
X96393000Y-158603000D01*
X96647000Y-158603000D01*
X96647000Y-158623000D01*
X97840155Y-158623000D01*
X97961476Y-158393110D01*
X97916825Y-158245901D01*
X97791641Y-157983080D01*
X97617588Y-157749731D01*
X97401355Y-157554822D01*
X97284466Y-157485195D01*
X97466632Y-157363475D01*
X97673475Y-157156632D01*
X97835990Y-156913411D01*
X97947932Y-156643158D01*
X98005000Y-156356260D01*
X98005000Y-156063740D01*
X97947932Y-155776842D01*
X97835990Y-155506589D01*
X97673475Y-155263368D01*
X97466632Y-155056525D01*
X97292240Y-154940000D01*
X97466632Y-154823475D01*
X97673475Y-154616632D01*
X97835990Y-154373411D01*
X97947932Y-154103158D01*
X98005000Y-153816260D01*
X98005000Y-153523740D01*
X97947932Y-153236842D01*
X97835990Y-152966589D01*
X97673475Y-152723368D01*
X97466632Y-152516525D01*
X97292240Y-152400000D01*
X97466632Y-152283475D01*
X97673475Y-152076632D01*
X97835990Y-151833411D01*
X97947932Y-151563158D01*
X98005000Y-151276260D01*
X98005000Y-150983740D01*
X97947932Y-150696842D01*
X97835990Y-150426589D01*
X97673475Y-150183368D01*
X97466632Y-149976525D01*
X97292240Y-149860000D01*
X97466632Y-149743475D01*
X97673475Y-149536632D01*
X97835990Y-149293411D01*
X97947932Y-149023158D01*
X98005000Y-148736260D01*
X98005000Y-148443740D01*
X97947932Y-148156842D01*
X97835990Y-147886589D01*
X97673475Y-147643368D01*
X97466632Y-147436525D01*
X97292240Y-147320000D01*
X97466632Y-147203475D01*
X97673475Y-146996632D01*
X97835990Y-146753411D01*
X97947932Y-146483158D01*
X98005000Y-146196260D01*
X98005000Y-145903740D01*
X97947932Y-145616842D01*
X97835990Y-145346589D01*
X97673475Y-145103368D01*
X97466632Y-144896525D01*
X97292240Y-144780000D01*
X97466632Y-144663475D01*
X97673475Y-144456632D01*
X97835990Y-144213411D01*
X97947932Y-143943158D01*
X98005000Y-143656260D01*
X98005000Y-143363740D01*
X97947932Y-143076842D01*
X97835990Y-142806589D01*
X97673475Y-142563368D01*
X97466632Y-142356525D01*
X97292240Y-142240000D01*
X97466632Y-142123475D01*
X97673475Y-141916632D01*
X97835990Y-141673411D01*
X97947932Y-141403158D01*
X98005000Y-141116260D01*
X98005000Y-140823740D01*
X97947932Y-140536842D01*
X97835990Y-140266589D01*
X97673475Y-140023368D01*
X97466632Y-139816525D01*
X97292240Y-139700000D01*
X97466632Y-139583475D01*
X97673475Y-139376632D01*
X97835990Y-139133411D01*
X97947932Y-138863158D01*
X98005000Y-138576260D01*
X98005000Y-138283740D01*
X97947932Y-137996842D01*
X97835990Y-137726589D01*
X97673475Y-137483368D01*
X97466632Y-137276525D01*
X97292240Y-137160000D01*
X97466632Y-137043475D01*
X97673475Y-136836632D01*
X97835990Y-136593411D01*
X97947932Y-136323158D01*
X98005000Y-136036260D01*
X98005000Y-135743740D01*
X97947932Y-135456842D01*
X97835990Y-135186589D01*
X97673475Y-134943368D01*
X97466632Y-134736525D01*
X97292240Y-134620000D01*
X97466632Y-134503475D01*
X97673475Y-134296632D01*
X97835990Y-134053411D01*
X97947932Y-133783158D01*
X98005000Y-133496260D01*
X98005000Y-133203740D01*
X97947932Y-132916842D01*
X97835990Y-132646589D01*
X97673475Y-132403368D01*
X97466632Y-132196525D01*
X97292240Y-132080000D01*
X97466632Y-131963475D01*
X97673475Y-131756632D01*
X97835990Y-131513411D01*
X97947932Y-131243158D01*
X98001886Y-130971911D01*
X99077500Y-130971911D01*
X99077500Y-131156089D01*
X99113432Y-131336729D01*
X99183914Y-131506889D01*
X99252500Y-131609536D01*
X99252501Y-136297158D01*
X99252500Y-136297168D01*
X99252500Y-136424178D01*
X99248824Y-136461500D01*
X99252500Y-136498822D01*
X99252500Y-136534835D01*
X99263497Y-136646488D01*
X99306954Y-136789749D01*
X99377526Y-136921778D01*
X99472499Y-137037503D01*
X99588225Y-137132476D01*
X99632158Y-137155959D01*
X104867847Y-142391649D01*
X104891932Y-142512729D01*
X104962414Y-142682889D01*
X105064738Y-142836028D01*
X105194972Y-142966262D01*
X105348111Y-143068586D01*
X105518271Y-143139068D01*
X105698911Y-143175000D01*
X105883089Y-143175000D01*
X106063729Y-143139068D01*
X106233889Y-143068586D01*
X106387028Y-142966262D01*
X106517262Y-142836028D01*
X106619586Y-142682889D01*
X106632389Y-142651980D01*
X106707901Y-142667000D01*
X106892079Y-142667000D01*
X107072719Y-142631068D01*
X107242879Y-142560586D01*
X107396018Y-142458262D01*
X107526252Y-142328028D01*
X107628576Y-142174889D01*
X107699058Y-142004729D01*
X107712973Y-141934775D01*
X108042847Y-142264649D01*
X108066932Y-142385729D01*
X108137414Y-142555889D01*
X108239738Y-142709028D01*
X108369972Y-142839262D01*
X108523111Y-142941586D01*
X108693271Y-143012068D01*
X108873911Y-143048000D01*
X109058089Y-143048000D01*
X109238729Y-143012068D01*
X109408889Y-142941586D01*
X109562028Y-142839262D01*
X109692262Y-142709028D01*
X109794586Y-142555889D01*
X109865068Y-142385729D01*
X109901000Y-142205089D01*
X109901000Y-142020911D01*
X109865068Y-141840271D01*
X109794586Y-141670111D01*
X109692262Y-141516972D01*
X109562028Y-141386738D01*
X109408889Y-141284414D01*
X109238729Y-141213932D01*
X109117649Y-141189847D01*
X104021536Y-136093734D01*
X104138608Y-136070447D01*
X104308768Y-135999965D01*
X104461907Y-135897641D01*
X104592141Y-135767407D01*
X104694465Y-135614268D01*
X104764947Y-135444108D01*
X104788229Y-135327062D01*
X104805259Y-135341038D01*
X105401883Y-135937662D01*
X105400820Y-135948454D01*
X105400820Y-136046470D01*
X105413080Y-136170949D01*
X105432202Y-136267084D01*
X105468513Y-136386787D01*
X105506023Y-136477343D01*
X105564988Y-136587657D01*
X105619443Y-136669154D01*
X105698794Y-136765843D01*
X105716158Y-136783207D01*
X105731746Y-136802201D01*
X106085299Y-137155754D01*
X106104293Y-137171342D01*
X106121657Y-137188706D01*
X106218346Y-137268057D01*
X106299843Y-137322512D01*
X106410157Y-137381477D01*
X106500713Y-137418987D01*
X106620416Y-137455298D01*
X106716551Y-137474420D01*
X106841030Y-137486680D01*
X106939046Y-137486680D01*
X107063525Y-137474420D01*
X107159660Y-137455298D01*
X107279366Y-137418986D01*
X107369921Y-137381476D01*
X107480229Y-137322514D01*
X107561727Y-137268059D01*
X107658426Y-137188700D01*
X107675791Y-137171335D01*
X107694776Y-137155754D01*
X107912198Y-136938332D01*
X107917682Y-136994010D01*
X107967507Y-137158261D01*
X108048418Y-137309636D01*
X108157307Y-137442317D01*
X108493183Y-137778193D01*
X108625864Y-137887082D01*
X108777239Y-137967993D01*
X108941490Y-138017818D01*
X109112306Y-138034642D01*
X109121458Y-138033741D01*
X109153414Y-138110889D01*
X109255738Y-138264028D01*
X109385972Y-138394262D01*
X109539111Y-138496586D01*
X109709271Y-138567068D01*
X109889911Y-138603000D01*
X110074089Y-138603000D01*
X110254729Y-138567068D01*
X110424889Y-138496586D01*
X110578028Y-138394262D01*
X110708262Y-138264028D01*
X110810586Y-138110889D01*
X110881068Y-137940729D01*
X110917000Y-137760089D01*
X110917000Y-137575911D01*
X110881068Y-137395271D01*
X110810586Y-137225111D01*
X110708262Y-137071972D01*
X110578028Y-136941738D01*
X110498162Y-136888374D01*
X110576245Y-136864688D01*
X110686560Y-136805724D01*
X110783251Y-136726371D01*
X110959093Y-136546184D01*
X110959093Y-136321678D01*
X110376260Y-135738845D01*
X110362118Y-135752988D01*
X110182513Y-135573383D01*
X110196655Y-135559240D01*
X110555865Y-135559240D01*
X111138698Y-136142073D01*
X111363204Y-136142073D01*
X111543391Y-135966231D01*
X111622744Y-135869540D01*
X111681708Y-135759225D01*
X111718017Y-135639527D01*
X111730278Y-135515046D01*
X111718017Y-135390565D01*
X111681708Y-135270866D01*
X111622744Y-135160552D01*
X111543391Y-135063861D01*
X111407398Y-134932213D01*
X111182892Y-134932213D01*
X110555865Y-135559240D01*
X110196655Y-135559240D01*
X110182513Y-135545098D01*
X110362118Y-135365493D01*
X110376260Y-135379635D01*
X111003287Y-134752608D01*
X111003287Y-134528102D01*
X110871639Y-134392109D01*
X110774948Y-134312756D01*
X110664634Y-134253792D01*
X110544935Y-134217483D01*
X110420454Y-134205222D01*
X110295973Y-134217483D01*
X110176275Y-134253792D01*
X110065960Y-134312756D01*
X109969269Y-134392109D01*
X109864180Y-134499795D01*
X109864180Y-134463530D01*
X109851920Y-134339051D01*
X109832798Y-134242916D01*
X109818721Y-134196510D01*
X109873729Y-134185568D01*
X110043889Y-134115086D01*
X110197028Y-134012762D01*
X110327262Y-133882528D01*
X110429586Y-133729389D01*
X110500068Y-133559229D01*
X110525168Y-133433043D01*
X110616129Y-133526251D01*
X110712820Y-133605604D01*
X110823135Y-133664568D01*
X110942833Y-133700877D01*
X111004502Y-133706951D01*
X111053887Y-133869753D01*
X111134798Y-134021128D01*
X111243687Y-134153809D01*
X111667951Y-134578073D01*
X111800632Y-134686962D01*
X111952007Y-134767873D01*
X112116258Y-134817698D01*
X112287074Y-134834522D01*
X112457890Y-134817698D01*
X112622141Y-134767873D01*
X112773516Y-134686962D01*
X112906197Y-134578073D01*
X113242073Y-134242197D01*
X113350962Y-134109516D01*
X113431873Y-133958141D01*
X113481698Y-133793890D01*
X113498522Y-133623074D01*
X113497409Y-133611773D01*
X113562528Y-133568262D01*
X113692762Y-133438028D01*
X113795086Y-133284889D01*
X113865568Y-133114729D01*
X113901500Y-132934089D01*
X113901500Y-132749911D01*
X113865568Y-132569271D01*
X113795086Y-132399111D01*
X113692762Y-132245972D01*
X113562528Y-132115738D01*
X113409389Y-132013414D01*
X113239229Y-131942932D01*
X113058589Y-131907000D01*
X112874411Y-131907000D01*
X112693771Y-131942932D01*
X112523611Y-132013414D01*
X112370472Y-132115738D01*
X112328048Y-132158162D01*
X112269604Y-132048820D01*
X112190251Y-131952129D01*
X112010064Y-131776287D01*
X111785558Y-131776287D01*
X111202725Y-132359120D01*
X111216868Y-132373263D01*
X111037263Y-132552868D01*
X111023120Y-132538725D01*
X111008978Y-132552868D01*
X110829373Y-132373263D01*
X110843515Y-132359120D01*
X110216488Y-131732093D01*
X109991982Y-131732093D01*
X109855989Y-131863741D01*
X109776636Y-131960432D01*
X109717672Y-132070746D01*
X109681363Y-132190445D01*
X109669102Y-132314926D01*
X109672704Y-132351500D01*
X109508911Y-132351500D01*
X109328271Y-132387432D01*
X109158111Y-132457914D01*
X109004972Y-132560238D01*
X108874738Y-132690472D01*
X108772414Y-132843611D01*
X108701932Y-133013771D01*
X108690990Y-133068779D01*
X108644584Y-133054702D01*
X108548449Y-133035580D01*
X108423970Y-133023320D01*
X108325954Y-133023320D01*
X108201475Y-133035580D01*
X108105340Y-133054702D01*
X107985634Y-133091014D01*
X107895079Y-133128524D01*
X107795025Y-133182005D01*
X108136254Y-132840776D01*
X108151835Y-132821791D01*
X108169200Y-132804426D01*
X108248559Y-132707727D01*
X108303014Y-132626229D01*
X108361976Y-132515921D01*
X108399486Y-132425366D01*
X108435798Y-132305660D01*
X108454920Y-132209525D01*
X108467180Y-132085046D01*
X108467180Y-131987030D01*
X108454920Y-131862551D01*
X108435798Y-131766416D01*
X108434937Y-131763576D01*
X108583389Y-131702086D01*
X108736528Y-131599762D01*
X108866762Y-131469528D01*
X108961339Y-131327982D01*
X110396093Y-131327982D01*
X110396093Y-131552488D01*
X111023120Y-132179515D01*
X111605953Y-131596682D01*
X111605953Y-131372176D01*
X111430111Y-131191989D01*
X111333420Y-131112636D01*
X111223105Y-131053672D01*
X111103407Y-131017363D01*
X110978926Y-131005102D01*
X110854445Y-131017363D01*
X110734746Y-131053672D01*
X110624432Y-131112636D01*
X110527741Y-131191989D01*
X110396093Y-131327982D01*
X108961339Y-131327982D01*
X108969086Y-131316389D01*
X109039568Y-131146229D01*
X109075500Y-130965589D01*
X109075500Y-130781411D01*
X109039568Y-130600771D01*
X108969086Y-130430611D01*
X108866762Y-130277472D01*
X108736528Y-130147238D01*
X108583389Y-130044914D01*
X108413229Y-129974432D01*
X108232589Y-129938500D01*
X108048411Y-129938500D01*
X107867771Y-129974432D01*
X107697611Y-130044914D01*
X107544472Y-130147238D01*
X107414238Y-130277472D01*
X107311914Y-130430611D01*
X107250424Y-130579063D01*
X107247584Y-130578202D01*
X107151449Y-130559080D01*
X107026970Y-130546820D01*
X106928954Y-130546820D01*
X106804475Y-130559080D01*
X106708340Y-130578202D01*
X106588634Y-130614514D01*
X106498079Y-130652024D01*
X106387771Y-130710986D01*
X106306273Y-130765441D01*
X106209574Y-130844800D01*
X106192209Y-130862165D01*
X106173224Y-130877746D01*
X105988154Y-131062816D01*
X105938873Y-130900359D01*
X105857962Y-130748984D01*
X105749073Y-130616303D01*
X105413197Y-130280427D01*
X105280516Y-130171538D01*
X105129141Y-130090627D01*
X104964890Y-130040802D01*
X104804272Y-130024982D01*
X104736028Y-129956738D01*
X104582889Y-129854414D01*
X104412729Y-129783932D01*
X104232089Y-129748000D01*
X104047911Y-129748000D01*
X103867271Y-129783932D01*
X103697111Y-129854414D01*
X103543972Y-129956738D01*
X103413738Y-130086972D01*
X103311414Y-130240111D01*
X103240932Y-130410271D01*
X103205000Y-130590911D01*
X103205000Y-130775089D01*
X103240932Y-130955729D01*
X103311414Y-131125889D01*
X103352372Y-131187187D01*
X103330135Y-131193932D01*
X103219820Y-131252896D01*
X103123129Y-131332249D01*
X102947287Y-131512436D01*
X102947287Y-131736942D01*
X103530120Y-132319775D01*
X103544263Y-132305633D01*
X103723868Y-132485238D01*
X103709725Y-132499380D01*
X103723868Y-132513523D01*
X103544263Y-132693128D01*
X103530120Y-132678985D01*
X103515978Y-132693128D01*
X103336373Y-132513523D01*
X103350515Y-132499380D01*
X102767682Y-131916547D01*
X102543176Y-131916547D01*
X102362989Y-132092389D01*
X102360986Y-132094829D01*
X102278040Y-132026756D01*
X102167725Y-131967792D01*
X102048027Y-131931483D01*
X101923546Y-131919222D01*
X101799065Y-131931483D01*
X101785160Y-131935701D01*
X101785160Y-131927553D01*
X101902997Y-131809716D01*
X101932000Y-131785914D01*
X102026973Y-131670189D01*
X102097545Y-131538160D01*
X102141002Y-131394899D01*
X102151999Y-131283246D01*
X102151999Y-131283238D01*
X102155675Y-131245913D01*
X102151999Y-131208588D01*
X102151999Y-130194824D01*
X102155675Y-130157499D01*
X102151999Y-130120174D01*
X102151999Y-130120166D01*
X102141002Y-130008513D01*
X102097545Y-129865252D01*
X102026973Y-129733223D01*
X102018558Y-129722969D01*
X101991068Y-129584771D01*
X101920586Y-129414611D01*
X101818262Y-129261472D01*
X101688028Y-129131238D01*
X101534889Y-129028914D01*
X101364729Y-128958432D01*
X101184089Y-128922500D01*
X100999911Y-128922500D01*
X100819271Y-128958432D01*
X100649111Y-129028914D01*
X100495972Y-129131238D01*
X100365738Y-129261472D01*
X100263414Y-129414611D01*
X100192932Y-129584771D01*
X100189257Y-129603245D01*
X100122306Y-129630977D01*
X99969167Y-129733301D01*
X99838933Y-129863535D01*
X99736609Y-130016674D01*
X99666127Y-130186834D01*
X99664262Y-130196208D01*
X99569611Y-130235414D01*
X99416472Y-130337738D01*
X99286238Y-130467972D01*
X99183914Y-130621111D01*
X99113432Y-130791271D01*
X99077500Y-130971911D01*
X98001886Y-130971911D01*
X98005000Y-130956260D01*
X98005000Y-130663740D01*
X97947932Y-130376842D01*
X97835990Y-130106589D01*
X97673475Y-129863368D01*
X97466632Y-129656525D01*
X97292240Y-129540000D01*
X97466632Y-129423475D01*
X97673475Y-129216632D01*
X97835990Y-128973411D01*
X97947932Y-128703158D01*
X98005000Y-128416260D01*
X98005000Y-128123740D01*
X97947932Y-127836842D01*
X97835990Y-127566589D01*
X97673475Y-127323368D01*
X97466632Y-127116525D01*
X97292240Y-127000000D01*
X97466632Y-126883475D01*
X97673475Y-126676632D01*
X97835990Y-126433411D01*
X97947932Y-126163158D01*
X98005000Y-125876260D01*
X98005000Y-125583740D01*
X97947932Y-125296842D01*
X97835990Y-125026589D01*
X97820169Y-125002911D01*
X106380000Y-125002911D01*
X106380000Y-125187089D01*
X106415932Y-125367729D01*
X106486414Y-125537889D01*
X106555001Y-125640537D01*
X106555000Y-127978464D01*
X106486414Y-128081111D01*
X106415932Y-128251271D01*
X106380000Y-128431911D01*
X106380000Y-128616089D01*
X106415932Y-128796729D01*
X106486414Y-128966889D01*
X106588738Y-129120028D01*
X106718972Y-129250262D01*
X106872111Y-129352586D01*
X107042271Y-129423068D01*
X107222911Y-129459000D01*
X107407089Y-129459000D01*
X107587729Y-129423068D01*
X107757889Y-129352586D01*
X107911028Y-129250262D01*
X108041262Y-129120028D01*
X108143586Y-128966889D01*
X108214068Y-128796729D01*
X108250000Y-128616089D01*
X108250000Y-128431911D01*
X108214068Y-128251271D01*
X108143586Y-128081111D01*
X108075000Y-127978465D01*
X108075000Y-125640535D01*
X108143586Y-125537889D01*
X108214068Y-125367729D01*
X108250000Y-125187089D01*
X108250000Y-125002911D01*
X108214068Y-124822271D01*
X108143586Y-124652111D01*
X108041262Y-124498972D01*
X107911028Y-124368738D01*
X107757889Y-124266414D01*
X107587729Y-124195932D01*
X107407089Y-124160000D01*
X107222911Y-124160000D01*
X107042271Y-124195932D01*
X106872111Y-124266414D01*
X106718972Y-124368738D01*
X106588738Y-124498972D01*
X106486414Y-124652111D01*
X106415932Y-124822271D01*
X106380000Y-125002911D01*
X97820169Y-125002911D01*
X97673475Y-124783368D01*
X97466632Y-124576525D01*
X97292240Y-124460000D01*
X97466632Y-124343475D01*
X97673475Y-124136632D01*
X97835990Y-123893411D01*
X97947932Y-123623158D01*
X98005000Y-123336260D01*
X98005000Y-123043740D01*
X97947932Y-122756842D01*
X97835990Y-122486589D01*
X97673475Y-122243368D01*
X97466632Y-122036525D01*
X97292240Y-121920000D01*
X97466632Y-121803475D01*
X97673475Y-121596632D01*
X97835990Y-121353411D01*
X97947932Y-121083158D01*
X98005000Y-120796260D01*
X98005000Y-120503740D01*
X97947932Y-120216842D01*
X97835990Y-119946589D01*
X97673475Y-119703368D01*
X97466632Y-119496525D01*
X97292240Y-119380000D01*
X97466632Y-119263475D01*
X97673475Y-119056632D01*
X97835990Y-118813411D01*
X97947932Y-118543158D01*
X98005000Y-118256260D01*
X98005000Y-117963740D01*
X97947932Y-117676842D01*
X97835990Y-117406589D01*
X97734034Y-117254000D01*
X99231428Y-117254000D01*
X99231428Y-118204000D01*
X99248492Y-118377254D01*
X99299028Y-118543850D01*
X99381095Y-118697386D01*
X99491538Y-118831962D01*
X99626114Y-118942405D01*
X99779650Y-119024472D01*
X99946246Y-119075008D01*
X100119500Y-119092072D01*
X100411000Y-119092072D01*
X100411000Y-119218089D01*
X100446932Y-119398729D01*
X100517414Y-119568889D01*
X100619738Y-119722028D01*
X100749972Y-119852262D01*
X100903111Y-119954586D01*
X101073271Y-120025068D01*
X101253911Y-120061000D01*
X101438089Y-120061000D01*
X101618729Y-120025068D01*
X101788889Y-119954586D01*
X101942028Y-119852262D01*
X102072262Y-119722028D01*
X102174586Y-119568889D01*
X102245068Y-119398729D01*
X102281000Y-119218089D01*
X102281000Y-119054250D01*
X102405000Y-118930250D01*
X102405000Y-117856000D01*
X102385000Y-117856000D01*
X102385000Y-117602000D01*
X102405000Y-117602000D01*
X102405000Y-117582000D01*
X102659000Y-117582000D01*
X102659000Y-117602000D01*
X102679000Y-117602000D01*
X102679000Y-117856000D01*
X102659000Y-117856000D01*
X102659000Y-118930250D01*
X102817750Y-119089000D01*
X103119500Y-119092072D01*
X103243982Y-119079812D01*
X103363680Y-119043502D01*
X103473994Y-118984537D01*
X103570685Y-118905185D01*
X103650037Y-118808494D01*
X103709002Y-118698180D01*
X103745312Y-118578482D01*
X103757572Y-118454000D01*
X103757036Y-118377400D01*
X103807528Y-118543850D01*
X103889595Y-118697386D01*
X104000038Y-118831962D01*
X104075805Y-118894142D01*
X104066432Y-118916771D01*
X104030500Y-119097411D01*
X104030500Y-119281589D01*
X104066432Y-119462229D01*
X104136914Y-119632389D01*
X104239238Y-119785528D01*
X104369472Y-119915762D01*
X104522611Y-120018086D01*
X104692771Y-120088568D01*
X104873411Y-120124500D01*
X105057589Y-120124500D01*
X105238229Y-120088568D01*
X105408389Y-120018086D01*
X105561528Y-119915762D01*
X105691762Y-119785528D01*
X105794086Y-119632389D01*
X105864568Y-119462229D01*
X105900500Y-119281589D01*
X105900500Y-119097411D01*
X105864568Y-118916771D01*
X105855195Y-118894142D01*
X105930962Y-118831962D01*
X105936342Y-118825406D01*
X106001815Y-118905185D01*
X106098506Y-118984537D01*
X106208820Y-119043502D01*
X106328518Y-119079812D01*
X106453000Y-119092072D01*
X106754750Y-119089000D01*
X106913500Y-118930250D01*
X106913500Y-117856000D01*
X107167500Y-117856000D01*
X107167500Y-118930250D01*
X107326250Y-119089000D01*
X107628000Y-119092072D01*
X107752482Y-119079812D01*
X107872180Y-119043502D01*
X107982494Y-118984537D01*
X108079185Y-118905185D01*
X108158537Y-118808494D01*
X108217502Y-118698180D01*
X108253812Y-118578482D01*
X108266072Y-118454000D01*
X108263000Y-118014750D01*
X108104250Y-117856000D01*
X107167500Y-117856000D01*
X106913500Y-117856000D01*
X106893500Y-117856000D01*
X106893500Y-117602000D01*
X106913500Y-117602000D01*
X106913500Y-117582000D01*
X107167500Y-117582000D01*
X107167500Y-117602000D01*
X108104250Y-117602000D01*
X108263000Y-117443250D01*
X108266072Y-117004000D01*
X108253812Y-116879518D01*
X108217502Y-116759820D01*
X108158537Y-116649506D01*
X108079185Y-116552815D01*
X107982494Y-116473463D01*
X107872180Y-116414498D01*
X107824327Y-116399982D01*
X107831072Y-116331500D01*
X107831072Y-115441000D01*
X108222706Y-115441000D01*
X108260595Y-115511886D01*
X108371038Y-115646462D01*
X108505614Y-115756905D01*
X108659150Y-115838972D01*
X108825746Y-115889508D01*
X108999000Y-115906572D01*
X109262771Y-115906572D01*
X111637205Y-118281008D01*
X111660999Y-118310001D01*
X111689992Y-118333795D01*
X111689996Y-118333799D01*
X111723719Y-118361474D01*
X111776724Y-118404974D01*
X111827504Y-118432117D01*
X111861498Y-118544180D01*
X111920463Y-118654494D01*
X111999815Y-118751185D01*
X112096506Y-118830537D01*
X112206820Y-118889502D01*
X112326518Y-118925812D01*
X112451000Y-118938072D01*
X113101000Y-118938072D01*
X113225482Y-118925812D01*
X113345180Y-118889502D01*
X113455494Y-118830537D01*
X113552185Y-118751185D01*
X113631537Y-118654494D01*
X113633515Y-118650793D01*
X113699911Y-118664000D01*
X113828264Y-118664000D01*
X113899815Y-118751185D01*
X113996506Y-118830537D01*
X114106820Y-118889502D01*
X114226518Y-118925812D01*
X114351000Y-118938072D01*
X115001000Y-118938072D01*
X115125482Y-118925812D01*
X115245180Y-118889502D01*
X115355494Y-118830537D01*
X115452185Y-118751185D01*
X115531537Y-118654494D01*
X115590502Y-118544180D01*
X115626812Y-118424482D01*
X115639072Y-118300000D01*
X115639072Y-117240000D01*
X115626812Y-117115518D01*
X115590502Y-116995820D01*
X115531537Y-116885506D01*
X115452185Y-116788815D01*
X115355494Y-116709463D01*
X115347812Y-116705357D01*
X115381546Y-116642247D01*
X115394911Y-116598189D01*
X115452185Y-116551185D01*
X115531537Y-116454494D01*
X115580813Y-116362306D01*
X115635111Y-116398586D01*
X115805271Y-116469068D01*
X115985911Y-116505000D01*
X116170089Y-116505000D01*
X116350729Y-116469068D01*
X116520889Y-116398586D01*
X116674028Y-116296262D01*
X116804262Y-116166028D01*
X116906586Y-116012889D01*
X116977068Y-115842729D01*
X117013000Y-115662089D01*
X117013000Y-115477911D01*
X116977068Y-115297271D01*
X116906586Y-115127111D01*
X116804262Y-114973972D01*
X116674028Y-114843738D01*
X116520889Y-114741414D01*
X116350729Y-114670932D01*
X116170089Y-114635000D01*
X115985911Y-114635000D01*
X115805271Y-114670932D01*
X115635111Y-114741414D01*
X115580813Y-114777694D01*
X115531537Y-114685506D01*
X115452185Y-114588815D01*
X115355494Y-114509463D01*
X115245180Y-114450498D01*
X115125482Y-114414188D01*
X115001000Y-114401928D01*
X114420085Y-114401928D01*
X114439405Y-114378386D01*
X114521472Y-114224850D01*
X114572008Y-114058254D01*
X114589072Y-113885000D01*
X114589072Y-112885000D01*
X114572008Y-112711746D01*
X114521472Y-112545150D01*
X114439405Y-112391614D01*
X114328962Y-112257038D01*
X114194386Y-112146595D01*
X114040850Y-112064528D01*
X113874254Y-112013992D01*
X113701000Y-111996928D01*
X111851000Y-111996928D01*
X111677746Y-112013992D01*
X111511150Y-112064528D01*
X111357614Y-112146595D01*
X111223038Y-112257038D01*
X111112595Y-112391614D01*
X111030528Y-112545150D01*
X110979992Y-112711746D01*
X110962928Y-112885000D01*
X110962928Y-113885000D01*
X110979992Y-114058254D01*
X111030528Y-114224850D01*
X111112595Y-114378386D01*
X111223038Y-114512962D01*
X111357614Y-114623405D01*
X111511150Y-114705472D01*
X111677746Y-114756008D01*
X111851000Y-114773072D01*
X111873657Y-114773072D01*
X111861498Y-114795820D01*
X111825188Y-114915518D01*
X111812928Y-115040000D01*
X111812928Y-116100000D01*
X111825188Y-116224482D01*
X111861498Y-116344180D01*
X111874722Y-116368919D01*
X110791508Y-115285706D01*
X110820008Y-115191754D01*
X110837072Y-115018500D01*
X110837072Y-114343500D01*
X110820008Y-114170246D01*
X110769472Y-114003650D01*
X110687405Y-113850114D01*
X110576962Y-113715538D01*
X110570406Y-113710158D01*
X110650185Y-113644685D01*
X110729537Y-113547994D01*
X110788502Y-113437680D01*
X110824812Y-113317982D01*
X110837072Y-113193500D01*
X110834000Y-112891750D01*
X110675250Y-112733000D01*
X109601000Y-112733000D01*
X109601000Y-112753000D01*
X109347000Y-112753000D01*
X109347000Y-112733000D01*
X108272750Y-112733000D01*
X108114000Y-112891750D01*
X108110928Y-113193500D01*
X108123188Y-113317982D01*
X108159498Y-113437680D01*
X108218463Y-113547994D01*
X108297815Y-113644685D01*
X108377594Y-113710158D01*
X108371038Y-113715538D01*
X108260595Y-113850114D01*
X108222706Y-113921000D01*
X107831072Y-113921000D01*
X107831072Y-113071500D01*
X107818812Y-112947018D01*
X107782502Y-112827320D01*
X107723537Y-112717006D01*
X107644185Y-112620315D01*
X107547494Y-112540963D01*
X107437180Y-112481998D01*
X107317482Y-112445688D01*
X107193000Y-112433428D01*
X106543000Y-112433428D01*
X106418518Y-112445688D01*
X106393000Y-112453429D01*
X106367482Y-112445688D01*
X106243000Y-112433428D01*
X106203750Y-112436500D01*
X106045000Y-112595250D01*
X106045000Y-112677359D01*
X106012463Y-112717006D01*
X105953498Y-112827320D01*
X105918000Y-112944341D01*
X105882502Y-112827320D01*
X105823537Y-112717006D01*
X105791000Y-112677359D01*
X105791000Y-112595250D01*
X105632250Y-112436500D01*
X105593000Y-112433428D01*
X105468518Y-112445688D01*
X105443000Y-112453429D01*
X105417482Y-112445688D01*
X105293000Y-112433428D01*
X104643000Y-112433428D01*
X104518518Y-112445688D01*
X104398820Y-112481998D01*
X104288506Y-112540963D01*
X104191815Y-112620315D01*
X104112463Y-112717006D01*
X104053498Y-112827320D01*
X104017188Y-112947018D01*
X104004928Y-113071500D01*
X104004928Y-113921000D01*
X103320072Y-113921000D01*
X103320072Y-113071500D01*
X103307812Y-112947018D01*
X103271502Y-112827320D01*
X103212537Y-112717006D01*
X103133185Y-112620315D01*
X103036494Y-112540963D01*
X102926180Y-112481998D01*
X102806482Y-112445688D01*
X102682000Y-112433428D01*
X102032000Y-112433428D01*
X101907518Y-112445688D01*
X101882000Y-112453429D01*
X101856482Y-112445688D01*
X101732000Y-112433428D01*
X101692750Y-112436500D01*
X101534000Y-112595250D01*
X101534000Y-112677359D01*
X101501463Y-112717006D01*
X101442498Y-112827320D01*
X101407000Y-112944341D01*
X101371502Y-112827320D01*
X101312537Y-112717006D01*
X101280000Y-112677359D01*
X101280000Y-112595250D01*
X101121250Y-112436500D01*
X101082000Y-112433428D01*
X100957518Y-112445688D01*
X100932000Y-112453429D01*
X100906482Y-112445688D01*
X100782000Y-112433428D01*
X100132000Y-112433428D01*
X100007518Y-112445688D01*
X99887820Y-112481998D01*
X99777506Y-112540963D01*
X99680815Y-112620315D01*
X99601463Y-112717006D01*
X99542498Y-112827320D01*
X99506188Y-112947018D01*
X99493928Y-113071500D01*
X99493928Y-114131500D01*
X99506188Y-114255982D01*
X99542498Y-114375680D01*
X99601463Y-114485994D01*
X99680815Y-114582685D01*
X99738090Y-114629689D01*
X99739224Y-114633428D01*
X99751454Y-114673746D01*
X99785188Y-114736857D01*
X99777506Y-114740963D01*
X99680815Y-114820315D01*
X99601463Y-114917006D01*
X99542498Y-115027320D01*
X99506188Y-115147018D01*
X99493928Y-115271500D01*
X99493928Y-116331500D01*
X99506188Y-116455982D01*
X99542498Y-116575680D01*
X99545670Y-116581614D01*
X99491538Y-116626038D01*
X99381095Y-116760614D01*
X99299028Y-116914150D01*
X99248492Y-117080746D01*
X99231428Y-117254000D01*
X97734034Y-117254000D01*
X97673475Y-117163368D01*
X97466632Y-116956525D01*
X97292240Y-116840000D01*
X97466632Y-116723475D01*
X97673475Y-116516632D01*
X97835990Y-116273411D01*
X97947932Y-116003158D01*
X98005000Y-115716260D01*
X98005000Y-115423740D01*
X97947932Y-115136842D01*
X97835990Y-114866589D01*
X97673475Y-114623368D01*
X97466632Y-114416525D01*
X97292240Y-114300000D01*
X97466632Y-114183475D01*
X97673475Y-113976632D01*
X97835990Y-113733411D01*
X97947932Y-113463158D01*
X98005000Y-113176260D01*
X98005000Y-112883740D01*
X97947932Y-112596842D01*
X97835990Y-112326589D01*
X97673475Y-112083368D01*
X97608607Y-112018500D01*
X108110928Y-112018500D01*
X108114000Y-112320250D01*
X108272750Y-112479000D01*
X109347000Y-112479000D01*
X109347000Y-111542250D01*
X109601000Y-111542250D01*
X109601000Y-112479000D01*
X110675250Y-112479000D01*
X110834000Y-112320250D01*
X110837072Y-112018500D01*
X110824812Y-111894018D01*
X110788502Y-111774320D01*
X110729537Y-111664006D01*
X110650185Y-111567315D01*
X110553494Y-111487963D01*
X110443180Y-111428998D01*
X110323482Y-111392688D01*
X110199000Y-111380428D01*
X109759750Y-111383500D01*
X109601000Y-111542250D01*
X109347000Y-111542250D01*
X109188250Y-111383500D01*
X108749000Y-111380428D01*
X108624518Y-111392688D01*
X108504820Y-111428998D01*
X108394506Y-111487963D01*
X108297815Y-111567315D01*
X108218463Y-111664006D01*
X108159498Y-111774320D01*
X108123188Y-111894018D01*
X108110928Y-112018500D01*
X97608607Y-112018500D01*
X97541620Y-111951513D01*
X97614180Y-111929502D01*
X97724494Y-111870537D01*
X97821185Y-111791185D01*
X97900537Y-111694494D01*
X97959502Y-111584180D01*
X97995812Y-111464482D01*
X98008072Y-111340000D01*
X98008072Y-110885000D01*
X110962928Y-110885000D01*
X110975188Y-111009482D01*
X111011498Y-111129180D01*
X111070463Y-111239494D01*
X111149815Y-111336185D01*
X111246506Y-111415537D01*
X111356820Y-111474502D01*
X111476518Y-111510812D01*
X111601000Y-111523072D01*
X112490250Y-111520000D01*
X112649000Y-111361250D01*
X112649000Y-110262000D01*
X112903000Y-110262000D01*
X112903000Y-111361250D01*
X113061750Y-111520000D01*
X113951000Y-111523072D01*
X114075482Y-111510812D01*
X114195180Y-111474502D01*
X114305494Y-111415537D01*
X114402185Y-111336185D01*
X114481537Y-111239494D01*
X114540502Y-111129180D01*
X114576812Y-111009482D01*
X114589072Y-110885000D01*
X114586000Y-110420750D01*
X114427250Y-110262000D01*
X112903000Y-110262000D01*
X112649000Y-110262000D01*
X111124750Y-110262000D01*
X110966000Y-110420750D01*
X110962928Y-110885000D01*
X98008072Y-110885000D01*
X98008072Y-109640000D01*
X97995812Y-109515518D01*
X97959502Y-109395820D01*
X97953719Y-109385000D01*
X110962928Y-109385000D01*
X110966000Y-109849250D01*
X111124750Y-110008000D01*
X112649000Y-110008000D01*
X112649000Y-108908750D01*
X112903000Y-108908750D01*
X112903000Y-110008000D01*
X114427250Y-110008000D01*
X114586000Y-109849250D01*
X114589072Y-109385000D01*
X114576812Y-109260518D01*
X114540502Y-109140820D01*
X114481537Y-109030506D01*
X114402185Y-108933815D01*
X114305494Y-108854463D01*
X114195180Y-108795498D01*
X114075482Y-108759188D01*
X113951000Y-108746928D01*
X113061750Y-108750000D01*
X112903000Y-108908750D01*
X112649000Y-108908750D01*
X112490250Y-108750000D01*
X111601000Y-108746928D01*
X111476518Y-108759188D01*
X111356820Y-108795498D01*
X111246506Y-108854463D01*
X111149815Y-108933815D01*
X111070463Y-109030506D01*
X111011498Y-109140820D01*
X110975188Y-109260518D01*
X110962928Y-109385000D01*
X97953719Y-109385000D01*
X97900537Y-109285506D01*
X97821185Y-109188815D01*
X97724494Y-109109463D01*
X97614180Y-109050498D01*
X97494482Y-109014188D01*
X97370000Y-109001928D01*
X95670000Y-109001928D01*
X95545518Y-109014188D01*
X95425820Y-109050498D01*
X95315506Y-109109463D01*
X95218815Y-109188815D01*
X95139463Y-109285506D01*
X95080498Y-109395820D01*
X95044188Y-109515518D01*
X95031928Y-109640000D01*
X94640000Y-109640000D01*
X94640000Y-108610000D01*
X121260000Y-108610000D01*
X121260001Y-160630000D01*
G37*
G04 #@! TD.AperFunction*
D19*
X102161488Y-133259098D02*
X102147345Y-133273240D01*
X102161488Y-133287383D01*
X101981883Y-133466988D01*
X101967740Y-133452845D01*
X101953598Y-133466988D01*
X101785160Y-133298550D01*
X101785160Y-133276215D01*
X101788135Y-133273240D01*
X101785160Y-133270265D01*
X101785160Y-133247930D01*
X101953598Y-133079493D01*
X101967740Y-133093635D01*
X101981883Y-133079493D01*
X102161488Y-133259098D01*
G04 #@! TA.AperFunction,Conductor*
D20*
G36*
X102161488Y-133259098D02*
G01*
X102147345Y-133273240D01*
X102161488Y-133287383D01*
X101981883Y-133466988D01*
X101967740Y-133452845D01*
X101953598Y-133466988D01*
X101785160Y-133298550D01*
X101785160Y-133276215D01*
X101788135Y-133273240D01*
X101785160Y-133270265D01*
X101785160Y-133247930D01*
X101953598Y-133079493D01*
X101967740Y-133093635D01*
X101981883Y-133079493D01*
X102161488Y-133259098D01*
G37*
G04 #@! TD.AperFunction*
M02*
