G04 #@! TF.GenerationSoftware,KiCad,Pcbnew,(5.1.9-0-10_14)*
G04 #@! TF.CreationDate,2021-04-24T14:40:39+02:00*
G04 #@! TF.ProjectId,xilinx-cpld-breakout,78696c69-6e78-42d6-9370-6c642d627265,rev?*
G04 #@! TF.SameCoordinates,Original*
G04 #@! TF.FileFunction,Soldermask,Bot*
G04 #@! TF.FilePolarity,Negative*
%FSLAX46Y46*%
G04 Gerber Fmt 4.6, Leading zero omitted, Abs format (unit mm)*
G04 Created by KiCad (PCBNEW (5.1.9-0-10_14)) date 2021-04-24 14:40:39*
%MOMM*%
%LPD*%
G01*
G04 APERTURE LIST*
%ADD10O,1.350000X1.350000*%
%ADD11R,1.350000X1.350000*%
%ADD12O,1.700000X1.700000*%
%ADD13R,1.700000X1.700000*%
%ADD14R,0.650000X1.060000*%
%ADD15C,0.100000*%
G04 APERTURE END LIST*
D10*
X113854000Y-157385000D03*
X113854000Y-159385000D03*
X111854000Y-157385000D03*
X111854000Y-159385000D03*
X109854000Y-157385000D03*
X109854000Y-159385000D03*
X107854000Y-157385000D03*
X107854000Y-159385000D03*
X105854000Y-157385000D03*
X105854000Y-159385000D03*
X103854000Y-157385000D03*
X103854000Y-159385000D03*
X101854000Y-157385000D03*
D11*
X101854000Y-159385000D03*
G36*
G01*
X109368632Y-136230992D02*
X109704508Y-136566868D01*
G75*
G02*
X109704508Y-136902744I-167938J-167938D01*
G01*
X109280244Y-137327008D01*
G75*
G02*
X108944368Y-137327008I-167938J167938D01*
G01*
X108608492Y-136991132D01*
G75*
G02*
X108608492Y-136655256I167938J167938D01*
G01*
X109032756Y-136230992D01*
G75*
G02*
X109368632Y-136230992I167938J-167938D01*
G01*
G37*
G36*
G01*
X110588392Y-135011232D02*
X110924268Y-135347108D01*
G75*
G02*
X110924268Y-135682984I-167938J-167938D01*
G01*
X110500004Y-136107248D01*
G75*
G02*
X110164128Y-136107248I-167938J167938D01*
G01*
X109828252Y-135771372D01*
G75*
G02*
X109828252Y-135435496I167938J167938D01*
G01*
X110252516Y-135011232D01*
G75*
G02*
X110588392Y-135011232I167938J-167938D01*
G01*
G37*
D12*
X119380000Y-110490000D03*
X119380000Y-113030000D03*
X119380000Y-115570000D03*
X119380000Y-118110000D03*
X119380000Y-120650000D03*
X119380000Y-123190000D03*
X119380000Y-125730000D03*
X119380000Y-128270000D03*
X119380000Y-130810000D03*
X119380000Y-133350000D03*
X119380000Y-135890000D03*
X119380000Y-138430000D03*
X119380000Y-140970000D03*
X119380000Y-143510000D03*
X119380000Y-146050000D03*
X119380000Y-148590000D03*
X119380000Y-151130000D03*
X119380000Y-153670000D03*
X119380000Y-156210000D03*
D13*
X119380000Y-158750000D03*
D12*
X96520000Y-158750000D03*
X96520000Y-156210000D03*
X96520000Y-153670000D03*
X96520000Y-151130000D03*
X96520000Y-148590000D03*
X96520000Y-146050000D03*
X96520000Y-143510000D03*
X96520000Y-140970000D03*
X96520000Y-138430000D03*
X96520000Y-135890000D03*
X96520000Y-133350000D03*
X96520000Y-130810000D03*
X96520000Y-128270000D03*
X96520000Y-125730000D03*
X96520000Y-123190000D03*
X96520000Y-120650000D03*
X96520000Y-118110000D03*
X96520000Y-115570000D03*
X96520000Y-113030000D03*
D13*
X96520000Y-110490000D03*
D14*
X104968000Y-115801500D03*
X106868000Y-115801500D03*
X106868000Y-113601500D03*
X105918000Y-113601500D03*
X104968000Y-113601500D03*
X100457000Y-115801500D03*
X102357000Y-115801500D03*
X102357000Y-113601500D03*
X101407000Y-113601500D03*
X100457000Y-113601500D03*
X112776000Y-117770000D03*
X114676000Y-117770000D03*
X114676000Y-115570000D03*
X113726000Y-115570000D03*
X112776000Y-115570000D03*
D15*
G36*
X107455723Y-134371117D02*
G01*
X108516383Y-135431777D01*
X107809277Y-136138883D01*
X106748617Y-135078223D01*
X107455723Y-134371117D01*
G37*
G36*
X107243165Y-136704143D02*
G01*
X107225817Y-136721492D01*
X107187887Y-136752619D01*
X107147089Y-136779880D01*
X107103815Y-136803010D01*
X107058483Y-136821788D01*
X107011528Y-136836031D01*
X106963403Y-136845604D01*
X106914572Y-136850413D01*
X106865503Y-136850413D01*
X106816673Y-136845604D01*
X106768548Y-136836031D01*
X106721593Y-136821788D01*
X106676260Y-136803010D01*
X106632986Y-136779880D01*
X106592188Y-136752619D01*
X106554258Y-136721492D01*
X106536910Y-136704143D01*
X106536484Y-136704569D01*
X106182931Y-136351016D01*
X106183357Y-136350590D01*
X106166008Y-136333242D01*
X106134881Y-136295312D01*
X106107620Y-136254514D01*
X106084490Y-136211240D01*
X106065712Y-136165907D01*
X106051469Y-136118952D01*
X106041896Y-136070827D01*
X106037087Y-136021997D01*
X106037087Y-135972928D01*
X106041896Y-135924097D01*
X106051469Y-135875972D01*
X106065712Y-135829017D01*
X106084490Y-135783685D01*
X106107620Y-135740411D01*
X106134881Y-135699613D01*
X106166008Y-135661683D01*
X106183357Y-135644335D01*
X106182931Y-135643909D01*
X106571840Y-135255000D01*
X107632500Y-136315660D01*
X107243591Y-136704569D01*
X107243165Y-136704143D01*
G37*
G36*
X107632500Y-134194340D02*
G01*
X108021409Y-133805431D01*
X108021835Y-133805857D01*
X108039183Y-133788508D01*
X108077113Y-133757381D01*
X108117911Y-133730120D01*
X108161185Y-133706990D01*
X108206517Y-133688212D01*
X108253472Y-133673969D01*
X108301597Y-133664396D01*
X108350428Y-133659587D01*
X108399497Y-133659587D01*
X108448327Y-133664396D01*
X108496452Y-133673969D01*
X108543407Y-133688212D01*
X108588740Y-133706990D01*
X108632014Y-133730120D01*
X108672812Y-133757381D01*
X108710742Y-133788508D01*
X108728090Y-133805857D01*
X108728516Y-133805431D01*
X109082069Y-134158984D01*
X109081643Y-134159410D01*
X109098992Y-134176758D01*
X109130119Y-134214688D01*
X109157380Y-134255486D01*
X109180510Y-134298760D01*
X109199288Y-134344093D01*
X109213531Y-134391048D01*
X109223104Y-134439173D01*
X109227913Y-134488003D01*
X109227913Y-134537072D01*
X109223104Y-134585903D01*
X109213531Y-134634028D01*
X109199288Y-134680983D01*
X109180510Y-134726315D01*
X109157380Y-134769589D01*
X109130119Y-134810387D01*
X109098992Y-134848317D01*
X109081643Y-134865665D01*
X109082069Y-134866091D01*
X108693160Y-135255000D01*
X107632500Y-134194340D01*
G37*
G36*
X106058723Y-131894617D02*
G01*
X107119383Y-132955277D01*
X106412277Y-133662383D01*
X105351617Y-132601723D01*
X106058723Y-131894617D01*
G37*
G36*
X105846165Y-134227643D02*
G01*
X105828817Y-134244992D01*
X105790887Y-134276119D01*
X105750089Y-134303380D01*
X105706815Y-134326510D01*
X105661483Y-134345288D01*
X105614528Y-134359531D01*
X105566403Y-134369104D01*
X105517572Y-134373913D01*
X105468503Y-134373913D01*
X105419673Y-134369104D01*
X105371548Y-134359531D01*
X105324593Y-134345288D01*
X105279260Y-134326510D01*
X105235986Y-134303380D01*
X105195188Y-134276119D01*
X105157258Y-134244992D01*
X105139910Y-134227643D01*
X105139484Y-134228069D01*
X104785931Y-133874516D01*
X104786357Y-133874090D01*
X104769008Y-133856742D01*
X104737881Y-133818812D01*
X104710620Y-133778014D01*
X104687490Y-133734740D01*
X104668712Y-133689407D01*
X104654469Y-133642452D01*
X104644896Y-133594327D01*
X104640087Y-133545497D01*
X104640087Y-133496428D01*
X104644896Y-133447597D01*
X104654469Y-133399472D01*
X104668712Y-133352517D01*
X104687490Y-133307185D01*
X104710620Y-133263911D01*
X104737881Y-133223113D01*
X104769008Y-133185183D01*
X104786357Y-133167835D01*
X104785931Y-133167409D01*
X105174840Y-132778500D01*
X106235500Y-133839160D01*
X105846591Y-134228069D01*
X105846165Y-134227643D01*
G37*
G36*
X106235500Y-131717840D02*
G01*
X106624409Y-131328931D01*
X106624835Y-131329357D01*
X106642183Y-131312008D01*
X106680113Y-131280881D01*
X106720911Y-131253620D01*
X106764185Y-131230490D01*
X106809517Y-131211712D01*
X106856472Y-131197469D01*
X106904597Y-131187896D01*
X106953428Y-131183087D01*
X107002497Y-131183087D01*
X107051327Y-131187896D01*
X107099452Y-131197469D01*
X107146407Y-131211712D01*
X107191740Y-131230490D01*
X107235014Y-131253620D01*
X107275812Y-131280881D01*
X107313742Y-131312008D01*
X107331090Y-131329357D01*
X107331516Y-131328931D01*
X107685069Y-131682484D01*
X107684643Y-131682910D01*
X107701992Y-131700258D01*
X107733119Y-131738188D01*
X107760380Y-131778986D01*
X107783510Y-131822260D01*
X107802288Y-131867593D01*
X107816531Y-131914548D01*
X107826104Y-131962673D01*
X107830913Y-132011503D01*
X107830913Y-132060572D01*
X107826104Y-132109403D01*
X107816531Y-132157528D01*
X107802288Y-132204483D01*
X107783510Y-132249815D01*
X107760380Y-132293089D01*
X107733119Y-132333887D01*
X107701992Y-132371817D01*
X107684643Y-132389165D01*
X107685069Y-132389591D01*
X107296160Y-132778500D01*
X106235500Y-131717840D01*
G37*
G36*
G01*
X106453000Y-118204000D02*
X106453000Y-117254000D01*
G75*
G02*
X106703000Y-117004000I250000J0D01*
G01*
X107378000Y-117004000D01*
G75*
G02*
X107628000Y-117254000I0J-250000D01*
G01*
X107628000Y-118204000D01*
G75*
G02*
X107378000Y-118454000I-250000J0D01*
G01*
X106703000Y-118454000D01*
G75*
G02*
X106453000Y-118204000I0J250000D01*
G01*
G37*
G36*
G01*
X104378000Y-118204000D02*
X104378000Y-117254000D01*
G75*
G02*
X104628000Y-117004000I250000J0D01*
G01*
X105303000Y-117004000D01*
G75*
G02*
X105553000Y-117254000I0J-250000D01*
G01*
X105553000Y-118204000D01*
G75*
G02*
X105303000Y-118454000I-250000J0D01*
G01*
X104628000Y-118454000D01*
G75*
G02*
X104378000Y-118204000I0J250000D01*
G01*
G37*
G36*
G01*
X101944500Y-118204000D02*
X101944500Y-117254000D01*
G75*
G02*
X102194500Y-117004000I250000J0D01*
G01*
X102869500Y-117004000D01*
G75*
G02*
X103119500Y-117254000I0J-250000D01*
G01*
X103119500Y-118204000D01*
G75*
G02*
X102869500Y-118454000I-250000J0D01*
G01*
X102194500Y-118454000D01*
G75*
G02*
X101944500Y-118204000I0J250000D01*
G01*
G37*
G36*
G01*
X99869500Y-118204000D02*
X99869500Y-117254000D01*
G75*
G02*
X100119500Y-117004000I250000J0D01*
G01*
X100794500Y-117004000D01*
G75*
G02*
X101044500Y-117254000I0J-250000D01*
G01*
X101044500Y-118204000D01*
G75*
G02*
X100794500Y-118454000I-250000J0D01*
G01*
X100119500Y-118454000D01*
G75*
G02*
X99869500Y-118204000I0J250000D01*
G01*
G37*
G36*
G01*
X109949000Y-113193500D02*
X108999000Y-113193500D01*
G75*
G02*
X108749000Y-112943500I0J250000D01*
G01*
X108749000Y-112268500D01*
G75*
G02*
X108999000Y-112018500I250000J0D01*
G01*
X109949000Y-112018500D01*
G75*
G02*
X110199000Y-112268500I0J-250000D01*
G01*
X110199000Y-112943500D01*
G75*
G02*
X109949000Y-113193500I-250000J0D01*
G01*
G37*
G36*
G01*
X109949000Y-115268500D02*
X108999000Y-115268500D01*
G75*
G02*
X108749000Y-115018500I0J250000D01*
G01*
X108749000Y-114343500D01*
G75*
G02*
X108999000Y-114093500I250000J0D01*
G01*
X109949000Y-114093500D01*
G75*
G02*
X110199000Y-114343500I0J-250000D01*
G01*
X110199000Y-115018500D01*
G75*
G02*
X109949000Y-115268500I-250000J0D01*
G01*
G37*
G36*
G01*
X113701000Y-110885000D02*
X111851000Y-110885000D01*
G75*
G02*
X111601000Y-110635000I0J250000D01*
G01*
X111601000Y-109635000D01*
G75*
G02*
X111851000Y-109385000I250000J0D01*
G01*
X113701000Y-109385000D01*
G75*
G02*
X113951000Y-109635000I0J-250000D01*
G01*
X113951000Y-110635000D01*
G75*
G02*
X113701000Y-110885000I-250000J0D01*
G01*
G37*
G36*
G01*
X113701000Y-114135000D02*
X111851000Y-114135000D01*
G75*
G02*
X111601000Y-113885000I0J250000D01*
G01*
X111601000Y-112885000D01*
G75*
G02*
X111851000Y-112635000I250000J0D01*
G01*
X113701000Y-112635000D01*
G75*
G02*
X113951000Y-112885000I0J-250000D01*
G01*
X113951000Y-113885000D01*
G75*
G02*
X113701000Y-114135000I-250000J0D01*
G01*
G37*
G36*
G01*
X104537748Y-131827628D02*
X104201872Y-131491752D01*
G75*
G02*
X104201872Y-131155876I167938J167938D01*
G01*
X104626136Y-130731612D01*
G75*
G02*
X104962012Y-130731612I167938J-167938D01*
G01*
X105297888Y-131067488D01*
G75*
G02*
X105297888Y-131403364I-167938J-167938D01*
G01*
X104873624Y-131827628D01*
G75*
G02*
X104537748Y-131827628I-167938J167938D01*
G01*
G37*
G36*
G01*
X103317988Y-133047388D02*
X102982112Y-132711512D01*
G75*
G02*
X102982112Y-132375636I167938J167938D01*
G01*
X103406376Y-131951372D01*
G75*
G02*
X103742252Y-131951372I167938J-167938D01*
G01*
X104078128Y-132287248D01*
G75*
G02*
X104078128Y-132623124I-167938J-167938D01*
G01*
X103653864Y-133047388D01*
G75*
G02*
X103317988Y-133047388I-167938J167938D01*
G01*
G37*
G36*
G01*
X102639492Y-134280868D02*
X102975368Y-133944992D01*
G75*
G02*
X103311244Y-133944992I167938J-167938D01*
G01*
X103735508Y-134369256D01*
G75*
G02*
X103735508Y-134705132I-167938J-167938D01*
G01*
X103399632Y-135041008D01*
G75*
G02*
X103063756Y-135041008I-167938J167938D01*
G01*
X102639492Y-134616744D01*
G75*
G02*
X102639492Y-134280868I167938J167938D01*
G01*
G37*
G36*
G01*
X101419732Y-133061108D02*
X101755608Y-132725232D01*
G75*
G02*
X102091484Y-132725232I167938J-167938D01*
G01*
X102515748Y-133149496D01*
G75*
G02*
X102515748Y-133485372I-167938J-167938D01*
G01*
X102179872Y-133821248D01*
G75*
G02*
X101843996Y-133821248I-167938J167938D01*
G01*
X101419732Y-133396984D01*
G75*
G02*
X101419732Y-133061108I167938J167938D01*
G01*
G37*
G36*
G01*
X111694872Y-133366748D02*
X112030748Y-133030872D01*
G75*
G02*
X112366624Y-133030872I167938J-167938D01*
G01*
X112790888Y-133455136D01*
G75*
G02*
X112790888Y-133791012I-167938J-167938D01*
G01*
X112455012Y-134126888D01*
G75*
G02*
X112119136Y-134126888I-167938J167938D01*
G01*
X111694872Y-133702624D01*
G75*
G02*
X111694872Y-133366748I167938J167938D01*
G01*
G37*
G36*
G01*
X110475112Y-132146988D02*
X110810988Y-131811112D01*
G75*
G02*
X111146864Y-131811112I167938J-167938D01*
G01*
X111571128Y-132235376D01*
G75*
G02*
X111571128Y-132571252I-167938J-167938D01*
G01*
X111235252Y-132907128D01*
G75*
G02*
X110899376Y-132907128I-167938J167938D01*
G01*
X110475112Y-132482864D01*
G75*
G02*
X110475112Y-132146988I167938J167938D01*
G01*
G37*
M02*
