*%FSLAX25Y25*%
*%MOIN*%
G01*
%ADD11C,0.00600*%
%ADD12C,0.00733*%
%ADD13C,0.00800*%
%ADD14C,0.01000*%
%ADD15C,0.01200*%
%ADD16C,0.01500*%
%ADD17C,0.02000*%
%ADD18C,0.02500*%
%ADD19C,0.03000*%
%ADD20C,0.03000*%
%ADD21O,0.03000X0.08000*%
%ADD22O,0.03800X0.08800*%
%ADD23C,0.04000*%
%ADD24C,0.04000*%
%ADD25C,0.05000*%
%ADD26C,0.06000*%
%ADD27C,0.06800*%
%ADD28C,0.07000*%
%ADD29C,0.08000*%
%ADD30C,0.08000*%
%ADD31C,0.08800*%
%ADD32O,0.09000X0.07000*%
%ADD33O,0.09800X0.07800*%
%ADD34C,0.10000*%
%ADD35C,0.10000*%
%ADD36C,0.12000*%
%ADD37C,0.12000*%
%ADD38C,0.12500*%
%ADD39C,0.12800*%
%ADD40O,0.15000X0.12000*%
%ADD41O,0.15800X0.12800*%
%ADD42C,0.16500*%
%ADD43C,0.25000*%
%ADD44R,0.04000X0.04000*%
%ADD45R,0.04800X0.04800*%
%ADD46R,0.05000X0.04000*%
%ADD47R,0.05800X0.04800*%
%ADD48R,0.06000X0.06000*%
%ADD49R,0.06000X0.10000*%
%ADD50R,0.06800X0.06800*%
%ADD51R,0.06800X0.10800*%
%ADD52R,0.08000X0.20000*%
%ADD53R,0.08800X0.20800*%
%ADD54R,0.10000X0.06000*%
%ADD55R,0.10000X0.10000*%
%ADD56R,0.10000X0.24000*%
%ADD57R,0.10800X0.06800*%
%ADD58R,0.10800X0.24800*%
%ADD59R,0.12000X0.06000*%
%ADD60R,0.12800X0.06800*%
%ADD61R,0.20000X0.20000*%
D27*
X956000Y877500D02*
D03*
X976000D02*
D03*
X966000D02*
D03*
X871000Y845000D02*
D03*
X891000D02*
D03*
X881000D02*
D03*
X938500Y795000D02*
D03*
X996500Y799500D02*
D03*
X900000Y817500D02*
D03*
X935000Y718000D02*
D03*
X906000Y737500D02*
D03*
X992500Y825000D02*
D03*
X993000Y749500D02*
D03*
X946500Y819000D02*
D03*
X934000D02*
D03*
X912000Y760500D02*
D03*
X889000Y770000D02*
D03*
X901500Y780000D02*
D03*
D30*
X1081100Y860000D02*
X1081101D01*
X1081100D02*
X1081227Y858301D01*
X1081607Y856640D01*
X1082229Y855054D01*
X1083081Y853578D01*
X1084143Y852246D01*
X1085392Y851087D01*
X1086800Y850127D01*
X1088335Y849388D01*
X1089963Y848886D01*
X1091648Y848632D01*
X1093352D01*
X1095037Y848886D01*
X1096665Y849388D01*
X1098200Y850127D01*
X1099608Y851087D01*
X1100857Y852246D01*
X1101919Y853578D01*
X1102771Y855054D01*
X1103393Y856640D01*
X1103773Y858301D01*
X1103900Y860000D01*
X1103901D01*
X1103900D02*
X1103773Y861699D01*
X1103393Y863360D01*
X1102771Y864946D01*
X1101919Y866422D01*
X1100857Y867754D01*
X1099608Y868913D01*
X1098200Y869873D01*
X1096665Y870612D01*
X1095037Y871114D01*
X1093352Y871368D01*
X1091648D01*
X1089963Y871114D01*
X1088335Y870612D01*
X1086800Y869873D01*
X1085392Y868913D01*
X1084143Y867754D01*
X1083081Y866422D01*
X1082229Y864946D01*
X1081607Y863360D01*
X1081227Y861699D01*
X1081100Y860000D01*
X1088900D02*
X1088901D01*
X1088900D02*
X1089117Y858769D01*
X1089742Y857686D01*
X1090700Y856882D01*
X1091875Y856455D01*
X1093125D01*
X1094300Y856882D01*
X1095258Y857686D01*
X1095883Y858769D01*
X1096100Y860000D01*
X1096101D01*
X1096100D02*
X1095883Y861231D01*
X1095258Y862314D01*
X1094300Y863118D01*
X1093125Y863545D01*
X1091875D01*
X1090700Y863118D01*
X1089742Y862314D01*
X1089117Y861231D01*
X1088900Y860000D01*
X857100Y720000D02*
X857101D01*
X857100D02*
X857227Y718301D01*
X857607Y716640D01*
X858229Y715054D01*
X859081Y713578D01*
X860143Y712246D01*
X861392Y711087D01*
X862800Y710127D01*
X864335Y709388D01*
X865963Y708886D01*
X867648Y708632D01*
X869352D01*
X871037Y708886D01*
X872665Y709388D01*
X874200Y710127D01*
X875608Y711087D01*
X876857Y712246D01*
X877919Y713578D01*
X878771Y715054D01*
X879393Y716640D01*
X879773Y718301D01*
X879900Y720000D01*
X879901D01*
X879900D02*
X879773Y721699D01*
X879393Y723360D01*
X878771Y724946D01*
X877919Y726422D01*
X876857Y727754D01*
X875608Y728913D01*
X874200Y729873D01*
X872665Y730612D01*
X871037Y731114D01*
X869352Y731368D01*
X867648D01*
X865963Y731114D01*
X864335Y730612D01*
X862800Y729873D01*
X861392Y728913D01*
X860143Y727754D01*
X859081Y726422D01*
X858229Y724946D01*
X857607Y723360D01*
X857227Y721699D01*
X857100Y720000D01*
X864900D02*
X864901D01*
X864900D02*
X865117Y718769D01*
X865742Y717686D01*
X866700Y716882D01*
X867875Y716455D01*
X869125D01*
X870300Y716882D01*
X871258Y717686D01*
X871883Y718769D01*
X872100Y720000D01*
X872101D01*
X872100D02*
X871883Y721231D01*
X871258Y722314D01*
X870300Y723118D01*
X869125Y723545D01*
X867875D01*
X866700Y723118D01*
X865742Y722314D01*
X865117Y721231D01*
X864900Y720000D01*
X857100Y880000D02*
X857101D01*
X857100D02*
X857227Y878301D01*
X857607Y876640D01*
X858229Y875054D01*
X859081Y873578D01*
X860143Y872246D01*
X861392Y871087D01*
X862800Y870127D01*
X864335Y869388D01*
X865963Y868886D01*
X867648Y868632D01*
X869352D01*
X871037Y868886D01*
X872665Y869388D01*
X874200Y870127D01*
X875608Y871087D01*
X876857Y872246D01*
X877919Y873578D01*
X878771Y875054D01*
X879393Y876640D01*
X879773Y878301D01*
X879900Y880000D01*
X879901D01*
X879900D02*
X879773Y881699D01*
X879393Y883360D01*
X878771Y884946D01*
X877919Y886422D01*
X876857Y887754D01*
X875608Y888913D01*
X874200Y889873D01*
X872665Y890612D01*
X871037Y891114D01*
X869352Y891368D01*
X867648D01*
X865963Y891114D01*
X864335Y890612D01*
X862800Y889873D01*
X861392Y888913D01*
X860143Y887754D01*
X859081Y886422D01*
X858229Y884946D01*
X857607Y883360D01*
X857227Y881699D01*
X857100Y880000D01*
X864900D02*
X864901D01*
X864900D02*
X865117Y878769D01*
X865742Y877686D01*
X866700Y876882D01*
X867875Y876455D01*
X869125D01*
X870300Y876882D01*
X871258Y877686D01*
X871883Y878769D01*
X872100Y880000D01*
X872101D01*
X872100D02*
X871883Y881231D01*
X871258Y882314D01*
X870300Y883118D01*
X869125Y883545D01*
X867875D01*
X866700Y883118D01*
X865742Y882314D01*
X865117Y881231D01*
X864900Y880000D01*
X1081100Y740000D02*
X1081101D01*
X1081100D02*
X1081227Y738301D01*
X1081607Y736640D01*
X1082229Y735054D01*
X1083081Y733578D01*
X1084143Y732246D01*
X1085392Y731087D01*
X1086800Y730127D01*
X1088335Y729388D01*
X1089963Y728886D01*
X1091648Y728632D01*
X1093352D01*
X1095037Y728886D01*
X1096665Y729388D01*
X1098200Y730127D01*
X1099608Y731087D01*
X1100857Y732246D01*
X1101919Y733578D01*
X1102771Y735054D01*
X1103393Y736640D01*
X1103773Y738301D01*
X1103900Y740000D01*
X1103901D01*
X1103900D02*
X1103773Y741699D01*
X1103393Y743360D01*
X1102771Y744946D01*
X1101919Y746422D01*
X1100857Y747754D01*
X1099608Y748913D01*
X1098200Y749873D01*
X1096665Y750612D01*
X1095037Y751114D01*
X1093352Y751368D01*
X1091648D01*
X1089963Y751114D01*
X1088335Y750612D01*
X1086800Y749873D01*
X1085392Y748913D01*
X1084143Y747754D01*
X1083081Y746422D01*
X1082229Y744946D01*
X1081607Y743360D01*
X1081227Y741699D01*
X1081100Y740000D01*
X1088900D02*
X1088901D01*
X1088900D02*
X1089117Y738769D01*
X1089742Y737686D01*
X1090700Y736882D01*
X1091875Y736455D01*
X1093125D01*
X1094300Y736882D01*
X1095258Y737686D01*
X1095883Y738769D01*
X1096100Y740000D01*
X1096101D01*
X1096100D02*
X1095883Y741231D01*
X1095258Y742314D01*
X1094300Y743118D01*
X1093125Y743545D01*
X1091875D01*
X1090700Y743118D01*
X1089742Y742314D01*
X1089117Y741231D01*
X1088900Y740000D01*
D31*
X913500Y885000D02*
D03*
X893500D02*
D03*
X918500Y747500D02*
D03*
Y767500D02*
D03*
X923500Y832500D02*
D03*
Y852500D02*
D03*
X893500Y870000D02*
D03*
X933500D02*
D03*
X876000Y767500D02*
D03*
Y747500D02*
D03*
D33*
X976000Y851500D02*
D03*
Y842500D02*
D03*
Y833500D02*
D03*
X956000D02*
D03*
Y842500D02*
D03*
Y851500D02*
D03*
X976000Y816500D02*
D03*
Y807500D02*
D03*
Y798500D02*
D03*
Y746500D02*
D03*
Y737500D02*
D03*
Y728500D02*
D03*
X956000Y798500D02*
D03*
Y807500D02*
D03*
Y816500D02*
D03*
Y728500D02*
D03*
Y737500D02*
D03*
Y746500D02*
D03*
Y763500D02*
D03*
Y772500D02*
D03*
Y781500D02*
D03*
X976000Y763500D02*
D03*
Y772500D02*
D03*
Y781500D02*
D03*
D39*
X1126000Y855000D02*
D03*
Y790000D02*
D03*
Y750000D02*
D03*
Y770000D02*
D03*
Y835000D02*
D03*
X1018500Y800000D02*
D03*
X1098500D02*
D03*
Y780000D02*
D03*
X1018500D02*
D03*
Y820000D02*
D03*
X1098500D02*
D03*
D41*
X1018500Y839000D02*
D03*
Y860000D02*
D03*
Y881000D02*
D03*
Y740000D02*
D03*
Y761000D02*
D03*
Y719000D02*
D03*
D45*
X881500Y803500D02*
D03*
Y812500D02*
D03*
X889000Y803500D02*
D03*
Y812500D02*
D03*
X872000Y824500D02*
D03*
Y833500D02*
D03*
X898500D02*
D03*
Y824500D02*
D03*
D47*
X872500Y808000D02*
D03*
X898000D02*
D03*
X881000Y829000D02*
D03*
X889500D02*
D03*
D50*
X986500Y860000D02*
D03*
X975500D02*
D03*
X946000Y845500D02*
D03*
Y834500D02*
D03*
X928000Y885000D02*
D03*
X939000D02*
D03*
X960500Y825000D02*
D03*
X971500D02*
D03*
X966000Y804500D02*
D03*
Y815500D02*
D03*
Y779500D02*
D03*
Y790500D02*
D03*
Y754500D02*
D03*
Y765500D02*
D03*
X960500Y720000D02*
D03*
X971500D02*
D03*
X966000Y729500D02*
D03*
Y740500D02*
D03*
X891000Y749500D02*
D03*
Y760500D02*
D03*
X903500Y749500D02*
D03*
Y760500D02*
D03*
X889000Y791000D02*
D03*
Y780000D02*
D03*
X863500Y799500D02*
D03*
Y810500D02*
D03*
X898000Y797500D02*
D03*
X909000D02*
D03*
X919000Y817500D02*
D03*
X908000D02*
D03*
X863500Y824500D02*
D03*
Y835500D02*
D03*
X876500Y855000D02*
D03*
X865500D02*
D03*
X885500D02*
D03*
X896500D02*
D03*
X933500Y861000D02*
D03*
Y850000D02*
D03*
X913000Y872500D02*
D03*
X924000D02*
D03*
X946000Y795500D02*
D03*
Y784500D02*
D03*
Y775500D02*
D03*
Y764500D02*
D03*
X945500Y755000D02*
D03*
X956500D02*
D03*
X975500Y790000D02*
D03*
X986500D02*
D03*
X986000Y780500D02*
D03*
Y769500D02*
D03*
Y760500D02*
D03*
X997000D02*
D03*
D53*
X1038500Y800000D02*
D03*
X1058500D02*
D03*
M02*
