*%FSLAX25Y25*%
*%MOIN*%
G01*
%ADD11C,0.00600*%
%ADD12C,0.00733*%
%ADD13C,0.00800*%
%ADD14C,0.01000*%
%ADD15C,0.01200*%
%ADD16C,0.01500*%
%ADD17C,0.02000*%
%ADD18C,0.02500*%
%ADD19C,0.03000*%
%ADD20C,0.03000*%
%ADD21O,0.03000X0.08000*%
%ADD22O,0.03800X0.08800*%
%ADD23C,0.04000*%
%ADD24C,0.04000*%
%ADD25C,0.05000*%
%ADD26C,0.06000*%
%ADD27C,0.06800*%
%ADD28C,0.07000*%
%ADD29C,0.08000*%
%ADD30C,0.08000*%
%ADD31C,0.08800*%
%ADD32O,0.09000X0.07000*%
%ADD33O,0.09800X0.07800*%
%ADD34C,0.10000*%
%ADD35C,0.10000*%
%ADD36C,0.12000*%
%ADD37C,0.12000*%
%ADD38C,0.12500*%
%ADD39C,0.12800*%
%ADD40O,0.15000X0.12000*%
%ADD41O,0.15800X0.12800*%
%ADD42C,0.16500*%
%ADD43C,0.25000*%
%ADD44R,0.04000X0.04000*%
%ADD45R,0.04800X0.04800*%
%ADD46R,0.05000X0.04000*%
%ADD47R,0.05800X0.04800*%
%ADD48R,0.06000X0.06000*%
%ADD49R,0.06000X0.10000*%
%ADD50R,0.06800X0.06800*%
%ADD51R,0.06800X0.10800*%
%ADD52R,0.08000X0.20000*%
%ADD53R,0.08800X0.20800*%
%ADD54R,0.10000X0.06000*%
%ADD55R,0.10000X0.10000*%
%ADD56R,0.10000X0.24000*%
%ADD57R,0.10800X0.06800*%
%ADD58R,0.10800X0.24800*%
%ADD59R,0.12000X0.06000*%
%ADD60R,0.12800X0.06800*%
%ADD61R,0.20000X0.20000*%
D16*
X904000Y710000D02*
X915500D01*
X986000Y769500D02*
X987000D01*
D17*
X893500Y870000D02*
Y885000D01*
X869500Y833500D02*
Y811000D01*
Y833500D02*
X876000Y840000D01*
Y848500D01*
X878000Y850500D01*
X877000Y804000D02*
X891000D01*
X877000D02*
X874500Y806500D01*
Y811000D01*
X881000Y839000D02*
Y845000D01*
Y839000D02*
X875500Y833500D01*
Y827500D01*
X879500Y818500D02*
Y811000D01*
Y818500D02*
X881000Y820000D01*
X891000Y842500D02*
Y845000D01*
X881000Y832500D02*
Y820000D01*
Y832500D02*
X891000Y842500D01*
X886500Y827500D02*
X895500D01*
X886500D02*
Y817500D01*
X895250Y808750D02*
Y800250D01*
X891000Y796000D01*
X895250Y808750D02*
X886500Y817500D01*
X921500Y815000D02*
Y814250D01*
Y815000D01*
Y814250D02*
X916250Y809000D01*
X900000Y821000D02*
X906500Y827500D01*
X900000Y821000D02*
Y817500D01*
X864500Y795500D02*
Y789000D01*
Y795500D02*
X860000Y800000D01*
Y834000D02*
X871000Y845000D01*
X860000Y834000D02*
Y800000D01*
X869500Y795000D02*
X872000Y797500D01*
X882500D01*
X885000Y795000D01*
X869500D02*
Y789000D01*
X885000Y793000D02*
Y795000D01*
Y793000D02*
X891000Y787000D01*
X915500Y722500D02*
Y710000D01*
X868500Y774000D02*
X874500Y780000D01*
Y789000D01*
X926500Y722500D02*
Y710000D01*
X986000Y780500D02*
X985000Y781500D01*
X976000D01*
X956000Y763500D02*
Y759500D01*
X960500Y755000D01*
X990000D01*
X992000Y757000D01*
X987500Y769500D02*
X986000D01*
X987500D02*
X992000Y765000D01*
Y757000D01*
X947000Y781500D02*
X946000Y780500D01*
X947000Y781500D02*
X956000D01*
X959000Y772500D02*
X966000Y779500D01*
X959000Y772500D02*
X956000D01*
X966000Y779500D02*
Y784500D01*
X979000Y760500D02*
X986000D01*
X979000D02*
X976000Y763500D01*
Y772500D02*
X973000D01*
X966000Y765500D01*
Y760500D01*
X956000Y737500D02*
X946500D01*
X966000Y736000D02*
Y749500D01*
Y736000D02*
X973500Y728500D01*
X976000D01*
X985500Y848000D02*
X988500D01*
X985500Y737500D02*
X976000D01*
X966000Y810000D02*
X959500Y816500D01*
X956000D01*
X966000Y810000D02*
Y795500D01*
X918000Y825000D02*
X910500Y817500D01*
X922500Y803000D02*
X927000Y798500D01*
X922500Y803000D02*
X921750D01*
X921500Y784000D02*
X922500D01*
X921500D02*
Y770500D01*
X922500Y784000D02*
X927000Y788500D01*
X921500Y770500D02*
X918500Y767500D01*
X927000Y788500D02*
Y798500D01*
X921500Y793500D02*
X920500D01*
X916250Y797750D02*
Y809000D01*
Y797750D02*
X921500Y792500D01*
X902000Y793500D02*
X900000Y791500D01*
X902000Y793500D02*
X910500D01*
X905500Y803000D02*
X900000Y808500D01*
X910500Y803250D02*
X910750Y803000D01*
X910500Y803250D02*
Y817500D01*
X910750Y803000D02*
X905500D01*
X868500Y744000D02*
X872500Y740000D01*
X868500Y744000D02*
Y774000D01*
X897500Y721000D02*
X903500D01*
X893500Y725000D02*
Y743000D01*
Y725000D02*
X897500Y721000D01*
X889000Y747500D02*
X876000D01*
X893500Y743000D02*
X898000Y747500D01*
X893500Y743000D02*
X889000Y747500D01*
X898000D02*
X918500D01*
X879500Y740000D02*
X872500D01*
X889000Y719500D02*
X898500Y710000D01*
X889000Y719500D02*
Y730500D01*
X879500Y740000D01*
X898500Y710000D02*
X915500D01*
X1061000Y844000D02*
Y858000D01*
Y844000D02*
X1054000D01*
X1061000D02*
X1068000D01*
X1061000D02*
Y830000D01*
X1118000Y855000D02*
X1126000D01*
Y863000D01*
Y855000D02*
Y847000D01*
Y855000D02*
X1134000D01*
X1061000Y739000D02*
Y725000D01*
X1054000D01*
X1061000D02*
X1068000D01*
X1126000Y770000D02*
Y778000D01*
Y770000D02*
Y762000D01*
Y770000D02*
X1134000D01*
X946500Y819000D02*
X940500Y825000D01*
X918000D01*
X923500Y832500D02*
X905500Y850500D01*
X878000D01*
X910500Y762000D02*
X912000Y760500D01*
X910500Y762000D02*
Y793500D01*
X913500Y885000D02*
Y891000D01*
Y885000D02*
X907500D01*
X913500D02*
X919500D01*
X913500D02*
Y879000D01*
X923500Y858500D02*
Y852500D01*
X917500D01*
X923500D02*
X929500D01*
X923500D02*
Y846500D01*
X876000Y753500D02*
Y747500D01*
X882000D01*
X918500D02*
Y753500D01*
Y747500D02*
X912500D01*
X918500D02*
X924500D01*
X903500Y721000D02*
X898500D01*
X903500D02*
Y726000D01*
D18*
X1100000Y829000D02*
X1130000D01*
X1126000Y825000D02*
X1096000D01*
X1098000Y827000D02*
X1128000D01*
X1131000Y835000D02*
X1106000D01*
X1108000Y837000D02*
X1131000D01*
Y831000D02*
X1102000D01*
X1104000Y833000D02*
X1131000D01*
X1099000Y828000D02*
Y772500D01*
X1101000D02*
Y830000D01*
X1095000Y824000D02*
Y776000D01*
X1097000Y774000D02*
Y826000D01*
X1093500Y822500D02*
X1111000Y840000D01*
X1107000Y836000D02*
Y772500D01*
X1103000D02*
Y832000D01*
X1105000Y834000D02*
Y772500D01*
X1123000Y822000D02*
Y840000D01*
X1125000D02*
Y824000D01*
X1128500Y840000D02*
X1111000D01*
X1127000D02*
Y826000D01*
X1131000Y837500D02*
X1128500Y840000D01*
X1129000Y839500D02*
Y828000D01*
X1129500Y839000D02*
X1110000D01*
X1131000Y837500D02*
Y830000D01*
X1111000Y840000D02*
Y810000D01*
X1113000Y812000D02*
Y840000D01*
X1109000Y838000D02*
Y772500D01*
X1115000Y814000D02*
Y840000D01*
X1117000D02*
Y816000D01*
X1119000Y818000D02*
Y840000D01*
X1131000Y830000D02*
X1111000Y810000D01*
X1121000Y820000D02*
Y840000D01*
X1114000Y813000D02*
X1093500D01*
Y811000D02*
X1112000D01*
X1111000Y809000D02*
X1093500D01*
Y821000D02*
X1122000D01*
X1120000Y819000D02*
X1093500D01*
Y817000D02*
X1118000D01*
X1116000Y815000D02*
X1093500D01*
Y822500D02*
Y777500D01*
Y807000D02*
X1111000D01*
Y805000D02*
X1093500D01*
Y803000D02*
X1111000D01*
Y801000D02*
X1093500D01*
Y799000D02*
X1111000D01*
Y797000D02*
X1093500D01*
Y795000D02*
X1111000D01*
Y793000D02*
X1093500D01*
Y791000D02*
X1111000D01*
Y789000D02*
X1093500D01*
Y787000D02*
X1111000D01*
Y785000D02*
X1093500D01*
X1094000Y823000D02*
X1124000D01*
X1111000Y783000D02*
X1093500D01*
Y781000D02*
X1111000D01*
Y779000D02*
X1093500D01*
Y777500D02*
X1098500Y772500D01*
X1094000Y777000D02*
X1111000D01*
Y775000D02*
X1096000D01*
X1111000Y772500D02*
Y810000D01*
Y772500D01*
Y773000D02*
X1098000D01*
X1098500Y772500D02*
X1111000D01*
D20*
X993000Y749500D02*
X986000D01*
X946000Y751000D02*
X941000Y746000D01*
X946000Y751000D02*
Y769500D01*
X944500D01*
X938500Y775500D01*
Y795000D01*
X1103500Y780000D02*
X1113500Y770000D01*
X956000Y833500D02*
X949500D01*
X946000Y837000D01*
X943500D01*
X976000Y851500D02*
X982000D01*
X985500Y848000D01*
X956000Y807500D02*
X946500D01*
X976000D02*
X985500D01*
X951000Y842500D02*
X945500Y848000D01*
X943500D01*
X960000Y842500D02*
X963500Y846000D01*
Y859500D02*
X956000Y867000D01*
Y877500D01*
X960000Y842500D02*
X951000D01*
X981000D02*
X986500Y837000D01*
X972000Y842500D02*
X968500Y846000D01*
X976000Y867000D02*
Y877500D01*
Y867000D02*
X968500Y859500D01*
X972000Y842500D02*
X981000D01*
X1018500Y881000D02*
X1014000Y885500D01*
X1006000Y874500D02*
Y865500D01*
Y854500D02*
X1013000D01*
X1018500Y860000D01*
X1044000Y865000D02*
Y877500D01*
X968500Y859500D02*
Y846000D01*
X963500D02*
Y859500D01*
X960000Y842500D02*
X966000Y836500D01*
Y830500D01*
X971500Y825000D01*
X976000Y877500D02*
X966000D01*
X996000Y885500D02*
X1014000D01*
X941000Y746000D02*
Y724000D01*
X992000Y816500D02*
X983500Y825000D01*
X992000Y816500D02*
X999000D01*
X983500Y825000D02*
X971500D01*
X999000Y816500D02*
X1006000Y809500D01*
X928000Y708500D02*
X1099500D01*
X928000D02*
X926500Y710000D01*
X1099500Y708500D02*
X1113500Y722500D01*
Y770000D01*
X1006000Y788000D02*
Y809500D01*
X992000Y837000D02*
X988500D01*
X996000Y859500D02*
Y874500D01*
Y859500D02*
X997500Y858000D01*
Y842500D02*
X992000Y837000D01*
X997500Y842500D02*
Y858000D01*
X1018500Y890500D02*
Y893000D01*
X1019000D02*
Y890500D01*
X1021000Y890447D02*
Y893000D01*
X1020000Y890500D02*
X1018500D01*
X1023000Y890014D02*
Y893000D01*
X1025000D02*
Y889078D01*
X1027000Y887423D02*
Y893000D01*
X1027746Y886500D02*
X1029500D01*
X1029000D02*
Y893000D01*
X1031000D02*
Y886292D01*
X1033000Y885243D02*
Y893000D01*
X1035000D02*
Y884000D01*
X1034278D02*
X1033389Y884889D01*
X1037000Y884000D02*
Y893000D01*
X1037500Y884000D02*
X1034278D01*
X1039000D02*
Y893000D01*
X1039500Y884000D02*
X1037500D01*
X1039500D01*
X1018500Y893000D02*
X1141500D01*
X1018500D01*
Y891000D02*
X1141500D01*
Y889000D02*
X1025124D01*
X1041000Y893000D02*
Y884000D01*
X1043000D02*
Y893000D01*
X1045000D02*
Y884000D01*
X1027366Y887000D02*
X1141500D01*
X1047000Y884000D02*
Y893000D01*
X1049000D02*
Y884000D01*
X1053000Y893000D02*
Y859500D01*
X1055000D02*
Y893000D01*
X1057000D02*
Y859500D01*
X1059000D02*
Y893000D01*
X1061000D02*
Y859500D01*
X1063000D02*
Y893000D01*
X1065000D02*
Y859500D01*
X1067000D02*
Y893000D01*
X1069000D02*
Y859500D01*
X1050500Y884000D02*
X1039500D01*
X1050500Y879000D02*
X1086255D01*
X1033275Y885000D02*
X1141500D01*
Y883000D02*
X1050500D01*
Y881000D02*
X1141500D01*
X1050500Y884000D02*
Y873500D01*
Y871000D01*
Y877000D02*
X1081964D01*
X1079271Y875000D02*
X1050500D01*
Y873500D02*
Y871000D01*
Y867000D02*
X1073765D01*
X1073135Y865000D02*
X1050500D01*
Y873000D02*
X1077301D01*
X1075797Y871000D02*
X1050500D01*
Y869000D02*
X1074639D01*
X1069500Y859500D02*
X1052500D01*
Y859000D02*
X1050500D01*
Y863000D02*
X1072726D01*
X1072525Y861000D02*
X1050500D01*
X1069500Y859000D02*
X1072525D01*
X1043500Y856500D02*
Y842500D01*
Y828500D01*
X1045000Y856500D02*
Y767500D01*
X1047000Y713500D02*
Y856500D01*
X1049000D02*
Y713500D01*
X1020000Y829500D02*
X1018500D01*
X1021000Y829553D02*
Y829165D01*
X1025124Y831000D02*
X1026500D01*
Y831500D02*
X1025831D01*
X1025000Y830922D02*
Y826928D01*
X1023000Y828367D02*
Y829986D01*
X1026500Y828500D02*
Y831500D01*
Y829000D02*
X1021541D01*
X1027000Y828500D02*
Y824243D01*
X1029000Y828500D02*
Y767500D01*
X1031000D02*
Y828500D01*
X1026500D02*
X1043500D01*
X1033000D02*
Y767500D01*
X1035000D02*
Y828500D01*
X1037000D02*
Y767500D01*
X1039000D02*
Y828500D01*
X1041000D02*
Y767500D01*
X1043000D02*
Y828500D01*
X1043500Y856500D02*
X1050500D01*
X1052500Y855000D02*
X1043500D01*
Y853000D02*
X1052500D01*
Y851000D02*
X1043500D01*
Y849000D02*
X1052500D01*
Y847000D02*
X1043500D01*
Y845000D02*
X1052500D01*
Y843000D02*
X1043500D01*
Y841000D02*
X1052500D01*
X1050500Y856500D02*
Y871000D01*
Y857000D02*
X1052500D01*
X1051000Y893000D02*
Y713500D01*
X1052500Y839000D02*
X1043500D01*
X1052500Y828500D02*
Y859500D01*
X1069500D02*
Y828500D01*
X1052500Y837000D02*
X1043500D01*
Y835000D02*
X1052500D01*
Y833000D02*
X1043500D01*
Y831000D02*
X1052500D01*
Y829000D02*
X1043500D01*
X1027514Y823000D02*
X1088776D01*
X1088750Y821000D02*
X1027947D01*
X1024923Y827000D02*
X1091283D01*
X1089461Y825000D02*
X1026578D01*
X1027947Y819000D02*
X1088750D01*
X1053000Y828500D02*
Y740500D01*
X1055000D02*
Y828500D01*
X1057000D02*
Y740500D01*
X1052500Y828500D02*
X1069500D01*
X1059000D02*
Y740500D01*
X1061000D02*
Y828500D01*
X1063000D02*
Y740500D01*
X1065000D02*
Y828500D01*
X1067000D02*
Y740500D01*
X1069000D02*
Y828500D01*
X1083000Y877600D02*
Y893000D01*
X1085000D02*
Y878541D01*
X1087000Y879229D02*
Y893000D01*
X1089000D02*
Y879691D01*
X1073000Y893000D02*
Y864444D01*
X1075000Y869683D02*
Y893000D01*
X1077000D02*
Y872639D01*
X1079000Y874756D02*
Y893000D01*
X1081000D02*
Y876363D01*
X1091000Y879944D02*
Y893000D01*
X1093000D02*
Y879994D01*
X1095000Y879843D02*
Y893000D01*
X1097000D02*
Y879487D01*
X1099000Y878914D02*
Y893000D01*
X1101000D02*
Y878104D01*
X1103000Y877022D02*
Y893000D01*
X1105000D02*
Y875612D01*
X1107000Y873775D02*
Y893000D01*
X1109000D02*
Y871303D01*
X1072726Y857000D02*
X1069500D01*
Y855000D02*
X1073135D01*
X1111000Y867599D02*
Y893000D01*
X1073765Y853000D02*
X1069500D01*
Y851000D02*
X1074639D01*
X1075797Y849000D02*
X1069500D01*
Y847000D02*
X1077301D01*
X1110361Y851000D02*
X1117383D01*
X1079271Y845000D02*
X1069500D01*
X1109203Y849000D02*
X1118634D01*
X1116713Y857000D02*
X1112274D01*
X1111865Y855000D02*
X1116500D01*
X1117000Y858041D02*
Y893000D01*
X1118634Y861000D02*
X1112475D01*
Y859000D02*
X1117383D01*
X1113000Y844750D02*
Y893000D01*
X1111000Y852401D02*
Y844750D01*
X1115000D02*
Y893000D01*
X1116713Y853000D02*
X1111235D01*
X1117000Y851959D02*
Y844750D01*
X1098745Y879000D02*
X1141500D01*
Y877000D02*
X1103036D01*
X1105729Y875000D02*
X1141500D01*
Y873000D02*
X1107699D01*
X1109203Y871000D02*
X1141500D01*
X1120876Y863000D02*
X1112274D01*
X1110361Y869000D02*
X1141500D01*
Y867000D02*
X1111235D01*
X1111865Y865000D02*
X1141500D01*
X1121000Y863078D02*
Y893000D01*
X1123000D02*
Y864014D01*
X1125000Y864447D02*
Y893000D01*
X1127000D02*
Y864447D01*
X1129000Y864014D02*
Y893000D01*
X1119000D02*
Y861423D01*
X1131000Y863078D02*
Y893000D01*
X1133000D02*
Y861423D01*
X1135000Y858041D02*
Y893000D01*
X1120876Y847000D02*
X1107699D01*
X1105729Y845000D02*
X1141500D01*
X1119000Y844750D02*
Y848577D01*
X1121000Y846922D02*
Y844750D01*
X1123000D02*
Y845986D01*
X1128500Y844750D02*
X1111000D01*
X1125000D02*
Y845553D01*
X1131124Y863000D02*
X1141500D01*
Y861000D02*
X1133366D01*
X1134617Y859000D02*
X1141500D01*
Y857000D02*
X1135287D01*
X1135500Y855000D02*
X1141500D01*
Y853000D02*
X1135287D01*
X1134617Y851000D02*
X1141500D01*
Y847000D02*
X1131124D01*
X1133366Y849000D02*
X1141500D01*
X1081000Y843637D02*
Y756363D01*
X1081964Y843000D02*
X1069500D01*
X1083000Y842400D02*
Y757600D01*
X1071000Y713500D02*
Y893000D01*
X1073000Y855556D02*
Y744444D01*
X1075000Y749682D02*
Y850317D01*
X1077000Y847361D02*
Y752639D01*
X1079000Y754756D02*
Y845244D01*
X1107000Y846225D02*
Y842717D01*
X1107283Y843000D02*
X1103036D01*
X1109000Y844308D02*
Y848697D01*
X1101000Y841896D02*
Y836717D01*
X1085000Y841459D02*
Y758540D01*
X1105000Y840717D02*
Y844388D01*
X1107641Y843359D02*
X1090141Y825859D01*
X1103000Y838717D02*
Y842978D01*
X1086255Y841000D02*
X1069500D01*
Y833000D02*
X1097283D01*
X1103283Y839000D02*
X1069500D01*
Y837000D02*
X1101283D01*
X1099283Y835000D02*
X1069500D01*
X1087000Y840771D02*
Y759229D01*
X1095283Y831000D02*
X1069500D01*
Y829000D02*
X1093283D01*
X1095000Y830717D02*
Y840157D01*
X1093000Y840006D02*
Y828717D01*
X1099000Y834717D02*
Y841086D01*
X1097000Y840513D02*
Y832717D01*
X1098745Y841000D02*
X1105283D01*
X1089000Y840309D02*
Y824021D01*
X1088750Y822500D02*
Y777500D01*
X1091000Y826717D02*
Y840056D01*
X1129000Y844724D02*
Y845986D01*
X1127000Y845553D02*
Y844750D01*
X1131000Y844039D02*
Y846922D01*
X1133000Y848577D02*
Y842217D01*
X1131859Y843359D02*
X1134359Y840859D01*
X1132217Y843000D02*
X1141500D01*
Y841000D02*
X1134217D01*
X1135000Y840062D02*
Y851959D01*
X1135507Y839000D02*
X1141500D01*
X1135750Y837500D02*
Y836920D01*
Y837000D02*
X1141500D01*
X1137000Y893000D02*
Y707000D01*
X1139000D02*
Y893000D01*
X1141000D02*
Y707000D01*
X1141500D02*
Y893000D01*
X1134359Y826641D02*
X1115750Y808032D01*
X1130717Y823000D02*
X1141500D01*
Y821000D02*
X1128717D01*
X1124717Y817000D02*
X1141500D01*
Y819000D02*
X1126717D01*
X1127000Y819283D02*
Y799447D01*
X1125000D02*
Y817282D01*
X1133000Y825283D02*
Y796423D01*
X1129000Y799014D02*
Y821283D01*
X1131000Y823283D02*
Y798078D01*
X1136000Y835000D02*
X1141500D01*
X1135750Y833080D02*
Y830000D01*
Y833000D02*
X1141500D01*
Y831000D02*
X1135750D01*
X1135643Y829000D02*
X1141500D01*
X1135000Y827438D02*
Y793041D01*
X1132717Y825000D02*
X1141500D01*
Y827000D02*
X1134683D01*
X1018500Y810500D02*
Y809500D01*
X1019000Y809487D02*
Y810513D01*
X1021000Y810835D02*
Y809165D01*
X1018500Y790500D02*
Y789500D01*
X1019000Y789487D02*
Y790513D01*
X1021000Y790835D02*
Y789165D01*
X1020000Y770500D02*
X1018500D01*
X1023000Y808367D02*
Y811633D01*
Y791633D02*
Y788367D01*
X1027000Y804243D02*
Y815757D01*
X1025000Y813072D02*
Y806928D01*
Y793072D02*
Y786928D01*
X1023000Y771633D02*
Y770014D01*
X1021000Y770447D02*
Y770835D01*
X1027000Y784243D02*
Y795757D01*
X1025000Y773072D02*
Y769078D01*
X1027000Y767500D02*
Y775757D01*
X1020000Y751500D02*
X1018500D01*
X1026928Y767500D02*
X1045500D01*
Y754500D02*
X1026928D01*
X1018500Y751500D02*
Y749500D01*
X1020000D01*
X1027000Y750500D02*
Y754500D01*
X1018500Y751000D02*
X1075797D01*
X1045500Y750500D02*
X1026500D01*
X1029000D02*
Y754500D01*
X1031000D02*
Y750500D01*
X1045500Y754500D02*
Y767500D01*
X1033000Y754500D02*
Y750500D01*
X1035000D02*
Y754500D01*
X1037000D02*
Y750500D01*
X1039000D02*
Y754500D01*
X1041000D02*
Y750500D01*
X1043000D02*
Y754500D01*
X1045000D02*
Y750500D01*
X1026578Y815000D02*
X1088750D01*
Y813000D02*
X1024923D01*
X1021541Y811000D02*
X1088750D01*
Y809000D02*
X1021541D01*
X1024923Y807000D02*
X1088750D01*
Y793000D02*
X1024923D01*
X1021541Y791000D02*
X1088750D01*
Y789000D02*
X1021541D01*
X1024923Y787000D02*
X1088750D01*
Y817000D02*
X1027514D01*
X1026578Y805000D02*
X1088750D01*
Y803000D02*
X1027514D01*
X1027947Y801000D02*
X1088750D01*
Y799000D02*
X1027947D01*
X1027514Y797000D02*
X1088750D01*
Y795000D02*
X1026578D01*
Y785000D02*
X1088750D01*
Y783000D02*
X1027514D01*
X1027947Y781000D02*
X1088750D01*
Y779000D02*
X1027947D01*
X1027514Y777000D02*
X1088776D01*
X1089461Y775000D02*
X1026578D01*
X1021541Y771000D02*
X1093283D01*
X1091283Y773000D02*
X1024923D01*
X1025124Y769000D02*
X1095289D01*
X1077301Y753000D02*
X1025124D01*
X1045500Y767000D02*
X1108500D01*
Y765000D02*
X1045500D01*
Y763000D02*
X1108500D01*
X1095141Y769141D02*
X1090141Y774141D01*
X1108500Y761000D02*
X1045500D01*
X1091000Y759944D02*
Y773282D01*
X1081964Y757000D02*
X1045500D01*
Y755000D02*
X1079271D01*
X1089000Y759691D02*
Y775979D01*
X1086255Y759000D02*
X1045500D01*
X1093000Y759994D02*
Y771282D01*
X1021000Y751553D02*
Y749447D01*
X1019000Y749500D02*
Y751500D01*
X1023000Y751986D02*
Y749500D01*
X1025000D02*
Y752922D01*
X1026500Y749500D02*
X1022500D01*
X1026500D02*
Y750500D01*
X1043500Y737500D02*
X1045500D01*
Y750500D01*
X1043500Y737000D02*
X1052500D01*
Y739000D02*
X1045500D01*
X1043500Y737500D02*
Y722500D01*
X1045000Y713500D02*
Y737500D01*
X1043500Y735000D02*
X1052500D01*
Y733000D02*
X1043500D01*
Y731000D02*
X1052500D01*
Y729000D02*
X1043500D01*
Y727000D02*
X1052500D01*
Y725000D02*
X1043500D01*
Y722500D02*
Y713500D01*
Y723000D02*
X1052500D01*
Y721000D02*
X1043500D01*
Y719000D02*
X1052500D01*
X1045500Y743000D02*
X1072726D01*
X1072525Y741000D02*
X1045500D01*
Y749000D02*
X1074639D01*
X1073765Y747000D02*
X1045500D01*
Y745000D02*
X1073135D01*
X1052500Y740500D02*
Y713500D01*
Y740500D02*
X1069500D01*
Y713500D01*
Y739000D02*
X1072525D01*
X1072726Y737000D02*
X1069500D01*
Y735000D02*
X1073135D01*
X1073765Y733000D02*
X1069500D01*
Y731000D02*
X1074639D01*
X1075797Y729000D02*
X1069500D01*
X1073000Y735556D02*
Y713500D01*
X1075000D02*
Y730318D01*
X1077000Y727361D02*
Y713500D01*
X1077301Y727000D02*
X1069500D01*
Y725000D02*
X1079271D01*
X1081964Y723000D02*
X1069500D01*
X1052500Y717000D02*
X1043500D01*
Y715000D02*
X1052500D01*
X1069500Y721000D02*
X1086255D01*
X1052500Y713500D02*
X1043500D01*
X1069500Y719000D02*
X1102929D01*
X1079000Y713500D02*
Y725244D01*
X1081000Y723637D02*
Y713500D01*
X1069500Y717000D02*
X1100929D01*
X1098929Y715000D02*
X1069500D01*
Y713500D02*
X1097429D01*
X1083000D02*
Y722400D01*
X1085000Y721460D02*
Y713500D01*
X1087000D02*
Y720771D01*
X1089000Y720309D02*
Y713500D01*
X1091000D02*
Y720056D01*
X1115750Y795000D02*
X1117922D01*
X1116986Y793000D02*
X1115750D01*
Y799000D02*
X1122959D01*
X1119577Y797000D02*
X1115750D01*
Y808032D02*
Y774821D01*
Y791000D02*
X1116553D01*
Y789000D02*
X1115750D01*
Y787000D02*
X1116986D01*
X1117922Y785000D02*
X1115750D01*
X1119000Y796423D02*
Y811282D01*
X1117000Y809282D02*
Y793041D01*
X1123000Y799014D02*
Y815282D01*
X1119577Y783000D02*
X1115750D01*
X1121000Y798078D02*
Y813282D01*
X1117000Y786959D02*
Y773571D01*
X1119000Y776423D02*
Y783577D01*
X1121000Y781922D02*
Y778078D01*
X1122959Y781000D02*
X1115750D01*
X1123000Y780986D02*
Y779014D01*
X1122959Y779000D02*
X1115750D01*
Y777000D02*
X1119577D01*
X1117030Y773541D02*
X1115750Y774821D01*
X1095000Y769282D02*
Y759843D01*
X1097000Y759487D02*
Y767993D01*
X1099000Y767750D02*
Y758914D01*
X1098500Y767750D02*
X1108500D01*
Y759000D02*
X1098745D01*
X1115750Y775000D02*
X1117922D01*
X1118500Y763000D02*
X1119577D01*
X1125000Y779447D02*
Y780553D01*
X1122959Y761000D02*
X1118500D01*
Y759000D02*
X1122959D01*
X1123000Y759014D02*
Y760986D01*
X1125000Y760553D02*
Y759447D01*
X1122717Y815000D02*
X1141500D01*
Y813000D02*
X1120717D01*
X1118717Y811000D02*
X1141500D01*
Y809000D02*
X1116717D01*
X1115750Y807000D02*
X1141500D01*
Y805000D02*
X1115750D01*
Y803000D02*
X1141500D01*
Y801000D02*
X1115750D01*
X1129041Y799000D02*
X1141500D01*
Y797000D02*
X1132423D01*
X1134078Y795000D02*
X1141500D01*
Y793000D02*
X1135014D01*
X1135447Y791000D02*
X1141500D01*
X1135000Y786959D02*
Y773041D01*
X1133000Y776423D02*
Y783577D01*
X1135447Y789000D02*
X1141500D01*
Y785000D02*
X1134078D01*
X1135014Y787000D02*
X1141500D01*
X1129000Y780986D02*
Y779014D01*
X1127000Y779447D02*
Y780553D01*
X1129041Y781000D02*
X1141500D01*
Y779000D02*
X1129041D01*
X1129000Y760986D02*
Y759014D01*
X1127000Y759447D02*
Y760553D01*
X1129041Y761000D02*
X1141500D01*
Y759000D02*
X1129041D01*
X1132423Y783000D02*
X1141500D01*
X1131000Y781922D02*
Y778078D01*
X1132423Y777000D02*
X1141500D01*
Y775000D02*
X1134078D01*
X1135014Y773000D02*
X1141500D01*
Y771000D02*
X1135447D01*
Y769000D02*
X1141500D01*
Y767000D02*
X1135014D01*
X1132423Y763000D02*
X1141500D01*
Y765000D02*
X1134078D01*
X1101000Y767750D02*
Y758104D01*
X1103000Y757022D02*
Y767750D01*
X1105000D02*
Y755612D01*
X1103036Y757000D02*
X1108500D01*
X1107000Y753775D02*
Y767750D01*
Y726225D02*
Y723071D01*
X1105729Y755000D02*
X1108500D01*
Y753000D02*
X1107699D01*
Y727000D02*
X1108500D01*
Y752000D02*
Y767750D01*
X1118500Y764169D02*
Y755831D01*
X1119000Y756423D02*
Y763577D01*
X1118500Y757000D02*
X1119577D01*
X1121000Y758078D02*
Y761922D01*
X1118500Y744169D02*
Y722500D01*
X1108500Y724571D02*
Y728000D01*
X1119000Y743577D02*
Y707000D01*
X1118500Y743000D02*
X1119577D01*
X1121000Y741922D02*
Y707000D01*
X1103000Y719071D02*
Y722978D01*
X1101000Y721896D02*
Y717071D01*
X1105000Y721071D02*
Y724388D01*
X1104929Y721000D02*
X1098745D01*
X1103036Y723000D02*
X1106929D01*
X1095000Y720157D02*
Y713500D01*
X1093000D02*
Y720006D01*
X1097429Y713500D02*
X1108500Y724571D01*
X1097000Y720513D02*
Y713500D01*
X1099000Y715071D02*
Y721086D01*
X1105729Y725000D02*
X1108500D01*
X1107000Y708929D02*
Y707000D01*
X1105071D02*
X1117030Y718959D01*
X1111000Y712929D02*
Y707000D01*
X1109000D02*
Y710929D01*
X1117000Y707000D02*
Y718929D01*
X1113000Y714929D02*
Y707000D01*
X1115000D02*
Y716929D01*
X1131000Y758078D02*
Y761922D01*
X1122959Y741000D02*
X1118500D01*
X1132423Y757000D02*
X1141500D01*
Y741000D02*
X1129041D01*
X1132423Y743000D02*
X1141500D01*
X1123000Y740986D02*
Y707000D01*
X1129000D02*
Y740986D01*
X1131000Y741922D02*
Y707000D01*
X1135000Y753041D02*
Y766959D01*
X1133000Y763577D02*
Y756423D01*
X1134078Y755000D02*
X1141500D01*
Y753000D02*
X1135014D01*
X1135447Y751000D02*
X1141500D01*
X1135000Y746959D02*
Y707000D01*
X1133000D02*
Y743577D01*
X1135447Y749000D02*
X1141500D01*
Y745000D02*
X1134078D01*
X1135014Y747000D02*
X1141500D01*
Y739000D02*
X1118500D01*
X1118270Y721000D02*
X1141500D01*
Y719000D02*
X1117071D01*
X1113071Y715000D02*
X1141500D01*
Y717000D02*
X1115071D01*
X1111071Y713000D02*
X1141500D01*
Y711000D02*
X1109071D01*
X1107071Y709000D02*
X1141500D01*
Y707000D02*
X1105071D01*
X1141500D01*
Y737000D02*
X1118500D01*
Y735000D02*
X1141500D01*
Y733000D02*
X1118500D01*
Y731000D02*
X1141500D01*
Y729000D02*
X1118500D01*
X1125000Y740553D02*
Y707000D01*
X1127000D02*
Y740553D01*
X1118500Y727000D02*
X1141500D01*
Y725000D02*
X1118500D01*
Y723000D02*
X1141500D01*
X885000Y891303D02*
Y893000D01*
X886361Y889000D02*
X887156D01*
X887000Y888742D02*
Y893000D01*
X889000D02*
Y891000D01*
X891000Y892071D02*
Y893000D01*
X889000Y891000D02*
X885203D01*
X893000Y892483D02*
Y893000D01*
X895000D02*
Y892349D01*
X897000Y893000D02*
Y891633D01*
X899000Y893000D02*
Y890099D01*
X901000Y893000D02*
Y885000D01*
X907000Y888742D02*
Y893000D01*
X907156Y889000D02*
X899844D01*
X900728Y887000D02*
X906272D01*
X899000Y879901D02*
Y875099D01*
X901000Y870000D02*
Y885000D01*
X898000Y879000D02*
Y876000D01*
X903000Y893000D02*
Y855000D01*
X905000D02*
Y893000D01*
X906272Y883000D02*
X900728D01*
X901000Y885000D02*
X906000D01*
X901000Y870000D02*
Y855000D01*
X857964Y863000D02*
X855500D01*
Y861000D02*
X862255D01*
X875000Y861086D02*
Y853854D01*
X878000Y855000D02*
X855500D01*
X877000Y854888D02*
Y861896D01*
X867000Y860056D02*
Y850124D01*
X869000Y851185D02*
Y860006D01*
X868500Y851000D02*
X855500D01*
X871000Y851500D02*
Y860157D01*
X873000Y860513D02*
Y851864D01*
X872820Y851684D02*
X874816Y853680D01*
X874136Y853000D02*
X855500D01*
X883699Y867000D02*
X886626D01*
X886067Y869000D02*
X885203D01*
X879000Y862978D02*
Y855000D01*
X881000D02*
Y864388D01*
X879036Y863000D02*
X890807D01*
X887910Y865000D02*
X881729D01*
X878000Y855000D02*
X905500D01*
X878000D01*
X883000D02*
Y866225D01*
X885000Y868697D02*
Y855000D01*
X887000D02*
Y866258D01*
X889000Y864000D02*
Y855000D01*
X897000D02*
Y863367D01*
X899000Y864901D02*
Y855000D01*
X891000D02*
Y862929D01*
X893000Y862517D02*
Y855000D01*
X895000D02*
Y862651D01*
X909000Y891000D02*
Y893000D01*
X911000D02*
Y892071D01*
X909000Y891000D02*
X898000D01*
X913000Y892483D02*
Y893000D01*
X915000D02*
Y892349D01*
X917000Y893000D02*
Y891633D01*
X883699Y893000D02*
X1013500D01*
X883699D01*
X899844Y881000D02*
X907156D01*
X907000Y881258D02*
Y854743D01*
X909000Y879000D02*
X898000D01*
X909000D02*
Y853364D01*
X919000Y890099D02*
Y893000D01*
X921000D02*
Y885000D01*
X919844Y881000D02*
X950523D01*
X952536Y883000D02*
X920728D01*
X918000Y891000D02*
X989500D01*
Y889000D02*
X919844D01*
X920728Y887000D02*
X989500D01*
Y885000D02*
X921000D01*
X923000Y893000D02*
Y859983D01*
X925000Y859849D02*
Y893000D01*
X919000Y879901D02*
Y858500D01*
X921000Y859571D02*
Y885000D01*
X927000Y893000D02*
Y873742D01*
X929000Y876000D02*
Y893000D01*
X931000D02*
Y877071D01*
X933000Y877483D02*
Y893000D01*
X935000D02*
Y877349D01*
X926626Y873000D02*
X900374D01*
X900933Y871000D02*
X926067D01*
X926626Y867000D02*
X900374D01*
X900933Y869000D02*
X926067D01*
X930807Y877000D02*
X898000D01*
X899090Y875000D02*
X927910D01*
X930807Y863000D02*
X896193D01*
X899090Y865000D02*
X927910D01*
X911000Y877929D02*
Y851364D01*
X909364Y853000D02*
X916017D01*
X919758Y859000D02*
X855500D01*
X874745Y861000D02*
X954000D01*
X917500Y857000D02*
X855500D01*
X905500Y855000D02*
X916429D01*
X916151Y851000D02*
X911364D01*
X917000Y856242D02*
Y878367D01*
X927000Y866258D02*
Y859133D01*
X929000Y857599D02*
Y864000D01*
X918000Y879000D02*
X949675D01*
X949519Y877000D02*
X936193D01*
X927242Y859000D02*
X954000D01*
X952929Y863000D02*
X936193D01*
X929500Y857000D02*
X950670D01*
X931000Y852500D02*
Y862929D01*
X930571Y855000D02*
X948938D01*
X935000Y854500D02*
Y862651D01*
Y853000D02*
X930983D01*
X935000Y854500D02*
X948675D01*
X935000Y851000D02*
X930849D01*
X859000Y862400D02*
Y839364D01*
X861000Y841364D02*
Y861459D01*
X862636Y843000D02*
X855500D01*
Y841000D02*
X860636D01*
X855500Y849000D02*
X865876D01*
X863000Y843364D02*
Y860771D01*
X864815Y847000D02*
X855500D01*
Y845000D02*
X864500D01*
X855500Y834000D02*
Y864801D01*
Y837000D02*
X856646D01*
X855500Y834000D02*
Y800000D01*
Y834000D01*
X856820Y837184D02*
X864501Y844865D01*
X857000Y837364D02*
Y863637D01*
X855500Y839000D02*
X858636D01*
X865000Y847500D02*
Y860309D01*
X913000Y849364D02*
Y877517D01*
X915000Y877651D02*
Y847364D01*
X913364Y849000D02*
X916867D01*
X917000Y848758D02*
Y845364D01*
X918401Y847000D02*
X915364D01*
X917364Y845000D02*
X923500D01*
X922439Y839925D02*
X908684Y853680D01*
X919000Y846500D02*
Y843364D01*
X919364Y843000D02*
X935000D01*
Y849000D02*
X930133D01*
X921000Y845429D02*
Y841364D01*
X928599Y847000D02*
X935000D01*
Y845000D02*
X923500D01*
X935000Y843500D02*
Y854500D01*
Y843500D02*
Y841500D01*
Y843500D01*
X927000Y845867D02*
Y839133D01*
X929000Y837599D02*
Y847401D01*
X923000Y845017D02*
Y839983D01*
X925000Y839849D02*
Y845151D01*
X933000Y829500D02*
Y862517D01*
X935000Y854500D02*
Y830500D01*
Y841000D02*
X921364D01*
X931000Y832500D02*
Y852500D01*
X935000Y841500D02*
Y830500D01*
Y839000D02*
X927242D01*
X929500Y837000D02*
X935000D01*
X931000Y832500D02*
Y829500D01*
X930571Y835000D02*
X935000D01*
Y833000D02*
X930983D01*
X930374Y829500D02*
X940500D01*
X935000Y831000D02*
X930849D01*
X935000Y830500D02*
X945429D01*
X935000D02*
Y829500D01*
X937000Y876633D02*
Y893000D01*
X939000D02*
Y875099D01*
X951000Y881653D02*
Y893000D01*
X953000D02*
Y883266D01*
X955000Y883923D02*
Y893000D01*
X957000D02*
Y883923D01*
X959000Y883266D02*
Y893000D01*
X959464Y883000D02*
X962536D01*
X941000Y893000D02*
Y870000D01*
X943000Y854500D02*
Y893000D01*
X945000D02*
Y854500D01*
X947000D02*
Y893000D01*
X949000D02*
Y855106D01*
X950000Y875000D02*
X939090D01*
X951000Y873347D02*
Y867000D01*
Y873347D01*
X963000Y883266D02*
Y893000D01*
X965000D02*
Y883923D01*
X967000D02*
Y893000D01*
X969000D02*
Y883266D01*
X973000D02*
Y893000D01*
X975000D02*
Y883923D01*
X977000D02*
Y893000D01*
X979000D02*
Y883266D01*
X961000Y881653D02*
Y893000D01*
X971000D02*
Y882500D01*
X981000Y881653D02*
Y893000D01*
X972536Y883000D02*
X969464D01*
X970153Y882500D02*
X971847D01*
X981000Y873347D02*
Y867000D01*
X951000Y873000D02*
X940374D01*
X940933Y871000D02*
X951000D01*
Y867000D02*
X940374D01*
X940933Y869000D02*
X951000D01*
X951417Y865000D02*
X939090D01*
X941000Y870000D02*
Y854500D01*
X951000Y857245D02*
Y867000D01*
X937000Y863367D02*
Y854500D01*
X939000D02*
Y864901D01*
X952470Y863459D02*
X954000Y861929D01*
Y858428D01*
X953000Y858208D02*
Y862929D01*
X981000Y867000D02*
Y873347D01*
X979530Y863459D02*
X978000Y861929D01*
Y858428D01*
X979000Y858208D02*
Y862929D01*
X979464Y883000D02*
X989500D01*
Y881000D02*
Y892000D01*
Y881000D02*
X981477D01*
X982325Y879000D02*
X989500D01*
X991000Y892000D02*
Y893000D01*
X993000D02*
Y892000D01*
X989500D02*
X999500D01*
X989500Y881000D02*
Y879000D01*
X983000Y893000D02*
Y856399D01*
X985000Y855500D02*
Y893000D01*
X987000D02*
Y854500D01*
X989000D02*
Y893000D01*
X989500Y881000D02*
Y879000D01*
Y875000D02*
X982000D01*
X982481Y877000D02*
X989500D01*
Y879000D02*
Y868000D01*
X995000Y892000D02*
Y893000D01*
X997000D02*
Y892000D01*
X999000D02*
Y893000D01*
X1001000D02*
Y892000D01*
X999500D02*
X1002500D01*
X1003000D02*
Y893000D01*
X1002500Y892000D02*
X999500D01*
X1002500D02*
X1012500D01*
X1005000D02*
Y893000D01*
X1007000D02*
Y892000D01*
X1009000D02*
Y893000D01*
X1011000D02*
Y892000D01*
X1013000Y893000D02*
Y890500D01*
X1013500D02*
Y893000D01*
X1012500Y892000D02*
Y890500D01*
Y891000D02*
X1013500D01*
Y890500D02*
X1012500D01*
X989500Y873000D02*
X981000D01*
Y871000D02*
X989500D01*
Y869000D02*
X981000D01*
X980583Y865000D02*
X991000D01*
Y867000D02*
X981000D01*
X978000Y861000D02*
X991000D01*
Y863000D02*
X979071D01*
X981000Y867000D02*
Y857245D01*
X978000Y859000D02*
X991025D01*
X991670Y857000D02*
X981330D01*
X985541Y855030D02*
X986071Y854500D01*
X985571Y855000D02*
X992500D01*
Y854500D02*
X986071D01*
X989500Y868000D02*
X991000D01*
Y859500D01*
Y868000D01*
X937000Y830500D02*
Y829500D01*
X939000D02*
Y830500D01*
X941000D02*
Y829472D01*
X943000Y828742D02*
Y830500D01*
X945429D02*
X945959Y829970D01*
X947321Y829000D02*
X942561D01*
X945000Y830500D02*
Y826864D01*
X943684Y828180D02*
X946365Y825499D01*
X947000Y825481D02*
Y829170D01*
X949000Y828525D02*
Y825000D01*
X952402Y827000D02*
X944864D01*
X949500Y828500D02*
X950101D01*
X959598Y827000D02*
X962429D01*
X951000Y827755D02*
Y823690D01*
X953000Y823208D02*
Y826792D01*
X955000Y826500D02*
Y823500D01*
X959000Y823208D02*
Y826792D01*
X961000Y827755D02*
Y822245D01*
X962470Y826959D02*
X967959Y821470D01*
X957000Y826500D02*
X955000D01*
X952402Y823000D02*
X951624D01*
X949000Y825000D02*
X964429D01*
X957000Y823500D02*
Y826500D01*
Y823500D02*
X955000D01*
X959598Y823000D02*
X966429D01*
X968500Y821000D02*
X962362D01*
X963000Y820106D02*
Y826429D01*
X965000Y824429D02*
Y817364D01*
X965364Y817000D02*
X968018D01*
X967000Y815364D02*
Y822429D01*
X968462Y819000D02*
X963538D01*
X969000Y820106D02*
Y820670D01*
X963636Y818728D02*
X968526Y813838D01*
X968163Y815000D02*
X967364D01*
X991000Y854500D02*
Y859500D01*
X992500Y855929D02*
Y854500D01*
X856646Y797000D02*
X855500D01*
Y795000D02*
X858636D01*
X859500Y791000D02*
X855500D01*
X859500Y791500D02*
Y786500D01*
Y789000D02*
X855500D01*
Y787000D02*
X859500D01*
X859986Y793650D02*
X856820Y796816D01*
X855500Y793000D02*
X859730D01*
Y785000D02*
X855500D01*
X884500Y786500D02*
Y787136D01*
X860929Y783000D02*
X855500D01*
Y777000D02*
X865146D01*
X864112Y775000D02*
X855500D01*
Y781000D02*
X869136D01*
X867136Y779000D02*
X855500D01*
Y773000D02*
X864000D01*
Y771000D02*
X855500D01*
Y769000D02*
X864000D01*
Y767000D02*
X855500D01*
Y765000D02*
X864000D01*
Y763000D02*
X855500D01*
Y761000D02*
X864000D01*
Y759000D02*
X855500D01*
Y757000D02*
X864000D01*
X867000Y778864D02*
Y782170D01*
X865000Y781525D02*
Y776828D01*
X869000Y780864D02*
Y781525D01*
X869638Y781502D02*
X865320Y777184D01*
X879000Y780000D02*
Y781525D01*
Y780000D01*
X877680Y776816D02*
X875863Y774999D01*
X877000Y774933D02*
Y776136D01*
X881000Y773090D02*
Y781730D01*
X883000Y782929D02*
Y770193D01*
X879000Y774374D02*
Y780000D01*
X885500Y786136D02*
X884500Y787136D01*
X896500Y786000D02*
X904000D01*
X885500Y785000D02*
X884270D01*
X885500Y786136D02*
Y781500D01*
Y783000D02*
X883071D01*
X885500Y781500D02*
X896500D01*
Y786000D01*
Y785000D02*
X904000D01*
Y781000D02*
X879000D01*
X896500Y783000D02*
X904000D01*
Y779000D02*
X878888D01*
X904000Y777500D02*
Y786000D01*
Y777500D02*
X906000D01*
Y777000D02*
X877854D01*
X876000Y775000D02*
X906000D01*
Y773000D02*
X881099D01*
X882633Y771000D02*
X906000D01*
Y769000D02*
X883349D01*
X873000Y759000D02*
X905675D01*
X905519Y761000D02*
X879742D01*
X883483Y767000D02*
X906000D01*
Y763000D02*
Y777500D01*
X906523Y757000D02*
X873000D01*
X883071Y765000D02*
X906000D01*
Y763000D02*
X882000D01*
X926000Y777500D02*
X926500D01*
Y777000D02*
X926000D01*
Y775000D02*
X926500D01*
Y773000D02*
X926000D01*
Y771000D02*
X926500D01*
X926000Y770500D02*
Y777500D01*
X926500Y763000D02*
X924500D01*
X925571Y765000D02*
X926500D01*
Y757000D02*
X917477D01*
X922242Y761000D02*
X926500D01*
Y759000D02*
X918325D01*
X864000Y755000D02*
X855500D01*
Y753000D02*
X864000D01*
Y751000D02*
X855500D01*
Y749000D02*
X864000D01*
X873000Y754374D02*
Y760626D01*
Y754374D01*
X864000Y747000D02*
X855500D01*
X873000Y755000D02*
X876000D01*
X855500Y735199D02*
Y800000D01*
X857000Y796636D02*
Y736363D01*
X859000Y737600D02*
Y794636D01*
X861000Y782929D02*
Y738540D01*
X863000Y739229D02*
Y781730D01*
X864000Y774000D02*
Y744000D01*
Y745000D02*
X855500D01*
X875000Y754933D02*
Y760067D01*
X879000Y760626D02*
Y754374D01*
X877000Y754933D02*
Y760067D01*
X881000Y761910D02*
Y753090D01*
X883000Y750193D02*
Y764807D01*
X885000Y786636D02*
Y740864D01*
X887000Y738864D02*
Y781500D01*
X883000Y744807D02*
Y742864D01*
X889000Y736864D02*
Y781500D01*
X897000Y786000D02*
Y727500D01*
X899000D02*
Y786000D01*
X891000Y781500D02*
Y734864D01*
X893000Y732561D02*
Y781500D01*
X895000D02*
Y719864D01*
X864112Y743000D02*
X855500D01*
X865000Y741172D02*
Y739691D01*
X865146Y741000D02*
X855500D01*
Y739000D02*
X862255D01*
X865320Y740816D02*
X866262Y739874D01*
X886864Y739000D02*
X899675D01*
X857964Y737000D02*
X855500D01*
X882684Y743180D02*
X892180Y733684D01*
X893500Y730500D02*
Y721364D01*
Y727000D02*
X897000D01*
X899519Y737000D02*
X888864D01*
X893500Y725000D02*
X897000D01*
Y723000D02*
X893500D01*
X893864Y721000D02*
X897000D01*
Y719000D02*
X895864D01*
X897000Y717864D02*
Y727500D01*
Y717864D01*
X893500Y721364D01*
X908536Y755000D02*
X876000D01*
X911000Y754077D02*
Y747500D01*
X911151Y749000D02*
X883349D01*
X883483Y747000D02*
X911017D01*
X913401Y753000D02*
X881099D01*
X882633Y751000D02*
X911867D01*
X911429Y745000D02*
X883071D01*
X901000Y741653D02*
Y786000D01*
X903000D02*
Y743266D01*
X902536Y743000D02*
X882864D01*
X905000Y743923D02*
Y777500D01*
X907000Y756347D02*
Y743923D01*
X909000Y743266D02*
Y754734D01*
X911000Y747500D02*
Y743000D01*
X917000Y754848D02*
Y756347D01*
X915000Y754734D02*
Y754133D01*
X915464Y755000D02*
X918500D01*
X921000Y754571D02*
Y760429D01*
X923000Y761500D02*
Y753500D01*
X926500Y755000D02*
X918500D01*
X919000Y754983D02*
Y760017D01*
X913000Y754077D02*
Y752599D01*
X923599Y753000D02*
X926500D01*
X925000Y751242D02*
Y763758D01*
X925133Y751000D02*
X926500D01*
X925571Y745000D02*
X928222D01*
X925000Y743758D02*
Y743000D01*
X900523Y741000D02*
X884864D01*
X890864Y735000D02*
X900000D01*
X901310Y733000D02*
X892742D01*
X893472Y731000D02*
X906000D01*
X909000D02*
Y731734D01*
Y729000D02*
X893500D01*
X906000Y731000D02*
X909000D01*
X901000Y733347D02*
Y727500D01*
X903000D02*
Y731734D01*
X905000Y731077D02*
Y727500D01*
X907000D02*
Y731077D01*
X909000Y727500D02*
X897000D01*
X909000D02*
Y731000D01*
Y727500D01*
X909464Y743000D02*
X912500D01*
X909464D01*
X911000Y732000D02*
Y731000D01*
X913000D02*
Y732000D01*
X924500Y743000D02*
X929000D01*
X924500D01*
X920000Y731000D02*
X909000D01*
X909464Y732000D02*
X929000D01*
Y731000D02*
X909000D01*
X915000D02*
Y732000D01*
X917000D02*
Y731000D01*
X919000D02*
Y732000D01*
X921000D02*
Y731000D01*
X923000D02*
Y732000D01*
X925000D02*
Y731000D01*
X922000D02*
X920000D01*
X922000D01*
X929000D01*
X926500Y769000D02*
X925849D01*
X925983Y767000D02*
X926500D01*
Y749000D02*
X925849D01*
X926500D02*
Y777500D01*
X926876Y747000D02*
X925983D01*
X927000Y746709D02*
Y743000D01*
X928111Y745111D02*
X929222Y744000D01*
X929000Y744222D02*
Y743000D01*
X927000Y732000D02*
Y731000D01*
X929000Y743000D02*
Y744000D01*
Y732000D02*
Y731000D01*
Y732000D01*
Y743000D02*
X930000D01*
Y743222D02*
X929222Y744000D01*
X929000Y731000D02*
X933000D01*
X929000D01*
X933000D01*
Y724185D01*
Y731000D01*
X936000D01*
X935000D02*
Y725778D01*
X936000Y731000D02*
X933000D01*
X936000D02*
Y726778D01*
Y729000D02*
X933000D01*
Y727000D02*
X936000D01*
X934222Y725000D02*
X933000D01*
X933560Y724339D02*
X936000Y726778D01*
X1020000Y890500D02*
X1020335Y890494D01*
X1020670Y890476D01*
X1021004Y890447D01*
X1021337Y890405D01*
X1021668Y890352D01*
X1021998Y890288D01*
X1022324Y890211D01*
X1022648Y890124D01*
X1022968Y890024D01*
X1023285Y889914D01*
X1023598Y889792D01*
X1023906Y889660D01*
X1024209Y889517D01*
X1024507Y889363D01*
X1024800Y889198D01*
X1025086Y889024D01*
X1025366Y888839D01*
X1025640Y888645D01*
X1025906Y888441D01*
X1026165Y888228D01*
X1026416Y888006D01*
X1026660Y887775D01*
X1026895Y887536D01*
X1027121Y887288D01*
X1027339Y887033D01*
X1027547Y886770D01*
X1027746Y886500D01*
X1029500D02*
X1029860Y886488D01*
X1030218Y886453D01*
X1030573Y886394D01*
X1030924Y886313D01*
X1031268Y886208D01*
X1031605Y886081D01*
X1031933Y885933D01*
X1032250Y885763D01*
X1032556Y885573D01*
X1032848Y885363D01*
X1033126Y885135D01*
X1033389Y884889D01*
X1033126Y885135D01*
X1032848Y885363D01*
X1032556Y885573D01*
X1032250Y885763D01*
X1031933Y885933D01*
X1031605Y886081D01*
X1031268Y886208D01*
X1030924Y886313D01*
X1030573Y886394D01*
X1030218Y886453D01*
X1029860Y886488D01*
X1029500Y886500D01*
X1025831Y831500D02*
X1025552Y831291D01*
X1025265Y831092D01*
X1024971Y830905D01*
X1024671Y830727D01*
X1024364Y830562D01*
X1024051Y830407D01*
X1023733Y830264D01*
X1023410Y830133D01*
X1023082Y830014D01*
X1022750Y829907D01*
X1022415Y829812D01*
X1022076Y829730D01*
X1021734Y829660D01*
X1021390Y829602D01*
X1021044Y829558D01*
X1020697Y829526D01*
X1020349Y829506D01*
X1020000Y829500D01*
X1018500D02*
X1018832Y829494D01*
X1019163Y829477D01*
X1019493Y829448D01*
X1019822Y829408D01*
X1020150Y829356D01*
X1020475Y829292D01*
X1020798Y829218D01*
X1021118Y829132D01*
X1021436Y829035D01*
X1021749Y828927D01*
X1022059Y828808D01*
X1022364Y828679D01*
X1022665Y828539D01*
X1022960Y828388D01*
X1023250Y828227D01*
X1023534Y828057D01*
X1023812Y827876D01*
X1024084Y827686D01*
X1024349Y827486D01*
X1024607Y827277D01*
X1024857Y827060D01*
X1025099Y826834D01*
X1025334Y826599D01*
X1025560Y826357D01*
X1025777Y826107D01*
X1025986Y825849D01*
X1026186Y825584D01*
X1026376Y825312D01*
X1026557Y825034D01*
X1026727Y824750D01*
X1026888Y824460D01*
X1027039Y824165D01*
X1027179Y823864D01*
X1027308Y823559D01*
X1027427Y823249D01*
X1027535Y822936D01*
X1027632Y822618D01*
X1027718Y822298D01*
X1027792Y821975D01*
X1027856Y821650D01*
X1027908Y821322D01*
X1027948Y820993D01*
X1027977Y820663D01*
X1027994Y820332D01*
X1028000Y820000D01*
X1027994Y819668D01*
X1027977Y819337D01*
X1027948Y819007D01*
X1027908Y818678D01*
X1027856Y818350D01*
X1027792Y818025D01*
X1027718Y817702D01*
X1027632Y817381D01*
X1027535Y817064D01*
X1027427Y816751D01*
X1027308Y816441D01*
X1027179Y816136D01*
X1027039Y815835D01*
X1026888Y815540D01*
X1026727Y815250D01*
X1026557Y814966D01*
X1026376Y814688D01*
X1026186Y814416D01*
X1025986Y814151D01*
X1025777Y813894D01*
X1025560Y813643D01*
X1025334Y813401D01*
X1025099Y813166D01*
X1024857Y812940D01*
X1024607Y812723D01*
X1024349Y812514D01*
X1024084Y812314D01*
X1023812Y812124D01*
X1023534Y811944D01*
X1023250Y811773D01*
X1022960Y811612D01*
X1022665Y811461D01*
X1022364Y811321D01*
X1022059Y811192D01*
X1021749Y811073D01*
X1021436Y810965D01*
X1021118Y810868D01*
X1020798Y810782D01*
X1020475Y810708D01*
X1020150Y810644D01*
X1019822Y810593D01*
X1019493Y810552D01*
X1019163Y810523D01*
X1018832Y810506D01*
X1018500Y810500D01*
X1135500Y855000D02*
X1135494Y854668D01*
X1135477Y854337D01*
X1135448Y854007D01*
X1135408Y853678D01*
X1135356Y853350D01*
X1135292Y853025D01*
X1135218Y852702D01*
X1135132Y852382D01*
X1135035Y852064D01*
X1134927Y851751D01*
X1134808Y851441D01*
X1134679Y851136D01*
X1134539Y850835D01*
X1134388Y850540D01*
X1134227Y850250D01*
X1134057Y849966D01*
X1133876Y849688D01*
X1133686Y849416D01*
X1133486Y849151D01*
X1133277Y848893D01*
X1133060Y848643D01*
X1132834Y848401D01*
X1132599Y848166D01*
X1132357Y847940D01*
X1132107Y847723D01*
X1131849Y847514D01*
X1131584Y847314D01*
X1131312Y847124D01*
X1131034Y846943D01*
X1130750Y846773D01*
X1130460Y846612D01*
X1130165Y846461D01*
X1129864Y846321D01*
X1129559Y846192D01*
X1129249Y846073D01*
X1128936Y845965D01*
X1128618Y845868D01*
X1128298Y845782D01*
X1127975Y845708D01*
X1127650Y845644D01*
X1127322Y845592D01*
X1126993Y845552D01*
X1126663Y845523D01*
X1126332Y845506D01*
X1126000Y845500D01*
X1125668Y845506D01*
X1125337Y845523D01*
X1125007Y845552D01*
X1124678Y845592D01*
X1124350Y845644D01*
X1124025Y845708D01*
X1123702Y845782D01*
X1123382Y845868D01*
X1123064Y845965D01*
X1122751Y846073D01*
X1122441Y846192D01*
X1122136Y846321D01*
X1121835Y846461D01*
X1121540Y846612D01*
X1121250Y846773D01*
X1120966Y846943D01*
X1120688Y847124D01*
X1120416Y847314D01*
X1120151Y847514D01*
X1119893Y847723D01*
X1119643Y847940D01*
X1119401Y848166D01*
X1119166Y848401D01*
X1118940Y848643D01*
X1118723Y848893D01*
X1118514Y849151D01*
X1118314Y849416D01*
X1118124Y849688D01*
X1117943Y849966D01*
X1117773Y850250D01*
X1117612Y850540D01*
X1117461Y850835D01*
X1117321Y851136D01*
X1117192Y851441D01*
X1117073Y851751D01*
X1116965Y852064D01*
X1116868Y852382D01*
X1116782Y852702D01*
X1116708Y853025D01*
X1116644Y853350D01*
X1116592Y853678D01*
X1116552Y854007D01*
X1116523Y854337D01*
X1116506Y854668D01*
X1116500Y855000D01*
X1116506Y855332D01*
X1116523Y855663D01*
X1116552Y855993D01*
X1116592Y856322D01*
X1116644Y856650D01*
X1116708Y856975D01*
X1116782Y857298D01*
X1116868Y857618D01*
X1116965Y857936D01*
X1117073Y858249D01*
X1117192Y858559D01*
X1117321Y858864D01*
X1117461Y859165D01*
X1117612Y859460D01*
X1117773Y859750D01*
X1117943Y860034D01*
X1118124Y860312D01*
X1118314Y860584D01*
X1118514Y860849D01*
X1118723Y861107D01*
X1118940Y861357D01*
X1119166Y861599D01*
X1119401Y861834D01*
X1119643Y862060D01*
X1119893Y862277D01*
X1120151Y862486D01*
X1120416Y862686D01*
X1120688Y862876D01*
X1120966Y863057D01*
X1121250Y863227D01*
X1121540Y863388D01*
X1121835Y863539D01*
X1122136Y863679D01*
X1122441Y863808D01*
X1122751Y863927D01*
X1123064Y864035D01*
X1123382Y864132D01*
X1123702Y864218D01*
X1124025Y864292D01*
X1124350Y864356D01*
X1124678Y864408D01*
X1125007Y864448D01*
X1125337Y864477D01*
X1125668Y864494D01*
X1126000Y864500D01*
X1126332Y864494D01*
X1126663Y864477D01*
X1126993Y864448D01*
X1127322Y864408D01*
X1127650Y864356D01*
X1127975Y864292D01*
X1128298Y864218D01*
X1128618Y864132D01*
X1128936Y864035D01*
X1129249Y863927D01*
X1129559Y863808D01*
X1129864Y863679D01*
X1130165Y863539D01*
X1130460Y863388D01*
X1130750Y863227D01*
X1131034Y863057D01*
X1131312Y862876D01*
X1131584Y862686D01*
X1131849Y862486D01*
X1132107Y862277D01*
X1132357Y862060D01*
X1132599Y861834D01*
X1132834Y861599D01*
X1133060Y861357D01*
X1133277Y861107D01*
X1133486Y860849D01*
X1133686Y860584D01*
X1133876Y860312D01*
X1134057Y860034D01*
X1134227Y859750D01*
X1134388Y859460D01*
X1134539Y859165D01*
X1134679Y858864D01*
X1134808Y858559D01*
X1134927Y858249D01*
X1135035Y857936D01*
X1135132Y857618D01*
X1135218Y857298D01*
X1135292Y856975D01*
X1135356Y856650D01*
X1135408Y856322D01*
X1135448Y855993D01*
X1135477Y855663D01*
X1135494Y855332D01*
X1135500Y855000D01*
X1112500Y860000D02*
X1112497Y859668D01*
X1112489Y859335D01*
X1112475Y859003D01*
X1112456Y858671D01*
X1112431Y858340D01*
X1112401Y858009D01*
X1112365Y857678D01*
X1112323Y857348D01*
X1112277Y857019D01*
X1112224Y856691D01*
X1112167Y856364D01*
X1112103Y856037D01*
X1112035Y855712D01*
X1111961Y855388D01*
X1111882Y855065D01*
X1111797Y854743D01*
X1111707Y854423D01*
X1111611Y854105D01*
X1111511Y853788D01*
X1111405Y853473D01*
X1111294Y853160D01*
X1111178Y852848D01*
X1111056Y852539D01*
X1110930Y852231D01*
X1110798Y851926D01*
X1110661Y851623D01*
X1110519Y851322D01*
X1110373Y851024D01*
X1110221Y850728D01*
X1110064Y850435D01*
X1109903Y850144D01*
X1109737Y849856D01*
X1109566Y849571D01*
X1109390Y849289D01*
X1109210Y849010D01*
X1109025Y848734D01*
X1108835Y848460D01*
X1108641Y848191D01*
X1108443Y847924D01*
X1108240Y847661D01*
X1108033Y847401D01*
X1107821Y847144D01*
X1107605Y846891D01*
X1107385Y846642D01*
X1107161Y846397D01*
X1106933Y846155D01*
X1106701Y845917D01*
X1106465Y845683D01*
X1106225Y845452D01*
X1105981Y845226D01*
X1105734Y845004D01*
X1105483Y844786D01*
X1105228Y844573D01*
X1104970Y844363D01*
X1104708Y844158D01*
X1104443Y843958D01*
X1104175Y843761D01*
X1103903Y843569D01*
X1103629Y843382D01*
X1103351Y843200D01*
X1103070Y843021D01*
X1102786Y842848D01*
X1102500Y842680D01*
X1102211Y842516D01*
X1101919Y842357D01*
X1101624Y842203D01*
X1101327Y842053D01*
X1101028Y841909D01*
X1100726Y841770D01*
X1100422Y841636D01*
X1100115Y841507D01*
X1099807Y841383D01*
X1099496Y841264D01*
X1099184Y841150D01*
X1098870Y841042D01*
X1098554Y840938D01*
X1098236Y840840D01*
X1097917Y840748D01*
X1097596Y840660D01*
X1097274Y840578D01*
X1096950Y840501D01*
X1096626Y840430D01*
X1096300Y840364D01*
X1095973Y840304D01*
X1095645Y840249D01*
X1095316Y840199D01*
X1094987Y840155D01*
X1094657Y840117D01*
X1094326Y840083D01*
X1093995Y840056D01*
X1093663Y840034D01*
X1093331Y840017D01*
X1092999Y840006D01*
X1092666Y840001D01*
X1092334D01*
X1092001Y840006D01*
X1091669Y840017D01*
X1091337Y840034D01*
X1091005Y840056D01*
X1090674Y840083D01*
X1090343Y840117D01*
X1090013Y840155D01*
X1089684Y840199D01*
X1089355Y840249D01*
X1089027Y840304D01*
X1088700Y840364D01*
X1088374Y840430D01*
X1088050Y840501D01*
X1087726Y840578D01*
X1087404Y840660D01*
X1087083Y840748D01*
X1086764Y840840D01*
X1086446Y840938D01*
X1086130Y841042D01*
X1085816Y841150D01*
X1085504Y841264D01*
X1085193Y841383D01*
X1084885Y841507D01*
X1084578Y841636D01*
X1084274Y841770D01*
X1083972Y841909D01*
X1083673Y842053D01*
X1083376Y842203D01*
X1083081Y842357D01*
X1082789Y842516D01*
X1082500Y842680D01*
X1082214Y842848D01*
X1081930Y843021D01*
X1081649Y843200D01*
X1081371Y843382D01*
X1081097Y843569D01*
X1080825Y843761D01*
X1080557Y843958D01*
X1080292Y844158D01*
X1080030Y844363D01*
X1079772Y844573D01*
X1079517Y844786D01*
X1079266Y845004D01*
X1079019Y845226D01*
X1078775Y845452D01*
X1078535Y845683D01*
X1078299Y845917D01*
X1078067Y846155D01*
X1077839Y846397D01*
X1077615Y846642D01*
X1077395Y846891D01*
X1077179Y847144D01*
X1076967Y847401D01*
X1076760Y847661D01*
X1076557Y847924D01*
X1076359Y848191D01*
X1076165Y848460D01*
X1075975Y848734D01*
X1075790Y849010D01*
X1075610Y849289D01*
X1075434Y849571D01*
X1075263Y849856D01*
X1075097Y850144D01*
X1074936Y850435D01*
X1074779Y850728D01*
X1074627Y851024D01*
X1074481Y851322D01*
X1074339Y851623D01*
X1074202Y851926D01*
X1074070Y852231D01*
X1073944Y852539D01*
X1073822Y852848D01*
X1073706Y853160D01*
X1073595Y853473D01*
X1073489Y853788D01*
X1073389Y854105D01*
X1073293Y854423D01*
X1073203Y854743D01*
X1073118Y855065D01*
X1073039Y855388D01*
X1072965Y855712D01*
X1072897Y856037D01*
X1072833Y856364D01*
X1072776Y856691D01*
X1072723Y857019D01*
X1072677Y857348D01*
X1072635Y857678D01*
X1072599Y858009D01*
X1072569Y858340D01*
X1072544Y858671D01*
X1072525Y859003D01*
X1072511Y859335D01*
X1072503Y859668D01*
X1072500Y860000D01*
X1072503Y860332D01*
X1072511Y860665D01*
X1072525Y860997D01*
X1072544Y861329D01*
X1072569Y861660D01*
X1072599Y861991D01*
X1072635Y862322D01*
X1072677Y862652D01*
X1072723Y862981D01*
X1072776Y863309D01*
X1072833Y863636D01*
X1072897Y863963D01*
X1072965Y864288D01*
X1073039Y864612D01*
X1073118Y864935D01*
X1073203Y865257D01*
X1073293Y865577D01*
X1073389Y865895D01*
X1073489Y866212D01*
X1073595Y866527D01*
X1073706Y866840D01*
X1073822Y867152D01*
X1073944Y867461D01*
X1074070Y867769D01*
X1074202Y868074D01*
X1074339Y868377D01*
X1074481Y868678D01*
X1074627Y868976D01*
X1074779Y869272D01*
X1074936Y869565D01*
X1075097Y869856D01*
X1075263Y870144D01*
X1075434Y870429D01*
X1075610Y870711D01*
X1075790Y870990D01*
X1075975Y871266D01*
X1076165Y871540D01*
X1076359Y871809D01*
X1076557Y872076D01*
X1076760Y872339D01*
X1076967Y872599D01*
X1077179Y872856D01*
X1077395Y873109D01*
X1077615Y873358D01*
X1077839Y873603D01*
X1078067Y873845D01*
X1078299Y874083D01*
X1078535Y874317D01*
X1078775Y874548D01*
X1079019Y874774D01*
X1079266Y874996D01*
X1079517Y875214D01*
X1079772Y875427D01*
X1080030Y875637D01*
X1080292Y875842D01*
X1080557Y876042D01*
X1080825Y876239D01*
X1081097Y876431D01*
X1081371Y876618D01*
X1081649Y876800D01*
X1081930Y876979D01*
X1082214Y877152D01*
X1082500Y877320D01*
X1082789Y877484D01*
X1083081Y877643D01*
X1083376Y877797D01*
X1083673Y877947D01*
X1083972Y878091D01*
X1084274Y878230D01*
X1084578Y878364D01*
X1084885Y878493D01*
X1085193Y878617D01*
X1085504Y878736D01*
X1085816Y878850D01*
X1086130Y878958D01*
X1086446Y879062D01*
X1086764Y879160D01*
X1087083Y879252D01*
X1087404Y879340D01*
X1087726Y879422D01*
X1088050Y879499D01*
X1088374Y879570D01*
X1088700Y879636D01*
X1089027Y879696D01*
X1089355Y879751D01*
X1089684Y879801D01*
X1090013Y879845D01*
X1090343Y879883D01*
X1090674Y879917D01*
X1091005Y879944D01*
X1091337Y879966D01*
X1091669Y879983D01*
X1092001Y879994D01*
X1092334Y879999D01*
X1092666D01*
X1092999Y879994D01*
X1093331Y879983D01*
X1093663Y879966D01*
X1093995Y879944D01*
X1094326Y879917D01*
X1094657Y879883D01*
X1094987Y879845D01*
X1095316Y879801D01*
X1095645Y879751D01*
X1095973Y879696D01*
X1096300Y879636D01*
X1096626Y879570D01*
X1096950Y879499D01*
X1097274Y879422D01*
X1097596Y879340D01*
X1097917Y879252D01*
X1098236Y879160D01*
X1098554Y879062D01*
X1098870Y878958D01*
X1099184Y878850D01*
X1099496Y878736D01*
X1099807Y878617D01*
X1100115Y878493D01*
X1100422Y878364D01*
X1100726Y878230D01*
X1101028Y878091D01*
X1101327Y877947D01*
X1101624Y877797D01*
X1101919Y877643D01*
X1102211Y877484D01*
X1102500Y877320D01*
X1102786Y877152D01*
X1103070Y876979D01*
X1103351Y876800D01*
X1103629Y876618D01*
X1103903Y876431D01*
X1104175Y876239D01*
X1104443Y876042D01*
X1104708Y875842D01*
X1104970Y875637D01*
X1105228Y875427D01*
X1105483Y875214D01*
X1105734Y874996D01*
X1105981Y874774D01*
X1106225Y874548D01*
X1106465Y874317D01*
X1106701Y874083D01*
X1106933Y873845D01*
X1107161Y873603D01*
X1107385Y873358D01*
X1107605Y873109D01*
X1107821Y872856D01*
X1108033Y872599D01*
X1108240Y872339D01*
X1108443Y872076D01*
X1108641Y871809D01*
X1108835Y871540D01*
X1109025Y871266D01*
X1109210Y870990D01*
X1109390Y870711D01*
X1109566Y870429D01*
X1109737Y870144D01*
X1109903Y869856D01*
X1110064Y869565D01*
X1110221Y869272D01*
X1110373Y868976D01*
X1110519Y868678D01*
X1110661Y868377D01*
X1110798Y868074D01*
X1110930Y867769D01*
X1111056Y867461D01*
X1111178Y867152D01*
X1111294Y866840D01*
X1111405Y866527D01*
X1111511Y866212D01*
X1111611Y865895D01*
X1111707Y865577D01*
X1111797Y865257D01*
X1111882Y864935D01*
X1111961Y864612D01*
X1112035Y864288D01*
X1112103Y863963D01*
X1112167Y863636D01*
X1112224Y863309D01*
X1112277Y862981D01*
X1112323Y862652D01*
X1112365Y862322D01*
X1112401Y861991D01*
X1112431Y861660D01*
X1112456Y861329D01*
X1112475Y860997D01*
X1112489Y860665D01*
X1112497Y860332D01*
X1112500Y860000D01*
X1111000Y844750D02*
X1110689Y844740D01*
X1110380Y844709D01*
X1110073Y844659D01*
X1109771Y844588D01*
X1109473Y844498D01*
X1109182Y844388D01*
X1108899Y844260D01*
X1108625Y844114D01*
X1108361Y843950D01*
X1108108Y843768D01*
X1107868Y843571D01*
X1107641Y843359D01*
X1107868Y843571D01*
X1108108Y843768D01*
X1108361Y843950D01*
X1108625Y844114D01*
X1108899Y844260D01*
X1109182Y844388D01*
X1109473Y844498D01*
X1109771Y844588D01*
X1110073Y844659D01*
X1110380Y844709D01*
X1110689Y844740D01*
X1111000Y844750D01*
X1090141Y825859D02*
X1089929Y825632D01*
X1089732Y825392D01*
X1089550Y825139D01*
X1089386Y824875D01*
X1089240Y824601D01*
X1089112Y824318D01*
X1089002Y824027D01*
X1088912Y823729D01*
X1088841Y823427D01*
X1088791Y823120D01*
X1088760Y822811D01*
X1088750Y822500D01*
X1088760Y822811D01*
X1088791Y823120D01*
X1088841Y823427D01*
X1088912Y823729D01*
X1089002Y824027D01*
X1089112Y824318D01*
X1089240Y824601D01*
X1089386Y824875D01*
X1089550Y825139D01*
X1089732Y825392D01*
X1089929Y825632D01*
X1090141Y825859D01*
X1128500Y844750D02*
X1128811Y844740D01*
X1129120Y844709D01*
X1129427Y844659D01*
X1129729Y844588D01*
X1130027Y844498D01*
X1130318Y844388D01*
X1130601Y844260D01*
X1130875Y844114D01*
X1131139Y843950D01*
X1131392Y843768D01*
X1131632Y843571D01*
X1131859Y843359D01*
X1131632Y843571D01*
X1131392Y843768D01*
X1131139Y843950D01*
X1130875Y844114D01*
X1130601Y844260D01*
X1130318Y844388D01*
X1130027Y844498D01*
X1129729Y844588D01*
X1129427Y844659D01*
X1129120Y844709D01*
X1128811Y844740D01*
X1128500Y844750D01*
X1134359Y840859D02*
X1134571Y840632D01*
X1134768Y840392D01*
X1134950Y840139D01*
X1135114Y839875D01*
X1135260Y839601D01*
X1135388Y839318D01*
X1135498Y839027D01*
X1135588Y838729D01*
X1135659Y838427D01*
X1135709Y838120D01*
X1135740Y837811D01*
X1135750Y837500D01*
X1135740Y837811D01*
X1135709Y838120D01*
X1135659Y838427D01*
X1135588Y838729D01*
X1135498Y839027D01*
X1135388Y839318D01*
X1135260Y839601D01*
X1135114Y839875D01*
X1134950Y840139D01*
X1134768Y840392D01*
X1134571Y840632D01*
X1134359Y840859D01*
X1135750Y836920D02*
X1135826Y836606D01*
X1135889Y836288D01*
X1135937Y835968D01*
X1135972Y835647D01*
X1135993Y835324D01*
X1136000Y835000D01*
X1135993Y834676D01*
X1135972Y834353D01*
X1135937Y834032D01*
X1135889Y833712D01*
X1135826Y833394D01*
X1135750Y833080D01*
Y830000D02*
X1135740Y829689D01*
X1135709Y829380D01*
X1135659Y829073D01*
X1135588Y828771D01*
X1135498Y828473D01*
X1135388Y828182D01*
X1135260Y827899D01*
X1135114Y827625D01*
X1134950Y827361D01*
X1134768Y827108D01*
X1134571Y826868D01*
X1134359Y826641D01*
X1134571Y826868D01*
X1134768Y827108D01*
X1134950Y827361D01*
X1135114Y827625D01*
X1135260Y827899D01*
X1135388Y828182D01*
X1135498Y828473D01*
X1135588Y828771D01*
X1135659Y829073D01*
X1135709Y829380D01*
X1135740Y829689D01*
X1135750Y830000D01*
X1018500Y809500D02*
X1018832Y809494D01*
X1019163Y809477D01*
X1019493Y809448D01*
X1019822Y809407D01*
X1020150Y809356D01*
X1020475Y809292D01*
X1020798Y809218D01*
X1021118Y809132D01*
X1021436Y809035D01*
X1021749Y808927D01*
X1022059Y808808D01*
X1022364Y808679D01*
X1022665Y808539D01*
X1022960Y808388D01*
X1023250Y808227D01*
X1023534Y808056D01*
X1023812Y807876D01*
X1024084Y807686D01*
X1024349Y807486D01*
X1024607Y807277D01*
X1024857Y807060D01*
X1025099Y806834D01*
X1025334Y806599D01*
X1025560Y806357D01*
X1025777Y806106D01*
X1025986Y805849D01*
X1026186Y805584D01*
X1026376Y805312D01*
X1026557Y805034D01*
X1026727Y804750D01*
X1026888Y804460D01*
X1027039Y804165D01*
X1027179Y803864D01*
X1027308Y803559D01*
X1027427Y803249D01*
X1027535Y802936D01*
X1027632Y802619D01*
X1027718Y802298D01*
X1027792Y801975D01*
X1027856Y801650D01*
X1027908Y801322D01*
X1027948Y800993D01*
X1027977Y800663D01*
X1027994Y800331D01*
X1028000Y800000D01*
X1027994Y799669D01*
X1027977Y799337D01*
X1027948Y799007D01*
X1027908Y798678D01*
X1027856Y798350D01*
X1027792Y798025D01*
X1027718Y797702D01*
X1027632Y797381D01*
X1027535Y797064D01*
X1027427Y796751D01*
X1027308Y796441D01*
X1027179Y796136D01*
X1027039Y795835D01*
X1026888Y795540D01*
X1026727Y795250D01*
X1026557Y794966D01*
X1026376Y794688D01*
X1026186Y794416D01*
X1025986Y794151D01*
X1025777Y793894D01*
X1025560Y793643D01*
X1025334Y793401D01*
X1025099Y793166D01*
X1024857Y792940D01*
X1024607Y792723D01*
X1024349Y792514D01*
X1024084Y792314D01*
X1023812Y792124D01*
X1023534Y791944D01*
X1023250Y791773D01*
X1022960Y791612D01*
X1022665Y791461D01*
X1022364Y791321D01*
X1022059Y791192D01*
X1021749Y791073D01*
X1021436Y790965D01*
X1021118Y790868D01*
X1020798Y790782D01*
X1020475Y790708D01*
X1020150Y790644D01*
X1019822Y790593D01*
X1019493Y790552D01*
X1019163Y790523D01*
X1018832Y790506D01*
X1018500Y790500D01*
Y789500D02*
X1018832Y789494D01*
X1019163Y789477D01*
X1019493Y789448D01*
X1019822Y789407D01*
X1020150Y789356D01*
X1020475Y789292D01*
X1020798Y789218D01*
X1021118Y789132D01*
X1021436Y789035D01*
X1021749Y788927D01*
X1022059Y788808D01*
X1022364Y788679D01*
X1022665Y788539D01*
X1022960Y788388D01*
X1023250Y788227D01*
X1023534Y788056D01*
X1023812Y787876D01*
X1024084Y787686D01*
X1024349Y787486D01*
X1024607Y787277D01*
X1024857Y787060D01*
X1025099Y786834D01*
X1025334Y786599D01*
X1025560Y786357D01*
X1025777Y786106D01*
X1025986Y785849D01*
X1026186Y785584D01*
X1026376Y785312D01*
X1026557Y785034D01*
X1026727Y784750D01*
X1026888Y784460D01*
X1027039Y784165D01*
X1027179Y783864D01*
X1027308Y783559D01*
X1027427Y783249D01*
X1027535Y782936D01*
X1027632Y782619D01*
X1027718Y782298D01*
X1027792Y781975D01*
X1027856Y781650D01*
X1027908Y781322D01*
X1027948Y780993D01*
X1027977Y780663D01*
X1027994Y780331D01*
X1028000Y780000D01*
X1027994Y779669D01*
X1027977Y779337D01*
X1027948Y779007D01*
X1027908Y778678D01*
X1027856Y778350D01*
X1027792Y778025D01*
X1027718Y777702D01*
X1027632Y777381D01*
X1027535Y777064D01*
X1027427Y776751D01*
X1027308Y776441D01*
X1027179Y776136D01*
X1027039Y775835D01*
X1026888Y775540D01*
X1026727Y775250D01*
X1026557Y774966D01*
X1026376Y774688D01*
X1026186Y774416D01*
X1025986Y774151D01*
X1025777Y773894D01*
X1025560Y773643D01*
X1025334Y773401D01*
X1025099Y773166D01*
X1024857Y772940D01*
X1024607Y772723D01*
X1024349Y772514D01*
X1024084Y772314D01*
X1023812Y772124D01*
X1023534Y771944D01*
X1023250Y771773D01*
X1022960Y771612D01*
X1022665Y771461D01*
X1022364Y771321D01*
X1022059Y771192D01*
X1021749Y771073D01*
X1021436Y770965D01*
X1021118Y770868D01*
X1020798Y770782D01*
X1020475Y770708D01*
X1020150Y770644D01*
X1019822Y770593D01*
X1019493Y770552D01*
X1019163Y770523D01*
X1018832Y770506D01*
X1018500Y770500D01*
X1020000D02*
X1020323Y770494D01*
X1020647Y770478D01*
X1020969Y770451D01*
X1021290Y770412D01*
X1021610Y770363D01*
X1021927Y770302D01*
X1022243Y770231D01*
X1022556Y770150D01*
X1022866Y770057D01*
X1023173Y769955D01*
X1023476Y769841D01*
X1023775Y769718D01*
X1024069Y769584D01*
X1024359Y769441D01*
X1024644Y769287D01*
X1024924Y769124D01*
X1025198Y768952D01*
X1025465Y768770D01*
X1025727Y768580D01*
X1025981Y768381D01*
X1026229Y768173D01*
X1026470Y767956D01*
X1026703Y767732D01*
X1026928Y767500D01*
Y754500D02*
X1026703Y754268D01*
X1026470Y754044D01*
X1026229Y753827D01*
X1025981Y753619D01*
X1025727Y753420D01*
X1025465Y753230D01*
X1025198Y753048D01*
X1024924Y752876D01*
X1024644Y752713D01*
X1024359Y752559D01*
X1024069Y752416D01*
X1023775Y752282D01*
X1023476Y752159D01*
X1023173Y752045D01*
X1022866Y751943D01*
X1022556Y751850D01*
X1022243Y751769D01*
X1021927Y751698D01*
X1021610Y751637D01*
X1021290Y751588D01*
X1020969Y751549D01*
X1020647Y751522D01*
X1020323Y751506D01*
X1020000Y751500D01*
X1088750Y777500D02*
X1088760Y777189D01*
X1088791Y776880D01*
X1088841Y776573D01*
X1088912Y776271D01*
X1089002Y775973D01*
X1089112Y775682D01*
X1089240Y775399D01*
X1089386Y775125D01*
X1089550Y774861D01*
X1089732Y774608D01*
X1089929Y774368D01*
X1090141Y774141D01*
X1089929Y774368D01*
X1089732Y774608D01*
X1089550Y774861D01*
X1089386Y775125D01*
X1089240Y775399D01*
X1089112Y775682D01*
X1089002Y775973D01*
X1088912Y776271D01*
X1088841Y776573D01*
X1088791Y776880D01*
X1088760Y777189D01*
X1088750Y777500D01*
X1021421Y749393D02*
X1020949Y749452D01*
X1020475Y749488D01*
X1020000Y749500D01*
X1021421Y749393D02*
X1021778Y749452D01*
X1022138Y749488D01*
X1022500Y749500D01*
X1022138Y749488D01*
X1021778Y749452D01*
X1021421Y749393D01*
X1092500Y720000D02*
X1092165Y720003D01*
X1091830Y720011D01*
X1091496Y720025D01*
X1091161Y720045D01*
X1090827Y720070D01*
X1090494Y720101D01*
X1090161Y720137D01*
X1089829Y720179D01*
X1089497Y720227D01*
X1089167Y720280D01*
X1088837Y720338D01*
X1088508Y720402D01*
X1088181Y720472D01*
X1087854Y720547D01*
X1087529Y720627D01*
X1087206Y720714D01*
X1086883Y720805D01*
X1086563Y720902D01*
X1086244Y721004D01*
X1085927Y721111D01*
X1085611Y721224D01*
X1085298Y721342D01*
X1084987Y721465D01*
X1084677Y721593D01*
X1084370Y721727D01*
X1084065Y721866D01*
X1083763Y722009D01*
X1083463Y722158D01*
X1083165Y722312D01*
X1082871Y722471D01*
X1082578Y722634D01*
X1082289Y722803D01*
X1082003Y722976D01*
X1081719Y723155D01*
X1081439Y723337D01*
X1081161Y723525D01*
X1080887Y723717D01*
X1080616Y723914D01*
X1080348Y724115D01*
X1080084Y724321D01*
X1079823Y724531D01*
X1079566Y724745D01*
X1079312Y724964D01*
X1079062Y725187D01*
X1078816Y725414D01*
X1078574Y725645D01*
X1078335Y725880D01*
X1078101Y726119D01*
X1077871Y726362D01*
X1077644Y726609D01*
X1077422Y726860D01*
X1077204Y727114D01*
X1076991Y727372D01*
X1076781Y727634D01*
X1076577Y727899D01*
X1076376Y728167D01*
X1076180Y728439D01*
X1075989Y728713D01*
X1075802Y728991D01*
X1075620Y729273D01*
X1075443Y729557D01*
X1075271Y729844D01*
X1075103Y730134D01*
X1074940Y730426D01*
X1074782Y730722D01*
X1074630Y731020D01*
X1074482Y731320D01*
X1074339Y731623D01*
X1074201Y731928D01*
X1074069Y732236D01*
X1073941Y732545D01*
X1073819Y732857D01*
X1073702Y733171D01*
X1073590Y733487D01*
X1073484Y733804D01*
X1073383Y734124D01*
X1073287Y734444D01*
X1073197Y734767D01*
X1073112Y735091D01*
X1073032Y735416D01*
X1072958Y735743D01*
X1072890Y736071D01*
X1072827Y736399D01*
X1072769Y736729D01*
X1072717Y737060D01*
X1072671Y737392D01*
X1072630Y737724D01*
X1072595Y738057D01*
X1072565Y738391D01*
X1072541Y738725D01*
X1072522Y739059D01*
X1072509Y739394D01*
X1072502Y739729D01*
X1072500Y740064D01*
X1072504Y740398D01*
X1072513Y740733D01*
X1072528Y741068D01*
X1072549Y741402D01*
X1072575Y741736D01*
X1072607Y742069D01*
X1072645Y742402D01*
X1072688Y742734D01*
X1072736Y743065D01*
X1072790Y743396D01*
X1072850Y743725D01*
X1072915Y744054D01*
X1072986Y744381D01*
X1073062Y744707D01*
X1073143Y745032D01*
X1073230Y745356D01*
X1073323Y745677D01*
X1073420Y745998D01*
X1073524Y746316D01*
X1073632Y746633D01*
X1073746Y746948D01*
X1073865Y747261D01*
X1073989Y747572D01*
X1074118Y747881D01*
X1074253Y748188D01*
X1074392Y748492D01*
X1074537Y748794D01*
X1074687Y749094D01*
X1074842Y749391D01*
X1075001Y749685D01*
X1075166Y749977D01*
X1075335Y750265D01*
X1075510Y750552D01*
X1075689Y750835D01*
X1075873Y751114D01*
X1076061Y751391D01*
X1076254Y751665D01*
X1076452Y751935D01*
X1076654Y752202D01*
X1076860Y752466D01*
X1077071Y752726D01*
X1077286Y752983D01*
X1077506Y753235D01*
X1077730Y753485D01*
X1077958Y753730D01*
X1078190Y753972D01*
X1078425Y754209D01*
X1078665Y754443D01*
X1078909Y754673D01*
X1079157Y754898D01*
X1079408Y755119D01*
X1079663Y755337D01*
X1079922Y755549D01*
X1080184Y755758D01*
X1080449Y755962D01*
X1080718Y756161D01*
X1080990Y756356D01*
X1081266Y756547D01*
X1081544Y756732D01*
X1081826Y756914D01*
X1082111Y757090D01*
X1082399Y757261D01*
X1082689Y757428D01*
X1082982Y757590D01*
X1083278Y757747D01*
X1083576Y757899D01*
X1083877Y758046D01*
X1084181Y758188D01*
X1084486Y758324D01*
X1084794Y758456D01*
X1085105Y758582D01*
X1085417Y758704D01*
X1085731Y758820D01*
X1086047Y758930D01*
X1086365Y759036D01*
X1086684Y759136D01*
X1087006Y759231D01*
X1087328Y759320D01*
X1087652Y759404D01*
X1087978Y759482D01*
X1088305Y759555D01*
X1088633Y759623D01*
X1088962Y759685D01*
X1089292Y759741D01*
X1089623Y759792D01*
X1089955Y759837D01*
X1090287Y759877D01*
X1090620Y759911D01*
X1090954Y759940D01*
X1091288Y759963D01*
X1091623Y759981D01*
X1091957Y759993D01*
X1092292Y759999D01*
X1092627Y760000D01*
X1092962Y759995D01*
X1093297Y759984D01*
X1093631Y759968D01*
X1093965Y759946D01*
X1094299Y759919D01*
X1094632Y759886D01*
X1094965Y759848D01*
X1095297Y759803D01*
X1095628Y759754D01*
X1095958Y759699D01*
X1096288Y759638D01*
X1096616Y759572D01*
X1096943Y759500D01*
X1097269Y759423D01*
X1097594Y759340D01*
X1097917Y759252D01*
X1098238Y759159D01*
X1098558Y759060D01*
X1098877Y758956D01*
X1099193Y758847D01*
X1099508Y758732D01*
X1099820Y758612D01*
X1100131Y758487D01*
X1100440Y758357D01*
X1100746Y758221D01*
X1101050Y758081D01*
X1101351Y757935D01*
X1101650Y757784D01*
X1101947Y757628D01*
X1102241Y757468D01*
X1102532Y757302D01*
X1102820Y757132D01*
X1103105Y756957D01*
X1103388Y756777D01*
X1103667Y756592D01*
X1103943Y756403D01*
X1104217Y756209D01*
X1104486Y756010D01*
X1104753Y755807D01*
X1105016Y755600D01*
X1105275Y755388D01*
X1105531Y755172D01*
X1105783Y754952D01*
X1106032Y754727D01*
X1106276Y754499D01*
X1106517Y754266D01*
X1106754Y754029D01*
X1106987Y753789D01*
X1107216Y753544D01*
X1107441Y753296D01*
X1107661Y753044D01*
X1107877Y752788D01*
X1108089Y752529D01*
X1108297Y752266D01*
X1108500Y752000D01*
Y728000D02*
X1108303Y727741D01*
X1108101Y727486D01*
X1107895Y727234D01*
X1107686Y726985D01*
X1107472Y726740D01*
X1107254Y726498D01*
X1107033Y726260D01*
X1106807Y726025D01*
X1106578Y725794D01*
X1106345Y725567D01*
X1106108Y725344D01*
X1105868Y725124D01*
X1105625Y724909D01*
X1105377Y724697D01*
X1105127Y724490D01*
X1104873Y724286D01*
X1104615Y724087D01*
X1104355Y723892D01*
X1104091Y723702D01*
X1103825Y723515D01*
X1103555Y723333D01*
X1103282Y723155D01*
X1103007Y722982D01*
X1102729Y722814D01*
X1102448Y722649D01*
X1102164Y722490D01*
X1101878Y722335D01*
X1101590Y722185D01*
X1101299Y722039D01*
X1101005Y721898D01*
X1100709Y721763D01*
X1100412Y721631D01*
X1100112Y721505D01*
X1099810Y721384D01*
X1099506Y721267D01*
X1099201Y721156D01*
X1098893Y721049D01*
X1098584Y720948D01*
X1098273Y720851D01*
X1097961Y720760D01*
X1097647Y720674D01*
X1097332Y720593D01*
X1097016Y720516D01*
X1096698Y720446D01*
X1096380Y720380D01*
X1096060Y720319D01*
X1095739Y720264D01*
X1095418Y720214D01*
X1095096Y720169D01*
X1094773Y720130D01*
X1094449Y720095D01*
X1094125Y720066D01*
X1093800Y720042D01*
X1093476Y720024D01*
X1093151Y720011D01*
X1092825Y720003D01*
X1092500Y720000D01*
X1098500Y767750D02*
X1098189Y767760D01*
X1097880Y767791D01*
X1097573Y767841D01*
X1097271Y767912D01*
X1096973Y768002D01*
X1096682Y768112D01*
X1096399Y768240D01*
X1096125Y768386D01*
X1095861Y768551D01*
X1095608Y768732D01*
X1095368Y768929D01*
X1095141Y769141D01*
X1095368Y768929D01*
X1095608Y768732D01*
X1095861Y768551D01*
X1096125Y768386D01*
X1096399Y768240D01*
X1096682Y768112D01*
X1096973Y768002D01*
X1097271Y767912D01*
X1097573Y767841D01*
X1097880Y767791D01*
X1098189Y767760D01*
X1098500Y767750D01*
X1118500Y764169D02*
X1118701Y763920D01*
X1118910Y763677D01*
X1119127Y763442D01*
X1119352Y763214D01*
X1119584Y762994D01*
X1119824Y762782D01*
X1120071Y762578D01*
X1120324Y762382D01*
X1120584Y762195D01*
X1120850Y762017D01*
X1121122Y761848D01*
X1121399Y761688D01*
X1121682Y761538D01*
X1121970Y761397D01*
X1122262Y761266D01*
X1122558Y761145D01*
X1122859Y761034D01*
X1123162Y760934D01*
X1123470Y760843D01*
X1123780Y760763D01*
X1124092Y760694D01*
X1124407Y760635D01*
X1124723Y760586D01*
X1125041Y760548D01*
X1125360Y760522D01*
X1125680Y760505D01*
X1126000Y760500D01*
X1135500Y790000D02*
X1135494Y789669D01*
X1135477Y789337D01*
X1135448Y789007D01*
X1135408Y788678D01*
X1135356Y788350D01*
X1135292Y788025D01*
X1135218Y787702D01*
X1135132Y787381D01*
X1135035Y787064D01*
X1134927Y786751D01*
X1134808Y786441D01*
X1134679Y786136D01*
X1134539Y785835D01*
X1134388Y785540D01*
X1134227Y785250D01*
X1134057Y784966D01*
X1133876Y784688D01*
X1133686Y784416D01*
X1133486Y784151D01*
X1133277Y783894D01*
X1133060Y783643D01*
X1132834Y783401D01*
X1132599Y783166D01*
X1132357Y782940D01*
X1132107Y782723D01*
X1131849Y782514D01*
X1131584Y782314D01*
X1131312Y782124D01*
X1131034Y781944D01*
X1130750Y781773D01*
X1130460Y781612D01*
X1130165Y781461D01*
X1129864Y781321D01*
X1129559Y781192D01*
X1129249Y781073D01*
X1128936Y780965D01*
X1128618Y780868D01*
X1128298Y780782D01*
X1127975Y780708D01*
X1127650Y780644D01*
X1127322Y780593D01*
X1126993Y780552D01*
X1126663Y780523D01*
X1126332Y780506D01*
X1126000Y780500D01*
X1125668Y780506D01*
X1125337Y780523D01*
X1125007Y780552D01*
X1124678Y780593D01*
X1124350Y780644D01*
X1124025Y780708D01*
X1123702Y780782D01*
X1123382Y780868D01*
X1123064Y780965D01*
X1122751Y781073D01*
X1122441Y781192D01*
X1122136Y781321D01*
X1121835Y781461D01*
X1121540Y781612D01*
X1121250Y781773D01*
X1120966Y781944D01*
X1120688Y782124D01*
X1120416Y782314D01*
X1120151Y782514D01*
X1119893Y782723D01*
X1119643Y782940D01*
X1119401Y783166D01*
X1119166Y783401D01*
X1118940Y783643D01*
X1118723Y783894D01*
X1118514Y784151D01*
X1118314Y784416D01*
X1118124Y784688D01*
X1117943Y784966D01*
X1117773Y785250D01*
X1117612Y785540D01*
X1117461Y785835D01*
X1117321Y786136D01*
X1117192Y786441D01*
X1117073Y786751D01*
X1116965Y787064D01*
X1116868Y787381D01*
X1116782Y787702D01*
X1116708Y788025D01*
X1116644Y788350D01*
X1116592Y788678D01*
X1116552Y789007D01*
X1116523Y789337D01*
X1116506Y789669D01*
X1116500Y790000D01*
X1116506Y790331D01*
X1116523Y790663D01*
X1116552Y790993D01*
X1116592Y791322D01*
X1116644Y791650D01*
X1116708Y791975D01*
X1116782Y792298D01*
X1116868Y792619D01*
X1116965Y792936D01*
X1117073Y793249D01*
X1117192Y793559D01*
X1117321Y793864D01*
X1117461Y794165D01*
X1117612Y794460D01*
X1117773Y794750D01*
X1117943Y795034D01*
X1118124Y795312D01*
X1118314Y795584D01*
X1118514Y795849D01*
X1118723Y796106D01*
X1118940Y796357D01*
X1119166Y796599D01*
X1119401Y796834D01*
X1119643Y797060D01*
X1119893Y797277D01*
X1120151Y797486D01*
X1120416Y797686D01*
X1120688Y797876D01*
X1120966Y798056D01*
X1121250Y798227D01*
X1121540Y798388D01*
X1121835Y798539D01*
X1122136Y798679D01*
X1122441Y798808D01*
X1122751Y798927D01*
X1123064Y799035D01*
X1123382Y799132D01*
X1123702Y799218D01*
X1124025Y799292D01*
X1124350Y799356D01*
X1124678Y799407D01*
X1125007Y799448D01*
X1125337Y799477D01*
X1125668Y799494D01*
X1126000Y799500D01*
X1126332Y799494D01*
X1126663Y799477D01*
X1126993Y799448D01*
X1127322Y799407D01*
X1127650Y799356D01*
X1127975Y799292D01*
X1128298Y799218D01*
X1128618Y799132D01*
X1128936Y799035D01*
X1129249Y798927D01*
X1129559Y798808D01*
X1129864Y798679D01*
X1130165Y798539D01*
X1130460Y798388D01*
X1130750Y798227D01*
X1131034Y798056D01*
X1131312Y797876D01*
X1131584Y797686D01*
X1131849Y797486D01*
X1132107Y797277D01*
X1132357Y797060D01*
X1132599Y796834D01*
X1132834Y796599D01*
X1133060Y796357D01*
X1133277Y796106D01*
X1133486Y795849D01*
X1133686Y795584D01*
X1133876Y795312D01*
X1134057Y795034D01*
X1134227Y794750D01*
X1134388Y794460D01*
X1134539Y794165D01*
X1134679Y793864D01*
X1134808Y793559D01*
X1134927Y793249D01*
X1135035Y792936D01*
X1135132Y792619D01*
X1135218Y792298D01*
X1135292Y791975D01*
X1135356Y791650D01*
X1135408Y791322D01*
X1135448Y790993D01*
X1135477Y790663D01*
X1135494Y790331D01*
X1135500Y790000D01*
X1117140Y773428D02*
X1117267Y773739D01*
X1117404Y774044D01*
X1117552Y774345D01*
X1117711Y774641D01*
X1117880Y774931D01*
X1118059Y775214D01*
X1118248Y775491D01*
X1118447Y775762D01*
X1118655Y776025D01*
X1118872Y776280D01*
X1119098Y776528D01*
X1119333Y776768D01*
X1119576Y776999D01*
X1119827Y777221D01*
X1120086Y777435D01*
X1120352Y777639D01*
X1120625Y777833D01*
X1120905Y778018D01*
X1121191Y778193D01*
X1121484Y778358D01*
X1121782Y778512D01*
X1122085Y778656D01*
X1122393Y778789D01*
X1122705Y778910D01*
X1123022Y779021D01*
X1123342Y779121D01*
X1123666Y779209D01*
X1123992Y779285D01*
X1124321Y779351D01*
X1124653Y779404D01*
X1124985Y779446D01*
X1125319Y779476D01*
X1125654Y779494D01*
X1125990Y779500D01*
X1126325Y779494D01*
X1126660Y779477D01*
X1126994Y779448D01*
X1127327Y779407D01*
X1127658Y779354D01*
X1127988Y779290D01*
X1128315Y779214D01*
X1128638Y779126D01*
X1128959Y779027D01*
X1129276Y778917D01*
X1129589Y778796D01*
X1129897Y778664D01*
X1130200Y778521D01*
X1130498Y778368D01*
X1130791Y778203D01*
X1131078Y778029D01*
X1131358Y777845D01*
X1131632Y777651D01*
X1131898Y777447D01*
X1132157Y777234D01*
X1132409Y777012D01*
X1132652Y776782D01*
X1132888Y776543D01*
X1133115Y776296D01*
X1133332Y776040D01*
X1133541Y775778D01*
X1133740Y775508D01*
X1133930Y775231D01*
X1134110Y774948D01*
X1134279Y774659D01*
X1134439Y774364D01*
X1134587Y774063D01*
X1134725Y773757D01*
X1134853Y773447D01*
X1134969Y773132D01*
X1135074Y772814D01*
X1135167Y772491D01*
X1135250Y772166D01*
X1135320Y771838D01*
X1135380Y771508D01*
X1135427Y771176D01*
X1135463Y770843D01*
X1135486Y770508D01*
X1135498Y770173D01*
X1135499Y769837D01*
X1135487Y769502D01*
X1135464Y769168D01*
X1135428Y768834D01*
X1135381Y768502D01*
X1135322Y768172D01*
X1135252Y767844D01*
X1135170Y767518D01*
X1135077Y767196D01*
X1134972Y766877D01*
X1134856Y766563D01*
X1134729Y766252D01*
X1134592Y765946D01*
X1134443Y765645D01*
X1134284Y765350D01*
X1134115Y765061D01*
X1133935Y764777D01*
X1133746Y764500D01*
X1133547Y764230D01*
X1133339Y763967D01*
X1133121Y763712D01*
X1132895Y763465D01*
X1132660Y763225D01*
X1132416Y762994D01*
X1132165Y762772D01*
X1131906Y762559D01*
X1131640Y762355D01*
X1131366Y762161D01*
X1131086Y761976D01*
X1130800Y761802D01*
X1130507Y761637D01*
X1130209Y761484D01*
X1129906Y761340D01*
X1129598Y761208D01*
X1129285Y761086D01*
X1128968Y760976D01*
X1128648Y760877D01*
X1128324Y760789D01*
X1127998Y760712D01*
X1127669Y760648D01*
X1127337Y760595D01*
X1127005Y760553D01*
X1126670Y760524D01*
X1126335Y760506D01*
X1126000Y760500D01*
X1118500Y722500D02*
X1118489Y722172D01*
X1118457Y721846D01*
X1118404Y721523D01*
X1118329Y721203D01*
X1118234Y720890D01*
X1118118Y720583D01*
X1117982Y720285D01*
X1117828Y719996D01*
X1117654Y719718D01*
X1117463Y719451D01*
X1117255Y719198D01*
X1117030Y718959D01*
X1117035Y718965D02*
X1117259Y719203D01*
X1117467Y719456D01*
X1117657Y719722D01*
X1117830Y720000D01*
X1117984Y720289D01*
X1118119Y720587D01*
X1118235Y720893D01*
X1118330Y721206D01*
X1118404Y721524D01*
X1118457Y721847D01*
X1118489Y722173D01*
X1118500Y722500D01*
X1126000Y740500D02*
X1125680Y740505D01*
X1125360Y740522D01*
X1125041Y740548D01*
X1124723Y740586D01*
X1124407Y740635D01*
X1124092Y740694D01*
X1123780Y740763D01*
X1123470Y740843D01*
X1123162Y740934D01*
X1122859Y741034D01*
X1122558Y741145D01*
X1122262Y741266D01*
X1121970Y741397D01*
X1121682Y741538D01*
X1121399Y741688D01*
X1121122Y741848D01*
X1120850Y742017D01*
X1120584Y742195D01*
X1120324Y742382D01*
X1120071Y742578D01*
X1119824Y742782D01*
X1119584Y742994D01*
X1119352Y743214D01*
X1119127Y743442D01*
X1118910Y743677D01*
X1118701Y743920D01*
X1118500Y744169D01*
X1126000Y740500D02*
X1126338Y740506D01*
X1126675Y740524D01*
X1127011Y740554D01*
X1127346Y740596D01*
X1127679Y740650D01*
X1128010Y740715D01*
X1128339Y740793D01*
X1128665Y740881D01*
X1128987Y740982D01*
X1129306Y741094D01*
X1129620Y741217D01*
X1129930Y741351D01*
X1130235Y741496D01*
X1130534Y741652D01*
X1130828Y741818D01*
X1131116Y741995D01*
X1131397Y742182D01*
X1131671Y742378D01*
X1131938Y742585D01*
X1132198Y742801D01*
X1132450Y743025D01*
X1132694Y743259D01*
X1132929Y743501D01*
X1133156Y743751D01*
X1133373Y744010D01*
X1133581Y744275D01*
X1133780Y744548D01*
X1133969Y744828D01*
X1134148Y745115D01*
X1134316Y745407D01*
X1134474Y745706D01*
X1134621Y746009D01*
X1134758Y746318D01*
X1134883Y746632D01*
X1134997Y746949D01*
X1135100Y747271D01*
X1135191Y747596D01*
X1135270Y747924D01*
X1135338Y748255D01*
X1135394Y748588D01*
X1135439Y748923D01*
X1135471Y749259D01*
X1135491Y749596D01*
X1135500Y749933D01*
X1135496Y750271D01*
X1135481Y750608D01*
X1135453Y750944D01*
X1135413Y751280D01*
X1135362Y751613D01*
X1135299Y751945D01*
X1135224Y752274D01*
X1135137Y752601D01*
X1135039Y752923D01*
X1134929Y753243D01*
X1134808Y753558D01*
X1134676Y753869D01*
X1134534Y754175D01*
X1134380Y754475D01*
X1134216Y754770D01*
X1134041Y755059D01*
X1133856Y755342D01*
X1133661Y755617D01*
X1133457Y755886D01*
X1133243Y756147D01*
X1133020Y756401D01*
X1132788Y756646D01*
X1132548Y756883D01*
X1132299Y757111D01*
X1132042Y757331D01*
X1131778Y757541D01*
X1131506Y757741D01*
X1131228Y757932D01*
X1130943Y758113D01*
X1130651Y758283D01*
X1130354Y758444D01*
X1130051Y758593D01*
X1129743Y758731D01*
X1129431Y758859D01*
X1129114Y758975D01*
X1128793Y759080D01*
X1128468Y759174D01*
X1128141Y759256D01*
X1127811Y759326D01*
X1127478Y759384D01*
X1127144Y759431D01*
X1126808Y759466D01*
X1126471Y759488D01*
X1126134Y759499D01*
X1125796Y759498D01*
X1125459Y759485D01*
X1125122Y759459D01*
X1124787Y759422D01*
X1124453Y759373D01*
X1124120Y759312D01*
X1123791Y759240D01*
X1123464Y759155D01*
X1123140Y759059D01*
X1122820Y758952D01*
X1122504Y758833D01*
X1122192Y758704D01*
X1121885Y758563D01*
X1121584Y758411D01*
X1121288Y758249D01*
X1120998Y758076D01*
X1120714Y757894D01*
X1120437Y757701D01*
X1120167Y757498D01*
X1119904Y757286D01*
X1119649Y757065D01*
X1119402Y756835D01*
X1119163Y756596D01*
X1118933Y756349D01*
X1118712Y756094D01*
X1118500Y755831D01*
X886730Y888227D02*
X886598Y888513D01*
X886461Y888797D01*
X886320Y889079D01*
X886175Y889359D01*
X886025Y889636D01*
X885872Y889911D01*
X885713Y890184D01*
X885550Y890454D01*
X885384Y890721D01*
X885213Y890986D01*
X885038Y891248D01*
X884858Y891507D01*
X884675Y891763D01*
X884487Y892017D01*
X884296Y892267D01*
X884101Y892515D01*
X883902Y892759D01*
X883699Y893000D01*
X886730Y888227D02*
X886881Y888526D01*
X887045Y888819D01*
X887222Y889104D01*
X887412Y889381D01*
X887614Y889648D01*
X887828Y889907D01*
X888053Y890156D01*
X888289Y890394D01*
X888536Y890622D01*
X888792Y890838D01*
X889058Y891043D01*
X889333Y891236D01*
X889616Y891416D01*
X889907Y891583D01*
X890205Y891737D01*
X890509Y891878D01*
X890820Y892005D01*
X891136Y892118D01*
X891457Y892216D01*
X891782Y892300D01*
X892110Y892370D01*
X892441Y892425D01*
X892774Y892465D01*
X893108Y892490D01*
X893444Y892500D01*
X893779Y892495D01*
X894114Y892475D01*
X894448Y892440D01*
X894780Y892390D01*
X895109Y892325D01*
X895435Y892246D01*
X895757Y892152D01*
X896075Y892044D01*
X896388Y891922D01*
X896694Y891786D01*
X896994Y891636D01*
X897288Y891473D01*
X897574Y891297D01*
X897851Y891109D01*
X898120Y890908D01*
X898380Y890695D01*
X898630Y890472D01*
X898869Y890237D01*
X899098Y889991D01*
X899316Y889736D01*
X899522Y889471D01*
X899716Y889197D01*
X899897Y888915D01*
X900066Y888625D01*
X900221Y888328D01*
X900364Y888024D01*
X900492Y887714D01*
X900606Y887398D01*
X900706Y887078D01*
X900792Y886754D01*
X900863Y886426D01*
X900920Y886095D01*
X900961Y885762D01*
X900988Y885427D01*
X900999Y885092D01*
X900996Y884757D01*
X900978Y884422D01*
X900944Y884088D01*
X900896Y883756D01*
X900833Y883426D01*
X900755Y883100D01*
X900663Y882777D01*
X900556Y882459D01*
X900436Y882146D01*
X900301Y881839D01*
X900153Y881538D01*
X899991Y881243D01*
X899817Y880957D01*
X899630Y880678D01*
X899430Y880408D01*
X899219Y880148D01*
X898996Y879897D01*
X898762Y879656D01*
X898518Y879426D01*
X898264Y879207D01*
X898000Y879000D01*
X886007Y870331D02*
X885841Y870036D01*
X885670Y869744D01*
X885494Y869455D01*
X885313Y869169D01*
X885127Y868886D01*
X884937Y868606D01*
X884742Y868329D01*
X884542Y868056D01*
X884338Y867786D01*
X884129Y867520D01*
X883915Y867257D01*
X883697Y866998D01*
X883475Y866743D01*
X883249Y866492D01*
X883018Y866244D01*
X882783Y866000D01*
X882544Y865760D01*
X882301Y865525D01*
X882054Y865293D01*
X881803Y865066D01*
X881549Y864843D01*
X881290Y864625D01*
X881028Y864410D01*
X880763Y864200D01*
X880494Y863995D01*
X880221Y863794D01*
X879945Y863599D01*
X879666Y863407D01*
X879383Y863221D01*
X879098Y863039D01*
X878809Y862862D01*
X878518Y862690D01*
X878224Y862523D01*
X877926Y862361D01*
X877626Y862204D01*
X877324Y862052D01*
X877019Y861905D01*
X876712Y861764D01*
X876402Y861627D01*
X876090Y861496D01*
X875775Y861370D01*
X875459Y861250D01*
X875141Y861135D01*
X874821Y861025D01*
X874499Y860921D01*
X874175Y860822D01*
X873850Y860729D01*
X873523Y860641D01*
X873194Y860559D01*
X872865Y860482D01*
X872534Y860411D01*
X872202Y860346D01*
X871869Y860286D01*
X871534Y860232D01*
X871200Y860183D01*
X870864Y860140D01*
X870527Y860103D01*
X870190Y860072D01*
X869853Y860046D01*
X869515Y860026D01*
X869177Y860011D01*
X868839Y860003D01*
X868500Y860000D01*
X886007Y870331D02*
X886000Y869994D01*
X886008Y869658D01*
X886031Y869323D01*
X886069Y868988D01*
X886121Y868656D01*
X886189Y868326D01*
X886272Y868000D01*
X886368Y867678D01*
X886480Y867361D01*
X886605Y867049D01*
X886744Y866742D01*
X886897Y866443D01*
X887064Y866150D01*
X887243Y865865D01*
X887434Y865589D01*
X887638Y865321D01*
X887854Y865063D01*
X888081Y864815D01*
X888319Y864577D01*
X888567Y864350D01*
X888826Y864135D01*
X889093Y863931D01*
X889370Y863740D01*
X889655Y863561D01*
X889948Y863395D01*
X890247Y863242D01*
X890554Y863103D01*
X890866Y862978D01*
X891183Y862867D01*
X891506Y862770D01*
X891832Y862688D01*
X892161Y862620D01*
X892494Y862568D01*
X892828Y862530D01*
X893164Y862508D01*
X893500Y862500D01*
X893829Y862507D01*
X894157Y862529D01*
X894483Y862565D01*
X894808Y862615D01*
X895130Y862679D01*
X895450Y862758D01*
X895765Y862850D01*
X896076Y862956D01*
X896382Y863076D01*
X896683Y863209D01*
X896977Y863355D01*
X897265Y863514D01*
X897546Y863685D01*
X897818Y863868D01*
X898083Y864063D01*
X898339Y864270D01*
X898585Y864487D01*
X898822Y864715D01*
X899048Y864953D01*
X899264Y865201D01*
X899469Y865458D01*
X899662Y865724D01*
X899843Y865998D01*
X900012Y866280D01*
X900169Y866569D01*
X900313Y866865D01*
X900444Y867166D01*
X900561Y867473D01*
X900665Y867785D01*
X900756Y868101D01*
X900832Y868420D01*
X900894Y868743D01*
X900942Y869068D01*
X900976Y869395D01*
X900995Y869724D01*
X901000Y870052D01*
X900990Y870381D01*
X900967Y870708D01*
X900928Y871035D01*
X900876Y871359D01*
X900809Y871681D01*
X900728Y872000D01*
X900634Y872315D01*
X900526Y872625D01*
X900404Y872930D01*
X900269Y873230D01*
X900121Y873523D01*
X899960Y873810D01*
X899787Y874089D01*
X899602Y874361D01*
X899405Y874624D01*
X899197Y874878D01*
X898977Y875123D01*
X898748Y875358D01*
X898508Y875583D01*
X898258Y875797D01*
X898000Y876000D01*
X868500Y860000D02*
X868163Y860003D01*
X867826Y860011D01*
X867490Y860025D01*
X867153Y860045D01*
X866817Y860071D01*
X866482Y860102D01*
X866147Y860139D01*
X865813Y860181D01*
X865479Y860230D01*
X865147Y860283D01*
X864815Y860342D01*
X864484Y860407D01*
X864155Y860478D01*
X863826Y860554D01*
X863500Y860635D01*
X863174Y860722D01*
X862850Y860815D01*
X862527Y860913D01*
X862207Y861016D01*
X861888Y861125D01*
X861571Y861239D01*
X861256Y861358D01*
X860943Y861483D01*
X860632Y861613D01*
X860323Y861748D01*
X860017Y861888D01*
X859713Y862034D01*
X859412Y862184D01*
X859113Y862340D01*
X858817Y862500D01*
X858523Y862666D01*
X858233Y862837D01*
X857945Y863012D01*
X857660Y863192D01*
X857378Y863377D01*
X857100Y863567D01*
X856825Y863761D01*
X856553Y863960D01*
X856284Y864164D01*
X856019Y864372D01*
X855758Y864584D01*
X855500Y864801D01*
X874818Y853682D02*
X875033Y853883D01*
X875261Y854070D01*
X875500Y854242D01*
X875750Y854397D01*
X876010Y854536D01*
X876278Y854658D01*
X876553Y854761D01*
X876835Y854847D01*
X877122Y854914D01*
X877413Y854961D01*
X877706Y854990D01*
X878000Y855000D01*
X877706Y854990D01*
X877412Y854961D01*
X877122Y854913D01*
X876834Y854847D01*
X876552Y854761D01*
X876277Y854657D01*
X876008Y854535D01*
X875749Y854396D01*
X875498Y854241D01*
X875259Y854069D01*
X875031Y853882D01*
X874816Y853680D01*
X872820Y851684D02*
X872708Y851568D01*
X872601Y851449D01*
X872497Y851325D01*
X872600Y851448D01*
X872707Y851567D01*
X872818Y851682D01*
X921000Y885000D02*
X920992Y884666D01*
X920970Y884333D01*
X920933Y884000D01*
X920881Y883670D01*
X920815Y883343D01*
X920733Y883018D01*
X920638Y882698D01*
X920528Y882383D01*
X920405Y882072D01*
X920268Y881767D01*
X920117Y881469D01*
X919953Y881178D01*
X919776Y880894D01*
X919587Y880619D01*
X919386Y880352D01*
X919173Y880094D01*
X918949Y879846D01*
X918714Y879609D01*
X918469Y879382D01*
X918213Y879166D01*
X917949Y878962D01*
X917675Y878770D01*
X917394Y878590D01*
X917104Y878423D01*
X916808Y878269D01*
X916505Y878128D01*
X916196Y878001D01*
X915881Y877888D01*
X915562Y877789D01*
X915239Y877704D01*
X914912Y877634D01*
X914582Y877578D01*
X914251Y877538D01*
X913917Y877512D01*
X913583Y877500D01*
X913249Y877504D01*
X912916Y877523D01*
X912583Y877556D01*
X912252Y877605D01*
X911924Y877667D01*
X911599Y877745D01*
X911278Y877837D01*
X910961Y877943D01*
X910649Y878063D01*
X910343Y878197D01*
X910043Y878344D01*
X909750Y878505D01*
X909464Y878678D01*
X909187Y878864D01*
X908918Y879063D01*
X908658Y879273D01*
X908408Y879494D01*
X908167Y879726D01*
X907938Y879969D01*
X907719Y880222D01*
X907512Y880484D01*
X907317Y880755D01*
X907134Y881035D01*
X906963Y881323D01*
X906806Y881617D01*
X906662Y881919D01*
X906532Y882227D01*
X906415Y882540D01*
X906312Y882858D01*
X906224Y883180D01*
X906150Y883506D01*
X906091Y883835D01*
X906047Y884166D01*
X906017Y884499D01*
X906002Y884833D01*
Y885167D01*
X906017Y885501D01*
X906047Y885834D01*
X906091Y886165D01*
X906150Y886494D01*
X906224Y886820D01*
X906312Y887142D01*
X906415Y887460D01*
X906532Y887773D01*
X906662Y888081D01*
X906806Y888383D01*
X906963Y888677D01*
X907134Y888965D01*
X907317Y889245D01*
X907512Y889516D01*
X907719Y889778D01*
X907938Y890031D01*
X908167Y890274D01*
X908408Y890506D01*
X908658Y890727D01*
X908918Y890937D01*
X909187Y891136D01*
X909464Y891322D01*
X909750Y891495D01*
X910043Y891656D01*
X910343Y891803D01*
X910649Y891937D01*
X910961Y892057D01*
X911278Y892163D01*
X911599Y892255D01*
X911924Y892333D01*
X912252Y892395D01*
X912583Y892444D01*
X912916Y892477D01*
X913249Y892496D01*
X913583Y892500D01*
X913917Y892488D01*
X914251Y892462D01*
X914582Y892422D01*
X914912Y892366D01*
X915239Y892296D01*
X915562Y892211D01*
X915881Y892112D01*
X916196Y891999D01*
X916505Y891872D01*
X916808Y891731D01*
X917104Y891577D01*
X917394Y891410D01*
X917675Y891230D01*
X917949Y891038D01*
X918213Y890834D01*
X918469Y890618D01*
X918714Y890391D01*
X918949Y890154D01*
X919173Y889906D01*
X919386Y889648D01*
X919587Y889381D01*
X919776Y889106D01*
X919953Y888822D01*
X920117Y888531D01*
X920268Y888233D01*
X920405Y887928D01*
X920528Y887617D01*
X920638Y887302D01*
X920733Y886982D01*
X920815Y886657D01*
X920881Y886330D01*
X920933Y886000D01*
X920970Y885667D01*
X920992Y885334D01*
X921000Y885000D01*
X908684Y853680D02*
X908469Y853882D01*
X908241Y854069D01*
X908002Y854241D01*
X907751Y854396D01*
X907492Y854535D01*
X907223Y854657D01*
X906948Y854761D01*
X906666Y854847D01*
X906378Y854913D01*
X906088Y854961D01*
X905794Y854990D01*
X905500Y855000D01*
X905794Y854990D01*
X906087Y854961D01*
X906378Y854914D01*
X906665Y854847D01*
X906947Y854761D01*
X907222Y854658D01*
X907490Y854536D01*
X907750Y854397D01*
X908000Y854242D01*
X908239Y854070D01*
X908467Y853883D01*
X908682Y853682D01*
X941000Y870000D02*
X940992Y869666D01*
X940970Y869333D01*
X940933Y869000D01*
X940881Y868670D01*
X940815Y868343D01*
X940733Y868018D01*
X940638Y867698D01*
X940528Y867383D01*
X940405Y867072D01*
X940268Y866767D01*
X940117Y866469D01*
X939953Y866178D01*
X939776Y865894D01*
X939587Y865619D01*
X939386Y865352D01*
X939173Y865094D01*
X938949Y864846D01*
X938714Y864609D01*
X938469Y864382D01*
X938213Y864166D01*
X937949Y863962D01*
X937675Y863770D01*
X937394Y863590D01*
X937104Y863423D01*
X936808Y863269D01*
X936505Y863128D01*
X936196Y863001D01*
X935881Y862888D01*
X935562Y862789D01*
X935239Y862704D01*
X934912Y862634D01*
X934582Y862578D01*
X934251Y862538D01*
X933917Y862512D01*
X933583Y862500D01*
X933249Y862504D01*
X932916Y862523D01*
X932583Y862556D01*
X932252Y862605D01*
X931924Y862667D01*
X931599Y862745D01*
X931278Y862837D01*
X930961Y862943D01*
X930649Y863063D01*
X930343Y863197D01*
X930043Y863344D01*
X929750Y863505D01*
X929464Y863678D01*
X929187Y863864D01*
X928918Y864063D01*
X928658Y864273D01*
X928408Y864494D01*
X928167Y864726D01*
X927938Y864969D01*
X927719Y865222D01*
X927512Y865484D01*
X927317Y865755D01*
X927134Y866035D01*
X926963Y866323D01*
X926806Y866617D01*
X926662Y866919D01*
X926532Y867227D01*
X926415Y867540D01*
X926312Y867858D01*
X926224Y868180D01*
X926150Y868506D01*
X926091Y868835D01*
X926047Y869166D01*
X926017Y869499D01*
X926002Y869833D01*
Y870167D01*
X926017Y870501D01*
X926047Y870834D01*
X926091Y871165D01*
X926150Y871494D01*
X926224Y871820D01*
X926312Y872142D01*
X926415Y872460D01*
X926532Y872773D01*
X926662Y873081D01*
X926806Y873383D01*
X926963Y873677D01*
X927134Y873965D01*
X927317Y874245D01*
X927512Y874516D01*
X927719Y874778D01*
X927938Y875031D01*
X928167Y875274D01*
X928408Y875506D01*
X928658Y875727D01*
X928918Y875937D01*
X929187Y876136D01*
X929464Y876322D01*
X929750Y876495D01*
X930043Y876656D01*
X930343Y876803D01*
X930649Y876937D01*
X930961Y877057D01*
X931278Y877163D01*
X931599Y877255D01*
X931924Y877333D01*
X932252Y877395D01*
X932583Y877444D01*
X932916Y877477D01*
X933249Y877496D01*
X933583Y877500D01*
X933917Y877488D01*
X934251Y877462D01*
X934582Y877422D01*
X934912Y877366D01*
X935239Y877296D01*
X935562Y877211D01*
X935881Y877112D01*
X936196Y876999D01*
X936505Y876872D01*
X936808Y876731D01*
X937104Y876577D01*
X937394Y876410D01*
X937675Y876230D01*
X937949Y876038D01*
X938213Y875834D01*
X938469Y875618D01*
X938714Y875391D01*
X938949Y875154D01*
X939173Y874906D01*
X939386Y874648D01*
X939587Y874381D01*
X939776Y874106D01*
X939953Y873822D01*
X940117Y873531D01*
X940268Y873233D01*
X940405Y872928D01*
X940528Y872617D01*
X940638Y872302D01*
X940733Y871982D01*
X940815Y871657D01*
X940881Y871330D01*
X940933Y871000D01*
X940970Y870667D01*
X940992Y870334D01*
X941000Y870000D01*
X856818Y837182D02*
X856617Y836967D01*
X856430Y836739D01*
X856258Y836500D01*
X856103Y836250D01*
X855964Y835990D01*
X855842Y835722D01*
X855739Y835447D01*
X855653Y835165D01*
X855586Y834878D01*
X855539Y834587D01*
X855510Y834294D01*
X855500Y834000D01*
X855510Y834294D01*
X855539Y834588D01*
X855587Y834878D01*
X855653Y835166D01*
X855739Y835448D01*
X855843Y835723D01*
X855965Y835992D01*
X856104Y836251D01*
X856259Y836502D01*
X856431Y836741D01*
X856618Y836969D01*
X856820Y837184D01*
X864501Y844865D02*
X864503Y845195D01*
X864521Y845523D01*
X864556Y845851D01*
X864607Y846176D01*
X864675Y846498D01*
X864759Y846817D01*
X864859Y847131D01*
X864975Y847439D01*
X865106Y847741D01*
X865252Y848036D01*
X865414Y848323D01*
X865589Y848602D01*
X865778Y848871D01*
X865981Y849131D01*
X866197Y849379D01*
X866425Y849617D01*
X866664Y849843D01*
X866915Y850056D01*
X867176Y850257D01*
X867448Y850443D01*
X867728Y850616D01*
X868017Y850775D01*
X868313Y850918D01*
X868616Y851047D01*
X868925Y851160D01*
X869240Y851257D01*
X869559Y851338D01*
X869882Y851403D01*
X870208Y851451D01*
X870535Y851483D01*
X870864Y851499D01*
X871194Y851497D01*
X871522Y851479D01*
X871850Y851444D01*
X872175Y851393D01*
X872497Y851325D01*
X931000Y852500D02*
X930992Y852166D01*
X930970Y851833D01*
X930933Y851500D01*
X930881Y851170D01*
X930815Y850843D01*
X930733Y850518D01*
X930638Y850198D01*
X930528Y849883D01*
X930405Y849572D01*
X930268Y849267D01*
X930117Y848969D01*
X929953Y848678D01*
X929776Y848394D01*
X929587Y848119D01*
X929386Y847852D01*
X929173Y847594D01*
X928949Y847346D01*
X928714Y847109D01*
X928469Y846882D01*
X928213Y846666D01*
X927949Y846462D01*
X927675Y846270D01*
X927394Y846090D01*
X927104Y845923D01*
X926808Y845769D01*
X926505Y845628D01*
X926196Y845501D01*
X925881Y845388D01*
X925562Y845289D01*
X925239Y845204D01*
X924912Y845134D01*
X924582Y845078D01*
X924251Y845038D01*
X923917Y845012D01*
X923583Y845000D01*
X923249Y845004D01*
X922916Y845023D01*
X922583Y845056D01*
X922252Y845105D01*
X921924Y845167D01*
X921599Y845245D01*
X921278Y845337D01*
X920961Y845443D01*
X920649Y845563D01*
X920343Y845697D01*
X920043Y845844D01*
X919750Y846005D01*
X919464Y846178D01*
X919187Y846364D01*
X918918Y846563D01*
X918658Y846773D01*
X918408Y846994D01*
X918167Y847226D01*
X917938Y847469D01*
X917719Y847722D01*
X917512Y847984D01*
X917317Y848255D01*
X917134Y848535D01*
X916963Y848823D01*
X916806Y849117D01*
X916662Y849419D01*
X916532Y849727D01*
X916415Y850040D01*
X916312Y850358D01*
X916224Y850680D01*
X916150Y851006D01*
X916091Y851335D01*
X916047Y851666D01*
X916017Y851999D01*
X916002Y852333D01*
Y852667D01*
X916017Y853001D01*
X916047Y853334D01*
X916091Y853665D01*
X916150Y853994D01*
X916224Y854320D01*
X916312Y854642D01*
X916415Y854960D01*
X916532Y855273D01*
X916662Y855581D01*
X916806Y855883D01*
X916963Y856177D01*
X917134Y856465D01*
X917317Y856745D01*
X917512Y857016D01*
X917719Y857278D01*
X917938Y857531D01*
X918167Y857774D01*
X918408Y858006D01*
X918658Y858227D01*
X918918Y858437D01*
X919187Y858636D01*
X919464Y858822D01*
X919750Y858995D01*
X920043Y859156D01*
X920343Y859303D01*
X920649Y859437D01*
X920961Y859557D01*
X921278Y859663D01*
X921599Y859755D01*
X921924Y859833D01*
X922252Y859895D01*
X922583Y859944D01*
X922916Y859977D01*
X923249Y859996D01*
X923583Y860000D01*
X923917Y859988D01*
X924251Y859962D01*
X924582Y859922D01*
X924912Y859866D01*
X925239Y859796D01*
X925562Y859711D01*
X925881Y859612D01*
X926196Y859499D01*
X926505Y859372D01*
X926808Y859231D01*
X927104Y859077D01*
X927394Y858910D01*
X927675Y858730D01*
X927949Y858538D01*
X928213Y858334D01*
X928469Y858118D01*
X928714Y857891D01*
X928949Y857654D01*
X929173Y857406D01*
X929386Y857148D01*
X929587Y856881D01*
X929776Y856606D01*
X929953Y856322D01*
X930117Y856031D01*
X930268Y855733D01*
X930405Y855428D01*
X930528Y855117D01*
X930638Y854802D01*
X930733Y854482D01*
X930815Y854157D01*
X930881Y853830D01*
X930933Y853500D01*
X930970Y853167D01*
X930992Y852834D01*
X931000Y852500D01*
X922439Y839925D02*
X922769Y839964D01*
X923100Y839989D01*
X923432Y840000D01*
X923763Y839995D01*
X924095Y839976D01*
X924425Y839943D01*
X924753Y839894D01*
X925079Y839832D01*
X925402Y839755D01*
X925721Y839664D01*
X926036Y839558D01*
X926346Y839439D01*
X926650Y839307D01*
X926948Y839160D01*
X927239Y839001D01*
X927523Y838830D01*
X927799Y838645D01*
X928067Y838449D01*
X928325Y838242D01*
X928575Y838022D01*
X928814Y837792D01*
X929043Y837552D01*
X929261Y837302D01*
X929468Y837042D01*
X929663Y836774D01*
X929846Y836497D01*
X930017Y836212D01*
X930175Y835920D01*
X930319Y835622D01*
X930451Y835317D01*
X930569Y835007D01*
X930673Y834692D01*
X930763Y834372D01*
X930838Y834049D01*
X930900Y833723D01*
X930947Y833394D01*
X930979Y833064D01*
X930996Y832733D01*
X930999Y832401D01*
X930988Y832069D01*
X930961Y831738D01*
X930920Y831409D01*
X930865Y831082D01*
X930795Y830757D01*
X930710Y830436D01*
X930612Y830119D01*
X930500Y829807D01*
X930374Y829500D01*
X951000Y873347D02*
X950790Y873614D01*
X950593Y873892D01*
X950412Y874180D01*
X950246Y874477D01*
X950095Y874782D01*
X949961Y875095D01*
X949844Y875414D01*
X949743Y875739D01*
X949659Y876069D01*
X949593Y876403D01*
X949545Y876740D01*
X949514Y877079D01*
X949500Y877419D01*
X949505Y877759D01*
X949528Y878099D01*
X949568Y878437D01*
X949626Y878772D01*
X949701Y879104D01*
X949793Y879431D01*
X949903Y879753D01*
X950029Y880069D01*
X950172Y880378D01*
X950331Y880680D01*
X950505Y880972D01*
X950694Y881255D01*
X950898Y881527D01*
X951116Y881789D01*
X951347Y882039D01*
X951591Y882276D01*
X951847Y882500D01*
X952114Y882710D01*
X952392Y882907D01*
X952680Y883088D01*
X952977Y883254D01*
X953282Y883405D01*
X953595Y883539D01*
X953914Y883656D01*
X954239Y883757D01*
X954569Y883841D01*
X954903Y883907D01*
X955240Y883955D01*
X955579Y883986D01*
X955919Y884000D01*
X956259Y883995D01*
X956599Y883972D01*
X956937Y883932D01*
X957272Y883874D01*
X957604Y883799D01*
X957931Y883707D01*
X958253Y883597D01*
X958569Y883471D01*
X958878Y883328D01*
X959180Y883169D01*
X959472Y882995D01*
X959755Y882806D01*
X960027Y882602D01*
X960289Y882384D01*
X960539Y882153D01*
X960776Y881909D01*
X961000Y881653D01*
X961224Y881909D01*
X961461Y882153D01*
X961711Y882384D01*
X961973Y882602D01*
X962245Y882806D01*
X962528Y882995D01*
X962820Y883169D01*
X963122Y883328D01*
X963431Y883471D01*
X963747Y883597D01*
X964069Y883707D01*
X964396Y883799D01*
X964728Y883874D01*
X965063Y883932D01*
X965401Y883972D01*
X965741Y883995D01*
X966081Y884000D01*
X966421Y883986D01*
X966760Y883955D01*
X967097Y883907D01*
X967431Y883841D01*
X967761Y883757D01*
X968086Y883656D01*
X968405Y883539D01*
X968718Y883405D01*
X969023Y883254D01*
X969320Y883088D01*
X969608Y882907D01*
X969886Y882710D01*
X970153Y882500D01*
X951000Y867000D02*
X951011Y866672D01*
X951043Y866346D01*
X951096Y866023D01*
X951171Y865703D01*
X951266Y865390D01*
X951382Y865083D01*
X951518Y864785D01*
X951672Y864496D01*
X951846Y864217D01*
X952037Y863951D01*
X952245Y863698D01*
X952470Y863459D01*
X952465Y863465D02*
X952241Y863703D01*
X952033Y863956D01*
X951843Y864222D01*
X951670Y864500D01*
X951516Y864789D01*
X951381Y865087D01*
X951265Y865393D01*
X951170Y865706D01*
X951096Y866025D01*
X951043Y866347D01*
X951011Y866673D01*
X951000Y867000D01*
X954000Y858428D02*
X953676Y858374D01*
X953356Y858304D01*
X953039Y858220D01*
X952726Y858120D01*
X952418Y858007D01*
X952116Y857878D01*
X951820Y857736D01*
X951532Y857580D01*
X951250Y857411D01*
X950977Y857229D01*
X950713Y857034D01*
X950459Y856827D01*
X950214Y856608D01*
X949980Y856378D01*
X949757Y856138D01*
X949545Y855887D01*
X949346Y855626D01*
X949158Y855357D01*
X948984Y855079D01*
X948823Y854793D01*
X948675Y854500D01*
X979530Y863459D02*
X979755Y863698D01*
X979963Y863951D01*
X980154Y864217D01*
X980328Y864496D01*
X980482Y864785D01*
X980618Y865083D01*
X980734Y865390D01*
X980829Y865703D01*
X980904Y866023D01*
X980957Y866346D01*
X980989Y866672D01*
X981000Y867000D01*
Y873347D02*
X981209Y873612D01*
X981403Y873887D01*
X981583Y874172D01*
X981748Y874466D01*
X981898Y874768D01*
X982032Y875078D01*
X982149Y875394D01*
X982250Y875715D01*
X982334Y876042D01*
X982401Y876372D01*
X982451Y876706D01*
X982484Y877041D01*
X982499Y877378D01*
X982496Y877715D01*
X982476Y878052D01*
X982439Y878387D01*
X982384Y878720D01*
X982313Y879049D01*
X982224Y879375D01*
X982118Y879695D01*
X981996Y880009D01*
X981858Y880317D01*
X981704Y880617D01*
X981535Y880908D01*
X981351Y881191D01*
X981152Y881463D01*
X980940Y881725D01*
X980714Y881975D01*
X980475Y882214D01*
X980225Y882440D01*
X979963Y882652D01*
X979691Y882851D01*
X979408Y883035D01*
X979117Y883204D01*
X978817Y883358D01*
X978509Y883496D01*
X978195Y883618D01*
X977875Y883724D01*
X977549Y883813D01*
X977220Y883884D01*
X976887Y883939D01*
X976552Y883976D01*
X976215Y883996D01*
X975878Y883999D01*
X975541Y883984D01*
X975206Y883951D01*
X974872Y883901D01*
X974542Y883834D01*
X974215Y883750D01*
X973894Y883649D01*
X973578Y883532D01*
X973268Y883398D01*
X972966Y883248D01*
X972672Y883083D01*
X972387Y882903D01*
X972112Y882709D01*
X971847Y882500D01*
X981000Y867000D02*
X980989Y866673D01*
X980957Y866347D01*
X980904Y866025D01*
X980830Y865706D01*
X980735Y865393D01*
X980619Y865087D01*
X980484Y864789D01*
X980330Y864500D01*
X980157Y864222D01*
X979967Y863956D01*
X979759Y863703D01*
X979535Y863465D01*
X978000Y858428D02*
X978363Y858366D01*
X978723Y858285D01*
X979077Y858185D01*
X979426Y858066D01*
X979768Y857929D01*
X980103Y857775D01*
X980429Y857603D01*
X980745Y857414D01*
X981051Y857208D01*
X981346Y856987D01*
X981629Y856751D01*
X981899Y856500D01*
X982000D02*
X982328Y856489D01*
X982654Y856457D01*
X982977Y856404D01*
X983297Y856329D01*
X983610Y856234D01*
X983917Y856118D01*
X984215Y855982D01*
X984504Y855828D01*
X984783Y855654D01*
X985049Y855463D01*
X985302Y855255D01*
X985541Y855030D01*
X985535Y855035D02*
X985297Y855259D01*
X985044Y855467D01*
X984778Y855657D01*
X984500Y855830D01*
X984211Y855984D01*
X983913Y856119D01*
X983607Y856235D01*
X983294Y856330D01*
X982975Y856404D01*
X982653Y856457D01*
X982327Y856489D01*
X982000Y856500D01*
X991000Y859500D02*
X991011Y859172D01*
X991043Y858846D01*
X991096Y858523D01*
X991171Y858203D01*
X991266Y857890D01*
X991382Y857583D01*
X991518Y857285D01*
X991672Y856996D01*
X991846Y856717D01*
X992037Y856451D01*
X992245Y856198D01*
X992470Y855959D01*
X992465Y855965D02*
X992241Y856203D01*
X992033Y856456D01*
X991843Y856722D01*
X991670Y857000D01*
X991516Y857289D01*
X991381Y857587D01*
X991265Y857893D01*
X991170Y858206D01*
X991096Y858525D01*
X991043Y858847D01*
X991011Y859173D01*
X991000Y859500D01*
X949500Y828500D02*
X949173Y828511D01*
X948847Y828543D01*
X948525Y828596D01*
X948206Y828670D01*
X947893Y828765D01*
X947587Y828881D01*
X947289Y829016D01*
X947000Y829170D01*
X946722Y829343D01*
X946456Y829533D01*
X946203Y829741D01*
X945965Y829965D01*
X945959Y829970D02*
X946198Y829745D01*
X946451Y829537D01*
X946717Y829346D01*
X946996Y829172D01*
X947285Y829018D01*
X947583Y828882D01*
X947890Y828766D01*
X948203Y828671D01*
X948523Y828596D01*
X948846Y828543D01*
X949172Y828511D01*
X949500Y828500D01*
X943684Y828180D02*
X943469Y828382D01*
X943241Y828569D01*
X943002Y828741D01*
X942751Y828896D01*
X942492Y829035D01*
X942223Y829157D01*
X941948Y829261D01*
X941666Y829347D01*
X941378Y829413D01*
X941088Y829461D01*
X940794Y829490D01*
X940500Y829500D01*
X940794Y829490D01*
X941087Y829461D01*
X941378Y829414D01*
X941665Y829347D01*
X941947Y829261D01*
X942222Y829158D01*
X942490Y829036D01*
X942750Y828897D01*
X943000Y828742D01*
X943239Y828570D01*
X943467Y828383D01*
X943682Y828182D01*
X950101Y828500D02*
X950366Y828254D01*
X950643Y828021D01*
X950932Y827803D01*
X951232Y827601D01*
X951541Y827414D01*
X951860Y827244D01*
X952188Y827090D01*
X952523Y826953D01*
X952864Y826834D01*
X953211Y826732D01*
X953563Y826649D01*
X953919Y826584D01*
X954278Y826537D01*
X954638Y826509D01*
X955000Y826500D01*
X957000D02*
X957331Y826508D01*
X957662Y826531D01*
X957991Y826570D01*
X958318Y826625D01*
X958642Y826695D01*
X958962Y826781D01*
X959278Y826881D01*
X959589Y826996D01*
X959894Y827126D01*
X960192Y827270D01*
X960483Y827428D01*
X960767Y827600D01*
X961042Y827785D01*
X961308Y827983D01*
X961564Y828193D01*
X961688Y827969D01*
X961823Y827751D01*
X961969Y827541D01*
X962126Y827339D01*
X962293Y827144D01*
X962470Y826959D01*
X962465Y826965D02*
X962289Y827149D01*
X962123Y827342D01*
X961967Y827544D01*
X961822Y827753D01*
X961688Y827970D01*
X961564Y828193D01*
X951819Y822736D02*
X951608Y823019D01*
X951382Y823291D01*
X951142Y823550D01*
X950887Y823796D01*
X950620Y824027D01*
X950341Y824244D01*
X950050Y824445D01*
X949748Y824630D01*
X949438Y824798D01*
X949118Y824950D01*
X948790Y825083D01*
X948456Y825199D01*
X948116Y825296D01*
X947772Y825374D01*
X947423Y825434D01*
X947072Y825475D01*
X946719Y825496D01*
X946365Y825499D01*
X951819Y822736D02*
X952150Y822894D01*
X952489Y823034D01*
X952835Y823157D01*
X953187Y823261D01*
X953543Y823347D01*
X953904Y823414D01*
X954268Y823462D01*
X954633Y823490D01*
X955000Y823500D01*
X957000D02*
X957323Y823492D01*
X957646Y823470D01*
X957967Y823433D01*
X958286Y823381D01*
X958602Y823314D01*
X958915Y823233D01*
X959224Y823137D01*
X959528Y823028D01*
X959826Y822904D01*
X960119Y822767D01*
X960405Y822616D01*
X960684Y822452D01*
X960955Y822276D01*
X961217Y822087D01*
X961470Y821887D01*
X961714Y821675D01*
X961948Y821451D01*
X962171Y821218D01*
X962384Y820974D01*
X962584Y820721D01*
X962773Y820458D01*
X962950Y820188D01*
X963114Y819909D01*
X963265Y819623D01*
X963402Y819331D01*
X963526Y819032D01*
X963636Y818728D01*
X967965Y821465D02*
X968160Y821279D01*
X968366Y821104D01*
X968580Y820941D01*
X968803Y820790D01*
X969034Y820650D01*
X969272Y820524D01*
X969033Y820651D01*
X968801Y820791D01*
X968577Y820943D01*
X968362Y821108D01*
X968156Y821283D01*
X967959Y821470D01*
X969272Y820524D02*
X969087Y820246D01*
X968915Y819959D01*
X968756Y819665D01*
X968612Y819364D01*
X968483Y819056D01*
X968369Y818742D01*
X968269Y818423D01*
X968185Y818099D01*
X968117Y817772D01*
X968064Y817442D01*
X968027Y817110D01*
X968006Y816777D01*
X968000Y816443D01*
X968011Y816109D01*
X968038Y815776D01*
X968080Y815444D01*
X968138Y815115D01*
X968212Y814789D01*
X968302Y814467D01*
X968406Y814150D01*
X968526Y813838D01*
X856820Y796816D02*
X856618Y797031D01*
X856431Y797259D01*
X856259Y797498D01*
X856104Y797748D01*
X855965Y798008D01*
X855843Y798277D01*
X855739Y798552D01*
X855653Y798835D01*
X855587Y799122D01*
X855539Y799412D01*
X855510Y799706D01*
X855500Y800000D01*
X855510Y799706D01*
X855539Y799413D01*
X855586Y799122D01*
X855653Y798835D01*
X855739Y798553D01*
X855842Y798278D01*
X855964Y798010D01*
X856103Y797750D01*
X856258Y797500D01*
X856430Y797261D01*
X856617Y797033D01*
X856818Y796818D01*
X859986Y793650D02*
X859839Y793310D01*
X859718Y792960D01*
X859623Y792602D01*
X859555Y792238D01*
X859514Y791870D01*
X859500Y791500D01*
Y786500D02*
X859511Y786173D01*
X859543Y785847D01*
X859596Y785524D01*
X859670Y785206D01*
X859765Y784893D01*
X859881Y784587D01*
X860016Y784289D01*
X860170Y784000D01*
X860343Y783722D01*
X860533Y783456D01*
X860741Y783203D01*
X860965Y782965D01*
X861203Y782741D01*
X861456Y782533D01*
X861722Y782343D01*
X862000Y782170D01*
X862289Y782016D01*
X862587Y781881D01*
X862893Y781765D01*
X863206Y781670D01*
X863525Y781596D01*
X863847Y781543D01*
X864173Y781511D01*
X864500Y781500D01*
X879500D02*
X879827Y781511D01*
X880153Y781543D01*
X880475Y781596D01*
X880794Y781670D01*
X881107Y781765D01*
X881413Y781881D01*
X881711Y782016D01*
X882000Y782170D01*
X882278Y782343D01*
X882544Y782533D01*
X882797Y782741D01*
X883035Y782965D01*
X883259Y783203D01*
X883467Y783456D01*
X883657Y783722D01*
X883830Y784000D01*
X883984Y784289D01*
X884119Y784587D01*
X884235Y784893D01*
X884330Y785206D01*
X884404Y785524D01*
X884457Y785847D01*
X884489Y786173D01*
X884500Y786500D01*
X865320Y777184D02*
X865118Y776969D01*
X864931Y776741D01*
X864759Y776502D01*
X864604Y776252D01*
X864465Y775992D01*
X864343Y775723D01*
X864239Y775448D01*
X864153Y775165D01*
X864087Y774878D01*
X864039Y774588D01*
X864010Y774294D01*
X864000Y774000D01*
X864500Y781500D02*
X864791Y781509D01*
X865081Y781534D01*
X865368Y781576D01*
X865653Y781635D01*
X865934Y781710D01*
X866210Y781802D01*
X866480Y781909D01*
X866744Y782032D01*
X867000Y782170D01*
X865318Y777182D02*
X865117Y776967D01*
X864930Y776739D01*
X864758Y776500D01*
X864603Y776250D01*
X864464Y775990D01*
X864342Y775722D01*
X864239Y775447D01*
X864153Y775165D01*
X864086Y774878D01*
X864039Y774587D01*
X864010Y774294D01*
X864000Y774000D01*
X867000Y782170D02*
X867256Y782032D01*
X867520Y781909D01*
X867790Y781802D01*
X868066Y781710D01*
X868347Y781635D01*
X868632Y781576D01*
X868919Y781534D01*
X869209Y781509D01*
X869500Y781500D01*
X879000Y781525D02*
X879166Y781511D01*
X879333Y781503D01*
X879500Y781500D01*
X879000Y780000D02*
X878990Y779706D01*
X878961Y779412D01*
X878913Y779122D01*
X878847Y778835D01*
X878761Y778552D01*
X878657Y778277D01*
X878535Y778008D01*
X878396Y777748D01*
X878241Y777498D01*
X878069Y777259D01*
X877882Y777031D01*
X877680Y776816D01*
X873000Y760626D02*
X873317Y760496D01*
X873640Y760381D01*
X873968Y760281D01*
X874300Y760195D01*
X874636Y760125D01*
X874974Y760070D01*
X875315Y760031D01*
X875657Y760008D01*
X876000Y760000D01*
X876329Y760007D01*
X876658Y760029D01*
X876985Y760065D01*
X877310Y760115D01*
X877633Y760180D01*
X877952Y760259D01*
X878268Y760351D01*
X878580Y760457D01*
X878886Y760577D01*
X879187Y760711D01*
X879482Y760857D01*
X879770Y761016D01*
X880051Y761188D01*
X880324Y761372D01*
X880588Y761567D01*
X880844Y761774D01*
X881091Y761992D01*
X881327Y762221D01*
X881554Y762460D01*
X881770Y762708D01*
X881974Y762966D01*
X882168Y763233D01*
X882349Y763507D01*
X882518Y763790D01*
X882675Y764079D01*
X882818Y764375D01*
X882949Y764677D01*
X883066Y764985D01*
X883169Y765298D01*
X883259Y765614D01*
X883335Y765935D01*
X883396Y766258D01*
X883444Y766584D01*
X883477Y766911D01*
X883495Y767240D01*
X883500Y767569D01*
X883490Y767898D01*
X883465Y768226D01*
X883426Y768553D01*
X883372Y768877D01*
X883305Y769199D01*
X883223Y769518D01*
X883128Y769833D01*
X883019Y770144D01*
X882896Y770449D01*
X882760Y770749D01*
X882611Y771042D01*
X882449Y771329D01*
X882275Y771608D01*
X882089Y771880D01*
X881890Y772143D01*
X881681Y772397D01*
X881461Y772641D01*
X881230Y772876D01*
X880989Y773100D01*
X880739Y773313D01*
X880479Y773516D01*
X880211Y773706D01*
X879934Y773885D01*
X879650Y774052D01*
X879359Y774206D01*
X879062Y774346D01*
X878759Y774474D01*
X878450Y774589D01*
X878137Y774689D01*
X877819Y774776D01*
X877498Y774849D01*
X877175Y774907D01*
X876848Y774952D01*
X876521Y774982D01*
X876192Y774998D01*
X875863Y774999D01*
X877682Y776818D02*
X877883Y777033D01*
X878070Y777261D01*
X878242Y777500D01*
X878397Y777750D01*
X878536Y778010D01*
X878658Y778278D01*
X878761Y778553D01*
X878847Y778835D01*
X878914Y779122D01*
X878961Y779413D01*
X878990Y779706D01*
X879000Y780000D01*
X926000Y770500D02*
X925978Y770059D01*
X925914Y769622D01*
X925806Y769194D01*
X925877Y768855D01*
X925931Y768514D01*
X925970Y768170D01*
X925993Y767825D01*
X926000Y767479D01*
X925991Y767133D01*
X925966Y766788D01*
X925925Y766445D01*
X925869Y766104D01*
X925797Y765765D01*
X925709Y765431D01*
X925606Y765101D01*
X925488Y764776D01*
X925355Y764456D01*
X925207Y764144D01*
X925045Y763838D01*
X924869Y763540D01*
X924680Y763251D01*
X924478Y762970D01*
X924262Y762700D01*
X924035Y762439D01*
X923796Y762189D01*
X923545Y761951D01*
X923284Y761724D01*
X923013Y761510D01*
X922732Y761308D01*
X922442Y761119D01*
X922144Y760944D01*
X921838Y760784D01*
X921524Y760637D01*
X921205Y760505D01*
X920879Y760387D01*
X920549Y760285D01*
X920214Y760198D01*
X919876Y760127D01*
X919534Y760072D01*
X919191Y760032D01*
X918846Y760008D01*
X918500Y760000D01*
X925806Y769194D02*
X925914Y769622D01*
X925978Y770059D01*
X926000Y770500D01*
X864000Y744000D02*
X864010Y743706D01*
X864039Y743412D01*
X864087Y743122D01*
X864153Y742835D01*
X864239Y742552D01*
X864343Y742277D01*
X864465Y742008D01*
X864604Y741748D01*
X864759Y741498D01*
X864931Y741259D01*
X865118Y741031D01*
X865320Y740816D01*
X865318Y740818D02*
X865117Y741033D01*
X864930Y741261D01*
X864758Y741500D01*
X864603Y741750D01*
X864464Y742010D01*
X864342Y742278D01*
X864239Y742553D01*
X864153Y742835D01*
X864086Y743122D01*
X864039Y743413D01*
X864010Y743706D01*
X864000Y744000D01*
X873000Y754374D02*
X873310Y754501D01*
X873625Y754614D01*
X873945Y754713D01*
X874269Y754798D01*
X874597Y754868D01*
X874927Y754923D01*
X875260Y754963D01*
X875594Y754989D01*
X875929Y755000D01*
X876264Y754995D01*
X876598Y754976D01*
X876932Y754942D01*
X877263Y754893D01*
X877592Y754829D01*
X877917Y754751D01*
X878239Y754658D01*
X878557Y754551D01*
X878869Y754430D01*
X879176Y754294D01*
X879476Y754146D01*
X879769Y753984D01*
X880055Y753809D01*
X880333Y753622D01*
X880602Y753422D01*
X880862Y753211D01*
X881112Y752988D01*
X881352Y752754D01*
X881581Y752510D01*
X881799Y752256D01*
X882006Y751992D01*
X882200Y751720D01*
X882383Y751439D01*
X882552Y751150D01*
X882709Y750853D01*
X882852Y750550D01*
X882981Y750241D01*
X883097Y749927D01*
X883198Y749608D01*
X883285Y749284D01*
X883357Y748957D01*
X883415Y748627D01*
X883458Y748295D01*
X883486Y747961D01*
X883499Y747626D01*
X883497Y747291D01*
X883480Y746957D01*
X883449Y746623D01*
X883402Y746291D01*
X883341Y745962D01*
X883265Y745636D01*
X883174Y745313D01*
X883069Y744995D01*
X882950Y744682D01*
X882818Y744374D01*
X882671Y744073D01*
X882512Y743779D01*
X882339Y743491D01*
X882457Y743392D01*
X882572Y743288D01*
X882684Y743180D01*
X882682Y743182D02*
X882571Y743289D01*
X882457Y743392D01*
X882339Y743491D01*
X866262Y739874D02*
X865933Y739835D01*
X865606Y739790D01*
X865279Y739739D01*
X864953Y739683D01*
X864628Y739622D01*
X864304Y739555D01*
X863981Y739483D01*
X863659Y739405D01*
X863339Y739323D01*
X863020Y739235D01*
X862703Y739141D01*
X862387Y739043D01*
X862073Y738939D01*
X861760Y738830D01*
X861450Y738716D01*
X861141Y738597D01*
X860835Y738473D01*
X860530Y738344D01*
X860228Y738209D01*
X859928Y738070D01*
X859630Y737926D01*
X859335Y737777D01*
X859042Y737622D01*
X858752Y737464D01*
X858465Y737300D01*
X858180Y737132D01*
X857898Y736959D01*
X857619Y736781D01*
X857343Y736599D01*
X857070Y736412D01*
X856800Y736221D01*
X856533Y736025D01*
X856270Y735825D01*
X856010Y735620D01*
X855753Y735412D01*
X855500Y735199D01*
X892182Y733682D02*
X892383Y733467D01*
X892570Y733239D01*
X892742Y733000D01*
X892897Y732750D01*
X893036Y732490D01*
X893158Y732222D01*
X893261Y731947D01*
X893347Y731665D01*
X893414Y731378D01*
X893461Y731087D01*
X893490Y730794D01*
X893500Y730500D01*
X893490Y730794D01*
X893461Y731088D01*
X893413Y731378D01*
X893347Y731665D01*
X893261Y731948D01*
X893157Y732223D01*
X893035Y732492D01*
X892896Y732752D01*
X892741Y733002D01*
X892569Y733241D01*
X892382Y733469D01*
X892180Y733684D01*
X912000Y754000D02*
X911673Y754008D01*
X911346Y754033D01*
X911021Y754074D01*
X910699Y754132D01*
X910379Y754205D01*
X910064Y754295D01*
X909754Y754400D01*
X909450Y754521D01*
X909152Y754657D01*
X908861Y754808D01*
X908578Y754974D01*
X908304Y755153D01*
X908040Y755346D01*
X907785Y755552D01*
X907541Y755771D01*
X907308Y756001D01*
X907088Y756243D01*
X906879Y756496D01*
X906684Y756759D01*
X906502Y757032D01*
X906335Y757313D01*
X906182Y757603D01*
X906043Y757899D01*
X905919Y758203D01*
X905811Y758512D01*
X905719Y758826D01*
X905643Y759145D01*
X905583Y759467D01*
X905539Y759792D01*
X905511Y760118D01*
X905500Y760445D01*
X905506Y760773D01*
X905528Y761100D01*
X905566Y761425D01*
X905621Y761748D01*
X905692Y762068D01*
X905779Y762384D01*
X905882Y762695D01*
X906000Y763000D01*
X912500Y743000D02*
X912305Y743273D01*
X912122Y743554D01*
X911952Y743843D01*
X911795Y744140D01*
X911651Y744443D01*
X911522Y744752D01*
X911406Y745067D01*
X911304Y745387D01*
X911217Y745711D01*
X911144Y746038D01*
X911086Y746369D01*
X911043Y746701D01*
X911014Y747035D01*
X911001Y747371D01*
X911003Y747706D01*
X911020Y748041D01*
X911051Y748375D01*
X911098Y748707D01*
X911159Y749037D01*
X911235Y749364D01*
X911326Y749687D01*
X911431Y750006D01*
X911550Y750319D01*
X911683Y750627D01*
X911830Y750929D01*
X911990Y751224D01*
X912163Y751511D01*
X912349Y751790D01*
X912547Y752061D01*
X912756Y752323D01*
X912978Y752575D01*
X913210Y752817D01*
X913453Y753048D01*
X913707Y753268D01*
X913969Y753477D01*
X914241Y753673D01*
X914521Y753858D01*
X914810Y754029D01*
X915105Y754188D01*
X915408Y754333D01*
X915717Y754464D01*
X916031Y754582D01*
X916350Y754685D01*
X916673Y754774D01*
X917000Y754849D01*
X917331Y754908D01*
X917663Y754953D01*
X917997Y754983D01*
X918332Y754998D01*
X918668D01*
X919003Y754983D01*
X919337Y754953D01*
X919669Y754908D01*
X920000Y754849D01*
X920327Y754774D01*
X920650Y754685D01*
X920969Y754582D01*
X921283Y754464D01*
X921592Y754333D01*
X921895Y754188D01*
X922190Y754029D01*
X922479Y753858D01*
X922759Y753673D01*
X923031Y753477D01*
X923293Y753268D01*
X923547Y753048D01*
X923790Y752817D01*
X924022Y752575D01*
X924244Y752323D01*
X924453Y752061D01*
X924651Y751790D01*
X924837Y751511D01*
X925010Y751224D01*
X925170Y750929D01*
X925317Y750627D01*
X925450Y750319D01*
X925569Y750006D01*
X925674Y749687D01*
X925765Y749364D01*
X925841Y749037D01*
X925902Y748707D01*
X925949Y748375D01*
X925980Y748041D01*
X925997Y747706D01*
X925999Y747371D01*
X925986Y747035D01*
X925957Y746701D01*
X925914Y746369D01*
X925856Y746038D01*
X925783Y745711D01*
X925696Y745387D01*
X925594Y745067D01*
X925478Y744752D01*
X925349Y744443D01*
X925205Y744140D01*
X925048Y743843D01*
X924878Y743554D01*
X924695Y743273D01*
X924500Y743000D01*
X909464D02*
X909177Y743171D01*
X908881Y743327D01*
X908577Y743467D01*
X908267Y743592D01*
X907951Y743700D01*
X907630Y743792D01*
X907304Y743868D01*
X906975Y743927D01*
X906643Y743968D01*
X906310Y743993D01*
X905975Y744000D01*
X905641Y743990D01*
X905308Y743963D01*
X904977Y743919D01*
X904648Y743858D01*
X904323Y743780D01*
X904002Y743685D01*
X903687Y743574D01*
X903378Y743448D01*
X903075Y743305D01*
X902781Y743147D01*
X902494Y742974D01*
X902218Y742786D01*
X901951Y742585D01*
X901695Y742370D01*
X901450Y742142D01*
X901217Y741902D01*
X900998Y741650D01*
X900791Y741388D01*
X900598Y741115D01*
X900419Y740832D01*
X900255Y740541D01*
X900106Y740241D01*
X899973Y739935D01*
X899856Y739622D01*
X899755Y739303D01*
X899671Y738979D01*
X899603Y738652D01*
X899552Y738322D01*
X899518Y737989D01*
X899502Y737655D01*
X899502Y737321D01*
X899520Y736987D01*
X899555Y736654D01*
X899607Y736324D01*
X899676Y735997D01*
X899762Y735674D01*
X899864Y735355D01*
X899982Y735043D01*
X900117Y734737D01*
X900267Y734438D01*
X900432Y734147D01*
X900611Y733865D01*
X900805Y733593D01*
X901013Y733331D01*
X901234Y733080D01*
X901468Y732841D01*
X901713Y732614D01*
X901970Y732400D01*
X902238Y732199D01*
X902515Y732013D01*
X902802Y731841D01*
X903097Y731684D01*
X903400Y731543D01*
X903710Y731417D01*
X904025Y731307D01*
X904347Y731214D01*
X904672Y731137D01*
X905001Y731077D01*
X905333Y731034D01*
X905666Y731009D01*
X906000Y731000D01*
X912000Y754000D02*
X912324Y754008D01*
X912646Y754032D01*
X912967Y754072D01*
X913286Y754128D01*
X913602Y754200D01*
X913913Y754288D01*
X914220Y754391D01*
X914521Y754509D01*
X914816Y754642D01*
X915105Y754789D01*
X915385Y754951D01*
X915657Y755126D01*
X915920Y755315D01*
X916173Y755516D01*
X916416Y755730D01*
X916648Y755956D01*
X916868Y756193D01*
X917077Y756441D01*
X917272Y756698D01*
X917455Y756965D01*
X917624Y757241D01*
X917779Y757525D01*
X917920Y757817D01*
X918047Y758115D01*
X918158Y758419D01*
X918254Y758728D01*
X918334Y759041D01*
X918399Y759358D01*
X918448Y759678D01*
X918481Y760000D01*
X909464Y732000D02*
X909203Y731844D01*
X908934Y731700D01*
X908660Y731569D01*
X908379Y731451D01*
X908093Y731346D01*
X907803Y731255D01*
X907508Y731177D01*
X907211Y731114D01*
X906910Y731064D01*
X906608Y731028D01*
X906304Y731007D01*
X906000Y731000D01*
X928111Y745111D02*
X927865Y745374D01*
X927637Y745652D01*
X927427Y745944D01*
X927237Y746250D01*
X927067Y746567D01*
X926919Y746895D01*
X926792Y747232D01*
X926687Y747577D01*
X926606Y747927D01*
X926547Y748282D01*
X926512Y748640D01*
X926500Y749000D01*
X926512Y748640D01*
X926547Y748282D01*
X926606Y747927D01*
X926687Y747577D01*
X926792Y747232D01*
X926919Y746895D01*
X927067Y746567D01*
X927237Y746250D01*
X927427Y745944D01*
X927637Y745652D01*
X927865Y745374D01*
X928111Y745111D01*
X933560Y724339D02*
X933372Y724293D01*
X933185Y724241D01*
X933000Y724185D01*
D21*
X874500Y789000D02*
D03*
X869500D02*
D03*
X864500D02*
D03*
X879500Y811000D02*
D03*
X874500D02*
D03*
X869500D02*
D03*
X864500D02*
D03*
X879500Y789000D02*
D03*
D23*
X932000Y749000D02*
X935500Y745500D01*
X932000Y749000D02*
Y799000D01*
X935500Y802500D01*
Y745500D02*
Y737500D01*
X1033000Y877500D02*
X1029500Y881000D01*
X1018500D01*
Y740000D02*
X1019500Y739000D01*
X1023500Y865000D02*
X1033000D01*
X1023500D02*
X1018500Y860000D01*
X941000Y724000D02*
X935000Y718000D01*
X941000Y724000D02*
X943500Y721500D01*
X935500Y737500D02*
X906000D01*
X984500Y721500D02*
X996500Y733500D01*
X984500Y721500D02*
X943500D01*
X996500Y733500D02*
Y737500D01*
X999500Y764500D02*
X996500Y767500D01*
X999500Y740500D02*
X996500Y737500D01*
X999500Y740500D02*
Y764500D01*
X1006000Y768000D02*
X1011500D01*
X1006000D02*
Y777000D01*
Y757000D02*
Y748000D01*
Y737000D02*
X1015500D01*
X1022500Y744000D02*
X1036000D01*
X1022500D02*
X1015500Y737000D01*
X1018500Y761000D02*
X1011500Y768000D01*
X1018500Y761000D02*
X1036000D01*
X996500Y767500D02*
Y807500D01*
X935500Y817500D02*
X934000Y819000D01*
X935500Y817500D02*
Y802500D01*
D25*
X1061000Y867500D02*
Y722500D01*
X1050500Y725000D02*
X1071500D01*
X1071000Y844000D02*
X1051000D01*
X1015000Y839000D02*
X1001000Y825000D01*
X1015000Y839000D02*
X1018500D01*
X1001000Y825000D02*
X992500D01*
D26*
X938500Y795000D02*
D03*
X996500Y799500D02*
D03*
X900000Y817500D02*
D03*
X935000Y718000D02*
D03*
X906000Y737500D02*
D03*
X992500Y825000D02*
D03*
X993000Y749500D02*
D03*
X946500Y819000D02*
D03*
X934000D02*
D03*
X912000Y760500D02*
D03*
X889000Y770000D02*
D03*
X901500Y780000D02*
D03*
X956000Y877500D02*
D03*
X976000D02*
D03*
X966000D02*
D03*
X871000Y845000D02*
D03*
X891000D02*
D03*
X881000D02*
D03*
D29*
X1018500Y719000D02*
X1032500D01*
X1036000Y722500D01*
X1032500Y839000D02*
X1018500D01*
X1032500D02*
X1036000Y842500D01*
X1103500Y820000D02*
X1118500Y835000D01*
X1128500D01*
X1103500Y820000D02*
Y780000D01*
X913500Y885000D02*
D03*
X893500D02*
D03*
X918500Y747500D02*
D03*
Y767500D02*
D03*
X923500Y832500D02*
D03*
Y852500D02*
D03*
X893500Y870000D02*
D03*
X933500D02*
D03*
X876000Y767500D02*
D03*
Y747500D02*
D03*
D30*
X1081500Y860000D02*
X1081501D01*
X1081500D02*
X1081623Y858360D01*
X1081989Y856758D01*
X1082589Y855227D01*
X1083411Y853803D01*
X1084436Y852518D01*
X1085642Y851400D01*
X1087000Y850474D01*
X1088481Y849760D01*
X1090052Y849276D01*
X1091678Y849031D01*
X1093322D01*
X1094948Y849276D01*
X1096519Y849760D01*
X1098000Y850474D01*
X1099358Y851400D01*
X1100564Y852518D01*
X1101589Y853803D01*
X1102411Y855227D01*
X1103011Y856758D01*
X1103377Y858360D01*
X1103500Y860000D01*
X1103501D01*
X1103500D02*
X1103377Y861640D01*
X1103011Y863242D01*
X1102411Y864773D01*
X1101589Y866197D01*
X1100564Y867482D01*
X1099358Y868600D01*
X1098000Y869526D01*
X1096519Y870240D01*
X1094948Y870724D01*
X1093322Y870969D01*
X1091678D01*
X1090052Y870724D01*
X1088481Y870240D01*
X1087000Y869526D01*
X1085642Y868600D01*
X1084436Y867482D01*
X1083411Y866197D01*
X1082589Y864773D01*
X1081989Y863242D01*
X1081623Y861640D01*
X1081500Y860000D01*
X1089300D02*
X1089301D01*
X1089300D02*
X1089493Y858906D01*
X1090049Y857943D01*
X1090900Y857229D01*
X1091944Y856849D01*
X1093056D01*
X1094100Y857229D01*
X1094951Y857943D01*
X1095507Y858906D01*
X1095700Y860000D01*
X1095701D01*
X1095700D02*
X1095507Y861094D01*
X1094951Y862057D01*
X1094100Y862771D01*
X1093056Y863151D01*
X1091944D01*
X1090900Y862771D01*
X1090049Y862057D01*
X1089493Y861094D01*
X1089300Y860000D01*
X857500Y720000D02*
X857501D01*
X857500D02*
X857623Y718360D01*
X857989Y716758D01*
X858589Y715227D01*
X859411Y713803D01*
X860436Y712518D01*
X861642Y711400D01*
X863000Y710474D01*
X864481Y709760D01*
X866052Y709276D01*
X867678Y709031D01*
X869322D01*
X870948Y709276D01*
X872519Y709760D01*
X874000Y710474D01*
X875358Y711400D01*
X876564Y712518D01*
X877589Y713803D01*
X878411Y715227D01*
X879011Y716758D01*
X879377Y718360D01*
X879500Y720000D01*
X879501D01*
X879500D02*
X879377Y721640D01*
X879011Y723242D01*
X878411Y724773D01*
X877589Y726197D01*
X876564Y727482D01*
X875358Y728600D01*
X874000Y729526D01*
X872519Y730240D01*
X870948Y730724D01*
X869322Y730969D01*
X867678D01*
X866052Y730724D01*
X864481Y730240D01*
X863000Y729526D01*
X861642Y728600D01*
X860436Y727482D01*
X859411Y726197D01*
X858589Y724773D01*
X857989Y723242D01*
X857623Y721640D01*
X857500Y720000D01*
X865300D02*
X865301D01*
X865300D02*
X865493Y718906D01*
X866049Y717943D01*
X866900Y717229D01*
X867944Y716849D01*
X869056D01*
X870100Y717229D01*
X870951Y717943D01*
X871507Y718906D01*
X871700Y720000D01*
X871701D01*
X871700D02*
X871507Y721094D01*
X870951Y722057D01*
X870100Y722771D01*
X869056Y723151D01*
X867944D01*
X866900Y722771D01*
X866049Y722057D01*
X865493Y721094D01*
X865300Y720000D01*
X857500Y880000D02*
X857501D01*
X857500D02*
X857623Y878360D01*
X857989Y876758D01*
X858589Y875227D01*
X859411Y873803D01*
X860436Y872518D01*
X861642Y871400D01*
X863000Y870474D01*
X864481Y869760D01*
X866052Y869276D01*
X867678Y869031D01*
X869322D01*
X870948Y869276D01*
X872519Y869760D01*
X874000Y870474D01*
X875358Y871400D01*
X876564Y872518D01*
X877589Y873803D01*
X878411Y875227D01*
X879011Y876758D01*
X879377Y878360D01*
X879500Y880000D01*
X879501D01*
X879500D02*
X879377Y881640D01*
X879011Y883242D01*
X878411Y884773D01*
X877589Y886197D01*
X876564Y887482D01*
X875358Y888600D01*
X874000Y889526D01*
X872519Y890240D01*
X870948Y890724D01*
X869322Y890969D01*
X867678D01*
X866052Y890724D01*
X864481Y890240D01*
X863000Y889526D01*
X861642Y888600D01*
X860436Y887482D01*
X859411Y886197D01*
X858589Y884773D01*
X857989Y883242D01*
X857623Y881640D01*
X857500Y880000D01*
X865300D02*
X865301D01*
X865300D02*
X865493Y878906D01*
X866049Y877943D01*
X866900Y877229D01*
X867944Y876849D01*
X869056D01*
X870100Y877229D01*
X870951Y877943D01*
X871507Y878906D01*
X871700Y880000D01*
X871701D01*
X871700D02*
X871507Y881094D01*
X870951Y882057D01*
X870100Y882771D01*
X869056Y883151D01*
X867944D01*
X866900Y882771D01*
X866049Y882057D01*
X865493Y881094D01*
X865300Y880000D01*
X1081500Y740000D02*
X1081501D01*
X1081500D02*
X1081623Y738360D01*
X1081989Y736758D01*
X1082589Y735227D01*
X1083411Y733803D01*
X1084436Y732518D01*
X1085642Y731400D01*
X1087000Y730474D01*
X1088481Y729760D01*
X1090052Y729276D01*
X1091678Y729031D01*
X1093322D01*
X1094948Y729276D01*
X1096519Y729760D01*
X1098000Y730474D01*
X1099358Y731400D01*
X1100564Y732518D01*
X1101589Y733803D01*
X1102411Y735227D01*
X1103011Y736758D01*
X1103377Y738360D01*
X1103500Y740000D01*
X1103501D01*
X1103500D02*
X1103377Y741640D01*
X1103011Y743242D01*
X1102411Y744773D01*
X1101589Y746197D01*
X1100564Y747482D01*
X1099358Y748600D01*
X1098000Y749526D01*
X1096519Y750240D01*
X1094948Y750724D01*
X1093322Y750969D01*
X1091678D01*
X1090052Y750724D01*
X1088481Y750240D01*
X1087000Y749526D01*
X1085642Y748600D01*
X1084436Y747482D01*
X1083411Y746197D01*
X1082589Y744773D01*
X1081989Y743242D01*
X1081623Y741640D01*
X1081500Y740000D01*
X1089300D02*
X1089301D01*
X1089300D02*
X1089493Y738906D01*
X1090049Y737943D01*
X1090900Y737229D01*
X1091944Y736849D01*
X1093056D01*
X1094100Y737229D01*
X1094951Y737943D01*
X1095507Y738906D01*
X1095700Y740000D01*
X1095701D01*
X1095700D02*
X1095507Y741094D01*
X1094951Y742057D01*
X1094100Y742771D01*
X1093056Y743151D01*
X1091944D01*
X1090900Y742771D01*
X1090049Y742057D01*
X1089493Y741094D01*
X1089300Y740000D01*
D32*
X976000Y851500D02*
D03*
Y842500D02*
D03*
Y833500D02*
D03*
X956000D02*
D03*
Y842500D02*
D03*
Y851500D02*
D03*
X976000Y816500D02*
D03*
Y807500D02*
D03*
Y798500D02*
D03*
Y746500D02*
D03*
Y737500D02*
D03*
Y728500D02*
D03*
X956000Y798500D02*
D03*
Y807500D02*
D03*
Y816500D02*
D03*
Y728500D02*
D03*
Y737500D02*
D03*
Y746500D02*
D03*
Y763500D02*
D03*
Y772500D02*
D03*
Y781500D02*
D03*
X976000Y763500D02*
D03*
Y772500D02*
D03*
Y781500D02*
D03*
D34*
X1061000Y867500D02*
X1083000Y889500D01*
X1100000D01*
X1131000Y858500D01*
X1128500D02*
Y850000D01*
D36*
X1126000Y855000D02*
D03*
Y790000D02*
D03*
Y750000D02*
D03*
Y770000D02*
D03*
Y835000D02*
D03*
X1018500Y800000D02*
D03*
X1098500D02*
D03*
Y780000D02*
D03*
X1018500D02*
D03*
Y820000D02*
D03*
X1098500D02*
D03*
D40*
X1018500Y839000D02*
D03*
Y860000D02*
D03*
Y881000D02*
D03*
Y740000D02*
D03*
Y761000D02*
D03*
Y719000D02*
D03*
D44*
X891000Y796000D02*
D03*
Y787000D02*
D03*
Y813000D02*
D03*
Y804000D02*
D03*
D46*
X900000Y791500D02*
D03*
Y808500D02*
D03*
D48*
X1044000Y877500D02*
D03*
X1033000D02*
D03*
X986000Y780500D02*
D03*
Y769500D02*
D03*
X1006000Y885500D02*
D03*
Y874500D02*
D03*
Y757000D02*
D03*
Y768000D02*
D03*
X875500Y827500D02*
D03*
X886500D02*
D03*
X903500Y721000D02*
D03*
Y710000D02*
D03*
X915500D02*
D03*
X926500D02*
D03*
X996000Y874500D02*
D03*
Y885500D02*
D03*
X1006000Y788000D02*
D03*
Y777000D02*
D03*
X960500Y862500D02*
D03*
X971500D02*
D03*
X985500Y807500D02*
D03*
X996500D02*
D03*
X985500Y737500D02*
D03*
X996500D02*
D03*
X935500Y807500D02*
D03*
X946500D02*
D03*
X935500Y737500D02*
D03*
X946500D02*
D03*
X966000Y749500D02*
D03*
Y760500D02*
D03*
Y795500D02*
D03*
Y784500D02*
D03*
X946000Y769500D02*
D03*
Y780500D02*
D03*
X986000Y749500D02*
D03*
Y760500D02*
D03*
X921500Y793500D02*
D03*
X910500D02*
D03*
X906500Y827500D02*
D03*
X895500D02*
D03*
X910500Y784000D02*
D03*
X921500D02*
D03*
X910750Y803000D02*
D03*
X921750D02*
D03*
X1006000Y854500D02*
D03*
Y865500D02*
D03*
Y737000D02*
D03*
Y748000D02*
D03*
D49*
X1033000Y865000D02*
D03*
X1044000D02*
D03*
X915500Y722500D02*
D03*
X926500D02*
D03*
X921500Y815000D02*
D03*
X910500D02*
D03*
D54*
X988500Y848000D02*
D03*
Y837000D02*
D03*
X943500Y848000D02*
D03*
Y837000D02*
D03*
D55*
X1122000Y765000D02*
X1130500D01*
Y775000D01*
X1122000D01*
Y765000D01*
X1121000Y850000D02*
X1130500D01*
Y860000D01*
X1121000D01*
Y850000D01*
D56*
X1061000Y725000D02*
D03*
X1035000D02*
D03*
X1061000Y844000D02*
D03*
X1035000D02*
D03*
D59*
X1036000Y761000D02*
D03*
Y744000D02*
D03*
M02*
