*%FSLAX25Y25*%
*%MOIN*%
G01*
%ADD11C,0.00600*%
%ADD12C,0.00733*%
%ADD13C,0.00800*%
%ADD14C,0.01000*%
%ADD15C,0.01200*%
%ADD16C,0.01500*%
%ADD17C,0.02000*%
%ADD18C,0.02500*%
%ADD19C,0.03000*%
%ADD20C,0.03000*%
%ADD21O,0.03000X0.08000*%
%ADD22O,0.03800X0.08800*%
%ADD23C,0.04000*%
%ADD24C,0.04000*%
%ADD25C,0.05000*%
%ADD26C,0.06000*%
%ADD27C,0.06800*%
%ADD28C,0.07000*%
%ADD29C,0.08000*%
%ADD30C,0.08000*%
%ADD31C,0.08800*%
%ADD32O,0.09000X0.07000*%
%ADD33O,0.09800X0.07800*%
%ADD34C,0.10000*%
%ADD35C,0.10000*%
%ADD36C,0.12000*%
%ADD37C,0.12000*%
%ADD38C,0.12500*%
%ADD39C,0.12800*%
%ADD40O,0.15000X0.12000*%
%ADD41O,0.15800X0.12800*%
%ADD42C,0.16500*%
%ADD43C,0.25000*%
%ADD44R,0.04000X0.04000*%
%ADD45R,0.04800X0.04800*%
%ADD46R,0.05000X0.04000*%
%ADD47R,0.05800X0.04800*%
%ADD48R,0.06000X0.06000*%
%ADD49R,0.06000X0.10000*%
%ADD50R,0.06800X0.06800*%
%ADD51R,0.06800X0.10800*%
%ADD52R,0.08000X0.20000*%
%ADD53R,0.08800X0.20800*%
%ADD54R,0.10000X0.06000*%
%ADD55R,0.10000X0.10000*%
%ADD56R,0.10000X0.24000*%
%ADD57R,0.10800X0.06800*%
%ADD58R,0.10800X0.24800*%
%ADD59R,0.12000X0.06000*%
%ADD60R,0.12800X0.06800*%
%ADD61R,0.20000X0.20000*%
D11*
X858499Y854001D02*
Y855333D01*
X857832Y856000D01*
X855167D01*
X854500Y855333D01*
Y854001D01*
X855167Y853334D01*
X857832D01*
X858499Y854001D01*
Y852001D02*
Y849335D01*
Y852001D02*
X856499D01*
Y850668D01*
Y852001D01*
X854500D01*
X858499Y848003D02*
Y845337D01*
Y848003D02*
X856499D01*
Y846670D01*
Y848003D01*
X854500D01*
X858499Y842005D02*
X857832Y841338D01*
X858499Y842005D02*
Y843337D01*
X857832Y844004D01*
X857166D01*
X856499Y843337D01*
Y842005D01*
X855833Y841338D01*
X855167D01*
X854500Y842005D01*
Y843337D01*
X855167Y844004D01*
X858499Y840005D02*
Y837339D01*
Y840005D02*
X854500D01*
Y837339D01*
X856499Y838672D02*
Y840005D01*
X858499Y836007D02*
Y833341D01*
Y834674D01*
X854500D01*
X973500Y889501D02*
Y893500D01*
X971501D01*
X970834Y892833D01*
Y892167D01*
X971501Y891501D01*
X973500D01*
X973501D01*
X973500D02*
X973501D01*
X973500D02*
X973501D01*
X973500D02*
X971501D01*
X970834Y890834D01*
Y890168D01*
X971501Y889501D01*
X973500D01*
X969501D02*
X968168D01*
X968835D01*
Y893500D01*
X969501D01*
X968168D01*
X966169D02*
Y890834D01*
X964836Y889501D01*
X963503Y890834D01*
Y893500D01*
Y891501D01*
X966169D01*
X960171Y889501D02*
X959505Y890168D01*
X960171Y889501D02*
X961504D01*
X962170Y890168D01*
Y890834D01*
X961504Y891501D01*
X960171D01*
X959505Y892167D01*
Y892833D01*
X960171Y893500D01*
X961504D01*
X962170Y892833D01*
D13*
X1037000Y880000D02*
X1040000D01*
Y875000D02*
X1037000D01*
Y869500D02*
X1040000D01*
Y860500D02*
X1037000D01*
X1041500Y757000D02*
Y748000D01*
X1030500D02*
Y757000D01*
X983500Y773500D02*
Y776500D01*
X988500D02*
Y773500D01*
X1003500Y878500D02*
Y881500D01*
X1008500D02*
Y878500D01*
X1003500D01*
X1008500Y764000D02*
Y761000D01*
X1003500D02*
Y764000D01*
X1008500D01*
X882500Y825000D02*
X879500D01*
Y830000D02*
X882500D01*
Y825000D01*
X901000Y717000D02*
Y714000D01*
X906000D02*
Y717000D01*
X919500Y707500D02*
X922500D01*
Y712500D02*
X919500D01*
X998500Y878500D02*
Y881500D01*
X993500D02*
Y878500D01*
X1003500Y784000D02*
Y781000D01*
X1008500D02*
Y784000D01*
X967500Y860000D02*
X964500D01*
Y865000D02*
X967500D01*
X989500Y805000D02*
X992500D01*
Y810000D02*
X989500D01*
Y735000D02*
X992500D01*
Y740000D02*
X989500D01*
X942500Y805000D02*
X939500D01*
Y810000D02*
X942500D01*
Y735000D02*
X939500D01*
Y740000D02*
X942500D01*
X968500Y753500D02*
Y756500D01*
X963500D02*
Y753500D01*
Y788500D02*
Y791500D01*
X968500D02*
Y788500D01*
X948500Y776500D02*
Y773500D01*
X943500D02*
Y776500D01*
X988500Y756500D02*
Y753500D01*
X983500D02*
Y756500D01*
X917500Y796000D02*
X914500D01*
Y791000D02*
X917500D01*
X902500Y830000D02*
X899500D01*
Y825000D02*
X902500D01*
X914500Y781500D02*
X917500D01*
Y786500D02*
X914500D01*
X914750Y800500D02*
X917750D01*
Y805500D02*
X914750D01*
X1008500Y858500D02*
Y861500D01*
X1003500D02*
Y858500D01*
Y861500D02*
X1008500D01*
Y741000D02*
X1003500D01*
X1008500D02*
Y744000D01*
X1003500D02*
Y741000D01*
X993000Y841000D02*
Y844000D01*
X984000D02*
Y841000D01*
X948000D02*
Y844000D01*
X939000D02*
Y841000D01*
X922500Y727000D02*
X919500D01*
Y718000D02*
X922500D01*
X917500Y810500D02*
X914500D01*
Y819500D02*
X917500D01*
D14*
X882000Y805000D02*
Y802500D01*
Y797500D02*
Y795000D01*
X862000D01*
Y805000D01*
X882000D01*
X916000Y832500D02*
Y852500D01*
X931000D02*
Y832500D01*
X1117498Y861001D02*
X1118498Y862001D01*
Y864000D01*
X1117498Y865000D01*
X1116499D01*
X1115499Y864000D01*
Y862001D01*
X1114499Y861001D01*
X1113500D01*
X1112500Y862001D01*
Y864000D01*
X1113500Y865000D01*
X1112500Y859002D02*
X1118498D01*
Y856003D01*
X1117498Y855003D01*
X1115499D01*
X1114499Y856003D01*
Y859002D01*
X1118498Y853004D02*
Y849005D01*
Y853004D02*
X1112500D01*
Y849005D01*
X1115499Y851005D02*
Y853004D01*
X1116499Y847006D02*
X1112500D01*
X1116499D02*
X1118498Y845007D01*
X1116499Y843007D01*
X1112500D01*
X1115499D01*
Y847006D01*
X1118498Y841008D02*
X1112500D01*
X1114499D01*
X1118498Y837009D01*
X1115499Y840008D01*
X1112500Y837009D01*
X1118498Y835010D02*
Y831011D01*
Y835010D02*
X1112500D01*
Y831011D01*
X1115499Y833010D02*
Y835010D01*
X1112500Y829012D02*
X1118498D01*
Y826013D01*
X1117498Y825013D01*
X1115499D01*
X1114499Y826013D01*
Y829012D01*
Y827012D02*
X1112500Y825013D01*
Y783500D02*
X1118498D01*
Y780501D01*
X1117498Y779501D01*
X1115499D01*
X1114499Y780501D01*
Y783500D01*
X1118498Y776502D02*
Y774503D01*
Y776502D02*
X1117498Y777502D01*
X1113500D01*
X1112500Y776502D01*
Y774503D01*
X1113500Y773503D01*
X1117498D01*
X1118498Y774503D01*
Y771504D02*
X1112500D01*
X1114499Y769505D01*
X1112500Y767505D01*
X1118498D01*
Y765506D02*
Y761507D01*
Y765506D02*
X1112500D01*
Y761507D01*
X1115499Y763506D02*
Y765506D01*
X1112500Y759508D02*
X1118498D01*
Y756509D01*
X1117498Y755509D01*
X1115499D01*
X1114499Y756509D01*
Y759508D01*
Y757508D02*
X1112500Y755509D01*
X1136499Y752500D02*
Y748501D01*
X1138498Y750501D02*
X1134500D01*
X1136499Y788501D02*
Y792500D01*
X1139498Y775001D02*
X1138498Y774001D01*
X1139498Y775001D02*
Y777000D01*
X1138498Y778000D01*
X1134500D01*
X1133500Y777000D01*
Y775001D01*
X1134500Y774001D01*
X1136499D01*
Y776001D01*
X1133500Y772002D02*
X1139498D01*
X1133500Y768003D01*
X1139498D01*
Y766004D02*
X1133500D01*
Y763005D01*
X1134500Y762005D01*
X1138498D01*
X1139498Y763005D01*
Y766004D01*
X1136499Y833501D02*
Y837500D01*
X1138498Y835501D02*
X1134500D01*
X1136499Y853501D02*
Y857500D01*
X920999Y889001D02*
Y893000D01*
X886999D02*
Y889001D01*
X888998Y891001D02*
X885000D01*
X906498Y890000D02*
Y888001D01*
Y889000D01*
X900500D01*
Y890000D01*
Y888001D01*
Y885002D02*
X906498D01*
X900500Y881003D01*
X906498D01*
X1056000Y893998D02*
X1059999D01*
X1056000D02*
Y890999D01*
X1057999Y891999D01*
X1058999D01*
X1059999Y890999D01*
Y889000D01*
X1058999Y888000D01*
X1057000D01*
X1056000Y889000D01*
X1061998Y892998D02*
X1062998Y893998D01*
X1064997D01*
X1065997Y892998D01*
Y889000D01*
X1064997Y888000D01*
X1062998D01*
X1061998Y889000D01*
Y892998D01*
X1067996Y893998D02*
Y888000D01*
X1069995Y889999D01*
X1071995Y888000D01*
Y893998D01*
X1079992D02*
Y888000D01*
X1081992Y891999D02*
X1079992Y893998D01*
X1081992Y891999D02*
X1083991Y893998D01*
Y888000D01*
X1086990Y893998D02*
X1088989D01*
X1086990D02*
X1085990Y892998D01*
Y889000D01*
X1086990Y888000D01*
X1088989D01*
X1089989Y889000D01*
Y892998D01*
X1088989Y893998D01*
X1094987D02*
X1095987Y892998D01*
X1094987Y893998D02*
X1092988D01*
X1091988Y892998D01*
Y891999D01*
X1092988Y890999D01*
X1094987D01*
X1095987Y889999D01*
Y889000D01*
X1094987Y888000D01*
X1092988D01*
X1091988Y889000D01*
X1097986Y893998D02*
X1101985D01*
X1097986D02*
Y890999D01*
X1099986D01*
X1097986D01*
Y888000D01*
X1103984Y893998D02*
X1107983D01*
X1103984D02*
Y888000D01*
X1107983D01*
X1105984Y890999D02*
X1103984D01*
X1109983Y893998D02*
X1113981D01*
X1111982D01*
Y888000D01*
X1121979D02*
Y891999D01*
X1123978Y893998D01*
X1125977Y891999D01*
Y888000D01*
Y890999D01*
X1121979D01*
X1127977Y888000D02*
Y893998D01*
X1129976Y891999D01*
X1131975Y893998D01*
Y888000D01*
X1133975D02*
Y893998D01*
X1136974D01*
X1137974Y892998D01*
Y890999D01*
X1136974Y889999D01*
X1133975D01*
X1059999Y884498D02*
X1058999Y885498D01*
X1057000D01*
X1056000Y884498D01*
Y883499D01*
X1057000Y882499D01*
X1058999D01*
X1059999Y881499D01*
Y880500D01*
X1058999Y879500D01*
X1057000D01*
X1056000Y880500D01*
X1061998D02*
Y879500D01*
Y880500D02*
X1062998D01*
Y879500D01*
X1061998D01*
X1068996Y885498D02*
X1070995D01*
X1069995D02*
X1068996D01*
X1069995D02*
Y880500D01*
X1068996Y879500D01*
X1067996D01*
X1066996Y880500D01*
X1072994Y879500D02*
Y883499D01*
X1074994Y885498D01*
X1076993Y883499D01*
Y879500D01*
Y882499D01*
X1072994D01*
X1081992Y885498D02*
X1082991Y884498D01*
X1081992Y885498D02*
X1079992D01*
X1078993Y884498D01*
Y880500D01*
X1079992Y879500D01*
X1081992D01*
X1082991Y880500D01*
X1084991Y879500D02*
Y885498D01*
Y881499D02*
Y879500D01*
Y881499D02*
X1088989Y885498D01*
X1085990Y882499D01*
X1088989Y879500D01*
X1094987Y884498D02*
X1093988Y885498D01*
X1091988D01*
X1090989Y884498D01*
Y883499D01*
X1091988Y882499D01*
X1093988D01*
X1094987Y881499D01*
Y880500D01*
X1093988Y879500D01*
X1091988D01*
X1090989Y880500D01*
X1097986Y885498D02*
X1099986D01*
X1097986D02*
X1096987Y884498D01*
Y880500D01*
X1097986Y879500D01*
X1099986D01*
X1100985Y880500D01*
Y884498D01*
X1099986Y885498D01*
X1102985D02*
Y879500D01*
X1106983D02*
X1102985Y885498D01*
X1106983D02*
Y879500D01*
X1114981D02*
X1118980D01*
X1114981D02*
X1118980Y883499D01*
Y884498D01*
X1117980Y885498D01*
X1115981D01*
X1114981Y884498D01*
X1120979D02*
X1121979Y885498D01*
X1123978D01*
X1124978Y884498D01*
Y880500D01*
X1123978Y879500D01*
X1121979D01*
X1120979Y880500D01*
Y884498D01*
X1126977D02*
X1127977Y885498D01*
X1129976D01*
X1130976Y884498D01*
Y880500D01*
X1129976Y879500D01*
X1127977D01*
X1126977Y880500D01*
Y884498D01*
X1132975Y885498D02*
X1136974D01*
Y884498D01*
X1132975Y880500D01*
Y879500D01*
X882000Y802500D02*
X881674Y802479D01*
X881353Y802415D01*
X881043Y802310D01*
X880750Y802165D01*
X880478Y801983D01*
X880232Y801768D01*
X880017Y801522D01*
X879835Y801250D01*
X879690Y800957D01*
X879585Y800647D01*
X879521Y800326D01*
X879500Y800000D01*
X879521Y799674D01*
X879585Y799353D01*
X879690Y799043D01*
X879835Y798750D01*
X880017Y798478D01*
X880232Y798232D01*
X880478Y798017D01*
X880750Y797835D01*
X881043Y797690D01*
X881353Y797585D01*
X881674Y797521D01*
X882000Y797500D01*
X938500Y757500D02*
X938497Y757168D01*
X938489Y756835D01*
X938475Y756503D01*
X938456Y756171D01*
X938431Y755840D01*
X938401Y755509D01*
X938365Y755178D01*
X938323Y754848D01*
X938277Y754519D01*
X938224Y754191D01*
X938167Y753864D01*
X938103Y753537D01*
X938035Y753212D01*
X937961Y752888D01*
X937882Y752565D01*
X937797Y752243D01*
X937707Y751923D01*
X937611Y751605D01*
X937511Y751288D01*
X937405Y750973D01*
X937294Y750660D01*
X937178Y750348D01*
X937056Y750039D01*
X936930Y749731D01*
X936798Y749426D01*
X936661Y749123D01*
X936519Y748822D01*
X936373Y748524D01*
X936221Y748228D01*
X936064Y747935D01*
X935903Y747644D01*
X935737Y747356D01*
X935566Y747071D01*
X935390Y746789D01*
X935210Y746510D01*
X935025Y746234D01*
X934835Y745960D01*
X934641Y745691D01*
X934443Y745424D01*
X934240Y745161D01*
X934033Y744901D01*
X933821Y744644D01*
X933605Y744391D01*
X933385Y744142D01*
X933161Y743897D01*
X932933Y743655D01*
X932701Y743417D01*
X932465Y743183D01*
X932225Y742952D01*
X931981Y742726D01*
X931734Y742504D01*
X931483Y742286D01*
X931228Y742073D01*
X930970Y741863D01*
X930708Y741658D01*
X930443Y741457D01*
X930175Y741261D01*
X929903Y741069D01*
X929629Y740882D01*
X929351Y740699D01*
X929070Y740521D01*
X928786Y740348D01*
X928500Y740180D01*
X928211Y740016D01*
X927919Y739857D01*
X927624Y739703D01*
X927327Y739553D01*
X927028Y739409D01*
X926726Y739270D01*
X926422Y739136D01*
X926115Y739006D01*
X925807Y738882D01*
X925496Y738764D01*
X925184Y738650D01*
X924870Y738541D01*
X924554Y738438D01*
X924236Y738340D01*
X923917Y738248D01*
X923596Y738160D01*
X923274Y738078D01*
X922950Y738001D01*
X922626Y737930D01*
X922300Y737864D01*
X921973Y737804D01*
X921645Y737749D01*
X921316Y737699D01*
X920987Y737655D01*
X920657Y737617D01*
X920326Y737584D01*
X919995Y737556D01*
X919663Y737534D01*
X919331Y737517D01*
X918999Y737506D01*
X918666Y737501D01*
X918334D01*
X918001Y737506D01*
X917669Y737517D01*
X917337Y737534D01*
X917005Y737556D01*
X916674Y737584D01*
X916343Y737617D01*
X916013Y737655D01*
X915684Y737699D01*
X915355Y737749D01*
X915027Y737804D01*
X914700Y737864D01*
X914374Y737930D01*
X914050Y738001D01*
X913726Y738078D01*
X913404Y738160D01*
X913083Y738248D01*
X912764Y738340D01*
X912446Y738438D01*
X912130Y738541D01*
X911816Y738650D01*
X911504Y738764D01*
X911193Y738882D01*
X910885Y739006D01*
X910578Y739136D01*
X910274Y739270D01*
X909972Y739409D01*
X909673Y739553D01*
X909376Y739703D01*
X909081Y739857D01*
X908789Y740016D01*
X908500Y740180D01*
X908214Y740348D01*
X907930Y740521D01*
X907649Y740699D01*
X907371Y740882D01*
X907097Y741069D01*
X906825Y741261D01*
X906557Y741457D01*
X906292Y741658D01*
X906030Y741863D01*
X905772Y742073D01*
X905517Y742286D01*
X905266Y742504D01*
X905019Y742726D01*
X904775Y742952D01*
X904535Y743183D01*
X904299Y743417D01*
X904067Y743655D01*
X903839Y743897D01*
X903615Y744142D01*
X903395Y744391D01*
X903179Y744644D01*
X902967Y744901D01*
X902760Y745161D01*
X902557Y745424D01*
X902359Y745691D01*
X902165Y745960D01*
X901975Y746234D01*
X901790Y746510D01*
X901610Y746789D01*
X901434Y747071D01*
X901263Y747356D01*
X901097Y747644D01*
X900936Y747935D01*
X900779Y748228D01*
X900627Y748524D01*
X900481Y748822D01*
X900339Y749123D01*
X900202Y749426D01*
X900070Y749731D01*
X899944Y750039D01*
X899822Y750348D01*
X899706Y750660D01*
X899595Y750973D01*
X899489Y751288D01*
X899389Y751605D01*
X899293Y751923D01*
X899203Y752243D01*
X899118Y752565D01*
X899039Y752888D01*
X898965Y753212D01*
X898897Y753537D01*
X898833Y753864D01*
X898776Y754191D01*
X898723Y754519D01*
X898677Y754848D01*
X898635Y755178D01*
X898599Y755509D01*
X898569Y755840D01*
X898544Y756171D01*
X898525Y756503D01*
X898511Y756835D01*
X898503Y757168D01*
X898500Y757500D01*
X898503Y757832D01*
X898511Y758165D01*
X898525Y758497D01*
X898544Y758829D01*
X898569Y759160D01*
X898599Y759491D01*
X898635Y759822D01*
X898677Y760152D01*
X898723Y760481D01*
X898776Y760809D01*
X898833Y761136D01*
X898897Y761463D01*
X898965Y761788D01*
X899039Y762112D01*
X899118Y762435D01*
X899203Y762757D01*
X899293Y763077D01*
X899389Y763395D01*
X899489Y763712D01*
X899595Y764027D01*
X899706Y764340D01*
X899822Y764652D01*
X899944Y764961D01*
X900070Y765269D01*
X900202Y765574D01*
X900339Y765877D01*
X900481Y766178D01*
X900627Y766476D01*
X900779Y766772D01*
X900936Y767065D01*
X901097Y767356D01*
X901263Y767644D01*
X901434Y767929D01*
X901610Y768211D01*
X901790Y768490D01*
X901975Y768766D01*
X902165Y769040D01*
X902359Y769309D01*
X902557Y769576D01*
X902760Y769839D01*
X902967Y770099D01*
X903179Y770356D01*
X903395Y770609D01*
X903615Y770858D01*
X903839Y771103D01*
X904067Y771345D01*
X904299Y771583D01*
X904535Y771817D01*
X904775Y772048D01*
X905019Y772274D01*
X905266Y772496D01*
X905517Y772714D01*
X905772Y772927D01*
X906030Y773137D01*
X906292Y773342D01*
X906557Y773543D01*
X906825Y773739D01*
X907097Y773931D01*
X907371Y774118D01*
X907649Y774301D01*
X907930Y774479D01*
X908214Y774652D01*
X908500Y774820D01*
X908789Y774984D01*
X909081Y775143D01*
X909376Y775297D01*
X909673Y775447D01*
X909972Y775591D01*
X910274Y775730D01*
X910578Y775864D01*
X910885Y775994D01*
X911193Y776118D01*
X911504Y776236D01*
X911816Y776350D01*
X912130Y776459D01*
X912446Y776562D01*
X912764Y776660D01*
X913083Y776752D01*
X913404Y776840D01*
X913726Y776922D01*
X914050Y776999D01*
X914374Y777070D01*
X914700Y777136D01*
X915027Y777196D01*
X915355Y777251D01*
X915684Y777301D01*
X916013Y777345D01*
X916343Y777383D01*
X916674Y777416D01*
X917005Y777444D01*
X917337Y777466D01*
X917669Y777483D01*
X918001Y777494D01*
X918334Y777499D01*
X918666D01*
X918999Y777494D01*
X919331Y777483D01*
X919663Y777466D01*
X919995Y777444D01*
X920326Y777416D01*
X920657Y777383D01*
X920987Y777345D01*
X921316Y777301D01*
X921645Y777251D01*
X921973Y777196D01*
X922300Y777136D01*
X922626Y777070D01*
X922950Y776999D01*
X923274Y776922D01*
X923596Y776840D01*
X923917Y776752D01*
X924236Y776660D01*
X924554Y776562D01*
X924870Y776459D01*
X925184Y776350D01*
X925496Y776236D01*
X925807Y776118D01*
X926115Y775994D01*
X926422Y775864D01*
X926726Y775730D01*
X927028Y775591D01*
X927327Y775447D01*
X927624Y775297D01*
X927919Y775143D01*
X928211Y774984D01*
X928500Y774820D01*
X928786Y774652D01*
X929070Y774479D01*
X929351Y774301D01*
X929629Y774118D01*
X929903Y773931D01*
X930175Y773739D01*
X930443Y773543D01*
X930708Y773342D01*
X930970Y773137D01*
X931228Y772927D01*
X931483Y772714D01*
X931734Y772496D01*
X931981Y772274D01*
X932225Y772048D01*
X932465Y771817D01*
X932701Y771583D01*
X932933Y771345D01*
X933161Y771103D01*
X933385Y770858D01*
X933605Y770609D01*
X933821Y770356D01*
X934033Y770099D01*
X934240Y769839D01*
X934443Y769576D01*
X934641Y769309D01*
X934835Y769040D01*
X935025Y768766D01*
X935210Y768490D01*
X935390Y768211D01*
X935566Y767929D01*
X935737Y767644D01*
X935903Y767356D01*
X936064Y767065D01*
X936221Y766772D01*
X936373Y766476D01*
X936519Y766178D01*
X936661Y765877D01*
X936798Y765574D01*
X936930Y765269D01*
X937056Y764961D01*
X937178Y764652D01*
X937294Y764340D01*
X937405Y764027D01*
X937511Y763712D01*
X937611Y763395D01*
X937707Y763077D01*
X937797Y762757D01*
X937882Y762435D01*
X937961Y762112D01*
X938035Y761788D01*
X938103Y761463D01*
X938167Y761136D01*
X938224Y760809D01*
X938277Y760481D01*
X938323Y760152D01*
X938365Y759822D01*
X938401Y759491D01*
X938431Y759160D01*
X938456Y758829D01*
X938475Y758497D01*
X938489Y758165D01*
X938497Y757832D01*
X938500Y757500D01*
X931000Y832500D02*
X930993Y832173D01*
X930972Y831846D01*
X930936Y831521D01*
X930886Y831198D01*
X930822Y830877D01*
X930744Y830559D01*
X930653Y830245D01*
X930548Y829935D01*
X930429Y829630D01*
X930297Y829330D01*
X930153Y829037D01*
X929995Y828750D01*
X929825Y828470D01*
X929644Y828198D01*
X929450Y827934D01*
X929245Y827679D01*
X929030Y827433D01*
X928803Y827197D01*
X928567Y826970D01*
X928321Y826755D01*
X928066Y826550D01*
X927802Y826356D01*
X927530Y826175D01*
X927250Y826005D01*
X926963Y825847D01*
X926670Y825703D01*
X926370Y825571D01*
X926065Y825452D01*
X925755Y825347D01*
X925441Y825256D01*
X925123Y825178D01*
X924802Y825114D01*
X924479Y825064D01*
X924154Y825028D01*
X923827Y825007D01*
X923500Y825000D01*
X923173Y825007D01*
X922846Y825028D01*
X922521Y825064D01*
X922198Y825114D01*
X921877Y825178D01*
X921559Y825256D01*
X921245Y825347D01*
X920935Y825452D01*
X920630Y825571D01*
X920330Y825703D01*
X920037Y825847D01*
X919750Y826005D01*
X919470Y826175D01*
X919198Y826356D01*
X918934Y826550D01*
X918679Y826755D01*
X918433Y826970D01*
X918197Y827197D01*
X917970Y827433D01*
X917755Y827679D01*
X917550Y827934D01*
X917356Y828198D01*
X917175Y828470D01*
X917005Y828750D01*
X916847Y829037D01*
X916703Y829330D01*
X916571Y829630D01*
X916452Y829935D01*
X916347Y830245D01*
X916256Y830559D01*
X916178Y830877D01*
X916114Y831198D01*
X916064Y831521D01*
X916028Y831846D01*
X916007Y832173D01*
X916000Y832500D01*
Y852500D02*
X916007Y852827D01*
X916028Y853154D01*
X916064Y853479D01*
X916114Y853802D01*
X916178Y854123D01*
X916256Y854441D01*
X916347Y854755D01*
X916452Y855065D01*
X916571Y855370D01*
X916703Y855670D01*
X916847Y855963D01*
X917005Y856250D01*
X917175Y856530D01*
X917356Y856802D01*
X917550Y857066D01*
X917755Y857321D01*
X917970Y857567D01*
X918197Y857803D01*
X918433Y858030D01*
X918679Y858245D01*
X918934Y858450D01*
X919198Y858644D01*
X919470Y858825D01*
X919750Y858995D01*
X920037Y859153D01*
X920330Y859297D01*
X920630Y859429D01*
X920935Y859548D01*
X921245Y859653D01*
X921559Y859744D01*
X921877Y859822D01*
X922198Y859886D01*
X922521Y859936D01*
X922846Y859972D01*
X923173Y859993D01*
X923500Y860000D01*
X923827Y859993D01*
X924154Y859972D01*
X924479Y859936D01*
X924802Y859886D01*
X925123Y859822D01*
X925441Y859744D01*
X925755Y859653D01*
X926065Y859548D01*
X926370Y859429D01*
X926670Y859297D01*
X926963Y859153D01*
X927250Y858995D01*
X927530Y858825D01*
X927802Y858644D01*
X928066Y858450D01*
X928321Y858245D01*
X928567Y858030D01*
X928803Y857803D01*
X929030Y857567D01*
X929245Y857321D01*
X929450Y857066D01*
X929644Y856802D01*
X929825Y856530D01*
X929995Y856250D01*
X930153Y855963D01*
X930297Y855670D01*
X930429Y855370D01*
X930548Y855065D01*
X930653Y854755D01*
X930744Y854441D01*
X930822Y854123D01*
X930886Y853802D01*
X930936Y853479D01*
X930972Y853154D01*
X930993Y852827D01*
X931000Y852500D01*
X896000Y757500D02*
X895997Y757168D01*
X895989Y756835D01*
X895975Y756503D01*
X895956Y756171D01*
X895931Y755840D01*
X895901Y755509D01*
X895865Y755178D01*
X895823Y754848D01*
X895777Y754519D01*
X895724Y754191D01*
X895667Y753864D01*
X895603Y753537D01*
X895535Y753212D01*
X895461Y752888D01*
X895382Y752565D01*
X895297Y752243D01*
X895207Y751923D01*
X895111Y751605D01*
X895011Y751288D01*
X894905Y750973D01*
X894794Y750660D01*
X894678Y750348D01*
X894556Y750039D01*
X894430Y749731D01*
X894298Y749426D01*
X894161Y749123D01*
X894019Y748822D01*
X893873Y748524D01*
X893721Y748228D01*
X893564Y747935D01*
X893403Y747644D01*
X893237Y747356D01*
X893066Y747071D01*
X892890Y746789D01*
X892710Y746510D01*
X892525Y746234D01*
X892335Y745960D01*
X892141Y745691D01*
X891943Y745424D01*
X891740Y745161D01*
X891533Y744901D01*
X891321Y744644D01*
X891105Y744391D01*
X890885Y744142D01*
X890661Y743897D01*
X890433Y743655D01*
X890201Y743417D01*
X889965Y743183D01*
X889725Y742952D01*
X889481Y742726D01*
X889234Y742504D01*
X888983Y742286D01*
X888728Y742073D01*
X888470Y741863D01*
X888208Y741658D01*
X887943Y741457D01*
X887675Y741261D01*
X887403Y741069D01*
X887129Y740882D01*
X886851Y740699D01*
X886570Y740521D01*
X886286Y740348D01*
X886000Y740180D01*
X885711Y740016D01*
X885419Y739857D01*
X885124Y739703D01*
X884827Y739553D01*
X884528Y739409D01*
X884226Y739270D01*
X883922Y739136D01*
X883615Y739006D01*
X883307Y738882D01*
X882996Y738764D01*
X882684Y738650D01*
X882370Y738541D01*
X882054Y738438D01*
X881736Y738340D01*
X881417Y738248D01*
X881096Y738160D01*
X880774Y738078D01*
X880450Y738001D01*
X880126Y737930D01*
X879800Y737864D01*
X879473Y737804D01*
X879145Y737749D01*
X878816Y737699D01*
X878487Y737655D01*
X878157Y737617D01*
X877826Y737584D01*
X877495Y737556D01*
X877163Y737534D01*
X876831Y737517D01*
X876499Y737506D01*
X876166Y737501D01*
X875834D01*
X875501Y737506D01*
X875169Y737517D01*
X874837Y737534D01*
X874505Y737556D01*
X874174Y737584D01*
X873843Y737617D01*
X873513Y737655D01*
X873184Y737699D01*
X872855Y737749D01*
X872527Y737804D01*
X872200Y737864D01*
X871874Y737930D01*
X871550Y738001D01*
X871226Y738078D01*
X870904Y738160D01*
X870583Y738248D01*
X870264Y738340D01*
X869946Y738438D01*
X869630Y738541D01*
X869316Y738650D01*
X869004Y738764D01*
X868693Y738882D01*
X868385Y739006D01*
X868078Y739136D01*
X867774Y739270D01*
X867472Y739409D01*
X867173Y739553D01*
X866876Y739703D01*
X866581Y739857D01*
X866289Y740016D01*
X866000Y740180D01*
X865714Y740348D01*
X865430Y740521D01*
X865149Y740699D01*
X864871Y740882D01*
X864597Y741069D01*
X864325Y741261D01*
X864057Y741457D01*
X863792Y741658D01*
X863530Y741863D01*
X863272Y742073D01*
X863017Y742286D01*
X862766Y742504D01*
X862519Y742726D01*
X862275Y742952D01*
X862035Y743183D01*
X861799Y743417D01*
X861567Y743655D01*
X861339Y743897D01*
X861115Y744142D01*
X860895Y744391D01*
X860679Y744644D01*
X860467Y744901D01*
X860260Y745161D01*
X860057Y745424D01*
X859859Y745691D01*
X859665Y745960D01*
X859475Y746234D01*
X859290Y746510D01*
X859110Y746789D01*
X858934Y747071D01*
X858763Y747356D01*
X858597Y747644D01*
X858436Y747935D01*
X858279Y748228D01*
X858127Y748524D01*
X857981Y748822D01*
X857839Y749123D01*
X857702Y749426D01*
X857570Y749731D01*
X857444Y750039D01*
X857322Y750348D01*
X857206Y750660D01*
X857095Y750973D01*
X856989Y751288D01*
X856889Y751605D01*
X856793Y751923D01*
X856703Y752243D01*
X856618Y752565D01*
X856539Y752888D01*
X856465Y753212D01*
X856397Y753537D01*
X856333Y753864D01*
X856276Y754191D01*
X856223Y754519D01*
X856177Y754848D01*
X856135Y755178D01*
X856099Y755509D01*
X856069Y755840D01*
X856044Y756171D01*
X856025Y756503D01*
X856011Y756835D01*
X856003Y757168D01*
X856000Y757500D01*
X856003Y757832D01*
X856011Y758165D01*
X856025Y758497D01*
X856044Y758829D01*
X856069Y759160D01*
X856099Y759491D01*
X856135Y759822D01*
X856177Y760152D01*
X856223Y760481D01*
X856276Y760809D01*
X856333Y761136D01*
X856397Y761463D01*
X856465Y761788D01*
X856539Y762112D01*
X856618Y762435D01*
X856703Y762757D01*
X856793Y763077D01*
X856889Y763395D01*
X856989Y763712D01*
X857095Y764027D01*
X857206Y764340D01*
X857322Y764652D01*
X857444Y764961D01*
X857570Y765269D01*
X857702Y765574D01*
X857839Y765877D01*
X857981Y766178D01*
X858127Y766476D01*
X858279Y766772D01*
X858436Y767065D01*
X858597Y767356D01*
X858763Y767644D01*
X858934Y767929D01*
X859110Y768211D01*
X859290Y768490D01*
X859475Y768766D01*
X859665Y769040D01*
X859859Y769309D01*
X860057Y769576D01*
X860260Y769839D01*
X860467Y770099D01*
X860679Y770356D01*
X860895Y770609D01*
X861115Y770858D01*
X861339Y771103D01*
X861567Y771345D01*
X861799Y771583D01*
X862035Y771817D01*
X862275Y772048D01*
X862519Y772274D01*
X862766Y772496D01*
X863017Y772714D01*
X863272Y772927D01*
X863530Y773137D01*
X863792Y773342D01*
X864057Y773543D01*
X864325Y773739D01*
X864597Y773931D01*
X864871Y774118D01*
X865149Y774301D01*
X865430Y774479D01*
X865714Y774652D01*
X866000Y774820D01*
X866289Y774984D01*
X866581Y775143D01*
X866876Y775297D01*
X867173Y775447D01*
X867472Y775591D01*
X867774Y775730D01*
X868078Y775864D01*
X868385Y775994D01*
X868693Y776118D01*
X869004Y776236D01*
X869316Y776350D01*
X869630Y776459D01*
X869946Y776562D01*
X870264Y776660D01*
X870583Y776752D01*
X870904Y776840D01*
X871226Y776922D01*
X871550Y776999D01*
X871874Y777070D01*
X872200Y777136D01*
X872527Y777196D01*
X872855Y777251D01*
X873184Y777301D01*
X873513Y777345D01*
X873843Y777383D01*
X874174Y777416D01*
X874505Y777444D01*
X874837Y777466D01*
X875169Y777483D01*
X875501Y777494D01*
X875834Y777499D01*
X876166D01*
X876499Y777494D01*
X876831Y777483D01*
X877163Y777466D01*
X877495Y777444D01*
X877826Y777416D01*
X878157Y777383D01*
X878487Y777345D01*
X878816Y777301D01*
X879145Y777251D01*
X879473Y777196D01*
X879800Y777136D01*
X880126Y777070D01*
X880450Y776999D01*
X880774Y776922D01*
X881096Y776840D01*
X881417Y776752D01*
X881736Y776660D01*
X882054Y776562D01*
X882370Y776459D01*
X882684Y776350D01*
X882996Y776236D01*
X883307Y776118D01*
X883615Y775994D01*
X883922Y775864D01*
X884226Y775730D01*
X884528Y775591D01*
X884827Y775447D01*
X885124Y775297D01*
X885419Y775143D01*
X885711Y774984D01*
X886000Y774820D01*
X886286Y774652D01*
X886570Y774479D01*
X886851Y774301D01*
X887129Y774118D01*
X887403Y773931D01*
X887675Y773739D01*
X887943Y773543D01*
X888208Y773342D01*
X888470Y773137D01*
X888728Y772927D01*
X888983Y772714D01*
X889234Y772496D01*
X889481Y772274D01*
X889725Y772048D01*
X889965Y771817D01*
X890201Y771583D01*
X890433Y771345D01*
X890661Y771103D01*
X890885Y770858D01*
X891105Y770609D01*
X891321Y770356D01*
X891533Y770099D01*
X891740Y769839D01*
X891943Y769576D01*
X892141Y769309D01*
X892335Y769040D01*
X892525Y768766D01*
X892710Y768490D01*
X892890Y768211D01*
X893066Y767929D01*
X893237Y767644D01*
X893403Y767356D01*
X893564Y767065D01*
X893721Y766772D01*
X893873Y766476D01*
X894019Y766178D01*
X894161Y765877D01*
X894298Y765574D01*
X894430Y765269D01*
X894556Y764961D01*
X894678Y764652D01*
X894794Y764340D01*
X894905Y764027D01*
X895011Y763712D01*
X895111Y763395D01*
X895207Y763077D01*
X895297Y762757D01*
X895382Y762435D01*
X895461Y762112D01*
X895535Y761788D01*
X895603Y761463D01*
X895667Y761136D01*
X895724Y760809D01*
X895777Y760481D01*
X895823Y760152D01*
X895865Y759822D01*
X895901Y759491D01*
X895931Y759160D01*
X895956Y758829D01*
X895975Y758497D01*
X895989Y758165D01*
X895997Y757832D01*
X896000Y757500D01*
D15*
X946000Y867500D02*
Y887500D01*
Y867500D02*
X991000D01*
Y877500D01*
X986000D01*
Y887500D01*
X946000D01*
X901000Y855000D02*
X861000D01*
X901000D02*
Y845000D01*
X906000D01*
Y835000D01*
X861000D01*
Y855000D01*
X1023500Y800000D02*
X1033500D01*
X1083500D02*
X1093500D01*
X1083500Y792000D02*
Y808000D01*
X1033500D01*
Y792000D01*
X1083500D01*
X1033500Y780000D02*
X1023500D01*
X1083500D02*
X1093500D01*
X1083500Y772000D02*
Y788000D01*
X1033500D01*
Y772000D01*
X1083500D01*
X982000Y826500D02*
X970000D01*
Y858500D01*
X982000D01*
Y826500D01*
X962000Y858500D02*
X950000D01*
X962000D02*
Y826500D01*
X950000D01*
Y858500D01*
X970000Y791500D02*
X982000D01*
X970000D02*
Y823500D01*
X982000D01*
Y791500D01*
Y721500D02*
X970000D01*
Y753500D01*
X982000D01*
Y721500D01*
X962000Y823500D02*
X950000D01*
X962000D02*
Y791500D01*
X950000D01*
Y823500D01*
Y753500D02*
X962000D01*
Y721500D01*
X950000D01*
Y753500D01*
Y788500D02*
X962000D01*
Y756500D01*
X950000D01*
Y788500D01*
X982000D02*
Y756500D01*
Y788500D02*
X970000D01*
Y756500D01*
X982000D01*
X899500Y795000D02*
Y797500D01*
X890500Y792000D02*
Y791000D01*
X899500Y788000D02*
Y785500D01*
Y797500D02*
X895000D01*
Y785500D02*
X899500D01*
Y812000D02*
Y814500D01*
X890500Y809000D02*
Y808000D01*
X899500Y805000D02*
Y802500D01*
Y814500D02*
X895000D01*
Y802500D02*
X899500D01*
X902000Y777500D02*
X908000D01*
X905000Y774500D02*
Y780500D01*
X887500Y878000D02*
X939500D01*
Y862000D01*
X887500D01*
Y878000D01*
X886500Y737500D02*
X892500D01*
X889500Y734500D02*
Y740500D01*
X1041000Y713000D02*
X1055000D01*
Y737000D02*
X1041000D01*
Y832000D02*
X1055000D01*
Y856000D02*
X1041000D01*
X1033500Y820000D02*
X1023500D01*
X1083500D02*
X1093500D01*
X1083500Y812000D02*
Y828000D01*
X1033500D01*
Y812000D01*
X1083500D01*
D02*
M02*
