G04 #@! TF.GenerationSoftware,KiCad,Pcbnew,(5.1.7-0-10_14)*
G04 #@! TF.CreationDate,2020-11-05T19:54:46+01:00*
G04 #@! TF.ProjectId,lv-lownoise-psu,6c762d6c-6f77-46e6-9f69-73652d707375,rev?*
G04 #@! TF.SameCoordinates,Original*
G04 #@! TF.FileFunction,Soldermask,Top*
G04 #@! TF.FilePolarity,Negative*
%FSLAX46Y46*%
G04 Gerber Fmt 4.6, Leading zero omitted, Abs format (unit mm)*
G04 Created by KiCad (PCBNEW (5.1.7-0-10_14)) date 2020-11-05 19:54:46*
%MOMM*%
%LPD*%
G01*
G04 APERTURE LIST*
%ADD10O,1.800000X1.800000*%
%ADD11R,1.800000X1.800000*%
%ADD12R,1.220000X0.650000*%
%ADD13C,1.440000*%
%ADD14C,2.600000*%
%ADD15C,3.200000*%
%ADD16R,1.000000X0.800000*%
G04 APERTURE END LIST*
G36*
G01*
X104007499Y-75076000D02*
X104907501Y-75076000D01*
G75*
G02*
X105157500Y-75325999I0J-249999D01*
G01*
X105157500Y-76026001D01*
G75*
G02*
X104907501Y-76276000I-249999J0D01*
G01*
X104007499Y-76276000D01*
G75*
G02*
X103757500Y-76026001I0J249999D01*
G01*
X103757500Y-75325999D01*
G75*
G02*
X104007499Y-75076000I249999J0D01*
G01*
G37*
G36*
G01*
X104007499Y-73076000D02*
X104907501Y-73076000D01*
G75*
G02*
X105157500Y-73325999I0J-249999D01*
G01*
X105157500Y-74026001D01*
G75*
G02*
X104907501Y-74276000I-249999J0D01*
G01*
X104007499Y-74276000D01*
G75*
G02*
X103757500Y-74026001I0J249999D01*
G01*
X103757500Y-73325999D01*
G75*
G02*
X104007499Y-73076000I249999J0D01*
G01*
G37*
G36*
G01*
X101889000Y-74237001D02*
X101889000Y-73336999D01*
G75*
G02*
X102138999Y-73087000I249999J0D01*
G01*
X102839001Y-73087000D01*
G75*
G02*
X103089000Y-73336999I0J-249999D01*
G01*
X103089000Y-74237001D01*
G75*
G02*
X102839001Y-74487000I-249999J0D01*
G01*
X102138999Y-74487000D01*
G75*
G02*
X101889000Y-74237001I0J249999D01*
G01*
G37*
G36*
G01*
X99889000Y-74237001D02*
X99889000Y-73336999D01*
G75*
G02*
X100138999Y-73087000I249999J0D01*
G01*
X100839001Y-73087000D01*
G75*
G02*
X101089000Y-73336999I0J-249999D01*
G01*
X101089000Y-74237001D01*
G75*
G02*
X100839001Y-74487000I-249999J0D01*
G01*
X100138999Y-74487000D01*
G75*
G02*
X99889000Y-74237001I0J249999D01*
G01*
G37*
G36*
G01*
X101009500Y-54731499D02*
X101009500Y-55631501D01*
G75*
G02*
X100759501Y-55881500I-249999J0D01*
G01*
X100059499Y-55881500D01*
G75*
G02*
X99809500Y-55631501I0J249999D01*
G01*
X99809500Y-54731499D01*
G75*
G02*
X100059499Y-54481500I249999J0D01*
G01*
X100759501Y-54481500D01*
G75*
G02*
X101009500Y-54731499I0J-249999D01*
G01*
G37*
G36*
G01*
X103009500Y-54731499D02*
X103009500Y-55631501D01*
G75*
G02*
X102759501Y-55881500I-249999J0D01*
G01*
X102059499Y-55881500D01*
G75*
G02*
X101809500Y-55631501I0J249999D01*
G01*
X101809500Y-54731499D01*
G75*
G02*
X102059499Y-54481500I249999J0D01*
G01*
X102759501Y-54481500D01*
G75*
G02*
X103009500Y-54731499I0J-249999D01*
G01*
G37*
G36*
G01*
X103943999Y-54692500D02*
X104844001Y-54692500D01*
G75*
G02*
X105094000Y-54942499I0J-249999D01*
G01*
X105094000Y-55642501D01*
G75*
G02*
X104844001Y-55892500I-249999J0D01*
G01*
X103943999Y-55892500D01*
G75*
G02*
X103694000Y-55642501I0J249999D01*
G01*
X103694000Y-54942499D01*
G75*
G02*
X103943999Y-54692500I249999J0D01*
G01*
G37*
G36*
G01*
X103943999Y-52692500D02*
X104844001Y-52692500D01*
G75*
G02*
X105094000Y-52942499I0J-249999D01*
G01*
X105094000Y-53642501D01*
G75*
G02*
X104844001Y-53892500I-249999J0D01*
G01*
X103943999Y-53892500D01*
G75*
G02*
X103694000Y-53642501I0J249999D01*
G01*
X103694000Y-52942499D01*
G75*
G02*
X103943999Y-52692500I249999J0D01*
G01*
G37*
D10*
X101409500Y-78295500D03*
X103949500Y-78295500D03*
D11*
X106489500Y-78295500D03*
D10*
X101473000Y-49974500D03*
X104013000Y-49974500D03*
D11*
X106553000Y-49974500D03*
D12*
X111840000Y-74803000D03*
X111840000Y-76703000D03*
X109220000Y-76703000D03*
X109220000Y-75753000D03*
X109220000Y-74803000D03*
X111741001Y-53302001D03*
X111741001Y-55202001D03*
X109121001Y-55202001D03*
X109121001Y-54252001D03*
X109121001Y-53302001D03*
D13*
X115620800Y-83312000D03*
X115620800Y-80772000D03*
X115620800Y-78232000D03*
X115570000Y-61976000D03*
X115570000Y-59436000D03*
X115570000Y-56896000D03*
G36*
G01*
X112260801Y-78984400D02*
X111360799Y-78984400D01*
G75*
G02*
X111110800Y-78734401I0J249999D01*
G01*
X111110800Y-78034399D01*
G75*
G02*
X111360799Y-77784400I249999J0D01*
G01*
X112260801Y-77784400D01*
G75*
G02*
X112510800Y-78034399I0J-249999D01*
G01*
X112510800Y-78734401D01*
G75*
G02*
X112260801Y-78984400I-249999J0D01*
G01*
G37*
G36*
G01*
X112260801Y-80984400D02*
X111360799Y-80984400D01*
G75*
G02*
X111110800Y-80734401I0J249999D01*
G01*
X111110800Y-80034399D01*
G75*
G02*
X111360799Y-79784400I249999J0D01*
G01*
X112260801Y-79784400D01*
G75*
G02*
X112510800Y-80034399I0J-249999D01*
G01*
X112510800Y-80734401D01*
G75*
G02*
X112260801Y-80984400I-249999J0D01*
G01*
G37*
G36*
G01*
X111309999Y-58296000D02*
X112210001Y-58296000D01*
G75*
G02*
X112460000Y-58545999I0J-249999D01*
G01*
X112460000Y-59246001D01*
G75*
G02*
X112210001Y-59496000I-249999J0D01*
G01*
X111309999Y-59496000D01*
G75*
G02*
X111060000Y-59246001I0J249999D01*
G01*
X111060000Y-58545999D01*
G75*
G02*
X111309999Y-58296000I249999J0D01*
G01*
G37*
G36*
G01*
X111309999Y-56296000D02*
X112210001Y-56296000D01*
G75*
G02*
X112460000Y-56545999I0J-249999D01*
G01*
X112460000Y-57246001D01*
G75*
G02*
X112210001Y-57496000I-249999J0D01*
G01*
X111309999Y-57496000D01*
G75*
G02*
X111060000Y-57246001I0J249999D01*
G01*
X111060000Y-56545999D01*
G75*
G02*
X111309999Y-56296000I249999J0D01*
G01*
G37*
D14*
X122809000Y-74676000D03*
X122809000Y-64058800D03*
X122809000Y-53340000D03*
X86868000Y-55880000D03*
X86868000Y-64135000D03*
X86868000Y-72390000D03*
D15*
X125730000Y-45720000D03*
X125730000Y-82550000D03*
X85090000Y-82550000D03*
X85090000Y-45720000D03*
D16*
X96964500Y-63119000D03*
X96964500Y-65659000D03*
X90814500Y-65659000D03*
X90814500Y-63119000D03*
G36*
G01*
X114333000Y-74110000D02*
X115283000Y-74110000D01*
G75*
G02*
X115533000Y-74360000I0J-250000D01*
G01*
X115533000Y-75035000D01*
G75*
G02*
X115283000Y-75285000I-250000J0D01*
G01*
X114333000Y-75285000D01*
G75*
G02*
X114083000Y-75035000I0J250000D01*
G01*
X114083000Y-74360000D01*
G75*
G02*
X114333000Y-74110000I250000J0D01*
G01*
G37*
G36*
G01*
X114333000Y-72035000D02*
X115283000Y-72035000D01*
G75*
G02*
X115533000Y-72285000I0J-250000D01*
G01*
X115533000Y-72960000D01*
G75*
G02*
X115283000Y-73210000I-250000J0D01*
G01*
X114333000Y-73210000D01*
G75*
G02*
X114083000Y-72960000I0J250000D01*
G01*
X114083000Y-72285000D01*
G75*
G02*
X114333000Y-72035000I250000J0D01*
G01*
G37*
G36*
G01*
X115283000Y-51852500D02*
X114333000Y-51852500D01*
G75*
G02*
X114083000Y-51602500I0J250000D01*
G01*
X114083000Y-50927500D01*
G75*
G02*
X114333000Y-50677500I250000J0D01*
G01*
X115283000Y-50677500D01*
G75*
G02*
X115533000Y-50927500I0J-250000D01*
G01*
X115533000Y-51602500D01*
G75*
G02*
X115283000Y-51852500I-250000J0D01*
G01*
G37*
G36*
G01*
X115283000Y-53927500D02*
X114333000Y-53927500D01*
G75*
G02*
X114083000Y-53677500I0J250000D01*
G01*
X114083000Y-53002500D01*
G75*
G02*
X114333000Y-52752500I250000J0D01*
G01*
X115283000Y-52752500D01*
G75*
G02*
X115533000Y-53002500I0J-250000D01*
G01*
X115533000Y-53677500D01*
G75*
G02*
X115283000Y-53927500I-250000J0D01*
G01*
G37*
G36*
G01*
X110835000Y-72148000D02*
X112685000Y-72148000D01*
G75*
G02*
X112935000Y-72398000I0J-250000D01*
G01*
X112935000Y-73398000D01*
G75*
G02*
X112685000Y-73648000I-250000J0D01*
G01*
X110835000Y-73648000D01*
G75*
G02*
X110585000Y-73398000I0J250000D01*
G01*
X110585000Y-72398000D01*
G75*
G02*
X110835000Y-72148000I250000J0D01*
G01*
G37*
G36*
G01*
X110835000Y-68898000D02*
X112685000Y-68898000D01*
G75*
G02*
X112935000Y-69148000I0J-250000D01*
G01*
X112935000Y-70148000D01*
G75*
G02*
X112685000Y-70398000I-250000J0D01*
G01*
X110835000Y-70398000D01*
G75*
G02*
X110585000Y-70148000I0J250000D01*
G01*
X110585000Y-69148000D01*
G75*
G02*
X110835000Y-68898000I250000J0D01*
G01*
G37*
G36*
G01*
X112685000Y-48808000D02*
X110835000Y-48808000D01*
G75*
G02*
X110585000Y-48558000I0J250000D01*
G01*
X110585000Y-47558000D01*
G75*
G02*
X110835000Y-47308000I250000J0D01*
G01*
X112685000Y-47308000D01*
G75*
G02*
X112935000Y-47558000I0J-250000D01*
G01*
X112935000Y-48558000D01*
G75*
G02*
X112685000Y-48808000I-250000J0D01*
G01*
G37*
G36*
G01*
X112685000Y-52058000D02*
X110835000Y-52058000D01*
G75*
G02*
X110585000Y-51808000I0J250000D01*
G01*
X110585000Y-50808000D01*
G75*
G02*
X110835000Y-50558000I250000J0D01*
G01*
X112685000Y-50558000D01*
G75*
G02*
X112935000Y-50808000I0J-250000D01*
G01*
X112935000Y-51808000D01*
G75*
G02*
X112685000Y-52058000I-250000J0D01*
G01*
G37*
G36*
G01*
X106014500Y-75147500D02*
X106964500Y-75147500D01*
G75*
G02*
X107214500Y-75397500I0J-250000D01*
G01*
X107214500Y-76072500D01*
G75*
G02*
X106964500Y-76322500I-250000J0D01*
G01*
X106014500Y-76322500D01*
G75*
G02*
X105764500Y-76072500I0J250000D01*
G01*
X105764500Y-75397500D01*
G75*
G02*
X106014500Y-75147500I250000J0D01*
G01*
G37*
G36*
G01*
X106014500Y-73072500D02*
X106964500Y-73072500D01*
G75*
G02*
X107214500Y-73322500I0J-250000D01*
G01*
X107214500Y-73997500D01*
G75*
G02*
X106964500Y-74247500I-250000J0D01*
G01*
X106014500Y-74247500D01*
G75*
G02*
X105764500Y-73997500I0J250000D01*
G01*
X105764500Y-73322500D01*
G75*
G02*
X106014500Y-73072500I250000J0D01*
G01*
G37*
G36*
G01*
X106078000Y-54764000D02*
X107028000Y-54764000D01*
G75*
G02*
X107278000Y-55014000I0J-250000D01*
G01*
X107278000Y-55689000D01*
G75*
G02*
X107028000Y-55939000I-250000J0D01*
G01*
X106078000Y-55939000D01*
G75*
G02*
X105828000Y-55689000I0J250000D01*
G01*
X105828000Y-55014000D01*
G75*
G02*
X106078000Y-54764000I250000J0D01*
G01*
G37*
G36*
G01*
X106078000Y-52689000D02*
X107028000Y-52689000D01*
G75*
G02*
X107278000Y-52939000I0J-250000D01*
G01*
X107278000Y-53614000D01*
G75*
G02*
X107028000Y-53864000I-250000J0D01*
G01*
X106078000Y-53864000D01*
G75*
G02*
X105828000Y-53614000I0J250000D01*
G01*
X105828000Y-52939000D01*
G75*
G02*
X106078000Y-52689000I250000J0D01*
G01*
G37*
G36*
G01*
X95043500Y-71600000D02*
X93043500Y-71600000D01*
G75*
G02*
X92793500Y-71350000I0J250000D01*
G01*
X92793500Y-68350000D01*
G75*
G02*
X93043500Y-68100000I250000J0D01*
G01*
X95043500Y-68100000D01*
G75*
G02*
X95293500Y-68350000I0J-250000D01*
G01*
X95293500Y-71350000D01*
G75*
G02*
X95043500Y-71600000I-250000J0D01*
G01*
G37*
G36*
G01*
X95043500Y-78100000D02*
X93043500Y-78100000D01*
G75*
G02*
X92793500Y-77850000I0J250000D01*
G01*
X92793500Y-74850000D01*
G75*
G02*
X93043500Y-74600000I250000J0D01*
G01*
X95043500Y-74600000D01*
G75*
G02*
X95293500Y-74850000I0J-250000D01*
G01*
X95293500Y-77850000D01*
G75*
G02*
X95043500Y-78100000I-250000J0D01*
G01*
G37*
G36*
G01*
X95107000Y-54432000D02*
X93107000Y-54432000D01*
G75*
G02*
X92857000Y-54182000I0J250000D01*
G01*
X92857000Y-51182000D01*
G75*
G02*
X93107000Y-50932000I250000J0D01*
G01*
X95107000Y-50932000D01*
G75*
G02*
X95357000Y-51182000I0J-250000D01*
G01*
X95357000Y-54182000D01*
G75*
G02*
X95107000Y-54432000I-250000J0D01*
G01*
G37*
G36*
G01*
X95107000Y-60932000D02*
X93107000Y-60932000D01*
G75*
G02*
X92857000Y-60682000I0J250000D01*
G01*
X92857000Y-57682000D01*
G75*
G02*
X93107000Y-57432000I250000J0D01*
G01*
X95107000Y-57432000D01*
G75*
G02*
X95357000Y-57682000I0J-250000D01*
G01*
X95357000Y-60682000D01*
G75*
G02*
X95107000Y-60932000I-250000J0D01*
G01*
G37*
M02*
