M48
; DRILL file {KiCad (6.0.1-0)} date 2022 February 08, Tuesday 15:39:58
; FORMAT={-:-/ absolute / inch / decimal}
; #@! TF.CreationDate,2022-02-08T15:39:58+01:00
; #@! TF.GenerationSoftware,Kicad,Pcbnew,(6.0.1-0)
; #@! TF.FileFunction,Plated,1,2,PTH
FMAT,2
INCH
; #@! TA.AperFunction,Plated,PTH,ComponentDrill
T1C0.0197
; #@! TA.AperFunction,Plated,PTH,ComponentDrill
T2C0.0315
; #@! TA.AperFunction,Plated,PTH,ComponentDrill
T3C0.0433
; #@! TA.AperFunction,Plated,PTH,ComponentDrill
T4C0.0472
; #@! TA.AperFunction,Plated,PTH,ComponentDrill
T5C0.0512
; #@! TA.AperFunction,Plated,PTH,ComponentDrill
T6C0.0563
; #@! TA.AperFunction,Plated,PTH,ComponentDrill
T7C0.0630
; #@! TA.AperFunction,Plated,PTH,ComponentDrill
T8C0.0984
; #@! TA.AperFunction,Plated,PTH,ComponentDrill
T9C0.1260
%
G90
G05
T1
X3.2655Y-2.4
X3.2655Y-4.0
X3.2932Y-2.3332
X3.2932Y-2.4668
X3.2932Y-3.9332
X3.2932Y-4.0668
X3.36Y-2.3055
X3.36Y-2.4945
X3.36Y-3.9055
X3.36Y-4.0945
X3.4268Y-2.3332
X3.4268Y-2.4668
X3.4268Y-3.9332
X3.4268Y-4.0668
X3.4545Y-2.4
X3.4545Y-4.0
X5.3755Y-2.4
X5.3755Y-4.0
X5.4032Y-2.3332
X5.4032Y-2.4668
X5.4032Y-3.9332
X5.4032Y-4.0668
X5.47Y-2.3055
X5.47Y-2.4945
X5.47Y-3.9055
X5.47Y-4.0945
X5.5368Y-2.3332
X5.5368Y-2.4668
X5.5368Y-3.9332
X5.5368Y-4.0668
X5.5645Y-2.4
X5.5645Y-4.0
T2
X4.28Y-2.67
X4.28Y-3.07
X4.28Y-3.17
X4.28Y-3.57
X4.53Y-3.07
X4.53Y-3.2078
T3
X4.94Y-3.07
X4.94Y-3.17
X4.94Y-3.27
T4
X4.01Y-2.59
X4.01Y-3.79
T5
X3.36Y-3.07
X3.36Y-3.2669
X5.47Y-3.08
X5.47Y-3.2769
T6
X3.36Y-2.68
X3.36Y-2.88
X3.36Y-3.455
X3.36Y-3.655
X5.47Y-2.69
X5.47Y-2.89
X5.47Y-3.47
X5.47Y-3.67
T7
X3.68Y-2.47
X3.68Y-3.07
X3.68Y-3.28
X3.68Y-3.88
X5.19Y-2.48
X5.19Y-3.08
X5.19Y-3.28
X5.19Y-3.88
T8
X4.77Y-2.67
X4.77Y-3.67
T9
X3.36Y-2.4
X3.36Y-4.0
X5.47Y-2.4
X5.47Y-4.0
T0
M30
