G04 #@! TF.GenerationSoftware,KiCad,Pcbnew,(6.0.2-0)*
G04 #@! TF.CreationDate,2022-03-16T14:02:15+01:00*
G04 #@! TF.ProjectId,protection-relais,70726f74-6563-4746-996f-6e2d72656c61,rev?*
G04 #@! TF.SameCoordinates,Original*
G04 #@! TF.FileFunction,Soldermask,Bot*
G04 #@! TF.FilePolarity,Negative*
%FSLAX46Y46*%
G04 Gerber Fmt 4.6, Leading zero omitted, Abs format (unit mm)*
G04 Created by KiCad (PCBNEW (6.0.2-0)) date 2022-03-16 14:02:15*
%MOMM*%
%LPD*%
G01*
G04 APERTURE LIST*
%ADD10R,2.500000X2.500000*%
%ADD11C,2.500000*%
%ADD12C,2.145000*%
%ADD13R,1.600000X1.600000*%
%ADD14C,1.600000*%
%ADD15C,2.000000*%
%ADD16C,0.800000*%
%ADD17C,6.400000*%
%ADD18O,3.200000X1.600000*%
G04 APERTURE END LIST*
D10*
X121920000Y-71802000D03*
D11*
X121920000Y-66802000D03*
D12*
X118872000Y-76454000D03*
X123952000Y-76454000D03*
D13*
X87630000Y-67858000D03*
D14*
X87630000Y-70358000D03*
D15*
X131064000Y-88900000D03*
D12*
X119380000Y-118110000D03*
X124460000Y-118110000D03*
D15*
X131064000Y-84328000D03*
X125222000Y-88900000D03*
D10*
X100330000Y-61976000D03*
D11*
X105330000Y-61976000D03*
D15*
X131064000Y-79756000D03*
X131064000Y-102616000D03*
D10*
X121920000Y-108538000D03*
D11*
X121920000Y-113538000D03*
D12*
X109982000Y-121158000D03*
X109982000Y-116078000D03*
D16*
X87630000Y-63360000D03*
X85230000Y-60960000D03*
D17*
X87630000Y-60960000D03*
D16*
X85932944Y-62657056D03*
X87630000Y-58560000D03*
X89327056Y-62657056D03*
X89327056Y-59262944D03*
X85932944Y-59262944D03*
X90030000Y-60960000D03*
D12*
X118872000Y-62230000D03*
X123952000Y-62230000D03*
D10*
X100410000Y-119126000D03*
D11*
X105410000Y-119126000D03*
D12*
X119380000Y-103886000D03*
X124460000Y-103886000D03*
D16*
X130382944Y-59402944D03*
X132080000Y-63500000D03*
X134480000Y-61100000D03*
X129680000Y-61100000D03*
X130382944Y-62797056D03*
X133777056Y-62797056D03*
X132080000Y-58700000D03*
D17*
X132080000Y-61100000D03*
D16*
X133777056Y-59402944D03*
D13*
X87630000Y-77430000D03*
D14*
X87630000Y-74930000D03*
D13*
X96774000Y-91186000D03*
D14*
X96774000Y-89186000D03*
D12*
X95758000Y-64516000D03*
X95758000Y-59436000D03*
D15*
X131064000Y-98044000D03*
D12*
X109982000Y-64516000D03*
X109982000Y-59436000D03*
X95758000Y-121158000D03*
X95758000Y-116078000D03*
D13*
X87630000Y-102449621D03*
D14*
X87630000Y-104949621D03*
D13*
X95758000Y-81026000D03*
D14*
X113538000Y-81026000D03*
D18*
X105918000Y-68326000D03*
X95758000Y-68326000D03*
D13*
X87630000Y-112014001D03*
D14*
X87630000Y-109514001D03*
D13*
X113538000Y-99314000D03*
D14*
X95758000Y-99314000D03*
D18*
X103378000Y-112014000D03*
X113538000Y-112014000D03*
D16*
X134480000Y-119380000D03*
X129680000Y-119380000D03*
X130382944Y-117682944D03*
X130382944Y-121077056D03*
X133777056Y-117682944D03*
D17*
X132080000Y-119380000D03*
D16*
X133777056Y-121077056D03*
X132080000Y-116980000D03*
X132080000Y-121780000D03*
X85932944Y-121077056D03*
X89327056Y-121077056D03*
X89327056Y-117682944D03*
X87630000Y-116980000D03*
D17*
X87630000Y-119380000D03*
D16*
X87630000Y-121780000D03*
X90030000Y-119380000D03*
X85230000Y-119380000D03*
X85932944Y-117682944D03*
M02*
