G04 #@! TF.GenerationSoftware,KiCad,Pcbnew,(6.0.2-0)*
G04 #@! TF.CreationDate,2022-03-16T14:02:14+01:00*
G04 #@! TF.ProjectId,protection-relais,70726f74-6563-4746-996f-6e2d72656c61,rev?*
G04 #@! TF.SameCoordinates,Original*
G04 #@! TF.FileFunction,Legend,Top*
G04 #@! TF.FilePolarity,Positive*
%FSLAX46Y46*%
G04 Gerber Fmt 4.6, Leading zero omitted, Abs format (unit mm)*
G04 Created by KiCad (PCBNEW (6.0.2-0)) date 2022-03-16 14:02:14*
%MOMM*%
%LPD*%
G01*
G04 APERTURE LIST*
%ADD10C,0.150000*%
%ADD11C,0.120000*%
%ADD12C,0.127000*%
%ADD13C,0.200000*%
G04 APERTURE END LIST*
D10*
X108434380Y-123642380D02*
X108434380Y-122642380D01*
X108910571Y-123642380D02*
X108910571Y-122642380D01*
X109482000Y-123642380D01*
X109482000Y-122642380D01*
X110434380Y-123642380D02*
X109958190Y-123642380D01*
X109958190Y-122642380D01*
X110767714Y-123261428D02*
X111529619Y-123261428D01*
X126960380Y-120133809D02*
X126960380Y-119943333D01*
X127008000Y-119848095D01*
X127103238Y-119752857D01*
X127293714Y-119705238D01*
X127627047Y-119705238D01*
X127817523Y-119752857D01*
X127912761Y-119848095D01*
X127960380Y-119943333D01*
X127960380Y-120133809D01*
X127912761Y-120229047D01*
X127817523Y-120324285D01*
X127627047Y-120371904D01*
X127293714Y-120371904D01*
X127103238Y-120324285D01*
X127008000Y-120229047D01*
X126960380Y-120133809D01*
X126960380Y-119276666D02*
X127769904Y-119276666D01*
X127865142Y-119229047D01*
X127912761Y-119181428D01*
X127960380Y-119086190D01*
X127960380Y-118895714D01*
X127912761Y-118800476D01*
X127865142Y-118752857D01*
X127769904Y-118705238D01*
X126960380Y-118705238D01*
X126960380Y-118371904D02*
X126960380Y-117800476D01*
X127960380Y-118086190D02*
X126960380Y-118086190D01*
X127960380Y-116990952D02*
X127960380Y-117467142D01*
X126960380Y-117467142D01*
X127579428Y-116657619D02*
X127579428Y-115895714D01*
X126452380Y-64349047D02*
X126452380Y-64158571D01*
X126500000Y-64063333D01*
X126595238Y-63968095D01*
X126785714Y-63920476D01*
X127119047Y-63920476D01*
X127309523Y-63968095D01*
X127404761Y-64063333D01*
X127452380Y-64158571D01*
X127452380Y-64349047D01*
X127404761Y-64444285D01*
X127309523Y-64539523D01*
X127119047Y-64587142D01*
X126785714Y-64587142D01*
X126595238Y-64539523D01*
X126500000Y-64444285D01*
X126452380Y-64349047D01*
X126452380Y-63491904D02*
X127261904Y-63491904D01*
X127357142Y-63444285D01*
X127404761Y-63396666D01*
X127452380Y-63301428D01*
X127452380Y-63110952D01*
X127404761Y-63015714D01*
X127357142Y-62968095D01*
X127261904Y-62920476D01*
X126452380Y-62920476D01*
X126452380Y-62587142D02*
X126452380Y-62015714D01*
X127452380Y-62301428D02*
X126452380Y-62301428D01*
X127452380Y-61110952D02*
X126976190Y-61444285D01*
X127452380Y-61682380D02*
X126452380Y-61682380D01*
X126452380Y-61301428D01*
X126500000Y-61206190D01*
X126547619Y-61158571D01*
X126642857Y-61110952D01*
X126785714Y-61110952D01*
X126880952Y-61158571D01*
X126928571Y-61206190D01*
X126976190Y-61301428D01*
X126976190Y-61682380D01*
X127071428Y-60682380D02*
X127071428Y-59920476D01*
X133675428Y-99805904D02*
X133675428Y-99044000D01*
X134056380Y-99424952D02*
X133294476Y-99424952D01*
X133056380Y-98091619D02*
X133056380Y-98567809D01*
X133532571Y-98615428D01*
X133484952Y-98567809D01*
X133437333Y-98472571D01*
X133437333Y-98234476D01*
X133484952Y-98139238D01*
X133532571Y-98091619D01*
X133627809Y-98044000D01*
X133865904Y-98044000D01*
X133961142Y-98091619D01*
X134008761Y-98139238D01*
X134056380Y-98234476D01*
X134056380Y-98472571D01*
X134008761Y-98567809D01*
X133961142Y-98615428D01*
X133056380Y-97424952D02*
X133056380Y-97329714D01*
X133104000Y-97234476D01*
X133151619Y-97186857D01*
X133246857Y-97139238D01*
X133437333Y-97091619D01*
X133675428Y-97091619D01*
X133865904Y-97139238D01*
X133961142Y-97186857D01*
X134008761Y-97234476D01*
X134056380Y-97329714D01*
X134056380Y-97424952D01*
X134008761Y-97520190D01*
X133961142Y-97567809D01*
X133865904Y-97615428D01*
X133675428Y-97663047D01*
X133437333Y-97663047D01*
X133246857Y-97615428D01*
X133151619Y-97567809D01*
X133104000Y-97520190D01*
X133056380Y-97424952D01*
X133056380Y-96805904D02*
X134056380Y-96472571D01*
X133056380Y-96139238D01*
X127928666Y-92495238D02*
X127928666Y-92019047D01*
X128214380Y-92590476D02*
X127214380Y-92257142D01*
X128214380Y-91923809D01*
X128119142Y-91019047D02*
X128166761Y-91066666D01*
X128214380Y-91209523D01*
X128214380Y-91304761D01*
X128166761Y-91447619D01*
X128071523Y-91542857D01*
X127976285Y-91590476D01*
X127785809Y-91638095D01*
X127642952Y-91638095D01*
X127452476Y-91590476D01*
X127357238Y-91542857D01*
X127262000Y-91447619D01*
X127214380Y-91304761D01*
X127214380Y-91209523D01*
X127262000Y-91066666D01*
X127309619Y-91019047D01*
X128309619Y-90828571D02*
X128309619Y-90066666D01*
X128214380Y-89828571D02*
X127214380Y-89828571D01*
X127214380Y-89590476D01*
X127262000Y-89447619D01*
X127357238Y-89352380D01*
X127452476Y-89304761D01*
X127642952Y-89257142D01*
X127785809Y-89257142D01*
X127976285Y-89304761D01*
X128071523Y-89352380D01*
X128166761Y-89447619D01*
X128214380Y-89590476D01*
X128214380Y-89828571D01*
X127690571Y-88828571D02*
X127690571Y-88495238D01*
X128214380Y-88352380D02*
X128214380Y-88828571D01*
X127214380Y-88828571D01*
X127214380Y-88352380D01*
X127214380Y-88066666D02*
X127214380Y-87495238D01*
X128214380Y-87780952D02*
X127214380Y-87780952D01*
X128309619Y-87400000D02*
X128309619Y-86638095D01*
X128214380Y-86400000D02*
X127214380Y-86400000D01*
X128214380Y-85923809D02*
X127214380Y-85923809D01*
X128214380Y-85352380D01*
X127214380Y-85352380D01*
X126452380Y-78573047D02*
X126452380Y-78382571D01*
X126500000Y-78287333D01*
X126595238Y-78192095D01*
X126785714Y-78144476D01*
X127119047Y-78144476D01*
X127309523Y-78192095D01*
X127404761Y-78287333D01*
X127452380Y-78382571D01*
X127452380Y-78573047D01*
X127404761Y-78668285D01*
X127309523Y-78763523D01*
X127119047Y-78811142D01*
X126785714Y-78811142D01*
X126595238Y-78763523D01*
X126500000Y-78668285D01*
X126452380Y-78573047D01*
X126452380Y-77715904D02*
X127261904Y-77715904D01*
X127357142Y-77668285D01*
X127404761Y-77620666D01*
X127452380Y-77525428D01*
X127452380Y-77334952D01*
X127404761Y-77239714D01*
X127357142Y-77192095D01*
X127261904Y-77144476D01*
X126452380Y-77144476D01*
X126452380Y-76811142D02*
X126452380Y-76239714D01*
X127452380Y-76525428D02*
X126452380Y-76525428D01*
X127452380Y-75334952D02*
X126976190Y-75668285D01*
X127452380Y-75906380D02*
X126452380Y-75906380D01*
X126452380Y-75525428D01*
X126500000Y-75430190D01*
X126547619Y-75382571D01*
X126642857Y-75334952D01*
X126785714Y-75334952D01*
X126880952Y-75382571D01*
X126928571Y-75430190D01*
X126976190Y-75525428D01*
X126976190Y-75906380D01*
X127071428Y-74906380D02*
X127071428Y-74144476D01*
X127452380Y-74525428D02*
X126690476Y-74525428D01*
X133104000Y-103377904D02*
X133056380Y-103473142D01*
X133056380Y-103616000D01*
X133104000Y-103758857D01*
X133199238Y-103854095D01*
X133294476Y-103901714D01*
X133484952Y-103949333D01*
X133627809Y-103949333D01*
X133818285Y-103901714D01*
X133913523Y-103854095D01*
X134008761Y-103758857D01*
X134056380Y-103616000D01*
X134056380Y-103520761D01*
X134008761Y-103377904D01*
X133961142Y-103330285D01*
X133627809Y-103330285D01*
X133627809Y-103520761D01*
X134056380Y-102901714D02*
X133056380Y-102901714D01*
X134056380Y-102330285D01*
X133056380Y-102330285D01*
X134056380Y-101854095D02*
X133056380Y-101854095D01*
X133056380Y-101616000D01*
X133104000Y-101473142D01*
X133199238Y-101377904D01*
X133294476Y-101330285D01*
X133484952Y-101282666D01*
X133627809Y-101282666D01*
X133818285Y-101330285D01*
X133913523Y-101377904D01*
X134008761Y-101473142D01*
X134056380Y-101616000D01*
X134056380Y-101854095D01*
X111624857Y-56443619D02*
X111624857Y-57443619D01*
X111148666Y-56443619D02*
X111148666Y-57443619D01*
X110577238Y-56443619D01*
X110577238Y-57443619D01*
X109529619Y-56443619D02*
X109862952Y-56919809D01*
X110101047Y-56443619D02*
X110101047Y-57443619D01*
X109720095Y-57443619D01*
X109624857Y-57396000D01*
X109577238Y-57348380D01*
X109529619Y-57253142D01*
X109529619Y-57110285D01*
X109577238Y-57015047D01*
X109624857Y-56967428D01*
X109720095Y-56919809D01*
X110101047Y-56919809D01*
X109101047Y-56824571D02*
X108339142Y-56824571D01*
X109212095Y-84018380D02*
X109212095Y-83018380D01*
X109783523Y-84018380D02*
X109354952Y-83446952D01*
X109783523Y-83018380D02*
X109212095Y-83589809D01*
X92702095Y-95448380D02*
X92702095Y-94448380D01*
X93273523Y-95448380D02*
X92844952Y-94876952D01*
X93273523Y-94448380D02*
X92702095Y-95019809D01*
X133770666Y-85803904D02*
X133770666Y-85327714D01*
X134056380Y-85899142D02*
X133056380Y-85565809D01*
X134056380Y-85232476D01*
X133961142Y-84327714D02*
X134008761Y-84375333D01*
X134056380Y-84518190D01*
X134056380Y-84613428D01*
X134008761Y-84756285D01*
X133913523Y-84851523D01*
X133818285Y-84899142D01*
X133627809Y-84946761D01*
X133484952Y-84946761D01*
X133294476Y-84899142D01*
X133199238Y-84851523D01*
X133104000Y-84756285D01*
X133056380Y-84613428D01*
X133056380Y-84518190D01*
X133104000Y-84375333D01*
X133151619Y-84327714D01*
X134151619Y-84137238D02*
X134151619Y-83375333D01*
X134056380Y-83137238D02*
X133056380Y-83137238D01*
X133056380Y-82899142D01*
X133104000Y-82756285D01*
X133199238Y-82661047D01*
X133294476Y-82613428D01*
X133484952Y-82565809D01*
X133627809Y-82565809D01*
X133818285Y-82613428D01*
X133913523Y-82661047D01*
X134008761Y-82756285D01*
X134056380Y-82899142D01*
X134056380Y-83137238D01*
X133532571Y-82137238D02*
X133532571Y-81803904D01*
X134056380Y-81661047D02*
X134056380Y-82137238D01*
X133056380Y-82137238D01*
X133056380Y-81661047D01*
X133056380Y-81375333D02*
X133056380Y-80803904D01*
X134056380Y-81089619D02*
X133056380Y-81089619D01*
X134151619Y-80708666D02*
X134151619Y-79946761D01*
X133770666Y-79756285D02*
X133770666Y-79280095D01*
X134056380Y-79851523D02*
X133056380Y-79518190D01*
X134056380Y-79184857D01*
X133961142Y-78280095D02*
X134008761Y-78327714D01*
X134056380Y-78470571D01*
X134056380Y-78565809D01*
X134008761Y-78708666D01*
X133913523Y-78803904D01*
X133818285Y-78851523D01*
X133627809Y-78899142D01*
X133484952Y-78899142D01*
X133294476Y-78851523D01*
X133199238Y-78803904D01*
X133104000Y-78708666D01*
X133056380Y-78565809D01*
X133056380Y-78470571D01*
X133104000Y-78327714D01*
X133151619Y-78280095D01*
X129863380Y-75246952D02*
X129863380Y-75723142D01*
X128863380Y-75723142D01*
X129815761Y-74961238D02*
X129863380Y-74818380D01*
X129863380Y-74580285D01*
X129815761Y-74485047D01*
X129768142Y-74437428D01*
X129672904Y-74389809D01*
X129577666Y-74389809D01*
X129482428Y-74437428D01*
X129434809Y-74485047D01*
X129387190Y-74580285D01*
X129339571Y-74770761D01*
X129291952Y-74866000D01*
X129244333Y-74913619D01*
X129149095Y-74961238D01*
X129053857Y-74961238D01*
X128958619Y-74913619D01*
X128911000Y-74866000D01*
X128863380Y-74770761D01*
X128863380Y-74532666D01*
X128911000Y-74389809D01*
X129863380Y-73199333D02*
X128863380Y-73199333D01*
X128863380Y-72818380D01*
X128911000Y-72723142D01*
X128958619Y-72675523D01*
X129053857Y-72627904D01*
X129196714Y-72627904D01*
X129291952Y-72675523D01*
X129339571Y-72723142D01*
X129387190Y-72818380D01*
X129387190Y-73199333D01*
X129863380Y-72199333D02*
X129196714Y-72199333D01*
X129387190Y-72199333D02*
X129291952Y-72151714D01*
X129244333Y-72104095D01*
X129196714Y-72008857D01*
X129196714Y-71913619D01*
X129863380Y-71437428D02*
X129815761Y-71532666D01*
X129768142Y-71580285D01*
X129672904Y-71627904D01*
X129387190Y-71627904D01*
X129291952Y-71580285D01*
X129244333Y-71532666D01*
X129196714Y-71437428D01*
X129196714Y-71294571D01*
X129244333Y-71199333D01*
X129291952Y-71151714D01*
X129387190Y-71104095D01*
X129672904Y-71104095D01*
X129768142Y-71151714D01*
X129815761Y-71199333D01*
X129863380Y-71294571D01*
X129863380Y-71437428D01*
X129196714Y-70818380D02*
X129196714Y-70437428D01*
X128863380Y-70675523D02*
X129720523Y-70675523D01*
X129815761Y-70627904D01*
X129863380Y-70532666D01*
X129863380Y-70437428D01*
X129815761Y-69723142D02*
X129863380Y-69818380D01*
X129863380Y-70008857D01*
X129815761Y-70104095D01*
X129720523Y-70151714D01*
X129339571Y-70151714D01*
X129244333Y-70104095D01*
X129196714Y-70008857D01*
X129196714Y-69818380D01*
X129244333Y-69723142D01*
X129339571Y-69675523D01*
X129434809Y-69675523D01*
X129530047Y-70151714D01*
X129815761Y-68818380D02*
X129863380Y-68913619D01*
X129863380Y-69104095D01*
X129815761Y-69199333D01*
X129768142Y-69246952D01*
X129672904Y-69294571D01*
X129387190Y-69294571D01*
X129291952Y-69246952D01*
X129244333Y-69199333D01*
X129196714Y-69104095D01*
X129196714Y-68913619D01*
X129244333Y-68818380D01*
X129196714Y-68532666D02*
X129196714Y-68151714D01*
X128863380Y-68389809D02*
X129720523Y-68389809D01*
X129815761Y-68342190D01*
X129863380Y-68246952D01*
X129863380Y-68151714D01*
X129863380Y-67818380D02*
X129196714Y-67818380D01*
X128863380Y-67818380D02*
X128911000Y-67866000D01*
X128958619Y-67818380D01*
X128911000Y-67770761D01*
X128863380Y-67818380D01*
X128958619Y-67818380D01*
X129863380Y-67199333D02*
X129815761Y-67294571D01*
X129768142Y-67342190D01*
X129672904Y-67389809D01*
X129387190Y-67389809D01*
X129291952Y-67342190D01*
X129244333Y-67294571D01*
X129196714Y-67199333D01*
X129196714Y-67056476D01*
X129244333Y-66961238D01*
X129291952Y-66913619D01*
X129387190Y-66866000D01*
X129672904Y-66866000D01*
X129768142Y-66913619D01*
X129815761Y-66961238D01*
X129863380Y-67056476D01*
X129863380Y-67199333D01*
X129196714Y-66437428D02*
X129863380Y-66437428D01*
X129291952Y-66437428D02*
X129244333Y-66389809D01*
X129196714Y-66294571D01*
X129196714Y-66151714D01*
X129244333Y-66056476D01*
X129339571Y-66008857D01*
X129863380Y-66008857D01*
X131473380Y-72342190D02*
X130997190Y-72675523D01*
X131473380Y-72913619D02*
X130473380Y-72913619D01*
X130473380Y-72532666D01*
X130521000Y-72437428D01*
X130568619Y-72389809D01*
X130663857Y-72342190D01*
X130806714Y-72342190D01*
X130901952Y-72389809D01*
X130949571Y-72437428D01*
X130997190Y-72532666D01*
X130997190Y-72913619D01*
X131425761Y-71532666D02*
X131473380Y-71627904D01*
X131473380Y-71818380D01*
X131425761Y-71913619D01*
X131330523Y-71961238D01*
X130949571Y-71961238D01*
X130854333Y-71913619D01*
X130806714Y-71818380D01*
X130806714Y-71627904D01*
X130854333Y-71532666D01*
X130949571Y-71485047D01*
X131044809Y-71485047D01*
X131140047Y-71961238D01*
X131473380Y-70913619D02*
X131425761Y-71008857D01*
X131330523Y-71056476D01*
X130473380Y-71056476D01*
X131473380Y-70104095D02*
X130949571Y-70104095D01*
X130854333Y-70151714D01*
X130806714Y-70246952D01*
X130806714Y-70437428D01*
X130854333Y-70532666D01*
X131425761Y-70104095D02*
X131473380Y-70199333D01*
X131473380Y-70437428D01*
X131425761Y-70532666D01*
X131330523Y-70580285D01*
X131235285Y-70580285D01*
X131140047Y-70532666D01*
X131092428Y-70437428D01*
X131092428Y-70199333D01*
X131044809Y-70104095D01*
X131473380Y-69627904D02*
X130806714Y-69627904D01*
X130473380Y-69627904D02*
X130521000Y-69675523D01*
X130568619Y-69627904D01*
X130521000Y-69580285D01*
X130473380Y-69627904D01*
X130568619Y-69627904D01*
X131425761Y-69199333D02*
X131473380Y-69104095D01*
X131473380Y-68913619D01*
X131425761Y-68818380D01*
X131330523Y-68770761D01*
X131282904Y-68770761D01*
X131187666Y-68818380D01*
X131140047Y-68913619D01*
X131140047Y-69056476D01*
X131092428Y-69151714D01*
X130997190Y-69199333D01*
X130949571Y-69199333D01*
X130854333Y-69151714D01*
X130806714Y-69056476D01*
X130806714Y-68913619D01*
X130854333Y-68818380D01*
X132083380Y-71675523D02*
X133083380Y-71342190D01*
X132083380Y-71008857D01*
X132083380Y-70770761D02*
X132083380Y-70151714D01*
X132464333Y-70485047D01*
X132464333Y-70342190D01*
X132511952Y-70246952D01*
X132559571Y-70199333D01*
X132654809Y-70151714D01*
X132892904Y-70151714D01*
X132988142Y-70199333D01*
X133035761Y-70246952D01*
X133083380Y-70342190D01*
X133083380Y-70627904D01*
X133035761Y-70723142D01*
X132988142Y-70770761D01*
X133788619Y-74961238D02*
X133741000Y-74913619D01*
X133693380Y-74818380D01*
X133693380Y-74580285D01*
X133741000Y-74485047D01*
X133788619Y-74437428D01*
X133883857Y-74389809D01*
X133979095Y-74389809D01*
X134121952Y-74437428D01*
X134693380Y-75008857D01*
X134693380Y-74389809D01*
X133693380Y-73770761D02*
X133693380Y-73675523D01*
X133741000Y-73580285D01*
X133788619Y-73532666D01*
X133883857Y-73485047D01*
X134074333Y-73437428D01*
X134312428Y-73437428D01*
X134502904Y-73485047D01*
X134598142Y-73532666D01*
X134645761Y-73580285D01*
X134693380Y-73675523D01*
X134693380Y-73770761D01*
X134645761Y-73866000D01*
X134598142Y-73913619D01*
X134502904Y-73961238D01*
X134312428Y-74008857D01*
X134074333Y-74008857D01*
X133883857Y-73961238D01*
X133788619Y-73913619D01*
X133741000Y-73866000D01*
X133693380Y-73770761D01*
X133788619Y-73056476D02*
X133741000Y-73008857D01*
X133693380Y-72913619D01*
X133693380Y-72675523D01*
X133741000Y-72580285D01*
X133788619Y-72532666D01*
X133883857Y-72485047D01*
X133979095Y-72485047D01*
X134121952Y-72532666D01*
X134693380Y-73104095D01*
X134693380Y-72485047D01*
X133788619Y-72104095D02*
X133741000Y-72056476D01*
X133693380Y-71961238D01*
X133693380Y-71723142D01*
X133741000Y-71627904D01*
X133788619Y-71580285D01*
X133883857Y-71532666D01*
X133979095Y-71532666D01*
X134121952Y-71580285D01*
X134693380Y-72151714D01*
X134693380Y-71532666D01*
X134598142Y-71104095D02*
X134645761Y-71056476D01*
X134693380Y-71104095D01*
X134645761Y-71151714D01*
X134598142Y-71104095D01*
X134693380Y-71104095D01*
X133693380Y-70437428D02*
X133693380Y-70342190D01*
X133741000Y-70246952D01*
X133788619Y-70199333D01*
X133883857Y-70151714D01*
X134074333Y-70104095D01*
X134312428Y-70104095D01*
X134502904Y-70151714D01*
X134598142Y-70199333D01*
X134645761Y-70246952D01*
X134693380Y-70342190D01*
X134693380Y-70437428D01*
X134645761Y-70532666D01*
X134598142Y-70580285D01*
X134502904Y-70627904D01*
X134312428Y-70675523D01*
X134074333Y-70675523D01*
X133883857Y-70627904D01*
X133788619Y-70580285D01*
X133741000Y-70532666D01*
X133693380Y-70437428D01*
X133693380Y-69770761D02*
X133693380Y-69151714D01*
X134074333Y-69485047D01*
X134074333Y-69342190D01*
X134121952Y-69246952D01*
X134169571Y-69199333D01*
X134264809Y-69151714D01*
X134502904Y-69151714D01*
X134598142Y-69199333D01*
X134645761Y-69246952D01*
X134693380Y-69342190D01*
X134693380Y-69627904D01*
X134645761Y-69723142D01*
X134598142Y-69770761D01*
X134598142Y-68723142D02*
X134645761Y-68675523D01*
X134693380Y-68723142D01*
X134645761Y-68770761D01*
X134598142Y-68723142D01*
X134693380Y-68723142D01*
X134693380Y-67723142D02*
X134693380Y-68294571D01*
X134693380Y-68008857D02*
X133693380Y-68008857D01*
X133836238Y-68104095D01*
X133931476Y-68199333D01*
X133979095Y-68294571D01*
X133693380Y-66866000D02*
X133693380Y-67056476D01*
X133741000Y-67151714D01*
X133788619Y-67199333D01*
X133931476Y-67294571D01*
X134121952Y-67342190D01*
X134502904Y-67342190D01*
X134598142Y-67294571D01*
X134645761Y-67246952D01*
X134693380Y-67151714D01*
X134693380Y-66961238D01*
X134645761Y-66866000D01*
X134598142Y-66818380D01*
X134502904Y-66770761D01*
X134264809Y-66770761D01*
X134169571Y-66818380D01*
X134121952Y-66866000D01*
X134074333Y-66961238D01*
X134074333Y-67151714D01*
X134121952Y-67246952D01*
X134169571Y-67294571D01*
X134264809Y-67342190D01*
X116070095Y-98242380D02*
X116070095Y-97242380D01*
X116641523Y-98242380D02*
X116212952Y-97670952D01*
X116641523Y-97242380D02*
X116070095Y-97813809D01*
X120388095Y-86812380D02*
X120388095Y-85812380D01*
X120959523Y-86812380D02*
X120530952Y-86240952D01*
X120959523Y-85812380D02*
X120388095Y-86383809D01*
X135834380Y-116378285D02*
X135167714Y-116378285D01*
X135262952Y-116378285D02*
X135215333Y-116330666D01*
X135167714Y-116235428D01*
X135167714Y-116092571D01*
X135215333Y-115997333D01*
X135310571Y-115949714D01*
X135834380Y-115949714D01*
X135310571Y-115949714D02*
X135215333Y-115902095D01*
X135167714Y-115806857D01*
X135167714Y-115664000D01*
X135215333Y-115568761D01*
X135310571Y-115521142D01*
X135834380Y-115521142D01*
X135834380Y-115044952D02*
X135167714Y-115044952D01*
X134834380Y-115044952D02*
X134882000Y-115092571D01*
X134929619Y-115044952D01*
X134882000Y-114997333D01*
X134834380Y-115044952D01*
X134929619Y-115044952D01*
X135786761Y-114140190D02*
X135834380Y-114235428D01*
X135834380Y-114425904D01*
X135786761Y-114521142D01*
X135739142Y-114568761D01*
X135643904Y-114616380D01*
X135358190Y-114616380D01*
X135262952Y-114568761D01*
X135215333Y-114521142D01*
X135167714Y-114425904D01*
X135167714Y-114235428D01*
X135215333Y-114140190D01*
X135834380Y-113711619D02*
X134834380Y-113711619D01*
X135834380Y-113283047D02*
X135310571Y-113283047D01*
X135215333Y-113330666D01*
X135167714Y-113425904D01*
X135167714Y-113568761D01*
X135215333Y-113664000D01*
X135262952Y-113711619D01*
X135834380Y-112378285D02*
X135310571Y-112378285D01*
X135215333Y-112425904D01*
X135167714Y-112521142D01*
X135167714Y-112711619D01*
X135215333Y-112806857D01*
X135786761Y-112378285D02*
X135834380Y-112473523D01*
X135834380Y-112711619D01*
X135786761Y-112806857D01*
X135691523Y-112854476D01*
X135596285Y-112854476D01*
X135501047Y-112806857D01*
X135453428Y-112711619D01*
X135453428Y-112473523D01*
X135405809Y-112378285D01*
X135786761Y-111521142D02*
X135834380Y-111616380D01*
X135834380Y-111806857D01*
X135786761Y-111902095D01*
X135691523Y-111949714D01*
X135310571Y-111949714D01*
X135215333Y-111902095D01*
X135167714Y-111806857D01*
X135167714Y-111616380D01*
X135215333Y-111521142D01*
X135310571Y-111473523D01*
X135405809Y-111473523D01*
X135501047Y-111949714D01*
X135834380Y-110902095D02*
X135786761Y-110997333D01*
X135691523Y-111044952D01*
X134834380Y-111044952D01*
X135786761Y-110568761D02*
X135834380Y-110473523D01*
X135834380Y-110283047D01*
X135786761Y-110187809D01*
X135691523Y-110140190D01*
X135643904Y-110140190D01*
X135548666Y-110187809D01*
X135501047Y-110283047D01*
X135501047Y-110425904D01*
X135453428Y-110521142D01*
X135358190Y-110568761D01*
X135310571Y-110568761D01*
X135215333Y-110521142D01*
X135167714Y-110425904D01*
X135167714Y-110283047D01*
X135215333Y-110187809D01*
X135786761Y-109283047D02*
X135834380Y-109378285D01*
X135834380Y-109568761D01*
X135786761Y-109664000D01*
X135739142Y-109711619D01*
X135643904Y-109759238D01*
X135358190Y-109759238D01*
X135262952Y-109711619D01*
X135215333Y-109664000D01*
X135167714Y-109568761D01*
X135167714Y-109378285D01*
X135215333Y-109283047D01*
X135834380Y-108854476D02*
X134834380Y-108854476D01*
X135834380Y-108425904D02*
X135310571Y-108425904D01*
X135215333Y-108473523D01*
X135167714Y-108568761D01*
X135167714Y-108711619D01*
X135215333Y-108806857D01*
X135262952Y-108854476D01*
X135786761Y-107568761D02*
X135834380Y-107664000D01*
X135834380Y-107854476D01*
X135786761Y-107949714D01*
X135691523Y-107997333D01*
X135310571Y-107997333D01*
X135215333Y-107949714D01*
X135167714Y-107854476D01*
X135167714Y-107664000D01*
X135215333Y-107568761D01*
X135310571Y-107521142D01*
X135405809Y-107521142D01*
X135501047Y-107997333D01*
X135167714Y-107092571D02*
X135834380Y-107092571D01*
X135262952Y-107092571D02*
X135215333Y-107044952D01*
X135167714Y-106949714D01*
X135167714Y-106806857D01*
X135215333Y-106711619D01*
X135310571Y-106664000D01*
X135834380Y-106664000D01*
X135834380Y-106187809D02*
X134834380Y-106187809D01*
X135453428Y-106092571D02*
X135834380Y-105806857D01*
X135167714Y-105806857D02*
X135548666Y-106187809D01*
X134834380Y-105473523D02*
X134834380Y-104806857D01*
X135834380Y-105235428D01*
X134929619Y-104473523D02*
X134882000Y-104425904D01*
X134834380Y-104330666D01*
X134834380Y-104092571D01*
X134882000Y-103997333D01*
X134929619Y-103949714D01*
X135024857Y-103902095D01*
X135120095Y-103902095D01*
X135262952Y-103949714D01*
X135834380Y-104521142D01*
X135834380Y-103902095D01*
X135358190Y-102854476D02*
X135310571Y-102902095D01*
X135262952Y-102997333D01*
X135262952Y-103092571D01*
X135310571Y-103187809D01*
X135358190Y-103235428D01*
X135453428Y-103283047D01*
X135548666Y-103283047D01*
X135643904Y-103235428D01*
X135691523Y-103187809D01*
X135739142Y-103092571D01*
X135739142Y-102997333D01*
X135691523Y-102902095D01*
X135643904Y-102854476D01*
X135262952Y-102854476D02*
X135643904Y-102854476D01*
X135691523Y-102806857D01*
X135691523Y-102759238D01*
X135643904Y-102664000D01*
X135548666Y-102616380D01*
X135310571Y-102616380D01*
X135167714Y-102711619D01*
X135072476Y-102854476D01*
X135024857Y-103044952D01*
X135072476Y-103235428D01*
X135167714Y-103378285D01*
X135310571Y-103473523D01*
X135501047Y-103521142D01*
X135691523Y-103473523D01*
X135834380Y-103378285D01*
X135929619Y-103235428D01*
X135977238Y-103044952D01*
X135929619Y-102854476D01*
X135834380Y-102711619D01*
X135167714Y-101759238D02*
X135977238Y-101759238D01*
X136072476Y-101806857D01*
X136120095Y-101854476D01*
X136167714Y-101949714D01*
X136167714Y-102092571D01*
X136120095Y-102187809D01*
X135786761Y-101759238D02*
X135834380Y-101854476D01*
X135834380Y-102044952D01*
X135786761Y-102140190D01*
X135739142Y-102187809D01*
X135643904Y-102235428D01*
X135358190Y-102235428D01*
X135262952Y-102187809D01*
X135215333Y-102140190D01*
X135167714Y-102044952D01*
X135167714Y-101854476D01*
X135215333Y-101759238D01*
X135834380Y-101283047D02*
X135167714Y-101283047D01*
X135262952Y-101283047D02*
X135215333Y-101235428D01*
X135167714Y-101140190D01*
X135167714Y-100997333D01*
X135215333Y-100902095D01*
X135310571Y-100854476D01*
X135834380Y-100854476D01*
X135310571Y-100854476D02*
X135215333Y-100806857D01*
X135167714Y-100711619D01*
X135167714Y-100568761D01*
X135215333Y-100473523D01*
X135310571Y-100425904D01*
X135834380Y-100425904D01*
X135834380Y-99521142D02*
X135310571Y-99521142D01*
X135215333Y-99568761D01*
X135167714Y-99664000D01*
X135167714Y-99854476D01*
X135215333Y-99949714D01*
X135786761Y-99521142D02*
X135834380Y-99616380D01*
X135834380Y-99854476D01*
X135786761Y-99949714D01*
X135691523Y-99997333D01*
X135596285Y-99997333D01*
X135501047Y-99949714D01*
X135453428Y-99854476D01*
X135453428Y-99616380D01*
X135405809Y-99521142D01*
X135834380Y-99044952D02*
X135167714Y-99044952D01*
X134834380Y-99044952D02*
X134882000Y-99092571D01*
X134929619Y-99044952D01*
X134882000Y-98997333D01*
X134834380Y-99044952D01*
X134929619Y-99044952D01*
X135834380Y-98425904D02*
X135786761Y-98521142D01*
X135691523Y-98568761D01*
X134834380Y-98568761D01*
X135739142Y-98044952D02*
X135786761Y-97997333D01*
X135834380Y-98044952D01*
X135786761Y-98092571D01*
X135739142Y-98044952D01*
X135834380Y-98044952D01*
X135786761Y-97140190D02*
X135834380Y-97235428D01*
X135834380Y-97425904D01*
X135786761Y-97521142D01*
X135739142Y-97568761D01*
X135643904Y-97616380D01*
X135358190Y-97616380D01*
X135262952Y-97568761D01*
X135215333Y-97521142D01*
X135167714Y-97425904D01*
X135167714Y-97235428D01*
X135215333Y-97140190D01*
X135834380Y-96568761D02*
X135786761Y-96664000D01*
X135739142Y-96711619D01*
X135643904Y-96759238D01*
X135358190Y-96759238D01*
X135262952Y-96711619D01*
X135215333Y-96664000D01*
X135167714Y-96568761D01*
X135167714Y-96425904D01*
X135215333Y-96330666D01*
X135262952Y-96283047D01*
X135358190Y-96235428D01*
X135643904Y-96235428D01*
X135739142Y-96283047D01*
X135786761Y-96330666D01*
X135834380Y-96425904D01*
X135834380Y-96568761D01*
X135834380Y-95806857D02*
X135167714Y-95806857D01*
X135262952Y-95806857D02*
X135215333Y-95759238D01*
X135167714Y-95664000D01*
X135167714Y-95521142D01*
X135215333Y-95425904D01*
X135310571Y-95378285D01*
X135834380Y-95378285D01*
X135310571Y-95378285D02*
X135215333Y-95330666D01*
X135167714Y-95235428D01*
X135167714Y-95092571D01*
X135215333Y-94997333D01*
X135310571Y-94949714D01*
X135834380Y-94949714D01*
X97400857Y-56443619D02*
X97400857Y-57443619D01*
X96924666Y-56443619D02*
X96924666Y-57443619D01*
X96353238Y-56443619D01*
X96353238Y-57443619D01*
X95305619Y-56443619D02*
X95638952Y-56919809D01*
X95877047Y-56443619D02*
X95877047Y-57443619D01*
X95496095Y-57443619D01*
X95400857Y-57396000D01*
X95353238Y-57348380D01*
X95305619Y-57253142D01*
X95305619Y-57110285D01*
X95353238Y-57015047D01*
X95400857Y-56967428D01*
X95496095Y-56919809D01*
X95877047Y-56919809D01*
X94877047Y-56824571D02*
X94115142Y-56824571D01*
X94496095Y-56443619D02*
X94496095Y-57205523D01*
X133104000Y-89661904D02*
X133056380Y-89757142D01*
X133056380Y-89900000D01*
X133104000Y-90042857D01*
X133199238Y-90138095D01*
X133294476Y-90185714D01*
X133484952Y-90233333D01*
X133627809Y-90233333D01*
X133818285Y-90185714D01*
X133913523Y-90138095D01*
X134008761Y-90042857D01*
X134056380Y-89900000D01*
X134056380Y-89804761D01*
X134008761Y-89661904D01*
X133961142Y-89614285D01*
X133627809Y-89614285D01*
X133627809Y-89804761D01*
X134056380Y-89185714D02*
X133056380Y-89185714D01*
X134056380Y-88614285D01*
X133056380Y-88614285D01*
X134056380Y-88138095D02*
X133056380Y-88138095D01*
X133056380Y-87900000D01*
X133104000Y-87757142D01*
X133199238Y-87661904D01*
X133294476Y-87614285D01*
X133484952Y-87566666D01*
X133627809Y-87566666D01*
X133818285Y-87614285D01*
X133913523Y-87661904D01*
X134008761Y-87757142D01*
X134056380Y-87900000D01*
X134056380Y-88138095D01*
X94210380Y-123642380D02*
X94210380Y-122642380D01*
X94686571Y-123642380D02*
X94686571Y-122642380D01*
X95258000Y-123642380D01*
X95258000Y-122642380D01*
X96210380Y-123642380D02*
X95734190Y-123642380D01*
X95734190Y-122642380D01*
X96543714Y-123261428D02*
X97305619Y-123261428D01*
X96924666Y-123642380D02*
X96924666Y-122880476D01*
X105656095Y-95448380D02*
X105656095Y-94448380D01*
X106227523Y-95448380D02*
X105798952Y-94876952D01*
X106227523Y-94448380D02*
X105656095Y-95019809D01*
X106418095Y-84780380D02*
X106418095Y-83780380D01*
X106989523Y-84780380D02*
X106560952Y-84208952D01*
X106989523Y-83780380D02*
X106418095Y-84351809D01*
X93464095Y-84526380D02*
X93464095Y-83526380D01*
X94035523Y-84526380D02*
X93606952Y-83954952D01*
X94035523Y-83526380D02*
X93464095Y-84097809D01*
X119626095Y-80208380D02*
X119626095Y-79208380D01*
X120197523Y-80208380D02*
X119768952Y-79636952D01*
X120197523Y-79208380D02*
X119626095Y-79779809D01*
X126960380Y-105909809D02*
X126960380Y-105719333D01*
X127008000Y-105624095D01*
X127103238Y-105528857D01*
X127293714Y-105481238D01*
X127627047Y-105481238D01*
X127817523Y-105528857D01*
X127912761Y-105624095D01*
X127960380Y-105719333D01*
X127960380Y-105909809D01*
X127912761Y-106005047D01*
X127817523Y-106100285D01*
X127627047Y-106147904D01*
X127293714Y-106147904D01*
X127103238Y-106100285D01*
X127008000Y-106005047D01*
X126960380Y-105909809D01*
X126960380Y-105052666D02*
X127769904Y-105052666D01*
X127865142Y-105005047D01*
X127912761Y-104957428D01*
X127960380Y-104862190D01*
X127960380Y-104671714D01*
X127912761Y-104576476D01*
X127865142Y-104528857D01*
X127769904Y-104481238D01*
X126960380Y-104481238D01*
X126960380Y-104147904D02*
X126960380Y-103576476D01*
X127960380Y-103862190D02*
X126960380Y-103862190D01*
X127960380Y-102766952D02*
X127960380Y-103243142D01*
X126960380Y-103243142D01*
X127579428Y-102433619D02*
X127579428Y-101671714D01*
X127960380Y-102052666D02*
X127198476Y-102052666D01*
X114800095Y-87320380D02*
X114800095Y-86320380D01*
X115371523Y-87320380D02*
X114942952Y-86748952D01*
X115371523Y-86320380D02*
X114800095Y-86891809D01*
X95019904Y-97226380D02*
X95019904Y-96226380D01*
X95258000Y-96226380D01*
X95400857Y-96274000D01*
X95496095Y-96369238D01*
X95543714Y-96464476D01*
X95591333Y-96654952D01*
X95591333Y-96797809D01*
X95543714Y-96988285D01*
X95496095Y-97083523D01*
X95400857Y-97178761D01*
X95258000Y-97226380D01*
X95019904Y-97226380D01*
X96162761Y-96654952D02*
X96067523Y-96607333D01*
X96019904Y-96559714D01*
X95972285Y-96464476D01*
X95972285Y-96416857D01*
X96019904Y-96321619D01*
X96067523Y-96274000D01*
X96162761Y-96226380D01*
X96353238Y-96226380D01*
X96448476Y-96274000D01*
X96496095Y-96321619D01*
X96543714Y-96416857D01*
X96543714Y-96464476D01*
X96496095Y-96559714D01*
X96448476Y-96607333D01*
X96353238Y-96654952D01*
X96162761Y-96654952D01*
X96067523Y-96702571D01*
X96019904Y-96750190D01*
X95972285Y-96845428D01*
X95972285Y-97035904D01*
X96019904Y-97131142D01*
X96067523Y-97178761D01*
X96162761Y-97226380D01*
X96353238Y-97226380D01*
X96448476Y-97178761D01*
X96496095Y-97131142D01*
X96543714Y-97035904D01*
X96543714Y-96845428D01*
X96496095Y-96750190D01*
X96448476Y-96702571D01*
X96353238Y-96654952D01*
X92400380Y-96908857D02*
X91924190Y-97242190D01*
X92400380Y-97480285D02*
X91400380Y-97480285D01*
X91400380Y-97099333D01*
X91448000Y-97004095D01*
X91495619Y-96956476D01*
X91590857Y-96908857D01*
X91733714Y-96908857D01*
X91828952Y-96956476D01*
X91876571Y-97004095D01*
X91924190Y-97099333D01*
X91924190Y-97480285D01*
X92400380Y-95956476D02*
X92400380Y-96527904D01*
X92400380Y-96242190D02*
X91400380Y-96242190D01*
X91543238Y-96337428D01*
X91638476Y-96432666D01*
X91686095Y-96527904D01*
X92400380Y-95004095D02*
X92400380Y-95575523D01*
X92400380Y-95289809D02*
X91400380Y-95289809D01*
X91543238Y-95385047D01*
X91638476Y-95480285D01*
X91686095Y-95575523D01*
X114831904Y-85034380D02*
X114831904Y-84034380D01*
X115070000Y-84034380D01*
X115212857Y-84082000D01*
X115308095Y-84177238D01*
X115355714Y-84272476D01*
X115403333Y-84462952D01*
X115403333Y-84605809D01*
X115355714Y-84796285D01*
X115308095Y-84891523D01*
X115212857Y-84986761D01*
X115070000Y-85034380D01*
X114831904Y-85034380D01*
X116260476Y-84367714D02*
X116260476Y-85034380D01*
X116022380Y-83986761D02*
X115784285Y-84701047D01*
X116403333Y-84701047D01*
X107815142Y-85161380D02*
X107481809Y-84685190D01*
X107243714Y-85161380D02*
X107243714Y-84161380D01*
X107624666Y-84161380D01*
X107719904Y-84209000D01*
X107767523Y-84256619D01*
X107815142Y-84351857D01*
X107815142Y-84494714D01*
X107767523Y-84589952D01*
X107719904Y-84637571D01*
X107624666Y-84685190D01*
X107243714Y-84685190D01*
X108767523Y-85161380D02*
X108196095Y-85161380D01*
X108481809Y-85161380D02*
X108481809Y-84161380D01*
X108386571Y-84304238D01*
X108291333Y-84399476D01*
X108196095Y-84447095D01*
X109624666Y-84161380D02*
X109434190Y-84161380D01*
X109338952Y-84209000D01*
X109291333Y-84256619D01*
X109196095Y-84399476D01*
X109148476Y-84589952D01*
X109148476Y-84970904D01*
X109196095Y-85066142D01*
X109243714Y-85113761D01*
X109338952Y-85161380D01*
X109529428Y-85161380D01*
X109624666Y-85113761D01*
X109672285Y-85066142D01*
X109719904Y-84970904D01*
X109719904Y-84732809D01*
X109672285Y-84637571D01*
X109624666Y-84589952D01*
X109529428Y-84542333D01*
X109338952Y-84542333D01*
X109243714Y-84589952D01*
X109196095Y-84637571D01*
X109148476Y-84732809D01*
X90971619Y-78835238D02*
X90924000Y-78930476D01*
X90828761Y-79025714D01*
X90685904Y-79168571D01*
X90638285Y-79263809D01*
X90638285Y-79359047D01*
X90876380Y-79311428D02*
X90828761Y-79406666D01*
X90733523Y-79501904D01*
X90543047Y-79549523D01*
X90209714Y-79549523D01*
X90019238Y-79501904D01*
X89924000Y-79406666D01*
X89876380Y-79311428D01*
X89876380Y-79120952D01*
X89924000Y-79025714D01*
X90019238Y-78930476D01*
X90209714Y-78882857D01*
X90543047Y-78882857D01*
X90733523Y-78930476D01*
X90828761Y-79025714D01*
X90876380Y-79120952D01*
X90876380Y-79311428D01*
X90209714Y-78025714D02*
X90876380Y-78025714D01*
X89828761Y-78263809D02*
X90543047Y-78501904D01*
X90543047Y-77882857D01*
X113228380Y-95384857D02*
X112752190Y-95718190D01*
X113228380Y-95956285D02*
X112228380Y-95956285D01*
X112228380Y-95575333D01*
X112276000Y-95480095D01*
X112323619Y-95432476D01*
X112418857Y-95384857D01*
X112561714Y-95384857D01*
X112656952Y-95432476D01*
X112704571Y-95480095D01*
X112752190Y-95575333D01*
X112752190Y-95956285D01*
X113228380Y-94432476D02*
X113228380Y-95003904D01*
X113228380Y-94718190D02*
X112228380Y-94718190D01*
X112371238Y-94813428D01*
X112466476Y-94908666D01*
X112514095Y-95003904D01*
X112228380Y-94099142D02*
X112228380Y-93480095D01*
X112609333Y-93813428D01*
X112609333Y-93670571D01*
X112656952Y-93575333D01*
X112704571Y-93527714D01*
X112799809Y-93480095D01*
X113037904Y-93480095D01*
X113133142Y-93527714D01*
X113180761Y-93575333D01*
X113228380Y-93670571D01*
X113228380Y-93956285D01*
X113180761Y-94051523D01*
X113133142Y-94099142D01*
X116038380Y-70111523D02*
X116752666Y-70111523D01*
X116895523Y-70159142D01*
X116990761Y-70254380D01*
X117038380Y-70397238D01*
X117038380Y-70492476D01*
X117038380Y-69111523D02*
X117038380Y-69682952D01*
X117038380Y-69397238D02*
X116038380Y-69397238D01*
X116181238Y-69492476D01*
X116276476Y-69587714D01*
X116324095Y-69682952D01*
X116133619Y-68730571D02*
X116086000Y-68682952D01*
X116038380Y-68587714D01*
X116038380Y-68349619D01*
X116086000Y-68254380D01*
X116133619Y-68206761D01*
X116228857Y-68159142D01*
X116324095Y-68159142D01*
X116466952Y-68206761D01*
X117038380Y-68778190D01*
X117038380Y-68159142D01*
X122801142Y-98750380D02*
X122467809Y-98274190D01*
X122229714Y-98750380D02*
X122229714Y-97750380D01*
X122610666Y-97750380D01*
X122705904Y-97798000D01*
X122753523Y-97845619D01*
X122801142Y-97940857D01*
X122801142Y-98083714D01*
X122753523Y-98178952D01*
X122705904Y-98226571D01*
X122610666Y-98274190D01*
X122229714Y-98274190D01*
X123753523Y-98750380D02*
X123182095Y-98750380D01*
X123467809Y-98750380D02*
X123467809Y-97750380D01*
X123372571Y-97893238D01*
X123277333Y-97988476D01*
X123182095Y-98036095D01*
X124134476Y-97845619D02*
X124182095Y-97798000D01*
X124277333Y-97750380D01*
X124515428Y-97750380D01*
X124610666Y-97798000D01*
X124658285Y-97845619D01*
X124705904Y-97940857D01*
X124705904Y-98036095D01*
X124658285Y-98178952D01*
X124086857Y-98750380D01*
X124705904Y-98750380D01*
X117776113Y-78191471D02*
X117776113Y-78906943D01*
X117728414Y-79050037D01*
X117633018Y-79145434D01*
X117489924Y-79193132D01*
X117394527Y-79193132D01*
X118396188Y-78620754D02*
X118300792Y-78573056D01*
X118253094Y-78525358D01*
X118205396Y-78429962D01*
X118205396Y-78382263D01*
X118253094Y-78286867D01*
X118300792Y-78239169D01*
X118396188Y-78191471D01*
X118586981Y-78191471D01*
X118682377Y-78239169D01*
X118730075Y-78286867D01*
X118777774Y-78382263D01*
X118777774Y-78429962D01*
X118730075Y-78525358D01*
X118682377Y-78573056D01*
X118586981Y-78620754D01*
X118396188Y-78620754D01*
X118300792Y-78668452D01*
X118253094Y-78716150D01*
X118205396Y-78811547D01*
X118205396Y-79002339D01*
X118253094Y-79097736D01*
X118300792Y-79145434D01*
X118396188Y-79193132D01*
X118586981Y-79193132D01*
X118682377Y-79145434D01*
X118730075Y-79097736D01*
X118777774Y-79002339D01*
X118777774Y-78811547D01*
X118730075Y-78716150D01*
X118682377Y-78668452D01*
X118586981Y-78620754D01*
X128103333Y-83256380D02*
X127770000Y-82780190D01*
X127531904Y-83256380D02*
X127531904Y-82256380D01*
X127912857Y-82256380D01*
X128008095Y-82304000D01*
X128055714Y-82351619D01*
X128103333Y-82446857D01*
X128103333Y-82589714D01*
X128055714Y-82684952D01*
X128008095Y-82732571D01*
X127912857Y-82780190D01*
X127531904Y-82780190D01*
X128484285Y-82351619D02*
X128531904Y-82304000D01*
X128627142Y-82256380D01*
X128865238Y-82256380D01*
X128960476Y-82304000D01*
X129008095Y-82351619D01*
X129055714Y-82446857D01*
X129055714Y-82542095D01*
X129008095Y-82684952D01*
X128436666Y-83256380D01*
X129055714Y-83256380D01*
X85891619Y-86709238D02*
X85844000Y-86804476D01*
X85748761Y-86899714D01*
X85605904Y-87042571D01*
X85558285Y-87137809D01*
X85558285Y-87233047D01*
X85796380Y-87185428D02*
X85748761Y-87280666D01*
X85653523Y-87375904D01*
X85463047Y-87423523D01*
X85129714Y-87423523D01*
X84939238Y-87375904D01*
X84844000Y-87280666D01*
X84796380Y-87185428D01*
X84796380Y-86994952D01*
X84844000Y-86899714D01*
X84939238Y-86804476D01*
X85129714Y-86756857D01*
X85463047Y-86756857D01*
X85653523Y-86804476D01*
X85748761Y-86899714D01*
X85796380Y-86994952D01*
X85796380Y-87185428D01*
X84796380Y-85899714D02*
X84796380Y-86090190D01*
X84844000Y-86185428D01*
X84891619Y-86233047D01*
X85034476Y-86328285D01*
X85224952Y-86375904D01*
X85605904Y-86375904D01*
X85701142Y-86328285D01*
X85748761Y-86280666D01*
X85796380Y-86185428D01*
X85796380Y-85994952D01*
X85748761Y-85899714D01*
X85701142Y-85852095D01*
X85605904Y-85804476D01*
X85367809Y-85804476D01*
X85272571Y-85852095D01*
X85224952Y-85899714D01*
X85177333Y-85994952D01*
X85177333Y-86185428D01*
X85224952Y-86280666D01*
X85272571Y-86328285D01*
X85367809Y-86375904D01*
X90527142Y-88464380D02*
X90193809Y-87988190D01*
X89955714Y-88464380D02*
X89955714Y-87464380D01*
X90336666Y-87464380D01*
X90431904Y-87512000D01*
X90479523Y-87559619D01*
X90527142Y-87654857D01*
X90527142Y-87797714D01*
X90479523Y-87892952D01*
X90431904Y-87940571D01*
X90336666Y-87988190D01*
X89955714Y-87988190D01*
X91479523Y-88464380D02*
X90908095Y-88464380D01*
X91193809Y-88464380D02*
X91193809Y-87464380D01*
X91098571Y-87607238D01*
X91003333Y-87702476D01*
X90908095Y-87750095D01*
X92336666Y-87797714D02*
X92336666Y-88464380D01*
X92098571Y-87416761D02*
X91860476Y-88131047D01*
X92479523Y-88131047D01*
X92387142Y-69274666D02*
X92434761Y-69322285D01*
X92482380Y-69465142D01*
X92482380Y-69560380D01*
X92434761Y-69703238D01*
X92339523Y-69798476D01*
X92244285Y-69846095D01*
X92053809Y-69893714D01*
X91910952Y-69893714D01*
X91720476Y-69846095D01*
X91625238Y-69798476D01*
X91530000Y-69703238D01*
X91482380Y-69560380D01*
X91482380Y-69465142D01*
X91530000Y-69322285D01*
X91577619Y-69274666D01*
X91482380Y-68941333D02*
X91482380Y-68322285D01*
X91863333Y-68655619D01*
X91863333Y-68512761D01*
X91910952Y-68417523D01*
X91958571Y-68369904D01*
X92053809Y-68322285D01*
X92291904Y-68322285D01*
X92387142Y-68369904D01*
X92434761Y-68417523D01*
X92482380Y-68512761D01*
X92482380Y-68798476D01*
X92434761Y-68893714D01*
X92387142Y-68941333D01*
X130516380Y-86947333D02*
X131230666Y-86947333D01*
X131373523Y-86994952D01*
X131468761Y-87090190D01*
X131516380Y-87233047D01*
X131516380Y-87328285D01*
X130611619Y-86518761D02*
X130564000Y-86471142D01*
X130516380Y-86375904D01*
X130516380Y-86137809D01*
X130564000Y-86042571D01*
X130611619Y-85994952D01*
X130706857Y-85947333D01*
X130802095Y-85947333D01*
X130944952Y-85994952D01*
X131516380Y-86566380D01*
X131516380Y-85947333D01*
X121109131Y-120101471D02*
X121109131Y-120816943D01*
X121061433Y-120960037D01*
X120966037Y-121055434D01*
X120822942Y-121103132D01*
X120727546Y-121103132D01*
X122110792Y-121103132D02*
X121538414Y-121103132D01*
X121824603Y-121103132D02*
X121824603Y-120101471D01*
X121729207Y-120244565D01*
X121633811Y-120339962D01*
X121538414Y-120387660D01*
X122969359Y-120435358D02*
X122969359Y-121103132D01*
X122730868Y-120053773D02*
X122492377Y-120769245D01*
X123112453Y-120769245D01*
X130516380Y-82375333D02*
X131230666Y-82375333D01*
X131373523Y-82422952D01*
X131468761Y-82518190D01*
X131516380Y-82661047D01*
X131516380Y-82756285D01*
X130849714Y-81470571D02*
X131516380Y-81470571D01*
X130468761Y-81708666D02*
X131183047Y-81946761D01*
X131183047Y-81327714D01*
X122424380Y-89233333D02*
X123138666Y-89233333D01*
X123281523Y-89280952D01*
X123376761Y-89376190D01*
X123424380Y-89519047D01*
X123424380Y-89614285D01*
X123424380Y-88233333D02*
X123424380Y-88804761D01*
X123424380Y-88519047D02*
X122424380Y-88519047D01*
X122567238Y-88614285D01*
X122662476Y-88709523D01*
X122710095Y-88804761D01*
X117800380Y-94400666D02*
X117324190Y-94734000D01*
X117800380Y-94972095D02*
X116800380Y-94972095D01*
X116800380Y-94591142D01*
X116848000Y-94495904D01*
X116895619Y-94448285D01*
X116990857Y-94400666D01*
X117133714Y-94400666D01*
X117228952Y-94448285D01*
X117276571Y-94495904D01*
X117324190Y-94591142D01*
X117324190Y-94972095D01*
X117228952Y-93829238D02*
X117181333Y-93924476D01*
X117133714Y-93972095D01*
X117038476Y-94019714D01*
X116990857Y-94019714D01*
X116895619Y-93972095D01*
X116848000Y-93924476D01*
X116800380Y-93829238D01*
X116800380Y-93638761D01*
X116848000Y-93543523D01*
X116895619Y-93495904D01*
X116990857Y-93448285D01*
X117038476Y-93448285D01*
X117133714Y-93495904D01*
X117181333Y-93543523D01*
X117228952Y-93638761D01*
X117228952Y-93829238D01*
X117276571Y-93924476D01*
X117324190Y-93972095D01*
X117419428Y-94019714D01*
X117609904Y-94019714D01*
X117705142Y-93972095D01*
X117752761Y-93924476D01*
X117800380Y-93829238D01*
X117800380Y-93638761D01*
X117752761Y-93543523D01*
X117705142Y-93495904D01*
X117609904Y-93448285D01*
X117419428Y-93448285D01*
X117324190Y-93495904D01*
X117276571Y-93543523D01*
X117228952Y-93638761D01*
X98250476Y-66000380D02*
X98250476Y-66714666D01*
X98202857Y-66857523D01*
X98107619Y-66952761D01*
X97964761Y-67000380D01*
X97869523Y-67000380D01*
X99250476Y-67000380D02*
X98679047Y-67000380D01*
X98964761Y-67000380D02*
X98964761Y-66000380D01*
X98869523Y-66143238D01*
X98774285Y-66238476D01*
X98679047Y-66286095D01*
X100202857Y-67000380D02*
X99631428Y-67000380D01*
X99917142Y-67000380D02*
X99917142Y-66000380D01*
X99821904Y-66143238D01*
X99726666Y-66238476D01*
X99631428Y-66286095D01*
X130516380Y-77803333D02*
X131230666Y-77803333D01*
X131373523Y-77850952D01*
X131468761Y-77946190D01*
X131516380Y-78089047D01*
X131516380Y-78184285D01*
X130516380Y-77422380D02*
X130516380Y-76803333D01*
X130897333Y-77136666D01*
X130897333Y-76993809D01*
X130944952Y-76898571D01*
X130992571Y-76850952D01*
X131087809Y-76803333D01*
X131325904Y-76803333D01*
X131421142Y-76850952D01*
X131468761Y-76898571D01*
X131516380Y-76993809D01*
X131516380Y-77279523D01*
X131468761Y-77374761D01*
X131421142Y-77422380D01*
X130516380Y-106473523D02*
X131230666Y-106473523D01*
X131373523Y-106521142D01*
X131468761Y-106616380D01*
X131516380Y-106759238D01*
X131516380Y-106854476D01*
X131516380Y-105473523D02*
X131516380Y-106044952D01*
X131516380Y-105759238D02*
X130516380Y-105759238D01*
X130659238Y-105854476D01*
X130754476Y-105949714D01*
X130802095Y-106044952D01*
X130516380Y-104616380D02*
X130516380Y-104806857D01*
X130564000Y-104902095D01*
X130611619Y-104949714D01*
X130754476Y-105044952D01*
X130944952Y-105092571D01*
X131325904Y-105092571D01*
X131421142Y-105044952D01*
X131468761Y-104997333D01*
X131516380Y-104902095D01*
X131516380Y-104711619D01*
X131468761Y-104616380D01*
X131421142Y-104568761D01*
X131325904Y-104521142D01*
X131087809Y-104521142D01*
X130992571Y-104568761D01*
X130944952Y-104616380D01*
X130897333Y-104711619D01*
X130897333Y-104902095D01*
X130944952Y-104997333D01*
X130992571Y-105044952D01*
X131087809Y-105092571D01*
X100195142Y-90748380D02*
X99861809Y-90272190D01*
X99623714Y-90748380D02*
X99623714Y-89748380D01*
X100004666Y-89748380D01*
X100099904Y-89796000D01*
X100147523Y-89843619D01*
X100195142Y-89938857D01*
X100195142Y-90081714D01*
X100147523Y-90176952D01*
X100099904Y-90224571D01*
X100004666Y-90272190D01*
X99623714Y-90272190D01*
X101147523Y-90748380D02*
X100576095Y-90748380D01*
X100861809Y-90748380D02*
X100861809Y-89748380D01*
X100766571Y-89891238D01*
X100671333Y-89986476D01*
X100576095Y-90034095D01*
X101766571Y-89748380D02*
X101861809Y-89748380D01*
X101957047Y-89796000D01*
X102004666Y-89843619D01*
X102052285Y-89938857D01*
X102099904Y-90129333D01*
X102099904Y-90367428D01*
X102052285Y-90557904D01*
X102004666Y-90653142D01*
X101957047Y-90700761D01*
X101861809Y-90748380D01*
X101766571Y-90748380D01*
X101671333Y-90700761D01*
X101623714Y-90653142D01*
X101576095Y-90557904D01*
X101528476Y-90367428D01*
X101528476Y-90129333D01*
X101576095Y-89938857D01*
X101623714Y-89843619D01*
X101671333Y-89796000D01*
X101766571Y-89748380D01*
X116546380Y-111807523D02*
X117260666Y-111807523D01*
X117403523Y-111855142D01*
X117498761Y-111950380D01*
X117546380Y-112093238D01*
X117546380Y-112188476D01*
X117546380Y-110807523D02*
X117546380Y-111378952D01*
X117546380Y-111093238D02*
X116546380Y-111093238D01*
X116689238Y-111188476D01*
X116784476Y-111283714D01*
X116832095Y-111378952D01*
X116974952Y-110236095D02*
X116927333Y-110331333D01*
X116879714Y-110378952D01*
X116784476Y-110426571D01*
X116736857Y-110426571D01*
X116641619Y-110378952D01*
X116594000Y-110331333D01*
X116546380Y-110236095D01*
X116546380Y-110045619D01*
X116594000Y-109950380D01*
X116641619Y-109902761D01*
X116736857Y-109855142D01*
X116784476Y-109855142D01*
X116879714Y-109902761D01*
X116927333Y-109950380D01*
X116974952Y-110045619D01*
X116974952Y-110236095D01*
X117022571Y-110331333D01*
X117070190Y-110378952D01*
X117165428Y-110426571D01*
X117355904Y-110426571D01*
X117451142Y-110378952D01*
X117498761Y-110331333D01*
X117546380Y-110236095D01*
X117546380Y-110045619D01*
X117498761Y-109950380D01*
X117451142Y-109902761D01*
X117355904Y-109855142D01*
X117165428Y-109855142D01*
X117070190Y-109902761D01*
X117022571Y-109950380D01*
X116974952Y-110045619D01*
X111719471Y-119428868D02*
X112434943Y-119428868D01*
X112578037Y-119476566D01*
X112673434Y-119571962D01*
X112721132Y-119715057D01*
X112721132Y-119810453D01*
X112721132Y-118427207D02*
X112721132Y-118999585D01*
X112721132Y-118713396D02*
X111719471Y-118713396D01*
X111862565Y-118808792D01*
X111957962Y-118904188D01*
X112005660Y-118999585D01*
X111719471Y-118093320D02*
X111719471Y-117473244D01*
X112101056Y-117807131D01*
X112101056Y-117664037D01*
X112148754Y-117568640D01*
X112196452Y-117520942D01*
X112291849Y-117473244D01*
X112530339Y-117473244D01*
X112625736Y-117520942D01*
X112673434Y-117568640D01*
X112721132Y-117664037D01*
X112721132Y-117950226D01*
X112673434Y-118045622D01*
X112625736Y-118093320D01*
X84875619Y-100679238D02*
X84828000Y-100774476D01*
X84732761Y-100869714D01*
X84589904Y-101012571D01*
X84542285Y-101107809D01*
X84542285Y-101203047D01*
X84780380Y-101155428D02*
X84732761Y-101250666D01*
X84637523Y-101345904D01*
X84447047Y-101393523D01*
X84113714Y-101393523D01*
X83923238Y-101345904D01*
X83828000Y-101250666D01*
X83780380Y-101155428D01*
X83780380Y-100964952D01*
X83828000Y-100869714D01*
X83923238Y-100774476D01*
X84113714Y-100726857D01*
X84447047Y-100726857D01*
X84637523Y-100774476D01*
X84732761Y-100869714D01*
X84780380Y-100964952D01*
X84780380Y-101155428D01*
X83780380Y-99822095D02*
X83780380Y-100298285D01*
X84256571Y-100345904D01*
X84208952Y-100298285D01*
X84161333Y-100203047D01*
X84161333Y-99964952D01*
X84208952Y-99869714D01*
X84256571Y-99822095D01*
X84351809Y-99774476D01*
X84589904Y-99774476D01*
X84685142Y-99822095D01*
X84732761Y-99869714D01*
X84780380Y-99964952D01*
X84780380Y-100203047D01*
X84732761Y-100298285D01*
X84685142Y-100345904D01*
X102774761Y-87669619D02*
X102679523Y-87622000D01*
X102584285Y-87526761D01*
X102441428Y-87383904D01*
X102346190Y-87336285D01*
X102250952Y-87336285D01*
X102298571Y-87574380D02*
X102203333Y-87526761D01*
X102108095Y-87431523D01*
X102060476Y-87241047D01*
X102060476Y-86907714D01*
X102108095Y-86717238D01*
X102203333Y-86622000D01*
X102298571Y-86574380D01*
X102489047Y-86574380D01*
X102584285Y-86622000D01*
X102679523Y-86717238D01*
X102727142Y-86907714D01*
X102727142Y-87241047D01*
X102679523Y-87431523D01*
X102584285Y-87526761D01*
X102489047Y-87574380D01*
X102298571Y-87574380D01*
X103060476Y-86574380D02*
X103679523Y-86574380D01*
X103346190Y-86955333D01*
X103489047Y-86955333D01*
X103584285Y-87002952D01*
X103631904Y-87050571D01*
X103679523Y-87145809D01*
X103679523Y-87383904D01*
X103631904Y-87479142D01*
X103584285Y-87526761D01*
X103489047Y-87574380D01*
X103203333Y-87574380D01*
X103108095Y-87526761D01*
X103060476Y-87479142D01*
X121070619Y-88106238D02*
X121023000Y-88201476D01*
X120927761Y-88296714D01*
X120784904Y-88439571D01*
X120737285Y-88534809D01*
X120737285Y-88630047D01*
X120975380Y-88582428D02*
X120927761Y-88677666D01*
X120832523Y-88772904D01*
X120642047Y-88820523D01*
X120308714Y-88820523D01*
X120118238Y-88772904D01*
X120023000Y-88677666D01*
X119975380Y-88582428D01*
X119975380Y-88391952D01*
X120023000Y-88296714D01*
X120118238Y-88201476D01*
X120308714Y-88153857D01*
X120642047Y-88153857D01*
X120832523Y-88201476D01*
X120927761Y-88296714D01*
X120975380Y-88391952D01*
X120975380Y-88582428D01*
X120975380Y-87201476D02*
X120975380Y-87772904D01*
X120975380Y-87487190D02*
X119975380Y-87487190D01*
X120118238Y-87582428D01*
X120213476Y-87677666D01*
X120261095Y-87772904D01*
X118061131Y-59649471D02*
X118061131Y-60364943D01*
X118013433Y-60508037D01*
X117918037Y-60603434D01*
X117774942Y-60651132D01*
X117679546Y-60651132D01*
X119062792Y-60651132D02*
X118490414Y-60651132D01*
X118776603Y-60651132D02*
X118776603Y-59649471D01*
X118681207Y-59792565D01*
X118585811Y-59887962D01*
X118490414Y-59935660D01*
X119682868Y-59649471D02*
X119778264Y-59649471D01*
X119873661Y-59697169D01*
X119921359Y-59744867D01*
X119969057Y-59840263D01*
X120016755Y-60031056D01*
X120016755Y-60269547D01*
X119969057Y-60460339D01*
X119921359Y-60555736D01*
X119873661Y-60603434D01*
X119778264Y-60651132D01*
X119682868Y-60651132D01*
X119587472Y-60603434D01*
X119539774Y-60555736D01*
X119492075Y-60460339D01*
X119444377Y-60269547D01*
X119444377Y-60031056D01*
X119492075Y-59840263D01*
X119539774Y-59744867D01*
X119587472Y-59697169D01*
X119682868Y-59649471D01*
X123348761Y-96051619D02*
X123253523Y-96004000D01*
X123158285Y-95908761D01*
X123015428Y-95765904D01*
X122920190Y-95718285D01*
X122824952Y-95718285D01*
X122872571Y-95956380D02*
X122777333Y-95908761D01*
X122682095Y-95813523D01*
X122634476Y-95623047D01*
X122634476Y-95289714D01*
X122682095Y-95099238D01*
X122777333Y-95004000D01*
X122872571Y-94956380D01*
X123063047Y-94956380D01*
X123158285Y-95004000D01*
X123253523Y-95099238D01*
X123301142Y-95289714D01*
X123301142Y-95623047D01*
X123253523Y-95813523D01*
X123158285Y-95908761D01*
X123063047Y-95956380D01*
X122872571Y-95956380D01*
X123682095Y-95051619D02*
X123729714Y-95004000D01*
X123824952Y-94956380D01*
X124063047Y-94956380D01*
X124158285Y-95004000D01*
X124205904Y-95051619D01*
X124253523Y-95146857D01*
X124253523Y-95242095D01*
X124205904Y-95384952D01*
X123634476Y-95956380D01*
X124253523Y-95956380D01*
X97996476Y-112990380D02*
X97996476Y-113704666D01*
X97948857Y-113847523D01*
X97853619Y-113942761D01*
X97710761Y-113990380D01*
X97615523Y-113990380D01*
X98996476Y-113990380D02*
X98425047Y-113990380D01*
X98710761Y-113990380D02*
X98710761Y-112990380D01*
X98615523Y-113133238D01*
X98520285Y-113228476D01*
X98425047Y-113276095D01*
X99329809Y-112990380D02*
X99996476Y-112990380D01*
X99567904Y-113990380D01*
X92654380Y-73572666D02*
X92178190Y-73906000D01*
X92654380Y-74144095D02*
X91654380Y-74144095D01*
X91654380Y-73763142D01*
X91702000Y-73667904D01*
X91749619Y-73620285D01*
X91844857Y-73572666D01*
X91987714Y-73572666D01*
X92082952Y-73620285D01*
X92130571Y-73667904D01*
X92178190Y-73763142D01*
X92178190Y-74144095D01*
X91654380Y-72715523D02*
X91654380Y-72906000D01*
X91702000Y-73001238D01*
X91749619Y-73048857D01*
X91892476Y-73144095D01*
X92082952Y-73191714D01*
X92463904Y-73191714D01*
X92559142Y-73144095D01*
X92606761Y-73096476D01*
X92654380Y-73001238D01*
X92654380Y-72810761D01*
X92606761Y-72715523D01*
X92559142Y-72667904D01*
X92463904Y-72620285D01*
X92225809Y-72620285D01*
X92130571Y-72667904D01*
X92082952Y-72715523D01*
X92035333Y-72810761D01*
X92035333Y-73001238D01*
X92082952Y-73096476D01*
X92130571Y-73144095D01*
X92225809Y-73191714D01*
X121586113Y-101305471D02*
X121586113Y-102020943D01*
X121538414Y-102164037D01*
X121443018Y-102259434D01*
X121299924Y-102307132D01*
X121204527Y-102307132D01*
X122492377Y-101305471D02*
X122301585Y-101305471D01*
X122206188Y-101353169D01*
X122158490Y-101400867D01*
X122063094Y-101543962D01*
X122015396Y-101734754D01*
X122015396Y-102116339D01*
X122063094Y-102211736D01*
X122110792Y-102259434D01*
X122206188Y-102307132D01*
X122396981Y-102307132D01*
X122492377Y-102259434D01*
X122540075Y-102211736D01*
X122587774Y-102116339D01*
X122587774Y-101877849D01*
X122540075Y-101782452D01*
X122492377Y-101734754D01*
X122396981Y-101687056D01*
X122206188Y-101687056D01*
X122110792Y-101734754D01*
X122063094Y-101782452D01*
X122015396Y-101877849D01*
X84177142Y-73572666D02*
X84224761Y-73620285D01*
X84272380Y-73763142D01*
X84272380Y-73858380D01*
X84224761Y-74001238D01*
X84129523Y-74096476D01*
X84034285Y-74144095D01*
X83843809Y-74191714D01*
X83700952Y-74191714D01*
X83510476Y-74144095D01*
X83415238Y-74096476D01*
X83320000Y-74001238D01*
X83272380Y-73858380D01*
X83272380Y-73763142D01*
X83320000Y-73620285D01*
X83367619Y-73572666D01*
X83367619Y-73191714D02*
X83320000Y-73144095D01*
X83272380Y-73048857D01*
X83272380Y-72810761D01*
X83320000Y-72715523D01*
X83367619Y-72667904D01*
X83462857Y-72620285D01*
X83558095Y-72620285D01*
X83700952Y-72667904D01*
X84272380Y-73239333D01*
X84272380Y-72620285D01*
X93829142Y-92368666D02*
X93876761Y-92416285D01*
X93924380Y-92559142D01*
X93924380Y-92654380D01*
X93876761Y-92797238D01*
X93781523Y-92892476D01*
X93686285Y-92940095D01*
X93495809Y-92987714D01*
X93352952Y-92987714D01*
X93162476Y-92940095D01*
X93067238Y-92892476D01*
X92972000Y-92797238D01*
X92924380Y-92654380D01*
X92924380Y-92559142D01*
X92972000Y-92416285D01*
X93019619Y-92368666D01*
X92924380Y-91511523D02*
X92924380Y-91702000D01*
X92972000Y-91797238D01*
X93019619Y-91844857D01*
X93162476Y-91940095D01*
X93352952Y-91987714D01*
X93733904Y-91987714D01*
X93829142Y-91940095D01*
X93876761Y-91892476D01*
X93924380Y-91797238D01*
X93924380Y-91606761D01*
X93876761Y-91511523D01*
X93829142Y-91463904D01*
X93733904Y-91416285D01*
X93495809Y-91416285D01*
X93400571Y-91463904D01*
X93352952Y-91511523D01*
X93305333Y-91606761D01*
X93305333Y-91797238D01*
X93352952Y-91892476D01*
X93400571Y-91940095D01*
X93495809Y-91987714D01*
X122197904Y-78938380D02*
X122197904Y-77938380D01*
X122436000Y-77938380D01*
X122578857Y-77986000D01*
X122674095Y-78081238D01*
X122721714Y-78176476D01*
X122769333Y-78366952D01*
X122769333Y-78509809D01*
X122721714Y-78700285D01*
X122674095Y-78795523D01*
X122578857Y-78890761D01*
X122436000Y-78938380D01*
X122197904Y-78938380D01*
X123721714Y-78938380D02*
X123150285Y-78938380D01*
X123436000Y-78938380D02*
X123436000Y-77938380D01*
X123340761Y-78081238D01*
X123245523Y-78176476D01*
X123150285Y-78224095D01*
X118054380Y-83208666D02*
X117578190Y-83542000D01*
X118054380Y-83780095D02*
X117054380Y-83780095D01*
X117054380Y-83399142D01*
X117102000Y-83303904D01*
X117149619Y-83256285D01*
X117244857Y-83208666D01*
X117387714Y-83208666D01*
X117482952Y-83256285D01*
X117530571Y-83303904D01*
X117578190Y-83399142D01*
X117578190Y-83780095D01*
X117387714Y-82351523D02*
X118054380Y-82351523D01*
X117006761Y-82589619D02*
X117721047Y-82827714D01*
X117721047Y-82208666D01*
X93685471Y-62309887D02*
X94400943Y-62309887D01*
X94544037Y-62357585D01*
X94639434Y-62452981D01*
X94687132Y-62596075D01*
X94687132Y-62691472D01*
X93685471Y-61928301D02*
X93685471Y-61260527D01*
X94687132Y-61689811D01*
X126325333Y-93829142D02*
X126277714Y-93876761D01*
X126134857Y-93924380D01*
X126039619Y-93924380D01*
X125896761Y-93876761D01*
X125801523Y-93781523D01*
X125753904Y-93686285D01*
X125706285Y-93495809D01*
X125706285Y-93352952D01*
X125753904Y-93162476D01*
X125801523Y-93067238D01*
X125896761Y-92972000D01*
X126039619Y-92924380D01*
X126134857Y-92924380D01*
X126277714Y-92972000D01*
X126325333Y-93019619D01*
X127277714Y-93924380D02*
X126706285Y-93924380D01*
X126992000Y-93924380D02*
X126992000Y-92924380D01*
X126896761Y-93067238D01*
X126801523Y-93162476D01*
X126706285Y-93210095D01*
X116355904Y-96972380D02*
X116355904Y-95972380D01*
X116594000Y-95972380D01*
X116736857Y-96020000D01*
X116832095Y-96115238D01*
X116879714Y-96210476D01*
X116927333Y-96400952D01*
X116927333Y-96543809D01*
X116879714Y-96734285D01*
X116832095Y-96829523D01*
X116736857Y-96924761D01*
X116594000Y-96972380D01*
X116355904Y-96972380D01*
X117403523Y-96972380D02*
X117594000Y-96972380D01*
X117689238Y-96924761D01*
X117736857Y-96877142D01*
X117832095Y-96734285D01*
X117879714Y-96543809D01*
X117879714Y-96162857D01*
X117832095Y-96067619D01*
X117784476Y-96020000D01*
X117689238Y-95972380D01*
X117498761Y-95972380D01*
X117403523Y-96020000D01*
X117355904Y-96067619D01*
X117308285Y-96162857D01*
X117308285Y-96400952D01*
X117355904Y-96496190D01*
X117403523Y-96543809D01*
X117498761Y-96591428D01*
X117689238Y-96591428D01*
X117784476Y-96543809D01*
X117832095Y-96496190D01*
X117879714Y-96400952D01*
X121610380Y-90082666D02*
X121134190Y-90416000D01*
X121610380Y-90654095D02*
X120610380Y-90654095D01*
X120610380Y-90273142D01*
X120658000Y-90177904D01*
X120705619Y-90130285D01*
X120800857Y-90082666D01*
X120943714Y-90082666D01*
X121038952Y-90130285D01*
X121086571Y-90177904D01*
X121134190Y-90273142D01*
X121134190Y-90654095D01*
X120610380Y-89177904D02*
X120610380Y-89654095D01*
X121086571Y-89701714D01*
X121038952Y-89654095D01*
X120991333Y-89558857D01*
X120991333Y-89320761D01*
X121038952Y-89225523D01*
X121086571Y-89177904D01*
X121181809Y-89130285D01*
X121419904Y-89130285D01*
X121515142Y-89177904D01*
X121562761Y-89225523D01*
X121610380Y-89320761D01*
X121610380Y-89558857D01*
X121562761Y-89654095D01*
X121515142Y-89701714D01*
X130516380Y-96059523D02*
X131230666Y-96059523D01*
X131373523Y-96107142D01*
X131468761Y-96202380D01*
X131516380Y-96345238D01*
X131516380Y-96440476D01*
X131516380Y-95059523D02*
X131516380Y-95630952D01*
X131516380Y-95345238D02*
X130516380Y-95345238D01*
X130659238Y-95440476D01*
X130754476Y-95535714D01*
X130802095Y-95630952D01*
X130516380Y-94154761D02*
X130516380Y-94630952D01*
X130992571Y-94678571D01*
X130944952Y-94630952D01*
X130897333Y-94535714D01*
X130897333Y-94297619D01*
X130944952Y-94202380D01*
X130992571Y-94154761D01*
X131087809Y-94107142D01*
X131325904Y-94107142D01*
X131421142Y-94154761D01*
X131468761Y-94202380D01*
X131516380Y-94297619D01*
X131516380Y-94535714D01*
X131468761Y-94630952D01*
X131421142Y-94678571D01*
X124801333Y-82494380D02*
X124468000Y-82018190D01*
X124229904Y-82494380D02*
X124229904Y-81494380D01*
X124610857Y-81494380D01*
X124706095Y-81542000D01*
X124753714Y-81589619D01*
X124801333Y-81684857D01*
X124801333Y-81827714D01*
X124753714Y-81922952D01*
X124706095Y-81970571D01*
X124610857Y-82018190D01*
X124229904Y-82018190D01*
X125134666Y-81494380D02*
X125753714Y-81494380D01*
X125420380Y-81875333D01*
X125563238Y-81875333D01*
X125658476Y-81922952D01*
X125706095Y-81970571D01*
X125753714Y-82065809D01*
X125753714Y-82303904D01*
X125706095Y-82399142D01*
X125658476Y-82446761D01*
X125563238Y-82494380D01*
X125277523Y-82494380D01*
X125182285Y-82446761D01*
X125134666Y-82399142D01*
X107815142Y-86431380D02*
X107481809Y-85955190D01*
X107243714Y-86431380D02*
X107243714Y-85431380D01*
X107624666Y-85431380D01*
X107719904Y-85479000D01*
X107767523Y-85526619D01*
X107815142Y-85621857D01*
X107815142Y-85764714D01*
X107767523Y-85859952D01*
X107719904Y-85907571D01*
X107624666Y-85955190D01*
X107243714Y-85955190D01*
X108767523Y-86431380D02*
X108196095Y-86431380D01*
X108481809Y-86431380D02*
X108481809Y-85431380D01*
X108386571Y-85574238D01*
X108291333Y-85669476D01*
X108196095Y-85717095D01*
X109672285Y-85431380D02*
X109196095Y-85431380D01*
X109148476Y-85907571D01*
X109196095Y-85859952D01*
X109291333Y-85812333D01*
X109529428Y-85812333D01*
X109624666Y-85859952D01*
X109672285Y-85907571D01*
X109719904Y-86002809D01*
X109719904Y-86240904D01*
X109672285Y-86336142D01*
X109624666Y-86383761D01*
X109529428Y-86431380D01*
X109291333Y-86431380D01*
X109196095Y-86383761D01*
X109148476Y-86336142D01*
X90971619Y-100933238D02*
X90924000Y-101028476D01*
X90828761Y-101123714D01*
X90685904Y-101266571D01*
X90638285Y-101361809D01*
X90638285Y-101457047D01*
X90876380Y-101409428D02*
X90828761Y-101504666D01*
X90733523Y-101599904D01*
X90543047Y-101647523D01*
X90209714Y-101647523D01*
X90019238Y-101599904D01*
X89924000Y-101504666D01*
X89876380Y-101409428D01*
X89876380Y-101218952D01*
X89924000Y-101123714D01*
X90019238Y-101028476D01*
X90209714Y-100980857D01*
X90543047Y-100980857D01*
X90733523Y-101028476D01*
X90828761Y-101123714D01*
X90876380Y-101218952D01*
X90876380Y-101409428D01*
X90876380Y-100504666D02*
X90876380Y-100314190D01*
X90828761Y-100218952D01*
X90781142Y-100171333D01*
X90638285Y-100076095D01*
X90447809Y-100028476D01*
X90066857Y-100028476D01*
X89971619Y-100076095D01*
X89924000Y-100123714D01*
X89876380Y-100218952D01*
X89876380Y-100409428D01*
X89924000Y-100504666D01*
X89971619Y-100552285D01*
X90066857Y-100599904D01*
X90304952Y-100599904D01*
X90400190Y-100552285D01*
X90447809Y-100504666D01*
X90495428Y-100409428D01*
X90495428Y-100218952D01*
X90447809Y-100123714D01*
X90400190Y-100076095D01*
X90304952Y-100028476D01*
X113736380Y-88876095D02*
X112736380Y-88876095D01*
X112736380Y-88638000D01*
X112784000Y-88495142D01*
X112879238Y-88399904D01*
X112974476Y-88352285D01*
X113164952Y-88304666D01*
X113307809Y-88304666D01*
X113498285Y-88352285D01*
X113593523Y-88399904D01*
X113688761Y-88495142D01*
X113736380Y-88638000D01*
X113736380Y-88876095D01*
X112736380Y-87971333D02*
X112736380Y-87352285D01*
X113117333Y-87685619D01*
X113117333Y-87542761D01*
X113164952Y-87447523D01*
X113212571Y-87399904D01*
X113307809Y-87352285D01*
X113545904Y-87352285D01*
X113641142Y-87399904D01*
X113688761Y-87447523D01*
X113736380Y-87542761D01*
X113736380Y-87828476D01*
X113688761Y-87923714D01*
X113641142Y-87971333D01*
X111211471Y-62309887D02*
X111926943Y-62309887D01*
X112070037Y-62357585D01*
X112165434Y-62452981D01*
X112213132Y-62596075D01*
X112213132Y-62691472D01*
X112213132Y-61785207D02*
X112213132Y-61594414D01*
X112165434Y-61499018D01*
X112117736Y-61451320D01*
X111974641Y-61355924D01*
X111783849Y-61308226D01*
X111402263Y-61308226D01*
X111306867Y-61355924D01*
X111259169Y-61403622D01*
X111211471Y-61499018D01*
X111211471Y-61689811D01*
X111259169Y-61785207D01*
X111306867Y-61832905D01*
X111402263Y-61880603D01*
X111640754Y-61880603D01*
X111736150Y-61832905D01*
X111783849Y-61785207D01*
X111831547Y-61689811D01*
X111831547Y-61499018D01*
X111783849Y-61403622D01*
X111736150Y-61355924D01*
X111640754Y-61308226D01*
X93177471Y-118951887D02*
X93892943Y-118951887D01*
X94036037Y-118999585D01*
X94131434Y-119094981D01*
X94179132Y-119238075D01*
X94179132Y-119333472D01*
X93177471Y-117997924D02*
X93177471Y-118474905D01*
X93654452Y-118522603D01*
X93606754Y-118474905D01*
X93559056Y-118379509D01*
X93559056Y-118141018D01*
X93606754Y-118045622D01*
X93654452Y-117997924D01*
X93749849Y-117950226D01*
X93988339Y-117950226D01*
X94083736Y-117997924D01*
X94131434Y-118045622D01*
X94179132Y-118141018D01*
X94179132Y-118379509D01*
X94131434Y-118474905D01*
X94083736Y-118522603D01*
X84177142Y-106338666D02*
X84224761Y-106386285D01*
X84272380Y-106529142D01*
X84272380Y-106624380D01*
X84224761Y-106767238D01*
X84129523Y-106862476D01*
X84034285Y-106910095D01*
X83843809Y-106957714D01*
X83700952Y-106957714D01*
X83510476Y-106910095D01*
X83415238Y-106862476D01*
X83320000Y-106767238D01*
X83272380Y-106624380D01*
X83272380Y-106529142D01*
X83320000Y-106386285D01*
X83367619Y-106338666D01*
X83605714Y-105481523D02*
X84272380Y-105481523D01*
X83224761Y-105719619D02*
X83939047Y-105957714D01*
X83939047Y-105338666D01*
X109078071Y-95337619D02*
X108982833Y-95290000D01*
X108887595Y-95194761D01*
X108744738Y-95051904D01*
X108649500Y-95004285D01*
X108554261Y-95004285D01*
X108601880Y-95242380D02*
X108506642Y-95194761D01*
X108411404Y-95099523D01*
X108363785Y-94909047D01*
X108363785Y-94575714D01*
X108411404Y-94385238D01*
X108506642Y-94290000D01*
X108601880Y-94242380D01*
X108792357Y-94242380D01*
X108887595Y-94290000D01*
X108982833Y-94385238D01*
X109030452Y-94575714D01*
X109030452Y-94909047D01*
X108982833Y-95099523D01*
X108887595Y-95194761D01*
X108792357Y-95242380D01*
X108601880Y-95242380D01*
X109982833Y-95242380D02*
X109411404Y-95242380D01*
X109697119Y-95242380D02*
X109697119Y-94242380D01*
X109601880Y-94385238D01*
X109506642Y-94480476D01*
X109411404Y-94528095D01*
X110601880Y-94242380D02*
X110697119Y-94242380D01*
X110792357Y-94290000D01*
X110839976Y-94337619D01*
X110887595Y-94432857D01*
X110935214Y-94623333D01*
X110935214Y-94861428D01*
X110887595Y-95051904D01*
X110839976Y-95147142D01*
X110792357Y-95194761D01*
X110697119Y-95242380D01*
X110601880Y-95242380D01*
X110506642Y-95194761D01*
X110459023Y-95147142D01*
X110411404Y-95051904D01*
X110363785Y-94861428D01*
X110363785Y-94623333D01*
X110411404Y-94432857D01*
X110459023Y-94337619D01*
X110506642Y-94290000D01*
X110601880Y-94242380D01*
X93162690Y-67921600D02*
X92162005Y-67921600D01*
X93162690Y-67349780D02*
X92590870Y-67778645D01*
X92162005Y-67349780D02*
X92733825Y-67921600D01*
X92257309Y-66968567D02*
X92209657Y-66920915D01*
X92162005Y-66825612D01*
X92162005Y-66587354D01*
X92209657Y-66492050D01*
X92257309Y-66444399D01*
X92352612Y-66396747D01*
X92447915Y-66396747D01*
X92590870Y-66444399D01*
X93162690Y-67016219D01*
X93162690Y-66396747D01*
X101719142Y-92146380D02*
X101385809Y-91670190D01*
X101147714Y-92146380D02*
X101147714Y-91146380D01*
X101528666Y-91146380D01*
X101623904Y-91194000D01*
X101671523Y-91241619D01*
X101719142Y-91336857D01*
X101719142Y-91479714D01*
X101671523Y-91574952D01*
X101623904Y-91622571D01*
X101528666Y-91670190D01*
X101147714Y-91670190D01*
X102671523Y-92146380D02*
X102100095Y-92146380D01*
X102385809Y-92146380D02*
X102385809Y-91146380D01*
X102290571Y-91289238D01*
X102195333Y-91384476D01*
X102100095Y-91432095D01*
X103004857Y-91146380D02*
X103671523Y-91146380D01*
X103242952Y-92146380D01*
X105687904Y-96718380D02*
X105687904Y-95718380D01*
X105926000Y-95718380D01*
X106068857Y-95766000D01*
X106164095Y-95861238D01*
X106211714Y-95956476D01*
X106259333Y-96146952D01*
X106259333Y-96289809D01*
X106211714Y-96480285D01*
X106164095Y-96575523D01*
X106068857Y-96670761D01*
X105926000Y-96718380D01*
X105687904Y-96718380D01*
X106592666Y-95718380D02*
X107259333Y-95718380D01*
X106830761Y-96718380D01*
X92654380Y-106592666D02*
X92178190Y-106926000D01*
X92654380Y-107164095D02*
X91654380Y-107164095D01*
X91654380Y-106783142D01*
X91702000Y-106687904D01*
X91749619Y-106640285D01*
X91844857Y-106592666D01*
X91987714Y-106592666D01*
X92082952Y-106640285D01*
X92130571Y-106687904D01*
X92178190Y-106783142D01*
X92178190Y-107164095D01*
X91654380Y-106259333D02*
X91654380Y-105592666D01*
X92654380Y-106021238D01*
X92908380Y-83224666D02*
X92432190Y-83558000D01*
X92908380Y-83796095D02*
X91908380Y-83796095D01*
X91908380Y-83415142D01*
X91956000Y-83319904D01*
X92003619Y-83272285D01*
X92098857Y-83224666D01*
X92241714Y-83224666D01*
X92336952Y-83272285D01*
X92384571Y-83319904D01*
X92432190Y-83415142D01*
X92432190Y-83796095D01*
X92908380Y-82748476D02*
X92908380Y-82558000D01*
X92860761Y-82462761D01*
X92813142Y-82415142D01*
X92670285Y-82319904D01*
X92479809Y-82272285D01*
X92098857Y-82272285D01*
X92003619Y-82319904D01*
X91956000Y-82367523D01*
X91908380Y-82462761D01*
X91908380Y-82653238D01*
X91956000Y-82748476D01*
X92003619Y-82796095D01*
X92098857Y-82843714D01*
X92336952Y-82843714D01*
X92432190Y-82796095D01*
X92479809Y-82748476D01*
X92527428Y-82653238D01*
X92527428Y-82462761D01*
X92479809Y-82367523D01*
X92432190Y-82319904D01*
X92336952Y-82272285D01*
X92479904Y-86050380D02*
X92479904Y-85050380D01*
X92718000Y-85050380D01*
X92860857Y-85098000D01*
X92956095Y-85193238D01*
X93003714Y-85288476D01*
X93051333Y-85478952D01*
X93051333Y-85621809D01*
X93003714Y-85812285D01*
X92956095Y-85907523D01*
X92860857Y-86002761D01*
X92718000Y-86050380D01*
X92479904Y-86050380D01*
X93956095Y-85050380D02*
X93479904Y-85050380D01*
X93432285Y-85526571D01*
X93479904Y-85478952D01*
X93575142Y-85431333D01*
X93813238Y-85431333D01*
X93908476Y-85478952D01*
X93956095Y-85526571D01*
X94003714Y-85621809D01*
X94003714Y-85859904D01*
X93956095Y-85955142D01*
X93908476Y-86002761D01*
X93813238Y-86050380D01*
X93575142Y-86050380D01*
X93479904Y-86002761D01*
X93432285Y-85955142D01*
X84621619Y-78835238D02*
X84574000Y-78930476D01*
X84478761Y-79025714D01*
X84335904Y-79168571D01*
X84288285Y-79263809D01*
X84288285Y-79359047D01*
X84526380Y-79311428D02*
X84478761Y-79406666D01*
X84383523Y-79501904D01*
X84193047Y-79549523D01*
X83859714Y-79549523D01*
X83669238Y-79501904D01*
X83574000Y-79406666D01*
X83526380Y-79311428D01*
X83526380Y-79120952D01*
X83574000Y-79025714D01*
X83669238Y-78930476D01*
X83859714Y-78882857D01*
X84193047Y-78882857D01*
X84383523Y-78930476D01*
X84478761Y-79025714D01*
X84526380Y-79120952D01*
X84526380Y-79311428D01*
X83954952Y-78311428D02*
X83907333Y-78406666D01*
X83859714Y-78454285D01*
X83764476Y-78501904D01*
X83716857Y-78501904D01*
X83621619Y-78454285D01*
X83574000Y-78406666D01*
X83526380Y-78311428D01*
X83526380Y-78120952D01*
X83574000Y-78025714D01*
X83621619Y-77978095D01*
X83716857Y-77930476D01*
X83764476Y-77930476D01*
X83859714Y-77978095D01*
X83907333Y-78025714D01*
X83954952Y-78120952D01*
X83954952Y-78311428D01*
X84002571Y-78406666D01*
X84050190Y-78454285D01*
X84145428Y-78501904D01*
X84335904Y-78501904D01*
X84431142Y-78454285D01*
X84478761Y-78406666D01*
X84526380Y-78311428D01*
X84526380Y-78120952D01*
X84478761Y-78025714D01*
X84431142Y-77978095D01*
X84335904Y-77930476D01*
X84145428Y-77930476D01*
X84050190Y-77978095D01*
X84002571Y-78025714D01*
X83954952Y-78120952D01*
X91289142Y-113958666D02*
X91336761Y-114006285D01*
X91384380Y-114149142D01*
X91384380Y-114244380D01*
X91336761Y-114387238D01*
X91241523Y-114482476D01*
X91146285Y-114530095D01*
X90955809Y-114577714D01*
X90812952Y-114577714D01*
X90622476Y-114530095D01*
X90527238Y-114482476D01*
X90432000Y-114387238D01*
X90384380Y-114244380D01*
X90384380Y-114149142D01*
X90432000Y-114006285D01*
X90479619Y-113958666D01*
X90384380Y-113053904D02*
X90384380Y-113530095D01*
X90860571Y-113577714D01*
X90812952Y-113530095D01*
X90765333Y-113434857D01*
X90765333Y-113196761D01*
X90812952Y-113101523D01*
X90860571Y-113053904D01*
X90955809Y-113006285D01*
X91193904Y-113006285D01*
X91289142Y-113053904D01*
X91336761Y-113101523D01*
X91384380Y-113196761D01*
X91384380Y-113434857D01*
X91336761Y-113530095D01*
X91289142Y-113577714D01*
X128357333Y-78684380D02*
X128024000Y-78208190D01*
X127785904Y-78684380D02*
X127785904Y-77684380D01*
X128166857Y-77684380D01*
X128262095Y-77732000D01*
X128309714Y-77779619D01*
X128357333Y-77874857D01*
X128357333Y-78017714D01*
X128309714Y-78112952D01*
X128262095Y-78160571D01*
X128166857Y-78208190D01*
X127785904Y-78208190D01*
X129309714Y-78684380D02*
X128738285Y-78684380D01*
X129024000Y-78684380D02*
X129024000Y-77684380D01*
X128928761Y-77827238D01*
X128833523Y-77922476D01*
X128738285Y-77970095D01*
X85965619Y-93821238D02*
X85918000Y-93916476D01*
X85822761Y-94011714D01*
X85679904Y-94154571D01*
X85632285Y-94249809D01*
X85632285Y-94345047D01*
X85870380Y-94297428D02*
X85822761Y-94392666D01*
X85727523Y-94487904D01*
X85537047Y-94535523D01*
X85203714Y-94535523D01*
X85013238Y-94487904D01*
X84918000Y-94392666D01*
X84870380Y-94297428D01*
X84870380Y-94106952D01*
X84918000Y-94011714D01*
X85013238Y-93916476D01*
X85203714Y-93868857D01*
X85537047Y-93868857D01*
X85727523Y-93916476D01*
X85822761Y-94011714D01*
X85870380Y-94106952D01*
X85870380Y-94297428D01*
X84870380Y-93535523D02*
X84870380Y-92868857D01*
X85870380Y-93297428D01*
X103319904Y-84018380D02*
X103319904Y-83018380D01*
X103558000Y-83018380D01*
X103700857Y-83066000D01*
X103796095Y-83161238D01*
X103843714Y-83256476D01*
X103891333Y-83446952D01*
X103891333Y-83589809D01*
X103843714Y-83780285D01*
X103796095Y-83875523D01*
X103700857Y-83970761D01*
X103558000Y-84018380D01*
X103319904Y-84018380D01*
X104748476Y-83018380D02*
X104558000Y-83018380D01*
X104462761Y-83066000D01*
X104415142Y-83113619D01*
X104319904Y-83256476D01*
X104272285Y-83446952D01*
X104272285Y-83827904D01*
X104319904Y-83923142D01*
X104367523Y-83970761D01*
X104462761Y-84018380D01*
X104653238Y-84018380D01*
X104748476Y-83970761D01*
X104796095Y-83923142D01*
X104843714Y-83827904D01*
X104843714Y-83589809D01*
X104796095Y-83494571D01*
X104748476Y-83446952D01*
X104653238Y-83399333D01*
X104462761Y-83399333D01*
X104367523Y-83446952D01*
X104319904Y-83494571D01*
X104272285Y-83589809D01*
X117173925Y-101954545D02*
X116173240Y-101954545D01*
X117173925Y-101382725D02*
X116602105Y-101811590D01*
X116173240Y-101382725D02*
X116745060Y-101954545D01*
X116173240Y-101049164D02*
X116173240Y-100429692D01*
X116554454Y-100763254D01*
X116554454Y-100620299D01*
X116602105Y-100524995D01*
X116649757Y-100477344D01*
X116745060Y-100429692D01*
X116983319Y-100429692D01*
X117078622Y-100477344D01*
X117126274Y-100524995D01*
X117173925Y-100620299D01*
X117173925Y-100906209D01*
X117126274Y-101001512D01*
X117078622Y-101049164D01*
X122053904Y-86812380D02*
X122053904Y-85812380D01*
X122292000Y-85812380D01*
X122434857Y-85860000D01*
X122530095Y-85955238D01*
X122577714Y-86050476D01*
X122625333Y-86240952D01*
X122625333Y-86383809D01*
X122577714Y-86574285D01*
X122530095Y-86669523D01*
X122434857Y-86764761D01*
X122292000Y-86812380D01*
X122053904Y-86812380D01*
X123006285Y-85907619D02*
X123053904Y-85860000D01*
X123149142Y-85812380D01*
X123387238Y-85812380D01*
X123482476Y-85860000D01*
X123530095Y-85907619D01*
X123577714Y-86002857D01*
X123577714Y-86098095D01*
X123530095Y-86240952D01*
X122958666Y-86812380D01*
X123577714Y-86812380D01*
D11*
X93508000Y-95996000D02*
X97408000Y-95996000D01*
X93508000Y-93996000D02*
X93508000Y-95996000D01*
X93508000Y-93996000D02*
X97408000Y-93996000D01*
X92937000Y-99324936D02*
X92937000Y-99779064D01*
X91467000Y-99324936D02*
X91467000Y-99779064D01*
X110018000Y-84090000D02*
X113918000Y-84090000D01*
X110018000Y-84090000D02*
X110018000Y-86090000D01*
X110018000Y-86090000D02*
X113918000Y-86090000D01*
X109484936Y-88365000D02*
X109939064Y-88365000D01*
X109484936Y-86895000D02*
X109939064Y-86895000D01*
X87782000Y-81709500D02*
X87782000Y-82359500D01*
X87782000Y-81709500D02*
X87782000Y-81059500D01*
X90902000Y-81709500D02*
X90902000Y-82359500D01*
X90902000Y-81709500D02*
X90902000Y-80034500D01*
X112041000Y-91196936D02*
X112041000Y-91651064D01*
X113511000Y-91196936D02*
X113511000Y-91651064D01*
X125481000Y-74362000D02*
X125481000Y-64242000D01*
X123136000Y-67812000D02*
X123194000Y-67871000D01*
X124220000Y-74362000D02*
X124220000Y-64242000D01*
X124880000Y-74602000D02*
X125720000Y-74602000D01*
X117760000Y-74362000D02*
X125481000Y-74362000D01*
X122896000Y-67982000D02*
X122989000Y-68076000D01*
X125720000Y-74602000D02*
X125720000Y-74002000D01*
X120645000Y-65732000D02*
X120704000Y-65791000D01*
X117760000Y-74362000D02*
X117760000Y-64242000D01*
X124820000Y-74362000D02*
X124820000Y-64242000D01*
X120851000Y-65527000D02*
X120944000Y-65621000D01*
X119520000Y-74362000D02*
X119520000Y-64242000D01*
X117760000Y-64242000D02*
X125481000Y-64242000D01*
X120436000Y-71013000D02*
G75*
G03*
X120436047Y-72591089I1483995J-789000D01*
G01*
X123404000Y-72591000D02*
G75*
G03*
X123600450Y-71772617I-1483995J788998D01*
G01*
X122709000Y-70318000D02*
G75*
G03*
X121130911Y-70318047I-789000J-1483995D01*
G01*
X121131000Y-73286000D02*
G75*
G03*
X122709089Y-73285953I789000J1483995D01*
G01*
X123600000Y-71802000D02*
G75*
G03*
X123403352Y-71013288I-1679991J2D01*
G01*
X123600000Y-66802000D02*
G75*
G03*
X123600000Y-66802000I-1680000J0D01*
G01*
X119470000Y-66802000D02*
G75*
G03*
X119470000Y-66802000I-550000J0D01*
G01*
X119470000Y-71802000D02*
G75*
G03*
X119470000Y-71802000I-550000J0D01*
G01*
X119930936Y-97563000D02*
X120385064Y-97563000D01*
X119930936Y-99033000D02*
X120385064Y-99033000D01*
D12*
X120142000Y-76854000D02*
X122682000Y-76854000D01*
X120142000Y-76054000D02*
X122682000Y-76054000D01*
X125162000Y-76054000D02*
X125162000Y-76854000D01*
X117662000Y-76054000D02*
X117662000Y-76854000D01*
D11*
X127481064Y-85063000D02*
X127026936Y-85063000D01*
X127481064Y-83593000D02*
X127026936Y-83593000D01*
X86324000Y-85676500D02*
X86324000Y-85026500D01*
X89444000Y-85676500D02*
X89444000Y-84001500D01*
X89444000Y-85676500D02*
X89444000Y-86326500D01*
X86324000Y-85676500D02*
X86324000Y-86326500D01*
X90942936Y-88927000D02*
X91397064Y-88927000D01*
X90942936Y-90397000D02*
X91397064Y-90397000D01*
X90852000Y-69348000D02*
X88670000Y-69348000D01*
X86590000Y-69869000D02*
X84489000Y-69869000D01*
X86590000Y-70909000D02*
X84940000Y-70909000D01*
X86590000Y-69588000D02*
X84435000Y-69588000D01*
X88980000Y-72069000D02*
X86280000Y-72069000D01*
X86590000Y-70789000D02*
X84864000Y-70789000D01*
X90464000Y-70669000D02*
X88670000Y-70669000D01*
X88892000Y-72109000D02*
X86368000Y-72109000D01*
X90845000Y-69428000D02*
X88670000Y-69428000D01*
X86590000Y-69548000D02*
X84429000Y-69548000D01*
X90442000Y-70709000D02*
X88670000Y-70709000D01*
X89406000Y-71829000D02*
X85854000Y-71829000D01*
X90178000Y-71109000D02*
X88670000Y-71109000D01*
X86590000Y-70189000D02*
X84583000Y-70189000D01*
X90320000Y-70909000D02*
X88670000Y-70909000D01*
X86590000Y-71229000D02*
X85180000Y-71229000D01*
X90372000Y-70829000D02*
X88670000Y-70829000D01*
X86590000Y-70429000D02*
X84678000Y-70429000D01*
X88432000Y-72269000D02*
X86828000Y-72269000D01*
X89062000Y-72029000D02*
X86198000Y-72029000D01*
X89574000Y-71709000D02*
X85686000Y-71709000D01*
X86590000Y-70349000D02*
X84644000Y-70349000D01*
X89625000Y-71669000D02*
X85635000Y-71669000D01*
X86590000Y-71349000D02*
X85287000Y-71349000D01*
X90860000Y-69188000D02*
X84400000Y-69188000D01*
X89280000Y-71909000D02*
X85980000Y-71909000D01*
X86590000Y-70549000D02*
X84734000Y-70549000D01*
X86590000Y-70309000D02*
X84628000Y-70309000D01*
X86590000Y-69388000D02*
X84412000Y-69388000D01*
X90854000Y-69308000D02*
X84406000Y-69308000D01*
X90860000Y-69108000D02*
X84400000Y-69108000D01*
X89674000Y-71629000D02*
X85586000Y-71629000D01*
X90797000Y-69748000D02*
X88670000Y-69748000D01*
X90616000Y-70349000D02*
X88670000Y-70349000D01*
X86590000Y-70709000D02*
X84818000Y-70709000D01*
X88795000Y-72149000D02*
X86465000Y-72149000D01*
X90346000Y-70869000D02*
X88670000Y-70869000D01*
X86590000Y-69468000D02*
X84419000Y-69468000D01*
X86590000Y-70669000D02*
X84796000Y-70669000D01*
X90506000Y-70589000D02*
X88670000Y-70589000D01*
X90632000Y-70309000D02*
X88670000Y-70309000D01*
X86590000Y-70229000D02*
X84597000Y-70229000D01*
X90728000Y-70029000D02*
X88670000Y-70029000D01*
X86590000Y-70029000D02*
X84532000Y-70029000D01*
X90600000Y-70389000D02*
X88670000Y-70389000D01*
X90819000Y-69628000D02*
X88670000Y-69628000D01*
X89854000Y-71469000D02*
X85406000Y-71469000D01*
X89784000Y-65922759D02*
X89154000Y-65922759D01*
X86590000Y-70389000D02*
X84660000Y-70389000D01*
X86590000Y-69949000D02*
X84509000Y-69949000D01*
X90771000Y-69869000D02*
X88670000Y-69869000D01*
X88263000Y-72309000D02*
X86997000Y-72309000D01*
X90663000Y-70229000D02*
X88670000Y-70229000D01*
X86590000Y-70989000D02*
X84994000Y-70989000D01*
X86590000Y-70829000D02*
X84888000Y-70829000D01*
X86590000Y-69788000D02*
X84471000Y-69788000D01*
X86590000Y-70069000D02*
X84544000Y-70069000D01*
X88032000Y-72349000D02*
X87228000Y-72349000D01*
X89722000Y-71589000D02*
X85538000Y-71589000D01*
X90848000Y-69388000D02*
X88670000Y-69388000D01*
X86590000Y-71069000D02*
X85052000Y-71069000D01*
X86590000Y-69428000D02*
X84415000Y-69428000D01*
X90486000Y-70629000D02*
X88670000Y-70629000D01*
X90146000Y-71149000D02*
X88670000Y-71149000D01*
X89895000Y-71429000D02*
X85365000Y-71429000D01*
X89935000Y-71389000D02*
X88670000Y-71389000D01*
X90677000Y-70189000D02*
X88670000Y-70189000D01*
X90789000Y-69788000D02*
X88670000Y-69788000D01*
X90857000Y-69268000D02*
X84403000Y-69268000D01*
X90010000Y-71309000D02*
X88670000Y-71309000D01*
X90396000Y-70789000D02*
X88670000Y-70789000D01*
X90648000Y-70269000D02*
X88670000Y-70269000D01*
X86590000Y-69909000D02*
X84499000Y-69909000D01*
X90704000Y-70109000D02*
X88670000Y-70109000D01*
X90208000Y-71069000D02*
X88670000Y-71069000D01*
X86590000Y-69508000D02*
X84424000Y-69508000D01*
X90582000Y-70429000D02*
X88670000Y-70429000D01*
X90761000Y-69909000D02*
X88670000Y-69909000D01*
X89469000Y-65607759D02*
X89469000Y-66237759D01*
X89139000Y-71989000D02*
X86121000Y-71989000D01*
X86590000Y-69708000D02*
X84455000Y-69708000D01*
X90858000Y-69228000D02*
X84402000Y-69228000D01*
X86590000Y-71189000D02*
X85146000Y-71189000D01*
X86590000Y-71269000D02*
X85214000Y-71269000D01*
X86590000Y-70109000D02*
X84556000Y-70109000D01*
X86590000Y-71149000D02*
X85114000Y-71149000D01*
X86590000Y-69668000D02*
X84448000Y-69668000D01*
X89520000Y-71749000D02*
X85740000Y-71749000D01*
X90294000Y-70949000D02*
X88670000Y-70949000D01*
X89973000Y-71349000D02*
X88670000Y-71349000D01*
X90546000Y-70509000D02*
X88670000Y-70509000D01*
X90046000Y-71269000D02*
X88670000Y-71269000D01*
X86590000Y-69628000D02*
X84441000Y-69628000D01*
X90691000Y-70149000D02*
X88670000Y-70149000D01*
X86590000Y-70469000D02*
X84696000Y-70469000D01*
X86590000Y-70269000D02*
X84612000Y-70269000D01*
X90420000Y-70749000D02*
X88670000Y-70749000D01*
X88570000Y-72229000D02*
X86690000Y-72229000D01*
X90564000Y-70469000D02*
X88670000Y-70469000D01*
X86590000Y-70749000D02*
X84840000Y-70749000D01*
X86590000Y-70589000D02*
X84754000Y-70589000D01*
X86590000Y-69829000D02*
X84480000Y-69829000D01*
X90114000Y-71189000D02*
X88670000Y-71189000D01*
X86590000Y-70629000D02*
X84774000Y-70629000D01*
X90831000Y-69548000D02*
X88670000Y-69548000D01*
X90841000Y-69468000D02*
X88670000Y-69468000D01*
X90526000Y-70549000D02*
X88670000Y-70549000D01*
X86590000Y-70149000D02*
X84569000Y-70149000D01*
X90836000Y-69508000D02*
X88670000Y-69508000D01*
X90740000Y-69989000D02*
X88670000Y-69989000D01*
X86590000Y-70509000D02*
X84714000Y-70509000D01*
X90805000Y-69708000D02*
X88670000Y-69708000D01*
X89464000Y-71789000D02*
X85796000Y-71789000D01*
X90237000Y-71029000D02*
X88670000Y-71029000D01*
X90751000Y-69949000D02*
X88670000Y-69949000D01*
X90780000Y-69829000D02*
X88670000Y-69829000D01*
X90716000Y-70069000D02*
X88670000Y-70069000D01*
X86590000Y-71389000D02*
X85325000Y-71389000D01*
X89344000Y-71869000D02*
X85916000Y-71869000D01*
X86590000Y-70869000D02*
X84914000Y-70869000D01*
X90266000Y-70989000D02*
X88670000Y-70989000D01*
X90825000Y-69588000D02*
X88670000Y-69588000D01*
X89767000Y-71549000D02*
X85493000Y-71549000D01*
X86590000Y-71109000D02*
X85082000Y-71109000D01*
X88689000Y-72189000D02*
X86571000Y-72189000D01*
X90812000Y-69668000D02*
X88670000Y-69668000D01*
X90860000Y-69148000D02*
X84400000Y-69148000D01*
X89211000Y-71949000D02*
X86049000Y-71949000D01*
X86590000Y-69748000D02*
X84463000Y-69748000D01*
X86590000Y-71029000D02*
X85023000Y-71029000D01*
X86590000Y-69348000D02*
X84408000Y-69348000D01*
X90080000Y-71229000D02*
X88670000Y-71229000D01*
X86590000Y-70949000D02*
X84966000Y-70949000D01*
X86590000Y-69989000D02*
X84520000Y-69989000D01*
X86590000Y-71309000D02*
X85250000Y-71309000D01*
X89812000Y-71509000D02*
X85448000Y-71509000D01*
X90900000Y-69108000D02*
G75*
G03*
X90900000Y-69108000I-3270000J0D01*
G01*
X132315000Y-88900000D02*
G75*
G03*
X132315000Y-88900000I-1251000J0D01*
G01*
D12*
X118170000Y-117710000D02*
X118170000Y-118510000D01*
X120650000Y-118510000D02*
X123190000Y-118510000D01*
X125670000Y-117710000D02*
X125670000Y-118510000D01*
X120650000Y-117710000D02*
X123190000Y-117710000D01*
D11*
X132315000Y-84328000D02*
G75*
G03*
X132315000Y-84328000I-1251000J0D01*
G01*
X126473000Y-88900000D02*
G75*
G03*
X126473000Y-88900000I-1251000J0D01*
G01*
X116613000Y-91196936D02*
X116613000Y-91651064D01*
X118083000Y-91196936D02*
X118083000Y-91651064D01*
X97770000Y-57816000D02*
X107890000Y-57816000D01*
X104320000Y-63192000D02*
X104261000Y-63250000D01*
X97770000Y-65537000D02*
X107890000Y-65537000D01*
X97530000Y-64936000D02*
X97530000Y-65776000D01*
X106605000Y-60907000D02*
X106511000Y-61000000D01*
X97770000Y-64276000D02*
X107890000Y-64276000D01*
X106400000Y-60701000D02*
X106341000Y-60760000D01*
X97530000Y-65776000D02*
X98130000Y-65776000D01*
X104150000Y-62952000D02*
X104056000Y-63045000D01*
X97770000Y-57816000D02*
X97770000Y-65537000D01*
X97770000Y-59576000D02*
X107890000Y-59576000D01*
X97770000Y-64876000D02*
X107890000Y-64876000D01*
X107890000Y-57816000D02*
X107890000Y-65537000D01*
X101814000Y-62765000D02*
G75*
G03*
X101813953Y-61186911I-1483995J789000D01*
G01*
X100330000Y-63656000D02*
G75*
G03*
X101118712Y-63459352I2J1679991D01*
G01*
X98846000Y-61187000D02*
G75*
G03*
X98846047Y-62765089I1483995J-789000D01*
G01*
X99541000Y-63460000D02*
G75*
G03*
X100359383Y-63656450I788998J1483995D01*
G01*
X101119000Y-60492000D02*
G75*
G03*
X99540911Y-60492047I-789000J-1483995D01*
G01*
X100880000Y-58976000D02*
G75*
G03*
X100880000Y-58976000I-550000J0D01*
G01*
X107010000Y-61976000D02*
G75*
G03*
X107010000Y-61976000I-1680000J0D01*
G01*
X105880000Y-58976000D02*
G75*
G03*
X105880000Y-58976000I-550000J0D01*
G01*
X132315000Y-79756000D02*
G75*
G03*
X132315000Y-79756000I-1251000J0D01*
G01*
X132315000Y-102616000D02*
G75*
G03*
X132315000Y-102616000I-1251000J0D01*
G01*
X102065064Y-87911000D02*
X101610936Y-87911000D01*
X102065064Y-89381000D02*
X101610936Y-89381000D01*
X126080000Y-105978000D02*
X126080000Y-116098000D01*
X120944000Y-112358000D02*
X120851000Y-112264000D01*
X126080000Y-116098000D02*
X118359000Y-116098000D01*
X122989000Y-114813000D02*
X122896000Y-114719000D01*
X118960000Y-105738000D02*
X118120000Y-105738000D01*
X118359000Y-105978000D02*
X118359000Y-116098000D01*
X124320000Y-105978000D02*
X124320000Y-116098000D01*
X123195000Y-114608000D02*
X123136000Y-114549000D01*
X119620000Y-105978000D02*
X119620000Y-116098000D01*
X126080000Y-105978000D02*
X118359000Y-105978000D01*
X119020000Y-105978000D02*
X119020000Y-116098000D01*
X120704000Y-112528000D02*
X120646000Y-112469000D01*
X118120000Y-105738000D02*
X118120000Y-106338000D01*
X120436000Y-107749000D02*
G75*
G03*
X120239550Y-108567383I1483995J-788998D01*
G01*
X122709000Y-107054000D02*
G75*
G03*
X121130911Y-107054047I-789000J-1483995D01*
G01*
X120240000Y-108538000D02*
G75*
G03*
X120436648Y-109326712I1679991J-2D01*
G01*
X123404000Y-109327000D02*
G75*
G03*
X123403953Y-107748911I-1483995J789000D01*
G01*
X121131000Y-110022000D02*
G75*
G03*
X122709089Y-110021953I789000J1483995D01*
G01*
X125470000Y-108538000D02*
G75*
G03*
X125470000Y-108538000I-550000J0D01*
G01*
X123600000Y-113538000D02*
G75*
G03*
X123600000Y-113538000I-1680000J0D01*
G01*
X125470000Y-113538000D02*
G75*
G03*
X125470000Y-113538000I-550000J0D01*
G01*
D12*
X109582000Y-122368000D02*
X110382000Y-122368000D01*
X110382000Y-119888000D02*
X110382000Y-117348000D01*
X109582000Y-114868000D02*
X110382000Y-114868000D01*
X109582000Y-119888000D02*
X109582000Y-117348000D01*
D11*
X84358000Y-97711500D02*
X84358000Y-99386500D01*
X87478000Y-97711500D02*
X87478000Y-97061500D01*
X87478000Y-97711500D02*
X87478000Y-98361500D01*
X84358000Y-97711500D02*
X84358000Y-97061500D01*
X105839500Y-87086000D02*
X106489500Y-87086000D01*
X105839500Y-90206000D02*
X107514500Y-90206000D01*
X105839500Y-87086000D02*
X105189500Y-87086000D01*
X105839500Y-90206000D02*
X105189500Y-90206000D01*
X116484000Y-87297500D02*
X116484000Y-87947500D01*
X119604000Y-87297500D02*
X119604000Y-87947500D01*
X116484000Y-87297500D02*
X116484000Y-86647500D01*
X119604000Y-87297500D02*
X119604000Y-85622500D01*
D12*
X125162000Y-61830000D02*
X125162000Y-62630000D01*
X120142000Y-61830000D02*
X122682000Y-61830000D01*
X117662000Y-61830000D02*
X117662000Y-62630000D01*
X120142000Y-62630000D02*
X122682000Y-62630000D01*
D11*
X120317500Y-93878000D02*
X118642500Y-93878000D01*
X120317500Y-96998000D02*
X120967500Y-96998000D01*
X120317500Y-93878000D02*
X120967500Y-93878000D01*
X120317500Y-96998000D02*
X119667500Y-96998000D01*
X104400000Y-120342000D02*
X104341000Y-120400000D01*
X106480000Y-117851000D02*
X106421000Y-117910000D01*
X97850000Y-122687000D02*
X107970000Y-122687000D01*
X97850000Y-116726000D02*
X107970000Y-116726000D01*
X97610000Y-122086000D02*
X97610000Y-122926000D01*
X97850000Y-121426000D02*
X107970000Y-121426000D01*
X107970000Y-114966000D02*
X107970000Y-122687000D01*
X97850000Y-114966000D02*
X107970000Y-114966000D01*
X104230000Y-120102000D02*
X104136000Y-120195000D01*
X97610000Y-122926000D02*
X98210000Y-122926000D01*
X97850000Y-114966000D02*
X97850000Y-122687000D01*
X106685000Y-118057000D02*
X106591000Y-118150000D01*
X97850000Y-122026000D02*
X107970000Y-122026000D01*
X98926000Y-118337000D02*
G75*
G03*
X98926047Y-119915089I1483995J-789000D01*
G01*
X100410000Y-120806000D02*
G75*
G03*
X101198712Y-120609352I2J1679991D01*
G01*
X101199000Y-117642000D02*
G75*
G03*
X99620911Y-117642047I-789000J-1483995D01*
G01*
X101894000Y-119915000D02*
G75*
G03*
X101893953Y-118336911I-1483995J789000D01*
G01*
X99621000Y-120610000D02*
G75*
G03*
X100439383Y-120806450I788998J1483995D01*
G01*
X107090000Y-119126000D02*
G75*
G03*
X107090000Y-119126000I-1680000J0D01*
G01*
X105960000Y-116126000D02*
G75*
G03*
X105960000Y-116126000I-550000J0D01*
G01*
X100960000Y-116126000D02*
G75*
G03*
X100960000Y-116126000I-550000J0D01*
G01*
X92937000Y-76210936D02*
X92937000Y-76665064D01*
X91467000Y-76210936D02*
X91467000Y-76665064D01*
D12*
X118170000Y-103486000D02*
X118170000Y-104286000D01*
X120650000Y-103486000D02*
X123190000Y-103486000D01*
X125670000Y-103486000D02*
X125670000Y-104286000D01*
X120650000Y-104286000D02*
X123190000Y-104286000D01*
D11*
X86571000Y-73099000D02*
X88689000Y-73099000D01*
X88670000Y-74299000D02*
X90266000Y-74299000D01*
X88670000Y-74979000D02*
X90632000Y-74979000D01*
X88670000Y-75139000D02*
X90691000Y-75139000D01*
X84424000Y-75780000D02*
X86590000Y-75780000D01*
X88670000Y-74579000D02*
X90442000Y-74579000D01*
X88670000Y-75580000D02*
X90805000Y-75580000D01*
X88670000Y-74659000D02*
X90486000Y-74659000D01*
X85214000Y-74019000D02*
X86590000Y-74019000D01*
X84406000Y-75980000D02*
X90854000Y-75980000D01*
X84818000Y-74579000D02*
X86590000Y-74579000D01*
X84455000Y-75580000D02*
X86590000Y-75580000D01*
X88670000Y-75419000D02*
X90771000Y-75419000D01*
X86690000Y-73059000D02*
X88570000Y-73059000D01*
X85796000Y-73499000D02*
X89464000Y-73499000D01*
X88670000Y-74899000D02*
X90600000Y-74899000D01*
X88670000Y-73899000D02*
X89935000Y-73899000D01*
X88670000Y-74259000D02*
X90237000Y-74259000D01*
X84966000Y-74339000D02*
X86590000Y-74339000D01*
X85052000Y-74219000D02*
X86590000Y-74219000D01*
X84678000Y-74859000D02*
X86590000Y-74859000D01*
X85791000Y-79680241D02*
X85791000Y-79050241D01*
X85740000Y-73539000D02*
X89520000Y-73539000D01*
X88670000Y-74819000D02*
X90564000Y-74819000D01*
X84569000Y-75139000D02*
X86590000Y-75139000D01*
X84774000Y-74659000D02*
X86590000Y-74659000D01*
X88670000Y-74099000D02*
X90114000Y-74099000D01*
X84644000Y-74939000D02*
X86590000Y-74939000D01*
X84429000Y-75740000D02*
X86590000Y-75740000D01*
X88670000Y-75700000D02*
X90825000Y-75700000D01*
X88670000Y-74219000D02*
X90208000Y-74219000D01*
X85448000Y-73779000D02*
X89812000Y-73779000D01*
X84415000Y-75860000D02*
X86590000Y-75860000D01*
X84400000Y-76180000D02*
X90860000Y-76180000D01*
X84628000Y-74979000D02*
X86590000Y-74979000D01*
X88670000Y-75299000D02*
X90740000Y-75299000D01*
X86280000Y-73219000D02*
X88980000Y-73219000D01*
X88670000Y-75780000D02*
X90836000Y-75780000D01*
X85493000Y-73739000D02*
X89767000Y-73739000D01*
X88670000Y-75339000D02*
X90751000Y-75339000D01*
X85023000Y-74259000D02*
X86590000Y-74259000D01*
X84840000Y-74539000D02*
X86590000Y-74539000D01*
X85082000Y-74179000D02*
X86590000Y-74179000D01*
X88670000Y-75860000D02*
X90845000Y-75860000D01*
X88670000Y-74419000D02*
X90346000Y-74419000D01*
X88670000Y-75059000D02*
X90663000Y-75059000D01*
X84509000Y-75339000D02*
X86590000Y-75339000D01*
X84403000Y-76020000D02*
X90857000Y-76020000D01*
X85287000Y-73939000D02*
X86590000Y-73939000D01*
X85476000Y-79365241D02*
X86106000Y-79365241D01*
X84471000Y-75500000D02*
X86590000Y-75500000D01*
X88670000Y-74339000D02*
X90294000Y-74339000D01*
X84888000Y-74459000D02*
X86590000Y-74459000D01*
X84754000Y-74699000D02*
X86590000Y-74699000D01*
X85325000Y-73899000D02*
X86590000Y-73899000D01*
X86465000Y-73139000D02*
X88795000Y-73139000D01*
X88670000Y-74779000D02*
X90546000Y-74779000D01*
X88670000Y-74499000D02*
X90396000Y-74499000D01*
X84480000Y-75459000D02*
X86590000Y-75459000D01*
X84463000Y-75540000D02*
X86590000Y-75540000D01*
X87228000Y-72939000D02*
X88032000Y-72939000D01*
X86997000Y-72979000D02*
X88263000Y-72979000D01*
X84864000Y-74499000D02*
X86590000Y-74499000D01*
X84796000Y-74619000D02*
X86590000Y-74619000D01*
X88670000Y-75259000D02*
X90728000Y-75259000D01*
X86049000Y-73339000D02*
X89211000Y-73339000D01*
X84520000Y-75299000D02*
X86590000Y-75299000D01*
X85980000Y-73379000D02*
X89280000Y-73379000D01*
X84532000Y-75259000D02*
X86590000Y-75259000D01*
X86198000Y-73259000D02*
X89062000Y-73259000D01*
X85180000Y-74059000D02*
X86590000Y-74059000D01*
X84408000Y-75940000D02*
X86590000Y-75940000D01*
X84489000Y-75419000D02*
X86590000Y-75419000D01*
X84940000Y-74379000D02*
X86590000Y-74379000D01*
X88670000Y-74619000D02*
X90464000Y-74619000D01*
X88670000Y-73979000D02*
X90010000Y-73979000D01*
X88670000Y-75820000D02*
X90841000Y-75820000D01*
X88670000Y-75940000D02*
X90852000Y-75940000D01*
X88670000Y-75379000D02*
X90761000Y-75379000D01*
X84400000Y-76100000D02*
X90860000Y-76100000D01*
X88670000Y-74939000D02*
X90616000Y-74939000D01*
X88670000Y-75019000D02*
X90648000Y-75019000D01*
X84696000Y-74819000D02*
X86590000Y-74819000D01*
X86828000Y-73019000D02*
X88432000Y-73019000D01*
X88670000Y-74699000D02*
X90506000Y-74699000D01*
X84612000Y-75019000D02*
X86590000Y-75019000D01*
X88670000Y-75660000D02*
X90819000Y-75660000D01*
X85146000Y-74099000D02*
X86590000Y-74099000D01*
X86368000Y-73179000D02*
X88892000Y-73179000D01*
X88670000Y-74139000D02*
X90146000Y-74139000D01*
X84660000Y-74899000D02*
X86590000Y-74899000D01*
X85114000Y-74139000D02*
X86590000Y-74139000D01*
X84448000Y-75620000D02*
X86590000Y-75620000D01*
X84597000Y-75059000D02*
X86590000Y-75059000D01*
X85854000Y-73459000D02*
X89406000Y-73459000D01*
X84914000Y-74419000D02*
X86590000Y-74419000D01*
X85250000Y-73979000D02*
X86590000Y-73979000D01*
X84714000Y-74779000D02*
X86590000Y-74779000D01*
X84734000Y-74739000D02*
X86590000Y-74739000D01*
X88670000Y-74379000D02*
X90320000Y-74379000D01*
X88670000Y-75740000D02*
X90831000Y-75740000D01*
X85586000Y-73659000D02*
X89674000Y-73659000D01*
X88670000Y-74179000D02*
X90178000Y-74179000D01*
X88670000Y-74459000D02*
X90372000Y-74459000D01*
X86121000Y-73299000D02*
X89139000Y-73299000D01*
X88670000Y-75099000D02*
X90677000Y-75099000D01*
X88670000Y-75620000D02*
X90812000Y-75620000D01*
X85365000Y-73859000D02*
X89895000Y-73859000D01*
X84402000Y-76060000D02*
X90858000Y-76060000D01*
X88670000Y-75179000D02*
X90704000Y-75179000D01*
X84583000Y-75099000D02*
X86590000Y-75099000D01*
X84412000Y-75900000D02*
X86590000Y-75900000D01*
X84994000Y-74299000D02*
X86590000Y-74299000D01*
X84556000Y-75179000D02*
X86590000Y-75179000D01*
X85538000Y-73699000D02*
X89722000Y-73699000D01*
X88670000Y-74739000D02*
X90526000Y-74739000D01*
X88670000Y-74019000D02*
X90046000Y-74019000D01*
X88670000Y-75540000D02*
X90797000Y-75540000D01*
X84499000Y-75379000D02*
X86590000Y-75379000D01*
X88670000Y-74539000D02*
X90420000Y-74539000D01*
X84441000Y-75660000D02*
X86590000Y-75660000D01*
X84419000Y-75820000D02*
X86590000Y-75820000D01*
X84400000Y-76140000D02*
X90860000Y-76140000D01*
X85635000Y-73619000D02*
X89625000Y-73619000D01*
X84544000Y-75219000D02*
X86590000Y-75219000D01*
X88670000Y-73939000D02*
X89973000Y-73939000D01*
X88670000Y-75900000D02*
X90848000Y-75900000D01*
X85406000Y-73819000D02*
X89854000Y-73819000D01*
X85686000Y-73579000D02*
X89574000Y-73579000D01*
X85916000Y-73419000D02*
X89344000Y-73419000D01*
X88670000Y-74059000D02*
X90080000Y-74059000D01*
X88670000Y-75459000D02*
X90780000Y-75459000D01*
X88670000Y-75500000D02*
X90789000Y-75500000D01*
X84435000Y-75700000D02*
X86590000Y-75700000D01*
X88670000Y-74859000D02*
X90582000Y-74859000D01*
X88670000Y-75219000D02*
X90716000Y-75219000D01*
X90900000Y-76180000D02*
G75*
G03*
X90900000Y-76180000I-3270000J0D01*
G01*
X95676000Y-87825000D02*
X97872000Y-87825000D01*
X94989000Y-88305000D02*
X95734000Y-88305000D01*
X94360000Y-89265000D02*
X95734000Y-89265000D01*
X95455000Y-87945000D02*
X98093000Y-87945000D01*
X97814000Y-90146000D02*
X99354000Y-90146000D01*
X94306000Y-89425000D02*
X95734000Y-89425000D01*
X94574000Y-88825000D02*
X95734000Y-88825000D01*
X94201000Y-89986000D02*
X95734000Y-89986000D01*
X97814000Y-88385000D02*
X98638000Y-88385000D01*
X94910000Y-88385000D02*
X95734000Y-88385000D01*
X94195000Y-90106000D02*
X95734000Y-90106000D01*
X97814000Y-88185000D02*
X98427000Y-88185000D01*
X94599000Y-88785000D02*
X95734000Y-88785000D01*
X97814000Y-89986000D02*
X99347000Y-89986000D01*
X97814000Y-89225000D02*
X99172000Y-89225000D01*
X94392000Y-89185000D02*
X95734000Y-89185000D01*
X95391000Y-87985000D02*
X98157000Y-87985000D01*
X97814000Y-89626000D02*
X99294000Y-89626000D01*
X97814000Y-89425000D02*
X99242000Y-89425000D01*
X95121000Y-88185000D02*
X95734000Y-88185000D01*
X97814000Y-88625000D02*
X98839000Y-88625000D01*
X94464000Y-89025000D02*
X95734000Y-89025000D01*
X97814000Y-89145000D02*
X99139000Y-89145000D01*
X94205000Y-89946000D02*
X95734000Y-89946000D01*
X97814000Y-89706000D02*
X99310000Y-89706000D01*
X97814000Y-88545000D02*
X98778000Y-88545000D01*
X94231000Y-89746000D02*
X95734000Y-89746000D01*
X94254000Y-89626000D02*
X95734000Y-89626000D01*
X97814000Y-88305000D02*
X98559000Y-88305000D01*
X94376000Y-89225000D02*
X95734000Y-89225000D01*
X97814000Y-88745000D02*
X98923000Y-88745000D01*
X97814000Y-89826000D02*
X99330000Y-89826000D01*
X95763000Y-87785000D02*
X97785000Y-87785000D01*
X97814000Y-88465000D02*
X98711000Y-88465000D01*
X94213000Y-89866000D02*
X95734000Y-89866000D01*
X94209000Y-89906000D02*
X95734000Y-89906000D01*
X97814000Y-90066000D02*
X99352000Y-90066000D01*
X94263000Y-89586000D02*
X95734000Y-89586000D01*
X94273000Y-89546000D02*
X95734000Y-89546000D01*
X94294000Y-89465000D02*
X95734000Y-89465000D01*
X97814000Y-88425000D02*
X98675000Y-88425000D01*
X95859000Y-87745000D02*
X97689000Y-87745000D01*
X94739000Y-88585000D02*
X95734000Y-88585000D01*
X94332000Y-89345000D02*
X95734000Y-89345000D01*
X95169000Y-88145000D02*
X98379000Y-88145000D01*
X97814000Y-89065000D02*
X99103000Y-89065000D01*
X94506000Y-88945000D02*
X95734000Y-88945000D01*
X97814000Y-88505000D02*
X98745000Y-88505000D01*
X95596000Y-87865000D02*
X97952000Y-87865000D01*
X95049000Y-92740775D02*
X95549000Y-92740775D01*
X97814000Y-89506000D02*
X99265000Y-89506000D01*
X96097000Y-87665000D02*
X97451000Y-87665000D01*
X95220000Y-88105000D02*
X98328000Y-88105000D01*
X94625000Y-88745000D02*
X95734000Y-88745000D01*
X94652000Y-88705000D02*
X95734000Y-88705000D01*
X94409000Y-89145000D02*
X95734000Y-89145000D01*
X97814000Y-88985000D02*
X99064000Y-88985000D01*
X97814000Y-89666000D02*
X99302000Y-89666000D01*
X97814000Y-89185000D02*
X99156000Y-89185000D01*
X97814000Y-89345000D02*
X99216000Y-89345000D01*
X97814000Y-90186000D02*
X99354000Y-90186000D01*
X94484000Y-88985000D02*
X95734000Y-88985000D01*
X95523000Y-87905000D02*
X98025000Y-87905000D01*
X94426000Y-89105000D02*
X95734000Y-89105000D01*
X94527000Y-88905000D02*
X95734000Y-88905000D01*
X94196000Y-90066000D02*
X95734000Y-90066000D01*
X97814000Y-89866000D02*
X99335000Y-89866000D01*
X97814000Y-89305000D02*
X99202000Y-89305000D01*
X97814000Y-88785000D02*
X98949000Y-88785000D01*
X97814000Y-88345000D02*
X98600000Y-88345000D01*
X94218000Y-89826000D02*
X95734000Y-89826000D01*
X97814000Y-88905000D02*
X99021000Y-88905000D01*
X97814000Y-88705000D02*
X98896000Y-88705000D01*
X94948000Y-88345000D02*
X95734000Y-88345000D01*
X97814000Y-89546000D02*
X99275000Y-89546000D01*
X95031000Y-88265000D02*
X95734000Y-88265000D01*
X94198000Y-90026000D02*
X95734000Y-90026000D01*
X94319000Y-89385000D02*
X95734000Y-89385000D01*
X97814000Y-88825000D02*
X98974000Y-88825000D01*
X97814000Y-89465000D02*
X99254000Y-89465000D01*
X94224000Y-89786000D02*
X95734000Y-89786000D01*
X94445000Y-89065000D02*
X95734000Y-89065000D01*
X97814000Y-88585000D02*
X98809000Y-88585000D01*
X94194000Y-90146000D02*
X95734000Y-90146000D01*
X97814000Y-89385000D02*
X99229000Y-89385000D01*
X96256000Y-87625000D02*
X97292000Y-87625000D01*
X94550000Y-88865000D02*
X95734000Y-88865000D01*
X94194000Y-90186000D02*
X95734000Y-90186000D01*
X97814000Y-89786000D02*
X99324000Y-89786000D01*
X94873000Y-88425000D02*
X95734000Y-88425000D01*
X95331000Y-88025000D02*
X98217000Y-88025000D01*
X97814000Y-89586000D02*
X99285000Y-89586000D01*
X95969000Y-87705000D02*
X97579000Y-87705000D01*
X97814000Y-89946000D02*
X99343000Y-89946000D01*
X97814000Y-89746000D02*
X99317000Y-89746000D01*
X94238000Y-89706000D02*
X95734000Y-89706000D01*
X97814000Y-89105000D02*
X99122000Y-89105000D01*
X96490000Y-87585000D02*
X97058000Y-87585000D01*
X94770000Y-88545000D02*
X95734000Y-88545000D01*
X94346000Y-89305000D02*
X95734000Y-89305000D01*
X97814000Y-88265000D02*
X98517000Y-88265000D01*
X97814000Y-89906000D02*
X99339000Y-89906000D01*
X94246000Y-89666000D02*
X95734000Y-89666000D01*
X97814000Y-88665000D02*
X98869000Y-88665000D01*
X97814000Y-89025000D02*
X99084000Y-89025000D01*
X97814000Y-88225000D02*
X98473000Y-88225000D01*
X95299000Y-92990775D02*
X95299000Y-92490775D01*
X97814000Y-90026000D02*
X99350000Y-90026000D01*
X94803000Y-88505000D02*
X95734000Y-88505000D01*
X95075000Y-88225000D02*
X95734000Y-88225000D01*
X94679000Y-88665000D02*
X95734000Y-88665000D01*
X97814000Y-88945000D02*
X99042000Y-88945000D01*
X97814000Y-89265000D02*
X99188000Y-89265000D01*
X97814000Y-90106000D02*
X99353000Y-90106000D01*
X94709000Y-88625000D02*
X95734000Y-88625000D01*
X94283000Y-89506000D02*
X95734000Y-89506000D01*
X95274000Y-88065000D02*
X98274000Y-88065000D01*
X97814000Y-88865000D02*
X98998000Y-88865000D01*
X94837000Y-88465000D02*
X95734000Y-88465000D01*
X99394000Y-90186000D02*
G75*
G03*
X99394000Y-90186000I-2620000J0D01*
G01*
X120670000Y-78756000D02*
X124570000Y-78756000D01*
X120670000Y-78756000D02*
X120670000Y-80756000D01*
X120670000Y-80756000D02*
X124570000Y-80756000D01*
X118391000Y-82814936D02*
X118391000Y-83269064D01*
X119861000Y-82814936D02*
X119861000Y-83269064D01*
D12*
X95358000Y-63246000D02*
X95358000Y-60706000D01*
X95358000Y-58226000D02*
X96158000Y-58226000D01*
X96158000Y-63246000D02*
X96158000Y-60706000D01*
X95358000Y-65726000D02*
X96158000Y-65726000D01*
D11*
X122263248Y-91546000D02*
X123685752Y-91546000D01*
X122263248Y-93366000D02*
X123685752Y-93366000D01*
X114062000Y-96866000D02*
X116062000Y-96866000D01*
X116062000Y-96866000D02*
X116062000Y-92966000D01*
X114062000Y-96866000D02*
X114062000Y-92966000D01*
X120115000Y-91683064D02*
X120115000Y-91228936D01*
X118645000Y-91683064D02*
X118645000Y-91228936D01*
X132315000Y-98044000D02*
G75*
G03*
X132315000Y-98044000I-1251000J0D01*
G01*
X122385064Y-81307000D02*
X121930936Y-81307000D01*
X122385064Y-82777000D02*
X121930936Y-82777000D01*
X109939064Y-88927000D02*
X109484936Y-88927000D01*
X109939064Y-90397000D02*
X109484936Y-90397000D01*
X90968000Y-97799863D02*
X90968000Y-98449863D01*
X90968000Y-97799863D02*
X90968000Y-97149863D01*
X87848000Y-97799863D02*
X87848000Y-97149863D01*
X87848000Y-97799863D02*
X87848000Y-99474863D01*
X114062000Y-87538000D02*
X114062000Y-91438000D01*
X116062000Y-87538000D02*
X114062000Y-87538000D01*
X116062000Y-87538000D02*
X116062000Y-91438000D01*
D12*
X109582000Y-63246000D02*
X109582000Y-60706000D01*
X109582000Y-65726000D02*
X110382000Y-65726000D01*
X109582000Y-58226000D02*
X110382000Y-58226000D01*
X110382000Y-63246000D02*
X110382000Y-60706000D01*
X95358000Y-114868000D02*
X96158000Y-114868000D01*
X95358000Y-119888000D02*
X95358000Y-117348000D01*
X96158000Y-119888000D02*
X96158000Y-117348000D01*
X95358000Y-122368000D02*
X96158000Y-122368000D01*
D11*
X89812000Y-106100621D02*
X85448000Y-106100621D01*
X86590000Y-104219621D02*
X84441000Y-104219621D01*
X86590000Y-104580621D02*
X84520000Y-104580621D01*
X86590000Y-104179621D02*
X84435000Y-104179621D01*
X86590000Y-105100621D02*
X84714000Y-105100621D01*
X88795000Y-106740621D02*
X86465000Y-106740621D01*
X86590000Y-104420621D02*
X84480000Y-104420621D01*
X90831000Y-104139621D02*
X88670000Y-104139621D01*
X86590000Y-104379621D02*
X84471000Y-104379621D01*
X90464000Y-105260621D02*
X88670000Y-105260621D01*
X86590000Y-105140621D02*
X84734000Y-105140621D01*
X90506000Y-105180621D02*
X88670000Y-105180621D01*
X86590000Y-105740621D02*
X85114000Y-105740621D01*
X90858000Y-103819621D02*
X84402000Y-103819621D01*
X90860000Y-103699621D02*
X84400000Y-103699621D01*
X89767000Y-106140621D02*
X85493000Y-106140621D01*
X86590000Y-104660621D02*
X84544000Y-104660621D01*
X89406000Y-106420621D02*
X85854000Y-106420621D01*
X89973000Y-105940621D02*
X88670000Y-105940621D01*
X89854000Y-106060621D02*
X85406000Y-106060621D01*
X90797000Y-104339621D02*
X88670000Y-104339621D01*
X90266000Y-105580621D02*
X88670000Y-105580621D01*
X86590000Y-104019621D02*
X84415000Y-104019621D01*
X89280000Y-106500621D02*
X85980000Y-106500621D01*
X86590000Y-105420621D02*
X84888000Y-105420621D01*
X88689000Y-106780621D02*
X86571000Y-106780621D01*
X90294000Y-105540621D02*
X88670000Y-105540621D01*
X90178000Y-105700621D02*
X88670000Y-105700621D01*
X89139000Y-106580621D02*
X86121000Y-106580621D01*
X86590000Y-104339621D02*
X84463000Y-104339621D01*
X86590000Y-105780621D02*
X85146000Y-105780621D01*
X90836000Y-104099621D02*
X88670000Y-104099621D01*
X90600000Y-104980621D02*
X88670000Y-104980621D01*
X90146000Y-105740621D02*
X88670000Y-105740621D01*
X89464000Y-106380621D02*
X85796000Y-106380621D01*
X88263000Y-106900621D02*
X86997000Y-106900621D01*
X88032000Y-106940621D02*
X87228000Y-106940621D01*
X90860000Y-103779621D02*
X84400000Y-103779621D01*
X89062000Y-106620621D02*
X86198000Y-106620621D01*
X90841000Y-104059621D02*
X88670000Y-104059621D01*
X89784000Y-100514380D02*
X89154000Y-100514380D01*
X90780000Y-104420621D02*
X88670000Y-104420621D01*
X89211000Y-106540621D02*
X86049000Y-106540621D01*
X90819000Y-104219621D02*
X88670000Y-104219621D01*
X90114000Y-105780621D02*
X88670000Y-105780621D01*
X90080000Y-105820621D02*
X88670000Y-105820621D01*
X86590000Y-105380621D02*
X84864000Y-105380621D01*
X90740000Y-104580621D02*
X88670000Y-104580621D01*
X89344000Y-106460621D02*
X85916000Y-106460621D01*
X86590000Y-105820621D02*
X85180000Y-105820621D01*
X88570000Y-106820621D02*
X86690000Y-106820621D01*
X86590000Y-105460621D02*
X84914000Y-105460621D01*
X86590000Y-104780621D02*
X84583000Y-104780621D01*
X89625000Y-106260621D02*
X85635000Y-106260621D01*
X90546000Y-105100621D02*
X88670000Y-105100621D01*
X86590000Y-105940621D02*
X85287000Y-105940621D01*
X90372000Y-105420621D02*
X88670000Y-105420621D01*
X89469000Y-100199380D02*
X89469000Y-100829380D01*
X86590000Y-105220621D02*
X84774000Y-105220621D01*
X90857000Y-103859621D02*
X84403000Y-103859621D01*
X90616000Y-104940621D02*
X88670000Y-104940621D01*
X90208000Y-105660621D02*
X88670000Y-105660621D01*
X89722000Y-106180621D02*
X85538000Y-106180621D01*
X90789000Y-104379621D02*
X88670000Y-104379621D01*
X90648000Y-104860621D02*
X88670000Y-104860621D01*
X86590000Y-105660621D02*
X85052000Y-105660621D01*
X90852000Y-103939621D02*
X88670000Y-103939621D01*
X90704000Y-104700621D02*
X88670000Y-104700621D01*
X86590000Y-104820621D02*
X84597000Y-104820621D01*
X90564000Y-105060621D02*
X88670000Y-105060621D01*
X90845000Y-104019621D02*
X88670000Y-104019621D01*
X90677000Y-104780621D02*
X88670000Y-104780621D01*
X90442000Y-105300621D02*
X88670000Y-105300621D01*
X90771000Y-104460621D02*
X88670000Y-104460621D01*
X90805000Y-104299621D02*
X88670000Y-104299621D01*
X90526000Y-105140621D02*
X88670000Y-105140621D01*
X89935000Y-105980621D02*
X88670000Y-105980621D01*
X89574000Y-106300621D02*
X85686000Y-106300621D01*
X90691000Y-104740621D02*
X88670000Y-104740621D01*
X89895000Y-106020621D02*
X85365000Y-106020621D01*
X86590000Y-104740621D02*
X84569000Y-104740621D01*
X86590000Y-104059621D02*
X84419000Y-104059621D01*
X90751000Y-104540621D02*
X88670000Y-104540621D01*
X86590000Y-104460621D02*
X84489000Y-104460621D01*
X86590000Y-104540621D02*
X84509000Y-104540621D01*
X90854000Y-103899621D02*
X84406000Y-103899621D01*
X90046000Y-105860621D02*
X88670000Y-105860621D01*
X88892000Y-106700621D02*
X86368000Y-106700621D01*
X89520000Y-106340621D02*
X85740000Y-106340621D01*
X88980000Y-106660621D02*
X86280000Y-106660621D01*
X86590000Y-105860621D02*
X85214000Y-105860621D01*
X90848000Y-103979621D02*
X88670000Y-103979621D01*
X86590000Y-105300621D02*
X84818000Y-105300621D01*
X86590000Y-104860621D02*
X84612000Y-104860621D01*
X86590000Y-105180621D02*
X84754000Y-105180621D01*
X90812000Y-104259621D02*
X88670000Y-104259621D01*
X86590000Y-104900621D02*
X84628000Y-104900621D01*
X86590000Y-105260621D02*
X84796000Y-105260621D01*
X86590000Y-104620621D02*
X84532000Y-104620621D01*
X86590000Y-104299621D02*
X84455000Y-104299621D01*
X90716000Y-104660621D02*
X88670000Y-104660621D01*
X90860000Y-103739621D02*
X84400000Y-103739621D01*
X86590000Y-103939621D02*
X84408000Y-103939621D01*
X90761000Y-104500621D02*
X88670000Y-104500621D01*
X86590000Y-105700621D02*
X85082000Y-105700621D01*
X89674000Y-106220621D02*
X85586000Y-106220621D01*
X86590000Y-105340621D02*
X84840000Y-105340621D01*
X88432000Y-106860621D02*
X86828000Y-106860621D01*
X86590000Y-104139621D02*
X84429000Y-104139621D01*
X86590000Y-104980621D02*
X84660000Y-104980621D01*
X86590000Y-104099621D02*
X84424000Y-104099621D01*
X86590000Y-105020621D02*
X84678000Y-105020621D01*
X86590000Y-103979621D02*
X84412000Y-103979621D01*
X86590000Y-105620621D02*
X85023000Y-105620621D01*
X86590000Y-105900621D02*
X85250000Y-105900621D01*
X90486000Y-105220621D02*
X88670000Y-105220621D01*
X90632000Y-104900621D02*
X88670000Y-104900621D01*
X90237000Y-105620621D02*
X88670000Y-105620621D01*
X90825000Y-104179621D02*
X88670000Y-104179621D01*
X86590000Y-105540621D02*
X84966000Y-105540621D01*
X86590000Y-104700621D02*
X84556000Y-104700621D01*
X90010000Y-105900621D02*
X88670000Y-105900621D01*
X86590000Y-105500621D02*
X84940000Y-105500621D01*
X90728000Y-104620621D02*
X88670000Y-104620621D01*
X86590000Y-105580621D02*
X84994000Y-105580621D01*
X86590000Y-104940621D02*
X84644000Y-104940621D01*
X86590000Y-105060621D02*
X84696000Y-105060621D01*
X90420000Y-105340621D02*
X88670000Y-105340621D01*
X86590000Y-104500621D02*
X84499000Y-104500621D01*
X90396000Y-105380621D02*
X88670000Y-105380621D01*
X90320000Y-105500621D02*
X88670000Y-105500621D01*
X90346000Y-105460621D02*
X88670000Y-105460621D01*
X86590000Y-104259621D02*
X84448000Y-104259621D01*
X90663000Y-104820621D02*
X88670000Y-104820621D01*
X90582000Y-105020621D02*
X88670000Y-105020621D01*
X86590000Y-105980621D02*
X85325000Y-105980621D01*
X90900000Y-103699621D02*
G75*
G03*
X90900000Y-103699621I-3270000J0D01*
G01*
X109649500Y-90830000D02*
X108999500Y-90830000D01*
X109649500Y-93950000D02*
X111324500Y-93950000D01*
X109649500Y-93950000D02*
X108999500Y-93950000D01*
X109649500Y-90830000D02*
X110299500Y-90830000D01*
D13*
X115648000Y-66676000D02*
X115648000Y-82676000D01*
X93648000Y-82676000D02*
X93648000Y-66676000D01*
X93648000Y-66676000D02*
X115648000Y-66676000D01*
X115648000Y-82676000D02*
X93648000Y-82676000D01*
D11*
X105452936Y-92429000D02*
X105907064Y-92429000D01*
X105452936Y-90959000D02*
X105907064Y-90959000D01*
X105222000Y-96646000D02*
X105222000Y-93346000D01*
X105222000Y-96646000D02*
X99822000Y-96646000D01*
X105222000Y-93346000D02*
X99822000Y-93346000D01*
X92937000Y-103605064D02*
X92937000Y-103150936D01*
X91467000Y-103605064D02*
X91467000Y-103150936D01*
X92937000Y-80475064D02*
X92937000Y-80020936D01*
X91467000Y-80475064D02*
X91467000Y-80020936D01*
X94358000Y-83694000D02*
X99758000Y-83694000D01*
X94358000Y-86994000D02*
X99758000Y-86994000D01*
X94358000Y-83694000D02*
X94358000Y-86994000D01*
X84104000Y-81709500D02*
X84104000Y-82359500D01*
X87224000Y-81709500D02*
X87224000Y-80034500D01*
X84104000Y-81709500D02*
X84104000Y-81059500D01*
X87224000Y-81709500D02*
X87224000Y-82359500D01*
X84415000Y-110444001D02*
X86590000Y-110444001D01*
X85250000Y-108563001D02*
X86590000Y-108563001D01*
X84509000Y-109923001D02*
X86590000Y-109923001D01*
X84612000Y-109603001D02*
X86590000Y-109603001D01*
X84940000Y-108963001D02*
X86590000Y-108963001D01*
X84644000Y-109523001D02*
X86590000Y-109523001D01*
X84966000Y-108923001D02*
X86590000Y-108923001D01*
X85476000Y-113949242D02*
X86106000Y-113949242D01*
X84544000Y-109803001D02*
X86590000Y-109803001D01*
X84441000Y-110244001D02*
X86590000Y-110244001D01*
X88670000Y-108563001D02*
X90010000Y-108563001D01*
X88670000Y-109123001D02*
X90420000Y-109123001D01*
X88670000Y-108643001D02*
X90080000Y-108643001D01*
X85448000Y-108363001D02*
X89812000Y-108363001D01*
X88670000Y-109963001D02*
X90761000Y-109963001D01*
X85214000Y-108603001D02*
X86590000Y-108603001D01*
X86198000Y-107843001D02*
X89062000Y-107843001D01*
X84400000Y-110764001D02*
X90860000Y-110764001D01*
X85325000Y-108483001D02*
X86590000Y-108483001D01*
X85980000Y-107963001D02*
X89280000Y-107963001D01*
X88670000Y-108803001D02*
X90208000Y-108803001D01*
X86571000Y-107683001D02*
X88689000Y-107683001D01*
X84714000Y-109363001D02*
X86590000Y-109363001D01*
X88670000Y-109763001D02*
X90704000Y-109763001D01*
X85114000Y-108723001D02*
X86590000Y-108723001D01*
X85916000Y-108003001D02*
X89344000Y-108003001D01*
X88670000Y-109363001D02*
X90546000Y-109363001D01*
X88670000Y-109203001D02*
X90464000Y-109203001D01*
X86828000Y-107603001D02*
X88432000Y-107603001D01*
X84408000Y-110524001D02*
X86590000Y-110524001D01*
X84429000Y-110324001D02*
X86590000Y-110324001D01*
X86368000Y-107763001D02*
X88892000Y-107763001D01*
X88670000Y-109803001D02*
X90716000Y-109803001D01*
X84888000Y-109043001D02*
X86590000Y-109043001D01*
X88670000Y-109523001D02*
X90616000Y-109523001D01*
X88670000Y-108763001D02*
X90178000Y-108763001D01*
X88670000Y-109403001D02*
X90564000Y-109403001D01*
X88670000Y-110484001D02*
X90848000Y-110484001D01*
X88670000Y-108523001D02*
X89973000Y-108523001D01*
X85287000Y-108523001D02*
X86590000Y-108523001D01*
X85854000Y-108043001D02*
X89406000Y-108043001D01*
X85052000Y-108803001D02*
X86590000Y-108803001D01*
X88670000Y-110003001D02*
X90771000Y-110003001D01*
X84403000Y-110604001D02*
X90857000Y-110604001D01*
X88670000Y-109683001D02*
X90677000Y-109683001D01*
X84597000Y-109643001D02*
X86590000Y-109643001D01*
X84463000Y-110124001D02*
X86590000Y-110124001D01*
X84471000Y-110084001D02*
X86590000Y-110084001D01*
X84412000Y-110484001D02*
X86590000Y-110484001D01*
X84400000Y-110724001D02*
X90860000Y-110724001D01*
X88670000Y-109883001D02*
X90740000Y-109883001D01*
X88670000Y-108483001D02*
X89935000Y-108483001D01*
X88670000Y-110364001D02*
X90836000Y-110364001D01*
X88670000Y-110043001D02*
X90780000Y-110043001D01*
X88670000Y-109003001D02*
X90346000Y-109003001D01*
X88670000Y-109643001D02*
X90663000Y-109643001D01*
X88670000Y-110124001D02*
X90797000Y-110124001D01*
X88670000Y-109923001D02*
X90751000Y-109923001D01*
X85023000Y-108843001D02*
X86590000Y-108843001D01*
X85146000Y-108683001D02*
X86590000Y-108683001D01*
X88670000Y-110444001D02*
X90845000Y-110444001D01*
X84678000Y-109443001D02*
X86590000Y-109443001D01*
X85082000Y-108763001D02*
X86590000Y-108763001D01*
X85740000Y-108123001D02*
X89520000Y-108123001D01*
X88670000Y-109283001D02*
X90506000Y-109283001D01*
X88670000Y-110204001D02*
X90812000Y-110204001D01*
X84660000Y-109483001D02*
X86590000Y-109483001D01*
X84569000Y-109723001D02*
X86590000Y-109723001D01*
X85365000Y-108443001D02*
X89895000Y-108443001D01*
X88670000Y-109603001D02*
X90648000Y-109603001D01*
X84424000Y-110364001D02*
X86590000Y-110364001D01*
X84499000Y-109963001D02*
X86590000Y-109963001D01*
X86121000Y-107883001D02*
X89139000Y-107883001D01*
X84818000Y-109163001D02*
X86590000Y-109163001D01*
X84583000Y-109683001D02*
X86590000Y-109683001D01*
X84696000Y-109403001D02*
X86590000Y-109403001D01*
X84520000Y-109883001D02*
X86590000Y-109883001D01*
X85635000Y-108203001D02*
X89625000Y-108203001D01*
X84734000Y-109323001D02*
X86590000Y-109323001D01*
X84480000Y-110043001D02*
X86590000Y-110043001D01*
X88670000Y-110084001D02*
X90789000Y-110084001D01*
X88670000Y-108923001D02*
X90294000Y-108923001D01*
X88670000Y-108843001D02*
X90237000Y-108843001D01*
X88670000Y-108963001D02*
X90320000Y-108963001D01*
X88670000Y-108883001D02*
X90266000Y-108883001D01*
X86690000Y-107643001D02*
X88570000Y-107643001D01*
X84840000Y-109123001D02*
X86590000Y-109123001D01*
X88670000Y-109323001D02*
X90526000Y-109323001D01*
X85791000Y-114264242D02*
X85791000Y-113634242D01*
X88670000Y-110244001D02*
X90819000Y-110244001D01*
X85586000Y-108243001D02*
X89674000Y-108243001D01*
X88670000Y-109043001D02*
X90372000Y-109043001D01*
X84402000Y-110644001D02*
X90858000Y-110644001D01*
X85686000Y-108163001D02*
X89574000Y-108163001D01*
X84556000Y-109763001D02*
X86590000Y-109763001D01*
X88670000Y-109563001D02*
X90632000Y-109563001D01*
X84448000Y-110204001D02*
X86590000Y-110204001D01*
X86997000Y-107563001D02*
X88263000Y-107563001D01*
X88670000Y-108683001D02*
X90114000Y-108683001D01*
X88670000Y-109483001D02*
X90600000Y-109483001D01*
X86280000Y-107803001D02*
X88980000Y-107803001D01*
X84628000Y-109563001D02*
X86590000Y-109563001D01*
X84455000Y-110164001D02*
X86590000Y-110164001D01*
X85796000Y-108083001D02*
X89464000Y-108083001D01*
X86465000Y-107723001D02*
X88795000Y-107723001D01*
X84754000Y-109283001D02*
X86590000Y-109283001D01*
X84796000Y-109203001D02*
X86590000Y-109203001D01*
X84406000Y-110564001D02*
X90854000Y-110564001D01*
X85406000Y-108403001D02*
X89854000Y-108403001D01*
X84489000Y-110003001D02*
X86590000Y-110003001D01*
X88670000Y-110284001D02*
X90825000Y-110284001D01*
X85493000Y-108323001D02*
X89767000Y-108323001D01*
X85538000Y-108283001D02*
X89722000Y-108283001D01*
X88670000Y-109843001D02*
X90728000Y-109843001D01*
X88670000Y-110164001D02*
X90805000Y-110164001D01*
X88670000Y-110404001D02*
X90841000Y-110404001D01*
X84864000Y-109083001D02*
X86590000Y-109083001D01*
X88670000Y-109243001D02*
X90486000Y-109243001D01*
X84435000Y-110284001D02*
X86590000Y-110284001D01*
X88670000Y-108603001D02*
X90046000Y-108603001D01*
X88670000Y-109723001D02*
X90691000Y-109723001D01*
X86049000Y-107923001D02*
X89211000Y-107923001D01*
X85180000Y-108643001D02*
X86590000Y-108643001D01*
X84994000Y-108883001D02*
X86590000Y-108883001D01*
X88670000Y-109163001D02*
X90442000Y-109163001D01*
X88670000Y-108723001D02*
X90146000Y-108723001D01*
X88670000Y-109083001D02*
X90396000Y-109083001D01*
X88670000Y-110324001D02*
X90831000Y-110324001D01*
X88670000Y-110524001D02*
X90852000Y-110524001D01*
X87228000Y-107523001D02*
X88032000Y-107523001D01*
X84532000Y-109843001D02*
X86590000Y-109843001D01*
X84400000Y-110684001D02*
X90860000Y-110684001D01*
X84419000Y-110404001D02*
X86590000Y-110404001D01*
X84914000Y-109003001D02*
X86590000Y-109003001D01*
X84774000Y-109243001D02*
X86590000Y-109243001D01*
X88670000Y-109443001D02*
X90582000Y-109443001D01*
X90900000Y-110764001D02*
G75*
G03*
X90900000Y-110764001I-3270000J0D01*
G01*
X127481064Y-79021000D02*
X127026936Y-79021000D01*
X127481064Y-80491000D02*
X127026936Y-80491000D01*
X89378000Y-93726000D02*
X89378000Y-94376000D01*
X86258000Y-93726000D02*
X86258000Y-95401000D01*
X89378000Y-93726000D02*
X89378000Y-93076000D01*
X86258000Y-93726000D02*
X86258000Y-93076000D01*
X106008000Y-86344000D02*
X102108000Y-86344000D01*
X106008000Y-86344000D02*
X106008000Y-84344000D01*
X106008000Y-84344000D02*
X102108000Y-84344000D01*
D13*
X115648000Y-97664000D02*
X115648000Y-113664000D01*
X93648000Y-97664000D02*
X115648000Y-97664000D01*
X115648000Y-113664000D02*
X93648000Y-113664000D01*
X93648000Y-113664000D02*
X93648000Y-97664000D01*
D11*
X120542000Y-83328000D02*
X124442000Y-83328000D01*
X120542000Y-85328000D02*
X124442000Y-85328000D01*
X120542000Y-83328000D02*
X120542000Y-85328000D01*
M02*
