G04 #@! TF.GenerationSoftware,KiCad,Pcbnew,(5.1.7-0-10_14)*
G04 #@! TF.CreationDate,2020-11-05T19:56:57+01:00*
G04 #@! TF.ProjectId,lv-lownoise-psu,6c762d6c-6f77-46e6-9f69-73652d707375,rev?*
G04 #@! TF.SameCoordinates,Original*
G04 #@! TF.FileFunction,Copper,L2,Bot*
G04 #@! TF.FilePolarity,Positive*
%FSLAX46Y46*%
G04 Gerber Fmt 4.6, Leading zero omitted, Abs format (unit mm)*
G04 Created by KiCad (PCBNEW (5.1.7-0-10_14)) date 2020-11-05 19:56:57*
%MOMM*%
%LPD*%
G01*
G04 APERTURE LIST*
G04 #@! TA.AperFunction,ComponentPad*
%ADD10C,1.440000*%
G04 #@! TD*
G04 #@! TA.AperFunction,ComponentPad*
%ADD11O,1.800000X1.800000*%
G04 #@! TD*
G04 #@! TA.AperFunction,ComponentPad*
%ADD12R,1.800000X1.800000*%
G04 #@! TD*
G04 #@! TA.AperFunction,ComponentPad*
%ADD13C,2.600000*%
G04 #@! TD*
G04 #@! TA.AperFunction,ViaPad*
%ADD14C,0.800000*%
G04 #@! TD*
G04 #@! TA.AperFunction,ViaPad*
%ADD15C,0.600000*%
G04 #@! TD*
G04 #@! TA.AperFunction,Conductor*
%ADD16C,0.500000*%
G04 #@! TD*
G04 #@! TA.AperFunction,Conductor*
%ADD17C,0.250000*%
G04 #@! TD*
G04 APERTURE END LIST*
D10*
X116484400Y-82600800D03*
X116484400Y-80060800D03*
X116484400Y-77520800D03*
D11*
X100190300Y-75501500D03*
X100190300Y-72961500D03*
D12*
X100190300Y-70421500D03*
D11*
X100355400Y-58064400D03*
X100355400Y-55524400D03*
D12*
X100355400Y-52984400D03*
D10*
X116789200Y-64363600D03*
X116789200Y-61823600D03*
X116789200Y-59283600D03*
D13*
X122783600Y-71120000D03*
X122732800Y-61874400D03*
X122732800Y-53594000D03*
X86868000Y-55880000D03*
X86868000Y-64135000D03*
X86868000Y-72390000D03*
D14*
X112166400Y-72440800D03*
X106121200Y-74879200D03*
X94132400Y-56337200D03*
X95631000Y-63055500D03*
X94030800Y-72390000D03*
X94030800Y-66598800D03*
D15*
X115874800Y-55626000D03*
X115620800Y-73863200D03*
D14*
X89281000Y-65659000D03*
X89281000Y-63119000D03*
D15*
X110617000Y-56832500D03*
X105156000Y-54927500D03*
D14*
X115722400Y-53594000D03*
X115519200Y-71120000D03*
D16*
X94945200Y-55524400D02*
X100355400Y-55524400D01*
X94132400Y-56337200D02*
X94945200Y-55524400D01*
X94602300Y-72961500D02*
X94030800Y-72390000D01*
X100190300Y-72961500D02*
X94602300Y-72961500D01*
X95631000Y-63055500D02*
X94030800Y-64655700D01*
X94030800Y-64655700D02*
X94030800Y-66598800D01*
D17*
X115976400Y-58470800D02*
X116789200Y-59283600D01*
X115976400Y-55626000D02*
X115976400Y-58470800D01*
X116484400Y-74726800D02*
X116484400Y-77520800D01*
X115620800Y-73863200D02*
X116484400Y-74726800D01*
D16*
X89281000Y-69977000D02*
X86868000Y-72390000D01*
X89281000Y-65659000D02*
X89281000Y-69977000D01*
X89281000Y-58293000D02*
X86868000Y-55880000D01*
X89281000Y-63119000D02*
X89281000Y-58293000D01*
D17*
X107061000Y-56832500D02*
X105156000Y-54927500D01*
X110617000Y-56832500D02*
X107061000Y-56832500D01*
D16*
X115722400Y-53594000D02*
X122732800Y-53594000D01*
X115519200Y-71120000D02*
X122783600Y-71120000D01*
M02*
