G04 #@! TF.GenerationSoftware,KiCad,Pcbnew,(5.1.10-0-10_14)*
G04 #@! TF.CreationDate,2021-07-29T19:40:43+02:00*
G04 #@! TF.ProjectId,hv-power-supply-v1,68762d70-6f77-4657-922d-737570706c79,rev?*
G04 #@! TF.SameCoordinates,Original*
G04 #@! TF.FileFunction,Copper,L2,Bot*
G04 #@! TF.FilePolarity,Positive*
%FSLAX46Y46*%
G04 Gerber Fmt 4.6, Leading zero omitted, Abs format (unit mm)*
G04 Created by KiCad (PCBNEW (5.1.10-0-10_14)) date 2021-07-29 19:40:43*
%MOMM*%
%LPD*%
G01*
G04 APERTURE LIST*
G04 #@! TA.AperFunction,ComponentPad*
%ADD10O,1.600000X1.600000*%
G04 #@! TD*
G04 #@! TA.AperFunction,ComponentPad*
%ADD11C,1.600000*%
G04 #@! TD*
G04 #@! TA.AperFunction,ComponentPad*
%ADD12C,2.400000*%
G04 #@! TD*
G04 #@! TA.AperFunction,ComponentPad*
%ADD13C,2.000000*%
G04 #@! TD*
G04 #@! TA.AperFunction,ComponentPad*
%ADD14C,6.000000*%
G04 #@! TD*
G04 #@! TA.AperFunction,ComponentPad*
%ADD15C,4.000000*%
G04 #@! TD*
G04 #@! TA.AperFunction,ComponentPad*
%ADD16R,4.000000X4.000000*%
G04 #@! TD*
G04 #@! TA.AperFunction,ComponentPad*
%ADD17R,2.000000X1.905000*%
G04 #@! TD*
G04 #@! TA.AperFunction,ComponentPad*
%ADD18O,2.000000X1.905000*%
G04 #@! TD*
G04 #@! TA.AperFunction,ComponentPad*
%ADD19O,2.400000X2.400000*%
G04 #@! TD*
G04 #@! TA.AperFunction,ComponentPad*
%ADD20O,4.800600X2.400300*%
G04 #@! TD*
G04 #@! TA.AperFunction,ComponentPad*
%ADD21R,1.600000X1.600000*%
G04 #@! TD*
G04 #@! TA.AperFunction,ComponentPad*
%ADD22O,1.905000X2.000000*%
G04 #@! TD*
G04 #@! TA.AperFunction,ComponentPad*
%ADD23R,1.905000X2.000000*%
G04 #@! TD*
G04 #@! TA.AperFunction,ComponentPad*
%ADD24C,2.600000*%
G04 #@! TD*
G04 #@! TA.AperFunction,ComponentPad*
%ADD25C,1.440000*%
G04 #@! TD*
G04 #@! TA.AperFunction,ComponentPad*
%ADD26O,2.500000X2.500000*%
G04 #@! TD*
G04 #@! TA.AperFunction,ComponentPad*
%ADD27R,2.500000X2.500000*%
G04 #@! TD*
G04 #@! TA.AperFunction,ComponentPad*
%ADD28R,1.800000X1.800000*%
G04 #@! TD*
G04 #@! TA.AperFunction,ComponentPad*
%ADD29O,1.800000X1.800000*%
G04 #@! TD*
G04 #@! TA.AperFunction,ViaPad*
%ADD30C,0.800000*%
G04 #@! TD*
G04 #@! TA.AperFunction,ViaPad*
%ADD31C,0.600000*%
G04 #@! TD*
G04 #@! TA.AperFunction,Conductor*
%ADD32C,1.000000*%
G04 #@! TD*
G04 #@! TA.AperFunction,Conductor*
%ADD33C,0.500000*%
G04 #@! TD*
G04 #@! TA.AperFunction,Conductor*
%ADD34C,0.250000*%
G04 #@! TD*
G04 APERTURE END LIST*
D10*
X90805000Y-85788500D03*
D11*
X90805000Y-75628500D03*
D12*
X90805000Y-57594500D03*
X90805000Y-72594500D03*
D13*
X85217000Y-61628000D03*
X85217000Y-71628000D03*
D14*
X124206000Y-135890000D03*
X124206000Y-110490000D03*
D15*
X96990000Y-115753000D03*
D16*
X96990000Y-125753000D03*
D17*
X128613000Y-125753000D03*
D18*
X128613000Y-123213000D03*
X128613000Y-120673000D03*
D15*
X155410000Y-60475000D03*
X180810000Y-60475000D03*
X149060000Y-129563000D03*
X174460000Y-129563000D03*
D19*
X185991500Y-82550000D03*
D12*
X201231500Y-82550000D03*
D20*
X64224000Y-110640000D03*
X74384000Y-110640000D03*
X74384000Y-131087000D03*
X64224000Y-131087000D03*
X74384000Y-125753000D03*
X64224000Y-125753000D03*
X64224000Y-115974000D03*
X74384000Y-115974000D03*
D11*
X167094000Y-117149000D03*
D21*
X167094000Y-119149000D03*
D19*
X65214500Y-95313500D03*
D12*
X65214500Y-80073500D03*
D13*
X70828000Y-69238000D03*
X80828000Y-69238000D03*
X70828000Y-82446000D03*
X80828000Y-82446000D03*
X70828000Y-64285000D03*
X80828000Y-64285000D03*
X70828000Y-50950000D03*
X80828000Y-50950000D03*
D10*
X166649500Y-99273500D03*
D11*
X166649500Y-89113500D03*
D10*
X156337000Y-74930000D03*
D11*
X146177000Y-74930000D03*
D10*
X174777500Y-82509500D03*
D11*
X174777500Y-72349500D03*
D22*
X170650000Y-64793000D03*
X168110000Y-64793000D03*
D23*
X165570000Y-64793000D03*
D24*
X165951000Y-139723000D03*
X159982000Y-139723000D03*
X59398000Y-110640000D03*
X59271000Y-125753000D03*
X59398000Y-75334000D03*
X59398000Y-66698000D03*
X59398000Y-58824000D03*
D11*
X163760000Y-134008000D03*
D21*
X161760000Y-134008000D03*
D25*
X145186500Y-87526000D03*
X145186500Y-84986000D03*
X145186500Y-82446000D03*
D26*
X183496000Y-105299000D03*
X198496000Y-105299000D03*
X203496000Y-105299000D03*
X208496000Y-105299000D03*
X208496000Y-112799000D03*
X203496000Y-112799000D03*
X198496000Y-112799000D03*
D27*
X183496000Y-112799000D03*
D10*
X179349500Y-92669500D03*
D11*
X179349500Y-82509500D03*
D19*
X139382500Y-78359000D03*
D12*
X139382500Y-63119000D03*
D10*
X184937500Y-98003500D03*
D11*
X174777500Y-98003500D03*
D10*
X174777500Y-94955500D03*
D11*
X174777500Y-84795500D03*
D13*
X108293000Y-139723000D03*
X114262000Y-139723000D03*
X79845000Y-139723000D03*
X85814000Y-139723000D03*
D24*
X192240000Y-139723000D03*
X203543000Y-139342000D03*
D11*
X139382500Y-84423000D03*
D21*
X139382500Y-82423000D03*
D12*
X133794500Y-63119000D03*
X133794500Y-78119000D03*
D15*
X112712500Y-73119000D03*
D16*
X112712500Y-63119000D03*
D12*
X59372500Y-95073500D03*
X59372500Y-80073500D03*
D28*
X164300000Y-125753000D03*
D29*
X161760000Y-125753000D03*
X159220000Y-125753000D03*
D30*
X155981500Y-132103000D03*
D31*
X141800500Y-104120000D03*
D30*
X117945000Y-122197000D03*
X117945000Y-129182000D03*
D31*
X90513000Y-138199000D03*
X167100000Y-77184500D03*
D30*
X148971000Y-80010000D03*
D31*
X166649500Y-83017500D03*
D30*
X174777500Y-68349000D03*
X73368000Y-57554000D03*
X73368000Y-75842000D03*
X78368000Y-57634000D03*
D31*
X150304500Y-88455500D03*
X160210500Y-86487000D03*
X153568500Y-84859000D03*
X148971000Y-85344000D03*
X153606500Y-82550000D03*
X148361500Y-106449000D03*
X158458000Y-106449000D03*
D30*
X152552500Y-91844000D03*
D32*
X59398000Y-80048000D02*
X59372500Y-80073500D01*
X59398000Y-75334000D02*
X59398000Y-80048000D01*
X59372500Y-80073500D02*
X65214500Y-80073500D01*
D33*
X59398000Y-66698000D02*
X70828000Y-66698000D01*
X70828000Y-66698000D02*
X70828000Y-64285000D01*
X70828000Y-69238000D02*
X70828000Y-66698000D01*
D32*
X74384000Y-128166000D02*
X74384000Y-125753000D01*
X74384000Y-128674000D02*
X74384000Y-128166000D01*
X74384000Y-131087000D02*
X74384000Y-128674000D01*
X74384000Y-125753000D02*
X96990000Y-125753000D01*
X96990000Y-125753000D02*
X128613000Y-125753000D01*
X159220000Y-125753000D02*
X128613000Y-125753000D01*
D33*
X155981500Y-128991500D02*
X159220000Y-125753000D01*
X155981500Y-132103000D02*
X155981500Y-128991500D01*
X174817000Y-104120000D02*
X183496000Y-112799000D01*
X141800500Y-104120000D02*
X174817000Y-104120000D01*
X141800500Y-107485500D02*
X128613000Y-120673000D01*
X141800500Y-104120000D02*
X141800500Y-107485500D01*
X119469000Y-120673000D02*
X117945000Y-122197000D01*
X128613000Y-120673000D02*
X119469000Y-120673000D01*
X117945000Y-136040000D02*
X114262000Y-139723000D01*
D34*
X90513000Y-138199000D02*
X90513000Y-137515500D01*
X92862500Y-135166000D02*
X117945000Y-135166000D01*
X90513000Y-137515500D02*
X92862500Y-135166000D01*
D33*
X117945000Y-135166000D02*
X117945000Y-136040000D01*
X117945000Y-129182000D02*
X117945000Y-135166000D01*
X184937500Y-98307498D02*
X184937500Y-98003500D01*
X151796500Y-77184500D02*
X148971000Y-80010000D01*
X167100000Y-77184500D02*
X151796500Y-77184500D01*
X208496000Y-112799000D02*
X208496000Y-105299000D01*
X208496000Y-89814500D02*
X201231500Y-82550000D01*
X208496000Y-105299000D02*
X208496000Y-89814500D01*
X174777500Y-72349500D02*
X174777500Y-68349000D01*
D34*
X166649500Y-83017500D02*
X166649500Y-80477500D01*
X166649500Y-80477500D02*
X174777500Y-72349500D01*
D32*
X64224000Y-115974000D02*
X64224000Y-125753000D01*
X64224000Y-125753000D02*
X59271000Y-125753000D01*
X67324310Y-127986690D02*
X67324310Y-127859690D01*
X64224000Y-131087000D02*
X67324310Y-127986690D01*
X67324310Y-127859690D02*
X69177000Y-126007000D01*
X69177000Y-115593000D02*
X64224000Y-110640000D01*
X69177000Y-126007000D02*
X69177000Y-115593000D01*
X64224000Y-110640000D02*
X59398000Y-110640000D01*
D33*
X73368000Y-57554000D02*
X73368000Y-75842000D01*
X72098000Y-58824000D02*
X73368000Y-57554000D01*
X59398000Y-58824000D02*
X72098000Y-58824000D01*
X168110000Y-64570498D02*
X168110000Y-64793000D01*
X166658502Y-63119000D02*
X168110000Y-64570498D01*
X135636000Y-63119000D02*
X144145000Y-63119000D01*
X146177000Y-63119000D02*
X166658502Y-63119000D01*
X146177000Y-74930000D02*
X146177000Y-63119000D01*
X144145000Y-63119000D02*
X146177000Y-63119000D01*
X90765500Y-57634000D02*
X90805000Y-57594500D01*
X107188000Y-57594500D02*
X112712500Y-63119000D01*
X90805000Y-57594500D02*
X107188000Y-57594500D01*
X112712500Y-63119000D02*
X128143000Y-63119000D01*
X128143000Y-63119000D02*
X127762000Y-63119000D01*
X135636000Y-63119000D02*
X128143000Y-63119000D01*
X85217000Y-61628000D02*
X85217000Y-57785000D01*
X85066000Y-57634000D02*
X90765500Y-57634000D01*
X85217000Y-57785000D02*
X85066000Y-57634000D01*
X78368000Y-57634000D02*
X85066000Y-57634000D01*
D34*
X145163500Y-82423000D02*
X145186500Y-82446000D01*
X139382500Y-82423000D02*
X145163500Y-82423000D01*
X146835000Y-84986000D02*
X145186500Y-84986000D01*
X150304500Y-88455500D02*
X146835000Y-84986000D01*
D32*
X161760000Y-125753000D02*
X161760000Y-134008000D01*
X161760000Y-137945000D02*
X159982000Y-139723000D01*
X161760000Y-134008000D02*
X161760000Y-137945000D01*
D33*
X174777500Y-82509500D02*
X174777500Y-84795500D01*
X176936500Y-82509500D02*
X179349500Y-82509500D01*
X174777500Y-82509500D02*
X176936500Y-82509500D01*
X179390000Y-82550000D02*
X179349500Y-82509500D01*
X185991500Y-82550000D02*
X179390000Y-82550000D01*
D34*
X161902000Y-84795500D02*
X160210500Y-86487000D01*
X174777500Y-84795500D02*
X161902000Y-84795500D01*
D33*
X203670000Y-112973000D02*
X203496000Y-112799000D01*
X203496000Y-105299000D02*
X203496000Y-112799000D01*
X203543000Y-112846000D02*
X203496000Y-112799000D01*
X203543000Y-139342000D02*
X203543000Y-112846000D01*
D34*
X149456000Y-84859000D02*
X153568500Y-84859000D01*
X148971000Y-85344000D02*
X149456000Y-84859000D01*
X153606500Y-84821000D02*
X153568500Y-84859000D01*
X153606500Y-82550000D02*
X153606500Y-84821000D01*
X148361500Y-106449000D02*
X158458000Y-106449000D01*
D33*
X174777500Y-94955500D02*
X174777500Y-98003500D01*
D34*
X171666000Y-91844000D02*
X174777500Y-94955500D01*
X152552500Y-91844000D02*
X171666000Y-91844000D01*
D33*
X90805000Y-75628500D02*
X90805000Y-72594500D01*
M02*
