G04 #@! TF.GenerationSoftware,KiCad,Pcbnew,(5.1.9-0-10_14)*
G04 #@! TF.CreationDate,2021-02-21T16:21:15+01:00*
G04 #@! TF.ProjectId,lt1115-phono-mm-mc,6c743131-3135-42d7-9068-6f6e6f2d6d6d,rev?*
G04 #@! TF.SameCoordinates,Original*
G04 #@! TF.FileFunction,Soldermask,Bot*
G04 #@! TF.FilePolarity,Negative*
%FSLAX46Y46*%
G04 Gerber Fmt 4.6, Leading zero omitted, Abs format (unit mm)*
G04 Created by KiCad (PCBNEW (5.1.9-0-10_14)) date 2021-02-21 16:21:15*
%MOMM*%
%LPD*%
G01*
G04 APERTURE LIST*
%ADD10C,3.200000*%
%ADD11O,1.800000X1.800000*%
%ADD12R,1.800000X1.800000*%
%ADD13O,1.600000X1.600000*%
%ADD14R,1.600000X1.600000*%
%ADD15C,2.000000*%
%ADD16C,6.000000*%
%ADD17C,1.600000*%
%ADD18R,2.000000X2.000000*%
G04 APERTURE END LIST*
D10*
X171450000Y-138430000D03*
X85090000Y-138430000D03*
X171450000Y-93980000D03*
X85090000Y-93980000D03*
D11*
X145923000Y-112135500D03*
X142223000Y-113835500D03*
X145923000Y-115535500D03*
X142223000Y-117235500D03*
D12*
X145923000Y-118935500D03*
D13*
X109220000Y-114300000D03*
X101600000Y-121920000D03*
X109220000Y-116840000D03*
X101600000Y-119380000D03*
X109220000Y-119380000D03*
X101600000Y-116840000D03*
X109220000Y-121920000D03*
D14*
X101600000Y-114300000D03*
D15*
X159258000Y-122174000D03*
X159258000Y-112141000D03*
X171450000Y-123190000D03*
X171450000Y-116840000D03*
X171450000Y-110490000D03*
X84836000Y-129413000D03*
X84836000Y-119380000D03*
D16*
X136525000Y-128143000D03*
X136525000Y-102743000D03*
D17*
X121539000Y-117983000D03*
X126539000Y-117983000D03*
X121713000Y-106680000D03*
X116713000Y-106680000D03*
X148209000Y-129215000D03*
D14*
X148209000Y-132715000D03*
D17*
X148209000Y-98227000D03*
D14*
X148209000Y-101727000D03*
D17*
X101600000Y-130429000D03*
D14*
X101600000Y-133929000D03*
D17*
X116586000Y-97846000D03*
D14*
X116586000Y-101346000D03*
D15*
X98552000Y-103458000D03*
D18*
X98552000Y-108458000D03*
D17*
X89027000Y-106172000D03*
X89027000Y-101172000D03*
M02*
