G04 #@! TF.GenerationSoftware,KiCad,Pcbnew,(5.1.10-0-10_14)*
G04 #@! TF.CreationDate,2021-08-01T17:51:31+02:00*
G04 #@! TF.ProjectId,hv-power-supply-v1,68762d70-6f77-4657-922d-737570706c79,rev?*
G04 #@! TF.SameCoordinates,Original*
G04 #@! TF.FileFunction,Soldermask,Top*
G04 #@! TF.FilePolarity,Negative*
%FSLAX46Y46*%
G04 Gerber Fmt 4.6, Leading zero omitted, Abs format (unit mm)*
G04 Created by KiCad (PCBNEW (5.1.10-0-10_14)) date 2021-08-01 17:51:31*
%MOMM*%
%LPD*%
G01*
G04 APERTURE LIST*
%ADD10O,1.600000X1.600000*%
%ADD11C,1.600000*%
%ADD12C,2.400000*%
%ADD13O,2.400000X2.400000*%
%ADD14C,2.000000*%
%ADD15R,1.500000X2.000000*%
%ADD16R,3.800000X2.000000*%
%ADD17C,6.000000*%
%ADD18R,0.800000X0.900000*%
%ADD19R,0.900000X0.800000*%
%ADD20R,1.220000X0.650000*%
%ADD21C,4.000000*%
%ADD22R,4.000000X4.000000*%
%ADD23R,2.000000X1.905000*%
%ADD24O,2.000000X1.905000*%
%ADD25R,1.800000X3.500000*%
%ADD26O,4.800600X2.400300*%
%ADD27R,0.900000X1.200000*%
%ADD28R,1.600000X1.600000*%
%ADD29R,3.500000X1.800000*%
%ADD30O,1.905000X2.000000*%
%ADD31R,1.905000X2.000000*%
%ADD32C,2.600000*%
%ADD33C,1.440000*%
%ADD34O,2.500000X2.500000*%
%ADD35R,2.500000X2.500000*%
%ADD36R,1.200000X0.900000*%
%ADD37R,1.800000X1.800000*%
%ADD38O,1.800000X1.800000*%
%ADD39C,3.200000*%
G04 APERTURE END LIST*
D10*
X79184500Y-106997500D03*
D11*
X79184500Y-117157500D03*
D12*
X90805000Y-57594500D03*
X90805000Y-72594500D03*
X196088000Y-110050000D03*
X196088000Y-82550000D03*
D13*
X90779600Y-91948000D03*
D12*
X90779600Y-76708000D03*
D14*
X84124800Y-61620400D03*
X84124800Y-71620400D03*
G36*
G01*
X79634501Y-120043500D02*
X78734499Y-120043500D01*
G75*
G02*
X78484500Y-119793501I0J249999D01*
G01*
X78484500Y-119093499D01*
G75*
G02*
X78734499Y-118843500I249999J0D01*
G01*
X79634501Y-118843500D01*
G75*
G02*
X79884500Y-119093499I0J-249999D01*
G01*
X79884500Y-119793501D01*
G75*
G02*
X79634501Y-120043500I-249999J0D01*
G01*
G37*
G36*
G01*
X79634501Y-122043500D02*
X78734499Y-122043500D01*
G75*
G02*
X78484500Y-121793501I0J249999D01*
G01*
X78484500Y-121093499D01*
G75*
G02*
X78734499Y-120843500I249999J0D01*
G01*
X79634501Y-120843500D01*
G75*
G02*
X79884500Y-121093499I0J-249999D01*
G01*
X79884500Y-121793501D01*
G75*
G02*
X79634501Y-122043500I-249999J0D01*
G01*
G37*
G36*
G01*
X79659500Y-124242500D02*
X78709500Y-124242500D01*
G75*
G02*
X78459500Y-123992500I0J250000D01*
G01*
X78459500Y-123317500D01*
G75*
G02*
X78709500Y-123067500I250000J0D01*
G01*
X79659500Y-123067500D01*
G75*
G02*
X79909500Y-123317500I0J-250000D01*
G01*
X79909500Y-123992500D01*
G75*
G02*
X79659500Y-124242500I-250000J0D01*
G01*
G37*
G36*
G01*
X79659500Y-126317500D02*
X78709500Y-126317500D01*
G75*
G02*
X78459500Y-126067500I0J250000D01*
G01*
X78459500Y-125392500D01*
G75*
G02*
X78709500Y-125142500I250000J0D01*
G01*
X79659500Y-125142500D01*
G75*
G02*
X79909500Y-125392500I0J-250000D01*
G01*
X79909500Y-126067500D01*
G75*
G02*
X79659500Y-126317500I-250000J0D01*
G01*
G37*
G36*
G01*
X74897000Y-121829500D02*
X73947000Y-121829500D01*
G75*
G02*
X73697000Y-121579500I0J250000D01*
G01*
X73697000Y-120904500D01*
G75*
G02*
X73947000Y-120654500I250000J0D01*
G01*
X74897000Y-120654500D01*
G75*
G02*
X75147000Y-120904500I0J-250000D01*
G01*
X75147000Y-121579500D01*
G75*
G02*
X74897000Y-121829500I-250000J0D01*
G01*
G37*
G36*
G01*
X74897000Y-123904500D02*
X73947000Y-123904500D01*
G75*
G02*
X73697000Y-123654500I0J250000D01*
G01*
X73697000Y-122979500D01*
G75*
G02*
X73947000Y-122729500I250000J0D01*
G01*
X74897000Y-122729500D01*
G75*
G02*
X75147000Y-122979500I0J-250000D01*
G01*
X75147000Y-123654500D01*
G75*
G02*
X74897000Y-123904500I-250000J0D01*
G01*
G37*
D15*
X158863000Y-81216500D03*
X163463000Y-81216500D03*
X161163000Y-81216500D03*
D16*
X161163000Y-74916500D03*
D17*
X124206000Y-135890000D03*
X124206000Y-110490000D03*
D18*
X161160500Y-89630000D03*
X160210500Y-87630000D03*
X162110500Y-87630000D03*
D19*
X168602000Y-107465000D03*
X166602000Y-108415000D03*
X166602000Y-106515000D03*
D20*
X151616400Y-86550500D03*
X151616400Y-88450500D03*
X148996400Y-88450500D03*
X148996400Y-87500500D03*
X148996400Y-86550500D03*
D21*
X99504500Y-115753000D03*
D22*
X99504500Y-125753000D03*
D23*
X128613000Y-125753000D03*
D24*
X128613000Y-123213000D03*
X128613000Y-120673000D03*
D21*
X155410000Y-60475000D03*
X180810000Y-60475000D03*
X145377000Y-129563000D03*
X170777000Y-129563000D03*
D25*
X152298500Y-139723000D03*
X152298500Y-134723000D03*
D13*
X208597500Y-102108000D03*
D12*
X208597500Y-117348000D03*
D26*
X64224000Y-110640000D03*
X74384000Y-110640000D03*
X74384000Y-131087000D03*
X64224000Y-131087000D03*
X74384000Y-125753000D03*
X64224000Y-125753000D03*
X64224000Y-115974000D03*
X74384000Y-115974000D03*
D27*
X159853000Y-119784000D03*
X156553000Y-119784000D03*
D11*
X163411000Y-117149000D03*
D28*
X163411000Y-119149000D03*
G36*
G01*
X61880001Y-101080000D02*
X60979999Y-101080000D01*
G75*
G02*
X60730000Y-100830001I0J249999D01*
G01*
X60730000Y-100129999D01*
G75*
G02*
X60979999Y-99880000I249999J0D01*
G01*
X61880001Y-99880000D01*
G75*
G02*
X62130000Y-100129999I0J-249999D01*
G01*
X62130000Y-100830001D01*
G75*
G02*
X61880001Y-101080000I-249999J0D01*
G01*
G37*
G36*
G01*
X61880001Y-103080000D02*
X60979999Y-103080000D01*
G75*
G02*
X60730000Y-102830001I0J249999D01*
G01*
X60730000Y-102129999D01*
G75*
G02*
X60979999Y-101880000I249999J0D01*
G01*
X61880001Y-101880000D01*
G75*
G02*
X62130000Y-102129999I0J-249999D01*
G01*
X62130000Y-102830001D01*
G75*
G02*
X61880001Y-103080000I-249999J0D01*
G01*
G37*
D13*
X65214500Y-95313500D03*
D12*
X65214500Y-80073500D03*
D29*
X73520400Y-59586000D03*
X78520400Y-59586000D03*
X78520400Y-68679200D03*
X73520400Y-68679200D03*
X78520400Y-72743200D03*
X73520400Y-72743200D03*
X73520400Y-55522000D03*
X78520400Y-55522000D03*
G36*
G01*
X145971500Y-105138000D02*
X145671500Y-105138000D01*
G75*
G02*
X145521500Y-104988000I0J150000D01*
G01*
X145521500Y-103338000D01*
G75*
G02*
X145671500Y-103188000I150000J0D01*
G01*
X145971500Y-103188000D01*
G75*
G02*
X146121500Y-103338000I0J-150000D01*
G01*
X146121500Y-104988000D01*
G75*
G02*
X145971500Y-105138000I-150000J0D01*
G01*
G37*
G36*
G01*
X147241500Y-105138000D02*
X146941500Y-105138000D01*
G75*
G02*
X146791500Y-104988000I0J150000D01*
G01*
X146791500Y-103338000D01*
G75*
G02*
X146941500Y-103188000I150000J0D01*
G01*
X147241500Y-103188000D01*
G75*
G02*
X147391500Y-103338000I0J-150000D01*
G01*
X147391500Y-104988000D01*
G75*
G02*
X147241500Y-105138000I-150000J0D01*
G01*
G37*
G36*
G01*
X148511500Y-105138000D02*
X148211500Y-105138000D01*
G75*
G02*
X148061500Y-104988000I0J150000D01*
G01*
X148061500Y-103338000D01*
G75*
G02*
X148211500Y-103188000I150000J0D01*
G01*
X148511500Y-103188000D01*
G75*
G02*
X148661500Y-103338000I0J-150000D01*
G01*
X148661500Y-104988000D01*
G75*
G02*
X148511500Y-105138000I-150000J0D01*
G01*
G37*
G36*
G01*
X149781500Y-105138000D02*
X149481500Y-105138000D01*
G75*
G02*
X149331500Y-104988000I0J150000D01*
G01*
X149331500Y-103338000D01*
G75*
G02*
X149481500Y-103188000I150000J0D01*
G01*
X149781500Y-103188000D01*
G75*
G02*
X149931500Y-103338000I0J-150000D01*
G01*
X149931500Y-104988000D01*
G75*
G02*
X149781500Y-105138000I-150000J0D01*
G01*
G37*
G36*
G01*
X149781500Y-110088000D02*
X149481500Y-110088000D01*
G75*
G02*
X149331500Y-109938000I0J150000D01*
G01*
X149331500Y-108288000D01*
G75*
G02*
X149481500Y-108138000I150000J0D01*
G01*
X149781500Y-108138000D01*
G75*
G02*
X149931500Y-108288000I0J-150000D01*
G01*
X149931500Y-109938000D01*
G75*
G02*
X149781500Y-110088000I-150000J0D01*
G01*
G37*
G36*
G01*
X148511500Y-110088000D02*
X148211500Y-110088000D01*
G75*
G02*
X148061500Y-109938000I0J150000D01*
G01*
X148061500Y-108288000D01*
G75*
G02*
X148211500Y-108138000I150000J0D01*
G01*
X148511500Y-108138000D01*
G75*
G02*
X148661500Y-108288000I0J-150000D01*
G01*
X148661500Y-109938000D01*
G75*
G02*
X148511500Y-110088000I-150000J0D01*
G01*
G37*
G36*
G01*
X147241500Y-110088000D02*
X146941500Y-110088000D01*
G75*
G02*
X146791500Y-109938000I0J150000D01*
G01*
X146791500Y-108288000D01*
G75*
G02*
X146941500Y-108138000I150000J0D01*
G01*
X147241500Y-108138000D01*
G75*
G02*
X147391500Y-108288000I0J-150000D01*
G01*
X147391500Y-109938000D01*
G75*
G02*
X147241500Y-110088000I-150000J0D01*
G01*
G37*
G36*
G01*
X145971500Y-110088000D02*
X145671500Y-110088000D01*
G75*
G02*
X145521500Y-109938000I0J150000D01*
G01*
X145521500Y-108288000D01*
G75*
G02*
X145671500Y-108138000I150000J0D01*
G01*
X145971500Y-108138000D01*
G75*
G02*
X146121500Y-108288000I0J-150000D01*
G01*
X146121500Y-109938000D01*
G75*
G02*
X145971500Y-110088000I-150000J0D01*
G01*
G37*
G36*
G01*
X165994501Y-68005500D02*
X165094499Y-68005500D01*
G75*
G02*
X164844500Y-67755501I0J249999D01*
G01*
X164844500Y-67055499D01*
G75*
G02*
X165094499Y-66805500I249999J0D01*
G01*
X165994501Y-66805500D01*
G75*
G02*
X166244500Y-67055499I0J-249999D01*
G01*
X166244500Y-67755501D01*
G75*
G02*
X165994501Y-68005500I-249999J0D01*
G01*
G37*
G36*
G01*
X165994501Y-70005500D02*
X165094499Y-70005500D01*
G75*
G02*
X164844500Y-69755501I0J249999D01*
G01*
X164844500Y-69055499D01*
G75*
G02*
X165094499Y-68805500I249999J0D01*
G01*
X165994501Y-68805500D01*
G75*
G02*
X166244500Y-69055499I0J-249999D01*
G01*
X166244500Y-69755501D01*
G75*
G02*
X165994501Y-70005500I-249999J0D01*
G01*
G37*
D10*
X166649500Y-99273500D03*
D11*
X166649500Y-89113500D03*
D10*
X156337000Y-74930000D03*
D11*
X146177000Y-74930000D03*
D10*
X174777500Y-82509500D03*
D11*
X174777500Y-72349500D03*
G36*
G01*
X174327499Y-66193000D02*
X175227501Y-66193000D01*
G75*
G02*
X175477500Y-66442999I0J-249999D01*
G01*
X175477500Y-67143001D01*
G75*
G02*
X175227501Y-67393000I-249999J0D01*
G01*
X174327499Y-67393000D01*
G75*
G02*
X174077500Y-67143001I0J249999D01*
G01*
X174077500Y-66442999D01*
G75*
G02*
X174327499Y-66193000I249999J0D01*
G01*
G37*
G36*
G01*
X174327499Y-64193000D02*
X175227501Y-64193000D01*
G75*
G02*
X175477500Y-64442999I0J-249999D01*
G01*
X175477500Y-65143001D01*
G75*
G02*
X175227501Y-65393000I-249999J0D01*
G01*
X174327499Y-65393000D01*
G75*
G02*
X174077500Y-65143001I0J249999D01*
G01*
X174077500Y-64442999D01*
G75*
G02*
X174327499Y-64193000I249999J0D01*
G01*
G37*
G36*
G01*
X170063497Y-91068000D02*
X171363503Y-91068000D01*
G75*
G02*
X171613500Y-91317997I0J-249997D01*
G01*
X171613500Y-92143003D01*
G75*
G02*
X171363503Y-92393000I-249997J0D01*
G01*
X170063497Y-92393000D01*
G75*
G02*
X169813500Y-92143003I0J249997D01*
G01*
X169813500Y-91317997D01*
G75*
G02*
X170063497Y-91068000I249997J0D01*
G01*
G37*
G36*
G01*
X170063497Y-87943000D02*
X171363503Y-87943000D01*
G75*
G02*
X171613500Y-88192997I0J-249997D01*
G01*
X171613500Y-89018003D01*
G75*
G02*
X171363503Y-89268000I-249997J0D01*
G01*
X170063497Y-89268000D01*
G75*
G02*
X169813500Y-89018003I0J249997D01*
G01*
X169813500Y-88192997D01*
G75*
G02*
X170063497Y-87943000I249997J0D01*
G01*
G37*
G36*
G01*
X183631000Y-93144500D02*
X183631000Y-92194500D01*
G75*
G02*
X183881000Y-91944500I250000J0D01*
G01*
X184556000Y-91944500D01*
G75*
G02*
X184806000Y-92194500I0J-250000D01*
G01*
X184806000Y-93144500D01*
G75*
G02*
X184556000Y-93394500I-250000J0D01*
G01*
X183881000Y-93394500D01*
G75*
G02*
X183631000Y-93144500I0J250000D01*
G01*
G37*
G36*
G01*
X181556000Y-93144500D02*
X181556000Y-92194500D01*
G75*
G02*
X181806000Y-91944500I250000J0D01*
G01*
X182481000Y-91944500D01*
G75*
G02*
X182731000Y-92194500I0J-250000D01*
G01*
X182731000Y-93144500D01*
G75*
G02*
X182481000Y-93394500I-250000J0D01*
G01*
X181806000Y-93394500D01*
G75*
G02*
X181556000Y-93144500I0J250000D01*
G01*
G37*
D30*
X170650000Y-64793000D03*
X168110000Y-64793000D03*
D31*
X165570000Y-64793000D03*
G36*
G01*
X188503000Y-116845501D02*
X188503000Y-115945499D01*
G75*
G02*
X188752999Y-115695500I249999J0D01*
G01*
X189453001Y-115695500D01*
G75*
G02*
X189703000Y-115945499I0J-249999D01*
G01*
X189703000Y-116845501D01*
G75*
G02*
X189453001Y-117095500I-249999J0D01*
G01*
X188752999Y-117095500D01*
G75*
G02*
X188503000Y-116845501I0J249999D01*
G01*
G37*
G36*
G01*
X186503000Y-116845501D02*
X186503000Y-115945499D01*
G75*
G02*
X186752999Y-115695500I249999J0D01*
G01*
X187453001Y-115695500D01*
G75*
G02*
X187703000Y-115945499I0J-249999D01*
G01*
X187703000Y-116845501D01*
G75*
G02*
X187453001Y-117095500I-249999J0D01*
G01*
X186752999Y-117095500D01*
G75*
G02*
X186503000Y-116845501I0J249999D01*
G01*
G37*
G36*
G01*
X132238001Y-101112000D02*
X131337999Y-101112000D01*
G75*
G02*
X131088000Y-100862001I0J249999D01*
G01*
X131088000Y-100161999D01*
G75*
G02*
X131337999Y-99912000I249999J0D01*
G01*
X132238001Y-99912000D01*
G75*
G02*
X132488000Y-100161999I0J-249999D01*
G01*
X132488000Y-100862001D01*
G75*
G02*
X132238001Y-101112000I-249999J0D01*
G01*
G37*
G36*
G01*
X132238001Y-103112000D02*
X131337999Y-103112000D01*
G75*
G02*
X131088000Y-102862001I0J249999D01*
G01*
X131088000Y-102161999D01*
G75*
G02*
X131337999Y-101912000I249999J0D01*
G01*
X132238001Y-101912000D01*
G75*
G02*
X132488000Y-102161999I0J-249999D01*
G01*
X132488000Y-102862001D01*
G75*
G02*
X132238001Y-103112000I-249999J0D01*
G01*
G37*
G36*
G01*
X107638001Y-100962000D02*
X106737999Y-100962000D01*
G75*
G02*
X106488000Y-100712001I0J249999D01*
G01*
X106488000Y-100011999D01*
G75*
G02*
X106737999Y-99762000I249999J0D01*
G01*
X107638001Y-99762000D01*
G75*
G02*
X107888000Y-100011999I0J-249999D01*
G01*
X107888000Y-100712001D01*
G75*
G02*
X107638001Y-100962000I-249999J0D01*
G01*
G37*
G36*
G01*
X107638001Y-102962000D02*
X106737999Y-102962000D01*
G75*
G02*
X106488000Y-102712001I0J249999D01*
G01*
X106488000Y-102011999D01*
G75*
G02*
X106737999Y-101762000I249999J0D01*
G01*
X107638001Y-101762000D01*
G75*
G02*
X107888000Y-102011999I0J-249999D01*
G01*
X107888000Y-102712001D01*
G75*
G02*
X107638001Y-102962000I-249999J0D01*
G01*
G37*
G36*
G01*
X166199499Y-85941500D02*
X167099501Y-85941500D01*
G75*
G02*
X167349500Y-86191499I0J-249999D01*
G01*
X167349500Y-86891501D01*
G75*
G02*
X167099501Y-87141500I-249999J0D01*
G01*
X166199499Y-87141500D01*
G75*
G02*
X165949500Y-86891501I0J249999D01*
G01*
X165949500Y-86191499D01*
G75*
G02*
X166199499Y-85941500I249999J0D01*
G01*
G37*
G36*
G01*
X166199499Y-83941500D02*
X167099501Y-83941500D01*
G75*
G02*
X167349500Y-84191499I0J-249999D01*
G01*
X167349500Y-84891501D01*
G75*
G02*
X167099501Y-85141500I-249999J0D01*
G01*
X166199499Y-85141500D01*
G75*
G02*
X165949500Y-84891501I0J249999D01*
G01*
X165949500Y-84191499D01*
G75*
G02*
X166199499Y-83941500I249999J0D01*
G01*
G37*
G36*
G01*
X157985000Y-122520001D02*
X157985000Y-121619999D01*
G75*
G02*
X158234999Y-121370000I249999J0D01*
G01*
X158935001Y-121370000D01*
G75*
G02*
X159185000Y-121619999I0J-249999D01*
G01*
X159185000Y-122520001D01*
G75*
G02*
X158935001Y-122770000I-249999J0D01*
G01*
X158234999Y-122770000D01*
G75*
G02*
X157985000Y-122520001I0J249999D01*
G01*
G37*
G36*
G01*
X155985000Y-122520001D02*
X155985000Y-121619999D01*
G75*
G02*
X156234999Y-121370000I249999J0D01*
G01*
X156935001Y-121370000D01*
G75*
G02*
X157185000Y-121619999I0J-249999D01*
G01*
X157185000Y-122520001D01*
G75*
G02*
X156935001Y-122770000I-249999J0D01*
G01*
X156234999Y-122770000D01*
G75*
G02*
X155985000Y-122520001I0J249999D01*
G01*
G37*
G36*
G01*
X162017000Y-122520001D02*
X162017000Y-121619999D01*
G75*
G02*
X162266999Y-121370000I249999J0D01*
G01*
X162967001Y-121370000D01*
G75*
G02*
X163217000Y-121619999I0J-249999D01*
G01*
X163217000Y-122520001D01*
G75*
G02*
X162967001Y-122770000I-249999J0D01*
G01*
X162266999Y-122770000D01*
G75*
G02*
X162017000Y-122520001I0J249999D01*
G01*
G37*
G36*
G01*
X160017000Y-122520001D02*
X160017000Y-121619999D01*
G75*
G02*
X160266999Y-121370000I249999J0D01*
G01*
X160967001Y-121370000D01*
G75*
G02*
X161217000Y-121619999I0J-249999D01*
G01*
X161217000Y-122520001D01*
G75*
G02*
X160967001Y-122770000I-249999J0D01*
G01*
X160266999Y-122770000D01*
G75*
G02*
X160017000Y-122520001I0J249999D01*
G01*
G37*
G36*
G01*
X89113000Y-139272999D02*
X89113000Y-140173001D01*
G75*
G02*
X88863001Y-140423000I-249999J0D01*
G01*
X88162999Y-140423000D01*
G75*
G02*
X87913000Y-140173001I0J249999D01*
G01*
X87913000Y-139272999D01*
G75*
G02*
X88162999Y-139023000I249999J0D01*
G01*
X88863001Y-139023000D01*
G75*
G02*
X89113000Y-139272999I0J-249999D01*
G01*
G37*
G36*
G01*
X91113000Y-139272999D02*
X91113000Y-140173001D01*
G75*
G02*
X90863001Y-140423000I-249999J0D01*
G01*
X90162999Y-140423000D01*
G75*
G02*
X89913000Y-140173001I0J249999D01*
G01*
X89913000Y-139272999D01*
G75*
G02*
X90162999Y-139023000I249999J0D01*
G01*
X90863001Y-139023000D01*
G75*
G02*
X91113000Y-139272999I0J-249999D01*
G01*
G37*
G36*
G01*
X163849999Y-105849000D02*
X164750001Y-105849000D01*
G75*
G02*
X165000000Y-106098999I0J-249999D01*
G01*
X165000000Y-106799001D01*
G75*
G02*
X164750001Y-107049000I-249999J0D01*
G01*
X163849999Y-107049000D01*
G75*
G02*
X163600000Y-106799001I0J249999D01*
G01*
X163600000Y-106098999D01*
G75*
G02*
X163849999Y-105849000I249999J0D01*
G01*
G37*
G36*
G01*
X163849999Y-103849000D02*
X164750001Y-103849000D01*
G75*
G02*
X165000000Y-104098999I0J-249999D01*
G01*
X165000000Y-104799001D01*
G75*
G02*
X164750001Y-105049000I-249999J0D01*
G01*
X163849999Y-105049000D01*
G75*
G02*
X163600000Y-104799001I0J249999D01*
G01*
X163600000Y-104098999D01*
G75*
G02*
X163849999Y-103849000I249999J0D01*
G01*
G37*
G36*
G01*
X161414000Y-106899001D02*
X161414000Y-105998999D01*
G75*
G02*
X161663999Y-105749000I249999J0D01*
G01*
X162364001Y-105749000D01*
G75*
G02*
X162614000Y-105998999I0J-249999D01*
G01*
X162614000Y-106899001D01*
G75*
G02*
X162364001Y-107149000I-249999J0D01*
G01*
X161663999Y-107149000D01*
G75*
G02*
X161414000Y-106899001I0J249999D01*
G01*
G37*
G36*
G01*
X159414000Y-106899001D02*
X159414000Y-105998999D01*
G75*
G02*
X159663999Y-105749000I249999J0D01*
G01*
X160364001Y-105749000D01*
G75*
G02*
X160614000Y-105998999I0J-249999D01*
G01*
X160614000Y-106899001D01*
G75*
G02*
X160364001Y-107149000I-249999J0D01*
G01*
X159663999Y-107149000D01*
G75*
G02*
X159414000Y-106899001I0J249999D01*
G01*
G37*
G36*
G01*
X144101499Y-112929000D02*
X145001501Y-112929000D01*
G75*
G02*
X145251500Y-113178999I0J-249999D01*
G01*
X145251500Y-113879001D01*
G75*
G02*
X145001501Y-114129000I-249999J0D01*
G01*
X144101499Y-114129000D01*
G75*
G02*
X143851500Y-113879001I0J249999D01*
G01*
X143851500Y-113178999D01*
G75*
G02*
X144101499Y-112929000I249999J0D01*
G01*
G37*
G36*
G01*
X144101499Y-110929000D02*
X145001501Y-110929000D01*
G75*
G02*
X145251500Y-111178999I0J-249999D01*
G01*
X145251500Y-111879001D01*
G75*
G02*
X145001501Y-112129000I-249999J0D01*
G01*
X144101499Y-112129000D01*
G75*
G02*
X143851500Y-111879001I0J249999D01*
G01*
X143851500Y-111178999D01*
G75*
G02*
X144101499Y-110929000I249999J0D01*
G01*
G37*
G36*
G01*
X154996000Y-120582500D02*
X154046000Y-120582500D01*
G75*
G02*
X153796000Y-120332500I0J250000D01*
G01*
X153796000Y-119657500D01*
G75*
G02*
X154046000Y-119407500I250000J0D01*
G01*
X154996000Y-119407500D01*
G75*
G02*
X155246000Y-119657500I0J-250000D01*
G01*
X155246000Y-120332500D01*
G75*
G02*
X154996000Y-120582500I-250000J0D01*
G01*
G37*
G36*
G01*
X154996000Y-122657500D02*
X154046000Y-122657500D01*
G75*
G02*
X153796000Y-122407500I0J250000D01*
G01*
X153796000Y-121732500D01*
G75*
G02*
X154046000Y-121482500I250000J0D01*
G01*
X154996000Y-121482500D01*
G75*
G02*
X155246000Y-121732500I0J-250000D01*
G01*
X155246000Y-122407500D01*
G75*
G02*
X154996000Y-122657500I-250000J0D01*
G01*
G37*
G36*
G01*
X151567000Y-124265500D02*
X150617000Y-124265500D01*
G75*
G02*
X150367000Y-124015500I0J250000D01*
G01*
X150367000Y-123340500D01*
G75*
G02*
X150617000Y-123090500I250000J0D01*
G01*
X151567000Y-123090500D01*
G75*
G02*
X151817000Y-123340500I0J-250000D01*
G01*
X151817000Y-124015500D01*
G75*
G02*
X151567000Y-124265500I-250000J0D01*
G01*
G37*
G36*
G01*
X151567000Y-126340500D02*
X150617000Y-126340500D01*
G75*
G02*
X150367000Y-126090500I0J250000D01*
G01*
X150367000Y-125415500D01*
G75*
G02*
X150617000Y-125165500I250000J0D01*
G01*
X151567000Y-125165500D01*
G75*
G02*
X151817000Y-125415500I0J-250000D01*
G01*
X151817000Y-126090500D01*
G75*
G02*
X151567000Y-126340500I-250000J0D01*
G01*
G37*
G36*
G01*
X143314500Y-105607500D02*
X144264500Y-105607500D01*
G75*
G02*
X144514500Y-105857500I0J-250000D01*
G01*
X144514500Y-106532500D01*
G75*
G02*
X144264500Y-106782500I-250000J0D01*
G01*
X143314500Y-106782500D01*
G75*
G02*
X143064500Y-106532500I0J250000D01*
G01*
X143064500Y-105857500D01*
G75*
G02*
X143314500Y-105607500I250000J0D01*
G01*
G37*
G36*
G01*
X143314500Y-103532500D02*
X144264500Y-103532500D01*
G75*
G02*
X144514500Y-103782500I0J-250000D01*
G01*
X144514500Y-104457500D01*
G75*
G02*
X144264500Y-104707500I-250000J0D01*
G01*
X143314500Y-104707500D01*
G75*
G02*
X143064500Y-104457500I0J250000D01*
G01*
X143064500Y-103782500D01*
G75*
G02*
X143314500Y-103532500I250000J0D01*
G01*
G37*
G36*
G01*
X153405000Y-104638000D02*
X153405000Y-103688000D01*
G75*
G02*
X153655000Y-103438000I250000J0D01*
G01*
X154330000Y-103438000D01*
G75*
G02*
X154580000Y-103688000I0J-250000D01*
G01*
X154580000Y-104638000D01*
G75*
G02*
X154330000Y-104888000I-250000J0D01*
G01*
X153655000Y-104888000D01*
G75*
G02*
X153405000Y-104638000I0J250000D01*
G01*
G37*
G36*
G01*
X151330000Y-104638000D02*
X151330000Y-103688000D01*
G75*
G02*
X151580000Y-103438000I250000J0D01*
G01*
X152255000Y-103438000D01*
G75*
G02*
X152505000Y-103688000I0J-250000D01*
G01*
X152505000Y-104638000D01*
G75*
G02*
X152255000Y-104888000I-250000J0D01*
G01*
X151580000Y-104888000D01*
G75*
G02*
X151330000Y-104638000I0J250000D01*
G01*
G37*
G36*
G01*
X130649500Y-121148000D02*
X130649500Y-120198000D01*
G75*
G02*
X130899500Y-119948000I250000J0D01*
G01*
X131574500Y-119948000D01*
G75*
G02*
X131824500Y-120198000I0J-250000D01*
G01*
X131824500Y-121148000D01*
G75*
G02*
X131574500Y-121398000I-250000J0D01*
G01*
X130899500Y-121398000D01*
G75*
G02*
X130649500Y-121148000I0J250000D01*
G01*
G37*
G36*
G01*
X132724500Y-121148000D02*
X132724500Y-120198000D01*
G75*
G02*
X132974500Y-119948000I250000J0D01*
G01*
X133649500Y-119948000D01*
G75*
G02*
X133899500Y-120198000I0J-250000D01*
G01*
X133899500Y-121148000D01*
G75*
G02*
X133649500Y-121398000I-250000J0D01*
G01*
X132974500Y-121398000D01*
G75*
G02*
X132724500Y-121148000I0J250000D01*
G01*
G37*
G36*
G01*
X130692500Y-126228000D02*
X130692500Y-125278000D01*
G75*
G02*
X130942500Y-125028000I250000J0D01*
G01*
X131617500Y-125028000D01*
G75*
G02*
X131867500Y-125278000I0J-250000D01*
G01*
X131867500Y-126228000D01*
G75*
G02*
X131617500Y-126478000I-250000J0D01*
G01*
X130942500Y-126478000D01*
G75*
G02*
X130692500Y-126228000I0J250000D01*
G01*
G37*
G36*
G01*
X132767500Y-126228000D02*
X132767500Y-125278000D01*
G75*
G02*
X133017500Y-125028000I250000J0D01*
G01*
X133692500Y-125028000D01*
G75*
G02*
X133942500Y-125278000I0J-250000D01*
G01*
X133942500Y-126228000D01*
G75*
G02*
X133692500Y-126478000I-250000J0D01*
G01*
X133017500Y-126478000D01*
G75*
G02*
X132767500Y-126228000I0J250000D01*
G01*
G37*
D32*
X162268000Y-139723000D03*
X156299000Y-139723000D03*
X59398000Y-110640000D03*
X59271000Y-125753000D03*
X59398000Y-75334000D03*
X59398000Y-66698000D03*
X59398000Y-58824000D03*
D11*
X160077000Y-134008000D03*
D28*
X158077000Y-134008000D03*
G36*
G01*
X137430499Y-109438000D02*
X139480501Y-109438000D01*
G75*
G02*
X139730500Y-109687999I0J-249999D01*
G01*
X139730500Y-111438001D01*
G75*
G02*
X139480501Y-111688000I-249999J0D01*
G01*
X137430499Y-111688000D01*
G75*
G02*
X137180500Y-111438001I0J249999D01*
G01*
X137180500Y-109687999D01*
G75*
G02*
X137430499Y-109438000I249999J0D01*
G01*
G37*
G36*
G01*
X137430499Y-103038000D02*
X139480501Y-103038000D01*
G75*
G02*
X139730500Y-103287999I0J-249999D01*
G01*
X139730500Y-105038001D01*
G75*
G02*
X139480501Y-105288000I-249999J0D01*
G01*
X137430499Y-105288000D01*
G75*
G02*
X137180500Y-105038001I0J249999D01*
G01*
X137180500Y-103287999D01*
G75*
G02*
X137430499Y-103038000I249999J0D01*
G01*
G37*
D18*
X134683500Y-84439000D03*
X133733500Y-82439000D03*
X135633500Y-82439000D03*
D33*
X145186500Y-87526000D03*
X145186500Y-84986000D03*
X145186500Y-82446000D03*
D34*
X183578500Y-125342000D03*
X198578500Y-125342000D03*
X203578500Y-125342000D03*
X208578500Y-125342000D03*
X208578500Y-132842000D03*
X203578500Y-132842000D03*
X198578500Y-132842000D03*
D35*
X183578500Y-132842000D03*
D10*
X179349500Y-92669500D03*
D11*
X179349500Y-82509500D03*
G36*
G01*
X165411999Y-78584500D02*
X166312001Y-78584500D01*
G75*
G02*
X166562000Y-78834499I0J-249999D01*
G01*
X166562000Y-79534501D01*
G75*
G02*
X166312001Y-79784500I-249999J0D01*
G01*
X165411999Y-79784500D01*
G75*
G02*
X165162000Y-79534501I0J249999D01*
G01*
X165162000Y-78834499D01*
G75*
G02*
X165411999Y-78584500I249999J0D01*
G01*
G37*
G36*
G01*
X165411999Y-76584500D02*
X166312001Y-76584500D01*
G75*
G02*
X166562000Y-76834499I0J-249999D01*
G01*
X166562000Y-77534501D01*
G75*
G02*
X166312001Y-77784500I-249999J0D01*
G01*
X165411999Y-77784500D01*
G75*
G02*
X165162000Y-77534501I0J249999D01*
G01*
X165162000Y-76834499D01*
G75*
G02*
X165411999Y-76584500I249999J0D01*
G01*
G37*
G36*
G01*
X149596500Y-91393999D02*
X149596500Y-92294001D01*
G75*
G02*
X149346501Y-92544000I-249999J0D01*
G01*
X148646499Y-92544000D01*
G75*
G02*
X148396500Y-92294001I0J249999D01*
G01*
X148396500Y-91393999D01*
G75*
G02*
X148646499Y-91144000I249999J0D01*
G01*
X149346501Y-91144000D01*
G75*
G02*
X149596500Y-91393999I0J-249999D01*
G01*
G37*
G36*
G01*
X151596500Y-91393999D02*
X151596500Y-92294001D01*
G75*
G02*
X151346501Y-92544000I-249999J0D01*
G01*
X150646499Y-92544000D01*
G75*
G02*
X150396500Y-92294001I0J249999D01*
G01*
X150396500Y-91393999D01*
G75*
G02*
X150646499Y-91144000I249999J0D01*
G01*
X151346501Y-91144000D01*
G75*
G02*
X151596500Y-91393999I0J-249999D01*
G01*
G37*
G36*
G01*
X155127500Y-80766499D02*
X155127500Y-81666501D01*
G75*
G02*
X154877501Y-81916500I-249999J0D01*
G01*
X154177499Y-81916500D01*
G75*
G02*
X153927500Y-81666501I0J249999D01*
G01*
X153927500Y-80766499D01*
G75*
G02*
X154177499Y-80516500I249999J0D01*
G01*
X154877501Y-80516500D01*
G75*
G02*
X155127500Y-80766499I0J-249999D01*
G01*
G37*
G36*
G01*
X157127500Y-80766499D02*
X157127500Y-81666501D01*
G75*
G02*
X156877501Y-81916500I-249999J0D01*
G01*
X156177499Y-81916500D01*
G75*
G02*
X155927500Y-81666501I0J249999D01*
G01*
X155927500Y-80766499D01*
G75*
G02*
X156177499Y-80516500I249999J0D01*
G01*
X156877501Y-80516500D01*
G75*
G02*
X157127500Y-80766499I0J-249999D01*
G01*
G37*
G36*
G01*
X154018501Y-86856000D02*
X153118499Y-86856000D01*
G75*
G02*
X152868500Y-86606001I0J249999D01*
G01*
X152868500Y-85905999D01*
G75*
G02*
X153118499Y-85656000I249999J0D01*
G01*
X154018501Y-85656000D01*
G75*
G02*
X154268500Y-85905999I0J-249999D01*
G01*
X154268500Y-86606001D01*
G75*
G02*
X154018501Y-86856000I-249999J0D01*
G01*
G37*
G36*
G01*
X154018501Y-88856000D02*
X153118499Y-88856000D01*
G75*
G02*
X152868500Y-88606001I0J249999D01*
G01*
X152868500Y-87905999D01*
G75*
G02*
X153118499Y-87656000I249999J0D01*
G01*
X154018501Y-87656000D01*
G75*
G02*
X154268500Y-87905999I0J-249999D01*
G01*
X154268500Y-88606001D01*
G75*
G02*
X154018501Y-88856000I-249999J0D01*
G01*
G37*
D13*
X141274800Y-78384400D03*
D12*
X141274800Y-63144400D03*
D10*
X184937500Y-98003500D03*
D11*
X174777500Y-98003500D03*
D10*
X174777500Y-94955500D03*
D11*
X174777500Y-84795500D03*
D14*
X108293000Y-139723000D03*
X114262000Y-139723000D03*
X79845000Y-139723000D03*
X85814000Y-139723000D03*
D32*
X192240000Y-139723000D03*
X203543000Y-139342000D03*
D36*
X178562000Y-127319500D03*
X178562000Y-130619500D03*
D18*
X161165500Y-83344000D03*
X162115500Y-85344000D03*
X160215500Y-85344000D03*
X148996500Y-94003000D03*
X149946500Y-96003000D03*
X148046500Y-96003000D03*
D36*
X147091500Y-114829000D03*
X147091500Y-111529000D03*
G36*
G01*
X158717000Y-88217500D02*
X157767000Y-88217500D01*
G75*
G02*
X157517000Y-87967500I0J250000D01*
G01*
X157517000Y-87292500D01*
G75*
G02*
X157767000Y-87042500I250000J0D01*
G01*
X158717000Y-87042500D01*
G75*
G02*
X158967000Y-87292500I0J-250000D01*
G01*
X158967000Y-87967500D01*
G75*
G02*
X158717000Y-88217500I-250000J0D01*
G01*
G37*
G36*
G01*
X158717000Y-90292500D02*
X157767000Y-90292500D01*
G75*
G02*
X157517000Y-90042500I0J250000D01*
G01*
X157517000Y-89367500D01*
G75*
G02*
X157767000Y-89117500I250000J0D01*
G01*
X158717000Y-89117500D01*
G75*
G02*
X158967000Y-89367500I0J-250000D01*
G01*
X158967000Y-90042500D01*
G75*
G02*
X158717000Y-90292500I-250000J0D01*
G01*
G37*
D11*
X139382500Y-84423000D03*
D28*
X139382500Y-82423000D03*
G36*
G01*
X168813500Y-77740000D02*
X167863500Y-77740000D01*
G75*
G02*
X167613500Y-77490000I0J250000D01*
G01*
X167613500Y-76815000D01*
G75*
G02*
X167863500Y-76565000I250000J0D01*
G01*
X168813500Y-76565000D01*
G75*
G02*
X169063500Y-76815000I0J-250000D01*
G01*
X169063500Y-77490000D01*
G75*
G02*
X168813500Y-77740000I-250000J0D01*
G01*
G37*
G36*
G01*
X168813500Y-79815000D02*
X167863500Y-79815000D01*
G75*
G02*
X167613500Y-79565000I0J250000D01*
G01*
X167613500Y-78890000D01*
G75*
G02*
X167863500Y-78640000I250000J0D01*
G01*
X168813500Y-78640000D01*
G75*
G02*
X169063500Y-78890000I0J-250000D01*
G01*
X169063500Y-79565000D01*
G75*
G02*
X168813500Y-79815000I-250000J0D01*
G01*
G37*
G36*
G01*
X149471500Y-82482500D02*
X148521500Y-82482500D01*
G75*
G02*
X148271500Y-82232500I0J250000D01*
G01*
X148271500Y-81557500D01*
G75*
G02*
X148521500Y-81307500I250000J0D01*
G01*
X149471500Y-81307500D01*
G75*
G02*
X149721500Y-81557500I0J-250000D01*
G01*
X149721500Y-82232500D01*
G75*
G02*
X149471500Y-82482500I-250000J0D01*
G01*
G37*
G36*
G01*
X149471500Y-84557500D02*
X148521500Y-84557500D01*
G75*
G02*
X148271500Y-84307500I0J250000D01*
G01*
X148271500Y-83632500D01*
G75*
G02*
X148521500Y-83382500I250000J0D01*
G01*
X149471500Y-83382500D01*
G75*
G02*
X149721500Y-83632500I0J-250000D01*
G01*
X149721500Y-84307500D01*
G75*
G02*
X149471500Y-84557500I-250000J0D01*
G01*
G37*
G36*
G01*
X154294000Y-90795000D02*
X154294000Y-89845000D01*
G75*
G02*
X154544000Y-89595000I250000J0D01*
G01*
X155219000Y-89595000D01*
G75*
G02*
X155469000Y-89845000I0J-250000D01*
G01*
X155469000Y-90795000D01*
G75*
G02*
X155219000Y-91045000I-250000J0D01*
G01*
X154544000Y-91045000D01*
G75*
G02*
X154294000Y-90795000I0J250000D01*
G01*
G37*
G36*
G01*
X152219000Y-90795000D02*
X152219000Y-89845000D01*
G75*
G02*
X152469000Y-89595000I250000J0D01*
G01*
X153144000Y-89595000D01*
G75*
G02*
X153394000Y-89845000I0J-250000D01*
G01*
X153394000Y-90795000D01*
G75*
G02*
X153144000Y-91045000I-250000J0D01*
G01*
X152469000Y-91045000D01*
G75*
G02*
X152219000Y-90795000I0J250000D01*
G01*
G37*
D12*
X134213600Y-63144400D03*
X134213600Y-78144400D03*
D21*
X112712500Y-73119000D03*
D22*
X112712500Y-63119000D03*
D12*
X59372500Y-95073500D03*
X59372500Y-80073500D03*
D37*
X160617000Y-125753000D03*
D38*
X158077000Y-125753000D03*
X155537000Y-125753000D03*
D39*
X210947000Y-140716000D03*
X59182000Y-140843000D03*
X210820000Y-49530000D03*
X59182000Y-49403000D03*
M02*
