M48
; DRILL file {KiCad (5.1.8-0-10_14)} date Friday, November 13, 2020 at 05:21:36 PM
; FORMAT={-:-/ absolute / inch / decimal}
; #@! TF.CreationDate,2020-11-13T17:21:36+01:00
; #@! TF.GenerationSoftware,Kicad,Pcbnew,(5.1.8-0-10_14)
; #@! TF.FileFunction,Plated,1,2,PTH
FMAT,2
INCH
T1C0.0118
T2C0.0157
T3C0.0315
T4C0.0394
T5C0.0472
T6C0.0512
%
G90
G05
T1
X4.99Y-2.0125
X5.205Y-2.0875
X5.402Y-2.758
X5.412Y-2.04
T2
X4.37Y-1.3
X4.735Y-2.98
X4.96Y-1.47
X5.028Y-2.798
X5.266Y-2.702
X5.398Y-2.65
X5.406Y-1.96
T3
X5.2015Y-2.984
X5.3015Y-2.984
X5.4015Y-2.984
X4.7622Y-1.3
X4.9Y-1.3
X4.595Y-3.225
X4.7328Y-3.225
X5.216Y-2.2685
X5.316Y-2.2685
X5.416Y-2.2685
X3.535Y-2.19
X3.535Y-2.39
X3.835Y-2.19
X3.835Y-2.39
T4
X4.61Y-2.625
X4.71Y-2.625
X4.81Y-2.625
X4.615Y-1.935
X4.715Y-1.935
X4.815Y-1.935
T5
X4.145Y-1.7047
X4.145Y-2.0
X4.145Y-2.565
X4.145Y-2.8603
T6
X3.7Y-1.3
X5.684Y-2.65
X3.395Y-1.955
X5.39Y-1.3
X4.0Y-1.3
X5.09Y-3.295
X5.682Y-2.286
X3.4Y-2.29
X5.09Y-1.3
X3.395Y-2.65
X5.39Y-3.295
X5.682Y-1.96
T0
M30
