G04 #@! TF.GenerationSoftware,KiCad,Pcbnew,(5.1.9-0-10_14)*
G04 #@! TF.CreationDate,2021-02-09T19:29:29+01:00*
G04 #@! TF.ProjectId,hv-power-supply-v1,68762d70-6f77-4657-922d-737570706c79,rev?*
G04 #@! TF.SameCoordinates,Original*
G04 #@! TF.FileFunction,Copper,L2,Bot*
G04 #@! TF.FilePolarity,Positive*
%FSLAX46Y46*%
G04 Gerber Fmt 4.6, Leading zero omitted, Abs format (unit mm)*
G04 Created by KiCad (PCBNEW (5.1.9-0-10_14)) date 2021-02-09 19:29:29*
%MOMM*%
%LPD*%
G01*
G04 APERTURE LIST*
G04 #@! TA.AperFunction,ComponentPad*
%ADD10O,4.800600X2.400300*%
G04 #@! TD*
G04 #@! TA.AperFunction,ComponentPad*
%ADD11C,1.600000*%
G04 #@! TD*
G04 #@! TA.AperFunction,ComponentPad*
%ADD12R,1.600000X1.600000*%
G04 #@! TD*
G04 #@! TA.AperFunction,ComponentPad*
%ADD13O,2.400000X2.400000*%
G04 #@! TD*
G04 #@! TA.AperFunction,ComponentPad*
%ADD14C,2.400000*%
G04 #@! TD*
G04 #@! TA.AperFunction,ComponentPad*
%ADD15C,2.000000*%
G04 #@! TD*
G04 #@! TA.AperFunction,ComponentPad*
%ADD16O,1.600000X1.600000*%
G04 #@! TD*
G04 #@! TA.AperFunction,ComponentPad*
%ADD17O,1.905000X2.000000*%
G04 #@! TD*
G04 #@! TA.AperFunction,ComponentPad*
%ADD18R,1.905000X2.000000*%
G04 #@! TD*
G04 #@! TA.AperFunction,ComponentPad*
%ADD19C,2.600000*%
G04 #@! TD*
G04 #@! TA.AperFunction,ComponentPad*
%ADD20C,1.440000*%
G04 #@! TD*
G04 #@! TA.AperFunction,ComponentPad*
%ADD21O,2.500000X2.500000*%
G04 #@! TD*
G04 #@! TA.AperFunction,ComponentPad*
%ADD22R,2.500000X2.500000*%
G04 #@! TD*
G04 #@! TA.AperFunction,ComponentPad*
%ADD23O,2.200000X2.200000*%
G04 #@! TD*
G04 #@! TA.AperFunction,ComponentPad*
%ADD24R,2.200000X2.200000*%
G04 #@! TD*
G04 #@! TA.AperFunction,ComponentPad*
%ADD25C,4.000000*%
G04 #@! TD*
G04 #@! TA.AperFunction,ComponentPad*
%ADD26R,4.000000X4.000000*%
G04 #@! TD*
G04 #@! TA.AperFunction,ComponentPad*
%ADD27C,5.999480*%
G04 #@! TD*
G04 #@! TA.AperFunction,ComponentPad*
%ADD28R,1.800000X1.800000*%
G04 #@! TD*
G04 #@! TA.AperFunction,ComponentPad*
%ADD29O,1.800000X1.800000*%
G04 #@! TD*
G04 #@! TA.AperFunction,ViaPad*
%ADD30C,0.600000*%
G04 #@! TD*
G04 #@! TA.AperFunction,ViaPad*
%ADD31C,0.800000*%
G04 #@! TD*
G04 #@! TA.AperFunction,Conductor*
%ADD32C,1.000000*%
G04 #@! TD*
G04 #@! TA.AperFunction,Conductor*
%ADD33C,0.500000*%
G04 #@! TD*
G04 #@! TA.AperFunction,Conductor*
%ADD34C,0.250000*%
G04 #@! TD*
G04 APERTURE END LIST*
D10*
X64351000Y-100480000D03*
X74511000Y-100480000D03*
X74511000Y-120927000D03*
X64351000Y-120927000D03*
X74511000Y-115593000D03*
X64351000Y-115593000D03*
X64351000Y-105814000D03*
X74511000Y-105814000D03*
D11*
X127724000Y-120832000D03*
D12*
X127724000Y-122832000D03*
D11*
X176492000Y-120832000D03*
D12*
X176492000Y-122832000D03*
D11*
X161030000Y-121308000D03*
D12*
X163030000Y-121308000D03*
D13*
X85814000Y-88034000D03*
D14*
X70574000Y-88034000D03*
D15*
X70828000Y-69238000D03*
X80828000Y-69238000D03*
X70828000Y-82446000D03*
X80828000Y-82446000D03*
X70828000Y-64285000D03*
X80828000Y-64285000D03*
X70828000Y-50950000D03*
X80828000Y-50950000D03*
D16*
X182842000Y-74064000D03*
D11*
X193002000Y-74064000D03*
D16*
X166586000Y-90828000D03*
D11*
X166586000Y-80668000D03*
D16*
X161506000Y-64666000D03*
D11*
X151346000Y-64666000D03*
D16*
X174714000Y-74064000D03*
D11*
X174714000Y-63904000D03*
D17*
X170650000Y-59332000D03*
X168110000Y-59332000D03*
D18*
X165570000Y-59332000D03*
D17*
X164046000Y-70254000D03*
X161506000Y-70254000D03*
D18*
X158966000Y-70254000D03*
D17*
X75146000Y-135786000D03*
X72606000Y-135786000D03*
D18*
X70066000Y-135786000D03*
D19*
X137122000Y-139342000D03*
X137122000Y-130452000D03*
X185890000Y-139342000D03*
X185890000Y-130452000D03*
X58128000Y-100480000D03*
X58128000Y-115593000D03*
X59398000Y-75334000D03*
X59398000Y-66698000D03*
X59398000Y-58824000D03*
D11*
X137122000Y-123880000D03*
D12*
X137122000Y-125880000D03*
D11*
X185890000Y-123880000D03*
D12*
X185890000Y-125880000D03*
D11*
X112008000Y-121308000D03*
D12*
X114008000Y-121308000D03*
D11*
X75146000Y-127690000D03*
D12*
X75146000Y-129690000D03*
D20*
X136614000Y-82192000D03*
X136614000Y-79652000D03*
X136614000Y-77112000D03*
D21*
X183496000Y-101616000D03*
X198496000Y-101616000D03*
X203496000Y-101616000D03*
X208496000Y-101616000D03*
X208496000Y-109116000D03*
X203496000Y-109116000D03*
X198496000Y-109116000D03*
D22*
X183496000Y-109116000D03*
D16*
X179286000Y-84224000D03*
D11*
X179286000Y-74064000D03*
D13*
X136614000Y-65936000D03*
D14*
X136614000Y-50696000D03*
D16*
X184874000Y-89558000D03*
D11*
X174714000Y-89558000D03*
D16*
X174714000Y-86510000D03*
D11*
X174714000Y-76350000D03*
D15*
X84798000Y-139342000D03*
X80734000Y-139342000D03*
X95212000Y-139342000D03*
X91148000Y-139342000D03*
D19*
X196304000Y-139342000D03*
X203670000Y-139342000D03*
D23*
X121628000Y-136548000D03*
D24*
X111468000Y-136548000D03*
D23*
X170904000Y-136548000D03*
D24*
X160744000Y-136548000D03*
D25*
X93434000Y-108133000D03*
D26*
X93434000Y-118133000D03*
D11*
X138614000Y-71016000D03*
D12*
X136614000Y-71016000D03*
D14*
X129502000Y-50696000D03*
X129502000Y-65696000D03*
D25*
X102832000Y-70602000D03*
D26*
X102832000Y-60602000D03*
D14*
X65494000Y-86778000D03*
X65494000Y-71778000D03*
D27*
X180810000Y-55014000D03*
X155410000Y-55014000D03*
D28*
X168110000Y-129690000D03*
D29*
X165570000Y-129690000D03*
X163030000Y-129690000D03*
D27*
X178270000Y-133500000D03*
X152870000Y-133500000D03*
X103848000Y-133500000D03*
X129248000Y-133500000D03*
D28*
X119088000Y-129944000D03*
D29*
X116548000Y-129944000D03*
X114008000Y-129944000D03*
D30*
X89370000Y-133500000D03*
X121671000Y-100437000D03*
D31*
X100165000Y-115720000D03*
X100165000Y-120038000D03*
D30*
X142456000Y-82192000D03*
X166586000Y-74572000D03*
D31*
X73368000Y-57554000D03*
X73368000Y-75842000D03*
X78368000Y-57634000D03*
D30*
X159982000Y-76604000D03*
X144996000Y-79398000D03*
X151346000Y-70254000D03*
X128232000Y-102766000D03*
X158458000Y-102766000D03*
X143980000Y-88796000D03*
D32*
X59398000Y-76858000D02*
X59398000Y-75334000D01*
X70574000Y-88034000D02*
X59398000Y-76858000D01*
X62954000Y-71778000D02*
X59398000Y-75334000D01*
X65494000Y-71778000D02*
X62954000Y-71778000D01*
D33*
X59398000Y-66698000D02*
X70828000Y-66698000D01*
X70828000Y-66698000D02*
X70828000Y-64285000D01*
X70828000Y-69238000D02*
X70828000Y-66698000D01*
X160744000Y-136548000D02*
X162014000Y-136548000D01*
X163030000Y-135532000D02*
X163030000Y-129690000D01*
X162014000Y-136548000D02*
X163030000Y-135532000D01*
X114008000Y-134008000D02*
X111468000Y-136548000D01*
X114008000Y-129944000D02*
X114008000Y-134008000D01*
D32*
X74638000Y-118133000D02*
X74511000Y-118006000D01*
X93434000Y-118133000D02*
X74638000Y-118133000D01*
X74511000Y-118006000D02*
X74511000Y-115593000D01*
X74511000Y-120927000D02*
X74511000Y-118006000D01*
D33*
X93434000Y-118133000D02*
X82852998Y-118133000D01*
X70066000Y-135786000D02*
X70066000Y-128293000D01*
X70066000Y-128293000D02*
X74638000Y-123721000D01*
X87846000Y-123721000D02*
X93434000Y-118133000D01*
X74638000Y-123721000D02*
X87846000Y-123721000D01*
D32*
X163030000Y-119508000D02*
X163030000Y-121308000D01*
X161655000Y-118133000D02*
X163030000Y-119508000D01*
X163030000Y-121308000D02*
X163030000Y-129690000D01*
X114008000Y-118260000D02*
X114135000Y-118133000D01*
X114008000Y-121308000D02*
X114008000Y-118260000D01*
X114135000Y-118133000D02*
X161655000Y-118133000D01*
X93434000Y-118133000D02*
X114135000Y-118133000D01*
X114008000Y-121308000D02*
X114008000Y-129944000D01*
D33*
X75146000Y-135786000D02*
X75146000Y-129690000D01*
X77432000Y-133500000D02*
X75146000Y-135786000D01*
X80734000Y-133500000D02*
X77432000Y-133500000D01*
X80734000Y-139342000D02*
X80734000Y-133500000D01*
X89370000Y-133500000D02*
X80734000Y-133500000D01*
X171812000Y-97432000D02*
X183496000Y-109116000D01*
X121671000Y-97475000D02*
X121628000Y-97432000D01*
X121671000Y-100437000D02*
X121671000Y-97475000D01*
X121628000Y-97432000D02*
X171812000Y-97432000D01*
X121628000Y-97432000D02*
X118326000Y-97432000D01*
X100165000Y-115593000D02*
X100165000Y-115720000D01*
X118326000Y-97432000D02*
X100165000Y-115593000D01*
X86703000Y-133500000D02*
X100165000Y-120038000D01*
X77432000Y-133500000D02*
X80861000Y-133500000D01*
X80861000Y-133500000D02*
X86703000Y-133500000D01*
X80861000Y-133500000D02*
X82004000Y-133500000D01*
X184874000Y-89861998D02*
X184874000Y-89558000D01*
X196304000Y-101291998D02*
X184874000Y-89861998D01*
X196304000Y-139342000D02*
X196304000Y-101291998D01*
X193002000Y-74064000D02*
X194526000Y-74064000D01*
X208496000Y-88034000D02*
X208496000Y-101616000D01*
X194526000Y-74064000D02*
X208496000Y-88034000D01*
X208496000Y-101616000D02*
X208496000Y-109116000D01*
D34*
X139916000Y-79652000D02*
X142456000Y-82192000D01*
X136614000Y-79652000D02*
X139916000Y-79652000D01*
X174714000Y-63904000D02*
X168872000Y-63904000D01*
X166586000Y-66190000D02*
X166586000Y-74572000D01*
X168872000Y-63904000D02*
X166586000Y-66190000D01*
D32*
X64351000Y-105814000D02*
X64351000Y-115593000D01*
X58128000Y-115593000D02*
X64351000Y-115593000D01*
X67451310Y-117826690D02*
X67451310Y-117699690D01*
X64351000Y-120927000D02*
X67451310Y-117826690D01*
X67451310Y-117699690D02*
X69304000Y-115847000D01*
X69304000Y-105433000D02*
X64351000Y-100480000D01*
X69304000Y-115847000D02*
X69304000Y-105433000D01*
X58128000Y-100480000D02*
X64351000Y-100480000D01*
D33*
X73368000Y-57554000D02*
X73368000Y-75842000D01*
X72098000Y-58824000D02*
X73368000Y-57554000D01*
X59398000Y-58824000D02*
X72098000Y-58824000D01*
X99864000Y-57634000D02*
X102832000Y-60602000D01*
X78368000Y-57634000D02*
X99864000Y-57634000D01*
X168110000Y-57832000D02*
X168110000Y-59332000D01*
X160974000Y-50696000D02*
X168110000Y-57832000D01*
X136614000Y-50696000D02*
X129502000Y-50696000D01*
X112738000Y-50696000D02*
X102832000Y-60602000D01*
X129502000Y-50696000D02*
X112738000Y-50696000D01*
X151346000Y-50950000D02*
X151600000Y-50696000D01*
X151346000Y-64666000D02*
X151346000Y-50950000D01*
X151600000Y-50696000D02*
X136614000Y-50696000D01*
X160974000Y-50696000D02*
X151600000Y-50696000D01*
X136614000Y-77112000D02*
X136614000Y-71016000D01*
X136614000Y-71016000D02*
X136614000Y-65936000D01*
D32*
X185890000Y-125880000D02*
X185890000Y-130452000D01*
D33*
X165570000Y-131214000D02*
X165570000Y-129690000D01*
X170904000Y-136548000D02*
X165570000Y-131214000D01*
D32*
X168107208Y-125880000D02*
X185890000Y-125880000D01*
X165570000Y-128417208D02*
X168107208Y-125880000D01*
X165570000Y-129690000D02*
X165570000Y-128417208D01*
X137122000Y-125880000D02*
X137122000Y-130452000D01*
D33*
X116548000Y-131468000D02*
X121628000Y-136548000D01*
X116548000Y-129944000D02*
X116548000Y-131468000D01*
D32*
X116548000Y-128671208D02*
X119339208Y-125880000D01*
X119339208Y-125880000D02*
X137122000Y-125880000D01*
X116548000Y-129944000D02*
X116548000Y-128671208D01*
D34*
X174714000Y-74064000D02*
X172174000Y-76604000D01*
X172174000Y-76604000D02*
X159982000Y-76604000D01*
D33*
X174714000Y-74064000D02*
X174714000Y-76350000D01*
X174714000Y-74064000D02*
X179286000Y-74064000D01*
X179286000Y-74064000D02*
X182842000Y-74064000D01*
X203496000Y-101616000D02*
X203496000Y-109116000D01*
X203670000Y-109290000D02*
X203496000Y-109116000D01*
X203670000Y-139342000D02*
X203670000Y-109290000D01*
D34*
X144996000Y-76604000D02*
X151346000Y-70254000D01*
X144996000Y-79398000D02*
X144996000Y-76604000D01*
X128232000Y-102766000D02*
X158458000Y-102766000D01*
X161506000Y-64666000D02*
X161506000Y-70254000D01*
D33*
X174714000Y-86510000D02*
X174714000Y-89558000D01*
D34*
X146266000Y-86510000D02*
X143980000Y-88796000D01*
X174714000Y-86510000D02*
X146266000Y-86510000D01*
M02*
