M48
; DRILL file {KiCad (5.1.9-0-10_14)} date Monday, April 05, 2021 at 01:34:55 PM
; FORMAT={-:-/ absolute / inch / decimal}
; #@! TF.CreationDate,2021-04-05T13:34:55+02:00
; #@! TF.GenerationSoftware,Kicad,Pcbnew,(5.1.9-0-10_14)
; #@! TF.FileFunction,Plated,1,4,PTH
FMAT,2
INCH
T1C0.0079
T2C0.0118
T3C0.0315
T4C0.0394
T5C0.0433
T6C0.0472
%
G90
G05
T1
X4.6725Y-3.595
X4.695Y-2.9125
X4.695Y-3.11
X4.9025Y-4.32
X4.9875Y-4.2234
X4.9875Y-4.3575
X4.9875Y-4.42
X5.2031Y-3.2844
X5.2775Y-3.8575
X5.278Y-3.592
X5.3275Y-3.8575
X5.328Y-3.492
X5.35Y-2.758
X5.35Y-3.026
X5.378Y-3.722
X5.4269Y-3.8581
X5.4775Y-3.24
X5.4775Y-3.36
X5.4775Y-3.8575
X5.5069Y-3.9306
X5.528Y-3.498
X5.5775Y-3.355
X5.5775Y-3.5
X5.5775Y-3.8575
X5.6275Y-3.86
X5.6525Y-3.5425
X5.676Y-2.978
X5.6775Y-3.5
X5.6775Y-3.86
X5.678Y-2.744
X5.746Y-3.522
X5.905Y-3.355
X5.91Y-3.2275
X6.07Y-3.228
X6.072Y-3.356
X6.126Y-3.052
X6.126Y-3.134
X6.256Y-3.184
X6.262Y-3.236
X6.27Y-3.0871
X6.275Y-3.5975
X6.275Y-3.6975
X6.32Y-3.015
X6.32Y-3.296
X6.32Y-3.522
X6.36Y-3.244
X6.362Y-3.376
X6.3675Y-3.1471
X6.377Y-3.1255
X6.3823Y-2.7158
X6.3825Y-2.93
X6.3827Y-3.282
X6.3941Y-3.4919
X6.3941Y-3.5616
X6.3941Y-3.6541
X6.401Y-3.0243
X6.428Y-3.374
X6.458Y-3.25
X6.479Y-3.441
X6.524Y-2.856
X6.524Y-2.934
X6.5392Y-3.3768
X6.558Y-2.918
X6.6004Y-2.9284
X6.603Y-2.863
X6.648Y-2.744
X6.648Y-2.91
X6.661Y-3.295
X6.694Y-2.862
X6.711Y-3.243
X6.713Y-3.2017
X6.715Y-3.045
X6.717Y-3.1048
X6.717Y-3.869
X6.7255Y-3.0663
X6.758Y-2.862
X6.758Y-2.978
X6.785Y-3.729
X6.789Y-3.997
X6.791Y-3.165
X6.82Y-2.352
X6.82Y-2.438
X6.861Y-2.933
X7.007Y-2.833
X7.122Y-2.588
X7.15Y-2.546
T2
X5.1775Y-3.7925
X5.296Y-2.708
X5.296Y-2.978
X5.376Y-2.88
X5.376Y-3.148
X5.395Y-4.625
X5.8044Y-4.0931
X5.8075Y-4.0025
X5.86Y-3.094
X5.97Y-4.35
X6.007Y-3.818
X6.1199Y-2.4201
X6.178Y-3.204
X6.324Y-2.68
X6.385Y-4.0875
X6.5Y-4.6
X6.5175Y-3.7275
X6.694Y-2.482
X6.7314Y-2.4806
X6.732Y-2.292
X7.27Y-4.52
T3
X4.5285Y-2.76
X4.5285Y-2.86
X4.5285Y-2.96
X4.5285Y-3.275
X4.5285Y-3.375
X4.5285Y-3.475
X4.6375Y-3.885
X4.6375Y-3.985
X4.6375Y-4.085
X4.6375Y-4.185
X4.6375Y-4.285
X4.7375Y-3.935
X4.7375Y-4.035
X4.7375Y-4.135
X4.7375Y-4.235
X4.7375Y-4.335
X5.7347Y-4.3525
X5.8725Y-4.3525
X7.3891Y-2.5325
X7.3891Y-2.6325
X7.3891Y-2.7325
X7.3891Y-2.8325
X7.3891Y-2.9325
X7.39Y-3.4975
X7.39Y-3.5975
X7.39Y-3.6975
X7.39Y-3.7975
X7.39Y-3.8975
X7.4891Y-2.5825
X7.4891Y-2.6825
X7.4891Y-2.7825
X7.4891Y-2.8825
X7.4891Y-2.9825
X7.49Y-3.5475
X7.49Y-3.6475
X7.49Y-3.7475
X7.49Y-3.8475
X7.49Y-3.9475
T4
X4.8225Y-2.9125
X4.8225Y-3.0125
X4.8225Y-3.1125
X4.94Y-3.392
X4.94Y-3.492
X4.94Y-3.592
X4.94Y-3.692
X4.94Y-3.792
X4.94Y-3.892
X5.325Y-4.825
X5.3575Y-4.11
X5.4575Y-4.11
X5.5575Y-4.11
X5.575Y-4.825
X5.5775Y-3.2825
X5.6775Y-3.2825
X5.7775Y-3.2825
X5.87Y-4.825
X6.125Y-4.825
X6.5Y-4.825
X6.694Y-2.624
X6.75Y-4.825
X6.794Y-2.624
X6.894Y-2.624
X7.1Y-4.825
X7.245Y-2.4325
X7.245Y-2.5325
X7.245Y-2.6325
X7.245Y-2.7325
X7.245Y-2.8325
X7.245Y-2.9325
X7.245Y-3.0325
X7.245Y-3.1325
X7.245Y-3.3975
X7.245Y-3.4975
X7.245Y-3.5975
X7.245Y-3.6975
X7.245Y-3.7975
X7.245Y-3.8975
X7.245Y-3.9975
X7.245Y-4.0975
X7.34Y-4.825
T5
X4.425Y-2.76
X4.425Y-2.96
X4.425Y-3.275
X4.425Y-3.475
T6
X6.745Y-4.3456
X6.745Y-4.5425
T0
M30
