G04 #@! TF.GenerationSoftware,KiCad,Pcbnew,(5.1.10-0-10_14)*
G04 #@! TF.CreationDate,2021-08-03T18:31:46+02:00*
G04 #@! TF.ProjectId,hv-power-supply-v1,68762d70-6f77-4657-922d-737570706c79,rev?*
G04 #@! TF.SameCoordinates,Original*
G04 #@! TF.FileFunction,Copper,L2,Bot*
G04 #@! TF.FilePolarity,Positive*
%FSLAX46Y46*%
G04 Gerber Fmt 4.6, Leading zero omitted, Abs format (unit mm)*
G04 Created by KiCad (PCBNEW (5.1.10-0-10_14)) date 2021-08-03 18:31:46*
%MOMM*%
%LPD*%
G01*
G04 APERTURE LIST*
G04 #@! TA.AperFunction,ComponentPad*
%ADD10O,1.600000X1.600000*%
G04 #@! TD*
G04 #@! TA.AperFunction,ComponentPad*
%ADD11C,1.600000*%
G04 #@! TD*
G04 #@! TA.AperFunction,ComponentPad*
%ADD12C,2.400000*%
G04 #@! TD*
G04 #@! TA.AperFunction,ComponentPad*
%ADD13O,2.400000X2.400000*%
G04 #@! TD*
G04 #@! TA.AperFunction,ComponentPad*
%ADD14C,2.000000*%
G04 #@! TD*
G04 #@! TA.AperFunction,ComponentPad*
%ADD15C,6.000000*%
G04 #@! TD*
G04 #@! TA.AperFunction,ComponentPad*
%ADD16C,4.000000*%
G04 #@! TD*
G04 #@! TA.AperFunction,ComponentPad*
%ADD17R,4.000000X4.000000*%
G04 #@! TD*
G04 #@! TA.AperFunction,ComponentPad*
%ADD18R,2.000000X1.905000*%
G04 #@! TD*
G04 #@! TA.AperFunction,ComponentPad*
%ADD19O,2.000000X1.905000*%
G04 #@! TD*
G04 #@! TA.AperFunction,ComponentPad*
%ADD20O,4.800600X2.400300*%
G04 #@! TD*
G04 #@! TA.AperFunction,ComponentPad*
%ADD21R,1.600000X1.600000*%
G04 #@! TD*
G04 #@! TA.AperFunction,ComponentPad*
%ADD22O,1.905000X2.000000*%
G04 #@! TD*
G04 #@! TA.AperFunction,ComponentPad*
%ADD23R,1.905000X2.000000*%
G04 #@! TD*
G04 #@! TA.AperFunction,ComponentPad*
%ADD24C,2.600000*%
G04 #@! TD*
G04 #@! TA.AperFunction,ComponentPad*
%ADD25C,1.440000*%
G04 #@! TD*
G04 #@! TA.AperFunction,ComponentPad*
%ADD26O,2.500000X2.500000*%
G04 #@! TD*
G04 #@! TA.AperFunction,ComponentPad*
%ADD27R,2.500000X2.500000*%
G04 #@! TD*
G04 #@! TA.AperFunction,ComponentPad*
%ADD28R,1.800000X1.800000*%
G04 #@! TD*
G04 #@! TA.AperFunction,ComponentPad*
%ADD29O,1.800000X1.800000*%
G04 #@! TD*
G04 #@! TA.AperFunction,ViaPad*
%ADD30C,0.600000*%
G04 #@! TD*
G04 #@! TA.AperFunction,ViaPad*
%ADD31C,0.800000*%
G04 #@! TD*
G04 #@! TA.AperFunction,Conductor*
%ADD32C,1.000000*%
G04 #@! TD*
G04 #@! TA.AperFunction,Conductor*
%ADD33C,0.500000*%
G04 #@! TD*
G04 #@! TA.AperFunction,Conductor*
%ADD34C,0.250000*%
G04 #@! TD*
G04 APERTURE END LIST*
D10*
X62928500Y-110680500D03*
D11*
X62928500Y-120840500D03*
D12*
X73596500Y-57658000D03*
X73596500Y-72658000D03*
X196088000Y-110050000D03*
X196088000Y-82550000D03*
D13*
X73533000Y-91567000D03*
D12*
X73533000Y-76327000D03*
D14*
X65976500Y-57658000D03*
X65976500Y-67658000D03*
D15*
X124206000Y-135890000D03*
X124206000Y-110490000D03*
D16*
X99504500Y-115753000D03*
D17*
X99504500Y-125753000D03*
D18*
X128613000Y-125753000D03*
D19*
X128613000Y-123213000D03*
X128613000Y-120673000D03*
D16*
X155410000Y-60475000D03*
X180810000Y-60475000D03*
X145377000Y-129563000D03*
X170777000Y-129563000D03*
D13*
X208597500Y-102108000D03*
D12*
X208597500Y-117348000D03*
D20*
X68542000Y-110640000D03*
X78702000Y-110640000D03*
X78702000Y-131087000D03*
X68542000Y-131087000D03*
X78702000Y-125753000D03*
X68542000Y-125753000D03*
X68542000Y-115974000D03*
X78702000Y-115974000D03*
D11*
X163411000Y-117149000D03*
D21*
X163411000Y-119149000D03*
D13*
X65214500Y-95313500D03*
D12*
X65214500Y-80073500D03*
D10*
X166649500Y-99273500D03*
D11*
X166649500Y-89113500D03*
D10*
X156337000Y-74930000D03*
D11*
X146177000Y-74930000D03*
D10*
X174777500Y-82509500D03*
D11*
X174777500Y-72349500D03*
D22*
X170650000Y-64793000D03*
X168110000Y-64793000D03*
D23*
X165570000Y-64793000D03*
D24*
X162268000Y-139723000D03*
X156299000Y-139723000D03*
X59398000Y-110640000D03*
X59372500Y-125753000D03*
X59398000Y-75334000D03*
X59372500Y-67691000D03*
X59372500Y-57658000D03*
D11*
X160077000Y-134008000D03*
D21*
X158077000Y-134008000D03*
D25*
X145186500Y-87526000D03*
X145186500Y-84986000D03*
X145186500Y-82446000D03*
D26*
X183578500Y-125342000D03*
X198578500Y-125342000D03*
X203578500Y-125342000D03*
X208578500Y-125342000D03*
X208578500Y-132842000D03*
X203578500Y-132842000D03*
X198578500Y-132842000D03*
D27*
X183578500Y-132842000D03*
D10*
X179349500Y-92669500D03*
D11*
X179349500Y-82509500D03*
D13*
X141274800Y-78384400D03*
D12*
X141274800Y-63144400D03*
D10*
X184937500Y-98003500D03*
D11*
X174777500Y-98003500D03*
D10*
X174777500Y-94955500D03*
D11*
X174777500Y-84795500D03*
D14*
X108293000Y-139723000D03*
X114262000Y-139723000D03*
X79845000Y-139723000D03*
X85814000Y-139723000D03*
D24*
X192240000Y-139723000D03*
X203543000Y-139342000D03*
D11*
X139382500Y-84423000D03*
D21*
X139382500Y-82423000D03*
D12*
X134213600Y-63144400D03*
X134213600Y-78144400D03*
D16*
X112712500Y-73119000D03*
D17*
X112712500Y-63119000D03*
D12*
X59372500Y-95073500D03*
X59372500Y-80073500D03*
D28*
X160617000Y-125753000D03*
D29*
X158077000Y-125753000D03*
X155537000Y-125753000D03*
D30*
X141800500Y-104120000D03*
D31*
X117945000Y-122197000D03*
X117945000Y-129182000D03*
D30*
X90513000Y-138199000D03*
X167100000Y-77184500D03*
D31*
X148971000Y-80010000D03*
D30*
X166649500Y-83017500D03*
D31*
X174777500Y-68349000D03*
X88870900Y-58957100D03*
D30*
X150304500Y-88455500D03*
X160210500Y-86487000D03*
X153568500Y-84859000D03*
X148971000Y-85344000D03*
X153606500Y-82550000D03*
X148361500Y-106449000D03*
X158458000Y-106449000D03*
D31*
X152552500Y-91844000D03*
D30*
X169799000Y-107442000D03*
D31*
X152298500Y-132103000D03*
X79565500Y-65595500D03*
X83883500Y-65595500D03*
D32*
X59398000Y-80048000D02*
X59372500Y-80073500D01*
X59398000Y-75334000D02*
X59398000Y-80048000D01*
X59372500Y-80073500D02*
X65214500Y-80073500D01*
D33*
X141800500Y-104120000D02*
X174817000Y-104120000D01*
X141800500Y-107485500D02*
X128613000Y-120673000D01*
X141800500Y-104120000D02*
X141800500Y-107485500D01*
X119469000Y-120673000D02*
X117945000Y-122197000D01*
X128613000Y-120673000D02*
X119469000Y-120673000D01*
X117945000Y-136040000D02*
X114262000Y-139723000D01*
D34*
X90513000Y-138199000D02*
X90513000Y-137515500D01*
X92862500Y-135166000D02*
X117945000Y-135166000D01*
X90513000Y-137515500D02*
X92862500Y-135166000D01*
D33*
X117945000Y-135166000D02*
X117945000Y-136040000D01*
X117945000Y-129182000D02*
X117945000Y-135166000D01*
X185278501Y-114581501D02*
X174817000Y-104120000D01*
X185278501Y-131141999D02*
X185278501Y-114581501D01*
X183578500Y-132842000D02*
X185278501Y-131141999D01*
X184937500Y-98307498D02*
X184937500Y-98003500D01*
X151796500Y-77184500D02*
X148971000Y-80010000D01*
X167100000Y-77184500D02*
X151796500Y-77184500D01*
X208578500Y-132842000D02*
X208578500Y-125342000D01*
X208578500Y-117367000D02*
X208597500Y-117348000D01*
X208578500Y-125342000D02*
X208578500Y-117367000D01*
X174777500Y-72349500D02*
X174777500Y-68349000D01*
D34*
X166649500Y-83017500D02*
X166649500Y-80477500D01*
X166649500Y-80477500D02*
X174777500Y-72349500D01*
D33*
X134188200Y-63119000D02*
X134213600Y-63144400D01*
X112712500Y-63119000D02*
X134188200Y-63119000D01*
X134213600Y-63144400D02*
X141274800Y-63144400D01*
X168110000Y-64570498D02*
X166683902Y-63144400D01*
X168110000Y-64793000D02*
X168110000Y-64570498D01*
X146177000Y-63322200D02*
X145999200Y-63144400D01*
X146177000Y-74930000D02*
X146177000Y-63322200D01*
X145999200Y-63144400D02*
X141274800Y-63144400D01*
X166683902Y-63144400D02*
X145999200Y-63144400D01*
X108550600Y-58957100D02*
X112712500Y-63119000D01*
X88870900Y-58957100D02*
X108550600Y-58957100D01*
D34*
X145163500Y-82423000D02*
X145186500Y-82446000D01*
X139382500Y-82423000D02*
X145163500Y-82423000D01*
X141274800Y-80530700D02*
X139382500Y-82423000D01*
X141274800Y-78384400D02*
X141274800Y-80530700D01*
X146835000Y-84986000D02*
X145186500Y-84986000D01*
X150304500Y-88455500D02*
X146835000Y-84986000D01*
D32*
X158077000Y-125753000D02*
X158077000Y-134008000D01*
X158077000Y-137945000D02*
X156299000Y-139723000D01*
X158077000Y-134008000D02*
X158077000Y-137945000D01*
D33*
X174777500Y-82509500D02*
X174777500Y-84795500D01*
X176936500Y-82509500D02*
X179349500Y-82509500D01*
X174777500Y-82509500D02*
X176936500Y-82509500D01*
D34*
X161902000Y-84795500D02*
X160210500Y-86487000D01*
X174777500Y-84795500D02*
X161902000Y-84795500D01*
D33*
X208597500Y-86169500D02*
X208597500Y-102108000D01*
X179390000Y-82550000D02*
X179349500Y-82509500D01*
X196088000Y-82550000D02*
X179390000Y-82550000D01*
X204978000Y-82550000D02*
X208597500Y-86169500D01*
X196088000Y-82550000D02*
X204978000Y-82550000D01*
X203543000Y-132877500D02*
X203578500Y-132842000D01*
X203543000Y-139342000D02*
X203543000Y-132877500D01*
X203578500Y-132842000D02*
X203578500Y-125342000D01*
D34*
X149456000Y-84859000D02*
X153568500Y-84859000D01*
X148971000Y-85344000D02*
X149456000Y-84859000D01*
X153606500Y-84821000D02*
X153568500Y-84859000D01*
X153606500Y-82550000D02*
X153606500Y-84821000D01*
X148361500Y-106449000D02*
X158458000Y-106449000D01*
D33*
X174777500Y-94955500D02*
X174777500Y-98003500D01*
D34*
X171666000Y-91844000D02*
X174777500Y-94955500D01*
X152552500Y-91844000D02*
X171666000Y-91844000D01*
X183578500Y-121221500D02*
X183578500Y-125342000D01*
X169799000Y-107442000D02*
X183578500Y-121221500D01*
D33*
X73596500Y-76263500D02*
X73533000Y-76327000D01*
X73596500Y-72658000D02*
X73596500Y-76263500D01*
X152298500Y-128991500D02*
X155537000Y-125753000D01*
X152298500Y-132103000D02*
X152298500Y-128991500D01*
D32*
X155537000Y-125753000D02*
X128613000Y-125753000D01*
X99504500Y-125753000D02*
X128613000Y-125753000D01*
X78702000Y-131087000D02*
X78702000Y-125753000D01*
X78702000Y-125753000D02*
X99504500Y-125753000D01*
X68542000Y-115974000D02*
X68542000Y-125753000D01*
X71642310Y-127986690D02*
X71642310Y-127859690D01*
X68542000Y-131087000D02*
X71642310Y-127986690D01*
X71642310Y-127859690D02*
X73495000Y-126007000D01*
X73495000Y-115593000D02*
X68542000Y-110640000D01*
X73495000Y-126007000D02*
X73495000Y-115593000D01*
X62888000Y-110640000D02*
X62928500Y-110680500D01*
X59398000Y-110640000D02*
X62888000Y-110640000D01*
X68501500Y-110680500D02*
X68542000Y-110640000D01*
X62928500Y-110680500D02*
X68501500Y-110680500D01*
X59372500Y-125753000D02*
X68542000Y-125753000D01*
D33*
X65976500Y-57658000D02*
X73596500Y-57658000D01*
X59372500Y-57658000D02*
X65976500Y-57658000D01*
X73596500Y-62103000D02*
X73596500Y-57658000D01*
X77089000Y-65595500D02*
X73596500Y-62103000D01*
X79565500Y-65595500D02*
X77089000Y-65595500D01*
X69278500Y-70960000D02*
X65976500Y-67658000D01*
X69278500Y-87312500D02*
X69278500Y-70960000D01*
X73533000Y-91567000D02*
X69278500Y-87312500D01*
X65943500Y-67691000D02*
X65976500Y-67658000D01*
X59372500Y-67691000D02*
X65943500Y-67691000D01*
X73533000Y-91567000D02*
X77660500Y-87439500D01*
X77660500Y-71818500D02*
X83883500Y-65595500D01*
X77660500Y-87439500D02*
X77660500Y-71818500D01*
M02*
