G04 #@! TF.GenerationSoftware,KiCad,Pcbnew,(5.1.9-0-10_14)*
G04 #@! TF.CreationDate,2021-01-13T20:52:38+01:00*
G04 #@! TF.ProjectId,pre-amp-discret,7072652d-616d-4702-9d64-697363726574,rev?*
G04 #@! TF.SameCoordinates,Original*
G04 #@! TF.FileFunction,Soldermask,Top*
G04 #@! TF.FilePolarity,Negative*
%FSLAX46Y46*%
G04 Gerber Fmt 4.6, Leading zero omitted, Abs format (unit mm)*
G04 Created by KiCad (PCBNEW (5.1.9-0-10_14)) date 2021-01-13 20:52:38*
%MOMM*%
%LPD*%
G01*
G04 APERTURE LIST*
%ADD10C,1.600000*%
%ADD11R,1.600000X1.600000*%
%ADD12R,0.900000X0.800000*%
%ADD13C,2.000000*%
%ADD14C,3.200000*%
G04 APERTURE END LIST*
D10*
X131978400Y-118698000D03*
X131978400Y-123698000D03*
G36*
G01*
X143181200Y-120038000D02*
X143181200Y-119738000D01*
G75*
G02*
X143331200Y-119588000I150000J0D01*
G01*
X144981200Y-119588000D01*
G75*
G02*
X145131200Y-119738000I0J-150000D01*
G01*
X145131200Y-120038000D01*
G75*
G02*
X144981200Y-120188000I-150000J0D01*
G01*
X143331200Y-120188000D01*
G75*
G02*
X143181200Y-120038000I0J150000D01*
G01*
G37*
G36*
G01*
X143181200Y-121308000D02*
X143181200Y-121008000D01*
G75*
G02*
X143331200Y-120858000I150000J0D01*
G01*
X144981200Y-120858000D01*
G75*
G02*
X145131200Y-121008000I0J-150000D01*
G01*
X145131200Y-121308000D01*
G75*
G02*
X144981200Y-121458000I-150000J0D01*
G01*
X143331200Y-121458000D01*
G75*
G02*
X143181200Y-121308000I0J150000D01*
G01*
G37*
G36*
G01*
X143181200Y-122578000D02*
X143181200Y-122278000D01*
G75*
G02*
X143331200Y-122128000I150000J0D01*
G01*
X144981200Y-122128000D01*
G75*
G02*
X145131200Y-122278000I0J-150000D01*
G01*
X145131200Y-122578000D01*
G75*
G02*
X144981200Y-122728000I-150000J0D01*
G01*
X143331200Y-122728000D01*
G75*
G02*
X143181200Y-122578000I0J150000D01*
G01*
G37*
G36*
G01*
X143181200Y-123848000D02*
X143181200Y-123548000D01*
G75*
G02*
X143331200Y-123398000I150000J0D01*
G01*
X144981200Y-123398000D01*
G75*
G02*
X145131200Y-123548000I0J-150000D01*
G01*
X145131200Y-123848000D01*
G75*
G02*
X144981200Y-123998000I-150000J0D01*
G01*
X143331200Y-123998000D01*
G75*
G02*
X143181200Y-123848000I0J150000D01*
G01*
G37*
G36*
G01*
X143181200Y-125118000D02*
X143181200Y-124818000D01*
G75*
G02*
X143331200Y-124668000I150000J0D01*
G01*
X144981200Y-124668000D01*
G75*
G02*
X145131200Y-124818000I0J-150000D01*
G01*
X145131200Y-125118000D01*
G75*
G02*
X144981200Y-125268000I-150000J0D01*
G01*
X143331200Y-125268000D01*
G75*
G02*
X143181200Y-125118000I0J150000D01*
G01*
G37*
G36*
G01*
X143181200Y-126388000D02*
X143181200Y-126088000D01*
G75*
G02*
X143331200Y-125938000I150000J0D01*
G01*
X144981200Y-125938000D01*
G75*
G02*
X145131200Y-126088000I0J-150000D01*
G01*
X145131200Y-126388000D01*
G75*
G02*
X144981200Y-126538000I-150000J0D01*
G01*
X143331200Y-126538000D01*
G75*
G02*
X143181200Y-126388000I0J150000D01*
G01*
G37*
G36*
G01*
X143181200Y-127658000D02*
X143181200Y-127358000D01*
G75*
G02*
X143331200Y-127208000I150000J0D01*
G01*
X144981200Y-127208000D01*
G75*
G02*
X145131200Y-127358000I0J-150000D01*
G01*
X145131200Y-127658000D01*
G75*
G02*
X144981200Y-127808000I-150000J0D01*
G01*
X143331200Y-127808000D01*
G75*
G02*
X143181200Y-127658000I0J150000D01*
G01*
G37*
G36*
G01*
X138231200Y-127658000D02*
X138231200Y-127358000D01*
G75*
G02*
X138381200Y-127208000I150000J0D01*
G01*
X140031200Y-127208000D01*
G75*
G02*
X140181200Y-127358000I0J-150000D01*
G01*
X140181200Y-127658000D01*
G75*
G02*
X140031200Y-127808000I-150000J0D01*
G01*
X138381200Y-127808000D01*
G75*
G02*
X138231200Y-127658000I0J150000D01*
G01*
G37*
G36*
G01*
X138231200Y-126388000D02*
X138231200Y-126088000D01*
G75*
G02*
X138381200Y-125938000I150000J0D01*
G01*
X140031200Y-125938000D01*
G75*
G02*
X140181200Y-126088000I0J-150000D01*
G01*
X140181200Y-126388000D01*
G75*
G02*
X140031200Y-126538000I-150000J0D01*
G01*
X138381200Y-126538000D01*
G75*
G02*
X138231200Y-126388000I0J150000D01*
G01*
G37*
G36*
G01*
X138231200Y-125118000D02*
X138231200Y-124818000D01*
G75*
G02*
X138381200Y-124668000I150000J0D01*
G01*
X140031200Y-124668000D01*
G75*
G02*
X140181200Y-124818000I0J-150000D01*
G01*
X140181200Y-125118000D01*
G75*
G02*
X140031200Y-125268000I-150000J0D01*
G01*
X138381200Y-125268000D01*
G75*
G02*
X138231200Y-125118000I0J150000D01*
G01*
G37*
G36*
G01*
X138231200Y-123848000D02*
X138231200Y-123548000D01*
G75*
G02*
X138381200Y-123398000I150000J0D01*
G01*
X140031200Y-123398000D01*
G75*
G02*
X140181200Y-123548000I0J-150000D01*
G01*
X140181200Y-123848000D01*
G75*
G02*
X140031200Y-123998000I-150000J0D01*
G01*
X138381200Y-123998000D01*
G75*
G02*
X138231200Y-123848000I0J150000D01*
G01*
G37*
G36*
G01*
X138231200Y-122578000D02*
X138231200Y-122278000D01*
G75*
G02*
X138381200Y-122128000I150000J0D01*
G01*
X140031200Y-122128000D01*
G75*
G02*
X140181200Y-122278000I0J-150000D01*
G01*
X140181200Y-122578000D01*
G75*
G02*
X140031200Y-122728000I-150000J0D01*
G01*
X138381200Y-122728000D01*
G75*
G02*
X138231200Y-122578000I0J150000D01*
G01*
G37*
G36*
G01*
X138231200Y-121308000D02*
X138231200Y-121008000D01*
G75*
G02*
X138381200Y-120858000I150000J0D01*
G01*
X140031200Y-120858000D01*
G75*
G02*
X140181200Y-121008000I0J-150000D01*
G01*
X140181200Y-121308000D01*
G75*
G02*
X140031200Y-121458000I-150000J0D01*
G01*
X138381200Y-121458000D01*
G75*
G02*
X138231200Y-121308000I0J150000D01*
G01*
G37*
G36*
G01*
X138231200Y-120038000D02*
X138231200Y-119738000D01*
G75*
G02*
X138381200Y-119588000I150000J0D01*
G01*
X140031200Y-119588000D01*
G75*
G02*
X140181200Y-119738000I0J-150000D01*
G01*
X140181200Y-120038000D01*
G75*
G02*
X140031200Y-120188000I-150000J0D01*
G01*
X138381200Y-120188000D01*
G75*
G02*
X138231200Y-120038000I0J150000D01*
G01*
G37*
G36*
G01*
X145710100Y-133999000D02*
X145460100Y-133999000D01*
G75*
G02*
X145335100Y-133874000I0J125000D01*
G01*
X145335100Y-132699000D01*
G75*
G02*
X145460100Y-132574000I125000J0D01*
G01*
X145710100Y-132574000D01*
G75*
G02*
X145835100Y-132699000I0J-125000D01*
G01*
X145835100Y-133874000D01*
G75*
G02*
X145710100Y-133999000I-125000J0D01*
G01*
G37*
G36*
G01*
X146660100Y-133999000D02*
X146410100Y-133999000D01*
G75*
G02*
X146285100Y-133874000I0J125000D01*
G01*
X146285100Y-132699000D01*
G75*
G02*
X146410100Y-132574000I125000J0D01*
G01*
X146660100Y-132574000D01*
G75*
G02*
X146785100Y-132699000I0J-125000D01*
G01*
X146785100Y-133874000D01*
G75*
G02*
X146660100Y-133999000I-125000J0D01*
G01*
G37*
G36*
G01*
X147610100Y-133999000D02*
X147360100Y-133999000D01*
G75*
G02*
X147235100Y-133874000I0J125000D01*
G01*
X147235100Y-132699000D01*
G75*
G02*
X147360100Y-132574000I125000J0D01*
G01*
X147610100Y-132574000D01*
G75*
G02*
X147735100Y-132699000I0J-125000D01*
G01*
X147735100Y-133874000D01*
G75*
G02*
X147610100Y-133999000I-125000J0D01*
G01*
G37*
G36*
G01*
X147610100Y-136274000D02*
X147360100Y-136274000D01*
G75*
G02*
X147235100Y-136149000I0J125000D01*
G01*
X147235100Y-134974000D01*
G75*
G02*
X147360100Y-134849000I125000J0D01*
G01*
X147610100Y-134849000D01*
G75*
G02*
X147735100Y-134974000I0J-125000D01*
G01*
X147735100Y-136149000D01*
G75*
G02*
X147610100Y-136274000I-125000J0D01*
G01*
G37*
G36*
G01*
X146660100Y-136274000D02*
X146410100Y-136274000D01*
G75*
G02*
X146285100Y-136149000I0J125000D01*
G01*
X146285100Y-134974000D01*
G75*
G02*
X146410100Y-134849000I125000J0D01*
G01*
X146660100Y-134849000D01*
G75*
G02*
X146785100Y-134974000I0J-125000D01*
G01*
X146785100Y-136149000D01*
G75*
G02*
X146660100Y-136274000I-125000J0D01*
G01*
G37*
G36*
G01*
X145710100Y-136274000D02*
X145460100Y-136274000D01*
G75*
G02*
X145335100Y-136149000I0J125000D01*
G01*
X145335100Y-134974000D01*
G75*
G02*
X145460100Y-134849000I125000J0D01*
G01*
X145710100Y-134849000D01*
G75*
G02*
X145835100Y-134974000I0J-125000D01*
G01*
X145835100Y-136149000D01*
G75*
G02*
X145710100Y-136274000I-125000J0D01*
G01*
G37*
G36*
G01*
X177306000Y-117931700D02*
X177306000Y-118181700D01*
G75*
G02*
X177181000Y-118306700I-125000J0D01*
G01*
X176006000Y-118306700D01*
G75*
G02*
X175881000Y-118181700I0J125000D01*
G01*
X175881000Y-117931700D01*
G75*
G02*
X176006000Y-117806700I125000J0D01*
G01*
X177181000Y-117806700D01*
G75*
G02*
X177306000Y-117931700I0J-125000D01*
G01*
G37*
G36*
G01*
X177306000Y-116981700D02*
X177306000Y-117231700D01*
G75*
G02*
X177181000Y-117356700I-125000J0D01*
G01*
X176006000Y-117356700D01*
G75*
G02*
X175881000Y-117231700I0J125000D01*
G01*
X175881000Y-116981700D01*
G75*
G02*
X176006000Y-116856700I125000J0D01*
G01*
X177181000Y-116856700D01*
G75*
G02*
X177306000Y-116981700I0J-125000D01*
G01*
G37*
G36*
G01*
X177306000Y-116031700D02*
X177306000Y-116281700D01*
G75*
G02*
X177181000Y-116406700I-125000J0D01*
G01*
X176006000Y-116406700D01*
G75*
G02*
X175881000Y-116281700I0J125000D01*
G01*
X175881000Y-116031700D01*
G75*
G02*
X176006000Y-115906700I125000J0D01*
G01*
X177181000Y-115906700D01*
G75*
G02*
X177306000Y-116031700I0J-125000D01*
G01*
G37*
G36*
G01*
X179581000Y-116031700D02*
X179581000Y-116281700D01*
G75*
G02*
X179456000Y-116406700I-125000J0D01*
G01*
X178281000Y-116406700D01*
G75*
G02*
X178156000Y-116281700I0J125000D01*
G01*
X178156000Y-116031700D01*
G75*
G02*
X178281000Y-115906700I125000J0D01*
G01*
X179456000Y-115906700D01*
G75*
G02*
X179581000Y-116031700I0J-125000D01*
G01*
G37*
G36*
G01*
X179581000Y-116981700D02*
X179581000Y-117231700D01*
G75*
G02*
X179456000Y-117356700I-125000J0D01*
G01*
X178281000Y-117356700D01*
G75*
G02*
X178156000Y-117231700I0J125000D01*
G01*
X178156000Y-116981700D01*
G75*
G02*
X178281000Y-116856700I125000J0D01*
G01*
X179456000Y-116856700D01*
G75*
G02*
X179581000Y-116981700I0J-125000D01*
G01*
G37*
G36*
G01*
X179581000Y-117931700D02*
X179581000Y-118181700D01*
G75*
G02*
X179456000Y-118306700I-125000J0D01*
G01*
X178281000Y-118306700D01*
G75*
G02*
X178156000Y-118181700I0J125000D01*
G01*
X178156000Y-117931700D01*
G75*
G02*
X178281000Y-117806700I125000J0D01*
G01*
X179456000Y-117806700D01*
G75*
G02*
X179581000Y-117931700I0J-125000D01*
G01*
G37*
G36*
G01*
X156033500Y-116722700D02*
X156033500Y-116972700D01*
G75*
G02*
X155908500Y-117097700I-125000J0D01*
G01*
X154733500Y-117097700D01*
G75*
G02*
X154608500Y-116972700I0J125000D01*
G01*
X154608500Y-116722700D01*
G75*
G02*
X154733500Y-116597700I125000J0D01*
G01*
X155908500Y-116597700D01*
G75*
G02*
X156033500Y-116722700I0J-125000D01*
G01*
G37*
G36*
G01*
X156033500Y-115772700D02*
X156033500Y-116022700D01*
G75*
G02*
X155908500Y-116147700I-125000J0D01*
G01*
X154733500Y-116147700D01*
G75*
G02*
X154608500Y-116022700I0J125000D01*
G01*
X154608500Y-115772700D01*
G75*
G02*
X154733500Y-115647700I125000J0D01*
G01*
X155908500Y-115647700D01*
G75*
G02*
X156033500Y-115772700I0J-125000D01*
G01*
G37*
G36*
G01*
X156033500Y-114822700D02*
X156033500Y-115072700D01*
G75*
G02*
X155908500Y-115197700I-125000J0D01*
G01*
X154733500Y-115197700D01*
G75*
G02*
X154608500Y-115072700I0J125000D01*
G01*
X154608500Y-114822700D01*
G75*
G02*
X154733500Y-114697700I125000J0D01*
G01*
X155908500Y-114697700D01*
G75*
G02*
X156033500Y-114822700I0J-125000D01*
G01*
G37*
G36*
G01*
X158308500Y-114822700D02*
X158308500Y-115072700D01*
G75*
G02*
X158183500Y-115197700I-125000J0D01*
G01*
X157008500Y-115197700D01*
G75*
G02*
X156883500Y-115072700I0J125000D01*
G01*
X156883500Y-114822700D01*
G75*
G02*
X157008500Y-114697700I125000J0D01*
G01*
X158183500Y-114697700D01*
G75*
G02*
X158308500Y-114822700I0J-125000D01*
G01*
G37*
G36*
G01*
X158308500Y-115772700D02*
X158308500Y-116022700D01*
G75*
G02*
X158183500Y-116147700I-125000J0D01*
G01*
X157008500Y-116147700D01*
G75*
G02*
X156883500Y-116022700I0J125000D01*
G01*
X156883500Y-115772700D01*
G75*
G02*
X157008500Y-115647700I125000J0D01*
G01*
X158183500Y-115647700D01*
G75*
G02*
X158308500Y-115772700I0J-125000D01*
G01*
G37*
G36*
G01*
X158308500Y-116722700D02*
X158308500Y-116972700D01*
G75*
G02*
X158183500Y-117097700I-125000J0D01*
G01*
X157008500Y-117097700D01*
G75*
G02*
X156883500Y-116972700I0J125000D01*
G01*
X156883500Y-116722700D01*
G75*
G02*
X157008500Y-116597700I125000J0D01*
G01*
X158183500Y-116597700D01*
G75*
G02*
X158308500Y-116722700I0J-125000D01*
G01*
G37*
G36*
G01*
X145667000Y-112699400D02*
X145417000Y-112699400D01*
G75*
G02*
X145292000Y-112574400I0J125000D01*
G01*
X145292000Y-111399400D01*
G75*
G02*
X145417000Y-111274400I125000J0D01*
G01*
X145667000Y-111274400D01*
G75*
G02*
X145792000Y-111399400I0J-125000D01*
G01*
X145792000Y-112574400D01*
G75*
G02*
X145667000Y-112699400I-125000J0D01*
G01*
G37*
G36*
G01*
X146617000Y-112699400D02*
X146367000Y-112699400D01*
G75*
G02*
X146242000Y-112574400I0J125000D01*
G01*
X146242000Y-111399400D01*
G75*
G02*
X146367000Y-111274400I125000J0D01*
G01*
X146617000Y-111274400D01*
G75*
G02*
X146742000Y-111399400I0J-125000D01*
G01*
X146742000Y-112574400D01*
G75*
G02*
X146617000Y-112699400I-125000J0D01*
G01*
G37*
G36*
G01*
X147567000Y-112699400D02*
X147317000Y-112699400D01*
G75*
G02*
X147192000Y-112574400I0J125000D01*
G01*
X147192000Y-111399400D01*
G75*
G02*
X147317000Y-111274400I125000J0D01*
G01*
X147567000Y-111274400D01*
G75*
G02*
X147692000Y-111399400I0J-125000D01*
G01*
X147692000Y-112574400D01*
G75*
G02*
X147567000Y-112699400I-125000J0D01*
G01*
G37*
G36*
G01*
X147567000Y-114974400D02*
X147317000Y-114974400D01*
G75*
G02*
X147192000Y-114849400I0J125000D01*
G01*
X147192000Y-113674400D01*
G75*
G02*
X147317000Y-113549400I125000J0D01*
G01*
X147567000Y-113549400D01*
G75*
G02*
X147692000Y-113674400I0J-125000D01*
G01*
X147692000Y-114849400D01*
G75*
G02*
X147567000Y-114974400I-125000J0D01*
G01*
G37*
G36*
G01*
X146617000Y-114974400D02*
X146367000Y-114974400D01*
G75*
G02*
X146242000Y-114849400I0J125000D01*
G01*
X146242000Y-113674400D01*
G75*
G02*
X146367000Y-113549400I125000J0D01*
G01*
X146617000Y-113549400D01*
G75*
G02*
X146742000Y-113674400I0J-125000D01*
G01*
X146742000Y-114849400D01*
G75*
G02*
X146617000Y-114974400I-125000J0D01*
G01*
G37*
G36*
G01*
X145667000Y-114974400D02*
X145417000Y-114974400D01*
G75*
G02*
X145292000Y-114849400I0J125000D01*
G01*
X145292000Y-113674400D01*
G75*
G02*
X145417000Y-113549400I125000J0D01*
G01*
X145667000Y-113549400D01*
G75*
G02*
X145792000Y-113674400I0J-125000D01*
G01*
X145792000Y-114849400D01*
G75*
G02*
X145667000Y-114974400I-125000J0D01*
G01*
G37*
G36*
G01*
X157215300Y-128303800D02*
X157465300Y-128303800D01*
G75*
G02*
X157590300Y-128428800I0J-125000D01*
G01*
X157590300Y-129603800D01*
G75*
G02*
X157465300Y-129728800I-125000J0D01*
G01*
X157215300Y-129728800D01*
G75*
G02*
X157090300Y-129603800I0J125000D01*
G01*
X157090300Y-128428800D01*
G75*
G02*
X157215300Y-128303800I125000J0D01*
G01*
G37*
G36*
G01*
X156265300Y-128303800D02*
X156515300Y-128303800D01*
G75*
G02*
X156640300Y-128428800I0J-125000D01*
G01*
X156640300Y-129603800D01*
G75*
G02*
X156515300Y-129728800I-125000J0D01*
G01*
X156265300Y-129728800D01*
G75*
G02*
X156140300Y-129603800I0J125000D01*
G01*
X156140300Y-128428800D01*
G75*
G02*
X156265300Y-128303800I125000J0D01*
G01*
G37*
G36*
G01*
X155315300Y-128303800D02*
X155565300Y-128303800D01*
G75*
G02*
X155690300Y-128428800I0J-125000D01*
G01*
X155690300Y-129603800D01*
G75*
G02*
X155565300Y-129728800I-125000J0D01*
G01*
X155315300Y-129728800D01*
G75*
G02*
X155190300Y-129603800I0J125000D01*
G01*
X155190300Y-128428800D01*
G75*
G02*
X155315300Y-128303800I125000J0D01*
G01*
G37*
G36*
G01*
X155315300Y-126028800D02*
X155565300Y-126028800D01*
G75*
G02*
X155690300Y-126153800I0J-125000D01*
G01*
X155690300Y-127328800D01*
G75*
G02*
X155565300Y-127453800I-125000J0D01*
G01*
X155315300Y-127453800D01*
G75*
G02*
X155190300Y-127328800I0J125000D01*
G01*
X155190300Y-126153800D01*
G75*
G02*
X155315300Y-126028800I125000J0D01*
G01*
G37*
G36*
G01*
X156265300Y-126028800D02*
X156515300Y-126028800D01*
G75*
G02*
X156640300Y-126153800I0J-125000D01*
G01*
X156640300Y-127328800D01*
G75*
G02*
X156515300Y-127453800I-125000J0D01*
G01*
X156265300Y-127453800D01*
G75*
G02*
X156140300Y-127328800I0J125000D01*
G01*
X156140300Y-126153800D01*
G75*
G02*
X156265300Y-126028800I125000J0D01*
G01*
G37*
G36*
G01*
X157215300Y-126028800D02*
X157465300Y-126028800D01*
G75*
G02*
X157590300Y-126153800I0J-125000D01*
G01*
X157590300Y-127328800D01*
G75*
G02*
X157465300Y-127453800I-125000J0D01*
G01*
X157215300Y-127453800D01*
G75*
G02*
X157090300Y-127328800I0J125000D01*
G01*
X157090300Y-126153800D01*
G75*
G02*
X157215300Y-126028800I125000J0D01*
G01*
G37*
X176961800Y-102481500D03*
D11*
X176961800Y-105981500D03*
G36*
G01*
X146082599Y-138941000D02*
X146982601Y-138941000D01*
G75*
G02*
X147232600Y-139190999I0J-249999D01*
G01*
X147232600Y-139891001D01*
G75*
G02*
X146982601Y-140141000I-249999J0D01*
G01*
X146082599Y-140141000D01*
G75*
G02*
X145832600Y-139891001I0J249999D01*
G01*
X145832600Y-139190999D01*
G75*
G02*
X146082599Y-138941000I249999J0D01*
G01*
G37*
G36*
G01*
X146082599Y-136941000D02*
X146982601Y-136941000D01*
G75*
G02*
X147232600Y-137190999I0J-249999D01*
G01*
X147232600Y-137891001D01*
G75*
G02*
X146982601Y-138141000I-249999J0D01*
G01*
X146082599Y-138141000D01*
G75*
G02*
X145832600Y-137891001I0J249999D01*
G01*
X145832600Y-137190999D01*
G75*
G02*
X146082599Y-136941000I249999J0D01*
G01*
G37*
G36*
G01*
X146110500Y-130436199D02*
X146110500Y-131336201D01*
G75*
G02*
X145860501Y-131586200I-249999J0D01*
G01*
X145160499Y-131586200D01*
G75*
G02*
X144910500Y-131336201I0J249999D01*
G01*
X144910500Y-130436199D01*
G75*
G02*
X145160499Y-130186200I249999J0D01*
G01*
X145860501Y-130186200D01*
G75*
G02*
X146110500Y-130436199I0J-249999D01*
G01*
G37*
G36*
G01*
X148110500Y-130436199D02*
X148110500Y-131336201D01*
G75*
G02*
X147860501Y-131586200I-249999J0D01*
G01*
X147160499Y-131586200D01*
G75*
G02*
X146910500Y-131336201I0J249999D01*
G01*
X146910500Y-130436199D01*
G75*
G02*
X147160499Y-130186200I249999J0D01*
G01*
X147860501Y-130186200D01*
G75*
G02*
X148110500Y-130436199I0J-249999D01*
G01*
G37*
G36*
G01*
X145983500Y-116656699D02*
X145983500Y-117556701D01*
G75*
G02*
X145733501Y-117806700I-249999J0D01*
G01*
X145033499Y-117806700D01*
G75*
G02*
X144783500Y-117556701I0J249999D01*
G01*
X144783500Y-116656699D01*
G75*
G02*
X145033499Y-116406700I249999J0D01*
G01*
X145733501Y-116406700D01*
G75*
G02*
X145983500Y-116656699I0J-249999D01*
G01*
G37*
G36*
G01*
X147983500Y-116656699D02*
X147983500Y-117556701D01*
G75*
G02*
X147733501Y-117806700I-249999J0D01*
G01*
X147033499Y-117806700D01*
G75*
G02*
X146783500Y-117556701I0J249999D01*
G01*
X146783500Y-116656699D01*
G75*
G02*
X147033499Y-116406700I249999J0D01*
G01*
X147733501Y-116406700D01*
G75*
G02*
X147983500Y-116656699I0J-249999D01*
G01*
G37*
G36*
G01*
X146031799Y-109420100D02*
X146931801Y-109420100D01*
G75*
G02*
X147181800Y-109670099I0J-249999D01*
G01*
X147181800Y-110370101D01*
G75*
G02*
X146931801Y-110620100I-249999J0D01*
G01*
X146031799Y-110620100D01*
G75*
G02*
X145781800Y-110370101I0J249999D01*
G01*
X145781800Y-109670099D01*
G75*
G02*
X146031799Y-109420100I249999J0D01*
G01*
G37*
G36*
G01*
X146031799Y-107420100D02*
X146931801Y-107420100D01*
G75*
G02*
X147181800Y-107670099I0J-249999D01*
G01*
X147181800Y-108370101D01*
G75*
G02*
X146931801Y-108620100I-249999J0D01*
G01*
X146031799Y-108620100D01*
G75*
G02*
X145781800Y-108370101I0J249999D01*
G01*
X145781800Y-107670099D01*
G75*
G02*
X146031799Y-107420100I249999J0D01*
G01*
G37*
D12*
X148532600Y-128043900D03*
X146532600Y-128993900D03*
X146532600Y-127093900D03*
X149383500Y-119949000D03*
X147383500Y-120899000D03*
X147383500Y-118999000D03*
D10*
X155422600Y-137845800D03*
D11*
X155422600Y-141345800D03*
D10*
X155346400Y-102506900D03*
D11*
X155346400Y-106006900D03*
G36*
G01*
X143301299Y-136972500D02*
X144201301Y-136972500D01*
G75*
G02*
X144451300Y-137222499I0J-249999D01*
G01*
X144451300Y-137922501D01*
G75*
G02*
X144201301Y-138172500I-249999J0D01*
G01*
X143301299Y-138172500D01*
G75*
G02*
X143051300Y-137922501I0J249999D01*
G01*
X143051300Y-137222499D01*
G75*
G02*
X143301299Y-136972500I249999J0D01*
G01*
G37*
G36*
G01*
X143301299Y-134972500D02*
X144201301Y-134972500D01*
G75*
G02*
X144451300Y-135222499I0J-249999D01*
G01*
X144451300Y-135922501D01*
G75*
G02*
X144201301Y-136172500I-249999J0D01*
G01*
X143301299Y-136172500D01*
G75*
G02*
X143051300Y-135922501I0J249999D01*
G01*
X143051300Y-135222499D01*
G75*
G02*
X143301299Y-134972500I249999J0D01*
G01*
G37*
D10*
X166624000Y-117938800D03*
D11*
X166624000Y-119938800D03*
D12*
X165614600Y-112130800D03*
X167614600Y-111180800D03*
X167614600Y-113080800D03*
G36*
G01*
X180444700Y-122181199D02*
X180444700Y-123081201D01*
G75*
G02*
X180194701Y-123331200I-249999J0D01*
G01*
X179494699Y-123331200D01*
G75*
G02*
X179244700Y-123081201I0J249999D01*
G01*
X179244700Y-122181199D01*
G75*
G02*
X179494699Y-121931200I249999J0D01*
G01*
X180194701Y-121931200D01*
G75*
G02*
X180444700Y-122181199I0J-249999D01*
G01*
G37*
G36*
G01*
X182444700Y-122181199D02*
X182444700Y-123081201D01*
G75*
G02*
X182194701Y-123331200I-249999J0D01*
G01*
X181494699Y-123331200D01*
G75*
G02*
X181244700Y-123081201I0J249999D01*
G01*
X181244700Y-122181199D01*
G75*
G02*
X181494699Y-121931200I249999J0D01*
G01*
X182194701Y-121931200D01*
G75*
G02*
X182444700Y-122181199I0J-249999D01*
G01*
G37*
G36*
G01*
X181348801Y-114741500D02*
X180448799Y-114741500D01*
G75*
G02*
X180198800Y-114491501I0J249999D01*
G01*
X180198800Y-113791499D01*
G75*
G02*
X180448799Y-113541500I249999J0D01*
G01*
X181348801Y-113541500D01*
G75*
G02*
X181598800Y-113791499I0J-249999D01*
G01*
X181598800Y-114491501D01*
G75*
G02*
X181348801Y-114741500I-249999J0D01*
G01*
G37*
G36*
G01*
X181348801Y-116741500D02*
X180448799Y-116741500D01*
G75*
G02*
X180198800Y-116491501I0J249999D01*
G01*
X180198800Y-115791499D01*
G75*
G02*
X180448799Y-115541500I249999J0D01*
G01*
X181348801Y-115541500D01*
G75*
G02*
X181598800Y-115791499I0J-249999D01*
G01*
X181598800Y-116491501D01*
G75*
G02*
X181348801Y-116741500I-249999J0D01*
G01*
G37*
G36*
G01*
X169272799Y-135994600D02*
X170172801Y-135994600D01*
G75*
G02*
X170422800Y-136244599I0J-249999D01*
G01*
X170422800Y-136944601D01*
G75*
G02*
X170172801Y-137194600I-249999J0D01*
G01*
X169272799Y-137194600D01*
G75*
G02*
X169022800Y-136944601I0J249999D01*
G01*
X169022800Y-136244599D01*
G75*
G02*
X169272799Y-135994600I249999J0D01*
G01*
G37*
G36*
G01*
X169272799Y-133994600D02*
X170172801Y-133994600D01*
G75*
G02*
X170422800Y-134244599I0J-249999D01*
G01*
X170422800Y-134944601D01*
G75*
G02*
X170172801Y-135194600I-249999J0D01*
G01*
X169272799Y-135194600D01*
G75*
G02*
X169022800Y-134944601I0J249999D01*
G01*
X169022800Y-134244599D01*
G75*
G02*
X169272799Y-133994600I249999J0D01*
G01*
G37*
G36*
G01*
X167164599Y-108747000D02*
X168064601Y-108747000D01*
G75*
G02*
X168314600Y-108996999I0J-249999D01*
G01*
X168314600Y-109697001D01*
G75*
G02*
X168064601Y-109947000I-249999J0D01*
G01*
X167164599Y-109947000D01*
G75*
G02*
X166914600Y-109697001I0J249999D01*
G01*
X166914600Y-108996999D01*
G75*
G02*
X167164599Y-108747000I249999J0D01*
G01*
G37*
G36*
G01*
X167164599Y-106747000D02*
X168064601Y-106747000D01*
G75*
G02*
X168314600Y-106996999I0J-249999D01*
G01*
X168314600Y-107697001D01*
G75*
G02*
X168064601Y-107947000I-249999J0D01*
G01*
X167164599Y-107947000D01*
G75*
G02*
X166914600Y-107697001I0J249999D01*
G01*
X166914600Y-106996999D01*
G75*
G02*
X167164599Y-106747000I249999J0D01*
G01*
G37*
G36*
G01*
X154069201Y-127346000D02*
X153169199Y-127346000D01*
G75*
G02*
X152919200Y-127096001I0J249999D01*
G01*
X152919200Y-126395999D01*
G75*
G02*
X153169199Y-126146000I249999J0D01*
G01*
X154069201Y-126146000D01*
G75*
G02*
X154319200Y-126395999I0J-249999D01*
G01*
X154319200Y-127096001D01*
G75*
G02*
X154069201Y-127346000I-249999J0D01*
G01*
G37*
G36*
G01*
X154069201Y-129346000D02*
X153169199Y-129346000D01*
G75*
G02*
X152919200Y-129096001I0J249999D01*
G01*
X152919200Y-128395999D01*
G75*
G02*
X153169199Y-128146000I249999J0D01*
G01*
X154069201Y-128146000D01*
G75*
G02*
X154319200Y-128395999I0J-249999D01*
G01*
X154319200Y-129096001D01*
G75*
G02*
X154069201Y-129346000I-249999J0D01*
G01*
G37*
G36*
G01*
X148800399Y-111375900D02*
X149700401Y-111375900D01*
G75*
G02*
X149950400Y-111625899I0J-249999D01*
G01*
X149950400Y-112325901D01*
G75*
G02*
X149700401Y-112575900I-249999J0D01*
G01*
X148800399Y-112575900D01*
G75*
G02*
X148550400Y-112325901I0J249999D01*
G01*
X148550400Y-111625899D01*
G75*
G02*
X148800399Y-111375900I249999J0D01*
G01*
G37*
G36*
G01*
X148800399Y-109375900D02*
X149700401Y-109375900D01*
G75*
G02*
X149950400Y-109625899I0J-249999D01*
G01*
X149950400Y-110325901D01*
G75*
G02*
X149700401Y-110575900I-249999J0D01*
G01*
X148800399Y-110575900D01*
G75*
G02*
X148550400Y-110325901I0J249999D01*
G01*
X148550400Y-109625899D01*
G75*
G02*
X148800399Y-109375900I249999J0D01*
G01*
G37*
G36*
G01*
X156029200Y-130588599D02*
X156029200Y-131488601D01*
G75*
G02*
X155779201Y-131738600I-249999J0D01*
G01*
X155079199Y-131738600D01*
G75*
G02*
X154829200Y-131488601I0J249999D01*
G01*
X154829200Y-130588599D01*
G75*
G02*
X155079199Y-130338600I249999J0D01*
G01*
X155779201Y-130338600D01*
G75*
G02*
X156029200Y-130588599I0J-249999D01*
G01*
G37*
G36*
G01*
X158029200Y-130588599D02*
X158029200Y-131488601D01*
G75*
G02*
X157779201Y-131738600I-249999J0D01*
G01*
X157079199Y-131738600D01*
G75*
G02*
X156829200Y-131488601I0J249999D01*
G01*
X156829200Y-130588599D01*
G75*
G02*
X157079199Y-130338600I249999J0D01*
G01*
X157779201Y-130338600D01*
G75*
G02*
X158029200Y-130588599I0J-249999D01*
G01*
G37*
G36*
G01*
X143072699Y-113661900D02*
X143972701Y-113661900D01*
G75*
G02*
X144222700Y-113911899I0J-249999D01*
G01*
X144222700Y-114611901D01*
G75*
G02*
X143972701Y-114861900I-249999J0D01*
G01*
X143072699Y-114861900D01*
G75*
G02*
X142822700Y-114611901I0J249999D01*
G01*
X142822700Y-113911899D01*
G75*
G02*
X143072699Y-113661900I249999J0D01*
G01*
G37*
G36*
G01*
X143072699Y-111661900D02*
X143972701Y-111661900D01*
G75*
G02*
X144222700Y-111911899I0J-249999D01*
G01*
X144222700Y-112611901D01*
G75*
G02*
X143972701Y-112861900I-249999J0D01*
G01*
X143072699Y-112861900D01*
G75*
G02*
X142822700Y-112611901I0J249999D01*
G01*
X142822700Y-111911899D01*
G75*
G02*
X143072699Y-111661900I249999J0D01*
G01*
G37*
G36*
G01*
X168184500Y-114561600D02*
X168184500Y-115511600D01*
G75*
G02*
X167934500Y-115761600I-250000J0D01*
G01*
X167259500Y-115761600D01*
G75*
G02*
X167009500Y-115511600I0J250000D01*
G01*
X167009500Y-114561600D01*
G75*
G02*
X167259500Y-114311600I250000J0D01*
G01*
X167934500Y-114311600D01*
G75*
G02*
X168184500Y-114561600I0J-250000D01*
G01*
G37*
G36*
G01*
X170259500Y-114561600D02*
X170259500Y-115511600D01*
G75*
G02*
X170009500Y-115761600I-250000J0D01*
G01*
X169334500Y-115761600D01*
G75*
G02*
X169084500Y-115511600I0J250000D01*
G01*
X169084500Y-114561600D01*
G75*
G02*
X169334500Y-114311600I250000J0D01*
G01*
X170009500Y-114311600D01*
G75*
G02*
X170259500Y-114561600I0J-250000D01*
G01*
G37*
D10*
X138734800Y-137121900D03*
D11*
X135234800Y-137121900D03*
D10*
X138422500Y-105981500D03*
D11*
X141922500Y-105981500D03*
D10*
X179171600Y-137901800D03*
D11*
X179171600Y-141401800D03*
D10*
X141494500Y-142125700D03*
X146494500Y-142125700D03*
X146456400Y-105634800D03*
X146456400Y-100634800D03*
X184184300Y-128206500D03*
X179184300Y-128206500D03*
X176923700Y-111696500D03*
X181923700Y-111696500D03*
D13*
X184327800Y-117398800D03*
X184492900Y-122618500D03*
X198374000Y-121920000D03*
X125476000Y-118719600D03*
X198374000Y-130810000D03*
X125476000Y-125018800D03*
X198374000Y-113030000D03*
D12*
X174606200Y-128229400D03*
X176606200Y-127279400D03*
X176606200Y-129179400D03*
G36*
G01*
X156721000Y-113518101D02*
X156721000Y-112618099D01*
G75*
G02*
X156970999Y-112368100I249999J0D01*
G01*
X157671001Y-112368100D01*
G75*
G02*
X157921000Y-112618099I0J-249999D01*
G01*
X157921000Y-113518101D01*
G75*
G02*
X157671001Y-113768100I-249999J0D01*
G01*
X156970999Y-113768100D01*
G75*
G02*
X156721000Y-113518101I0J249999D01*
G01*
G37*
G36*
G01*
X154721000Y-113518101D02*
X154721000Y-112618099D01*
G75*
G02*
X154970999Y-112368100I249999J0D01*
G01*
X155671001Y-112368100D01*
G75*
G02*
X155921000Y-112618099I0J-249999D01*
G01*
X155921000Y-113518101D01*
G75*
G02*
X155671001Y-113768100I-249999J0D01*
G01*
X154970999Y-113768100D01*
G75*
G02*
X154721000Y-113518101I0J249999D01*
G01*
G37*
G36*
G01*
X168184500Y-128366500D02*
X168184500Y-129316500D01*
G75*
G02*
X167934500Y-129566500I-250000J0D01*
G01*
X167259500Y-129566500D01*
G75*
G02*
X167009500Y-129316500I0J250000D01*
G01*
X167009500Y-128366500D01*
G75*
G02*
X167259500Y-128116500I250000J0D01*
G01*
X167934500Y-128116500D01*
G75*
G02*
X168184500Y-128366500I0J-250000D01*
G01*
G37*
G36*
G01*
X170259500Y-128366500D02*
X170259500Y-129316500D01*
G75*
G02*
X170009500Y-129566500I-250000J0D01*
G01*
X169334500Y-129566500D01*
G75*
G02*
X169084500Y-129316500I0J250000D01*
G01*
X169084500Y-128366500D01*
G75*
G02*
X169334500Y-128116500I250000J0D01*
G01*
X170009500Y-128116500D01*
G75*
G02*
X170259500Y-128366500I0J-250000D01*
G01*
G37*
G36*
G01*
X170162200Y-124113800D02*
X171112200Y-124113800D01*
G75*
G02*
X171362200Y-124363800I0J-250000D01*
G01*
X171362200Y-125038800D01*
G75*
G02*
X171112200Y-125288800I-250000J0D01*
G01*
X170162200Y-125288800D01*
G75*
G02*
X169912200Y-125038800I0J250000D01*
G01*
X169912200Y-124363800D01*
G75*
G02*
X170162200Y-124113800I250000J0D01*
G01*
G37*
G36*
G01*
X170162200Y-122038800D02*
X171112200Y-122038800D01*
G75*
G02*
X171362200Y-122288800I0J-250000D01*
G01*
X171362200Y-122963800D01*
G75*
G02*
X171112200Y-123213800I-250000J0D01*
G01*
X170162200Y-123213800D01*
G75*
G02*
X169912200Y-122963800I0J250000D01*
G01*
X169912200Y-122288800D01*
G75*
G02*
X170162200Y-122038800I250000J0D01*
G01*
G37*
G36*
G01*
X131528399Y-127485600D02*
X132428401Y-127485600D01*
G75*
G02*
X132678400Y-127735599I0J-249999D01*
G01*
X132678400Y-128435601D01*
G75*
G02*
X132428401Y-128685600I-249999J0D01*
G01*
X131528399Y-128685600D01*
G75*
G02*
X131278400Y-128435601I0J249999D01*
G01*
X131278400Y-127735599D01*
G75*
G02*
X131528399Y-127485600I249999J0D01*
G01*
G37*
G36*
G01*
X131528399Y-125485600D02*
X132428401Y-125485600D01*
G75*
G02*
X132678400Y-125735599I0J-249999D01*
G01*
X132678400Y-126435601D01*
G75*
G02*
X132428401Y-126685600I-249999J0D01*
G01*
X131528399Y-126685600D01*
G75*
G02*
X131278400Y-126435601I0J249999D01*
G01*
X131278400Y-125735599D01*
G75*
G02*
X131528399Y-125485600I249999J0D01*
G01*
G37*
G36*
G01*
X178006200Y-114762701D02*
X178006200Y-113862699D01*
G75*
G02*
X178256199Y-113612700I249999J0D01*
G01*
X178956201Y-113612700D01*
G75*
G02*
X179206200Y-113862699I0J-249999D01*
G01*
X179206200Y-114762701D01*
G75*
G02*
X178956201Y-115012700I-249999J0D01*
G01*
X178256199Y-115012700D01*
G75*
G02*
X178006200Y-114762701I0J249999D01*
G01*
G37*
G36*
G01*
X176006200Y-114762701D02*
X176006200Y-113862699D01*
G75*
G02*
X176256199Y-113612700I249999J0D01*
G01*
X176956201Y-113612700D01*
G75*
G02*
X177206200Y-113862699I0J-249999D01*
G01*
X177206200Y-114762701D01*
G75*
G02*
X176956201Y-115012700I-249999J0D01*
G01*
X176256199Y-115012700D01*
G75*
G02*
X176006200Y-114762701I0J249999D01*
G01*
G37*
G36*
G01*
X171253999Y-108772400D02*
X172154001Y-108772400D01*
G75*
G02*
X172404000Y-109022399I0J-249999D01*
G01*
X172404000Y-109722401D01*
G75*
G02*
X172154001Y-109972400I-249999J0D01*
G01*
X171253999Y-109972400D01*
G75*
G02*
X171004000Y-109722401I0J249999D01*
G01*
X171004000Y-109022399D01*
G75*
G02*
X171253999Y-108772400I249999J0D01*
G01*
G37*
G36*
G01*
X171253999Y-106772400D02*
X172154001Y-106772400D01*
G75*
G02*
X172404000Y-107022399I0J-249999D01*
G01*
X172404000Y-107722401D01*
G75*
G02*
X172154001Y-107972400I-249999J0D01*
G01*
X171253999Y-107972400D01*
G75*
G02*
X171004000Y-107722401I0J249999D01*
G01*
X171004000Y-107022399D01*
G75*
G02*
X171253999Y-106772400I249999J0D01*
G01*
G37*
G36*
G01*
X164751599Y-136045400D02*
X165651601Y-136045400D01*
G75*
G02*
X165901600Y-136295399I0J-249999D01*
G01*
X165901600Y-136995401D01*
G75*
G02*
X165651601Y-137245400I-249999J0D01*
G01*
X164751599Y-137245400D01*
G75*
G02*
X164501600Y-136995401I0J249999D01*
G01*
X164501600Y-136295399D01*
G75*
G02*
X164751599Y-136045400I249999J0D01*
G01*
G37*
G36*
G01*
X164751599Y-134045400D02*
X165651601Y-134045400D01*
G75*
G02*
X165901600Y-134295399I0J-249999D01*
G01*
X165901600Y-134995401D01*
G75*
G02*
X165651601Y-135245400I-249999J0D01*
G01*
X164751599Y-135245400D01*
G75*
G02*
X164501600Y-134995401I0J249999D01*
G01*
X164501600Y-134295399D01*
G75*
G02*
X164751599Y-134045400I249999J0D01*
G01*
G37*
G36*
G01*
X168180599Y-124075900D02*
X169080601Y-124075900D01*
G75*
G02*
X169330600Y-124325899I0J-249999D01*
G01*
X169330600Y-125025901D01*
G75*
G02*
X169080601Y-125275900I-249999J0D01*
G01*
X168180599Y-125275900D01*
G75*
G02*
X167930600Y-125025901I0J249999D01*
G01*
X167930600Y-124325899D01*
G75*
G02*
X168180599Y-124075900I249999J0D01*
G01*
G37*
G36*
G01*
X168180599Y-122075900D02*
X169080601Y-122075900D01*
G75*
G02*
X169330600Y-122325899I0J-249999D01*
G01*
X169330600Y-123025901D01*
G75*
G02*
X169080601Y-123275900I-249999J0D01*
G01*
X168180599Y-123275900D01*
G75*
G02*
X167930600Y-123025901I0J249999D01*
G01*
X167930600Y-122325899D01*
G75*
G02*
X168180599Y-122075900I249999J0D01*
G01*
G37*
G36*
G01*
X167099401Y-123263200D02*
X166199399Y-123263200D01*
G75*
G02*
X165949400Y-123013201I0J249999D01*
G01*
X165949400Y-122313199D01*
G75*
G02*
X166199399Y-122063200I249999J0D01*
G01*
X167099401Y-122063200D01*
G75*
G02*
X167349400Y-122313199I0J-249999D01*
G01*
X167349400Y-123013201D01*
G75*
G02*
X167099401Y-123263200I-249999J0D01*
G01*
G37*
G36*
G01*
X167099401Y-125263200D02*
X166199399Y-125263200D01*
G75*
G02*
X165949400Y-125013201I0J249999D01*
G01*
X165949400Y-124313199D01*
G75*
G02*
X166199399Y-124063200I249999J0D01*
G01*
X167099401Y-124063200D01*
G75*
G02*
X167349400Y-124313199I0J-249999D01*
G01*
X167349400Y-125013201D01*
G75*
G02*
X167099401Y-125263200I-249999J0D01*
G01*
G37*
G36*
G01*
X160076301Y-114487500D02*
X159176299Y-114487500D01*
G75*
G02*
X158926300Y-114237501I0J249999D01*
G01*
X158926300Y-113537499D01*
G75*
G02*
X159176299Y-113287500I249999J0D01*
G01*
X160076301Y-113287500D01*
G75*
G02*
X160326300Y-113537499I0J-249999D01*
G01*
X160326300Y-114237501D01*
G75*
G02*
X160076301Y-114487500I-249999J0D01*
G01*
G37*
G36*
G01*
X160076301Y-116487500D02*
X159176299Y-116487500D01*
G75*
G02*
X158926300Y-116237501I0J249999D01*
G01*
X158926300Y-115537499D01*
G75*
G02*
X159176299Y-115287500I249999J0D01*
G01*
X160076301Y-115287500D01*
G75*
G02*
X160326300Y-115537499I0J-249999D01*
G01*
X160326300Y-116237501D01*
G75*
G02*
X160076301Y-116487500I-249999J0D01*
G01*
G37*
G36*
G01*
X148876599Y-134661100D02*
X149776601Y-134661100D01*
G75*
G02*
X150026600Y-134911099I0J-249999D01*
G01*
X150026600Y-135611101D01*
G75*
G02*
X149776601Y-135861100I-249999J0D01*
G01*
X148876599Y-135861100D01*
G75*
G02*
X148626600Y-135611101I0J249999D01*
G01*
X148626600Y-134911099D01*
G75*
G02*
X148876599Y-134661100I249999J0D01*
G01*
G37*
G36*
G01*
X148876599Y-132661100D02*
X149776601Y-132661100D01*
G75*
G02*
X150026600Y-132911099I0J-249999D01*
G01*
X150026600Y-133611101D01*
G75*
G02*
X149776601Y-133861100I-249999J0D01*
G01*
X148876599Y-133861100D01*
G75*
G02*
X148626600Y-133611101I0J249999D01*
G01*
X148626600Y-132911099D01*
G75*
G02*
X148876599Y-132661100I249999J0D01*
G01*
G37*
X171735500Y-131760000D03*
X169735500Y-132710000D03*
X169735500Y-130810000D03*
X169704000Y-112130800D03*
X171704000Y-111180800D03*
X171704000Y-113080800D03*
X167195500Y-131826000D03*
X165195500Y-132776000D03*
X165195500Y-130876000D03*
D14*
X126238000Y-100330000D03*
X125984000Y-143510000D03*
X199644000Y-143510000D03*
X199644000Y-100330000D03*
M02*
