G04 #@! TF.GenerationSoftware,KiCad,Pcbnew,(5.1.9-0-10_14)*
G04 #@! TF.CreationDate,2021-02-19T16:09:10+01:00*
G04 #@! TF.ProjectId,pre-amp-6SN7,7072652d-616d-4702-9d36-534e372e6b69,rev?*
G04 #@! TF.SameCoordinates,Original*
G04 #@! TF.FileFunction,Soldermask,Bot*
G04 #@! TF.FilePolarity,Negative*
%FSLAX46Y46*%
G04 Gerber Fmt 4.6, Leading zero omitted, Abs format (unit mm)*
G04 Created by KiCad (PCBNEW (5.1.9-0-10_14)) date 2021-02-19 16:09:10*
%MOMM*%
%LPD*%
G01*
G04 APERTURE LIST*
%ADD10C,2.600000*%
%ADD11C,2.400000*%
%ADD12O,4.000000X4.000000*%
%ADD13R,4.000000X4.000000*%
%ADD14R,2.100000X2.600000*%
%ADD15R,2.600000X2.100000*%
%ADD16C,2.000000*%
%ADD17R,2.400000X2.400000*%
%ADD18C,1.600000*%
%ADD19C,3.200000*%
G04 APERTURE END LIST*
D10*
X86360000Y-69850000D03*
X80010000Y-69850000D03*
D11*
X124587000Y-106299000D03*
X152087000Y-106299000D03*
X133745000Y-96647000D03*
X118745000Y-96647000D03*
X124714000Y-148082000D03*
X152214000Y-148082000D03*
X133872000Y-138430000D03*
X118872000Y-138430000D03*
D12*
X85231401Y-98918599D03*
X92537548Y-106224746D03*
X102870000Y-106224746D03*
X110176147Y-98918599D03*
X110176147Y-88586147D03*
X102870000Y-81280000D03*
X92537548Y-81280000D03*
D13*
X85231401Y-88586147D03*
D12*
X85280500Y-140779500D03*
X92586647Y-148085647D03*
X102919099Y-148085647D03*
X110225246Y-140779500D03*
X110225246Y-130447048D03*
X102919099Y-123140901D03*
X92586647Y-123140901D03*
D13*
X85280500Y-130447048D03*
D14*
X97409000Y-87249000D03*
X102309000Y-87249000D03*
D15*
X104267000Y-93980000D03*
X104267000Y-98880000D03*
X97409000Y-93980000D03*
X97409000Y-98880000D03*
D14*
X97409000Y-128905000D03*
X102309000Y-128905000D03*
D16*
X162052000Y-96520000D03*
X162052000Y-106299000D03*
X43180000Y-105664000D03*
X43180000Y-93472000D03*
D11*
X128150000Y-83312000D03*
D17*
X120650000Y-83312000D03*
D11*
X69843000Y-112522000D03*
D17*
X77343000Y-112522000D03*
D18*
X85217000Y-117522000D03*
X85217000Y-112522000D03*
X48975000Y-93472000D03*
X53975000Y-93472000D03*
D11*
X69970000Y-153289000D03*
D17*
X77470000Y-153289000D03*
D18*
X85090000Y-158289000D03*
X85090000Y-153289000D03*
D10*
X67310000Y-69850000D03*
X73660000Y-69850000D03*
D15*
X104267000Y-135816000D03*
X104267000Y-140716000D03*
X97409000Y-135816000D03*
X97409000Y-140716000D03*
D16*
X162052000Y-138430000D03*
X162052000Y-148082000D03*
D10*
X107442000Y-70866000D03*
X120650000Y-69850000D03*
D16*
X43180000Y-123190000D03*
X43180000Y-135382000D03*
D19*
X161290000Y-71120000D03*
X161290000Y-157480000D03*
X44450000Y-157480000D03*
X44450000Y-71120000D03*
D11*
X128150000Y-124968000D03*
D17*
X120650000Y-124968000D03*
D18*
X48975000Y-135382000D03*
X53975000Y-135382000D03*
M02*
