M48
; DRILL file {KiCad (5.1.12-1-10_14)} date 2021 December 13, Monday 19:53:09
; FORMAT={-:-/ absolute / inch / decimal}
; #@! TF.CreationDate,2021-12-13T19:53:09+01:00
; #@! TF.GenerationSoftware,Kicad,Pcbnew,(5.1.12-1-10_14)
; #@! TF.FileFunction,Plated,1,2,PTH
FMAT,2
INCH
T1C0.0315
T2C0.0472
T3C0.0512
T4C0.0630
T5C0.0787
%
G90
G05
T1
X3.525Y-1.45
X3.525Y-1.6469
X3.525Y-1.775
X3.525Y-1.9719
T2
X-0.7Y-2.625
X-0.7Y-2.85
X-0.1094Y-2.85
X-0.1Y-2.625
T3
X-0.7Y-1.5
X-0.7Y-1.6969
X-0.7Y-1.8937
X-0.7Y-2.325
X3.76Y-1.5031
X3.76Y-1.7
X3.76Y-1.8969
T4
X-0.125Y-1.25
X-0.125Y-1.5
X-0.125Y-1.925
X-0.125Y-2.175
X0.275Y-1.25
X0.275Y-1.5
X0.275Y-1.925
X0.275Y-2.175
T5
X1.15Y-2.3313
X1.15Y-2.725
X1.155Y-0.7063
X1.155Y-1.1
X2.8Y-0.7063
X2.8Y-1.1
X2.8Y-2.3313
X2.8Y-2.725
T0
M30
