G04 #@! TF.GenerationSoftware,KiCad,Pcbnew,(5.1.12-1-10_14)*
G04 #@! TF.CreationDate,2021-12-13T19:52:56+01:00*
G04 #@! TF.ProjectId,psu-mosfet-160w,7073752d-6d6f-4736-9665-742d31363077,rev?*
G04 #@! TF.SameCoordinates,Original*
G04 #@! TF.FileFunction,Copper,L1,Top*
G04 #@! TF.FilePolarity,Positive*
%FSLAX46Y46*%
G04 Gerber Fmt 4.6, Leading zero omitted, Abs format (unit mm)*
G04 Created by KiCad (PCBNEW (5.1.12-1-10_14)) date 2021-12-13 19:52:56*
%MOMM*%
%LPD*%
G01*
G04 APERTURE LIST*
G04 #@! TA.AperFunction,ComponentPad*
%ADD10O,4.800600X2.400300*%
G04 #@! TD*
G04 #@! TA.AperFunction,ComponentPad*
%ADD11C,1.600000*%
G04 #@! TD*
G04 #@! TA.AperFunction,ComponentPad*
%ADD12O,2.400000X2.400000*%
G04 #@! TD*
G04 #@! TA.AperFunction,ComponentPad*
%ADD13C,2.400000*%
G04 #@! TD*
G04 #@! TA.AperFunction,ComponentPad*
%ADD14C,2.500000*%
G04 #@! TD*
G04 #@! TA.AperFunction,ComponentPad*
%ADD15R,2.500000X2.500000*%
G04 #@! TD*
G04 #@! TA.AperFunction,ComponentPad*
%ADD16C,2.600000*%
G04 #@! TD*
G04 #@! TA.AperFunction,ComponentPad*
%ADD17C,4.000000*%
G04 #@! TD*
G04 #@! TA.AperFunction,ComponentPad*
%ADD18R,4.000000X4.000000*%
G04 #@! TD*
G04 #@! TA.AperFunction,Conductor*
%ADD19C,3.000000*%
G04 #@! TD*
G04 #@! TA.AperFunction,Conductor*
%ADD20C,1.000000*%
G04 #@! TD*
G04 #@! TA.AperFunction,Conductor*
%ADD21C,0.254000*%
G04 #@! TD*
G04 #@! TA.AperFunction,Conductor*
%ADD22C,0.100000*%
G04 #@! TD*
G04 APERTURE END LIST*
G04 #@! TA.AperFunction,SMDPad,CuDef*
G36*
G01*
X-9340001Y-51835000D02*
X-8439999Y-51835000D01*
G75*
G02*
X-8190000Y-52084999I0J-249999D01*
G01*
X-8190000Y-52785001D01*
G75*
G02*
X-8439999Y-53035000I-249999J0D01*
G01*
X-9340001Y-53035000D01*
G75*
G02*
X-9590000Y-52785001I0J249999D01*
G01*
X-9590000Y-52084999D01*
G75*
G02*
X-9340001Y-51835000I249999J0D01*
G01*
G37*
G04 #@! TD.AperFunction*
G04 #@! TA.AperFunction,SMDPad,CuDef*
G36*
G01*
X-9340001Y-49835000D02*
X-8439999Y-49835000D01*
G75*
G02*
X-8190000Y-50084999I0J-249999D01*
G01*
X-8190000Y-50785001D01*
G75*
G02*
X-8439999Y-51035000I-249999J0D01*
G01*
X-9340001Y-51035000D01*
G75*
G02*
X-9590000Y-50785001I0J249999D01*
G01*
X-9590000Y-50084999D01*
G75*
G02*
X-9340001Y-49835000I249999J0D01*
G01*
G37*
G04 #@! TD.AperFunction*
G04 #@! TA.AperFunction,SMDPad,CuDef*
G36*
G01*
X-9340001Y-40770000D02*
X-8439999Y-40770000D01*
G75*
G02*
X-8190000Y-41019999I0J-249999D01*
G01*
X-8190000Y-41720001D01*
G75*
G02*
X-8439999Y-41970000I-249999J0D01*
G01*
X-9340001Y-41970000D01*
G75*
G02*
X-9590000Y-41720001I0J249999D01*
G01*
X-9590000Y-41019999D01*
G75*
G02*
X-9340001Y-40770000I249999J0D01*
G01*
G37*
G04 #@! TD.AperFunction*
G04 #@! TA.AperFunction,SMDPad,CuDef*
G36*
G01*
X-9340001Y-38770000D02*
X-8439999Y-38770000D01*
G75*
G02*
X-8190000Y-39019999I0J-249999D01*
G01*
X-8190000Y-39720001D01*
G75*
G02*
X-8439999Y-39970000I-249999J0D01*
G01*
X-9340001Y-39970000D01*
G75*
G02*
X-9590000Y-39720001I0J249999D01*
G01*
X-9590000Y-39019999D01*
G75*
G02*
X-9340001Y-38770000I249999J0D01*
G01*
G37*
G04 #@! TD.AperFunction*
G04 #@! TA.AperFunction,SMDPad,CuDef*
G36*
G01*
X-9540001Y-47547500D02*
X-8239999Y-47547500D01*
G75*
G02*
X-7990000Y-47797499I0J-249999D01*
G01*
X-7990000Y-48622501D01*
G75*
G02*
X-8239999Y-48872500I-249999J0D01*
G01*
X-9540001Y-48872500D01*
G75*
G02*
X-9790000Y-48622501I0J249999D01*
G01*
X-9790000Y-47797499D01*
G75*
G02*
X-9540001Y-47547500I249999J0D01*
G01*
G37*
G04 #@! TD.AperFunction*
G04 #@! TA.AperFunction,SMDPad,CuDef*
G36*
G01*
X-9540001Y-44422500D02*
X-8239999Y-44422500D01*
G75*
G02*
X-7990000Y-44672499I0J-249999D01*
G01*
X-7990000Y-45497501D01*
G75*
G02*
X-8239999Y-45747500I-249999J0D01*
G01*
X-9540001Y-45747500D01*
G75*
G02*
X-9790000Y-45497501I0J249999D01*
G01*
X-9790000Y-44672499D01*
G75*
G02*
X-9540001Y-44422500I249999J0D01*
G01*
G37*
G04 #@! TD.AperFunction*
G04 #@! TA.AperFunction,SMDPad,CuDef*
G36*
G01*
X-9540001Y-36802500D02*
X-8239999Y-36802500D01*
G75*
G02*
X-7990000Y-37052499I0J-249999D01*
G01*
X-7990000Y-37877501D01*
G75*
G02*
X-8239999Y-38127500I-249999J0D01*
G01*
X-9540001Y-38127500D01*
G75*
G02*
X-9790000Y-37877501I0J249999D01*
G01*
X-9790000Y-37052499D01*
G75*
G02*
X-9540001Y-36802500I249999J0D01*
G01*
G37*
G04 #@! TD.AperFunction*
G04 #@! TA.AperFunction,SMDPad,CuDef*
G36*
G01*
X-9540001Y-33677500D02*
X-8239999Y-33677500D01*
G75*
G02*
X-7990000Y-33927499I0J-249999D01*
G01*
X-7990000Y-34752501D01*
G75*
G02*
X-8239999Y-35002500I-249999J0D01*
G01*
X-9540001Y-35002500D01*
G75*
G02*
X-9790000Y-34752501I0J249999D01*
G01*
X-9790000Y-33927499D01*
G75*
G02*
X-9540001Y-33677500I249999J0D01*
G01*
G37*
G04 #@! TD.AperFunction*
G04 #@! TA.AperFunction,SMDPad,CuDef*
G36*
G01*
X-11905000Y-49112500D02*
X-10955000Y-49112500D01*
G75*
G02*
X-10705000Y-49362500I0J-250000D01*
G01*
X-10705000Y-50037500D01*
G75*
G02*
X-10955000Y-50287500I-250000J0D01*
G01*
X-11905000Y-50287500D01*
G75*
G02*
X-12155000Y-50037500I0J250000D01*
G01*
X-12155000Y-49362500D01*
G75*
G02*
X-11905000Y-49112500I250000J0D01*
G01*
G37*
G04 #@! TD.AperFunction*
G04 #@! TA.AperFunction,SMDPad,CuDef*
G36*
G01*
X-11905000Y-47037500D02*
X-10955000Y-47037500D01*
G75*
G02*
X-10705000Y-47287500I0J-250000D01*
G01*
X-10705000Y-47962500D01*
G75*
G02*
X-10955000Y-48212500I-250000J0D01*
G01*
X-11905000Y-48212500D01*
G75*
G02*
X-12155000Y-47962500I0J250000D01*
G01*
X-12155000Y-47287500D01*
G75*
G02*
X-11905000Y-47037500I250000J0D01*
G01*
G37*
G04 #@! TD.AperFunction*
G04 #@! TA.AperFunction,SMDPad,CuDef*
G36*
G01*
X-11905000Y-38147500D02*
X-10955000Y-38147500D01*
G75*
G02*
X-10705000Y-38397500I0J-250000D01*
G01*
X-10705000Y-39072500D01*
G75*
G02*
X-10955000Y-39322500I-250000J0D01*
G01*
X-11905000Y-39322500D01*
G75*
G02*
X-12155000Y-39072500I0J250000D01*
G01*
X-12155000Y-38397500D01*
G75*
G02*
X-11905000Y-38147500I250000J0D01*
G01*
G37*
G04 #@! TD.AperFunction*
G04 #@! TA.AperFunction,SMDPad,CuDef*
G36*
G01*
X-11905000Y-36072500D02*
X-10955000Y-36072500D01*
G75*
G02*
X-10705000Y-36322500I0J-250000D01*
G01*
X-10705000Y-36997500D01*
G75*
G02*
X-10955000Y-37247500I-250000J0D01*
G01*
X-11905000Y-37247500D01*
G75*
G02*
X-12155000Y-36997500I0J250000D01*
G01*
X-12155000Y-36322500D01*
G75*
G02*
X-11905000Y-36072500I250000J0D01*
G01*
G37*
G04 #@! TD.AperFunction*
D10*
X6985000Y-38100000D03*
X-3175000Y-38100000D03*
X6985000Y-31750000D03*
X-3175000Y-31750000D03*
X-3175000Y-55245000D03*
X6985000Y-55245000D03*
X-3175000Y-48895000D03*
X6985000Y-48895000D03*
D11*
X89535000Y-50085000D03*
X89535000Y-45085000D03*
X89535000Y-41830000D03*
X89535000Y-36830000D03*
D12*
X-2540000Y-66675000D03*
D13*
X-17780000Y-66675000D03*
D14*
X95504000Y-48180000D03*
X95504000Y-43180000D03*
D15*
X95504000Y-38180000D03*
D16*
X-17780000Y-59055000D03*
D14*
X-17780000Y-48100000D03*
X-17780000Y-43100000D03*
D15*
X-17780000Y-38100000D03*
D17*
X71120000Y-59215000D03*
D18*
X71120000Y-69215000D03*
D17*
X71120000Y-17940000D03*
D18*
X71120000Y-27940000D03*
D17*
X29210000Y-59215000D03*
D18*
X29210000Y-69215000D03*
D17*
X29337000Y-17940000D03*
D18*
X29337000Y-27940000D03*
D13*
X-2780000Y-72390000D03*
X-17780000Y-72390000D03*
D19*
X-11430000Y-31750000D02*
X-17780000Y-38100000D01*
D20*
X-8890000Y-34340000D02*
X-8890000Y-31750000D01*
D19*
X-8890000Y-31750000D02*
X-11430000Y-31750000D01*
X-3175000Y-31750000D02*
X-8890000Y-31750000D01*
D20*
X-8890000Y-34340000D02*
X-10210000Y-34340000D01*
X-11430000Y-35560000D02*
X-11430000Y-36660000D01*
X-10210000Y-34340000D02*
X-11430000Y-35560000D01*
D19*
X-10635000Y-55245000D02*
X-17780000Y-48100000D01*
D20*
X-8890000Y-52435000D02*
X-9795000Y-52435000D01*
X-11430000Y-50800000D02*
X-11430000Y-49700000D01*
X-9795000Y-52435000D02*
X-11430000Y-50800000D01*
X-8890000Y-54610000D02*
X-8255000Y-55245000D01*
X-8890000Y-52435000D02*
X-8890000Y-54610000D01*
D19*
X-8255000Y-55245000D02*
X-10635000Y-55245000D01*
X-3175000Y-55245000D02*
X-8255000Y-55245000D01*
D20*
X-8890000Y-39370000D02*
X-8890000Y-37465000D01*
X-8890000Y-50435000D02*
X-8890000Y-48210000D01*
D21*
X102210000Y-84430000D02*
X-23470000Y-84430000D01*
X-23470000Y-79789872D01*
X-21285000Y-79789872D01*
X-21285000Y-80230128D01*
X-21199110Y-80661925D01*
X-21030631Y-81068669D01*
X-20786038Y-81434729D01*
X-20474729Y-81746038D01*
X-20108669Y-81990631D01*
X-19701925Y-82159110D01*
X-19270128Y-82245000D01*
X-18829872Y-82245000D01*
X-18398075Y-82159110D01*
X-17991331Y-81990631D01*
X-17625271Y-81746038D01*
X-17313962Y-81434729D01*
X-17069369Y-81068669D01*
X-16900890Y-80661925D01*
X-16815000Y-80230128D01*
X-16815000Y-79789872D01*
X95555000Y-79789872D01*
X95555000Y-80230128D01*
X95640890Y-80661925D01*
X95809369Y-81068669D01*
X96053962Y-81434729D01*
X96365271Y-81746038D01*
X96731331Y-81990631D01*
X97138075Y-82159110D01*
X97569872Y-82245000D01*
X98010128Y-82245000D01*
X98441925Y-82159110D01*
X98848669Y-81990631D01*
X99214729Y-81746038D01*
X99526038Y-81434729D01*
X99770631Y-81068669D01*
X99939110Y-80661925D01*
X100025000Y-80230128D01*
X100025000Y-79789872D01*
X99939110Y-79358075D01*
X99770631Y-78951331D01*
X99526038Y-78585271D01*
X99214729Y-78273962D01*
X98848669Y-78029369D01*
X98441925Y-77860890D01*
X98010128Y-77775000D01*
X97569872Y-77775000D01*
X97138075Y-77860890D01*
X96731331Y-78029369D01*
X96365271Y-78273962D01*
X96053962Y-78585271D01*
X95809369Y-78951331D01*
X95640890Y-79358075D01*
X95555000Y-79789872D01*
X-16815000Y-79789872D01*
X-16900890Y-79358075D01*
X-17069369Y-78951331D01*
X-17313962Y-78585271D01*
X-17625271Y-78273962D01*
X-17991331Y-78029369D01*
X-18398075Y-77860890D01*
X-18829872Y-77775000D01*
X-19270128Y-77775000D01*
X-19701925Y-77860890D01*
X-20108669Y-78029369D01*
X-20474729Y-78273962D01*
X-20786038Y-78585271D01*
X-21030631Y-78951331D01*
X-21199110Y-79358075D01*
X-21285000Y-79789872D01*
X-23470000Y-79789872D01*
X-23470000Y-72209268D01*
X-19615000Y-72209268D01*
X-19615000Y-72570732D01*
X-19544482Y-72925250D01*
X-19406156Y-73259199D01*
X-19205338Y-73559744D01*
X-18949744Y-73815338D01*
X-18649199Y-74016156D01*
X-18315250Y-74154482D01*
X-17960732Y-74225000D01*
X-17599268Y-74225000D01*
X-17244750Y-74154482D01*
X-16910801Y-74016156D01*
X-16610256Y-73815338D01*
X-16462898Y-73667980D01*
X-3878374Y-73667980D01*
X-3758486Y-73952836D01*
X-3434790Y-74113699D01*
X-3085931Y-74208322D01*
X-2725316Y-74233067D01*
X-2366802Y-74186985D01*
X-2024167Y-74071846D01*
X-1801514Y-73952836D01*
X-1681626Y-73667980D01*
X-2780000Y-72569605D01*
X-3878374Y-73667980D01*
X-16462898Y-73667980D01*
X-16354662Y-73559744D01*
X-16153844Y-73259199D01*
X-16015518Y-72925250D01*
X-15945000Y-72570732D01*
X-15945000Y-72444684D01*
X-4623067Y-72444684D01*
X-4576985Y-72803198D01*
X-4461846Y-73145833D01*
X-4342836Y-73368486D01*
X-4057980Y-73488374D01*
X-2959605Y-72390000D01*
X-2600395Y-72390000D01*
X-1502020Y-73488374D01*
X-1217164Y-73368486D01*
X-1056301Y-73044790D01*
X-961678Y-72695931D01*
X-936933Y-72335316D01*
X-983015Y-71976802D01*
X-1098154Y-71634167D01*
X-1217164Y-71411514D01*
X-1502020Y-71291626D01*
X-2600395Y-72390000D01*
X-2959605Y-72390000D01*
X-4057980Y-71291626D01*
X-4342836Y-71411514D01*
X-4503699Y-71735210D01*
X-4598322Y-72084069D01*
X-4623067Y-72444684D01*
X-15945000Y-72444684D01*
X-15945000Y-72209268D01*
X-16015518Y-71854750D01*
X-16153844Y-71520801D01*
X-16354662Y-71220256D01*
X-16462898Y-71112020D01*
X-3878374Y-71112020D01*
X-2780000Y-72210395D01*
X-1784606Y-71215000D01*
X26571928Y-71215000D01*
X26584188Y-71339482D01*
X26620498Y-71459180D01*
X26679463Y-71569494D01*
X26758815Y-71666185D01*
X26855506Y-71745537D01*
X26965820Y-71804502D01*
X27085518Y-71840812D01*
X27210000Y-71853072D01*
X28924250Y-71850000D01*
X29083000Y-71691250D01*
X29083000Y-69342000D01*
X29337000Y-69342000D01*
X29337000Y-71691250D01*
X29495750Y-71850000D01*
X31210000Y-71853072D01*
X31334482Y-71840812D01*
X31454180Y-71804502D01*
X31564494Y-71745537D01*
X31661185Y-71666185D01*
X31740537Y-71569494D01*
X31799502Y-71459180D01*
X31835812Y-71339482D01*
X31848072Y-71215000D01*
X68481928Y-71215000D01*
X68494188Y-71339482D01*
X68530498Y-71459180D01*
X68589463Y-71569494D01*
X68668815Y-71666185D01*
X68765506Y-71745537D01*
X68875820Y-71804502D01*
X68995518Y-71840812D01*
X69120000Y-71853072D01*
X70834250Y-71850000D01*
X70993000Y-71691250D01*
X70993000Y-69342000D01*
X71247000Y-69342000D01*
X71247000Y-71691250D01*
X71405750Y-71850000D01*
X73120000Y-71853072D01*
X73244482Y-71840812D01*
X73364180Y-71804502D01*
X73474494Y-71745537D01*
X73571185Y-71666185D01*
X73650537Y-71569494D01*
X73709502Y-71459180D01*
X73745812Y-71339482D01*
X73758072Y-71215000D01*
X73755000Y-69500750D01*
X73596250Y-69342000D01*
X71247000Y-69342000D01*
X70993000Y-69342000D01*
X68643750Y-69342000D01*
X68485000Y-69500750D01*
X68481928Y-71215000D01*
X31848072Y-71215000D01*
X31845000Y-69500750D01*
X31686250Y-69342000D01*
X29337000Y-69342000D01*
X29083000Y-69342000D01*
X26733750Y-69342000D01*
X26575000Y-69500750D01*
X26571928Y-71215000D01*
X-1784606Y-71215000D01*
X-1681626Y-71112020D01*
X-1801514Y-70827164D01*
X-2125210Y-70666301D01*
X-2474069Y-70571678D01*
X-2834684Y-70546933D01*
X-3193198Y-70593015D01*
X-3535833Y-70708154D01*
X-3758486Y-70827164D01*
X-3878374Y-71112020D01*
X-16462898Y-71112020D01*
X-16610256Y-70964662D01*
X-16910801Y-70763844D01*
X-17244750Y-70625518D01*
X-17599268Y-70555000D01*
X-17960732Y-70555000D01*
X-18315250Y-70625518D01*
X-18649199Y-70763844D01*
X-18949744Y-70964662D01*
X-19205338Y-71220256D01*
X-19406156Y-71520801D01*
X-19544482Y-71854750D01*
X-19615000Y-72209268D01*
X-23470000Y-72209268D01*
X-23470000Y-66494268D01*
X-19615000Y-66494268D01*
X-19615000Y-66855732D01*
X-19544482Y-67210250D01*
X-19406156Y-67544199D01*
X-19205338Y-67844744D01*
X-18949744Y-68100338D01*
X-18649199Y-68301156D01*
X-18315250Y-68439482D01*
X-17960732Y-68510000D01*
X-17599268Y-68510000D01*
X-17244750Y-68439482D01*
X-16910801Y-68301156D01*
X-16610256Y-68100338D01*
X-16354662Y-67844744D01*
X-16153844Y-67544199D01*
X-16015518Y-67210250D01*
X-15990964Y-67086805D01*
X-4328195Y-67086805D01*
X-4255621Y-67326066D01*
X-4095639Y-67648257D01*
X-3875875Y-67933046D01*
X-3604774Y-68169489D01*
X-3292754Y-68348500D01*
X-2951806Y-68463199D01*
X-2667000Y-68346854D01*
X-2667000Y-66802000D01*
X-2413000Y-66802000D01*
X-2413000Y-68346854D01*
X-2128194Y-68463199D01*
X-1787246Y-68348500D01*
X-1475226Y-68169489D01*
X-1204125Y-67933046D01*
X-984361Y-67648257D01*
X-824379Y-67326066D01*
X-790690Y-67215000D01*
X26571928Y-67215000D01*
X26575000Y-68929250D01*
X26733750Y-69088000D01*
X29083000Y-69088000D01*
X29083000Y-66738750D01*
X29337000Y-66738750D01*
X29337000Y-69088000D01*
X31686250Y-69088000D01*
X31845000Y-68929250D01*
X31848072Y-67215000D01*
X68481928Y-67215000D01*
X68485000Y-68929250D01*
X68643750Y-69088000D01*
X70993000Y-69088000D01*
X70993000Y-66738750D01*
X71247000Y-66738750D01*
X71247000Y-69088000D01*
X73596250Y-69088000D01*
X73755000Y-68929250D01*
X73758072Y-67215000D01*
X73745812Y-67090518D01*
X73709502Y-66970820D01*
X73650537Y-66860506D01*
X73571185Y-66763815D01*
X73474494Y-66684463D01*
X73364180Y-66625498D01*
X73244482Y-66589188D01*
X73120000Y-66576928D01*
X71405750Y-66580000D01*
X71247000Y-66738750D01*
X70993000Y-66738750D01*
X70834250Y-66580000D01*
X69120000Y-66576928D01*
X68995518Y-66589188D01*
X68875820Y-66625498D01*
X68765506Y-66684463D01*
X68668815Y-66763815D01*
X68589463Y-66860506D01*
X68530498Y-66970820D01*
X68494188Y-67090518D01*
X68481928Y-67215000D01*
X31848072Y-67215000D01*
X31835812Y-67090518D01*
X31799502Y-66970820D01*
X31740537Y-66860506D01*
X31661185Y-66763815D01*
X31564494Y-66684463D01*
X31454180Y-66625498D01*
X31334482Y-66589188D01*
X31210000Y-66576928D01*
X29495750Y-66580000D01*
X29337000Y-66738750D01*
X29083000Y-66738750D01*
X28924250Y-66580000D01*
X27210000Y-66576928D01*
X27085518Y-66589188D01*
X26965820Y-66625498D01*
X26855506Y-66684463D01*
X26758815Y-66763815D01*
X26679463Y-66860506D01*
X26620498Y-66970820D01*
X26584188Y-67090518D01*
X26571928Y-67215000D01*
X-790690Y-67215000D01*
X-751805Y-67086805D01*
X-868568Y-66802000D01*
X-2413000Y-66802000D01*
X-2667000Y-66802000D01*
X-4211432Y-66802000D01*
X-4328195Y-67086805D01*
X-15990964Y-67086805D01*
X-15945000Y-66855732D01*
X-15945000Y-66494268D01*
X-15990963Y-66263195D01*
X-4328195Y-66263195D01*
X-4211432Y-66548000D01*
X-2667000Y-66548000D01*
X-2667000Y-65003146D01*
X-2413000Y-65003146D01*
X-2413000Y-66548000D01*
X-868568Y-66548000D01*
X-751805Y-66263195D01*
X-824379Y-66023934D01*
X-984361Y-65701743D01*
X-1204125Y-65416954D01*
X-1475226Y-65180511D01*
X-1787246Y-65001500D01*
X-2128194Y-64886801D01*
X-2413000Y-65003146D01*
X-2667000Y-65003146D01*
X-2951806Y-64886801D01*
X-3292754Y-65001500D01*
X-3604774Y-65180511D01*
X-3875875Y-65416954D01*
X-4095639Y-65701743D01*
X-4255621Y-66023934D01*
X-4328195Y-66263195D01*
X-15990963Y-66263195D01*
X-16015518Y-66139750D01*
X-16153844Y-65805801D01*
X-16354662Y-65505256D01*
X-16610256Y-65249662D01*
X-16910801Y-65048844D01*
X-17244750Y-64910518D01*
X-17599268Y-64840000D01*
X-17960732Y-64840000D01*
X-18315250Y-64910518D01*
X-18649199Y-65048844D01*
X-18949744Y-65249662D01*
X-19205338Y-65505256D01*
X-19406156Y-65805801D01*
X-19544482Y-66139750D01*
X-19615000Y-66494268D01*
X-23470000Y-66494268D01*
X-23470000Y-58864419D01*
X-19715000Y-58864419D01*
X-19715000Y-59245581D01*
X-19640639Y-59619419D01*
X-19494775Y-59971566D01*
X-19283013Y-60288491D01*
X-19013491Y-60558013D01*
X-18696566Y-60769775D01*
X-18344419Y-60915639D01*
X-17970581Y-60990000D01*
X-17589419Y-60990000D01*
X-17215581Y-60915639D01*
X-16863434Y-60769775D01*
X-16546509Y-60558013D01*
X-16276987Y-60288491D01*
X-16065225Y-59971566D01*
X-15919361Y-59619419D01*
X-15845000Y-59245581D01*
X-15845000Y-58955475D01*
X26575000Y-58955475D01*
X26575000Y-59474525D01*
X26676261Y-59983601D01*
X26874893Y-60463141D01*
X27163262Y-60894715D01*
X27530285Y-61261738D01*
X27961859Y-61550107D01*
X28441399Y-61748739D01*
X28950475Y-61850000D01*
X29469525Y-61850000D01*
X29978601Y-61748739D01*
X30458141Y-61550107D01*
X30889715Y-61261738D01*
X31256738Y-60894715D01*
X31545107Y-60463141D01*
X31743739Y-59983601D01*
X31845000Y-59474525D01*
X31845000Y-58955475D01*
X68485000Y-58955475D01*
X68485000Y-59474525D01*
X68586261Y-59983601D01*
X68784893Y-60463141D01*
X69073262Y-60894715D01*
X69440285Y-61261738D01*
X69871859Y-61550107D01*
X70351399Y-61748739D01*
X70860475Y-61850000D01*
X71379525Y-61850000D01*
X71888601Y-61748739D01*
X72368141Y-61550107D01*
X72799715Y-61261738D01*
X73166738Y-60894715D01*
X73455107Y-60463141D01*
X73653739Y-59983601D01*
X73755000Y-59474525D01*
X73755000Y-58955475D01*
X73653739Y-58446399D01*
X73455107Y-57966859D01*
X73166738Y-57535285D01*
X72799715Y-57168262D01*
X72368141Y-56879893D01*
X71888601Y-56681261D01*
X71379525Y-56580000D01*
X70860475Y-56580000D01*
X70351399Y-56681261D01*
X69871859Y-56879893D01*
X69440285Y-57168262D01*
X69073262Y-57535285D01*
X68784893Y-57966859D01*
X68586261Y-58446399D01*
X68485000Y-58955475D01*
X31845000Y-58955475D01*
X31743739Y-58446399D01*
X31545107Y-57966859D01*
X31256738Y-57535285D01*
X30889715Y-57168262D01*
X30458141Y-56879893D01*
X29978601Y-56681261D01*
X29469525Y-56580000D01*
X28950475Y-56580000D01*
X28441399Y-56681261D01*
X27961859Y-56879893D01*
X27530285Y-57168262D01*
X27163262Y-57535285D01*
X26874893Y-57966859D01*
X26676261Y-58446399D01*
X26575000Y-58955475D01*
X-15845000Y-58955475D01*
X-15845000Y-58864419D01*
X-15919361Y-58490581D01*
X-16065225Y-58138434D01*
X-16276987Y-57821509D01*
X-16546509Y-57551987D01*
X-16863434Y-57340225D01*
X-17215581Y-57194361D01*
X-17589419Y-57120000D01*
X-17970581Y-57120000D01*
X-18344419Y-57194361D01*
X-18696566Y-57340225D01*
X-19013491Y-57551987D01*
X-19283013Y-57821509D01*
X-19494775Y-58138434D01*
X-19640639Y-58490581D01*
X-19715000Y-58864419D01*
X-23470000Y-58864419D01*
X-23470000Y-48100000D01*
X-19925329Y-48100000D01*
X-19884107Y-48518533D01*
X-19762025Y-48920982D01*
X-19563776Y-49291881D01*
X-19363835Y-49535510D01*
X-12218833Y-56680513D01*
X-12151977Y-56761977D01*
X-12070513Y-56828833D01*
X-12070511Y-56828835D01*
X-11924502Y-56948661D01*
X-11826881Y-57028777D01*
X-11656214Y-57120000D01*
X-11455983Y-57227026D01*
X-11053534Y-57349108D01*
X-11015999Y-57352805D01*
X-10739882Y-57380000D01*
X-10739875Y-57380000D01*
X-10635000Y-57390329D01*
X-10530126Y-57380000D01*
X-3070118Y-57380000D01*
X-2756467Y-57349108D01*
X-2354018Y-57227026D01*
X-2079231Y-57080150D01*
X-1884701Y-57080150D01*
X-1615098Y-57053596D01*
X-1269171Y-56948661D01*
X-950362Y-56778254D01*
X-670925Y-56548925D01*
X-441596Y-56269488D01*
X-271189Y-55950679D01*
X-166254Y-55604752D01*
X-130821Y-55245000D01*
X3940821Y-55245000D01*
X3976254Y-55604752D01*
X4081189Y-55950679D01*
X4251596Y-56269488D01*
X4480925Y-56548925D01*
X4760362Y-56778254D01*
X5079171Y-56948661D01*
X5425098Y-57053596D01*
X5694701Y-57080150D01*
X8275299Y-57080150D01*
X8544902Y-57053596D01*
X8890829Y-56948661D01*
X9209638Y-56778254D01*
X9489075Y-56548925D01*
X9718404Y-56269488D01*
X9888811Y-55950679D01*
X9993746Y-55604752D01*
X10029179Y-55245000D01*
X9993746Y-54885248D01*
X9888811Y-54539321D01*
X9718404Y-54220512D01*
X9489075Y-53941075D01*
X9209638Y-53711746D01*
X8890829Y-53541339D01*
X8544902Y-53436404D01*
X8275299Y-53409850D01*
X5694701Y-53409850D01*
X5425098Y-53436404D01*
X5079171Y-53541339D01*
X4760362Y-53711746D01*
X4480925Y-53941075D01*
X4251596Y-54220512D01*
X4081189Y-54539321D01*
X3976254Y-54885248D01*
X3940821Y-55245000D01*
X-130821Y-55245000D01*
X-166254Y-54885248D01*
X-271189Y-54539321D01*
X-441596Y-54220512D01*
X-670925Y-53941075D01*
X-950362Y-53711746D01*
X-1269171Y-53541339D01*
X-1615098Y-53436404D01*
X-1884701Y-53409850D01*
X-2079231Y-53409850D01*
X-2354018Y-53262974D01*
X-2756467Y-53140892D01*
X-3070118Y-53110000D01*
X-7615023Y-53110000D01*
X-7568992Y-52958255D01*
X-7551928Y-52785001D01*
X-7551928Y-52084999D01*
X-7568992Y-51911745D01*
X-7619528Y-51745149D01*
X-7701595Y-51591613D01*
X-7812038Y-51457038D01*
X-7838891Y-51435000D01*
X-7812038Y-51412962D01*
X-7701595Y-51278387D01*
X-7619528Y-51124851D01*
X-7568992Y-50958255D01*
X-7551928Y-50785001D01*
X-7551928Y-50084999D01*
X-7568992Y-49911745D01*
X-7619528Y-49745149D01*
X-7701595Y-49591613D01*
X-7755000Y-49526539D01*
X-7755000Y-49365388D01*
X-7746613Y-49360905D01*
X-7612038Y-49250462D01*
X-7501595Y-49115887D01*
X-7419528Y-48962351D01*
X-7399098Y-48895000D01*
X-6219179Y-48895000D01*
X-6183746Y-49254752D01*
X-6078811Y-49600679D01*
X-5908404Y-49919488D01*
X-5679075Y-50198925D01*
X-5399638Y-50428254D01*
X-5080829Y-50598661D01*
X-4734902Y-50703596D01*
X-4465299Y-50730150D01*
X-1884701Y-50730150D01*
X-1615098Y-50703596D01*
X-1269171Y-50598661D01*
X-950362Y-50428254D01*
X-670925Y-50198925D01*
X-441596Y-49919488D01*
X-271189Y-49600679D01*
X-166254Y-49254752D01*
X-130821Y-48895000D01*
X3940821Y-48895000D01*
X3976254Y-49254752D01*
X4081189Y-49600679D01*
X4251596Y-49919488D01*
X4480925Y-50198925D01*
X4760362Y-50428254D01*
X5079171Y-50598661D01*
X5425098Y-50703596D01*
X5694701Y-50730150D01*
X8275299Y-50730150D01*
X8544902Y-50703596D01*
X8890829Y-50598661D01*
X9209638Y-50428254D01*
X9489075Y-50198925D01*
X9698562Y-49943665D01*
X88100000Y-49943665D01*
X88100000Y-50226335D01*
X88155147Y-50503574D01*
X88263320Y-50764727D01*
X88420363Y-50999759D01*
X88620241Y-51199637D01*
X88855273Y-51356680D01*
X89116426Y-51464853D01*
X89393665Y-51520000D01*
X89676335Y-51520000D01*
X89953574Y-51464853D01*
X90214727Y-51356680D01*
X90449759Y-51199637D01*
X90649637Y-50999759D01*
X90806680Y-50764727D01*
X90914853Y-50503574D01*
X90970000Y-50226335D01*
X90970000Y-49943665D01*
X90914853Y-49666426D01*
X90806680Y-49405273D01*
X90649637Y-49170241D01*
X90449759Y-48970363D01*
X90214727Y-48813320D01*
X89953574Y-48705147D01*
X89676335Y-48650000D01*
X89393665Y-48650000D01*
X89116426Y-48705147D01*
X88855273Y-48813320D01*
X88620241Y-48970363D01*
X88420363Y-49170241D01*
X88263320Y-49405273D01*
X88155147Y-49666426D01*
X88100000Y-49943665D01*
X9698562Y-49943665D01*
X9718404Y-49919488D01*
X9888811Y-49600679D01*
X9993746Y-49254752D01*
X10029179Y-48895000D01*
X9993746Y-48535248D01*
X9888811Y-48189321D01*
X9784594Y-47994344D01*
X93619000Y-47994344D01*
X93619000Y-48365656D01*
X93691439Y-48729834D01*
X93833534Y-49072882D01*
X94039825Y-49381618D01*
X94302382Y-49644175D01*
X94611118Y-49850466D01*
X94954166Y-49992561D01*
X95318344Y-50065000D01*
X95689656Y-50065000D01*
X96053834Y-49992561D01*
X96396882Y-49850466D01*
X96705618Y-49644175D01*
X96968175Y-49381618D01*
X97174466Y-49072882D01*
X97316561Y-48729834D01*
X97389000Y-48365656D01*
X97389000Y-47994344D01*
X97316561Y-47630166D01*
X97174466Y-47287118D01*
X96968175Y-46978382D01*
X96705618Y-46715825D01*
X96396882Y-46509534D01*
X96053834Y-46367439D01*
X95689656Y-46295000D01*
X95318344Y-46295000D01*
X94954166Y-46367439D01*
X94611118Y-46509534D01*
X94302382Y-46715825D01*
X94039825Y-46978382D01*
X93833534Y-47287118D01*
X93691439Y-47630166D01*
X93619000Y-47994344D01*
X9784594Y-47994344D01*
X9718404Y-47870512D01*
X9489075Y-47591075D01*
X9209638Y-47361746D01*
X8890829Y-47191339D01*
X8544902Y-47086404D01*
X8275299Y-47059850D01*
X5694701Y-47059850D01*
X5425098Y-47086404D01*
X5079171Y-47191339D01*
X4760362Y-47361746D01*
X4480925Y-47591075D01*
X4251596Y-47870512D01*
X4081189Y-48189321D01*
X3976254Y-48535248D01*
X3940821Y-48895000D01*
X-130821Y-48895000D01*
X-166254Y-48535248D01*
X-271189Y-48189321D01*
X-441596Y-47870512D01*
X-670925Y-47591075D01*
X-950362Y-47361746D01*
X-1269171Y-47191339D01*
X-1615098Y-47086404D01*
X-1884701Y-47059850D01*
X-4465299Y-47059850D01*
X-4734902Y-47086404D01*
X-5080829Y-47191339D01*
X-5399638Y-47361746D01*
X-5679075Y-47591075D01*
X-5908404Y-47870512D01*
X-6078811Y-48189321D01*
X-6183746Y-48535248D01*
X-6219179Y-48895000D01*
X-7399098Y-48895000D01*
X-7368992Y-48795755D01*
X-7351928Y-48622501D01*
X-7351928Y-47797499D01*
X-7368992Y-47624245D01*
X-7419528Y-47457649D01*
X-7501595Y-47304113D01*
X-7612038Y-47169538D01*
X-7746613Y-47059095D01*
X-7900149Y-46977028D01*
X-8066745Y-46926492D01*
X-8239999Y-46909428D01*
X-9540001Y-46909428D01*
X-9713255Y-46926492D01*
X-9879851Y-46977028D01*
X-10033387Y-47059095D01*
X-10067432Y-47087035D01*
X-10066928Y-47037500D01*
X-10079188Y-46913018D01*
X-10115498Y-46793320D01*
X-10174463Y-46683006D01*
X-10253815Y-46586315D01*
X-10350506Y-46506963D01*
X-10460820Y-46447998D01*
X-10580518Y-46411688D01*
X-10705000Y-46399428D01*
X-11144250Y-46402500D01*
X-11303000Y-46561250D01*
X-11303000Y-47498000D01*
X-11283000Y-47498000D01*
X-11283000Y-47752000D01*
X-11303000Y-47752000D01*
X-11303000Y-47772000D01*
X-11557000Y-47772000D01*
X-11557000Y-47752000D01*
X-12631250Y-47752000D01*
X-12790000Y-47910750D01*
X-12793072Y-48212500D01*
X-12780812Y-48336982D01*
X-12744502Y-48456680D01*
X-12685537Y-48566994D01*
X-12606185Y-48663685D01*
X-12526406Y-48729158D01*
X-12532962Y-48734538D01*
X-12643405Y-48869114D01*
X-12725472Y-49022650D01*
X-12776008Y-49189246D01*
X-12793072Y-49362500D01*
X-12793072Y-50037500D01*
X-12789785Y-50070869D01*
X-15823154Y-47037500D01*
X-12793072Y-47037500D01*
X-12790000Y-47339250D01*
X-12631250Y-47498000D01*
X-11557000Y-47498000D01*
X-11557000Y-46561250D01*
X-11715750Y-46402500D01*
X-12155000Y-46399428D01*
X-12279482Y-46411688D01*
X-12399180Y-46447998D01*
X-12509494Y-46506963D01*
X-12606185Y-46586315D01*
X-12685537Y-46683006D01*
X-12744502Y-46793320D01*
X-12780812Y-46913018D01*
X-12793072Y-47037500D01*
X-15823154Y-47037500D01*
X-16344490Y-46516165D01*
X-16588119Y-46316224D01*
X-16959018Y-46117975D01*
X-17361467Y-45995893D01*
X-17780000Y-45954671D01*
X-18198533Y-45995893D01*
X-18600982Y-46117975D01*
X-18971881Y-46316224D01*
X-19296977Y-46583023D01*
X-19563776Y-46908119D01*
X-19762025Y-47279018D01*
X-19884107Y-47681467D01*
X-19925329Y-48100000D01*
X-23470000Y-48100000D01*
X-23470000Y-45747500D01*
X-10428072Y-45747500D01*
X-10415812Y-45871982D01*
X-10379502Y-45991680D01*
X-10320537Y-46101994D01*
X-10241185Y-46198685D01*
X-10144494Y-46278037D01*
X-10034180Y-46337002D01*
X-9914482Y-46373312D01*
X-9790000Y-46385572D01*
X-9175750Y-46382500D01*
X-9017000Y-46223750D01*
X-9017000Y-45212000D01*
X-8763000Y-45212000D01*
X-8763000Y-46223750D01*
X-8604250Y-46382500D01*
X-7990000Y-46385572D01*
X-7865518Y-46373312D01*
X-7745820Y-46337002D01*
X-7635506Y-46278037D01*
X-7538815Y-46198685D01*
X-7459463Y-46101994D01*
X-7446479Y-46077702D01*
X88721903Y-46077702D01*
X88793486Y-46321671D01*
X89048996Y-46442571D01*
X89323184Y-46511300D01*
X89605512Y-46525217D01*
X89885130Y-46483787D01*
X90151292Y-46388603D01*
X90276514Y-46321671D01*
X90348097Y-46077702D01*
X89535000Y-45264605D01*
X88721903Y-46077702D01*
X-7446479Y-46077702D01*
X-7400498Y-45991680D01*
X-7364188Y-45871982D01*
X-7351928Y-45747500D01*
X-7355000Y-45370750D01*
X-7513750Y-45212000D01*
X-8763000Y-45212000D01*
X-9017000Y-45212000D01*
X-10266250Y-45212000D01*
X-10425000Y-45370750D01*
X-10428072Y-45747500D01*
X-23470000Y-45747500D01*
X-23470000Y-45155512D01*
X88094783Y-45155512D01*
X88136213Y-45435130D01*
X88231397Y-45701292D01*
X88298329Y-45826514D01*
X88542298Y-45898097D01*
X89355395Y-45085000D01*
X89714605Y-45085000D01*
X90527702Y-45898097D01*
X90771671Y-45826514D01*
X90892571Y-45571004D01*
X90961300Y-45296816D01*
X90975217Y-45014488D01*
X90933787Y-44734870D01*
X90847507Y-44493605D01*
X94370000Y-44493605D01*
X94495914Y-44783577D01*
X94828126Y-44949433D01*
X95186312Y-45047290D01*
X95556706Y-45073389D01*
X95925075Y-45026725D01*
X96277262Y-44909094D01*
X96512086Y-44783577D01*
X96638000Y-44493605D01*
X95504000Y-43359605D01*
X94370000Y-44493605D01*
X90847507Y-44493605D01*
X90838603Y-44468708D01*
X90771671Y-44343486D01*
X90527702Y-44271903D01*
X89714605Y-45085000D01*
X89355395Y-45085000D01*
X88542298Y-44271903D01*
X88298329Y-44343486D01*
X88177429Y-44598996D01*
X88108700Y-44873184D01*
X88094783Y-45155512D01*
X-23470000Y-45155512D01*
X-23470000Y-44413605D01*
X-18914000Y-44413605D01*
X-18788086Y-44703577D01*
X-18455874Y-44869433D01*
X-18097688Y-44967290D01*
X-17727294Y-44993389D01*
X-17358925Y-44946725D01*
X-17006738Y-44829094D01*
X-16771914Y-44703577D01*
X-16649863Y-44422500D01*
X-10428072Y-44422500D01*
X-10425000Y-44799250D01*
X-10266250Y-44958000D01*
X-9017000Y-44958000D01*
X-9017000Y-43946250D01*
X-8763000Y-43946250D01*
X-8763000Y-44958000D01*
X-7513750Y-44958000D01*
X-7355000Y-44799250D01*
X-7351928Y-44422500D01*
X-7364188Y-44298018D01*
X-7400498Y-44178320D01*
X-7446478Y-44092298D01*
X88721903Y-44092298D01*
X89535000Y-44905395D01*
X90348097Y-44092298D01*
X90276514Y-43848329D01*
X90021004Y-43727429D01*
X89746816Y-43658700D01*
X89464488Y-43644783D01*
X89184870Y-43686213D01*
X88918708Y-43781397D01*
X88793486Y-43848329D01*
X88721903Y-44092298D01*
X-7446478Y-44092298D01*
X-7459463Y-44068006D01*
X-7538815Y-43971315D01*
X-7635506Y-43891963D01*
X-7745820Y-43832998D01*
X-7865518Y-43796688D01*
X-7990000Y-43784428D01*
X-8604250Y-43787500D01*
X-8763000Y-43946250D01*
X-9017000Y-43946250D01*
X-9175750Y-43787500D01*
X-9790000Y-43784428D01*
X-9914482Y-43796688D01*
X-10034180Y-43832998D01*
X-10144494Y-43891963D01*
X-10241185Y-43971315D01*
X-10320537Y-44068006D01*
X-10379502Y-44178320D01*
X-10415812Y-44298018D01*
X-10428072Y-44422500D01*
X-16649863Y-44422500D01*
X-16646000Y-44413605D01*
X-17780000Y-43279605D01*
X-18914000Y-44413605D01*
X-23470000Y-44413605D01*
X-23470000Y-43152706D01*
X-19673389Y-43152706D01*
X-19626725Y-43521075D01*
X-19509094Y-43873262D01*
X-19383577Y-44108086D01*
X-19093605Y-44234000D01*
X-17959605Y-43100000D01*
X-17600395Y-43100000D01*
X-16466395Y-44234000D01*
X-16176423Y-44108086D01*
X-16010567Y-43775874D01*
X-15912710Y-43417688D01*
X-15886611Y-43047294D01*
X-15915061Y-42822702D01*
X88721903Y-42822702D01*
X88793486Y-43066671D01*
X89048996Y-43187571D01*
X89323184Y-43256300D01*
X89605512Y-43270217D01*
X89858680Y-43232706D01*
X93610611Y-43232706D01*
X93657275Y-43601075D01*
X93774906Y-43953262D01*
X93900423Y-44188086D01*
X94190395Y-44314000D01*
X95324395Y-43180000D01*
X95683605Y-43180000D01*
X96817605Y-44314000D01*
X97107577Y-44188086D01*
X97273433Y-43855874D01*
X97371290Y-43497688D01*
X97397389Y-43127294D01*
X97350725Y-42758925D01*
X97233094Y-42406738D01*
X97107577Y-42171914D01*
X96817605Y-42046000D01*
X95683605Y-43180000D01*
X95324395Y-43180000D01*
X94190395Y-42046000D01*
X93900423Y-42171914D01*
X93734567Y-42504126D01*
X93636710Y-42862312D01*
X93610611Y-43232706D01*
X89858680Y-43232706D01*
X89885130Y-43228787D01*
X90151292Y-43133603D01*
X90276514Y-43066671D01*
X90348097Y-42822702D01*
X89535000Y-42009605D01*
X88721903Y-42822702D01*
X-15915061Y-42822702D01*
X-15933275Y-42678925D01*
X-16050906Y-42326738D01*
X-16176423Y-42091914D01*
X-16457183Y-41970000D01*
X-10228072Y-41970000D01*
X-10215812Y-42094482D01*
X-10179502Y-42214180D01*
X-10120537Y-42324494D01*
X-10041185Y-42421185D01*
X-9944494Y-42500537D01*
X-9834180Y-42559502D01*
X-9714482Y-42595812D01*
X-9590000Y-42608072D01*
X-9175750Y-42605000D01*
X-9017000Y-42446250D01*
X-9017000Y-41497000D01*
X-8763000Y-41497000D01*
X-8763000Y-42446250D01*
X-8604250Y-42605000D01*
X-8190000Y-42608072D01*
X-8065518Y-42595812D01*
X-7945820Y-42559502D01*
X-7835506Y-42500537D01*
X-7738815Y-42421185D01*
X-7659463Y-42324494D01*
X-7600498Y-42214180D01*
X-7564188Y-42094482D01*
X-7551928Y-41970000D01*
X-7552607Y-41900512D01*
X88094783Y-41900512D01*
X88136213Y-42180130D01*
X88231397Y-42446292D01*
X88298329Y-42571514D01*
X88542298Y-42643097D01*
X89355395Y-41830000D01*
X89714605Y-41830000D01*
X90527702Y-42643097D01*
X90771671Y-42571514D01*
X90892571Y-42316004D01*
X90961300Y-42041816D01*
X90969947Y-41866395D01*
X94370000Y-41866395D01*
X95504000Y-43000395D01*
X96638000Y-41866395D01*
X96512086Y-41576423D01*
X96179874Y-41410567D01*
X95821688Y-41312710D01*
X95451294Y-41286611D01*
X95082925Y-41333275D01*
X94730738Y-41450906D01*
X94495914Y-41576423D01*
X94370000Y-41866395D01*
X90969947Y-41866395D01*
X90975217Y-41759488D01*
X90933787Y-41479870D01*
X90838603Y-41213708D01*
X90771671Y-41088486D01*
X90527702Y-41016903D01*
X89714605Y-41830000D01*
X89355395Y-41830000D01*
X88542298Y-41016903D01*
X88298329Y-41088486D01*
X88177429Y-41343996D01*
X88108700Y-41618184D01*
X88094783Y-41900512D01*
X-7552607Y-41900512D01*
X-7555000Y-41655750D01*
X-7713750Y-41497000D01*
X-8763000Y-41497000D01*
X-9017000Y-41497000D01*
X-10066250Y-41497000D01*
X-10225000Y-41655750D01*
X-10228072Y-41970000D01*
X-16457183Y-41970000D01*
X-16466395Y-41966000D01*
X-17600395Y-43100000D01*
X-17959605Y-43100000D01*
X-19093605Y-41966000D01*
X-19383577Y-42091914D01*
X-19549433Y-42424126D01*
X-19647290Y-42782312D01*
X-19673389Y-43152706D01*
X-23470000Y-43152706D01*
X-23470000Y-41786395D01*
X-18914000Y-41786395D01*
X-17780000Y-42920395D01*
X-16646000Y-41786395D01*
X-16771914Y-41496423D01*
X-17104126Y-41330567D01*
X-17462312Y-41232710D01*
X-17832706Y-41206611D01*
X-18201075Y-41253275D01*
X-18553262Y-41370906D01*
X-18788086Y-41496423D01*
X-18914000Y-41786395D01*
X-23470000Y-41786395D01*
X-23470000Y-38100000D01*
X-19925329Y-38100000D01*
X-19884107Y-38518533D01*
X-19762025Y-38920982D01*
X-19668072Y-39096756D01*
X-19668072Y-39350000D01*
X-19655812Y-39474482D01*
X-19619502Y-39594180D01*
X-19560537Y-39704494D01*
X-19481185Y-39801185D01*
X-19384494Y-39880537D01*
X-19274180Y-39939502D01*
X-19154482Y-39975812D01*
X-19030000Y-39988072D01*
X-18776756Y-39988072D01*
X-18600982Y-40082025D01*
X-18198533Y-40204107D01*
X-17780000Y-40245329D01*
X-17361467Y-40204107D01*
X-16959018Y-40082025D01*
X-16783244Y-39988072D01*
X-16530000Y-39988072D01*
X-16405518Y-39975812D01*
X-16285820Y-39939502D01*
X-16175506Y-39880537D01*
X-16078815Y-39801185D01*
X-15999463Y-39704494D01*
X-15940498Y-39594180D01*
X-15904188Y-39474482D01*
X-15891928Y-39350000D01*
X-15891928Y-39322500D01*
X-12793072Y-39322500D01*
X-12780812Y-39446982D01*
X-12744502Y-39566680D01*
X-12685537Y-39676994D01*
X-12606185Y-39773685D01*
X-12509494Y-39853037D01*
X-12399180Y-39912002D01*
X-12279482Y-39948312D01*
X-12155000Y-39960572D01*
X-11715750Y-39957500D01*
X-11557000Y-39798750D01*
X-11557000Y-38862000D01*
X-12631250Y-38862000D01*
X-12790000Y-39020750D01*
X-12793072Y-39322500D01*
X-15891928Y-39322500D01*
X-15891928Y-39231273D01*
X-12761250Y-36100596D01*
X-12776008Y-36149246D01*
X-12793072Y-36322500D01*
X-12793072Y-36997500D01*
X-12776008Y-37170754D01*
X-12725472Y-37337350D01*
X-12643405Y-37490886D01*
X-12532962Y-37625462D01*
X-12526406Y-37630842D01*
X-12606185Y-37696315D01*
X-12685537Y-37793006D01*
X-12744502Y-37903320D01*
X-12780812Y-38023018D01*
X-12793072Y-38147500D01*
X-12790000Y-38449250D01*
X-12631250Y-38608000D01*
X-11557000Y-38608000D01*
X-11557000Y-38588000D01*
X-11303000Y-38588000D01*
X-11303000Y-38608000D01*
X-11283000Y-38608000D01*
X-11283000Y-38862000D01*
X-11303000Y-38862000D01*
X-11303000Y-39798750D01*
X-11144250Y-39957500D01*
X-10705000Y-39960572D01*
X-10580518Y-39948312D01*
X-10460820Y-39912002D01*
X-10350506Y-39853037D01*
X-10253815Y-39773685D01*
X-10226110Y-39739926D01*
X-10211008Y-39893255D01*
X-10160472Y-40059851D01*
X-10078405Y-40213387D01*
X-10011724Y-40294637D01*
X-10041185Y-40318815D01*
X-10120537Y-40415506D01*
X-10179502Y-40525820D01*
X-10215812Y-40645518D01*
X-10228072Y-40770000D01*
X-10225000Y-41084250D01*
X-10066250Y-41243000D01*
X-9017000Y-41243000D01*
X-9017000Y-41223000D01*
X-8763000Y-41223000D01*
X-8763000Y-41243000D01*
X-7713750Y-41243000D01*
X-7555000Y-41084250D01*
X-7552586Y-40837298D01*
X88721903Y-40837298D01*
X89535000Y-41650395D01*
X90348097Y-40837298D01*
X90276514Y-40593329D01*
X90021004Y-40472429D01*
X89746816Y-40403700D01*
X89464488Y-40389783D01*
X89184870Y-40431213D01*
X88918708Y-40526397D01*
X88793486Y-40593329D01*
X88721903Y-40837298D01*
X-7552586Y-40837298D01*
X-7551928Y-40770000D01*
X-7564188Y-40645518D01*
X-7600498Y-40525820D01*
X-7659463Y-40415506D01*
X-7738815Y-40318815D01*
X-7768276Y-40294637D01*
X-7701595Y-40213387D01*
X-7619528Y-40059851D01*
X-7568992Y-39893255D01*
X-7551928Y-39720001D01*
X-7551928Y-39019999D01*
X-7568992Y-38846745D01*
X-7619528Y-38680149D01*
X-7682146Y-38562999D01*
X-7612038Y-38505462D01*
X-7501595Y-38370887D01*
X-7419528Y-38217351D01*
X-7383931Y-38100000D01*
X-6219179Y-38100000D01*
X-6183746Y-38459752D01*
X-6078811Y-38805679D01*
X-5908404Y-39124488D01*
X-5679075Y-39403925D01*
X-5399638Y-39633254D01*
X-5080829Y-39803661D01*
X-4734902Y-39908596D01*
X-4465299Y-39935150D01*
X-1884701Y-39935150D01*
X-1615098Y-39908596D01*
X-1269171Y-39803661D01*
X-950362Y-39633254D01*
X-670925Y-39403925D01*
X-441596Y-39124488D01*
X-271189Y-38805679D01*
X-166254Y-38459752D01*
X-130821Y-38100000D01*
X3940821Y-38100000D01*
X3976254Y-38459752D01*
X4081189Y-38805679D01*
X4251596Y-39124488D01*
X4480925Y-39403925D01*
X4760362Y-39633254D01*
X5079171Y-39803661D01*
X5425098Y-39908596D01*
X5694701Y-39935150D01*
X8275299Y-39935150D01*
X8544902Y-39908596D01*
X8890829Y-39803661D01*
X9209638Y-39633254D01*
X9489075Y-39403925D01*
X9718404Y-39124488D01*
X9888811Y-38805679D01*
X9993746Y-38459752D01*
X10029179Y-38100000D01*
X9993746Y-37740248D01*
X9888811Y-37394321D01*
X9718404Y-37075512D01*
X9489075Y-36796075D01*
X9358197Y-36688665D01*
X88100000Y-36688665D01*
X88100000Y-36971335D01*
X88155147Y-37248574D01*
X88263320Y-37509727D01*
X88420363Y-37744759D01*
X88620241Y-37944637D01*
X88855273Y-38101680D01*
X89116426Y-38209853D01*
X89393665Y-38265000D01*
X89676335Y-38265000D01*
X89953574Y-38209853D01*
X90214727Y-38101680D01*
X90449759Y-37944637D01*
X90649637Y-37744759D01*
X90806680Y-37509727D01*
X90914853Y-37248574D01*
X90970000Y-36971335D01*
X90970000Y-36930000D01*
X93615928Y-36930000D01*
X93615928Y-39430000D01*
X93628188Y-39554482D01*
X93664498Y-39674180D01*
X93723463Y-39784494D01*
X93802815Y-39881185D01*
X93899506Y-39960537D01*
X94009820Y-40019502D01*
X94129518Y-40055812D01*
X94254000Y-40068072D01*
X96754000Y-40068072D01*
X96878482Y-40055812D01*
X96998180Y-40019502D01*
X97108494Y-39960537D01*
X97205185Y-39881185D01*
X97284537Y-39784494D01*
X97343502Y-39674180D01*
X97379812Y-39554482D01*
X97392072Y-39430000D01*
X97392072Y-36930000D01*
X97379812Y-36805518D01*
X97343502Y-36685820D01*
X97284537Y-36575506D01*
X97205185Y-36478815D01*
X97108494Y-36399463D01*
X96998180Y-36340498D01*
X96878482Y-36304188D01*
X96754000Y-36291928D01*
X94254000Y-36291928D01*
X94129518Y-36304188D01*
X94009820Y-36340498D01*
X93899506Y-36399463D01*
X93802815Y-36478815D01*
X93723463Y-36575506D01*
X93664498Y-36685820D01*
X93628188Y-36805518D01*
X93615928Y-36930000D01*
X90970000Y-36930000D01*
X90970000Y-36688665D01*
X90914853Y-36411426D01*
X90806680Y-36150273D01*
X90649637Y-35915241D01*
X90449759Y-35715363D01*
X90214727Y-35558320D01*
X89953574Y-35450147D01*
X89676335Y-35395000D01*
X89393665Y-35395000D01*
X89116426Y-35450147D01*
X88855273Y-35558320D01*
X88620241Y-35715363D01*
X88420363Y-35915241D01*
X88263320Y-36150273D01*
X88155147Y-36411426D01*
X88100000Y-36688665D01*
X9358197Y-36688665D01*
X9209638Y-36566746D01*
X8890829Y-36396339D01*
X8544902Y-36291404D01*
X8275299Y-36264850D01*
X5694701Y-36264850D01*
X5425098Y-36291404D01*
X5079171Y-36396339D01*
X4760362Y-36566746D01*
X4480925Y-36796075D01*
X4251596Y-37075512D01*
X4081189Y-37394321D01*
X3976254Y-37740248D01*
X3940821Y-38100000D01*
X-130821Y-38100000D01*
X-166254Y-37740248D01*
X-271189Y-37394321D01*
X-441596Y-37075512D01*
X-670925Y-36796075D01*
X-950362Y-36566746D01*
X-1269171Y-36396339D01*
X-1615098Y-36291404D01*
X-1884701Y-36264850D01*
X-4465299Y-36264850D01*
X-4734902Y-36291404D01*
X-5080829Y-36396339D01*
X-5399638Y-36566746D01*
X-5679075Y-36796075D01*
X-5908404Y-37075512D01*
X-6078811Y-37394321D01*
X-6183746Y-37740248D01*
X-6219179Y-38100000D01*
X-7383931Y-38100000D01*
X-7368992Y-38050755D01*
X-7351928Y-37877501D01*
X-7351928Y-37052499D01*
X-7368992Y-36879245D01*
X-7419528Y-36712649D01*
X-7501595Y-36559113D01*
X-7612038Y-36424538D01*
X-7746613Y-36314095D01*
X-7900149Y-36232028D01*
X-8066745Y-36181492D01*
X-8239999Y-36164428D01*
X-9540001Y-36164428D01*
X-9713255Y-36181492D01*
X-9879851Y-36232028D01*
X-10033387Y-36314095D01*
X-10066928Y-36341621D01*
X-10066928Y-36322500D01*
X-10083992Y-36149246D01*
X-10134528Y-35982650D01*
X-10173886Y-35909017D01*
X-9847618Y-35582750D01*
X-9713255Y-35623508D01*
X-9540001Y-35640572D01*
X-8239999Y-35640572D01*
X-8066745Y-35623508D01*
X-7900149Y-35572972D01*
X-7746613Y-35490905D01*
X-7612038Y-35380462D01*
X-7501595Y-35245887D01*
X-7419528Y-35092351D01*
X-7368992Y-34925755D01*
X-7351928Y-34752501D01*
X-7351928Y-33927499D01*
X-7356114Y-33885000D01*
X-3070118Y-33885000D01*
X-2756467Y-33854108D01*
X-2354018Y-33732026D01*
X-2079231Y-33585150D01*
X-1884701Y-33585150D01*
X-1615098Y-33558596D01*
X-1269171Y-33453661D01*
X-950362Y-33283254D01*
X-670925Y-33053925D01*
X-441596Y-32774488D01*
X-271189Y-32455679D01*
X-166254Y-32109752D01*
X-130821Y-31750000D01*
X3940821Y-31750000D01*
X3976254Y-32109752D01*
X4081189Y-32455679D01*
X4251596Y-32774488D01*
X4480925Y-33053925D01*
X4760362Y-33283254D01*
X5079171Y-33453661D01*
X5425098Y-33558596D01*
X5694701Y-33585150D01*
X8275299Y-33585150D01*
X8544902Y-33558596D01*
X8890829Y-33453661D01*
X9209638Y-33283254D01*
X9489075Y-33053925D01*
X9718404Y-32774488D01*
X9888811Y-32455679D01*
X9993746Y-32109752D01*
X10029179Y-31750000D01*
X9993746Y-31390248D01*
X9888811Y-31044321D01*
X9718404Y-30725512D01*
X9489075Y-30446075D01*
X9209638Y-30216746D01*
X8890829Y-30046339D01*
X8544902Y-29941404D01*
X8275299Y-29914850D01*
X5694701Y-29914850D01*
X5425098Y-29941404D01*
X5079171Y-30046339D01*
X4760362Y-30216746D01*
X4480925Y-30446075D01*
X4251596Y-30725512D01*
X4081189Y-31044321D01*
X3976254Y-31390248D01*
X3940821Y-31750000D01*
X-130821Y-31750000D01*
X-166254Y-31390248D01*
X-271189Y-31044321D01*
X-441596Y-30725512D01*
X-670925Y-30446075D01*
X-950362Y-30216746D01*
X-1269171Y-30046339D01*
X-1615098Y-29941404D01*
X-1884701Y-29914850D01*
X-2079231Y-29914850D01*
X-2354018Y-29767974D01*
X-2756467Y-29645892D01*
X-3070118Y-29615000D01*
X-11325129Y-29615000D01*
X-11430001Y-29604671D01*
X-11534873Y-29615000D01*
X-11534882Y-29615000D01*
X-11848533Y-29645892D01*
X-12250982Y-29767974D01*
X-12621881Y-29966223D01*
X-12621883Y-29966224D01*
X-12621882Y-29966224D01*
X-12865511Y-30166165D01*
X-12865513Y-30166167D01*
X-12946977Y-30233023D01*
X-13013833Y-30314487D01*
X-18911273Y-36211928D01*
X-19030000Y-36211928D01*
X-19154482Y-36224188D01*
X-19274180Y-36260498D01*
X-19384494Y-36319463D01*
X-19481185Y-36398815D01*
X-19560537Y-36495506D01*
X-19619502Y-36605820D01*
X-19655812Y-36725518D01*
X-19668072Y-36850000D01*
X-19668072Y-37103244D01*
X-19762025Y-37279018D01*
X-19884107Y-37681467D01*
X-19925329Y-38100000D01*
X-23470000Y-38100000D01*
X-23470000Y-25940000D01*
X26698928Y-25940000D01*
X26698928Y-29940000D01*
X26711188Y-30064482D01*
X26747498Y-30184180D01*
X26806463Y-30294494D01*
X26885815Y-30391185D01*
X26982506Y-30470537D01*
X27092820Y-30529502D01*
X27212518Y-30565812D01*
X27337000Y-30578072D01*
X31337000Y-30578072D01*
X31461482Y-30565812D01*
X31581180Y-30529502D01*
X31691494Y-30470537D01*
X31788185Y-30391185D01*
X31867537Y-30294494D01*
X31926502Y-30184180D01*
X31962812Y-30064482D01*
X31975072Y-29940000D01*
X31975072Y-25940000D01*
X68481928Y-25940000D01*
X68481928Y-29940000D01*
X68494188Y-30064482D01*
X68530498Y-30184180D01*
X68589463Y-30294494D01*
X68668815Y-30391185D01*
X68765506Y-30470537D01*
X68875820Y-30529502D01*
X68995518Y-30565812D01*
X69120000Y-30578072D01*
X73120000Y-30578072D01*
X73244482Y-30565812D01*
X73364180Y-30529502D01*
X73474494Y-30470537D01*
X73571185Y-30391185D01*
X73650537Y-30294494D01*
X73709502Y-30184180D01*
X73745812Y-30064482D01*
X73758072Y-29940000D01*
X73758072Y-25940000D01*
X73745812Y-25815518D01*
X73709502Y-25695820D01*
X73650537Y-25585506D01*
X73571185Y-25488815D01*
X73474494Y-25409463D01*
X73364180Y-25350498D01*
X73244482Y-25314188D01*
X73120000Y-25301928D01*
X69120000Y-25301928D01*
X68995518Y-25314188D01*
X68875820Y-25350498D01*
X68765506Y-25409463D01*
X68668815Y-25488815D01*
X68589463Y-25585506D01*
X68530498Y-25695820D01*
X68494188Y-25815518D01*
X68481928Y-25940000D01*
X31975072Y-25940000D01*
X31962812Y-25815518D01*
X31926502Y-25695820D01*
X31867537Y-25585506D01*
X31788185Y-25488815D01*
X31691494Y-25409463D01*
X31581180Y-25350498D01*
X31461482Y-25314188D01*
X31337000Y-25301928D01*
X27337000Y-25301928D01*
X27212518Y-25314188D01*
X27092820Y-25350498D01*
X26982506Y-25409463D01*
X26885815Y-25488815D01*
X26806463Y-25585506D01*
X26747498Y-25695820D01*
X26711188Y-25815518D01*
X26698928Y-25940000D01*
X-23470000Y-25940000D01*
X-23470000Y-19787499D01*
X27669106Y-19787499D01*
X27885228Y-20154258D01*
X28345105Y-20394938D01*
X28843098Y-20541275D01*
X29360071Y-20587648D01*
X29876159Y-20532273D01*
X30371526Y-20377279D01*
X30788772Y-20154258D01*
X31004894Y-19787499D01*
X69452106Y-19787499D01*
X69668228Y-20154258D01*
X70128105Y-20394938D01*
X70626098Y-20541275D01*
X71143071Y-20587648D01*
X71659159Y-20532273D01*
X72154526Y-20377279D01*
X72571772Y-20154258D01*
X72787894Y-19787499D01*
X71120000Y-18119605D01*
X69452106Y-19787499D01*
X31004894Y-19787499D01*
X29337000Y-18119605D01*
X27669106Y-19787499D01*
X-23470000Y-19787499D01*
X-23470000Y-17963071D01*
X26689352Y-17963071D01*
X26744727Y-18479159D01*
X26899721Y-18974526D01*
X27122742Y-19391772D01*
X27489501Y-19607894D01*
X29157395Y-17940000D01*
X29516605Y-17940000D01*
X31184499Y-19607894D01*
X31551258Y-19391772D01*
X31791938Y-18931895D01*
X31938275Y-18433902D01*
X31980509Y-17963071D01*
X68472352Y-17963071D01*
X68527727Y-18479159D01*
X68682721Y-18974526D01*
X68905742Y-19391772D01*
X69272501Y-19607894D01*
X70940395Y-17940000D01*
X71299605Y-17940000D01*
X72967499Y-19607894D01*
X73334258Y-19391772D01*
X73574938Y-18931895D01*
X73721275Y-18433902D01*
X73767648Y-17916929D01*
X73712273Y-17400841D01*
X73557279Y-16905474D01*
X73334258Y-16488228D01*
X72967499Y-16272106D01*
X71299605Y-17940000D01*
X70940395Y-17940000D01*
X69272501Y-16272106D01*
X68905742Y-16488228D01*
X68665062Y-16948105D01*
X68518725Y-17446098D01*
X68472352Y-17963071D01*
X31980509Y-17963071D01*
X31984648Y-17916929D01*
X31929273Y-17400841D01*
X31774279Y-16905474D01*
X31551258Y-16488228D01*
X31184499Y-16272106D01*
X29516605Y-17940000D01*
X29157395Y-17940000D01*
X27489501Y-16272106D01*
X27122742Y-16488228D01*
X26882062Y-16948105D01*
X26735725Y-17446098D01*
X26689352Y-17963071D01*
X-23470000Y-17963071D01*
X-23470000Y-16092501D01*
X27669106Y-16092501D01*
X29337000Y-17760395D01*
X31004894Y-16092501D01*
X69452106Y-16092501D01*
X71120000Y-17760395D01*
X72787894Y-16092501D01*
X72571772Y-15725742D01*
X72111895Y-15485062D01*
X71613902Y-15338725D01*
X71096929Y-15292352D01*
X70580841Y-15347727D01*
X70085474Y-15502721D01*
X69668228Y-15725742D01*
X69452106Y-16092501D01*
X31004894Y-16092501D01*
X30788772Y-15725742D01*
X30328895Y-15485062D01*
X29830902Y-15338725D01*
X29313929Y-15292352D01*
X28797841Y-15347727D01*
X28302474Y-15502721D01*
X27885228Y-15725742D01*
X27669106Y-16092501D01*
X-23470000Y-16092501D01*
X-23470000Y-6129872D01*
X-21285000Y-6129872D01*
X-21285000Y-6570128D01*
X-21199110Y-7001925D01*
X-21030631Y-7408669D01*
X-20786038Y-7774729D01*
X-20474729Y-8086038D01*
X-20108669Y-8330631D01*
X-19701925Y-8499110D01*
X-19270128Y-8585000D01*
X-18829872Y-8585000D01*
X-18398075Y-8499110D01*
X-17991331Y-8330631D01*
X-17625271Y-8086038D01*
X-17313962Y-7774729D01*
X-17069369Y-7408669D01*
X-16900890Y-7001925D01*
X-16815000Y-6570128D01*
X-16815000Y-6129872D01*
X95555000Y-6129872D01*
X95555000Y-6570128D01*
X95640890Y-7001925D01*
X95809369Y-7408669D01*
X96053962Y-7774729D01*
X96365271Y-8086038D01*
X96731331Y-8330631D01*
X97138075Y-8499110D01*
X97569872Y-8585000D01*
X98010128Y-8585000D01*
X98441925Y-8499110D01*
X98848669Y-8330631D01*
X99214729Y-8086038D01*
X99526038Y-7774729D01*
X99770631Y-7408669D01*
X99939110Y-7001925D01*
X100025000Y-6570128D01*
X100025000Y-6129872D01*
X99939110Y-5698075D01*
X99770631Y-5291331D01*
X99526038Y-4925271D01*
X99214729Y-4613962D01*
X98848669Y-4369369D01*
X98441925Y-4200890D01*
X98010128Y-4115000D01*
X97569872Y-4115000D01*
X97138075Y-4200890D01*
X96731331Y-4369369D01*
X96365271Y-4613962D01*
X96053962Y-4925271D01*
X95809369Y-5291331D01*
X95640890Y-5698075D01*
X95555000Y-6129872D01*
X-16815000Y-6129872D01*
X-16900890Y-5698075D01*
X-17069369Y-5291331D01*
X-17313962Y-4925271D01*
X-17625271Y-4613962D01*
X-17991331Y-4369369D01*
X-18398075Y-4200890D01*
X-18829872Y-4115000D01*
X-19270128Y-4115000D01*
X-19701925Y-4200890D01*
X-20108669Y-4369369D01*
X-20474729Y-4613962D01*
X-20786038Y-4925271D01*
X-21030631Y-5291331D01*
X-21199110Y-5698075D01*
X-21285000Y-6129872D01*
X-23470000Y-6129872D01*
X-23470000Y-1930000D01*
X102210001Y-1930000D01*
X102210000Y-84430000D01*
G04 #@! TA.AperFunction,Conductor*
D22*
G36*
X102210000Y-84430000D02*
G01*
X-23470000Y-84430000D01*
X-23470000Y-79789872D01*
X-21285000Y-79789872D01*
X-21285000Y-80230128D01*
X-21199110Y-80661925D01*
X-21030631Y-81068669D01*
X-20786038Y-81434729D01*
X-20474729Y-81746038D01*
X-20108669Y-81990631D01*
X-19701925Y-82159110D01*
X-19270128Y-82245000D01*
X-18829872Y-82245000D01*
X-18398075Y-82159110D01*
X-17991331Y-81990631D01*
X-17625271Y-81746038D01*
X-17313962Y-81434729D01*
X-17069369Y-81068669D01*
X-16900890Y-80661925D01*
X-16815000Y-80230128D01*
X-16815000Y-79789872D01*
X95555000Y-79789872D01*
X95555000Y-80230128D01*
X95640890Y-80661925D01*
X95809369Y-81068669D01*
X96053962Y-81434729D01*
X96365271Y-81746038D01*
X96731331Y-81990631D01*
X97138075Y-82159110D01*
X97569872Y-82245000D01*
X98010128Y-82245000D01*
X98441925Y-82159110D01*
X98848669Y-81990631D01*
X99214729Y-81746038D01*
X99526038Y-81434729D01*
X99770631Y-81068669D01*
X99939110Y-80661925D01*
X100025000Y-80230128D01*
X100025000Y-79789872D01*
X99939110Y-79358075D01*
X99770631Y-78951331D01*
X99526038Y-78585271D01*
X99214729Y-78273962D01*
X98848669Y-78029369D01*
X98441925Y-77860890D01*
X98010128Y-77775000D01*
X97569872Y-77775000D01*
X97138075Y-77860890D01*
X96731331Y-78029369D01*
X96365271Y-78273962D01*
X96053962Y-78585271D01*
X95809369Y-78951331D01*
X95640890Y-79358075D01*
X95555000Y-79789872D01*
X-16815000Y-79789872D01*
X-16900890Y-79358075D01*
X-17069369Y-78951331D01*
X-17313962Y-78585271D01*
X-17625271Y-78273962D01*
X-17991331Y-78029369D01*
X-18398075Y-77860890D01*
X-18829872Y-77775000D01*
X-19270128Y-77775000D01*
X-19701925Y-77860890D01*
X-20108669Y-78029369D01*
X-20474729Y-78273962D01*
X-20786038Y-78585271D01*
X-21030631Y-78951331D01*
X-21199110Y-79358075D01*
X-21285000Y-79789872D01*
X-23470000Y-79789872D01*
X-23470000Y-72209268D01*
X-19615000Y-72209268D01*
X-19615000Y-72570732D01*
X-19544482Y-72925250D01*
X-19406156Y-73259199D01*
X-19205338Y-73559744D01*
X-18949744Y-73815338D01*
X-18649199Y-74016156D01*
X-18315250Y-74154482D01*
X-17960732Y-74225000D01*
X-17599268Y-74225000D01*
X-17244750Y-74154482D01*
X-16910801Y-74016156D01*
X-16610256Y-73815338D01*
X-16462898Y-73667980D01*
X-3878374Y-73667980D01*
X-3758486Y-73952836D01*
X-3434790Y-74113699D01*
X-3085931Y-74208322D01*
X-2725316Y-74233067D01*
X-2366802Y-74186985D01*
X-2024167Y-74071846D01*
X-1801514Y-73952836D01*
X-1681626Y-73667980D01*
X-2780000Y-72569605D01*
X-3878374Y-73667980D01*
X-16462898Y-73667980D01*
X-16354662Y-73559744D01*
X-16153844Y-73259199D01*
X-16015518Y-72925250D01*
X-15945000Y-72570732D01*
X-15945000Y-72444684D01*
X-4623067Y-72444684D01*
X-4576985Y-72803198D01*
X-4461846Y-73145833D01*
X-4342836Y-73368486D01*
X-4057980Y-73488374D01*
X-2959605Y-72390000D01*
X-2600395Y-72390000D01*
X-1502020Y-73488374D01*
X-1217164Y-73368486D01*
X-1056301Y-73044790D01*
X-961678Y-72695931D01*
X-936933Y-72335316D01*
X-983015Y-71976802D01*
X-1098154Y-71634167D01*
X-1217164Y-71411514D01*
X-1502020Y-71291626D01*
X-2600395Y-72390000D01*
X-2959605Y-72390000D01*
X-4057980Y-71291626D01*
X-4342836Y-71411514D01*
X-4503699Y-71735210D01*
X-4598322Y-72084069D01*
X-4623067Y-72444684D01*
X-15945000Y-72444684D01*
X-15945000Y-72209268D01*
X-16015518Y-71854750D01*
X-16153844Y-71520801D01*
X-16354662Y-71220256D01*
X-16462898Y-71112020D01*
X-3878374Y-71112020D01*
X-2780000Y-72210395D01*
X-1784606Y-71215000D01*
X26571928Y-71215000D01*
X26584188Y-71339482D01*
X26620498Y-71459180D01*
X26679463Y-71569494D01*
X26758815Y-71666185D01*
X26855506Y-71745537D01*
X26965820Y-71804502D01*
X27085518Y-71840812D01*
X27210000Y-71853072D01*
X28924250Y-71850000D01*
X29083000Y-71691250D01*
X29083000Y-69342000D01*
X29337000Y-69342000D01*
X29337000Y-71691250D01*
X29495750Y-71850000D01*
X31210000Y-71853072D01*
X31334482Y-71840812D01*
X31454180Y-71804502D01*
X31564494Y-71745537D01*
X31661185Y-71666185D01*
X31740537Y-71569494D01*
X31799502Y-71459180D01*
X31835812Y-71339482D01*
X31848072Y-71215000D01*
X68481928Y-71215000D01*
X68494188Y-71339482D01*
X68530498Y-71459180D01*
X68589463Y-71569494D01*
X68668815Y-71666185D01*
X68765506Y-71745537D01*
X68875820Y-71804502D01*
X68995518Y-71840812D01*
X69120000Y-71853072D01*
X70834250Y-71850000D01*
X70993000Y-71691250D01*
X70993000Y-69342000D01*
X71247000Y-69342000D01*
X71247000Y-71691250D01*
X71405750Y-71850000D01*
X73120000Y-71853072D01*
X73244482Y-71840812D01*
X73364180Y-71804502D01*
X73474494Y-71745537D01*
X73571185Y-71666185D01*
X73650537Y-71569494D01*
X73709502Y-71459180D01*
X73745812Y-71339482D01*
X73758072Y-71215000D01*
X73755000Y-69500750D01*
X73596250Y-69342000D01*
X71247000Y-69342000D01*
X70993000Y-69342000D01*
X68643750Y-69342000D01*
X68485000Y-69500750D01*
X68481928Y-71215000D01*
X31848072Y-71215000D01*
X31845000Y-69500750D01*
X31686250Y-69342000D01*
X29337000Y-69342000D01*
X29083000Y-69342000D01*
X26733750Y-69342000D01*
X26575000Y-69500750D01*
X26571928Y-71215000D01*
X-1784606Y-71215000D01*
X-1681626Y-71112020D01*
X-1801514Y-70827164D01*
X-2125210Y-70666301D01*
X-2474069Y-70571678D01*
X-2834684Y-70546933D01*
X-3193198Y-70593015D01*
X-3535833Y-70708154D01*
X-3758486Y-70827164D01*
X-3878374Y-71112020D01*
X-16462898Y-71112020D01*
X-16610256Y-70964662D01*
X-16910801Y-70763844D01*
X-17244750Y-70625518D01*
X-17599268Y-70555000D01*
X-17960732Y-70555000D01*
X-18315250Y-70625518D01*
X-18649199Y-70763844D01*
X-18949744Y-70964662D01*
X-19205338Y-71220256D01*
X-19406156Y-71520801D01*
X-19544482Y-71854750D01*
X-19615000Y-72209268D01*
X-23470000Y-72209268D01*
X-23470000Y-66494268D01*
X-19615000Y-66494268D01*
X-19615000Y-66855732D01*
X-19544482Y-67210250D01*
X-19406156Y-67544199D01*
X-19205338Y-67844744D01*
X-18949744Y-68100338D01*
X-18649199Y-68301156D01*
X-18315250Y-68439482D01*
X-17960732Y-68510000D01*
X-17599268Y-68510000D01*
X-17244750Y-68439482D01*
X-16910801Y-68301156D01*
X-16610256Y-68100338D01*
X-16354662Y-67844744D01*
X-16153844Y-67544199D01*
X-16015518Y-67210250D01*
X-15990964Y-67086805D01*
X-4328195Y-67086805D01*
X-4255621Y-67326066D01*
X-4095639Y-67648257D01*
X-3875875Y-67933046D01*
X-3604774Y-68169489D01*
X-3292754Y-68348500D01*
X-2951806Y-68463199D01*
X-2667000Y-68346854D01*
X-2667000Y-66802000D01*
X-2413000Y-66802000D01*
X-2413000Y-68346854D01*
X-2128194Y-68463199D01*
X-1787246Y-68348500D01*
X-1475226Y-68169489D01*
X-1204125Y-67933046D01*
X-984361Y-67648257D01*
X-824379Y-67326066D01*
X-790690Y-67215000D01*
X26571928Y-67215000D01*
X26575000Y-68929250D01*
X26733750Y-69088000D01*
X29083000Y-69088000D01*
X29083000Y-66738750D01*
X29337000Y-66738750D01*
X29337000Y-69088000D01*
X31686250Y-69088000D01*
X31845000Y-68929250D01*
X31848072Y-67215000D01*
X68481928Y-67215000D01*
X68485000Y-68929250D01*
X68643750Y-69088000D01*
X70993000Y-69088000D01*
X70993000Y-66738750D01*
X71247000Y-66738750D01*
X71247000Y-69088000D01*
X73596250Y-69088000D01*
X73755000Y-68929250D01*
X73758072Y-67215000D01*
X73745812Y-67090518D01*
X73709502Y-66970820D01*
X73650537Y-66860506D01*
X73571185Y-66763815D01*
X73474494Y-66684463D01*
X73364180Y-66625498D01*
X73244482Y-66589188D01*
X73120000Y-66576928D01*
X71405750Y-66580000D01*
X71247000Y-66738750D01*
X70993000Y-66738750D01*
X70834250Y-66580000D01*
X69120000Y-66576928D01*
X68995518Y-66589188D01*
X68875820Y-66625498D01*
X68765506Y-66684463D01*
X68668815Y-66763815D01*
X68589463Y-66860506D01*
X68530498Y-66970820D01*
X68494188Y-67090518D01*
X68481928Y-67215000D01*
X31848072Y-67215000D01*
X31835812Y-67090518D01*
X31799502Y-66970820D01*
X31740537Y-66860506D01*
X31661185Y-66763815D01*
X31564494Y-66684463D01*
X31454180Y-66625498D01*
X31334482Y-66589188D01*
X31210000Y-66576928D01*
X29495750Y-66580000D01*
X29337000Y-66738750D01*
X29083000Y-66738750D01*
X28924250Y-66580000D01*
X27210000Y-66576928D01*
X27085518Y-66589188D01*
X26965820Y-66625498D01*
X26855506Y-66684463D01*
X26758815Y-66763815D01*
X26679463Y-66860506D01*
X26620498Y-66970820D01*
X26584188Y-67090518D01*
X26571928Y-67215000D01*
X-790690Y-67215000D01*
X-751805Y-67086805D01*
X-868568Y-66802000D01*
X-2413000Y-66802000D01*
X-2667000Y-66802000D01*
X-4211432Y-66802000D01*
X-4328195Y-67086805D01*
X-15990964Y-67086805D01*
X-15945000Y-66855732D01*
X-15945000Y-66494268D01*
X-15990963Y-66263195D01*
X-4328195Y-66263195D01*
X-4211432Y-66548000D01*
X-2667000Y-66548000D01*
X-2667000Y-65003146D01*
X-2413000Y-65003146D01*
X-2413000Y-66548000D01*
X-868568Y-66548000D01*
X-751805Y-66263195D01*
X-824379Y-66023934D01*
X-984361Y-65701743D01*
X-1204125Y-65416954D01*
X-1475226Y-65180511D01*
X-1787246Y-65001500D01*
X-2128194Y-64886801D01*
X-2413000Y-65003146D01*
X-2667000Y-65003146D01*
X-2951806Y-64886801D01*
X-3292754Y-65001500D01*
X-3604774Y-65180511D01*
X-3875875Y-65416954D01*
X-4095639Y-65701743D01*
X-4255621Y-66023934D01*
X-4328195Y-66263195D01*
X-15990963Y-66263195D01*
X-16015518Y-66139750D01*
X-16153844Y-65805801D01*
X-16354662Y-65505256D01*
X-16610256Y-65249662D01*
X-16910801Y-65048844D01*
X-17244750Y-64910518D01*
X-17599268Y-64840000D01*
X-17960732Y-64840000D01*
X-18315250Y-64910518D01*
X-18649199Y-65048844D01*
X-18949744Y-65249662D01*
X-19205338Y-65505256D01*
X-19406156Y-65805801D01*
X-19544482Y-66139750D01*
X-19615000Y-66494268D01*
X-23470000Y-66494268D01*
X-23470000Y-58864419D01*
X-19715000Y-58864419D01*
X-19715000Y-59245581D01*
X-19640639Y-59619419D01*
X-19494775Y-59971566D01*
X-19283013Y-60288491D01*
X-19013491Y-60558013D01*
X-18696566Y-60769775D01*
X-18344419Y-60915639D01*
X-17970581Y-60990000D01*
X-17589419Y-60990000D01*
X-17215581Y-60915639D01*
X-16863434Y-60769775D01*
X-16546509Y-60558013D01*
X-16276987Y-60288491D01*
X-16065225Y-59971566D01*
X-15919361Y-59619419D01*
X-15845000Y-59245581D01*
X-15845000Y-58955475D01*
X26575000Y-58955475D01*
X26575000Y-59474525D01*
X26676261Y-59983601D01*
X26874893Y-60463141D01*
X27163262Y-60894715D01*
X27530285Y-61261738D01*
X27961859Y-61550107D01*
X28441399Y-61748739D01*
X28950475Y-61850000D01*
X29469525Y-61850000D01*
X29978601Y-61748739D01*
X30458141Y-61550107D01*
X30889715Y-61261738D01*
X31256738Y-60894715D01*
X31545107Y-60463141D01*
X31743739Y-59983601D01*
X31845000Y-59474525D01*
X31845000Y-58955475D01*
X68485000Y-58955475D01*
X68485000Y-59474525D01*
X68586261Y-59983601D01*
X68784893Y-60463141D01*
X69073262Y-60894715D01*
X69440285Y-61261738D01*
X69871859Y-61550107D01*
X70351399Y-61748739D01*
X70860475Y-61850000D01*
X71379525Y-61850000D01*
X71888601Y-61748739D01*
X72368141Y-61550107D01*
X72799715Y-61261738D01*
X73166738Y-60894715D01*
X73455107Y-60463141D01*
X73653739Y-59983601D01*
X73755000Y-59474525D01*
X73755000Y-58955475D01*
X73653739Y-58446399D01*
X73455107Y-57966859D01*
X73166738Y-57535285D01*
X72799715Y-57168262D01*
X72368141Y-56879893D01*
X71888601Y-56681261D01*
X71379525Y-56580000D01*
X70860475Y-56580000D01*
X70351399Y-56681261D01*
X69871859Y-56879893D01*
X69440285Y-57168262D01*
X69073262Y-57535285D01*
X68784893Y-57966859D01*
X68586261Y-58446399D01*
X68485000Y-58955475D01*
X31845000Y-58955475D01*
X31743739Y-58446399D01*
X31545107Y-57966859D01*
X31256738Y-57535285D01*
X30889715Y-57168262D01*
X30458141Y-56879893D01*
X29978601Y-56681261D01*
X29469525Y-56580000D01*
X28950475Y-56580000D01*
X28441399Y-56681261D01*
X27961859Y-56879893D01*
X27530285Y-57168262D01*
X27163262Y-57535285D01*
X26874893Y-57966859D01*
X26676261Y-58446399D01*
X26575000Y-58955475D01*
X-15845000Y-58955475D01*
X-15845000Y-58864419D01*
X-15919361Y-58490581D01*
X-16065225Y-58138434D01*
X-16276987Y-57821509D01*
X-16546509Y-57551987D01*
X-16863434Y-57340225D01*
X-17215581Y-57194361D01*
X-17589419Y-57120000D01*
X-17970581Y-57120000D01*
X-18344419Y-57194361D01*
X-18696566Y-57340225D01*
X-19013491Y-57551987D01*
X-19283013Y-57821509D01*
X-19494775Y-58138434D01*
X-19640639Y-58490581D01*
X-19715000Y-58864419D01*
X-23470000Y-58864419D01*
X-23470000Y-48100000D01*
X-19925329Y-48100000D01*
X-19884107Y-48518533D01*
X-19762025Y-48920982D01*
X-19563776Y-49291881D01*
X-19363835Y-49535510D01*
X-12218833Y-56680513D01*
X-12151977Y-56761977D01*
X-12070513Y-56828833D01*
X-12070511Y-56828835D01*
X-11924502Y-56948661D01*
X-11826881Y-57028777D01*
X-11656214Y-57120000D01*
X-11455983Y-57227026D01*
X-11053534Y-57349108D01*
X-11015999Y-57352805D01*
X-10739882Y-57380000D01*
X-10739875Y-57380000D01*
X-10635000Y-57390329D01*
X-10530126Y-57380000D01*
X-3070118Y-57380000D01*
X-2756467Y-57349108D01*
X-2354018Y-57227026D01*
X-2079231Y-57080150D01*
X-1884701Y-57080150D01*
X-1615098Y-57053596D01*
X-1269171Y-56948661D01*
X-950362Y-56778254D01*
X-670925Y-56548925D01*
X-441596Y-56269488D01*
X-271189Y-55950679D01*
X-166254Y-55604752D01*
X-130821Y-55245000D01*
X3940821Y-55245000D01*
X3976254Y-55604752D01*
X4081189Y-55950679D01*
X4251596Y-56269488D01*
X4480925Y-56548925D01*
X4760362Y-56778254D01*
X5079171Y-56948661D01*
X5425098Y-57053596D01*
X5694701Y-57080150D01*
X8275299Y-57080150D01*
X8544902Y-57053596D01*
X8890829Y-56948661D01*
X9209638Y-56778254D01*
X9489075Y-56548925D01*
X9718404Y-56269488D01*
X9888811Y-55950679D01*
X9993746Y-55604752D01*
X10029179Y-55245000D01*
X9993746Y-54885248D01*
X9888811Y-54539321D01*
X9718404Y-54220512D01*
X9489075Y-53941075D01*
X9209638Y-53711746D01*
X8890829Y-53541339D01*
X8544902Y-53436404D01*
X8275299Y-53409850D01*
X5694701Y-53409850D01*
X5425098Y-53436404D01*
X5079171Y-53541339D01*
X4760362Y-53711746D01*
X4480925Y-53941075D01*
X4251596Y-54220512D01*
X4081189Y-54539321D01*
X3976254Y-54885248D01*
X3940821Y-55245000D01*
X-130821Y-55245000D01*
X-166254Y-54885248D01*
X-271189Y-54539321D01*
X-441596Y-54220512D01*
X-670925Y-53941075D01*
X-950362Y-53711746D01*
X-1269171Y-53541339D01*
X-1615098Y-53436404D01*
X-1884701Y-53409850D01*
X-2079231Y-53409850D01*
X-2354018Y-53262974D01*
X-2756467Y-53140892D01*
X-3070118Y-53110000D01*
X-7615023Y-53110000D01*
X-7568992Y-52958255D01*
X-7551928Y-52785001D01*
X-7551928Y-52084999D01*
X-7568992Y-51911745D01*
X-7619528Y-51745149D01*
X-7701595Y-51591613D01*
X-7812038Y-51457038D01*
X-7838891Y-51435000D01*
X-7812038Y-51412962D01*
X-7701595Y-51278387D01*
X-7619528Y-51124851D01*
X-7568992Y-50958255D01*
X-7551928Y-50785001D01*
X-7551928Y-50084999D01*
X-7568992Y-49911745D01*
X-7619528Y-49745149D01*
X-7701595Y-49591613D01*
X-7755000Y-49526539D01*
X-7755000Y-49365388D01*
X-7746613Y-49360905D01*
X-7612038Y-49250462D01*
X-7501595Y-49115887D01*
X-7419528Y-48962351D01*
X-7399098Y-48895000D01*
X-6219179Y-48895000D01*
X-6183746Y-49254752D01*
X-6078811Y-49600679D01*
X-5908404Y-49919488D01*
X-5679075Y-50198925D01*
X-5399638Y-50428254D01*
X-5080829Y-50598661D01*
X-4734902Y-50703596D01*
X-4465299Y-50730150D01*
X-1884701Y-50730150D01*
X-1615098Y-50703596D01*
X-1269171Y-50598661D01*
X-950362Y-50428254D01*
X-670925Y-50198925D01*
X-441596Y-49919488D01*
X-271189Y-49600679D01*
X-166254Y-49254752D01*
X-130821Y-48895000D01*
X3940821Y-48895000D01*
X3976254Y-49254752D01*
X4081189Y-49600679D01*
X4251596Y-49919488D01*
X4480925Y-50198925D01*
X4760362Y-50428254D01*
X5079171Y-50598661D01*
X5425098Y-50703596D01*
X5694701Y-50730150D01*
X8275299Y-50730150D01*
X8544902Y-50703596D01*
X8890829Y-50598661D01*
X9209638Y-50428254D01*
X9489075Y-50198925D01*
X9698562Y-49943665D01*
X88100000Y-49943665D01*
X88100000Y-50226335D01*
X88155147Y-50503574D01*
X88263320Y-50764727D01*
X88420363Y-50999759D01*
X88620241Y-51199637D01*
X88855273Y-51356680D01*
X89116426Y-51464853D01*
X89393665Y-51520000D01*
X89676335Y-51520000D01*
X89953574Y-51464853D01*
X90214727Y-51356680D01*
X90449759Y-51199637D01*
X90649637Y-50999759D01*
X90806680Y-50764727D01*
X90914853Y-50503574D01*
X90970000Y-50226335D01*
X90970000Y-49943665D01*
X90914853Y-49666426D01*
X90806680Y-49405273D01*
X90649637Y-49170241D01*
X90449759Y-48970363D01*
X90214727Y-48813320D01*
X89953574Y-48705147D01*
X89676335Y-48650000D01*
X89393665Y-48650000D01*
X89116426Y-48705147D01*
X88855273Y-48813320D01*
X88620241Y-48970363D01*
X88420363Y-49170241D01*
X88263320Y-49405273D01*
X88155147Y-49666426D01*
X88100000Y-49943665D01*
X9698562Y-49943665D01*
X9718404Y-49919488D01*
X9888811Y-49600679D01*
X9993746Y-49254752D01*
X10029179Y-48895000D01*
X9993746Y-48535248D01*
X9888811Y-48189321D01*
X9784594Y-47994344D01*
X93619000Y-47994344D01*
X93619000Y-48365656D01*
X93691439Y-48729834D01*
X93833534Y-49072882D01*
X94039825Y-49381618D01*
X94302382Y-49644175D01*
X94611118Y-49850466D01*
X94954166Y-49992561D01*
X95318344Y-50065000D01*
X95689656Y-50065000D01*
X96053834Y-49992561D01*
X96396882Y-49850466D01*
X96705618Y-49644175D01*
X96968175Y-49381618D01*
X97174466Y-49072882D01*
X97316561Y-48729834D01*
X97389000Y-48365656D01*
X97389000Y-47994344D01*
X97316561Y-47630166D01*
X97174466Y-47287118D01*
X96968175Y-46978382D01*
X96705618Y-46715825D01*
X96396882Y-46509534D01*
X96053834Y-46367439D01*
X95689656Y-46295000D01*
X95318344Y-46295000D01*
X94954166Y-46367439D01*
X94611118Y-46509534D01*
X94302382Y-46715825D01*
X94039825Y-46978382D01*
X93833534Y-47287118D01*
X93691439Y-47630166D01*
X93619000Y-47994344D01*
X9784594Y-47994344D01*
X9718404Y-47870512D01*
X9489075Y-47591075D01*
X9209638Y-47361746D01*
X8890829Y-47191339D01*
X8544902Y-47086404D01*
X8275299Y-47059850D01*
X5694701Y-47059850D01*
X5425098Y-47086404D01*
X5079171Y-47191339D01*
X4760362Y-47361746D01*
X4480925Y-47591075D01*
X4251596Y-47870512D01*
X4081189Y-48189321D01*
X3976254Y-48535248D01*
X3940821Y-48895000D01*
X-130821Y-48895000D01*
X-166254Y-48535248D01*
X-271189Y-48189321D01*
X-441596Y-47870512D01*
X-670925Y-47591075D01*
X-950362Y-47361746D01*
X-1269171Y-47191339D01*
X-1615098Y-47086404D01*
X-1884701Y-47059850D01*
X-4465299Y-47059850D01*
X-4734902Y-47086404D01*
X-5080829Y-47191339D01*
X-5399638Y-47361746D01*
X-5679075Y-47591075D01*
X-5908404Y-47870512D01*
X-6078811Y-48189321D01*
X-6183746Y-48535248D01*
X-6219179Y-48895000D01*
X-7399098Y-48895000D01*
X-7368992Y-48795755D01*
X-7351928Y-48622501D01*
X-7351928Y-47797499D01*
X-7368992Y-47624245D01*
X-7419528Y-47457649D01*
X-7501595Y-47304113D01*
X-7612038Y-47169538D01*
X-7746613Y-47059095D01*
X-7900149Y-46977028D01*
X-8066745Y-46926492D01*
X-8239999Y-46909428D01*
X-9540001Y-46909428D01*
X-9713255Y-46926492D01*
X-9879851Y-46977028D01*
X-10033387Y-47059095D01*
X-10067432Y-47087035D01*
X-10066928Y-47037500D01*
X-10079188Y-46913018D01*
X-10115498Y-46793320D01*
X-10174463Y-46683006D01*
X-10253815Y-46586315D01*
X-10350506Y-46506963D01*
X-10460820Y-46447998D01*
X-10580518Y-46411688D01*
X-10705000Y-46399428D01*
X-11144250Y-46402500D01*
X-11303000Y-46561250D01*
X-11303000Y-47498000D01*
X-11283000Y-47498000D01*
X-11283000Y-47752000D01*
X-11303000Y-47752000D01*
X-11303000Y-47772000D01*
X-11557000Y-47772000D01*
X-11557000Y-47752000D01*
X-12631250Y-47752000D01*
X-12790000Y-47910750D01*
X-12793072Y-48212500D01*
X-12780812Y-48336982D01*
X-12744502Y-48456680D01*
X-12685537Y-48566994D01*
X-12606185Y-48663685D01*
X-12526406Y-48729158D01*
X-12532962Y-48734538D01*
X-12643405Y-48869114D01*
X-12725472Y-49022650D01*
X-12776008Y-49189246D01*
X-12793072Y-49362500D01*
X-12793072Y-50037500D01*
X-12789785Y-50070869D01*
X-15823154Y-47037500D01*
X-12793072Y-47037500D01*
X-12790000Y-47339250D01*
X-12631250Y-47498000D01*
X-11557000Y-47498000D01*
X-11557000Y-46561250D01*
X-11715750Y-46402500D01*
X-12155000Y-46399428D01*
X-12279482Y-46411688D01*
X-12399180Y-46447998D01*
X-12509494Y-46506963D01*
X-12606185Y-46586315D01*
X-12685537Y-46683006D01*
X-12744502Y-46793320D01*
X-12780812Y-46913018D01*
X-12793072Y-47037500D01*
X-15823154Y-47037500D01*
X-16344490Y-46516165D01*
X-16588119Y-46316224D01*
X-16959018Y-46117975D01*
X-17361467Y-45995893D01*
X-17780000Y-45954671D01*
X-18198533Y-45995893D01*
X-18600982Y-46117975D01*
X-18971881Y-46316224D01*
X-19296977Y-46583023D01*
X-19563776Y-46908119D01*
X-19762025Y-47279018D01*
X-19884107Y-47681467D01*
X-19925329Y-48100000D01*
X-23470000Y-48100000D01*
X-23470000Y-45747500D01*
X-10428072Y-45747500D01*
X-10415812Y-45871982D01*
X-10379502Y-45991680D01*
X-10320537Y-46101994D01*
X-10241185Y-46198685D01*
X-10144494Y-46278037D01*
X-10034180Y-46337002D01*
X-9914482Y-46373312D01*
X-9790000Y-46385572D01*
X-9175750Y-46382500D01*
X-9017000Y-46223750D01*
X-9017000Y-45212000D01*
X-8763000Y-45212000D01*
X-8763000Y-46223750D01*
X-8604250Y-46382500D01*
X-7990000Y-46385572D01*
X-7865518Y-46373312D01*
X-7745820Y-46337002D01*
X-7635506Y-46278037D01*
X-7538815Y-46198685D01*
X-7459463Y-46101994D01*
X-7446479Y-46077702D01*
X88721903Y-46077702D01*
X88793486Y-46321671D01*
X89048996Y-46442571D01*
X89323184Y-46511300D01*
X89605512Y-46525217D01*
X89885130Y-46483787D01*
X90151292Y-46388603D01*
X90276514Y-46321671D01*
X90348097Y-46077702D01*
X89535000Y-45264605D01*
X88721903Y-46077702D01*
X-7446479Y-46077702D01*
X-7400498Y-45991680D01*
X-7364188Y-45871982D01*
X-7351928Y-45747500D01*
X-7355000Y-45370750D01*
X-7513750Y-45212000D01*
X-8763000Y-45212000D01*
X-9017000Y-45212000D01*
X-10266250Y-45212000D01*
X-10425000Y-45370750D01*
X-10428072Y-45747500D01*
X-23470000Y-45747500D01*
X-23470000Y-45155512D01*
X88094783Y-45155512D01*
X88136213Y-45435130D01*
X88231397Y-45701292D01*
X88298329Y-45826514D01*
X88542298Y-45898097D01*
X89355395Y-45085000D01*
X89714605Y-45085000D01*
X90527702Y-45898097D01*
X90771671Y-45826514D01*
X90892571Y-45571004D01*
X90961300Y-45296816D01*
X90975217Y-45014488D01*
X90933787Y-44734870D01*
X90847507Y-44493605D01*
X94370000Y-44493605D01*
X94495914Y-44783577D01*
X94828126Y-44949433D01*
X95186312Y-45047290D01*
X95556706Y-45073389D01*
X95925075Y-45026725D01*
X96277262Y-44909094D01*
X96512086Y-44783577D01*
X96638000Y-44493605D01*
X95504000Y-43359605D01*
X94370000Y-44493605D01*
X90847507Y-44493605D01*
X90838603Y-44468708D01*
X90771671Y-44343486D01*
X90527702Y-44271903D01*
X89714605Y-45085000D01*
X89355395Y-45085000D01*
X88542298Y-44271903D01*
X88298329Y-44343486D01*
X88177429Y-44598996D01*
X88108700Y-44873184D01*
X88094783Y-45155512D01*
X-23470000Y-45155512D01*
X-23470000Y-44413605D01*
X-18914000Y-44413605D01*
X-18788086Y-44703577D01*
X-18455874Y-44869433D01*
X-18097688Y-44967290D01*
X-17727294Y-44993389D01*
X-17358925Y-44946725D01*
X-17006738Y-44829094D01*
X-16771914Y-44703577D01*
X-16649863Y-44422500D01*
X-10428072Y-44422500D01*
X-10425000Y-44799250D01*
X-10266250Y-44958000D01*
X-9017000Y-44958000D01*
X-9017000Y-43946250D01*
X-8763000Y-43946250D01*
X-8763000Y-44958000D01*
X-7513750Y-44958000D01*
X-7355000Y-44799250D01*
X-7351928Y-44422500D01*
X-7364188Y-44298018D01*
X-7400498Y-44178320D01*
X-7446478Y-44092298D01*
X88721903Y-44092298D01*
X89535000Y-44905395D01*
X90348097Y-44092298D01*
X90276514Y-43848329D01*
X90021004Y-43727429D01*
X89746816Y-43658700D01*
X89464488Y-43644783D01*
X89184870Y-43686213D01*
X88918708Y-43781397D01*
X88793486Y-43848329D01*
X88721903Y-44092298D01*
X-7446478Y-44092298D01*
X-7459463Y-44068006D01*
X-7538815Y-43971315D01*
X-7635506Y-43891963D01*
X-7745820Y-43832998D01*
X-7865518Y-43796688D01*
X-7990000Y-43784428D01*
X-8604250Y-43787500D01*
X-8763000Y-43946250D01*
X-9017000Y-43946250D01*
X-9175750Y-43787500D01*
X-9790000Y-43784428D01*
X-9914482Y-43796688D01*
X-10034180Y-43832998D01*
X-10144494Y-43891963D01*
X-10241185Y-43971315D01*
X-10320537Y-44068006D01*
X-10379502Y-44178320D01*
X-10415812Y-44298018D01*
X-10428072Y-44422500D01*
X-16649863Y-44422500D01*
X-16646000Y-44413605D01*
X-17780000Y-43279605D01*
X-18914000Y-44413605D01*
X-23470000Y-44413605D01*
X-23470000Y-43152706D01*
X-19673389Y-43152706D01*
X-19626725Y-43521075D01*
X-19509094Y-43873262D01*
X-19383577Y-44108086D01*
X-19093605Y-44234000D01*
X-17959605Y-43100000D01*
X-17600395Y-43100000D01*
X-16466395Y-44234000D01*
X-16176423Y-44108086D01*
X-16010567Y-43775874D01*
X-15912710Y-43417688D01*
X-15886611Y-43047294D01*
X-15915061Y-42822702D01*
X88721903Y-42822702D01*
X88793486Y-43066671D01*
X89048996Y-43187571D01*
X89323184Y-43256300D01*
X89605512Y-43270217D01*
X89858680Y-43232706D01*
X93610611Y-43232706D01*
X93657275Y-43601075D01*
X93774906Y-43953262D01*
X93900423Y-44188086D01*
X94190395Y-44314000D01*
X95324395Y-43180000D01*
X95683605Y-43180000D01*
X96817605Y-44314000D01*
X97107577Y-44188086D01*
X97273433Y-43855874D01*
X97371290Y-43497688D01*
X97397389Y-43127294D01*
X97350725Y-42758925D01*
X97233094Y-42406738D01*
X97107577Y-42171914D01*
X96817605Y-42046000D01*
X95683605Y-43180000D01*
X95324395Y-43180000D01*
X94190395Y-42046000D01*
X93900423Y-42171914D01*
X93734567Y-42504126D01*
X93636710Y-42862312D01*
X93610611Y-43232706D01*
X89858680Y-43232706D01*
X89885130Y-43228787D01*
X90151292Y-43133603D01*
X90276514Y-43066671D01*
X90348097Y-42822702D01*
X89535000Y-42009605D01*
X88721903Y-42822702D01*
X-15915061Y-42822702D01*
X-15933275Y-42678925D01*
X-16050906Y-42326738D01*
X-16176423Y-42091914D01*
X-16457183Y-41970000D01*
X-10228072Y-41970000D01*
X-10215812Y-42094482D01*
X-10179502Y-42214180D01*
X-10120537Y-42324494D01*
X-10041185Y-42421185D01*
X-9944494Y-42500537D01*
X-9834180Y-42559502D01*
X-9714482Y-42595812D01*
X-9590000Y-42608072D01*
X-9175750Y-42605000D01*
X-9017000Y-42446250D01*
X-9017000Y-41497000D01*
X-8763000Y-41497000D01*
X-8763000Y-42446250D01*
X-8604250Y-42605000D01*
X-8190000Y-42608072D01*
X-8065518Y-42595812D01*
X-7945820Y-42559502D01*
X-7835506Y-42500537D01*
X-7738815Y-42421185D01*
X-7659463Y-42324494D01*
X-7600498Y-42214180D01*
X-7564188Y-42094482D01*
X-7551928Y-41970000D01*
X-7552607Y-41900512D01*
X88094783Y-41900512D01*
X88136213Y-42180130D01*
X88231397Y-42446292D01*
X88298329Y-42571514D01*
X88542298Y-42643097D01*
X89355395Y-41830000D01*
X89714605Y-41830000D01*
X90527702Y-42643097D01*
X90771671Y-42571514D01*
X90892571Y-42316004D01*
X90961300Y-42041816D01*
X90969947Y-41866395D01*
X94370000Y-41866395D01*
X95504000Y-43000395D01*
X96638000Y-41866395D01*
X96512086Y-41576423D01*
X96179874Y-41410567D01*
X95821688Y-41312710D01*
X95451294Y-41286611D01*
X95082925Y-41333275D01*
X94730738Y-41450906D01*
X94495914Y-41576423D01*
X94370000Y-41866395D01*
X90969947Y-41866395D01*
X90975217Y-41759488D01*
X90933787Y-41479870D01*
X90838603Y-41213708D01*
X90771671Y-41088486D01*
X90527702Y-41016903D01*
X89714605Y-41830000D01*
X89355395Y-41830000D01*
X88542298Y-41016903D01*
X88298329Y-41088486D01*
X88177429Y-41343996D01*
X88108700Y-41618184D01*
X88094783Y-41900512D01*
X-7552607Y-41900512D01*
X-7555000Y-41655750D01*
X-7713750Y-41497000D01*
X-8763000Y-41497000D01*
X-9017000Y-41497000D01*
X-10066250Y-41497000D01*
X-10225000Y-41655750D01*
X-10228072Y-41970000D01*
X-16457183Y-41970000D01*
X-16466395Y-41966000D01*
X-17600395Y-43100000D01*
X-17959605Y-43100000D01*
X-19093605Y-41966000D01*
X-19383577Y-42091914D01*
X-19549433Y-42424126D01*
X-19647290Y-42782312D01*
X-19673389Y-43152706D01*
X-23470000Y-43152706D01*
X-23470000Y-41786395D01*
X-18914000Y-41786395D01*
X-17780000Y-42920395D01*
X-16646000Y-41786395D01*
X-16771914Y-41496423D01*
X-17104126Y-41330567D01*
X-17462312Y-41232710D01*
X-17832706Y-41206611D01*
X-18201075Y-41253275D01*
X-18553262Y-41370906D01*
X-18788086Y-41496423D01*
X-18914000Y-41786395D01*
X-23470000Y-41786395D01*
X-23470000Y-38100000D01*
X-19925329Y-38100000D01*
X-19884107Y-38518533D01*
X-19762025Y-38920982D01*
X-19668072Y-39096756D01*
X-19668072Y-39350000D01*
X-19655812Y-39474482D01*
X-19619502Y-39594180D01*
X-19560537Y-39704494D01*
X-19481185Y-39801185D01*
X-19384494Y-39880537D01*
X-19274180Y-39939502D01*
X-19154482Y-39975812D01*
X-19030000Y-39988072D01*
X-18776756Y-39988072D01*
X-18600982Y-40082025D01*
X-18198533Y-40204107D01*
X-17780000Y-40245329D01*
X-17361467Y-40204107D01*
X-16959018Y-40082025D01*
X-16783244Y-39988072D01*
X-16530000Y-39988072D01*
X-16405518Y-39975812D01*
X-16285820Y-39939502D01*
X-16175506Y-39880537D01*
X-16078815Y-39801185D01*
X-15999463Y-39704494D01*
X-15940498Y-39594180D01*
X-15904188Y-39474482D01*
X-15891928Y-39350000D01*
X-15891928Y-39322500D01*
X-12793072Y-39322500D01*
X-12780812Y-39446982D01*
X-12744502Y-39566680D01*
X-12685537Y-39676994D01*
X-12606185Y-39773685D01*
X-12509494Y-39853037D01*
X-12399180Y-39912002D01*
X-12279482Y-39948312D01*
X-12155000Y-39960572D01*
X-11715750Y-39957500D01*
X-11557000Y-39798750D01*
X-11557000Y-38862000D01*
X-12631250Y-38862000D01*
X-12790000Y-39020750D01*
X-12793072Y-39322500D01*
X-15891928Y-39322500D01*
X-15891928Y-39231273D01*
X-12761250Y-36100596D01*
X-12776008Y-36149246D01*
X-12793072Y-36322500D01*
X-12793072Y-36997500D01*
X-12776008Y-37170754D01*
X-12725472Y-37337350D01*
X-12643405Y-37490886D01*
X-12532962Y-37625462D01*
X-12526406Y-37630842D01*
X-12606185Y-37696315D01*
X-12685537Y-37793006D01*
X-12744502Y-37903320D01*
X-12780812Y-38023018D01*
X-12793072Y-38147500D01*
X-12790000Y-38449250D01*
X-12631250Y-38608000D01*
X-11557000Y-38608000D01*
X-11557000Y-38588000D01*
X-11303000Y-38588000D01*
X-11303000Y-38608000D01*
X-11283000Y-38608000D01*
X-11283000Y-38862000D01*
X-11303000Y-38862000D01*
X-11303000Y-39798750D01*
X-11144250Y-39957500D01*
X-10705000Y-39960572D01*
X-10580518Y-39948312D01*
X-10460820Y-39912002D01*
X-10350506Y-39853037D01*
X-10253815Y-39773685D01*
X-10226110Y-39739926D01*
X-10211008Y-39893255D01*
X-10160472Y-40059851D01*
X-10078405Y-40213387D01*
X-10011724Y-40294637D01*
X-10041185Y-40318815D01*
X-10120537Y-40415506D01*
X-10179502Y-40525820D01*
X-10215812Y-40645518D01*
X-10228072Y-40770000D01*
X-10225000Y-41084250D01*
X-10066250Y-41243000D01*
X-9017000Y-41243000D01*
X-9017000Y-41223000D01*
X-8763000Y-41223000D01*
X-8763000Y-41243000D01*
X-7713750Y-41243000D01*
X-7555000Y-41084250D01*
X-7552586Y-40837298D01*
X88721903Y-40837298D01*
X89535000Y-41650395D01*
X90348097Y-40837298D01*
X90276514Y-40593329D01*
X90021004Y-40472429D01*
X89746816Y-40403700D01*
X89464488Y-40389783D01*
X89184870Y-40431213D01*
X88918708Y-40526397D01*
X88793486Y-40593329D01*
X88721903Y-40837298D01*
X-7552586Y-40837298D01*
X-7551928Y-40770000D01*
X-7564188Y-40645518D01*
X-7600498Y-40525820D01*
X-7659463Y-40415506D01*
X-7738815Y-40318815D01*
X-7768276Y-40294637D01*
X-7701595Y-40213387D01*
X-7619528Y-40059851D01*
X-7568992Y-39893255D01*
X-7551928Y-39720001D01*
X-7551928Y-39019999D01*
X-7568992Y-38846745D01*
X-7619528Y-38680149D01*
X-7682146Y-38562999D01*
X-7612038Y-38505462D01*
X-7501595Y-38370887D01*
X-7419528Y-38217351D01*
X-7383931Y-38100000D01*
X-6219179Y-38100000D01*
X-6183746Y-38459752D01*
X-6078811Y-38805679D01*
X-5908404Y-39124488D01*
X-5679075Y-39403925D01*
X-5399638Y-39633254D01*
X-5080829Y-39803661D01*
X-4734902Y-39908596D01*
X-4465299Y-39935150D01*
X-1884701Y-39935150D01*
X-1615098Y-39908596D01*
X-1269171Y-39803661D01*
X-950362Y-39633254D01*
X-670925Y-39403925D01*
X-441596Y-39124488D01*
X-271189Y-38805679D01*
X-166254Y-38459752D01*
X-130821Y-38100000D01*
X3940821Y-38100000D01*
X3976254Y-38459752D01*
X4081189Y-38805679D01*
X4251596Y-39124488D01*
X4480925Y-39403925D01*
X4760362Y-39633254D01*
X5079171Y-39803661D01*
X5425098Y-39908596D01*
X5694701Y-39935150D01*
X8275299Y-39935150D01*
X8544902Y-39908596D01*
X8890829Y-39803661D01*
X9209638Y-39633254D01*
X9489075Y-39403925D01*
X9718404Y-39124488D01*
X9888811Y-38805679D01*
X9993746Y-38459752D01*
X10029179Y-38100000D01*
X9993746Y-37740248D01*
X9888811Y-37394321D01*
X9718404Y-37075512D01*
X9489075Y-36796075D01*
X9358197Y-36688665D01*
X88100000Y-36688665D01*
X88100000Y-36971335D01*
X88155147Y-37248574D01*
X88263320Y-37509727D01*
X88420363Y-37744759D01*
X88620241Y-37944637D01*
X88855273Y-38101680D01*
X89116426Y-38209853D01*
X89393665Y-38265000D01*
X89676335Y-38265000D01*
X89953574Y-38209853D01*
X90214727Y-38101680D01*
X90449759Y-37944637D01*
X90649637Y-37744759D01*
X90806680Y-37509727D01*
X90914853Y-37248574D01*
X90970000Y-36971335D01*
X90970000Y-36930000D01*
X93615928Y-36930000D01*
X93615928Y-39430000D01*
X93628188Y-39554482D01*
X93664498Y-39674180D01*
X93723463Y-39784494D01*
X93802815Y-39881185D01*
X93899506Y-39960537D01*
X94009820Y-40019502D01*
X94129518Y-40055812D01*
X94254000Y-40068072D01*
X96754000Y-40068072D01*
X96878482Y-40055812D01*
X96998180Y-40019502D01*
X97108494Y-39960537D01*
X97205185Y-39881185D01*
X97284537Y-39784494D01*
X97343502Y-39674180D01*
X97379812Y-39554482D01*
X97392072Y-39430000D01*
X97392072Y-36930000D01*
X97379812Y-36805518D01*
X97343502Y-36685820D01*
X97284537Y-36575506D01*
X97205185Y-36478815D01*
X97108494Y-36399463D01*
X96998180Y-36340498D01*
X96878482Y-36304188D01*
X96754000Y-36291928D01*
X94254000Y-36291928D01*
X94129518Y-36304188D01*
X94009820Y-36340498D01*
X93899506Y-36399463D01*
X93802815Y-36478815D01*
X93723463Y-36575506D01*
X93664498Y-36685820D01*
X93628188Y-36805518D01*
X93615928Y-36930000D01*
X90970000Y-36930000D01*
X90970000Y-36688665D01*
X90914853Y-36411426D01*
X90806680Y-36150273D01*
X90649637Y-35915241D01*
X90449759Y-35715363D01*
X90214727Y-35558320D01*
X89953574Y-35450147D01*
X89676335Y-35395000D01*
X89393665Y-35395000D01*
X89116426Y-35450147D01*
X88855273Y-35558320D01*
X88620241Y-35715363D01*
X88420363Y-35915241D01*
X88263320Y-36150273D01*
X88155147Y-36411426D01*
X88100000Y-36688665D01*
X9358197Y-36688665D01*
X9209638Y-36566746D01*
X8890829Y-36396339D01*
X8544902Y-36291404D01*
X8275299Y-36264850D01*
X5694701Y-36264850D01*
X5425098Y-36291404D01*
X5079171Y-36396339D01*
X4760362Y-36566746D01*
X4480925Y-36796075D01*
X4251596Y-37075512D01*
X4081189Y-37394321D01*
X3976254Y-37740248D01*
X3940821Y-38100000D01*
X-130821Y-38100000D01*
X-166254Y-37740248D01*
X-271189Y-37394321D01*
X-441596Y-37075512D01*
X-670925Y-36796075D01*
X-950362Y-36566746D01*
X-1269171Y-36396339D01*
X-1615098Y-36291404D01*
X-1884701Y-36264850D01*
X-4465299Y-36264850D01*
X-4734902Y-36291404D01*
X-5080829Y-36396339D01*
X-5399638Y-36566746D01*
X-5679075Y-36796075D01*
X-5908404Y-37075512D01*
X-6078811Y-37394321D01*
X-6183746Y-37740248D01*
X-6219179Y-38100000D01*
X-7383931Y-38100000D01*
X-7368992Y-38050755D01*
X-7351928Y-37877501D01*
X-7351928Y-37052499D01*
X-7368992Y-36879245D01*
X-7419528Y-36712649D01*
X-7501595Y-36559113D01*
X-7612038Y-36424538D01*
X-7746613Y-36314095D01*
X-7900149Y-36232028D01*
X-8066745Y-36181492D01*
X-8239999Y-36164428D01*
X-9540001Y-36164428D01*
X-9713255Y-36181492D01*
X-9879851Y-36232028D01*
X-10033387Y-36314095D01*
X-10066928Y-36341621D01*
X-10066928Y-36322500D01*
X-10083992Y-36149246D01*
X-10134528Y-35982650D01*
X-10173886Y-35909017D01*
X-9847618Y-35582750D01*
X-9713255Y-35623508D01*
X-9540001Y-35640572D01*
X-8239999Y-35640572D01*
X-8066745Y-35623508D01*
X-7900149Y-35572972D01*
X-7746613Y-35490905D01*
X-7612038Y-35380462D01*
X-7501595Y-35245887D01*
X-7419528Y-35092351D01*
X-7368992Y-34925755D01*
X-7351928Y-34752501D01*
X-7351928Y-33927499D01*
X-7356114Y-33885000D01*
X-3070118Y-33885000D01*
X-2756467Y-33854108D01*
X-2354018Y-33732026D01*
X-2079231Y-33585150D01*
X-1884701Y-33585150D01*
X-1615098Y-33558596D01*
X-1269171Y-33453661D01*
X-950362Y-33283254D01*
X-670925Y-33053925D01*
X-441596Y-32774488D01*
X-271189Y-32455679D01*
X-166254Y-32109752D01*
X-130821Y-31750000D01*
X3940821Y-31750000D01*
X3976254Y-32109752D01*
X4081189Y-32455679D01*
X4251596Y-32774488D01*
X4480925Y-33053925D01*
X4760362Y-33283254D01*
X5079171Y-33453661D01*
X5425098Y-33558596D01*
X5694701Y-33585150D01*
X8275299Y-33585150D01*
X8544902Y-33558596D01*
X8890829Y-33453661D01*
X9209638Y-33283254D01*
X9489075Y-33053925D01*
X9718404Y-32774488D01*
X9888811Y-32455679D01*
X9993746Y-32109752D01*
X10029179Y-31750000D01*
X9993746Y-31390248D01*
X9888811Y-31044321D01*
X9718404Y-30725512D01*
X9489075Y-30446075D01*
X9209638Y-30216746D01*
X8890829Y-30046339D01*
X8544902Y-29941404D01*
X8275299Y-29914850D01*
X5694701Y-29914850D01*
X5425098Y-29941404D01*
X5079171Y-30046339D01*
X4760362Y-30216746D01*
X4480925Y-30446075D01*
X4251596Y-30725512D01*
X4081189Y-31044321D01*
X3976254Y-31390248D01*
X3940821Y-31750000D01*
X-130821Y-31750000D01*
X-166254Y-31390248D01*
X-271189Y-31044321D01*
X-441596Y-30725512D01*
X-670925Y-30446075D01*
X-950362Y-30216746D01*
X-1269171Y-30046339D01*
X-1615098Y-29941404D01*
X-1884701Y-29914850D01*
X-2079231Y-29914850D01*
X-2354018Y-29767974D01*
X-2756467Y-29645892D01*
X-3070118Y-29615000D01*
X-11325129Y-29615000D01*
X-11430001Y-29604671D01*
X-11534873Y-29615000D01*
X-11534882Y-29615000D01*
X-11848533Y-29645892D01*
X-12250982Y-29767974D01*
X-12621881Y-29966223D01*
X-12621883Y-29966224D01*
X-12621882Y-29966224D01*
X-12865511Y-30166165D01*
X-12865513Y-30166167D01*
X-12946977Y-30233023D01*
X-13013833Y-30314487D01*
X-18911273Y-36211928D01*
X-19030000Y-36211928D01*
X-19154482Y-36224188D01*
X-19274180Y-36260498D01*
X-19384494Y-36319463D01*
X-19481185Y-36398815D01*
X-19560537Y-36495506D01*
X-19619502Y-36605820D01*
X-19655812Y-36725518D01*
X-19668072Y-36850000D01*
X-19668072Y-37103244D01*
X-19762025Y-37279018D01*
X-19884107Y-37681467D01*
X-19925329Y-38100000D01*
X-23470000Y-38100000D01*
X-23470000Y-25940000D01*
X26698928Y-25940000D01*
X26698928Y-29940000D01*
X26711188Y-30064482D01*
X26747498Y-30184180D01*
X26806463Y-30294494D01*
X26885815Y-30391185D01*
X26982506Y-30470537D01*
X27092820Y-30529502D01*
X27212518Y-30565812D01*
X27337000Y-30578072D01*
X31337000Y-30578072D01*
X31461482Y-30565812D01*
X31581180Y-30529502D01*
X31691494Y-30470537D01*
X31788185Y-30391185D01*
X31867537Y-30294494D01*
X31926502Y-30184180D01*
X31962812Y-30064482D01*
X31975072Y-29940000D01*
X31975072Y-25940000D01*
X68481928Y-25940000D01*
X68481928Y-29940000D01*
X68494188Y-30064482D01*
X68530498Y-30184180D01*
X68589463Y-30294494D01*
X68668815Y-30391185D01*
X68765506Y-30470537D01*
X68875820Y-30529502D01*
X68995518Y-30565812D01*
X69120000Y-30578072D01*
X73120000Y-30578072D01*
X73244482Y-30565812D01*
X73364180Y-30529502D01*
X73474494Y-30470537D01*
X73571185Y-30391185D01*
X73650537Y-30294494D01*
X73709502Y-30184180D01*
X73745812Y-30064482D01*
X73758072Y-29940000D01*
X73758072Y-25940000D01*
X73745812Y-25815518D01*
X73709502Y-25695820D01*
X73650537Y-25585506D01*
X73571185Y-25488815D01*
X73474494Y-25409463D01*
X73364180Y-25350498D01*
X73244482Y-25314188D01*
X73120000Y-25301928D01*
X69120000Y-25301928D01*
X68995518Y-25314188D01*
X68875820Y-25350498D01*
X68765506Y-25409463D01*
X68668815Y-25488815D01*
X68589463Y-25585506D01*
X68530498Y-25695820D01*
X68494188Y-25815518D01*
X68481928Y-25940000D01*
X31975072Y-25940000D01*
X31962812Y-25815518D01*
X31926502Y-25695820D01*
X31867537Y-25585506D01*
X31788185Y-25488815D01*
X31691494Y-25409463D01*
X31581180Y-25350498D01*
X31461482Y-25314188D01*
X31337000Y-25301928D01*
X27337000Y-25301928D01*
X27212518Y-25314188D01*
X27092820Y-25350498D01*
X26982506Y-25409463D01*
X26885815Y-25488815D01*
X26806463Y-25585506D01*
X26747498Y-25695820D01*
X26711188Y-25815518D01*
X26698928Y-25940000D01*
X-23470000Y-25940000D01*
X-23470000Y-19787499D01*
X27669106Y-19787499D01*
X27885228Y-20154258D01*
X28345105Y-20394938D01*
X28843098Y-20541275D01*
X29360071Y-20587648D01*
X29876159Y-20532273D01*
X30371526Y-20377279D01*
X30788772Y-20154258D01*
X31004894Y-19787499D01*
X69452106Y-19787499D01*
X69668228Y-20154258D01*
X70128105Y-20394938D01*
X70626098Y-20541275D01*
X71143071Y-20587648D01*
X71659159Y-20532273D01*
X72154526Y-20377279D01*
X72571772Y-20154258D01*
X72787894Y-19787499D01*
X71120000Y-18119605D01*
X69452106Y-19787499D01*
X31004894Y-19787499D01*
X29337000Y-18119605D01*
X27669106Y-19787499D01*
X-23470000Y-19787499D01*
X-23470000Y-17963071D01*
X26689352Y-17963071D01*
X26744727Y-18479159D01*
X26899721Y-18974526D01*
X27122742Y-19391772D01*
X27489501Y-19607894D01*
X29157395Y-17940000D01*
X29516605Y-17940000D01*
X31184499Y-19607894D01*
X31551258Y-19391772D01*
X31791938Y-18931895D01*
X31938275Y-18433902D01*
X31980509Y-17963071D01*
X68472352Y-17963071D01*
X68527727Y-18479159D01*
X68682721Y-18974526D01*
X68905742Y-19391772D01*
X69272501Y-19607894D01*
X70940395Y-17940000D01*
X71299605Y-17940000D01*
X72967499Y-19607894D01*
X73334258Y-19391772D01*
X73574938Y-18931895D01*
X73721275Y-18433902D01*
X73767648Y-17916929D01*
X73712273Y-17400841D01*
X73557279Y-16905474D01*
X73334258Y-16488228D01*
X72967499Y-16272106D01*
X71299605Y-17940000D01*
X70940395Y-17940000D01*
X69272501Y-16272106D01*
X68905742Y-16488228D01*
X68665062Y-16948105D01*
X68518725Y-17446098D01*
X68472352Y-17963071D01*
X31980509Y-17963071D01*
X31984648Y-17916929D01*
X31929273Y-17400841D01*
X31774279Y-16905474D01*
X31551258Y-16488228D01*
X31184499Y-16272106D01*
X29516605Y-17940000D01*
X29157395Y-17940000D01*
X27489501Y-16272106D01*
X27122742Y-16488228D01*
X26882062Y-16948105D01*
X26735725Y-17446098D01*
X26689352Y-17963071D01*
X-23470000Y-17963071D01*
X-23470000Y-16092501D01*
X27669106Y-16092501D01*
X29337000Y-17760395D01*
X31004894Y-16092501D01*
X69452106Y-16092501D01*
X71120000Y-17760395D01*
X72787894Y-16092501D01*
X72571772Y-15725742D01*
X72111895Y-15485062D01*
X71613902Y-15338725D01*
X71096929Y-15292352D01*
X70580841Y-15347727D01*
X70085474Y-15502721D01*
X69668228Y-15725742D01*
X69452106Y-16092501D01*
X31004894Y-16092501D01*
X30788772Y-15725742D01*
X30328895Y-15485062D01*
X29830902Y-15338725D01*
X29313929Y-15292352D01*
X28797841Y-15347727D01*
X28302474Y-15502721D01*
X27885228Y-15725742D01*
X27669106Y-16092501D01*
X-23470000Y-16092501D01*
X-23470000Y-6129872D01*
X-21285000Y-6129872D01*
X-21285000Y-6570128D01*
X-21199110Y-7001925D01*
X-21030631Y-7408669D01*
X-20786038Y-7774729D01*
X-20474729Y-8086038D01*
X-20108669Y-8330631D01*
X-19701925Y-8499110D01*
X-19270128Y-8585000D01*
X-18829872Y-8585000D01*
X-18398075Y-8499110D01*
X-17991331Y-8330631D01*
X-17625271Y-8086038D01*
X-17313962Y-7774729D01*
X-17069369Y-7408669D01*
X-16900890Y-7001925D01*
X-16815000Y-6570128D01*
X-16815000Y-6129872D01*
X95555000Y-6129872D01*
X95555000Y-6570128D01*
X95640890Y-7001925D01*
X95809369Y-7408669D01*
X96053962Y-7774729D01*
X96365271Y-8086038D01*
X96731331Y-8330631D01*
X97138075Y-8499110D01*
X97569872Y-8585000D01*
X98010128Y-8585000D01*
X98441925Y-8499110D01*
X98848669Y-8330631D01*
X99214729Y-8086038D01*
X99526038Y-7774729D01*
X99770631Y-7408669D01*
X99939110Y-7001925D01*
X100025000Y-6570128D01*
X100025000Y-6129872D01*
X99939110Y-5698075D01*
X99770631Y-5291331D01*
X99526038Y-4925271D01*
X99214729Y-4613962D01*
X98848669Y-4369369D01*
X98441925Y-4200890D01*
X98010128Y-4115000D01*
X97569872Y-4115000D01*
X97138075Y-4200890D01*
X96731331Y-4369369D01*
X96365271Y-4613962D01*
X96053962Y-4925271D01*
X95809369Y-5291331D01*
X95640890Y-5698075D01*
X95555000Y-6129872D01*
X-16815000Y-6129872D01*
X-16900890Y-5698075D01*
X-17069369Y-5291331D01*
X-17313962Y-4925271D01*
X-17625271Y-4613962D01*
X-17991331Y-4369369D01*
X-18398075Y-4200890D01*
X-18829872Y-4115000D01*
X-19270128Y-4115000D01*
X-19701925Y-4200890D01*
X-20108669Y-4369369D01*
X-20474729Y-4613962D01*
X-20786038Y-4925271D01*
X-21030631Y-5291331D01*
X-21199110Y-5698075D01*
X-21285000Y-6129872D01*
X-23470000Y-6129872D01*
X-23470000Y-1930000D01*
X102210001Y-1930000D01*
X102210000Y-84430000D01*
G37*
G04 #@! TD.AperFunction*
M02*
