M48
; DRILL file {KiCad (5.1.10-0-10_14)} date Friday, May 14, 2021 at 06:06:32 PM
; FORMAT={-:-/ absolute / inch / decimal}
; #@! TF.CreationDate,2021-05-14T18:06:32+02:00
; #@! TF.GenerationSoftware,Kicad,Pcbnew,(5.1.10-0-10_14)
; #@! TF.FileFunction,Plated,1,2,PTH
FMAT,2
INCH
T1C0.0118
T2C0.0157
T3C0.0315
T4C0.0394
T5C0.0433
T6C0.0472
%
G90
G05
T1
X6.07Y-3.55
X6.34Y-3.59
X6.34Y-3.875
X6.395Y-3.745
X6.45Y-3.35
X6.47Y-3.54
X6.5Y-3.32
X6.5Y-3.875
X6.55Y-3.65
X6.65Y-3.515
X6.725Y-3.145
X6.725Y-3.49
X6.78Y-3.145
X6.8099Y-3.3101
X6.825Y-3.955
X6.825Y-4.15
X6.83Y-3.285
X6.85Y-3.665
X6.885Y-4.01
X6.89Y-3.265
X7.0Y-3.54
X7.05Y-3.665
X7.2Y-3.54
X7.305Y-3.665
T2
X4.795Y-3.565
X4.795Y-3.665
X5.03Y-3.665
X5.35Y-3.41
X5.475Y-2.675
X5.715Y-3.135
X6.3Y-2.675
X6.8Y-2.95
X7.05Y-2.8
X7.125Y-2.675
X7.525Y-3.225
X7.8Y-2.675
X7.8Y-3.225
T3
X7.025Y-4.15
X7.075Y-4.05
X7.125Y-4.15
X7.175Y-4.05
X7.225Y-4.15
X7.275Y-4.05
X7.325Y-4.15
X7.375Y-4.05
X7.425Y-4.15
X7.475Y-4.05
T4
X4.675Y-2.95
X4.675Y-3.2
X4.675Y-3.5
X4.675Y-3.725
X5.0Y-2.0
X5.125Y-2.125
X5.4Y-2.125
X5.525Y-2.25
X5.775Y-4.1
X5.825Y-2.0
X5.95Y-2.125
X6.0Y-4.1
X6.175Y-3.15
X6.175Y-3.25
X6.175Y-3.35
X6.175Y-3.45
X6.175Y-3.55
X6.175Y-3.65
X6.225Y-2.125
X6.28Y-4.1
X6.35Y-2.25
X6.505Y-4.1
X6.65Y-2.0
X6.775Y-2.125
X7.05Y-2.125
X7.175Y-2.25
X7.475Y-2.0
X7.6Y-2.125
X7.875Y-2.125
X8.0Y-2.25
X8.075Y-3.15
X8.2Y-2.775
X8.2Y-3.025
X8.325Y-2.65
T5
X5.465Y-3.02
X5.565Y-3.02
X5.665Y-3.02
T6
X5.35Y-3.755
X5.5469Y-3.755
T0
M30
