G04 #@! TF.GenerationSoftware,KiCad,Pcbnew,(5.1.10-0-10_14)*
G04 #@! TF.CreationDate,2021-10-25T19:36:00+02:00*
G04 #@! TF.ProjectId,spdif_recv_cs,73706469-665f-4726-9563-765f63732e6b,rev?*
G04 #@! TF.SameCoordinates,Original*
G04 #@! TF.FileFunction,Copper,L3,Inr*
G04 #@! TF.FilePolarity,Positive*
%FSLAX46Y46*%
G04 Gerber Fmt 4.6, Leading zero omitted, Abs format (unit mm)*
G04 Created by KiCad (PCBNEW (5.1.10-0-10_14)) date 2021-10-25 19:36:00*
%MOMM*%
%LPD*%
G01*
G04 APERTURE LIST*
G04 #@! TA.AperFunction,ComponentPad*
%ADD10C,1.308000*%
G04 #@! TD*
G04 #@! TA.AperFunction,ComponentPad*
%ADD11C,1.650000*%
G04 #@! TD*
G04 #@! TA.AperFunction,ComponentPad*
%ADD12C,2.000000*%
G04 #@! TD*
G04 #@! TA.AperFunction,ComponentPad*
%ADD13R,1.308000X1.308000*%
G04 #@! TD*
G04 #@! TA.AperFunction,ComponentPad*
%ADD14O,1.700000X1.700000*%
G04 #@! TD*
G04 #@! TA.AperFunction,ComponentPad*
%ADD15R,1.700000X1.700000*%
G04 #@! TD*
G04 #@! TA.AperFunction,ComponentPad*
%ADD16C,1.600000*%
G04 #@! TD*
G04 #@! TA.AperFunction,ComponentPad*
%ADD17R,1.600000X1.600000*%
G04 #@! TD*
G04 #@! TA.AperFunction,ViaPad*
%ADD18C,0.450000*%
G04 #@! TD*
G04 #@! TA.AperFunction,ViaPad*
%ADD19C,0.600000*%
G04 #@! TD*
G04 #@! TA.AperFunction,ViaPad*
%ADD20C,0.800000*%
G04 #@! TD*
G04 #@! TA.AperFunction,Conductor*
%ADD21C,0.250000*%
G04 #@! TD*
G04 APERTURE END LIST*
D10*
X115088500Y-96393000D03*
X115088500Y-98933000D03*
X115088500Y-101473000D03*
D11*
X112458500Y-101473000D03*
X112458500Y-96393000D03*
D10*
X115025000Y-83185000D03*
X115025000Y-85725000D03*
X115025000Y-88265000D03*
D11*
X112395000Y-88265000D03*
X112395000Y-83185000D03*
D10*
X115025000Y-70104000D03*
X115025000Y-72644000D03*
X115025000Y-75184000D03*
D11*
X112395000Y-75184000D03*
X112395000Y-70104000D03*
D12*
X127952500Y-60325000D03*
X133350000Y-60325000D03*
D13*
X130238500Y-109728000D03*
D10*
X131508500Y-107188000D03*
X132778500Y-109728000D03*
X134048500Y-107188000D03*
X135318500Y-109728000D03*
X136588500Y-107188000D03*
X137858500Y-109728000D03*
X139128500Y-107188000D03*
X140398500Y-109728000D03*
X141668500Y-107188000D03*
D13*
X182223000Y-90935000D03*
D10*
X179683000Y-89665000D03*
X182223000Y-88395000D03*
X179683000Y-87125000D03*
X182223000Y-85855000D03*
X179683000Y-84585000D03*
X182223000Y-83315000D03*
X179683000Y-82045000D03*
X182223000Y-80775000D03*
X179683000Y-79505000D03*
D14*
X137223500Y-79438500D03*
X134683500Y-79438500D03*
D15*
X132143500Y-79438500D03*
D12*
X166243000Y-110363000D03*
X160210500Y-110363000D03*
D16*
X160210500Y-101402000D03*
D17*
X160210500Y-104902000D03*
D14*
X125476000Y-86156800D03*
X125476000Y-88696800D03*
X125476000Y-91236800D03*
X125476000Y-93776800D03*
X125476000Y-96316800D03*
D15*
X125476000Y-98856800D03*
D18*
X153265500Y-77518497D03*
X149669500Y-73025000D03*
D19*
X131508500Y-96329500D03*
D18*
X132160000Y-83422500D03*
X140415000Y-99932500D03*
D20*
X131508500Y-101663500D03*
X152590500Y-96329500D03*
D19*
X158051500Y-79565500D03*
X158051500Y-80835500D03*
X158051500Y-73406000D03*
X166116000Y-59436000D03*
X170116500Y-74295000D03*
D18*
X155448000Y-91630500D03*
X142938500Y-82296000D03*
X138554500Y-69090500D03*
X147066000Y-69977000D03*
X143383000Y-76454000D03*
X135331200Y-88696800D03*
X134061200Y-91236800D03*
X158940500Y-84074000D03*
X144208500Y-85280500D03*
X175260000Y-84074000D03*
X175260000Y-82042000D03*
X158940500Y-83375500D03*
X141668500Y-85280500D03*
X153265500Y-78168500D03*
X141160500Y-72136000D03*
X156019500Y-81470500D03*
X167195500Y-74993500D03*
X167205499Y-80190501D03*
X140398500Y-94551500D03*
X154178000Y-94551500D03*
X172974000Y-76913503D03*
X177228500Y-88392000D03*
X172974000Y-76263500D03*
X177673000Y-85852000D03*
X172974000Y-77597000D03*
X176453501Y-83312000D03*
X165862000Y-79184500D03*
X156591000Y-85534500D03*
X155892500Y-79502000D03*
X139128500Y-97980500D03*
X137843498Y-97995502D03*
X139128500Y-85344000D03*
X139128500Y-83058000D03*
X135318500Y-97980500D03*
X134048500Y-97980500D03*
X141668500Y-97980500D03*
X144208500Y-98044000D03*
X143573500Y-89979500D03*
X143573500Y-100457000D03*
X142938500Y-98044000D03*
D20*
X149987000Y-104902000D03*
X164211000Y-104902000D03*
D19*
X123952000Y-70104000D03*
X123952000Y-83210400D03*
D20*
X123952000Y-96393000D03*
D18*
X136601200Y-94538800D03*
X149606000Y-89281000D03*
X136588500Y-85534500D03*
X140411200Y-88849200D03*
X145542000Y-89281000D03*
X153265500Y-76868494D03*
X147193000Y-78359000D03*
X151320500Y-64389000D03*
X156019500Y-76263500D03*
X135699500Y-64897000D03*
X134302500Y-70040500D03*
X142748000Y-70929500D03*
X139065000Y-77406500D03*
X155892500Y-78851997D03*
X156845000Y-71628000D03*
D19*
X167259000Y-73660000D03*
D18*
X167767000Y-93027500D03*
X158940500Y-77533500D03*
X158940500Y-75628500D03*
X161671000Y-77533500D03*
X164465000Y-77563506D03*
X161671000Y-76233494D03*
X164465000Y-76263500D03*
X161671000Y-76883497D03*
X164465000Y-76913503D03*
D21*
X135331200Y-88696800D02*
X125476000Y-88696800D01*
X134061200Y-91236800D02*
X125476000Y-91236800D01*
X145415000Y-84074000D02*
X144208500Y-85280500D01*
X158940500Y-84074000D02*
X145415000Y-84074000D01*
X158940500Y-84074000D02*
X175260000Y-84074000D01*
X179680000Y-82042000D02*
X179683000Y-82045000D01*
X175260000Y-82042000D02*
X179680000Y-82042000D01*
X143573500Y-83375500D02*
X141668500Y-85280500D01*
X158940500Y-83375500D02*
X143573500Y-83375500D01*
X176912499Y-84585000D02*
X179683000Y-84585000D01*
X175702999Y-83375500D02*
X176912499Y-84585000D01*
X158940500Y-83375500D02*
X175702999Y-83375500D01*
X157299499Y-80190501D02*
X156019500Y-81470500D01*
X179683000Y-79505000D02*
X178997499Y-80190501D01*
X178997499Y-80190501D02*
X167205499Y-80190501D01*
X167205499Y-80190501D02*
X157299499Y-80190501D01*
X140398500Y-94551500D02*
X154178000Y-94551500D01*
X177231500Y-88395000D02*
X177228500Y-88392000D01*
X182223000Y-88395000D02*
X177231500Y-88395000D01*
X177676000Y-85855000D02*
X177673000Y-85852000D01*
X182223000Y-85855000D02*
X177676000Y-85855000D01*
X176456501Y-83315000D02*
X176453501Y-83312000D01*
X182223000Y-83315000D02*
X176456501Y-83315000D01*
X125476000Y-98856800D02*
X125476000Y-98298000D01*
X129235200Y-94538800D02*
X136601200Y-94538800D01*
X125476000Y-98298000D02*
X129235200Y-94538800D01*
X151762000Y-87125000D02*
X149606000Y-89281000D01*
X179683000Y-87125000D02*
X151762000Y-87125000D01*
X140423900Y-88836500D02*
X140411200Y-88849200D01*
X140843000Y-89281000D02*
X140411200Y-88849200D01*
X145542000Y-89281000D02*
X140843000Y-89281000D01*
X148683506Y-76868494D02*
X147193000Y-78359000D01*
X153265500Y-76868494D02*
X148683506Y-76868494D01*
X132524500Y-64897000D02*
X127952500Y-60325000D01*
X135699500Y-64897000D02*
X132524500Y-64897000D01*
X119797002Y-75184000D02*
X115025000Y-75184000D01*
X124940502Y-70040500D02*
X119797002Y-75184000D01*
X134302500Y-70040500D02*
X124940502Y-70040500D01*
X132335100Y-70954900D02*
X115025000Y-88265000D01*
X132360500Y-70929500D02*
X132335100Y-70954900D01*
X142748000Y-70929500D02*
X132360500Y-70929500D01*
X116067501Y-100493999D02*
X115088500Y-101473000D01*
X116067501Y-93826297D02*
X116067501Y-100493999D01*
X116067501Y-92019901D02*
X116067501Y-93826297D01*
X130680902Y-77406500D02*
X116067501Y-92019901D01*
X139065000Y-77406500D02*
X130680902Y-77406500D01*
X164434994Y-77533500D02*
X164465000Y-77563506D01*
X161671000Y-77533500D02*
X164434994Y-77533500D01*
X164434994Y-76233494D02*
X164465000Y-76263500D01*
X161671000Y-76233494D02*
X164434994Y-76233494D01*
X164434994Y-76883497D02*
X164465000Y-76913503D01*
X161671000Y-76883497D02*
X164434994Y-76883497D01*
M02*
