G04 #@! TF.GenerationSoftware,KiCad,Pcbnew,(5.1.9-0-10_14)*
G04 #@! TF.CreationDate,2021-03-05T14:26:46+01:00*
G04 #@! TF.ProjectId,pre-amp-6SN7,7072652d-616d-4702-9d36-534e372e6b69,rev?*
G04 #@! TF.SameCoordinates,Original*
G04 #@! TF.FileFunction,Legend,Bot*
G04 #@! TF.FilePolarity,Positive*
%FSLAX46Y46*%
G04 Gerber Fmt 4.6, Leading zero omitted, Abs format (unit mm)*
G04 Created by KiCad (PCBNEW (5.1.9-0-10_14)) date 2021-03-05 14:26:46*
%MOMM*%
%LPD*%
G01*
G04 APERTURE LIST*
%ADD10C,0.120000*%
%ADD11C,0.150000*%
G04 APERTURE END LIST*
D10*
X106341000Y-92457000D02*
X106341000Y-95757000D01*
X106341000Y-95757000D02*
X99441000Y-95757000D01*
X106341000Y-92457000D02*
X99441000Y-92457000D01*
X106294000Y-135637000D02*
X106294000Y-138937000D01*
X106294000Y-138937000D02*
X99394000Y-138937000D01*
X106294000Y-135637000D02*
X99394000Y-135637000D01*
X90481000Y-98659000D02*
X90481000Y-101059000D01*
X88081000Y-98659000D02*
X88081000Y-101059000D01*
X107245000Y-98712000D02*
X107245000Y-101112000D01*
X104845000Y-98712000D02*
X104845000Y-101112000D01*
X100641000Y-98712000D02*
X100641000Y-101112000D01*
X98241000Y-98712000D02*
X98241000Y-101112000D01*
X90481000Y-142146000D02*
X90481000Y-144546000D01*
X88081000Y-142146000D02*
X88081000Y-144546000D01*
X107372000Y-141892000D02*
X107372000Y-144292000D01*
X104972000Y-141892000D02*
X104972000Y-144292000D01*
X100641000Y-141892000D02*
X100641000Y-144292000D01*
X98241000Y-141892000D02*
X98241000Y-144292000D01*
D11*
X102679095Y-92059380D02*
X102679095Y-91059380D01*
X102441000Y-91059380D01*
X102298142Y-91107000D01*
X102202904Y-91202238D01*
X102155285Y-91297476D01*
X102107666Y-91487952D01*
X102107666Y-91630809D01*
X102155285Y-91821285D01*
X102202904Y-91916523D01*
X102298142Y-92011761D01*
X102441000Y-92059380D01*
X102679095Y-92059380D01*
X101726714Y-91154619D02*
X101679095Y-91107000D01*
X101583857Y-91059380D01*
X101345761Y-91059380D01*
X101250523Y-91107000D01*
X101202904Y-91154619D01*
X101155285Y-91249857D01*
X101155285Y-91345095D01*
X101202904Y-91487952D01*
X101774333Y-92059380D01*
X101155285Y-92059380D01*
X102632095Y-135239380D02*
X102632095Y-134239380D01*
X102394000Y-134239380D01*
X102251142Y-134287000D01*
X102155904Y-134382238D01*
X102108285Y-134477476D01*
X102060666Y-134667952D01*
X102060666Y-134810809D01*
X102108285Y-135001285D01*
X102155904Y-135096523D01*
X102251142Y-135191761D01*
X102394000Y-135239380D01*
X102632095Y-135239380D01*
X101108285Y-135239380D02*
X101679714Y-135239380D01*
X101394000Y-135239380D02*
X101394000Y-134239380D01*
X101489238Y-134382238D01*
X101584476Y-134477476D01*
X101679714Y-134525095D01*
X91783380Y-99166142D02*
X91307190Y-98832809D01*
X91783380Y-98594714D02*
X90783380Y-98594714D01*
X90783380Y-98975666D01*
X90831000Y-99070904D01*
X90878619Y-99118523D01*
X90973857Y-99166142D01*
X91116714Y-99166142D01*
X91211952Y-99118523D01*
X91259571Y-99070904D01*
X91307190Y-98975666D01*
X91307190Y-98594714D01*
X91783380Y-100118523D02*
X91783380Y-99547095D01*
X91783380Y-99832809D02*
X90783380Y-99832809D01*
X90926238Y-99737571D01*
X91021476Y-99642333D01*
X91069095Y-99547095D01*
X90783380Y-100975666D02*
X90783380Y-100785190D01*
X90831000Y-100689952D01*
X90878619Y-100642333D01*
X91021476Y-100547095D01*
X91211952Y-100499476D01*
X91592904Y-100499476D01*
X91688142Y-100547095D01*
X91735761Y-100594714D01*
X91783380Y-100689952D01*
X91783380Y-100880428D01*
X91735761Y-100975666D01*
X91688142Y-101023285D01*
X91592904Y-101070904D01*
X91354809Y-101070904D01*
X91259571Y-101023285D01*
X91211952Y-100975666D01*
X91164333Y-100880428D01*
X91164333Y-100689952D01*
X91211952Y-100594714D01*
X91259571Y-100547095D01*
X91354809Y-100499476D01*
X108547380Y-99219142D02*
X108071190Y-98885809D01*
X108547380Y-98647714D02*
X107547380Y-98647714D01*
X107547380Y-99028666D01*
X107595000Y-99123904D01*
X107642619Y-99171523D01*
X107737857Y-99219142D01*
X107880714Y-99219142D01*
X107975952Y-99171523D01*
X108023571Y-99123904D01*
X108071190Y-99028666D01*
X108071190Y-98647714D01*
X108547380Y-100171523D02*
X108547380Y-99600095D01*
X108547380Y-99885809D02*
X107547380Y-99885809D01*
X107690238Y-99790571D01*
X107785476Y-99695333D01*
X107833095Y-99600095D01*
X107547380Y-101076285D02*
X107547380Y-100600095D01*
X108023571Y-100552476D01*
X107975952Y-100600095D01*
X107928333Y-100695333D01*
X107928333Y-100933428D01*
X107975952Y-101028666D01*
X108023571Y-101076285D01*
X108118809Y-101123904D01*
X108356904Y-101123904D01*
X108452142Y-101076285D01*
X108499761Y-101028666D01*
X108547380Y-100933428D01*
X108547380Y-100695333D01*
X108499761Y-100600095D01*
X108452142Y-100552476D01*
X101943380Y-99219142D02*
X101467190Y-98885809D01*
X101943380Y-98647714D02*
X100943380Y-98647714D01*
X100943380Y-99028666D01*
X100991000Y-99123904D01*
X101038619Y-99171523D01*
X101133857Y-99219142D01*
X101276714Y-99219142D01*
X101371952Y-99171523D01*
X101419571Y-99123904D01*
X101467190Y-99028666D01*
X101467190Y-98647714D01*
X101943380Y-100171523D02*
X101943380Y-99600095D01*
X101943380Y-99885809D02*
X100943380Y-99885809D01*
X101086238Y-99790571D01*
X101181476Y-99695333D01*
X101229095Y-99600095D01*
X101038619Y-100552476D02*
X100991000Y-100600095D01*
X100943380Y-100695333D01*
X100943380Y-100933428D01*
X100991000Y-101028666D01*
X101038619Y-101076285D01*
X101133857Y-101123904D01*
X101229095Y-101123904D01*
X101371952Y-101076285D01*
X101943380Y-100504857D01*
X101943380Y-101123904D01*
X91783380Y-143129333D02*
X91307190Y-142796000D01*
X91783380Y-142557904D02*
X90783380Y-142557904D01*
X90783380Y-142938857D01*
X90831000Y-143034095D01*
X90878619Y-143081714D01*
X90973857Y-143129333D01*
X91116714Y-143129333D01*
X91211952Y-143081714D01*
X91259571Y-143034095D01*
X91307190Y-142938857D01*
X91307190Y-142557904D01*
X91211952Y-143700761D02*
X91164333Y-143605523D01*
X91116714Y-143557904D01*
X91021476Y-143510285D01*
X90973857Y-143510285D01*
X90878619Y-143557904D01*
X90831000Y-143605523D01*
X90783380Y-143700761D01*
X90783380Y-143891238D01*
X90831000Y-143986476D01*
X90878619Y-144034095D01*
X90973857Y-144081714D01*
X91021476Y-144081714D01*
X91116714Y-144034095D01*
X91164333Y-143986476D01*
X91211952Y-143891238D01*
X91211952Y-143700761D01*
X91259571Y-143605523D01*
X91307190Y-143557904D01*
X91402428Y-143510285D01*
X91592904Y-143510285D01*
X91688142Y-143557904D01*
X91735761Y-143605523D01*
X91783380Y-143700761D01*
X91783380Y-143891238D01*
X91735761Y-143986476D01*
X91688142Y-144034095D01*
X91592904Y-144081714D01*
X91402428Y-144081714D01*
X91307190Y-144034095D01*
X91259571Y-143986476D01*
X91211952Y-143891238D01*
X109164380Y-142875333D02*
X108688190Y-142542000D01*
X109164380Y-142303904D02*
X108164380Y-142303904D01*
X108164380Y-142684857D01*
X108212000Y-142780095D01*
X108259619Y-142827714D01*
X108354857Y-142875333D01*
X108497714Y-142875333D01*
X108592952Y-142827714D01*
X108640571Y-142780095D01*
X108688190Y-142684857D01*
X108688190Y-142303904D01*
X108164380Y-143780095D02*
X108164380Y-143303904D01*
X108640571Y-143256285D01*
X108592952Y-143303904D01*
X108545333Y-143399142D01*
X108545333Y-143637238D01*
X108592952Y-143732476D01*
X108640571Y-143780095D01*
X108735809Y-143827714D01*
X108973904Y-143827714D01*
X109069142Y-143780095D01*
X109116761Y-143732476D01*
X109164380Y-143637238D01*
X109164380Y-143399142D01*
X109116761Y-143303904D01*
X109069142Y-143256285D01*
X102433380Y-142875333D02*
X101957190Y-142542000D01*
X102433380Y-142303904D02*
X101433380Y-142303904D01*
X101433380Y-142684857D01*
X101481000Y-142780095D01*
X101528619Y-142827714D01*
X101623857Y-142875333D01*
X101766714Y-142875333D01*
X101861952Y-142827714D01*
X101909571Y-142780095D01*
X101957190Y-142684857D01*
X101957190Y-142303904D01*
X101766714Y-143732476D02*
X102433380Y-143732476D01*
X101385761Y-143494380D02*
X102100047Y-143256285D01*
X102100047Y-143875333D01*
M02*
