G04 #@! TF.GenerationSoftware,KiCad,Pcbnew,(5.1.8-0-10_14)*
G04 #@! TF.CreationDate,2020-12-23T19:49:06+01:00*
G04 #@! TF.ProjectId,pre-amp-discret,7072652d-616d-4702-9d64-697363726574,rev?*
G04 #@! TF.SameCoordinates,Original*
G04 #@! TF.FileFunction,Copper,L2,Bot*
G04 #@! TF.FilePolarity,Positive*
%FSLAX46Y46*%
G04 Gerber Fmt 4.6, Leading zero omitted, Abs format (unit mm)*
G04 Created by KiCad (PCBNEW (5.1.8-0-10_14)) date 2020-12-23 19:49:06*
%MOMM*%
%LPD*%
G01*
G04 APERTURE LIST*
G04 #@! TA.AperFunction,ComponentPad*
%ADD10C,1.600000*%
G04 #@! TD*
G04 #@! TA.AperFunction,ComponentPad*
%ADD11R,1.600000X1.600000*%
G04 #@! TD*
G04 #@! TA.AperFunction,ComponentPad*
%ADD12C,2.000000*%
G04 #@! TD*
G04 #@! TA.AperFunction,ViaPad*
%ADD13C,0.600000*%
G04 #@! TD*
G04 #@! TA.AperFunction,Conductor*
%ADD14C,0.500000*%
G04 #@! TD*
G04 #@! TA.AperFunction,Conductor*
%ADD15C,0.250000*%
G04 #@! TD*
G04 APERTURE END LIST*
D10*
X162560000Y-143301600D03*
D11*
X162560000Y-139801600D03*
D10*
X164922200Y-103779200D03*
D11*
X164922200Y-100279200D03*
D10*
X160864800Y-125882400D03*
D11*
X162864800Y-125882400D03*
D10*
X144246600Y-140365600D03*
D11*
X144246600Y-143865600D03*
D10*
X144404200Y-101727000D03*
D11*
X147904200Y-101727000D03*
D10*
X178181000Y-143433800D03*
D11*
X178181000Y-139933800D03*
D10*
X180594000Y-103766500D03*
D11*
X180594000Y-100266500D03*
D10*
X190322200Y-137896600D03*
D11*
X192322200Y-137896600D03*
D10*
X190754000Y-130810000D03*
D11*
X188754000Y-130810000D03*
D10*
X193719200Y-107848400D03*
D11*
X191719200Y-107848400D03*
D10*
X186798200Y-113055400D03*
D11*
X188798200Y-113055400D03*
D10*
X150774400Y-138328400D03*
X150774400Y-143328400D03*
X152222200Y-100304600D03*
X152222200Y-105304600D03*
X184133500Y-130810000D03*
X179133500Y-130810000D03*
X178642000Y-110210600D03*
X183642000Y-110210600D03*
D12*
X184302400Y-119354600D03*
X184251600Y-125907800D03*
X198374000Y-121920000D03*
X125603000Y-127508000D03*
X198374000Y-130810000D03*
X125603000Y-119634000D03*
X198374000Y-113030000D03*
D10*
X133858000Y-127491500D03*
X133858000Y-122491500D03*
D13*
X178612800Y-115062000D03*
X167614600Y-105943400D03*
X171704000Y-105943400D03*
X159512000Y-103759000D03*
X155879800Y-110007400D03*
X184912000Y-104317800D03*
X149428200Y-105435400D03*
X139801600Y-107442000D03*
X141757400Y-129311400D03*
X141782800Y-117500400D03*
X175895000Y-130810000D03*
X165201600Y-137972800D03*
X169722800Y-137998200D03*
X153924000Y-140004800D03*
X157708600Y-133959600D03*
X148056600Y-139293600D03*
X184277000Y-139522200D03*
X138404600Y-135636000D03*
X140411200Y-139293600D03*
X164020500Y-130873500D03*
X142773400Y-129565400D03*
X141198600Y-133096000D03*
X144881600Y-131470400D03*
X188798200Y-108940600D03*
X187325000Y-136194800D03*
X143713200Y-123418600D03*
X147751800Y-123418600D03*
X146304000Y-120599200D03*
X146304000Y-122123200D03*
X156819600Y-115925600D03*
X164642800Y-122732800D03*
X149656800Y-127127000D03*
X149656800Y-116611400D03*
X176657000Y-122428000D03*
X176657000Y-128778000D03*
X172212000Y-125882400D03*
X177850800Y-125907800D03*
X169672000Y-127304800D03*
X169672000Y-116433600D03*
X166547800Y-113106200D03*
X142737800Y-113548200D03*
X143687800Y-121310400D03*
X147777200Y-121310400D03*
X156743400Y-127889000D03*
X145237200Y-124129800D03*
X145237200Y-122656600D03*
D14*
X157226000Y-100266500D02*
X157226000Y-100266500D01*
X169926000Y-100266500D02*
X172974000Y-100266500D01*
X172974000Y-100266500D02*
X180594000Y-100266500D01*
X178642000Y-102218500D02*
X178642000Y-110210600D01*
X180594000Y-100266500D02*
X178642000Y-102218500D01*
X178642000Y-115032800D02*
X178612800Y-115062000D01*
X178642000Y-110210600D02*
X178642000Y-115032800D01*
X167614600Y-100355400D02*
X167703500Y-100266500D01*
X167614600Y-105943400D02*
X167614600Y-100355400D01*
X167703500Y-100266500D02*
X169926000Y-100266500D01*
X165989000Y-100266500D02*
X167703500Y-100266500D01*
X167614600Y-105943400D02*
X171704000Y-105943400D01*
X159512000Y-100457000D02*
X159321500Y-100266500D01*
X159512000Y-103759000D02*
X159512000Y-100457000D01*
X159321500Y-100266500D02*
X165989000Y-100266500D01*
X159512000Y-106375200D02*
X155879800Y-110007400D01*
X159512000Y-103759000D02*
X159512000Y-106375200D01*
X152260300Y-100266500D02*
X152222200Y-100304600D01*
X159321500Y-100266500D02*
X152260300Y-100266500D01*
X147904200Y-101727000D02*
X147929600Y-101727000D01*
X180860700Y-100266500D02*
X180594000Y-100266500D01*
X184912000Y-104317800D02*
X180860700Y-100266500D01*
X147904200Y-101727000D02*
X148056600Y-101727000D01*
X142189200Y-107442000D02*
X147904200Y-101727000D01*
X139801600Y-107442000D02*
X142189200Y-107442000D01*
X149326600Y-100304600D02*
X147904200Y-101727000D01*
X152222200Y-100304600D02*
X149326600Y-100304600D01*
X147904200Y-103911400D02*
X149428200Y-105435400D01*
X147904200Y-101727000D02*
X147904200Y-103911400D01*
D15*
X133841500Y-127508000D02*
X133858000Y-127491500D01*
X125603000Y-127508000D02*
X133841500Y-127508000D01*
X141782800Y-129286000D02*
X141757400Y-129311400D01*
X133858000Y-122491500D02*
X141719300Y-122491500D01*
X141719300Y-122491500D02*
X141782800Y-122428000D01*
X141782800Y-122428000D02*
X141782800Y-129286000D01*
X141782800Y-117500400D02*
X141782800Y-122428000D01*
D14*
X156210000Y-143383000D02*
X160020000Y-143383000D01*
X160020000Y-143383000D02*
X165163500Y-143383000D01*
X179133500Y-130810000D02*
X175895000Y-130810000D01*
X165201600Y-143344900D02*
X165163500Y-143383000D01*
X165201600Y-137972800D02*
X165201600Y-143344900D01*
X169697400Y-137972800D02*
X169722800Y-137998200D01*
X165201600Y-137972800D02*
X169697400Y-137972800D01*
X153924000Y-143230600D02*
X154076400Y-143383000D01*
X153924000Y-140004800D02*
X153924000Y-143230600D01*
X154076400Y-143383000D02*
X156210000Y-143383000D01*
X153924000Y-137744200D02*
X157708600Y-133959600D01*
X153924000Y-140004800D02*
X153924000Y-137744200D01*
X150829000Y-143383000D02*
X150774400Y-143328400D01*
X154076400Y-143383000D02*
X150829000Y-143383000D01*
X180390800Y-143408400D02*
X175793400Y-143408400D01*
X184277000Y-139522200D02*
X180390800Y-143408400D01*
X162666800Y-143408400D02*
X162560000Y-143301600D01*
X175793400Y-143408400D02*
X162666800Y-143408400D01*
X178181000Y-143433800D02*
X175920400Y-141173200D01*
X175920400Y-130835400D02*
X175895000Y-130810000D01*
X175920400Y-141173200D02*
X175920400Y-130835400D01*
X147209400Y-143328400D02*
X144246600Y-140365600D01*
X150774400Y-143328400D02*
X147209400Y-143328400D01*
X146984600Y-140365600D02*
X148056600Y-139293600D01*
X144246600Y-140365600D02*
X146984600Y-140365600D01*
X138404600Y-137287000D02*
X140411200Y-139293600D01*
X138404600Y-135636000D02*
X138404600Y-137287000D01*
X141483200Y-140365600D02*
X140411200Y-139293600D01*
X144246600Y-140365600D02*
X141483200Y-140365600D01*
D15*
X142773400Y-129565400D02*
X142773400Y-131470400D01*
X142773400Y-131521200D02*
X141198600Y-133096000D01*
X142773400Y-131470400D02*
X142773400Y-131521200D01*
X142773400Y-131470400D02*
X144881600Y-131470400D01*
X145478500Y-130873500D02*
X144881600Y-131470400D01*
X164020500Y-130873500D02*
X145478500Y-130873500D01*
D14*
X188823600Y-113030000D02*
X188798200Y-113055400D01*
X198374000Y-113030000D02*
X188823600Y-113030000D01*
X188798200Y-113055400D02*
X188798200Y-108940600D01*
X190754000Y-132765800D02*
X190754000Y-130810000D01*
X187325000Y-136194800D02*
X190754000Y-132765800D01*
X190754000Y-130810000D02*
X198374000Y-130810000D01*
D15*
X184238900Y-125920500D02*
X184251600Y-125907800D01*
X146329400Y-120573800D02*
X146304000Y-120599200D01*
X146329400Y-115925600D02*
X146329400Y-120573800D01*
X146304000Y-123393200D02*
X146329400Y-123418600D01*
X146304000Y-122123200D02*
X146304000Y-123393200D01*
X146329400Y-123418600D02*
X147751800Y-123418600D01*
X143713200Y-123418600D02*
X146329400Y-123418600D01*
X156819600Y-115925600D02*
X146329400Y-115925600D01*
X164642800Y-122732800D02*
X164185600Y-122275600D01*
X164185600Y-122275600D02*
X149707600Y-122275600D01*
X149656800Y-127127000D02*
X149656800Y-116611400D01*
X176657000Y-126809500D02*
X176657000Y-128778000D01*
X176657000Y-122428000D02*
X176657000Y-124460000D01*
X176657000Y-125984000D02*
X176657000Y-126809500D01*
X176657000Y-125920500D02*
X176657000Y-125984000D01*
X176657000Y-124460000D02*
X176657000Y-125920500D01*
X172250100Y-125920500D02*
X172212000Y-125882400D01*
X176657000Y-125920500D02*
X172250100Y-125920500D01*
X177838100Y-125920500D02*
X177850800Y-125907800D01*
X176657000Y-125920500D02*
X177838100Y-125920500D01*
X169672000Y-127304800D02*
X169672000Y-117449600D01*
X169672000Y-117449600D02*
X169672000Y-116941600D01*
X169672000Y-116941600D02*
X169672000Y-116433600D01*
X166547800Y-113106200D02*
X166535100Y-113093500D01*
X143179800Y-113106200D02*
X142737800Y-113548200D01*
X166547800Y-113106200D02*
X143179800Y-113106200D01*
X156743400Y-127889000D02*
X145237200Y-127889000D01*
X145237200Y-127889000D02*
X145237200Y-124129800D01*
X145237200Y-121386600D02*
X145161000Y-121310400D01*
X145237200Y-122656600D02*
X145237200Y-121386600D01*
X145161000Y-121310400D02*
X147777200Y-121310400D01*
X143687800Y-121310400D02*
X145161000Y-121310400D01*
M02*
