G04 #@! TF.GenerationSoftware,KiCad,Pcbnew,(5.1.8-0-10_14)*
G04 #@! TF.CreationDate,2021-01-02T16:45:16+01:00*
G04 #@! TF.ProjectId,pre-amp-discret,7072652d-616d-4702-9d64-697363726574,rev?*
G04 #@! TF.SameCoordinates,Original*
G04 #@! TF.FileFunction,Legend,Top*
G04 #@! TF.FilePolarity,Positive*
%FSLAX46Y46*%
G04 Gerber Fmt 4.6, Leading zero omitted, Abs format (unit mm)*
G04 Created by KiCad (PCBNEW (5.1.8-0-10_14)) date 2021-01-02 16:45:16*
%MOMM*%
%LPD*%
G01*
G04 APERTURE LIST*
%ADD10C,0.150000*%
%ADD11C,0.120000*%
G04 APERTURE END LIST*
D10*
X200731428Y-132825904D02*
X200731428Y-132064000D01*
X201112380Y-131064000D02*
X201112380Y-131635428D01*
X201112380Y-131349714D02*
X200112380Y-131349714D01*
X200255238Y-131444952D01*
X200350476Y-131540190D01*
X200398095Y-131635428D01*
X200112380Y-130159238D02*
X200112380Y-130635428D01*
X200588571Y-130683047D01*
X200540952Y-130635428D01*
X200493333Y-130540190D01*
X200493333Y-130302095D01*
X200540952Y-130206857D01*
X200588571Y-130159238D01*
X200683809Y-130111619D01*
X200921904Y-130111619D01*
X201017142Y-130159238D01*
X201064761Y-130206857D01*
X201112380Y-130302095D01*
X201112380Y-130540190D01*
X201064761Y-130635428D01*
X201017142Y-130683047D01*
X200112380Y-129825904D02*
X201112380Y-129492571D01*
X200112380Y-129159238D01*
X154563514Y-145791180D02*
X154563514Y-145124514D01*
X154563514Y-145219752D02*
X154611133Y-145172133D01*
X154706371Y-145124514D01*
X154849228Y-145124514D01*
X154944466Y-145172133D01*
X154992085Y-145267371D01*
X154992085Y-145791180D01*
X154992085Y-145267371D02*
X155039704Y-145172133D01*
X155134942Y-145124514D01*
X155277800Y-145124514D01*
X155373038Y-145172133D01*
X155420657Y-145267371D01*
X155420657Y-145791180D01*
X155896847Y-145791180D02*
X155896847Y-145124514D01*
X155896847Y-144791180D02*
X155849228Y-144838800D01*
X155896847Y-144886419D01*
X155944466Y-144838800D01*
X155896847Y-144791180D01*
X155896847Y-144886419D01*
X156801609Y-145743561D02*
X156706371Y-145791180D01*
X156515895Y-145791180D01*
X156420657Y-145743561D01*
X156373038Y-145695942D01*
X156325419Y-145600704D01*
X156325419Y-145314990D01*
X156373038Y-145219752D01*
X156420657Y-145172133D01*
X156515895Y-145124514D01*
X156706371Y-145124514D01*
X156801609Y-145172133D01*
X157230180Y-145791180D02*
X157230180Y-144791180D01*
X157658752Y-145791180D02*
X157658752Y-145267371D01*
X157611133Y-145172133D01*
X157515895Y-145124514D01*
X157373038Y-145124514D01*
X157277800Y-145172133D01*
X157230180Y-145219752D01*
X158563514Y-145791180D02*
X158563514Y-145267371D01*
X158515895Y-145172133D01*
X158420657Y-145124514D01*
X158230180Y-145124514D01*
X158134942Y-145172133D01*
X158563514Y-145743561D02*
X158468276Y-145791180D01*
X158230180Y-145791180D01*
X158134942Y-145743561D01*
X158087323Y-145648323D01*
X158087323Y-145553085D01*
X158134942Y-145457847D01*
X158230180Y-145410228D01*
X158468276Y-145410228D01*
X158563514Y-145362609D01*
X159420657Y-145743561D02*
X159325419Y-145791180D01*
X159134942Y-145791180D01*
X159039704Y-145743561D01*
X158992085Y-145648323D01*
X158992085Y-145267371D01*
X159039704Y-145172133D01*
X159134942Y-145124514D01*
X159325419Y-145124514D01*
X159420657Y-145172133D01*
X159468276Y-145267371D01*
X159468276Y-145362609D01*
X158992085Y-145457847D01*
X160039704Y-145791180D02*
X159944466Y-145743561D01*
X159896847Y-145648323D01*
X159896847Y-144791180D01*
X160373038Y-145743561D02*
X160468276Y-145791180D01*
X160658752Y-145791180D01*
X160753990Y-145743561D01*
X160801609Y-145648323D01*
X160801609Y-145600704D01*
X160753990Y-145505466D01*
X160658752Y-145457847D01*
X160515895Y-145457847D01*
X160420657Y-145410228D01*
X160373038Y-145314990D01*
X160373038Y-145267371D01*
X160420657Y-145172133D01*
X160515895Y-145124514D01*
X160658752Y-145124514D01*
X160753990Y-145172133D01*
X161658752Y-145743561D02*
X161563514Y-145791180D01*
X161373038Y-145791180D01*
X161277800Y-145743561D01*
X161230180Y-145695942D01*
X161182561Y-145600704D01*
X161182561Y-145314990D01*
X161230180Y-145219752D01*
X161277800Y-145172133D01*
X161373038Y-145124514D01*
X161563514Y-145124514D01*
X161658752Y-145172133D01*
X162087323Y-145791180D02*
X162087323Y-144791180D01*
X162515895Y-145791180D02*
X162515895Y-145267371D01*
X162468276Y-145172133D01*
X162373038Y-145124514D01*
X162230180Y-145124514D01*
X162134942Y-145172133D01*
X162087323Y-145219752D01*
X163373038Y-145743561D02*
X163277800Y-145791180D01*
X163087323Y-145791180D01*
X162992085Y-145743561D01*
X162944466Y-145648323D01*
X162944466Y-145267371D01*
X162992085Y-145172133D01*
X163087323Y-145124514D01*
X163277800Y-145124514D01*
X163373038Y-145172133D01*
X163420657Y-145267371D01*
X163420657Y-145362609D01*
X162944466Y-145457847D01*
X163849228Y-145124514D02*
X163849228Y-145791180D01*
X163849228Y-145219752D02*
X163896847Y-145172133D01*
X163992085Y-145124514D01*
X164134942Y-145124514D01*
X164230180Y-145172133D01*
X164277800Y-145267371D01*
X164277800Y-145791180D01*
X164753990Y-145791180D02*
X164753990Y-144791180D01*
X164849228Y-145410228D02*
X165134942Y-145791180D01*
X165134942Y-145124514D02*
X164753990Y-145505466D01*
X165468276Y-144791180D02*
X166134942Y-144791180D01*
X165706371Y-145791180D01*
X166468276Y-144886419D02*
X166515895Y-144838800D01*
X166611133Y-144791180D01*
X166849228Y-144791180D01*
X166944466Y-144838800D01*
X166992085Y-144886419D01*
X167039704Y-144981657D01*
X167039704Y-145076895D01*
X166992085Y-145219752D01*
X166420657Y-145791180D01*
X167039704Y-145791180D01*
X168087323Y-145314990D02*
X168039704Y-145267371D01*
X167944466Y-145219752D01*
X167849228Y-145219752D01*
X167753990Y-145267371D01*
X167706371Y-145314990D01*
X167658752Y-145410228D01*
X167658752Y-145505466D01*
X167706371Y-145600704D01*
X167753990Y-145648323D01*
X167849228Y-145695942D01*
X167944466Y-145695942D01*
X168039704Y-145648323D01*
X168087323Y-145600704D01*
X168087323Y-145219752D02*
X168087323Y-145600704D01*
X168134942Y-145648323D01*
X168182561Y-145648323D01*
X168277800Y-145600704D01*
X168325419Y-145505466D01*
X168325419Y-145267371D01*
X168230180Y-145124514D01*
X168087323Y-145029276D01*
X167896847Y-144981657D01*
X167706371Y-145029276D01*
X167563514Y-145124514D01*
X167468276Y-145267371D01*
X167420657Y-145457847D01*
X167468276Y-145648323D01*
X167563514Y-145791180D01*
X167706371Y-145886419D01*
X167896847Y-145934038D01*
X168087323Y-145886419D01*
X168230180Y-145791180D01*
X169182561Y-145124514D02*
X169182561Y-145934038D01*
X169134942Y-146029276D01*
X169087323Y-146076895D01*
X168992085Y-146124514D01*
X168849228Y-146124514D01*
X168753990Y-146076895D01*
X169182561Y-145743561D02*
X169087323Y-145791180D01*
X168896847Y-145791180D01*
X168801609Y-145743561D01*
X168753990Y-145695942D01*
X168706371Y-145600704D01*
X168706371Y-145314990D01*
X168753990Y-145219752D01*
X168801609Y-145172133D01*
X168896847Y-145124514D01*
X169087323Y-145124514D01*
X169182561Y-145172133D01*
X169658752Y-145791180D02*
X169658752Y-145124514D01*
X169658752Y-145219752D02*
X169706371Y-145172133D01*
X169801609Y-145124514D01*
X169944466Y-145124514D01*
X170039704Y-145172133D01*
X170087323Y-145267371D01*
X170087323Y-145791180D01*
X170087323Y-145267371D02*
X170134942Y-145172133D01*
X170230180Y-145124514D01*
X170373038Y-145124514D01*
X170468276Y-145172133D01*
X170515895Y-145267371D01*
X170515895Y-145791180D01*
X171420657Y-145791180D02*
X171420657Y-145267371D01*
X171373038Y-145172133D01*
X171277800Y-145124514D01*
X171087323Y-145124514D01*
X170992085Y-145172133D01*
X171420657Y-145743561D02*
X171325419Y-145791180D01*
X171087323Y-145791180D01*
X170992085Y-145743561D01*
X170944466Y-145648323D01*
X170944466Y-145553085D01*
X170992085Y-145457847D01*
X171087323Y-145410228D01*
X171325419Y-145410228D01*
X171420657Y-145362609D01*
X171896847Y-145791180D02*
X171896847Y-145124514D01*
X171896847Y-144791180D02*
X171849228Y-144838800D01*
X171896847Y-144886419D01*
X171944466Y-144838800D01*
X171896847Y-144791180D01*
X171896847Y-144886419D01*
X172515895Y-145791180D02*
X172420657Y-145743561D01*
X172373038Y-145648323D01*
X172373038Y-144791180D01*
X172896847Y-145695942D02*
X172944466Y-145743561D01*
X172896847Y-145791180D01*
X172849228Y-145743561D01*
X172896847Y-145695942D01*
X172896847Y-145791180D01*
X173801609Y-145743561D02*
X173706371Y-145791180D01*
X173515895Y-145791180D01*
X173420657Y-145743561D01*
X173373038Y-145695942D01*
X173325419Y-145600704D01*
X173325419Y-145314990D01*
X173373038Y-145219752D01*
X173420657Y-145172133D01*
X173515895Y-145124514D01*
X173706371Y-145124514D01*
X173801609Y-145172133D01*
X174373038Y-145791180D02*
X174277800Y-145743561D01*
X174230180Y-145695942D01*
X174182561Y-145600704D01*
X174182561Y-145314990D01*
X174230180Y-145219752D01*
X174277800Y-145172133D01*
X174373038Y-145124514D01*
X174515895Y-145124514D01*
X174611133Y-145172133D01*
X174658752Y-145219752D01*
X174706371Y-145314990D01*
X174706371Y-145600704D01*
X174658752Y-145695942D01*
X174611133Y-145743561D01*
X174515895Y-145791180D01*
X174373038Y-145791180D01*
X175134942Y-145791180D02*
X175134942Y-145124514D01*
X175134942Y-145219752D02*
X175182561Y-145172133D01*
X175277800Y-145124514D01*
X175420657Y-145124514D01*
X175515895Y-145172133D01*
X175563514Y-145267371D01*
X175563514Y-145791180D01*
X175563514Y-145267371D02*
X175611133Y-145172133D01*
X175706371Y-145124514D01*
X175849228Y-145124514D01*
X175944466Y-145172133D01*
X175992085Y-145267371D01*
X175992085Y-145791180D01*
X182655557Y-105876580D02*
X182655557Y-104876580D01*
X183036509Y-104876580D01*
X183131747Y-104924200D01*
X183179366Y-104971819D01*
X183226985Y-105067057D01*
X183226985Y-105209914D01*
X183179366Y-105305152D01*
X183131747Y-105352771D01*
X183036509Y-105400390D01*
X182655557Y-105400390D01*
X183655557Y-105876580D02*
X183655557Y-105209914D01*
X183655557Y-105400390D02*
X183703176Y-105305152D01*
X183750795Y-105257533D01*
X183846033Y-105209914D01*
X183941271Y-105209914D01*
X184655557Y-105828961D02*
X184560319Y-105876580D01*
X184369842Y-105876580D01*
X184274604Y-105828961D01*
X184226985Y-105733723D01*
X184226985Y-105352771D01*
X184274604Y-105257533D01*
X184369842Y-105209914D01*
X184560319Y-105209914D01*
X184655557Y-105257533D01*
X184703176Y-105352771D01*
X184703176Y-105448009D01*
X184226985Y-105543247D01*
X185131747Y-105495628D02*
X185893652Y-105495628D01*
X186322223Y-105590866D02*
X186798414Y-105590866D01*
X186226985Y-105876580D02*
X186560319Y-104876580D01*
X186893652Y-105876580D01*
X187226985Y-105876580D02*
X187226985Y-105209914D01*
X187226985Y-105305152D02*
X187274604Y-105257533D01*
X187369842Y-105209914D01*
X187512700Y-105209914D01*
X187607938Y-105257533D01*
X187655557Y-105352771D01*
X187655557Y-105876580D01*
X187655557Y-105352771D02*
X187703176Y-105257533D01*
X187798414Y-105209914D01*
X187941271Y-105209914D01*
X188036509Y-105257533D01*
X188084128Y-105352771D01*
X188084128Y-105876580D01*
X188560319Y-105209914D02*
X188560319Y-106209914D01*
X188560319Y-105257533D02*
X188655557Y-105209914D01*
X188846033Y-105209914D01*
X188941271Y-105257533D01*
X188988890Y-105305152D01*
X189036509Y-105400390D01*
X189036509Y-105686104D01*
X188988890Y-105781342D01*
X188941271Y-105828961D01*
X188846033Y-105876580D01*
X188655557Y-105876580D01*
X188560319Y-105828961D01*
X190179366Y-105828961D02*
X190322223Y-105876580D01*
X190560319Y-105876580D01*
X190655557Y-105828961D01*
X190703176Y-105781342D01*
X190750795Y-105686104D01*
X190750795Y-105590866D01*
X190703176Y-105495628D01*
X190655557Y-105448009D01*
X190560319Y-105400390D01*
X190369842Y-105352771D01*
X190274604Y-105305152D01*
X190226985Y-105257533D01*
X190179366Y-105162295D01*
X190179366Y-105067057D01*
X190226985Y-104971819D01*
X190274604Y-104924200D01*
X190369842Y-104876580D01*
X190607938Y-104876580D01*
X190750795Y-104924200D01*
X191084128Y-105209914D02*
X191322223Y-105876580D01*
X191560319Y-105209914D02*
X191322223Y-105876580D01*
X191226985Y-106114676D01*
X191179366Y-106162295D01*
X191084128Y-106209914D01*
X191941271Y-105876580D02*
X191941271Y-105209914D01*
X191941271Y-105305152D02*
X191988890Y-105257533D01*
X192084128Y-105209914D01*
X192226985Y-105209914D01*
X192322223Y-105257533D01*
X192369842Y-105352771D01*
X192369842Y-105876580D01*
X192369842Y-105352771D02*
X192417461Y-105257533D01*
X192512700Y-105209914D01*
X192655557Y-105209914D01*
X192750795Y-105257533D01*
X192798414Y-105352771D01*
X192798414Y-105876580D01*
X193655557Y-105828961D02*
X193560319Y-105876580D01*
X193369842Y-105876580D01*
X193274604Y-105828961D01*
X193226985Y-105733723D01*
X193226985Y-105352771D01*
X193274604Y-105257533D01*
X193369842Y-105209914D01*
X193560319Y-105209914D01*
X193655557Y-105257533D01*
X193703176Y-105352771D01*
X193703176Y-105448009D01*
X193226985Y-105543247D01*
X193988890Y-105209914D02*
X194369842Y-105209914D01*
X194131747Y-104876580D02*
X194131747Y-105733723D01*
X194179366Y-105828961D01*
X194274604Y-105876580D01*
X194369842Y-105876580D01*
X194703176Y-105876580D02*
X194703176Y-105209914D01*
X194703176Y-105400390D02*
X194750795Y-105305152D01*
X194798414Y-105257533D01*
X194893652Y-105209914D01*
X194988890Y-105209914D01*
X195322223Y-105876580D02*
X195322223Y-105209914D01*
X195322223Y-104876580D02*
X195274604Y-104924200D01*
X195322223Y-104971819D01*
X195369842Y-104924200D01*
X195322223Y-104876580D01*
X195322223Y-104971819D01*
X196226985Y-105828961D02*
X196131747Y-105876580D01*
X195941271Y-105876580D01*
X195846033Y-105828961D01*
X195798414Y-105781342D01*
X195750795Y-105686104D01*
X195750795Y-105400390D01*
X195798414Y-105305152D01*
X195846033Y-105257533D01*
X195941271Y-105209914D01*
X196131747Y-105209914D01*
X196226985Y-105257533D01*
X197084128Y-105876580D02*
X197084128Y-105352771D01*
X197036509Y-105257533D01*
X196941271Y-105209914D01*
X196750795Y-105209914D01*
X196655557Y-105257533D01*
X197084128Y-105828961D02*
X196988890Y-105876580D01*
X196750795Y-105876580D01*
X196655557Y-105828961D01*
X196607938Y-105733723D01*
X196607938Y-105638485D01*
X196655557Y-105543247D01*
X196750795Y-105495628D01*
X196988890Y-105495628D01*
X197084128Y-105448009D01*
X197703176Y-105876580D02*
X197607938Y-105828961D01*
X197560319Y-105733723D01*
X197560319Y-104876580D01*
X186869842Y-107526580D02*
X186869842Y-106526580D01*
X187107938Y-106526580D01*
X187250795Y-106574200D01*
X187346033Y-106669438D01*
X187393652Y-106764676D01*
X187441271Y-106955152D01*
X187441271Y-107098009D01*
X187393652Y-107288485D01*
X187346033Y-107383723D01*
X187250795Y-107478961D01*
X187107938Y-107526580D01*
X186869842Y-107526580D01*
X187869842Y-107526580D02*
X187869842Y-106859914D01*
X187869842Y-106526580D02*
X187822223Y-106574200D01*
X187869842Y-106621819D01*
X187917461Y-106574200D01*
X187869842Y-106526580D01*
X187869842Y-106621819D01*
X188298414Y-107478961D02*
X188393652Y-107526580D01*
X188584128Y-107526580D01*
X188679366Y-107478961D01*
X188726985Y-107383723D01*
X188726985Y-107336104D01*
X188679366Y-107240866D01*
X188584128Y-107193247D01*
X188441271Y-107193247D01*
X188346033Y-107145628D01*
X188298414Y-107050390D01*
X188298414Y-107002771D01*
X188346033Y-106907533D01*
X188441271Y-106859914D01*
X188584128Y-106859914D01*
X188679366Y-106907533D01*
X189584128Y-107478961D02*
X189488890Y-107526580D01*
X189298414Y-107526580D01*
X189203176Y-107478961D01*
X189155557Y-107431342D01*
X189107938Y-107336104D01*
X189107938Y-107050390D01*
X189155557Y-106955152D01*
X189203176Y-106907533D01*
X189298414Y-106859914D01*
X189488890Y-106859914D01*
X189584128Y-106907533D01*
X190012700Y-107526580D02*
X190012700Y-106859914D01*
X190012700Y-107050390D02*
X190060319Y-106955152D01*
X190107938Y-106907533D01*
X190203176Y-106859914D01*
X190298414Y-106859914D01*
X191012700Y-107478961D02*
X190917461Y-107526580D01*
X190726985Y-107526580D01*
X190631747Y-107478961D01*
X190584128Y-107383723D01*
X190584128Y-107002771D01*
X190631747Y-106907533D01*
X190726985Y-106859914D01*
X190917461Y-106859914D01*
X191012700Y-106907533D01*
X191060319Y-107002771D01*
X191060319Y-107098009D01*
X190584128Y-107193247D01*
X191346033Y-106859914D02*
X191726985Y-106859914D01*
X191488890Y-106526580D02*
X191488890Y-107383723D01*
X191536509Y-107478961D01*
X191631747Y-107526580D01*
X191726985Y-107526580D01*
X192679366Y-106526580D02*
X193012700Y-107526580D01*
X193346033Y-106526580D01*
X193631747Y-106621819D02*
X193679366Y-106574200D01*
X193774604Y-106526580D01*
X194012700Y-106526580D01*
X194107938Y-106574200D01*
X194155557Y-106621819D01*
X194203176Y-106717057D01*
X194203176Y-106812295D01*
X194155557Y-106955152D01*
X193584128Y-107526580D01*
X194203176Y-107526580D01*
X184893652Y-109176580D02*
X184893652Y-108176580D01*
X185226985Y-108890866D01*
X185560319Y-108176580D01*
X185560319Y-109176580D01*
X186036509Y-109176580D02*
X186036509Y-108509914D01*
X186036509Y-108176580D02*
X185988890Y-108224200D01*
X186036509Y-108271819D01*
X186084128Y-108224200D01*
X186036509Y-108176580D01*
X186036509Y-108271819D01*
X186941271Y-109128961D02*
X186846033Y-109176580D01*
X186655557Y-109176580D01*
X186560319Y-109128961D01*
X186512700Y-109081342D01*
X186465080Y-108986104D01*
X186465080Y-108700390D01*
X186512700Y-108605152D01*
X186560319Y-108557533D01*
X186655557Y-108509914D01*
X186846033Y-108509914D01*
X186941271Y-108557533D01*
X187369842Y-109176580D02*
X187369842Y-108176580D01*
X187798414Y-109176580D02*
X187798414Y-108652771D01*
X187750795Y-108557533D01*
X187655557Y-108509914D01*
X187512700Y-108509914D01*
X187417461Y-108557533D01*
X187369842Y-108605152D01*
X188703176Y-109176580D02*
X188703176Y-108652771D01*
X188655557Y-108557533D01*
X188560319Y-108509914D01*
X188369842Y-108509914D01*
X188274604Y-108557533D01*
X188703176Y-109128961D02*
X188607938Y-109176580D01*
X188369842Y-109176580D01*
X188274604Y-109128961D01*
X188226985Y-109033723D01*
X188226985Y-108938485D01*
X188274604Y-108843247D01*
X188369842Y-108795628D01*
X188607938Y-108795628D01*
X188703176Y-108748009D01*
X189560319Y-109128961D02*
X189465080Y-109176580D01*
X189274604Y-109176580D01*
X189179366Y-109128961D01*
X189131747Y-109033723D01*
X189131747Y-108652771D01*
X189179366Y-108557533D01*
X189274604Y-108509914D01*
X189465080Y-108509914D01*
X189560319Y-108557533D01*
X189607938Y-108652771D01*
X189607938Y-108748009D01*
X189131747Y-108843247D01*
X190179366Y-109176580D02*
X190084128Y-109128961D01*
X190036509Y-109033723D01*
X190036509Y-108176580D01*
X191274604Y-109128961D02*
X191417461Y-109176580D01*
X191655557Y-109176580D01*
X191750795Y-109128961D01*
X191798414Y-109081342D01*
X191846033Y-108986104D01*
X191846033Y-108890866D01*
X191798414Y-108795628D01*
X191750795Y-108748009D01*
X191655557Y-108700390D01*
X191465080Y-108652771D01*
X191369842Y-108605152D01*
X191322223Y-108557533D01*
X191274604Y-108462295D01*
X191274604Y-108367057D01*
X191322223Y-108271819D01*
X191369842Y-108224200D01*
X191465080Y-108176580D01*
X191703176Y-108176580D01*
X191846033Y-108224200D01*
X192703176Y-109128961D02*
X192607938Y-109176580D01*
X192417461Y-109176580D01*
X192322223Y-109128961D01*
X192274604Y-109081342D01*
X192226985Y-108986104D01*
X192226985Y-108700390D01*
X192274604Y-108605152D01*
X192322223Y-108557533D01*
X192417461Y-108509914D01*
X192607938Y-108509914D01*
X192703176Y-108557533D01*
X193131747Y-109176580D02*
X193131747Y-108176580D01*
X193560319Y-109176580D02*
X193560319Y-108652771D01*
X193512700Y-108557533D01*
X193417461Y-108509914D01*
X193274604Y-108509914D01*
X193179366Y-108557533D01*
X193131747Y-108605152D01*
X194417461Y-109128961D02*
X194322223Y-109176580D01*
X194131747Y-109176580D01*
X194036509Y-109128961D01*
X193988890Y-109033723D01*
X193988890Y-108652771D01*
X194036509Y-108557533D01*
X194131747Y-108509914D01*
X194322223Y-108509914D01*
X194417461Y-108557533D01*
X194465080Y-108652771D01*
X194465080Y-108748009D01*
X193988890Y-108843247D01*
X194893652Y-108509914D02*
X194893652Y-109176580D01*
X194893652Y-108605152D02*
X194941271Y-108557533D01*
X195036509Y-108509914D01*
X195179366Y-108509914D01*
X195274604Y-108557533D01*
X195322223Y-108652771D01*
X195322223Y-109176580D01*
X195798414Y-109176580D02*
X195798414Y-108176580D01*
X195893652Y-108795628D02*
X196179366Y-109176580D01*
X196179366Y-108509914D02*
X195798414Y-108890866D01*
X186417461Y-109921819D02*
X186465080Y-109874200D01*
X186560319Y-109826580D01*
X186798414Y-109826580D01*
X186893652Y-109874200D01*
X186941271Y-109921819D01*
X186988890Y-110017057D01*
X186988890Y-110112295D01*
X186941271Y-110255152D01*
X186369842Y-110826580D01*
X186988890Y-110826580D01*
X187607938Y-109826580D02*
X187703176Y-109826580D01*
X187798414Y-109874200D01*
X187846033Y-109921819D01*
X187893652Y-110017057D01*
X187941271Y-110207533D01*
X187941271Y-110445628D01*
X187893652Y-110636104D01*
X187846033Y-110731342D01*
X187798414Y-110778961D01*
X187703176Y-110826580D01*
X187607938Y-110826580D01*
X187512700Y-110778961D01*
X187465080Y-110731342D01*
X187417461Y-110636104D01*
X187369842Y-110445628D01*
X187369842Y-110207533D01*
X187417461Y-110017057D01*
X187465080Y-109921819D01*
X187512700Y-109874200D01*
X187607938Y-109826580D01*
X188322223Y-109921819D02*
X188369842Y-109874200D01*
X188465080Y-109826580D01*
X188703176Y-109826580D01*
X188798414Y-109874200D01*
X188846033Y-109921819D01*
X188893652Y-110017057D01*
X188893652Y-110112295D01*
X188846033Y-110255152D01*
X188274604Y-110826580D01*
X188893652Y-110826580D01*
X189846033Y-110826580D02*
X189274604Y-110826580D01*
X189560319Y-110826580D02*
X189560319Y-109826580D01*
X189465080Y-109969438D01*
X189369842Y-110064676D01*
X189274604Y-110112295D01*
X190274604Y-110731342D02*
X190322223Y-110778961D01*
X190274604Y-110826580D01*
X190226985Y-110778961D01*
X190274604Y-110731342D01*
X190274604Y-110826580D01*
X190941271Y-109826580D02*
X191036509Y-109826580D01*
X191131747Y-109874200D01*
X191179366Y-109921819D01*
X191226985Y-110017057D01*
X191274604Y-110207533D01*
X191274604Y-110445628D01*
X191226985Y-110636104D01*
X191179366Y-110731342D01*
X191131747Y-110778961D01*
X191036509Y-110826580D01*
X190941271Y-110826580D01*
X190846033Y-110778961D01*
X190798414Y-110731342D01*
X190750795Y-110636104D01*
X190703176Y-110445628D01*
X190703176Y-110207533D01*
X190750795Y-110017057D01*
X190798414Y-109921819D01*
X190846033Y-109874200D01*
X190941271Y-109826580D01*
X192226985Y-110826580D02*
X191655557Y-110826580D01*
X191941271Y-110826580D02*
X191941271Y-109826580D01*
X191846033Y-109969438D01*
X191750795Y-110064676D01*
X191655557Y-110112295D01*
X192655557Y-110731342D02*
X192703176Y-110778961D01*
X192655557Y-110826580D01*
X192607938Y-110778961D01*
X192655557Y-110731342D01*
X192655557Y-110826580D01*
X193322223Y-109826580D02*
X193417461Y-109826580D01*
X193512700Y-109874200D01*
X193560319Y-109921819D01*
X193607938Y-110017057D01*
X193655557Y-110207533D01*
X193655557Y-110445628D01*
X193607938Y-110636104D01*
X193560319Y-110731342D01*
X193512700Y-110778961D01*
X193417461Y-110826580D01*
X193322223Y-110826580D01*
X193226985Y-110778961D01*
X193179366Y-110731342D01*
X193131747Y-110636104D01*
X193084128Y-110445628D01*
X193084128Y-110207533D01*
X193131747Y-110017057D01*
X193179366Y-109921819D01*
X193226985Y-109874200D01*
X193322223Y-109826580D01*
X194036509Y-109921819D02*
X194084128Y-109874200D01*
X194179366Y-109826580D01*
X194417461Y-109826580D01*
X194512700Y-109874200D01*
X194560319Y-109921819D01*
X194607938Y-110017057D01*
X194607938Y-110112295D01*
X194560319Y-110255152D01*
X193988890Y-110826580D01*
X194607938Y-110826580D01*
X186837700Y-117995604D02*
X186790080Y-118090842D01*
X186790080Y-118233700D01*
X186837700Y-118376557D01*
X186932938Y-118471795D01*
X187028176Y-118519414D01*
X187218652Y-118567033D01*
X187361509Y-118567033D01*
X187551985Y-118519414D01*
X187647223Y-118471795D01*
X187742461Y-118376557D01*
X187790080Y-118233700D01*
X187790080Y-118138461D01*
X187742461Y-117995604D01*
X187694842Y-117947985D01*
X187361509Y-117947985D01*
X187361509Y-118138461D01*
X187790080Y-117519414D02*
X186790080Y-117519414D01*
X187790080Y-116947985D01*
X186790080Y-116947985D01*
X187790080Y-116471795D02*
X186790080Y-116471795D01*
X186790080Y-116233700D01*
X186837700Y-116090842D01*
X186932938Y-115995604D01*
X187028176Y-115947985D01*
X187218652Y-115900366D01*
X187361509Y-115900366D01*
X187551985Y-115947985D01*
X187647223Y-115995604D01*
X187742461Y-116090842D01*
X187790080Y-116233700D01*
X187790080Y-116471795D01*
X186726580Y-123720100D02*
X186726580Y-123529623D01*
X186774200Y-123434385D01*
X186869438Y-123339147D01*
X187059914Y-123291528D01*
X187393247Y-123291528D01*
X187583723Y-123339147D01*
X187678961Y-123434385D01*
X187726580Y-123529623D01*
X187726580Y-123720100D01*
X187678961Y-123815338D01*
X187583723Y-123910576D01*
X187393247Y-123958195D01*
X187059914Y-123958195D01*
X186869438Y-123910576D01*
X186774200Y-123815338D01*
X186726580Y-123720100D01*
X186726580Y-122862957D02*
X187536104Y-122862957D01*
X187631342Y-122815338D01*
X187678961Y-122767719D01*
X187726580Y-122672480D01*
X187726580Y-122482004D01*
X187678961Y-122386766D01*
X187631342Y-122339147D01*
X187536104Y-122291528D01*
X186726580Y-122291528D01*
X186726580Y-121958195D02*
X186726580Y-121386766D01*
X187726580Y-121672480D02*
X186726580Y-121672480D01*
X123563000Y-118745095D02*
X123610619Y-118649857D01*
X123610619Y-118507000D01*
X123563000Y-118364142D01*
X123467761Y-118268904D01*
X123372523Y-118221285D01*
X123182047Y-118173666D01*
X123039190Y-118173666D01*
X122848714Y-118221285D01*
X122753476Y-118268904D01*
X122658238Y-118364142D01*
X122610619Y-118507000D01*
X122610619Y-118602238D01*
X122658238Y-118745095D01*
X122705857Y-118792714D01*
X123039190Y-118792714D01*
X123039190Y-118602238D01*
X122610619Y-119221285D02*
X123610619Y-119221285D01*
X122610619Y-119792714D01*
X123610619Y-119792714D01*
X122610619Y-120268904D02*
X123610619Y-120268904D01*
X123610619Y-120507000D01*
X123563000Y-120649857D01*
X123467761Y-120745095D01*
X123372523Y-120792714D01*
X123182047Y-120840333D01*
X123039190Y-120840333D01*
X122848714Y-120792714D01*
X122753476Y-120745095D01*
X122658238Y-120649857D01*
X122610619Y-120507000D01*
X122610619Y-120268904D01*
X122610619Y-126984190D02*
X123610619Y-126984190D01*
X122610619Y-127460380D02*
X123610619Y-127460380D01*
X122610619Y-128031809D01*
X123610619Y-128031809D01*
X200160000Y-122681904D02*
X200112380Y-122777142D01*
X200112380Y-122920000D01*
X200160000Y-123062857D01*
X200255238Y-123158095D01*
X200350476Y-123205714D01*
X200540952Y-123253333D01*
X200683809Y-123253333D01*
X200874285Y-123205714D01*
X200969523Y-123158095D01*
X201064761Y-123062857D01*
X201112380Y-122920000D01*
X201112380Y-122824761D01*
X201064761Y-122681904D01*
X201017142Y-122634285D01*
X200683809Y-122634285D01*
X200683809Y-122824761D01*
X201112380Y-122205714D02*
X200112380Y-122205714D01*
X201112380Y-121634285D01*
X200112380Y-121634285D01*
X201112380Y-121158095D02*
X200112380Y-121158095D01*
X200112380Y-120920000D01*
X200160000Y-120777142D01*
X200255238Y-120681904D01*
X200350476Y-120634285D01*
X200540952Y-120586666D01*
X200683809Y-120586666D01*
X200874285Y-120634285D01*
X200969523Y-120681904D01*
X201064761Y-120777142D01*
X201112380Y-120920000D01*
X201112380Y-121158095D01*
X200731428Y-115045904D02*
X200731428Y-114284000D01*
X201112380Y-114664952D02*
X200350476Y-114664952D01*
X201112380Y-113284000D02*
X201112380Y-113855428D01*
X201112380Y-113569714D02*
X200112380Y-113569714D01*
X200255238Y-113664952D01*
X200350476Y-113760190D01*
X200398095Y-113855428D01*
X200112380Y-112379238D02*
X200112380Y-112855428D01*
X200588571Y-112903047D01*
X200540952Y-112855428D01*
X200493333Y-112760190D01*
X200493333Y-112522095D01*
X200540952Y-112426857D01*
X200588571Y-112379238D01*
X200683809Y-112331619D01*
X200921904Y-112331619D01*
X201017142Y-112379238D01*
X201064761Y-112426857D01*
X201112380Y-112522095D01*
X201112380Y-112760190D01*
X201064761Y-112855428D01*
X201017142Y-112903047D01*
X200112380Y-112045904D02*
X201112380Y-111712571D01*
X200112380Y-111379238D01*
D11*
X148095100Y-134424000D02*
X148095100Y-133674000D01*
X148095100Y-134424000D02*
X148095100Y-135174000D01*
X144975100Y-134424000D02*
X144975100Y-133674000D01*
X144975100Y-134424000D02*
X144975100Y-136274000D01*
X141928000Y-133383500D02*
X142678000Y-133383500D01*
X141928000Y-133383500D02*
X141178000Y-133383500D01*
X141928000Y-130263500D02*
X142678000Y-130263500D01*
X141928000Y-130263500D02*
X140078000Y-130263500D01*
X177731000Y-115546700D02*
X176981000Y-115546700D01*
X177731000Y-115546700D02*
X178481000Y-115546700D01*
X177731000Y-118666700D02*
X176981000Y-118666700D01*
X177731000Y-118666700D02*
X179581000Y-118666700D01*
X156458500Y-114337700D02*
X155708500Y-114337700D01*
X156458500Y-114337700D02*
X157208500Y-114337700D01*
X156458500Y-117457700D02*
X155708500Y-117457700D01*
X156458500Y-117457700D02*
X158308500Y-117457700D01*
X141904300Y-119583600D02*
X142654300Y-119583600D01*
X141904300Y-119583600D02*
X141154300Y-119583600D01*
X141904300Y-116463600D02*
X142654300Y-116463600D01*
X141904300Y-116463600D02*
X140054300Y-116463600D01*
X144932000Y-113124400D02*
X144932000Y-114974400D01*
X144932000Y-113124400D02*
X144932000Y-112374400D01*
X148052000Y-113124400D02*
X148052000Y-113874400D01*
X148052000Y-113124400D02*
X148052000Y-112374400D01*
X154830300Y-127878800D02*
X154830300Y-128628800D01*
X154830300Y-127878800D02*
X154830300Y-127128800D01*
X157950300Y-127878800D02*
X157950300Y-128628800D01*
X157950300Y-127878800D02*
X157950300Y-126028800D01*
X181081800Y-104231500D02*
G75*
G03*
X181081800Y-104231500I-4120000J0D01*
G01*
X172881800Y-104231500D02*
X181041800Y-104231500D01*
X172881800Y-104191500D02*
X181041800Y-104191500D01*
X172881800Y-104151500D02*
X181041800Y-104151500D01*
X172882800Y-104111500D02*
X181040800Y-104111500D01*
X172884800Y-104071500D02*
X181038800Y-104071500D01*
X172885800Y-104031500D02*
X181037800Y-104031500D01*
X172887800Y-103991500D02*
X181035800Y-103991500D01*
X172890800Y-103951500D02*
X181032800Y-103951500D01*
X172893800Y-103911500D02*
X181029800Y-103911500D01*
X172896800Y-103871500D02*
X181026800Y-103871500D01*
X172900800Y-103831500D02*
X181022800Y-103831500D01*
X172904800Y-103791500D02*
X181018800Y-103791500D01*
X172909800Y-103751500D02*
X181013800Y-103751500D01*
X172913800Y-103711500D02*
X181009800Y-103711500D01*
X172919800Y-103671500D02*
X181003800Y-103671500D01*
X172924800Y-103631500D02*
X180998800Y-103631500D01*
X172931800Y-103591500D02*
X180991800Y-103591500D01*
X172937800Y-103551500D02*
X180985800Y-103551500D01*
X172944800Y-103510500D02*
X175921800Y-103510500D01*
X178001800Y-103510500D02*
X180978800Y-103510500D01*
X172951800Y-103470500D02*
X175921800Y-103470500D01*
X178001800Y-103470500D02*
X180971800Y-103470500D01*
X172959800Y-103430500D02*
X175921800Y-103430500D01*
X178001800Y-103430500D02*
X180963800Y-103430500D01*
X172967800Y-103390500D02*
X175921800Y-103390500D01*
X178001800Y-103390500D02*
X180955800Y-103390500D01*
X172976800Y-103350500D02*
X175921800Y-103350500D01*
X178001800Y-103350500D02*
X180946800Y-103350500D01*
X172985800Y-103310500D02*
X175921800Y-103310500D01*
X178001800Y-103310500D02*
X180937800Y-103310500D01*
X172994800Y-103270500D02*
X175921800Y-103270500D01*
X178001800Y-103270500D02*
X180928800Y-103270500D01*
X173004800Y-103230500D02*
X175921800Y-103230500D01*
X178001800Y-103230500D02*
X180918800Y-103230500D01*
X173014800Y-103190500D02*
X175921800Y-103190500D01*
X178001800Y-103190500D02*
X180908800Y-103190500D01*
X173025800Y-103150500D02*
X175921800Y-103150500D01*
X178001800Y-103150500D02*
X180897800Y-103150500D01*
X173036800Y-103110500D02*
X175921800Y-103110500D01*
X178001800Y-103110500D02*
X180886800Y-103110500D01*
X173047800Y-103070500D02*
X175921800Y-103070500D01*
X178001800Y-103070500D02*
X180875800Y-103070500D01*
X173059800Y-103030500D02*
X175921800Y-103030500D01*
X178001800Y-103030500D02*
X180863800Y-103030500D01*
X173072800Y-102990500D02*
X175921800Y-102990500D01*
X178001800Y-102990500D02*
X180850800Y-102990500D01*
X173084800Y-102950500D02*
X175921800Y-102950500D01*
X178001800Y-102950500D02*
X180838800Y-102950500D01*
X173098800Y-102910500D02*
X175921800Y-102910500D01*
X178001800Y-102910500D02*
X180824800Y-102910500D01*
X173111800Y-102870500D02*
X175921800Y-102870500D01*
X178001800Y-102870500D02*
X180811800Y-102870500D01*
X173126800Y-102830500D02*
X175921800Y-102830500D01*
X178001800Y-102830500D02*
X180796800Y-102830500D01*
X173140800Y-102790500D02*
X175921800Y-102790500D01*
X178001800Y-102790500D02*
X180782800Y-102790500D01*
X173156800Y-102750500D02*
X175921800Y-102750500D01*
X178001800Y-102750500D02*
X180766800Y-102750500D01*
X173171800Y-102710500D02*
X175921800Y-102710500D01*
X178001800Y-102710500D02*
X180751800Y-102710500D01*
X173187800Y-102670500D02*
X175921800Y-102670500D01*
X178001800Y-102670500D02*
X180735800Y-102670500D01*
X173204800Y-102630500D02*
X175921800Y-102630500D01*
X178001800Y-102630500D02*
X180718800Y-102630500D01*
X173221800Y-102590500D02*
X175921800Y-102590500D01*
X178001800Y-102590500D02*
X180701800Y-102590500D01*
X173239800Y-102550500D02*
X175921800Y-102550500D01*
X178001800Y-102550500D02*
X180683800Y-102550500D01*
X173257800Y-102510500D02*
X175921800Y-102510500D01*
X178001800Y-102510500D02*
X180665800Y-102510500D01*
X173275800Y-102470500D02*
X175921800Y-102470500D01*
X178001800Y-102470500D02*
X180647800Y-102470500D01*
X173295800Y-102430500D02*
X175921800Y-102430500D01*
X178001800Y-102430500D02*
X180627800Y-102430500D01*
X173314800Y-102390500D02*
X175921800Y-102390500D01*
X178001800Y-102390500D02*
X180608800Y-102390500D01*
X173334800Y-102350500D02*
X175921800Y-102350500D01*
X178001800Y-102350500D02*
X180588800Y-102350500D01*
X173355800Y-102310500D02*
X175921800Y-102310500D01*
X178001800Y-102310500D02*
X180567800Y-102310500D01*
X173377800Y-102270500D02*
X175921800Y-102270500D01*
X178001800Y-102270500D02*
X180545800Y-102270500D01*
X173399800Y-102230500D02*
X175921800Y-102230500D01*
X178001800Y-102230500D02*
X180523800Y-102230500D01*
X173421800Y-102190500D02*
X175921800Y-102190500D01*
X178001800Y-102190500D02*
X180501800Y-102190500D01*
X173444800Y-102150500D02*
X175921800Y-102150500D01*
X178001800Y-102150500D02*
X180478800Y-102150500D01*
X173468800Y-102110500D02*
X175921800Y-102110500D01*
X178001800Y-102110500D02*
X180454800Y-102110500D01*
X173492800Y-102070500D02*
X175921800Y-102070500D01*
X178001800Y-102070500D02*
X180430800Y-102070500D01*
X173517800Y-102030500D02*
X175921800Y-102030500D01*
X178001800Y-102030500D02*
X180405800Y-102030500D01*
X173543800Y-101990500D02*
X175921800Y-101990500D01*
X178001800Y-101990500D02*
X180379800Y-101990500D01*
X173569800Y-101950500D02*
X175921800Y-101950500D01*
X178001800Y-101950500D02*
X180353800Y-101950500D01*
X173596800Y-101910500D02*
X175921800Y-101910500D01*
X178001800Y-101910500D02*
X180326800Y-101910500D01*
X173623800Y-101870500D02*
X175921800Y-101870500D01*
X178001800Y-101870500D02*
X180299800Y-101870500D01*
X173652800Y-101830500D02*
X175921800Y-101830500D01*
X178001800Y-101830500D02*
X180270800Y-101830500D01*
X173681800Y-101790500D02*
X175921800Y-101790500D01*
X178001800Y-101790500D02*
X180241800Y-101790500D01*
X173711800Y-101750500D02*
X175921800Y-101750500D01*
X178001800Y-101750500D02*
X180211800Y-101750500D01*
X173741800Y-101710500D02*
X175921800Y-101710500D01*
X178001800Y-101710500D02*
X180181800Y-101710500D01*
X173772800Y-101670500D02*
X175921800Y-101670500D01*
X178001800Y-101670500D02*
X180150800Y-101670500D01*
X173805800Y-101630500D02*
X175921800Y-101630500D01*
X178001800Y-101630500D02*
X180117800Y-101630500D01*
X173837800Y-101590500D02*
X175921800Y-101590500D01*
X178001800Y-101590500D02*
X180085800Y-101590500D01*
X173871800Y-101550500D02*
X175921800Y-101550500D01*
X178001800Y-101550500D02*
X180051800Y-101550500D01*
X173906800Y-101510500D02*
X175921800Y-101510500D01*
X178001800Y-101510500D02*
X180016800Y-101510500D01*
X173942800Y-101470500D02*
X175921800Y-101470500D01*
X178001800Y-101470500D02*
X179980800Y-101470500D01*
X173978800Y-101430500D02*
X179944800Y-101430500D01*
X174016800Y-101390500D02*
X179906800Y-101390500D01*
X174054800Y-101350500D02*
X179868800Y-101350500D01*
X174094800Y-101310500D02*
X179828800Y-101310500D01*
X174135800Y-101270500D02*
X179787800Y-101270500D01*
X174177800Y-101230500D02*
X179745800Y-101230500D01*
X174220800Y-101190500D02*
X179702800Y-101190500D01*
X174264800Y-101150500D02*
X179658800Y-101150500D01*
X174310800Y-101110500D02*
X179612800Y-101110500D01*
X174357800Y-101070500D02*
X179565800Y-101070500D01*
X174405800Y-101030500D02*
X179517800Y-101030500D01*
X174456800Y-100990500D02*
X179466800Y-100990500D01*
X174507800Y-100950500D02*
X179415800Y-100950500D01*
X174561800Y-100910500D02*
X179361800Y-100910500D01*
X174616800Y-100870500D02*
X179306800Y-100870500D01*
X174674800Y-100830500D02*
X179248800Y-100830500D01*
X174733800Y-100790500D02*
X179189800Y-100790500D01*
X174795800Y-100750500D02*
X179127800Y-100750500D01*
X174859800Y-100710500D02*
X179063800Y-100710500D01*
X174927800Y-100670500D02*
X178995800Y-100670500D01*
X174997800Y-100630500D02*
X178925800Y-100630500D01*
X175071800Y-100590500D02*
X178851800Y-100590500D01*
X175148800Y-100550500D02*
X178774800Y-100550500D01*
X175230800Y-100510500D02*
X178692800Y-100510500D01*
X175316800Y-100470500D02*
X178606800Y-100470500D01*
X175409800Y-100430500D02*
X178513800Y-100430500D01*
X175508800Y-100390500D02*
X178414800Y-100390500D01*
X175615800Y-100350500D02*
X178307800Y-100350500D01*
X175732800Y-100310500D02*
X178190800Y-100310500D01*
X175863800Y-100270500D02*
X178059800Y-100270500D01*
X176013800Y-100230500D02*
X177909800Y-100230500D01*
X176193800Y-100190500D02*
X177729800Y-100190500D01*
X176428800Y-100150500D02*
X177494800Y-100150500D01*
X174646800Y-108641198D02*
X174646800Y-107841198D01*
X174246800Y-108241198D02*
X175046800Y-108241198D01*
X147267600Y-138313936D02*
X147267600Y-138768064D01*
X145797600Y-138313936D02*
X145797600Y-138768064D01*
X146737564Y-131621200D02*
X146283436Y-131621200D01*
X146737564Y-130151200D02*
X146283436Y-130151200D01*
X146610564Y-117841700D02*
X146156436Y-117841700D01*
X146610564Y-116371700D02*
X146156436Y-116371700D01*
X147216800Y-108793036D02*
X147216800Y-109247164D01*
X145746800Y-108793036D02*
X145746800Y-109247164D01*
X148292600Y-129623900D02*
X148292600Y-128693900D01*
X148292600Y-126463900D02*
X148292600Y-127393900D01*
X148292600Y-126463900D02*
X146132600Y-126463900D01*
X148292600Y-129623900D02*
X146832600Y-129623900D01*
X149143500Y-121529000D02*
X149143500Y-120599000D01*
X149143500Y-118369000D02*
X149143500Y-119299000D01*
X149143500Y-118369000D02*
X146983500Y-118369000D01*
X149143500Y-121529000D02*
X147683500Y-121529000D01*
X152707600Y-143605498D02*
X153507600Y-143605498D01*
X153107600Y-144005498D02*
X153107600Y-143205498D01*
X154889600Y-135514800D02*
X155955600Y-135514800D01*
X154654600Y-135554800D02*
X156190600Y-135554800D01*
X154474600Y-135594800D02*
X156370600Y-135594800D01*
X154324600Y-135634800D02*
X156520600Y-135634800D01*
X154193600Y-135674800D02*
X156651600Y-135674800D01*
X154076600Y-135714800D02*
X156768600Y-135714800D01*
X153969600Y-135754800D02*
X156875600Y-135754800D01*
X153870600Y-135794800D02*
X156974600Y-135794800D01*
X153777600Y-135834800D02*
X157067600Y-135834800D01*
X153691600Y-135874800D02*
X157153600Y-135874800D01*
X153609600Y-135914800D02*
X157235600Y-135914800D01*
X153532600Y-135954800D02*
X157312600Y-135954800D01*
X153458600Y-135994800D02*
X157386600Y-135994800D01*
X153388600Y-136034800D02*
X157456600Y-136034800D01*
X153320600Y-136074800D02*
X157524600Y-136074800D01*
X153256600Y-136114800D02*
X157588600Y-136114800D01*
X153194600Y-136154800D02*
X157650600Y-136154800D01*
X153135600Y-136194800D02*
X157709600Y-136194800D01*
X153077600Y-136234800D02*
X157767600Y-136234800D01*
X153022600Y-136274800D02*
X157822600Y-136274800D01*
X152968600Y-136314800D02*
X157876600Y-136314800D01*
X152917600Y-136354800D02*
X157927600Y-136354800D01*
X152866600Y-136394800D02*
X157978600Y-136394800D01*
X152818600Y-136434800D02*
X158026600Y-136434800D01*
X152771600Y-136474800D02*
X158073600Y-136474800D01*
X152725600Y-136514800D02*
X158119600Y-136514800D01*
X152681600Y-136554800D02*
X158163600Y-136554800D01*
X152638600Y-136594800D02*
X158206600Y-136594800D01*
X152596600Y-136634800D02*
X158248600Y-136634800D01*
X152555600Y-136674800D02*
X158289600Y-136674800D01*
X152515600Y-136714800D02*
X158329600Y-136714800D01*
X152477600Y-136754800D02*
X158367600Y-136754800D01*
X152439600Y-136794800D02*
X158405600Y-136794800D01*
X156462600Y-136834800D02*
X158441600Y-136834800D01*
X152403600Y-136834800D02*
X154382600Y-136834800D01*
X156462600Y-136874800D02*
X158477600Y-136874800D01*
X152367600Y-136874800D02*
X154382600Y-136874800D01*
X156462600Y-136914800D02*
X158512600Y-136914800D01*
X152332600Y-136914800D02*
X154382600Y-136914800D01*
X156462600Y-136954800D02*
X158546600Y-136954800D01*
X152298600Y-136954800D02*
X154382600Y-136954800D01*
X156462600Y-136994800D02*
X158578600Y-136994800D01*
X152266600Y-136994800D02*
X154382600Y-136994800D01*
X156462600Y-137034800D02*
X158611600Y-137034800D01*
X152233600Y-137034800D02*
X154382600Y-137034800D01*
X156462600Y-137074800D02*
X158642600Y-137074800D01*
X152202600Y-137074800D02*
X154382600Y-137074800D01*
X156462600Y-137114800D02*
X158672600Y-137114800D01*
X152172600Y-137114800D02*
X154382600Y-137114800D01*
X156462600Y-137154800D02*
X158702600Y-137154800D01*
X152142600Y-137154800D02*
X154382600Y-137154800D01*
X156462600Y-137194800D02*
X158731600Y-137194800D01*
X152113600Y-137194800D02*
X154382600Y-137194800D01*
X156462600Y-137234800D02*
X158760600Y-137234800D01*
X152084600Y-137234800D02*
X154382600Y-137234800D01*
X156462600Y-137274800D02*
X158787600Y-137274800D01*
X152057600Y-137274800D02*
X154382600Y-137274800D01*
X156462600Y-137314800D02*
X158814600Y-137314800D01*
X152030600Y-137314800D02*
X154382600Y-137314800D01*
X156462600Y-137354800D02*
X158840600Y-137354800D01*
X152004600Y-137354800D02*
X154382600Y-137354800D01*
X156462600Y-137394800D02*
X158866600Y-137394800D01*
X151978600Y-137394800D02*
X154382600Y-137394800D01*
X156462600Y-137434800D02*
X158891600Y-137434800D01*
X151953600Y-137434800D02*
X154382600Y-137434800D01*
X156462600Y-137474800D02*
X158915600Y-137474800D01*
X151929600Y-137474800D02*
X154382600Y-137474800D01*
X156462600Y-137514800D02*
X158939600Y-137514800D01*
X151905600Y-137514800D02*
X154382600Y-137514800D01*
X156462600Y-137554800D02*
X158962600Y-137554800D01*
X151882600Y-137554800D02*
X154382600Y-137554800D01*
X156462600Y-137594800D02*
X158984600Y-137594800D01*
X151860600Y-137594800D02*
X154382600Y-137594800D01*
X156462600Y-137634800D02*
X159006600Y-137634800D01*
X151838600Y-137634800D02*
X154382600Y-137634800D01*
X156462600Y-137674800D02*
X159028600Y-137674800D01*
X151816600Y-137674800D02*
X154382600Y-137674800D01*
X156462600Y-137714800D02*
X159049600Y-137714800D01*
X151795600Y-137714800D02*
X154382600Y-137714800D01*
X156462600Y-137754800D02*
X159069600Y-137754800D01*
X151775600Y-137754800D02*
X154382600Y-137754800D01*
X156462600Y-137794800D02*
X159088600Y-137794800D01*
X151756600Y-137794800D02*
X154382600Y-137794800D01*
X156462600Y-137834800D02*
X159108600Y-137834800D01*
X151736600Y-137834800D02*
X154382600Y-137834800D01*
X156462600Y-137874800D02*
X159126600Y-137874800D01*
X151718600Y-137874800D02*
X154382600Y-137874800D01*
X156462600Y-137914800D02*
X159144600Y-137914800D01*
X151700600Y-137914800D02*
X154382600Y-137914800D01*
X156462600Y-137954800D02*
X159162600Y-137954800D01*
X151682600Y-137954800D02*
X154382600Y-137954800D01*
X156462600Y-137994800D02*
X159179600Y-137994800D01*
X151665600Y-137994800D02*
X154382600Y-137994800D01*
X156462600Y-138034800D02*
X159196600Y-138034800D01*
X151648600Y-138034800D02*
X154382600Y-138034800D01*
X156462600Y-138074800D02*
X159212600Y-138074800D01*
X151632600Y-138074800D02*
X154382600Y-138074800D01*
X156462600Y-138114800D02*
X159227600Y-138114800D01*
X151617600Y-138114800D02*
X154382600Y-138114800D01*
X156462600Y-138154800D02*
X159243600Y-138154800D01*
X151601600Y-138154800D02*
X154382600Y-138154800D01*
X156462600Y-138194800D02*
X159257600Y-138194800D01*
X151587600Y-138194800D02*
X154382600Y-138194800D01*
X156462600Y-138234800D02*
X159272600Y-138234800D01*
X151572600Y-138234800D02*
X154382600Y-138234800D01*
X156462600Y-138274800D02*
X159285600Y-138274800D01*
X151559600Y-138274800D02*
X154382600Y-138274800D01*
X156462600Y-138314800D02*
X159299600Y-138314800D01*
X151545600Y-138314800D02*
X154382600Y-138314800D01*
X156462600Y-138354800D02*
X159311600Y-138354800D01*
X151533600Y-138354800D02*
X154382600Y-138354800D01*
X156462600Y-138394800D02*
X159324600Y-138394800D01*
X151520600Y-138394800D02*
X154382600Y-138394800D01*
X156462600Y-138434800D02*
X159336600Y-138434800D01*
X151508600Y-138434800D02*
X154382600Y-138434800D01*
X156462600Y-138474800D02*
X159347600Y-138474800D01*
X151497600Y-138474800D02*
X154382600Y-138474800D01*
X156462600Y-138514800D02*
X159358600Y-138514800D01*
X151486600Y-138514800D02*
X154382600Y-138514800D01*
X156462600Y-138554800D02*
X159369600Y-138554800D01*
X151475600Y-138554800D02*
X154382600Y-138554800D01*
X156462600Y-138594800D02*
X159379600Y-138594800D01*
X151465600Y-138594800D02*
X154382600Y-138594800D01*
X156462600Y-138634800D02*
X159389600Y-138634800D01*
X151455600Y-138634800D02*
X154382600Y-138634800D01*
X156462600Y-138674800D02*
X159398600Y-138674800D01*
X151446600Y-138674800D02*
X154382600Y-138674800D01*
X156462600Y-138714800D02*
X159407600Y-138714800D01*
X151437600Y-138714800D02*
X154382600Y-138714800D01*
X156462600Y-138754800D02*
X159416600Y-138754800D01*
X151428600Y-138754800D02*
X154382600Y-138754800D01*
X156462600Y-138794800D02*
X159424600Y-138794800D01*
X151420600Y-138794800D02*
X154382600Y-138794800D01*
X156462600Y-138834800D02*
X159432600Y-138834800D01*
X151412600Y-138834800D02*
X154382600Y-138834800D01*
X156462600Y-138874800D02*
X159439600Y-138874800D01*
X151405600Y-138874800D02*
X154382600Y-138874800D01*
X151398600Y-138915800D02*
X159446600Y-138915800D01*
X151392600Y-138955800D02*
X159452600Y-138955800D01*
X151385600Y-138995800D02*
X159459600Y-138995800D01*
X151380600Y-139035800D02*
X159464600Y-139035800D01*
X151374600Y-139075800D02*
X159470600Y-139075800D01*
X151370600Y-139115800D02*
X159474600Y-139115800D01*
X151365600Y-139155800D02*
X159479600Y-139155800D01*
X151361600Y-139195800D02*
X159483600Y-139195800D01*
X151357600Y-139235800D02*
X159487600Y-139235800D01*
X151354600Y-139275800D02*
X159490600Y-139275800D01*
X151351600Y-139315800D02*
X159493600Y-139315800D01*
X151348600Y-139355800D02*
X159496600Y-139355800D01*
X151346600Y-139395800D02*
X159498600Y-139395800D01*
X151345600Y-139435800D02*
X159499600Y-139435800D01*
X151343600Y-139475800D02*
X159501600Y-139475800D01*
X151342600Y-139515800D02*
X159502600Y-139515800D01*
X151342600Y-139555800D02*
X159502600Y-139555800D01*
X151342600Y-139595800D02*
X159502600Y-139595800D01*
X159542600Y-139595800D02*
G75*
G03*
X159542600Y-139595800I-4120000J0D01*
G01*
X152631400Y-108266598D02*
X153431400Y-108266598D01*
X153031400Y-108666598D02*
X153031400Y-107866598D01*
X154813400Y-100175900D02*
X155879400Y-100175900D01*
X154578400Y-100215900D02*
X156114400Y-100215900D01*
X154398400Y-100255900D02*
X156294400Y-100255900D01*
X154248400Y-100295900D02*
X156444400Y-100295900D01*
X154117400Y-100335900D02*
X156575400Y-100335900D01*
X154000400Y-100375900D02*
X156692400Y-100375900D01*
X153893400Y-100415900D02*
X156799400Y-100415900D01*
X153794400Y-100455900D02*
X156898400Y-100455900D01*
X153701400Y-100495900D02*
X156991400Y-100495900D01*
X153615400Y-100535900D02*
X157077400Y-100535900D01*
X153533400Y-100575900D02*
X157159400Y-100575900D01*
X153456400Y-100615900D02*
X157236400Y-100615900D01*
X153382400Y-100655900D02*
X157310400Y-100655900D01*
X153312400Y-100695900D02*
X157380400Y-100695900D01*
X153244400Y-100735900D02*
X157448400Y-100735900D01*
X153180400Y-100775900D02*
X157512400Y-100775900D01*
X153118400Y-100815900D02*
X157574400Y-100815900D01*
X153059400Y-100855900D02*
X157633400Y-100855900D01*
X153001400Y-100895900D02*
X157691400Y-100895900D01*
X152946400Y-100935900D02*
X157746400Y-100935900D01*
X152892400Y-100975900D02*
X157800400Y-100975900D01*
X152841400Y-101015900D02*
X157851400Y-101015900D01*
X152790400Y-101055900D02*
X157902400Y-101055900D01*
X152742400Y-101095900D02*
X157950400Y-101095900D01*
X152695400Y-101135900D02*
X157997400Y-101135900D01*
X152649400Y-101175900D02*
X158043400Y-101175900D01*
X152605400Y-101215900D02*
X158087400Y-101215900D01*
X152562400Y-101255900D02*
X158130400Y-101255900D01*
X152520400Y-101295900D02*
X158172400Y-101295900D01*
X152479400Y-101335900D02*
X158213400Y-101335900D01*
X152439400Y-101375900D02*
X158253400Y-101375900D01*
X152401400Y-101415900D02*
X158291400Y-101415900D01*
X152363400Y-101455900D02*
X158329400Y-101455900D01*
X156386400Y-101495900D02*
X158365400Y-101495900D01*
X152327400Y-101495900D02*
X154306400Y-101495900D01*
X156386400Y-101535900D02*
X158401400Y-101535900D01*
X152291400Y-101535900D02*
X154306400Y-101535900D01*
X156386400Y-101575900D02*
X158436400Y-101575900D01*
X152256400Y-101575900D02*
X154306400Y-101575900D01*
X156386400Y-101615900D02*
X158470400Y-101615900D01*
X152222400Y-101615900D02*
X154306400Y-101615900D01*
X156386400Y-101655900D02*
X158502400Y-101655900D01*
X152190400Y-101655900D02*
X154306400Y-101655900D01*
X156386400Y-101695900D02*
X158535400Y-101695900D01*
X152157400Y-101695900D02*
X154306400Y-101695900D01*
X156386400Y-101735900D02*
X158566400Y-101735900D01*
X152126400Y-101735900D02*
X154306400Y-101735900D01*
X156386400Y-101775900D02*
X158596400Y-101775900D01*
X152096400Y-101775900D02*
X154306400Y-101775900D01*
X156386400Y-101815900D02*
X158626400Y-101815900D01*
X152066400Y-101815900D02*
X154306400Y-101815900D01*
X156386400Y-101855900D02*
X158655400Y-101855900D01*
X152037400Y-101855900D02*
X154306400Y-101855900D01*
X156386400Y-101895900D02*
X158684400Y-101895900D01*
X152008400Y-101895900D02*
X154306400Y-101895900D01*
X156386400Y-101935900D02*
X158711400Y-101935900D01*
X151981400Y-101935900D02*
X154306400Y-101935900D01*
X156386400Y-101975900D02*
X158738400Y-101975900D01*
X151954400Y-101975900D02*
X154306400Y-101975900D01*
X156386400Y-102015900D02*
X158764400Y-102015900D01*
X151928400Y-102015900D02*
X154306400Y-102015900D01*
X156386400Y-102055900D02*
X158790400Y-102055900D01*
X151902400Y-102055900D02*
X154306400Y-102055900D01*
X156386400Y-102095900D02*
X158815400Y-102095900D01*
X151877400Y-102095900D02*
X154306400Y-102095900D01*
X156386400Y-102135900D02*
X158839400Y-102135900D01*
X151853400Y-102135900D02*
X154306400Y-102135900D01*
X156386400Y-102175900D02*
X158863400Y-102175900D01*
X151829400Y-102175900D02*
X154306400Y-102175900D01*
X156386400Y-102215900D02*
X158886400Y-102215900D01*
X151806400Y-102215900D02*
X154306400Y-102215900D01*
X156386400Y-102255900D02*
X158908400Y-102255900D01*
X151784400Y-102255900D02*
X154306400Y-102255900D01*
X156386400Y-102295900D02*
X158930400Y-102295900D01*
X151762400Y-102295900D02*
X154306400Y-102295900D01*
X156386400Y-102335900D02*
X158952400Y-102335900D01*
X151740400Y-102335900D02*
X154306400Y-102335900D01*
X156386400Y-102375900D02*
X158973400Y-102375900D01*
X151719400Y-102375900D02*
X154306400Y-102375900D01*
X156386400Y-102415900D02*
X158993400Y-102415900D01*
X151699400Y-102415900D02*
X154306400Y-102415900D01*
X156386400Y-102455900D02*
X159012400Y-102455900D01*
X151680400Y-102455900D02*
X154306400Y-102455900D01*
X156386400Y-102495900D02*
X159032400Y-102495900D01*
X151660400Y-102495900D02*
X154306400Y-102495900D01*
X156386400Y-102535900D02*
X159050400Y-102535900D01*
X151642400Y-102535900D02*
X154306400Y-102535900D01*
X156386400Y-102575900D02*
X159068400Y-102575900D01*
X151624400Y-102575900D02*
X154306400Y-102575900D01*
X156386400Y-102615900D02*
X159086400Y-102615900D01*
X151606400Y-102615900D02*
X154306400Y-102615900D01*
X156386400Y-102655900D02*
X159103400Y-102655900D01*
X151589400Y-102655900D02*
X154306400Y-102655900D01*
X156386400Y-102695900D02*
X159120400Y-102695900D01*
X151572400Y-102695900D02*
X154306400Y-102695900D01*
X156386400Y-102735900D02*
X159136400Y-102735900D01*
X151556400Y-102735900D02*
X154306400Y-102735900D01*
X156386400Y-102775900D02*
X159151400Y-102775900D01*
X151541400Y-102775900D02*
X154306400Y-102775900D01*
X156386400Y-102815900D02*
X159167400Y-102815900D01*
X151525400Y-102815900D02*
X154306400Y-102815900D01*
X156386400Y-102855900D02*
X159181400Y-102855900D01*
X151511400Y-102855900D02*
X154306400Y-102855900D01*
X156386400Y-102895900D02*
X159196400Y-102895900D01*
X151496400Y-102895900D02*
X154306400Y-102895900D01*
X156386400Y-102935900D02*
X159209400Y-102935900D01*
X151483400Y-102935900D02*
X154306400Y-102935900D01*
X156386400Y-102975900D02*
X159223400Y-102975900D01*
X151469400Y-102975900D02*
X154306400Y-102975900D01*
X156386400Y-103015900D02*
X159235400Y-103015900D01*
X151457400Y-103015900D02*
X154306400Y-103015900D01*
X156386400Y-103055900D02*
X159248400Y-103055900D01*
X151444400Y-103055900D02*
X154306400Y-103055900D01*
X156386400Y-103095900D02*
X159260400Y-103095900D01*
X151432400Y-103095900D02*
X154306400Y-103095900D01*
X156386400Y-103135900D02*
X159271400Y-103135900D01*
X151421400Y-103135900D02*
X154306400Y-103135900D01*
X156386400Y-103175900D02*
X159282400Y-103175900D01*
X151410400Y-103175900D02*
X154306400Y-103175900D01*
X156386400Y-103215900D02*
X159293400Y-103215900D01*
X151399400Y-103215900D02*
X154306400Y-103215900D01*
X156386400Y-103255900D02*
X159303400Y-103255900D01*
X151389400Y-103255900D02*
X154306400Y-103255900D01*
X156386400Y-103295900D02*
X159313400Y-103295900D01*
X151379400Y-103295900D02*
X154306400Y-103295900D01*
X156386400Y-103335900D02*
X159322400Y-103335900D01*
X151370400Y-103335900D02*
X154306400Y-103335900D01*
X156386400Y-103375900D02*
X159331400Y-103375900D01*
X151361400Y-103375900D02*
X154306400Y-103375900D01*
X156386400Y-103415900D02*
X159340400Y-103415900D01*
X151352400Y-103415900D02*
X154306400Y-103415900D01*
X156386400Y-103455900D02*
X159348400Y-103455900D01*
X151344400Y-103455900D02*
X154306400Y-103455900D01*
X156386400Y-103495900D02*
X159356400Y-103495900D01*
X151336400Y-103495900D02*
X154306400Y-103495900D01*
X156386400Y-103535900D02*
X159363400Y-103535900D01*
X151329400Y-103535900D02*
X154306400Y-103535900D01*
X151322400Y-103576900D02*
X159370400Y-103576900D01*
X151316400Y-103616900D02*
X159376400Y-103616900D01*
X151309400Y-103656900D02*
X159383400Y-103656900D01*
X151304400Y-103696900D02*
X159388400Y-103696900D01*
X151298400Y-103736900D02*
X159394400Y-103736900D01*
X151294400Y-103776900D02*
X159398400Y-103776900D01*
X151289400Y-103816900D02*
X159403400Y-103816900D01*
X151285400Y-103856900D02*
X159407400Y-103856900D01*
X151281400Y-103896900D02*
X159411400Y-103896900D01*
X151278400Y-103936900D02*
X159414400Y-103936900D01*
X151275400Y-103976900D02*
X159417400Y-103976900D01*
X151272400Y-104016900D02*
X159420400Y-104016900D01*
X151270400Y-104056900D02*
X159422400Y-104056900D01*
X151269400Y-104096900D02*
X159423400Y-104096900D01*
X151267400Y-104136900D02*
X159425400Y-104136900D01*
X151266400Y-104176900D02*
X159426400Y-104176900D01*
X151266400Y-104216900D02*
X159426400Y-104216900D01*
X151266400Y-104256900D02*
X159426400Y-104256900D01*
X159466400Y-104256900D02*
G75*
G03*
X159466400Y-104256900I-4120000J0D01*
G01*
X144486300Y-136345436D02*
X144486300Y-136799564D01*
X143016300Y-136345436D02*
X143016300Y-136799564D01*
X165395900Y-121669300D02*
G75*
G03*
X165395900Y-121669300I-2620000J0D01*
G01*
X163815900Y-121669300D02*
X165355900Y-121669300D01*
X160195900Y-121669300D02*
X161735900Y-121669300D01*
X163815900Y-121629300D02*
X165355900Y-121629300D01*
X160195900Y-121629300D02*
X161735900Y-121629300D01*
X160196900Y-121589300D02*
X161735900Y-121589300D01*
X163815900Y-121589300D02*
X165354900Y-121589300D01*
X160197900Y-121549300D02*
X161735900Y-121549300D01*
X163815900Y-121549300D02*
X165353900Y-121549300D01*
X160199900Y-121509300D02*
X161735900Y-121509300D01*
X163815900Y-121509300D02*
X165351900Y-121509300D01*
X160202900Y-121469300D02*
X161735900Y-121469300D01*
X163815900Y-121469300D02*
X165348900Y-121469300D01*
X160206900Y-121429300D02*
X161735900Y-121429300D01*
X163815900Y-121429300D02*
X165344900Y-121429300D01*
X160210900Y-121389300D02*
X161735900Y-121389300D01*
X163815900Y-121389300D02*
X165340900Y-121389300D01*
X160214900Y-121349300D02*
X161735900Y-121349300D01*
X163815900Y-121349300D02*
X165336900Y-121349300D01*
X160219900Y-121309300D02*
X161735900Y-121309300D01*
X163815900Y-121309300D02*
X165331900Y-121309300D01*
X160225900Y-121269300D02*
X161735900Y-121269300D01*
X163815900Y-121269300D02*
X165325900Y-121269300D01*
X160232900Y-121229300D02*
X161735900Y-121229300D01*
X163815900Y-121229300D02*
X165318900Y-121229300D01*
X160239900Y-121189300D02*
X161735900Y-121189300D01*
X163815900Y-121189300D02*
X165311900Y-121189300D01*
X160247900Y-121149300D02*
X161735900Y-121149300D01*
X163815900Y-121149300D02*
X165303900Y-121149300D01*
X160255900Y-121109300D02*
X161735900Y-121109300D01*
X163815900Y-121109300D02*
X165295900Y-121109300D01*
X160264900Y-121069300D02*
X161735900Y-121069300D01*
X163815900Y-121069300D02*
X165286900Y-121069300D01*
X160274900Y-121029300D02*
X161735900Y-121029300D01*
X163815900Y-121029300D02*
X165276900Y-121029300D01*
X160284900Y-120989300D02*
X161735900Y-120989300D01*
X163815900Y-120989300D02*
X165266900Y-120989300D01*
X160295900Y-120948300D02*
X161735900Y-120948300D01*
X163815900Y-120948300D02*
X165255900Y-120948300D01*
X160307900Y-120908300D02*
X161735900Y-120908300D01*
X163815900Y-120908300D02*
X165243900Y-120908300D01*
X160320900Y-120868300D02*
X161735900Y-120868300D01*
X163815900Y-120868300D02*
X165230900Y-120868300D01*
X160333900Y-120828300D02*
X161735900Y-120828300D01*
X163815900Y-120828300D02*
X165217900Y-120828300D01*
X160347900Y-120788300D02*
X161735900Y-120788300D01*
X163815900Y-120788300D02*
X165203900Y-120788300D01*
X160361900Y-120748300D02*
X161735900Y-120748300D01*
X163815900Y-120748300D02*
X165189900Y-120748300D01*
X160377900Y-120708300D02*
X161735900Y-120708300D01*
X163815900Y-120708300D02*
X165173900Y-120708300D01*
X160393900Y-120668300D02*
X161735900Y-120668300D01*
X163815900Y-120668300D02*
X165157900Y-120668300D01*
X160410900Y-120628300D02*
X161735900Y-120628300D01*
X163815900Y-120628300D02*
X165140900Y-120628300D01*
X160427900Y-120588300D02*
X161735900Y-120588300D01*
X163815900Y-120588300D02*
X165123900Y-120588300D01*
X160446900Y-120548300D02*
X161735900Y-120548300D01*
X163815900Y-120548300D02*
X165104900Y-120548300D01*
X160465900Y-120508300D02*
X161735900Y-120508300D01*
X163815900Y-120508300D02*
X165085900Y-120508300D01*
X160485900Y-120468300D02*
X161735900Y-120468300D01*
X163815900Y-120468300D02*
X165065900Y-120468300D01*
X160507900Y-120428300D02*
X161735900Y-120428300D01*
X163815900Y-120428300D02*
X165043900Y-120428300D01*
X160528900Y-120388300D02*
X161735900Y-120388300D01*
X163815900Y-120388300D02*
X165022900Y-120388300D01*
X160551900Y-120348300D02*
X161735900Y-120348300D01*
X163815900Y-120348300D02*
X164999900Y-120348300D01*
X160575900Y-120308300D02*
X161735900Y-120308300D01*
X163815900Y-120308300D02*
X164975900Y-120308300D01*
X160600900Y-120268300D02*
X161735900Y-120268300D01*
X163815900Y-120268300D02*
X164950900Y-120268300D01*
X160626900Y-120228300D02*
X161735900Y-120228300D01*
X163815900Y-120228300D02*
X164924900Y-120228300D01*
X160653900Y-120188300D02*
X161735900Y-120188300D01*
X163815900Y-120188300D02*
X164897900Y-120188300D01*
X160680900Y-120148300D02*
X161735900Y-120148300D01*
X163815900Y-120148300D02*
X164870900Y-120148300D01*
X160710900Y-120108300D02*
X161735900Y-120108300D01*
X163815900Y-120108300D02*
X164840900Y-120108300D01*
X160740900Y-120068300D02*
X161735900Y-120068300D01*
X163815900Y-120068300D02*
X164810900Y-120068300D01*
X160771900Y-120028300D02*
X161735900Y-120028300D01*
X163815900Y-120028300D02*
X164779900Y-120028300D01*
X160804900Y-119988300D02*
X161735900Y-119988300D01*
X163815900Y-119988300D02*
X164746900Y-119988300D01*
X160838900Y-119948300D02*
X161735900Y-119948300D01*
X163815900Y-119948300D02*
X164712900Y-119948300D01*
X160874900Y-119908300D02*
X161735900Y-119908300D01*
X163815900Y-119908300D02*
X164676900Y-119908300D01*
X160911900Y-119868300D02*
X161735900Y-119868300D01*
X163815900Y-119868300D02*
X164639900Y-119868300D01*
X160949900Y-119828300D02*
X161735900Y-119828300D01*
X163815900Y-119828300D02*
X164601900Y-119828300D01*
X160990900Y-119788300D02*
X161735900Y-119788300D01*
X163815900Y-119788300D02*
X164560900Y-119788300D01*
X161032900Y-119748300D02*
X161735900Y-119748300D01*
X163815900Y-119748300D02*
X164518900Y-119748300D01*
X161076900Y-119708300D02*
X161735900Y-119708300D01*
X163815900Y-119708300D02*
X164474900Y-119708300D01*
X161122900Y-119668300D02*
X161735900Y-119668300D01*
X163815900Y-119668300D02*
X164428900Y-119668300D01*
X161170900Y-119628300D02*
X164380900Y-119628300D01*
X161221900Y-119588300D02*
X164329900Y-119588300D01*
X161275900Y-119548300D02*
X164275900Y-119548300D01*
X161332900Y-119508300D02*
X164218900Y-119508300D01*
X161392900Y-119468300D02*
X164158900Y-119468300D01*
X161456900Y-119428300D02*
X164094900Y-119428300D01*
X161524900Y-119388300D02*
X164026900Y-119388300D01*
X161597900Y-119348300D02*
X163953900Y-119348300D01*
X161677900Y-119308300D02*
X163873900Y-119308300D01*
X161764900Y-119268300D02*
X163786900Y-119268300D01*
X161860900Y-119228300D02*
X163690900Y-119228300D01*
X161970900Y-119188300D02*
X163580900Y-119188300D01*
X162098900Y-119148300D02*
X163452900Y-119148300D01*
X162257900Y-119108300D02*
X163293900Y-119108300D01*
X162491900Y-119068300D02*
X163059900Y-119068300D01*
X161300900Y-124474075D02*
X161300900Y-123974075D01*
X161050900Y-124224075D02*
X161550900Y-124224075D01*
X165854600Y-110550800D02*
X167314600Y-110550800D01*
X165854600Y-113710800D02*
X168014600Y-113710800D01*
X165854600Y-113710800D02*
X165854600Y-112780800D01*
X165854600Y-110550800D02*
X165854600Y-111480800D01*
X181071764Y-123366200D02*
X180617636Y-123366200D01*
X181071764Y-121896200D02*
X180617636Y-121896200D01*
X181633800Y-115368564D02*
X181633800Y-114914436D01*
X180163800Y-115368564D02*
X180163800Y-114914436D01*
X168987800Y-135367536D02*
X168987800Y-135821664D01*
X170457800Y-135367536D02*
X170457800Y-135821664D01*
X166879600Y-108119936D02*
X166879600Y-108574064D01*
X168349600Y-108119936D02*
X168349600Y-108574064D01*
X154354200Y-127973064D02*
X154354200Y-127518936D01*
X152884200Y-127973064D02*
X152884200Y-127518936D01*
X142317800Y-121696236D02*
X142317800Y-122150364D01*
X143787800Y-121696236D02*
X143787800Y-122150364D01*
X148515400Y-110748836D02*
X148515400Y-111202964D01*
X149985400Y-110748836D02*
X149985400Y-111202964D01*
X156656264Y-130303600D02*
X156202136Y-130303600D01*
X156656264Y-131773600D02*
X156202136Y-131773600D01*
X140019100Y-121708936D02*
X140019100Y-122163064D01*
X141489100Y-121708936D02*
X141489100Y-122163064D01*
X142787700Y-113034836D02*
X142787700Y-113488964D01*
X144257700Y-113034836D02*
X144257700Y-113488964D01*
X168895752Y-114301600D02*
X168373248Y-114301600D01*
X168895752Y-115771600D02*
X168373248Y-115771600D01*
X141104800Y-137121900D02*
G75*
G03*
X141104800Y-137121900I-4120000J0D01*
G01*
X136984800Y-133041900D02*
X136984800Y-141201900D01*
X137024800Y-133041900D02*
X137024800Y-141201900D01*
X137064800Y-133041900D02*
X137064800Y-141201900D01*
X137104800Y-133042900D02*
X137104800Y-141200900D01*
X137144800Y-133044900D02*
X137144800Y-141198900D01*
X137184800Y-133045900D02*
X137184800Y-141197900D01*
X137224800Y-133047900D02*
X137224800Y-141195900D01*
X137264800Y-133050900D02*
X137264800Y-141192900D01*
X137304800Y-133053900D02*
X137304800Y-141189900D01*
X137344800Y-133056900D02*
X137344800Y-141186900D01*
X137384800Y-133060900D02*
X137384800Y-141182900D01*
X137424800Y-133064900D02*
X137424800Y-141178900D01*
X137464800Y-133069900D02*
X137464800Y-141173900D01*
X137504800Y-133073900D02*
X137504800Y-141169900D01*
X137544800Y-133079900D02*
X137544800Y-141163900D01*
X137584800Y-133084900D02*
X137584800Y-141158900D01*
X137624800Y-133091900D02*
X137624800Y-141151900D01*
X137664800Y-133097900D02*
X137664800Y-141145900D01*
X137705800Y-133104900D02*
X137705800Y-136081900D01*
X137705800Y-138161900D02*
X137705800Y-141138900D01*
X137745800Y-133111900D02*
X137745800Y-136081900D01*
X137745800Y-138161900D02*
X137745800Y-141131900D01*
X137785800Y-133119900D02*
X137785800Y-136081900D01*
X137785800Y-138161900D02*
X137785800Y-141123900D01*
X137825800Y-133127900D02*
X137825800Y-136081900D01*
X137825800Y-138161900D02*
X137825800Y-141115900D01*
X137865800Y-133136900D02*
X137865800Y-136081900D01*
X137865800Y-138161900D02*
X137865800Y-141106900D01*
X137905800Y-133145900D02*
X137905800Y-136081900D01*
X137905800Y-138161900D02*
X137905800Y-141097900D01*
X137945800Y-133154900D02*
X137945800Y-136081900D01*
X137945800Y-138161900D02*
X137945800Y-141088900D01*
X137985800Y-133164900D02*
X137985800Y-136081900D01*
X137985800Y-138161900D02*
X137985800Y-141078900D01*
X138025800Y-133174900D02*
X138025800Y-136081900D01*
X138025800Y-138161900D02*
X138025800Y-141068900D01*
X138065800Y-133185900D02*
X138065800Y-136081900D01*
X138065800Y-138161900D02*
X138065800Y-141057900D01*
X138105800Y-133196900D02*
X138105800Y-136081900D01*
X138105800Y-138161900D02*
X138105800Y-141046900D01*
X138145800Y-133207900D02*
X138145800Y-136081900D01*
X138145800Y-138161900D02*
X138145800Y-141035900D01*
X138185800Y-133219900D02*
X138185800Y-136081900D01*
X138185800Y-138161900D02*
X138185800Y-141023900D01*
X138225800Y-133232900D02*
X138225800Y-136081900D01*
X138225800Y-138161900D02*
X138225800Y-141010900D01*
X138265800Y-133244900D02*
X138265800Y-136081900D01*
X138265800Y-138161900D02*
X138265800Y-140998900D01*
X138305800Y-133258900D02*
X138305800Y-136081900D01*
X138305800Y-138161900D02*
X138305800Y-140984900D01*
X138345800Y-133271900D02*
X138345800Y-136081900D01*
X138345800Y-138161900D02*
X138345800Y-140971900D01*
X138385800Y-133286900D02*
X138385800Y-136081900D01*
X138385800Y-138161900D02*
X138385800Y-140956900D01*
X138425800Y-133300900D02*
X138425800Y-136081900D01*
X138425800Y-138161900D02*
X138425800Y-140942900D01*
X138465800Y-133316900D02*
X138465800Y-136081900D01*
X138465800Y-138161900D02*
X138465800Y-140926900D01*
X138505800Y-133331900D02*
X138505800Y-136081900D01*
X138505800Y-138161900D02*
X138505800Y-140911900D01*
X138545800Y-133347900D02*
X138545800Y-136081900D01*
X138545800Y-138161900D02*
X138545800Y-140895900D01*
X138585800Y-133364900D02*
X138585800Y-136081900D01*
X138585800Y-138161900D02*
X138585800Y-140878900D01*
X138625800Y-133381900D02*
X138625800Y-136081900D01*
X138625800Y-138161900D02*
X138625800Y-140861900D01*
X138665800Y-133399900D02*
X138665800Y-136081900D01*
X138665800Y-138161900D02*
X138665800Y-140843900D01*
X138705800Y-133417900D02*
X138705800Y-136081900D01*
X138705800Y-138161900D02*
X138705800Y-140825900D01*
X138745800Y-133435900D02*
X138745800Y-136081900D01*
X138745800Y-138161900D02*
X138745800Y-140807900D01*
X138785800Y-133455900D02*
X138785800Y-136081900D01*
X138785800Y-138161900D02*
X138785800Y-140787900D01*
X138825800Y-133474900D02*
X138825800Y-136081900D01*
X138825800Y-138161900D02*
X138825800Y-140768900D01*
X138865800Y-133494900D02*
X138865800Y-136081900D01*
X138865800Y-138161900D02*
X138865800Y-140748900D01*
X138905800Y-133515900D02*
X138905800Y-136081900D01*
X138905800Y-138161900D02*
X138905800Y-140727900D01*
X138945800Y-133537900D02*
X138945800Y-136081900D01*
X138945800Y-138161900D02*
X138945800Y-140705900D01*
X138985800Y-133559900D02*
X138985800Y-136081900D01*
X138985800Y-138161900D02*
X138985800Y-140683900D01*
X139025800Y-133581900D02*
X139025800Y-136081900D01*
X139025800Y-138161900D02*
X139025800Y-140661900D01*
X139065800Y-133604900D02*
X139065800Y-136081900D01*
X139065800Y-138161900D02*
X139065800Y-140638900D01*
X139105800Y-133628900D02*
X139105800Y-136081900D01*
X139105800Y-138161900D02*
X139105800Y-140614900D01*
X139145800Y-133652900D02*
X139145800Y-136081900D01*
X139145800Y-138161900D02*
X139145800Y-140590900D01*
X139185800Y-133677900D02*
X139185800Y-136081900D01*
X139185800Y-138161900D02*
X139185800Y-140565900D01*
X139225800Y-133703900D02*
X139225800Y-136081900D01*
X139225800Y-138161900D02*
X139225800Y-140539900D01*
X139265800Y-133729900D02*
X139265800Y-136081900D01*
X139265800Y-138161900D02*
X139265800Y-140513900D01*
X139305800Y-133756900D02*
X139305800Y-136081900D01*
X139305800Y-138161900D02*
X139305800Y-140486900D01*
X139345800Y-133783900D02*
X139345800Y-136081900D01*
X139345800Y-138161900D02*
X139345800Y-140459900D01*
X139385800Y-133812900D02*
X139385800Y-136081900D01*
X139385800Y-138161900D02*
X139385800Y-140430900D01*
X139425800Y-133841900D02*
X139425800Y-136081900D01*
X139425800Y-138161900D02*
X139425800Y-140401900D01*
X139465800Y-133871900D02*
X139465800Y-136081900D01*
X139465800Y-138161900D02*
X139465800Y-140371900D01*
X139505800Y-133901900D02*
X139505800Y-136081900D01*
X139505800Y-138161900D02*
X139505800Y-140341900D01*
X139545800Y-133932900D02*
X139545800Y-136081900D01*
X139545800Y-138161900D02*
X139545800Y-140310900D01*
X139585800Y-133965900D02*
X139585800Y-136081900D01*
X139585800Y-138161900D02*
X139585800Y-140277900D01*
X139625800Y-133997900D02*
X139625800Y-136081900D01*
X139625800Y-138161900D02*
X139625800Y-140245900D01*
X139665800Y-134031900D02*
X139665800Y-136081900D01*
X139665800Y-138161900D02*
X139665800Y-140211900D01*
X139705800Y-134066900D02*
X139705800Y-136081900D01*
X139705800Y-138161900D02*
X139705800Y-140176900D01*
X139745800Y-134102900D02*
X139745800Y-136081900D01*
X139745800Y-138161900D02*
X139745800Y-140140900D01*
X139785800Y-134138900D02*
X139785800Y-140104900D01*
X139825800Y-134176900D02*
X139825800Y-140066900D01*
X139865800Y-134214900D02*
X139865800Y-140028900D01*
X139905800Y-134254900D02*
X139905800Y-139988900D01*
X139945800Y-134295900D02*
X139945800Y-139947900D01*
X139985800Y-134337900D02*
X139985800Y-139905900D01*
X140025800Y-134380900D02*
X140025800Y-139862900D01*
X140065800Y-134424900D02*
X140065800Y-139818900D01*
X140105800Y-134470900D02*
X140105800Y-139772900D01*
X140145800Y-134517900D02*
X140145800Y-139725900D01*
X140185800Y-134565900D02*
X140185800Y-139677900D01*
X140225800Y-134616900D02*
X140225800Y-139626900D01*
X140265800Y-134667900D02*
X140265800Y-139575900D01*
X140305800Y-134721900D02*
X140305800Y-139521900D01*
X140345800Y-134776900D02*
X140345800Y-139466900D01*
X140385800Y-134834900D02*
X140385800Y-139408900D01*
X140425800Y-134893900D02*
X140425800Y-139349900D01*
X140465800Y-134955900D02*
X140465800Y-139287900D01*
X140505800Y-135019900D02*
X140505800Y-139223900D01*
X140545800Y-135087900D02*
X140545800Y-139155900D01*
X140585800Y-135157900D02*
X140585800Y-139085900D01*
X140625800Y-135231900D02*
X140625800Y-139011900D01*
X140665800Y-135308900D02*
X140665800Y-138934900D01*
X140705800Y-135390900D02*
X140705800Y-138852900D01*
X140745800Y-135476900D02*
X140745800Y-138766900D01*
X140785800Y-135569900D02*
X140785800Y-138673900D01*
X140825800Y-135668900D02*
X140825800Y-138574900D01*
X140865800Y-135775900D02*
X140865800Y-138467900D01*
X140905800Y-135892900D02*
X140905800Y-138350900D01*
X140945800Y-136023900D02*
X140945800Y-138219900D01*
X140985800Y-136173900D02*
X140985800Y-138069900D01*
X141025800Y-136353900D02*
X141025800Y-137889900D01*
X141065800Y-136588900D02*
X141065800Y-137654900D01*
X132575102Y-134806900D02*
X133375102Y-134806900D01*
X132975102Y-134406900D02*
X132975102Y-135206900D01*
X144292500Y-105981500D02*
G75*
G03*
X144292500Y-105981500I-4120000J0D01*
G01*
X140172500Y-110061500D02*
X140172500Y-101901500D01*
X140132500Y-110061500D02*
X140132500Y-101901500D01*
X140092500Y-110061500D02*
X140092500Y-101901500D01*
X140052500Y-110060500D02*
X140052500Y-101902500D01*
X140012500Y-110058500D02*
X140012500Y-101904500D01*
X139972500Y-110057500D02*
X139972500Y-101905500D01*
X139932500Y-110055500D02*
X139932500Y-101907500D01*
X139892500Y-110052500D02*
X139892500Y-101910500D01*
X139852500Y-110049500D02*
X139852500Y-101913500D01*
X139812500Y-110046500D02*
X139812500Y-101916500D01*
X139772500Y-110042500D02*
X139772500Y-101920500D01*
X139732500Y-110038500D02*
X139732500Y-101924500D01*
X139692500Y-110033500D02*
X139692500Y-101929500D01*
X139652500Y-110029500D02*
X139652500Y-101933500D01*
X139612500Y-110023500D02*
X139612500Y-101939500D01*
X139572500Y-110018500D02*
X139572500Y-101944500D01*
X139532500Y-110011500D02*
X139532500Y-101951500D01*
X139492500Y-110005500D02*
X139492500Y-101957500D01*
X139451500Y-109998500D02*
X139451500Y-107021500D01*
X139451500Y-104941500D02*
X139451500Y-101964500D01*
X139411500Y-109991500D02*
X139411500Y-107021500D01*
X139411500Y-104941500D02*
X139411500Y-101971500D01*
X139371500Y-109983500D02*
X139371500Y-107021500D01*
X139371500Y-104941500D02*
X139371500Y-101979500D01*
X139331500Y-109975500D02*
X139331500Y-107021500D01*
X139331500Y-104941500D02*
X139331500Y-101987500D01*
X139291500Y-109966500D02*
X139291500Y-107021500D01*
X139291500Y-104941500D02*
X139291500Y-101996500D01*
X139251500Y-109957500D02*
X139251500Y-107021500D01*
X139251500Y-104941500D02*
X139251500Y-102005500D01*
X139211500Y-109948500D02*
X139211500Y-107021500D01*
X139211500Y-104941500D02*
X139211500Y-102014500D01*
X139171500Y-109938500D02*
X139171500Y-107021500D01*
X139171500Y-104941500D02*
X139171500Y-102024500D01*
X139131500Y-109928500D02*
X139131500Y-107021500D01*
X139131500Y-104941500D02*
X139131500Y-102034500D01*
X139091500Y-109917500D02*
X139091500Y-107021500D01*
X139091500Y-104941500D02*
X139091500Y-102045500D01*
X139051500Y-109906500D02*
X139051500Y-107021500D01*
X139051500Y-104941500D02*
X139051500Y-102056500D01*
X139011500Y-109895500D02*
X139011500Y-107021500D01*
X139011500Y-104941500D02*
X139011500Y-102067500D01*
X138971500Y-109883500D02*
X138971500Y-107021500D01*
X138971500Y-104941500D02*
X138971500Y-102079500D01*
X138931500Y-109870500D02*
X138931500Y-107021500D01*
X138931500Y-104941500D02*
X138931500Y-102092500D01*
X138891500Y-109858500D02*
X138891500Y-107021500D01*
X138891500Y-104941500D02*
X138891500Y-102104500D01*
X138851500Y-109844500D02*
X138851500Y-107021500D01*
X138851500Y-104941500D02*
X138851500Y-102118500D01*
X138811500Y-109831500D02*
X138811500Y-107021500D01*
X138811500Y-104941500D02*
X138811500Y-102131500D01*
X138771500Y-109816500D02*
X138771500Y-107021500D01*
X138771500Y-104941500D02*
X138771500Y-102146500D01*
X138731500Y-109802500D02*
X138731500Y-107021500D01*
X138731500Y-104941500D02*
X138731500Y-102160500D01*
X138691500Y-109786500D02*
X138691500Y-107021500D01*
X138691500Y-104941500D02*
X138691500Y-102176500D01*
X138651500Y-109771500D02*
X138651500Y-107021500D01*
X138651500Y-104941500D02*
X138651500Y-102191500D01*
X138611500Y-109755500D02*
X138611500Y-107021500D01*
X138611500Y-104941500D02*
X138611500Y-102207500D01*
X138571500Y-109738500D02*
X138571500Y-107021500D01*
X138571500Y-104941500D02*
X138571500Y-102224500D01*
X138531500Y-109721500D02*
X138531500Y-107021500D01*
X138531500Y-104941500D02*
X138531500Y-102241500D01*
X138491500Y-109703500D02*
X138491500Y-107021500D01*
X138491500Y-104941500D02*
X138491500Y-102259500D01*
X138451500Y-109685500D02*
X138451500Y-107021500D01*
X138451500Y-104941500D02*
X138451500Y-102277500D01*
X138411500Y-109667500D02*
X138411500Y-107021500D01*
X138411500Y-104941500D02*
X138411500Y-102295500D01*
X138371500Y-109647500D02*
X138371500Y-107021500D01*
X138371500Y-104941500D02*
X138371500Y-102315500D01*
X138331500Y-109628500D02*
X138331500Y-107021500D01*
X138331500Y-104941500D02*
X138331500Y-102334500D01*
X138291500Y-109608500D02*
X138291500Y-107021500D01*
X138291500Y-104941500D02*
X138291500Y-102354500D01*
X138251500Y-109587500D02*
X138251500Y-107021500D01*
X138251500Y-104941500D02*
X138251500Y-102375500D01*
X138211500Y-109565500D02*
X138211500Y-107021500D01*
X138211500Y-104941500D02*
X138211500Y-102397500D01*
X138171500Y-109543500D02*
X138171500Y-107021500D01*
X138171500Y-104941500D02*
X138171500Y-102419500D01*
X138131500Y-109521500D02*
X138131500Y-107021500D01*
X138131500Y-104941500D02*
X138131500Y-102441500D01*
X138091500Y-109498500D02*
X138091500Y-107021500D01*
X138091500Y-104941500D02*
X138091500Y-102464500D01*
X138051500Y-109474500D02*
X138051500Y-107021500D01*
X138051500Y-104941500D02*
X138051500Y-102488500D01*
X138011500Y-109450500D02*
X138011500Y-107021500D01*
X138011500Y-104941500D02*
X138011500Y-102512500D01*
X137971500Y-109425500D02*
X137971500Y-107021500D01*
X137971500Y-104941500D02*
X137971500Y-102537500D01*
X137931500Y-109399500D02*
X137931500Y-107021500D01*
X137931500Y-104941500D02*
X137931500Y-102563500D01*
X137891500Y-109373500D02*
X137891500Y-107021500D01*
X137891500Y-104941500D02*
X137891500Y-102589500D01*
X137851500Y-109346500D02*
X137851500Y-107021500D01*
X137851500Y-104941500D02*
X137851500Y-102616500D01*
X137811500Y-109319500D02*
X137811500Y-107021500D01*
X137811500Y-104941500D02*
X137811500Y-102643500D01*
X137771500Y-109290500D02*
X137771500Y-107021500D01*
X137771500Y-104941500D02*
X137771500Y-102672500D01*
X137731500Y-109261500D02*
X137731500Y-107021500D01*
X137731500Y-104941500D02*
X137731500Y-102701500D01*
X137691500Y-109231500D02*
X137691500Y-107021500D01*
X137691500Y-104941500D02*
X137691500Y-102731500D01*
X137651500Y-109201500D02*
X137651500Y-107021500D01*
X137651500Y-104941500D02*
X137651500Y-102761500D01*
X137611500Y-109170500D02*
X137611500Y-107021500D01*
X137611500Y-104941500D02*
X137611500Y-102792500D01*
X137571500Y-109137500D02*
X137571500Y-107021500D01*
X137571500Y-104941500D02*
X137571500Y-102825500D01*
X137531500Y-109105500D02*
X137531500Y-107021500D01*
X137531500Y-104941500D02*
X137531500Y-102857500D01*
X137491500Y-109071500D02*
X137491500Y-107021500D01*
X137491500Y-104941500D02*
X137491500Y-102891500D01*
X137451500Y-109036500D02*
X137451500Y-107021500D01*
X137451500Y-104941500D02*
X137451500Y-102926500D01*
X137411500Y-109000500D02*
X137411500Y-107021500D01*
X137411500Y-104941500D02*
X137411500Y-102962500D01*
X137371500Y-108964500D02*
X137371500Y-102998500D01*
X137331500Y-108926500D02*
X137331500Y-103036500D01*
X137291500Y-108888500D02*
X137291500Y-103074500D01*
X137251500Y-108848500D02*
X137251500Y-103114500D01*
X137211500Y-108807500D02*
X137211500Y-103155500D01*
X137171500Y-108765500D02*
X137171500Y-103197500D01*
X137131500Y-108722500D02*
X137131500Y-103240500D01*
X137091500Y-108678500D02*
X137091500Y-103284500D01*
X137051500Y-108632500D02*
X137051500Y-103330500D01*
X137011500Y-108585500D02*
X137011500Y-103377500D01*
X136971500Y-108537500D02*
X136971500Y-103425500D01*
X136931500Y-108486500D02*
X136931500Y-103476500D01*
X136891500Y-108435500D02*
X136891500Y-103527500D01*
X136851500Y-108381500D02*
X136851500Y-103581500D01*
X136811500Y-108326500D02*
X136811500Y-103636500D01*
X136771500Y-108268500D02*
X136771500Y-103694500D01*
X136731500Y-108209500D02*
X136731500Y-103753500D01*
X136691500Y-108147500D02*
X136691500Y-103815500D01*
X136651500Y-108083500D02*
X136651500Y-103879500D01*
X136611500Y-108015500D02*
X136611500Y-103947500D01*
X136571500Y-107945500D02*
X136571500Y-104017500D01*
X136531500Y-107871500D02*
X136531500Y-104091500D01*
X136491500Y-107794500D02*
X136491500Y-104168500D01*
X136451500Y-107712500D02*
X136451500Y-104250500D01*
X136411500Y-107626500D02*
X136411500Y-104336500D01*
X136371500Y-107533500D02*
X136371500Y-104429500D01*
X136331500Y-107434500D02*
X136331500Y-104528500D01*
X136291500Y-107327500D02*
X136291500Y-104635500D01*
X136251500Y-107210500D02*
X136251500Y-104752500D01*
X136211500Y-107079500D02*
X136211500Y-104883500D01*
X136171500Y-106929500D02*
X136171500Y-105033500D01*
X136131500Y-106749500D02*
X136131500Y-105213500D01*
X136091500Y-106514500D02*
X136091500Y-105448500D01*
X144582198Y-108296500D02*
X143782198Y-108296500D01*
X144182198Y-108696500D02*
X144182198Y-107896500D01*
X183291600Y-139651800D02*
G75*
G03*
X183291600Y-139651800I-4120000J0D01*
G01*
X175091600Y-139651800D02*
X183251600Y-139651800D01*
X175091600Y-139611800D02*
X183251600Y-139611800D01*
X175091600Y-139571800D02*
X183251600Y-139571800D01*
X175092600Y-139531800D02*
X183250600Y-139531800D01*
X175094600Y-139491800D02*
X183248600Y-139491800D01*
X175095600Y-139451800D02*
X183247600Y-139451800D01*
X175097600Y-139411800D02*
X183245600Y-139411800D01*
X175100600Y-139371800D02*
X183242600Y-139371800D01*
X175103600Y-139331800D02*
X183239600Y-139331800D01*
X175106600Y-139291800D02*
X183236600Y-139291800D01*
X175110600Y-139251800D02*
X183232600Y-139251800D01*
X175114600Y-139211800D02*
X183228600Y-139211800D01*
X175119600Y-139171800D02*
X183223600Y-139171800D01*
X175123600Y-139131800D02*
X183219600Y-139131800D01*
X175129600Y-139091800D02*
X183213600Y-139091800D01*
X175134600Y-139051800D02*
X183208600Y-139051800D01*
X175141600Y-139011800D02*
X183201600Y-139011800D01*
X175147600Y-138971800D02*
X183195600Y-138971800D01*
X175154600Y-138930800D02*
X178131600Y-138930800D01*
X180211600Y-138930800D02*
X183188600Y-138930800D01*
X175161600Y-138890800D02*
X178131600Y-138890800D01*
X180211600Y-138890800D02*
X183181600Y-138890800D01*
X175169600Y-138850800D02*
X178131600Y-138850800D01*
X180211600Y-138850800D02*
X183173600Y-138850800D01*
X175177600Y-138810800D02*
X178131600Y-138810800D01*
X180211600Y-138810800D02*
X183165600Y-138810800D01*
X175186600Y-138770800D02*
X178131600Y-138770800D01*
X180211600Y-138770800D02*
X183156600Y-138770800D01*
X175195600Y-138730800D02*
X178131600Y-138730800D01*
X180211600Y-138730800D02*
X183147600Y-138730800D01*
X175204600Y-138690800D02*
X178131600Y-138690800D01*
X180211600Y-138690800D02*
X183138600Y-138690800D01*
X175214600Y-138650800D02*
X178131600Y-138650800D01*
X180211600Y-138650800D02*
X183128600Y-138650800D01*
X175224600Y-138610800D02*
X178131600Y-138610800D01*
X180211600Y-138610800D02*
X183118600Y-138610800D01*
X175235600Y-138570800D02*
X178131600Y-138570800D01*
X180211600Y-138570800D02*
X183107600Y-138570800D01*
X175246600Y-138530800D02*
X178131600Y-138530800D01*
X180211600Y-138530800D02*
X183096600Y-138530800D01*
X175257600Y-138490800D02*
X178131600Y-138490800D01*
X180211600Y-138490800D02*
X183085600Y-138490800D01*
X175269600Y-138450800D02*
X178131600Y-138450800D01*
X180211600Y-138450800D02*
X183073600Y-138450800D01*
X175282600Y-138410800D02*
X178131600Y-138410800D01*
X180211600Y-138410800D02*
X183060600Y-138410800D01*
X175294600Y-138370800D02*
X178131600Y-138370800D01*
X180211600Y-138370800D02*
X183048600Y-138370800D01*
X175308600Y-138330800D02*
X178131600Y-138330800D01*
X180211600Y-138330800D02*
X183034600Y-138330800D01*
X175321600Y-138290800D02*
X178131600Y-138290800D01*
X180211600Y-138290800D02*
X183021600Y-138290800D01*
X175336600Y-138250800D02*
X178131600Y-138250800D01*
X180211600Y-138250800D02*
X183006600Y-138250800D01*
X175350600Y-138210800D02*
X178131600Y-138210800D01*
X180211600Y-138210800D02*
X182992600Y-138210800D01*
X175366600Y-138170800D02*
X178131600Y-138170800D01*
X180211600Y-138170800D02*
X182976600Y-138170800D01*
X175381600Y-138130800D02*
X178131600Y-138130800D01*
X180211600Y-138130800D02*
X182961600Y-138130800D01*
X175397600Y-138090800D02*
X178131600Y-138090800D01*
X180211600Y-138090800D02*
X182945600Y-138090800D01*
X175414600Y-138050800D02*
X178131600Y-138050800D01*
X180211600Y-138050800D02*
X182928600Y-138050800D01*
X175431600Y-138010800D02*
X178131600Y-138010800D01*
X180211600Y-138010800D02*
X182911600Y-138010800D01*
X175449600Y-137970800D02*
X178131600Y-137970800D01*
X180211600Y-137970800D02*
X182893600Y-137970800D01*
X175467600Y-137930800D02*
X178131600Y-137930800D01*
X180211600Y-137930800D02*
X182875600Y-137930800D01*
X175485600Y-137890800D02*
X178131600Y-137890800D01*
X180211600Y-137890800D02*
X182857600Y-137890800D01*
X175505600Y-137850800D02*
X178131600Y-137850800D01*
X180211600Y-137850800D02*
X182837600Y-137850800D01*
X175524600Y-137810800D02*
X178131600Y-137810800D01*
X180211600Y-137810800D02*
X182818600Y-137810800D01*
X175544600Y-137770800D02*
X178131600Y-137770800D01*
X180211600Y-137770800D02*
X182798600Y-137770800D01*
X175565600Y-137730800D02*
X178131600Y-137730800D01*
X180211600Y-137730800D02*
X182777600Y-137730800D01*
X175587600Y-137690800D02*
X178131600Y-137690800D01*
X180211600Y-137690800D02*
X182755600Y-137690800D01*
X175609600Y-137650800D02*
X178131600Y-137650800D01*
X180211600Y-137650800D02*
X182733600Y-137650800D01*
X175631600Y-137610800D02*
X178131600Y-137610800D01*
X180211600Y-137610800D02*
X182711600Y-137610800D01*
X175654600Y-137570800D02*
X178131600Y-137570800D01*
X180211600Y-137570800D02*
X182688600Y-137570800D01*
X175678600Y-137530800D02*
X178131600Y-137530800D01*
X180211600Y-137530800D02*
X182664600Y-137530800D01*
X175702600Y-137490800D02*
X178131600Y-137490800D01*
X180211600Y-137490800D02*
X182640600Y-137490800D01*
X175727600Y-137450800D02*
X178131600Y-137450800D01*
X180211600Y-137450800D02*
X182615600Y-137450800D01*
X175753600Y-137410800D02*
X178131600Y-137410800D01*
X180211600Y-137410800D02*
X182589600Y-137410800D01*
X175779600Y-137370800D02*
X178131600Y-137370800D01*
X180211600Y-137370800D02*
X182563600Y-137370800D01*
X175806600Y-137330800D02*
X178131600Y-137330800D01*
X180211600Y-137330800D02*
X182536600Y-137330800D01*
X175833600Y-137290800D02*
X178131600Y-137290800D01*
X180211600Y-137290800D02*
X182509600Y-137290800D01*
X175862600Y-137250800D02*
X178131600Y-137250800D01*
X180211600Y-137250800D02*
X182480600Y-137250800D01*
X175891600Y-137210800D02*
X178131600Y-137210800D01*
X180211600Y-137210800D02*
X182451600Y-137210800D01*
X175921600Y-137170800D02*
X178131600Y-137170800D01*
X180211600Y-137170800D02*
X182421600Y-137170800D01*
X175951600Y-137130800D02*
X178131600Y-137130800D01*
X180211600Y-137130800D02*
X182391600Y-137130800D01*
X175982600Y-137090800D02*
X178131600Y-137090800D01*
X180211600Y-137090800D02*
X182360600Y-137090800D01*
X176015600Y-137050800D02*
X178131600Y-137050800D01*
X180211600Y-137050800D02*
X182327600Y-137050800D01*
X176047600Y-137010800D02*
X178131600Y-137010800D01*
X180211600Y-137010800D02*
X182295600Y-137010800D01*
X176081600Y-136970800D02*
X178131600Y-136970800D01*
X180211600Y-136970800D02*
X182261600Y-136970800D01*
X176116600Y-136930800D02*
X178131600Y-136930800D01*
X180211600Y-136930800D02*
X182226600Y-136930800D01*
X176152600Y-136890800D02*
X178131600Y-136890800D01*
X180211600Y-136890800D02*
X182190600Y-136890800D01*
X176188600Y-136850800D02*
X182154600Y-136850800D01*
X176226600Y-136810800D02*
X182116600Y-136810800D01*
X176264600Y-136770800D02*
X182078600Y-136770800D01*
X176304600Y-136730800D02*
X182038600Y-136730800D01*
X176345600Y-136690800D02*
X181997600Y-136690800D01*
X176387600Y-136650800D02*
X181955600Y-136650800D01*
X176430600Y-136610800D02*
X181912600Y-136610800D01*
X176474600Y-136570800D02*
X181868600Y-136570800D01*
X176520600Y-136530800D02*
X181822600Y-136530800D01*
X176567600Y-136490800D02*
X181775600Y-136490800D01*
X176615600Y-136450800D02*
X181727600Y-136450800D01*
X176666600Y-136410800D02*
X181676600Y-136410800D01*
X176717600Y-136370800D02*
X181625600Y-136370800D01*
X176771600Y-136330800D02*
X181571600Y-136330800D01*
X176826600Y-136290800D02*
X181516600Y-136290800D01*
X176884600Y-136250800D02*
X181458600Y-136250800D01*
X176943600Y-136210800D02*
X181399600Y-136210800D01*
X177005600Y-136170800D02*
X181337600Y-136170800D01*
X177069600Y-136130800D02*
X181273600Y-136130800D01*
X177137600Y-136090800D02*
X181205600Y-136090800D01*
X177207600Y-136050800D02*
X181135600Y-136050800D01*
X177281600Y-136010800D02*
X181061600Y-136010800D01*
X177358600Y-135970800D02*
X180984600Y-135970800D01*
X177440600Y-135930800D02*
X180902600Y-135930800D01*
X177526600Y-135890800D02*
X180816600Y-135890800D01*
X177619600Y-135850800D02*
X180723600Y-135850800D01*
X177718600Y-135810800D02*
X180624600Y-135810800D01*
X177825600Y-135770800D02*
X180517600Y-135770800D01*
X177942600Y-135730800D02*
X180400600Y-135730800D01*
X178073600Y-135690800D02*
X180269600Y-135690800D01*
X178223600Y-135650800D02*
X180119600Y-135650800D01*
X178403600Y-135610800D02*
X179939600Y-135610800D01*
X178638600Y-135570800D02*
X179704600Y-135570800D01*
X176856600Y-144061498D02*
X176856600Y-143261498D01*
X176456600Y-143661498D02*
X177256600Y-143661498D01*
X140274500Y-143495700D02*
X140274500Y-140755700D01*
X147714500Y-143495700D02*
X147714500Y-140755700D01*
X147714500Y-140755700D02*
X140274500Y-140755700D01*
X147714500Y-143495700D02*
X140274500Y-143495700D01*
X147826400Y-106854800D02*
X145086400Y-106854800D01*
X147826400Y-99414800D02*
X145086400Y-99414800D01*
X145086400Y-99414800D02*
X145086400Y-106854800D01*
X147826400Y-99414800D02*
X147826400Y-106854800D01*
X185404300Y-126836500D02*
X185404300Y-129576500D01*
X177964300Y-126836500D02*
X177964300Y-129576500D01*
X177964300Y-129576500D02*
X185404300Y-129576500D01*
X177964300Y-126836500D02*
X185404300Y-126836500D01*
X175703700Y-113066500D02*
X175703700Y-110326500D01*
X183143700Y-113066500D02*
X183143700Y-110326500D01*
X183143700Y-110326500D02*
X175703700Y-110326500D01*
X183143700Y-113066500D02*
X175703700Y-113066500D01*
X185578800Y-117398800D02*
G75*
G03*
X185578800Y-117398800I-1251000J0D01*
G01*
X185743900Y-122618500D02*
G75*
G03*
X185743900Y-122618500I-1251000J0D01*
G01*
X199625000Y-121920000D02*
G75*
G03*
X199625000Y-121920000I-1251000J0D01*
G01*
X126854000Y-127508000D02*
G75*
G03*
X126854000Y-127508000I-1251000J0D01*
G01*
X199625000Y-130810000D02*
G75*
G03*
X199625000Y-130810000I-1251000J0D01*
G01*
X126854000Y-119634000D02*
G75*
G03*
X126854000Y-119634000I-1251000J0D01*
G01*
X199625000Y-113030000D02*
G75*
G03*
X199625000Y-113030000I-1251000J0D01*
G01*
X174846200Y-126649400D02*
X174846200Y-127579400D01*
X174846200Y-129809400D02*
X174846200Y-128879400D01*
X174846200Y-129809400D02*
X177006200Y-129809400D01*
X174846200Y-126649400D02*
X176306200Y-126649400D01*
X156093936Y-112333100D02*
X156548064Y-112333100D01*
X156093936Y-113803100D02*
X156548064Y-113803100D01*
X168895752Y-129576500D02*
X168373248Y-129576500D01*
X168895752Y-128106500D02*
X168373248Y-128106500D01*
X169902200Y-123402548D02*
X169902200Y-123925052D01*
X171372200Y-123402548D02*
X171372200Y-123925052D01*
X133123000Y-119302264D02*
X133123000Y-118848136D01*
X134593000Y-119302264D02*
X134593000Y-118848136D01*
X177379136Y-113577700D02*
X177833264Y-113577700D01*
X177379136Y-115047700D02*
X177833264Y-115047700D01*
X172439000Y-108145336D02*
X172439000Y-108599464D01*
X170969000Y-108145336D02*
X170969000Y-108599464D01*
X165936600Y-135418336D02*
X165936600Y-135872464D01*
X164466600Y-135418336D02*
X164466600Y-135872464D01*
X169365600Y-123448836D02*
X169365600Y-123902964D01*
X167895600Y-123448836D02*
X167895600Y-123902964D01*
X165914400Y-123890264D02*
X165914400Y-123436136D01*
X167384400Y-123890264D02*
X167384400Y-123436136D01*
X158891300Y-115114564D02*
X158891300Y-114660436D01*
X160361300Y-115114564D02*
X160361300Y-114660436D01*
X150061600Y-134034036D02*
X150061600Y-134488164D01*
X148591600Y-134034036D02*
X148591600Y-134488164D01*
X143800500Y-127868436D02*
X143800500Y-128322564D01*
X142330500Y-127868436D02*
X142330500Y-128322564D01*
X141514500Y-127868436D02*
X141514500Y-128322564D01*
X140044500Y-127868436D02*
X140044500Y-128322564D01*
X171495500Y-133340000D02*
X171495500Y-132410000D01*
X171495500Y-130180000D02*
X171495500Y-131110000D01*
X171495500Y-130180000D02*
X169335500Y-130180000D01*
X171495500Y-133340000D02*
X170035500Y-133340000D01*
X169944000Y-110550800D02*
X169944000Y-111480800D01*
X169944000Y-113710800D02*
X169944000Y-112780800D01*
X169944000Y-113710800D02*
X172104000Y-113710800D01*
X169944000Y-110550800D02*
X171404000Y-110550800D01*
X166955500Y-133406000D02*
X166955500Y-132476000D01*
X166955500Y-130246000D02*
X166955500Y-131176000D01*
X166955500Y-130246000D02*
X164795500Y-130246000D01*
X166955500Y-133406000D02*
X165495500Y-133406000D01*
X137578000Y-121271500D02*
X137578000Y-128711500D01*
X130138000Y-121271500D02*
X130138000Y-128711500D01*
X137578000Y-121271500D02*
X130138000Y-121271500D01*
X137578000Y-128711500D02*
X130138000Y-128711500D01*
D10*
X149023319Y-137852138D02*
X148975700Y-137947376D01*
X148880461Y-138042614D01*
X148737604Y-138185471D01*
X148689985Y-138280709D01*
X148689985Y-138375947D01*
X148928080Y-138328328D02*
X148880461Y-138423566D01*
X148785223Y-138518804D01*
X148594747Y-138566423D01*
X148261414Y-138566423D01*
X148070938Y-138518804D01*
X147975700Y-138423566D01*
X147928080Y-138328328D01*
X147928080Y-138137852D01*
X147975700Y-138042614D01*
X148070938Y-137947376D01*
X148261414Y-137899757D01*
X148594747Y-137899757D01*
X148785223Y-137947376D01*
X148880461Y-138042614D01*
X148928080Y-138137852D01*
X148928080Y-138328328D01*
X148023319Y-137518804D02*
X147975700Y-137471185D01*
X147928080Y-137375947D01*
X147928080Y-137137852D01*
X147975700Y-137042614D01*
X148023319Y-136994995D01*
X148118557Y-136947376D01*
X148213795Y-136947376D01*
X148356652Y-136994995D01*
X148928080Y-137566423D01*
X148928080Y-136947376D01*
X138690361Y-131344919D02*
X138595123Y-131297300D01*
X138499885Y-131202061D01*
X138357028Y-131059204D01*
X138261790Y-131011585D01*
X138166552Y-131011585D01*
X138214171Y-131249680D02*
X138118933Y-131202061D01*
X138023695Y-131106823D01*
X137976076Y-130916347D01*
X137976076Y-130583014D01*
X138023695Y-130392538D01*
X138118933Y-130297300D01*
X138214171Y-130249680D01*
X138404647Y-130249680D01*
X138499885Y-130297300D01*
X138595123Y-130392538D01*
X138642742Y-130583014D01*
X138642742Y-130916347D01*
X138595123Y-131106823D01*
X138499885Y-131202061D01*
X138404647Y-131249680D01*
X138214171Y-131249680D01*
X139595123Y-131249680D02*
X139023695Y-131249680D01*
X139309409Y-131249680D02*
X139309409Y-130249680D01*
X139214171Y-130392538D01*
X139118933Y-130487776D01*
X139023695Y-130535395D01*
X177635761Y-120054319D02*
X177540523Y-120006700D01*
X177445285Y-119911461D01*
X177302428Y-119768604D01*
X177207190Y-119720985D01*
X177111952Y-119720985D01*
X177159571Y-119959080D02*
X177064333Y-119911461D01*
X176969095Y-119816223D01*
X176921476Y-119625747D01*
X176921476Y-119292414D01*
X176969095Y-119101938D01*
X177064333Y-119006700D01*
X177159571Y-118959080D01*
X177350047Y-118959080D01*
X177445285Y-119006700D01*
X177540523Y-119101938D01*
X177588142Y-119292414D01*
X177588142Y-119625747D01*
X177540523Y-119816223D01*
X177445285Y-119911461D01*
X177350047Y-119959080D01*
X177159571Y-119959080D01*
X178064333Y-119959080D02*
X178254809Y-119959080D01*
X178350047Y-119911461D01*
X178397666Y-119863842D01*
X178492904Y-119720985D01*
X178540523Y-119530509D01*
X178540523Y-119149557D01*
X178492904Y-119054319D01*
X178445285Y-119006700D01*
X178350047Y-118959080D01*
X178159571Y-118959080D01*
X178064333Y-119006700D01*
X178016714Y-119054319D01*
X177969095Y-119149557D01*
X177969095Y-119387652D01*
X178016714Y-119482890D01*
X178064333Y-119530509D01*
X178159571Y-119578128D01*
X178350047Y-119578128D01*
X178445285Y-119530509D01*
X178492904Y-119482890D01*
X178540523Y-119387652D01*
X156363261Y-118845319D02*
X156268023Y-118797700D01*
X156172785Y-118702461D01*
X156029928Y-118559604D01*
X155934690Y-118511985D01*
X155839452Y-118511985D01*
X155887071Y-118750080D02*
X155791833Y-118702461D01*
X155696595Y-118607223D01*
X155648976Y-118416747D01*
X155648976Y-118083414D01*
X155696595Y-117892938D01*
X155791833Y-117797700D01*
X155887071Y-117750080D01*
X156077547Y-117750080D01*
X156172785Y-117797700D01*
X156268023Y-117892938D01*
X156315642Y-118083414D01*
X156315642Y-118416747D01*
X156268023Y-118607223D01*
X156172785Y-118702461D01*
X156077547Y-118750080D01*
X155887071Y-118750080D01*
X156648976Y-117750080D02*
X157268023Y-117750080D01*
X156934690Y-118131033D01*
X157077547Y-118131033D01*
X157172785Y-118178652D01*
X157220404Y-118226271D01*
X157268023Y-118321509D01*
X157268023Y-118559604D01*
X157220404Y-118654842D01*
X157172785Y-118702461D01*
X157077547Y-118750080D01*
X156791833Y-118750080D01*
X156696595Y-118702461D01*
X156648976Y-118654842D01*
X137566471Y-117489219D02*
X137471233Y-117441600D01*
X137375995Y-117346361D01*
X137233138Y-117203504D01*
X137137900Y-117155885D01*
X137042661Y-117155885D01*
X137090280Y-117393980D02*
X136995042Y-117346361D01*
X136899804Y-117251123D01*
X136852185Y-117060647D01*
X136852185Y-116727314D01*
X136899804Y-116536838D01*
X136995042Y-116441600D01*
X137090280Y-116393980D01*
X137280757Y-116393980D01*
X137375995Y-116441600D01*
X137471233Y-116536838D01*
X137518852Y-116727314D01*
X137518852Y-117060647D01*
X137471233Y-117251123D01*
X137375995Y-117346361D01*
X137280757Y-117393980D01*
X137090280Y-117393980D01*
X138471233Y-117393980D02*
X137899804Y-117393980D01*
X138185519Y-117393980D02*
X138185519Y-116393980D01*
X138090280Y-116536838D01*
X137995042Y-116632076D01*
X137899804Y-116679695D01*
X138804566Y-116393980D02*
X139423614Y-116393980D01*
X139090280Y-116774933D01*
X139233138Y-116774933D01*
X139328376Y-116822552D01*
X139375995Y-116870171D01*
X139423614Y-116965409D01*
X139423614Y-117203504D01*
X139375995Y-117298742D01*
X139328376Y-117346361D01*
X139233138Y-117393980D01*
X138947423Y-117393980D01*
X138852185Y-117346361D01*
X138804566Y-117298742D01*
X149785319Y-115087328D02*
X149737700Y-115182566D01*
X149642461Y-115277804D01*
X149499604Y-115420661D01*
X149451985Y-115515900D01*
X149451985Y-115611138D01*
X149690080Y-115563519D02*
X149642461Y-115658757D01*
X149547223Y-115753995D01*
X149356747Y-115801614D01*
X149023414Y-115801614D01*
X148832938Y-115753995D01*
X148737700Y-115658757D01*
X148690080Y-115563519D01*
X148690080Y-115373042D01*
X148737700Y-115277804D01*
X148832938Y-115182566D01*
X149023414Y-115134947D01*
X149356747Y-115134947D01*
X149547223Y-115182566D01*
X149642461Y-115277804D01*
X149690080Y-115373042D01*
X149690080Y-115563519D01*
X149690080Y-114182566D02*
X149690080Y-114753995D01*
X149690080Y-114468280D02*
X148690080Y-114468280D01*
X148832938Y-114563519D01*
X148928176Y-114658757D01*
X148975795Y-114753995D01*
X149023414Y-113325423D02*
X149690080Y-113325423D01*
X148642461Y-113563519D02*
X149356747Y-113801614D01*
X149356747Y-113182566D01*
X159337919Y-128450228D02*
X159290300Y-128545466D01*
X159195061Y-128640704D01*
X159052204Y-128783561D01*
X159004585Y-128878800D01*
X159004585Y-128974038D01*
X159242680Y-128926419D02*
X159195061Y-129021657D01*
X159099823Y-129116895D01*
X158909347Y-129164514D01*
X158576014Y-129164514D01*
X158385538Y-129116895D01*
X158290300Y-129021657D01*
X158242680Y-128926419D01*
X158242680Y-128735942D01*
X158290300Y-128640704D01*
X158385538Y-128545466D01*
X158576014Y-128497847D01*
X158909347Y-128497847D01*
X159099823Y-128545466D01*
X159195061Y-128640704D01*
X159242680Y-128735942D01*
X159242680Y-128926419D01*
X159242680Y-127545466D02*
X159242680Y-128116895D01*
X159242680Y-127831180D02*
X158242680Y-127831180D01*
X158385538Y-127926419D01*
X158480776Y-128021657D01*
X158528395Y-128116895D01*
X159242680Y-126593085D02*
X159242680Y-127164514D01*
X159242680Y-126878800D02*
X158242680Y-126878800D01*
X158385538Y-126974038D01*
X158480776Y-127069276D01*
X158528395Y-127164514D01*
X172086542Y-104217766D02*
X172134161Y-104265385D01*
X172181780Y-104408242D01*
X172181780Y-104503480D01*
X172134161Y-104646338D01*
X172038923Y-104741576D01*
X171943685Y-104789195D01*
X171753209Y-104836814D01*
X171610352Y-104836814D01*
X171419876Y-104789195D01*
X171324638Y-104741576D01*
X171229400Y-104646338D01*
X171181780Y-104503480D01*
X171181780Y-104408242D01*
X171229400Y-104265385D01*
X171277019Y-104217766D01*
X172181780Y-103265385D02*
X172181780Y-103836814D01*
X172181780Y-103551100D02*
X171181780Y-103551100D01*
X171324638Y-103646338D01*
X171419876Y-103741576D01*
X171467495Y-103836814D01*
X143235442Y-140215880D02*
X142902109Y-139739690D01*
X142664014Y-140215880D02*
X142664014Y-139215880D01*
X143044966Y-139215880D01*
X143140204Y-139263500D01*
X143187823Y-139311119D01*
X143235442Y-139406357D01*
X143235442Y-139549214D01*
X143187823Y-139644452D01*
X143140204Y-139692071D01*
X143044966Y-139739690D01*
X142664014Y-139739690D01*
X143568776Y-139215880D02*
X144187823Y-139215880D01*
X143854490Y-139596833D01*
X143997347Y-139596833D01*
X144092585Y-139644452D01*
X144140204Y-139692071D01*
X144187823Y-139787309D01*
X144187823Y-140025404D01*
X144140204Y-140120642D01*
X144092585Y-140168261D01*
X143997347Y-140215880D01*
X143711633Y-140215880D01*
X143616395Y-140168261D01*
X143568776Y-140120642D01*
X144806871Y-139215880D02*
X144902109Y-139215880D01*
X144997347Y-139263500D01*
X145044966Y-139311119D01*
X145092585Y-139406357D01*
X145140204Y-139596833D01*
X145140204Y-139834928D01*
X145092585Y-140025404D01*
X145044966Y-140120642D01*
X144997347Y-140168261D01*
X144902109Y-140215880D01*
X144806871Y-140215880D01*
X144711633Y-140168261D01*
X144664014Y-140120642D01*
X144616395Y-140025404D01*
X144568776Y-139834928D01*
X144568776Y-139596833D01*
X144616395Y-139406357D01*
X144664014Y-139311119D01*
X144711633Y-139263500D01*
X144806871Y-139215880D01*
X149331442Y-131363980D02*
X148998109Y-130887790D01*
X148760014Y-131363980D02*
X148760014Y-130363980D01*
X149140966Y-130363980D01*
X149236204Y-130411600D01*
X149283823Y-130459219D01*
X149331442Y-130554457D01*
X149331442Y-130697314D01*
X149283823Y-130792552D01*
X149236204Y-130840171D01*
X149140966Y-130887790D01*
X148760014Y-130887790D01*
X149712395Y-130459219D02*
X149760014Y-130411600D01*
X149855252Y-130363980D01*
X150093347Y-130363980D01*
X150188585Y-130411600D01*
X150236204Y-130459219D01*
X150283823Y-130554457D01*
X150283823Y-130649695D01*
X150236204Y-130792552D01*
X149664776Y-131363980D01*
X150283823Y-131363980D01*
X150760014Y-131363980D02*
X150950490Y-131363980D01*
X151045728Y-131316361D01*
X151093347Y-131268742D01*
X151188585Y-131125885D01*
X151236204Y-130935409D01*
X151236204Y-130554457D01*
X151188585Y-130459219D01*
X151140966Y-130411600D01*
X151045728Y-130363980D01*
X150855252Y-130363980D01*
X150760014Y-130411600D01*
X150712395Y-130459219D01*
X150664776Y-130554457D01*
X150664776Y-130792552D01*
X150712395Y-130887790D01*
X150760014Y-130935409D01*
X150855252Y-130983028D01*
X151045728Y-130983028D01*
X151140966Y-130935409D01*
X151188585Y-130887790D01*
X151236204Y-130792552D01*
X149153642Y-117559080D02*
X148820309Y-117082890D01*
X148582214Y-117559080D02*
X148582214Y-116559080D01*
X148963166Y-116559080D01*
X149058404Y-116606700D01*
X149106023Y-116654319D01*
X149153642Y-116749557D01*
X149153642Y-116892414D01*
X149106023Y-116987652D01*
X149058404Y-117035271D01*
X148963166Y-117082890D01*
X148582214Y-117082890D01*
X150106023Y-117559080D02*
X149534595Y-117559080D01*
X149820309Y-117559080D02*
X149820309Y-116559080D01*
X149725071Y-116701938D01*
X149629833Y-116797176D01*
X149534595Y-116844795D01*
X150439357Y-116559080D02*
X151106023Y-116559080D01*
X150677452Y-117559080D01*
X148584180Y-109662957D02*
X148107990Y-109996290D01*
X148584180Y-110234385D02*
X147584180Y-110234385D01*
X147584180Y-109853433D01*
X147631800Y-109758195D01*
X147679419Y-109710576D01*
X147774657Y-109662957D01*
X147917514Y-109662957D01*
X148012752Y-109710576D01*
X148060371Y-109758195D01*
X148107990Y-109853433D01*
X148107990Y-110234385D01*
X148584180Y-108710576D02*
X148584180Y-109282004D01*
X148584180Y-108996290D02*
X147584180Y-108996290D01*
X147727038Y-109091528D01*
X147822276Y-109186766D01*
X147869895Y-109282004D01*
X147584180Y-107805814D02*
X147584180Y-108282004D01*
X148060371Y-108329623D01*
X148012752Y-108282004D01*
X147965133Y-108186766D01*
X147965133Y-107948671D01*
X148012752Y-107853433D01*
X148060371Y-107805814D01*
X148155609Y-107758195D01*
X148393704Y-107758195D01*
X148488942Y-107805814D01*
X148536561Y-107853433D01*
X148584180Y-107948671D01*
X148584180Y-108186766D01*
X148536561Y-108282004D01*
X148488942Y-108329623D01*
X150636219Y-128808328D02*
X150588600Y-128903566D01*
X150493361Y-128998804D01*
X150350504Y-129141661D01*
X150302885Y-129236900D01*
X150302885Y-129332138D01*
X150540980Y-129284519D02*
X150493361Y-129379757D01*
X150398123Y-129474995D01*
X150207647Y-129522614D01*
X149874314Y-129522614D01*
X149683838Y-129474995D01*
X149588600Y-129379757D01*
X149540980Y-129284519D01*
X149540980Y-129094042D01*
X149588600Y-128998804D01*
X149683838Y-128903566D01*
X149874314Y-128855947D01*
X150207647Y-128855947D01*
X150398123Y-128903566D01*
X150493361Y-128998804D01*
X150540980Y-129094042D01*
X150540980Y-129284519D01*
X149636219Y-128474995D02*
X149588600Y-128427376D01*
X149540980Y-128332138D01*
X149540980Y-128094042D01*
X149588600Y-127998804D01*
X149636219Y-127951185D01*
X149731457Y-127903566D01*
X149826695Y-127903566D01*
X149969552Y-127951185D01*
X150540980Y-128522614D01*
X150540980Y-127903566D01*
X149540980Y-127284519D02*
X149540980Y-127189280D01*
X149588600Y-127094042D01*
X149636219Y-127046423D01*
X149731457Y-126998804D01*
X149921933Y-126951185D01*
X150160028Y-126951185D01*
X150350504Y-126998804D01*
X150445742Y-127046423D01*
X150493361Y-127094042D01*
X150540980Y-127189280D01*
X150540980Y-127284519D01*
X150493361Y-127379757D01*
X150445742Y-127427376D01*
X150350504Y-127474995D01*
X150160028Y-127522614D01*
X149921933Y-127522614D01*
X149731457Y-127474995D01*
X149636219Y-127427376D01*
X149588600Y-127379757D01*
X149540980Y-127284519D01*
X151563319Y-120434028D02*
X151515700Y-120529266D01*
X151420461Y-120624504D01*
X151277604Y-120767361D01*
X151229985Y-120862600D01*
X151229985Y-120957838D01*
X151468080Y-120910219D02*
X151420461Y-121005457D01*
X151325223Y-121100695D01*
X151134747Y-121148314D01*
X150801414Y-121148314D01*
X150610938Y-121100695D01*
X150515700Y-121005457D01*
X150468080Y-120910219D01*
X150468080Y-120719742D01*
X150515700Y-120624504D01*
X150610938Y-120529266D01*
X150801414Y-120481647D01*
X151134747Y-120481647D01*
X151325223Y-120529266D01*
X151420461Y-120624504D01*
X151468080Y-120719742D01*
X151468080Y-120910219D01*
X151468080Y-119529266D02*
X151468080Y-120100695D01*
X151468080Y-119814980D02*
X150468080Y-119814980D01*
X150610938Y-119910219D01*
X150706176Y-120005457D01*
X150753795Y-120100695D01*
X151468080Y-119053076D02*
X151468080Y-118862600D01*
X151420461Y-118767361D01*
X151372842Y-118719742D01*
X151229985Y-118624504D01*
X151039509Y-118576885D01*
X150658557Y-118576885D01*
X150563319Y-118624504D01*
X150515700Y-118672123D01*
X150468080Y-118767361D01*
X150468080Y-118957838D01*
X150515700Y-119053076D01*
X150563319Y-119100695D01*
X150658557Y-119148314D01*
X150896652Y-119148314D01*
X150991890Y-119100695D01*
X151039509Y-119053076D01*
X151087128Y-118957838D01*
X151087128Y-118767361D01*
X151039509Y-118672123D01*
X150991890Y-118624504D01*
X150896652Y-118576885D01*
X161012142Y-140596857D02*
X161059761Y-140644476D01*
X161107380Y-140787333D01*
X161107380Y-140882571D01*
X161059761Y-141025428D01*
X160964523Y-141120666D01*
X160869285Y-141168285D01*
X160678809Y-141215904D01*
X160535952Y-141215904D01*
X160345476Y-141168285D01*
X160250238Y-141120666D01*
X160155000Y-141025428D01*
X160107380Y-140882571D01*
X160107380Y-140787333D01*
X160155000Y-140644476D01*
X160202619Y-140596857D01*
X161107380Y-139644476D02*
X161107380Y-140215904D01*
X161107380Y-139930190D02*
X160107380Y-139930190D01*
X160250238Y-140025428D01*
X160345476Y-140120666D01*
X160393095Y-140215904D01*
X161107380Y-139168285D02*
X161107380Y-138977809D01*
X161059761Y-138882571D01*
X161012142Y-138834952D01*
X160869285Y-138739714D01*
X160678809Y-138692095D01*
X160297857Y-138692095D01*
X160202619Y-138739714D01*
X160155000Y-138787333D01*
X160107380Y-138882571D01*
X160107380Y-139073047D01*
X160155000Y-139168285D01*
X160202619Y-139215904D01*
X160297857Y-139263523D01*
X160535952Y-139263523D01*
X160631190Y-139215904D01*
X160678809Y-139168285D01*
X160726428Y-139073047D01*
X160726428Y-138882571D01*
X160678809Y-138787333D01*
X160631190Y-138739714D01*
X160535952Y-138692095D01*
X150453542Y-104899757D02*
X150501161Y-104947376D01*
X150548780Y-105090233D01*
X150548780Y-105185471D01*
X150501161Y-105328328D01*
X150405923Y-105423566D01*
X150310685Y-105471185D01*
X150120209Y-105518804D01*
X149977352Y-105518804D01*
X149786876Y-105471185D01*
X149691638Y-105423566D01*
X149596400Y-105328328D01*
X149548780Y-105185471D01*
X149548780Y-105090233D01*
X149596400Y-104947376D01*
X149644019Y-104899757D01*
X150548780Y-103947376D02*
X150548780Y-104518804D01*
X150548780Y-104233090D02*
X149548780Y-104233090D01*
X149691638Y-104328328D01*
X149786876Y-104423566D01*
X149834495Y-104518804D01*
X149977352Y-103375947D02*
X149929733Y-103471185D01*
X149882114Y-103518804D01*
X149786876Y-103566423D01*
X149739257Y-103566423D01*
X149644019Y-103518804D01*
X149596400Y-103471185D01*
X149548780Y-103375947D01*
X149548780Y-103185471D01*
X149596400Y-103090233D01*
X149644019Y-103042614D01*
X149739257Y-102994995D01*
X149786876Y-102994995D01*
X149882114Y-103042614D01*
X149929733Y-103090233D01*
X149977352Y-103185471D01*
X149977352Y-103375947D01*
X150024971Y-103471185D01*
X150072590Y-103518804D01*
X150167828Y-103566423D01*
X150358304Y-103566423D01*
X150453542Y-103518804D01*
X150501161Y-103471185D01*
X150548780Y-103375947D01*
X150548780Y-103185471D01*
X150501161Y-103090233D01*
X150453542Y-103042614D01*
X150358304Y-102994995D01*
X150167828Y-102994995D01*
X150072590Y-103042614D01*
X150024971Y-103090233D01*
X149977352Y-103185471D01*
X142514580Y-135662966D02*
X142038390Y-135996300D01*
X142514580Y-136234395D02*
X141514580Y-136234395D01*
X141514580Y-135853442D01*
X141562200Y-135758204D01*
X141609819Y-135710585D01*
X141705057Y-135662966D01*
X141847914Y-135662966D01*
X141943152Y-135710585D01*
X141990771Y-135758204D01*
X142038390Y-135853442D01*
X142038390Y-136234395D01*
X141514580Y-135329633D02*
X141514580Y-134710585D01*
X141895533Y-135043919D01*
X141895533Y-134901061D01*
X141943152Y-134805823D01*
X141990771Y-134758204D01*
X142086009Y-134710585D01*
X142324104Y-134710585D01*
X142419342Y-134758204D01*
X142466961Y-134805823D01*
X142514580Y-134901061D01*
X142514580Y-135186776D01*
X142466961Y-135282014D01*
X142419342Y-135329633D01*
X159383042Y-121835966D02*
X159430661Y-121883585D01*
X159478280Y-122026442D01*
X159478280Y-122121680D01*
X159430661Y-122264538D01*
X159335423Y-122359776D01*
X159240185Y-122407395D01*
X159049709Y-122455014D01*
X158906852Y-122455014D01*
X158716376Y-122407395D01*
X158621138Y-122359776D01*
X158525900Y-122264538D01*
X158478280Y-122121680D01*
X158478280Y-122026442D01*
X158525900Y-121883585D01*
X158573519Y-121835966D01*
X158478280Y-120978823D02*
X158478280Y-121169300D01*
X158525900Y-121264538D01*
X158573519Y-121312157D01*
X158716376Y-121407395D01*
X158906852Y-121455014D01*
X159287804Y-121455014D01*
X159383042Y-121407395D01*
X159430661Y-121359776D01*
X159478280Y-121264538D01*
X159478280Y-121074061D01*
X159430661Y-120978823D01*
X159383042Y-120931204D01*
X159287804Y-120883585D01*
X159049709Y-120883585D01*
X158954471Y-120931204D01*
X158906852Y-120978823D01*
X158859233Y-121074061D01*
X158859233Y-121264538D01*
X158906852Y-121359776D01*
X158954471Y-121407395D01*
X159049709Y-121455014D01*
X164809419Y-112509228D02*
X164761800Y-112604466D01*
X164666561Y-112699704D01*
X164523704Y-112842561D01*
X164476085Y-112937800D01*
X164476085Y-113033038D01*
X164714180Y-112985419D02*
X164666561Y-113080657D01*
X164571323Y-113175895D01*
X164380847Y-113223514D01*
X164047514Y-113223514D01*
X163857038Y-113175895D01*
X163761800Y-113080657D01*
X163714180Y-112985419D01*
X163714180Y-112794942D01*
X163761800Y-112699704D01*
X163857038Y-112604466D01*
X164047514Y-112556847D01*
X164380847Y-112556847D01*
X164571323Y-112604466D01*
X164666561Y-112699704D01*
X164714180Y-112794942D01*
X164714180Y-112985419D01*
X164714180Y-111604466D02*
X164714180Y-112175895D01*
X164714180Y-111890180D02*
X163714180Y-111890180D01*
X163857038Y-111985419D01*
X163952276Y-112080657D01*
X163999895Y-112175895D01*
X164142752Y-111033038D02*
X164095133Y-111128276D01*
X164047514Y-111175895D01*
X163952276Y-111223514D01*
X163904657Y-111223514D01*
X163809419Y-111175895D01*
X163761800Y-111128276D01*
X163714180Y-111033038D01*
X163714180Y-110842561D01*
X163761800Y-110747323D01*
X163809419Y-110699704D01*
X163904657Y-110652085D01*
X163952276Y-110652085D01*
X164047514Y-110699704D01*
X164095133Y-110747323D01*
X164142752Y-110842561D01*
X164142752Y-111033038D01*
X164190371Y-111128276D01*
X164237990Y-111175895D01*
X164333228Y-111223514D01*
X164523704Y-111223514D01*
X164618942Y-111175895D01*
X164666561Y-111128276D01*
X164714180Y-111033038D01*
X164714180Y-110842561D01*
X164666561Y-110747323D01*
X164618942Y-110699704D01*
X164523704Y-110652085D01*
X164333228Y-110652085D01*
X164237990Y-110699704D01*
X164190371Y-110747323D01*
X164142752Y-110842561D01*
X180122342Y-121432580D02*
X179789009Y-120956390D01*
X179550914Y-121432580D02*
X179550914Y-120432580D01*
X179931866Y-120432580D01*
X180027104Y-120480200D01*
X180074723Y-120527819D01*
X180122342Y-120623057D01*
X180122342Y-120765914D01*
X180074723Y-120861152D01*
X180027104Y-120908771D01*
X179931866Y-120956390D01*
X179550914Y-120956390D01*
X181074723Y-121432580D02*
X180503295Y-121432580D01*
X180789009Y-121432580D02*
X180789009Y-120432580D01*
X180693771Y-120575438D01*
X180598533Y-120670676D01*
X180503295Y-120718295D01*
X181408057Y-120432580D02*
X182027104Y-120432580D01*
X181693771Y-120813533D01*
X181836628Y-120813533D01*
X181931866Y-120861152D01*
X181979485Y-120908771D01*
X182027104Y-121004009D01*
X182027104Y-121242104D01*
X181979485Y-121337342D01*
X181931866Y-121384961D01*
X181836628Y-121432580D01*
X181550914Y-121432580D01*
X181455676Y-121384961D01*
X181408057Y-121337342D01*
X183065680Y-115742957D02*
X182589490Y-116076290D01*
X183065680Y-116314385D02*
X182065680Y-116314385D01*
X182065680Y-115933433D01*
X182113300Y-115838195D01*
X182160919Y-115790576D01*
X182256157Y-115742957D01*
X182399014Y-115742957D01*
X182494252Y-115790576D01*
X182541871Y-115838195D01*
X182589490Y-115933433D01*
X182589490Y-116314385D01*
X182160919Y-115362004D02*
X182113300Y-115314385D01*
X182065680Y-115219147D01*
X182065680Y-114981052D01*
X182113300Y-114885814D01*
X182160919Y-114838195D01*
X182256157Y-114790576D01*
X182351395Y-114790576D01*
X182494252Y-114838195D01*
X183065680Y-115409623D01*
X183065680Y-114790576D01*
X182494252Y-114219147D02*
X182446633Y-114314385D01*
X182399014Y-114362004D01*
X182303776Y-114409623D01*
X182256157Y-114409623D01*
X182160919Y-114362004D01*
X182113300Y-114314385D01*
X182065680Y-114219147D01*
X182065680Y-114028671D01*
X182113300Y-113933433D01*
X182160919Y-113885814D01*
X182256157Y-113838195D01*
X182303776Y-113838195D01*
X182399014Y-113885814D01*
X182446633Y-113933433D01*
X182494252Y-114028671D01*
X182494252Y-114219147D01*
X182541871Y-114314385D01*
X182589490Y-114362004D01*
X182684728Y-114409623D01*
X182875204Y-114409623D01*
X182970442Y-114362004D01*
X183018061Y-114314385D01*
X183065680Y-114219147D01*
X183065680Y-114028671D01*
X183018061Y-113933433D01*
X182970442Y-113885814D01*
X182875204Y-113838195D01*
X182684728Y-113838195D01*
X182589490Y-113885814D01*
X182541871Y-113933433D01*
X182494252Y-114028671D01*
X168498780Y-136050257D02*
X168022590Y-136383590D01*
X168498780Y-136621685D02*
X167498780Y-136621685D01*
X167498780Y-136240733D01*
X167546400Y-136145495D01*
X167594019Y-136097876D01*
X167689257Y-136050257D01*
X167832114Y-136050257D01*
X167927352Y-136097876D01*
X167974971Y-136145495D01*
X168022590Y-136240733D01*
X168022590Y-136621685D01*
X167594019Y-135669304D02*
X167546400Y-135621685D01*
X167498780Y-135526447D01*
X167498780Y-135288352D01*
X167546400Y-135193114D01*
X167594019Y-135145495D01*
X167689257Y-135097876D01*
X167784495Y-135097876D01*
X167927352Y-135145495D01*
X168498780Y-135716923D01*
X168498780Y-135097876D01*
X167498780Y-134764542D02*
X167498780Y-134097876D01*
X168498780Y-134526447D01*
X166288980Y-109513857D02*
X165812790Y-109847190D01*
X166288980Y-110085285D02*
X165288980Y-110085285D01*
X165288980Y-109704333D01*
X165336600Y-109609095D01*
X165384219Y-109561476D01*
X165479457Y-109513857D01*
X165622314Y-109513857D01*
X165717552Y-109561476D01*
X165765171Y-109609095D01*
X165812790Y-109704333D01*
X165812790Y-110085285D01*
X165384219Y-109132904D02*
X165336600Y-109085285D01*
X165288980Y-108990047D01*
X165288980Y-108751952D01*
X165336600Y-108656714D01*
X165384219Y-108609095D01*
X165479457Y-108561476D01*
X165574695Y-108561476D01*
X165717552Y-108609095D01*
X166288980Y-109180523D01*
X166288980Y-108561476D01*
X165288980Y-107704333D02*
X165288980Y-107894809D01*
X165336600Y-107990047D01*
X165384219Y-108037666D01*
X165527076Y-108132904D01*
X165717552Y-108180523D01*
X166098504Y-108180523D01*
X166193742Y-108132904D01*
X166241361Y-108085285D01*
X166288980Y-107990047D01*
X166288980Y-107799571D01*
X166241361Y-107704333D01*
X166193742Y-107656714D01*
X166098504Y-107609095D01*
X165860409Y-107609095D01*
X165765171Y-107656714D01*
X165717552Y-107704333D01*
X165669933Y-107799571D01*
X165669933Y-107990047D01*
X165717552Y-108085285D01*
X165765171Y-108132904D01*
X165860409Y-108180523D01*
X152369780Y-128312657D02*
X151893590Y-128645990D01*
X152369780Y-128884085D02*
X151369780Y-128884085D01*
X151369780Y-128503133D01*
X151417400Y-128407895D01*
X151465019Y-128360276D01*
X151560257Y-128312657D01*
X151703114Y-128312657D01*
X151798352Y-128360276D01*
X151845971Y-128407895D01*
X151893590Y-128503133D01*
X151893590Y-128884085D01*
X151465019Y-127931704D02*
X151417400Y-127884085D01*
X151369780Y-127788847D01*
X151369780Y-127550752D01*
X151417400Y-127455514D01*
X151465019Y-127407895D01*
X151560257Y-127360276D01*
X151655495Y-127360276D01*
X151798352Y-127407895D01*
X152369780Y-127979323D01*
X152369780Y-127360276D01*
X151369780Y-126455514D02*
X151369780Y-126931704D01*
X151845971Y-126979323D01*
X151798352Y-126931704D01*
X151750733Y-126836466D01*
X151750733Y-126598371D01*
X151798352Y-126503133D01*
X151845971Y-126455514D01*
X151941209Y-126407895D01*
X152179304Y-126407895D01*
X152274542Y-126455514D01*
X152322161Y-126503133D01*
X152369780Y-126598371D01*
X152369780Y-126836466D01*
X152322161Y-126931704D01*
X152274542Y-126979323D01*
X145384780Y-122531357D02*
X144908590Y-122864690D01*
X145384780Y-123102785D02*
X144384780Y-123102785D01*
X144384780Y-122721833D01*
X144432400Y-122626595D01*
X144480019Y-122578976D01*
X144575257Y-122531357D01*
X144718114Y-122531357D01*
X144813352Y-122578976D01*
X144860971Y-122626595D01*
X144908590Y-122721833D01*
X144908590Y-123102785D01*
X144480019Y-122150404D02*
X144432400Y-122102785D01*
X144384780Y-122007547D01*
X144384780Y-121769452D01*
X144432400Y-121674214D01*
X144480019Y-121626595D01*
X144575257Y-121578976D01*
X144670495Y-121578976D01*
X144813352Y-121626595D01*
X145384780Y-122198023D01*
X145384780Y-121578976D01*
X144718114Y-120721833D02*
X145384780Y-120721833D01*
X144337161Y-120959928D02*
X145051447Y-121198023D01*
X145051447Y-120578976D01*
X151582380Y-111755157D02*
X151106190Y-112088490D01*
X151582380Y-112326585D02*
X150582380Y-112326585D01*
X150582380Y-111945633D01*
X150630000Y-111850395D01*
X150677619Y-111802776D01*
X150772857Y-111755157D01*
X150915714Y-111755157D01*
X151010952Y-111802776D01*
X151058571Y-111850395D01*
X151106190Y-111945633D01*
X151106190Y-112326585D01*
X150677619Y-111374204D02*
X150630000Y-111326585D01*
X150582380Y-111231347D01*
X150582380Y-110993252D01*
X150630000Y-110898014D01*
X150677619Y-110850395D01*
X150772857Y-110802776D01*
X150868095Y-110802776D01*
X151010952Y-110850395D01*
X151582380Y-111421823D01*
X151582380Y-110802776D01*
X150582380Y-110469442D02*
X150582380Y-109850395D01*
X150963333Y-110183728D01*
X150963333Y-110040871D01*
X151010952Y-109945633D01*
X151058571Y-109898014D01*
X151153809Y-109850395D01*
X151391904Y-109850395D01*
X151487142Y-109898014D01*
X151534761Y-109945633D01*
X151582380Y-110040871D01*
X151582380Y-110326585D01*
X151534761Y-110421823D01*
X151487142Y-110469442D01*
X155668742Y-133383280D02*
X155335409Y-132907090D01*
X155097314Y-133383280D02*
X155097314Y-132383280D01*
X155478266Y-132383280D01*
X155573504Y-132430900D01*
X155621123Y-132478519D01*
X155668742Y-132573757D01*
X155668742Y-132716614D01*
X155621123Y-132811852D01*
X155573504Y-132859471D01*
X155478266Y-132907090D01*
X155097314Y-132907090D01*
X156049695Y-132478519D02*
X156097314Y-132430900D01*
X156192552Y-132383280D01*
X156430647Y-132383280D01*
X156525885Y-132430900D01*
X156573504Y-132478519D01*
X156621123Y-132573757D01*
X156621123Y-132668995D01*
X156573504Y-132811852D01*
X156002076Y-133383280D01*
X156621123Y-133383280D01*
X157002076Y-132478519D02*
X157049695Y-132430900D01*
X157144933Y-132383280D01*
X157383028Y-132383280D01*
X157478266Y-132430900D01*
X157525885Y-132478519D01*
X157573504Y-132573757D01*
X157573504Y-132668995D01*
X157525885Y-132811852D01*
X156954457Y-133383280D01*
X157573504Y-133383280D01*
X139403080Y-122569457D02*
X138926890Y-122902790D01*
X139403080Y-123140885D02*
X138403080Y-123140885D01*
X138403080Y-122759933D01*
X138450700Y-122664695D01*
X138498319Y-122617076D01*
X138593557Y-122569457D01*
X138736414Y-122569457D01*
X138831652Y-122617076D01*
X138879271Y-122664695D01*
X138926890Y-122759933D01*
X138926890Y-123140885D01*
X138498319Y-122188504D02*
X138450700Y-122140885D01*
X138403080Y-122045647D01*
X138403080Y-121807552D01*
X138450700Y-121712314D01*
X138498319Y-121664695D01*
X138593557Y-121617076D01*
X138688795Y-121617076D01*
X138831652Y-121664695D01*
X139403080Y-122236123D01*
X139403080Y-121617076D01*
X139403080Y-120664695D02*
X139403080Y-121236123D01*
X139403080Y-120950409D02*
X138403080Y-120950409D01*
X138545938Y-121045647D01*
X138641176Y-121140885D01*
X138688795Y-121236123D01*
X142235180Y-113304557D02*
X141758990Y-113637890D01*
X142235180Y-113875985D02*
X141235180Y-113875985D01*
X141235180Y-113495033D01*
X141282800Y-113399795D01*
X141330419Y-113352176D01*
X141425657Y-113304557D01*
X141568514Y-113304557D01*
X141663752Y-113352176D01*
X141711371Y-113399795D01*
X141758990Y-113495033D01*
X141758990Y-113875985D01*
X141330419Y-112923604D02*
X141282800Y-112875985D01*
X141235180Y-112780747D01*
X141235180Y-112542652D01*
X141282800Y-112447414D01*
X141330419Y-112399795D01*
X141425657Y-112352176D01*
X141520895Y-112352176D01*
X141663752Y-112399795D01*
X142235180Y-112971223D01*
X142235180Y-112352176D01*
X141235180Y-111733128D02*
X141235180Y-111637890D01*
X141282800Y-111542652D01*
X141330419Y-111495033D01*
X141425657Y-111447414D01*
X141616133Y-111399795D01*
X141854228Y-111399795D01*
X142044704Y-111447414D01*
X142139942Y-111495033D01*
X142187561Y-111542652D01*
X142235180Y-111637890D01*
X142235180Y-111733128D01*
X142187561Y-111828366D01*
X142139942Y-111875985D01*
X142044704Y-111923604D01*
X141854228Y-111971223D01*
X141616133Y-111971223D01*
X141425657Y-111923604D01*
X141330419Y-111875985D01*
X141282800Y-111828366D01*
X141235180Y-111733128D01*
X167991642Y-117073742D02*
X167944023Y-117121361D01*
X167801166Y-117168980D01*
X167705928Y-117168980D01*
X167563071Y-117121361D01*
X167467833Y-117026123D01*
X167420214Y-116930885D01*
X167372595Y-116740409D01*
X167372595Y-116597552D01*
X167420214Y-116407076D01*
X167467833Y-116311838D01*
X167563071Y-116216600D01*
X167705928Y-116168980D01*
X167801166Y-116168980D01*
X167944023Y-116216600D01*
X167991642Y-116264219D01*
X168944023Y-117168980D02*
X168372595Y-117168980D01*
X168658309Y-117168980D02*
X168658309Y-116168980D01*
X168563071Y-116311838D01*
X168467833Y-116407076D01*
X168372595Y-116454695D01*
X169277357Y-116168980D02*
X169944023Y-116168980D01*
X169515452Y-117168980D01*
X130141742Y-137453642D02*
X130094123Y-137501261D01*
X129951266Y-137548880D01*
X129856028Y-137548880D01*
X129713171Y-137501261D01*
X129617933Y-137406023D01*
X129570314Y-137310785D01*
X129522695Y-137120309D01*
X129522695Y-136977452D01*
X129570314Y-136786976D01*
X129617933Y-136691738D01*
X129713171Y-136596500D01*
X129856028Y-136548880D01*
X129951266Y-136548880D01*
X130094123Y-136596500D01*
X130141742Y-136644119D01*
X131094123Y-137548880D02*
X130522695Y-137548880D01*
X130808409Y-137548880D02*
X130808409Y-136548880D01*
X130713171Y-136691738D01*
X130617933Y-136786976D01*
X130522695Y-136834595D01*
X131951266Y-136548880D02*
X131760790Y-136548880D01*
X131665552Y-136596500D01*
X131617933Y-136644119D01*
X131522695Y-136786976D01*
X131475076Y-136977452D01*
X131475076Y-137358404D01*
X131522695Y-137453642D01*
X131570314Y-137501261D01*
X131665552Y-137548880D01*
X131856028Y-137548880D01*
X131951266Y-137501261D01*
X131998885Y-137453642D01*
X132046504Y-137358404D01*
X132046504Y-137120309D01*
X131998885Y-137025071D01*
X131951266Y-136977452D01*
X131856028Y-136929833D01*
X131665552Y-136929833D01*
X131570314Y-136977452D01*
X131522695Y-137025071D01*
X131475076Y-137120309D01*
X132973842Y-106300542D02*
X132926223Y-106348161D01*
X132783366Y-106395780D01*
X132688128Y-106395780D01*
X132545271Y-106348161D01*
X132450033Y-106252923D01*
X132402414Y-106157685D01*
X132354795Y-105967209D01*
X132354795Y-105824352D01*
X132402414Y-105633876D01*
X132450033Y-105538638D01*
X132545271Y-105443400D01*
X132688128Y-105395780D01*
X132783366Y-105395780D01*
X132926223Y-105443400D01*
X132973842Y-105491019D01*
X133926223Y-106395780D02*
X133354795Y-106395780D01*
X133640509Y-106395780D02*
X133640509Y-105395780D01*
X133545271Y-105538638D01*
X133450033Y-105633876D01*
X133354795Y-105681495D01*
X134830985Y-105395780D02*
X134354795Y-105395780D01*
X134307176Y-105871971D01*
X134354795Y-105824352D01*
X134450033Y-105776733D01*
X134688128Y-105776733D01*
X134783366Y-105824352D01*
X134830985Y-105871971D01*
X134878604Y-105967209D01*
X134878604Y-106205304D01*
X134830985Y-106300542D01*
X134783366Y-106348161D01*
X134688128Y-106395780D01*
X134450033Y-106395780D01*
X134354795Y-106348161D01*
X134307176Y-106300542D01*
X174220142Y-139993666D02*
X174267761Y-140041285D01*
X174315380Y-140184142D01*
X174315380Y-140279380D01*
X174267761Y-140422238D01*
X174172523Y-140517476D01*
X174077285Y-140565095D01*
X173886809Y-140612714D01*
X173743952Y-140612714D01*
X173553476Y-140565095D01*
X173458238Y-140517476D01*
X173363000Y-140422238D01*
X173315380Y-140279380D01*
X173315380Y-140184142D01*
X173363000Y-140041285D01*
X173410619Y-139993666D01*
X173315380Y-139660333D02*
X173315380Y-139041285D01*
X173696333Y-139374619D01*
X173696333Y-139231761D01*
X173743952Y-139136523D01*
X173791571Y-139088904D01*
X173886809Y-139041285D01*
X174124904Y-139041285D01*
X174220142Y-139088904D01*
X174267761Y-139136523D01*
X174315380Y-139231761D01*
X174315380Y-139517476D01*
X174267761Y-139612714D01*
X174220142Y-139660333D01*
X140695442Y-144972042D02*
X140647823Y-145019661D01*
X140504966Y-145067280D01*
X140409728Y-145067280D01*
X140266871Y-145019661D01*
X140171633Y-144924423D01*
X140124014Y-144829185D01*
X140076395Y-144638709D01*
X140076395Y-144495852D01*
X140124014Y-144305376D01*
X140171633Y-144210138D01*
X140266871Y-144114900D01*
X140409728Y-144067280D01*
X140504966Y-144067280D01*
X140647823Y-144114900D01*
X140695442Y-144162519D01*
X141647823Y-145067280D02*
X141076395Y-145067280D01*
X141362109Y-145067280D02*
X141362109Y-144067280D01*
X141266871Y-144210138D01*
X141171633Y-144305376D01*
X141076395Y-144352995D01*
X142504966Y-144400614D02*
X142504966Y-145067280D01*
X142266871Y-144019661D02*
X142028776Y-144733947D01*
X142647823Y-144733947D01*
X149074142Y-101273857D02*
X149121761Y-101321476D01*
X149169380Y-101464333D01*
X149169380Y-101559571D01*
X149121761Y-101702428D01*
X149026523Y-101797666D01*
X148931285Y-101845285D01*
X148740809Y-101892904D01*
X148597952Y-101892904D01*
X148407476Y-101845285D01*
X148312238Y-101797666D01*
X148217000Y-101702428D01*
X148169380Y-101559571D01*
X148169380Y-101464333D01*
X148217000Y-101321476D01*
X148264619Y-101273857D01*
X149169380Y-100321476D02*
X149169380Y-100892904D01*
X149169380Y-100607190D02*
X148169380Y-100607190D01*
X148312238Y-100702428D01*
X148407476Y-100797666D01*
X148455095Y-100892904D01*
X148169380Y-99988142D02*
X148169380Y-99369095D01*
X148550333Y-99702428D01*
X148550333Y-99559571D01*
X148597952Y-99464333D01*
X148645571Y-99416714D01*
X148740809Y-99369095D01*
X148978904Y-99369095D01*
X149074142Y-99416714D01*
X149121761Y-99464333D01*
X149169380Y-99559571D01*
X149169380Y-99845285D01*
X149121761Y-99940523D01*
X149074142Y-99988142D01*
X184605633Y-130913142D02*
X184558014Y-130960761D01*
X184415157Y-131008380D01*
X184319919Y-131008380D01*
X184177061Y-130960761D01*
X184081823Y-130865523D01*
X184034204Y-130770285D01*
X183986585Y-130579809D01*
X183986585Y-130436952D01*
X184034204Y-130246476D01*
X184081823Y-130151238D01*
X184177061Y-130056000D01*
X184319919Y-130008380D01*
X184415157Y-130008380D01*
X184558014Y-130056000D01*
X184605633Y-130103619D01*
X185510395Y-130008380D02*
X185034204Y-130008380D01*
X184986585Y-130484571D01*
X185034204Y-130436952D01*
X185129442Y-130389333D01*
X185367538Y-130389333D01*
X185462776Y-130436952D01*
X185510395Y-130484571D01*
X185558014Y-130579809D01*
X185558014Y-130817904D01*
X185510395Y-130913142D01*
X185462776Y-130960761D01*
X185367538Y-131008380D01*
X185129442Y-131008380D01*
X185034204Y-130960761D01*
X184986585Y-130913142D01*
X184097633Y-112129842D02*
X184050014Y-112177461D01*
X183907157Y-112225080D01*
X183811919Y-112225080D01*
X183669061Y-112177461D01*
X183573823Y-112082223D01*
X183526204Y-111986985D01*
X183478585Y-111796509D01*
X183478585Y-111653652D01*
X183526204Y-111463176D01*
X183573823Y-111367938D01*
X183669061Y-111272700D01*
X183811919Y-111225080D01*
X183907157Y-111225080D01*
X184050014Y-111272700D01*
X184097633Y-111320319D01*
X184954776Y-111558414D02*
X184954776Y-112225080D01*
X184716680Y-111177461D02*
X184478585Y-111891747D01*
X185097633Y-111891747D01*
X183994466Y-119101180D02*
X183994466Y-119815466D01*
X183946847Y-119958323D01*
X183851609Y-120053561D01*
X183708752Y-120101180D01*
X183613514Y-120101180D01*
X184375419Y-119101180D02*
X185042085Y-119101180D01*
X184613514Y-120101180D01*
X184159566Y-124320880D02*
X184159566Y-125035166D01*
X184111947Y-125178023D01*
X184016709Y-125273261D01*
X183873852Y-125320880D01*
X183778614Y-125320880D01*
X185064328Y-124320880D02*
X184873852Y-124320880D01*
X184778614Y-124368500D01*
X184730995Y-124416119D01*
X184635757Y-124558976D01*
X184588138Y-124749452D01*
X184588138Y-125130404D01*
X184635757Y-125225642D01*
X184683376Y-125273261D01*
X184778614Y-125320880D01*
X184969090Y-125320880D01*
X185064328Y-125273261D01*
X185111947Y-125225642D01*
X185159566Y-125130404D01*
X185159566Y-124892309D01*
X185111947Y-124797071D01*
X185064328Y-124749452D01*
X184969090Y-124701833D01*
X184778614Y-124701833D01*
X184683376Y-124749452D01*
X184635757Y-124797071D01*
X184588138Y-124892309D01*
X198040666Y-123622380D02*
X198040666Y-124336666D01*
X197993047Y-124479523D01*
X197897809Y-124574761D01*
X197754952Y-124622380D01*
X197659714Y-124622380D01*
X198993047Y-123622380D02*
X198516857Y-123622380D01*
X198469238Y-124098571D01*
X198516857Y-124050952D01*
X198612095Y-124003333D01*
X198850190Y-124003333D01*
X198945428Y-124050952D01*
X198993047Y-124098571D01*
X199040666Y-124193809D01*
X199040666Y-124431904D01*
X198993047Y-124527142D01*
X198945428Y-124574761D01*
X198850190Y-124622380D01*
X198612095Y-124622380D01*
X198516857Y-124574761D01*
X198469238Y-124527142D01*
X125269666Y-129210380D02*
X125269666Y-129924666D01*
X125222047Y-130067523D01*
X125126809Y-130162761D01*
X124983952Y-130210380D01*
X124888714Y-130210380D01*
X126174428Y-129543714D02*
X126174428Y-130210380D01*
X125936333Y-129162761D02*
X125698238Y-129877047D01*
X126317285Y-129877047D01*
X198040666Y-132512380D02*
X198040666Y-133226666D01*
X197993047Y-133369523D01*
X197897809Y-133464761D01*
X197754952Y-133512380D01*
X197659714Y-133512380D01*
X198421619Y-132512380D02*
X199040666Y-132512380D01*
X198707333Y-132893333D01*
X198850190Y-132893333D01*
X198945428Y-132940952D01*
X198993047Y-132988571D01*
X199040666Y-133083809D01*
X199040666Y-133321904D01*
X198993047Y-133417142D01*
X198945428Y-133464761D01*
X198850190Y-133512380D01*
X198564476Y-133512380D01*
X198469238Y-133464761D01*
X198421619Y-133417142D01*
X125269666Y-121336380D02*
X125269666Y-122050666D01*
X125222047Y-122193523D01*
X125126809Y-122288761D01*
X124983952Y-122336380D01*
X124888714Y-122336380D01*
X125698238Y-121431619D02*
X125745857Y-121384000D01*
X125841095Y-121336380D01*
X126079190Y-121336380D01*
X126174428Y-121384000D01*
X126222047Y-121431619D01*
X126269666Y-121526857D01*
X126269666Y-121622095D01*
X126222047Y-121764952D01*
X125650619Y-122336380D01*
X126269666Y-122336380D01*
X198040666Y-114732380D02*
X198040666Y-115446666D01*
X197993047Y-115589523D01*
X197897809Y-115684761D01*
X197754952Y-115732380D01*
X197659714Y-115732380D01*
X199040666Y-115732380D02*
X198469238Y-115732380D01*
X198754952Y-115732380D02*
X198754952Y-114732380D01*
X198659714Y-114875238D01*
X198564476Y-114970476D01*
X198469238Y-115018095D01*
X175034771Y-131277019D02*
X174939533Y-131229400D01*
X174844295Y-131134161D01*
X174701438Y-130991304D01*
X174606200Y-130943685D01*
X174510961Y-130943685D01*
X174558580Y-131181780D02*
X174463342Y-131134161D01*
X174368104Y-131038923D01*
X174320485Y-130848447D01*
X174320485Y-130515114D01*
X174368104Y-130324638D01*
X174463342Y-130229400D01*
X174558580Y-130181780D01*
X174749057Y-130181780D01*
X174844295Y-130229400D01*
X174939533Y-130324638D01*
X174987152Y-130515114D01*
X174987152Y-130848447D01*
X174939533Y-131038923D01*
X174844295Y-131134161D01*
X174749057Y-131181780D01*
X174558580Y-131181780D01*
X175939533Y-131181780D02*
X175368104Y-131181780D01*
X175653819Y-131181780D02*
X175653819Y-130181780D01*
X175558580Y-130324638D01*
X175463342Y-130419876D01*
X175368104Y-130467495D01*
X176558580Y-130181780D02*
X176653819Y-130181780D01*
X176749057Y-130229400D01*
X176796676Y-130277019D01*
X176844295Y-130372257D01*
X176891914Y-130562733D01*
X176891914Y-130800828D01*
X176844295Y-130991304D01*
X176796676Y-131086542D01*
X176749057Y-131134161D01*
X176653819Y-131181780D01*
X176558580Y-131181780D01*
X176463342Y-131134161D01*
X176415723Y-131086542D01*
X176368104Y-130991304D01*
X176320485Y-130800828D01*
X176320485Y-130562733D01*
X176368104Y-130372257D01*
X176415723Y-130277019D01*
X176463342Y-130229400D01*
X176558580Y-130181780D01*
X155173133Y-111793280D02*
X154839800Y-111317090D01*
X154601704Y-111793280D02*
X154601704Y-110793280D01*
X154982657Y-110793280D01*
X155077895Y-110840900D01*
X155125514Y-110888519D01*
X155173133Y-110983757D01*
X155173133Y-111126614D01*
X155125514Y-111221852D01*
X155077895Y-111269471D01*
X154982657Y-111317090D01*
X154601704Y-111317090D01*
X156030276Y-111126614D02*
X156030276Y-111793280D01*
X155792180Y-110745661D02*
X155554085Y-111459947D01*
X156173133Y-111459947D01*
X166244542Y-128843066D02*
X166292161Y-128890685D01*
X166339780Y-129033542D01*
X166339780Y-129128780D01*
X166292161Y-129271638D01*
X166196923Y-129366876D01*
X166101685Y-129414495D01*
X165911209Y-129462114D01*
X165768352Y-129462114D01*
X165577876Y-129414495D01*
X165482638Y-129366876D01*
X165387400Y-129271638D01*
X165339780Y-129128780D01*
X165339780Y-129033542D01*
X165387400Y-128890685D01*
X165435019Y-128843066D01*
X165339780Y-128509733D02*
X165339780Y-127843066D01*
X166339780Y-128271638D01*
X171032442Y-120784857D02*
X171080061Y-120832476D01*
X171127680Y-120975333D01*
X171127680Y-121070571D01*
X171080061Y-121213428D01*
X170984823Y-121308666D01*
X170889585Y-121356285D01*
X170699109Y-121403904D01*
X170556252Y-121403904D01*
X170365776Y-121356285D01*
X170270538Y-121308666D01*
X170175300Y-121213428D01*
X170127680Y-121070571D01*
X170127680Y-120975333D01*
X170175300Y-120832476D01*
X170222919Y-120784857D01*
X171127680Y-119832476D02*
X171127680Y-120403904D01*
X171127680Y-120118190D02*
X170127680Y-120118190D01*
X170270538Y-120213428D01*
X170365776Y-120308666D01*
X170413395Y-120403904D01*
X170222919Y-119451523D02*
X170175300Y-119403904D01*
X170127680Y-119308666D01*
X170127680Y-119070571D01*
X170175300Y-118975333D01*
X170222919Y-118927714D01*
X170318157Y-118880095D01*
X170413395Y-118880095D01*
X170556252Y-118927714D01*
X171127680Y-119499142D01*
X171127680Y-118880095D01*
X132660380Y-119241866D02*
X132184190Y-119575200D01*
X132660380Y-119813295D02*
X131660380Y-119813295D01*
X131660380Y-119432342D01*
X131708000Y-119337104D01*
X131755619Y-119289485D01*
X131850857Y-119241866D01*
X131993714Y-119241866D01*
X132088952Y-119289485D01*
X132136571Y-119337104D01*
X132184190Y-119432342D01*
X132184190Y-119813295D01*
X132660380Y-118289485D02*
X132660380Y-118860914D01*
X132660380Y-118575200D02*
X131660380Y-118575200D01*
X131803238Y-118670438D01*
X131898476Y-118765676D01*
X131946095Y-118860914D01*
X173575742Y-114752380D02*
X173242409Y-114276190D01*
X173004314Y-114752380D02*
X173004314Y-113752380D01*
X173385266Y-113752380D01*
X173480504Y-113800000D01*
X173528123Y-113847619D01*
X173575742Y-113942857D01*
X173575742Y-114085714D01*
X173528123Y-114180952D01*
X173480504Y-114228571D01*
X173385266Y-114276190D01*
X173004314Y-114276190D01*
X174528123Y-114752380D02*
X173956695Y-114752380D01*
X174242409Y-114752380D02*
X174242409Y-113752380D01*
X174147171Y-113895238D01*
X174051933Y-113990476D01*
X173956695Y-114038095D01*
X174909076Y-113847619D02*
X174956695Y-113800000D01*
X175051933Y-113752380D01*
X175290028Y-113752380D01*
X175385266Y-113800000D01*
X175432885Y-113847619D01*
X175480504Y-113942857D01*
X175480504Y-114038095D01*
X175432885Y-114180952D01*
X174861457Y-114752380D01*
X175480504Y-114752380D01*
X170352980Y-109278657D02*
X169876790Y-109611990D01*
X170352980Y-109850085D02*
X169352980Y-109850085D01*
X169352980Y-109469133D01*
X169400600Y-109373895D01*
X169448219Y-109326276D01*
X169543457Y-109278657D01*
X169686314Y-109278657D01*
X169781552Y-109326276D01*
X169829171Y-109373895D01*
X169876790Y-109469133D01*
X169876790Y-109850085D01*
X170352980Y-108326276D02*
X170352980Y-108897704D01*
X170352980Y-108611990D02*
X169352980Y-108611990D01*
X169495838Y-108707228D01*
X169591076Y-108802466D01*
X169638695Y-108897704D01*
X170352980Y-107373895D02*
X170352980Y-107945323D01*
X170352980Y-107659609D02*
X169352980Y-107659609D01*
X169495838Y-107754847D01*
X169591076Y-107850085D01*
X169638695Y-107945323D01*
X163977580Y-136050257D02*
X163501390Y-136383590D01*
X163977580Y-136621685D02*
X162977580Y-136621685D01*
X162977580Y-136240733D01*
X163025200Y-136145495D01*
X163072819Y-136097876D01*
X163168057Y-136050257D01*
X163310914Y-136050257D01*
X163406152Y-136097876D01*
X163453771Y-136145495D01*
X163501390Y-136240733D01*
X163501390Y-136621685D01*
X163977580Y-135097876D02*
X163977580Y-135669304D01*
X163977580Y-135383590D02*
X162977580Y-135383590D01*
X163120438Y-135478828D01*
X163215676Y-135574066D01*
X163263295Y-135669304D01*
X162977580Y-134478828D02*
X162977580Y-134383590D01*
X163025200Y-134288352D01*
X163072819Y-134240733D01*
X163168057Y-134193114D01*
X163358533Y-134145495D01*
X163596628Y-134145495D01*
X163787104Y-134193114D01*
X163882342Y-134240733D01*
X163929961Y-134288352D01*
X163977580Y-134383590D01*
X163977580Y-134478828D01*
X163929961Y-134574066D01*
X163882342Y-134621685D01*
X163787104Y-134669304D01*
X163596628Y-134716923D01*
X163358533Y-134716923D01*
X163168057Y-134669304D01*
X163072819Y-134621685D01*
X163025200Y-134574066D01*
X162977580Y-134478828D01*
X169044880Y-120918266D02*
X168568690Y-121251600D01*
X169044880Y-121489695D02*
X168044880Y-121489695D01*
X168044880Y-121108742D01*
X168092500Y-121013504D01*
X168140119Y-120965885D01*
X168235357Y-120918266D01*
X168378214Y-120918266D01*
X168473452Y-120965885D01*
X168521071Y-121013504D01*
X168568690Y-121108742D01*
X168568690Y-121489695D01*
X169044880Y-120442076D02*
X169044880Y-120251600D01*
X168997261Y-120156361D01*
X168949642Y-120108742D01*
X168806785Y-120013504D01*
X168616309Y-119965885D01*
X168235357Y-119965885D01*
X168140119Y-120013504D01*
X168092500Y-120061123D01*
X168044880Y-120156361D01*
X168044880Y-120346838D01*
X168092500Y-120442076D01*
X168140119Y-120489695D01*
X168235357Y-120537314D01*
X168473452Y-120537314D01*
X168568690Y-120489695D01*
X168616309Y-120442076D01*
X168663928Y-120346838D01*
X168663928Y-120156361D01*
X168616309Y-120061123D01*
X168568690Y-120013504D01*
X168473452Y-119965885D01*
X167177980Y-120880166D02*
X166701790Y-121213500D01*
X167177980Y-121451595D02*
X166177980Y-121451595D01*
X166177980Y-121070642D01*
X166225600Y-120975404D01*
X166273219Y-120927785D01*
X166368457Y-120880166D01*
X166511314Y-120880166D01*
X166606552Y-120927785D01*
X166654171Y-120975404D01*
X166701790Y-121070642D01*
X166701790Y-121451595D01*
X166606552Y-120308738D02*
X166558933Y-120403976D01*
X166511314Y-120451595D01*
X166416076Y-120499214D01*
X166368457Y-120499214D01*
X166273219Y-120451595D01*
X166225600Y-120403976D01*
X166177980Y-120308738D01*
X166177980Y-120118261D01*
X166225600Y-120023023D01*
X166273219Y-119975404D01*
X166368457Y-119927785D01*
X166416076Y-119927785D01*
X166511314Y-119975404D01*
X166558933Y-120023023D01*
X166606552Y-120118261D01*
X166606552Y-120308738D01*
X166654171Y-120403976D01*
X166701790Y-120451595D01*
X166797028Y-120499214D01*
X166987504Y-120499214D01*
X167082742Y-120451595D01*
X167130361Y-120403976D01*
X167177980Y-120308738D01*
X167177980Y-120118261D01*
X167130361Y-120023023D01*
X167082742Y-119975404D01*
X166987504Y-119927785D01*
X166797028Y-119927785D01*
X166701790Y-119975404D01*
X166654171Y-120023023D01*
X166606552Y-120118261D01*
X161856680Y-114038166D02*
X161380490Y-114371500D01*
X161856680Y-114609595D02*
X160856680Y-114609595D01*
X160856680Y-114228642D01*
X160904300Y-114133404D01*
X160951919Y-114085785D01*
X161047157Y-114038166D01*
X161190014Y-114038166D01*
X161285252Y-114085785D01*
X161332871Y-114133404D01*
X161380490Y-114228642D01*
X161380490Y-114609595D01*
X160856680Y-113704833D02*
X160856680Y-113038166D01*
X161856680Y-113466738D01*
X151506180Y-133503966D02*
X151029990Y-133837300D01*
X151506180Y-134075395D02*
X150506180Y-134075395D01*
X150506180Y-133694442D01*
X150553800Y-133599204D01*
X150601419Y-133551585D01*
X150696657Y-133503966D01*
X150839514Y-133503966D01*
X150934752Y-133551585D01*
X150982371Y-133599204D01*
X151029990Y-133694442D01*
X151029990Y-134075395D01*
X150506180Y-132646823D02*
X150506180Y-132837300D01*
X150553800Y-132932538D01*
X150601419Y-132980157D01*
X150744276Y-133075395D01*
X150934752Y-133123014D01*
X151315704Y-133123014D01*
X151410942Y-133075395D01*
X151458561Y-133027776D01*
X151506180Y-132932538D01*
X151506180Y-132742061D01*
X151458561Y-132646823D01*
X151410942Y-132599204D01*
X151315704Y-132551585D01*
X151077609Y-132551585D01*
X150982371Y-132599204D01*
X150934752Y-132646823D01*
X150887133Y-132742061D01*
X150887133Y-132932538D01*
X150934752Y-133027776D01*
X150982371Y-133075395D01*
X151077609Y-133123014D01*
X145295880Y-128201966D02*
X144819690Y-128535300D01*
X145295880Y-128773395D02*
X144295880Y-128773395D01*
X144295880Y-128392442D01*
X144343500Y-128297204D01*
X144391119Y-128249585D01*
X144486357Y-128201966D01*
X144629214Y-128201966D01*
X144724452Y-128249585D01*
X144772071Y-128297204D01*
X144819690Y-128392442D01*
X144819690Y-128773395D01*
X144295880Y-127297204D02*
X144295880Y-127773395D01*
X144772071Y-127821014D01*
X144724452Y-127773395D01*
X144676833Y-127678157D01*
X144676833Y-127440061D01*
X144724452Y-127344823D01*
X144772071Y-127297204D01*
X144867309Y-127249585D01*
X145105404Y-127249585D01*
X145200642Y-127297204D01*
X145248261Y-127344823D01*
X145295880Y-127440061D01*
X145295880Y-127678157D01*
X145248261Y-127773395D01*
X145200642Y-127821014D01*
X139479280Y-128278166D02*
X139003090Y-128611500D01*
X139479280Y-128849595D02*
X138479280Y-128849595D01*
X138479280Y-128468642D01*
X138526900Y-128373404D01*
X138574519Y-128325785D01*
X138669757Y-128278166D01*
X138812614Y-128278166D01*
X138907852Y-128325785D01*
X138955471Y-128373404D01*
X139003090Y-128468642D01*
X139003090Y-128849595D01*
X138574519Y-127897214D02*
X138526900Y-127849595D01*
X138479280Y-127754357D01*
X138479280Y-127516261D01*
X138526900Y-127421023D01*
X138574519Y-127373404D01*
X138669757Y-127325785D01*
X138764995Y-127325785D01*
X138907852Y-127373404D01*
X139479280Y-127944833D01*
X139479280Y-127325785D01*
X169025819Y-131895838D02*
X168978200Y-131991076D01*
X168882961Y-132086314D01*
X168740104Y-132229171D01*
X168692485Y-132324409D01*
X168692485Y-132419647D01*
X168930580Y-132372028D02*
X168882961Y-132467266D01*
X168787723Y-132562504D01*
X168597247Y-132610123D01*
X168263914Y-132610123D01*
X168073438Y-132562504D01*
X167978200Y-132467266D01*
X167930580Y-132372028D01*
X167930580Y-132181552D01*
X167978200Y-132086314D01*
X168073438Y-131991076D01*
X168263914Y-131943457D01*
X168597247Y-131943457D01*
X168787723Y-131991076D01*
X168882961Y-132086314D01*
X168930580Y-132181552D01*
X168930580Y-132372028D01*
X168359152Y-131372028D02*
X168311533Y-131467266D01*
X168263914Y-131514885D01*
X168168676Y-131562504D01*
X168121057Y-131562504D01*
X168025819Y-131514885D01*
X167978200Y-131467266D01*
X167930580Y-131372028D01*
X167930580Y-131181552D01*
X167978200Y-131086314D01*
X168025819Y-131038695D01*
X168121057Y-130991076D01*
X168168676Y-130991076D01*
X168263914Y-131038695D01*
X168311533Y-131086314D01*
X168359152Y-131181552D01*
X168359152Y-131372028D01*
X168406771Y-131467266D01*
X168454390Y-131514885D01*
X168549628Y-131562504D01*
X168740104Y-131562504D01*
X168835342Y-131514885D01*
X168882961Y-131467266D01*
X168930580Y-131372028D01*
X168930580Y-131181552D01*
X168882961Y-131086314D01*
X168835342Y-131038695D01*
X168740104Y-130991076D01*
X168549628Y-130991076D01*
X168454390Y-131038695D01*
X168406771Y-131086314D01*
X168359152Y-131181552D01*
X173724819Y-112109238D02*
X173677200Y-112204476D01*
X173581961Y-112299714D01*
X173439104Y-112442571D01*
X173391485Y-112537809D01*
X173391485Y-112633047D01*
X173629580Y-112585428D02*
X173581961Y-112680666D01*
X173486723Y-112775904D01*
X173296247Y-112823523D01*
X172962914Y-112823523D01*
X172772438Y-112775904D01*
X172677200Y-112680666D01*
X172629580Y-112585428D01*
X172629580Y-112394952D01*
X172677200Y-112299714D01*
X172772438Y-112204476D01*
X172962914Y-112156857D01*
X173296247Y-112156857D01*
X173486723Y-112204476D01*
X173581961Y-112299714D01*
X173629580Y-112394952D01*
X173629580Y-112585428D01*
X172629580Y-111823523D02*
X172629580Y-111156857D01*
X173629580Y-111585428D01*
X164326819Y-131972038D02*
X164279200Y-132067276D01*
X164183961Y-132162514D01*
X164041104Y-132305371D01*
X163993485Y-132400609D01*
X163993485Y-132495847D01*
X164231580Y-132448228D02*
X164183961Y-132543466D01*
X164088723Y-132638704D01*
X163898247Y-132686323D01*
X163564914Y-132686323D01*
X163374438Y-132638704D01*
X163279200Y-132543466D01*
X163231580Y-132448228D01*
X163231580Y-132257752D01*
X163279200Y-132162514D01*
X163374438Y-132067276D01*
X163564914Y-132019657D01*
X163898247Y-132019657D01*
X164088723Y-132067276D01*
X164183961Y-132162514D01*
X164231580Y-132257752D01*
X164231580Y-132448228D01*
X163231580Y-131162514D02*
X163231580Y-131352990D01*
X163279200Y-131448228D01*
X163326819Y-131495847D01*
X163469676Y-131591085D01*
X163660152Y-131638704D01*
X164041104Y-131638704D01*
X164136342Y-131591085D01*
X164183961Y-131543466D01*
X164231580Y-131448228D01*
X164231580Y-131257752D01*
X164183961Y-131162514D01*
X164136342Y-131114895D01*
X164041104Y-131067276D01*
X163803009Y-131067276D01*
X163707771Y-131114895D01*
X163660152Y-131162514D01*
X163612533Y-131257752D01*
X163612533Y-131448228D01*
X163660152Y-131543466D01*
X163707771Y-131591085D01*
X163803009Y-131638704D01*
X130454495Y-100629980D02*
X130454495Y-99629980D01*
X130454495Y-100106171D02*
X131025923Y-100106171D01*
X131025923Y-100629980D02*
X131025923Y-99629980D01*
X131930685Y-99963314D02*
X131930685Y-100629980D01*
X131692590Y-99582361D02*
X131454495Y-100296647D01*
X132073542Y-100296647D01*
X130124295Y-144114780D02*
X130124295Y-143114780D01*
X130124295Y-143590971D02*
X130695723Y-143590971D01*
X130695723Y-144114780D02*
X130695723Y-143114780D01*
X131076676Y-143114780D02*
X131695723Y-143114780D01*
X131362390Y-143495733D01*
X131505247Y-143495733D01*
X131600485Y-143543352D01*
X131648104Y-143590971D01*
X131695723Y-143686209D01*
X131695723Y-143924304D01*
X131648104Y-144019542D01*
X131600485Y-144067161D01*
X131505247Y-144114780D01*
X131219533Y-144114780D01*
X131124295Y-144067161D01*
X131076676Y-144019542D01*
X193954495Y-144013180D02*
X193954495Y-143013180D01*
X193954495Y-143489371D02*
X194525923Y-143489371D01*
X194525923Y-144013180D02*
X194525923Y-143013180D01*
X194954495Y-143108419D02*
X195002114Y-143060800D01*
X195097352Y-143013180D01*
X195335447Y-143013180D01*
X195430685Y-143060800D01*
X195478304Y-143108419D01*
X195525923Y-143203657D01*
X195525923Y-143298895D01*
X195478304Y-143441752D01*
X194906876Y-144013180D01*
X195525923Y-144013180D01*
X194056095Y-100782380D02*
X194056095Y-99782380D01*
X194056095Y-100258571D02*
X194627523Y-100258571D01*
X194627523Y-100782380D02*
X194627523Y-99782380D01*
X195627523Y-100782380D02*
X195056095Y-100782380D01*
X195341809Y-100782380D02*
X195341809Y-99782380D01*
X195246571Y-99925238D01*
X195151333Y-100020476D01*
X195056095Y-100068095D01*
X129211342Y-128030266D02*
X129258961Y-128077885D01*
X129306580Y-128220742D01*
X129306580Y-128315980D01*
X129258961Y-128458838D01*
X129163723Y-128554076D01*
X129068485Y-128601695D01*
X128878009Y-128649314D01*
X128735152Y-128649314D01*
X128544676Y-128601695D01*
X128449438Y-128554076D01*
X128354200Y-128458838D01*
X128306580Y-128315980D01*
X128306580Y-128220742D01*
X128354200Y-128077885D01*
X128401819Y-128030266D01*
X128401819Y-127649314D02*
X128354200Y-127601695D01*
X128306580Y-127506457D01*
X128306580Y-127268361D01*
X128354200Y-127173123D01*
X128401819Y-127125504D01*
X128497057Y-127077885D01*
X128592295Y-127077885D01*
X128735152Y-127125504D01*
X129306580Y-127696933D01*
X129306580Y-127077885D01*
M02*
