G04 #@! TF.GenerationSoftware,KiCad,Pcbnew,5.1.5-52549c5~84~ubuntu19.10.1*
G04 #@! TF.CreationDate,2019-12-01T21:11:49+01:00*
G04 #@! TF.ProjectId,userport_expander,75736572-706f-4727-945f-657870616e64,rev?*
G04 #@! TF.SameCoordinates,Original*
G04 #@! TF.FileFunction,Soldermask,Top*
G04 #@! TF.FilePolarity,Negative*
%FSLAX46Y46*%
G04 Gerber Fmt 4.6, Leading zero omitted, Abs format (unit mm)*
G04 Created by KiCad (PCBNEW 5.1.5-52549c5~84~ubuntu19.10.1) date 2019-12-01 21:11:49*
%MOMM*%
%LPD*%
G04 APERTURE LIST*
%ADD10C,0.100000*%
G04 APERTURE END LIST*
D10*
G36*
X144831000Y-151051000D02*
G01*
X142529000Y-151051000D01*
X142529000Y-144949000D01*
X144831000Y-144949000D01*
X144831000Y-151051000D01*
G37*
G36*
X140871000Y-151051000D02*
G01*
X138569000Y-151051000D01*
X138569000Y-144949000D01*
X140871000Y-144949000D01*
X140871000Y-151051000D01*
G37*
G36*
X101271000Y-151051000D02*
G01*
X98969000Y-151051000D01*
X98969000Y-144949000D01*
X101271000Y-144949000D01*
X101271000Y-151051000D01*
G37*
G36*
X105231000Y-151051000D02*
G01*
X102929000Y-151051000D01*
X102929000Y-144949000D01*
X105231000Y-144949000D01*
X105231000Y-151051000D01*
G37*
G36*
X109191000Y-151051000D02*
G01*
X106889000Y-151051000D01*
X106889000Y-144949000D01*
X109191000Y-144949000D01*
X109191000Y-151051000D01*
G37*
G36*
X113151000Y-151051000D02*
G01*
X110849000Y-151051000D01*
X110849000Y-144949000D01*
X113151000Y-144949000D01*
X113151000Y-151051000D01*
G37*
G36*
X117111000Y-151051000D02*
G01*
X114809000Y-151051000D01*
X114809000Y-144949000D01*
X117111000Y-144949000D01*
X117111000Y-151051000D01*
G37*
G36*
X125031000Y-151051000D02*
G01*
X122729000Y-151051000D01*
X122729000Y-144949000D01*
X125031000Y-144949000D01*
X125031000Y-151051000D01*
G37*
G36*
X128991000Y-151051000D02*
G01*
X126689000Y-151051000D01*
X126689000Y-144949000D01*
X128991000Y-144949000D01*
X128991000Y-151051000D01*
G37*
G36*
X132951000Y-151051000D02*
G01*
X130649000Y-151051000D01*
X130649000Y-144949000D01*
X132951000Y-144949000D01*
X132951000Y-151051000D01*
G37*
G36*
X136911000Y-151051000D02*
G01*
X134609000Y-151051000D01*
X134609000Y-144949000D01*
X136911000Y-144949000D01*
X136911000Y-151051000D01*
G37*
G36*
X121071000Y-151051000D02*
G01*
X118769000Y-151051000D01*
X118769000Y-144949000D01*
X121071000Y-144949000D01*
X121071000Y-151051000D01*
G37*
G36*
X116346822Y-130561313D02*
G01*
X116507241Y-130609976D01*
X116655077Y-130688995D01*
X116758834Y-130774147D01*
X116784659Y-130795341D01*
X116891004Y-130924922D01*
X116891005Y-130924924D01*
X116970024Y-131072758D01*
X117018687Y-131233177D01*
X117031000Y-131358196D01*
X117031000Y-132241803D01*
X117018687Y-132366822D01*
X116970024Y-132527242D01*
X116899114Y-132659906D01*
X116891004Y-132675078D01*
X116784659Y-132804659D01*
X116655078Y-132911004D01*
X116655076Y-132911005D01*
X116507242Y-132990024D01*
X116346823Y-133038687D01*
X116180000Y-133055117D01*
X116013178Y-133038687D01*
X115852759Y-132990024D01*
X115704925Y-132911005D01*
X115704923Y-132911004D01*
X115575342Y-132804659D01*
X115468997Y-132675078D01*
X115460887Y-132659906D01*
X115389977Y-132527242D01*
X115341314Y-132366823D01*
X115329000Y-132241803D01*
X115329000Y-131358197D01*
X115341313Y-131233178D01*
X115389976Y-131072759D01*
X115468995Y-130924923D01*
X115575341Y-130795341D01*
X115601166Y-130774147D01*
X115704922Y-130688996D01*
X115720094Y-130680886D01*
X115852758Y-130609976D01*
X116013177Y-130561313D01*
X116180000Y-130544883D01*
X116346822Y-130561313D01*
G37*
G36*
X111266822Y-130561313D02*
G01*
X111427241Y-130609976D01*
X111575077Y-130688995D01*
X111678834Y-130774147D01*
X111704659Y-130795341D01*
X111811004Y-130924922D01*
X111811005Y-130924924D01*
X111890024Y-131072758D01*
X111938687Y-131233177D01*
X111951000Y-131358196D01*
X111951000Y-132241803D01*
X111938687Y-132366822D01*
X111890024Y-132527242D01*
X111819114Y-132659906D01*
X111811004Y-132675078D01*
X111704659Y-132804659D01*
X111575078Y-132911004D01*
X111575076Y-132911005D01*
X111427242Y-132990024D01*
X111266823Y-133038687D01*
X111100000Y-133055117D01*
X110933178Y-133038687D01*
X110772759Y-132990024D01*
X110624925Y-132911005D01*
X110624923Y-132911004D01*
X110495342Y-132804659D01*
X110388997Y-132675078D01*
X110380887Y-132659906D01*
X110309977Y-132527242D01*
X110261314Y-132366823D01*
X110249000Y-132241803D01*
X110249000Y-131358197D01*
X110261313Y-131233178D01*
X110309976Y-131072759D01*
X110388995Y-130924923D01*
X110495341Y-130795341D01*
X110521166Y-130774147D01*
X110624922Y-130688996D01*
X110640094Y-130680886D01*
X110772758Y-130609976D01*
X110933177Y-130561313D01*
X111100000Y-130544883D01*
X111266822Y-130561313D01*
G37*
G36*
X113806822Y-130561313D02*
G01*
X113967241Y-130609976D01*
X114115077Y-130688995D01*
X114218834Y-130774147D01*
X114244659Y-130795341D01*
X114351004Y-130924922D01*
X114351005Y-130924924D01*
X114430024Y-131072758D01*
X114478687Y-131233177D01*
X114491000Y-131358196D01*
X114491000Y-132241803D01*
X114478687Y-132366822D01*
X114430024Y-132527242D01*
X114359114Y-132659906D01*
X114351004Y-132675078D01*
X114244659Y-132804659D01*
X114115078Y-132911004D01*
X114115076Y-132911005D01*
X113967242Y-132990024D01*
X113806823Y-133038687D01*
X113640000Y-133055117D01*
X113473178Y-133038687D01*
X113312759Y-132990024D01*
X113164925Y-132911005D01*
X113164923Y-132911004D01*
X113035342Y-132804659D01*
X112928997Y-132675078D01*
X112920887Y-132659906D01*
X112849977Y-132527242D01*
X112801314Y-132366823D01*
X112789000Y-132241803D01*
X112789000Y-131358197D01*
X112801313Y-131233178D01*
X112849976Y-131072759D01*
X112928995Y-130924923D01*
X113035341Y-130795341D01*
X113061166Y-130774147D01*
X113164922Y-130688996D01*
X113180094Y-130680886D01*
X113312758Y-130609976D01*
X113473177Y-130561313D01*
X113640000Y-130544883D01*
X113806822Y-130561313D01*
G37*
G36*
X108726822Y-130561313D02*
G01*
X108887241Y-130609976D01*
X109035077Y-130688995D01*
X109138834Y-130774147D01*
X109164659Y-130795341D01*
X109271004Y-130924922D01*
X109271005Y-130924924D01*
X109350024Y-131072758D01*
X109398687Y-131233177D01*
X109411000Y-131358196D01*
X109411000Y-132241803D01*
X109398687Y-132366822D01*
X109350024Y-132527242D01*
X109279114Y-132659906D01*
X109271004Y-132675078D01*
X109164659Y-132804659D01*
X109035078Y-132911004D01*
X109035076Y-132911005D01*
X108887242Y-132990024D01*
X108726823Y-133038687D01*
X108560000Y-133055117D01*
X108393178Y-133038687D01*
X108232759Y-132990024D01*
X108084925Y-132911005D01*
X108084923Y-132911004D01*
X107955342Y-132804659D01*
X107848997Y-132675078D01*
X107840887Y-132659906D01*
X107769977Y-132527242D01*
X107721314Y-132366823D01*
X107709000Y-132241803D01*
X107709000Y-131358197D01*
X107721313Y-131233178D01*
X107769976Y-131072759D01*
X107848995Y-130924923D01*
X107955341Y-130795341D01*
X107981166Y-130774147D01*
X108084922Y-130688996D01*
X108100094Y-130680886D01*
X108232758Y-130609976D01*
X108393177Y-130561313D01*
X108560000Y-130544883D01*
X108726822Y-130561313D01*
G37*
G36*
X106186822Y-130561313D02*
G01*
X106347241Y-130609976D01*
X106495077Y-130688995D01*
X106598834Y-130774147D01*
X106624659Y-130795341D01*
X106731004Y-130924922D01*
X106731005Y-130924924D01*
X106810024Y-131072758D01*
X106858687Y-131233177D01*
X106871000Y-131358196D01*
X106871000Y-132241803D01*
X106858687Y-132366822D01*
X106810024Y-132527242D01*
X106739114Y-132659906D01*
X106731004Y-132675078D01*
X106624659Y-132804659D01*
X106495078Y-132911004D01*
X106495076Y-132911005D01*
X106347242Y-132990024D01*
X106186823Y-133038687D01*
X106020000Y-133055117D01*
X105853178Y-133038687D01*
X105692759Y-132990024D01*
X105544925Y-132911005D01*
X105544923Y-132911004D01*
X105415342Y-132804659D01*
X105308997Y-132675078D01*
X105300887Y-132659906D01*
X105229977Y-132527242D01*
X105181314Y-132366823D01*
X105169000Y-132241803D01*
X105169000Y-131358197D01*
X105181313Y-131233178D01*
X105229976Y-131072759D01*
X105308995Y-130924923D01*
X105415341Y-130795341D01*
X105441166Y-130774147D01*
X105544922Y-130688996D01*
X105560094Y-130680886D01*
X105692758Y-130609976D01*
X105853177Y-130561313D01*
X106020000Y-130544883D01*
X106186822Y-130561313D01*
G37*
G36*
X103646822Y-130561313D02*
G01*
X103807241Y-130609976D01*
X103955077Y-130688995D01*
X104058834Y-130774147D01*
X104084659Y-130795341D01*
X104191004Y-130924922D01*
X104191005Y-130924924D01*
X104270024Y-131072758D01*
X104318687Y-131233177D01*
X104331000Y-131358196D01*
X104331000Y-132241803D01*
X104318687Y-132366822D01*
X104270024Y-132527242D01*
X104199114Y-132659906D01*
X104191004Y-132675078D01*
X104084659Y-132804659D01*
X103955078Y-132911004D01*
X103955076Y-132911005D01*
X103807242Y-132990024D01*
X103646823Y-133038687D01*
X103480000Y-133055117D01*
X103313178Y-133038687D01*
X103152759Y-132990024D01*
X103004925Y-132911005D01*
X103004923Y-132911004D01*
X102875342Y-132804659D01*
X102768997Y-132675078D01*
X102760887Y-132659906D01*
X102689977Y-132527242D01*
X102641314Y-132366823D01*
X102629000Y-132241803D01*
X102629000Y-131358197D01*
X102641313Y-131233178D01*
X102689976Y-131072759D01*
X102768995Y-130924923D01*
X102875341Y-130795341D01*
X102901166Y-130774147D01*
X103004922Y-130688996D01*
X103020094Y-130680886D01*
X103152758Y-130609976D01*
X103313177Y-130561313D01*
X103480000Y-130544883D01*
X103646822Y-130561313D01*
G37*
G36*
X101106822Y-130561313D02*
G01*
X101267241Y-130609976D01*
X101415077Y-130688995D01*
X101518834Y-130774147D01*
X101544659Y-130795341D01*
X101651004Y-130924922D01*
X101651005Y-130924924D01*
X101730024Y-131072758D01*
X101778687Y-131233177D01*
X101791000Y-131358196D01*
X101791000Y-132241803D01*
X101778687Y-132366822D01*
X101730024Y-132527242D01*
X101659114Y-132659906D01*
X101651004Y-132675078D01*
X101544659Y-132804659D01*
X101415078Y-132911004D01*
X101415076Y-132911005D01*
X101267242Y-132990024D01*
X101106823Y-133038687D01*
X100940000Y-133055117D01*
X100773178Y-133038687D01*
X100612759Y-132990024D01*
X100464925Y-132911005D01*
X100464923Y-132911004D01*
X100335342Y-132804659D01*
X100228997Y-132675078D01*
X100220887Y-132659906D01*
X100149977Y-132527242D01*
X100101314Y-132366823D01*
X100089000Y-132241803D01*
X100089000Y-131358197D01*
X100101313Y-131233178D01*
X100149976Y-131072759D01*
X100228995Y-130924923D01*
X100335341Y-130795341D01*
X100361166Y-130774147D01*
X100464922Y-130688996D01*
X100480094Y-130680886D01*
X100612758Y-130609976D01*
X100773177Y-130561313D01*
X100940000Y-130544883D01*
X101106822Y-130561313D01*
G37*
G36*
X99251000Y-133051000D02*
G01*
X97549000Y-133051000D01*
X97549000Y-130549000D01*
X99251000Y-130549000D01*
X99251000Y-133051000D01*
G37*
G36*
X94851000Y-132751000D02*
G01*
X93149000Y-132751000D01*
X93149000Y-131049000D01*
X94851000Y-131049000D01*
X94851000Y-132751000D01*
G37*
G36*
X141948228Y-129201703D02*
G01*
X142103100Y-129265853D01*
X142242481Y-129358985D01*
X142361015Y-129477519D01*
X142454147Y-129616900D01*
X142518297Y-129771772D01*
X142551000Y-129936184D01*
X142551000Y-130103816D01*
X142518297Y-130268228D01*
X142454147Y-130423100D01*
X142361015Y-130562481D01*
X142242481Y-130681015D01*
X142103100Y-130774147D01*
X141948228Y-130838297D01*
X141783816Y-130871000D01*
X141616184Y-130871000D01*
X141451772Y-130838297D01*
X141296900Y-130774147D01*
X141157519Y-130681015D01*
X141038985Y-130562481D01*
X140945853Y-130423100D01*
X140881703Y-130268228D01*
X140849000Y-130103816D01*
X140849000Y-129936184D01*
X140881703Y-129771772D01*
X140945853Y-129616900D01*
X141038985Y-129477519D01*
X141157519Y-129358985D01*
X141296900Y-129265853D01*
X141451772Y-129201703D01*
X141616184Y-129169000D01*
X141783816Y-129169000D01*
X141948228Y-129201703D01*
G37*
G36*
X147119059Y-129297860D02*
G01*
X147255732Y-129354472D01*
X147378735Y-129436660D01*
X147483340Y-129541265D01*
X147565528Y-129664268D01*
X147622140Y-129800941D01*
X147651000Y-129946033D01*
X147651000Y-130093967D01*
X147622140Y-130239059D01*
X147565528Y-130375732D01*
X147483340Y-130498735D01*
X147378735Y-130603340D01*
X147255732Y-130685528D01*
X147255731Y-130685529D01*
X147255730Y-130685529D01*
X147119059Y-130742140D01*
X146973968Y-130771000D01*
X146826032Y-130771000D01*
X146680941Y-130742140D01*
X146544270Y-130685529D01*
X146544269Y-130685529D01*
X146544268Y-130685528D01*
X146421265Y-130603340D01*
X146316660Y-130498735D01*
X146234472Y-130375732D01*
X146177860Y-130239059D01*
X146149000Y-130093967D01*
X146149000Y-129946033D01*
X146177860Y-129800941D01*
X146234472Y-129664268D01*
X146316660Y-129541265D01*
X146421265Y-129436660D01*
X146544268Y-129354472D01*
X146680941Y-129297860D01*
X146826032Y-129269000D01*
X146973968Y-129269000D01*
X147119059Y-129297860D01*
G37*
G36*
X101106822Y-122941313D02*
G01*
X101267241Y-122989976D01*
X101415077Y-123068995D01*
X101544659Y-123175341D01*
X101651004Y-123304922D01*
X101651005Y-123304924D01*
X101730024Y-123452758D01*
X101730024Y-123452759D01*
X101730025Y-123452761D01*
X101732738Y-123461705D01*
X101778687Y-123613177D01*
X101791000Y-123738196D01*
X101791000Y-124621803D01*
X101778687Y-124746822D01*
X101730024Y-124907242D01*
X101662192Y-125034147D01*
X101651004Y-125055078D01*
X101544659Y-125184659D01*
X101415078Y-125291004D01*
X101415076Y-125291005D01*
X101267242Y-125370024D01*
X101106823Y-125418687D01*
X100940000Y-125435117D01*
X100773178Y-125418687D01*
X100612759Y-125370024D01*
X100464925Y-125291005D01*
X100464923Y-125291004D01*
X100335342Y-125184659D01*
X100228997Y-125055078D01*
X100217809Y-125034147D01*
X100149977Y-124907242D01*
X100101314Y-124746823D01*
X100089000Y-124621803D01*
X100089000Y-123738197D01*
X100101313Y-123613178D01*
X100149976Y-123452759D01*
X100228995Y-123304923D01*
X100335341Y-123175341D01*
X100464922Y-123068996D01*
X100480094Y-123060886D01*
X100612758Y-122989976D01*
X100773177Y-122941313D01*
X100940000Y-122924883D01*
X101106822Y-122941313D01*
G37*
G36*
X98566822Y-122941313D02*
G01*
X98727241Y-122989976D01*
X98875077Y-123068995D01*
X99004659Y-123175341D01*
X99111004Y-123304922D01*
X99111005Y-123304924D01*
X99190024Y-123452758D01*
X99190024Y-123452759D01*
X99190025Y-123452761D01*
X99192738Y-123461705D01*
X99238687Y-123613177D01*
X99251000Y-123738196D01*
X99251000Y-124621803D01*
X99238687Y-124746822D01*
X99190024Y-124907242D01*
X99122192Y-125034147D01*
X99111004Y-125055078D01*
X99004659Y-125184659D01*
X98875078Y-125291004D01*
X98875076Y-125291005D01*
X98727242Y-125370024D01*
X98566823Y-125418687D01*
X98400000Y-125435117D01*
X98233178Y-125418687D01*
X98072759Y-125370024D01*
X97924925Y-125291005D01*
X97924923Y-125291004D01*
X97795342Y-125184659D01*
X97688997Y-125055078D01*
X97677809Y-125034147D01*
X97609977Y-124907242D01*
X97561314Y-124746823D01*
X97549000Y-124621803D01*
X97549000Y-123738197D01*
X97561313Y-123613178D01*
X97609976Y-123452759D01*
X97688995Y-123304923D01*
X97795341Y-123175341D01*
X97924922Y-123068996D01*
X97940094Y-123060886D01*
X98072758Y-122989976D01*
X98233177Y-122941313D01*
X98400000Y-122924883D01*
X98566822Y-122941313D01*
G37*
G36*
X103646822Y-122941313D02*
G01*
X103807241Y-122989976D01*
X103955077Y-123068995D01*
X104084659Y-123175341D01*
X104191004Y-123304922D01*
X104191005Y-123304924D01*
X104270024Y-123452758D01*
X104270024Y-123452759D01*
X104270025Y-123452761D01*
X104272738Y-123461705D01*
X104318687Y-123613177D01*
X104331000Y-123738196D01*
X104331000Y-124621803D01*
X104318687Y-124746822D01*
X104270024Y-124907242D01*
X104202192Y-125034147D01*
X104191004Y-125055078D01*
X104084659Y-125184659D01*
X103955078Y-125291004D01*
X103955076Y-125291005D01*
X103807242Y-125370024D01*
X103646823Y-125418687D01*
X103480000Y-125435117D01*
X103313178Y-125418687D01*
X103152759Y-125370024D01*
X103004925Y-125291005D01*
X103004923Y-125291004D01*
X102875342Y-125184659D01*
X102768997Y-125055078D01*
X102757809Y-125034147D01*
X102689977Y-124907242D01*
X102641314Y-124746823D01*
X102629000Y-124621803D01*
X102629000Y-123738197D01*
X102641313Y-123613178D01*
X102689976Y-123452759D01*
X102768995Y-123304923D01*
X102875341Y-123175341D01*
X103004922Y-123068996D01*
X103020094Y-123060886D01*
X103152758Y-122989976D01*
X103313177Y-122941313D01*
X103480000Y-122924883D01*
X103646822Y-122941313D01*
G37*
G36*
X106186822Y-122941313D02*
G01*
X106347241Y-122989976D01*
X106495077Y-123068995D01*
X106624659Y-123175341D01*
X106731004Y-123304922D01*
X106731005Y-123304924D01*
X106810024Y-123452758D01*
X106810024Y-123452759D01*
X106810025Y-123452761D01*
X106812738Y-123461705D01*
X106858687Y-123613177D01*
X106871000Y-123738196D01*
X106871000Y-124621803D01*
X106858687Y-124746822D01*
X106810024Y-124907242D01*
X106742192Y-125034147D01*
X106731004Y-125055078D01*
X106624659Y-125184659D01*
X106495078Y-125291004D01*
X106495076Y-125291005D01*
X106347242Y-125370024D01*
X106186823Y-125418687D01*
X106020000Y-125435117D01*
X105853178Y-125418687D01*
X105692759Y-125370024D01*
X105544925Y-125291005D01*
X105544923Y-125291004D01*
X105415342Y-125184659D01*
X105308997Y-125055078D01*
X105297809Y-125034147D01*
X105229977Y-124907242D01*
X105181314Y-124746823D01*
X105169000Y-124621803D01*
X105169000Y-123738197D01*
X105181313Y-123613178D01*
X105229976Y-123452759D01*
X105308995Y-123304923D01*
X105415341Y-123175341D01*
X105544922Y-123068996D01*
X105560094Y-123060886D01*
X105692758Y-122989976D01*
X105853177Y-122941313D01*
X106020000Y-122924883D01*
X106186822Y-122941313D01*
G37*
G36*
X116346822Y-122941313D02*
G01*
X116507241Y-122989976D01*
X116655077Y-123068995D01*
X116784659Y-123175341D01*
X116891004Y-123304922D01*
X116891005Y-123304924D01*
X116970024Y-123452758D01*
X116970024Y-123452759D01*
X116970025Y-123452761D01*
X116972738Y-123461705D01*
X117018687Y-123613177D01*
X117031000Y-123738196D01*
X117031000Y-124621803D01*
X117018687Y-124746822D01*
X116970024Y-124907242D01*
X116902192Y-125034147D01*
X116891004Y-125055078D01*
X116784659Y-125184659D01*
X116655078Y-125291004D01*
X116655076Y-125291005D01*
X116507242Y-125370024D01*
X116346823Y-125418687D01*
X116180000Y-125435117D01*
X116013178Y-125418687D01*
X115852759Y-125370024D01*
X115704925Y-125291005D01*
X115704923Y-125291004D01*
X115575342Y-125184659D01*
X115468997Y-125055078D01*
X115457809Y-125034147D01*
X115389977Y-124907242D01*
X115341314Y-124746823D01*
X115329000Y-124621803D01*
X115329000Y-123738197D01*
X115341313Y-123613178D01*
X115389976Y-123452759D01*
X115468995Y-123304923D01*
X115575341Y-123175341D01*
X115704922Y-123068996D01*
X115720094Y-123060886D01*
X115852758Y-122989976D01*
X116013177Y-122941313D01*
X116180000Y-122924883D01*
X116346822Y-122941313D01*
G37*
G36*
X108726822Y-122941313D02*
G01*
X108887241Y-122989976D01*
X109035077Y-123068995D01*
X109164659Y-123175341D01*
X109271004Y-123304922D01*
X109271005Y-123304924D01*
X109350024Y-123452758D01*
X109350024Y-123452759D01*
X109350025Y-123452761D01*
X109352738Y-123461705D01*
X109398687Y-123613177D01*
X109411000Y-123738196D01*
X109411000Y-124621803D01*
X109398687Y-124746822D01*
X109350024Y-124907242D01*
X109282192Y-125034147D01*
X109271004Y-125055078D01*
X109164659Y-125184659D01*
X109035078Y-125291004D01*
X109035076Y-125291005D01*
X108887242Y-125370024D01*
X108726823Y-125418687D01*
X108560000Y-125435117D01*
X108393178Y-125418687D01*
X108232759Y-125370024D01*
X108084925Y-125291005D01*
X108084923Y-125291004D01*
X107955342Y-125184659D01*
X107848997Y-125055078D01*
X107837809Y-125034147D01*
X107769977Y-124907242D01*
X107721314Y-124746823D01*
X107709000Y-124621803D01*
X107709000Y-123738197D01*
X107721313Y-123613178D01*
X107769976Y-123452759D01*
X107848995Y-123304923D01*
X107955341Y-123175341D01*
X108084922Y-123068996D01*
X108100094Y-123060886D01*
X108232758Y-122989976D01*
X108393177Y-122941313D01*
X108560000Y-122924883D01*
X108726822Y-122941313D01*
G37*
G36*
X113806822Y-122941313D02*
G01*
X113967241Y-122989976D01*
X114115077Y-123068995D01*
X114244659Y-123175341D01*
X114351004Y-123304922D01*
X114351005Y-123304924D01*
X114430024Y-123452758D01*
X114430024Y-123452759D01*
X114430025Y-123452761D01*
X114432738Y-123461705D01*
X114478687Y-123613177D01*
X114491000Y-123738196D01*
X114491000Y-124621803D01*
X114478687Y-124746822D01*
X114430024Y-124907242D01*
X114362192Y-125034147D01*
X114351004Y-125055078D01*
X114244659Y-125184659D01*
X114115078Y-125291004D01*
X114115076Y-125291005D01*
X113967242Y-125370024D01*
X113806823Y-125418687D01*
X113640000Y-125435117D01*
X113473178Y-125418687D01*
X113312759Y-125370024D01*
X113164925Y-125291005D01*
X113164923Y-125291004D01*
X113035342Y-125184659D01*
X112928997Y-125055078D01*
X112917809Y-125034147D01*
X112849977Y-124907242D01*
X112801314Y-124746823D01*
X112789000Y-124621803D01*
X112789000Y-123738197D01*
X112801313Y-123613178D01*
X112849976Y-123452759D01*
X112928995Y-123304923D01*
X113035341Y-123175341D01*
X113164922Y-123068996D01*
X113180094Y-123060886D01*
X113312758Y-122989976D01*
X113473177Y-122941313D01*
X113640000Y-122924883D01*
X113806822Y-122941313D01*
G37*
G36*
X111266822Y-122941313D02*
G01*
X111427241Y-122989976D01*
X111575077Y-123068995D01*
X111704659Y-123175341D01*
X111811004Y-123304922D01*
X111811005Y-123304924D01*
X111890024Y-123452758D01*
X111890024Y-123452759D01*
X111890025Y-123452761D01*
X111892738Y-123461705D01*
X111938687Y-123613177D01*
X111951000Y-123738196D01*
X111951000Y-124621803D01*
X111938687Y-124746822D01*
X111890024Y-124907242D01*
X111822192Y-125034147D01*
X111811004Y-125055078D01*
X111704659Y-125184659D01*
X111575078Y-125291004D01*
X111575076Y-125291005D01*
X111427242Y-125370024D01*
X111266823Y-125418687D01*
X111100000Y-125435117D01*
X110933178Y-125418687D01*
X110772759Y-125370024D01*
X110624925Y-125291005D01*
X110624923Y-125291004D01*
X110495342Y-125184659D01*
X110388997Y-125055078D01*
X110377809Y-125034147D01*
X110309977Y-124907242D01*
X110261314Y-124746823D01*
X110249000Y-124621803D01*
X110249000Y-123738197D01*
X110261313Y-123613178D01*
X110309976Y-123452759D01*
X110388995Y-123304923D01*
X110495341Y-123175341D01*
X110624922Y-123068996D01*
X110640094Y-123060886D01*
X110772758Y-122989976D01*
X110933177Y-122941313D01*
X111100000Y-122924883D01*
X111266822Y-122941313D01*
G37*
G36*
X94248228Y-123461703D02*
G01*
X94403100Y-123525853D01*
X94542481Y-123618985D01*
X94661015Y-123737519D01*
X94754147Y-123876900D01*
X94818297Y-124031772D01*
X94851000Y-124196184D01*
X94851000Y-124363816D01*
X94818297Y-124528228D01*
X94754147Y-124683100D01*
X94661015Y-124822481D01*
X94542481Y-124941015D01*
X94403100Y-125034147D01*
X94248228Y-125098297D01*
X94083816Y-125131000D01*
X93916184Y-125131000D01*
X93751772Y-125098297D01*
X93596900Y-125034147D01*
X93457519Y-124941015D01*
X93338985Y-124822481D01*
X93245853Y-124683100D01*
X93181703Y-124528228D01*
X93149000Y-124363816D01*
X93149000Y-124196184D01*
X93181703Y-124031772D01*
X93245853Y-123876900D01*
X93338985Y-123737519D01*
X93457519Y-123618985D01*
X93596900Y-123525853D01*
X93751772Y-123461703D01*
X93916184Y-123429000D01*
X94083816Y-123429000D01*
X94248228Y-123461703D01*
G37*
G36*
X142551000Y-123251000D02*
G01*
X140849000Y-123251000D01*
X140849000Y-121549000D01*
X142551000Y-121549000D01*
X142551000Y-123251000D01*
G37*
G36*
X147119059Y-121677860D02*
G01*
X147255732Y-121734472D01*
X147378735Y-121816660D01*
X147483340Y-121921265D01*
X147565528Y-122044268D01*
X147622140Y-122180941D01*
X147651000Y-122326033D01*
X147651000Y-122473967D01*
X147622140Y-122619059D01*
X147565528Y-122755732D01*
X147483340Y-122878735D01*
X147378735Y-122983340D01*
X147255732Y-123065528D01*
X147255731Y-123065529D01*
X147255730Y-123065529D01*
X147119059Y-123122140D01*
X146973968Y-123151000D01*
X146826032Y-123151000D01*
X146680941Y-123122140D01*
X146544270Y-123065529D01*
X146544269Y-123065529D01*
X146544268Y-123065528D01*
X146421265Y-122983340D01*
X146316660Y-122878735D01*
X146234472Y-122755732D01*
X146177860Y-122619059D01*
X146149000Y-122473967D01*
X146149000Y-122326033D01*
X146177860Y-122180941D01*
X146234472Y-122044268D01*
X146316660Y-121921265D01*
X146421265Y-121816660D01*
X146544268Y-121734472D01*
X146680941Y-121677860D01*
X146826032Y-121649000D01*
X146973968Y-121649000D01*
X147119059Y-121677860D01*
G37*
G36*
X119026823Y-113701313D02*
G01*
X119187242Y-113749976D01*
X119319906Y-113820886D01*
X119335078Y-113828996D01*
X119464659Y-113935341D01*
X119571004Y-114064922D01*
X119571005Y-114064924D01*
X119650024Y-114212758D01*
X119698687Y-114373178D01*
X119711000Y-114498197D01*
X119711000Y-115381804D01*
X119698687Y-115506823D01*
X119650024Y-115667242D01*
X119579114Y-115799906D01*
X119571004Y-115815078D01*
X119464659Y-115944659D01*
X119335077Y-116051005D01*
X119187241Y-116130024D01*
X119026822Y-116178687D01*
X118860000Y-116195117D01*
X118693177Y-116178687D01*
X118532758Y-116130024D01*
X118384924Y-116051005D01*
X118384922Y-116051004D01*
X118255341Y-115944659D01*
X118148995Y-115815077D01*
X118069976Y-115667241D01*
X118021313Y-115506822D01*
X118009000Y-115381803D01*
X118009000Y-114498197D01*
X118021314Y-114373177D01*
X118069977Y-114212758D01*
X118148996Y-114064924D01*
X118148997Y-114064922D01*
X118255342Y-113935341D01*
X118384923Y-113828996D01*
X118400095Y-113820886D01*
X118532759Y-113749976D01*
X118693178Y-113701313D01*
X118860000Y-113684883D01*
X119026823Y-113701313D01*
G37*
G36*
X98706823Y-113701313D02*
G01*
X98867242Y-113749976D01*
X98999906Y-113820886D01*
X99015078Y-113828996D01*
X99144659Y-113935341D01*
X99251004Y-114064922D01*
X99251005Y-114064924D01*
X99330024Y-114212758D01*
X99378687Y-114373178D01*
X99391000Y-114498197D01*
X99391000Y-115381804D01*
X99378687Y-115506823D01*
X99330024Y-115667242D01*
X99259114Y-115799906D01*
X99251004Y-115815078D01*
X99144659Y-115944659D01*
X99015077Y-116051005D01*
X98867241Y-116130024D01*
X98706822Y-116178687D01*
X98540000Y-116195117D01*
X98373177Y-116178687D01*
X98212758Y-116130024D01*
X98064924Y-116051005D01*
X98064922Y-116051004D01*
X97935341Y-115944659D01*
X97828995Y-115815077D01*
X97749976Y-115667241D01*
X97701313Y-115506822D01*
X97689000Y-115381803D01*
X97689000Y-114498197D01*
X97701314Y-114373177D01*
X97749977Y-114212758D01*
X97828996Y-114064924D01*
X97828997Y-114064922D01*
X97935342Y-113935341D01*
X98064923Y-113828996D01*
X98080095Y-113820886D01*
X98212759Y-113749976D01*
X98373178Y-113701313D01*
X98540000Y-113684883D01*
X98706823Y-113701313D01*
G37*
G36*
X101246823Y-113701313D02*
G01*
X101407242Y-113749976D01*
X101539906Y-113820886D01*
X101555078Y-113828996D01*
X101684659Y-113935341D01*
X101791004Y-114064922D01*
X101791005Y-114064924D01*
X101870024Y-114212758D01*
X101918687Y-114373178D01*
X101931000Y-114498197D01*
X101931000Y-115381804D01*
X101918687Y-115506823D01*
X101870024Y-115667242D01*
X101799114Y-115799906D01*
X101791004Y-115815078D01*
X101684659Y-115944659D01*
X101555077Y-116051005D01*
X101407241Y-116130024D01*
X101246822Y-116178687D01*
X101080000Y-116195117D01*
X100913177Y-116178687D01*
X100752758Y-116130024D01*
X100604924Y-116051005D01*
X100604922Y-116051004D01*
X100475341Y-115944659D01*
X100368995Y-115815077D01*
X100289976Y-115667241D01*
X100241313Y-115506822D01*
X100229000Y-115381803D01*
X100229000Y-114498197D01*
X100241314Y-114373177D01*
X100289977Y-114212758D01*
X100368996Y-114064924D01*
X100368997Y-114064922D01*
X100475342Y-113935341D01*
X100604923Y-113828996D01*
X100620095Y-113820886D01*
X100752759Y-113749976D01*
X100913178Y-113701313D01*
X101080000Y-113684883D01*
X101246823Y-113701313D01*
G37*
G36*
X141886823Y-113701313D02*
G01*
X142047242Y-113749976D01*
X142179906Y-113820886D01*
X142195078Y-113828996D01*
X142324659Y-113935341D01*
X142431004Y-114064922D01*
X142431005Y-114064924D01*
X142510024Y-114212758D01*
X142558687Y-114373178D01*
X142571000Y-114498197D01*
X142571000Y-115381804D01*
X142558687Y-115506823D01*
X142510024Y-115667242D01*
X142439114Y-115799906D01*
X142431004Y-115815078D01*
X142324659Y-115944659D01*
X142195077Y-116051005D01*
X142047241Y-116130024D01*
X141886822Y-116178687D01*
X141720000Y-116195117D01*
X141553177Y-116178687D01*
X141392758Y-116130024D01*
X141244924Y-116051005D01*
X141244922Y-116051004D01*
X141115341Y-115944659D01*
X141008995Y-115815077D01*
X140929976Y-115667241D01*
X140881313Y-115506822D01*
X140869000Y-115381803D01*
X140869000Y-114498197D01*
X140881314Y-114373177D01*
X140929977Y-114212758D01*
X141008996Y-114064924D01*
X141008997Y-114064922D01*
X141115342Y-113935341D01*
X141244923Y-113828996D01*
X141260095Y-113820886D01*
X141392759Y-113749976D01*
X141553178Y-113701313D01*
X141720000Y-113684883D01*
X141886823Y-113701313D01*
G37*
G36*
X103786823Y-113701313D02*
G01*
X103947242Y-113749976D01*
X104079906Y-113820886D01*
X104095078Y-113828996D01*
X104224659Y-113935341D01*
X104331004Y-114064922D01*
X104331005Y-114064924D01*
X104410024Y-114212758D01*
X104458687Y-114373178D01*
X104471000Y-114498197D01*
X104471000Y-115381804D01*
X104458687Y-115506823D01*
X104410024Y-115667242D01*
X104339114Y-115799906D01*
X104331004Y-115815078D01*
X104224659Y-115944659D01*
X104095077Y-116051005D01*
X103947241Y-116130024D01*
X103786822Y-116178687D01*
X103620000Y-116195117D01*
X103453177Y-116178687D01*
X103292758Y-116130024D01*
X103144924Y-116051005D01*
X103144922Y-116051004D01*
X103015341Y-115944659D01*
X102908995Y-115815077D01*
X102829976Y-115667241D01*
X102781313Y-115506822D01*
X102769000Y-115381803D01*
X102769000Y-114498197D01*
X102781314Y-114373177D01*
X102829977Y-114212758D01*
X102908996Y-114064924D01*
X102908997Y-114064922D01*
X103015342Y-113935341D01*
X103144923Y-113828996D01*
X103160095Y-113820886D01*
X103292759Y-113749976D01*
X103453178Y-113701313D01*
X103620000Y-113684883D01*
X103786823Y-113701313D01*
G37*
G36*
X139346823Y-113701313D02*
G01*
X139507242Y-113749976D01*
X139639906Y-113820886D01*
X139655078Y-113828996D01*
X139784659Y-113935341D01*
X139891004Y-114064922D01*
X139891005Y-114064924D01*
X139970024Y-114212758D01*
X140018687Y-114373178D01*
X140031000Y-114498197D01*
X140031000Y-115381804D01*
X140018687Y-115506823D01*
X139970024Y-115667242D01*
X139899114Y-115799906D01*
X139891004Y-115815078D01*
X139784659Y-115944659D01*
X139655077Y-116051005D01*
X139507241Y-116130024D01*
X139346822Y-116178687D01*
X139180000Y-116195117D01*
X139013177Y-116178687D01*
X138852758Y-116130024D01*
X138704924Y-116051005D01*
X138704922Y-116051004D01*
X138575341Y-115944659D01*
X138468995Y-115815077D01*
X138389976Y-115667241D01*
X138341313Y-115506822D01*
X138329000Y-115381803D01*
X138329000Y-114498197D01*
X138341314Y-114373177D01*
X138389977Y-114212758D01*
X138468996Y-114064924D01*
X138468997Y-114064922D01*
X138575342Y-113935341D01*
X138704923Y-113828996D01*
X138720095Y-113820886D01*
X138852759Y-113749976D01*
X139013178Y-113701313D01*
X139180000Y-113684883D01*
X139346823Y-113701313D01*
G37*
G36*
X106326823Y-113701313D02*
G01*
X106487242Y-113749976D01*
X106619906Y-113820886D01*
X106635078Y-113828996D01*
X106764659Y-113935341D01*
X106871004Y-114064922D01*
X106871005Y-114064924D01*
X106950024Y-114212758D01*
X106998687Y-114373178D01*
X107011000Y-114498197D01*
X107011000Y-115381804D01*
X106998687Y-115506823D01*
X106950024Y-115667242D01*
X106879114Y-115799906D01*
X106871004Y-115815078D01*
X106764659Y-115944659D01*
X106635077Y-116051005D01*
X106487241Y-116130024D01*
X106326822Y-116178687D01*
X106160000Y-116195117D01*
X105993177Y-116178687D01*
X105832758Y-116130024D01*
X105684924Y-116051005D01*
X105684922Y-116051004D01*
X105555341Y-115944659D01*
X105448995Y-115815077D01*
X105369976Y-115667241D01*
X105321313Y-115506822D01*
X105309000Y-115381803D01*
X105309000Y-114498197D01*
X105321314Y-114373177D01*
X105369977Y-114212758D01*
X105448996Y-114064924D01*
X105448997Y-114064922D01*
X105555342Y-113935341D01*
X105684923Y-113828996D01*
X105700095Y-113820886D01*
X105832759Y-113749976D01*
X105993178Y-113701313D01*
X106160000Y-113684883D01*
X106326823Y-113701313D01*
G37*
G36*
X136806823Y-113701313D02*
G01*
X136967242Y-113749976D01*
X137099906Y-113820886D01*
X137115078Y-113828996D01*
X137244659Y-113935341D01*
X137351004Y-114064922D01*
X137351005Y-114064924D01*
X137430024Y-114212758D01*
X137478687Y-114373178D01*
X137491000Y-114498197D01*
X137491000Y-115381804D01*
X137478687Y-115506823D01*
X137430024Y-115667242D01*
X137359114Y-115799906D01*
X137351004Y-115815078D01*
X137244659Y-115944659D01*
X137115077Y-116051005D01*
X136967241Y-116130024D01*
X136806822Y-116178687D01*
X136640000Y-116195117D01*
X136473177Y-116178687D01*
X136312758Y-116130024D01*
X136164924Y-116051005D01*
X136164922Y-116051004D01*
X136035341Y-115944659D01*
X135928995Y-115815077D01*
X135849976Y-115667241D01*
X135801313Y-115506822D01*
X135789000Y-115381803D01*
X135789000Y-114498197D01*
X135801314Y-114373177D01*
X135849977Y-114212758D01*
X135928996Y-114064924D01*
X135928997Y-114064922D01*
X136035342Y-113935341D01*
X136164923Y-113828996D01*
X136180095Y-113820886D01*
X136312759Y-113749976D01*
X136473178Y-113701313D01*
X136640000Y-113684883D01*
X136806823Y-113701313D01*
G37*
G36*
X144426823Y-113701313D02*
G01*
X144587242Y-113749976D01*
X144719906Y-113820886D01*
X144735078Y-113828996D01*
X144864659Y-113935341D01*
X144971004Y-114064922D01*
X144971005Y-114064924D01*
X145050024Y-114212758D01*
X145098687Y-114373178D01*
X145111000Y-114498197D01*
X145111000Y-115381804D01*
X145098687Y-115506823D01*
X145050024Y-115667242D01*
X144979114Y-115799906D01*
X144971004Y-115815078D01*
X144864659Y-115944659D01*
X144735077Y-116051005D01*
X144587241Y-116130024D01*
X144426822Y-116178687D01*
X144260000Y-116195117D01*
X144093177Y-116178687D01*
X143932758Y-116130024D01*
X143784924Y-116051005D01*
X143784922Y-116051004D01*
X143655341Y-115944659D01*
X143548995Y-115815077D01*
X143469976Y-115667241D01*
X143421313Y-115506822D01*
X143409000Y-115381803D01*
X143409000Y-114498197D01*
X143421314Y-114373177D01*
X143469977Y-114212758D01*
X143548996Y-114064924D01*
X143548997Y-114064922D01*
X143655342Y-113935341D01*
X143784923Y-113828996D01*
X143800095Y-113820886D01*
X143932759Y-113749976D01*
X144093178Y-113701313D01*
X144260000Y-113684883D01*
X144426823Y-113701313D01*
G37*
G36*
X134266823Y-113701313D02*
G01*
X134427242Y-113749976D01*
X134559906Y-113820886D01*
X134575078Y-113828996D01*
X134704659Y-113935341D01*
X134811004Y-114064922D01*
X134811005Y-114064924D01*
X134890024Y-114212758D01*
X134938687Y-114373178D01*
X134951000Y-114498197D01*
X134951000Y-115381804D01*
X134938687Y-115506823D01*
X134890024Y-115667242D01*
X134819114Y-115799906D01*
X134811004Y-115815078D01*
X134704659Y-115944659D01*
X134575077Y-116051005D01*
X134427241Y-116130024D01*
X134266822Y-116178687D01*
X134100000Y-116195117D01*
X133933177Y-116178687D01*
X133772758Y-116130024D01*
X133624924Y-116051005D01*
X133624922Y-116051004D01*
X133495341Y-115944659D01*
X133388995Y-115815077D01*
X133309976Y-115667241D01*
X133261313Y-115506822D01*
X133249000Y-115381803D01*
X133249000Y-114498197D01*
X133261314Y-114373177D01*
X133309977Y-114212758D01*
X133388996Y-114064924D01*
X133388997Y-114064922D01*
X133495342Y-113935341D01*
X133624923Y-113828996D01*
X133640095Y-113820886D01*
X133772759Y-113749976D01*
X133933178Y-113701313D01*
X134100000Y-113684883D01*
X134266823Y-113701313D01*
G37*
G36*
X146966823Y-113701313D02*
G01*
X147127242Y-113749976D01*
X147259906Y-113820886D01*
X147275078Y-113828996D01*
X147404659Y-113935341D01*
X147511004Y-114064922D01*
X147511005Y-114064924D01*
X147590024Y-114212758D01*
X147638687Y-114373178D01*
X147651000Y-114498197D01*
X147651000Y-115381804D01*
X147638687Y-115506823D01*
X147590024Y-115667242D01*
X147519114Y-115799906D01*
X147511004Y-115815078D01*
X147404659Y-115944659D01*
X147275077Y-116051005D01*
X147127241Y-116130024D01*
X146966822Y-116178687D01*
X146800000Y-116195117D01*
X146633177Y-116178687D01*
X146472758Y-116130024D01*
X146324924Y-116051005D01*
X146324922Y-116051004D01*
X146195341Y-115944659D01*
X146088995Y-115815077D01*
X146009976Y-115667241D01*
X145961313Y-115506822D01*
X145949000Y-115381803D01*
X145949000Y-114498197D01*
X145961314Y-114373177D01*
X146009977Y-114212758D01*
X146088996Y-114064924D01*
X146088997Y-114064922D01*
X146195342Y-113935341D01*
X146324923Y-113828996D01*
X146340095Y-113820886D01*
X146472759Y-113749976D01*
X146633178Y-113701313D01*
X146800000Y-113684883D01*
X146966823Y-113701313D01*
G37*
G36*
X129186823Y-113701313D02*
G01*
X129347242Y-113749976D01*
X129479906Y-113820886D01*
X129495078Y-113828996D01*
X129624659Y-113935341D01*
X129731004Y-114064922D01*
X129731005Y-114064924D01*
X129810024Y-114212758D01*
X129858687Y-114373178D01*
X129871000Y-114498197D01*
X129871000Y-115381804D01*
X129858687Y-115506823D01*
X129810024Y-115667242D01*
X129739114Y-115799906D01*
X129731004Y-115815078D01*
X129624659Y-115944659D01*
X129495077Y-116051005D01*
X129347241Y-116130024D01*
X129186822Y-116178687D01*
X129020000Y-116195117D01*
X128853177Y-116178687D01*
X128692758Y-116130024D01*
X128544924Y-116051005D01*
X128544922Y-116051004D01*
X128415341Y-115944659D01*
X128308995Y-115815077D01*
X128229976Y-115667241D01*
X128181313Y-115506822D01*
X128169000Y-115381803D01*
X128169000Y-114498197D01*
X128181314Y-114373177D01*
X128229977Y-114212758D01*
X128308996Y-114064924D01*
X128308997Y-114064922D01*
X128415342Y-113935341D01*
X128544923Y-113828996D01*
X128560095Y-113820886D01*
X128692759Y-113749976D01*
X128853178Y-113701313D01*
X129020000Y-113684883D01*
X129186823Y-113701313D01*
G37*
G36*
X108866823Y-113701313D02*
G01*
X109027242Y-113749976D01*
X109159906Y-113820886D01*
X109175078Y-113828996D01*
X109304659Y-113935341D01*
X109411004Y-114064922D01*
X109411005Y-114064924D01*
X109490024Y-114212758D01*
X109538687Y-114373178D01*
X109551000Y-114498197D01*
X109551000Y-115381804D01*
X109538687Y-115506823D01*
X109490024Y-115667242D01*
X109419114Y-115799906D01*
X109411004Y-115815078D01*
X109304659Y-115944659D01*
X109175077Y-116051005D01*
X109027241Y-116130024D01*
X108866822Y-116178687D01*
X108700000Y-116195117D01*
X108533177Y-116178687D01*
X108372758Y-116130024D01*
X108224924Y-116051005D01*
X108224922Y-116051004D01*
X108095341Y-115944659D01*
X107988995Y-115815077D01*
X107909976Y-115667241D01*
X107861313Y-115506822D01*
X107849000Y-115381803D01*
X107849000Y-114498197D01*
X107861314Y-114373177D01*
X107909977Y-114212758D01*
X107988996Y-114064924D01*
X107988997Y-114064922D01*
X108095342Y-113935341D01*
X108224923Y-113828996D01*
X108240095Y-113820886D01*
X108372759Y-113749976D01*
X108533178Y-113701313D01*
X108700000Y-113684883D01*
X108866823Y-113701313D01*
G37*
G36*
X126646823Y-113701313D02*
G01*
X126807242Y-113749976D01*
X126939906Y-113820886D01*
X126955078Y-113828996D01*
X127084659Y-113935341D01*
X127191004Y-114064922D01*
X127191005Y-114064924D01*
X127270024Y-114212758D01*
X127318687Y-114373178D01*
X127331000Y-114498197D01*
X127331000Y-115381804D01*
X127318687Y-115506823D01*
X127270024Y-115667242D01*
X127199114Y-115799906D01*
X127191004Y-115815078D01*
X127084659Y-115944659D01*
X126955077Y-116051005D01*
X126807241Y-116130024D01*
X126646822Y-116178687D01*
X126480000Y-116195117D01*
X126313177Y-116178687D01*
X126152758Y-116130024D01*
X126004924Y-116051005D01*
X126004922Y-116051004D01*
X125875341Y-115944659D01*
X125768995Y-115815077D01*
X125689976Y-115667241D01*
X125641313Y-115506822D01*
X125629000Y-115381803D01*
X125629000Y-114498197D01*
X125641314Y-114373177D01*
X125689977Y-114212758D01*
X125768996Y-114064924D01*
X125768997Y-114064922D01*
X125875342Y-113935341D01*
X126004923Y-113828996D01*
X126020095Y-113820886D01*
X126152759Y-113749976D01*
X126313178Y-113701313D01*
X126480000Y-113684883D01*
X126646823Y-113701313D01*
G37*
G36*
X111406823Y-113701313D02*
G01*
X111567242Y-113749976D01*
X111699906Y-113820886D01*
X111715078Y-113828996D01*
X111844659Y-113935341D01*
X111951004Y-114064922D01*
X111951005Y-114064924D01*
X112030024Y-114212758D01*
X112078687Y-114373178D01*
X112091000Y-114498197D01*
X112091000Y-115381804D01*
X112078687Y-115506823D01*
X112030024Y-115667242D01*
X111959114Y-115799906D01*
X111951004Y-115815078D01*
X111844659Y-115944659D01*
X111715077Y-116051005D01*
X111567241Y-116130024D01*
X111406822Y-116178687D01*
X111240000Y-116195117D01*
X111073177Y-116178687D01*
X110912758Y-116130024D01*
X110764924Y-116051005D01*
X110764922Y-116051004D01*
X110635341Y-115944659D01*
X110528995Y-115815077D01*
X110449976Y-115667241D01*
X110401313Y-115506822D01*
X110389000Y-115381803D01*
X110389000Y-114498197D01*
X110401314Y-114373177D01*
X110449977Y-114212758D01*
X110528996Y-114064924D01*
X110528997Y-114064922D01*
X110635342Y-113935341D01*
X110764923Y-113828996D01*
X110780095Y-113820886D01*
X110912759Y-113749976D01*
X111073178Y-113701313D01*
X111240000Y-113684883D01*
X111406823Y-113701313D01*
G37*
G36*
X124106823Y-113701313D02*
G01*
X124267242Y-113749976D01*
X124399906Y-113820886D01*
X124415078Y-113828996D01*
X124544659Y-113935341D01*
X124651004Y-114064922D01*
X124651005Y-114064924D01*
X124730024Y-114212758D01*
X124778687Y-114373178D01*
X124791000Y-114498197D01*
X124791000Y-115381804D01*
X124778687Y-115506823D01*
X124730024Y-115667242D01*
X124659114Y-115799906D01*
X124651004Y-115815078D01*
X124544659Y-115944659D01*
X124415077Y-116051005D01*
X124267241Y-116130024D01*
X124106822Y-116178687D01*
X123940000Y-116195117D01*
X123773177Y-116178687D01*
X123612758Y-116130024D01*
X123464924Y-116051005D01*
X123464922Y-116051004D01*
X123335341Y-115944659D01*
X123228995Y-115815077D01*
X123149976Y-115667241D01*
X123101313Y-115506822D01*
X123089000Y-115381803D01*
X123089000Y-114498197D01*
X123101314Y-114373177D01*
X123149977Y-114212758D01*
X123228996Y-114064924D01*
X123228997Y-114064922D01*
X123335342Y-113935341D01*
X123464923Y-113828996D01*
X123480095Y-113820886D01*
X123612759Y-113749976D01*
X123773178Y-113701313D01*
X123940000Y-113684883D01*
X124106823Y-113701313D01*
G37*
G36*
X113946823Y-113701313D02*
G01*
X114107242Y-113749976D01*
X114239906Y-113820886D01*
X114255078Y-113828996D01*
X114384659Y-113935341D01*
X114491004Y-114064922D01*
X114491005Y-114064924D01*
X114570024Y-114212758D01*
X114618687Y-114373178D01*
X114631000Y-114498197D01*
X114631000Y-115381804D01*
X114618687Y-115506823D01*
X114570024Y-115667242D01*
X114499114Y-115799906D01*
X114491004Y-115815078D01*
X114384659Y-115944659D01*
X114255077Y-116051005D01*
X114107241Y-116130024D01*
X113946822Y-116178687D01*
X113780000Y-116195117D01*
X113613177Y-116178687D01*
X113452758Y-116130024D01*
X113304924Y-116051005D01*
X113304922Y-116051004D01*
X113175341Y-115944659D01*
X113068995Y-115815077D01*
X112989976Y-115667241D01*
X112941313Y-115506822D01*
X112929000Y-115381803D01*
X112929000Y-114498197D01*
X112941314Y-114373177D01*
X112989977Y-114212758D01*
X113068996Y-114064924D01*
X113068997Y-114064922D01*
X113175342Y-113935341D01*
X113304923Y-113828996D01*
X113320095Y-113820886D01*
X113452759Y-113749976D01*
X113613178Y-113701313D01*
X113780000Y-113684883D01*
X113946823Y-113701313D01*
G37*
G36*
X121566823Y-113701313D02*
G01*
X121727242Y-113749976D01*
X121859906Y-113820886D01*
X121875078Y-113828996D01*
X122004659Y-113935341D01*
X122111004Y-114064922D01*
X122111005Y-114064924D01*
X122190024Y-114212758D01*
X122238687Y-114373178D01*
X122251000Y-114498197D01*
X122251000Y-115381804D01*
X122238687Y-115506823D01*
X122190024Y-115667242D01*
X122119114Y-115799906D01*
X122111004Y-115815078D01*
X122004659Y-115944659D01*
X121875077Y-116051005D01*
X121727241Y-116130024D01*
X121566822Y-116178687D01*
X121400000Y-116195117D01*
X121233177Y-116178687D01*
X121072758Y-116130024D01*
X120924924Y-116051005D01*
X120924922Y-116051004D01*
X120795341Y-115944659D01*
X120688995Y-115815077D01*
X120609976Y-115667241D01*
X120561313Y-115506822D01*
X120549000Y-115381803D01*
X120549000Y-114498197D01*
X120561314Y-114373177D01*
X120609977Y-114212758D01*
X120688996Y-114064924D01*
X120688997Y-114064922D01*
X120795342Y-113935341D01*
X120924923Y-113828996D01*
X120940095Y-113820886D01*
X121072759Y-113749976D01*
X121233178Y-113701313D01*
X121400000Y-113684883D01*
X121566823Y-113701313D01*
G37*
G36*
X116486823Y-113701313D02*
G01*
X116647242Y-113749976D01*
X116779906Y-113820886D01*
X116795078Y-113828996D01*
X116924659Y-113935341D01*
X117031004Y-114064922D01*
X117031005Y-114064924D01*
X117110024Y-114212758D01*
X117158687Y-114373178D01*
X117171000Y-114498197D01*
X117171000Y-115381804D01*
X117158687Y-115506823D01*
X117110024Y-115667242D01*
X117039114Y-115799906D01*
X117031004Y-115815078D01*
X116924659Y-115944659D01*
X116795077Y-116051005D01*
X116647241Y-116130024D01*
X116486822Y-116178687D01*
X116320000Y-116195117D01*
X116153177Y-116178687D01*
X115992758Y-116130024D01*
X115844924Y-116051005D01*
X115844922Y-116051004D01*
X115715341Y-115944659D01*
X115608995Y-115815077D01*
X115529976Y-115667241D01*
X115481313Y-115506822D01*
X115469000Y-115381803D01*
X115469000Y-114498197D01*
X115481314Y-114373177D01*
X115529977Y-114212758D01*
X115608996Y-114064924D01*
X115608997Y-114064922D01*
X115715342Y-113935341D01*
X115844923Y-113828996D01*
X115860095Y-113820886D01*
X115992759Y-113749976D01*
X116153178Y-113701313D01*
X116320000Y-113684883D01*
X116486823Y-113701313D01*
G37*
G36*
X131726823Y-113701313D02*
G01*
X131887242Y-113749976D01*
X132019906Y-113820886D01*
X132035078Y-113828996D01*
X132164659Y-113935341D01*
X132271004Y-114064922D01*
X132271005Y-114064924D01*
X132350024Y-114212758D01*
X132398687Y-114373178D01*
X132411000Y-114498197D01*
X132411000Y-115381804D01*
X132398687Y-115506823D01*
X132350024Y-115667242D01*
X132279114Y-115799906D01*
X132271004Y-115815078D01*
X132164659Y-115944659D01*
X132035077Y-116051005D01*
X131887241Y-116130024D01*
X131726822Y-116178687D01*
X131560000Y-116195117D01*
X131393177Y-116178687D01*
X131232758Y-116130024D01*
X131084924Y-116051005D01*
X131084922Y-116051004D01*
X130955341Y-115944659D01*
X130848995Y-115815077D01*
X130769976Y-115667241D01*
X130721313Y-115506822D01*
X130709000Y-115381803D01*
X130709000Y-114498197D01*
X130721314Y-114373177D01*
X130769977Y-114212758D01*
X130848996Y-114064924D01*
X130848997Y-114064922D01*
X130955342Y-113935341D01*
X131084923Y-113828996D01*
X131100095Y-113820886D01*
X131232759Y-113749976D01*
X131393178Y-113701313D01*
X131560000Y-113684883D01*
X131726823Y-113701313D01*
G37*
G36*
X106326823Y-98461313D02*
G01*
X106487242Y-98509976D01*
X106619906Y-98580886D01*
X106635078Y-98588996D01*
X106764659Y-98695341D01*
X106871004Y-98824922D01*
X106871005Y-98824924D01*
X106950024Y-98972758D01*
X106998687Y-99133178D01*
X107011000Y-99258197D01*
X107011000Y-100141804D01*
X106998687Y-100266823D01*
X106950024Y-100427242D01*
X106879114Y-100559906D01*
X106871004Y-100575078D01*
X106764659Y-100704659D01*
X106635077Y-100811005D01*
X106487241Y-100890024D01*
X106326822Y-100938687D01*
X106160000Y-100955117D01*
X105993177Y-100938687D01*
X105832758Y-100890024D01*
X105684924Y-100811005D01*
X105684922Y-100811004D01*
X105555341Y-100704659D01*
X105448995Y-100575077D01*
X105369976Y-100427241D01*
X105321313Y-100266822D01*
X105309000Y-100141803D01*
X105309000Y-99258197D01*
X105321314Y-99133177D01*
X105369977Y-98972758D01*
X105448996Y-98824924D01*
X105448997Y-98824922D01*
X105555342Y-98695341D01*
X105684923Y-98588996D01*
X105700095Y-98580886D01*
X105832759Y-98509976D01*
X105993178Y-98461313D01*
X106160000Y-98444883D01*
X106326823Y-98461313D01*
G37*
G36*
X101246823Y-98461313D02*
G01*
X101407242Y-98509976D01*
X101539906Y-98580886D01*
X101555078Y-98588996D01*
X101684659Y-98695341D01*
X101791004Y-98824922D01*
X101791005Y-98824924D01*
X101870024Y-98972758D01*
X101918687Y-99133178D01*
X101931000Y-99258197D01*
X101931000Y-100141804D01*
X101918687Y-100266823D01*
X101870024Y-100427242D01*
X101799114Y-100559906D01*
X101791004Y-100575078D01*
X101684659Y-100704659D01*
X101555077Y-100811005D01*
X101407241Y-100890024D01*
X101246822Y-100938687D01*
X101080000Y-100955117D01*
X100913177Y-100938687D01*
X100752758Y-100890024D01*
X100604924Y-100811005D01*
X100604922Y-100811004D01*
X100475341Y-100704659D01*
X100368995Y-100575077D01*
X100289976Y-100427241D01*
X100241313Y-100266822D01*
X100229000Y-100141803D01*
X100229000Y-99258197D01*
X100241314Y-99133177D01*
X100289977Y-98972758D01*
X100368996Y-98824924D01*
X100368997Y-98824922D01*
X100475342Y-98695341D01*
X100604923Y-98588996D01*
X100620095Y-98580886D01*
X100752759Y-98509976D01*
X100913178Y-98461313D01*
X101080000Y-98444883D01*
X101246823Y-98461313D01*
G37*
G36*
X116486823Y-98461313D02*
G01*
X116647242Y-98509976D01*
X116779906Y-98580886D01*
X116795078Y-98588996D01*
X116924659Y-98695341D01*
X117031004Y-98824922D01*
X117031005Y-98824924D01*
X117110024Y-98972758D01*
X117158687Y-99133178D01*
X117171000Y-99258197D01*
X117171000Y-100141804D01*
X117158687Y-100266823D01*
X117110024Y-100427242D01*
X117039114Y-100559906D01*
X117031004Y-100575078D01*
X116924659Y-100704659D01*
X116795077Y-100811005D01*
X116647241Y-100890024D01*
X116486822Y-100938687D01*
X116320000Y-100955117D01*
X116153177Y-100938687D01*
X115992758Y-100890024D01*
X115844924Y-100811005D01*
X115844922Y-100811004D01*
X115715341Y-100704659D01*
X115608995Y-100575077D01*
X115529976Y-100427241D01*
X115481313Y-100266822D01*
X115469000Y-100141803D01*
X115469000Y-99258197D01*
X115481314Y-99133177D01*
X115529977Y-98972758D01*
X115608996Y-98824924D01*
X115608997Y-98824922D01*
X115715342Y-98695341D01*
X115844923Y-98588996D01*
X115860095Y-98580886D01*
X115992759Y-98509976D01*
X116153178Y-98461313D01*
X116320000Y-98444883D01*
X116486823Y-98461313D01*
G37*
G36*
X131726823Y-98461313D02*
G01*
X131887242Y-98509976D01*
X132019906Y-98580886D01*
X132035078Y-98588996D01*
X132164659Y-98695341D01*
X132271004Y-98824922D01*
X132271005Y-98824924D01*
X132350024Y-98972758D01*
X132398687Y-99133178D01*
X132411000Y-99258197D01*
X132411000Y-100141804D01*
X132398687Y-100266823D01*
X132350024Y-100427242D01*
X132279114Y-100559906D01*
X132271004Y-100575078D01*
X132164659Y-100704659D01*
X132035077Y-100811005D01*
X131887241Y-100890024D01*
X131726822Y-100938687D01*
X131560000Y-100955117D01*
X131393177Y-100938687D01*
X131232758Y-100890024D01*
X131084924Y-100811005D01*
X131084922Y-100811004D01*
X130955341Y-100704659D01*
X130848995Y-100575077D01*
X130769976Y-100427241D01*
X130721313Y-100266822D01*
X130709000Y-100141803D01*
X130709000Y-99258197D01*
X130721314Y-99133177D01*
X130769977Y-98972758D01*
X130848996Y-98824924D01*
X130848997Y-98824922D01*
X130955342Y-98695341D01*
X131084923Y-98588996D01*
X131100095Y-98580886D01*
X131232759Y-98509976D01*
X131393178Y-98461313D01*
X131560000Y-98444883D01*
X131726823Y-98461313D01*
G37*
G36*
X129186823Y-98461313D02*
G01*
X129347242Y-98509976D01*
X129479906Y-98580886D01*
X129495078Y-98588996D01*
X129624659Y-98695341D01*
X129731004Y-98824922D01*
X129731005Y-98824924D01*
X129810024Y-98972758D01*
X129858687Y-99133178D01*
X129871000Y-99258197D01*
X129871000Y-100141804D01*
X129858687Y-100266823D01*
X129810024Y-100427242D01*
X129739114Y-100559906D01*
X129731004Y-100575078D01*
X129624659Y-100704659D01*
X129495077Y-100811005D01*
X129347241Y-100890024D01*
X129186822Y-100938687D01*
X129020000Y-100955117D01*
X128853177Y-100938687D01*
X128692758Y-100890024D01*
X128544924Y-100811005D01*
X128544922Y-100811004D01*
X128415341Y-100704659D01*
X128308995Y-100575077D01*
X128229976Y-100427241D01*
X128181313Y-100266822D01*
X128169000Y-100141803D01*
X128169000Y-99258197D01*
X128181314Y-99133177D01*
X128229977Y-98972758D01*
X128308996Y-98824924D01*
X128308997Y-98824922D01*
X128415342Y-98695341D01*
X128544923Y-98588996D01*
X128560095Y-98580886D01*
X128692759Y-98509976D01*
X128853178Y-98461313D01*
X129020000Y-98444883D01*
X129186823Y-98461313D01*
G37*
G36*
X126646823Y-98461313D02*
G01*
X126807242Y-98509976D01*
X126939906Y-98580886D01*
X126955078Y-98588996D01*
X127084659Y-98695341D01*
X127191004Y-98824922D01*
X127191005Y-98824924D01*
X127270024Y-98972758D01*
X127318687Y-99133178D01*
X127331000Y-99258197D01*
X127331000Y-100141804D01*
X127318687Y-100266823D01*
X127270024Y-100427242D01*
X127199114Y-100559906D01*
X127191004Y-100575078D01*
X127084659Y-100704659D01*
X126955077Y-100811005D01*
X126807241Y-100890024D01*
X126646822Y-100938687D01*
X126480000Y-100955117D01*
X126313177Y-100938687D01*
X126152758Y-100890024D01*
X126004924Y-100811005D01*
X126004922Y-100811004D01*
X125875341Y-100704659D01*
X125768995Y-100575077D01*
X125689976Y-100427241D01*
X125641313Y-100266822D01*
X125629000Y-100141803D01*
X125629000Y-99258197D01*
X125641314Y-99133177D01*
X125689977Y-98972758D01*
X125768996Y-98824924D01*
X125768997Y-98824922D01*
X125875342Y-98695341D01*
X126004923Y-98588996D01*
X126020095Y-98580886D01*
X126152759Y-98509976D01*
X126313178Y-98461313D01*
X126480000Y-98444883D01*
X126646823Y-98461313D01*
G37*
G36*
X124106823Y-98461313D02*
G01*
X124267242Y-98509976D01*
X124399906Y-98580886D01*
X124415078Y-98588996D01*
X124544659Y-98695341D01*
X124651004Y-98824922D01*
X124651005Y-98824924D01*
X124730024Y-98972758D01*
X124778687Y-99133178D01*
X124791000Y-99258197D01*
X124791000Y-100141804D01*
X124778687Y-100266823D01*
X124730024Y-100427242D01*
X124659114Y-100559906D01*
X124651004Y-100575078D01*
X124544659Y-100704659D01*
X124415077Y-100811005D01*
X124267241Y-100890024D01*
X124106822Y-100938687D01*
X123940000Y-100955117D01*
X123773177Y-100938687D01*
X123612758Y-100890024D01*
X123464924Y-100811005D01*
X123464922Y-100811004D01*
X123335341Y-100704659D01*
X123228995Y-100575077D01*
X123149976Y-100427241D01*
X123101313Y-100266822D01*
X123089000Y-100141803D01*
X123089000Y-99258197D01*
X123101314Y-99133177D01*
X123149977Y-98972758D01*
X123228996Y-98824924D01*
X123228997Y-98824922D01*
X123335342Y-98695341D01*
X123464923Y-98588996D01*
X123480095Y-98580886D01*
X123612759Y-98509976D01*
X123773178Y-98461313D01*
X123940000Y-98444883D01*
X124106823Y-98461313D01*
G37*
G36*
X119026823Y-98461313D02*
G01*
X119187242Y-98509976D01*
X119319906Y-98580886D01*
X119335078Y-98588996D01*
X119464659Y-98695341D01*
X119571004Y-98824922D01*
X119571005Y-98824924D01*
X119650024Y-98972758D01*
X119698687Y-99133178D01*
X119711000Y-99258197D01*
X119711000Y-100141804D01*
X119698687Y-100266823D01*
X119650024Y-100427242D01*
X119579114Y-100559906D01*
X119571004Y-100575078D01*
X119464659Y-100704659D01*
X119335077Y-100811005D01*
X119187241Y-100890024D01*
X119026822Y-100938687D01*
X118860000Y-100955117D01*
X118693177Y-100938687D01*
X118532758Y-100890024D01*
X118384924Y-100811005D01*
X118384922Y-100811004D01*
X118255341Y-100704659D01*
X118148995Y-100575077D01*
X118069976Y-100427241D01*
X118021313Y-100266822D01*
X118009000Y-100141803D01*
X118009000Y-99258197D01*
X118021314Y-99133177D01*
X118069977Y-98972758D01*
X118148996Y-98824924D01*
X118148997Y-98824922D01*
X118255342Y-98695341D01*
X118384923Y-98588996D01*
X118400095Y-98580886D01*
X118532759Y-98509976D01*
X118693178Y-98461313D01*
X118860000Y-98444883D01*
X119026823Y-98461313D01*
G37*
G36*
X113946823Y-98461313D02*
G01*
X114107242Y-98509976D01*
X114239906Y-98580886D01*
X114255078Y-98588996D01*
X114384659Y-98695341D01*
X114491004Y-98824922D01*
X114491005Y-98824924D01*
X114570024Y-98972758D01*
X114618687Y-99133178D01*
X114631000Y-99258197D01*
X114631000Y-100141804D01*
X114618687Y-100266823D01*
X114570024Y-100427242D01*
X114499114Y-100559906D01*
X114491004Y-100575078D01*
X114384659Y-100704659D01*
X114255077Y-100811005D01*
X114107241Y-100890024D01*
X113946822Y-100938687D01*
X113780000Y-100955117D01*
X113613177Y-100938687D01*
X113452758Y-100890024D01*
X113304924Y-100811005D01*
X113304922Y-100811004D01*
X113175341Y-100704659D01*
X113068995Y-100575077D01*
X112989976Y-100427241D01*
X112941313Y-100266822D01*
X112929000Y-100141803D01*
X112929000Y-99258197D01*
X112941314Y-99133177D01*
X112989977Y-98972758D01*
X113068996Y-98824924D01*
X113068997Y-98824922D01*
X113175342Y-98695341D01*
X113304923Y-98588996D01*
X113320095Y-98580886D01*
X113452759Y-98509976D01*
X113613178Y-98461313D01*
X113780000Y-98444883D01*
X113946823Y-98461313D01*
G37*
G36*
X134266823Y-98461313D02*
G01*
X134427242Y-98509976D01*
X134559906Y-98580886D01*
X134575078Y-98588996D01*
X134704659Y-98695341D01*
X134811004Y-98824922D01*
X134811005Y-98824924D01*
X134890024Y-98972758D01*
X134938687Y-99133178D01*
X134951000Y-99258197D01*
X134951000Y-100141804D01*
X134938687Y-100266823D01*
X134890024Y-100427242D01*
X134819114Y-100559906D01*
X134811004Y-100575078D01*
X134704659Y-100704659D01*
X134575077Y-100811005D01*
X134427241Y-100890024D01*
X134266822Y-100938687D01*
X134100000Y-100955117D01*
X133933177Y-100938687D01*
X133772758Y-100890024D01*
X133624924Y-100811005D01*
X133624922Y-100811004D01*
X133495341Y-100704659D01*
X133388995Y-100575077D01*
X133309976Y-100427241D01*
X133261313Y-100266822D01*
X133249000Y-100141803D01*
X133249000Y-99258197D01*
X133261314Y-99133177D01*
X133309977Y-98972758D01*
X133388996Y-98824924D01*
X133388997Y-98824922D01*
X133495342Y-98695341D01*
X133624923Y-98588996D01*
X133640095Y-98580886D01*
X133772759Y-98509976D01*
X133933178Y-98461313D01*
X134100000Y-98444883D01*
X134266823Y-98461313D01*
G37*
G36*
X111406823Y-98461313D02*
G01*
X111567242Y-98509976D01*
X111699906Y-98580886D01*
X111715078Y-98588996D01*
X111844659Y-98695341D01*
X111951004Y-98824922D01*
X111951005Y-98824924D01*
X112030024Y-98972758D01*
X112078687Y-99133178D01*
X112091000Y-99258197D01*
X112091000Y-100141804D01*
X112078687Y-100266823D01*
X112030024Y-100427242D01*
X111959114Y-100559906D01*
X111951004Y-100575078D01*
X111844659Y-100704659D01*
X111715077Y-100811005D01*
X111567241Y-100890024D01*
X111406822Y-100938687D01*
X111240000Y-100955117D01*
X111073177Y-100938687D01*
X110912758Y-100890024D01*
X110764924Y-100811005D01*
X110764922Y-100811004D01*
X110635341Y-100704659D01*
X110528995Y-100575077D01*
X110449976Y-100427241D01*
X110401313Y-100266822D01*
X110389000Y-100141803D01*
X110389000Y-99258197D01*
X110401314Y-99133177D01*
X110449977Y-98972758D01*
X110528996Y-98824924D01*
X110528997Y-98824922D01*
X110635342Y-98695341D01*
X110764923Y-98588996D01*
X110780095Y-98580886D01*
X110912759Y-98509976D01*
X111073178Y-98461313D01*
X111240000Y-98444883D01*
X111406823Y-98461313D01*
G37*
G36*
X98706823Y-98461313D02*
G01*
X98867242Y-98509976D01*
X98999906Y-98580886D01*
X99015078Y-98588996D01*
X99144659Y-98695341D01*
X99251004Y-98824922D01*
X99251005Y-98824924D01*
X99330024Y-98972758D01*
X99378687Y-99133178D01*
X99391000Y-99258197D01*
X99391000Y-100141804D01*
X99378687Y-100266823D01*
X99330024Y-100427242D01*
X99259114Y-100559906D01*
X99251004Y-100575078D01*
X99144659Y-100704659D01*
X99015077Y-100811005D01*
X98867241Y-100890024D01*
X98706822Y-100938687D01*
X98540000Y-100955117D01*
X98373177Y-100938687D01*
X98212758Y-100890024D01*
X98064924Y-100811005D01*
X98064922Y-100811004D01*
X97935341Y-100704659D01*
X97828995Y-100575077D01*
X97749976Y-100427241D01*
X97701313Y-100266822D01*
X97689000Y-100141803D01*
X97689000Y-99258197D01*
X97701314Y-99133177D01*
X97749977Y-98972758D01*
X97828996Y-98824924D01*
X97828997Y-98824922D01*
X97935342Y-98695341D01*
X98064923Y-98588996D01*
X98080095Y-98580886D01*
X98212759Y-98509976D01*
X98373178Y-98461313D01*
X98540000Y-98444883D01*
X98706823Y-98461313D01*
G37*
G36*
X103786823Y-98461313D02*
G01*
X103947242Y-98509976D01*
X104079906Y-98580886D01*
X104095078Y-98588996D01*
X104224659Y-98695341D01*
X104331004Y-98824922D01*
X104331005Y-98824924D01*
X104410024Y-98972758D01*
X104458687Y-99133178D01*
X104471000Y-99258197D01*
X104471000Y-100141804D01*
X104458687Y-100266823D01*
X104410024Y-100427242D01*
X104339114Y-100559906D01*
X104331004Y-100575078D01*
X104224659Y-100704659D01*
X104095077Y-100811005D01*
X103947241Y-100890024D01*
X103786822Y-100938687D01*
X103620000Y-100955117D01*
X103453177Y-100938687D01*
X103292758Y-100890024D01*
X103144924Y-100811005D01*
X103144922Y-100811004D01*
X103015341Y-100704659D01*
X102908995Y-100575077D01*
X102829976Y-100427241D01*
X102781313Y-100266822D01*
X102769000Y-100141803D01*
X102769000Y-99258197D01*
X102781314Y-99133177D01*
X102829977Y-98972758D01*
X102908996Y-98824924D01*
X102908997Y-98824922D01*
X103015342Y-98695341D01*
X103144923Y-98588996D01*
X103160095Y-98580886D01*
X103292759Y-98509976D01*
X103453178Y-98461313D01*
X103620000Y-98444883D01*
X103786823Y-98461313D01*
G37*
G36*
X121566823Y-98461313D02*
G01*
X121727242Y-98509976D01*
X121859906Y-98580886D01*
X121875078Y-98588996D01*
X122004659Y-98695341D01*
X122111004Y-98824922D01*
X122111005Y-98824924D01*
X122190024Y-98972758D01*
X122238687Y-99133178D01*
X122251000Y-99258197D01*
X122251000Y-100141804D01*
X122238687Y-100266823D01*
X122190024Y-100427242D01*
X122119114Y-100559906D01*
X122111004Y-100575078D01*
X122004659Y-100704659D01*
X121875077Y-100811005D01*
X121727241Y-100890024D01*
X121566822Y-100938687D01*
X121400000Y-100955117D01*
X121233177Y-100938687D01*
X121072758Y-100890024D01*
X120924924Y-100811005D01*
X120924922Y-100811004D01*
X120795341Y-100704659D01*
X120688995Y-100575077D01*
X120609976Y-100427241D01*
X120561313Y-100266822D01*
X120549000Y-100141803D01*
X120549000Y-99258197D01*
X120561314Y-99133177D01*
X120609977Y-98972758D01*
X120688996Y-98824924D01*
X120688997Y-98824922D01*
X120795342Y-98695341D01*
X120924923Y-98588996D01*
X120940095Y-98580886D01*
X121072759Y-98509976D01*
X121233178Y-98461313D01*
X121400000Y-98444883D01*
X121566823Y-98461313D01*
G37*
G36*
X144426823Y-98461313D02*
G01*
X144587242Y-98509976D01*
X144719906Y-98580886D01*
X144735078Y-98588996D01*
X144864659Y-98695341D01*
X144971004Y-98824922D01*
X144971005Y-98824924D01*
X145050024Y-98972758D01*
X145098687Y-99133178D01*
X145111000Y-99258197D01*
X145111000Y-100141804D01*
X145098687Y-100266823D01*
X145050024Y-100427242D01*
X144979114Y-100559906D01*
X144971004Y-100575078D01*
X144864659Y-100704659D01*
X144735077Y-100811005D01*
X144587241Y-100890024D01*
X144426822Y-100938687D01*
X144260000Y-100955117D01*
X144093177Y-100938687D01*
X143932758Y-100890024D01*
X143784924Y-100811005D01*
X143784922Y-100811004D01*
X143655341Y-100704659D01*
X143548995Y-100575077D01*
X143469976Y-100427241D01*
X143421313Y-100266822D01*
X143409000Y-100141803D01*
X143409000Y-99258197D01*
X143421314Y-99133177D01*
X143469977Y-98972758D01*
X143548996Y-98824924D01*
X143548997Y-98824922D01*
X143655342Y-98695341D01*
X143784923Y-98588996D01*
X143800095Y-98580886D01*
X143932759Y-98509976D01*
X144093178Y-98461313D01*
X144260000Y-98444883D01*
X144426823Y-98461313D01*
G37*
G36*
X141886823Y-98461313D02*
G01*
X142047242Y-98509976D01*
X142179906Y-98580886D01*
X142195078Y-98588996D01*
X142324659Y-98695341D01*
X142431004Y-98824922D01*
X142431005Y-98824924D01*
X142510024Y-98972758D01*
X142558687Y-99133178D01*
X142571000Y-99258197D01*
X142571000Y-100141804D01*
X142558687Y-100266823D01*
X142510024Y-100427242D01*
X142439114Y-100559906D01*
X142431004Y-100575078D01*
X142324659Y-100704659D01*
X142195077Y-100811005D01*
X142047241Y-100890024D01*
X141886822Y-100938687D01*
X141720000Y-100955117D01*
X141553177Y-100938687D01*
X141392758Y-100890024D01*
X141244924Y-100811005D01*
X141244922Y-100811004D01*
X141115341Y-100704659D01*
X141008995Y-100575077D01*
X140929976Y-100427241D01*
X140881313Y-100266822D01*
X140869000Y-100141803D01*
X140869000Y-99258197D01*
X140881314Y-99133177D01*
X140929977Y-98972758D01*
X141008996Y-98824924D01*
X141008997Y-98824922D01*
X141115342Y-98695341D01*
X141244923Y-98588996D01*
X141260095Y-98580886D01*
X141392759Y-98509976D01*
X141553178Y-98461313D01*
X141720000Y-98444883D01*
X141886823Y-98461313D01*
G37*
G36*
X139346823Y-98461313D02*
G01*
X139507242Y-98509976D01*
X139639906Y-98580886D01*
X139655078Y-98588996D01*
X139784659Y-98695341D01*
X139891004Y-98824922D01*
X139891005Y-98824924D01*
X139970024Y-98972758D01*
X140018687Y-99133178D01*
X140031000Y-99258197D01*
X140031000Y-100141804D01*
X140018687Y-100266823D01*
X139970024Y-100427242D01*
X139899114Y-100559906D01*
X139891004Y-100575078D01*
X139784659Y-100704659D01*
X139655077Y-100811005D01*
X139507241Y-100890024D01*
X139346822Y-100938687D01*
X139180000Y-100955117D01*
X139013177Y-100938687D01*
X138852758Y-100890024D01*
X138704924Y-100811005D01*
X138704922Y-100811004D01*
X138575341Y-100704659D01*
X138468995Y-100575077D01*
X138389976Y-100427241D01*
X138341313Y-100266822D01*
X138329000Y-100141803D01*
X138329000Y-99258197D01*
X138341314Y-99133177D01*
X138389977Y-98972758D01*
X138468996Y-98824924D01*
X138468997Y-98824922D01*
X138575342Y-98695341D01*
X138704923Y-98588996D01*
X138720095Y-98580886D01*
X138852759Y-98509976D01*
X139013178Y-98461313D01*
X139180000Y-98444883D01*
X139346823Y-98461313D01*
G37*
G36*
X136806823Y-98461313D02*
G01*
X136967242Y-98509976D01*
X137099906Y-98580886D01*
X137115078Y-98588996D01*
X137244659Y-98695341D01*
X137351004Y-98824922D01*
X137351005Y-98824924D01*
X137430024Y-98972758D01*
X137478687Y-99133178D01*
X137491000Y-99258197D01*
X137491000Y-100141804D01*
X137478687Y-100266823D01*
X137430024Y-100427242D01*
X137359114Y-100559906D01*
X137351004Y-100575078D01*
X137244659Y-100704659D01*
X137115077Y-100811005D01*
X136967241Y-100890024D01*
X136806822Y-100938687D01*
X136640000Y-100955117D01*
X136473177Y-100938687D01*
X136312758Y-100890024D01*
X136164924Y-100811005D01*
X136164922Y-100811004D01*
X136035341Y-100704659D01*
X135928995Y-100575077D01*
X135849976Y-100427241D01*
X135801313Y-100266822D01*
X135789000Y-100141803D01*
X135789000Y-99258197D01*
X135801314Y-99133177D01*
X135849977Y-98972758D01*
X135928996Y-98824924D01*
X135928997Y-98824922D01*
X136035342Y-98695341D01*
X136164923Y-98588996D01*
X136180095Y-98580886D01*
X136312759Y-98509976D01*
X136473178Y-98461313D01*
X136640000Y-98444883D01*
X136806823Y-98461313D01*
G37*
G36*
X108866823Y-98461313D02*
G01*
X109027242Y-98509976D01*
X109159906Y-98580886D01*
X109175078Y-98588996D01*
X109304659Y-98695341D01*
X109411004Y-98824922D01*
X109411005Y-98824924D01*
X109490024Y-98972758D01*
X109538687Y-99133178D01*
X109551000Y-99258197D01*
X109551000Y-100141804D01*
X109538687Y-100266823D01*
X109490024Y-100427242D01*
X109419114Y-100559906D01*
X109411004Y-100575078D01*
X109304659Y-100704659D01*
X109175077Y-100811005D01*
X109027241Y-100890024D01*
X108866822Y-100938687D01*
X108700000Y-100955117D01*
X108533177Y-100938687D01*
X108372758Y-100890024D01*
X108224924Y-100811005D01*
X108224922Y-100811004D01*
X108095341Y-100704659D01*
X107988995Y-100575077D01*
X107909976Y-100427241D01*
X107861313Y-100266822D01*
X107849000Y-100141803D01*
X107849000Y-99258197D01*
X107861314Y-99133177D01*
X107909977Y-98972758D01*
X107988996Y-98824924D01*
X107988997Y-98824922D01*
X108095342Y-98695341D01*
X108224923Y-98588996D01*
X108240095Y-98580886D01*
X108372759Y-98509976D01*
X108533178Y-98461313D01*
X108700000Y-98444883D01*
X108866823Y-98461313D01*
G37*
G36*
X147651000Y-100951000D02*
G01*
X145949000Y-100951000D01*
X145949000Y-98449000D01*
X147651000Y-98449000D01*
X147651000Y-100951000D01*
G37*
G36*
X98268412Y-88445135D02*
G01*
X98500346Y-88491269D01*
X98937300Y-88672262D01*
X99330548Y-88935022D01*
X99664978Y-89269452D01*
X99927738Y-89662700D01*
X100108731Y-90099654D01*
X100201000Y-90563522D01*
X100201000Y-91036478D01*
X100108731Y-91500346D01*
X99927738Y-91937300D01*
X99664978Y-92330548D01*
X99330548Y-92664978D01*
X98937300Y-92927738D01*
X98500346Y-93108731D01*
X98268412Y-93154866D01*
X98036479Y-93201000D01*
X97563521Y-93201000D01*
X97331588Y-93154866D01*
X97099654Y-93108731D01*
X96662700Y-92927738D01*
X96269452Y-92664978D01*
X95935022Y-92330548D01*
X95672262Y-91937300D01*
X95491269Y-91500346D01*
X95399000Y-91036478D01*
X95399000Y-90563522D01*
X95491269Y-90099654D01*
X95672262Y-89662700D01*
X95935022Y-89269452D01*
X96269452Y-88935022D01*
X96662700Y-88672262D01*
X97099654Y-88491269D01*
X97331588Y-88445135D01*
X97563521Y-88399000D01*
X98036479Y-88399000D01*
X98268412Y-88445135D01*
G37*
G36*
X146968412Y-88345134D02*
G01*
X147200346Y-88391269D01*
X147637300Y-88572262D01*
X148030548Y-88835022D01*
X148364978Y-89169452D01*
X148627738Y-89562700D01*
X148808731Y-89999654D01*
X148901000Y-90463522D01*
X148901000Y-90936478D01*
X148808731Y-91400346D01*
X148627738Y-91837300D01*
X148364978Y-92230548D01*
X148030548Y-92564978D01*
X147637300Y-92827738D01*
X147200346Y-93008731D01*
X146968412Y-93054866D01*
X146736479Y-93101000D01*
X146263521Y-93101000D01*
X146031588Y-93054865D01*
X145799654Y-93008731D01*
X145362700Y-92827738D01*
X144969452Y-92564978D01*
X144635022Y-92230548D01*
X144372262Y-91837300D01*
X144191269Y-91400346D01*
X144099000Y-90936478D01*
X144099000Y-90463522D01*
X144191269Y-89999654D01*
X144372262Y-89562700D01*
X144635022Y-89169452D01*
X144969452Y-88835022D01*
X145362700Y-88572262D01*
X145799654Y-88391269D01*
X146031588Y-88345135D01*
X146263521Y-88299000D01*
X146736479Y-88299000D01*
X146968412Y-88345134D01*
G37*
G36*
X111266416Y-72989879D02*
G01*
X111457592Y-73069067D01*
X111457594Y-73069068D01*
X111629648Y-73184031D01*
X111775969Y-73330352D01*
X111890933Y-73502408D01*
X111970121Y-73693584D01*
X112010490Y-73896534D01*
X112010490Y-74103466D01*
X111970121Y-74306416D01*
X111890933Y-74497592D01*
X111890932Y-74497594D01*
X111775969Y-74669648D01*
X111629648Y-74815969D01*
X111457594Y-74930932D01*
X111457593Y-74930933D01*
X111457592Y-74930933D01*
X111266416Y-75010121D01*
X111063466Y-75050490D01*
X110856534Y-75050490D01*
X110653584Y-75010121D01*
X110462408Y-74930933D01*
X110462407Y-74930933D01*
X110462406Y-74930932D01*
X110290352Y-74815969D01*
X110144031Y-74669648D01*
X110029068Y-74497594D01*
X110029067Y-74497592D01*
X109949879Y-74306416D01*
X109909510Y-74103466D01*
X109909510Y-73896534D01*
X109949879Y-73693584D01*
X110029067Y-73502408D01*
X110144031Y-73330352D01*
X110290352Y-73184031D01*
X110462406Y-73069068D01*
X110462408Y-73069067D01*
X110653584Y-72989879D01*
X110856534Y-72949510D01*
X111063466Y-72949510D01*
X111266416Y-72989879D01*
G37*
G36*
X101850490Y-75050490D02*
G01*
X99749510Y-75050490D01*
X99749510Y-72949510D01*
X101850490Y-72949510D01*
X101850490Y-75050490D01*
G37*
G36*
X103646416Y-72989879D02*
G01*
X103837592Y-73069067D01*
X103837594Y-73069068D01*
X104009648Y-73184031D01*
X104155969Y-73330352D01*
X104270933Y-73502408D01*
X104350121Y-73693584D01*
X104390490Y-73896534D01*
X104390490Y-74103466D01*
X104350121Y-74306416D01*
X104270933Y-74497592D01*
X104270932Y-74497594D01*
X104155969Y-74669648D01*
X104009648Y-74815969D01*
X103837594Y-74930932D01*
X103837593Y-74930933D01*
X103837592Y-74930933D01*
X103646416Y-75010121D01*
X103443466Y-75050490D01*
X103236534Y-75050490D01*
X103033584Y-75010121D01*
X102842408Y-74930933D01*
X102842407Y-74930933D01*
X102842406Y-74930932D01*
X102670352Y-74815969D01*
X102524031Y-74669648D01*
X102409068Y-74497594D01*
X102409067Y-74497592D01*
X102329879Y-74306416D01*
X102289510Y-74103466D01*
X102289510Y-73896534D01*
X102329879Y-73693584D01*
X102409067Y-73502408D01*
X102524031Y-73330352D01*
X102670352Y-73184031D01*
X102842406Y-73069068D01*
X102842408Y-73069067D01*
X103033584Y-72989879D01*
X103236534Y-72949510D01*
X103443466Y-72949510D01*
X103646416Y-72989879D01*
G37*
G36*
X106186416Y-72989879D02*
G01*
X106377592Y-73069067D01*
X106377594Y-73069068D01*
X106549648Y-73184031D01*
X106695969Y-73330352D01*
X106810933Y-73502408D01*
X106890121Y-73693584D01*
X106930490Y-73896534D01*
X106930490Y-74103466D01*
X106890121Y-74306416D01*
X106810933Y-74497592D01*
X106810932Y-74497594D01*
X106695969Y-74669648D01*
X106549648Y-74815969D01*
X106377594Y-74930932D01*
X106377593Y-74930933D01*
X106377592Y-74930933D01*
X106186416Y-75010121D01*
X105983466Y-75050490D01*
X105776534Y-75050490D01*
X105573584Y-75010121D01*
X105382408Y-74930933D01*
X105382407Y-74930933D01*
X105382406Y-74930932D01*
X105210352Y-74815969D01*
X105064031Y-74669648D01*
X104949068Y-74497594D01*
X104949067Y-74497592D01*
X104869879Y-74306416D01*
X104829510Y-74103466D01*
X104829510Y-73896534D01*
X104869879Y-73693584D01*
X104949067Y-73502408D01*
X105064031Y-73330352D01*
X105210352Y-73184031D01*
X105382406Y-73069068D01*
X105382408Y-73069067D01*
X105573584Y-72989879D01*
X105776534Y-72949510D01*
X105983466Y-72949510D01*
X106186416Y-72989879D01*
G37*
G36*
X108726416Y-72989879D02*
G01*
X108917592Y-73069067D01*
X108917594Y-73069068D01*
X109089648Y-73184031D01*
X109235969Y-73330352D01*
X109350933Y-73502408D01*
X109430121Y-73693584D01*
X109470490Y-73896534D01*
X109470490Y-74103466D01*
X109430121Y-74306416D01*
X109350933Y-74497592D01*
X109350932Y-74497594D01*
X109235969Y-74669648D01*
X109089648Y-74815969D01*
X108917594Y-74930932D01*
X108917593Y-74930933D01*
X108917592Y-74930933D01*
X108726416Y-75010121D01*
X108523466Y-75050490D01*
X108316534Y-75050490D01*
X108113584Y-75010121D01*
X107922408Y-74930933D01*
X107922407Y-74930933D01*
X107922406Y-74930932D01*
X107750352Y-74815969D01*
X107604031Y-74669648D01*
X107489068Y-74497594D01*
X107489067Y-74497592D01*
X107409879Y-74306416D01*
X107369510Y-74103466D01*
X107369510Y-73896534D01*
X107409879Y-73693584D01*
X107489067Y-73502408D01*
X107604031Y-73330352D01*
X107750352Y-73184031D01*
X107922406Y-73069068D01*
X107922408Y-73069067D01*
X108113584Y-72989879D01*
X108316534Y-72949510D01*
X108523466Y-72949510D01*
X108726416Y-72989879D01*
G37*
G36*
X133226416Y-72989879D02*
G01*
X133417592Y-73069067D01*
X133417594Y-73069068D01*
X133589648Y-73184031D01*
X133735969Y-73330352D01*
X133850933Y-73502408D01*
X133930121Y-73693584D01*
X133970490Y-73896534D01*
X133970490Y-74103466D01*
X133930121Y-74306416D01*
X133850933Y-74497592D01*
X133850932Y-74497594D01*
X133735969Y-74669648D01*
X133589648Y-74815969D01*
X133417594Y-74930932D01*
X133417593Y-74930933D01*
X133417592Y-74930933D01*
X133226416Y-75010121D01*
X133023466Y-75050490D01*
X132816534Y-75050490D01*
X132613584Y-75010121D01*
X132422408Y-74930933D01*
X132422407Y-74930933D01*
X132422406Y-74930932D01*
X132250352Y-74815969D01*
X132104031Y-74669648D01*
X131989068Y-74497594D01*
X131989067Y-74497592D01*
X131909879Y-74306416D01*
X131869510Y-74103466D01*
X131869510Y-73896534D01*
X131909879Y-73693584D01*
X131989067Y-73502408D01*
X132104031Y-73330352D01*
X132250352Y-73184031D01*
X132422406Y-73069068D01*
X132422408Y-73069067D01*
X132613584Y-72989879D01*
X132816534Y-72949510D01*
X133023466Y-72949510D01*
X133226416Y-72989879D01*
G37*
G36*
X126350490Y-75050490D02*
G01*
X124249510Y-75050490D01*
X124249510Y-72949510D01*
X126350490Y-72949510D01*
X126350490Y-75050490D01*
G37*
G36*
X128146416Y-72989879D02*
G01*
X128337592Y-73069067D01*
X128337594Y-73069068D01*
X128509648Y-73184031D01*
X128655969Y-73330352D01*
X128770933Y-73502408D01*
X128850121Y-73693584D01*
X128890490Y-73896534D01*
X128890490Y-74103466D01*
X128850121Y-74306416D01*
X128770933Y-74497592D01*
X128770932Y-74497594D01*
X128655969Y-74669648D01*
X128509648Y-74815969D01*
X128337594Y-74930932D01*
X128337593Y-74930933D01*
X128337592Y-74930933D01*
X128146416Y-75010121D01*
X127943466Y-75050490D01*
X127736534Y-75050490D01*
X127533584Y-75010121D01*
X127342408Y-74930933D01*
X127342407Y-74930933D01*
X127342406Y-74930932D01*
X127170352Y-74815969D01*
X127024031Y-74669648D01*
X126909068Y-74497594D01*
X126909067Y-74497592D01*
X126829879Y-74306416D01*
X126789510Y-74103466D01*
X126789510Y-73896534D01*
X126829879Y-73693584D01*
X126909067Y-73502408D01*
X127024031Y-73330352D01*
X127170352Y-73184031D01*
X127342406Y-73069068D01*
X127342408Y-73069067D01*
X127533584Y-72989879D01*
X127736534Y-72949510D01*
X127943466Y-72949510D01*
X128146416Y-72989879D01*
G37*
G36*
X135766416Y-72989879D02*
G01*
X135957592Y-73069067D01*
X135957594Y-73069068D01*
X136129648Y-73184031D01*
X136275969Y-73330352D01*
X136390933Y-73502408D01*
X136470121Y-73693584D01*
X136510490Y-73896534D01*
X136510490Y-74103466D01*
X136470121Y-74306416D01*
X136390933Y-74497592D01*
X136390932Y-74497594D01*
X136275969Y-74669648D01*
X136129648Y-74815969D01*
X135957594Y-74930932D01*
X135957593Y-74930933D01*
X135957592Y-74930933D01*
X135766416Y-75010121D01*
X135563466Y-75050490D01*
X135356534Y-75050490D01*
X135153584Y-75010121D01*
X134962408Y-74930933D01*
X134962407Y-74930933D01*
X134962406Y-74930932D01*
X134790352Y-74815969D01*
X134644031Y-74669648D01*
X134529068Y-74497594D01*
X134529067Y-74497592D01*
X134449879Y-74306416D01*
X134409510Y-74103466D01*
X134409510Y-73896534D01*
X134449879Y-73693584D01*
X134529067Y-73502408D01*
X134644031Y-73330352D01*
X134790352Y-73184031D01*
X134962406Y-73069068D01*
X134962408Y-73069067D01*
X135153584Y-72989879D01*
X135356534Y-72949510D01*
X135563466Y-72949510D01*
X135766416Y-72989879D01*
G37*
G36*
X138306416Y-72989879D02*
G01*
X138497592Y-73069067D01*
X138497594Y-73069068D01*
X138669648Y-73184031D01*
X138815969Y-73330352D01*
X138930933Y-73502408D01*
X139010121Y-73693584D01*
X139050490Y-73896534D01*
X139050490Y-74103466D01*
X139010121Y-74306416D01*
X138930933Y-74497592D01*
X138930932Y-74497594D01*
X138815969Y-74669648D01*
X138669648Y-74815969D01*
X138497594Y-74930932D01*
X138497593Y-74930933D01*
X138497592Y-74930933D01*
X138306416Y-75010121D01*
X138103466Y-75050490D01*
X137896534Y-75050490D01*
X137693584Y-75010121D01*
X137502408Y-74930933D01*
X137502407Y-74930933D01*
X137502406Y-74930932D01*
X137330352Y-74815969D01*
X137184031Y-74669648D01*
X137069068Y-74497594D01*
X137069067Y-74497592D01*
X136989879Y-74306416D01*
X136949510Y-74103466D01*
X136949510Y-73896534D01*
X136989879Y-73693584D01*
X137069067Y-73502408D01*
X137184031Y-73330352D01*
X137330352Y-73184031D01*
X137502406Y-73069068D01*
X137502408Y-73069067D01*
X137693584Y-72989879D01*
X137896534Y-72949510D01*
X138103466Y-72949510D01*
X138306416Y-72989879D01*
G37*
G36*
X140846416Y-72989879D02*
G01*
X141037592Y-73069067D01*
X141037594Y-73069068D01*
X141209648Y-73184031D01*
X141355969Y-73330352D01*
X141470933Y-73502408D01*
X141550121Y-73693584D01*
X141590490Y-73896534D01*
X141590490Y-74103466D01*
X141550121Y-74306416D01*
X141470933Y-74497592D01*
X141470932Y-74497594D01*
X141355969Y-74669648D01*
X141209648Y-74815969D01*
X141037594Y-74930932D01*
X141037593Y-74930933D01*
X141037592Y-74930933D01*
X140846416Y-75010121D01*
X140643466Y-75050490D01*
X140436534Y-75050490D01*
X140233584Y-75010121D01*
X140042408Y-74930933D01*
X140042407Y-74930933D01*
X140042406Y-74930932D01*
X139870352Y-74815969D01*
X139724031Y-74669648D01*
X139609068Y-74497594D01*
X139609067Y-74497592D01*
X139529879Y-74306416D01*
X139489510Y-74103466D01*
X139489510Y-73896534D01*
X139529879Y-73693584D01*
X139609067Y-73502408D01*
X139724031Y-73330352D01*
X139870352Y-73184031D01*
X140042406Y-73069068D01*
X140042408Y-73069067D01*
X140233584Y-72989879D01*
X140436534Y-72949510D01*
X140643466Y-72949510D01*
X140846416Y-72989879D01*
G37*
G36*
X143386416Y-72989879D02*
G01*
X143577592Y-73069067D01*
X143577594Y-73069068D01*
X143749648Y-73184031D01*
X143895969Y-73330352D01*
X144010933Y-73502408D01*
X144090121Y-73693584D01*
X144130490Y-73896534D01*
X144130490Y-74103466D01*
X144090121Y-74306416D01*
X144010933Y-74497592D01*
X144010932Y-74497594D01*
X143895969Y-74669648D01*
X143749648Y-74815969D01*
X143577594Y-74930932D01*
X143577593Y-74930933D01*
X143577592Y-74930933D01*
X143386416Y-75010121D01*
X143183466Y-75050490D01*
X142976534Y-75050490D01*
X142773584Y-75010121D01*
X142582408Y-74930933D01*
X142582407Y-74930933D01*
X142582406Y-74930932D01*
X142410352Y-74815969D01*
X142264031Y-74669648D01*
X142149068Y-74497594D01*
X142149067Y-74497592D01*
X142069879Y-74306416D01*
X142029510Y-74103466D01*
X142029510Y-73896534D01*
X142069879Y-73693584D01*
X142149067Y-73502408D01*
X142264031Y-73330352D01*
X142410352Y-73184031D01*
X142582406Y-73069068D01*
X142582408Y-73069067D01*
X142773584Y-72989879D01*
X142976534Y-72949510D01*
X143183466Y-72949510D01*
X143386416Y-72989879D01*
G37*
G36*
X118886416Y-72989879D02*
G01*
X119077592Y-73069067D01*
X119077594Y-73069068D01*
X119249648Y-73184031D01*
X119395969Y-73330352D01*
X119510933Y-73502408D01*
X119590121Y-73693584D01*
X119630490Y-73896534D01*
X119630490Y-74103466D01*
X119590121Y-74306416D01*
X119510933Y-74497592D01*
X119510932Y-74497594D01*
X119395969Y-74669648D01*
X119249648Y-74815969D01*
X119077594Y-74930932D01*
X119077593Y-74930933D01*
X119077592Y-74930933D01*
X118886416Y-75010121D01*
X118683466Y-75050490D01*
X118476534Y-75050490D01*
X118273584Y-75010121D01*
X118082408Y-74930933D01*
X118082407Y-74930933D01*
X118082406Y-74930932D01*
X117910352Y-74815969D01*
X117764031Y-74669648D01*
X117649068Y-74497594D01*
X117649067Y-74497592D01*
X117569879Y-74306416D01*
X117529510Y-74103466D01*
X117529510Y-73896534D01*
X117569879Y-73693584D01*
X117649067Y-73502408D01*
X117764031Y-73330352D01*
X117910352Y-73184031D01*
X118082406Y-73069068D01*
X118082408Y-73069067D01*
X118273584Y-72989879D01*
X118476534Y-72949510D01*
X118683466Y-72949510D01*
X118886416Y-72989879D01*
G37*
G36*
X116346416Y-72989879D02*
G01*
X116537592Y-73069067D01*
X116537594Y-73069068D01*
X116709648Y-73184031D01*
X116855969Y-73330352D01*
X116970933Y-73502408D01*
X117050121Y-73693584D01*
X117090490Y-73896534D01*
X117090490Y-74103466D01*
X117050121Y-74306416D01*
X116970933Y-74497592D01*
X116970932Y-74497594D01*
X116855969Y-74669648D01*
X116709648Y-74815969D01*
X116537594Y-74930932D01*
X116537593Y-74930933D01*
X116537592Y-74930933D01*
X116346416Y-75010121D01*
X116143466Y-75050490D01*
X115936534Y-75050490D01*
X115733584Y-75010121D01*
X115542408Y-74930933D01*
X115542407Y-74930933D01*
X115542406Y-74930932D01*
X115370352Y-74815969D01*
X115224031Y-74669648D01*
X115109068Y-74497594D01*
X115109067Y-74497592D01*
X115029879Y-74306416D01*
X114989510Y-74103466D01*
X114989510Y-73896534D01*
X115029879Y-73693584D01*
X115109067Y-73502408D01*
X115224031Y-73330352D01*
X115370352Y-73184031D01*
X115542406Y-73069068D01*
X115542408Y-73069067D01*
X115733584Y-72989879D01*
X115936534Y-72949510D01*
X116143466Y-72949510D01*
X116346416Y-72989879D01*
G37*
G36*
X113806416Y-72989879D02*
G01*
X113997592Y-73069067D01*
X113997594Y-73069068D01*
X114169648Y-73184031D01*
X114315969Y-73330352D01*
X114430933Y-73502408D01*
X114510121Y-73693584D01*
X114550490Y-73896534D01*
X114550490Y-74103466D01*
X114510121Y-74306416D01*
X114430933Y-74497592D01*
X114430932Y-74497594D01*
X114315969Y-74669648D01*
X114169648Y-74815969D01*
X113997594Y-74930932D01*
X113997593Y-74930933D01*
X113997592Y-74930933D01*
X113806416Y-75010121D01*
X113603466Y-75050490D01*
X113396534Y-75050490D01*
X113193584Y-75010121D01*
X113002408Y-74930933D01*
X113002407Y-74930933D01*
X113002406Y-74930932D01*
X112830352Y-74815969D01*
X112684031Y-74669648D01*
X112569068Y-74497594D01*
X112569067Y-74497592D01*
X112489879Y-74306416D01*
X112449510Y-74103466D01*
X112449510Y-73896534D01*
X112489879Y-73693584D01*
X112569067Y-73502408D01*
X112684031Y-73330352D01*
X112830352Y-73184031D01*
X113002406Y-73069068D01*
X113002408Y-73069067D01*
X113193584Y-72989879D01*
X113396534Y-72949510D01*
X113603466Y-72949510D01*
X113806416Y-72989879D01*
G37*
G36*
X130686416Y-72989879D02*
G01*
X130877592Y-73069067D01*
X130877594Y-73069068D01*
X131049648Y-73184031D01*
X131195969Y-73330352D01*
X131310933Y-73502408D01*
X131390121Y-73693584D01*
X131430490Y-73896534D01*
X131430490Y-74103466D01*
X131390121Y-74306416D01*
X131310933Y-74497592D01*
X131310932Y-74497594D01*
X131195969Y-74669648D01*
X131049648Y-74815969D01*
X130877594Y-74930932D01*
X130877593Y-74930933D01*
X130877592Y-74930933D01*
X130686416Y-75010121D01*
X130483466Y-75050490D01*
X130276534Y-75050490D01*
X130073584Y-75010121D01*
X129882408Y-74930933D01*
X129882407Y-74930933D01*
X129882406Y-74930932D01*
X129710352Y-74815969D01*
X129564031Y-74669648D01*
X129449068Y-74497594D01*
X129449067Y-74497592D01*
X129369879Y-74306416D01*
X129329510Y-74103466D01*
X129329510Y-73896534D01*
X129369879Y-73693584D01*
X129449067Y-73502408D01*
X129564031Y-73330352D01*
X129710352Y-73184031D01*
X129882406Y-73069068D01*
X129882408Y-73069067D01*
X130073584Y-72989879D01*
X130276534Y-72949510D01*
X130483466Y-72949510D01*
X130686416Y-72989879D01*
G37*
G36*
X126350490Y-61150490D02*
G01*
X124249510Y-61150490D01*
X124249510Y-59049510D01*
X126350490Y-59049510D01*
X126350490Y-61150490D01*
G37*
G36*
X108726416Y-59089879D02*
G01*
X108917592Y-59169067D01*
X108917594Y-59169068D01*
X109089648Y-59284031D01*
X109235969Y-59430352D01*
X109350933Y-59602408D01*
X109430121Y-59793584D01*
X109470490Y-59996534D01*
X109470490Y-60203466D01*
X109430121Y-60406416D01*
X109350933Y-60597592D01*
X109350932Y-60597594D01*
X109235969Y-60769648D01*
X109089648Y-60915969D01*
X108917594Y-61030932D01*
X108917593Y-61030933D01*
X108917592Y-61030933D01*
X108726416Y-61110121D01*
X108523466Y-61150490D01*
X108316534Y-61150490D01*
X108113584Y-61110121D01*
X107922408Y-61030933D01*
X107922407Y-61030933D01*
X107922406Y-61030932D01*
X107750352Y-60915969D01*
X107604031Y-60769648D01*
X107489068Y-60597594D01*
X107489067Y-60597592D01*
X107409879Y-60406416D01*
X107369510Y-60203466D01*
X107369510Y-59996534D01*
X107409879Y-59793584D01*
X107489067Y-59602408D01*
X107604031Y-59430352D01*
X107750352Y-59284031D01*
X107922406Y-59169068D01*
X107922408Y-59169067D01*
X108113584Y-59089879D01*
X108316534Y-59049510D01*
X108523466Y-59049510D01*
X108726416Y-59089879D01*
G37*
G36*
X103646416Y-59089879D02*
G01*
X103837592Y-59169067D01*
X103837594Y-59169068D01*
X104009648Y-59284031D01*
X104155969Y-59430352D01*
X104270933Y-59602408D01*
X104350121Y-59793584D01*
X104390490Y-59996534D01*
X104390490Y-60203466D01*
X104350121Y-60406416D01*
X104270933Y-60597592D01*
X104270932Y-60597594D01*
X104155969Y-60769648D01*
X104009648Y-60915969D01*
X103837594Y-61030932D01*
X103837593Y-61030933D01*
X103837592Y-61030933D01*
X103646416Y-61110121D01*
X103443466Y-61150490D01*
X103236534Y-61150490D01*
X103033584Y-61110121D01*
X102842408Y-61030933D01*
X102842407Y-61030933D01*
X102842406Y-61030932D01*
X102670352Y-60915969D01*
X102524031Y-60769648D01*
X102409068Y-60597594D01*
X102409067Y-60597592D01*
X102329879Y-60406416D01*
X102289510Y-60203466D01*
X102289510Y-59996534D01*
X102329879Y-59793584D01*
X102409067Y-59602408D01*
X102524031Y-59430352D01*
X102670352Y-59284031D01*
X102842406Y-59169068D01*
X102842408Y-59169067D01*
X103033584Y-59089879D01*
X103236534Y-59049510D01*
X103443466Y-59049510D01*
X103646416Y-59089879D01*
G37*
G36*
X106186416Y-59089879D02*
G01*
X106377592Y-59169067D01*
X106377594Y-59169068D01*
X106549648Y-59284031D01*
X106695969Y-59430352D01*
X106810933Y-59602408D01*
X106890121Y-59793584D01*
X106930490Y-59996534D01*
X106930490Y-60203466D01*
X106890121Y-60406416D01*
X106810933Y-60597592D01*
X106810932Y-60597594D01*
X106695969Y-60769648D01*
X106549648Y-60915969D01*
X106377594Y-61030932D01*
X106377593Y-61030933D01*
X106377592Y-61030933D01*
X106186416Y-61110121D01*
X105983466Y-61150490D01*
X105776534Y-61150490D01*
X105573584Y-61110121D01*
X105382408Y-61030933D01*
X105382407Y-61030933D01*
X105382406Y-61030932D01*
X105210352Y-60915969D01*
X105064031Y-60769648D01*
X104949068Y-60597594D01*
X104949067Y-60597592D01*
X104869879Y-60406416D01*
X104829510Y-60203466D01*
X104829510Y-59996534D01*
X104869879Y-59793584D01*
X104949067Y-59602408D01*
X105064031Y-59430352D01*
X105210352Y-59284031D01*
X105382406Y-59169068D01*
X105382408Y-59169067D01*
X105573584Y-59089879D01*
X105776534Y-59049510D01*
X105983466Y-59049510D01*
X106186416Y-59089879D01*
G37*
G36*
X111266416Y-59089879D02*
G01*
X111457592Y-59169067D01*
X111457594Y-59169068D01*
X111629648Y-59284031D01*
X111775969Y-59430352D01*
X111890933Y-59602408D01*
X111970121Y-59793584D01*
X112010490Y-59996534D01*
X112010490Y-60203466D01*
X111970121Y-60406416D01*
X111890933Y-60597592D01*
X111890932Y-60597594D01*
X111775969Y-60769648D01*
X111629648Y-60915969D01*
X111457594Y-61030932D01*
X111457593Y-61030933D01*
X111457592Y-61030933D01*
X111266416Y-61110121D01*
X111063466Y-61150490D01*
X110856534Y-61150490D01*
X110653584Y-61110121D01*
X110462408Y-61030933D01*
X110462407Y-61030933D01*
X110462406Y-61030932D01*
X110290352Y-60915969D01*
X110144031Y-60769648D01*
X110029068Y-60597594D01*
X110029067Y-60597592D01*
X109949879Y-60406416D01*
X109909510Y-60203466D01*
X109909510Y-59996534D01*
X109949879Y-59793584D01*
X110029067Y-59602408D01*
X110144031Y-59430352D01*
X110290352Y-59284031D01*
X110462406Y-59169068D01*
X110462408Y-59169067D01*
X110653584Y-59089879D01*
X110856534Y-59049510D01*
X111063466Y-59049510D01*
X111266416Y-59089879D01*
G37*
G36*
X113806416Y-59089879D02*
G01*
X113997592Y-59169067D01*
X113997594Y-59169068D01*
X114169648Y-59284031D01*
X114315969Y-59430352D01*
X114430933Y-59602408D01*
X114510121Y-59793584D01*
X114550490Y-59996534D01*
X114550490Y-60203466D01*
X114510121Y-60406416D01*
X114430933Y-60597592D01*
X114430932Y-60597594D01*
X114315969Y-60769648D01*
X114169648Y-60915969D01*
X113997594Y-61030932D01*
X113997593Y-61030933D01*
X113997592Y-61030933D01*
X113806416Y-61110121D01*
X113603466Y-61150490D01*
X113396534Y-61150490D01*
X113193584Y-61110121D01*
X113002408Y-61030933D01*
X113002407Y-61030933D01*
X113002406Y-61030932D01*
X112830352Y-60915969D01*
X112684031Y-60769648D01*
X112569068Y-60597594D01*
X112569067Y-60597592D01*
X112489879Y-60406416D01*
X112449510Y-60203466D01*
X112449510Y-59996534D01*
X112489879Y-59793584D01*
X112569067Y-59602408D01*
X112684031Y-59430352D01*
X112830352Y-59284031D01*
X113002406Y-59169068D01*
X113002408Y-59169067D01*
X113193584Y-59089879D01*
X113396534Y-59049510D01*
X113603466Y-59049510D01*
X113806416Y-59089879D01*
G37*
G36*
X116346416Y-59089879D02*
G01*
X116537592Y-59169067D01*
X116537594Y-59169068D01*
X116709648Y-59284031D01*
X116855969Y-59430352D01*
X116970933Y-59602408D01*
X117050121Y-59793584D01*
X117090490Y-59996534D01*
X117090490Y-60203466D01*
X117050121Y-60406416D01*
X116970933Y-60597592D01*
X116970932Y-60597594D01*
X116855969Y-60769648D01*
X116709648Y-60915969D01*
X116537594Y-61030932D01*
X116537593Y-61030933D01*
X116537592Y-61030933D01*
X116346416Y-61110121D01*
X116143466Y-61150490D01*
X115936534Y-61150490D01*
X115733584Y-61110121D01*
X115542408Y-61030933D01*
X115542407Y-61030933D01*
X115542406Y-61030932D01*
X115370352Y-60915969D01*
X115224031Y-60769648D01*
X115109068Y-60597594D01*
X115109067Y-60597592D01*
X115029879Y-60406416D01*
X114989510Y-60203466D01*
X114989510Y-59996534D01*
X115029879Y-59793584D01*
X115109067Y-59602408D01*
X115224031Y-59430352D01*
X115370352Y-59284031D01*
X115542406Y-59169068D01*
X115542408Y-59169067D01*
X115733584Y-59089879D01*
X115936534Y-59049510D01*
X116143466Y-59049510D01*
X116346416Y-59089879D01*
G37*
G36*
X118886416Y-59089879D02*
G01*
X119077592Y-59169067D01*
X119077594Y-59169068D01*
X119249648Y-59284031D01*
X119395969Y-59430352D01*
X119510933Y-59602408D01*
X119590121Y-59793584D01*
X119630490Y-59996534D01*
X119630490Y-60203466D01*
X119590121Y-60406416D01*
X119510933Y-60597592D01*
X119510932Y-60597594D01*
X119395969Y-60769648D01*
X119249648Y-60915969D01*
X119077594Y-61030932D01*
X119077593Y-61030933D01*
X119077592Y-61030933D01*
X118886416Y-61110121D01*
X118683466Y-61150490D01*
X118476534Y-61150490D01*
X118273584Y-61110121D01*
X118082408Y-61030933D01*
X118082407Y-61030933D01*
X118082406Y-61030932D01*
X117910352Y-60915969D01*
X117764031Y-60769648D01*
X117649068Y-60597594D01*
X117649067Y-60597592D01*
X117569879Y-60406416D01*
X117529510Y-60203466D01*
X117529510Y-59996534D01*
X117569879Y-59793584D01*
X117649067Y-59602408D01*
X117764031Y-59430352D01*
X117910352Y-59284031D01*
X118082406Y-59169068D01*
X118082408Y-59169067D01*
X118273584Y-59089879D01*
X118476534Y-59049510D01*
X118683466Y-59049510D01*
X118886416Y-59089879D01*
G37*
G36*
X128146416Y-59089879D02*
G01*
X128337592Y-59169067D01*
X128337594Y-59169068D01*
X128509648Y-59284031D01*
X128655969Y-59430352D01*
X128770933Y-59602408D01*
X128850121Y-59793584D01*
X128890490Y-59996534D01*
X128890490Y-60203466D01*
X128850121Y-60406416D01*
X128770933Y-60597592D01*
X128770932Y-60597594D01*
X128655969Y-60769648D01*
X128509648Y-60915969D01*
X128337594Y-61030932D01*
X128337593Y-61030933D01*
X128337592Y-61030933D01*
X128146416Y-61110121D01*
X127943466Y-61150490D01*
X127736534Y-61150490D01*
X127533584Y-61110121D01*
X127342408Y-61030933D01*
X127342407Y-61030933D01*
X127342406Y-61030932D01*
X127170352Y-60915969D01*
X127024031Y-60769648D01*
X126909068Y-60597594D01*
X126909067Y-60597592D01*
X126829879Y-60406416D01*
X126789510Y-60203466D01*
X126789510Y-59996534D01*
X126829879Y-59793584D01*
X126909067Y-59602408D01*
X127024031Y-59430352D01*
X127170352Y-59284031D01*
X127342406Y-59169068D01*
X127342408Y-59169067D01*
X127533584Y-59089879D01*
X127736534Y-59049510D01*
X127943466Y-59049510D01*
X128146416Y-59089879D01*
G37*
G36*
X130686416Y-59089879D02*
G01*
X130877592Y-59169067D01*
X130877594Y-59169068D01*
X131049648Y-59284031D01*
X131195969Y-59430352D01*
X131310933Y-59602408D01*
X131390121Y-59793584D01*
X131430490Y-59996534D01*
X131430490Y-60203466D01*
X131390121Y-60406416D01*
X131310933Y-60597592D01*
X131310932Y-60597594D01*
X131195969Y-60769648D01*
X131049648Y-60915969D01*
X130877594Y-61030932D01*
X130877593Y-61030933D01*
X130877592Y-61030933D01*
X130686416Y-61110121D01*
X130483466Y-61150490D01*
X130276534Y-61150490D01*
X130073584Y-61110121D01*
X129882408Y-61030933D01*
X129882407Y-61030933D01*
X129882406Y-61030932D01*
X129710352Y-60915969D01*
X129564031Y-60769648D01*
X129449068Y-60597594D01*
X129449067Y-60597592D01*
X129369879Y-60406416D01*
X129329510Y-60203466D01*
X129329510Y-59996534D01*
X129369879Y-59793584D01*
X129449067Y-59602408D01*
X129564031Y-59430352D01*
X129710352Y-59284031D01*
X129882406Y-59169068D01*
X129882408Y-59169067D01*
X130073584Y-59089879D01*
X130276534Y-59049510D01*
X130483466Y-59049510D01*
X130686416Y-59089879D01*
G37*
G36*
X133226416Y-59089879D02*
G01*
X133417592Y-59169067D01*
X133417594Y-59169068D01*
X133589648Y-59284031D01*
X133735969Y-59430352D01*
X133850933Y-59602408D01*
X133930121Y-59793584D01*
X133970490Y-59996534D01*
X133970490Y-60203466D01*
X133930121Y-60406416D01*
X133850933Y-60597592D01*
X133850932Y-60597594D01*
X133735969Y-60769648D01*
X133589648Y-60915969D01*
X133417594Y-61030932D01*
X133417593Y-61030933D01*
X133417592Y-61030933D01*
X133226416Y-61110121D01*
X133023466Y-61150490D01*
X132816534Y-61150490D01*
X132613584Y-61110121D01*
X132422408Y-61030933D01*
X132422407Y-61030933D01*
X132422406Y-61030932D01*
X132250352Y-60915969D01*
X132104031Y-60769648D01*
X131989068Y-60597594D01*
X131989067Y-60597592D01*
X131909879Y-60406416D01*
X131869510Y-60203466D01*
X131869510Y-59996534D01*
X131909879Y-59793584D01*
X131989067Y-59602408D01*
X132104031Y-59430352D01*
X132250352Y-59284031D01*
X132422406Y-59169068D01*
X132422408Y-59169067D01*
X132613584Y-59089879D01*
X132816534Y-59049510D01*
X133023466Y-59049510D01*
X133226416Y-59089879D01*
G37*
G36*
X135766416Y-59089879D02*
G01*
X135957592Y-59169067D01*
X135957594Y-59169068D01*
X136129648Y-59284031D01*
X136275969Y-59430352D01*
X136390933Y-59602408D01*
X136470121Y-59793584D01*
X136510490Y-59996534D01*
X136510490Y-60203466D01*
X136470121Y-60406416D01*
X136390933Y-60597592D01*
X136390932Y-60597594D01*
X136275969Y-60769648D01*
X136129648Y-60915969D01*
X135957594Y-61030932D01*
X135957593Y-61030933D01*
X135957592Y-61030933D01*
X135766416Y-61110121D01*
X135563466Y-61150490D01*
X135356534Y-61150490D01*
X135153584Y-61110121D01*
X134962408Y-61030933D01*
X134962407Y-61030933D01*
X134962406Y-61030932D01*
X134790352Y-60915969D01*
X134644031Y-60769648D01*
X134529068Y-60597594D01*
X134529067Y-60597592D01*
X134449879Y-60406416D01*
X134409510Y-60203466D01*
X134409510Y-59996534D01*
X134449879Y-59793584D01*
X134529067Y-59602408D01*
X134644031Y-59430352D01*
X134790352Y-59284031D01*
X134962406Y-59169068D01*
X134962408Y-59169067D01*
X135153584Y-59089879D01*
X135356534Y-59049510D01*
X135563466Y-59049510D01*
X135766416Y-59089879D01*
G37*
G36*
X138306416Y-59089879D02*
G01*
X138497592Y-59169067D01*
X138497594Y-59169068D01*
X138669648Y-59284031D01*
X138815969Y-59430352D01*
X138930933Y-59602408D01*
X139010121Y-59793584D01*
X139050490Y-59996534D01*
X139050490Y-60203466D01*
X139010121Y-60406416D01*
X138930933Y-60597592D01*
X138930932Y-60597594D01*
X138815969Y-60769648D01*
X138669648Y-60915969D01*
X138497594Y-61030932D01*
X138497593Y-61030933D01*
X138497592Y-61030933D01*
X138306416Y-61110121D01*
X138103466Y-61150490D01*
X137896534Y-61150490D01*
X137693584Y-61110121D01*
X137502408Y-61030933D01*
X137502407Y-61030933D01*
X137502406Y-61030932D01*
X137330352Y-60915969D01*
X137184031Y-60769648D01*
X137069068Y-60597594D01*
X137069067Y-60597592D01*
X136989879Y-60406416D01*
X136949510Y-60203466D01*
X136949510Y-59996534D01*
X136989879Y-59793584D01*
X137069067Y-59602408D01*
X137184031Y-59430352D01*
X137330352Y-59284031D01*
X137502406Y-59169068D01*
X137502408Y-59169067D01*
X137693584Y-59089879D01*
X137896534Y-59049510D01*
X138103466Y-59049510D01*
X138306416Y-59089879D01*
G37*
G36*
X140846416Y-59089879D02*
G01*
X141037592Y-59169067D01*
X141037594Y-59169068D01*
X141209648Y-59284031D01*
X141355969Y-59430352D01*
X141470933Y-59602408D01*
X141550121Y-59793584D01*
X141590490Y-59996534D01*
X141590490Y-60203466D01*
X141550121Y-60406416D01*
X141470933Y-60597592D01*
X141470932Y-60597594D01*
X141355969Y-60769648D01*
X141209648Y-60915969D01*
X141037594Y-61030932D01*
X141037593Y-61030933D01*
X141037592Y-61030933D01*
X140846416Y-61110121D01*
X140643466Y-61150490D01*
X140436534Y-61150490D01*
X140233584Y-61110121D01*
X140042408Y-61030933D01*
X140042407Y-61030933D01*
X140042406Y-61030932D01*
X139870352Y-60915969D01*
X139724031Y-60769648D01*
X139609068Y-60597594D01*
X139609067Y-60597592D01*
X139529879Y-60406416D01*
X139489510Y-60203466D01*
X139489510Y-59996534D01*
X139529879Y-59793584D01*
X139609067Y-59602408D01*
X139724031Y-59430352D01*
X139870352Y-59284031D01*
X140042406Y-59169068D01*
X140042408Y-59169067D01*
X140233584Y-59089879D01*
X140436534Y-59049510D01*
X140643466Y-59049510D01*
X140846416Y-59089879D01*
G37*
G36*
X143386416Y-59089879D02*
G01*
X143577592Y-59169067D01*
X143577594Y-59169068D01*
X143749648Y-59284031D01*
X143895969Y-59430352D01*
X144010933Y-59602408D01*
X144090121Y-59793584D01*
X144130490Y-59996534D01*
X144130490Y-60203466D01*
X144090121Y-60406416D01*
X144010933Y-60597592D01*
X144010932Y-60597594D01*
X143895969Y-60769648D01*
X143749648Y-60915969D01*
X143577594Y-61030932D01*
X143577593Y-61030933D01*
X143577592Y-61030933D01*
X143386416Y-61110121D01*
X143183466Y-61150490D01*
X142976534Y-61150490D01*
X142773584Y-61110121D01*
X142582408Y-61030933D01*
X142582407Y-61030933D01*
X142582406Y-61030932D01*
X142410352Y-60915969D01*
X142264031Y-60769648D01*
X142149068Y-60597594D01*
X142149067Y-60597592D01*
X142069879Y-60406416D01*
X142029510Y-60203466D01*
X142029510Y-59996534D01*
X142069879Y-59793584D01*
X142149067Y-59602408D01*
X142264031Y-59430352D01*
X142410352Y-59284031D01*
X142582406Y-59169068D01*
X142582408Y-59169067D01*
X142773584Y-59089879D01*
X142976534Y-59049510D01*
X143183466Y-59049510D01*
X143386416Y-59089879D01*
G37*
G36*
X101850490Y-61150490D02*
G01*
X99749510Y-61150490D01*
X99749510Y-59049510D01*
X101850490Y-59049510D01*
X101850490Y-61150490D01*
G37*
M02*
