G04 #@! TF.GenerationSoftware,KiCad,Pcbnew,(5.1.10-0-10_14)*
G04 #@! TF.CreationDate,2021-08-04T19:55:55+02:00*
G04 #@! TF.ProjectId,quasimodo,71756173-696d-46f6-946f-2e6b69636164,rev?*
G04 #@! TF.SameCoordinates,Original*
G04 #@! TF.FileFunction,Legend,Top*
G04 #@! TF.FilePolarity,Positive*
%FSLAX46Y46*%
G04 Gerber Fmt 4.6, Leading zero omitted, Abs format (unit mm)*
G04 Created by KiCad (PCBNEW (5.1.10-0-10_14)) date 2021-08-04 19:55:55*
%MOMM*%
%LPD*%
G01*
G04 APERTURE LIST*
%ADD10C,0.150000*%
%ADD11C,0.120000*%
G04 APERTURE END LIST*
D10*
X137413904Y-83621500D02*
X137509142Y-83669119D01*
X137652000Y-83669119D01*
X137794857Y-83621500D01*
X137890095Y-83526261D01*
X137937714Y-83431023D01*
X137985333Y-83240547D01*
X137985333Y-83097690D01*
X137937714Y-82907214D01*
X137890095Y-82811976D01*
X137794857Y-82716738D01*
X137652000Y-82669119D01*
X137556761Y-82669119D01*
X137413904Y-82716738D01*
X137366285Y-82764357D01*
X137366285Y-83097690D01*
X137556761Y-83097690D01*
X136937714Y-82669119D02*
X136937714Y-83669119D01*
X136366285Y-82669119D01*
X136366285Y-83669119D01*
X135890095Y-82669119D02*
X135890095Y-83669119D01*
X135652000Y-83669119D01*
X135509142Y-83621500D01*
X135413904Y-83526261D01*
X135366285Y-83431023D01*
X135318666Y-83240547D01*
X135318666Y-83097690D01*
X135366285Y-82907214D01*
X135413904Y-82811976D01*
X135509142Y-82716738D01*
X135652000Y-82669119D01*
X135890095Y-82669119D01*
X132524190Y-80684619D02*
X131952761Y-80684619D01*
X132238476Y-79684619D02*
X132238476Y-80684619D01*
X131619428Y-79684619D02*
X131619428Y-80351285D01*
X131619428Y-80160809D02*
X131571809Y-80256047D01*
X131524190Y-80303666D01*
X131428952Y-80351285D01*
X131333714Y-80351285D01*
X131000380Y-79684619D02*
X131000380Y-80351285D01*
X131000380Y-80684619D02*
X131048000Y-80637000D01*
X131000380Y-80589380D01*
X130952761Y-80637000D01*
X131000380Y-80684619D01*
X131000380Y-80589380D01*
X130095619Y-80351285D02*
X130095619Y-79541761D01*
X130143238Y-79446523D01*
X130190857Y-79398904D01*
X130286095Y-79351285D01*
X130428952Y-79351285D01*
X130524190Y-79398904D01*
X130095619Y-79732238D02*
X130190857Y-79684619D01*
X130381333Y-79684619D01*
X130476571Y-79732238D01*
X130524190Y-79779857D01*
X130571809Y-79875095D01*
X130571809Y-80160809D01*
X130524190Y-80256047D01*
X130476571Y-80303666D01*
X130381333Y-80351285D01*
X130190857Y-80351285D01*
X130095619Y-80303666D01*
X129190857Y-80351285D02*
X129190857Y-79541761D01*
X129238476Y-79446523D01*
X129286095Y-79398904D01*
X129381333Y-79351285D01*
X129524190Y-79351285D01*
X129619428Y-79398904D01*
X129190857Y-79732238D02*
X129286095Y-79684619D01*
X129476571Y-79684619D01*
X129571809Y-79732238D01*
X129619428Y-79779857D01*
X129667047Y-79875095D01*
X129667047Y-80160809D01*
X129619428Y-80256047D01*
X129571809Y-80303666D01*
X129476571Y-80351285D01*
X129286095Y-80351285D01*
X129190857Y-80303666D01*
X128333714Y-79732238D02*
X128428952Y-79684619D01*
X128619428Y-79684619D01*
X128714666Y-79732238D01*
X128762285Y-79827476D01*
X128762285Y-80208428D01*
X128714666Y-80303666D01*
X128619428Y-80351285D01*
X128428952Y-80351285D01*
X128333714Y-80303666D01*
X128286095Y-80208428D01*
X128286095Y-80113190D01*
X128762285Y-80017952D01*
X127857523Y-79684619D02*
X127857523Y-80351285D01*
X127857523Y-80160809D02*
X127809904Y-80256047D01*
X127762285Y-80303666D01*
X127667047Y-80351285D01*
X127571809Y-80351285D01*
X149296500Y-111505904D02*
X149248880Y-111601142D01*
X149248880Y-111744000D01*
X149296500Y-111886857D01*
X149391738Y-111982095D01*
X149486976Y-112029714D01*
X149677452Y-112077333D01*
X149820309Y-112077333D01*
X150010785Y-112029714D01*
X150106023Y-111982095D01*
X150201261Y-111886857D01*
X150248880Y-111744000D01*
X150248880Y-111648761D01*
X150201261Y-111505904D01*
X150153642Y-111458285D01*
X149820309Y-111458285D01*
X149820309Y-111648761D01*
X150248880Y-111029714D02*
X149248880Y-111029714D01*
X150248880Y-110458285D01*
X149248880Y-110458285D01*
X150248880Y-109982095D02*
X149248880Y-109982095D01*
X149248880Y-109744000D01*
X149296500Y-109601142D01*
X149391738Y-109505904D01*
X149486976Y-109458285D01*
X149677452Y-109410666D01*
X149820309Y-109410666D01*
X150010785Y-109458285D01*
X150106023Y-109505904D01*
X150201261Y-109601142D01*
X150248880Y-109744000D01*
X150248880Y-109982095D01*
X153487500Y-111505904D02*
X153439880Y-111601142D01*
X153439880Y-111744000D01*
X153487500Y-111886857D01*
X153582738Y-111982095D01*
X153677976Y-112029714D01*
X153868452Y-112077333D01*
X154011309Y-112077333D01*
X154201785Y-112029714D01*
X154297023Y-111982095D01*
X154392261Y-111886857D01*
X154439880Y-111744000D01*
X154439880Y-111648761D01*
X154392261Y-111505904D01*
X154344642Y-111458285D01*
X154011309Y-111458285D01*
X154011309Y-111648761D01*
X154439880Y-111029714D02*
X153439880Y-111029714D01*
X154439880Y-110458285D01*
X153439880Y-110458285D01*
X154439880Y-109982095D02*
X153439880Y-109982095D01*
X153439880Y-109744000D01*
X153487500Y-109601142D01*
X153582738Y-109505904D01*
X153677976Y-109458285D01*
X153868452Y-109410666D01*
X154011309Y-109410666D01*
X154201785Y-109458285D01*
X154297023Y-109505904D01*
X154392261Y-109601142D01*
X154439880Y-109744000D01*
X154439880Y-109982095D01*
X161869500Y-112521904D02*
X161821880Y-112617142D01*
X161821880Y-112760000D01*
X161869500Y-112902857D01*
X161964738Y-112998095D01*
X162059976Y-113045714D01*
X162250452Y-113093333D01*
X162393309Y-113093333D01*
X162583785Y-113045714D01*
X162679023Y-112998095D01*
X162774261Y-112902857D01*
X162821880Y-112760000D01*
X162821880Y-112664761D01*
X162774261Y-112521904D01*
X162726642Y-112474285D01*
X162393309Y-112474285D01*
X162393309Y-112664761D01*
X162821880Y-112045714D02*
X161821880Y-112045714D01*
X162821880Y-111474285D01*
X161821880Y-111474285D01*
X162821880Y-110998095D02*
X161821880Y-110998095D01*
X161821880Y-110760000D01*
X161869500Y-110617142D01*
X161964738Y-110521904D01*
X162059976Y-110474285D01*
X162250452Y-110426666D01*
X162393309Y-110426666D01*
X162583785Y-110474285D01*
X162679023Y-110521904D01*
X162774261Y-110617142D01*
X162821880Y-110760000D01*
X162821880Y-110998095D01*
X155384404Y-83621500D02*
X155479642Y-83669119D01*
X155622500Y-83669119D01*
X155765357Y-83621500D01*
X155860595Y-83526261D01*
X155908214Y-83431023D01*
X155955833Y-83240547D01*
X155955833Y-83097690D01*
X155908214Y-82907214D01*
X155860595Y-82811976D01*
X155765357Y-82716738D01*
X155622500Y-82669119D01*
X155527261Y-82669119D01*
X155384404Y-82716738D01*
X155336785Y-82764357D01*
X155336785Y-83097690D01*
X155527261Y-83097690D01*
X154908214Y-82669119D02*
X154908214Y-83669119D01*
X154336785Y-82669119D01*
X154336785Y-83669119D01*
X153860595Y-82669119D02*
X153860595Y-83669119D01*
X153622500Y-83669119D01*
X153479642Y-83621500D01*
X153384404Y-83526261D01*
X153336785Y-83431023D01*
X153289166Y-83240547D01*
X153289166Y-83097690D01*
X153336785Y-82907214D01*
X153384404Y-82811976D01*
X153479642Y-82716738D01*
X153622500Y-82669119D01*
X153860595Y-82669119D01*
X149812119Y-79732238D02*
X149669261Y-79684619D01*
X149431166Y-79684619D01*
X149335928Y-79732238D01*
X149288309Y-79779857D01*
X149240690Y-79875095D01*
X149240690Y-79970333D01*
X149288309Y-80065571D01*
X149335928Y-80113190D01*
X149431166Y-80160809D01*
X149621642Y-80208428D01*
X149716880Y-80256047D01*
X149764500Y-80303666D01*
X149812119Y-80398904D01*
X149812119Y-80494142D01*
X149764500Y-80589380D01*
X149716880Y-80637000D01*
X149621642Y-80684619D01*
X149383547Y-80684619D01*
X149240690Y-80637000D01*
X148383547Y-79732238D02*
X148478785Y-79684619D01*
X148669261Y-79684619D01*
X148764500Y-79732238D01*
X148812119Y-79779857D01*
X148859738Y-79875095D01*
X148859738Y-80160809D01*
X148812119Y-80256047D01*
X148764500Y-80303666D01*
X148669261Y-80351285D01*
X148478785Y-80351285D01*
X148383547Y-80303666D01*
X147812119Y-79684619D02*
X147907357Y-79732238D01*
X147954976Y-79779857D01*
X148002595Y-79875095D01*
X148002595Y-80160809D01*
X147954976Y-80256047D01*
X147907357Y-80303666D01*
X147812119Y-80351285D01*
X147669261Y-80351285D01*
X147574023Y-80303666D01*
X147526404Y-80256047D01*
X147478785Y-80160809D01*
X147478785Y-79875095D01*
X147526404Y-79779857D01*
X147574023Y-79732238D01*
X147669261Y-79684619D01*
X147812119Y-79684619D01*
X147050214Y-80351285D02*
X147050214Y-79351285D01*
X147050214Y-80303666D02*
X146954976Y-80351285D01*
X146764500Y-80351285D01*
X146669261Y-80303666D01*
X146621642Y-80256047D01*
X146574023Y-80160809D01*
X146574023Y-79875095D01*
X146621642Y-79779857D01*
X146669261Y-79732238D01*
X146764500Y-79684619D01*
X146954976Y-79684619D01*
X147050214Y-79732238D01*
X145764500Y-79732238D02*
X145859738Y-79684619D01*
X146050214Y-79684619D01*
X146145452Y-79732238D01*
X146193071Y-79827476D01*
X146193071Y-80208428D01*
X146145452Y-80303666D01*
X146050214Y-80351285D01*
X145859738Y-80351285D01*
X145764500Y-80303666D01*
X145716880Y-80208428D01*
X145716880Y-80113190D01*
X146193071Y-80017952D01*
X167600380Y-105862214D02*
X167600380Y-105290785D01*
X168600380Y-105576500D02*
X167600380Y-105576500D01*
X168600380Y-104957452D02*
X167933714Y-104957452D01*
X168124190Y-104957452D02*
X168028952Y-104909833D01*
X167981333Y-104862214D01*
X167933714Y-104766976D01*
X167933714Y-104671738D01*
X168600380Y-103909833D02*
X168076571Y-103909833D01*
X167981333Y-103957452D01*
X167933714Y-104052690D01*
X167933714Y-104243166D01*
X167981333Y-104338404D01*
X168552761Y-103909833D02*
X168600380Y-104005071D01*
X168600380Y-104243166D01*
X168552761Y-104338404D01*
X168457523Y-104386023D01*
X168362285Y-104386023D01*
X168267047Y-104338404D01*
X168219428Y-104243166D01*
X168219428Y-104005071D01*
X168171809Y-103909833D01*
X167933714Y-103576500D02*
X167933714Y-103195547D01*
X168600380Y-103433642D02*
X167743238Y-103433642D01*
X167648000Y-103386023D01*
X167600380Y-103290785D01*
X167600380Y-103195547D01*
X168600380Y-102719357D02*
X168552761Y-102814595D01*
X168505142Y-102862214D01*
X168409904Y-102909833D01*
X168124190Y-102909833D01*
X168028952Y-102862214D01*
X167981333Y-102814595D01*
X167933714Y-102719357D01*
X167933714Y-102576500D01*
X167981333Y-102481261D01*
X168028952Y-102433642D01*
X168124190Y-102386023D01*
X168409904Y-102386023D01*
X168505142Y-102433642D01*
X168552761Y-102481261D01*
X168600380Y-102576500D01*
X168600380Y-102719357D01*
X138271261Y-117927380D02*
X137937928Y-117451190D01*
X137699833Y-117927380D02*
X137699833Y-116927380D01*
X138080785Y-116927380D01*
X138176023Y-116975000D01*
X138223642Y-117022619D01*
X138271261Y-117117857D01*
X138271261Y-117260714D01*
X138223642Y-117355952D01*
X138176023Y-117403571D01*
X138080785Y-117451190D01*
X137699833Y-117451190D01*
X138652214Y-117879761D02*
X138747452Y-117927380D01*
X138937928Y-117927380D01*
X139033166Y-117879761D01*
X139080785Y-117784523D01*
X139080785Y-117736904D01*
X139033166Y-117641666D01*
X138937928Y-117594047D01*
X138795071Y-117594047D01*
X138699833Y-117546428D01*
X138652214Y-117451190D01*
X138652214Y-117403571D01*
X138699833Y-117308333D01*
X138795071Y-117260714D01*
X138937928Y-117260714D01*
X139033166Y-117308333D01*
X141263642Y-104489238D02*
X141311261Y-104536857D01*
X141358880Y-104679714D01*
X141358880Y-104774952D01*
X141311261Y-104917809D01*
X141216023Y-105013047D01*
X141120785Y-105060666D01*
X140930309Y-105108285D01*
X140787452Y-105108285D01*
X140596976Y-105060666D01*
X140501738Y-105013047D01*
X140406500Y-104917809D01*
X140358880Y-104774952D01*
X140358880Y-104679714D01*
X140406500Y-104536857D01*
X140454119Y-104489238D01*
X141311261Y-104108285D02*
X141358880Y-104013047D01*
X141358880Y-103822571D01*
X141311261Y-103727333D01*
X141216023Y-103679714D01*
X141168404Y-103679714D01*
X141073166Y-103727333D01*
X141025547Y-103822571D01*
X141025547Y-103965428D01*
X140977928Y-104060666D01*
X140882690Y-104108285D01*
X140835071Y-104108285D01*
X140739833Y-104060666D01*
X140692214Y-103965428D01*
X140692214Y-103822571D01*
X140739833Y-103727333D01*
X134334261Y-85701142D02*
X134286642Y-85748761D01*
X134143785Y-85796380D01*
X134048547Y-85796380D01*
X133905690Y-85748761D01*
X133810452Y-85653523D01*
X133762833Y-85558285D01*
X133715214Y-85367809D01*
X133715214Y-85224952D01*
X133762833Y-85034476D01*
X133810452Y-84939238D01*
X133905690Y-84844000D01*
X134048547Y-84796380D01*
X134143785Y-84796380D01*
X134286642Y-84844000D01*
X134334261Y-84891619D01*
X134667595Y-85796380D02*
X135191404Y-85129714D01*
X134667595Y-85129714D02*
X135191404Y-85796380D01*
X116895500Y-110934595D02*
X116943119Y-110839357D01*
X116943119Y-110696500D01*
X116895500Y-110553642D01*
X116800261Y-110458404D01*
X116705023Y-110410785D01*
X116514547Y-110363166D01*
X116371690Y-110363166D01*
X116181214Y-110410785D01*
X116085976Y-110458404D01*
X115990738Y-110553642D01*
X115943119Y-110696500D01*
X115943119Y-110791738D01*
X115990738Y-110934595D01*
X116038357Y-110982214D01*
X116371690Y-110982214D01*
X116371690Y-110791738D01*
X115943119Y-111410785D02*
X116943119Y-111410785D01*
X115943119Y-111982214D01*
X116943119Y-111982214D01*
X115943119Y-112458404D02*
X116943119Y-112458404D01*
X116943119Y-112696500D01*
X116895500Y-112839357D01*
X116800261Y-112934595D01*
X116705023Y-112982214D01*
X116514547Y-113029833D01*
X116371690Y-113029833D01*
X116181214Y-112982214D01*
X116085976Y-112934595D01*
X115990738Y-112839357D01*
X115943119Y-112696500D01*
X115943119Y-112458404D01*
X116943119Y-103251166D02*
X115943119Y-103584500D01*
X116943119Y-103917833D01*
X116038357Y-104822595D02*
X115990738Y-104774976D01*
X115943119Y-104632119D01*
X115943119Y-104536880D01*
X115990738Y-104394023D01*
X116085976Y-104298785D01*
X116181214Y-104251166D01*
X116371690Y-104203547D01*
X116514547Y-104203547D01*
X116705023Y-104251166D01*
X116800261Y-104298785D01*
X116895500Y-104394023D01*
X116943119Y-104536880D01*
X116943119Y-104632119D01*
X116895500Y-104774976D01*
X116847880Y-104822595D01*
X116038357Y-105822595D02*
X115990738Y-105774976D01*
X115943119Y-105632119D01*
X115943119Y-105536880D01*
X115990738Y-105394023D01*
X116085976Y-105298785D01*
X116181214Y-105251166D01*
X116371690Y-105203547D01*
X116514547Y-105203547D01*
X116705023Y-105251166D01*
X116800261Y-105298785D01*
X116895500Y-105394023D01*
X116943119Y-105536880D01*
X116943119Y-105632119D01*
X116895500Y-105774976D01*
X116847880Y-105822595D01*
X134700714Y-121737380D02*
X134700714Y-121070714D01*
X134700714Y-121165952D02*
X134748333Y-121118333D01*
X134843571Y-121070714D01*
X134986428Y-121070714D01*
X135081666Y-121118333D01*
X135129285Y-121213571D01*
X135129285Y-121737380D01*
X135129285Y-121213571D02*
X135176904Y-121118333D01*
X135272142Y-121070714D01*
X135415000Y-121070714D01*
X135510238Y-121118333D01*
X135557857Y-121213571D01*
X135557857Y-121737380D01*
X136034047Y-121737380D02*
X136034047Y-121070714D01*
X136034047Y-120737380D02*
X135986428Y-120785000D01*
X136034047Y-120832619D01*
X136081666Y-120785000D01*
X136034047Y-120737380D01*
X136034047Y-120832619D01*
X136938809Y-121689761D02*
X136843571Y-121737380D01*
X136653095Y-121737380D01*
X136557857Y-121689761D01*
X136510238Y-121642142D01*
X136462619Y-121546904D01*
X136462619Y-121261190D01*
X136510238Y-121165952D01*
X136557857Y-121118333D01*
X136653095Y-121070714D01*
X136843571Y-121070714D01*
X136938809Y-121118333D01*
X137367380Y-121737380D02*
X137367380Y-120737380D01*
X137795952Y-121737380D02*
X137795952Y-121213571D01*
X137748333Y-121118333D01*
X137653095Y-121070714D01*
X137510238Y-121070714D01*
X137415000Y-121118333D01*
X137367380Y-121165952D01*
X138700714Y-121737380D02*
X138700714Y-121213571D01*
X138653095Y-121118333D01*
X138557857Y-121070714D01*
X138367380Y-121070714D01*
X138272142Y-121118333D01*
X138700714Y-121689761D02*
X138605476Y-121737380D01*
X138367380Y-121737380D01*
X138272142Y-121689761D01*
X138224523Y-121594523D01*
X138224523Y-121499285D01*
X138272142Y-121404047D01*
X138367380Y-121356428D01*
X138605476Y-121356428D01*
X138700714Y-121308809D01*
X139557857Y-121689761D02*
X139462619Y-121737380D01*
X139272142Y-121737380D01*
X139176904Y-121689761D01*
X139129285Y-121594523D01*
X139129285Y-121213571D01*
X139176904Y-121118333D01*
X139272142Y-121070714D01*
X139462619Y-121070714D01*
X139557857Y-121118333D01*
X139605476Y-121213571D01*
X139605476Y-121308809D01*
X139129285Y-121404047D01*
X140176904Y-121737380D02*
X140081666Y-121689761D01*
X140034047Y-121594523D01*
X140034047Y-120737380D01*
X140510238Y-121689761D02*
X140605476Y-121737380D01*
X140795952Y-121737380D01*
X140891190Y-121689761D01*
X140938809Y-121594523D01*
X140938809Y-121546904D01*
X140891190Y-121451666D01*
X140795952Y-121404047D01*
X140653095Y-121404047D01*
X140557857Y-121356428D01*
X140510238Y-121261190D01*
X140510238Y-121213571D01*
X140557857Y-121118333D01*
X140653095Y-121070714D01*
X140795952Y-121070714D01*
X140891190Y-121118333D01*
X141795952Y-121689761D02*
X141700714Y-121737380D01*
X141510238Y-121737380D01*
X141415000Y-121689761D01*
X141367380Y-121642142D01*
X141319761Y-121546904D01*
X141319761Y-121261190D01*
X141367380Y-121165952D01*
X141415000Y-121118333D01*
X141510238Y-121070714D01*
X141700714Y-121070714D01*
X141795952Y-121118333D01*
X142224523Y-121737380D02*
X142224523Y-120737380D01*
X142653095Y-121737380D02*
X142653095Y-121213571D01*
X142605476Y-121118333D01*
X142510238Y-121070714D01*
X142367380Y-121070714D01*
X142272142Y-121118333D01*
X142224523Y-121165952D01*
X143510238Y-121689761D02*
X143415000Y-121737380D01*
X143224523Y-121737380D01*
X143129285Y-121689761D01*
X143081666Y-121594523D01*
X143081666Y-121213571D01*
X143129285Y-121118333D01*
X143224523Y-121070714D01*
X143415000Y-121070714D01*
X143510238Y-121118333D01*
X143557857Y-121213571D01*
X143557857Y-121308809D01*
X143081666Y-121404047D01*
X143986428Y-121070714D02*
X143986428Y-121737380D01*
X143986428Y-121165952D02*
X144034047Y-121118333D01*
X144129285Y-121070714D01*
X144272142Y-121070714D01*
X144367380Y-121118333D01*
X144415000Y-121213571D01*
X144415000Y-121737380D01*
X144891190Y-121737380D02*
X144891190Y-120737380D01*
X144986428Y-121356428D02*
X145272142Y-121737380D01*
X145272142Y-121070714D02*
X144891190Y-121451666D01*
X145605476Y-120737380D02*
X146272142Y-120737380D01*
X145843571Y-121737380D01*
X146605476Y-120832619D02*
X146653095Y-120785000D01*
X146748333Y-120737380D01*
X146986428Y-120737380D01*
X147081666Y-120785000D01*
X147129285Y-120832619D01*
X147176904Y-120927857D01*
X147176904Y-121023095D01*
X147129285Y-121165952D01*
X146557857Y-121737380D01*
X147176904Y-121737380D01*
X148224523Y-121261190D02*
X148176904Y-121213571D01*
X148081666Y-121165952D01*
X147986428Y-121165952D01*
X147891190Y-121213571D01*
X147843571Y-121261190D01*
X147795952Y-121356428D01*
X147795952Y-121451666D01*
X147843571Y-121546904D01*
X147891190Y-121594523D01*
X147986428Y-121642142D01*
X148081666Y-121642142D01*
X148176904Y-121594523D01*
X148224523Y-121546904D01*
X148224523Y-121165952D02*
X148224523Y-121546904D01*
X148272142Y-121594523D01*
X148319761Y-121594523D01*
X148415000Y-121546904D01*
X148462619Y-121451666D01*
X148462619Y-121213571D01*
X148367380Y-121070714D01*
X148224523Y-120975476D01*
X148034047Y-120927857D01*
X147843571Y-120975476D01*
X147700714Y-121070714D01*
X147605476Y-121213571D01*
X147557857Y-121404047D01*
X147605476Y-121594523D01*
X147700714Y-121737380D01*
X147843571Y-121832619D01*
X148034047Y-121880238D01*
X148224523Y-121832619D01*
X148367380Y-121737380D01*
X149319761Y-121070714D02*
X149319761Y-121880238D01*
X149272142Y-121975476D01*
X149224523Y-122023095D01*
X149129285Y-122070714D01*
X148986428Y-122070714D01*
X148891190Y-122023095D01*
X149319761Y-121689761D02*
X149224523Y-121737380D01*
X149034047Y-121737380D01*
X148938809Y-121689761D01*
X148891190Y-121642142D01*
X148843571Y-121546904D01*
X148843571Y-121261190D01*
X148891190Y-121165952D01*
X148938809Y-121118333D01*
X149034047Y-121070714D01*
X149224523Y-121070714D01*
X149319761Y-121118333D01*
X149795952Y-121737380D02*
X149795952Y-121070714D01*
X149795952Y-121165952D02*
X149843571Y-121118333D01*
X149938809Y-121070714D01*
X150081666Y-121070714D01*
X150176904Y-121118333D01*
X150224523Y-121213571D01*
X150224523Y-121737380D01*
X150224523Y-121213571D02*
X150272142Y-121118333D01*
X150367380Y-121070714D01*
X150510238Y-121070714D01*
X150605476Y-121118333D01*
X150653095Y-121213571D01*
X150653095Y-121737380D01*
X151557857Y-121737380D02*
X151557857Y-121213571D01*
X151510238Y-121118333D01*
X151415000Y-121070714D01*
X151224523Y-121070714D01*
X151129285Y-121118333D01*
X151557857Y-121689761D02*
X151462619Y-121737380D01*
X151224523Y-121737380D01*
X151129285Y-121689761D01*
X151081666Y-121594523D01*
X151081666Y-121499285D01*
X151129285Y-121404047D01*
X151224523Y-121356428D01*
X151462619Y-121356428D01*
X151557857Y-121308809D01*
X152034047Y-121737380D02*
X152034047Y-121070714D01*
X152034047Y-120737380D02*
X151986428Y-120785000D01*
X152034047Y-120832619D01*
X152081666Y-120785000D01*
X152034047Y-120737380D01*
X152034047Y-120832619D01*
X152653095Y-121737380D02*
X152557857Y-121689761D01*
X152510238Y-121594523D01*
X152510238Y-120737380D01*
X153034047Y-121642142D02*
X153081666Y-121689761D01*
X153034047Y-121737380D01*
X152986428Y-121689761D01*
X153034047Y-121642142D01*
X153034047Y-121737380D01*
X153938809Y-121689761D02*
X153843571Y-121737380D01*
X153653095Y-121737380D01*
X153557857Y-121689761D01*
X153510238Y-121642142D01*
X153462619Y-121546904D01*
X153462619Y-121261190D01*
X153510238Y-121165952D01*
X153557857Y-121118333D01*
X153653095Y-121070714D01*
X153843571Y-121070714D01*
X153938809Y-121118333D01*
X154510238Y-121737380D02*
X154415000Y-121689761D01*
X154367380Y-121642142D01*
X154319761Y-121546904D01*
X154319761Y-121261190D01*
X154367380Y-121165952D01*
X154415000Y-121118333D01*
X154510238Y-121070714D01*
X154653095Y-121070714D01*
X154748333Y-121118333D01*
X154795952Y-121165952D01*
X154843571Y-121261190D01*
X154843571Y-121546904D01*
X154795952Y-121642142D01*
X154748333Y-121689761D01*
X154653095Y-121737380D01*
X154510238Y-121737380D01*
X155272142Y-121737380D02*
X155272142Y-121070714D01*
X155272142Y-121165952D02*
X155319761Y-121118333D01*
X155415000Y-121070714D01*
X155557857Y-121070714D01*
X155653095Y-121118333D01*
X155700714Y-121213571D01*
X155700714Y-121737380D01*
X155700714Y-121213571D02*
X155748333Y-121118333D01*
X155843571Y-121070714D01*
X155986428Y-121070714D01*
X156081666Y-121118333D01*
X156129285Y-121213571D01*
X156129285Y-121737380D01*
X152241809Y-89258619D02*
X152146571Y-89211000D01*
X152051333Y-89115761D01*
X151908476Y-88972904D01*
X151813238Y-88925285D01*
X151718000Y-88925285D01*
X151765619Y-89163380D02*
X151670380Y-89115761D01*
X151575142Y-89020523D01*
X151527523Y-88830047D01*
X151527523Y-88496714D01*
X151575142Y-88306238D01*
X151670380Y-88211000D01*
X151765619Y-88163380D01*
X151956095Y-88163380D01*
X152051333Y-88211000D01*
X152146571Y-88306238D01*
X152194190Y-88496714D01*
X152194190Y-88830047D01*
X152146571Y-89020523D01*
X152051333Y-89115761D01*
X151956095Y-89163380D01*
X151765619Y-89163380D01*
X153051333Y-88496714D02*
X153051333Y-89163380D01*
X152622761Y-88496714D02*
X152622761Y-89020523D01*
X152670380Y-89115761D01*
X152765619Y-89163380D01*
X152908476Y-89163380D01*
X153003714Y-89115761D01*
X153051333Y-89068142D01*
X153956095Y-89163380D02*
X153956095Y-88639571D01*
X153908476Y-88544333D01*
X153813238Y-88496714D01*
X153622761Y-88496714D01*
X153527523Y-88544333D01*
X153956095Y-89115761D02*
X153860857Y-89163380D01*
X153622761Y-89163380D01*
X153527523Y-89115761D01*
X153479904Y-89020523D01*
X153479904Y-88925285D01*
X153527523Y-88830047D01*
X153622761Y-88782428D01*
X153860857Y-88782428D01*
X153956095Y-88734809D01*
X154384666Y-89115761D02*
X154479904Y-89163380D01*
X154670380Y-89163380D01*
X154765619Y-89115761D01*
X154813238Y-89020523D01*
X154813238Y-88972904D01*
X154765619Y-88877666D01*
X154670380Y-88830047D01*
X154527523Y-88830047D01*
X154432285Y-88782428D01*
X154384666Y-88687190D01*
X154384666Y-88639571D01*
X154432285Y-88544333D01*
X154527523Y-88496714D01*
X154670380Y-88496714D01*
X154765619Y-88544333D01*
X155241809Y-89163380D02*
X155241809Y-88496714D01*
X155241809Y-88163380D02*
X155194190Y-88211000D01*
X155241809Y-88258619D01*
X155289428Y-88211000D01*
X155241809Y-88163380D01*
X155241809Y-88258619D01*
X155718000Y-89163380D02*
X155718000Y-88496714D01*
X155718000Y-88591952D02*
X155765619Y-88544333D01*
X155860857Y-88496714D01*
X156003714Y-88496714D01*
X156098952Y-88544333D01*
X156146571Y-88639571D01*
X156146571Y-89163380D01*
X156146571Y-88639571D02*
X156194190Y-88544333D01*
X156289428Y-88496714D01*
X156432285Y-88496714D01*
X156527523Y-88544333D01*
X156575142Y-88639571D01*
X156575142Y-89163380D01*
X157194190Y-89163380D02*
X157098952Y-89115761D01*
X157051333Y-89068142D01*
X157003714Y-88972904D01*
X157003714Y-88687190D01*
X157051333Y-88591952D01*
X157098952Y-88544333D01*
X157194190Y-88496714D01*
X157337047Y-88496714D01*
X157432285Y-88544333D01*
X157479904Y-88591952D01*
X157527523Y-88687190D01*
X157527523Y-88972904D01*
X157479904Y-89068142D01*
X157432285Y-89115761D01*
X157337047Y-89163380D01*
X157194190Y-89163380D01*
X158384666Y-89163380D02*
X158384666Y-88163380D01*
X158384666Y-89115761D02*
X158289428Y-89163380D01*
X158098952Y-89163380D01*
X158003714Y-89115761D01*
X157956095Y-89068142D01*
X157908476Y-88972904D01*
X157908476Y-88687190D01*
X157956095Y-88591952D01*
X158003714Y-88544333D01*
X158098952Y-88496714D01*
X158289428Y-88496714D01*
X158384666Y-88544333D01*
X159003714Y-89163380D02*
X158908476Y-89115761D01*
X158860857Y-89068142D01*
X158813238Y-88972904D01*
X158813238Y-88687190D01*
X158860857Y-88591952D01*
X158908476Y-88544333D01*
X159003714Y-88496714D01*
X159146571Y-88496714D01*
X159241809Y-88544333D01*
X159289428Y-88591952D01*
X159337047Y-88687190D01*
X159337047Y-88972904D01*
X159289428Y-89068142D01*
X159241809Y-89115761D01*
X159146571Y-89163380D01*
X159003714Y-89163380D01*
X160384666Y-88163380D02*
X160718000Y-89163380D01*
X161051333Y-88163380D01*
X161289428Y-88163380D02*
X161908476Y-88163380D01*
X161575142Y-88544333D01*
X161718000Y-88544333D01*
X161813238Y-88591952D01*
X161860857Y-88639571D01*
X161908476Y-88734809D01*
X161908476Y-88972904D01*
X161860857Y-89068142D01*
X161813238Y-89115761D01*
X161718000Y-89163380D01*
X161432285Y-89163380D01*
X161337047Y-89115761D01*
X161289428Y-89068142D01*
X150027523Y-90765761D02*
X150170380Y-90813380D01*
X150408476Y-90813380D01*
X150503714Y-90765761D01*
X150551333Y-90718142D01*
X150598952Y-90622904D01*
X150598952Y-90527666D01*
X150551333Y-90432428D01*
X150503714Y-90384809D01*
X150408476Y-90337190D01*
X150218000Y-90289571D01*
X150122761Y-90241952D01*
X150075142Y-90194333D01*
X150027523Y-90099095D01*
X150027523Y-90003857D01*
X150075142Y-89908619D01*
X150122761Y-89861000D01*
X150218000Y-89813380D01*
X150456095Y-89813380D01*
X150598952Y-89861000D01*
X151027523Y-90146714D02*
X151027523Y-90813380D01*
X151027523Y-90241952D02*
X151075142Y-90194333D01*
X151170380Y-90146714D01*
X151313238Y-90146714D01*
X151408476Y-90194333D01*
X151456095Y-90289571D01*
X151456095Y-90813380D01*
X152360857Y-90146714D02*
X152360857Y-90813380D01*
X151932285Y-90146714D02*
X151932285Y-90670523D01*
X151979904Y-90765761D01*
X152075142Y-90813380D01*
X152218000Y-90813380D01*
X152313238Y-90765761D01*
X152360857Y-90718142D01*
X152837047Y-90813380D02*
X152837047Y-89813380D01*
X152837047Y-90194333D02*
X152932285Y-90146714D01*
X153122761Y-90146714D01*
X153218000Y-90194333D01*
X153265619Y-90241952D01*
X153313238Y-90337190D01*
X153313238Y-90622904D01*
X153265619Y-90718142D01*
X153218000Y-90765761D01*
X153122761Y-90813380D01*
X152932285Y-90813380D01*
X152837047Y-90765761D01*
X153741809Y-90813380D02*
X153741809Y-89813380D01*
X153741809Y-90194333D02*
X153837047Y-90146714D01*
X154027523Y-90146714D01*
X154122761Y-90194333D01*
X154170380Y-90241952D01*
X154218000Y-90337190D01*
X154218000Y-90622904D01*
X154170380Y-90718142D01*
X154122761Y-90765761D01*
X154027523Y-90813380D01*
X153837047Y-90813380D01*
X153741809Y-90765761D01*
X155027523Y-90765761D02*
X154932285Y-90813380D01*
X154741809Y-90813380D01*
X154646571Y-90765761D01*
X154598952Y-90670523D01*
X154598952Y-90289571D01*
X154646571Y-90194333D01*
X154741809Y-90146714D01*
X154932285Y-90146714D01*
X155027523Y-90194333D01*
X155075142Y-90289571D01*
X155075142Y-90384809D01*
X154598952Y-90480047D01*
X155503714Y-90813380D02*
X155503714Y-90146714D01*
X155503714Y-90337190D02*
X155551333Y-90241952D01*
X155598952Y-90194333D01*
X155694190Y-90146714D01*
X155789428Y-90146714D01*
X156884666Y-90289571D02*
X157218000Y-90289571D01*
X157360857Y-90813380D02*
X156884666Y-90813380D01*
X156884666Y-89813380D01*
X157360857Y-89813380D01*
X157694190Y-90146714D02*
X157932285Y-90813380D01*
X158170380Y-90146714D01*
X158979904Y-90813380D02*
X158979904Y-90289571D01*
X158932285Y-90194333D01*
X158837047Y-90146714D01*
X158646571Y-90146714D01*
X158551333Y-90194333D01*
X158979904Y-90765761D02*
X158884666Y-90813380D01*
X158646571Y-90813380D01*
X158551333Y-90765761D01*
X158503714Y-90670523D01*
X158503714Y-90575285D01*
X158551333Y-90480047D01*
X158646571Y-90432428D01*
X158884666Y-90432428D01*
X158979904Y-90384809D01*
X159598952Y-90813380D02*
X159503714Y-90765761D01*
X159456095Y-90670523D01*
X159456095Y-89813380D01*
X160408476Y-90146714D02*
X160408476Y-90813380D01*
X159979904Y-90146714D02*
X159979904Y-90670523D01*
X160027523Y-90765761D01*
X160122761Y-90813380D01*
X160265619Y-90813380D01*
X160360857Y-90765761D01*
X160408476Y-90718142D01*
X161313238Y-90813380D02*
X161313238Y-90289571D01*
X161265619Y-90194333D01*
X161170380Y-90146714D01*
X160979904Y-90146714D01*
X160884666Y-90194333D01*
X161313238Y-90765761D02*
X161218000Y-90813380D01*
X160979904Y-90813380D01*
X160884666Y-90765761D01*
X160837047Y-90670523D01*
X160837047Y-90575285D01*
X160884666Y-90480047D01*
X160979904Y-90432428D01*
X161218000Y-90432428D01*
X161313238Y-90384809D01*
X161646571Y-90146714D02*
X162027523Y-90146714D01*
X161789428Y-89813380D02*
X161789428Y-90670523D01*
X161837047Y-90765761D01*
X161932285Y-90813380D01*
X162027523Y-90813380D01*
X162741809Y-90765761D02*
X162646571Y-90813380D01*
X162456095Y-90813380D01*
X162360857Y-90765761D01*
X162313238Y-90670523D01*
X162313238Y-90289571D01*
X162360857Y-90194333D01*
X162456095Y-90146714D01*
X162646571Y-90146714D01*
X162741809Y-90194333D01*
X162789428Y-90289571D01*
X162789428Y-90384809D01*
X162313238Y-90480047D01*
X163218000Y-90813380D02*
X163218000Y-90146714D01*
X163218000Y-90337190D02*
X163265619Y-90241952D01*
X163313238Y-90194333D01*
X163408476Y-90146714D01*
X163503714Y-90146714D01*
X151098952Y-92463380D02*
X151098952Y-91463380D01*
X151432285Y-92177666D01*
X151765619Y-91463380D01*
X151765619Y-92463380D01*
X152241809Y-92463380D02*
X152241809Y-91796714D01*
X152241809Y-91463380D02*
X152194190Y-91511000D01*
X152241809Y-91558619D01*
X152289428Y-91511000D01*
X152241809Y-91463380D01*
X152241809Y-91558619D01*
X153146571Y-92415761D02*
X153051333Y-92463380D01*
X152860857Y-92463380D01*
X152765619Y-92415761D01*
X152718000Y-92368142D01*
X152670380Y-92272904D01*
X152670380Y-91987190D01*
X152718000Y-91891952D01*
X152765619Y-91844333D01*
X152860857Y-91796714D01*
X153051333Y-91796714D01*
X153146571Y-91844333D01*
X153575142Y-92463380D02*
X153575142Y-91463380D01*
X154003714Y-92463380D02*
X154003714Y-91939571D01*
X153956095Y-91844333D01*
X153860857Y-91796714D01*
X153718000Y-91796714D01*
X153622761Y-91844333D01*
X153575142Y-91891952D01*
X154908476Y-92463380D02*
X154908476Y-91939571D01*
X154860857Y-91844333D01*
X154765619Y-91796714D01*
X154575142Y-91796714D01*
X154479904Y-91844333D01*
X154908476Y-92415761D02*
X154813238Y-92463380D01*
X154575142Y-92463380D01*
X154479904Y-92415761D01*
X154432285Y-92320523D01*
X154432285Y-92225285D01*
X154479904Y-92130047D01*
X154575142Y-92082428D01*
X154813238Y-92082428D01*
X154908476Y-92034809D01*
X155765619Y-92415761D02*
X155670380Y-92463380D01*
X155479904Y-92463380D01*
X155384666Y-92415761D01*
X155337047Y-92320523D01*
X155337047Y-91939571D01*
X155384666Y-91844333D01*
X155479904Y-91796714D01*
X155670380Y-91796714D01*
X155765619Y-91844333D01*
X155813238Y-91939571D01*
X155813238Y-92034809D01*
X155337047Y-92130047D01*
X156384666Y-92463380D02*
X156289428Y-92415761D01*
X156241809Y-92320523D01*
X156241809Y-91463380D01*
X157479904Y-92415761D02*
X157622761Y-92463380D01*
X157860857Y-92463380D01*
X157956095Y-92415761D01*
X158003714Y-92368142D01*
X158051333Y-92272904D01*
X158051333Y-92177666D01*
X158003714Y-92082428D01*
X157956095Y-92034809D01*
X157860857Y-91987190D01*
X157670380Y-91939571D01*
X157575142Y-91891952D01*
X157527523Y-91844333D01*
X157479904Y-91749095D01*
X157479904Y-91653857D01*
X157527523Y-91558619D01*
X157575142Y-91511000D01*
X157670380Y-91463380D01*
X157908476Y-91463380D01*
X158051333Y-91511000D01*
X158908476Y-92415761D02*
X158813238Y-92463380D01*
X158622761Y-92463380D01*
X158527523Y-92415761D01*
X158479904Y-92368142D01*
X158432285Y-92272904D01*
X158432285Y-91987190D01*
X158479904Y-91891952D01*
X158527523Y-91844333D01*
X158622761Y-91796714D01*
X158813238Y-91796714D01*
X158908476Y-91844333D01*
X159337047Y-92463380D02*
X159337047Y-91463380D01*
X159765619Y-92463380D02*
X159765619Y-91939571D01*
X159718000Y-91844333D01*
X159622761Y-91796714D01*
X159479904Y-91796714D01*
X159384666Y-91844333D01*
X159337047Y-91891952D01*
X160622761Y-92415761D02*
X160527523Y-92463380D01*
X160337047Y-92463380D01*
X160241809Y-92415761D01*
X160194190Y-92320523D01*
X160194190Y-91939571D01*
X160241809Y-91844333D01*
X160337047Y-91796714D01*
X160527523Y-91796714D01*
X160622761Y-91844333D01*
X160670380Y-91939571D01*
X160670380Y-92034809D01*
X160194190Y-92130047D01*
X161098952Y-91796714D02*
X161098952Y-92463380D01*
X161098952Y-91891952D02*
X161146571Y-91844333D01*
X161241809Y-91796714D01*
X161384666Y-91796714D01*
X161479904Y-91844333D01*
X161527523Y-91939571D01*
X161527523Y-92463380D01*
X162003714Y-92463380D02*
X162003714Y-91463380D01*
X162098952Y-92082428D02*
X162384666Y-92463380D01*
X162384666Y-91796714D02*
X162003714Y-92177666D01*
X152622761Y-93208619D02*
X152670380Y-93161000D01*
X152765619Y-93113380D01*
X153003714Y-93113380D01*
X153098952Y-93161000D01*
X153146571Y-93208619D01*
X153194190Y-93303857D01*
X153194190Y-93399095D01*
X153146571Y-93541952D01*
X152575142Y-94113380D01*
X153194190Y-94113380D01*
X153813238Y-93113380D02*
X153908476Y-93113380D01*
X154003714Y-93161000D01*
X154051333Y-93208619D01*
X154098952Y-93303857D01*
X154146571Y-93494333D01*
X154146571Y-93732428D01*
X154098952Y-93922904D01*
X154051333Y-94018142D01*
X154003714Y-94065761D01*
X153908476Y-94113380D01*
X153813238Y-94113380D01*
X153718000Y-94065761D01*
X153670380Y-94018142D01*
X153622761Y-93922904D01*
X153575142Y-93732428D01*
X153575142Y-93494333D01*
X153622761Y-93303857D01*
X153670380Y-93208619D01*
X153718000Y-93161000D01*
X153813238Y-93113380D01*
X154527523Y-93208619D02*
X154575142Y-93161000D01*
X154670380Y-93113380D01*
X154908476Y-93113380D01*
X155003714Y-93161000D01*
X155051333Y-93208619D01*
X155098952Y-93303857D01*
X155098952Y-93399095D01*
X155051333Y-93541952D01*
X154479904Y-94113380D01*
X155098952Y-94113380D01*
X156051333Y-94113380D02*
X155479904Y-94113380D01*
X155765619Y-94113380D02*
X155765619Y-93113380D01*
X155670380Y-93256238D01*
X155575142Y-93351476D01*
X155479904Y-93399095D01*
X156479904Y-94018142D02*
X156527523Y-94065761D01*
X156479904Y-94113380D01*
X156432285Y-94065761D01*
X156479904Y-94018142D01*
X156479904Y-94113380D01*
X157146571Y-93113380D02*
X157241809Y-93113380D01*
X157337047Y-93161000D01*
X157384666Y-93208619D01*
X157432285Y-93303857D01*
X157479904Y-93494333D01*
X157479904Y-93732428D01*
X157432285Y-93922904D01*
X157384666Y-94018142D01*
X157337047Y-94065761D01*
X157241809Y-94113380D01*
X157146571Y-94113380D01*
X157051333Y-94065761D01*
X157003714Y-94018142D01*
X156956095Y-93922904D01*
X156908476Y-93732428D01*
X156908476Y-93494333D01*
X156956095Y-93303857D01*
X157003714Y-93208619D01*
X157051333Y-93161000D01*
X157146571Y-93113380D01*
X158051333Y-93541952D02*
X157956095Y-93494333D01*
X157908476Y-93446714D01*
X157860857Y-93351476D01*
X157860857Y-93303857D01*
X157908476Y-93208619D01*
X157956095Y-93161000D01*
X158051333Y-93113380D01*
X158241809Y-93113380D01*
X158337047Y-93161000D01*
X158384666Y-93208619D01*
X158432285Y-93303857D01*
X158432285Y-93351476D01*
X158384666Y-93446714D01*
X158337047Y-93494333D01*
X158241809Y-93541952D01*
X158051333Y-93541952D01*
X157956095Y-93589571D01*
X157908476Y-93637190D01*
X157860857Y-93732428D01*
X157860857Y-93922904D01*
X157908476Y-94018142D01*
X157956095Y-94065761D01*
X158051333Y-94113380D01*
X158241809Y-94113380D01*
X158337047Y-94065761D01*
X158384666Y-94018142D01*
X158432285Y-93922904D01*
X158432285Y-93732428D01*
X158384666Y-93637190D01*
X158337047Y-93589571D01*
X158241809Y-93541952D01*
X158860857Y-94018142D02*
X158908476Y-94065761D01*
X158860857Y-94113380D01*
X158813238Y-94065761D01*
X158860857Y-94018142D01*
X158860857Y-94113380D01*
X159527523Y-93113380D02*
X159622761Y-93113380D01*
X159718000Y-93161000D01*
X159765619Y-93208619D01*
X159813238Y-93303857D01*
X159860857Y-93494333D01*
X159860857Y-93732428D01*
X159813238Y-93922904D01*
X159765619Y-94018142D01*
X159718000Y-94065761D01*
X159622761Y-94113380D01*
X159527523Y-94113380D01*
X159432285Y-94065761D01*
X159384666Y-94018142D01*
X159337047Y-93922904D01*
X159289428Y-93732428D01*
X159289428Y-93494333D01*
X159337047Y-93303857D01*
X159384666Y-93208619D01*
X159432285Y-93161000D01*
X159527523Y-93113380D01*
X160718000Y-93446714D02*
X160718000Y-94113380D01*
X160479904Y-93065761D02*
X160241809Y-93780047D01*
X160860857Y-93780047D01*
D11*
X147447000Y-104394000D02*
X141351000Y-104394000D01*
X134493000Y-86487000D02*
X134493000Y-91694000D01*
X165919500Y-101600000D02*
G75*
G03*
X165919500Y-101600000I-550000J0D01*
G01*
X164049500Y-106600000D02*
G75*
G03*
X164049500Y-106600000I-1680000J0D01*
G01*
X165919500Y-106600000D02*
G75*
G03*
X165919500Y-106600000I-550000J0D01*
G01*
X159469500Y-99040000D02*
X159469500Y-109160000D01*
X160069500Y-99040000D02*
X160069500Y-109160000D01*
X164769500Y-99040000D02*
X164769500Y-109160000D01*
X166529500Y-99040000D02*
X166529500Y-109160000D01*
X158808500Y-99040000D02*
X158808500Y-109160000D01*
X166529500Y-99040000D02*
X158808500Y-99040000D01*
X166529500Y-109160000D02*
X158808500Y-109160000D01*
X163438500Y-107875000D02*
X163345500Y-107781000D01*
X161153500Y-105590000D02*
X161095500Y-105531000D01*
X163644500Y-107670000D02*
X163585500Y-107611000D01*
X161393500Y-105420000D02*
X161300500Y-105326000D01*
X159409500Y-98800000D02*
X158569500Y-98800000D01*
X158569500Y-98800000D02*
X158569500Y-99400000D01*
X160689050Y-101629383D02*
G75*
G02*
X160885500Y-100811000I1680450J29383D01*
G01*
X161580412Y-100116047D02*
G75*
G02*
X163158500Y-100116000I789088J-1483953D01*
G01*
X163853453Y-100810912D02*
G75*
G02*
X163853500Y-102389000I-1483953J-789088D01*
G01*
X163158588Y-103083953D02*
G75*
G02*
X161580500Y-103084000I-789088J1483953D01*
G01*
X160886148Y-102388712D02*
G75*
G02*
X160689500Y-101600000I1483352J788712D01*
G01*
X123436500Y-95603000D02*
G75*
G03*
X123436500Y-95603000I-4120000J0D01*
G01*
X115236500Y-95603000D02*
X123396500Y-95603000D01*
X115236500Y-95563000D02*
X123396500Y-95563000D01*
X115236500Y-95523000D02*
X123396500Y-95523000D01*
X115237500Y-95483000D02*
X123395500Y-95483000D01*
X115239500Y-95443000D02*
X123393500Y-95443000D01*
X115240500Y-95403000D02*
X123392500Y-95403000D01*
X115242500Y-95363000D02*
X123390500Y-95363000D01*
X115245500Y-95323000D02*
X123387500Y-95323000D01*
X115248500Y-95283000D02*
X123384500Y-95283000D01*
X115251500Y-95243000D02*
X123381500Y-95243000D01*
X115255500Y-95203000D02*
X123377500Y-95203000D01*
X115259500Y-95163000D02*
X123373500Y-95163000D01*
X115264500Y-95123000D02*
X123368500Y-95123000D01*
X115268500Y-95083000D02*
X123364500Y-95083000D01*
X115274500Y-95043000D02*
X123358500Y-95043000D01*
X115279500Y-95003000D02*
X123353500Y-95003000D01*
X115286500Y-94963000D02*
X123346500Y-94963000D01*
X115292500Y-94923000D02*
X123340500Y-94923000D01*
X115299500Y-94882000D02*
X118276500Y-94882000D01*
X120356500Y-94882000D02*
X123333500Y-94882000D01*
X115306500Y-94842000D02*
X118276500Y-94842000D01*
X120356500Y-94842000D02*
X123326500Y-94842000D01*
X115314500Y-94802000D02*
X118276500Y-94802000D01*
X120356500Y-94802000D02*
X123318500Y-94802000D01*
X115322500Y-94762000D02*
X118276500Y-94762000D01*
X120356500Y-94762000D02*
X123310500Y-94762000D01*
X115331500Y-94722000D02*
X118276500Y-94722000D01*
X120356500Y-94722000D02*
X123301500Y-94722000D01*
X115340500Y-94682000D02*
X118276500Y-94682000D01*
X120356500Y-94682000D02*
X123292500Y-94682000D01*
X115349500Y-94642000D02*
X118276500Y-94642000D01*
X120356500Y-94642000D02*
X123283500Y-94642000D01*
X115359500Y-94602000D02*
X118276500Y-94602000D01*
X120356500Y-94602000D02*
X123273500Y-94602000D01*
X115369500Y-94562000D02*
X118276500Y-94562000D01*
X120356500Y-94562000D02*
X123263500Y-94562000D01*
X115380500Y-94522000D02*
X118276500Y-94522000D01*
X120356500Y-94522000D02*
X123252500Y-94522000D01*
X115391500Y-94482000D02*
X118276500Y-94482000D01*
X120356500Y-94482000D02*
X123241500Y-94482000D01*
X115402500Y-94442000D02*
X118276500Y-94442000D01*
X120356500Y-94442000D02*
X123230500Y-94442000D01*
X115414500Y-94402000D02*
X118276500Y-94402000D01*
X120356500Y-94402000D02*
X123218500Y-94402000D01*
X115427500Y-94362000D02*
X118276500Y-94362000D01*
X120356500Y-94362000D02*
X123205500Y-94362000D01*
X115439500Y-94322000D02*
X118276500Y-94322000D01*
X120356500Y-94322000D02*
X123193500Y-94322000D01*
X115453500Y-94282000D02*
X118276500Y-94282000D01*
X120356500Y-94282000D02*
X123179500Y-94282000D01*
X115466500Y-94242000D02*
X118276500Y-94242000D01*
X120356500Y-94242000D02*
X123166500Y-94242000D01*
X115481500Y-94202000D02*
X118276500Y-94202000D01*
X120356500Y-94202000D02*
X123151500Y-94202000D01*
X115495500Y-94162000D02*
X118276500Y-94162000D01*
X120356500Y-94162000D02*
X123137500Y-94162000D01*
X115511500Y-94122000D02*
X118276500Y-94122000D01*
X120356500Y-94122000D02*
X123121500Y-94122000D01*
X115526500Y-94082000D02*
X118276500Y-94082000D01*
X120356500Y-94082000D02*
X123106500Y-94082000D01*
X115542500Y-94042000D02*
X118276500Y-94042000D01*
X120356500Y-94042000D02*
X123090500Y-94042000D01*
X115559500Y-94002000D02*
X118276500Y-94002000D01*
X120356500Y-94002000D02*
X123073500Y-94002000D01*
X115576500Y-93962000D02*
X118276500Y-93962000D01*
X120356500Y-93962000D02*
X123056500Y-93962000D01*
X115594500Y-93922000D02*
X118276500Y-93922000D01*
X120356500Y-93922000D02*
X123038500Y-93922000D01*
X115612500Y-93882000D02*
X118276500Y-93882000D01*
X120356500Y-93882000D02*
X123020500Y-93882000D01*
X115630500Y-93842000D02*
X118276500Y-93842000D01*
X120356500Y-93842000D02*
X123002500Y-93842000D01*
X115650500Y-93802000D02*
X118276500Y-93802000D01*
X120356500Y-93802000D02*
X122982500Y-93802000D01*
X115669500Y-93762000D02*
X118276500Y-93762000D01*
X120356500Y-93762000D02*
X122963500Y-93762000D01*
X115689500Y-93722000D02*
X118276500Y-93722000D01*
X120356500Y-93722000D02*
X122943500Y-93722000D01*
X115710500Y-93682000D02*
X118276500Y-93682000D01*
X120356500Y-93682000D02*
X122922500Y-93682000D01*
X115732500Y-93642000D02*
X118276500Y-93642000D01*
X120356500Y-93642000D02*
X122900500Y-93642000D01*
X115754500Y-93602000D02*
X118276500Y-93602000D01*
X120356500Y-93602000D02*
X122878500Y-93602000D01*
X115776500Y-93562000D02*
X118276500Y-93562000D01*
X120356500Y-93562000D02*
X122856500Y-93562000D01*
X115799500Y-93522000D02*
X118276500Y-93522000D01*
X120356500Y-93522000D02*
X122833500Y-93522000D01*
X115823500Y-93482000D02*
X118276500Y-93482000D01*
X120356500Y-93482000D02*
X122809500Y-93482000D01*
X115847500Y-93442000D02*
X118276500Y-93442000D01*
X120356500Y-93442000D02*
X122785500Y-93442000D01*
X115872500Y-93402000D02*
X118276500Y-93402000D01*
X120356500Y-93402000D02*
X122760500Y-93402000D01*
X115898500Y-93362000D02*
X118276500Y-93362000D01*
X120356500Y-93362000D02*
X122734500Y-93362000D01*
X115924500Y-93322000D02*
X118276500Y-93322000D01*
X120356500Y-93322000D02*
X122708500Y-93322000D01*
X115951500Y-93282000D02*
X118276500Y-93282000D01*
X120356500Y-93282000D02*
X122681500Y-93282000D01*
X115978500Y-93242000D02*
X118276500Y-93242000D01*
X120356500Y-93242000D02*
X122654500Y-93242000D01*
X116007500Y-93202000D02*
X118276500Y-93202000D01*
X120356500Y-93202000D02*
X122625500Y-93202000D01*
X116036500Y-93162000D02*
X118276500Y-93162000D01*
X120356500Y-93162000D02*
X122596500Y-93162000D01*
X116066500Y-93122000D02*
X118276500Y-93122000D01*
X120356500Y-93122000D02*
X122566500Y-93122000D01*
X116096500Y-93082000D02*
X118276500Y-93082000D01*
X120356500Y-93082000D02*
X122536500Y-93082000D01*
X116127500Y-93042000D02*
X118276500Y-93042000D01*
X120356500Y-93042000D02*
X122505500Y-93042000D01*
X116160500Y-93002000D02*
X118276500Y-93002000D01*
X120356500Y-93002000D02*
X122472500Y-93002000D01*
X116192500Y-92962000D02*
X118276500Y-92962000D01*
X120356500Y-92962000D02*
X122440500Y-92962000D01*
X116226500Y-92922000D02*
X118276500Y-92922000D01*
X120356500Y-92922000D02*
X122406500Y-92922000D01*
X116261500Y-92882000D02*
X118276500Y-92882000D01*
X120356500Y-92882000D02*
X122371500Y-92882000D01*
X116297500Y-92842000D02*
X118276500Y-92842000D01*
X120356500Y-92842000D02*
X122335500Y-92842000D01*
X116333500Y-92802000D02*
X122299500Y-92802000D01*
X116371500Y-92762000D02*
X122261500Y-92762000D01*
X116409500Y-92722000D02*
X122223500Y-92722000D01*
X116449500Y-92682000D02*
X122183500Y-92682000D01*
X116490500Y-92642000D02*
X122142500Y-92642000D01*
X116532500Y-92602000D02*
X122100500Y-92602000D01*
X116575500Y-92562000D02*
X122057500Y-92562000D01*
X116619500Y-92522000D02*
X122013500Y-92522000D01*
X116665500Y-92482000D02*
X121967500Y-92482000D01*
X116712500Y-92442000D02*
X121920500Y-92442000D01*
X116760500Y-92402000D02*
X121872500Y-92402000D01*
X116811500Y-92362000D02*
X121821500Y-92362000D01*
X116862500Y-92322000D02*
X121770500Y-92322000D01*
X116916500Y-92282000D02*
X121716500Y-92282000D01*
X116971500Y-92242000D02*
X121661500Y-92242000D01*
X117029500Y-92202000D02*
X121603500Y-92202000D01*
X117088500Y-92162000D02*
X121544500Y-92162000D01*
X117150500Y-92122000D02*
X121482500Y-92122000D01*
X117214500Y-92082000D02*
X121418500Y-92082000D01*
X117282500Y-92042000D02*
X121350500Y-92042000D01*
X117352500Y-92002000D02*
X121280500Y-92002000D01*
X117426500Y-91962000D02*
X121206500Y-91962000D01*
X117503500Y-91922000D02*
X121129500Y-91922000D01*
X117585500Y-91882000D02*
X121047500Y-91882000D01*
X117671500Y-91842000D02*
X120961500Y-91842000D01*
X117764500Y-91802000D02*
X120868500Y-91802000D01*
X117863500Y-91762000D02*
X120769500Y-91762000D01*
X117970500Y-91722000D02*
X120662500Y-91722000D01*
X118087500Y-91682000D02*
X120545500Y-91682000D01*
X118218500Y-91642000D02*
X120414500Y-91642000D01*
X118368500Y-91602000D02*
X120264500Y-91602000D01*
X118548500Y-91562000D02*
X120084500Y-91562000D01*
X118783500Y-91522000D02*
X119849500Y-91522000D01*
X117001500Y-100012698D02*
X117001500Y-99212698D01*
X116601500Y-99612698D02*
X117401500Y-99612698D01*
X144653000Y-105350000D02*
X145983000Y-105350000D01*
X145983000Y-105350000D02*
X145983000Y-106680000D01*
X145983000Y-107950000D02*
X145983000Y-115630000D01*
X143323000Y-115630000D02*
X145983000Y-115630000D01*
X143323000Y-107950000D02*
X143323000Y-115630000D01*
X143323000Y-107950000D02*
X145983000Y-107950000D01*
X144653000Y-92650000D02*
X145983000Y-92650000D01*
X145983000Y-92650000D02*
X145983000Y-93980000D01*
X145983000Y-95250000D02*
X145983000Y-102930000D01*
X143323000Y-102930000D02*
X145983000Y-102930000D01*
X143323000Y-95250000D02*
X143323000Y-102930000D01*
X143323000Y-95250000D02*
X145983000Y-95250000D01*
X135703000Y-88900000D02*
X135703000Y-87570000D01*
X135703000Y-87570000D02*
X137033000Y-87570000D01*
X138303000Y-87570000D02*
X145983000Y-87570000D01*
X145983000Y-90230000D02*
X145983000Y-87570000D01*
X138303000Y-90230000D02*
X145983000Y-90230000D01*
X138303000Y-90230000D02*
X138303000Y-87570000D01*
X123003000Y-88900000D02*
X123003000Y-87570000D01*
X123003000Y-87570000D02*
X124333000Y-87570000D01*
X125603000Y-87570000D02*
X133283000Y-87570000D01*
X133283000Y-90230000D02*
X133283000Y-87570000D01*
X125603000Y-90230000D02*
X133283000Y-90230000D01*
X125603000Y-90230000D02*
X125603000Y-87570000D01*
X134474000Y-83121500D02*
G75*
G03*
X134474000Y-83121500I-1251000J0D01*
G01*
X128124000Y-83121500D02*
G75*
G03*
X128124000Y-83121500I-1251000J0D01*
G01*
X130195000Y-113409500D02*
X130195000Y-109959500D01*
X130195000Y-113409500D02*
X130195000Y-115359500D01*
X125075000Y-113409500D02*
X125075000Y-111459500D01*
X125075000Y-113409500D02*
X125075000Y-115359500D01*
X125075000Y-103503500D02*
X125075000Y-106953500D01*
X125075000Y-103503500D02*
X125075000Y-101553500D01*
X130195000Y-103503500D02*
X130195000Y-105453500D01*
X130195000Y-103503500D02*
X130195000Y-101553500D01*
X135529564Y-91530500D02*
X135075436Y-91530500D01*
X135529564Y-93000500D02*
X135075436Y-93000500D01*
X127772936Y-109129500D02*
X128227064Y-109129500D01*
X127772936Y-107659500D02*
X128227064Y-107659500D01*
X129478000Y-91597800D02*
X126028000Y-91597800D01*
X129478000Y-91597800D02*
X131428000Y-91597800D01*
X129478000Y-96717800D02*
X127528000Y-96717800D01*
X129478000Y-96717800D02*
X131428000Y-96717800D01*
X155588281Y-106680000D02*
G75*
G03*
X155588281Y-106680000I-1600781J0D01*
G01*
X155588281Y-101600000D02*
G75*
G03*
X155588281Y-101600000I-1600781J0D01*
G01*
X151047500Y-106680000D02*
G75*
G03*
X151047500Y-106680000I-1251000J0D01*
G01*
X151047500Y-101600000D02*
G75*
G03*
X151047500Y-101600000I-1251000J0D01*
G01*
X152254000Y-83121500D02*
G75*
G03*
X152254000Y-83121500I-1251000J0D01*
G01*
X145904000Y-83121500D02*
G75*
G03*
X145904000Y-83121500I-1251000J0D01*
G01*
X141855500Y-112970000D02*
X141855500Y-114300000D01*
X140525500Y-112970000D02*
X141855500Y-112970000D01*
X139255500Y-112970000D02*
X139255500Y-115630000D01*
X139255500Y-115630000D02*
X134115500Y-115630000D01*
X139255500Y-112970000D02*
X134115500Y-112970000D01*
X134115500Y-112970000D02*
X134115500Y-115630000D01*
X120504000Y-111696500D02*
G75*
G03*
X120504000Y-111696500I-1251000J0D01*
G01*
X120504000Y-104775000D02*
G75*
G03*
X120504000Y-104775000I-1251000J0D01*
G01*
X135536000Y-95518248D02*
X135536000Y-96040752D01*
X137006000Y-95518248D02*
X137006000Y-96040752D01*
X129066748Y-99414000D02*
X129589252Y-99414000D01*
X129066748Y-97944000D02*
X129589252Y-97944000D01*
X131649748Y-109129500D02*
X132172252Y-109129500D01*
X131649748Y-107659500D02*
X132172252Y-107659500D01*
X122518500Y-111731248D02*
X122518500Y-112253752D01*
X123988500Y-111731248D02*
X123988500Y-112253752D01*
X126484748Y-119289500D02*
X127007252Y-119289500D01*
X126484748Y-117819500D02*
X127007252Y-117819500D01*
D10*
X162036166Y-96670880D02*
X162036166Y-97385166D01*
X161988547Y-97528023D01*
X161893309Y-97623261D01*
X161750452Y-97670880D01*
X161655214Y-97670880D01*
X162655214Y-97099452D02*
X162559976Y-97051833D01*
X162512357Y-97004214D01*
X162464738Y-96908976D01*
X162464738Y-96861357D01*
X162512357Y-96766119D01*
X162559976Y-96718500D01*
X162655214Y-96670880D01*
X162845690Y-96670880D01*
X162940928Y-96718500D01*
X162988547Y-96766119D01*
X163036166Y-96861357D01*
X163036166Y-96908976D01*
X162988547Y-97004214D01*
X162940928Y-97051833D01*
X162845690Y-97099452D01*
X162655214Y-97099452D01*
X162559976Y-97147071D01*
X162512357Y-97194690D01*
X162464738Y-97289928D01*
X162464738Y-97480404D01*
X162512357Y-97575642D01*
X162559976Y-97623261D01*
X162655214Y-97670880D01*
X162845690Y-97670880D01*
X162940928Y-97623261D01*
X162988547Y-97575642D01*
X163036166Y-97480404D01*
X163036166Y-97289928D01*
X162988547Y-97194690D01*
X162940928Y-97147071D01*
X162845690Y-97099452D01*
X117387642Y-90463666D02*
X117435261Y-90511285D01*
X117482880Y-90654142D01*
X117482880Y-90749380D01*
X117435261Y-90892238D01*
X117340023Y-90987476D01*
X117244785Y-91035095D01*
X117054309Y-91082714D01*
X116911452Y-91082714D01*
X116720976Y-91035095D01*
X116625738Y-90987476D01*
X116530500Y-90892238D01*
X116482880Y-90749380D01*
X116482880Y-90654142D01*
X116530500Y-90511285D01*
X116578119Y-90463666D01*
X116482880Y-89606523D02*
X116482880Y-89797000D01*
X116530500Y-89892238D01*
X116578119Y-89939857D01*
X116720976Y-90035095D01*
X116911452Y-90082714D01*
X117292404Y-90082714D01*
X117387642Y-90035095D01*
X117435261Y-89987476D01*
X117482880Y-89892238D01*
X117482880Y-89701761D01*
X117435261Y-89606523D01*
X117387642Y-89558904D01*
X117292404Y-89511285D01*
X117054309Y-89511285D01*
X116959071Y-89558904D01*
X116911452Y-89606523D01*
X116863833Y-89701761D01*
X116863833Y-89892238D01*
X116911452Y-89987476D01*
X116959071Y-90035095D01*
X117054309Y-90082714D01*
X143843476Y-103362380D02*
X143843476Y-104076666D01*
X143795857Y-104219523D01*
X143700619Y-104314761D01*
X143557761Y-104362380D01*
X143462523Y-104362380D01*
X144843476Y-104362380D02*
X144272047Y-104362380D01*
X144557761Y-104362380D02*
X144557761Y-103362380D01*
X144462523Y-103505238D01*
X144367285Y-103600476D01*
X144272047Y-103648095D01*
X145700619Y-103362380D02*
X145510142Y-103362380D01*
X145414904Y-103410000D01*
X145367285Y-103457619D01*
X145272047Y-103600476D01*
X145224428Y-103790952D01*
X145224428Y-104171904D01*
X145272047Y-104267142D01*
X145319666Y-104314761D01*
X145414904Y-104362380D01*
X145605380Y-104362380D01*
X145700619Y-104314761D01*
X145748238Y-104267142D01*
X145795857Y-104171904D01*
X145795857Y-103933809D01*
X145748238Y-103838571D01*
X145700619Y-103790952D01*
X145605380Y-103743333D01*
X145414904Y-103743333D01*
X145319666Y-103790952D01*
X145272047Y-103838571D01*
X145224428Y-103933809D01*
X143843476Y-90662380D02*
X143843476Y-91376666D01*
X143795857Y-91519523D01*
X143700619Y-91614761D01*
X143557761Y-91662380D01*
X143462523Y-91662380D01*
X144843476Y-91662380D02*
X144272047Y-91662380D01*
X144557761Y-91662380D02*
X144557761Y-90662380D01*
X144462523Y-90805238D01*
X144367285Y-90900476D01*
X144272047Y-90948095D01*
X145748238Y-90662380D02*
X145272047Y-90662380D01*
X145224428Y-91138571D01*
X145272047Y-91090952D01*
X145367285Y-91043333D01*
X145605380Y-91043333D01*
X145700619Y-91090952D01*
X145748238Y-91138571D01*
X145795857Y-91233809D01*
X145795857Y-91471904D01*
X145748238Y-91567142D01*
X145700619Y-91614761D01*
X145605380Y-91662380D01*
X145367285Y-91662380D01*
X145272047Y-91614761D01*
X145224428Y-91567142D01*
X146772380Y-89233333D02*
X147486666Y-89233333D01*
X147629523Y-89280952D01*
X147724761Y-89376190D01*
X147772380Y-89519047D01*
X147772380Y-89614285D01*
X147105714Y-88328571D02*
X147772380Y-88328571D01*
X146724761Y-88566666D02*
X147439047Y-88804761D01*
X147439047Y-88185714D01*
X121015380Y-89233333D02*
X121729666Y-89233333D01*
X121872523Y-89280952D01*
X121967761Y-89376190D01*
X122015380Y-89519047D01*
X122015380Y-89614285D01*
X121015380Y-88852380D02*
X121015380Y-88233333D01*
X121396333Y-88566666D01*
X121396333Y-88423809D01*
X121443952Y-88328571D01*
X121491571Y-88280952D01*
X121586809Y-88233333D01*
X121824904Y-88233333D01*
X121920142Y-88280952D01*
X121967761Y-88328571D01*
X122015380Y-88423809D01*
X122015380Y-88709523D01*
X121967761Y-88804761D01*
X121920142Y-88852380D01*
X129428976Y-82510380D02*
X129428976Y-83224666D01*
X129381357Y-83367523D01*
X129286119Y-83462761D01*
X129143261Y-83510380D01*
X129048023Y-83510380D01*
X130428976Y-83510380D02*
X129857547Y-83510380D01*
X130143261Y-83510380D02*
X130143261Y-82510380D01*
X130048023Y-82653238D01*
X129952785Y-82748476D01*
X129857547Y-82796095D01*
X131286119Y-82843714D02*
X131286119Y-83510380D01*
X131048023Y-82462761D02*
X130809928Y-83177047D01*
X131428976Y-83177047D01*
X123205976Y-82573880D02*
X123205976Y-83288166D01*
X123158357Y-83431023D01*
X123063119Y-83526261D01*
X122920261Y-83573880D01*
X122825023Y-83573880D01*
X124205976Y-83573880D02*
X123634547Y-83573880D01*
X123920261Y-83573880D02*
X123920261Y-82573880D01*
X123825023Y-82716738D01*
X123729785Y-82811976D01*
X123634547Y-82859595D01*
X124539309Y-82573880D02*
X125158357Y-82573880D01*
X124825023Y-82954833D01*
X124967880Y-82954833D01*
X125063119Y-83002452D01*
X125110738Y-83050071D01*
X125158357Y-83145309D01*
X125158357Y-83383404D01*
X125110738Y-83478642D01*
X125063119Y-83526261D01*
X124967880Y-83573880D01*
X124682166Y-83573880D01*
X124586928Y-83526261D01*
X124539309Y-83478642D01*
X130833880Y-114045904D02*
X131643404Y-114045904D01*
X131738642Y-113998285D01*
X131786261Y-113950666D01*
X131833880Y-113855428D01*
X131833880Y-113664952D01*
X131786261Y-113569714D01*
X131738642Y-113522095D01*
X131643404Y-113474476D01*
X130833880Y-113474476D01*
X130929119Y-113045904D02*
X130881500Y-112998285D01*
X130833880Y-112903047D01*
X130833880Y-112664952D01*
X130881500Y-112569714D01*
X130929119Y-112522095D01*
X131024357Y-112474476D01*
X131119595Y-112474476D01*
X131262452Y-112522095D01*
X131833880Y-113093523D01*
X131833880Y-112474476D01*
X123687380Y-104265404D02*
X124496904Y-104265404D01*
X124592142Y-104217785D01*
X124639761Y-104170166D01*
X124687380Y-104074928D01*
X124687380Y-103884452D01*
X124639761Y-103789214D01*
X124592142Y-103741595D01*
X124496904Y-103693976D01*
X123687380Y-103693976D01*
X124687380Y-102693976D02*
X124687380Y-103265404D01*
X124687380Y-102979690D02*
X123687380Y-102979690D01*
X123830238Y-103074928D01*
X123925476Y-103170166D01*
X123973095Y-103265404D01*
X138136333Y-92781380D02*
X137803000Y-92305190D01*
X137564904Y-92781380D02*
X137564904Y-91781380D01*
X137945857Y-91781380D01*
X138041095Y-91829000D01*
X138088714Y-91876619D01*
X138136333Y-91971857D01*
X138136333Y-92114714D01*
X138088714Y-92209952D01*
X138041095Y-92257571D01*
X137945857Y-92305190D01*
X137564904Y-92305190D01*
X138517285Y-91876619D02*
X138564904Y-91829000D01*
X138660142Y-91781380D01*
X138898238Y-91781380D01*
X138993476Y-91829000D01*
X139041095Y-91876619D01*
X139088714Y-91971857D01*
X139088714Y-92067095D01*
X139041095Y-92209952D01*
X138469666Y-92781380D01*
X139088714Y-92781380D01*
X124801333Y-108846880D02*
X124468000Y-108370690D01*
X124229904Y-108846880D02*
X124229904Y-107846880D01*
X124610857Y-107846880D01*
X124706095Y-107894500D01*
X124753714Y-107942119D01*
X124801333Y-108037357D01*
X124801333Y-108180214D01*
X124753714Y-108275452D01*
X124706095Y-108323071D01*
X124610857Y-108370690D01*
X124229904Y-108370690D01*
X125753714Y-108846880D02*
X125182285Y-108846880D01*
X125468000Y-108846880D02*
X125468000Y-107846880D01*
X125372761Y-107989738D01*
X125277523Y-108084976D01*
X125182285Y-108132595D01*
X124301261Y-92749619D02*
X124206023Y-92702000D01*
X124110785Y-92606761D01*
X123967928Y-92463904D01*
X123872690Y-92416285D01*
X123777452Y-92416285D01*
X123825071Y-92654380D02*
X123729833Y-92606761D01*
X123634595Y-92511523D01*
X123586976Y-92321047D01*
X123586976Y-91987714D01*
X123634595Y-91797238D01*
X123729833Y-91702000D01*
X123825071Y-91654380D01*
X124015547Y-91654380D01*
X124110785Y-91702000D01*
X124206023Y-91797238D01*
X124253642Y-91987714D01*
X124253642Y-92321047D01*
X124206023Y-92511523D01*
X124110785Y-92606761D01*
X124015547Y-92654380D01*
X123825071Y-92654380D01*
X125206023Y-92654380D02*
X124634595Y-92654380D01*
X124920309Y-92654380D02*
X124920309Y-91654380D01*
X124825071Y-91797238D01*
X124729833Y-91892476D01*
X124634595Y-91940095D01*
X153177976Y-108532380D02*
X153177976Y-109246666D01*
X153130357Y-109389523D01*
X153035119Y-109484761D01*
X152892261Y-109532380D01*
X152797023Y-109532380D01*
X154177976Y-109532380D02*
X153606547Y-109532380D01*
X153892261Y-109532380D02*
X153892261Y-108532380D01*
X153797023Y-108675238D01*
X153701785Y-108770476D01*
X153606547Y-108818095D01*
X154558928Y-108627619D02*
X154606547Y-108580000D01*
X154701785Y-108532380D01*
X154939880Y-108532380D01*
X155035119Y-108580000D01*
X155082738Y-108627619D01*
X155130357Y-108722857D01*
X155130357Y-108818095D01*
X155082738Y-108960952D01*
X154511309Y-109532380D01*
X155130357Y-109532380D01*
X153177976Y-98512380D02*
X153177976Y-99226666D01*
X153130357Y-99369523D01*
X153035119Y-99464761D01*
X152892261Y-99512380D01*
X152797023Y-99512380D01*
X154177976Y-99512380D02*
X153606547Y-99512380D01*
X153892261Y-99512380D02*
X153892261Y-98512380D01*
X153797023Y-98655238D01*
X153701785Y-98750476D01*
X153606547Y-98798095D01*
X155130357Y-99512380D02*
X154558928Y-99512380D01*
X154844642Y-99512380D02*
X154844642Y-98512380D01*
X154749404Y-98655238D01*
X154654166Y-98750476D01*
X154558928Y-98798095D01*
X148986976Y-108382380D02*
X148986976Y-109096666D01*
X148939357Y-109239523D01*
X148844119Y-109334761D01*
X148701261Y-109382380D01*
X148606023Y-109382380D01*
X149986976Y-109382380D02*
X149415547Y-109382380D01*
X149701261Y-109382380D02*
X149701261Y-108382380D01*
X149606023Y-108525238D01*
X149510785Y-108620476D01*
X149415547Y-108668095D01*
X150606023Y-108382380D02*
X150701261Y-108382380D01*
X150796500Y-108430000D01*
X150844119Y-108477619D01*
X150891738Y-108572857D01*
X150939357Y-108763333D01*
X150939357Y-109001428D01*
X150891738Y-109191904D01*
X150844119Y-109287142D01*
X150796500Y-109334761D01*
X150701261Y-109382380D01*
X150606023Y-109382380D01*
X150510785Y-109334761D01*
X150463166Y-109287142D01*
X150415547Y-109191904D01*
X150367928Y-109001428D01*
X150367928Y-108763333D01*
X150415547Y-108572857D01*
X150463166Y-108477619D01*
X150510785Y-108430000D01*
X150606023Y-108382380D01*
X149463166Y-98575880D02*
X149463166Y-99290166D01*
X149415547Y-99433023D01*
X149320309Y-99528261D01*
X149177452Y-99575880D01*
X149082214Y-99575880D01*
X149986976Y-99575880D02*
X150177452Y-99575880D01*
X150272690Y-99528261D01*
X150320309Y-99480642D01*
X150415547Y-99337785D01*
X150463166Y-99147309D01*
X150463166Y-98766357D01*
X150415547Y-98671119D01*
X150367928Y-98623500D01*
X150272690Y-98575880D01*
X150082214Y-98575880D01*
X149986976Y-98623500D01*
X149939357Y-98671119D01*
X149891738Y-98766357D01*
X149891738Y-99004452D01*
X149939357Y-99099690D01*
X149986976Y-99147309D01*
X150082214Y-99194928D01*
X150272690Y-99194928D01*
X150367928Y-99147309D01*
X150415547Y-99099690D01*
X150463166Y-99004452D01*
X147875666Y-82637380D02*
X147875666Y-83351666D01*
X147828047Y-83494523D01*
X147732809Y-83589761D01*
X147589952Y-83637380D01*
X147494714Y-83637380D01*
X148256619Y-82637380D02*
X148923285Y-82637380D01*
X148494714Y-83637380D01*
X141525666Y-82510380D02*
X141525666Y-83224666D01*
X141478047Y-83367523D01*
X141382809Y-83462761D01*
X141239952Y-83510380D01*
X141144714Y-83510380D01*
X142430428Y-82510380D02*
X142239952Y-82510380D01*
X142144714Y-82558000D01*
X142097095Y-82605619D01*
X142001857Y-82748476D01*
X141954238Y-82938952D01*
X141954238Y-83319904D01*
X142001857Y-83415142D01*
X142049476Y-83462761D01*
X142144714Y-83510380D01*
X142335190Y-83510380D01*
X142430428Y-83462761D01*
X142478047Y-83415142D01*
X142525666Y-83319904D01*
X142525666Y-83081809D01*
X142478047Y-82986571D01*
X142430428Y-82938952D01*
X142335190Y-82891333D01*
X142144714Y-82891333D01*
X142049476Y-82938952D01*
X142001857Y-82986571D01*
X141954238Y-83081809D01*
X141017666Y-111021880D02*
X141017666Y-111736166D01*
X140970047Y-111879023D01*
X140874809Y-111974261D01*
X140731952Y-112021880D01*
X140636714Y-112021880D01*
X141970047Y-111021880D02*
X141493857Y-111021880D01*
X141446238Y-111498071D01*
X141493857Y-111450452D01*
X141589095Y-111402833D01*
X141827190Y-111402833D01*
X141922428Y-111450452D01*
X141970047Y-111498071D01*
X142017666Y-111593309D01*
X142017666Y-111831404D01*
X141970047Y-111926642D01*
X141922428Y-111974261D01*
X141827190Y-112021880D01*
X141589095Y-112021880D01*
X141493857Y-111974261D01*
X141446238Y-111926642D01*
X118919666Y-108608880D02*
X118919666Y-109323166D01*
X118872047Y-109466023D01*
X118776809Y-109561261D01*
X118633952Y-109608880D01*
X118538714Y-109608880D01*
X119348238Y-108704119D02*
X119395857Y-108656500D01*
X119491095Y-108608880D01*
X119729190Y-108608880D01*
X119824428Y-108656500D01*
X119872047Y-108704119D01*
X119919666Y-108799357D01*
X119919666Y-108894595D01*
X119872047Y-109037452D01*
X119300619Y-109608880D01*
X119919666Y-109608880D01*
X118983166Y-101877880D02*
X118983166Y-102592166D01*
X118935547Y-102735023D01*
X118840309Y-102830261D01*
X118697452Y-102877880D01*
X118602214Y-102877880D01*
X119983166Y-102877880D02*
X119411738Y-102877880D01*
X119697452Y-102877880D02*
X119697452Y-101877880D01*
X119602214Y-102020738D01*
X119506976Y-102115976D01*
X119411738Y-102163595D01*
X117983095Y-114997380D02*
X117983095Y-113997380D01*
X117983095Y-114473571D02*
X118554523Y-114473571D01*
X118554523Y-114997380D02*
X118554523Y-113997380D01*
X119459285Y-114330714D02*
X119459285Y-114997380D01*
X119221190Y-113949761D02*
X118983095Y-114664047D01*
X119602142Y-114664047D01*
X164973095Y-114997380D02*
X164973095Y-113997380D01*
X164973095Y-114473571D02*
X165544523Y-114473571D01*
X165544523Y-114997380D02*
X165544523Y-113997380D01*
X165925476Y-113997380D02*
X166544523Y-113997380D01*
X166211190Y-114378333D01*
X166354047Y-114378333D01*
X166449285Y-114425952D01*
X166496904Y-114473571D01*
X166544523Y-114568809D01*
X166544523Y-114806904D01*
X166496904Y-114902142D01*
X166449285Y-114949761D01*
X166354047Y-114997380D01*
X166068333Y-114997380D01*
X165973095Y-114949761D01*
X165925476Y-114902142D01*
X164973095Y-87637880D02*
X164973095Y-86637880D01*
X164973095Y-87114071D02*
X165544523Y-87114071D01*
X165544523Y-87637880D02*
X165544523Y-86637880D01*
X165973095Y-86733119D02*
X166020714Y-86685500D01*
X166115952Y-86637880D01*
X166354047Y-86637880D01*
X166449285Y-86685500D01*
X166496904Y-86733119D01*
X166544523Y-86828357D01*
X166544523Y-86923595D01*
X166496904Y-87066452D01*
X165925476Y-87637880D01*
X166544523Y-87637880D01*
X117983095Y-87574380D02*
X117983095Y-86574380D01*
X117983095Y-87050571D02*
X118554523Y-87050571D01*
X118554523Y-87574380D02*
X118554523Y-86574380D01*
X119554523Y-87574380D02*
X118983095Y-87574380D01*
X119268809Y-87574380D02*
X119268809Y-86574380D01*
X119173571Y-86717238D01*
X119078333Y-86812476D01*
X118983095Y-86860095D01*
X138533142Y-96877166D02*
X138580761Y-96924785D01*
X138628380Y-97067642D01*
X138628380Y-97162880D01*
X138580761Y-97305738D01*
X138485523Y-97400976D01*
X138390285Y-97448595D01*
X138199809Y-97496214D01*
X138056952Y-97496214D01*
X137866476Y-97448595D01*
X137771238Y-97400976D01*
X137676000Y-97305738D01*
X137628380Y-97162880D01*
X137628380Y-97067642D01*
X137676000Y-96924785D01*
X137723619Y-96877166D01*
X137628380Y-95972404D02*
X137628380Y-96448595D01*
X138104571Y-96496214D01*
X138056952Y-96448595D01*
X138009333Y-96353357D01*
X138009333Y-96115261D01*
X138056952Y-96020023D01*
X138104571Y-95972404D01*
X138199809Y-95924785D01*
X138437904Y-95924785D01*
X138533142Y-95972404D01*
X138580761Y-96020023D01*
X138628380Y-96115261D01*
X138628380Y-96353357D01*
X138580761Y-96448595D01*
X138533142Y-96496214D01*
X132230833Y-98972642D02*
X132183214Y-99020261D01*
X132040357Y-99067880D01*
X131945119Y-99067880D01*
X131802261Y-99020261D01*
X131707023Y-98925023D01*
X131659404Y-98829785D01*
X131611785Y-98639309D01*
X131611785Y-98496452D01*
X131659404Y-98305976D01*
X131707023Y-98210738D01*
X131802261Y-98115500D01*
X131945119Y-98067880D01*
X132040357Y-98067880D01*
X132183214Y-98115500D01*
X132230833Y-98163119D01*
X133087976Y-98401214D02*
X133087976Y-99067880D01*
X132849880Y-98020261D02*
X132611785Y-98734547D01*
X133230833Y-98734547D01*
X134770833Y-108815142D02*
X134723214Y-108862761D01*
X134580357Y-108910380D01*
X134485119Y-108910380D01*
X134342261Y-108862761D01*
X134247023Y-108767523D01*
X134199404Y-108672285D01*
X134151785Y-108481809D01*
X134151785Y-108338952D01*
X134199404Y-108148476D01*
X134247023Y-108053238D01*
X134342261Y-107958000D01*
X134485119Y-107910380D01*
X134580357Y-107910380D01*
X134723214Y-107958000D01*
X134770833Y-108005619D01*
X135104166Y-107910380D02*
X135723214Y-107910380D01*
X135389880Y-108291333D01*
X135532738Y-108291333D01*
X135627976Y-108338952D01*
X135675595Y-108386571D01*
X135723214Y-108481809D01*
X135723214Y-108719904D01*
X135675595Y-108815142D01*
X135627976Y-108862761D01*
X135532738Y-108910380D01*
X135247023Y-108910380D01*
X135151785Y-108862761D01*
X135104166Y-108815142D01*
X123547142Y-115292166D02*
X123594761Y-115339785D01*
X123642380Y-115482642D01*
X123642380Y-115577880D01*
X123594761Y-115720738D01*
X123499523Y-115815976D01*
X123404285Y-115863595D01*
X123213809Y-115911214D01*
X123070952Y-115911214D01*
X122880476Y-115863595D01*
X122785238Y-115815976D01*
X122690000Y-115720738D01*
X122642380Y-115577880D01*
X122642380Y-115482642D01*
X122690000Y-115339785D01*
X122737619Y-115292166D01*
X122737619Y-114911214D02*
X122690000Y-114863595D01*
X122642380Y-114768357D01*
X122642380Y-114530261D01*
X122690000Y-114435023D01*
X122737619Y-114387404D01*
X122832857Y-114339785D01*
X122928095Y-114339785D01*
X123070952Y-114387404D01*
X123642380Y-114958833D01*
X123642380Y-114339785D01*
X129690833Y-118911642D02*
X129643214Y-118959261D01*
X129500357Y-119006880D01*
X129405119Y-119006880D01*
X129262261Y-118959261D01*
X129167023Y-118864023D01*
X129119404Y-118768785D01*
X129071785Y-118578309D01*
X129071785Y-118435452D01*
X129119404Y-118244976D01*
X129167023Y-118149738D01*
X129262261Y-118054500D01*
X129405119Y-118006880D01*
X129500357Y-118006880D01*
X129643214Y-118054500D01*
X129690833Y-118102119D01*
X130643214Y-119006880D02*
X130071785Y-119006880D01*
X130357500Y-119006880D02*
X130357500Y-118006880D01*
X130262261Y-118149738D01*
X130167023Y-118244976D01*
X130071785Y-118292595D01*
M02*
