*%FSLAX25Y25*%
*%MOIN*%
G01*
%ADD11C,0.00600*%
%ADD12C,0.00733*%
%ADD13C,0.00800*%
%ADD14C,0.01000*%
%ADD15C,0.01200*%
%ADD16C,0.01500*%
%ADD17C,0.02000*%
%ADD18C,0.02500*%
%ADD19C,0.03000*%
%ADD20C,0.03000*%
%ADD21O,0.03000X0.08000*%
%ADD22O,0.03800X0.08800*%
%ADD23C,0.04000*%
%ADD24C,0.04000*%
%ADD25C,0.05000*%
%ADD26C,0.06000*%
%ADD27C,0.06800*%
%ADD28C,0.07000*%
%ADD29C,0.08000*%
%ADD30C,0.08000*%
%ADD31C,0.08800*%
%ADD32O,0.09000X0.07000*%
%ADD33O,0.09800X0.07800*%
%ADD34C,0.10000*%
%ADD35C,0.10000*%
%ADD36C,0.12000*%
%ADD37C,0.12000*%
%ADD38C,0.12500*%
%ADD39C,0.12800*%
%ADD40O,0.15000X0.12000*%
%ADD41O,0.15800X0.12800*%
%ADD42C,0.16500*%
%ADD43C,0.25000*%
%ADD44R,0.04000X0.04000*%
%ADD45R,0.04800X0.04800*%
%ADD46R,0.05000X0.04000*%
%ADD47R,0.05800X0.04800*%
%ADD48R,0.06000X0.06000*%
%ADD49R,0.06000X0.10000*%
%ADD50R,0.06800X0.06800*%
%ADD51R,0.06800X0.10800*%
%ADD52R,0.08000X0.20000*%
%ADD53R,0.08800X0.20800*%
%ADD54R,0.10000X0.06000*%
%ADD55R,0.10000X0.10000*%
%ADD56R,0.10000X0.24000*%
%ADD57R,0.10800X0.06800*%
%ADD58R,0.10800X0.24800*%
%ADD59R,0.12000X0.06000*%
%ADD60R,0.12800X0.06800*%
%ADD61R,0.20000X0.20000*%
D27*
X905500Y877500D02*
D03*
X925500D02*
D03*
X915500D02*
D03*
X820500Y845000D02*
D03*
X840500D02*
D03*
X830500D02*
D03*
X1029500Y800000D02*
D03*
X888000Y795000D02*
D03*
X946000Y799500D02*
D03*
X849500Y817500D02*
D03*
X884500Y718000D02*
D03*
X855500Y737500D02*
D03*
X942500Y749500D02*
D03*
X896000Y819000D02*
D03*
X883500D02*
D03*
X861500Y760500D02*
D03*
X838500Y770000D02*
D03*
X851000Y780000D02*
D03*
D30*
X965100Y860000D02*
X965101D01*
X965100D02*
X965227Y858301D01*
X965607Y856640D01*
X966229Y855054D01*
X967081Y853578D01*
X968143Y852246D01*
X969392Y851087D01*
X970800Y850127D01*
X972335Y849388D01*
X973963Y848886D01*
X975648Y848632D01*
X977352D01*
X979037Y848886D01*
X980665Y849388D01*
X982200Y850127D01*
X983608Y851087D01*
X984857Y852246D01*
X985919Y853578D01*
X986771Y855054D01*
X987393Y856640D01*
X987773Y858301D01*
X987900Y860000D01*
X987901D01*
X987900D02*
X987773Y861699D01*
X987393Y863360D01*
X986771Y864946D01*
X985919Y866422D01*
X984857Y867754D01*
X983608Y868913D01*
X982200Y869873D01*
X980665Y870612D01*
X979037Y871114D01*
X977352Y871368D01*
X975648D01*
X973963Y871114D01*
X972335Y870612D01*
X970800Y869873D01*
X969392Y868913D01*
X968143Y867754D01*
X967081Y866422D01*
X966229Y864946D01*
X965607Y863360D01*
X965227Y861699D01*
X965100Y860000D01*
X972900D02*
X972901D01*
X972900D02*
X973117Y858769D01*
X973742Y857686D01*
X974700Y856882D01*
X975875Y856455D01*
X977125D01*
X978300Y856882D01*
X979258Y857686D01*
X979883Y858769D01*
X980100Y860000D01*
X980101D01*
X980100D02*
X979883Y861231D01*
X979258Y862314D01*
X978300Y863118D01*
X977125Y863545D01*
X975875D01*
X974700Y863118D01*
X973742Y862314D01*
X973117Y861231D01*
X972900Y860000D01*
X965100Y740000D02*
X965101D01*
X965100D02*
X965227Y738301D01*
X965607Y736640D01*
X966229Y735054D01*
X967081Y733578D01*
X968143Y732246D01*
X969392Y731087D01*
X970800Y730127D01*
X972335Y729388D01*
X973963Y728886D01*
X975648Y728632D01*
X977352D01*
X979037Y728886D01*
X980665Y729388D01*
X982200Y730127D01*
X983608Y731087D01*
X984857Y732246D01*
X985919Y733578D01*
X986771Y735054D01*
X987393Y736640D01*
X987773Y738301D01*
X987900Y740000D01*
X987901D01*
X987900D02*
X987773Y741699D01*
X987393Y743360D01*
X986771Y744946D01*
X985919Y746422D01*
X984857Y747754D01*
X983608Y748913D01*
X982200Y749873D01*
X980665Y750612D01*
X979037Y751114D01*
X977352Y751368D01*
X975648D01*
X973963Y751114D01*
X972335Y750612D01*
X970800Y749873D01*
X969392Y748913D01*
X968143Y747754D01*
X967081Y746422D01*
X966229Y744946D01*
X965607Y743360D01*
X965227Y741699D01*
X965100Y740000D01*
X972900D02*
X972901D01*
X972900D02*
X973117Y738769D01*
X973742Y737686D01*
X974700Y736882D01*
X975875Y736455D01*
X977125D01*
X978300Y736882D01*
X979258Y737686D01*
X979883Y738769D01*
X980100Y740000D01*
X980101D01*
X980100D02*
X979883Y741231D01*
X979258Y742314D01*
X978300Y743118D01*
X977125Y743545D01*
X975875D01*
X974700Y743118D01*
X973742Y742314D01*
X973117Y741231D01*
X972900Y740000D01*
X806600Y720000D02*
X806601D01*
X806600D02*
X806727Y718301D01*
X807106Y716640D01*
X807729Y715054D01*
X808581Y713578D01*
X809643Y712246D01*
X810892Y711087D01*
X812300Y710127D01*
X813835Y709388D01*
X815463Y708886D01*
X817148Y708632D01*
X818852D01*
X820537Y708886D01*
X822165Y709388D01*
X823700Y710127D01*
X825108Y711087D01*
X826357Y712246D01*
X827419Y713578D01*
X828271Y715054D01*
X828893Y716640D01*
X829273Y718301D01*
X829400Y720000D01*
X829401D01*
X829400D02*
X829273Y721699D01*
X828893Y723360D01*
X828271Y724946D01*
X827419Y726422D01*
X826357Y727754D01*
X825108Y728913D01*
X823700Y729873D01*
X822165Y730612D01*
X820537Y731114D01*
X818852Y731368D01*
X817148D01*
X815463Y731114D01*
X813835Y730612D01*
X812300Y729873D01*
X810892Y728913D01*
X809643Y727754D01*
X808581Y726422D01*
X807729Y724946D01*
X807106Y723360D01*
X806727Y721699D01*
X806600Y720000D01*
X814400D02*
X814401D01*
X814400D02*
X814617Y718769D01*
X815242Y717686D01*
X816200Y716882D01*
X817375Y716455D01*
X818625D01*
X819800Y716882D01*
X820758Y717686D01*
X821383Y718769D01*
X821600Y720000D01*
X821601D01*
X821600D02*
X821383Y721231D01*
X820758Y722314D01*
X819800Y723118D01*
X818625Y723545D01*
X817375D01*
X816200Y723118D01*
X815242Y722314D01*
X814617Y721231D01*
X814400Y720000D01*
X806600Y880000D02*
X806601D01*
X806600D02*
X806727Y878301D01*
X807106Y876640D01*
X807729Y875054D01*
X808581Y873578D01*
X809643Y872246D01*
X810892Y871087D01*
X812300Y870127D01*
X813835Y869388D01*
X815463Y868886D01*
X817148Y868632D01*
X818852D01*
X820537Y868886D01*
X822165Y869388D01*
X823700Y870127D01*
X825108Y871087D01*
X826357Y872246D01*
X827419Y873578D01*
X828271Y875054D01*
X828893Y876640D01*
X829273Y878301D01*
X829400Y880000D01*
X829401D01*
X829400D02*
X829273Y881699D01*
X828893Y883360D01*
X828271Y884946D01*
X827419Y886422D01*
X826357Y887754D01*
X825108Y888913D01*
X823700Y889873D01*
X822165Y890612D01*
X820537Y891114D01*
X818852Y891368D01*
X817148D01*
X815463Y891114D01*
X813835Y890612D01*
X812300Y889873D01*
X810892Y888913D01*
X809643Y887754D01*
X808581Y886422D01*
X807729Y884946D01*
X807106Y883360D01*
X806727Y881699D01*
X806600Y880000D01*
X814400D02*
X814401D01*
X814400D02*
X814617Y878769D01*
X815242Y877686D01*
X816200Y876882D01*
X817375Y876455D01*
X818625D01*
X819800Y876882D01*
X820758Y877686D01*
X821383Y878769D01*
X821600Y880000D01*
X821601D01*
X821600D02*
X821383Y881231D01*
X820758Y882314D01*
X819800Y883118D01*
X818625Y883545D01*
X817375D01*
X816200Y883118D01*
X815242Y882314D01*
X814617Y881231D01*
X814400Y880000D01*
X1155600Y860000D02*
X1155601D01*
X1155600D02*
X1155727Y858301D01*
X1156107Y856640D01*
X1156729Y855054D01*
X1157581Y853578D01*
X1158643Y852246D01*
X1159892Y851087D01*
X1161300Y850127D01*
X1162835Y849388D01*
X1164463Y848886D01*
X1166148Y848632D01*
X1167852D01*
X1169537Y848886D01*
X1171165Y849388D01*
X1172700Y850127D01*
X1174108Y851087D01*
X1175357Y852246D01*
X1176419Y853578D01*
X1177271Y855054D01*
X1177893Y856640D01*
X1178273Y858301D01*
X1178400Y860000D01*
X1178401D01*
X1178400D02*
X1178273Y861699D01*
X1177893Y863360D01*
X1177271Y864946D01*
X1176419Y866422D01*
X1175357Y867754D01*
X1174108Y868913D01*
X1172700Y869873D01*
X1171165Y870612D01*
X1169537Y871114D01*
X1167852Y871368D01*
X1166148D01*
X1164463Y871114D01*
X1162835Y870612D01*
X1161300Y869873D01*
X1159892Y868913D01*
X1158643Y867754D01*
X1157581Y866422D01*
X1156729Y864946D01*
X1156107Y863360D01*
X1155727Y861699D01*
X1155600Y860000D01*
X1163400D02*
X1163401D01*
X1163400D02*
X1163617Y858769D01*
X1164242Y857686D01*
X1165200Y856882D01*
X1166375Y856455D01*
X1167625D01*
X1168800Y856882D01*
X1169758Y857686D01*
X1170383Y858769D01*
X1170600Y860000D01*
X1170601D01*
X1170600D02*
X1170383Y861231D01*
X1169758Y862314D01*
X1168800Y863118D01*
X1167625Y863545D01*
X1166375D01*
X1165200Y863118D01*
X1164242Y862314D01*
X1163617Y861231D01*
X1163400Y860000D01*
X1155600Y740000D02*
X1155601D01*
X1155600D02*
X1155727Y738301D01*
X1156107Y736640D01*
X1156729Y735054D01*
X1157581Y733578D01*
X1158643Y732246D01*
X1159892Y731087D01*
X1161300Y730127D01*
X1162835Y729388D01*
X1164463Y728886D01*
X1166148Y728632D01*
X1167852D01*
X1169537Y728886D01*
X1171165Y729388D01*
X1172700Y730127D01*
X1174108Y731087D01*
X1175357Y732246D01*
X1176419Y733578D01*
X1177271Y735054D01*
X1177893Y736640D01*
X1178273Y738301D01*
X1178400Y740000D01*
X1178401D01*
X1178400D02*
X1178273Y741699D01*
X1177893Y743360D01*
X1177271Y744946D01*
X1176419Y746422D01*
X1175357Y747754D01*
X1174108Y748913D01*
X1172700Y749873D01*
X1171165Y750612D01*
X1169537Y751114D01*
X1167852Y751368D01*
X1166148D01*
X1164463Y751114D01*
X1162835Y750612D01*
X1161300Y749873D01*
X1159892Y748913D01*
X1158643Y747754D01*
X1157581Y746422D01*
X1156729Y744946D01*
X1156107Y743360D01*
X1155727Y741699D01*
X1155600Y740000D01*
X1163400D02*
X1163401D01*
X1163400D02*
X1163617Y738769D01*
X1164242Y737686D01*
X1165200Y736882D01*
X1166375Y736455D01*
X1167625D01*
X1168800Y736882D01*
X1169758Y737686D01*
X1170383Y738769D01*
X1170600Y740000D01*
X1170601D01*
X1170600D02*
X1170383Y741231D01*
X1169758Y742314D01*
X1168800Y743118D01*
X1167625Y743545D01*
X1166375D01*
X1165200Y743118D01*
X1164242Y742314D01*
X1163617Y741231D01*
X1163400Y740000D01*
D31*
X863000Y885000D02*
D03*
X843000D02*
D03*
X868000Y747500D02*
D03*
Y767500D02*
D03*
X873000Y832500D02*
D03*
Y852500D02*
D03*
X843000Y870000D02*
D03*
X883000D02*
D03*
X825500Y767500D02*
D03*
Y747500D02*
D03*
D33*
X925500Y851500D02*
D03*
Y842500D02*
D03*
Y833500D02*
D03*
X905500D02*
D03*
Y842500D02*
D03*
Y851500D02*
D03*
X925500Y816500D02*
D03*
Y807500D02*
D03*
Y798500D02*
D03*
Y746500D02*
D03*
Y737500D02*
D03*
Y728500D02*
D03*
X905500Y798500D02*
D03*
Y807500D02*
D03*
Y816500D02*
D03*
Y728500D02*
D03*
Y737500D02*
D03*
Y746500D02*
D03*
Y763500D02*
D03*
Y772500D02*
D03*
Y781500D02*
D03*
X925500Y763500D02*
D03*
Y772500D02*
D03*
Y781500D02*
D03*
D39*
X970500Y790000D02*
D03*
X1050500D02*
D03*
Y810000D02*
D03*
X970500D02*
D03*
X1185500Y812500D02*
D03*
X1070500Y820000D02*
D03*
Y780000D02*
D03*
X1185500Y787500D02*
D03*
X1070500Y800000D02*
D03*
X1168000D02*
D03*
X1088000D02*
D03*
Y780000D02*
D03*
X1168000D02*
D03*
Y820000D02*
D03*
X1088000D02*
D03*
D41*
X1050500Y881000D02*
D03*
Y860000D02*
D03*
Y839000D02*
D03*
Y740000D02*
D03*
Y719000D02*
D03*
Y761000D02*
D03*
X1093000Y881000D02*
D03*
Y860000D02*
D03*
Y839000D02*
D03*
Y719000D02*
D03*
Y761000D02*
D03*
Y740000D02*
D03*
D45*
X831000Y803500D02*
D03*
Y812500D02*
D03*
X838500Y803500D02*
D03*
Y812500D02*
D03*
X821500Y824500D02*
D03*
Y833500D02*
D03*
X848000D02*
D03*
Y824500D02*
D03*
D47*
X822000Y808000D02*
D03*
X847500D02*
D03*
X830500Y829000D02*
D03*
X839000D02*
D03*
D50*
X877500Y885000D02*
D03*
X888500D02*
D03*
X925000Y860000D02*
D03*
X936000D02*
D03*
X895500Y834500D02*
D03*
Y845500D02*
D03*
X910000Y825000D02*
D03*
X921000D02*
D03*
X915500Y804500D02*
D03*
Y815500D02*
D03*
Y779500D02*
D03*
Y790500D02*
D03*
Y754500D02*
D03*
Y765500D02*
D03*
X910000Y720000D02*
D03*
X921000D02*
D03*
X915500Y729500D02*
D03*
Y740500D02*
D03*
X840500Y749500D02*
D03*
Y760500D02*
D03*
X853000Y749500D02*
D03*
Y760500D02*
D03*
X838500Y791000D02*
D03*
Y780000D02*
D03*
X813000Y799500D02*
D03*
Y810500D02*
D03*
X847500Y797500D02*
D03*
X858500D02*
D03*
X868500Y817500D02*
D03*
X857500D02*
D03*
X813000Y824500D02*
D03*
Y835500D02*
D03*
X826000Y855000D02*
D03*
X815000D02*
D03*
X835000D02*
D03*
X846000D02*
D03*
X883000Y861000D02*
D03*
Y850000D02*
D03*
X862500Y872500D02*
D03*
X873500D02*
D03*
X895500Y795500D02*
D03*
Y784500D02*
D03*
Y775500D02*
D03*
Y764500D02*
D03*
X895000Y755000D02*
D03*
X906000D02*
D03*
X925000Y790000D02*
D03*
X936000D02*
D03*
X935500Y780500D02*
D03*
Y769500D02*
D03*
Y760500D02*
D03*
X946500D02*
D03*
D53*
X1148000Y800000D02*
D03*
X1128000D02*
D03*
M02*
