G04 #@! TF.GenerationSoftware,KiCad,Pcbnew,(5.1.8-0-10_14)*
G04 #@! TF.CreationDate,2020-12-27T15:47:31+01:00*
G04 #@! TF.ProjectId,lv-lownoise-psu,6c762d6c-6f77-46e6-9f69-73652d707375,rev?*
G04 #@! TF.SameCoordinates,Original*
G04 #@! TF.FileFunction,Legend,Top*
G04 #@! TF.FilePolarity,Positive*
%FSLAX46Y46*%
G04 Gerber Fmt 4.6, Leading zero omitted, Abs format (unit mm)*
G04 Created by KiCad (PCBNEW (5.1.8-0-10_14)) date 2020-12-27 15:47:31*
%MOMM*%
%LPD*%
G01*
G04 APERTURE LIST*
%ADD10C,0.150000*%
%ADD11C,0.120000*%
G04 APERTURE END LIST*
D10*
X86785371Y-78976980D02*
X86309180Y-78976980D01*
X86309180Y-77976980D01*
X87261561Y-78976980D02*
X87166323Y-78929361D01*
X87118704Y-78881742D01*
X87071085Y-78786504D01*
X87071085Y-78500790D01*
X87118704Y-78405552D01*
X87166323Y-78357933D01*
X87261561Y-78310314D01*
X87404419Y-78310314D01*
X87499657Y-78357933D01*
X87547276Y-78405552D01*
X87594895Y-78500790D01*
X87594895Y-78786504D01*
X87547276Y-78881742D01*
X87499657Y-78929361D01*
X87404419Y-78976980D01*
X87261561Y-78976980D01*
X87928228Y-78310314D02*
X88118704Y-78976980D01*
X88309180Y-78500790D01*
X88499657Y-78976980D01*
X88690133Y-78310314D01*
X89832990Y-78310314D02*
X89832990Y-78976980D01*
X89832990Y-78405552D02*
X89880609Y-78357933D01*
X89975847Y-78310314D01*
X90118704Y-78310314D01*
X90213942Y-78357933D01*
X90261561Y-78453171D01*
X90261561Y-78976980D01*
X90880609Y-78976980D02*
X90785371Y-78929361D01*
X90737752Y-78881742D01*
X90690133Y-78786504D01*
X90690133Y-78500790D01*
X90737752Y-78405552D01*
X90785371Y-78357933D01*
X90880609Y-78310314D01*
X91023466Y-78310314D01*
X91118704Y-78357933D01*
X91166323Y-78405552D01*
X91213942Y-78500790D01*
X91213942Y-78786504D01*
X91166323Y-78881742D01*
X91118704Y-78929361D01*
X91023466Y-78976980D01*
X90880609Y-78976980D01*
X91642514Y-78976980D02*
X91642514Y-78310314D01*
X91642514Y-77976980D02*
X91594895Y-78024600D01*
X91642514Y-78072219D01*
X91690133Y-78024600D01*
X91642514Y-77976980D01*
X91642514Y-78072219D01*
X92071085Y-78929361D02*
X92166323Y-78976980D01*
X92356800Y-78976980D01*
X92452038Y-78929361D01*
X92499657Y-78834123D01*
X92499657Y-78786504D01*
X92452038Y-78691266D01*
X92356800Y-78643647D01*
X92213942Y-78643647D01*
X92118704Y-78596028D01*
X92071085Y-78500790D01*
X92071085Y-78453171D01*
X92118704Y-78357933D01*
X92213942Y-78310314D01*
X92356800Y-78310314D01*
X92452038Y-78357933D01*
X93309180Y-78929361D02*
X93213942Y-78976980D01*
X93023466Y-78976980D01*
X92928228Y-78929361D01*
X92880609Y-78834123D01*
X92880609Y-78453171D01*
X92928228Y-78357933D01*
X93023466Y-78310314D01*
X93213942Y-78310314D01*
X93309180Y-78357933D01*
X93356800Y-78453171D01*
X93356800Y-78548409D01*
X92880609Y-78643647D01*
X94975847Y-78976980D02*
X94975847Y-77976980D01*
X94975847Y-78929361D02*
X94880609Y-78976980D01*
X94690133Y-78976980D01*
X94594895Y-78929361D01*
X94547276Y-78881742D01*
X94499657Y-78786504D01*
X94499657Y-78500790D01*
X94547276Y-78405552D01*
X94594895Y-78357933D01*
X94690133Y-78310314D01*
X94880609Y-78310314D01*
X94975847Y-78357933D01*
X95880609Y-78310314D02*
X95880609Y-78976980D01*
X95452038Y-78310314D02*
X95452038Y-78834123D01*
X95499657Y-78929361D01*
X95594895Y-78976980D01*
X95737752Y-78976980D01*
X95832990Y-78929361D01*
X95880609Y-78881742D01*
X96785371Y-78976980D02*
X96785371Y-78453171D01*
X96737752Y-78357933D01*
X96642514Y-78310314D01*
X96452038Y-78310314D01*
X96356800Y-78357933D01*
X96785371Y-78929361D02*
X96690133Y-78976980D01*
X96452038Y-78976980D01*
X96356800Y-78929361D01*
X96309180Y-78834123D01*
X96309180Y-78738885D01*
X96356800Y-78643647D01*
X96452038Y-78596028D01*
X96690133Y-78596028D01*
X96785371Y-78548409D01*
X97404419Y-78976980D02*
X97309180Y-78929361D01*
X97261561Y-78834123D01*
X97261561Y-77976980D01*
X98547276Y-78310314D02*
X98547276Y-79310314D01*
X98547276Y-78357933D02*
X98642514Y-78310314D01*
X98832990Y-78310314D01*
X98928228Y-78357933D01*
X98975847Y-78405552D01*
X99023466Y-78500790D01*
X99023466Y-78786504D01*
X98975847Y-78881742D01*
X98928228Y-78929361D01*
X98832990Y-78976980D01*
X98642514Y-78976980D01*
X98547276Y-78929361D01*
X99594895Y-78976980D02*
X99499657Y-78929361D01*
X99452038Y-78881742D01*
X99404419Y-78786504D01*
X99404419Y-78500790D01*
X99452038Y-78405552D01*
X99499657Y-78357933D01*
X99594895Y-78310314D01*
X99737752Y-78310314D01*
X99832990Y-78357933D01*
X99880609Y-78405552D01*
X99928228Y-78500790D01*
X99928228Y-78786504D01*
X99880609Y-78881742D01*
X99832990Y-78929361D01*
X99737752Y-78976980D01*
X99594895Y-78976980D01*
X100261561Y-78310314D02*
X100452038Y-78976980D01*
X100642514Y-78500790D01*
X100832990Y-78976980D01*
X101023466Y-78310314D01*
X101785371Y-78929361D02*
X101690133Y-78976980D01*
X101499657Y-78976980D01*
X101404419Y-78929361D01*
X101356800Y-78834123D01*
X101356800Y-78453171D01*
X101404419Y-78357933D01*
X101499657Y-78310314D01*
X101690133Y-78310314D01*
X101785371Y-78357933D01*
X101832990Y-78453171D01*
X101832990Y-78548409D01*
X101356800Y-78643647D01*
X102261561Y-78976980D02*
X102261561Y-78310314D01*
X102261561Y-78500790D02*
X102309180Y-78405552D01*
X102356800Y-78357933D01*
X102452038Y-78310314D01*
X102547276Y-78310314D01*
X103594895Y-78929361D02*
X103690133Y-78976980D01*
X103880609Y-78976980D01*
X103975847Y-78929361D01*
X104023466Y-78834123D01*
X104023466Y-78786504D01*
X103975847Y-78691266D01*
X103880609Y-78643647D01*
X103737752Y-78643647D01*
X103642514Y-78596028D01*
X103594895Y-78500790D01*
X103594895Y-78453171D01*
X103642514Y-78357933D01*
X103737752Y-78310314D01*
X103880609Y-78310314D01*
X103975847Y-78357933D01*
X104880609Y-78310314D02*
X104880609Y-78976980D01*
X104452038Y-78310314D02*
X104452038Y-78834123D01*
X104499657Y-78929361D01*
X104594895Y-78976980D01*
X104737752Y-78976980D01*
X104832990Y-78929361D01*
X104880609Y-78881742D01*
X105356800Y-78310314D02*
X105356800Y-79310314D01*
X105356800Y-78357933D02*
X105452038Y-78310314D01*
X105642514Y-78310314D01*
X105737752Y-78357933D01*
X105785371Y-78405552D01*
X105832990Y-78500790D01*
X105832990Y-78786504D01*
X105785371Y-78881742D01*
X105737752Y-78929361D01*
X105642514Y-78976980D01*
X105452038Y-78976980D01*
X105356800Y-78929361D01*
X106261561Y-78310314D02*
X106261561Y-79310314D01*
X106261561Y-78357933D02*
X106356800Y-78310314D01*
X106547276Y-78310314D01*
X106642514Y-78357933D01*
X106690133Y-78405552D01*
X106737752Y-78500790D01*
X106737752Y-78786504D01*
X106690133Y-78881742D01*
X106642514Y-78929361D01*
X106547276Y-78976980D01*
X106356800Y-78976980D01*
X106261561Y-78929361D01*
X107309180Y-78976980D02*
X107213942Y-78929361D01*
X107166323Y-78834123D01*
X107166323Y-77976980D01*
X107594895Y-78310314D02*
X107832990Y-78976980D01*
X108071085Y-78310314D02*
X107832990Y-78976980D01*
X107737752Y-79215076D01*
X107690133Y-79262695D01*
X107594895Y-79310314D01*
X109071085Y-77976980D02*
X109404419Y-78976980D01*
X109737752Y-77976980D01*
X109975847Y-77976980D02*
X110594895Y-77976980D01*
X110261561Y-78357933D01*
X110404419Y-78357933D01*
X110499657Y-78405552D01*
X110547276Y-78453171D01*
X110594895Y-78548409D01*
X110594895Y-78786504D01*
X110547276Y-78881742D01*
X110499657Y-78929361D01*
X110404419Y-78976980D01*
X110118704Y-78976980D01*
X110023466Y-78929361D01*
X109975847Y-78881742D01*
X111452038Y-78929361D02*
X111356800Y-78976980D01*
X111166323Y-78976980D01*
X111071085Y-78929361D01*
X111023466Y-78881742D01*
X110975847Y-78786504D01*
X110975847Y-78500790D01*
X111023466Y-78405552D01*
X111071085Y-78357933D01*
X111166323Y-78310314D01*
X111356800Y-78310314D01*
X111452038Y-78357933D01*
X88332990Y-80626980D02*
X88332990Y-79626980D01*
X88666323Y-80341266D01*
X88999657Y-79626980D01*
X88999657Y-80626980D01*
X89475847Y-80626980D02*
X89475847Y-79960314D01*
X89475847Y-79626980D02*
X89428228Y-79674600D01*
X89475847Y-79722219D01*
X89523466Y-79674600D01*
X89475847Y-79626980D01*
X89475847Y-79722219D01*
X90380609Y-80579361D02*
X90285371Y-80626980D01*
X90094895Y-80626980D01*
X89999657Y-80579361D01*
X89952038Y-80531742D01*
X89904419Y-80436504D01*
X89904419Y-80150790D01*
X89952038Y-80055552D01*
X89999657Y-80007933D01*
X90094895Y-79960314D01*
X90285371Y-79960314D01*
X90380609Y-80007933D01*
X90809180Y-80626980D02*
X90809180Y-79626980D01*
X91237752Y-80626980D02*
X91237752Y-80103171D01*
X91190133Y-80007933D01*
X91094895Y-79960314D01*
X90952038Y-79960314D01*
X90856800Y-80007933D01*
X90809180Y-80055552D01*
X92142514Y-80626980D02*
X92142514Y-80103171D01*
X92094895Y-80007933D01*
X91999657Y-79960314D01*
X91809180Y-79960314D01*
X91713942Y-80007933D01*
X92142514Y-80579361D02*
X92047276Y-80626980D01*
X91809180Y-80626980D01*
X91713942Y-80579361D01*
X91666323Y-80484123D01*
X91666323Y-80388885D01*
X91713942Y-80293647D01*
X91809180Y-80246028D01*
X92047276Y-80246028D01*
X92142514Y-80198409D01*
X92999657Y-80579361D02*
X92904419Y-80626980D01*
X92713942Y-80626980D01*
X92618704Y-80579361D01*
X92571085Y-80484123D01*
X92571085Y-80103171D01*
X92618704Y-80007933D01*
X92713942Y-79960314D01*
X92904419Y-79960314D01*
X92999657Y-80007933D01*
X93047276Y-80103171D01*
X93047276Y-80198409D01*
X92571085Y-80293647D01*
X93618704Y-80626980D02*
X93523466Y-80579361D01*
X93475847Y-80484123D01*
X93475847Y-79626980D01*
X94713942Y-80579361D02*
X94856800Y-80626980D01*
X95094895Y-80626980D01*
X95190133Y-80579361D01*
X95237752Y-80531742D01*
X95285371Y-80436504D01*
X95285371Y-80341266D01*
X95237752Y-80246028D01*
X95190133Y-80198409D01*
X95094895Y-80150790D01*
X94904419Y-80103171D01*
X94809180Y-80055552D01*
X94761561Y-80007933D01*
X94713942Y-79912695D01*
X94713942Y-79817457D01*
X94761561Y-79722219D01*
X94809180Y-79674600D01*
X94904419Y-79626980D01*
X95142514Y-79626980D01*
X95285371Y-79674600D01*
X96142514Y-80579361D02*
X96047276Y-80626980D01*
X95856800Y-80626980D01*
X95761561Y-80579361D01*
X95713942Y-80531742D01*
X95666323Y-80436504D01*
X95666323Y-80150790D01*
X95713942Y-80055552D01*
X95761561Y-80007933D01*
X95856800Y-79960314D01*
X96047276Y-79960314D01*
X96142514Y-80007933D01*
X96571085Y-80626980D02*
X96571085Y-79626980D01*
X96999657Y-80626980D02*
X96999657Y-80103171D01*
X96952038Y-80007933D01*
X96856800Y-79960314D01*
X96713942Y-79960314D01*
X96618704Y-80007933D01*
X96571085Y-80055552D01*
X97856800Y-80579361D02*
X97761561Y-80626980D01*
X97571085Y-80626980D01*
X97475847Y-80579361D01*
X97428228Y-80484123D01*
X97428228Y-80103171D01*
X97475847Y-80007933D01*
X97571085Y-79960314D01*
X97761561Y-79960314D01*
X97856800Y-80007933D01*
X97904419Y-80103171D01*
X97904419Y-80198409D01*
X97428228Y-80293647D01*
X98332990Y-79960314D02*
X98332990Y-80626980D01*
X98332990Y-80055552D02*
X98380609Y-80007933D01*
X98475847Y-79960314D01*
X98618704Y-79960314D01*
X98713942Y-80007933D01*
X98761561Y-80103171D01*
X98761561Y-80626980D01*
X99237752Y-80626980D02*
X99237752Y-79626980D01*
X99332990Y-80246028D02*
X99618704Y-80626980D01*
X99618704Y-79960314D02*
X99237752Y-80341266D01*
X100094895Y-80579361D02*
X100094895Y-80626980D01*
X100047276Y-80722219D01*
X99999657Y-80769838D01*
X101237752Y-79722219D02*
X101285371Y-79674600D01*
X101380609Y-79626980D01*
X101618704Y-79626980D01*
X101713942Y-79674600D01*
X101761561Y-79722219D01*
X101809180Y-79817457D01*
X101809180Y-79912695D01*
X101761561Y-80055552D01*
X101190133Y-80626980D01*
X101809180Y-80626980D01*
X102428228Y-79626980D02*
X102523466Y-79626980D01*
X102618704Y-79674600D01*
X102666323Y-79722219D01*
X102713942Y-79817457D01*
X102761561Y-80007933D01*
X102761561Y-80246028D01*
X102713942Y-80436504D01*
X102666323Y-80531742D01*
X102618704Y-80579361D01*
X102523466Y-80626980D01*
X102428228Y-80626980D01*
X102332990Y-80579361D01*
X102285371Y-80531742D01*
X102237752Y-80436504D01*
X102190133Y-80246028D01*
X102190133Y-80007933D01*
X102237752Y-79817457D01*
X102285371Y-79722219D01*
X102332990Y-79674600D01*
X102428228Y-79626980D01*
X103142514Y-79722219D02*
X103190133Y-79674600D01*
X103285371Y-79626980D01*
X103523466Y-79626980D01*
X103618704Y-79674600D01*
X103666323Y-79722219D01*
X103713942Y-79817457D01*
X103713942Y-79912695D01*
X103666323Y-80055552D01*
X103094895Y-80626980D01*
X103713942Y-80626980D01*
X104332990Y-79626980D02*
X104428228Y-79626980D01*
X104523466Y-79674600D01*
X104571085Y-79722219D01*
X104618704Y-79817457D01*
X104666323Y-80007933D01*
X104666323Y-80246028D01*
X104618704Y-80436504D01*
X104571085Y-80531742D01*
X104523466Y-80579361D01*
X104428228Y-80626980D01*
X104332990Y-80626980D01*
X104237752Y-80579361D01*
X104190133Y-80531742D01*
X104142514Y-80436504D01*
X104094895Y-80246028D01*
X104094895Y-80007933D01*
X104142514Y-79817457D01*
X104190133Y-79722219D01*
X104237752Y-79674600D01*
X104332990Y-79626980D01*
X105094895Y-80531742D02*
X105142514Y-80579361D01*
X105094895Y-80626980D01*
X105047276Y-80579361D01*
X105094895Y-80531742D01*
X105094895Y-80626980D01*
X106094895Y-80626980D02*
X105523466Y-80626980D01*
X105809180Y-80626980D02*
X105809180Y-79626980D01*
X105713942Y-79769838D01*
X105618704Y-79865076D01*
X105523466Y-79912695D01*
X106475847Y-79722219D02*
X106523466Y-79674600D01*
X106618704Y-79626980D01*
X106856800Y-79626980D01*
X106952038Y-79674600D01*
X106999657Y-79722219D01*
X107047276Y-79817457D01*
X107047276Y-79912695D01*
X106999657Y-80055552D01*
X106428228Y-80626980D01*
X107047276Y-80626980D01*
X107475847Y-80531742D02*
X107523466Y-80579361D01*
X107475847Y-80626980D01*
X107428228Y-80579361D01*
X107475847Y-80531742D01*
X107475847Y-80626980D01*
X107904419Y-79722219D02*
X107952038Y-79674600D01*
X108047276Y-79626980D01*
X108285371Y-79626980D01*
X108380609Y-79674600D01*
X108428228Y-79722219D01*
X108475847Y-79817457D01*
X108475847Y-79912695D01*
X108428228Y-80055552D01*
X107856800Y-80626980D01*
X108475847Y-80626980D01*
X108809180Y-79626980D02*
X109475847Y-79626980D01*
X109047276Y-80626980D01*
X135940895Y-29167200D02*
X135845657Y-29119580D01*
X135702800Y-29119580D01*
X135559942Y-29167200D01*
X135464704Y-29262438D01*
X135417085Y-29357676D01*
X135369466Y-29548152D01*
X135369466Y-29691009D01*
X135417085Y-29881485D01*
X135464704Y-29976723D01*
X135559942Y-30071961D01*
X135702800Y-30119580D01*
X135798038Y-30119580D01*
X135940895Y-30071961D01*
X135988514Y-30024342D01*
X135988514Y-29691009D01*
X135798038Y-29691009D01*
X136417085Y-30119580D02*
X136417085Y-29119580D01*
X136988514Y-30119580D01*
X136988514Y-29119580D01*
X137464704Y-30119580D02*
X137464704Y-29119580D01*
X137702800Y-29119580D01*
X137845657Y-29167200D01*
X137940895Y-29262438D01*
X137988514Y-29357676D01*
X138036133Y-29548152D01*
X138036133Y-29691009D01*
X137988514Y-29881485D01*
X137940895Y-29976723D01*
X137845657Y-30071961D01*
X137702800Y-30119580D01*
X137464704Y-30119580D01*
X127847885Y-29738628D02*
X128609790Y-29738628D01*
X128228838Y-30119580D02*
X128228838Y-29357676D01*
X129562171Y-29119580D02*
X129085980Y-29119580D01*
X129038361Y-29595771D01*
X129085980Y-29548152D01*
X129181219Y-29500533D01*
X129419314Y-29500533D01*
X129514552Y-29548152D01*
X129562171Y-29595771D01*
X129609790Y-29691009D01*
X129609790Y-29929104D01*
X129562171Y-30024342D01*
X129514552Y-30071961D01*
X129419314Y-30119580D01*
X129181219Y-30119580D01*
X129085980Y-30071961D01*
X129038361Y-30024342D01*
X129895504Y-29119580D02*
X130228838Y-30119580D01*
X130562171Y-29119580D01*
X118411785Y-87447428D02*
X119173690Y-87447428D01*
X120126071Y-86828380D02*
X119649880Y-86828380D01*
X119602261Y-87304571D01*
X119649880Y-87256952D01*
X119745119Y-87209333D01*
X119983214Y-87209333D01*
X120078452Y-87256952D01*
X120126071Y-87304571D01*
X120173690Y-87399809D01*
X120173690Y-87637904D01*
X120126071Y-87733142D01*
X120078452Y-87780761D01*
X119983214Y-87828380D01*
X119745119Y-87828380D01*
X119649880Y-87780761D01*
X119602261Y-87733142D01*
X120459404Y-86828380D02*
X120792738Y-87828380D01*
X121126071Y-86828380D01*
X127190595Y-86876000D02*
X127095357Y-86828380D01*
X126952500Y-86828380D01*
X126809642Y-86876000D01*
X126714404Y-86971238D01*
X126666785Y-87066476D01*
X126619166Y-87256952D01*
X126619166Y-87399809D01*
X126666785Y-87590285D01*
X126714404Y-87685523D01*
X126809642Y-87780761D01*
X126952500Y-87828380D01*
X127047738Y-87828380D01*
X127190595Y-87780761D01*
X127238214Y-87733142D01*
X127238214Y-87399809D01*
X127047738Y-87399809D01*
X127666785Y-87828380D02*
X127666785Y-86828380D01*
X128238214Y-87828380D01*
X128238214Y-86828380D01*
X128714404Y-87828380D02*
X128714404Y-86828380D01*
X128952500Y-86828380D01*
X129095357Y-86876000D01*
X129190595Y-86971238D01*
X129238214Y-87066476D01*
X129285833Y-87256952D01*
X129285833Y-87399809D01*
X129238214Y-87590285D01*
X129190595Y-87685523D01*
X129095357Y-87780761D01*
X128952500Y-87828380D01*
X128714404Y-87828380D01*
X93091095Y-29091000D02*
X92995857Y-29043380D01*
X92853000Y-29043380D01*
X92710142Y-29091000D01*
X92614904Y-29186238D01*
X92567285Y-29281476D01*
X92519666Y-29471952D01*
X92519666Y-29614809D01*
X92567285Y-29805285D01*
X92614904Y-29900523D01*
X92710142Y-29995761D01*
X92853000Y-30043380D01*
X92948238Y-30043380D01*
X93091095Y-29995761D01*
X93138714Y-29948142D01*
X93138714Y-29614809D01*
X92948238Y-29614809D01*
X93567285Y-30043380D02*
X93567285Y-29043380D01*
X94138714Y-30043380D01*
X94138714Y-29043380D01*
X94614904Y-30043380D02*
X94614904Y-29043380D01*
X94853000Y-29043380D01*
X94995857Y-29091000D01*
X95091095Y-29186238D01*
X95138714Y-29281476D01*
X95186333Y-29471952D01*
X95186333Y-29614809D01*
X95138714Y-29805285D01*
X95091095Y-29900523D01*
X94995857Y-29995761D01*
X94853000Y-30043380D01*
X94614904Y-30043380D01*
X100957142Y-30043380D02*
X100480952Y-30043380D01*
X100480952Y-29043380D01*
X101290476Y-29519571D02*
X101623809Y-29519571D01*
X101766666Y-30043380D02*
X101290476Y-30043380D01*
X101290476Y-29043380D01*
X101766666Y-29043380D01*
X102195238Y-30043380D02*
X102195238Y-29043380D01*
X102433333Y-29043380D01*
X102576190Y-29091000D01*
X102671428Y-29186238D01*
X102719047Y-29281476D01*
X102766666Y-29471952D01*
X102766666Y-29614809D01*
X102719047Y-29805285D01*
X102671428Y-29900523D01*
X102576190Y-29995761D01*
X102433333Y-30043380D01*
X102195238Y-30043380D01*
X92409714Y-37663380D02*
X92409714Y-36996714D01*
X92409714Y-37091952D02*
X92457333Y-37044333D01*
X92552571Y-36996714D01*
X92695428Y-36996714D01*
X92790666Y-37044333D01*
X92838285Y-37139571D01*
X92838285Y-37663380D01*
X92838285Y-37139571D02*
X92885904Y-37044333D01*
X92981142Y-36996714D01*
X93124000Y-36996714D01*
X93219238Y-37044333D01*
X93266857Y-37139571D01*
X93266857Y-37663380D01*
X93743047Y-37663380D02*
X93743047Y-36996714D01*
X93743047Y-36663380D02*
X93695428Y-36711000D01*
X93743047Y-36758619D01*
X93790666Y-36711000D01*
X93743047Y-36663380D01*
X93743047Y-36758619D01*
X94647809Y-37615761D02*
X94552571Y-37663380D01*
X94362095Y-37663380D01*
X94266857Y-37615761D01*
X94219238Y-37568142D01*
X94171619Y-37472904D01*
X94171619Y-37187190D01*
X94219238Y-37091952D01*
X94266857Y-37044333D01*
X94362095Y-36996714D01*
X94552571Y-36996714D01*
X94647809Y-37044333D01*
X95076380Y-37663380D02*
X95076380Y-36663380D01*
X95504952Y-37663380D02*
X95504952Y-37139571D01*
X95457333Y-37044333D01*
X95362095Y-36996714D01*
X95219238Y-36996714D01*
X95124000Y-37044333D01*
X95076380Y-37091952D01*
X96409714Y-37663380D02*
X96409714Y-37139571D01*
X96362095Y-37044333D01*
X96266857Y-36996714D01*
X96076380Y-36996714D01*
X95981142Y-37044333D01*
X96409714Y-37615761D02*
X96314476Y-37663380D01*
X96076380Y-37663380D01*
X95981142Y-37615761D01*
X95933523Y-37520523D01*
X95933523Y-37425285D01*
X95981142Y-37330047D01*
X96076380Y-37282428D01*
X96314476Y-37282428D01*
X96409714Y-37234809D01*
X97266857Y-37615761D02*
X97171619Y-37663380D01*
X96981142Y-37663380D01*
X96885904Y-37615761D01*
X96838285Y-37520523D01*
X96838285Y-37139571D01*
X96885904Y-37044333D01*
X96981142Y-36996714D01*
X97171619Y-36996714D01*
X97266857Y-37044333D01*
X97314476Y-37139571D01*
X97314476Y-37234809D01*
X96838285Y-37330047D01*
X97885904Y-37663380D02*
X97790666Y-37615761D01*
X97743047Y-37520523D01*
X97743047Y-36663380D01*
X98219238Y-37615761D02*
X98314476Y-37663380D01*
X98504952Y-37663380D01*
X98600190Y-37615761D01*
X98647809Y-37520523D01*
X98647809Y-37472904D01*
X98600190Y-37377666D01*
X98504952Y-37330047D01*
X98362095Y-37330047D01*
X98266857Y-37282428D01*
X98219238Y-37187190D01*
X98219238Y-37139571D01*
X98266857Y-37044333D01*
X98362095Y-36996714D01*
X98504952Y-36996714D01*
X98600190Y-37044333D01*
X99504952Y-37615761D02*
X99409714Y-37663380D01*
X99219238Y-37663380D01*
X99124000Y-37615761D01*
X99076380Y-37568142D01*
X99028761Y-37472904D01*
X99028761Y-37187190D01*
X99076380Y-37091952D01*
X99124000Y-37044333D01*
X99219238Y-36996714D01*
X99409714Y-36996714D01*
X99504952Y-37044333D01*
X99933523Y-37663380D02*
X99933523Y-36663380D01*
X100362095Y-37663380D02*
X100362095Y-37139571D01*
X100314476Y-37044333D01*
X100219238Y-36996714D01*
X100076380Y-36996714D01*
X99981142Y-37044333D01*
X99933523Y-37091952D01*
X101219238Y-37615761D02*
X101124000Y-37663380D01*
X100933523Y-37663380D01*
X100838285Y-37615761D01*
X100790666Y-37520523D01*
X100790666Y-37139571D01*
X100838285Y-37044333D01*
X100933523Y-36996714D01*
X101124000Y-36996714D01*
X101219238Y-37044333D01*
X101266857Y-37139571D01*
X101266857Y-37234809D01*
X100790666Y-37330047D01*
X101695428Y-36996714D02*
X101695428Y-37663380D01*
X101695428Y-37091952D02*
X101743047Y-37044333D01*
X101838285Y-36996714D01*
X101981142Y-36996714D01*
X102076380Y-37044333D01*
X102124000Y-37139571D01*
X102124000Y-37663380D01*
X102600190Y-37663380D02*
X102600190Y-36663380D01*
X102695428Y-37282428D02*
X102981142Y-37663380D01*
X102981142Y-36996714D02*
X102600190Y-37377666D01*
X103314476Y-36663380D02*
X103981142Y-36663380D01*
X103552571Y-37663380D01*
X104314476Y-36758619D02*
X104362095Y-36711000D01*
X104457333Y-36663380D01*
X104695428Y-36663380D01*
X104790666Y-36711000D01*
X104838285Y-36758619D01*
X104885904Y-36853857D01*
X104885904Y-36949095D01*
X104838285Y-37091952D01*
X104266857Y-37663380D01*
X104885904Y-37663380D01*
X105933523Y-37187190D02*
X105885904Y-37139571D01*
X105790666Y-37091952D01*
X105695428Y-37091952D01*
X105600190Y-37139571D01*
X105552571Y-37187190D01*
X105504952Y-37282428D01*
X105504952Y-37377666D01*
X105552571Y-37472904D01*
X105600190Y-37520523D01*
X105695428Y-37568142D01*
X105790666Y-37568142D01*
X105885904Y-37520523D01*
X105933523Y-37472904D01*
X105933523Y-37091952D02*
X105933523Y-37472904D01*
X105981142Y-37520523D01*
X106028761Y-37520523D01*
X106124000Y-37472904D01*
X106171619Y-37377666D01*
X106171619Y-37139571D01*
X106076380Y-36996714D01*
X105933523Y-36901476D01*
X105743047Y-36853857D01*
X105552571Y-36901476D01*
X105409714Y-36996714D01*
X105314476Y-37139571D01*
X105266857Y-37330047D01*
X105314476Y-37520523D01*
X105409714Y-37663380D01*
X105552571Y-37758619D01*
X105743047Y-37806238D01*
X105933523Y-37758619D01*
X106076380Y-37663380D01*
X107028761Y-36996714D02*
X107028761Y-37806238D01*
X106981142Y-37901476D01*
X106933523Y-37949095D01*
X106838285Y-37996714D01*
X106695428Y-37996714D01*
X106600190Y-37949095D01*
X107028761Y-37615761D02*
X106933523Y-37663380D01*
X106743047Y-37663380D01*
X106647809Y-37615761D01*
X106600190Y-37568142D01*
X106552571Y-37472904D01*
X106552571Y-37187190D01*
X106600190Y-37091952D01*
X106647809Y-37044333D01*
X106743047Y-36996714D01*
X106933523Y-36996714D01*
X107028761Y-37044333D01*
X107504952Y-37663380D02*
X107504952Y-36996714D01*
X107504952Y-37091952D02*
X107552571Y-37044333D01*
X107647809Y-36996714D01*
X107790666Y-36996714D01*
X107885904Y-37044333D01*
X107933523Y-37139571D01*
X107933523Y-37663380D01*
X107933523Y-37139571D02*
X107981142Y-37044333D01*
X108076380Y-36996714D01*
X108219238Y-36996714D01*
X108314476Y-37044333D01*
X108362095Y-37139571D01*
X108362095Y-37663380D01*
X109266857Y-37663380D02*
X109266857Y-37139571D01*
X109219238Y-37044333D01*
X109124000Y-36996714D01*
X108933523Y-36996714D01*
X108838285Y-37044333D01*
X109266857Y-37615761D02*
X109171619Y-37663380D01*
X108933523Y-37663380D01*
X108838285Y-37615761D01*
X108790666Y-37520523D01*
X108790666Y-37425285D01*
X108838285Y-37330047D01*
X108933523Y-37282428D01*
X109171619Y-37282428D01*
X109266857Y-37234809D01*
X109743047Y-37663380D02*
X109743047Y-36996714D01*
X109743047Y-36663380D02*
X109695428Y-36711000D01*
X109743047Y-36758619D01*
X109790666Y-36711000D01*
X109743047Y-36663380D01*
X109743047Y-36758619D01*
X110362095Y-37663380D02*
X110266857Y-37615761D01*
X110219238Y-37520523D01*
X110219238Y-36663380D01*
X110743047Y-37568142D02*
X110790666Y-37615761D01*
X110743047Y-37663380D01*
X110695428Y-37615761D01*
X110743047Y-37568142D01*
X110743047Y-37663380D01*
X111647809Y-37615761D02*
X111552571Y-37663380D01*
X111362095Y-37663380D01*
X111266857Y-37615761D01*
X111219238Y-37568142D01*
X111171619Y-37472904D01*
X111171619Y-37187190D01*
X111219238Y-37091952D01*
X111266857Y-37044333D01*
X111362095Y-36996714D01*
X111552571Y-36996714D01*
X111647809Y-37044333D01*
X112219238Y-37663380D02*
X112124000Y-37615761D01*
X112076380Y-37568142D01*
X112028761Y-37472904D01*
X112028761Y-37187190D01*
X112076380Y-37091952D01*
X112124000Y-37044333D01*
X112219238Y-36996714D01*
X112362095Y-36996714D01*
X112457333Y-37044333D01*
X112504952Y-37091952D01*
X112552571Y-37187190D01*
X112552571Y-37472904D01*
X112504952Y-37568142D01*
X112457333Y-37615761D01*
X112362095Y-37663380D01*
X112219238Y-37663380D01*
X112981142Y-37663380D02*
X112981142Y-36996714D01*
X112981142Y-37091952D02*
X113028761Y-37044333D01*
X113124000Y-36996714D01*
X113266857Y-36996714D01*
X113362095Y-37044333D01*
X113409714Y-37139571D01*
X113409714Y-37663380D01*
X113409714Y-37139571D02*
X113457333Y-37044333D01*
X113552571Y-36996714D01*
X113695428Y-36996714D01*
X113790666Y-37044333D01*
X113838285Y-37139571D01*
X113838285Y-37663380D01*
X82042095Y-57793000D02*
X81946857Y-57745380D01*
X81804000Y-57745380D01*
X81661142Y-57793000D01*
X81565904Y-57888238D01*
X81518285Y-57983476D01*
X81470666Y-58173952D01*
X81470666Y-58316809D01*
X81518285Y-58507285D01*
X81565904Y-58602523D01*
X81661142Y-58697761D01*
X81804000Y-58745380D01*
X81899238Y-58745380D01*
X82042095Y-58697761D01*
X82089714Y-58650142D01*
X82089714Y-58316809D01*
X81899238Y-58316809D01*
X82518285Y-58745380D02*
X82518285Y-57745380D01*
X83089714Y-58745380D01*
X83089714Y-57745380D01*
X83565904Y-58745380D02*
X83565904Y-57745380D01*
X83804000Y-57745380D01*
X83946857Y-57793000D01*
X84042095Y-57888238D01*
X84089714Y-57983476D01*
X84137333Y-58173952D01*
X84137333Y-58316809D01*
X84089714Y-58507285D01*
X84042095Y-58602523D01*
X83946857Y-58697761D01*
X83804000Y-58745380D01*
X83565904Y-58745380D01*
X80389504Y-67425866D02*
X80865695Y-67425866D01*
X80294266Y-67711580D02*
X80627600Y-66711580D01*
X80960933Y-67711580D01*
X81865695Y-67616342D02*
X81818076Y-67663961D01*
X81675219Y-67711580D01*
X81579980Y-67711580D01*
X81437123Y-67663961D01*
X81341885Y-67568723D01*
X81294266Y-67473485D01*
X81246647Y-67283009D01*
X81246647Y-67140152D01*
X81294266Y-66949676D01*
X81341885Y-66854438D01*
X81437123Y-66759200D01*
X81579980Y-66711580D01*
X81675219Y-66711580D01*
X81818076Y-66759200D01*
X81865695Y-66806819D01*
X80287904Y-49899866D02*
X80764095Y-49899866D01*
X80192666Y-50185580D02*
X80526000Y-49185580D01*
X80859333Y-50185580D01*
X81764095Y-50090342D02*
X81716476Y-50137961D01*
X81573619Y-50185580D01*
X81478380Y-50185580D01*
X81335523Y-50137961D01*
X81240285Y-50042723D01*
X81192666Y-49947485D01*
X81145047Y-49757009D01*
X81145047Y-49614152D01*
X81192666Y-49423676D01*
X81240285Y-49328438D01*
X81335523Y-49233200D01*
X81478380Y-49185580D01*
X81573619Y-49185580D01*
X81716476Y-49233200D01*
X81764095Y-49280819D01*
X146675695Y-67432228D02*
X147437600Y-67432228D01*
X148437600Y-67813180D02*
X147866171Y-67813180D01*
X148151885Y-67813180D02*
X148151885Y-66813180D01*
X148056647Y-66956038D01*
X147961409Y-67051276D01*
X147866171Y-67098895D01*
X149342361Y-66813180D02*
X148866171Y-66813180D01*
X148818552Y-67289371D01*
X148866171Y-67241752D01*
X148961409Y-67194133D01*
X149199504Y-67194133D01*
X149294742Y-67241752D01*
X149342361Y-67289371D01*
X149389980Y-67384609D01*
X149389980Y-67622704D01*
X149342361Y-67717942D01*
X149294742Y-67765561D01*
X149199504Y-67813180D01*
X148961409Y-67813180D01*
X148866171Y-67765561D01*
X148818552Y-67717942D01*
X149675695Y-66813180D02*
X150009028Y-67813180D01*
X150342361Y-66813180D01*
X147828095Y-57615200D02*
X147732857Y-57567580D01*
X147590000Y-57567580D01*
X147447142Y-57615200D01*
X147351904Y-57710438D01*
X147304285Y-57805676D01*
X147256666Y-57996152D01*
X147256666Y-58139009D01*
X147304285Y-58329485D01*
X147351904Y-58424723D01*
X147447142Y-58519961D01*
X147590000Y-58567580D01*
X147685238Y-58567580D01*
X147828095Y-58519961D01*
X147875714Y-58472342D01*
X147875714Y-58139009D01*
X147685238Y-58139009D01*
X148304285Y-58567580D02*
X148304285Y-57567580D01*
X148875714Y-58567580D01*
X148875714Y-57567580D01*
X149351904Y-58567580D02*
X149351904Y-57567580D01*
X149590000Y-57567580D01*
X149732857Y-57615200D01*
X149828095Y-57710438D01*
X149875714Y-57805676D01*
X149923333Y-57996152D01*
X149923333Y-58139009D01*
X149875714Y-58329485D01*
X149828095Y-58424723D01*
X149732857Y-58519961D01*
X149590000Y-58567580D01*
X149351904Y-58567580D01*
X146726495Y-49855428D02*
X147488400Y-49855428D01*
X147107447Y-50236380D02*
X147107447Y-49474476D01*
X148488400Y-50236380D02*
X147916971Y-50236380D01*
X148202685Y-50236380D02*
X148202685Y-49236380D01*
X148107447Y-49379238D01*
X148012209Y-49474476D01*
X147916971Y-49522095D01*
X149393161Y-49236380D02*
X148916971Y-49236380D01*
X148869352Y-49712571D01*
X148916971Y-49664952D01*
X149012209Y-49617333D01*
X149250304Y-49617333D01*
X149345542Y-49664952D01*
X149393161Y-49712571D01*
X149440780Y-49807809D01*
X149440780Y-50045904D01*
X149393161Y-50141142D01*
X149345542Y-50188761D01*
X149250304Y-50236380D01*
X149012209Y-50236380D01*
X148916971Y-50188761D01*
X148869352Y-50141142D01*
X149726495Y-49236380D02*
X150059828Y-50236380D01*
X150393161Y-49236380D01*
D11*
X134017600Y-67538000D02*
X142252600Y-67538000D01*
X142252600Y-67538000D02*
X142252600Y-63018000D01*
X142252600Y-63018000D02*
X134017600Y-63018000D01*
X141546200Y-45568200D02*
X133311200Y-45568200D01*
X133311200Y-45568200D02*
X133311200Y-50088200D01*
X133311200Y-50088200D02*
X141546200Y-50088200D01*
X120323000Y-79978000D02*
X120323000Y-78468000D01*
X124024000Y-79978000D02*
X124024000Y-78468000D01*
X127294000Y-78468000D02*
X117054000Y-78468000D01*
X117054000Y-79978000D02*
X117054000Y-75337000D01*
X127294000Y-79978000D02*
X127294000Y-75337000D01*
X127294000Y-75337000D02*
X117054000Y-75337000D01*
X127294000Y-79978000D02*
X117054000Y-79978000D01*
X124152000Y-38335200D02*
X124152000Y-39845200D01*
X120451000Y-38335200D02*
X120451000Y-39845200D01*
X117181000Y-39845200D02*
X127421000Y-39845200D01*
X127421000Y-38335200D02*
X127421000Y-42976200D01*
X117181000Y-38335200D02*
X117181000Y-42976200D01*
X117181000Y-42976200D02*
X127421000Y-42976200D01*
X117181000Y-38335200D02*
X127421000Y-38335200D01*
X95727600Y-54228000D02*
X95727600Y-50928000D01*
X95727600Y-50928000D02*
X88827600Y-50928000D01*
X95727600Y-54228000D02*
X88827600Y-54228000D01*
X95727600Y-50621200D02*
X95727600Y-47321200D01*
X95727600Y-47321200D02*
X88827600Y-47321200D01*
X95727600Y-50621200D02*
X88827600Y-50621200D01*
X86826000Y-61646800D02*
X86826000Y-64946800D01*
X86826000Y-64946800D02*
X93726000Y-64946800D01*
X86826000Y-61646800D02*
X93726000Y-61646800D01*
X86826000Y-65304400D02*
X86826000Y-68604400D01*
X86826000Y-68604400D02*
X93726000Y-68604400D01*
X86826000Y-65304400D02*
X93726000Y-65304400D01*
X133985400Y-71079500D02*
X136870400Y-71079500D01*
X136870400Y-71079500D02*
X136870400Y-69509500D01*
X136870400Y-69509500D02*
X133985400Y-69509500D01*
X136252100Y-50992900D02*
X133367100Y-50992900D01*
X133367100Y-50992900D02*
X133367100Y-52562900D01*
X133367100Y-52562900D02*
X136252100Y-52562900D01*
X128521600Y-65008000D02*
X128521600Y-62123000D01*
X128521600Y-62123000D02*
X126951600Y-62123000D01*
X126951600Y-62123000D02*
X126951600Y-65008000D01*
X127129400Y-45491800D02*
X127129400Y-48376800D01*
X127129400Y-48376800D02*
X128699400Y-48376800D01*
X128699400Y-48376800D02*
X128699400Y-45491800D01*
X91519552Y-56157800D02*
X90997048Y-56157800D01*
X91519552Y-54687800D02*
X90997048Y-54687800D01*
X91047848Y-45391400D02*
X91570352Y-45391400D01*
X91047848Y-46861400D02*
X91570352Y-46861400D01*
X91519552Y-61237800D02*
X90997048Y-61237800D01*
X91519552Y-59767800D02*
X90997048Y-59767800D01*
X90852448Y-69064200D02*
X91374952Y-69064200D01*
X90852448Y-70534200D02*
X91374952Y-70534200D01*
X129886600Y-70371900D02*
X131386600Y-70371900D01*
X129886600Y-70371900D02*
X128386600Y-70371900D01*
X129886600Y-66151900D02*
X131386600Y-66151900D01*
X129886600Y-66151900D02*
X127011600Y-66151900D01*
X126830000Y-33020000D02*
G75*
G03*
X126830000Y-33020000I-4120000J0D01*
G01*
X122710000Y-37100000D02*
X122710000Y-28940000D01*
X122670000Y-37100000D02*
X122670000Y-28940000D01*
X122630000Y-37100000D02*
X122630000Y-28940000D01*
X122590000Y-37099000D02*
X122590000Y-28941000D01*
X122550000Y-37097000D02*
X122550000Y-28943000D01*
X122510000Y-37096000D02*
X122510000Y-28944000D01*
X122470000Y-37094000D02*
X122470000Y-28946000D01*
X122430000Y-37091000D02*
X122430000Y-28949000D01*
X122390000Y-37088000D02*
X122390000Y-28952000D01*
X122350000Y-37085000D02*
X122350000Y-28955000D01*
X122310000Y-37081000D02*
X122310000Y-28959000D01*
X122270000Y-37077000D02*
X122270000Y-28963000D01*
X122230000Y-37072000D02*
X122230000Y-28968000D01*
X122190000Y-37068000D02*
X122190000Y-28972000D01*
X122150000Y-37062000D02*
X122150000Y-28978000D01*
X122110000Y-37057000D02*
X122110000Y-28983000D01*
X122070000Y-37050000D02*
X122070000Y-28990000D01*
X122030000Y-37044000D02*
X122030000Y-28996000D01*
X121989000Y-37037000D02*
X121989000Y-34060000D01*
X121989000Y-31980000D02*
X121989000Y-29003000D01*
X121949000Y-37030000D02*
X121949000Y-34060000D01*
X121949000Y-31980000D02*
X121949000Y-29010000D01*
X121909000Y-37022000D02*
X121909000Y-34060000D01*
X121909000Y-31980000D02*
X121909000Y-29018000D01*
X121869000Y-37014000D02*
X121869000Y-34060000D01*
X121869000Y-31980000D02*
X121869000Y-29026000D01*
X121829000Y-37005000D02*
X121829000Y-34060000D01*
X121829000Y-31980000D02*
X121829000Y-29035000D01*
X121789000Y-36996000D02*
X121789000Y-34060000D01*
X121789000Y-31980000D02*
X121789000Y-29044000D01*
X121749000Y-36987000D02*
X121749000Y-34060000D01*
X121749000Y-31980000D02*
X121749000Y-29053000D01*
X121709000Y-36977000D02*
X121709000Y-34060000D01*
X121709000Y-31980000D02*
X121709000Y-29063000D01*
X121669000Y-36967000D02*
X121669000Y-34060000D01*
X121669000Y-31980000D02*
X121669000Y-29073000D01*
X121629000Y-36956000D02*
X121629000Y-34060000D01*
X121629000Y-31980000D02*
X121629000Y-29084000D01*
X121589000Y-36945000D02*
X121589000Y-34060000D01*
X121589000Y-31980000D02*
X121589000Y-29095000D01*
X121549000Y-36934000D02*
X121549000Y-34060000D01*
X121549000Y-31980000D02*
X121549000Y-29106000D01*
X121509000Y-36922000D02*
X121509000Y-34060000D01*
X121509000Y-31980000D02*
X121509000Y-29118000D01*
X121469000Y-36909000D02*
X121469000Y-34060000D01*
X121469000Y-31980000D02*
X121469000Y-29131000D01*
X121429000Y-36897000D02*
X121429000Y-34060000D01*
X121429000Y-31980000D02*
X121429000Y-29143000D01*
X121389000Y-36883000D02*
X121389000Y-34060000D01*
X121389000Y-31980000D02*
X121389000Y-29157000D01*
X121349000Y-36870000D02*
X121349000Y-34060000D01*
X121349000Y-31980000D02*
X121349000Y-29170000D01*
X121309000Y-36855000D02*
X121309000Y-34060000D01*
X121309000Y-31980000D02*
X121309000Y-29185000D01*
X121269000Y-36841000D02*
X121269000Y-34060000D01*
X121269000Y-31980000D02*
X121269000Y-29199000D01*
X121229000Y-36825000D02*
X121229000Y-34060000D01*
X121229000Y-31980000D02*
X121229000Y-29215000D01*
X121189000Y-36810000D02*
X121189000Y-34060000D01*
X121189000Y-31980000D02*
X121189000Y-29230000D01*
X121149000Y-36794000D02*
X121149000Y-34060000D01*
X121149000Y-31980000D02*
X121149000Y-29246000D01*
X121109000Y-36777000D02*
X121109000Y-34060000D01*
X121109000Y-31980000D02*
X121109000Y-29263000D01*
X121069000Y-36760000D02*
X121069000Y-34060000D01*
X121069000Y-31980000D02*
X121069000Y-29280000D01*
X121029000Y-36742000D02*
X121029000Y-34060000D01*
X121029000Y-31980000D02*
X121029000Y-29298000D01*
X120989000Y-36724000D02*
X120989000Y-34060000D01*
X120989000Y-31980000D02*
X120989000Y-29316000D01*
X120949000Y-36706000D02*
X120949000Y-34060000D01*
X120949000Y-31980000D02*
X120949000Y-29334000D01*
X120909000Y-36686000D02*
X120909000Y-34060000D01*
X120909000Y-31980000D02*
X120909000Y-29354000D01*
X120869000Y-36667000D02*
X120869000Y-34060000D01*
X120869000Y-31980000D02*
X120869000Y-29373000D01*
X120829000Y-36647000D02*
X120829000Y-34060000D01*
X120829000Y-31980000D02*
X120829000Y-29393000D01*
X120789000Y-36626000D02*
X120789000Y-34060000D01*
X120789000Y-31980000D02*
X120789000Y-29414000D01*
X120749000Y-36604000D02*
X120749000Y-34060000D01*
X120749000Y-31980000D02*
X120749000Y-29436000D01*
X120709000Y-36582000D02*
X120709000Y-34060000D01*
X120709000Y-31980000D02*
X120709000Y-29458000D01*
X120669000Y-36560000D02*
X120669000Y-34060000D01*
X120669000Y-31980000D02*
X120669000Y-29480000D01*
X120629000Y-36537000D02*
X120629000Y-34060000D01*
X120629000Y-31980000D02*
X120629000Y-29503000D01*
X120589000Y-36513000D02*
X120589000Y-34060000D01*
X120589000Y-31980000D02*
X120589000Y-29527000D01*
X120549000Y-36489000D02*
X120549000Y-34060000D01*
X120549000Y-31980000D02*
X120549000Y-29551000D01*
X120509000Y-36464000D02*
X120509000Y-34060000D01*
X120509000Y-31980000D02*
X120509000Y-29576000D01*
X120469000Y-36438000D02*
X120469000Y-34060000D01*
X120469000Y-31980000D02*
X120469000Y-29602000D01*
X120429000Y-36412000D02*
X120429000Y-34060000D01*
X120429000Y-31980000D02*
X120429000Y-29628000D01*
X120389000Y-36385000D02*
X120389000Y-34060000D01*
X120389000Y-31980000D02*
X120389000Y-29655000D01*
X120349000Y-36358000D02*
X120349000Y-34060000D01*
X120349000Y-31980000D02*
X120349000Y-29682000D01*
X120309000Y-36329000D02*
X120309000Y-34060000D01*
X120309000Y-31980000D02*
X120309000Y-29711000D01*
X120269000Y-36300000D02*
X120269000Y-34060000D01*
X120269000Y-31980000D02*
X120269000Y-29740000D01*
X120229000Y-36270000D02*
X120229000Y-34060000D01*
X120229000Y-31980000D02*
X120229000Y-29770000D01*
X120189000Y-36240000D02*
X120189000Y-34060000D01*
X120189000Y-31980000D02*
X120189000Y-29800000D01*
X120149000Y-36209000D02*
X120149000Y-34060000D01*
X120149000Y-31980000D02*
X120149000Y-29831000D01*
X120109000Y-36176000D02*
X120109000Y-34060000D01*
X120109000Y-31980000D02*
X120109000Y-29864000D01*
X120069000Y-36144000D02*
X120069000Y-34060000D01*
X120069000Y-31980000D02*
X120069000Y-29896000D01*
X120029000Y-36110000D02*
X120029000Y-34060000D01*
X120029000Y-31980000D02*
X120029000Y-29930000D01*
X119989000Y-36075000D02*
X119989000Y-34060000D01*
X119989000Y-31980000D02*
X119989000Y-29965000D01*
X119949000Y-36039000D02*
X119949000Y-34060000D01*
X119949000Y-31980000D02*
X119949000Y-30001000D01*
X119909000Y-36003000D02*
X119909000Y-30037000D01*
X119869000Y-35965000D02*
X119869000Y-30075000D01*
X119829000Y-35927000D02*
X119829000Y-30113000D01*
X119789000Y-35887000D02*
X119789000Y-30153000D01*
X119749000Y-35846000D02*
X119749000Y-30194000D01*
X119709000Y-35804000D02*
X119709000Y-30236000D01*
X119669000Y-35761000D02*
X119669000Y-30279000D01*
X119629000Y-35717000D02*
X119629000Y-30323000D01*
X119589000Y-35671000D02*
X119589000Y-30369000D01*
X119549000Y-35624000D02*
X119549000Y-30416000D01*
X119509000Y-35576000D02*
X119509000Y-30464000D01*
X119469000Y-35525000D02*
X119469000Y-30515000D01*
X119429000Y-35474000D02*
X119429000Y-30566000D01*
X119389000Y-35420000D02*
X119389000Y-30620000D01*
X119349000Y-35365000D02*
X119349000Y-30675000D01*
X119309000Y-35307000D02*
X119309000Y-30733000D01*
X119269000Y-35248000D02*
X119269000Y-30792000D01*
X119229000Y-35186000D02*
X119229000Y-30854000D01*
X119189000Y-35122000D02*
X119189000Y-30918000D01*
X119149000Y-35054000D02*
X119149000Y-30986000D01*
X119109000Y-34984000D02*
X119109000Y-31056000D01*
X119069000Y-34910000D02*
X119069000Y-31130000D01*
X119029000Y-34833000D02*
X119029000Y-31207000D01*
X118989000Y-34751000D02*
X118989000Y-31289000D01*
X118949000Y-34665000D02*
X118949000Y-31375000D01*
X118909000Y-34572000D02*
X118909000Y-31468000D01*
X118869000Y-34473000D02*
X118869000Y-31567000D01*
X118829000Y-34366000D02*
X118829000Y-31674000D01*
X118789000Y-34249000D02*
X118789000Y-31791000D01*
X118749000Y-34118000D02*
X118749000Y-31922000D01*
X118709000Y-33968000D02*
X118709000Y-32072000D01*
X118669000Y-33788000D02*
X118669000Y-32252000D01*
X118629000Y-33553000D02*
X118629000Y-32487000D01*
X127119698Y-35335000D02*
X126319698Y-35335000D01*
X126719698Y-35735000D02*
X126719698Y-34935000D01*
X122884000Y-70613748D02*
X122884000Y-71136252D01*
X121464000Y-70613748D02*
X121464000Y-71136252D01*
X120407500Y-70613748D02*
X120407500Y-71136252D01*
X118987500Y-70613748D02*
X118987500Y-71136252D01*
X121591000Y-45195748D02*
X121591000Y-45718252D01*
X123011000Y-45195748D02*
X123011000Y-45718252D01*
X119051000Y-45195748D02*
X119051000Y-45718252D01*
X120471000Y-45195748D02*
X120471000Y-45718252D01*
X118003500Y-83629500D02*
G75*
G03*
X118003500Y-83629500I-4120000J0D01*
G01*
X113883500Y-79549500D02*
X113883500Y-87709500D01*
X113923500Y-79549500D02*
X113923500Y-87709500D01*
X113963500Y-79549500D02*
X113963500Y-87709500D01*
X114003500Y-79550500D02*
X114003500Y-87708500D01*
X114043500Y-79552500D02*
X114043500Y-87706500D01*
X114083500Y-79553500D02*
X114083500Y-87705500D01*
X114123500Y-79555500D02*
X114123500Y-87703500D01*
X114163500Y-79558500D02*
X114163500Y-87700500D01*
X114203500Y-79561500D02*
X114203500Y-87697500D01*
X114243500Y-79564500D02*
X114243500Y-87694500D01*
X114283500Y-79568500D02*
X114283500Y-87690500D01*
X114323500Y-79572500D02*
X114323500Y-87686500D01*
X114363500Y-79577500D02*
X114363500Y-87681500D01*
X114403500Y-79581500D02*
X114403500Y-87677500D01*
X114443500Y-79587500D02*
X114443500Y-87671500D01*
X114483500Y-79592500D02*
X114483500Y-87666500D01*
X114523500Y-79599500D02*
X114523500Y-87659500D01*
X114563500Y-79605500D02*
X114563500Y-87653500D01*
X114604500Y-79612500D02*
X114604500Y-82589500D01*
X114604500Y-84669500D02*
X114604500Y-87646500D01*
X114644500Y-79619500D02*
X114644500Y-82589500D01*
X114644500Y-84669500D02*
X114644500Y-87639500D01*
X114684500Y-79627500D02*
X114684500Y-82589500D01*
X114684500Y-84669500D02*
X114684500Y-87631500D01*
X114724500Y-79635500D02*
X114724500Y-82589500D01*
X114724500Y-84669500D02*
X114724500Y-87623500D01*
X114764500Y-79644500D02*
X114764500Y-82589500D01*
X114764500Y-84669500D02*
X114764500Y-87614500D01*
X114804500Y-79653500D02*
X114804500Y-82589500D01*
X114804500Y-84669500D02*
X114804500Y-87605500D01*
X114844500Y-79662500D02*
X114844500Y-82589500D01*
X114844500Y-84669500D02*
X114844500Y-87596500D01*
X114884500Y-79672500D02*
X114884500Y-82589500D01*
X114884500Y-84669500D02*
X114884500Y-87586500D01*
X114924500Y-79682500D02*
X114924500Y-82589500D01*
X114924500Y-84669500D02*
X114924500Y-87576500D01*
X114964500Y-79693500D02*
X114964500Y-82589500D01*
X114964500Y-84669500D02*
X114964500Y-87565500D01*
X115004500Y-79704500D02*
X115004500Y-82589500D01*
X115004500Y-84669500D02*
X115004500Y-87554500D01*
X115044500Y-79715500D02*
X115044500Y-82589500D01*
X115044500Y-84669500D02*
X115044500Y-87543500D01*
X115084500Y-79727500D02*
X115084500Y-82589500D01*
X115084500Y-84669500D02*
X115084500Y-87531500D01*
X115124500Y-79740500D02*
X115124500Y-82589500D01*
X115124500Y-84669500D02*
X115124500Y-87518500D01*
X115164500Y-79752500D02*
X115164500Y-82589500D01*
X115164500Y-84669500D02*
X115164500Y-87506500D01*
X115204500Y-79766500D02*
X115204500Y-82589500D01*
X115204500Y-84669500D02*
X115204500Y-87492500D01*
X115244500Y-79779500D02*
X115244500Y-82589500D01*
X115244500Y-84669500D02*
X115244500Y-87479500D01*
X115284500Y-79794500D02*
X115284500Y-82589500D01*
X115284500Y-84669500D02*
X115284500Y-87464500D01*
X115324500Y-79808500D02*
X115324500Y-82589500D01*
X115324500Y-84669500D02*
X115324500Y-87450500D01*
X115364500Y-79824500D02*
X115364500Y-82589500D01*
X115364500Y-84669500D02*
X115364500Y-87434500D01*
X115404500Y-79839500D02*
X115404500Y-82589500D01*
X115404500Y-84669500D02*
X115404500Y-87419500D01*
X115444500Y-79855500D02*
X115444500Y-82589500D01*
X115444500Y-84669500D02*
X115444500Y-87403500D01*
X115484500Y-79872500D02*
X115484500Y-82589500D01*
X115484500Y-84669500D02*
X115484500Y-87386500D01*
X115524500Y-79889500D02*
X115524500Y-82589500D01*
X115524500Y-84669500D02*
X115524500Y-87369500D01*
X115564500Y-79907500D02*
X115564500Y-82589500D01*
X115564500Y-84669500D02*
X115564500Y-87351500D01*
X115604500Y-79925500D02*
X115604500Y-82589500D01*
X115604500Y-84669500D02*
X115604500Y-87333500D01*
X115644500Y-79943500D02*
X115644500Y-82589500D01*
X115644500Y-84669500D02*
X115644500Y-87315500D01*
X115684500Y-79963500D02*
X115684500Y-82589500D01*
X115684500Y-84669500D02*
X115684500Y-87295500D01*
X115724500Y-79982500D02*
X115724500Y-82589500D01*
X115724500Y-84669500D02*
X115724500Y-87276500D01*
X115764500Y-80002500D02*
X115764500Y-82589500D01*
X115764500Y-84669500D02*
X115764500Y-87256500D01*
X115804500Y-80023500D02*
X115804500Y-82589500D01*
X115804500Y-84669500D02*
X115804500Y-87235500D01*
X115844500Y-80045500D02*
X115844500Y-82589500D01*
X115844500Y-84669500D02*
X115844500Y-87213500D01*
X115884500Y-80067500D02*
X115884500Y-82589500D01*
X115884500Y-84669500D02*
X115884500Y-87191500D01*
X115924500Y-80089500D02*
X115924500Y-82589500D01*
X115924500Y-84669500D02*
X115924500Y-87169500D01*
X115964500Y-80112500D02*
X115964500Y-82589500D01*
X115964500Y-84669500D02*
X115964500Y-87146500D01*
X116004500Y-80136500D02*
X116004500Y-82589500D01*
X116004500Y-84669500D02*
X116004500Y-87122500D01*
X116044500Y-80160500D02*
X116044500Y-82589500D01*
X116044500Y-84669500D02*
X116044500Y-87098500D01*
X116084500Y-80185500D02*
X116084500Y-82589500D01*
X116084500Y-84669500D02*
X116084500Y-87073500D01*
X116124500Y-80211500D02*
X116124500Y-82589500D01*
X116124500Y-84669500D02*
X116124500Y-87047500D01*
X116164500Y-80237500D02*
X116164500Y-82589500D01*
X116164500Y-84669500D02*
X116164500Y-87021500D01*
X116204500Y-80264500D02*
X116204500Y-82589500D01*
X116204500Y-84669500D02*
X116204500Y-86994500D01*
X116244500Y-80291500D02*
X116244500Y-82589500D01*
X116244500Y-84669500D02*
X116244500Y-86967500D01*
X116284500Y-80320500D02*
X116284500Y-82589500D01*
X116284500Y-84669500D02*
X116284500Y-86938500D01*
X116324500Y-80349500D02*
X116324500Y-82589500D01*
X116324500Y-84669500D02*
X116324500Y-86909500D01*
X116364500Y-80379500D02*
X116364500Y-82589500D01*
X116364500Y-84669500D02*
X116364500Y-86879500D01*
X116404500Y-80409500D02*
X116404500Y-82589500D01*
X116404500Y-84669500D02*
X116404500Y-86849500D01*
X116444500Y-80440500D02*
X116444500Y-82589500D01*
X116444500Y-84669500D02*
X116444500Y-86818500D01*
X116484500Y-80473500D02*
X116484500Y-82589500D01*
X116484500Y-84669500D02*
X116484500Y-86785500D01*
X116524500Y-80505500D02*
X116524500Y-82589500D01*
X116524500Y-84669500D02*
X116524500Y-86753500D01*
X116564500Y-80539500D02*
X116564500Y-82589500D01*
X116564500Y-84669500D02*
X116564500Y-86719500D01*
X116604500Y-80574500D02*
X116604500Y-82589500D01*
X116604500Y-84669500D02*
X116604500Y-86684500D01*
X116644500Y-80610500D02*
X116644500Y-82589500D01*
X116644500Y-84669500D02*
X116644500Y-86648500D01*
X116684500Y-80646500D02*
X116684500Y-86612500D01*
X116724500Y-80684500D02*
X116724500Y-86574500D01*
X116764500Y-80722500D02*
X116764500Y-86536500D01*
X116804500Y-80762500D02*
X116804500Y-86496500D01*
X116844500Y-80803500D02*
X116844500Y-86455500D01*
X116884500Y-80845500D02*
X116884500Y-86413500D01*
X116924500Y-80888500D02*
X116924500Y-86370500D01*
X116964500Y-80932500D02*
X116964500Y-86326500D01*
X117004500Y-80978500D02*
X117004500Y-86280500D01*
X117044500Y-81025500D02*
X117044500Y-86233500D01*
X117084500Y-81073500D02*
X117084500Y-86185500D01*
X117124500Y-81124500D02*
X117124500Y-86134500D01*
X117164500Y-81175500D02*
X117164500Y-86083500D01*
X117204500Y-81229500D02*
X117204500Y-86029500D01*
X117244500Y-81284500D02*
X117244500Y-85974500D01*
X117284500Y-81342500D02*
X117284500Y-85916500D01*
X117324500Y-81401500D02*
X117324500Y-85857500D01*
X117364500Y-81463500D02*
X117364500Y-85795500D01*
X117404500Y-81527500D02*
X117404500Y-85731500D01*
X117444500Y-81595500D02*
X117444500Y-85663500D01*
X117484500Y-81665500D02*
X117484500Y-85593500D01*
X117524500Y-81739500D02*
X117524500Y-85519500D01*
X117564500Y-81816500D02*
X117564500Y-85442500D01*
X117604500Y-81898500D02*
X117604500Y-85360500D01*
X117644500Y-81984500D02*
X117644500Y-85274500D01*
X117684500Y-82077500D02*
X117684500Y-85181500D01*
X117724500Y-82176500D02*
X117724500Y-85082500D01*
X117764500Y-82283500D02*
X117764500Y-84975500D01*
X117804500Y-82400500D02*
X117804500Y-84858500D01*
X117844500Y-82531500D02*
X117844500Y-84727500D01*
X117884500Y-82681500D02*
X117884500Y-84577500D01*
X117924500Y-82861500D02*
X117924500Y-84397500D01*
X117964500Y-83096500D02*
X117964500Y-84162500D01*
X109473802Y-81314500D02*
X110273802Y-81314500D01*
X109873802Y-80914500D02*
X109873802Y-81714500D01*
X113403000Y-68901000D02*
G75*
G03*
X113403000Y-68901000I-8120000J0D01*
G01*
X97202000Y-68901000D02*
X113364000Y-68901000D01*
X97203000Y-68861000D02*
X113363000Y-68861000D01*
X97203000Y-68821000D02*
X113363000Y-68821000D01*
X97203000Y-68781000D02*
X113363000Y-68781000D01*
X97204000Y-68741000D02*
X113362000Y-68741000D01*
X97205000Y-68701000D02*
X113361000Y-68701000D01*
X97206000Y-68661000D02*
X113360000Y-68661000D01*
X97207000Y-68621000D02*
X113359000Y-68621000D01*
X97209000Y-68581000D02*
X113357000Y-68581000D01*
X97210000Y-68541000D02*
X113356000Y-68541000D01*
X97212000Y-68501000D02*
X113354000Y-68501000D01*
X97214000Y-68461000D02*
X113352000Y-68461000D01*
X97217000Y-68421000D02*
X113349000Y-68421000D01*
X97219000Y-68381000D02*
X113347000Y-68381000D01*
X97222000Y-68341000D02*
X113344000Y-68341000D01*
X97225000Y-68301000D02*
X113341000Y-68301000D01*
X97228000Y-68261000D02*
X113338000Y-68261000D01*
X97231000Y-68221000D02*
X113335000Y-68221000D01*
X97234000Y-68180000D02*
X113332000Y-68180000D01*
X97238000Y-68140000D02*
X113328000Y-68140000D01*
X97242000Y-68100000D02*
X113324000Y-68100000D01*
X97246000Y-68060000D02*
X113320000Y-68060000D01*
X97250000Y-68020000D02*
X113316000Y-68020000D01*
X97255000Y-67980000D02*
X113311000Y-67980000D01*
X97259000Y-67940000D02*
X113307000Y-67940000D01*
X97264000Y-67900000D02*
X113302000Y-67900000D01*
X97269000Y-67860000D02*
X113297000Y-67860000D01*
X97275000Y-67820000D02*
X113291000Y-67820000D01*
X97280000Y-67780000D02*
X113286000Y-67780000D01*
X97286000Y-67740000D02*
X113280000Y-67740000D01*
X97292000Y-67700000D02*
X113274000Y-67700000D01*
X97298000Y-67660000D02*
X113268000Y-67660000D01*
X97304000Y-67620000D02*
X113262000Y-67620000D01*
X97311000Y-67580000D02*
X113255000Y-67580000D01*
X97317000Y-67540000D02*
X113249000Y-67540000D01*
X97324000Y-67500000D02*
X113242000Y-67500000D01*
X97331000Y-67460000D02*
X113235000Y-67460000D01*
X97339000Y-67420000D02*
X113227000Y-67420000D01*
X97346000Y-67380000D02*
X113220000Y-67380000D01*
X97354000Y-67340000D02*
X113212000Y-67340000D01*
X97362000Y-67300000D02*
X113204000Y-67300000D01*
X97370000Y-67260000D02*
X113196000Y-67260000D01*
X97378000Y-67220000D02*
X113188000Y-67220000D01*
X97387000Y-67180000D02*
X113179000Y-67180000D01*
X97396000Y-67140000D02*
X113170000Y-67140000D01*
X97405000Y-67100000D02*
X113161000Y-67100000D01*
X97414000Y-67060000D02*
X113152000Y-67060000D01*
X97423000Y-67020000D02*
X113143000Y-67020000D01*
X97433000Y-66980000D02*
X113133000Y-66980000D01*
X97443000Y-66940000D02*
X113123000Y-66940000D01*
X97453000Y-66900000D02*
X113113000Y-66900000D01*
X97463000Y-66860000D02*
X113103000Y-66860000D01*
X97473000Y-66820000D02*
X113093000Y-66820000D01*
X97484000Y-66780000D02*
X113082000Y-66780000D01*
X97495000Y-66740000D02*
X113071000Y-66740000D01*
X97506000Y-66700000D02*
X113060000Y-66700000D01*
X97518000Y-66660000D02*
X113048000Y-66660000D01*
X97529000Y-66620000D02*
X113037000Y-66620000D01*
X97541000Y-66580000D02*
X103843000Y-66580000D01*
X106723000Y-66580000D02*
X113025000Y-66580000D01*
X97553000Y-66540000D02*
X103843000Y-66540000D01*
X106723000Y-66540000D02*
X113013000Y-66540000D01*
X97565000Y-66500000D02*
X103843000Y-66500000D01*
X106723000Y-66500000D02*
X113001000Y-66500000D01*
X97578000Y-66460000D02*
X103843000Y-66460000D01*
X106723000Y-66460000D02*
X112988000Y-66460000D01*
X97590000Y-66420000D02*
X103843000Y-66420000D01*
X106723000Y-66420000D02*
X112976000Y-66420000D01*
X97603000Y-66380000D02*
X103843000Y-66380000D01*
X106723000Y-66380000D02*
X112963000Y-66380000D01*
X97617000Y-66340000D02*
X103843000Y-66340000D01*
X106723000Y-66340000D02*
X112949000Y-66340000D01*
X97630000Y-66300000D02*
X103843000Y-66300000D01*
X106723000Y-66300000D02*
X112936000Y-66300000D01*
X97644000Y-66260000D02*
X103843000Y-66260000D01*
X106723000Y-66260000D02*
X112922000Y-66260000D01*
X97658000Y-66220000D02*
X103843000Y-66220000D01*
X106723000Y-66220000D02*
X112908000Y-66220000D01*
X97672000Y-66180000D02*
X103843000Y-66180000D01*
X106723000Y-66180000D02*
X112894000Y-66180000D01*
X97686000Y-66140000D02*
X103843000Y-66140000D01*
X106723000Y-66140000D02*
X112880000Y-66140000D01*
X97701000Y-66100000D02*
X103843000Y-66100000D01*
X106723000Y-66100000D02*
X112865000Y-66100000D01*
X97715000Y-66060000D02*
X103843000Y-66060000D01*
X106723000Y-66060000D02*
X112851000Y-66060000D01*
X97730000Y-66020000D02*
X103843000Y-66020000D01*
X106723000Y-66020000D02*
X112836000Y-66020000D01*
X97746000Y-65980000D02*
X103843000Y-65980000D01*
X106723000Y-65980000D02*
X112820000Y-65980000D01*
X97761000Y-65940000D02*
X103843000Y-65940000D01*
X106723000Y-65940000D02*
X112805000Y-65940000D01*
X97777000Y-65900000D02*
X103843000Y-65900000D01*
X106723000Y-65900000D02*
X112789000Y-65900000D01*
X97793000Y-65860000D02*
X103843000Y-65860000D01*
X106723000Y-65860000D02*
X112773000Y-65860000D01*
X97809000Y-65820000D02*
X103843000Y-65820000D01*
X106723000Y-65820000D02*
X112757000Y-65820000D01*
X97826000Y-65780000D02*
X103843000Y-65780000D01*
X106723000Y-65780000D02*
X112740000Y-65780000D01*
X97843000Y-65740000D02*
X103843000Y-65740000D01*
X106723000Y-65740000D02*
X112723000Y-65740000D01*
X97860000Y-65700000D02*
X103843000Y-65700000D01*
X106723000Y-65700000D02*
X112706000Y-65700000D01*
X97877000Y-65660000D02*
X103843000Y-65660000D01*
X106723000Y-65660000D02*
X112689000Y-65660000D01*
X97894000Y-65620000D02*
X103843000Y-65620000D01*
X106723000Y-65620000D02*
X112672000Y-65620000D01*
X97912000Y-65580000D02*
X103843000Y-65580000D01*
X106723000Y-65580000D02*
X112654000Y-65580000D01*
X97930000Y-65540000D02*
X103843000Y-65540000D01*
X106723000Y-65540000D02*
X112636000Y-65540000D01*
X97949000Y-65500000D02*
X103843000Y-65500000D01*
X106723000Y-65500000D02*
X112617000Y-65500000D01*
X97967000Y-65460000D02*
X103843000Y-65460000D01*
X106723000Y-65460000D02*
X112599000Y-65460000D01*
X97986000Y-65420000D02*
X103843000Y-65420000D01*
X106723000Y-65420000D02*
X112580000Y-65420000D01*
X98005000Y-65380000D02*
X103843000Y-65380000D01*
X106723000Y-65380000D02*
X112561000Y-65380000D01*
X98025000Y-65340000D02*
X103843000Y-65340000D01*
X106723000Y-65340000D02*
X112541000Y-65340000D01*
X98044000Y-65300000D02*
X103843000Y-65300000D01*
X106723000Y-65300000D02*
X112522000Y-65300000D01*
X98064000Y-65260000D02*
X103843000Y-65260000D01*
X106723000Y-65260000D02*
X112502000Y-65260000D01*
X98084000Y-65220000D02*
X103843000Y-65220000D01*
X106723000Y-65220000D02*
X112482000Y-65220000D01*
X98105000Y-65180000D02*
X103843000Y-65180000D01*
X106723000Y-65180000D02*
X112461000Y-65180000D01*
X98126000Y-65140000D02*
X103843000Y-65140000D01*
X106723000Y-65140000D02*
X112440000Y-65140000D01*
X98147000Y-65100000D02*
X103843000Y-65100000D01*
X106723000Y-65100000D02*
X112419000Y-65100000D01*
X98168000Y-65060000D02*
X103843000Y-65060000D01*
X106723000Y-65060000D02*
X112398000Y-65060000D01*
X98189000Y-65020000D02*
X103843000Y-65020000D01*
X106723000Y-65020000D02*
X112377000Y-65020000D01*
X98211000Y-64980000D02*
X103843000Y-64980000D01*
X106723000Y-64980000D02*
X112355000Y-64980000D01*
X98234000Y-64940000D02*
X103843000Y-64940000D01*
X106723000Y-64940000D02*
X112332000Y-64940000D01*
X98256000Y-64900000D02*
X103843000Y-64900000D01*
X106723000Y-64900000D02*
X112310000Y-64900000D01*
X98279000Y-64860000D02*
X103843000Y-64860000D01*
X106723000Y-64860000D02*
X112287000Y-64860000D01*
X98302000Y-64820000D02*
X103843000Y-64820000D01*
X106723000Y-64820000D02*
X112264000Y-64820000D01*
X98325000Y-64780000D02*
X103843000Y-64780000D01*
X106723000Y-64780000D02*
X112241000Y-64780000D01*
X98349000Y-64740000D02*
X103843000Y-64740000D01*
X106723000Y-64740000D02*
X112217000Y-64740000D01*
X98373000Y-64700000D02*
X103843000Y-64700000D01*
X106723000Y-64700000D02*
X112193000Y-64700000D01*
X98397000Y-64660000D02*
X103843000Y-64660000D01*
X106723000Y-64660000D02*
X112169000Y-64660000D01*
X98422000Y-64620000D02*
X103843000Y-64620000D01*
X106723000Y-64620000D02*
X112144000Y-64620000D01*
X98447000Y-64580000D02*
X103843000Y-64580000D01*
X106723000Y-64580000D02*
X112119000Y-64580000D01*
X98472000Y-64540000D02*
X103843000Y-64540000D01*
X106723000Y-64540000D02*
X112094000Y-64540000D01*
X98498000Y-64500000D02*
X103843000Y-64500000D01*
X106723000Y-64500000D02*
X112068000Y-64500000D01*
X98524000Y-64460000D02*
X103843000Y-64460000D01*
X106723000Y-64460000D02*
X112042000Y-64460000D01*
X98550000Y-64420000D02*
X103843000Y-64420000D01*
X106723000Y-64420000D02*
X112016000Y-64420000D01*
X98577000Y-64380000D02*
X103843000Y-64380000D01*
X106723000Y-64380000D02*
X111989000Y-64380000D01*
X98604000Y-64340000D02*
X103843000Y-64340000D01*
X106723000Y-64340000D02*
X111962000Y-64340000D01*
X98631000Y-64300000D02*
X103843000Y-64300000D01*
X106723000Y-64300000D02*
X111935000Y-64300000D01*
X98659000Y-64260000D02*
X103843000Y-64260000D01*
X106723000Y-64260000D02*
X111907000Y-64260000D01*
X98687000Y-64220000D02*
X103843000Y-64220000D01*
X106723000Y-64220000D02*
X111879000Y-64220000D01*
X98715000Y-64180000D02*
X103843000Y-64180000D01*
X106723000Y-64180000D02*
X111851000Y-64180000D01*
X98744000Y-64140000D02*
X103843000Y-64140000D01*
X106723000Y-64140000D02*
X111822000Y-64140000D01*
X98773000Y-64100000D02*
X103843000Y-64100000D01*
X106723000Y-64100000D02*
X111793000Y-64100000D01*
X98803000Y-64060000D02*
X103843000Y-64060000D01*
X106723000Y-64060000D02*
X111763000Y-64060000D01*
X98833000Y-64020000D02*
X103843000Y-64020000D01*
X106723000Y-64020000D02*
X111733000Y-64020000D01*
X98863000Y-63980000D02*
X103843000Y-63980000D01*
X106723000Y-63980000D02*
X111703000Y-63980000D01*
X98893000Y-63940000D02*
X103843000Y-63940000D01*
X106723000Y-63940000D02*
X111673000Y-63940000D01*
X98925000Y-63900000D02*
X103843000Y-63900000D01*
X106723000Y-63900000D02*
X111641000Y-63900000D01*
X98956000Y-63860000D02*
X103843000Y-63860000D01*
X106723000Y-63860000D02*
X111610000Y-63860000D01*
X98988000Y-63820000D02*
X103843000Y-63820000D01*
X106723000Y-63820000D02*
X111578000Y-63820000D01*
X99020000Y-63780000D02*
X103843000Y-63780000D01*
X106723000Y-63780000D02*
X111546000Y-63780000D01*
X99053000Y-63740000D02*
X103843000Y-63740000D01*
X106723000Y-63740000D02*
X111513000Y-63740000D01*
X99086000Y-63700000D02*
X111480000Y-63700000D01*
X99120000Y-63660000D02*
X111446000Y-63660000D01*
X99154000Y-63620000D02*
X111412000Y-63620000D01*
X99188000Y-63580000D02*
X111378000Y-63580000D01*
X99223000Y-63540000D02*
X111343000Y-63540000D01*
X99258000Y-63500000D02*
X111308000Y-63500000D01*
X99294000Y-63460000D02*
X111272000Y-63460000D01*
X99331000Y-63420000D02*
X111235000Y-63420000D01*
X99367000Y-63380000D02*
X111199000Y-63380000D01*
X99405000Y-63340000D02*
X111161000Y-63340000D01*
X99443000Y-63300000D02*
X111123000Y-63300000D01*
X99481000Y-63260000D02*
X111085000Y-63260000D01*
X99520000Y-63220000D02*
X111046000Y-63220000D01*
X99559000Y-63180000D02*
X111007000Y-63180000D01*
X99599000Y-63140000D02*
X110967000Y-63140000D01*
X99640000Y-63100000D02*
X110926000Y-63100000D01*
X99681000Y-63060000D02*
X110885000Y-63060000D01*
X99723000Y-63020000D02*
X110843000Y-63020000D01*
X99765000Y-62980000D02*
X110801000Y-62980000D01*
X99808000Y-62940000D02*
X110758000Y-62940000D01*
X99851000Y-62900000D02*
X110715000Y-62900000D01*
X99895000Y-62860000D02*
X110671000Y-62860000D01*
X99940000Y-62820000D02*
X110626000Y-62820000D01*
X99986000Y-62780000D02*
X110580000Y-62780000D01*
X100032000Y-62740000D02*
X110534000Y-62740000D01*
X100079000Y-62700000D02*
X110487000Y-62700000D01*
X100127000Y-62660000D02*
X110439000Y-62660000D01*
X100175000Y-62620000D02*
X110391000Y-62620000D01*
X100224000Y-62580000D02*
X110342000Y-62580000D01*
X100274000Y-62540000D02*
X110292000Y-62540000D01*
X100325000Y-62500000D02*
X110241000Y-62500000D01*
X100377000Y-62460000D02*
X110189000Y-62460000D01*
X100429000Y-62420000D02*
X110137000Y-62420000D01*
X100483000Y-62380000D02*
X110083000Y-62380000D01*
X100537000Y-62340000D02*
X110029000Y-62340000D01*
X100592000Y-62300000D02*
X109974000Y-62300000D01*
X100649000Y-62260000D02*
X109917000Y-62260000D01*
X100706000Y-62220000D02*
X109860000Y-62220000D01*
X100764000Y-62180000D02*
X109802000Y-62180000D01*
X100824000Y-62140000D02*
X109742000Y-62140000D01*
X100885000Y-62100000D02*
X109681000Y-62100000D01*
X100947000Y-62060000D02*
X109619000Y-62060000D01*
X101010000Y-62020000D02*
X109556000Y-62020000D01*
X101074000Y-61980000D02*
X109492000Y-61980000D01*
X101140000Y-61940000D02*
X109426000Y-61940000D01*
X101207000Y-61900000D02*
X109359000Y-61900000D01*
X101276000Y-61860000D02*
X109290000Y-61860000D01*
X101347000Y-61820000D02*
X109219000Y-61820000D01*
X101419000Y-61780000D02*
X109147000Y-61780000D01*
X101493000Y-61740000D02*
X109073000Y-61740000D01*
X101568000Y-61700000D02*
X108998000Y-61700000D01*
X101646000Y-61660000D02*
X108920000Y-61660000D01*
X101726000Y-61620000D02*
X108840000Y-61620000D01*
X101808000Y-61580000D02*
X108758000Y-61580000D01*
X101893000Y-61540000D02*
X108673000Y-61540000D01*
X101980000Y-61500000D02*
X108586000Y-61500000D01*
X102070000Y-61460000D02*
X108496000Y-61460000D01*
X102163000Y-61420000D02*
X108403000Y-61420000D01*
X102259000Y-61380000D02*
X108307000Y-61380000D01*
X102359000Y-61340000D02*
X108207000Y-61340000D01*
X102463000Y-61300000D02*
X108103000Y-61300000D01*
X102572000Y-61260000D02*
X107994000Y-61260000D01*
X102686000Y-61220000D02*
X107880000Y-61220000D01*
X102805000Y-61180000D02*
X107761000Y-61180000D01*
X102932000Y-61140000D02*
X107634000Y-61140000D01*
X103065000Y-61100000D02*
X107501000Y-61100000D01*
X103209000Y-61060000D02*
X107357000Y-61060000D01*
X103363000Y-61020000D02*
X107203000Y-61020000D01*
X103531000Y-60980000D02*
X107035000Y-60980000D01*
X103719000Y-60940000D02*
X106847000Y-60940000D01*
X103932000Y-60900000D02*
X106634000Y-60900000D01*
X104185000Y-60860000D02*
X106381000Y-60860000D01*
X104518000Y-60820000D02*
X106048000Y-60820000D01*
X100728000Y-77590491D02*
X100728000Y-75990491D01*
X99928000Y-76790491D02*
X101528000Y-76790491D01*
X113403000Y-47050000D02*
G75*
G03*
X113403000Y-47050000I-8120000J0D01*
G01*
X97202000Y-47050000D02*
X113364000Y-47050000D01*
X97203000Y-47010000D02*
X113363000Y-47010000D01*
X97203000Y-46970000D02*
X113363000Y-46970000D01*
X97203000Y-46930000D02*
X113363000Y-46930000D01*
X97204000Y-46890000D02*
X113362000Y-46890000D01*
X97205000Y-46850000D02*
X113361000Y-46850000D01*
X97206000Y-46810000D02*
X113360000Y-46810000D01*
X97207000Y-46770000D02*
X113359000Y-46770000D01*
X97209000Y-46730000D02*
X113357000Y-46730000D01*
X97210000Y-46690000D02*
X113356000Y-46690000D01*
X97212000Y-46650000D02*
X113354000Y-46650000D01*
X97214000Y-46610000D02*
X113352000Y-46610000D01*
X97217000Y-46570000D02*
X113349000Y-46570000D01*
X97219000Y-46530000D02*
X113347000Y-46530000D01*
X97222000Y-46490000D02*
X113344000Y-46490000D01*
X97225000Y-46450000D02*
X113341000Y-46450000D01*
X97228000Y-46410000D02*
X113338000Y-46410000D01*
X97231000Y-46370000D02*
X113335000Y-46370000D01*
X97234000Y-46329000D02*
X113332000Y-46329000D01*
X97238000Y-46289000D02*
X113328000Y-46289000D01*
X97242000Y-46249000D02*
X113324000Y-46249000D01*
X97246000Y-46209000D02*
X113320000Y-46209000D01*
X97250000Y-46169000D02*
X113316000Y-46169000D01*
X97255000Y-46129000D02*
X113311000Y-46129000D01*
X97259000Y-46089000D02*
X113307000Y-46089000D01*
X97264000Y-46049000D02*
X113302000Y-46049000D01*
X97269000Y-46009000D02*
X113297000Y-46009000D01*
X97275000Y-45969000D02*
X113291000Y-45969000D01*
X97280000Y-45929000D02*
X113286000Y-45929000D01*
X97286000Y-45889000D02*
X113280000Y-45889000D01*
X97292000Y-45849000D02*
X113274000Y-45849000D01*
X97298000Y-45809000D02*
X113268000Y-45809000D01*
X97304000Y-45769000D02*
X113262000Y-45769000D01*
X97311000Y-45729000D02*
X113255000Y-45729000D01*
X97317000Y-45689000D02*
X113249000Y-45689000D01*
X97324000Y-45649000D02*
X113242000Y-45649000D01*
X97331000Y-45609000D02*
X113235000Y-45609000D01*
X97339000Y-45569000D02*
X113227000Y-45569000D01*
X97346000Y-45529000D02*
X113220000Y-45529000D01*
X97354000Y-45489000D02*
X113212000Y-45489000D01*
X97362000Y-45449000D02*
X113204000Y-45449000D01*
X97370000Y-45409000D02*
X113196000Y-45409000D01*
X97378000Y-45369000D02*
X113188000Y-45369000D01*
X97387000Y-45329000D02*
X113179000Y-45329000D01*
X97396000Y-45289000D02*
X113170000Y-45289000D01*
X97405000Y-45249000D02*
X113161000Y-45249000D01*
X97414000Y-45209000D02*
X113152000Y-45209000D01*
X97423000Y-45169000D02*
X113143000Y-45169000D01*
X97433000Y-45129000D02*
X113133000Y-45129000D01*
X97443000Y-45089000D02*
X113123000Y-45089000D01*
X97453000Y-45049000D02*
X113113000Y-45049000D01*
X97463000Y-45009000D02*
X113103000Y-45009000D01*
X97473000Y-44969000D02*
X113093000Y-44969000D01*
X97484000Y-44929000D02*
X113082000Y-44929000D01*
X97495000Y-44889000D02*
X113071000Y-44889000D01*
X97506000Y-44849000D02*
X113060000Y-44849000D01*
X97518000Y-44809000D02*
X113048000Y-44809000D01*
X97529000Y-44769000D02*
X113037000Y-44769000D01*
X97541000Y-44729000D02*
X103843000Y-44729000D01*
X106723000Y-44729000D02*
X113025000Y-44729000D01*
X97553000Y-44689000D02*
X103843000Y-44689000D01*
X106723000Y-44689000D02*
X113013000Y-44689000D01*
X97565000Y-44649000D02*
X103843000Y-44649000D01*
X106723000Y-44649000D02*
X113001000Y-44649000D01*
X97578000Y-44609000D02*
X103843000Y-44609000D01*
X106723000Y-44609000D02*
X112988000Y-44609000D01*
X97590000Y-44569000D02*
X103843000Y-44569000D01*
X106723000Y-44569000D02*
X112976000Y-44569000D01*
X97603000Y-44529000D02*
X103843000Y-44529000D01*
X106723000Y-44529000D02*
X112963000Y-44529000D01*
X97617000Y-44489000D02*
X103843000Y-44489000D01*
X106723000Y-44489000D02*
X112949000Y-44489000D01*
X97630000Y-44449000D02*
X103843000Y-44449000D01*
X106723000Y-44449000D02*
X112936000Y-44449000D01*
X97644000Y-44409000D02*
X103843000Y-44409000D01*
X106723000Y-44409000D02*
X112922000Y-44409000D01*
X97658000Y-44369000D02*
X103843000Y-44369000D01*
X106723000Y-44369000D02*
X112908000Y-44369000D01*
X97672000Y-44329000D02*
X103843000Y-44329000D01*
X106723000Y-44329000D02*
X112894000Y-44329000D01*
X97686000Y-44289000D02*
X103843000Y-44289000D01*
X106723000Y-44289000D02*
X112880000Y-44289000D01*
X97701000Y-44249000D02*
X103843000Y-44249000D01*
X106723000Y-44249000D02*
X112865000Y-44249000D01*
X97715000Y-44209000D02*
X103843000Y-44209000D01*
X106723000Y-44209000D02*
X112851000Y-44209000D01*
X97730000Y-44169000D02*
X103843000Y-44169000D01*
X106723000Y-44169000D02*
X112836000Y-44169000D01*
X97746000Y-44129000D02*
X103843000Y-44129000D01*
X106723000Y-44129000D02*
X112820000Y-44129000D01*
X97761000Y-44089000D02*
X103843000Y-44089000D01*
X106723000Y-44089000D02*
X112805000Y-44089000D01*
X97777000Y-44049000D02*
X103843000Y-44049000D01*
X106723000Y-44049000D02*
X112789000Y-44049000D01*
X97793000Y-44009000D02*
X103843000Y-44009000D01*
X106723000Y-44009000D02*
X112773000Y-44009000D01*
X97809000Y-43969000D02*
X103843000Y-43969000D01*
X106723000Y-43969000D02*
X112757000Y-43969000D01*
X97826000Y-43929000D02*
X103843000Y-43929000D01*
X106723000Y-43929000D02*
X112740000Y-43929000D01*
X97843000Y-43889000D02*
X103843000Y-43889000D01*
X106723000Y-43889000D02*
X112723000Y-43889000D01*
X97860000Y-43849000D02*
X103843000Y-43849000D01*
X106723000Y-43849000D02*
X112706000Y-43849000D01*
X97877000Y-43809000D02*
X103843000Y-43809000D01*
X106723000Y-43809000D02*
X112689000Y-43809000D01*
X97894000Y-43769000D02*
X103843000Y-43769000D01*
X106723000Y-43769000D02*
X112672000Y-43769000D01*
X97912000Y-43729000D02*
X103843000Y-43729000D01*
X106723000Y-43729000D02*
X112654000Y-43729000D01*
X97930000Y-43689000D02*
X103843000Y-43689000D01*
X106723000Y-43689000D02*
X112636000Y-43689000D01*
X97949000Y-43649000D02*
X103843000Y-43649000D01*
X106723000Y-43649000D02*
X112617000Y-43649000D01*
X97967000Y-43609000D02*
X103843000Y-43609000D01*
X106723000Y-43609000D02*
X112599000Y-43609000D01*
X97986000Y-43569000D02*
X103843000Y-43569000D01*
X106723000Y-43569000D02*
X112580000Y-43569000D01*
X98005000Y-43529000D02*
X103843000Y-43529000D01*
X106723000Y-43529000D02*
X112561000Y-43529000D01*
X98025000Y-43489000D02*
X103843000Y-43489000D01*
X106723000Y-43489000D02*
X112541000Y-43489000D01*
X98044000Y-43449000D02*
X103843000Y-43449000D01*
X106723000Y-43449000D02*
X112522000Y-43449000D01*
X98064000Y-43409000D02*
X103843000Y-43409000D01*
X106723000Y-43409000D02*
X112502000Y-43409000D01*
X98084000Y-43369000D02*
X103843000Y-43369000D01*
X106723000Y-43369000D02*
X112482000Y-43369000D01*
X98105000Y-43329000D02*
X103843000Y-43329000D01*
X106723000Y-43329000D02*
X112461000Y-43329000D01*
X98126000Y-43289000D02*
X103843000Y-43289000D01*
X106723000Y-43289000D02*
X112440000Y-43289000D01*
X98147000Y-43249000D02*
X103843000Y-43249000D01*
X106723000Y-43249000D02*
X112419000Y-43249000D01*
X98168000Y-43209000D02*
X103843000Y-43209000D01*
X106723000Y-43209000D02*
X112398000Y-43209000D01*
X98189000Y-43169000D02*
X103843000Y-43169000D01*
X106723000Y-43169000D02*
X112377000Y-43169000D01*
X98211000Y-43129000D02*
X103843000Y-43129000D01*
X106723000Y-43129000D02*
X112355000Y-43129000D01*
X98234000Y-43089000D02*
X103843000Y-43089000D01*
X106723000Y-43089000D02*
X112332000Y-43089000D01*
X98256000Y-43049000D02*
X103843000Y-43049000D01*
X106723000Y-43049000D02*
X112310000Y-43049000D01*
X98279000Y-43009000D02*
X103843000Y-43009000D01*
X106723000Y-43009000D02*
X112287000Y-43009000D01*
X98302000Y-42969000D02*
X103843000Y-42969000D01*
X106723000Y-42969000D02*
X112264000Y-42969000D01*
X98325000Y-42929000D02*
X103843000Y-42929000D01*
X106723000Y-42929000D02*
X112241000Y-42929000D01*
X98349000Y-42889000D02*
X103843000Y-42889000D01*
X106723000Y-42889000D02*
X112217000Y-42889000D01*
X98373000Y-42849000D02*
X103843000Y-42849000D01*
X106723000Y-42849000D02*
X112193000Y-42849000D01*
X98397000Y-42809000D02*
X103843000Y-42809000D01*
X106723000Y-42809000D02*
X112169000Y-42809000D01*
X98422000Y-42769000D02*
X103843000Y-42769000D01*
X106723000Y-42769000D02*
X112144000Y-42769000D01*
X98447000Y-42729000D02*
X103843000Y-42729000D01*
X106723000Y-42729000D02*
X112119000Y-42729000D01*
X98472000Y-42689000D02*
X103843000Y-42689000D01*
X106723000Y-42689000D02*
X112094000Y-42689000D01*
X98498000Y-42649000D02*
X103843000Y-42649000D01*
X106723000Y-42649000D02*
X112068000Y-42649000D01*
X98524000Y-42609000D02*
X103843000Y-42609000D01*
X106723000Y-42609000D02*
X112042000Y-42609000D01*
X98550000Y-42569000D02*
X103843000Y-42569000D01*
X106723000Y-42569000D02*
X112016000Y-42569000D01*
X98577000Y-42529000D02*
X103843000Y-42529000D01*
X106723000Y-42529000D02*
X111989000Y-42529000D01*
X98604000Y-42489000D02*
X103843000Y-42489000D01*
X106723000Y-42489000D02*
X111962000Y-42489000D01*
X98631000Y-42449000D02*
X103843000Y-42449000D01*
X106723000Y-42449000D02*
X111935000Y-42449000D01*
X98659000Y-42409000D02*
X103843000Y-42409000D01*
X106723000Y-42409000D02*
X111907000Y-42409000D01*
X98687000Y-42369000D02*
X103843000Y-42369000D01*
X106723000Y-42369000D02*
X111879000Y-42369000D01*
X98715000Y-42329000D02*
X103843000Y-42329000D01*
X106723000Y-42329000D02*
X111851000Y-42329000D01*
X98744000Y-42289000D02*
X103843000Y-42289000D01*
X106723000Y-42289000D02*
X111822000Y-42289000D01*
X98773000Y-42249000D02*
X103843000Y-42249000D01*
X106723000Y-42249000D02*
X111793000Y-42249000D01*
X98803000Y-42209000D02*
X103843000Y-42209000D01*
X106723000Y-42209000D02*
X111763000Y-42209000D01*
X98833000Y-42169000D02*
X103843000Y-42169000D01*
X106723000Y-42169000D02*
X111733000Y-42169000D01*
X98863000Y-42129000D02*
X103843000Y-42129000D01*
X106723000Y-42129000D02*
X111703000Y-42129000D01*
X98893000Y-42089000D02*
X103843000Y-42089000D01*
X106723000Y-42089000D02*
X111673000Y-42089000D01*
X98925000Y-42049000D02*
X103843000Y-42049000D01*
X106723000Y-42049000D02*
X111641000Y-42049000D01*
X98956000Y-42009000D02*
X103843000Y-42009000D01*
X106723000Y-42009000D02*
X111610000Y-42009000D01*
X98988000Y-41969000D02*
X103843000Y-41969000D01*
X106723000Y-41969000D02*
X111578000Y-41969000D01*
X99020000Y-41929000D02*
X103843000Y-41929000D01*
X106723000Y-41929000D02*
X111546000Y-41929000D01*
X99053000Y-41889000D02*
X103843000Y-41889000D01*
X106723000Y-41889000D02*
X111513000Y-41889000D01*
X99086000Y-41849000D02*
X111480000Y-41849000D01*
X99120000Y-41809000D02*
X111446000Y-41809000D01*
X99154000Y-41769000D02*
X111412000Y-41769000D01*
X99188000Y-41729000D02*
X111378000Y-41729000D01*
X99223000Y-41689000D02*
X111343000Y-41689000D01*
X99258000Y-41649000D02*
X111308000Y-41649000D01*
X99294000Y-41609000D02*
X111272000Y-41609000D01*
X99331000Y-41569000D02*
X111235000Y-41569000D01*
X99367000Y-41529000D02*
X111199000Y-41529000D01*
X99405000Y-41489000D02*
X111161000Y-41489000D01*
X99443000Y-41449000D02*
X111123000Y-41449000D01*
X99481000Y-41409000D02*
X111085000Y-41409000D01*
X99520000Y-41369000D02*
X111046000Y-41369000D01*
X99559000Y-41329000D02*
X111007000Y-41329000D01*
X99599000Y-41289000D02*
X110967000Y-41289000D01*
X99640000Y-41249000D02*
X110926000Y-41249000D01*
X99681000Y-41209000D02*
X110885000Y-41209000D01*
X99723000Y-41169000D02*
X110843000Y-41169000D01*
X99765000Y-41129000D02*
X110801000Y-41129000D01*
X99808000Y-41089000D02*
X110758000Y-41089000D01*
X99851000Y-41049000D02*
X110715000Y-41049000D01*
X99895000Y-41009000D02*
X110671000Y-41009000D01*
X99940000Y-40969000D02*
X110626000Y-40969000D01*
X99986000Y-40929000D02*
X110580000Y-40929000D01*
X100032000Y-40889000D02*
X110534000Y-40889000D01*
X100079000Y-40849000D02*
X110487000Y-40849000D01*
X100127000Y-40809000D02*
X110439000Y-40809000D01*
X100175000Y-40769000D02*
X110391000Y-40769000D01*
X100224000Y-40729000D02*
X110342000Y-40729000D01*
X100274000Y-40689000D02*
X110292000Y-40689000D01*
X100325000Y-40649000D02*
X110241000Y-40649000D01*
X100377000Y-40609000D02*
X110189000Y-40609000D01*
X100429000Y-40569000D02*
X110137000Y-40569000D01*
X100483000Y-40529000D02*
X110083000Y-40529000D01*
X100537000Y-40489000D02*
X110029000Y-40489000D01*
X100592000Y-40449000D02*
X109974000Y-40449000D01*
X100649000Y-40409000D02*
X109917000Y-40409000D01*
X100706000Y-40369000D02*
X109860000Y-40369000D01*
X100764000Y-40329000D02*
X109802000Y-40329000D01*
X100824000Y-40289000D02*
X109742000Y-40289000D01*
X100885000Y-40249000D02*
X109681000Y-40249000D01*
X100947000Y-40209000D02*
X109619000Y-40209000D01*
X101010000Y-40169000D02*
X109556000Y-40169000D01*
X101074000Y-40129000D02*
X109492000Y-40129000D01*
X101140000Y-40089000D02*
X109426000Y-40089000D01*
X101207000Y-40049000D02*
X109359000Y-40049000D01*
X101276000Y-40009000D02*
X109290000Y-40009000D01*
X101347000Y-39969000D02*
X109219000Y-39969000D01*
X101419000Y-39929000D02*
X109147000Y-39929000D01*
X101493000Y-39889000D02*
X109073000Y-39889000D01*
X101568000Y-39849000D02*
X108998000Y-39849000D01*
X101646000Y-39809000D02*
X108920000Y-39809000D01*
X101726000Y-39769000D02*
X108840000Y-39769000D01*
X101808000Y-39729000D02*
X108758000Y-39729000D01*
X101893000Y-39689000D02*
X108673000Y-39689000D01*
X101980000Y-39649000D02*
X108586000Y-39649000D01*
X102070000Y-39609000D02*
X108496000Y-39609000D01*
X102163000Y-39569000D02*
X108403000Y-39569000D01*
X102259000Y-39529000D02*
X108307000Y-39529000D01*
X102359000Y-39489000D02*
X108207000Y-39489000D01*
X102463000Y-39449000D02*
X108103000Y-39449000D01*
X102572000Y-39409000D02*
X107994000Y-39409000D01*
X102686000Y-39369000D02*
X107880000Y-39369000D01*
X102805000Y-39329000D02*
X107761000Y-39329000D01*
X102932000Y-39289000D02*
X107634000Y-39289000D01*
X103065000Y-39249000D02*
X107501000Y-39249000D01*
X103209000Y-39209000D02*
X107357000Y-39209000D01*
X103363000Y-39169000D02*
X107203000Y-39169000D01*
X103531000Y-39129000D02*
X107035000Y-39129000D01*
X103719000Y-39089000D02*
X106847000Y-39089000D01*
X103932000Y-39049000D02*
X106634000Y-39049000D01*
X104185000Y-39009000D02*
X106381000Y-39009000D01*
X104518000Y-38969000D02*
X106048000Y-38969000D01*
X100728000Y-55739491D02*
X100728000Y-54139491D01*
X99928000Y-54939491D02*
X101528000Y-54939491D01*
X116448064Y-53313000D02*
X115993936Y-53313000D01*
X116448064Y-51843000D02*
X115993936Y-51843000D01*
X108230936Y-32285000D02*
X108685064Y-32285000D01*
X108230936Y-33755000D02*
X108685064Y-33755000D01*
X121933281Y-83629500D02*
G75*
G03*
X121933281Y-83629500I-1600781J0D01*
G01*
X129553281Y-83629500D02*
G75*
G03*
X129553281Y-83629500I-1600781J0D01*
G01*
X138506781Y-33020000D02*
G75*
G03*
X138506781Y-33020000I-1600781J0D01*
G01*
X130886781Y-33020000D02*
G75*
G03*
X130886781Y-33020000I-1600781J0D01*
G01*
X95580781Y-33020000D02*
G75*
G03*
X95580781Y-33020000I-1600781J0D01*
G01*
X103200781Y-33020000D02*
G75*
G03*
X103200781Y-33020000I-1600781J0D01*
G01*
X116368500Y-75409248D02*
X116368500Y-75931752D01*
X114898500Y-75409248D02*
X114898500Y-75931752D01*
X128170000Y-40828952D02*
X128170000Y-40306448D01*
X129640000Y-40828952D02*
X129640000Y-40306448D01*
X120875248Y-73179000D02*
X121397752Y-73179000D01*
X120875248Y-74649000D02*
X121397752Y-74649000D01*
X116508200Y-42359948D02*
X116508200Y-42882452D01*
X115038200Y-42359948D02*
X115038200Y-42882452D01*
X141448100Y-78552200D02*
X131678100Y-78552200D01*
X141448100Y-73482200D02*
X131678100Y-73482200D01*
X141448100Y-78552200D02*
X141448100Y-73482200D01*
X131678100Y-78552200D02*
X131678100Y-73482200D01*
X135250164Y-72972600D02*
X134796036Y-72972600D01*
X135250164Y-71502600D02*
X134796036Y-71502600D01*
X130064400Y-48677900D02*
X127189400Y-48677900D01*
X130064400Y-48677900D02*
X131564400Y-48677900D01*
X130064400Y-52897900D02*
X128564400Y-52897900D01*
X130064400Y-52897900D02*
X131564400Y-52897900D01*
X120242000Y-62907936D02*
X120242000Y-63362064D01*
X118772000Y-62907936D02*
X118772000Y-63362064D01*
X115834936Y-63273000D02*
X116289064Y-63273000D01*
X115834936Y-64743000D02*
X116289064Y-64743000D01*
X120496000Y-53223936D02*
X120496000Y-53678064D01*
X119026000Y-53223936D02*
X119026000Y-53678064D01*
X123754000Y-68795000D02*
X115514000Y-68795000D01*
X123754000Y-65305000D02*
X115514000Y-65305000D01*
X123754000Y-68795000D02*
X123754000Y-65305000D01*
X115514000Y-68795000D02*
X115514000Y-65305000D01*
X121234000Y-68795000D02*
X121234000Y-67725000D01*
X121234000Y-65625000D02*
X121234000Y-65305000D01*
X118033000Y-68795000D02*
X118033000Y-67215000D01*
X118033000Y-66135000D02*
X118033000Y-65305000D01*
X123881000Y-51269000D02*
X115641000Y-51269000D01*
X123881000Y-47779000D02*
X115641000Y-47779000D01*
X123881000Y-51269000D02*
X123881000Y-47779000D01*
X115641000Y-51269000D02*
X115641000Y-47779000D01*
X121361000Y-51269000D02*
X121361000Y-50199000D01*
X121361000Y-48099000D02*
X121361000Y-47779000D01*
X118160000Y-51269000D02*
X118160000Y-49689000D01*
X118160000Y-48609000D02*
X118160000Y-47779000D01*
X141702100Y-60010200D02*
X131932100Y-60010200D01*
X141702100Y-54940200D02*
X131932100Y-54940200D01*
X141702100Y-60010200D02*
X141702100Y-54940200D01*
X131932100Y-60010200D02*
X131932100Y-54940200D01*
X135050036Y-52986000D02*
X135504164Y-52986000D01*
X135050036Y-54456000D02*
X135504164Y-54456000D01*
X145974381Y-67310000D02*
G75*
G03*
X145974381Y-67310000I-1600781J0D01*
G01*
X145923581Y-58064400D02*
G75*
G03*
X145923581Y-58064400I-1600781J0D01*
G01*
X145923581Y-49784000D02*
G75*
G03*
X145923581Y-49784000I-1600781J0D01*
G01*
X85522381Y-49631600D02*
G75*
G03*
X85522381Y-49631600I-1600781J0D01*
G01*
X87960781Y-58166000D02*
G75*
G03*
X87960781Y-58166000I-1600781J0D01*
G01*
X85573181Y-67259200D02*
G75*
G03*
X85573181Y-67259200I-1600781J0D01*
G01*
D10*
X137024742Y-68735142D02*
X136977123Y-68782761D01*
X136834266Y-68830380D01*
X136739028Y-68830380D01*
X136596171Y-68782761D01*
X136500933Y-68687523D01*
X136453314Y-68592285D01*
X136405695Y-68401809D01*
X136405695Y-68258952D01*
X136453314Y-68068476D01*
X136500933Y-67973238D01*
X136596171Y-67878000D01*
X136739028Y-67830380D01*
X136834266Y-67830380D01*
X136977123Y-67878000D01*
X137024742Y-67925619D01*
X137977123Y-68830380D02*
X137405695Y-68830380D01*
X137691409Y-68830380D02*
X137691409Y-67830380D01*
X137596171Y-67973238D01*
X137500933Y-68068476D01*
X137405695Y-68116095D01*
X138548552Y-68258952D02*
X138453314Y-68211333D01*
X138405695Y-68163714D01*
X138358076Y-68068476D01*
X138358076Y-68020857D01*
X138405695Y-67925619D01*
X138453314Y-67878000D01*
X138548552Y-67830380D01*
X138739028Y-67830380D01*
X138834266Y-67878000D01*
X138881885Y-67925619D01*
X138929504Y-68020857D01*
X138929504Y-68068476D01*
X138881885Y-68163714D01*
X138834266Y-68211333D01*
X138739028Y-68258952D01*
X138548552Y-68258952D01*
X138453314Y-68306571D01*
X138405695Y-68354190D01*
X138358076Y-68449428D01*
X138358076Y-68639904D01*
X138405695Y-68735142D01*
X138453314Y-68782761D01*
X138548552Y-68830380D01*
X138739028Y-68830380D01*
X138834266Y-68782761D01*
X138881885Y-68735142D01*
X138929504Y-68639904D01*
X138929504Y-68449428D01*
X138881885Y-68354190D01*
X138834266Y-68306571D01*
X138739028Y-68258952D01*
X137253342Y-45085342D02*
X137205723Y-45132961D01*
X137062866Y-45180580D01*
X136967628Y-45180580D01*
X136824771Y-45132961D01*
X136729533Y-45037723D01*
X136681914Y-44942485D01*
X136634295Y-44752009D01*
X136634295Y-44609152D01*
X136681914Y-44418676D01*
X136729533Y-44323438D01*
X136824771Y-44228200D01*
X136967628Y-44180580D01*
X137062866Y-44180580D01*
X137205723Y-44228200D01*
X137253342Y-44275819D01*
X138205723Y-45180580D02*
X137634295Y-45180580D01*
X137920009Y-45180580D02*
X137920009Y-44180580D01*
X137824771Y-44323438D01*
X137729533Y-44418676D01*
X137634295Y-44466295D01*
X138539057Y-44180580D02*
X139205723Y-44180580D01*
X138777152Y-45180580D01*
X121412095Y-80430380D02*
X121412095Y-81239904D01*
X121459714Y-81335142D01*
X121507333Y-81382761D01*
X121602571Y-81430380D01*
X121793047Y-81430380D01*
X121888285Y-81382761D01*
X121935904Y-81335142D01*
X121983523Y-81239904D01*
X121983523Y-80430380D01*
X122412095Y-80525619D02*
X122459714Y-80478000D01*
X122554952Y-80430380D01*
X122793047Y-80430380D01*
X122888285Y-80478000D01*
X122935904Y-80525619D01*
X122983523Y-80620857D01*
X122983523Y-80716095D01*
X122935904Y-80858952D01*
X122364476Y-81430380D01*
X122983523Y-81430380D01*
X117398895Y-36891980D02*
X117398895Y-37701504D01*
X117446514Y-37796742D01*
X117494133Y-37844361D01*
X117589371Y-37891980D01*
X117779847Y-37891980D01*
X117875085Y-37844361D01*
X117922704Y-37796742D01*
X117970323Y-37701504D01*
X117970323Y-36891980D01*
X118970323Y-37891980D02*
X118398895Y-37891980D01*
X118684609Y-37891980D02*
X118684609Y-36891980D01*
X118589371Y-37034838D01*
X118494133Y-37130076D01*
X118398895Y-37177695D01*
X94054704Y-55530380D02*
X94054704Y-54530380D01*
X94292800Y-54530380D01*
X94435657Y-54578000D01*
X94530895Y-54673238D01*
X94578514Y-54768476D01*
X94626133Y-54958952D01*
X94626133Y-55101809D01*
X94578514Y-55292285D01*
X94530895Y-55387523D01*
X94435657Y-55482761D01*
X94292800Y-55530380D01*
X94054704Y-55530380D01*
X95483276Y-54863714D02*
X95483276Y-55530380D01*
X95245180Y-54482761D02*
X95007085Y-55197047D01*
X95626133Y-55197047D01*
X94054704Y-46883580D02*
X94054704Y-45883580D01*
X94292800Y-45883580D01*
X94435657Y-45931200D01*
X94530895Y-46026438D01*
X94578514Y-46121676D01*
X94626133Y-46312152D01*
X94626133Y-46455009D01*
X94578514Y-46645485D01*
X94530895Y-46740723D01*
X94435657Y-46835961D01*
X94292800Y-46883580D01*
X94054704Y-46883580D01*
X94959466Y-45883580D02*
X95578514Y-45883580D01*
X95245180Y-46264533D01*
X95388038Y-46264533D01*
X95483276Y-46312152D01*
X95530895Y-46359771D01*
X95578514Y-46455009D01*
X95578514Y-46693104D01*
X95530895Y-46788342D01*
X95483276Y-46835961D01*
X95388038Y-46883580D01*
X95102323Y-46883580D01*
X95007085Y-46835961D01*
X94959466Y-46788342D01*
X94156304Y-61107580D02*
X94156304Y-60107580D01*
X94394400Y-60107580D01*
X94537257Y-60155200D01*
X94632495Y-60250438D01*
X94680114Y-60345676D01*
X94727733Y-60536152D01*
X94727733Y-60679009D01*
X94680114Y-60869485D01*
X94632495Y-60964723D01*
X94537257Y-61059961D01*
X94394400Y-61107580D01*
X94156304Y-61107580D01*
X95108685Y-60202819D02*
X95156304Y-60155200D01*
X95251542Y-60107580D01*
X95489638Y-60107580D01*
X95584876Y-60155200D01*
X95632495Y-60202819D01*
X95680114Y-60298057D01*
X95680114Y-60393295D01*
X95632495Y-60536152D01*
X95061066Y-61107580D01*
X95680114Y-61107580D01*
X94054704Y-70149980D02*
X94054704Y-69149980D01*
X94292800Y-69149980D01*
X94435657Y-69197600D01*
X94530895Y-69292838D01*
X94578514Y-69388076D01*
X94626133Y-69578552D01*
X94626133Y-69721409D01*
X94578514Y-69911885D01*
X94530895Y-70007123D01*
X94435657Y-70102361D01*
X94292800Y-70149980D01*
X94054704Y-70149980D01*
X95578514Y-70149980D02*
X95007085Y-70149980D01*
X95292800Y-70149980D02*
X95292800Y-69149980D01*
X95197561Y-69292838D01*
X95102323Y-69388076D01*
X95007085Y-69435695D01*
X137939542Y-70613542D02*
X137891923Y-70661161D01*
X137749066Y-70708780D01*
X137653828Y-70708780D01*
X137510971Y-70661161D01*
X137415733Y-70565923D01*
X137368114Y-70470685D01*
X137320495Y-70280209D01*
X137320495Y-70137352D01*
X137368114Y-69946876D01*
X137415733Y-69851638D01*
X137510971Y-69756400D01*
X137653828Y-69708780D01*
X137749066Y-69708780D01*
X137891923Y-69756400D01*
X137939542Y-69804019D01*
X138891923Y-70708780D02*
X138320495Y-70708780D01*
X138606209Y-70708780D02*
X138606209Y-69708780D01*
X138510971Y-69851638D01*
X138415733Y-69946876D01*
X138320495Y-69994495D01*
X139749066Y-69708780D02*
X139558590Y-69708780D01*
X139463352Y-69756400D01*
X139415733Y-69804019D01*
X139320495Y-69946876D01*
X139272876Y-70137352D01*
X139272876Y-70518304D01*
X139320495Y-70613542D01*
X139368114Y-70661161D01*
X139463352Y-70708780D01*
X139653828Y-70708780D01*
X139749066Y-70661161D01*
X139796685Y-70613542D01*
X139844304Y-70518304D01*
X139844304Y-70280209D01*
X139796685Y-70184971D01*
X139749066Y-70137352D01*
X139653828Y-70089733D01*
X139463352Y-70089733D01*
X139368114Y-70137352D01*
X139320495Y-70184971D01*
X139272876Y-70280209D01*
X138041142Y-52173142D02*
X137993523Y-52220761D01*
X137850666Y-52268380D01*
X137755428Y-52268380D01*
X137612571Y-52220761D01*
X137517333Y-52125523D01*
X137469714Y-52030285D01*
X137422095Y-51839809D01*
X137422095Y-51696952D01*
X137469714Y-51506476D01*
X137517333Y-51411238D01*
X137612571Y-51316000D01*
X137755428Y-51268380D01*
X137850666Y-51268380D01*
X137993523Y-51316000D01*
X138041142Y-51363619D01*
X138993523Y-52268380D02*
X138422095Y-52268380D01*
X138707809Y-52268380D02*
X138707809Y-51268380D01*
X138612571Y-51411238D01*
X138517333Y-51506476D01*
X138422095Y-51554095D01*
X139898285Y-51268380D02*
X139422095Y-51268380D01*
X139374476Y-51744571D01*
X139422095Y-51696952D01*
X139517333Y-51649333D01*
X139755428Y-51649333D01*
X139850666Y-51696952D01*
X139898285Y-51744571D01*
X139945904Y-51839809D01*
X139945904Y-52077904D01*
X139898285Y-52173142D01*
X139850666Y-52220761D01*
X139755428Y-52268380D01*
X139517333Y-52268380D01*
X139422095Y-52220761D01*
X139374476Y-52173142D01*
X126493542Y-63158666D02*
X126541161Y-63206285D01*
X126588780Y-63349142D01*
X126588780Y-63444380D01*
X126541161Y-63587238D01*
X126445923Y-63682476D01*
X126350685Y-63730095D01*
X126160209Y-63777714D01*
X126017352Y-63777714D01*
X125826876Y-63730095D01*
X125731638Y-63682476D01*
X125636400Y-63587238D01*
X125588780Y-63444380D01*
X125588780Y-63349142D01*
X125636400Y-63206285D01*
X125684019Y-63158666D01*
X126588780Y-62682476D02*
X126588780Y-62492000D01*
X126541161Y-62396761D01*
X126493542Y-62349142D01*
X126350685Y-62253904D01*
X126160209Y-62206285D01*
X125779257Y-62206285D01*
X125684019Y-62253904D01*
X125636400Y-62301523D01*
X125588780Y-62396761D01*
X125588780Y-62587238D01*
X125636400Y-62682476D01*
X125684019Y-62730095D01*
X125779257Y-62777714D01*
X126017352Y-62777714D01*
X126112590Y-62730095D01*
X126160209Y-62682476D01*
X126207828Y-62587238D01*
X126207828Y-62396761D01*
X126160209Y-62301523D01*
X126112590Y-62253904D01*
X126017352Y-62206285D01*
X126691542Y-46658466D02*
X126739161Y-46706085D01*
X126786780Y-46848942D01*
X126786780Y-46944180D01*
X126739161Y-47087038D01*
X126643923Y-47182276D01*
X126548685Y-47229895D01*
X126358209Y-47277514D01*
X126215352Y-47277514D01*
X126024876Y-47229895D01*
X125929638Y-47182276D01*
X125834400Y-47087038D01*
X125786780Y-46944180D01*
X125786780Y-46848942D01*
X125834400Y-46706085D01*
X125882019Y-46658466D01*
X125786780Y-46325133D02*
X125786780Y-45658466D01*
X126786780Y-46087038D01*
X91091633Y-57459942D02*
X91044014Y-57507561D01*
X90901157Y-57555180D01*
X90805919Y-57555180D01*
X90663061Y-57507561D01*
X90567823Y-57412323D01*
X90520204Y-57317085D01*
X90472585Y-57126609D01*
X90472585Y-56983752D01*
X90520204Y-56793276D01*
X90567823Y-56698038D01*
X90663061Y-56602800D01*
X90805919Y-56555180D01*
X90901157Y-56555180D01*
X91044014Y-56602800D01*
X91091633Y-56650419D01*
X91948776Y-56555180D02*
X91758300Y-56555180D01*
X91663061Y-56602800D01*
X91615442Y-56650419D01*
X91520204Y-56793276D01*
X91472585Y-56983752D01*
X91472585Y-57364704D01*
X91520204Y-57459942D01*
X91567823Y-57507561D01*
X91663061Y-57555180D01*
X91853538Y-57555180D01*
X91948776Y-57507561D01*
X91996395Y-57459942D01*
X92044014Y-57364704D01*
X92044014Y-57126609D01*
X91996395Y-57031371D01*
X91948776Y-56983752D01*
X91853538Y-56936133D01*
X91663061Y-56936133D01*
X91567823Y-56983752D01*
X91520204Y-57031371D01*
X91472585Y-57126609D01*
X91142433Y-44803542D02*
X91094814Y-44851161D01*
X90951957Y-44898780D01*
X90856719Y-44898780D01*
X90713861Y-44851161D01*
X90618623Y-44755923D01*
X90571004Y-44660685D01*
X90523385Y-44470209D01*
X90523385Y-44327352D01*
X90571004Y-44136876D01*
X90618623Y-44041638D01*
X90713861Y-43946400D01*
X90856719Y-43898780D01*
X90951957Y-43898780D01*
X91094814Y-43946400D01*
X91142433Y-43994019D01*
X92047195Y-43898780D02*
X91571004Y-43898780D01*
X91523385Y-44374971D01*
X91571004Y-44327352D01*
X91666242Y-44279733D01*
X91904338Y-44279733D01*
X91999576Y-44327352D01*
X92047195Y-44374971D01*
X92094814Y-44470209D01*
X92094814Y-44708304D01*
X92047195Y-44803542D01*
X91999576Y-44851161D01*
X91904338Y-44898780D01*
X91666242Y-44898780D01*
X91571004Y-44851161D01*
X91523385Y-44803542D01*
X91171733Y-59031142D02*
X91124114Y-59078761D01*
X90981257Y-59126380D01*
X90886019Y-59126380D01*
X90743161Y-59078761D01*
X90647923Y-58983523D01*
X90600304Y-58888285D01*
X90552685Y-58697809D01*
X90552685Y-58554952D01*
X90600304Y-58364476D01*
X90647923Y-58269238D01*
X90743161Y-58174000D01*
X90886019Y-58126380D01*
X90981257Y-58126380D01*
X91124114Y-58174000D01*
X91171733Y-58221619D01*
X92028876Y-58459714D02*
X92028876Y-59126380D01*
X91790780Y-58078761D02*
X91552685Y-58793047D01*
X92171733Y-58793047D01*
X90917733Y-72289942D02*
X90870114Y-72337561D01*
X90727257Y-72385180D01*
X90632019Y-72385180D01*
X90489161Y-72337561D01*
X90393923Y-72242323D01*
X90346304Y-72147085D01*
X90298685Y-71956609D01*
X90298685Y-71813752D01*
X90346304Y-71623276D01*
X90393923Y-71528038D01*
X90489161Y-71432800D01*
X90632019Y-71385180D01*
X90727257Y-71385180D01*
X90870114Y-71432800D01*
X90917733Y-71480419D01*
X91251066Y-71385180D02*
X91870114Y-71385180D01*
X91536780Y-71766133D01*
X91679638Y-71766133D01*
X91774876Y-71813752D01*
X91822495Y-71861371D01*
X91870114Y-71956609D01*
X91870114Y-72194704D01*
X91822495Y-72289942D01*
X91774876Y-72337561D01*
X91679638Y-72385180D01*
X91393923Y-72385180D01*
X91298685Y-72337561D01*
X91251066Y-72289942D01*
X129124695Y-64764280D02*
X129124695Y-65573804D01*
X129172314Y-65669042D01*
X129219933Y-65716661D01*
X129315171Y-65764280D01*
X129505647Y-65764280D01*
X129600885Y-65716661D01*
X129648504Y-65669042D01*
X129696123Y-65573804D01*
X129696123Y-64764280D01*
X130600885Y-65097614D02*
X130600885Y-65764280D01*
X130362790Y-64716661D02*
X130124695Y-65430947D01*
X130743742Y-65430947D01*
X116603542Y-30227542D02*
X116555923Y-30275161D01*
X116413066Y-30322780D01*
X116317828Y-30322780D01*
X116174971Y-30275161D01*
X116079733Y-30179923D01*
X116032114Y-30084685D01*
X115984495Y-29894209D01*
X115984495Y-29751352D01*
X116032114Y-29560876D01*
X116079733Y-29465638D01*
X116174971Y-29370400D01*
X116317828Y-29322780D01*
X116413066Y-29322780D01*
X116555923Y-29370400D01*
X116603542Y-29418019D01*
X117555923Y-30322780D02*
X116984495Y-30322780D01*
X117270209Y-30322780D02*
X117270209Y-29322780D01*
X117174971Y-29465638D01*
X117079733Y-29560876D01*
X116984495Y-29608495D01*
X117889257Y-29322780D02*
X118508304Y-29322780D01*
X118174971Y-29703733D01*
X118317828Y-29703733D01*
X118413066Y-29751352D01*
X118460685Y-29798971D01*
X118508304Y-29894209D01*
X118508304Y-30132304D01*
X118460685Y-30227542D01*
X118413066Y-30275161D01*
X118317828Y-30322780D01*
X118032114Y-30322780D01*
X117936876Y-30275161D01*
X117889257Y-30227542D01*
X124276380Y-71517857D02*
X123800190Y-71851190D01*
X124276380Y-72089285D02*
X123276380Y-72089285D01*
X123276380Y-71708333D01*
X123324000Y-71613095D01*
X123371619Y-71565476D01*
X123466857Y-71517857D01*
X123609714Y-71517857D01*
X123704952Y-71565476D01*
X123752571Y-71613095D01*
X123800190Y-71708333D01*
X123800190Y-72089285D01*
X124276380Y-70565476D02*
X124276380Y-71136904D01*
X124276380Y-70851190D02*
X123276380Y-70851190D01*
X123419238Y-70946428D01*
X123514476Y-71041666D01*
X123562095Y-71136904D01*
X124276380Y-69613095D02*
X124276380Y-70184523D01*
X124276380Y-69898809D02*
X123276380Y-69898809D01*
X123419238Y-69994047D01*
X123514476Y-70089285D01*
X123562095Y-70184523D01*
X118511580Y-71508857D02*
X118035390Y-71842190D01*
X118511580Y-72080285D02*
X117511580Y-72080285D01*
X117511580Y-71699333D01*
X117559200Y-71604095D01*
X117606819Y-71556476D01*
X117702057Y-71508857D01*
X117844914Y-71508857D01*
X117940152Y-71556476D01*
X117987771Y-71604095D01*
X118035390Y-71699333D01*
X118035390Y-72080285D01*
X118511580Y-70556476D02*
X118511580Y-71127904D01*
X118511580Y-70842190D02*
X117511580Y-70842190D01*
X117654438Y-70937428D01*
X117749676Y-71032666D01*
X117797295Y-71127904D01*
X117511580Y-69937428D02*
X117511580Y-69842190D01*
X117559200Y-69746952D01*
X117606819Y-69699333D01*
X117702057Y-69651714D01*
X117892533Y-69604095D01*
X118130628Y-69604095D01*
X118321104Y-69651714D01*
X118416342Y-69699333D01*
X118463961Y-69746952D01*
X118511580Y-69842190D01*
X118511580Y-69937428D01*
X118463961Y-70032666D01*
X118416342Y-70080285D01*
X118321104Y-70127904D01*
X118130628Y-70175523D01*
X117892533Y-70175523D01*
X117702057Y-70127904D01*
X117606819Y-70080285D01*
X117559200Y-70032666D01*
X117511580Y-69937428D01*
X124505980Y-45581866D02*
X124029790Y-45915200D01*
X124505980Y-46153295D02*
X123505980Y-46153295D01*
X123505980Y-45772342D01*
X123553600Y-45677104D01*
X123601219Y-45629485D01*
X123696457Y-45581866D01*
X123839314Y-45581866D01*
X123934552Y-45629485D01*
X123982171Y-45677104D01*
X124029790Y-45772342D01*
X124029790Y-46153295D01*
X124505980Y-45105676D02*
X124505980Y-44915200D01*
X124458361Y-44819961D01*
X124410742Y-44772342D01*
X124267885Y-44677104D01*
X124077409Y-44629485D01*
X123696457Y-44629485D01*
X123601219Y-44677104D01*
X123553600Y-44724723D01*
X123505980Y-44819961D01*
X123505980Y-45010438D01*
X123553600Y-45105676D01*
X123601219Y-45153295D01*
X123696457Y-45200914D01*
X123934552Y-45200914D01*
X124029790Y-45153295D01*
X124077409Y-45105676D01*
X124125028Y-45010438D01*
X124125028Y-44819961D01*
X124077409Y-44724723D01*
X124029790Y-44677104D01*
X123934552Y-44629485D01*
X118511580Y-45378666D02*
X118035390Y-45712000D01*
X118511580Y-45950095D02*
X117511580Y-45950095D01*
X117511580Y-45569142D01*
X117559200Y-45473904D01*
X117606819Y-45426285D01*
X117702057Y-45378666D01*
X117844914Y-45378666D01*
X117940152Y-45426285D01*
X117987771Y-45473904D01*
X118035390Y-45569142D01*
X118035390Y-45950095D01*
X117844914Y-44521523D02*
X118511580Y-44521523D01*
X117463961Y-44759619D02*
X118178247Y-44997714D01*
X118178247Y-44378666D01*
X107611942Y-86971142D02*
X107564323Y-87018761D01*
X107421466Y-87066380D01*
X107326228Y-87066380D01*
X107183371Y-87018761D01*
X107088133Y-86923523D01*
X107040514Y-86828285D01*
X106992895Y-86637809D01*
X106992895Y-86494952D01*
X107040514Y-86304476D01*
X107088133Y-86209238D01*
X107183371Y-86114000D01*
X107326228Y-86066380D01*
X107421466Y-86066380D01*
X107564323Y-86114000D01*
X107611942Y-86161619D01*
X108564323Y-87066380D02*
X107992895Y-87066380D01*
X108278609Y-87066380D02*
X108278609Y-86066380D01*
X108183371Y-86209238D01*
X108088133Y-86304476D01*
X107992895Y-86352095D01*
X109421466Y-86399714D02*
X109421466Y-87066380D01*
X109183371Y-86018761D02*
X108945276Y-86733047D01*
X109564323Y-86733047D01*
X111355142Y-61533066D02*
X111402761Y-61580685D01*
X111450380Y-61723542D01*
X111450380Y-61818780D01*
X111402761Y-61961638D01*
X111307523Y-62056876D01*
X111212285Y-62104495D01*
X111021809Y-62152114D01*
X110878952Y-62152114D01*
X110688476Y-62104495D01*
X110593238Y-62056876D01*
X110498000Y-61961638D01*
X110450380Y-61818780D01*
X110450380Y-61723542D01*
X110498000Y-61580685D01*
X110545619Y-61533066D01*
X110545619Y-61152114D02*
X110498000Y-61104495D01*
X110450380Y-61009257D01*
X110450380Y-60771161D01*
X110498000Y-60675923D01*
X110545619Y-60628304D01*
X110640857Y-60580685D01*
X110736095Y-60580685D01*
X110878952Y-60628304D01*
X111450380Y-61199733D01*
X111450380Y-60580685D01*
X111355142Y-54979866D02*
X111402761Y-55027485D01*
X111450380Y-55170342D01*
X111450380Y-55265580D01*
X111402761Y-55408438D01*
X111307523Y-55503676D01*
X111212285Y-55551295D01*
X111021809Y-55598914D01*
X110878952Y-55598914D01*
X110688476Y-55551295D01*
X110593238Y-55503676D01*
X110498000Y-55408438D01*
X110450380Y-55265580D01*
X110450380Y-55170342D01*
X110498000Y-55027485D01*
X110545619Y-54979866D01*
X111450380Y-54027485D02*
X111450380Y-54598914D01*
X111450380Y-54313200D02*
X110450380Y-54313200D01*
X110593238Y-54408438D01*
X110688476Y-54503676D01*
X110736095Y-54598914D01*
X116054333Y-54680380D02*
X115721000Y-54204190D01*
X115482904Y-54680380D02*
X115482904Y-53680380D01*
X115863857Y-53680380D01*
X115959095Y-53728000D01*
X116006714Y-53775619D01*
X116054333Y-53870857D01*
X116054333Y-54013714D01*
X116006714Y-54108952D01*
X115959095Y-54156571D01*
X115863857Y-54204190D01*
X115482904Y-54204190D01*
X116911476Y-53680380D02*
X116721000Y-53680380D01*
X116625761Y-53728000D01*
X116578142Y-53775619D01*
X116482904Y-53918476D01*
X116435285Y-54108952D01*
X116435285Y-54489904D01*
X116482904Y-54585142D01*
X116530523Y-54632761D01*
X116625761Y-54680380D01*
X116816238Y-54680380D01*
X116911476Y-54632761D01*
X116959095Y-54585142D01*
X117006714Y-54489904D01*
X117006714Y-54251809D01*
X116959095Y-54156571D01*
X116911476Y-54108952D01*
X116816238Y-54061333D01*
X116625761Y-54061333D01*
X116530523Y-54108952D01*
X116482904Y-54156571D01*
X116435285Y-54251809D01*
X108291333Y-31822380D02*
X107958000Y-31346190D01*
X107719904Y-31822380D02*
X107719904Y-30822380D01*
X108100857Y-30822380D01*
X108196095Y-30870000D01*
X108243714Y-30917619D01*
X108291333Y-31012857D01*
X108291333Y-31155714D01*
X108243714Y-31250952D01*
X108196095Y-31298571D01*
X108100857Y-31346190D01*
X107719904Y-31346190D01*
X108624666Y-30822380D02*
X109243714Y-30822380D01*
X108910380Y-31203333D01*
X109053238Y-31203333D01*
X109148476Y-31250952D01*
X109196095Y-31298571D01*
X109243714Y-31393809D01*
X109243714Y-31631904D01*
X109196095Y-31727142D01*
X109148476Y-31774761D01*
X109053238Y-31822380D01*
X108767523Y-31822380D01*
X108672285Y-31774761D01*
X108624666Y-31727142D01*
X119522976Y-85481880D02*
X119522976Y-86196166D01*
X119475357Y-86339023D01*
X119380119Y-86434261D01*
X119237261Y-86481880D01*
X119142023Y-86481880D01*
X120522976Y-86481880D02*
X119951547Y-86481880D01*
X120237261Y-86481880D02*
X120237261Y-85481880D01*
X120142023Y-85624738D01*
X120046785Y-85719976D01*
X119951547Y-85767595D01*
X120903928Y-85577119D02*
X120951547Y-85529500D01*
X121046785Y-85481880D01*
X121284880Y-85481880D01*
X121380119Y-85529500D01*
X121427738Y-85577119D01*
X121475357Y-85672357D01*
X121475357Y-85767595D01*
X121427738Y-85910452D01*
X120856309Y-86481880D01*
X121475357Y-86481880D01*
X127142976Y-85481880D02*
X127142976Y-86196166D01*
X127095357Y-86339023D01*
X127000119Y-86434261D01*
X126857261Y-86481880D01*
X126762023Y-86481880D01*
X128142976Y-86481880D02*
X127571547Y-86481880D01*
X127857261Y-86481880D02*
X127857261Y-85481880D01*
X127762023Y-85624738D01*
X127666785Y-85719976D01*
X127571547Y-85767595D01*
X129095357Y-86481880D02*
X128523928Y-86481880D01*
X128809642Y-86481880D02*
X128809642Y-85481880D01*
X128714404Y-85624738D01*
X128619166Y-85719976D01*
X128523928Y-85767595D01*
X136096476Y-34872380D02*
X136096476Y-35586666D01*
X136048857Y-35729523D01*
X135953619Y-35824761D01*
X135810761Y-35872380D01*
X135715523Y-35872380D01*
X137096476Y-35872380D02*
X136525047Y-35872380D01*
X136810761Y-35872380D02*
X136810761Y-34872380D01*
X136715523Y-35015238D01*
X136620285Y-35110476D01*
X136525047Y-35158095D01*
X137715523Y-34872380D02*
X137810761Y-34872380D01*
X137906000Y-34920000D01*
X137953619Y-34967619D01*
X138001238Y-35062857D01*
X138048857Y-35253333D01*
X138048857Y-35491428D01*
X138001238Y-35681904D01*
X137953619Y-35777142D01*
X137906000Y-35824761D01*
X137810761Y-35872380D01*
X137715523Y-35872380D01*
X137620285Y-35824761D01*
X137572666Y-35777142D01*
X137525047Y-35681904D01*
X137477428Y-35491428D01*
X137477428Y-35253333D01*
X137525047Y-35062857D01*
X137572666Y-34967619D01*
X137620285Y-34920000D01*
X137715523Y-34872380D01*
X128952666Y-34872380D02*
X128952666Y-35586666D01*
X128905047Y-35729523D01*
X128809809Y-35824761D01*
X128666952Y-35872380D01*
X128571714Y-35872380D01*
X129476476Y-35872380D02*
X129666952Y-35872380D01*
X129762190Y-35824761D01*
X129809809Y-35777142D01*
X129905047Y-35634285D01*
X129952666Y-35443809D01*
X129952666Y-35062857D01*
X129905047Y-34967619D01*
X129857428Y-34920000D01*
X129762190Y-34872380D01*
X129571714Y-34872380D01*
X129476476Y-34920000D01*
X129428857Y-34967619D01*
X129381238Y-35062857D01*
X129381238Y-35300952D01*
X129428857Y-35396190D01*
X129476476Y-35443809D01*
X129571714Y-35491428D01*
X129762190Y-35491428D01*
X129857428Y-35443809D01*
X129905047Y-35396190D01*
X129952666Y-35300952D01*
X93646666Y-34872380D02*
X93646666Y-35586666D01*
X93599047Y-35729523D01*
X93503809Y-35824761D01*
X93360952Y-35872380D01*
X93265714Y-35872380D01*
X94265714Y-35300952D02*
X94170476Y-35253333D01*
X94122857Y-35205714D01*
X94075238Y-35110476D01*
X94075238Y-35062857D01*
X94122857Y-34967619D01*
X94170476Y-34920000D01*
X94265714Y-34872380D01*
X94456190Y-34872380D01*
X94551428Y-34920000D01*
X94599047Y-34967619D01*
X94646666Y-35062857D01*
X94646666Y-35110476D01*
X94599047Y-35205714D01*
X94551428Y-35253333D01*
X94456190Y-35300952D01*
X94265714Y-35300952D01*
X94170476Y-35348571D01*
X94122857Y-35396190D01*
X94075238Y-35491428D01*
X94075238Y-35681904D01*
X94122857Y-35777142D01*
X94170476Y-35824761D01*
X94265714Y-35872380D01*
X94456190Y-35872380D01*
X94551428Y-35824761D01*
X94599047Y-35777142D01*
X94646666Y-35681904D01*
X94646666Y-35491428D01*
X94599047Y-35396190D01*
X94551428Y-35348571D01*
X94456190Y-35300952D01*
X101266666Y-34872380D02*
X101266666Y-35586666D01*
X101219047Y-35729523D01*
X101123809Y-35824761D01*
X100980952Y-35872380D01*
X100885714Y-35872380D01*
X101647619Y-34872380D02*
X102314285Y-34872380D01*
X101885714Y-35872380D01*
X114098342Y-76436457D02*
X114145961Y-76484076D01*
X114193580Y-76626933D01*
X114193580Y-76722171D01*
X114145961Y-76865028D01*
X114050723Y-76960266D01*
X113955485Y-77007885D01*
X113765009Y-77055504D01*
X113622152Y-77055504D01*
X113431676Y-77007885D01*
X113336438Y-76960266D01*
X113241200Y-76865028D01*
X113193580Y-76722171D01*
X113193580Y-76626933D01*
X113241200Y-76484076D01*
X113288819Y-76436457D01*
X114193580Y-75484076D02*
X114193580Y-76055504D01*
X114193580Y-75769790D02*
X113193580Y-75769790D01*
X113336438Y-75865028D01*
X113431676Y-75960266D01*
X113479295Y-76055504D01*
X113288819Y-75103123D02*
X113241200Y-75055504D01*
X113193580Y-74960266D01*
X113193580Y-74722171D01*
X113241200Y-74626933D01*
X113288819Y-74579314D01*
X113384057Y-74531695D01*
X113479295Y-74531695D01*
X113622152Y-74579314D01*
X114193580Y-75150742D01*
X114193580Y-74531695D01*
X131065542Y-41079657D02*
X131113161Y-41127276D01*
X131160780Y-41270133D01*
X131160780Y-41365371D01*
X131113161Y-41508228D01*
X131017923Y-41603466D01*
X130922685Y-41651085D01*
X130732209Y-41698704D01*
X130589352Y-41698704D01*
X130398876Y-41651085D01*
X130303638Y-41603466D01*
X130208400Y-41508228D01*
X130160780Y-41365371D01*
X130160780Y-41270133D01*
X130208400Y-41127276D01*
X130256019Y-41079657D01*
X131160780Y-40127276D02*
X131160780Y-40698704D01*
X131160780Y-40412990D02*
X130160780Y-40412990D01*
X130303638Y-40508228D01*
X130398876Y-40603466D01*
X130446495Y-40698704D01*
X131160780Y-39174895D02*
X131160780Y-39746323D01*
X131160780Y-39460609D02*
X130160780Y-39460609D01*
X130303638Y-39555847D01*
X130398876Y-39651085D01*
X130446495Y-39746323D01*
X123867942Y-74271142D02*
X123820323Y-74318761D01*
X123677466Y-74366380D01*
X123582228Y-74366380D01*
X123439371Y-74318761D01*
X123344133Y-74223523D01*
X123296514Y-74128285D01*
X123248895Y-73937809D01*
X123248895Y-73794952D01*
X123296514Y-73604476D01*
X123344133Y-73509238D01*
X123439371Y-73414000D01*
X123582228Y-73366380D01*
X123677466Y-73366380D01*
X123820323Y-73414000D01*
X123867942Y-73461619D01*
X124820323Y-74366380D02*
X124248895Y-74366380D01*
X124534609Y-74366380D02*
X124534609Y-73366380D01*
X124439371Y-73509238D01*
X124344133Y-73604476D01*
X124248895Y-73652095D01*
X125439371Y-73366380D02*
X125534609Y-73366380D01*
X125629847Y-73414000D01*
X125677466Y-73461619D01*
X125725085Y-73556857D01*
X125772704Y-73747333D01*
X125772704Y-73985428D01*
X125725085Y-74175904D01*
X125677466Y-74271142D01*
X125629847Y-74318761D01*
X125534609Y-74366380D01*
X125439371Y-74366380D01*
X125344133Y-74318761D01*
X125296514Y-74271142D01*
X125248895Y-74175904D01*
X125201276Y-73985428D01*
X125201276Y-73747333D01*
X125248895Y-73556857D01*
X125296514Y-73461619D01*
X125344133Y-73414000D01*
X125439371Y-73366380D01*
X114301542Y-42432266D02*
X114349161Y-42479885D01*
X114396780Y-42622742D01*
X114396780Y-42717980D01*
X114349161Y-42860838D01*
X114253923Y-42956076D01*
X114158685Y-43003695D01*
X113968209Y-43051314D01*
X113825352Y-43051314D01*
X113634876Y-43003695D01*
X113539638Y-42956076D01*
X113444400Y-42860838D01*
X113396780Y-42717980D01*
X113396780Y-42622742D01*
X113444400Y-42479885D01*
X113492019Y-42432266D01*
X113825352Y-41860838D02*
X113777733Y-41956076D01*
X113730114Y-42003695D01*
X113634876Y-42051314D01*
X113587257Y-42051314D01*
X113492019Y-42003695D01*
X113444400Y-41956076D01*
X113396780Y-41860838D01*
X113396780Y-41670361D01*
X113444400Y-41575123D01*
X113492019Y-41527504D01*
X113587257Y-41479885D01*
X113634876Y-41479885D01*
X113730114Y-41527504D01*
X113777733Y-41575123D01*
X113825352Y-41670361D01*
X113825352Y-41860838D01*
X113872971Y-41956076D01*
X113920590Y-42003695D01*
X114015828Y-42051314D01*
X114206304Y-42051314D01*
X114301542Y-42003695D01*
X114349161Y-41956076D01*
X114396780Y-41860838D01*
X114396780Y-41670361D01*
X114349161Y-41575123D01*
X114301542Y-41527504D01*
X114206304Y-41479885D01*
X114015828Y-41479885D01*
X113920590Y-41527504D01*
X113872971Y-41575123D01*
X113825352Y-41670361D01*
X129452761Y-76550780D02*
X129119428Y-76074590D01*
X128881333Y-76550780D02*
X128881333Y-75550780D01*
X129262285Y-75550780D01*
X129357523Y-75598400D01*
X129405142Y-75646019D01*
X129452761Y-75741257D01*
X129452761Y-75884114D01*
X129405142Y-75979352D01*
X129357523Y-76026971D01*
X129262285Y-76074590D01*
X128881333Y-76074590D01*
X129738476Y-75550780D02*
X130071809Y-76550780D01*
X130405142Y-75550780D01*
X130690857Y-75646019D02*
X130738476Y-75598400D01*
X130833714Y-75550780D01*
X131071809Y-75550780D01*
X131167047Y-75598400D01*
X131214666Y-75646019D01*
X131262285Y-75741257D01*
X131262285Y-75836495D01*
X131214666Y-75979352D01*
X130643238Y-76550780D01*
X131262285Y-76550780D01*
X137958533Y-72791580D02*
X137625200Y-72315390D01*
X137387104Y-72791580D02*
X137387104Y-71791580D01*
X137768057Y-71791580D01*
X137863295Y-71839200D01*
X137910914Y-71886819D01*
X137958533Y-71982057D01*
X137958533Y-72124914D01*
X137910914Y-72220152D01*
X137863295Y-72267771D01*
X137768057Y-72315390D01*
X137387104Y-72315390D01*
X138339485Y-71886819D02*
X138387104Y-71839200D01*
X138482342Y-71791580D01*
X138720438Y-71791580D01*
X138815676Y-71839200D01*
X138863295Y-71886819D01*
X138910914Y-71982057D01*
X138910914Y-72077295D01*
X138863295Y-72220152D01*
X138291866Y-72791580D01*
X138910914Y-72791580D01*
X129302495Y-47290280D02*
X129302495Y-48099804D01*
X129350114Y-48195042D01*
X129397733Y-48242661D01*
X129492971Y-48290280D01*
X129683447Y-48290280D01*
X129778685Y-48242661D01*
X129826304Y-48195042D01*
X129873923Y-48099804D01*
X129873923Y-47290280D01*
X130254876Y-47290280D02*
X130873923Y-47290280D01*
X130540590Y-47671233D01*
X130683447Y-47671233D01*
X130778685Y-47718852D01*
X130826304Y-47766471D01*
X130873923Y-47861709D01*
X130873923Y-48099804D01*
X130826304Y-48195042D01*
X130778685Y-48242661D01*
X130683447Y-48290280D01*
X130397733Y-48290280D01*
X130302495Y-48242661D01*
X130254876Y-48195042D01*
X121609380Y-63301666D02*
X121133190Y-63635000D01*
X121609380Y-63873095D02*
X120609380Y-63873095D01*
X120609380Y-63492142D01*
X120657000Y-63396904D01*
X120704619Y-63349285D01*
X120799857Y-63301666D01*
X120942714Y-63301666D01*
X121037952Y-63349285D01*
X121085571Y-63396904D01*
X121133190Y-63492142D01*
X121133190Y-63873095D01*
X121037952Y-62730238D02*
X120990333Y-62825476D01*
X120942714Y-62873095D01*
X120847476Y-62920714D01*
X120799857Y-62920714D01*
X120704619Y-62873095D01*
X120657000Y-62825476D01*
X120609380Y-62730238D01*
X120609380Y-62539761D01*
X120657000Y-62444523D01*
X120704619Y-62396904D01*
X120799857Y-62349285D01*
X120847476Y-62349285D01*
X120942714Y-62396904D01*
X120990333Y-62444523D01*
X121037952Y-62539761D01*
X121037952Y-62730238D01*
X121085571Y-62825476D01*
X121133190Y-62873095D01*
X121228428Y-62920714D01*
X121418904Y-62920714D01*
X121514142Y-62873095D01*
X121561761Y-62825476D01*
X121609380Y-62730238D01*
X121609380Y-62539761D01*
X121561761Y-62444523D01*
X121514142Y-62396904D01*
X121418904Y-62349285D01*
X121228428Y-62349285D01*
X121133190Y-62396904D01*
X121085571Y-62444523D01*
X121037952Y-62539761D01*
X115895333Y-62810380D02*
X115562000Y-62334190D01*
X115323904Y-62810380D02*
X115323904Y-61810380D01*
X115704857Y-61810380D01*
X115800095Y-61858000D01*
X115847714Y-61905619D01*
X115895333Y-62000857D01*
X115895333Y-62143714D01*
X115847714Y-62238952D01*
X115800095Y-62286571D01*
X115704857Y-62334190D01*
X115323904Y-62334190D01*
X116228666Y-61810380D02*
X116895333Y-61810380D01*
X116466761Y-62810380D01*
X121863380Y-53617666D02*
X121387190Y-53951000D01*
X121863380Y-54189095D02*
X120863380Y-54189095D01*
X120863380Y-53808142D01*
X120911000Y-53712904D01*
X120958619Y-53665285D01*
X121053857Y-53617666D01*
X121196714Y-53617666D01*
X121291952Y-53665285D01*
X121339571Y-53712904D01*
X121387190Y-53808142D01*
X121387190Y-54189095D01*
X120863380Y-52712904D02*
X120863380Y-53189095D01*
X121339571Y-53236714D01*
X121291952Y-53189095D01*
X121244333Y-53093857D01*
X121244333Y-52855761D01*
X121291952Y-52760523D01*
X121339571Y-52712904D01*
X121434809Y-52665285D01*
X121672904Y-52665285D01*
X121768142Y-52712904D01*
X121815761Y-52760523D01*
X121863380Y-52855761D01*
X121863380Y-53093857D01*
X121815761Y-53189095D01*
X121768142Y-53236714D01*
X125025161Y-68670419D02*
X124929923Y-68622800D01*
X124834685Y-68527561D01*
X124691828Y-68384704D01*
X124596590Y-68337085D01*
X124501352Y-68337085D01*
X124548971Y-68575180D02*
X124453733Y-68527561D01*
X124358495Y-68432323D01*
X124310876Y-68241847D01*
X124310876Y-67908514D01*
X124358495Y-67718038D01*
X124453733Y-67622800D01*
X124548971Y-67575180D01*
X124739447Y-67575180D01*
X124834685Y-67622800D01*
X124929923Y-67718038D01*
X124977542Y-67908514D01*
X124977542Y-68241847D01*
X124929923Y-68432323D01*
X124834685Y-68527561D01*
X124739447Y-68575180D01*
X124548971Y-68575180D01*
X125358495Y-67670419D02*
X125406114Y-67622800D01*
X125501352Y-67575180D01*
X125739447Y-67575180D01*
X125834685Y-67622800D01*
X125882304Y-67670419D01*
X125929923Y-67765657D01*
X125929923Y-67860895D01*
X125882304Y-68003752D01*
X125310876Y-68575180D01*
X125929923Y-68575180D01*
X125075961Y-51246019D02*
X124980723Y-51198400D01*
X124885485Y-51103161D01*
X124742628Y-50960304D01*
X124647390Y-50912685D01*
X124552152Y-50912685D01*
X124599771Y-51150780D02*
X124504533Y-51103161D01*
X124409295Y-51007923D01*
X124361676Y-50817447D01*
X124361676Y-50484114D01*
X124409295Y-50293638D01*
X124504533Y-50198400D01*
X124599771Y-50150780D01*
X124790247Y-50150780D01*
X124885485Y-50198400D01*
X124980723Y-50293638D01*
X125028342Y-50484114D01*
X125028342Y-50817447D01*
X124980723Y-51007923D01*
X124885485Y-51103161D01*
X124790247Y-51150780D01*
X124599771Y-51150780D01*
X125980723Y-51150780D02*
X125409295Y-51150780D01*
X125695009Y-51150780D02*
X125695009Y-50150780D01*
X125599771Y-50293638D01*
X125504533Y-50388876D01*
X125409295Y-50436495D01*
X129808361Y-58059580D02*
X129475028Y-57583390D01*
X129236933Y-58059580D02*
X129236933Y-57059580D01*
X129617885Y-57059580D01*
X129713123Y-57107200D01*
X129760742Y-57154819D01*
X129808361Y-57250057D01*
X129808361Y-57392914D01*
X129760742Y-57488152D01*
X129713123Y-57535771D01*
X129617885Y-57583390D01*
X129236933Y-57583390D01*
X130094076Y-57059580D02*
X130427409Y-58059580D01*
X130760742Y-57059580D01*
X131617885Y-58059580D02*
X131046457Y-58059580D01*
X131332171Y-58059580D02*
X131332171Y-57059580D01*
X131236933Y-57202438D01*
X131141695Y-57297676D01*
X131046457Y-57345295D01*
X138060133Y-54147980D02*
X137726800Y-53671790D01*
X137488704Y-54147980D02*
X137488704Y-53147980D01*
X137869657Y-53147980D01*
X137964895Y-53195600D01*
X138012514Y-53243219D01*
X138060133Y-53338457D01*
X138060133Y-53481314D01*
X138012514Y-53576552D01*
X137964895Y-53624171D01*
X137869657Y-53671790D01*
X137488704Y-53671790D01*
X139012514Y-54147980D02*
X138441085Y-54147980D01*
X138726800Y-54147980D02*
X138726800Y-53147980D01*
X138631561Y-53290838D01*
X138536323Y-53386076D01*
X138441085Y-53433695D01*
X144040266Y-69162380D02*
X144040266Y-69876666D01*
X143992647Y-70019523D01*
X143897409Y-70114761D01*
X143754552Y-70162380D01*
X143659314Y-70162380D01*
X144945028Y-69162380D02*
X144754552Y-69162380D01*
X144659314Y-69210000D01*
X144611695Y-69257619D01*
X144516457Y-69400476D01*
X144468838Y-69590952D01*
X144468838Y-69971904D01*
X144516457Y-70067142D01*
X144564076Y-70114761D01*
X144659314Y-70162380D01*
X144849790Y-70162380D01*
X144945028Y-70114761D01*
X144992647Y-70067142D01*
X145040266Y-69971904D01*
X145040266Y-69733809D01*
X144992647Y-69638571D01*
X144945028Y-69590952D01*
X144849790Y-69543333D01*
X144659314Y-69543333D01*
X144564076Y-69590952D01*
X144516457Y-69638571D01*
X144468838Y-69733809D01*
X143989466Y-59916780D02*
X143989466Y-60631066D01*
X143941847Y-60773923D01*
X143846609Y-60869161D01*
X143703752Y-60916780D01*
X143608514Y-60916780D01*
X144941847Y-59916780D02*
X144465657Y-59916780D01*
X144418038Y-60392971D01*
X144465657Y-60345352D01*
X144560895Y-60297733D01*
X144798990Y-60297733D01*
X144894228Y-60345352D01*
X144941847Y-60392971D01*
X144989466Y-60488209D01*
X144989466Y-60726304D01*
X144941847Y-60821542D01*
X144894228Y-60869161D01*
X144798990Y-60916780D01*
X144560895Y-60916780D01*
X144465657Y-60869161D01*
X144418038Y-60821542D01*
X143989466Y-51636380D02*
X143989466Y-52350666D01*
X143941847Y-52493523D01*
X143846609Y-52588761D01*
X143703752Y-52636380D01*
X143608514Y-52636380D01*
X144894228Y-51969714D02*
X144894228Y-52636380D01*
X144656133Y-51588761D02*
X144418038Y-52303047D01*
X145037085Y-52303047D01*
X83588266Y-51483980D02*
X83588266Y-52198266D01*
X83540647Y-52341123D01*
X83445409Y-52436361D01*
X83302552Y-52483980D01*
X83207314Y-52483980D01*
X83969219Y-51483980D02*
X84588266Y-51483980D01*
X84254933Y-51864933D01*
X84397790Y-51864933D01*
X84493028Y-51912552D01*
X84540647Y-51960171D01*
X84588266Y-52055409D01*
X84588266Y-52293504D01*
X84540647Y-52388742D01*
X84493028Y-52436361D01*
X84397790Y-52483980D01*
X84112076Y-52483980D01*
X84016838Y-52436361D01*
X83969219Y-52388742D01*
X86026666Y-60018380D02*
X86026666Y-60732666D01*
X85979047Y-60875523D01*
X85883809Y-60970761D01*
X85740952Y-61018380D01*
X85645714Y-61018380D01*
X86455238Y-60113619D02*
X86502857Y-60066000D01*
X86598095Y-60018380D01*
X86836190Y-60018380D01*
X86931428Y-60066000D01*
X86979047Y-60113619D01*
X87026666Y-60208857D01*
X87026666Y-60304095D01*
X86979047Y-60446952D01*
X86407619Y-61018380D01*
X87026666Y-61018380D01*
X83639066Y-69111580D02*
X83639066Y-69825866D01*
X83591447Y-69968723D01*
X83496209Y-70063961D01*
X83353352Y-70111580D01*
X83258114Y-70111580D01*
X84639066Y-70111580D02*
X84067638Y-70111580D01*
X84353352Y-70111580D02*
X84353352Y-69111580D01*
X84258114Y-69254438D01*
X84162876Y-69349676D01*
X84067638Y-69397295D01*
X141935295Y-33472380D02*
X141935295Y-32472380D01*
X141935295Y-32948571D02*
X142506723Y-32948571D01*
X142506723Y-33472380D02*
X142506723Y-32472380D01*
X143411485Y-32805714D02*
X143411485Y-33472380D01*
X143173390Y-32424761D02*
X142935295Y-33139047D01*
X143554342Y-33139047D01*
X142189295Y-84272380D02*
X142189295Y-83272380D01*
X142189295Y-83748571D02*
X142760723Y-83748571D01*
X142760723Y-84272380D02*
X142760723Y-83272380D01*
X143141676Y-83272380D02*
X143760723Y-83272380D01*
X143427390Y-83653333D01*
X143570247Y-83653333D01*
X143665485Y-83700952D01*
X143713104Y-83748571D01*
X143760723Y-83843809D01*
X143760723Y-84081904D01*
X143713104Y-84177142D01*
X143665485Y-84224761D01*
X143570247Y-84272380D01*
X143284533Y-84272380D01*
X143189295Y-84224761D01*
X143141676Y-84177142D01*
X87325295Y-84272380D02*
X87325295Y-83272380D01*
X87325295Y-83748571D02*
X87896723Y-83748571D01*
X87896723Y-84272380D02*
X87896723Y-83272380D01*
X88325295Y-83367619D02*
X88372914Y-83320000D01*
X88468152Y-83272380D01*
X88706247Y-83272380D01*
X88801485Y-83320000D01*
X88849104Y-83367619D01*
X88896723Y-83462857D01*
X88896723Y-83558095D01*
X88849104Y-83700952D01*
X88277676Y-84272380D01*
X88896723Y-84272380D01*
X87782495Y-33472380D02*
X87782495Y-32472380D01*
X87782495Y-32948571D02*
X88353923Y-32948571D01*
X88353923Y-33472380D02*
X88353923Y-32472380D01*
X89353923Y-33472380D02*
X88782495Y-33472380D01*
X89068209Y-33472380D02*
X89068209Y-32472380D01*
X88972971Y-32615238D01*
X88877733Y-32710476D01*
X88782495Y-32758095D01*
M02*
