G04 #@! TF.GenerationSoftware,KiCad,Pcbnew,(5.1.8-0-10_14)*
G04 #@! TF.CreationDate,2020-11-13T17:21:33+01:00*
G04 #@! TF.ProjectId,lv-lownoise-psu,6c762d6c-6f77-46e6-9f69-73652d707375,rev?*
G04 #@! TF.SameCoordinates,Original*
G04 #@! TF.FileFunction,Legend,Top*
G04 #@! TF.FilePolarity,Positive*
%FSLAX46Y46*%
G04 Gerber Fmt 4.6, Leading zero omitted, Abs format (unit mm)*
G04 Created by KiCad (PCBNEW (5.1.8-0-10_14)) date 2020-11-13 17:21:33*
%MOMM*%
%LPD*%
G01*
G04 APERTURE LIST*
%ADD10C,0.150000*%
%ADD11C,0.120000*%
G04 APERTURE END LIST*
D10*
X89504761Y-84082380D02*
X89028571Y-84082380D01*
X89028571Y-83082380D01*
X89980952Y-84082380D02*
X89885714Y-84034761D01*
X89838095Y-83987142D01*
X89790476Y-83891904D01*
X89790476Y-83606190D01*
X89838095Y-83510952D01*
X89885714Y-83463333D01*
X89980952Y-83415714D01*
X90123809Y-83415714D01*
X90219047Y-83463333D01*
X90266666Y-83510952D01*
X90314285Y-83606190D01*
X90314285Y-83891904D01*
X90266666Y-83987142D01*
X90219047Y-84034761D01*
X90123809Y-84082380D01*
X89980952Y-84082380D01*
X90647619Y-83415714D02*
X90838095Y-84082380D01*
X91028571Y-83606190D01*
X91219047Y-84082380D01*
X91409523Y-83415714D01*
X92552380Y-83415714D02*
X92552380Y-84082380D01*
X92552380Y-83510952D02*
X92599999Y-83463333D01*
X92695238Y-83415714D01*
X92838095Y-83415714D01*
X92933333Y-83463333D01*
X92980952Y-83558571D01*
X92980952Y-84082380D01*
X93599999Y-84082380D02*
X93504761Y-84034761D01*
X93457142Y-83987142D01*
X93409523Y-83891904D01*
X93409523Y-83606190D01*
X93457142Y-83510952D01*
X93504761Y-83463333D01*
X93599999Y-83415714D01*
X93742857Y-83415714D01*
X93838095Y-83463333D01*
X93885714Y-83510952D01*
X93933333Y-83606190D01*
X93933333Y-83891904D01*
X93885714Y-83987142D01*
X93838095Y-84034761D01*
X93742857Y-84082380D01*
X93599999Y-84082380D01*
X94361904Y-84082380D02*
X94361904Y-83415714D01*
X94361904Y-83082380D02*
X94314285Y-83130000D01*
X94361904Y-83177619D01*
X94409523Y-83130000D01*
X94361904Y-83082380D01*
X94361904Y-83177619D01*
X94790476Y-84034761D02*
X94885714Y-84082380D01*
X95076190Y-84082380D01*
X95171428Y-84034761D01*
X95219047Y-83939523D01*
X95219047Y-83891904D01*
X95171428Y-83796666D01*
X95076190Y-83749047D01*
X94933333Y-83749047D01*
X94838095Y-83701428D01*
X94790476Y-83606190D01*
X94790476Y-83558571D01*
X94838095Y-83463333D01*
X94933333Y-83415714D01*
X95076190Y-83415714D01*
X95171428Y-83463333D01*
X96028571Y-84034761D02*
X95933333Y-84082380D01*
X95742857Y-84082380D01*
X95647619Y-84034761D01*
X95599999Y-83939523D01*
X95599999Y-83558571D01*
X95647619Y-83463333D01*
X95742857Y-83415714D01*
X95933333Y-83415714D01*
X96028571Y-83463333D01*
X96076190Y-83558571D01*
X96076190Y-83653809D01*
X95599999Y-83749047D01*
X97695238Y-84082380D02*
X97695238Y-83082380D01*
X97695238Y-84034761D02*
X97599999Y-84082380D01*
X97409523Y-84082380D01*
X97314285Y-84034761D01*
X97266666Y-83987142D01*
X97219047Y-83891904D01*
X97219047Y-83606190D01*
X97266666Y-83510952D01*
X97314285Y-83463333D01*
X97409523Y-83415714D01*
X97599999Y-83415714D01*
X97695238Y-83463333D01*
X98599999Y-83415714D02*
X98599999Y-84082380D01*
X98171428Y-83415714D02*
X98171428Y-83939523D01*
X98219047Y-84034761D01*
X98314285Y-84082380D01*
X98457142Y-84082380D01*
X98552380Y-84034761D01*
X98599999Y-83987142D01*
X99504761Y-84082380D02*
X99504761Y-83558571D01*
X99457142Y-83463333D01*
X99361904Y-83415714D01*
X99171428Y-83415714D01*
X99076190Y-83463333D01*
X99504761Y-84034761D02*
X99409523Y-84082380D01*
X99171428Y-84082380D01*
X99076190Y-84034761D01*
X99028571Y-83939523D01*
X99028571Y-83844285D01*
X99076190Y-83749047D01*
X99171428Y-83701428D01*
X99409523Y-83701428D01*
X99504761Y-83653809D01*
X100123809Y-84082380D02*
X100028571Y-84034761D01*
X99980952Y-83939523D01*
X99980952Y-83082380D01*
X101266666Y-83415714D02*
X101266666Y-84415714D01*
X101266666Y-83463333D02*
X101361904Y-83415714D01*
X101552380Y-83415714D01*
X101647619Y-83463333D01*
X101695238Y-83510952D01*
X101742857Y-83606190D01*
X101742857Y-83891904D01*
X101695238Y-83987142D01*
X101647619Y-84034761D01*
X101552380Y-84082380D01*
X101361904Y-84082380D01*
X101266666Y-84034761D01*
X102314285Y-84082380D02*
X102219047Y-84034761D01*
X102171428Y-83987142D01*
X102123809Y-83891904D01*
X102123809Y-83606190D01*
X102171428Y-83510952D01*
X102219047Y-83463333D01*
X102314285Y-83415714D01*
X102457142Y-83415714D01*
X102552380Y-83463333D01*
X102599999Y-83510952D01*
X102647619Y-83606190D01*
X102647619Y-83891904D01*
X102599999Y-83987142D01*
X102552380Y-84034761D01*
X102457142Y-84082380D01*
X102314285Y-84082380D01*
X102980952Y-83415714D02*
X103171428Y-84082380D01*
X103361904Y-83606190D01*
X103552380Y-84082380D01*
X103742857Y-83415714D01*
X104504761Y-84034761D02*
X104409523Y-84082380D01*
X104219047Y-84082380D01*
X104123809Y-84034761D01*
X104076190Y-83939523D01*
X104076190Y-83558571D01*
X104123809Y-83463333D01*
X104219047Y-83415714D01*
X104409523Y-83415714D01*
X104504761Y-83463333D01*
X104552380Y-83558571D01*
X104552380Y-83653809D01*
X104076190Y-83749047D01*
X104980952Y-84082380D02*
X104980952Y-83415714D01*
X104980952Y-83606190D02*
X105028571Y-83510952D01*
X105076190Y-83463333D01*
X105171428Y-83415714D01*
X105266666Y-83415714D01*
X106314285Y-84034761D02*
X106409523Y-84082380D01*
X106599999Y-84082380D01*
X106695238Y-84034761D01*
X106742857Y-83939523D01*
X106742857Y-83891904D01*
X106695238Y-83796666D01*
X106599999Y-83749047D01*
X106457142Y-83749047D01*
X106361904Y-83701428D01*
X106314285Y-83606190D01*
X106314285Y-83558571D01*
X106361904Y-83463333D01*
X106457142Y-83415714D01*
X106599999Y-83415714D01*
X106695238Y-83463333D01*
X107599999Y-83415714D02*
X107599999Y-84082380D01*
X107171428Y-83415714D02*
X107171428Y-83939523D01*
X107219047Y-84034761D01*
X107314285Y-84082380D01*
X107457142Y-84082380D01*
X107552380Y-84034761D01*
X107599999Y-83987142D01*
X108076190Y-83415714D02*
X108076190Y-84415714D01*
X108076190Y-83463333D02*
X108171428Y-83415714D01*
X108361904Y-83415714D01*
X108457142Y-83463333D01*
X108504761Y-83510952D01*
X108552380Y-83606190D01*
X108552380Y-83891904D01*
X108504761Y-83987142D01*
X108457142Y-84034761D01*
X108361904Y-84082380D01*
X108171428Y-84082380D01*
X108076190Y-84034761D01*
X108980952Y-83415714D02*
X108980952Y-84415714D01*
X108980952Y-83463333D02*
X109076190Y-83415714D01*
X109266666Y-83415714D01*
X109361904Y-83463333D01*
X109409523Y-83510952D01*
X109457142Y-83606190D01*
X109457142Y-83891904D01*
X109409523Y-83987142D01*
X109361904Y-84034761D01*
X109266666Y-84082380D01*
X109076190Y-84082380D01*
X108980952Y-84034761D01*
X110028571Y-84082380D02*
X109933333Y-84034761D01*
X109885714Y-83939523D01*
X109885714Y-83082380D01*
X110314285Y-83415714D02*
X110552380Y-84082380D01*
X110790476Y-83415714D02*
X110552380Y-84082380D01*
X110457142Y-84320476D01*
X110409523Y-84368095D01*
X110314285Y-84415714D01*
X111790476Y-83082380D02*
X112123809Y-84082380D01*
X112457142Y-83082380D01*
X112695238Y-83082380D02*
X113314285Y-83082380D01*
X112980952Y-83463333D01*
X113123809Y-83463333D01*
X113219047Y-83510952D01*
X113266666Y-83558571D01*
X113314285Y-83653809D01*
X113314285Y-83891904D01*
X113266666Y-83987142D01*
X113219047Y-84034761D01*
X113123809Y-84082380D01*
X112838095Y-84082380D01*
X112742857Y-84034761D01*
X112695238Y-83987142D01*
X113742857Y-84082380D02*
X113742857Y-83082380D01*
X113742857Y-83463333D02*
X113838095Y-83415714D01*
X114028571Y-83415714D01*
X114123809Y-83463333D01*
X114171428Y-83510952D01*
X114219047Y-83606190D01*
X114219047Y-83891904D01*
X114171428Y-83987142D01*
X114123809Y-84034761D01*
X114028571Y-84082380D01*
X113838095Y-84082380D01*
X113742857Y-84034761D01*
X91076190Y-85732380D02*
X91076190Y-84732380D01*
X91409523Y-85446666D01*
X91742857Y-84732380D01*
X91742857Y-85732380D01*
X92219047Y-85732380D02*
X92219047Y-85065714D01*
X92219047Y-84732380D02*
X92171428Y-84780000D01*
X92219047Y-84827619D01*
X92266666Y-84780000D01*
X92219047Y-84732380D01*
X92219047Y-84827619D01*
X93123809Y-85684761D02*
X93028571Y-85732380D01*
X92838095Y-85732380D01*
X92742857Y-85684761D01*
X92695238Y-85637142D01*
X92647619Y-85541904D01*
X92647619Y-85256190D01*
X92695238Y-85160952D01*
X92742857Y-85113333D01*
X92838095Y-85065714D01*
X93028571Y-85065714D01*
X93123809Y-85113333D01*
X93552380Y-85732380D02*
X93552380Y-84732380D01*
X93980952Y-85732380D02*
X93980952Y-85208571D01*
X93933333Y-85113333D01*
X93838095Y-85065714D01*
X93695238Y-85065714D01*
X93600000Y-85113333D01*
X93552380Y-85160952D01*
X94885714Y-85732380D02*
X94885714Y-85208571D01*
X94838095Y-85113333D01*
X94742857Y-85065714D01*
X94552380Y-85065714D01*
X94457142Y-85113333D01*
X94885714Y-85684761D02*
X94790476Y-85732380D01*
X94552380Y-85732380D01*
X94457142Y-85684761D01*
X94409523Y-85589523D01*
X94409523Y-85494285D01*
X94457142Y-85399047D01*
X94552380Y-85351428D01*
X94790476Y-85351428D01*
X94885714Y-85303809D01*
X95742857Y-85684761D02*
X95647619Y-85732380D01*
X95457142Y-85732380D01*
X95361904Y-85684761D01*
X95314285Y-85589523D01*
X95314285Y-85208571D01*
X95361904Y-85113333D01*
X95457142Y-85065714D01*
X95647619Y-85065714D01*
X95742857Y-85113333D01*
X95790476Y-85208571D01*
X95790476Y-85303809D01*
X95314285Y-85399047D01*
X96361904Y-85732380D02*
X96266666Y-85684761D01*
X96219047Y-85589523D01*
X96219047Y-84732380D01*
X97457142Y-85684761D02*
X97600000Y-85732380D01*
X97838095Y-85732380D01*
X97933333Y-85684761D01*
X97980952Y-85637142D01*
X98028571Y-85541904D01*
X98028571Y-85446666D01*
X97980952Y-85351428D01*
X97933333Y-85303809D01*
X97838095Y-85256190D01*
X97647619Y-85208571D01*
X97552380Y-85160952D01*
X97504761Y-85113333D01*
X97457142Y-85018095D01*
X97457142Y-84922857D01*
X97504761Y-84827619D01*
X97552380Y-84780000D01*
X97647619Y-84732380D01*
X97885714Y-84732380D01*
X98028571Y-84780000D01*
X98885714Y-85684761D02*
X98790476Y-85732380D01*
X98600000Y-85732380D01*
X98504761Y-85684761D01*
X98457142Y-85637142D01*
X98409523Y-85541904D01*
X98409523Y-85256190D01*
X98457142Y-85160952D01*
X98504761Y-85113333D01*
X98600000Y-85065714D01*
X98790476Y-85065714D01*
X98885714Y-85113333D01*
X99314285Y-85732380D02*
X99314285Y-84732380D01*
X99742857Y-85732380D02*
X99742857Y-85208571D01*
X99695238Y-85113333D01*
X99600000Y-85065714D01*
X99457142Y-85065714D01*
X99361904Y-85113333D01*
X99314285Y-85160952D01*
X100600000Y-85684761D02*
X100504761Y-85732380D01*
X100314285Y-85732380D01*
X100219047Y-85684761D01*
X100171428Y-85589523D01*
X100171428Y-85208571D01*
X100219047Y-85113333D01*
X100314285Y-85065714D01*
X100504761Y-85065714D01*
X100600000Y-85113333D01*
X100647619Y-85208571D01*
X100647619Y-85303809D01*
X100171428Y-85399047D01*
X101076190Y-85065714D02*
X101076190Y-85732380D01*
X101076190Y-85160952D02*
X101123809Y-85113333D01*
X101219047Y-85065714D01*
X101361904Y-85065714D01*
X101457142Y-85113333D01*
X101504761Y-85208571D01*
X101504761Y-85732380D01*
X101980952Y-85732380D02*
X101980952Y-84732380D01*
X102076190Y-85351428D02*
X102361904Y-85732380D01*
X102361904Y-85065714D02*
X101980952Y-85446666D01*
X102838095Y-85684761D02*
X102838095Y-85732380D01*
X102790476Y-85827619D01*
X102742857Y-85875238D01*
X103980952Y-84827619D02*
X104028571Y-84780000D01*
X104123809Y-84732380D01*
X104361904Y-84732380D01*
X104457142Y-84780000D01*
X104504761Y-84827619D01*
X104552380Y-84922857D01*
X104552380Y-85018095D01*
X104504761Y-85160952D01*
X103933333Y-85732380D01*
X104552380Y-85732380D01*
X105171428Y-84732380D02*
X105266666Y-84732380D01*
X105361904Y-84780000D01*
X105409523Y-84827619D01*
X105457142Y-84922857D01*
X105504761Y-85113333D01*
X105504761Y-85351428D01*
X105457142Y-85541904D01*
X105409523Y-85637142D01*
X105361904Y-85684761D01*
X105266666Y-85732380D01*
X105171428Y-85732380D01*
X105076190Y-85684761D01*
X105028571Y-85637142D01*
X104980952Y-85541904D01*
X104933333Y-85351428D01*
X104933333Y-85113333D01*
X104980952Y-84922857D01*
X105028571Y-84827619D01*
X105076190Y-84780000D01*
X105171428Y-84732380D01*
X105885714Y-84827619D02*
X105933333Y-84780000D01*
X106028571Y-84732380D01*
X106266666Y-84732380D01*
X106361904Y-84780000D01*
X106409523Y-84827619D01*
X106457142Y-84922857D01*
X106457142Y-85018095D01*
X106409523Y-85160952D01*
X105838095Y-85732380D01*
X106457142Y-85732380D01*
X107076190Y-84732380D02*
X107171428Y-84732380D01*
X107266666Y-84780000D01*
X107314285Y-84827619D01*
X107361904Y-84922857D01*
X107409523Y-85113333D01*
X107409523Y-85351428D01*
X107361904Y-85541904D01*
X107314285Y-85637142D01*
X107266666Y-85684761D01*
X107171428Y-85732380D01*
X107076190Y-85732380D01*
X106980952Y-85684761D01*
X106933333Y-85637142D01*
X106885714Y-85541904D01*
X106838095Y-85351428D01*
X106838095Y-85113333D01*
X106885714Y-84922857D01*
X106933333Y-84827619D01*
X106980952Y-84780000D01*
X107076190Y-84732380D01*
X107838095Y-85637142D02*
X107885714Y-85684761D01*
X107838095Y-85732380D01*
X107790476Y-85684761D01*
X107838095Y-85637142D01*
X107838095Y-85732380D01*
X108838095Y-85732380D02*
X108266666Y-85732380D01*
X108552380Y-85732380D02*
X108552380Y-84732380D01*
X108457142Y-84875238D01*
X108361904Y-84970476D01*
X108266666Y-85018095D01*
X109790476Y-85732380D02*
X109219047Y-85732380D01*
X109504761Y-85732380D02*
X109504761Y-84732380D01*
X109409523Y-84875238D01*
X109314285Y-84970476D01*
X109219047Y-85018095D01*
X110219047Y-85637142D02*
X110266666Y-85684761D01*
X110219047Y-85732380D01*
X110171428Y-85684761D01*
X110219047Y-85637142D01*
X110219047Y-85732380D01*
X111219047Y-85732380D02*
X110647619Y-85732380D01*
X110933333Y-85732380D02*
X110933333Y-84732380D01*
X110838095Y-84875238D01*
X110742857Y-84970476D01*
X110647619Y-85018095D01*
X111552380Y-84732380D02*
X112171428Y-84732380D01*
X111838095Y-85113333D01*
X111980952Y-85113333D01*
X112076190Y-85160952D01*
X112123809Y-85208571D01*
X112171428Y-85303809D01*
X112171428Y-85541904D01*
X112123809Y-85637142D01*
X112076190Y-85684761D01*
X111980952Y-85732380D01*
X111695238Y-85732380D01*
X111600000Y-85684761D01*
X111552380Y-85637142D01*
X136017095Y-28964000D02*
X135921857Y-28916380D01*
X135779000Y-28916380D01*
X135636142Y-28964000D01*
X135540904Y-29059238D01*
X135493285Y-29154476D01*
X135445666Y-29344952D01*
X135445666Y-29487809D01*
X135493285Y-29678285D01*
X135540904Y-29773523D01*
X135636142Y-29868761D01*
X135779000Y-29916380D01*
X135874238Y-29916380D01*
X136017095Y-29868761D01*
X136064714Y-29821142D01*
X136064714Y-29487809D01*
X135874238Y-29487809D01*
X136493285Y-29916380D02*
X136493285Y-28916380D01*
X137064714Y-29916380D01*
X137064714Y-28916380D01*
X137540904Y-29916380D02*
X137540904Y-28916380D01*
X137779000Y-28916380D01*
X137921857Y-28964000D01*
X138017095Y-29059238D01*
X138064714Y-29154476D01*
X138112333Y-29344952D01*
X138112333Y-29487809D01*
X138064714Y-29678285D01*
X138017095Y-29773523D01*
X137921857Y-29868761D01*
X137779000Y-29916380D01*
X137540904Y-29916380D01*
X127873285Y-29535428D02*
X128635190Y-29535428D01*
X128254238Y-29916380D02*
X128254238Y-29154476D01*
X129587571Y-28916380D02*
X129111380Y-28916380D01*
X129063761Y-29392571D01*
X129111380Y-29344952D01*
X129206619Y-29297333D01*
X129444714Y-29297333D01*
X129539952Y-29344952D01*
X129587571Y-29392571D01*
X129635190Y-29487809D01*
X129635190Y-29725904D01*
X129587571Y-29821142D01*
X129539952Y-29868761D01*
X129444714Y-29916380D01*
X129206619Y-29916380D01*
X129111380Y-29868761D01*
X129063761Y-29821142D01*
X129920904Y-28916380D02*
X130254238Y-29916380D01*
X130587571Y-28916380D01*
X127619285Y-87447428D02*
X128381190Y-87447428D01*
X129333571Y-86828380D02*
X128857380Y-86828380D01*
X128809761Y-87304571D01*
X128857380Y-87256952D01*
X128952619Y-87209333D01*
X129190714Y-87209333D01*
X129285952Y-87256952D01*
X129333571Y-87304571D01*
X129381190Y-87399809D01*
X129381190Y-87637904D01*
X129333571Y-87733142D01*
X129285952Y-87780761D01*
X129190714Y-87828380D01*
X128952619Y-87828380D01*
X128857380Y-87780761D01*
X128809761Y-87733142D01*
X129666904Y-86828380D02*
X130000238Y-87828380D01*
X130333571Y-86828380D01*
X136144095Y-86876000D02*
X136048857Y-86828380D01*
X135906000Y-86828380D01*
X135763142Y-86876000D01*
X135667904Y-86971238D01*
X135620285Y-87066476D01*
X135572666Y-87256952D01*
X135572666Y-87399809D01*
X135620285Y-87590285D01*
X135667904Y-87685523D01*
X135763142Y-87780761D01*
X135906000Y-87828380D01*
X136001238Y-87828380D01*
X136144095Y-87780761D01*
X136191714Y-87733142D01*
X136191714Y-87399809D01*
X136001238Y-87399809D01*
X136620285Y-87828380D02*
X136620285Y-86828380D01*
X137191714Y-87828380D01*
X137191714Y-86828380D01*
X137667904Y-87828380D02*
X137667904Y-86828380D01*
X137906000Y-86828380D01*
X138048857Y-86876000D01*
X138144095Y-86971238D01*
X138191714Y-87066476D01*
X138239333Y-87256952D01*
X138239333Y-87399809D01*
X138191714Y-87590285D01*
X138144095Y-87685523D01*
X138048857Y-87780761D01*
X137906000Y-87828380D01*
X137667904Y-87828380D01*
X93091095Y-29091000D02*
X92995857Y-29043380D01*
X92853000Y-29043380D01*
X92710142Y-29091000D01*
X92614904Y-29186238D01*
X92567285Y-29281476D01*
X92519666Y-29471952D01*
X92519666Y-29614809D01*
X92567285Y-29805285D01*
X92614904Y-29900523D01*
X92710142Y-29995761D01*
X92853000Y-30043380D01*
X92948238Y-30043380D01*
X93091095Y-29995761D01*
X93138714Y-29948142D01*
X93138714Y-29614809D01*
X92948238Y-29614809D01*
X93567285Y-30043380D02*
X93567285Y-29043380D01*
X94138714Y-30043380D01*
X94138714Y-29043380D01*
X94614904Y-30043380D02*
X94614904Y-29043380D01*
X94853000Y-29043380D01*
X94995857Y-29091000D01*
X95091095Y-29186238D01*
X95138714Y-29281476D01*
X95186333Y-29471952D01*
X95186333Y-29614809D01*
X95138714Y-29805285D01*
X95091095Y-29900523D01*
X94995857Y-29995761D01*
X94853000Y-30043380D01*
X94614904Y-30043380D01*
X100957142Y-30043380D02*
X100480952Y-30043380D01*
X100480952Y-29043380D01*
X101290476Y-29519571D02*
X101623809Y-29519571D01*
X101766666Y-30043380D02*
X101290476Y-30043380D01*
X101290476Y-29043380D01*
X101766666Y-29043380D01*
X102195238Y-30043380D02*
X102195238Y-29043380D01*
X102433333Y-29043380D01*
X102576190Y-29091000D01*
X102671428Y-29186238D01*
X102719047Y-29281476D01*
X102766666Y-29471952D01*
X102766666Y-29614809D01*
X102719047Y-29805285D01*
X102671428Y-29900523D01*
X102576190Y-29995761D01*
X102433333Y-30043380D01*
X102195238Y-30043380D01*
X92409714Y-37663380D02*
X92409714Y-36996714D01*
X92409714Y-37091952D02*
X92457333Y-37044333D01*
X92552571Y-36996714D01*
X92695428Y-36996714D01*
X92790666Y-37044333D01*
X92838285Y-37139571D01*
X92838285Y-37663380D01*
X92838285Y-37139571D02*
X92885904Y-37044333D01*
X92981142Y-36996714D01*
X93124000Y-36996714D01*
X93219238Y-37044333D01*
X93266857Y-37139571D01*
X93266857Y-37663380D01*
X93743047Y-37663380D02*
X93743047Y-36996714D01*
X93743047Y-36663380D02*
X93695428Y-36711000D01*
X93743047Y-36758619D01*
X93790666Y-36711000D01*
X93743047Y-36663380D01*
X93743047Y-36758619D01*
X94647809Y-37615761D02*
X94552571Y-37663380D01*
X94362095Y-37663380D01*
X94266857Y-37615761D01*
X94219238Y-37568142D01*
X94171619Y-37472904D01*
X94171619Y-37187190D01*
X94219238Y-37091952D01*
X94266857Y-37044333D01*
X94362095Y-36996714D01*
X94552571Y-36996714D01*
X94647809Y-37044333D01*
X95076380Y-37663380D02*
X95076380Y-36663380D01*
X95504952Y-37663380D02*
X95504952Y-37139571D01*
X95457333Y-37044333D01*
X95362095Y-36996714D01*
X95219238Y-36996714D01*
X95124000Y-37044333D01*
X95076380Y-37091952D01*
X96409714Y-37663380D02*
X96409714Y-37139571D01*
X96362095Y-37044333D01*
X96266857Y-36996714D01*
X96076380Y-36996714D01*
X95981142Y-37044333D01*
X96409714Y-37615761D02*
X96314476Y-37663380D01*
X96076380Y-37663380D01*
X95981142Y-37615761D01*
X95933523Y-37520523D01*
X95933523Y-37425285D01*
X95981142Y-37330047D01*
X96076380Y-37282428D01*
X96314476Y-37282428D01*
X96409714Y-37234809D01*
X97266857Y-37615761D02*
X97171619Y-37663380D01*
X96981142Y-37663380D01*
X96885904Y-37615761D01*
X96838285Y-37520523D01*
X96838285Y-37139571D01*
X96885904Y-37044333D01*
X96981142Y-36996714D01*
X97171619Y-36996714D01*
X97266857Y-37044333D01*
X97314476Y-37139571D01*
X97314476Y-37234809D01*
X96838285Y-37330047D01*
X97885904Y-37663380D02*
X97790666Y-37615761D01*
X97743047Y-37520523D01*
X97743047Y-36663380D01*
X98219238Y-37615761D02*
X98314476Y-37663380D01*
X98504952Y-37663380D01*
X98600190Y-37615761D01*
X98647809Y-37520523D01*
X98647809Y-37472904D01*
X98600190Y-37377666D01*
X98504952Y-37330047D01*
X98362095Y-37330047D01*
X98266857Y-37282428D01*
X98219238Y-37187190D01*
X98219238Y-37139571D01*
X98266857Y-37044333D01*
X98362095Y-36996714D01*
X98504952Y-36996714D01*
X98600190Y-37044333D01*
X99504952Y-37615761D02*
X99409714Y-37663380D01*
X99219238Y-37663380D01*
X99124000Y-37615761D01*
X99076380Y-37568142D01*
X99028761Y-37472904D01*
X99028761Y-37187190D01*
X99076380Y-37091952D01*
X99124000Y-37044333D01*
X99219238Y-36996714D01*
X99409714Y-36996714D01*
X99504952Y-37044333D01*
X99933523Y-37663380D02*
X99933523Y-36663380D01*
X100362095Y-37663380D02*
X100362095Y-37139571D01*
X100314476Y-37044333D01*
X100219238Y-36996714D01*
X100076380Y-36996714D01*
X99981142Y-37044333D01*
X99933523Y-37091952D01*
X101219238Y-37615761D02*
X101124000Y-37663380D01*
X100933523Y-37663380D01*
X100838285Y-37615761D01*
X100790666Y-37520523D01*
X100790666Y-37139571D01*
X100838285Y-37044333D01*
X100933523Y-36996714D01*
X101124000Y-36996714D01*
X101219238Y-37044333D01*
X101266857Y-37139571D01*
X101266857Y-37234809D01*
X100790666Y-37330047D01*
X101695428Y-36996714D02*
X101695428Y-37663380D01*
X101695428Y-37091952D02*
X101743047Y-37044333D01*
X101838285Y-36996714D01*
X101981142Y-36996714D01*
X102076380Y-37044333D01*
X102124000Y-37139571D01*
X102124000Y-37663380D01*
X102600190Y-37663380D02*
X102600190Y-36663380D01*
X102695428Y-37282428D02*
X102981142Y-37663380D01*
X102981142Y-36996714D02*
X102600190Y-37377666D01*
X103314476Y-36663380D02*
X103981142Y-36663380D01*
X103552571Y-37663380D01*
X104314476Y-36758619D02*
X104362095Y-36711000D01*
X104457333Y-36663380D01*
X104695428Y-36663380D01*
X104790666Y-36711000D01*
X104838285Y-36758619D01*
X104885904Y-36853857D01*
X104885904Y-36949095D01*
X104838285Y-37091952D01*
X104266857Y-37663380D01*
X104885904Y-37663380D01*
X105933523Y-37187190D02*
X105885904Y-37139571D01*
X105790666Y-37091952D01*
X105695428Y-37091952D01*
X105600190Y-37139571D01*
X105552571Y-37187190D01*
X105504952Y-37282428D01*
X105504952Y-37377666D01*
X105552571Y-37472904D01*
X105600190Y-37520523D01*
X105695428Y-37568142D01*
X105790666Y-37568142D01*
X105885904Y-37520523D01*
X105933523Y-37472904D01*
X105933523Y-37091952D02*
X105933523Y-37472904D01*
X105981142Y-37520523D01*
X106028761Y-37520523D01*
X106124000Y-37472904D01*
X106171619Y-37377666D01*
X106171619Y-37139571D01*
X106076380Y-36996714D01*
X105933523Y-36901476D01*
X105743047Y-36853857D01*
X105552571Y-36901476D01*
X105409714Y-36996714D01*
X105314476Y-37139571D01*
X105266857Y-37330047D01*
X105314476Y-37520523D01*
X105409714Y-37663380D01*
X105552571Y-37758619D01*
X105743047Y-37806238D01*
X105933523Y-37758619D01*
X106076380Y-37663380D01*
X107028761Y-36996714D02*
X107028761Y-37806238D01*
X106981142Y-37901476D01*
X106933523Y-37949095D01*
X106838285Y-37996714D01*
X106695428Y-37996714D01*
X106600190Y-37949095D01*
X107028761Y-37615761D02*
X106933523Y-37663380D01*
X106743047Y-37663380D01*
X106647809Y-37615761D01*
X106600190Y-37568142D01*
X106552571Y-37472904D01*
X106552571Y-37187190D01*
X106600190Y-37091952D01*
X106647809Y-37044333D01*
X106743047Y-36996714D01*
X106933523Y-36996714D01*
X107028761Y-37044333D01*
X107504952Y-37663380D02*
X107504952Y-36996714D01*
X107504952Y-37091952D02*
X107552571Y-37044333D01*
X107647809Y-36996714D01*
X107790666Y-36996714D01*
X107885904Y-37044333D01*
X107933523Y-37139571D01*
X107933523Y-37663380D01*
X107933523Y-37139571D02*
X107981142Y-37044333D01*
X108076380Y-36996714D01*
X108219238Y-36996714D01*
X108314476Y-37044333D01*
X108362095Y-37139571D01*
X108362095Y-37663380D01*
X109266857Y-37663380D02*
X109266857Y-37139571D01*
X109219238Y-37044333D01*
X109124000Y-36996714D01*
X108933523Y-36996714D01*
X108838285Y-37044333D01*
X109266857Y-37615761D02*
X109171619Y-37663380D01*
X108933523Y-37663380D01*
X108838285Y-37615761D01*
X108790666Y-37520523D01*
X108790666Y-37425285D01*
X108838285Y-37330047D01*
X108933523Y-37282428D01*
X109171619Y-37282428D01*
X109266857Y-37234809D01*
X109743047Y-37663380D02*
X109743047Y-36996714D01*
X109743047Y-36663380D02*
X109695428Y-36711000D01*
X109743047Y-36758619D01*
X109790666Y-36711000D01*
X109743047Y-36663380D01*
X109743047Y-36758619D01*
X110362095Y-37663380D02*
X110266857Y-37615761D01*
X110219238Y-37520523D01*
X110219238Y-36663380D01*
X110743047Y-37568142D02*
X110790666Y-37615761D01*
X110743047Y-37663380D01*
X110695428Y-37615761D01*
X110743047Y-37568142D01*
X110743047Y-37663380D01*
X111647809Y-37615761D02*
X111552571Y-37663380D01*
X111362095Y-37663380D01*
X111266857Y-37615761D01*
X111219238Y-37568142D01*
X111171619Y-37472904D01*
X111171619Y-37187190D01*
X111219238Y-37091952D01*
X111266857Y-37044333D01*
X111362095Y-36996714D01*
X111552571Y-36996714D01*
X111647809Y-37044333D01*
X112219238Y-37663380D02*
X112124000Y-37615761D01*
X112076380Y-37568142D01*
X112028761Y-37472904D01*
X112028761Y-37187190D01*
X112076380Y-37091952D01*
X112124000Y-37044333D01*
X112219238Y-36996714D01*
X112362095Y-36996714D01*
X112457333Y-37044333D01*
X112504952Y-37091952D01*
X112552571Y-37187190D01*
X112552571Y-37472904D01*
X112504952Y-37568142D01*
X112457333Y-37615761D01*
X112362095Y-37663380D01*
X112219238Y-37663380D01*
X112981142Y-37663380D02*
X112981142Y-36996714D01*
X112981142Y-37091952D02*
X113028761Y-37044333D01*
X113124000Y-36996714D01*
X113266857Y-36996714D01*
X113362095Y-37044333D01*
X113409714Y-37139571D01*
X113409714Y-37663380D01*
X113409714Y-37139571D02*
X113457333Y-37044333D01*
X113552571Y-36996714D01*
X113695428Y-36996714D01*
X113790666Y-37044333D01*
X113838285Y-37139571D01*
X113838285Y-37663380D01*
X82042095Y-57793000D02*
X81946857Y-57745380D01*
X81804000Y-57745380D01*
X81661142Y-57793000D01*
X81565904Y-57888238D01*
X81518285Y-57983476D01*
X81470666Y-58173952D01*
X81470666Y-58316809D01*
X81518285Y-58507285D01*
X81565904Y-58602523D01*
X81661142Y-58697761D01*
X81804000Y-58745380D01*
X81899238Y-58745380D01*
X82042095Y-58697761D01*
X82089714Y-58650142D01*
X82089714Y-58316809D01*
X81899238Y-58316809D01*
X82518285Y-58745380D02*
X82518285Y-57745380D01*
X83089714Y-58745380D01*
X83089714Y-57745380D01*
X83565904Y-58745380D02*
X83565904Y-57745380D01*
X83804000Y-57745380D01*
X83946857Y-57793000D01*
X84042095Y-57888238D01*
X84089714Y-57983476D01*
X84137333Y-58173952D01*
X84137333Y-58316809D01*
X84089714Y-58507285D01*
X84042095Y-58602523D01*
X83946857Y-58697761D01*
X83804000Y-58745380D01*
X83565904Y-58745380D01*
X82065904Y-67476666D02*
X82542095Y-67476666D01*
X81970666Y-67762380D02*
X82304000Y-66762380D01*
X82637333Y-67762380D01*
X83542095Y-67667142D02*
X83494476Y-67714761D01*
X83351619Y-67762380D01*
X83256380Y-67762380D01*
X83113523Y-67714761D01*
X83018285Y-67619523D01*
X82970666Y-67524285D01*
X82923047Y-67333809D01*
X82923047Y-67190952D01*
X82970666Y-67000476D01*
X83018285Y-66905238D01*
X83113523Y-66810000D01*
X83256380Y-66762380D01*
X83351619Y-66762380D01*
X83494476Y-66810000D01*
X83542095Y-66857619D01*
X82065904Y-49823666D02*
X82542095Y-49823666D01*
X81970666Y-50109380D02*
X82304000Y-49109380D01*
X82637333Y-50109380D01*
X83542095Y-50014142D02*
X83494476Y-50061761D01*
X83351619Y-50109380D01*
X83256380Y-50109380D01*
X83113523Y-50061761D01*
X83018285Y-49966523D01*
X82970666Y-49871285D01*
X82923047Y-49680809D01*
X82923047Y-49537952D01*
X82970666Y-49347476D01*
X83018285Y-49252238D01*
X83113523Y-49157000D01*
X83256380Y-49109380D01*
X83351619Y-49109380D01*
X83494476Y-49157000D01*
X83542095Y-49204619D01*
X146675695Y-67432228D02*
X147437600Y-67432228D01*
X148437600Y-67813180D02*
X147866171Y-67813180D01*
X148151885Y-67813180D02*
X148151885Y-66813180D01*
X148056647Y-66956038D01*
X147961409Y-67051276D01*
X147866171Y-67098895D01*
X149342361Y-66813180D02*
X148866171Y-66813180D01*
X148818552Y-67289371D01*
X148866171Y-67241752D01*
X148961409Y-67194133D01*
X149199504Y-67194133D01*
X149294742Y-67241752D01*
X149342361Y-67289371D01*
X149389980Y-67384609D01*
X149389980Y-67622704D01*
X149342361Y-67717942D01*
X149294742Y-67765561D01*
X149199504Y-67813180D01*
X148961409Y-67813180D01*
X148866171Y-67765561D01*
X148818552Y-67717942D01*
X149675695Y-66813180D02*
X150009028Y-67813180D01*
X150342361Y-66813180D01*
X147828095Y-57615200D02*
X147732857Y-57567580D01*
X147590000Y-57567580D01*
X147447142Y-57615200D01*
X147351904Y-57710438D01*
X147304285Y-57805676D01*
X147256666Y-57996152D01*
X147256666Y-58139009D01*
X147304285Y-58329485D01*
X147351904Y-58424723D01*
X147447142Y-58519961D01*
X147590000Y-58567580D01*
X147685238Y-58567580D01*
X147828095Y-58519961D01*
X147875714Y-58472342D01*
X147875714Y-58139009D01*
X147685238Y-58139009D01*
X148304285Y-58567580D02*
X148304285Y-57567580D01*
X148875714Y-58567580D01*
X148875714Y-57567580D01*
X149351904Y-58567580D02*
X149351904Y-57567580D01*
X149590000Y-57567580D01*
X149732857Y-57615200D01*
X149828095Y-57710438D01*
X149875714Y-57805676D01*
X149923333Y-57996152D01*
X149923333Y-58139009D01*
X149875714Y-58329485D01*
X149828095Y-58424723D01*
X149732857Y-58519961D01*
X149590000Y-58567580D01*
X149351904Y-58567580D01*
X146726495Y-49855428D02*
X147488400Y-49855428D01*
X147107447Y-50236380D02*
X147107447Y-49474476D01*
X148488400Y-50236380D02*
X147916971Y-50236380D01*
X148202685Y-50236380D02*
X148202685Y-49236380D01*
X148107447Y-49379238D01*
X148012209Y-49474476D01*
X147916971Y-49522095D01*
X149393161Y-49236380D02*
X148916971Y-49236380D01*
X148869352Y-49712571D01*
X148916971Y-49664952D01*
X149012209Y-49617333D01*
X149250304Y-49617333D01*
X149345542Y-49664952D01*
X149393161Y-49712571D01*
X149440780Y-49807809D01*
X149440780Y-50045904D01*
X149393161Y-50141142D01*
X149345542Y-50188761D01*
X149250304Y-50236380D01*
X149012209Y-50236380D01*
X148916971Y-50188761D01*
X148869352Y-50141142D01*
X149726495Y-49236380D02*
X150059828Y-50236380D01*
X150393161Y-49236380D01*
D11*
X129886600Y-66151900D02*
X127011600Y-66151900D01*
X129886600Y-66151900D02*
X131386600Y-66151900D01*
X129886600Y-70371900D02*
X128386600Y-70371900D01*
X129886600Y-70371900D02*
X131386600Y-70371900D01*
X126719698Y-35735000D02*
X126719698Y-34935000D01*
X127119698Y-35335000D02*
X126319698Y-35335000D01*
X118629000Y-33553000D02*
X118629000Y-32487000D01*
X118669000Y-33788000D02*
X118669000Y-32252000D01*
X118709000Y-33968000D02*
X118709000Y-32072000D01*
X118749000Y-34118000D02*
X118749000Y-31922000D01*
X118789000Y-34249000D02*
X118789000Y-31791000D01*
X118829000Y-34366000D02*
X118829000Y-31674000D01*
X118869000Y-34473000D02*
X118869000Y-31567000D01*
X118909000Y-34572000D02*
X118909000Y-31468000D01*
X118949000Y-34665000D02*
X118949000Y-31375000D01*
X118989000Y-34751000D02*
X118989000Y-31289000D01*
X119029000Y-34833000D02*
X119029000Y-31207000D01*
X119069000Y-34910000D02*
X119069000Y-31130000D01*
X119109000Y-34984000D02*
X119109000Y-31056000D01*
X119149000Y-35054000D02*
X119149000Y-30986000D01*
X119189000Y-35122000D02*
X119189000Y-30918000D01*
X119229000Y-35186000D02*
X119229000Y-30854000D01*
X119269000Y-35248000D02*
X119269000Y-30792000D01*
X119309000Y-35307000D02*
X119309000Y-30733000D01*
X119349000Y-35365000D02*
X119349000Y-30675000D01*
X119389000Y-35420000D02*
X119389000Y-30620000D01*
X119429000Y-35474000D02*
X119429000Y-30566000D01*
X119469000Y-35525000D02*
X119469000Y-30515000D01*
X119509000Y-35576000D02*
X119509000Y-30464000D01*
X119549000Y-35624000D02*
X119549000Y-30416000D01*
X119589000Y-35671000D02*
X119589000Y-30369000D01*
X119629000Y-35717000D02*
X119629000Y-30323000D01*
X119669000Y-35761000D02*
X119669000Y-30279000D01*
X119709000Y-35804000D02*
X119709000Y-30236000D01*
X119749000Y-35846000D02*
X119749000Y-30194000D01*
X119789000Y-35887000D02*
X119789000Y-30153000D01*
X119829000Y-35927000D02*
X119829000Y-30113000D01*
X119869000Y-35965000D02*
X119869000Y-30075000D01*
X119909000Y-36003000D02*
X119909000Y-30037000D01*
X119949000Y-31980000D02*
X119949000Y-30001000D01*
X119949000Y-36039000D02*
X119949000Y-34060000D01*
X119989000Y-31980000D02*
X119989000Y-29965000D01*
X119989000Y-36075000D02*
X119989000Y-34060000D01*
X120029000Y-31980000D02*
X120029000Y-29930000D01*
X120029000Y-36110000D02*
X120029000Y-34060000D01*
X120069000Y-31980000D02*
X120069000Y-29896000D01*
X120069000Y-36144000D02*
X120069000Y-34060000D01*
X120109000Y-31980000D02*
X120109000Y-29864000D01*
X120109000Y-36176000D02*
X120109000Y-34060000D01*
X120149000Y-31980000D02*
X120149000Y-29831000D01*
X120149000Y-36209000D02*
X120149000Y-34060000D01*
X120189000Y-31980000D02*
X120189000Y-29800000D01*
X120189000Y-36240000D02*
X120189000Y-34060000D01*
X120229000Y-31980000D02*
X120229000Y-29770000D01*
X120229000Y-36270000D02*
X120229000Y-34060000D01*
X120269000Y-31980000D02*
X120269000Y-29740000D01*
X120269000Y-36300000D02*
X120269000Y-34060000D01*
X120309000Y-31980000D02*
X120309000Y-29711000D01*
X120309000Y-36329000D02*
X120309000Y-34060000D01*
X120349000Y-31980000D02*
X120349000Y-29682000D01*
X120349000Y-36358000D02*
X120349000Y-34060000D01*
X120389000Y-31980000D02*
X120389000Y-29655000D01*
X120389000Y-36385000D02*
X120389000Y-34060000D01*
X120429000Y-31980000D02*
X120429000Y-29628000D01*
X120429000Y-36412000D02*
X120429000Y-34060000D01*
X120469000Y-31980000D02*
X120469000Y-29602000D01*
X120469000Y-36438000D02*
X120469000Y-34060000D01*
X120509000Y-31980000D02*
X120509000Y-29576000D01*
X120509000Y-36464000D02*
X120509000Y-34060000D01*
X120549000Y-31980000D02*
X120549000Y-29551000D01*
X120549000Y-36489000D02*
X120549000Y-34060000D01*
X120589000Y-31980000D02*
X120589000Y-29527000D01*
X120589000Y-36513000D02*
X120589000Y-34060000D01*
X120629000Y-31980000D02*
X120629000Y-29503000D01*
X120629000Y-36537000D02*
X120629000Y-34060000D01*
X120669000Y-31980000D02*
X120669000Y-29480000D01*
X120669000Y-36560000D02*
X120669000Y-34060000D01*
X120709000Y-31980000D02*
X120709000Y-29458000D01*
X120709000Y-36582000D02*
X120709000Y-34060000D01*
X120749000Y-31980000D02*
X120749000Y-29436000D01*
X120749000Y-36604000D02*
X120749000Y-34060000D01*
X120789000Y-31980000D02*
X120789000Y-29414000D01*
X120789000Y-36626000D02*
X120789000Y-34060000D01*
X120829000Y-31980000D02*
X120829000Y-29393000D01*
X120829000Y-36647000D02*
X120829000Y-34060000D01*
X120869000Y-31980000D02*
X120869000Y-29373000D01*
X120869000Y-36667000D02*
X120869000Y-34060000D01*
X120909000Y-31980000D02*
X120909000Y-29354000D01*
X120909000Y-36686000D02*
X120909000Y-34060000D01*
X120949000Y-31980000D02*
X120949000Y-29334000D01*
X120949000Y-36706000D02*
X120949000Y-34060000D01*
X120989000Y-31980000D02*
X120989000Y-29316000D01*
X120989000Y-36724000D02*
X120989000Y-34060000D01*
X121029000Y-31980000D02*
X121029000Y-29298000D01*
X121029000Y-36742000D02*
X121029000Y-34060000D01*
X121069000Y-31980000D02*
X121069000Y-29280000D01*
X121069000Y-36760000D02*
X121069000Y-34060000D01*
X121109000Y-31980000D02*
X121109000Y-29263000D01*
X121109000Y-36777000D02*
X121109000Y-34060000D01*
X121149000Y-31980000D02*
X121149000Y-29246000D01*
X121149000Y-36794000D02*
X121149000Y-34060000D01*
X121189000Y-31980000D02*
X121189000Y-29230000D01*
X121189000Y-36810000D02*
X121189000Y-34060000D01*
X121229000Y-31980000D02*
X121229000Y-29215000D01*
X121229000Y-36825000D02*
X121229000Y-34060000D01*
X121269000Y-31980000D02*
X121269000Y-29199000D01*
X121269000Y-36841000D02*
X121269000Y-34060000D01*
X121309000Y-31980000D02*
X121309000Y-29185000D01*
X121309000Y-36855000D02*
X121309000Y-34060000D01*
X121349000Y-31980000D02*
X121349000Y-29170000D01*
X121349000Y-36870000D02*
X121349000Y-34060000D01*
X121389000Y-31980000D02*
X121389000Y-29157000D01*
X121389000Y-36883000D02*
X121389000Y-34060000D01*
X121429000Y-31980000D02*
X121429000Y-29143000D01*
X121429000Y-36897000D02*
X121429000Y-34060000D01*
X121469000Y-31980000D02*
X121469000Y-29131000D01*
X121469000Y-36909000D02*
X121469000Y-34060000D01*
X121509000Y-31980000D02*
X121509000Y-29118000D01*
X121509000Y-36922000D02*
X121509000Y-34060000D01*
X121549000Y-31980000D02*
X121549000Y-29106000D01*
X121549000Y-36934000D02*
X121549000Y-34060000D01*
X121589000Y-31980000D02*
X121589000Y-29095000D01*
X121589000Y-36945000D02*
X121589000Y-34060000D01*
X121629000Y-31980000D02*
X121629000Y-29084000D01*
X121629000Y-36956000D02*
X121629000Y-34060000D01*
X121669000Y-31980000D02*
X121669000Y-29073000D01*
X121669000Y-36967000D02*
X121669000Y-34060000D01*
X121709000Y-31980000D02*
X121709000Y-29063000D01*
X121709000Y-36977000D02*
X121709000Y-34060000D01*
X121749000Y-31980000D02*
X121749000Y-29053000D01*
X121749000Y-36987000D02*
X121749000Y-34060000D01*
X121789000Y-31980000D02*
X121789000Y-29044000D01*
X121789000Y-36996000D02*
X121789000Y-34060000D01*
X121829000Y-31980000D02*
X121829000Y-29035000D01*
X121829000Y-37005000D02*
X121829000Y-34060000D01*
X121869000Y-31980000D02*
X121869000Y-29026000D01*
X121869000Y-37014000D02*
X121869000Y-34060000D01*
X121909000Y-31980000D02*
X121909000Y-29018000D01*
X121909000Y-37022000D02*
X121909000Y-34060000D01*
X121949000Y-31980000D02*
X121949000Y-29010000D01*
X121949000Y-37030000D02*
X121949000Y-34060000D01*
X121989000Y-31980000D02*
X121989000Y-29003000D01*
X121989000Y-37037000D02*
X121989000Y-34060000D01*
X122030000Y-37044000D02*
X122030000Y-28996000D01*
X122070000Y-37050000D02*
X122070000Y-28990000D01*
X122110000Y-37057000D02*
X122110000Y-28983000D01*
X122150000Y-37062000D02*
X122150000Y-28978000D01*
X122190000Y-37068000D02*
X122190000Y-28972000D01*
X122230000Y-37072000D02*
X122230000Y-28968000D01*
X122270000Y-37077000D02*
X122270000Y-28963000D01*
X122310000Y-37081000D02*
X122310000Y-28959000D01*
X122350000Y-37085000D02*
X122350000Y-28955000D01*
X122390000Y-37088000D02*
X122390000Y-28952000D01*
X122430000Y-37091000D02*
X122430000Y-28949000D01*
X122470000Y-37094000D02*
X122470000Y-28946000D01*
X122510000Y-37096000D02*
X122510000Y-28944000D01*
X122550000Y-37097000D02*
X122550000Y-28943000D01*
X122590000Y-37099000D02*
X122590000Y-28941000D01*
X122630000Y-37100000D02*
X122630000Y-28940000D01*
X122670000Y-37100000D02*
X122670000Y-28940000D01*
X122710000Y-37100000D02*
X122710000Y-28940000D01*
X126830000Y-33020000D02*
G75*
G03*
X126830000Y-33020000I-4120000J0D01*
G01*
X121464000Y-70613748D02*
X121464000Y-71136252D01*
X122884000Y-70613748D02*
X122884000Y-71136252D01*
X118987500Y-70613748D02*
X118987500Y-71136252D01*
X120407500Y-70613748D02*
X120407500Y-71136252D01*
X123011000Y-45195748D02*
X123011000Y-45718252D01*
X121591000Y-45195748D02*
X121591000Y-45718252D01*
X120471000Y-45195748D02*
X120471000Y-45718252D01*
X119051000Y-45195748D02*
X119051000Y-45718252D01*
X94599000Y-62606000D02*
X96369000Y-62606000D01*
X96369000Y-62606000D02*
X96369000Y-54006000D01*
X96369000Y-54006000D02*
X90829000Y-54006000D01*
X90829000Y-54006000D02*
X90829000Y-62606000D01*
X90829000Y-62606000D02*
X92599000Y-62606000D01*
X92599000Y-62606000D02*
G75*
G02*
X94599000Y-62606000I1000000J0D01*
G01*
X114453302Y-79200000D02*
X114453302Y-80000000D01*
X114053302Y-79600000D02*
X114853302Y-79600000D01*
X122544000Y-81382000D02*
X122544000Y-82448000D01*
X122504000Y-81147000D02*
X122504000Y-82683000D01*
X122464000Y-80967000D02*
X122464000Y-82863000D01*
X122424000Y-80817000D02*
X122424000Y-83013000D01*
X122384000Y-80686000D02*
X122384000Y-83144000D01*
X122344000Y-80569000D02*
X122344000Y-83261000D01*
X122304000Y-80462000D02*
X122304000Y-83368000D01*
X122264000Y-80363000D02*
X122264000Y-83467000D01*
X122224000Y-80270000D02*
X122224000Y-83560000D01*
X122184000Y-80184000D02*
X122184000Y-83646000D01*
X122144000Y-80102000D02*
X122144000Y-83728000D01*
X122104000Y-80025000D02*
X122104000Y-83805000D01*
X122064000Y-79951000D02*
X122064000Y-83879000D01*
X122024000Y-79881000D02*
X122024000Y-83949000D01*
X121984000Y-79813000D02*
X121984000Y-84017000D01*
X121944000Y-79749000D02*
X121944000Y-84081000D01*
X121904000Y-79687000D02*
X121904000Y-84143000D01*
X121864000Y-79628000D02*
X121864000Y-84202000D01*
X121824000Y-79570000D02*
X121824000Y-84260000D01*
X121784000Y-79515000D02*
X121784000Y-84315000D01*
X121744000Y-79461000D02*
X121744000Y-84369000D01*
X121704000Y-79410000D02*
X121704000Y-84420000D01*
X121664000Y-79359000D02*
X121664000Y-84471000D01*
X121624000Y-79311000D02*
X121624000Y-84519000D01*
X121584000Y-79264000D02*
X121584000Y-84566000D01*
X121544000Y-79218000D02*
X121544000Y-84612000D01*
X121504000Y-79174000D02*
X121504000Y-84656000D01*
X121464000Y-79131000D02*
X121464000Y-84699000D01*
X121424000Y-79089000D02*
X121424000Y-84741000D01*
X121384000Y-79048000D02*
X121384000Y-84782000D01*
X121344000Y-79008000D02*
X121344000Y-84822000D01*
X121304000Y-78970000D02*
X121304000Y-84860000D01*
X121264000Y-78932000D02*
X121264000Y-84898000D01*
X121224000Y-82955000D02*
X121224000Y-84934000D01*
X121224000Y-78896000D02*
X121224000Y-80875000D01*
X121184000Y-82955000D02*
X121184000Y-84970000D01*
X121184000Y-78860000D02*
X121184000Y-80875000D01*
X121144000Y-82955000D02*
X121144000Y-85005000D01*
X121144000Y-78825000D02*
X121144000Y-80875000D01*
X121104000Y-82955000D02*
X121104000Y-85039000D01*
X121104000Y-78791000D02*
X121104000Y-80875000D01*
X121064000Y-82955000D02*
X121064000Y-85071000D01*
X121064000Y-78759000D02*
X121064000Y-80875000D01*
X121024000Y-82955000D02*
X121024000Y-85104000D01*
X121024000Y-78726000D02*
X121024000Y-80875000D01*
X120984000Y-82955000D02*
X120984000Y-85135000D01*
X120984000Y-78695000D02*
X120984000Y-80875000D01*
X120944000Y-82955000D02*
X120944000Y-85165000D01*
X120944000Y-78665000D02*
X120944000Y-80875000D01*
X120904000Y-82955000D02*
X120904000Y-85195000D01*
X120904000Y-78635000D02*
X120904000Y-80875000D01*
X120864000Y-82955000D02*
X120864000Y-85224000D01*
X120864000Y-78606000D02*
X120864000Y-80875000D01*
X120824000Y-82955000D02*
X120824000Y-85253000D01*
X120824000Y-78577000D02*
X120824000Y-80875000D01*
X120784000Y-82955000D02*
X120784000Y-85280000D01*
X120784000Y-78550000D02*
X120784000Y-80875000D01*
X120744000Y-82955000D02*
X120744000Y-85307000D01*
X120744000Y-78523000D02*
X120744000Y-80875000D01*
X120704000Y-82955000D02*
X120704000Y-85333000D01*
X120704000Y-78497000D02*
X120704000Y-80875000D01*
X120664000Y-82955000D02*
X120664000Y-85359000D01*
X120664000Y-78471000D02*
X120664000Y-80875000D01*
X120624000Y-82955000D02*
X120624000Y-85384000D01*
X120624000Y-78446000D02*
X120624000Y-80875000D01*
X120584000Y-82955000D02*
X120584000Y-85408000D01*
X120584000Y-78422000D02*
X120584000Y-80875000D01*
X120544000Y-82955000D02*
X120544000Y-85432000D01*
X120544000Y-78398000D02*
X120544000Y-80875000D01*
X120504000Y-82955000D02*
X120504000Y-85455000D01*
X120504000Y-78375000D02*
X120504000Y-80875000D01*
X120464000Y-82955000D02*
X120464000Y-85477000D01*
X120464000Y-78353000D02*
X120464000Y-80875000D01*
X120424000Y-82955000D02*
X120424000Y-85499000D01*
X120424000Y-78331000D02*
X120424000Y-80875000D01*
X120384000Y-82955000D02*
X120384000Y-85521000D01*
X120384000Y-78309000D02*
X120384000Y-80875000D01*
X120344000Y-82955000D02*
X120344000Y-85542000D01*
X120344000Y-78288000D02*
X120344000Y-80875000D01*
X120304000Y-82955000D02*
X120304000Y-85562000D01*
X120304000Y-78268000D02*
X120304000Y-80875000D01*
X120264000Y-82955000D02*
X120264000Y-85581000D01*
X120264000Y-78249000D02*
X120264000Y-80875000D01*
X120224000Y-82955000D02*
X120224000Y-85601000D01*
X120224000Y-78229000D02*
X120224000Y-80875000D01*
X120184000Y-82955000D02*
X120184000Y-85619000D01*
X120184000Y-78211000D02*
X120184000Y-80875000D01*
X120144000Y-82955000D02*
X120144000Y-85637000D01*
X120144000Y-78193000D02*
X120144000Y-80875000D01*
X120104000Y-82955000D02*
X120104000Y-85655000D01*
X120104000Y-78175000D02*
X120104000Y-80875000D01*
X120064000Y-82955000D02*
X120064000Y-85672000D01*
X120064000Y-78158000D02*
X120064000Y-80875000D01*
X120024000Y-82955000D02*
X120024000Y-85689000D01*
X120024000Y-78141000D02*
X120024000Y-80875000D01*
X119984000Y-82955000D02*
X119984000Y-85705000D01*
X119984000Y-78125000D02*
X119984000Y-80875000D01*
X119944000Y-82955000D02*
X119944000Y-85720000D01*
X119944000Y-78110000D02*
X119944000Y-80875000D01*
X119904000Y-82955000D02*
X119904000Y-85736000D01*
X119904000Y-78094000D02*
X119904000Y-80875000D01*
X119864000Y-82955000D02*
X119864000Y-85750000D01*
X119864000Y-78080000D02*
X119864000Y-80875000D01*
X119824000Y-82955000D02*
X119824000Y-85765000D01*
X119824000Y-78065000D02*
X119824000Y-80875000D01*
X119784000Y-82955000D02*
X119784000Y-85778000D01*
X119784000Y-78052000D02*
X119784000Y-80875000D01*
X119744000Y-82955000D02*
X119744000Y-85792000D01*
X119744000Y-78038000D02*
X119744000Y-80875000D01*
X119704000Y-82955000D02*
X119704000Y-85804000D01*
X119704000Y-78026000D02*
X119704000Y-80875000D01*
X119664000Y-82955000D02*
X119664000Y-85817000D01*
X119664000Y-78013000D02*
X119664000Y-80875000D01*
X119624000Y-82955000D02*
X119624000Y-85829000D01*
X119624000Y-78001000D02*
X119624000Y-80875000D01*
X119584000Y-82955000D02*
X119584000Y-85840000D01*
X119584000Y-77990000D02*
X119584000Y-80875000D01*
X119544000Y-82955000D02*
X119544000Y-85851000D01*
X119544000Y-77979000D02*
X119544000Y-80875000D01*
X119504000Y-82955000D02*
X119504000Y-85862000D01*
X119504000Y-77968000D02*
X119504000Y-80875000D01*
X119464000Y-82955000D02*
X119464000Y-85872000D01*
X119464000Y-77958000D02*
X119464000Y-80875000D01*
X119424000Y-82955000D02*
X119424000Y-85882000D01*
X119424000Y-77948000D02*
X119424000Y-80875000D01*
X119384000Y-82955000D02*
X119384000Y-85891000D01*
X119384000Y-77939000D02*
X119384000Y-80875000D01*
X119344000Y-82955000D02*
X119344000Y-85900000D01*
X119344000Y-77930000D02*
X119344000Y-80875000D01*
X119304000Y-82955000D02*
X119304000Y-85909000D01*
X119304000Y-77921000D02*
X119304000Y-80875000D01*
X119264000Y-82955000D02*
X119264000Y-85917000D01*
X119264000Y-77913000D02*
X119264000Y-80875000D01*
X119224000Y-82955000D02*
X119224000Y-85925000D01*
X119224000Y-77905000D02*
X119224000Y-80875000D01*
X119184000Y-82955000D02*
X119184000Y-85932000D01*
X119184000Y-77898000D02*
X119184000Y-80875000D01*
X119143000Y-77891000D02*
X119143000Y-85939000D01*
X119103000Y-77885000D02*
X119103000Y-85945000D01*
X119063000Y-77878000D02*
X119063000Y-85952000D01*
X119023000Y-77873000D02*
X119023000Y-85957000D01*
X118983000Y-77867000D02*
X118983000Y-85963000D01*
X118943000Y-77863000D02*
X118943000Y-85967000D01*
X118903000Y-77858000D02*
X118903000Y-85972000D01*
X118863000Y-77854000D02*
X118863000Y-85976000D01*
X118823000Y-77850000D02*
X118823000Y-85980000D01*
X118783000Y-77847000D02*
X118783000Y-85983000D01*
X118743000Y-77844000D02*
X118743000Y-85986000D01*
X118703000Y-77841000D02*
X118703000Y-85989000D01*
X118663000Y-77839000D02*
X118663000Y-85991000D01*
X118623000Y-77838000D02*
X118623000Y-85992000D01*
X118583000Y-77836000D02*
X118583000Y-85994000D01*
X118543000Y-77835000D02*
X118543000Y-85995000D01*
X118503000Y-77835000D02*
X118503000Y-85995000D01*
X118463000Y-77835000D02*
X118463000Y-85995000D01*
X122583000Y-81915000D02*
G75*
G03*
X122583000Y-81915000I-4120000J0D01*
G01*
X99928000Y-76790491D02*
X101528000Y-76790491D01*
X100728000Y-77590491D02*
X100728000Y-75990491D01*
X104518000Y-60820000D02*
X106048000Y-60820000D01*
X104185000Y-60860000D02*
X106381000Y-60860000D01*
X103932000Y-60900000D02*
X106634000Y-60900000D01*
X103719000Y-60940000D02*
X106847000Y-60940000D01*
X103531000Y-60980000D02*
X107035000Y-60980000D01*
X103363000Y-61020000D02*
X107203000Y-61020000D01*
X103209000Y-61060000D02*
X107357000Y-61060000D01*
X103065000Y-61100000D02*
X107501000Y-61100000D01*
X102932000Y-61140000D02*
X107634000Y-61140000D01*
X102805000Y-61180000D02*
X107761000Y-61180000D01*
X102686000Y-61220000D02*
X107880000Y-61220000D01*
X102572000Y-61260000D02*
X107994000Y-61260000D01*
X102463000Y-61300000D02*
X108103000Y-61300000D01*
X102359000Y-61340000D02*
X108207000Y-61340000D01*
X102259000Y-61380000D02*
X108307000Y-61380000D01*
X102163000Y-61420000D02*
X108403000Y-61420000D01*
X102070000Y-61460000D02*
X108496000Y-61460000D01*
X101980000Y-61500000D02*
X108586000Y-61500000D01*
X101893000Y-61540000D02*
X108673000Y-61540000D01*
X101808000Y-61580000D02*
X108758000Y-61580000D01*
X101726000Y-61620000D02*
X108840000Y-61620000D01*
X101646000Y-61660000D02*
X108920000Y-61660000D01*
X101568000Y-61700000D02*
X108998000Y-61700000D01*
X101493000Y-61740000D02*
X109073000Y-61740000D01*
X101419000Y-61780000D02*
X109147000Y-61780000D01*
X101347000Y-61820000D02*
X109219000Y-61820000D01*
X101276000Y-61860000D02*
X109290000Y-61860000D01*
X101207000Y-61900000D02*
X109359000Y-61900000D01*
X101140000Y-61940000D02*
X109426000Y-61940000D01*
X101074000Y-61980000D02*
X109492000Y-61980000D01*
X101010000Y-62020000D02*
X109556000Y-62020000D01*
X100947000Y-62060000D02*
X109619000Y-62060000D01*
X100885000Y-62100000D02*
X109681000Y-62100000D01*
X100824000Y-62140000D02*
X109742000Y-62140000D01*
X100764000Y-62180000D02*
X109802000Y-62180000D01*
X100706000Y-62220000D02*
X109860000Y-62220000D01*
X100649000Y-62260000D02*
X109917000Y-62260000D01*
X100592000Y-62300000D02*
X109974000Y-62300000D01*
X100537000Y-62340000D02*
X110029000Y-62340000D01*
X100483000Y-62380000D02*
X110083000Y-62380000D01*
X100429000Y-62420000D02*
X110137000Y-62420000D01*
X100377000Y-62460000D02*
X110189000Y-62460000D01*
X100325000Y-62500000D02*
X110241000Y-62500000D01*
X100274000Y-62540000D02*
X110292000Y-62540000D01*
X100224000Y-62580000D02*
X110342000Y-62580000D01*
X100175000Y-62620000D02*
X110391000Y-62620000D01*
X100127000Y-62660000D02*
X110439000Y-62660000D01*
X100079000Y-62700000D02*
X110487000Y-62700000D01*
X100032000Y-62740000D02*
X110534000Y-62740000D01*
X99986000Y-62780000D02*
X110580000Y-62780000D01*
X99940000Y-62820000D02*
X110626000Y-62820000D01*
X99895000Y-62860000D02*
X110671000Y-62860000D01*
X99851000Y-62900000D02*
X110715000Y-62900000D01*
X99808000Y-62940000D02*
X110758000Y-62940000D01*
X99765000Y-62980000D02*
X110801000Y-62980000D01*
X99723000Y-63020000D02*
X110843000Y-63020000D01*
X99681000Y-63060000D02*
X110885000Y-63060000D01*
X99640000Y-63100000D02*
X110926000Y-63100000D01*
X99599000Y-63140000D02*
X110967000Y-63140000D01*
X99559000Y-63180000D02*
X111007000Y-63180000D01*
X99520000Y-63220000D02*
X111046000Y-63220000D01*
X99481000Y-63260000D02*
X111085000Y-63260000D01*
X99443000Y-63300000D02*
X111123000Y-63300000D01*
X99405000Y-63340000D02*
X111161000Y-63340000D01*
X99367000Y-63380000D02*
X111199000Y-63380000D01*
X99331000Y-63420000D02*
X111235000Y-63420000D01*
X99294000Y-63460000D02*
X111272000Y-63460000D01*
X99258000Y-63500000D02*
X111308000Y-63500000D01*
X99223000Y-63540000D02*
X111343000Y-63540000D01*
X99188000Y-63580000D02*
X111378000Y-63580000D01*
X99154000Y-63620000D02*
X111412000Y-63620000D01*
X99120000Y-63660000D02*
X111446000Y-63660000D01*
X99086000Y-63700000D02*
X111480000Y-63700000D01*
X106723000Y-63740000D02*
X111513000Y-63740000D01*
X99053000Y-63740000D02*
X103843000Y-63740000D01*
X106723000Y-63780000D02*
X111546000Y-63780000D01*
X99020000Y-63780000D02*
X103843000Y-63780000D01*
X106723000Y-63820000D02*
X111578000Y-63820000D01*
X98988000Y-63820000D02*
X103843000Y-63820000D01*
X106723000Y-63860000D02*
X111610000Y-63860000D01*
X98956000Y-63860000D02*
X103843000Y-63860000D01*
X106723000Y-63900000D02*
X111641000Y-63900000D01*
X98925000Y-63900000D02*
X103843000Y-63900000D01*
X106723000Y-63940000D02*
X111673000Y-63940000D01*
X98893000Y-63940000D02*
X103843000Y-63940000D01*
X106723000Y-63980000D02*
X111703000Y-63980000D01*
X98863000Y-63980000D02*
X103843000Y-63980000D01*
X106723000Y-64020000D02*
X111733000Y-64020000D01*
X98833000Y-64020000D02*
X103843000Y-64020000D01*
X106723000Y-64060000D02*
X111763000Y-64060000D01*
X98803000Y-64060000D02*
X103843000Y-64060000D01*
X106723000Y-64100000D02*
X111793000Y-64100000D01*
X98773000Y-64100000D02*
X103843000Y-64100000D01*
X106723000Y-64140000D02*
X111822000Y-64140000D01*
X98744000Y-64140000D02*
X103843000Y-64140000D01*
X106723000Y-64180000D02*
X111851000Y-64180000D01*
X98715000Y-64180000D02*
X103843000Y-64180000D01*
X106723000Y-64220000D02*
X111879000Y-64220000D01*
X98687000Y-64220000D02*
X103843000Y-64220000D01*
X106723000Y-64260000D02*
X111907000Y-64260000D01*
X98659000Y-64260000D02*
X103843000Y-64260000D01*
X106723000Y-64300000D02*
X111935000Y-64300000D01*
X98631000Y-64300000D02*
X103843000Y-64300000D01*
X106723000Y-64340000D02*
X111962000Y-64340000D01*
X98604000Y-64340000D02*
X103843000Y-64340000D01*
X106723000Y-64380000D02*
X111989000Y-64380000D01*
X98577000Y-64380000D02*
X103843000Y-64380000D01*
X106723000Y-64420000D02*
X112016000Y-64420000D01*
X98550000Y-64420000D02*
X103843000Y-64420000D01*
X106723000Y-64460000D02*
X112042000Y-64460000D01*
X98524000Y-64460000D02*
X103843000Y-64460000D01*
X106723000Y-64500000D02*
X112068000Y-64500000D01*
X98498000Y-64500000D02*
X103843000Y-64500000D01*
X106723000Y-64540000D02*
X112094000Y-64540000D01*
X98472000Y-64540000D02*
X103843000Y-64540000D01*
X106723000Y-64580000D02*
X112119000Y-64580000D01*
X98447000Y-64580000D02*
X103843000Y-64580000D01*
X106723000Y-64620000D02*
X112144000Y-64620000D01*
X98422000Y-64620000D02*
X103843000Y-64620000D01*
X106723000Y-64660000D02*
X112169000Y-64660000D01*
X98397000Y-64660000D02*
X103843000Y-64660000D01*
X106723000Y-64700000D02*
X112193000Y-64700000D01*
X98373000Y-64700000D02*
X103843000Y-64700000D01*
X106723000Y-64740000D02*
X112217000Y-64740000D01*
X98349000Y-64740000D02*
X103843000Y-64740000D01*
X106723000Y-64780000D02*
X112241000Y-64780000D01*
X98325000Y-64780000D02*
X103843000Y-64780000D01*
X106723000Y-64820000D02*
X112264000Y-64820000D01*
X98302000Y-64820000D02*
X103843000Y-64820000D01*
X106723000Y-64860000D02*
X112287000Y-64860000D01*
X98279000Y-64860000D02*
X103843000Y-64860000D01*
X106723000Y-64900000D02*
X112310000Y-64900000D01*
X98256000Y-64900000D02*
X103843000Y-64900000D01*
X106723000Y-64940000D02*
X112332000Y-64940000D01*
X98234000Y-64940000D02*
X103843000Y-64940000D01*
X106723000Y-64980000D02*
X112355000Y-64980000D01*
X98211000Y-64980000D02*
X103843000Y-64980000D01*
X106723000Y-65020000D02*
X112377000Y-65020000D01*
X98189000Y-65020000D02*
X103843000Y-65020000D01*
X106723000Y-65060000D02*
X112398000Y-65060000D01*
X98168000Y-65060000D02*
X103843000Y-65060000D01*
X106723000Y-65100000D02*
X112419000Y-65100000D01*
X98147000Y-65100000D02*
X103843000Y-65100000D01*
X106723000Y-65140000D02*
X112440000Y-65140000D01*
X98126000Y-65140000D02*
X103843000Y-65140000D01*
X106723000Y-65180000D02*
X112461000Y-65180000D01*
X98105000Y-65180000D02*
X103843000Y-65180000D01*
X106723000Y-65220000D02*
X112482000Y-65220000D01*
X98084000Y-65220000D02*
X103843000Y-65220000D01*
X106723000Y-65260000D02*
X112502000Y-65260000D01*
X98064000Y-65260000D02*
X103843000Y-65260000D01*
X106723000Y-65300000D02*
X112522000Y-65300000D01*
X98044000Y-65300000D02*
X103843000Y-65300000D01*
X106723000Y-65340000D02*
X112541000Y-65340000D01*
X98025000Y-65340000D02*
X103843000Y-65340000D01*
X106723000Y-65380000D02*
X112561000Y-65380000D01*
X98005000Y-65380000D02*
X103843000Y-65380000D01*
X106723000Y-65420000D02*
X112580000Y-65420000D01*
X97986000Y-65420000D02*
X103843000Y-65420000D01*
X106723000Y-65460000D02*
X112599000Y-65460000D01*
X97967000Y-65460000D02*
X103843000Y-65460000D01*
X106723000Y-65500000D02*
X112617000Y-65500000D01*
X97949000Y-65500000D02*
X103843000Y-65500000D01*
X106723000Y-65540000D02*
X112636000Y-65540000D01*
X97930000Y-65540000D02*
X103843000Y-65540000D01*
X106723000Y-65580000D02*
X112654000Y-65580000D01*
X97912000Y-65580000D02*
X103843000Y-65580000D01*
X106723000Y-65620000D02*
X112672000Y-65620000D01*
X97894000Y-65620000D02*
X103843000Y-65620000D01*
X106723000Y-65660000D02*
X112689000Y-65660000D01*
X97877000Y-65660000D02*
X103843000Y-65660000D01*
X106723000Y-65700000D02*
X112706000Y-65700000D01*
X97860000Y-65700000D02*
X103843000Y-65700000D01*
X106723000Y-65740000D02*
X112723000Y-65740000D01*
X97843000Y-65740000D02*
X103843000Y-65740000D01*
X106723000Y-65780000D02*
X112740000Y-65780000D01*
X97826000Y-65780000D02*
X103843000Y-65780000D01*
X106723000Y-65820000D02*
X112757000Y-65820000D01*
X97809000Y-65820000D02*
X103843000Y-65820000D01*
X106723000Y-65860000D02*
X112773000Y-65860000D01*
X97793000Y-65860000D02*
X103843000Y-65860000D01*
X106723000Y-65900000D02*
X112789000Y-65900000D01*
X97777000Y-65900000D02*
X103843000Y-65900000D01*
X106723000Y-65940000D02*
X112805000Y-65940000D01*
X97761000Y-65940000D02*
X103843000Y-65940000D01*
X106723000Y-65980000D02*
X112820000Y-65980000D01*
X97746000Y-65980000D02*
X103843000Y-65980000D01*
X106723000Y-66020000D02*
X112836000Y-66020000D01*
X97730000Y-66020000D02*
X103843000Y-66020000D01*
X106723000Y-66060000D02*
X112851000Y-66060000D01*
X97715000Y-66060000D02*
X103843000Y-66060000D01*
X106723000Y-66100000D02*
X112865000Y-66100000D01*
X97701000Y-66100000D02*
X103843000Y-66100000D01*
X106723000Y-66140000D02*
X112880000Y-66140000D01*
X97686000Y-66140000D02*
X103843000Y-66140000D01*
X106723000Y-66180000D02*
X112894000Y-66180000D01*
X97672000Y-66180000D02*
X103843000Y-66180000D01*
X106723000Y-66220000D02*
X112908000Y-66220000D01*
X97658000Y-66220000D02*
X103843000Y-66220000D01*
X106723000Y-66260000D02*
X112922000Y-66260000D01*
X97644000Y-66260000D02*
X103843000Y-66260000D01*
X106723000Y-66300000D02*
X112936000Y-66300000D01*
X97630000Y-66300000D02*
X103843000Y-66300000D01*
X106723000Y-66340000D02*
X112949000Y-66340000D01*
X97617000Y-66340000D02*
X103843000Y-66340000D01*
X106723000Y-66380000D02*
X112963000Y-66380000D01*
X97603000Y-66380000D02*
X103843000Y-66380000D01*
X106723000Y-66420000D02*
X112976000Y-66420000D01*
X97590000Y-66420000D02*
X103843000Y-66420000D01*
X106723000Y-66460000D02*
X112988000Y-66460000D01*
X97578000Y-66460000D02*
X103843000Y-66460000D01*
X106723000Y-66500000D02*
X113001000Y-66500000D01*
X97565000Y-66500000D02*
X103843000Y-66500000D01*
X106723000Y-66540000D02*
X113013000Y-66540000D01*
X97553000Y-66540000D02*
X103843000Y-66540000D01*
X106723000Y-66580000D02*
X113025000Y-66580000D01*
X97541000Y-66580000D02*
X103843000Y-66580000D01*
X97529000Y-66620000D02*
X113037000Y-66620000D01*
X97518000Y-66660000D02*
X113048000Y-66660000D01*
X97506000Y-66700000D02*
X113060000Y-66700000D01*
X97495000Y-66740000D02*
X113071000Y-66740000D01*
X97484000Y-66780000D02*
X113082000Y-66780000D01*
X97473000Y-66820000D02*
X113093000Y-66820000D01*
X97463000Y-66860000D02*
X113103000Y-66860000D01*
X97453000Y-66900000D02*
X113113000Y-66900000D01*
X97443000Y-66940000D02*
X113123000Y-66940000D01*
X97433000Y-66980000D02*
X113133000Y-66980000D01*
X97423000Y-67020000D02*
X113143000Y-67020000D01*
X97414000Y-67060000D02*
X113152000Y-67060000D01*
X97405000Y-67100000D02*
X113161000Y-67100000D01*
X97396000Y-67140000D02*
X113170000Y-67140000D01*
X97387000Y-67180000D02*
X113179000Y-67180000D01*
X97378000Y-67220000D02*
X113188000Y-67220000D01*
X97370000Y-67260000D02*
X113196000Y-67260000D01*
X97362000Y-67300000D02*
X113204000Y-67300000D01*
X97354000Y-67340000D02*
X113212000Y-67340000D01*
X97346000Y-67380000D02*
X113220000Y-67380000D01*
X97339000Y-67420000D02*
X113227000Y-67420000D01*
X97331000Y-67460000D02*
X113235000Y-67460000D01*
X97324000Y-67500000D02*
X113242000Y-67500000D01*
X97317000Y-67540000D02*
X113249000Y-67540000D01*
X97311000Y-67580000D02*
X113255000Y-67580000D01*
X97304000Y-67620000D02*
X113262000Y-67620000D01*
X97298000Y-67660000D02*
X113268000Y-67660000D01*
X97292000Y-67700000D02*
X113274000Y-67700000D01*
X97286000Y-67740000D02*
X113280000Y-67740000D01*
X97280000Y-67780000D02*
X113286000Y-67780000D01*
X97275000Y-67820000D02*
X113291000Y-67820000D01*
X97269000Y-67860000D02*
X113297000Y-67860000D01*
X97264000Y-67900000D02*
X113302000Y-67900000D01*
X97259000Y-67940000D02*
X113307000Y-67940000D01*
X97255000Y-67980000D02*
X113311000Y-67980000D01*
X97250000Y-68020000D02*
X113316000Y-68020000D01*
X97246000Y-68060000D02*
X113320000Y-68060000D01*
X97242000Y-68100000D02*
X113324000Y-68100000D01*
X97238000Y-68140000D02*
X113328000Y-68140000D01*
X97234000Y-68180000D02*
X113332000Y-68180000D01*
X97231000Y-68221000D02*
X113335000Y-68221000D01*
X97228000Y-68261000D02*
X113338000Y-68261000D01*
X97225000Y-68301000D02*
X113341000Y-68301000D01*
X97222000Y-68341000D02*
X113344000Y-68341000D01*
X97219000Y-68381000D02*
X113347000Y-68381000D01*
X97217000Y-68421000D02*
X113349000Y-68421000D01*
X97214000Y-68461000D02*
X113352000Y-68461000D01*
X97212000Y-68501000D02*
X113354000Y-68501000D01*
X97210000Y-68541000D02*
X113356000Y-68541000D01*
X97209000Y-68581000D02*
X113357000Y-68581000D01*
X97207000Y-68621000D02*
X113359000Y-68621000D01*
X97206000Y-68661000D02*
X113360000Y-68661000D01*
X97205000Y-68701000D02*
X113361000Y-68701000D01*
X97204000Y-68741000D02*
X113362000Y-68741000D01*
X97203000Y-68781000D02*
X113363000Y-68781000D01*
X97203000Y-68821000D02*
X113363000Y-68821000D01*
X97203000Y-68861000D02*
X113363000Y-68861000D01*
X97202000Y-68901000D02*
X113364000Y-68901000D01*
X113403000Y-68901000D02*
G75*
G03*
X113403000Y-68901000I-8120000J0D01*
G01*
X99928000Y-54939491D02*
X101528000Y-54939491D01*
X100728000Y-55739491D02*
X100728000Y-54139491D01*
X104518000Y-38969000D02*
X106048000Y-38969000D01*
X104185000Y-39009000D02*
X106381000Y-39009000D01*
X103932000Y-39049000D02*
X106634000Y-39049000D01*
X103719000Y-39089000D02*
X106847000Y-39089000D01*
X103531000Y-39129000D02*
X107035000Y-39129000D01*
X103363000Y-39169000D02*
X107203000Y-39169000D01*
X103209000Y-39209000D02*
X107357000Y-39209000D01*
X103065000Y-39249000D02*
X107501000Y-39249000D01*
X102932000Y-39289000D02*
X107634000Y-39289000D01*
X102805000Y-39329000D02*
X107761000Y-39329000D01*
X102686000Y-39369000D02*
X107880000Y-39369000D01*
X102572000Y-39409000D02*
X107994000Y-39409000D01*
X102463000Y-39449000D02*
X108103000Y-39449000D01*
X102359000Y-39489000D02*
X108207000Y-39489000D01*
X102259000Y-39529000D02*
X108307000Y-39529000D01*
X102163000Y-39569000D02*
X108403000Y-39569000D01*
X102070000Y-39609000D02*
X108496000Y-39609000D01*
X101980000Y-39649000D02*
X108586000Y-39649000D01*
X101893000Y-39689000D02*
X108673000Y-39689000D01*
X101808000Y-39729000D02*
X108758000Y-39729000D01*
X101726000Y-39769000D02*
X108840000Y-39769000D01*
X101646000Y-39809000D02*
X108920000Y-39809000D01*
X101568000Y-39849000D02*
X108998000Y-39849000D01*
X101493000Y-39889000D02*
X109073000Y-39889000D01*
X101419000Y-39929000D02*
X109147000Y-39929000D01*
X101347000Y-39969000D02*
X109219000Y-39969000D01*
X101276000Y-40009000D02*
X109290000Y-40009000D01*
X101207000Y-40049000D02*
X109359000Y-40049000D01*
X101140000Y-40089000D02*
X109426000Y-40089000D01*
X101074000Y-40129000D02*
X109492000Y-40129000D01*
X101010000Y-40169000D02*
X109556000Y-40169000D01*
X100947000Y-40209000D02*
X109619000Y-40209000D01*
X100885000Y-40249000D02*
X109681000Y-40249000D01*
X100824000Y-40289000D02*
X109742000Y-40289000D01*
X100764000Y-40329000D02*
X109802000Y-40329000D01*
X100706000Y-40369000D02*
X109860000Y-40369000D01*
X100649000Y-40409000D02*
X109917000Y-40409000D01*
X100592000Y-40449000D02*
X109974000Y-40449000D01*
X100537000Y-40489000D02*
X110029000Y-40489000D01*
X100483000Y-40529000D02*
X110083000Y-40529000D01*
X100429000Y-40569000D02*
X110137000Y-40569000D01*
X100377000Y-40609000D02*
X110189000Y-40609000D01*
X100325000Y-40649000D02*
X110241000Y-40649000D01*
X100274000Y-40689000D02*
X110292000Y-40689000D01*
X100224000Y-40729000D02*
X110342000Y-40729000D01*
X100175000Y-40769000D02*
X110391000Y-40769000D01*
X100127000Y-40809000D02*
X110439000Y-40809000D01*
X100079000Y-40849000D02*
X110487000Y-40849000D01*
X100032000Y-40889000D02*
X110534000Y-40889000D01*
X99986000Y-40929000D02*
X110580000Y-40929000D01*
X99940000Y-40969000D02*
X110626000Y-40969000D01*
X99895000Y-41009000D02*
X110671000Y-41009000D01*
X99851000Y-41049000D02*
X110715000Y-41049000D01*
X99808000Y-41089000D02*
X110758000Y-41089000D01*
X99765000Y-41129000D02*
X110801000Y-41129000D01*
X99723000Y-41169000D02*
X110843000Y-41169000D01*
X99681000Y-41209000D02*
X110885000Y-41209000D01*
X99640000Y-41249000D02*
X110926000Y-41249000D01*
X99599000Y-41289000D02*
X110967000Y-41289000D01*
X99559000Y-41329000D02*
X111007000Y-41329000D01*
X99520000Y-41369000D02*
X111046000Y-41369000D01*
X99481000Y-41409000D02*
X111085000Y-41409000D01*
X99443000Y-41449000D02*
X111123000Y-41449000D01*
X99405000Y-41489000D02*
X111161000Y-41489000D01*
X99367000Y-41529000D02*
X111199000Y-41529000D01*
X99331000Y-41569000D02*
X111235000Y-41569000D01*
X99294000Y-41609000D02*
X111272000Y-41609000D01*
X99258000Y-41649000D02*
X111308000Y-41649000D01*
X99223000Y-41689000D02*
X111343000Y-41689000D01*
X99188000Y-41729000D02*
X111378000Y-41729000D01*
X99154000Y-41769000D02*
X111412000Y-41769000D01*
X99120000Y-41809000D02*
X111446000Y-41809000D01*
X99086000Y-41849000D02*
X111480000Y-41849000D01*
X106723000Y-41889000D02*
X111513000Y-41889000D01*
X99053000Y-41889000D02*
X103843000Y-41889000D01*
X106723000Y-41929000D02*
X111546000Y-41929000D01*
X99020000Y-41929000D02*
X103843000Y-41929000D01*
X106723000Y-41969000D02*
X111578000Y-41969000D01*
X98988000Y-41969000D02*
X103843000Y-41969000D01*
X106723000Y-42009000D02*
X111610000Y-42009000D01*
X98956000Y-42009000D02*
X103843000Y-42009000D01*
X106723000Y-42049000D02*
X111641000Y-42049000D01*
X98925000Y-42049000D02*
X103843000Y-42049000D01*
X106723000Y-42089000D02*
X111673000Y-42089000D01*
X98893000Y-42089000D02*
X103843000Y-42089000D01*
X106723000Y-42129000D02*
X111703000Y-42129000D01*
X98863000Y-42129000D02*
X103843000Y-42129000D01*
X106723000Y-42169000D02*
X111733000Y-42169000D01*
X98833000Y-42169000D02*
X103843000Y-42169000D01*
X106723000Y-42209000D02*
X111763000Y-42209000D01*
X98803000Y-42209000D02*
X103843000Y-42209000D01*
X106723000Y-42249000D02*
X111793000Y-42249000D01*
X98773000Y-42249000D02*
X103843000Y-42249000D01*
X106723000Y-42289000D02*
X111822000Y-42289000D01*
X98744000Y-42289000D02*
X103843000Y-42289000D01*
X106723000Y-42329000D02*
X111851000Y-42329000D01*
X98715000Y-42329000D02*
X103843000Y-42329000D01*
X106723000Y-42369000D02*
X111879000Y-42369000D01*
X98687000Y-42369000D02*
X103843000Y-42369000D01*
X106723000Y-42409000D02*
X111907000Y-42409000D01*
X98659000Y-42409000D02*
X103843000Y-42409000D01*
X106723000Y-42449000D02*
X111935000Y-42449000D01*
X98631000Y-42449000D02*
X103843000Y-42449000D01*
X106723000Y-42489000D02*
X111962000Y-42489000D01*
X98604000Y-42489000D02*
X103843000Y-42489000D01*
X106723000Y-42529000D02*
X111989000Y-42529000D01*
X98577000Y-42529000D02*
X103843000Y-42529000D01*
X106723000Y-42569000D02*
X112016000Y-42569000D01*
X98550000Y-42569000D02*
X103843000Y-42569000D01*
X106723000Y-42609000D02*
X112042000Y-42609000D01*
X98524000Y-42609000D02*
X103843000Y-42609000D01*
X106723000Y-42649000D02*
X112068000Y-42649000D01*
X98498000Y-42649000D02*
X103843000Y-42649000D01*
X106723000Y-42689000D02*
X112094000Y-42689000D01*
X98472000Y-42689000D02*
X103843000Y-42689000D01*
X106723000Y-42729000D02*
X112119000Y-42729000D01*
X98447000Y-42729000D02*
X103843000Y-42729000D01*
X106723000Y-42769000D02*
X112144000Y-42769000D01*
X98422000Y-42769000D02*
X103843000Y-42769000D01*
X106723000Y-42809000D02*
X112169000Y-42809000D01*
X98397000Y-42809000D02*
X103843000Y-42809000D01*
X106723000Y-42849000D02*
X112193000Y-42849000D01*
X98373000Y-42849000D02*
X103843000Y-42849000D01*
X106723000Y-42889000D02*
X112217000Y-42889000D01*
X98349000Y-42889000D02*
X103843000Y-42889000D01*
X106723000Y-42929000D02*
X112241000Y-42929000D01*
X98325000Y-42929000D02*
X103843000Y-42929000D01*
X106723000Y-42969000D02*
X112264000Y-42969000D01*
X98302000Y-42969000D02*
X103843000Y-42969000D01*
X106723000Y-43009000D02*
X112287000Y-43009000D01*
X98279000Y-43009000D02*
X103843000Y-43009000D01*
X106723000Y-43049000D02*
X112310000Y-43049000D01*
X98256000Y-43049000D02*
X103843000Y-43049000D01*
X106723000Y-43089000D02*
X112332000Y-43089000D01*
X98234000Y-43089000D02*
X103843000Y-43089000D01*
X106723000Y-43129000D02*
X112355000Y-43129000D01*
X98211000Y-43129000D02*
X103843000Y-43129000D01*
X106723000Y-43169000D02*
X112377000Y-43169000D01*
X98189000Y-43169000D02*
X103843000Y-43169000D01*
X106723000Y-43209000D02*
X112398000Y-43209000D01*
X98168000Y-43209000D02*
X103843000Y-43209000D01*
X106723000Y-43249000D02*
X112419000Y-43249000D01*
X98147000Y-43249000D02*
X103843000Y-43249000D01*
X106723000Y-43289000D02*
X112440000Y-43289000D01*
X98126000Y-43289000D02*
X103843000Y-43289000D01*
X106723000Y-43329000D02*
X112461000Y-43329000D01*
X98105000Y-43329000D02*
X103843000Y-43329000D01*
X106723000Y-43369000D02*
X112482000Y-43369000D01*
X98084000Y-43369000D02*
X103843000Y-43369000D01*
X106723000Y-43409000D02*
X112502000Y-43409000D01*
X98064000Y-43409000D02*
X103843000Y-43409000D01*
X106723000Y-43449000D02*
X112522000Y-43449000D01*
X98044000Y-43449000D02*
X103843000Y-43449000D01*
X106723000Y-43489000D02*
X112541000Y-43489000D01*
X98025000Y-43489000D02*
X103843000Y-43489000D01*
X106723000Y-43529000D02*
X112561000Y-43529000D01*
X98005000Y-43529000D02*
X103843000Y-43529000D01*
X106723000Y-43569000D02*
X112580000Y-43569000D01*
X97986000Y-43569000D02*
X103843000Y-43569000D01*
X106723000Y-43609000D02*
X112599000Y-43609000D01*
X97967000Y-43609000D02*
X103843000Y-43609000D01*
X106723000Y-43649000D02*
X112617000Y-43649000D01*
X97949000Y-43649000D02*
X103843000Y-43649000D01*
X106723000Y-43689000D02*
X112636000Y-43689000D01*
X97930000Y-43689000D02*
X103843000Y-43689000D01*
X106723000Y-43729000D02*
X112654000Y-43729000D01*
X97912000Y-43729000D02*
X103843000Y-43729000D01*
X106723000Y-43769000D02*
X112672000Y-43769000D01*
X97894000Y-43769000D02*
X103843000Y-43769000D01*
X106723000Y-43809000D02*
X112689000Y-43809000D01*
X97877000Y-43809000D02*
X103843000Y-43809000D01*
X106723000Y-43849000D02*
X112706000Y-43849000D01*
X97860000Y-43849000D02*
X103843000Y-43849000D01*
X106723000Y-43889000D02*
X112723000Y-43889000D01*
X97843000Y-43889000D02*
X103843000Y-43889000D01*
X106723000Y-43929000D02*
X112740000Y-43929000D01*
X97826000Y-43929000D02*
X103843000Y-43929000D01*
X106723000Y-43969000D02*
X112757000Y-43969000D01*
X97809000Y-43969000D02*
X103843000Y-43969000D01*
X106723000Y-44009000D02*
X112773000Y-44009000D01*
X97793000Y-44009000D02*
X103843000Y-44009000D01*
X106723000Y-44049000D02*
X112789000Y-44049000D01*
X97777000Y-44049000D02*
X103843000Y-44049000D01*
X106723000Y-44089000D02*
X112805000Y-44089000D01*
X97761000Y-44089000D02*
X103843000Y-44089000D01*
X106723000Y-44129000D02*
X112820000Y-44129000D01*
X97746000Y-44129000D02*
X103843000Y-44129000D01*
X106723000Y-44169000D02*
X112836000Y-44169000D01*
X97730000Y-44169000D02*
X103843000Y-44169000D01*
X106723000Y-44209000D02*
X112851000Y-44209000D01*
X97715000Y-44209000D02*
X103843000Y-44209000D01*
X106723000Y-44249000D02*
X112865000Y-44249000D01*
X97701000Y-44249000D02*
X103843000Y-44249000D01*
X106723000Y-44289000D02*
X112880000Y-44289000D01*
X97686000Y-44289000D02*
X103843000Y-44289000D01*
X106723000Y-44329000D02*
X112894000Y-44329000D01*
X97672000Y-44329000D02*
X103843000Y-44329000D01*
X106723000Y-44369000D02*
X112908000Y-44369000D01*
X97658000Y-44369000D02*
X103843000Y-44369000D01*
X106723000Y-44409000D02*
X112922000Y-44409000D01*
X97644000Y-44409000D02*
X103843000Y-44409000D01*
X106723000Y-44449000D02*
X112936000Y-44449000D01*
X97630000Y-44449000D02*
X103843000Y-44449000D01*
X106723000Y-44489000D02*
X112949000Y-44489000D01*
X97617000Y-44489000D02*
X103843000Y-44489000D01*
X106723000Y-44529000D02*
X112963000Y-44529000D01*
X97603000Y-44529000D02*
X103843000Y-44529000D01*
X106723000Y-44569000D02*
X112976000Y-44569000D01*
X97590000Y-44569000D02*
X103843000Y-44569000D01*
X106723000Y-44609000D02*
X112988000Y-44609000D01*
X97578000Y-44609000D02*
X103843000Y-44609000D01*
X106723000Y-44649000D02*
X113001000Y-44649000D01*
X97565000Y-44649000D02*
X103843000Y-44649000D01*
X106723000Y-44689000D02*
X113013000Y-44689000D01*
X97553000Y-44689000D02*
X103843000Y-44689000D01*
X106723000Y-44729000D02*
X113025000Y-44729000D01*
X97541000Y-44729000D02*
X103843000Y-44729000D01*
X97529000Y-44769000D02*
X113037000Y-44769000D01*
X97518000Y-44809000D02*
X113048000Y-44809000D01*
X97506000Y-44849000D02*
X113060000Y-44849000D01*
X97495000Y-44889000D02*
X113071000Y-44889000D01*
X97484000Y-44929000D02*
X113082000Y-44929000D01*
X97473000Y-44969000D02*
X113093000Y-44969000D01*
X97463000Y-45009000D02*
X113103000Y-45009000D01*
X97453000Y-45049000D02*
X113113000Y-45049000D01*
X97443000Y-45089000D02*
X113123000Y-45089000D01*
X97433000Y-45129000D02*
X113133000Y-45129000D01*
X97423000Y-45169000D02*
X113143000Y-45169000D01*
X97414000Y-45209000D02*
X113152000Y-45209000D01*
X97405000Y-45249000D02*
X113161000Y-45249000D01*
X97396000Y-45289000D02*
X113170000Y-45289000D01*
X97387000Y-45329000D02*
X113179000Y-45329000D01*
X97378000Y-45369000D02*
X113188000Y-45369000D01*
X97370000Y-45409000D02*
X113196000Y-45409000D01*
X97362000Y-45449000D02*
X113204000Y-45449000D01*
X97354000Y-45489000D02*
X113212000Y-45489000D01*
X97346000Y-45529000D02*
X113220000Y-45529000D01*
X97339000Y-45569000D02*
X113227000Y-45569000D01*
X97331000Y-45609000D02*
X113235000Y-45609000D01*
X97324000Y-45649000D02*
X113242000Y-45649000D01*
X97317000Y-45689000D02*
X113249000Y-45689000D01*
X97311000Y-45729000D02*
X113255000Y-45729000D01*
X97304000Y-45769000D02*
X113262000Y-45769000D01*
X97298000Y-45809000D02*
X113268000Y-45809000D01*
X97292000Y-45849000D02*
X113274000Y-45849000D01*
X97286000Y-45889000D02*
X113280000Y-45889000D01*
X97280000Y-45929000D02*
X113286000Y-45929000D01*
X97275000Y-45969000D02*
X113291000Y-45969000D01*
X97269000Y-46009000D02*
X113297000Y-46009000D01*
X97264000Y-46049000D02*
X113302000Y-46049000D01*
X97259000Y-46089000D02*
X113307000Y-46089000D01*
X97255000Y-46129000D02*
X113311000Y-46129000D01*
X97250000Y-46169000D02*
X113316000Y-46169000D01*
X97246000Y-46209000D02*
X113320000Y-46209000D01*
X97242000Y-46249000D02*
X113324000Y-46249000D01*
X97238000Y-46289000D02*
X113328000Y-46289000D01*
X97234000Y-46329000D02*
X113332000Y-46329000D01*
X97231000Y-46370000D02*
X113335000Y-46370000D01*
X97228000Y-46410000D02*
X113338000Y-46410000D01*
X97225000Y-46450000D02*
X113341000Y-46450000D01*
X97222000Y-46490000D02*
X113344000Y-46490000D01*
X97219000Y-46530000D02*
X113347000Y-46530000D01*
X97217000Y-46570000D02*
X113349000Y-46570000D01*
X97214000Y-46610000D02*
X113352000Y-46610000D01*
X97212000Y-46650000D02*
X113354000Y-46650000D01*
X97210000Y-46690000D02*
X113356000Y-46690000D01*
X97209000Y-46730000D02*
X113357000Y-46730000D01*
X97207000Y-46770000D02*
X113359000Y-46770000D01*
X97206000Y-46810000D02*
X113360000Y-46810000D01*
X97205000Y-46850000D02*
X113361000Y-46850000D01*
X97204000Y-46890000D02*
X113362000Y-46890000D01*
X97203000Y-46930000D02*
X113363000Y-46930000D01*
X97203000Y-46970000D02*
X113363000Y-46970000D01*
X97203000Y-47010000D02*
X113363000Y-47010000D01*
X97202000Y-47050000D02*
X113364000Y-47050000D01*
X113403000Y-47050000D02*
G75*
G03*
X113403000Y-47050000I-8120000J0D01*
G01*
X116448064Y-51843000D02*
X115993936Y-51843000D01*
X116448064Y-53313000D02*
X115993936Y-53313000D01*
X121338000Y-74378000D02*
X121568000Y-74378000D01*
X126058000Y-74378000D02*
X125828000Y-74378000D01*
X126058000Y-74378000D02*
X126058000Y-77098000D01*
X126058000Y-77098000D02*
X124748000Y-77098000D01*
X125828000Y-73238000D02*
X125828000Y-74378000D01*
X121338000Y-77098000D02*
X121338000Y-74378000D01*
X122648000Y-77098000D02*
X121338000Y-77098000D01*
X122076000Y-39707000D02*
X122306000Y-39707000D01*
X126796000Y-39707000D02*
X126566000Y-39707000D01*
X126796000Y-39707000D02*
X126796000Y-42427000D01*
X126796000Y-42427000D02*
X125486000Y-42427000D01*
X126566000Y-38567000D02*
X126566000Y-39707000D01*
X122076000Y-42427000D02*
X122076000Y-39707000D01*
X123386000Y-42427000D02*
X122076000Y-42427000D01*
X108230936Y-33755000D02*
X108685064Y-33755000D01*
X108230936Y-32285000D02*
X108685064Y-32285000D01*
X130886781Y-83693000D02*
G75*
G03*
X130886781Y-83693000I-1600781J0D01*
G01*
X138506781Y-83693000D02*
G75*
G03*
X138506781Y-83693000I-1600781J0D01*
G01*
X138506781Y-33020000D02*
G75*
G03*
X138506781Y-33020000I-1600781J0D01*
G01*
X130886781Y-33020000D02*
G75*
G03*
X130886781Y-33020000I-1600781J0D01*
G01*
X95580781Y-33020000D02*
G75*
G03*
X95580781Y-33020000I-1600781J0D01*
G01*
X103200781Y-33020000D02*
G75*
G03*
X103200781Y-33020000I-1600781J0D01*
G01*
X118886248Y-74522000D02*
X119408752Y-74522000D01*
X118886248Y-73052000D02*
X119408752Y-73052000D01*
X128792248Y-39851000D02*
X129314752Y-39851000D01*
X128792248Y-38381000D02*
X129314752Y-38381000D01*
X116451748Y-72490000D02*
X116974252Y-72490000D01*
X116451748Y-71020000D02*
X116974252Y-71020000D01*
X120127752Y-38381000D02*
X119605248Y-38381000D01*
X120127752Y-39851000D02*
X119605248Y-39851000D01*
X139543100Y-73263600D02*
X139543100Y-78333600D01*
X129773100Y-73263600D02*
X129773100Y-78333600D01*
X129773100Y-78333600D02*
X139543100Y-78333600D01*
X129773100Y-73263600D02*
X139543100Y-73263600D01*
X134847000Y-71267564D02*
X134847000Y-70813436D01*
X133377000Y-71267564D02*
X133377000Y-70813436D01*
X133399700Y-65011248D02*
X133399700Y-66433752D01*
X136119700Y-65011248D02*
X136119700Y-66433752D01*
X137522852Y-69318200D02*
X137000348Y-69318200D01*
X137522852Y-70788200D02*
X137000348Y-70788200D01*
X124464400Y-64363148D02*
X124464400Y-65785652D01*
X126284400Y-64363148D02*
X126284400Y-65785652D01*
X130064400Y-52897900D02*
X131564400Y-52897900D01*
X130064400Y-52897900D02*
X128564400Y-52897900D01*
X130064400Y-48677900D02*
X131564400Y-48677900D01*
X130064400Y-48677900D02*
X127189400Y-48677900D01*
X133564800Y-48945452D02*
X133564800Y-47522948D01*
X136284800Y-48945452D02*
X136284800Y-47522948D01*
X137279748Y-51081000D02*
X137802252Y-51081000D01*
X137279748Y-52551000D02*
X137802252Y-52551000D01*
X124693000Y-48310852D02*
X124693000Y-46888348D01*
X126513000Y-48310852D02*
X126513000Y-46888348D01*
X118772000Y-62907936D02*
X118772000Y-63362064D01*
X120242000Y-62907936D02*
X120242000Y-63362064D01*
X115834936Y-64743000D02*
X116289064Y-64743000D01*
X115834936Y-63273000D02*
X116289064Y-63273000D01*
X119026000Y-53223936D02*
X119026000Y-53678064D01*
X120496000Y-53223936D02*
X120496000Y-53678064D01*
X118033000Y-66135000D02*
X118033000Y-65305000D01*
X118033000Y-68795000D02*
X118033000Y-67215000D01*
X121234000Y-65625000D02*
X121234000Y-65305000D01*
X121234000Y-68795000D02*
X121234000Y-67725000D01*
X115514000Y-68795000D02*
X115514000Y-65305000D01*
X123754000Y-68795000D02*
X123754000Y-65305000D01*
X123754000Y-65305000D02*
X115514000Y-65305000D01*
X123754000Y-68795000D02*
X115514000Y-68795000D01*
X118160000Y-48609000D02*
X118160000Y-47779000D01*
X118160000Y-51269000D02*
X118160000Y-49689000D01*
X121361000Y-48099000D02*
X121361000Y-47779000D01*
X121361000Y-51269000D02*
X121361000Y-50199000D01*
X115641000Y-51269000D02*
X115641000Y-47779000D01*
X123881000Y-51269000D02*
X123881000Y-47779000D01*
X123881000Y-47779000D02*
X115641000Y-47779000D01*
X123881000Y-51269000D02*
X115641000Y-51269000D01*
X139911400Y-55089900D02*
X139911400Y-60159900D01*
X130141400Y-55089900D02*
X130141400Y-60159900D01*
X130141400Y-60159900D02*
X139911400Y-60159900D01*
X130141400Y-55089900D02*
X139911400Y-55089900D01*
X133821500Y-52588936D02*
X133821500Y-53043064D01*
X135291500Y-52588936D02*
X135291500Y-53043064D01*
X145974381Y-67310000D02*
G75*
G03*
X145974381Y-67310000I-1600781J0D01*
G01*
X145923581Y-58064400D02*
G75*
G03*
X145923581Y-58064400I-1600781J0D01*
G01*
X145923581Y-49784000D02*
G75*
G03*
X145923581Y-49784000I-1600781J0D01*
G01*
X87833781Y-49657000D02*
G75*
G03*
X87833781Y-49657000I-1600781J0D01*
G01*
X87960781Y-58166000D02*
G75*
G03*
X87960781Y-58166000I-1600781J0D01*
G01*
X87833781Y-67310000D02*
G75*
G03*
X87833781Y-67310000I-1600781J0D01*
G01*
D10*
X129124695Y-64764280D02*
X129124695Y-65573804D01*
X129172314Y-65669042D01*
X129219933Y-65716661D01*
X129315171Y-65764280D01*
X129505647Y-65764280D01*
X129600885Y-65716661D01*
X129648504Y-65669042D01*
X129696123Y-65573804D01*
X129696123Y-64764280D01*
X130600885Y-65097614D02*
X130600885Y-65764280D01*
X130362790Y-64716661D02*
X130124695Y-65430947D01*
X130743742Y-65430947D01*
X122067142Y-38627142D02*
X122019523Y-38674761D01*
X121876666Y-38722380D01*
X121781428Y-38722380D01*
X121638571Y-38674761D01*
X121543333Y-38579523D01*
X121495714Y-38484285D01*
X121448095Y-38293809D01*
X121448095Y-38150952D01*
X121495714Y-37960476D01*
X121543333Y-37865238D01*
X121638571Y-37770000D01*
X121781428Y-37722380D01*
X121876666Y-37722380D01*
X122019523Y-37770000D01*
X122067142Y-37817619D01*
X123019523Y-38722380D02*
X122448095Y-38722380D01*
X122733809Y-38722380D02*
X122733809Y-37722380D01*
X122638571Y-37865238D01*
X122543333Y-37960476D01*
X122448095Y-38008095D01*
X123352857Y-37722380D02*
X123971904Y-37722380D01*
X123638571Y-38103333D01*
X123781428Y-38103333D01*
X123876666Y-38150952D01*
X123924285Y-38198571D01*
X123971904Y-38293809D01*
X123971904Y-38531904D01*
X123924285Y-38627142D01*
X123876666Y-38674761D01*
X123781428Y-38722380D01*
X123495714Y-38722380D01*
X123400476Y-38674761D01*
X123352857Y-38627142D01*
X124276380Y-71517857D02*
X123800190Y-71851190D01*
X124276380Y-72089285D02*
X123276380Y-72089285D01*
X123276380Y-71708333D01*
X123324000Y-71613095D01*
X123371619Y-71565476D01*
X123466857Y-71517857D01*
X123609714Y-71517857D01*
X123704952Y-71565476D01*
X123752571Y-71613095D01*
X123800190Y-71708333D01*
X123800190Y-72089285D01*
X124276380Y-70565476D02*
X124276380Y-71136904D01*
X124276380Y-70851190D02*
X123276380Y-70851190D01*
X123419238Y-70946428D01*
X123514476Y-71041666D01*
X123562095Y-71136904D01*
X124276380Y-69613095D02*
X124276380Y-70184523D01*
X124276380Y-69898809D02*
X123276380Y-69898809D01*
X123419238Y-69994047D01*
X123514476Y-70089285D01*
X123562095Y-70184523D01*
X121799880Y-71517857D02*
X121323690Y-71851190D01*
X121799880Y-72089285D02*
X120799880Y-72089285D01*
X120799880Y-71708333D01*
X120847500Y-71613095D01*
X120895119Y-71565476D01*
X120990357Y-71517857D01*
X121133214Y-71517857D01*
X121228452Y-71565476D01*
X121276071Y-71613095D01*
X121323690Y-71708333D01*
X121323690Y-72089285D01*
X121799880Y-70565476D02*
X121799880Y-71136904D01*
X121799880Y-70851190D02*
X120799880Y-70851190D01*
X120942738Y-70946428D01*
X121037976Y-71041666D01*
X121085595Y-71136904D01*
X120799880Y-69946428D02*
X120799880Y-69851190D01*
X120847500Y-69755952D01*
X120895119Y-69708333D01*
X120990357Y-69660714D01*
X121180833Y-69613095D01*
X121418928Y-69613095D01*
X121609404Y-69660714D01*
X121704642Y-69708333D01*
X121752261Y-69755952D01*
X121799880Y-69851190D01*
X121799880Y-69946428D01*
X121752261Y-70041666D01*
X121704642Y-70089285D01*
X121609404Y-70136904D01*
X121418928Y-70184523D01*
X121180833Y-70184523D01*
X120990357Y-70136904D01*
X120895119Y-70089285D01*
X120847500Y-70041666D01*
X120799880Y-69946428D01*
X124403380Y-45623666D02*
X123927190Y-45957000D01*
X124403380Y-46195095D02*
X123403380Y-46195095D01*
X123403380Y-45814142D01*
X123451000Y-45718904D01*
X123498619Y-45671285D01*
X123593857Y-45623666D01*
X123736714Y-45623666D01*
X123831952Y-45671285D01*
X123879571Y-45718904D01*
X123927190Y-45814142D01*
X123927190Y-46195095D01*
X124403380Y-45147476D02*
X124403380Y-44957000D01*
X124355761Y-44861761D01*
X124308142Y-44814142D01*
X124165285Y-44718904D01*
X123974809Y-44671285D01*
X123593857Y-44671285D01*
X123498619Y-44718904D01*
X123451000Y-44766523D01*
X123403380Y-44861761D01*
X123403380Y-45052238D01*
X123451000Y-45147476D01*
X123498619Y-45195095D01*
X123593857Y-45242714D01*
X123831952Y-45242714D01*
X123927190Y-45195095D01*
X123974809Y-45147476D01*
X124022428Y-45052238D01*
X124022428Y-44861761D01*
X123974809Y-44766523D01*
X123927190Y-44718904D01*
X123831952Y-44671285D01*
X121863380Y-45623666D02*
X121387190Y-45957000D01*
X121863380Y-46195095D02*
X120863380Y-46195095D01*
X120863380Y-45814142D01*
X120911000Y-45718904D01*
X120958619Y-45671285D01*
X121053857Y-45623666D01*
X121196714Y-45623666D01*
X121291952Y-45671285D01*
X121339571Y-45718904D01*
X121387190Y-45814142D01*
X121387190Y-46195095D01*
X121196714Y-44766523D02*
X121863380Y-44766523D01*
X120815761Y-45004619D02*
X121530047Y-45242714D01*
X121530047Y-44623666D01*
X92870904Y-63858380D02*
X92870904Y-62858380D01*
X93109000Y-62858380D01*
X93251857Y-62906000D01*
X93347095Y-63001238D01*
X93394714Y-63096476D01*
X93442333Y-63286952D01*
X93442333Y-63429809D01*
X93394714Y-63620285D01*
X93347095Y-63715523D01*
X93251857Y-63810761D01*
X93109000Y-63858380D01*
X92870904Y-63858380D01*
X94394714Y-63858380D02*
X93823285Y-63858380D01*
X94109000Y-63858380D02*
X94109000Y-62858380D01*
X94013761Y-63001238D01*
X93918523Y-63096476D01*
X93823285Y-63144095D01*
X117820142Y-77022142D02*
X117772523Y-77069761D01*
X117629666Y-77117380D01*
X117534428Y-77117380D01*
X117391571Y-77069761D01*
X117296333Y-76974523D01*
X117248714Y-76879285D01*
X117201095Y-76688809D01*
X117201095Y-76545952D01*
X117248714Y-76355476D01*
X117296333Y-76260238D01*
X117391571Y-76165000D01*
X117534428Y-76117380D01*
X117629666Y-76117380D01*
X117772523Y-76165000D01*
X117820142Y-76212619D01*
X118772523Y-77117380D02*
X118201095Y-77117380D01*
X118486809Y-77117380D02*
X118486809Y-76117380D01*
X118391571Y-76260238D01*
X118296333Y-76355476D01*
X118201095Y-76403095D01*
X119629666Y-76450714D02*
X119629666Y-77117380D01*
X119391571Y-76069761D02*
X119153476Y-76784047D01*
X119772523Y-76784047D01*
X96390142Y-69067666D02*
X96437761Y-69115285D01*
X96485380Y-69258142D01*
X96485380Y-69353380D01*
X96437761Y-69496238D01*
X96342523Y-69591476D01*
X96247285Y-69639095D01*
X96056809Y-69686714D01*
X95913952Y-69686714D01*
X95723476Y-69639095D01*
X95628238Y-69591476D01*
X95533000Y-69496238D01*
X95485380Y-69353380D01*
X95485380Y-69258142D01*
X95533000Y-69115285D01*
X95580619Y-69067666D01*
X95580619Y-68686714D02*
X95533000Y-68639095D01*
X95485380Y-68543857D01*
X95485380Y-68305761D01*
X95533000Y-68210523D01*
X95580619Y-68162904D01*
X95675857Y-68115285D01*
X95771095Y-68115285D01*
X95913952Y-68162904D01*
X96485380Y-68734333D01*
X96485380Y-68115285D01*
X96390142Y-47216666D02*
X96437761Y-47264285D01*
X96485380Y-47407142D01*
X96485380Y-47502380D01*
X96437761Y-47645238D01*
X96342523Y-47740476D01*
X96247285Y-47788095D01*
X96056809Y-47835714D01*
X95913952Y-47835714D01*
X95723476Y-47788095D01*
X95628238Y-47740476D01*
X95533000Y-47645238D01*
X95485380Y-47502380D01*
X95485380Y-47407142D01*
X95533000Y-47264285D01*
X95580619Y-47216666D01*
X96485380Y-46264285D02*
X96485380Y-46835714D01*
X96485380Y-46550000D02*
X95485380Y-46550000D01*
X95628238Y-46645238D01*
X95723476Y-46740476D01*
X95771095Y-46835714D01*
X116054333Y-54680380D02*
X115721000Y-54204190D01*
X115482904Y-54680380D02*
X115482904Y-53680380D01*
X115863857Y-53680380D01*
X115959095Y-53728000D01*
X116006714Y-53775619D01*
X116054333Y-53870857D01*
X116054333Y-54013714D01*
X116006714Y-54108952D01*
X115959095Y-54156571D01*
X115863857Y-54204190D01*
X115482904Y-54204190D01*
X116911476Y-53680380D02*
X116721000Y-53680380D01*
X116625761Y-53728000D01*
X116578142Y-53775619D01*
X116482904Y-53918476D01*
X116435285Y-54108952D01*
X116435285Y-54489904D01*
X116482904Y-54585142D01*
X116530523Y-54632761D01*
X116625761Y-54680380D01*
X116816238Y-54680380D01*
X116911476Y-54632761D01*
X116959095Y-54585142D01*
X117006714Y-54489904D01*
X117006714Y-54251809D01*
X116959095Y-54156571D01*
X116911476Y-54108952D01*
X116816238Y-54061333D01*
X116625761Y-54061333D01*
X116530523Y-54108952D01*
X116482904Y-54156571D01*
X116435285Y-54251809D01*
X126650380Y-76499904D02*
X127459904Y-76499904D01*
X127555142Y-76452285D01*
X127602761Y-76404666D01*
X127650380Y-76309428D01*
X127650380Y-76118952D01*
X127602761Y-76023714D01*
X127555142Y-75976095D01*
X127459904Y-75928476D01*
X126650380Y-75928476D01*
X126745619Y-75499904D02*
X126698000Y-75452285D01*
X126650380Y-75357047D01*
X126650380Y-75118952D01*
X126698000Y-75023714D01*
X126745619Y-74976095D01*
X126840857Y-74928476D01*
X126936095Y-74928476D01*
X127078952Y-74976095D01*
X127650380Y-75547523D01*
X127650380Y-74928476D01*
X127388380Y-41828904D02*
X128197904Y-41828904D01*
X128293142Y-41781285D01*
X128340761Y-41733666D01*
X128388380Y-41638428D01*
X128388380Y-41447952D01*
X128340761Y-41352714D01*
X128293142Y-41305095D01*
X128197904Y-41257476D01*
X127388380Y-41257476D01*
X128388380Y-40257476D02*
X128388380Y-40828904D01*
X128388380Y-40543190D02*
X127388380Y-40543190D01*
X127531238Y-40638428D01*
X127626476Y-40733666D01*
X127674095Y-40828904D01*
X108291333Y-31822380D02*
X107958000Y-31346190D01*
X107719904Y-31822380D02*
X107719904Y-30822380D01*
X108100857Y-30822380D01*
X108196095Y-30870000D01*
X108243714Y-30917619D01*
X108291333Y-31012857D01*
X108291333Y-31155714D01*
X108243714Y-31250952D01*
X108196095Y-31298571D01*
X108100857Y-31346190D01*
X107719904Y-31346190D01*
X108624666Y-30822380D02*
X109243714Y-30822380D01*
X108910380Y-31203333D01*
X109053238Y-31203333D01*
X109148476Y-31250952D01*
X109196095Y-31298571D01*
X109243714Y-31393809D01*
X109243714Y-31631904D01*
X109196095Y-31727142D01*
X109148476Y-31774761D01*
X109053238Y-31822380D01*
X108767523Y-31822380D01*
X108672285Y-31774761D01*
X108624666Y-31727142D01*
X128476476Y-85545380D02*
X128476476Y-86259666D01*
X128428857Y-86402523D01*
X128333619Y-86497761D01*
X128190761Y-86545380D01*
X128095523Y-86545380D01*
X129476476Y-86545380D02*
X128905047Y-86545380D01*
X129190761Y-86545380D02*
X129190761Y-85545380D01*
X129095523Y-85688238D01*
X129000285Y-85783476D01*
X128905047Y-85831095D01*
X129857428Y-85640619D02*
X129905047Y-85593000D01*
X130000285Y-85545380D01*
X130238380Y-85545380D01*
X130333619Y-85593000D01*
X130381238Y-85640619D01*
X130428857Y-85735857D01*
X130428857Y-85831095D01*
X130381238Y-85973952D01*
X129809809Y-86545380D01*
X130428857Y-86545380D01*
X136096476Y-85545380D02*
X136096476Y-86259666D01*
X136048857Y-86402523D01*
X135953619Y-86497761D01*
X135810761Y-86545380D01*
X135715523Y-86545380D01*
X137096476Y-86545380D02*
X136525047Y-86545380D01*
X136810761Y-86545380D02*
X136810761Y-85545380D01*
X136715523Y-85688238D01*
X136620285Y-85783476D01*
X136525047Y-85831095D01*
X138048857Y-86545380D02*
X137477428Y-86545380D01*
X137763142Y-86545380D02*
X137763142Y-85545380D01*
X137667904Y-85688238D01*
X137572666Y-85783476D01*
X137477428Y-85831095D01*
X136096476Y-34872380D02*
X136096476Y-35586666D01*
X136048857Y-35729523D01*
X135953619Y-35824761D01*
X135810761Y-35872380D01*
X135715523Y-35872380D01*
X137096476Y-35872380D02*
X136525047Y-35872380D01*
X136810761Y-35872380D02*
X136810761Y-34872380D01*
X136715523Y-35015238D01*
X136620285Y-35110476D01*
X136525047Y-35158095D01*
X137715523Y-34872380D02*
X137810761Y-34872380D01*
X137906000Y-34920000D01*
X137953619Y-34967619D01*
X138001238Y-35062857D01*
X138048857Y-35253333D01*
X138048857Y-35491428D01*
X138001238Y-35681904D01*
X137953619Y-35777142D01*
X137906000Y-35824761D01*
X137810761Y-35872380D01*
X137715523Y-35872380D01*
X137620285Y-35824761D01*
X137572666Y-35777142D01*
X137525047Y-35681904D01*
X137477428Y-35491428D01*
X137477428Y-35253333D01*
X137525047Y-35062857D01*
X137572666Y-34967619D01*
X137620285Y-34920000D01*
X137715523Y-34872380D01*
X128952666Y-34872380D02*
X128952666Y-35586666D01*
X128905047Y-35729523D01*
X128809809Y-35824761D01*
X128666952Y-35872380D01*
X128571714Y-35872380D01*
X129476476Y-35872380D02*
X129666952Y-35872380D01*
X129762190Y-35824761D01*
X129809809Y-35777142D01*
X129905047Y-35634285D01*
X129952666Y-35443809D01*
X129952666Y-35062857D01*
X129905047Y-34967619D01*
X129857428Y-34920000D01*
X129762190Y-34872380D01*
X129571714Y-34872380D01*
X129476476Y-34920000D01*
X129428857Y-34967619D01*
X129381238Y-35062857D01*
X129381238Y-35300952D01*
X129428857Y-35396190D01*
X129476476Y-35443809D01*
X129571714Y-35491428D01*
X129762190Y-35491428D01*
X129857428Y-35443809D01*
X129905047Y-35396190D01*
X129952666Y-35300952D01*
X93646666Y-34872380D02*
X93646666Y-35586666D01*
X93599047Y-35729523D01*
X93503809Y-35824761D01*
X93360952Y-35872380D01*
X93265714Y-35872380D01*
X94265714Y-35300952D02*
X94170476Y-35253333D01*
X94122857Y-35205714D01*
X94075238Y-35110476D01*
X94075238Y-35062857D01*
X94122857Y-34967619D01*
X94170476Y-34920000D01*
X94265714Y-34872380D01*
X94456190Y-34872380D01*
X94551428Y-34920000D01*
X94599047Y-34967619D01*
X94646666Y-35062857D01*
X94646666Y-35110476D01*
X94599047Y-35205714D01*
X94551428Y-35253333D01*
X94456190Y-35300952D01*
X94265714Y-35300952D01*
X94170476Y-35348571D01*
X94122857Y-35396190D01*
X94075238Y-35491428D01*
X94075238Y-35681904D01*
X94122857Y-35777142D01*
X94170476Y-35824761D01*
X94265714Y-35872380D01*
X94456190Y-35872380D01*
X94551428Y-35824761D01*
X94599047Y-35777142D01*
X94646666Y-35681904D01*
X94646666Y-35491428D01*
X94599047Y-35396190D01*
X94551428Y-35348571D01*
X94456190Y-35300952D01*
X101266666Y-34872380D02*
X101266666Y-35586666D01*
X101219047Y-35729523D01*
X101123809Y-35824761D01*
X100980952Y-35872380D01*
X100885714Y-35872380D01*
X101647619Y-34872380D02*
X102314285Y-34872380D01*
X101885714Y-35872380D01*
X118504642Y-72464142D02*
X118457023Y-72511761D01*
X118314166Y-72559380D01*
X118218928Y-72559380D01*
X118076071Y-72511761D01*
X117980833Y-72416523D01*
X117933214Y-72321285D01*
X117885595Y-72130809D01*
X117885595Y-71987952D01*
X117933214Y-71797476D01*
X117980833Y-71702238D01*
X118076071Y-71607000D01*
X118218928Y-71559380D01*
X118314166Y-71559380D01*
X118457023Y-71607000D01*
X118504642Y-71654619D01*
X119457023Y-72559380D02*
X118885595Y-72559380D01*
X119171309Y-72559380D02*
X119171309Y-71559380D01*
X119076071Y-71702238D01*
X118980833Y-71797476D01*
X118885595Y-71845095D01*
X119837976Y-71654619D02*
X119885595Y-71607000D01*
X119980833Y-71559380D01*
X120218928Y-71559380D01*
X120314166Y-71607000D01*
X120361785Y-71654619D01*
X120409404Y-71749857D01*
X120409404Y-71845095D01*
X120361785Y-71987952D01*
X119790357Y-72559380D01*
X120409404Y-72559380D01*
X128410642Y-37793142D02*
X128363023Y-37840761D01*
X128220166Y-37888380D01*
X128124928Y-37888380D01*
X127982071Y-37840761D01*
X127886833Y-37745523D01*
X127839214Y-37650285D01*
X127791595Y-37459809D01*
X127791595Y-37316952D01*
X127839214Y-37126476D01*
X127886833Y-37031238D01*
X127982071Y-36936000D01*
X128124928Y-36888380D01*
X128220166Y-36888380D01*
X128363023Y-36936000D01*
X128410642Y-36983619D01*
X129363023Y-37888380D02*
X128791595Y-37888380D01*
X129077309Y-37888380D02*
X129077309Y-36888380D01*
X128982071Y-37031238D01*
X128886833Y-37126476D01*
X128791595Y-37174095D01*
X130315404Y-37888380D02*
X129743976Y-37888380D01*
X130029690Y-37888380D02*
X130029690Y-36888380D01*
X129934452Y-37031238D01*
X129839214Y-37126476D01*
X129743976Y-37174095D01*
X116070142Y-70432142D02*
X116022523Y-70479761D01*
X115879666Y-70527380D01*
X115784428Y-70527380D01*
X115641571Y-70479761D01*
X115546333Y-70384523D01*
X115498714Y-70289285D01*
X115451095Y-70098809D01*
X115451095Y-69955952D01*
X115498714Y-69765476D01*
X115546333Y-69670238D01*
X115641571Y-69575000D01*
X115784428Y-69527380D01*
X115879666Y-69527380D01*
X116022523Y-69575000D01*
X116070142Y-69622619D01*
X117022523Y-70527380D02*
X116451095Y-70527380D01*
X116736809Y-70527380D02*
X116736809Y-69527380D01*
X116641571Y-69670238D01*
X116546333Y-69765476D01*
X116451095Y-69813095D01*
X117641571Y-69527380D02*
X117736809Y-69527380D01*
X117832047Y-69575000D01*
X117879666Y-69622619D01*
X117927285Y-69717857D01*
X117974904Y-69908333D01*
X117974904Y-70146428D01*
X117927285Y-70336904D01*
X117879666Y-70432142D01*
X117832047Y-70479761D01*
X117736809Y-70527380D01*
X117641571Y-70527380D01*
X117546333Y-70479761D01*
X117498714Y-70432142D01*
X117451095Y-70336904D01*
X117403476Y-70146428D01*
X117403476Y-69908333D01*
X117451095Y-69717857D01*
X117498714Y-69622619D01*
X117546333Y-69575000D01*
X117641571Y-69527380D01*
X119699833Y-41153142D02*
X119652214Y-41200761D01*
X119509357Y-41248380D01*
X119414119Y-41248380D01*
X119271261Y-41200761D01*
X119176023Y-41105523D01*
X119128404Y-41010285D01*
X119080785Y-40819809D01*
X119080785Y-40676952D01*
X119128404Y-40486476D01*
X119176023Y-40391238D01*
X119271261Y-40296000D01*
X119414119Y-40248380D01*
X119509357Y-40248380D01*
X119652214Y-40296000D01*
X119699833Y-40343619D01*
X120271261Y-40676952D02*
X120176023Y-40629333D01*
X120128404Y-40581714D01*
X120080785Y-40486476D01*
X120080785Y-40438857D01*
X120128404Y-40343619D01*
X120176023Y-40296000D01*
X120271261Y-40248380D01*
X120461738Y-40248380D01*
X120556976Y-40296000D01*
X120604595Y-40343619D01*
X120652214Y-40438857D01*
X120652214Y-40486476D01*
X120604595Y-40581714D01*
X120556976Y-40629333D01*
X120461738Y-40676952D01*
X120271261Y-40676952D01*
X120176023Y-40724571D01*
X120128404Y-40772190D01*
X120080785Y-40867428D01*
X120080785Y-41057904D01*
X120128404Y-41153142D01*
X120176023Y-41200761D01*
X120271261Y-41248380D01*
X120461738Y-41248380D01*
X120556976Y-41200761D01*
X120604595Y-41153142D01*
X120652214Y-41057904D01*
X120652214Y-40867428D01*
X120604595Y-40772190D01*
X120556976Y-40724571D01*
X120461738Y-40676952D01*
X134062861Y-72585980D02*
X133729528Y-72109790D01*
X133491433Y-72585980D02*
X133491433Y-71585980D01*
X133872385Y-71585980D01*
X133967623Y-71633600D01*
X134015242Y-71681219D01*
X134062861Y-71776457D01*
X134062861Y-71919314D01*
X134015242Y-72014552D01*
X133967623Y-72062171D01*
X133872385Y-72109790D01*
X133491433Y-72109790D01*
X134348576Y-71585980D02*
X134681909Y-72585980D01*
X135015242Y-71585980D01*
X135300957Y-71681219D02*
X135348576Y-71633600D01*
X135443814Y-71585980D01*
X135681909Y-71585980D01*
X135777147Y-71633600D01*
X135824766Y-71681219D01*
X135872385Y-71776457D01*
X135872385Y-71871695D01*
X135824766Y-72014552D01*
X135253338Y-72585980D01*
X135872385Y-72585980D01*
X132914380Y-71207166D02*
X132438190Y-71540500D01*
X132914380Y-71778595D02*
X131914380Y-71778595D01*
X131914380Y-71397642D01*
X131962000Y-71302404D01*
X132009619Y-71254785D01*
X132104857Y-71207166D01*
X132247714Y-71207166D01*
X132342952Y-71254785D01*
X132390571Y-71302404D01*
X132438190Y-71397642D01*
X132438190Y-71778595D01*
X132009619Y-70826214D02*
X131962000Y-70778595D01*
X131914380Y-70683357D01*
X131914380Y-70445261D01*
X131962000Y-70350023D01*
X132009619Y-70302404D01*
X132104857Y-70254785D01*
X132200095Y-70254785D01*
X132342952Y-70302404D01*
X132914380Y-70873833D01*
X132914380Y-70254785D01*
X137416842Y-65889166D02*
X137464461Y-65936785D01*
X137512080Y-66079642D01*
X137512080Y-66174880D01*
X137464461Y-66317738D01*
X137369223Y-66412976D01*
X137273985Y-66460595D01*
X137083509Y-66508214D01*
X136940652Y-66508214D01*
X136750176Y-66460595D01*
X136654938Y-66412976D01*
X136559700Y-66317738D01*
X136512080Y-66174880D01*
X136512080Y-66079642D01*
X136559700Y-65936785D01*
X136607319Y-65889166D01*
X136512080Y-65555833D02*
X136512080Y-64889166D01*
X137512080Y-65317738D01*
X137094933Y-72090342D02*
X137047314Y-72137961D01*
X136904457Y-72185580D01*
X136809219Y-72185580D01*
X136666361Y-72137961D01*
X136571123Y-72042723D01*
X136523504Y-71947485D01*
X136475885Y-71757009D01*
X136475885Y-71614152D01*
X136523504Y-71423676D01*
X136571123Y-71328438D01*
X136666361Y-71233200D01*
X136809219Y-71185580D01*
X136904457Y-71185580D01*
X137047314Y-71233200D01*
X137094933Y-71280819D01*
X137952076Y-71185580D02*
X137761600Y-71185580D01*
X137666361Y-71233200D01*
X137618742Y-71280819D01*
X137523504Y-71423676D01*
X137475885Y-71614152D01*
X137475885Y-71995104D01*
X137523504Y-72090342D01*
X137571123Y-72137961D01*
X137666361Y-72185580D01*
X137856838Y-72185580D01*
X137952076Y-72137961D01*
X137999695Y-72090342D01*
X138047314Y-71995104D01*
X138047314Y-71757009D01*
X137999695Y-71661771D01*
X137952076Y-71614152D01*
X137856838Y-71566533D01*
X137666361Y-71566533D01*
X137571123Y-71614152D01*
X137523504Y-71661771D01*
X137475885Y-71757009D01*
X127581542Y-65241066D02*
X127629161Y-65288685D01*
X127676780Y-65431542D01*
X127676780Y-65526780D01*
X127629161Y-65669638D01*
X127533923Y-65764876D01*
X127438685Y-65812495D01*
X127248209Y-65860114D01*
X127105352Y-65860114D01*
X126914876Y-65812495D01*
X126819638Y-65764876D01*
X126724400Y-65669638D01*
X126676780Y-65526780D01*
X126676780Y-65431542D01*
X126724400Y-65288685D01*
X126772019Y-65241066D01*
X127010114Y-64383923D02*
X127676780Y-64383923D01*
X126629161Y-64622019D02*
X127343447Y-64860114D01*
X127343447Y-64241066D01*
X129302495Y-47290280D02*
X129302495Y-48099804D01*
X129350114Y-48195042D01*
X129397733Y-48242661D01*
X129492971Y-48290280D01*
X129683447Y-48290280D01*
X129778685Y-48242661D01*
X129826304Y-48195042D01*
X129873923Y-48099804D01*
X129873923Y-47290280D01*
X130254876Y-47290280D02*
X130873923Y-47290280D01*
X130540590Y-47671233D01*
X130683447Y-47671233D01*
X130778685Y-47718852D01*
X130826304Y-47766471D01*
X130873923Y-47861709D01*
X130873923Y-48099804D01*
X130826304Y-48195042D01*
X130778685Y-48242661D01*
X130683447Y-48290280D01*
X130397733Y-48290280D01*
X130302495Y-48242661D01*
X130254876Y-48195042D01*
X132981942Y-48400866D02*
X133029561Y-48448485D01*
X133077180Y-48591342D01*
X133077180Y-48686580D01*
X133029561Y-48829438D01*
X132934323Y-48924676D01*
X132839085Y-48972295D01*
X132648609Y-49019914D01*
X132505752Y-49019914D01*
X132315276Y-48972295D01*
X132220038Y-48924676D01*
X132124800Y-48829438D01*
X132077180Y-48686580D01*
X132077180Y-48591342D01*
X132124800Y-48448485D01*
X132172419Y-48400866D01*
X133077180Y-47924676D02*
X133077180Y-47734200D01*
X133029561Y-47638961D01*
X132981942Y-47591342D01*
X132839085Y-47496104D01*
X132648609Y-47448485D01*
X132267657Y-47448485D01*
X132172419Y-47496104D01*
X132124800Y-47543723D01*
X132077180Y-47638961D01*
X132077180Y-47829438D01*
X132124800Y-47924676D01*
X132172419Y-47972295D01*
X132267657Y-48019914D01*
X132505752Y-48019914D01*
X132600990Y-47972295D01*
X132648609Y-47924676D01*
X132696228Y-47829438D01*
X132696228Y-47638961D01*
X132648609Y-47543723D01*
X132600990Y-47496104D01*
X132505752Y-47448485D01*
X137374333Y-50493142D02*
X137326714Y-50540761D01*
X137183857Y-50588380D01*
X137088619Y-50588380D01*
X136945761Y-50540761D01*
X136850523Y-50445523D01*
X136802904Y-50350285D01*
X136755285Y-50159809D01*
X136755285Y-50016952D01*
X136802904Y-49826476D01*
X136850523Y-49731238D01*
X136945761Y-49636000D01*
X137088619Y-49588380D01*
X137183857Y-49588380D01*
X137326714Y-49636000D01*
X137374333Y-49683619D01*
X138279095Y-49588380D02*
X137802904Y-49588380D01*
X137755285Y-50064571D01*
X137802904Y-50016952D01*
X137898142Y-49969333D01*
X138136238Y-49969333D01*
X138231476Y-50016952D01*
X138279095Y-50064571D01*
X138326714Y-50159809D01*
X138326714Y-50397904D01*
X138279095Y-50493142D01*
X138231476Y-50540761D01*
X138136238Y-50588380D01*
X137898142Y-50588380D01*
X137802904Y-50540761D01*
X137755285Y-50493142D01*
X124110142Y-47766266D02*
X124157761Y-47813885D01*
X124205380Y-47956742D01*
X124205380Y-48051980D01*
X124157761Y-48194838D01*
X124062523Y-48290076D01*
X123967285Y-48337695D01*
X123776809Y-48385314D01*
X123633952Y-48385314D01*
X123443476Y-48337695D01*
X123348238Y-48290076D01*
X123253000Y-48194838D01*
X123205380Y-48051980D01*
X123205380Y-47956742D01*
X123253000Y-47813885D01*
X123300619Y-47766266D01*
X123205380Y-47432933D02*
X123205380Y-46813885D01*
X123586333Y-47147219D01*
X123586333Y-47004361D01*
X123633952Y-46909123D01*
X123681571Y-46861504D01*
X123776809Y-46813885D01*
X124014904Y-46813885D01*
X124110142Y-46861504D01*
X124157761Y-46909123D01*
X124205380Y-47004361D01*
X124205380Y-47290076D01*
X124157761Y-47385314D01*
X124110142Y-47432933D01*
X121609380Y-63301666D02*
X121133190Y-63635000D01*
X121609380Y-63873095D02*
X120609380Y-63873095D01*
X120609380Y-63492142D01*
X120657000Y-63396904D01*
X120704619Y-63349285D01*
X120799857Y-63301666D01*
X120942714Y-63301666D01*
X121037952Y-63349285D01*
X121085571Y-63396904D01*
X121133190Y-63492142D01*
X121133190Y-63873095D01*
X121037952Y-62730238D02*
X120990333Y-62825476D01*
X120942714Y-62873095D01*
X120847476Y-62920714D01*
X120799857Y-62920714D01*
X120704619Y-62873095D01*
X120657000Y-62825476D01*
X120609380Y-62730238D01*
X120609380Y-62539761D01*
X120657000Y-62444523D01*
X120704619Y-62396904D01*
X120799857Y-62349285D01*
X120847476Y-62349285D01*
X120942714Y-62396904D01*
X120990333Y-62444523D01*
X121037952Y-62539761D01*
X121037952Y-62730238D01*
X121085571Y-62825476D01*
X121133190Y-62873095D01*
X121228428Y-62920714D01*
X121418904Y-62920714D01*
X121514142Y-62873095D01*
X121561761Y-62825476D01*
X121609380Y-62730238D01*
X121609380Y-62539761D01*
X121561761Y-62444523D01*
X121514142Y-62396904D01*
X121418904Y-62349285D01*
X121228428Y-62349285D01*
X121133190Y-62396904D01*
X121085571Y-62444523D01*
X121037952Y-62539761D01*
X115895333Y-62810380D02*
X115562000Y-62334190D01*
X115323904Y-62810380D02*
X115323904Y-61810380D01*
X115704857Y-61810380D01*
X115800095Y-61858000D01*
X115847714Y-61905619D01*
X115895333Y-62000857D01*
X115895333Y-62143714D01*
X115847714Y-62238952D01*
X115800095Y-62286571D01*
X115704857Y-62334190D01*
X115323904Y-62334190D01*
X116228666Y-61810380D02*
X116895333Y-61810380D01*
X116466761Y-62810380D01*
X121863380Y-53617666D02*
X121387190Y-53951000D01*
X121863380Y-54189095D02*
X120863380Y-54189095D01*
X120863380Y-53808142D01*
X120911000Y-53712904D01*
X120958619Y-53665285D01*
X121053857Y-53617666D01*
X121196714Y-53617666D01*
X121291952Y-53665285D01*
X121339571Y-53712904D01*
X121387190Y-53808142D01*
X121387190Y-54189095D01*
X120863380Y-52712904D02*
X120863380Y-53189095D01*
X121339571Y-53236714D01*
X121291952Y-53189095D01*
X121244333Y-53093857D01*
X121244333Y-52855761D01*
X121291952Y-52760523D01*
X121339571Y-52712904D01*
X121434809Y-52665285D01*
X121672904Y-52665285D01*
X121768142Y-52712904D01*
X121815761Y-52760523D01*
X121863380Y-52855761D01*
X121863380Y-53093857D01*
X121815761Y-53189095D01*
X121768142Y-53236714D01*
X119538761Y-70342619D02*
X119443523Y-70295000D01*
X119348285Y-70199761D01*
X119205428Y-70056904D01*
X119110190Y-70009285D01*
X119014952Y-70009285D01*
X119062571Y-70247380D02*
X118967333Y-70199761D01*
X118872095Y-70104523D01*
X118824476Y-69914047D01*
X118824476Y-69580714D01*
X118872095Y-69390238D01*
X118967333Y-69295000D01*
X119062571Y-69247380D01*
X119253047Y-69247380D01*
X119348285Y-69295000D01*
X119443523Y-69390238D01*
X119491142Y-69580714D01*
X119491142Y-69914047D01*
X119443523Y-70104523D01*
X119348285Y-70199761D01*
X119253047Y-70247380D01*
X119062571Y-70247380D01*
X119872095Y-69342619D02*
X119919714Y-69295000D01*
X120014952Y-69247380D01*
X120253047Y-69247380D01*
X120348285Y-69295000D01*
X120395904Y-69342619D01*
X120443523Y-69437857D01*
X120443523Y-69533095D01*
X120395904Y-69675952D01*
X119824476Y-70247380D01*
X120443523Y-70247380D01*
X119665761Y-52816619D02*
X119570523Y-52769000D01*
X119475285Y-52673761D01*
X119332428Y-52530904D01*
X119237190Y-52483285D01*
X119141952Y-52483285D01*
X119189571Y-52721380D02*
X119094333Y-52673761D01*
X118999095Y-52578523D01*
X118951476Y-52388047D01*
X118951476Y-52054714D01*
X118999095Y-51864238D01*
X119094333Y-51769000D01*
X119189571Y-51721380D01*
X119380047Y-51721380D01*
X119475285Y-51769000D01*
X119570523Y-51864238D01*
X119618142Y-52054714D01*
X119618142Y-52388047D01*
X119570523Y-52578523D01*
X119475285Y-52673761D01*
X119380047Y-52721380D01*
X119189571Y-52721380D01*
X120570523Y-52721380D02*
X119999095Y-52721380D01*
X120284809Y-52721380D02*
X120284809Y-51721380D01*
X120189571Y-51864238D01*
X120094333Y-51959476D01*
X119999095Y-52007095D01*
X134431161Y-54412280D02*
X134097828Y-53936090D01*
X133859733Y-54412280D02*
X133859733Y-53412280D01*
X134240685Y-53412280D01*
X134335923Y-53459900D01*
X134383542Y-53507519D01*
X134431161Y-53602757D01*
X134431161Y-53745614D01*
X134383542Y-53840852D01*
X134335923Y-53888471D01*
X134240685Y-53936090D01*
X133859733Y-53936090D01*
X134716876Y-53412280D02*
X135050209Y-54412280D01*
X135383542Y-53412280D01*
X136240685Y-54412280D02*
X135669257Y-54412280D01*
X135954971Y-54412280D02*
X135954971Y-53412280D01*
X135859733Y-53555138D01*
X135764495Y-53650376D01*
X135669257Y-53697995D01*
X136658880Y-52982666D02*
X136182690Y-53316000D01*
X136658880Y-53554095D02*
X135658880Y-53554095D01*
X135658880Y-53173142D01*
X135706500Y-53077904D01*
X135754119Y-53030285D01*
X135849357Y-52982666D01*
X135992214Y-52982666D01*
X136087452Y-53030285D01*
X136135071Y-53077904D01*
X136182690Y-53173142D01*
X136182690Y-53554095D01*
X136658880Y-52030285D02*
X136658880Y-52601714D01*
X136658880Y-52316000D02*
X135658880Y-52316000D01*
X135801738Y-52411238D01*
X135896976Y-52506476D01*
X135944595Y-52601714D01*
X144040266Y-69162380D02*
X144040266Y-69876666D01*
X143992647Y-70019523D01*
X143897409Y-70114761D01*
X143754552Y-70162380D01*
X143659314Y-70162380D01*
X144945028Y-69162380D02*
X144754552Y-69162380D01*
X144659314Y-69210000D01*
X144611695Y-69257619D01*
X144516457Y-69400476D01*
X144468838Y-69590952D01*
X144468838Y-69971904D01*
X144516457Y-70067142D01*
X144564076Y-70114761D01*
X144659314Y-70162380D01*
X144849790Y-70162380D01*
X144945028Y-70114761D01*
X144992647Y-70067142D01*
X145040266Y-69971904D01*
X145040266Y-69733809D01*
X144992647Y-69638571D01*
X144945028Y-69590952D01*
X144849790Y-69543333D01*
X144659314Y-69543333D01*
X144564076Y-69590952D01*
X144516457Y-69638571D01*
X144468838Y-69733809D01*
X143989466Y-59916780D02*
X143989466Y-60631066D01*
X143941847Y-60773923D01*
X143846609Y-60869161D01*
X143703752Y-60916780D01*
X143608514Y-60916780D01*
X144941847Y-59916780D02*
X144465657Y-59916780D01*
X144418038Y-60392971D01*
X144465657Y-60345352D01*
X144560895Y-60297733D01*
X144798990Y-60297733D01*
X144894228Y-60345352D01*
X144941847Y-60392971D01*
X144989466Y-60488209D01*
X144989466Y-60726304D01*
X144941847Y-60821542D01*
X144894228Y-60869161D01*
X144798990Y-60916780D01*
X144560895Y-60916780D01*
X144465657Y-60869161D01*
X144418038Y-60821542D01*
X143989466Y-51636380D02*
X143989466Y-52350666D01*
X143941847Y-52493523D01*
X143846609Y-52588761D01*
X143703752Y-52636380D01*
X143608514Y-52636380D01*
X144894228Y-51969714D02*
X144894228Y-52636380D01*
X144656133Y-51588761D02*
X144418038Y-52303047D01*
X145037085Y-52303047D01*
X85899666Y-51509380D02*
X85899666Y-52223666D01*
X85852047Y-52366523D01*
X85756809Y-52461761D01*
X85613952Y-52509380D01*
X85518714Y-52509380D01*
X86280619Y-51509380D02*
X86899666Y-51509380D01*
X86566333Y-51890333D01*
X86709190Y-51890333D01*
X86804428Y-51937952D01*
X86852047Y-51985571D01*
X86899666Y-52080809D01*
X86899666Y-52318904D01*
X86852047Y-52414142D01*
X86804428Y-52461761D01*
X86709190Y-52509380D01*
X86423476Y-52509380D01*
X86328238Y-52461761D01*
X86280619Y-52414142D01*
X86026666Y-60018380D02*
X86026666Y-60732666D01*
X85979047Y-60875523D01*
X85883809Y-60970761D01*
X85740952Y-61018380D01*
X85645714Y-61018380D01*
X86455238Y-60113619D02*
X86502857Y-60066000D01*
X86598095Y-60018380D01*
X86836190Y-60018380D01*
X86931428Y-60066000D01*
X86979047Y-60113619D01*
X87026666Y-60208857D01*
X87026666Y-60304095D01*
X86979047Y-60446952D01*
X86407619Y-61018380D01*
X87026666Y-61018380D01*
X85899666Y-69162380D02*
X85899666Y-69876666D01*
X85852047Y-70019523D01*
X85756809Y-70114761D01*
X85613952Y-70162380D01*
X85518714Y-70162380D01*
X86899666Y-70162380D02*
X86328238Y-70162380D01*
X86613952Y-70162380D02*
X86613952Y-69162380D01*
X86518714Y-69305238D01*
X86423476Y-69400476D01*
X86328238Y-69448095D01*
X145288095Y-29272380D02*
X145288095Y-28272380D01*
X145288095Y-28748571D02*
X145859523Y-28748571D01*
X145859523Y-29272380D02*
X145859523Y-28272380D01*
X146764285Y-28605714D02*
X146764285Y-29272380D01*
X146526190Y-28224761D02*
X146288095Y-28939047D01*
X146907142Y-28939047D01*
X145288095Y-80072380D02*
X145288095Y-79072380D01*
X145288095Y-79548571D02*
X145859523Y-79548571D01*
X145859523Y-80072380D02*
X145859523Y-79072380D01*
X146240476Y-79072380D02*
X146859523Y-79072380D01*
X146526190Y-79453333D01*
X146669047Y-79453333D01*
X146764285Y-79500952D01*
X146811904Y-79548571D01*
X146859523Y-79643809D01*
X146859523Y-79881904D01*
X146811904Y-79977142D01*
X146764285Y-80024761D01*
X146669047Y-80072380D01*
X146383333Y-80072380D01*
X146288095Y-80024761D01*
X146240476Y-79977142D01*
X84328095Y-80072380D02*
X84328095Y-79072380D01*
X84328095Y-79548571D02*
X84899523Y-79548571D01*
X84899523Y-80072380D02*
X84899523Y-79072380D01*
X85328095Y-79167619D02*
X85375714Y-79120000D01*
X85470952Y-79072380D01*
X85709047Y-79072380D01*
X85804285Y-79120000D01*
X85851904Y-79167619D01*
X85899523Y-79262857D01*
X85899523Y-79358095D01*
X85851904Y-79500952D01*
X85280476Y-80072380D01*
X85899523Y-80072380D01*
X84328095Y-29272380D02*
X84328095Y-28272380D01*
X84328095Y-28748571D02*
X84899523Y-28748571D01*
X84899523Y-29272380D02*
X84899523Y-28272380D01*
X85899523Y-29272380D02*
X85328095Y-29272380D01*
X85613809Y-29272380D02*
X85613809Y-28272380D01*
X85518571Y-28415238D01*
X85423333Y-28510476D01*
X85328095Y-28558095D01*
M02*
