G04 #@! TF.GenerationSoftware,KiCad,Pcbnew,(5.1.10-0-10_14)*
G04 #@! TF.CreationDate,2021-10-31T18:18:55+01:00*
G04 #@! TF.ProjectId,pre-amp-opa627,7072652d-616d-4702-9d6f-70613632372e,rev?*
G04 #@! TF.SameCoordinates,Original*
G04 #@! TF.FileFunction,Copper,L1,Top*
G04 #@! TF.FilePolarity,Positive*
%FSLAX46Y46*%
G04 Gerber Fmt 4.6, Leading zero omitted, Abs format (unit mm)*
G04 Created by KiCad (PCBNEW (5.1.10-0-10_14)) date 2021-10-31 18:18:55*
%MOMM*%
%LPD*%
G01*
G04 APERTURE LIST*
G04 #@! TA.AperFunction,ComponentPad*
%ADD10C,1.440000*%
G04 #@! TD*
G04 #@! TA.AperFunction,ComponentPad*
%ADD11O,1.600000X1.600000*%
G04 #@! TD*
G04 #@! TA.AperFunction,ComponentPad*
%ADD12R,1.600000X1.600000*%
G04 #@! TD*
G04 #@! TA.AperFunction,ComponentPad*
%ADD13C,1.600000*%
G04 #@! TD*
G04 #@! TA.AperFunction,ComponentPad*
%ADD14C,2.000000*%
G04 #@! TD*
G04 #@! TA.AperFunction,ViaPad*
%ADD15C,0.600000*%
G04 #@! TD*
G04 #@! TA.AperFunction,Conductor*
%ADD16C,0.500000*%
G04 #@! TD*
G04 #@! TA.AperFunction,Conductor*
%ADD17C,0.250000*%
G04 #@! TD*
G04 #@! TA.AperFunction,Conductor*
%ADD18C,0.254000*%
G04 #@! TD*
G04 #@! TA.AperFunction,Conductor*
%ADD19C,0.100000*%
G04 #@! TD*
G04 APERTURE END LIST*
G04 #@! TA.AperFunction,SMDPad,CuDef*
G36*
G01*
X154045499Y-124717000D02*
X154945501Y-124717000D01*
G75*
G02*
X155195500Y-124966999I0J-249999D01*
G01*
X155195500Y-125667001D01*
G75*
G02*
X154945501Y-125917000I-249999J0D01*
G01*
X154045499Y-125917000D01*
G75*
G02*
X153795500Y-125667001I0J249999D01*
G01*
X153795500Y-124966999D01*
G75*
G02*
X154045499Y-124717000I249999J0D01*
G01*
G37*
G04 #@! TD.AperFunction*
G04 #@! TA.AperFunction,SMDPad,CuDef*
G36*
G01*
X154045499Y-122717000D02*
X154945501Y-122717000D01*
G75*
G02*
X155195500Y-122966999I0J-249999D01*
G01*
X155195500Y-123667001D01*
G75*
G02*
X154945501Y-123917000I-249999J0D01*
G01*
X154045499Y-123917000D01*
G75*
G02*
X153795500Y-123667001I0J249999D01*
G01*
X153795500Y-122966999D01*
G75*
G02*
X154045499Y-122717000I249999J0D01*
G01*
G37*
G04 #@! TD.AperFunction*
G04 #@! TA.AperFunction,SMDPad,CuDef*
G36*
G01*
X152186500Y-125958500D02*
X152486500Y-125958500D01*
G75*
G02*
X152636500Y-126108500I0J-150000D01*
G01*
X152636500Y-127758500D01*
G75*
G02*
X152486500Y-127908500I-150000J0D01*
G01*
X152186500Y-127908500D01*
G75*
G02*
X152036500Y-127758500I0J150000D01*
G01*
X152036500Y-126108500D01*
G75*
G02*
X152186500Y-125958500I150000J0D01*
G01*
G37*
G04 #@! TD.AperFunction*
G04 #@! TA.AperFunction,SMDPad,CuDef*
G36*
G01*
X150916500Y-125958500D02*
X151216500Y-125958500D01*
G75*
G02*
X151366500Y-126108500I0J-150000D01*
G01*
X151366500Y-127758500D01*
G75*
G02*
X151216500Y-127908500I-150000J0D01*
G01*
X150916500Y-127908500D01*
G75*
G02*
X150766500Y-127758500I0J150000D01*
G01*
X150766500Y-126108500D01*
G75*
G02*
X150916500Y-125958500I150000J0D01*
G01*
G37*
G04 #@! TD.AperFunction*
G04 #@! TA.AperFunction,SMDPad,CuDef*
G36*
G01*
X149646500Y-125958500D02*
X149946500Y-125958500D01*
G75*
G02*
X150096500Y-126108500I0J-150000D01*
G01*
X150096500Y-127758500D01*
G75*
G02*
X149946500Y-127908500I-150000J0D01*
G01*
X149646500Y-127908500D01*
G75*
G02*
X149496500Y-127758500I0J150000D01*
G01*
X149496500Y-126108500D01*
G75*
G02*
X149646500Y-125958500I150000J0D01*
G01*
G37*
G04 #@! TD.AperFunction*
G04 #@! TA.AperFunction,SMDPad,CuDef*
G36*
G01*
X148376500Y-125958500D02*
X148676500Y-125958500D01*
G75*
G02*
X148826500Y-126108500I0J-150000D01*
G01*
X148826500Y-127758500D01*
G75*
G02*
X148676500Y-127908500I-150000J0D01*
G01*
X148376500Y-127908500D01*
G75*
G02*
X148226500Y-127758500I0J150000D01*
G01*
X148226500Y-126108500D01*
G75*
G02*
X148376500Y-125958500I150000J0D01*
G01*
G37*
G04 #@! TD.AperFunction*
G04 #@! TA.AperFunction,SMDPad,CuDef*
G36*
G01*
X148376500Y-121008500D02*
X148676500Y-121008500D01*
G75*
G02*
X148826500Y-121158500I0J-150000D01*
G01*
X148826500Y-122808500D01*
G75*
G02*
X148676500Y-122958500I-150000J0D01*
G01*
X148376500Y-122958500D01*
G75*
G02*
X148226500Y-122808500I0J150000D01*
G01*
X148226500Y-121158500D01*
G75*
G02*
X148376500Y-121008500I150000J0D01*
G01*
G37*
G04 #@! TD.AperFunction*
G04 #@! TA.AperFunction,SMDPad,CuDef*
G36*
G01*
X149646500Y-121008500D02*
X149946500Y-121008500D01*
G75*
G02*
X150096500Y-121158500I0J-150000D01*
G01*
X150096500Y-122808500D01*
G75*
G02*
X149946500Y-122958500I-150000J0D01*
G01*
X149646500Y-122958500D01*
G75*
G02*
X149496500Y-122808500I0J150000D01*
G01*
X149496500Y-121158500D01*
G75*
G02*
X149646500Y-121008500I150000J0D01*
G01*
G37*
G04 #@! TD.AperFunction*
G04 #@! TA.AperFunction,SMDPad,CuDef*
G36*
G01*
X150916500Y-121008500D02*
X151216500Y-121008500D01*
G75*
G02*
X151366500Y-121158500I0J-150000D01*
G01*
X151366500Y-122808500D01*
G75*
G02*
X151216500Y-122958500I-150000J0D01*
G01*
X150916500Y-122958500D01*
G75*
G02*
X150766500Y-122808500I0J150000D01*
G01*
X150766500Y-121158500D01*
G75*
G02*
X150916500Y-121008500I150000J0D01*
G01*
G37*
G04 #@! TD.AperFunction*
G04 #@! TA.AperFunction,SMDPad,CuDef*
G36*
G01*
X152186500Y-121008500D02*
X152486500Y-121008500D01*
G75*
G02*
X152636500Y-121158500I0J-150000D01*
G01*
X152636500Y-122808500D01*
G75*
G02*
X152486500Y-122958500I-150000J0D01*
G01*
X152186500Y-122958500D01*
G75*
G02*
X152036500Y-122808500I0J150000D01*
G01*
X152036500Y-121158500D01*
G75*
G02*
X152186500Y-121008500I150000J0D01*
G01*
G37*
G04 #@! TD.AperFunction*
D10*
X144272000Y-109855000D03*
X141732000Y-109855000D03*
X139192000Y-109855000D03*
G04 #@! TA.AperFunction,SMDPad,CuDef*
G36*
G01*
X141602000Y-119120499D02*
X141602000Y-120020501D01*
G75*
G02*
X141352001Y-120270500I-249999J0D01*
G01*
X140651999Y-120270500D01*
G75*
G02*
X140402000Y-120020501I0J249999D01*
G01*
X140402000Y-119120499D01*
G75*
G02*
X140651999Y-118870500I249999J0D01*
G01*
X141352001Y-118870500D01*
G75*
G02*
X141602000Y-119120499I0J-249999D01*
G01*
G37*
G04 #@! TD.AperFunction*
G04 #@! TA.AperFunction,SMDPad,CuDef*
G36*
G01*
X143602000Y-119120499D02*
X143602000Y-120020501D01*
G75*
G02*
X143352001Y-120270500I-249999J0D01*
G01*
X142651999Y-120270500D01*
G75*
G02*
X142402000Y-120020501I0J249999D01*
G01*
X142402000Y-119120499D01*
G75*
G02*
X142651999Y-118870500I249999J0D01*
G01*
X143352001Y-118870500D01*
G75*
G02*
X143602000Y-119120499I0J-249999D01*
G01*
G37*
G04 #@! TD.AperFunction*
G04 #@! TA.AperFunction,SMDPad,CuDef*
G36*
G01*
X134782000Y-117480501D02*
X134782000Y-116580499D01*
G75*
G02*
X135031999Y-116330500I249999J0D01*
G01*
X135732001Y-116330500D01*
G75*
G02*
X135982000Y-116580499I0J-249999D01*
G01*
X135982000Y-117480501D01*
G75*
G02*
X135732001Y-117730500I-249999J0D01*
G01*
X135031999Y-117730500D01*
G75*
G02*
X134782000Y-117480501I0J249999D01*
G01*
G37*
G04 #@! TD.AperFunction*
G04 #@! TA.AperFunction,SMDPad,CuDef*
G36*
G01*
X132782000Y-117480501D02*
X132782000Y-116580499D01*
G75*
G02*
X133031999Y-116330500I249999J0D01*
G01*
X133732001Y-116330500D01*
G75*
G02*
X133982000Y-116580499I0J-249999D01*
G01*
X133982000Y-117480501D01*
G75*
G02*
X133732001Y-117730500I-249999J0D01*
G01*
X133031999Y-117730500D01*
G75*
G02*
X132782000Y-117480501I0J249999D01*
G01*
G37*
G04 #@! TD.AperFunction*
D11*
X145796000Y-114490500D03*
X138176000Y-122110500D03*
X145796000Y-117030500D03*
X138176000Y-119570500D03*
X145796000Y-119570500D03*
X138176000Y-117030500D03*
X145796000Y-122110500D03*
D12*
X138176000Y-114490500D03*
G04 #@! TA.AperFunction,SMDPad,CuDef*
G36*
G01*
X142457500Y-117505500D02*
X142457500Y-116555500D01*
G75*
G02*
X142707500Y-116305500I250000J0D01*
G01*
X143382500Y-116305500D01*
G75*
G02*
X143632500Y-116555500I0J-250000D01*
G01*
X143632500Y-117505500D01*
G75*
G02*
X143382500Y-117755500I-250000J0D01*
G01*
X142707500Y-117755500D01*
G75*
G02*
X142457500Y-117505500I0J250000D01*
G01*
G37*
G04 #@! TD.AperFunction*
G04 #@! TA.AperFunction,SMDPad,CuDef*
G36*
G01*
X140382500Y-117505500D02*
X140382500Y-116555500D01*
G75*
G02*
X140632500Y-116305500I250000J0D01*
G01*
X141307500Y-116305500D01*
G75*
G02*
X141557500Y-116555500I0J-250000D01*
G01*
X141557500Y-117505500D01*
G75*
G02*
X141307500Y-117755500I-250000J0D01*
G01*
X140632500Y-117755500D01*
G75*
G02*
X140382500Y-117505500I0J250000D01*
G01*
G37*
G04 #@! TD.AperFunction*
D13*
X143827500Y-130619500D03*
D12*
X143827500Y-134119500D03*
D13*
X155067000Y-109530000D03*
D12*
X155067000Y-113030000D03*
G04 #@! TA.AperFunction,SMDPad,CuDef*
G36*
G01*
X137075999Y-127303500D02*
X139276001Y-127303500D01*
G75*
G02*
X139526000Y-127553499I0J-249999D01*
G01*
X139526000Y-128378501D01*
G75*
G02*
X139276001Y-128628500I-249999J0D01*
G01*
X137075999Y-128628500D01*
G75*
G02*
X136826000Y-128378501I0J249999D01*
G01*
X136826000Y-127553499D01*
G75*
G02*
X137075999Y-127303500I249999J0D01*
G01*
G37*
G04 #@! TD.AperFunction*
G04 #@! TA.AperFunction,SMDPad,CuDef*
G36*
G01*
X137075999Y-124178500D02*
X139276001Y-124178500D01*
G75*
G02*
X139526000Y-124428499I0J-249999D01*
G01*
X139526000Y-125253501D01*
G75*
G02*
X139276001Y-125503500I-249999J0D01*
G01*
X137075999Y-125503500D01*
G75*
G02*
X136826000Y-125253501I0J249999D01*
G01*
X136826000Y-124428499D01*
G75*
G02*
X137075999Y-124178500I249999J0D01*
G01*
G37*
G04 #@! TD.AperFunction*
G04 #@! TA.AperFunction,SMDPad,CuDef*
G36*
G01*
X148251999Y-116368000D02*
X150452001Y-116368000D01*
G75*
G02*
X150702000Y-116617999I0J-249999D01*
G01*
X150702000Y-117443001D01*
G75*
G02*
X150452001Y-117693000I-249999J0D01*
G01*
X148251999Y-117693000D01*
G75*
G02*
X148002000Y-117443001I0J249999D01*
G01*
X148002000Y-116617999D01*
G75*
G02*
X148251999Y-116368000I249999J0D01*
G01*
G37*
G04 #@! TD.AperFunction*
G04 #@! TA.AperFunction,SMDPad,CuDef*
G36*
G01*
X148251999Y-113243000D02*
X150452001Y-113243000D01*
G75*
G02*
X150702000Y-113492999I0J-249999D01*
G01*
X150702000Y-114318001D01*
G75*
G02*
X150452001Y-114568000I-249999J0D01*
G01*
X148251999Y-114568000D01*
G75*
G02*
X148002000Y-114318001I0J249999D01*
G01*
X148002000Y-113492999D01*
G75*
G02*
X148251999Y-113243000I249999J0D01*
G01*
G37*
G04 #@! TD.AperFunction*
D14*
X194754500Y-121920000D03*
X196215000Y-113030000D03*
X196088000Y-130619500D03*
X157924500Y-124587000D03*
X157924500Y-119570500D03*
X126301500Y-124587000D03*
X126301500Y-119570500D03*
G04 #@! TA.AperFunction,SMDPad,CuDef*
G36*
G01*
X134868499Y-120970500D02*
X135768501Y-120970500D01*
G75*
G02*
X136018500Y-121220499I0J-249999D01*
G01*
X136018500Y-121920501D01*
G75*
G02*
X135768501Y-122170500I-249999J0D01*
G01*
X134868499Y-122170500D01*
G75*
G02*
X134618500Y-121920501I0J249999D01*
G01*
X134618500Y-121220499D01*
G75*
G02*
X134868499Y-120970500I249999J0D01*
G01*
G37*
G04 #@! TD.AperFunction*
G04 #@! TA.AperFunction,SMDPad,CuDef*
G36*
G01*
X134868499Y-118970500D02*
X135768501Y-118970500D01*
G75*
G02*
X136018500Y-119220499I0J-249999D01*
G01*
X136018500Y-119920501D01*
G75*
G02*
X135768501Y-120170500I-249999J0D01*
G01*
X134868499Y-120170500D01*
G75*
G02*
X134618500Y-119920501I0J249999D01*
G01*
X134618500Y-119220499D01*
G75*
G02*
X134868499Y-118970500I249999J0D01*
G01*
G37*
G04 #@! TD.AperFunction*
G04 #@! TA.AperFunction,SMDPad,CuDef*
G36*
G01*
X149126500Y-119120499D02*
X149126500Y-120020501D01*
G75*
G02*
X148876501Y-120270500I-249999J0D01*
G01*
X148176499Y-120270500D01*
G75*
G02*
X147926500Y-120020501I0J249999D01*
G01*
X147926500Y-119120499D01*
G75*
G02*
X148176499Y-118870500I249999J0D01*
G01*
X148876501Y-118870500D01*
G75*
G02*
X149126500Y-119120499I0J-249999D01*
G01*
G37*
G04 #@! TD.AperFunction*
G04 #@! TA.AperFunction,SMDPad,CuDef*
G36*
G01*
X151126500Y-119120499D02*
X151126500Y-120020501D01*
G75*
G02*
X150876501Y-120270500I-249999J0D01*
G01*
X150176499Y-120270500D01*
G75*
G02*
X149926500Y-120020501I0J249999D01*
G01*
X149926500Y-119120499D01*
G75*
G02*
X150176499Y-118870500I249999J0D01*
G01*
X150876501Y-118870500D01*
G75*
G02*
X151126500Y-119120499I0J-249999D01*
G01*
G37*
G04 #@! TD.AperFunction*
D15*
X151066500Y-124396500D03*
D16*
X149352000Y-117030500D02*
X145796000Y-117030500D01*
X138176000Y-124841000D02*
X138176000Y-122110500D01*
D17*
X149796500Y-126933500D02*
X151066500Y-126933500D01*
X149796500Y-121983500D02*
X151066500Y-121983500D01*
X151098500Y-125317000D02*
X151066500Y-125349000D01*
X154495500Y-125317000D02*
X151098500Y-125317000D01*
X151066500Y-125349000D02*
X151066500Y-124396500D01*
X151066500Y-126933500D02*
X151066500Y-125349000D01*
X151066500Y-124396500D02*
X151066500Y-121983500D01*
X143002000Y-117073500D02*
X143045000Y-117030500D01*
X143002000Y-119570500D02*
X143002000Y-117073500D01*
X145796000Y-119570500D02*
X143002000Y-119570500D01*
X148526500Y-119570500D02*
X145796000Y-119570500D01*
X148526500Y-121983500D02*
X148526500Y-119570500D01*
X138176000Y-117030500D02*
X135382000Y-117030500D01*
X138176000Y-117030500D02*
X140970000Y-117030500D01*
X141002000Y-117062500D02*
X140970000Y-117030500D01*
X141002000Y-119570500D02*
X141002000Y-117062500D01*
X126301500Y-119570500D02*
X135318500Y-119570500D01*
X135318500Y-119570500D02*
X138176000Y-119570500D01*
X150526500Y-119570500D02*
X157924500Y-119570500D01*
X153162000Y-121983500D02*
X154495500Y-123317000D01*
X152336500Y-121983500D02*
X153162000Y-121983500D01*
D18*
X203175000Y-147295000D02*
X122580000Y-147295000D01*
X122580000Y-143289872D01*
X123749000Y-143289872D01*
X123749000Y-143730128D01*
X123834890Y-144161925D01*
X124003369Y-144568669D01*
X124247962Y-144934729D01*
X124559271Y-145246038D01*
X124925331Y-145490631D01*
X125332075Y-145659110D01*
X125763872Y-145745000D01*
X126204128Y-145745000D01*
X126635925Y-145659110D01*
X127042669Y-145490631D01*
X127408729Y-145246038D01*
X127720038Y-144934729D01*
X127964631Y-144568669D01*
X128133110Y-144161925D01*
X128219000Y-143730128D01*
X128219000Y-143289872D01*
X197409000Y-143289872D01*
X197409000Y-143730128D01*
X197494890Y-144161925D01*
X197663369Y-144568669D01*
X197907962Y-144934729D01*
X198219271Y-145246038D01*
X198585331Y-145490631D01*
X198992075Y-145659110D01*
X199423872Y-145745000D01*
X199864128Y-145745000D01*
X200295925Y-145659110D01*
X200702669Y-145490631D01*
X201068729Y-145246038D01*
X201380038Y-144934729D01*
X201624631Y-144568669D01*
X201793110Y-144161925D01*
X201879000Y-143730128D01*
X201879000Y-143289872D01*
X201793110Y-142858075D01*
X201624631Y-142451331D01*
X201380038Y-142085271D01*
X201068729Y-141773962D01*
X200702669Y-141529369D01*
X200295925Y-141360890D01*
X199864128Y-141275000D01*
X199423872Y-141275000D01*
X198992075Y-141360890D01*
X198585331Y-141529369D01*
X198219271Y-141773962D01*
X197907962Y-142085271D01*
X197663369Y-142451331D01*
X197494890Y-142858075D01*
X197409000Y-143289872D01*
X128219000Y-143289872D01*
X128133110Y-142858075D01*
X127964631Y-142451331D01*
X127720038Y-142085271D01*
X127408729Y-141773962D01*
X127042669Y-141529369D01*
X126635925Y-141360890D01*
X126204128Y-141275000D01*
X125763872Y-141275000D01*
X125332075Y-141360890D01*
X124925331Y-141529369D01*
X124559271Y-141773962D01*
X124247962Y-142085271D01*
X124003369Y-142451331D01*
X123834890Y-142858075D01*
X123749000Y-143289872D01*
X122580000Y-143289872D01*
X122580000Y-134919500D01*
X142389428Y-134919500D01*
X142401688Y-135043982D01*
X142437998Y-135163680D01*
X142496963Y-135273994D01*
X142576315Y-135370685D01*
X142673006Y-135450037D01*
X142783320Y-135509002D01*
X142903018Y-135545312D01*
X143027500Y-135557572D01*
X143541750Y-135554500D01*
X143700500Y-135395750D01*
X143700500Y-134246500D01*
X143954500Y-134246500D01*
X143954500Y-135395750D01*
X144113250Y-135554500D01*
X144627500Y-135557572D01*
X144751982Y-135545312D01*
X144871680Y-135509002D01*
X144981994Y-135450037D01*
X145078685Y-135370685D01*
X145158037Y-135273994D01*
X145217002Y-135163680D01*
X145253312Y-135043982D01*
X145265572Y-134919500D01*
X145262500Y-134405250D01*
X145103750Y-134246500D01*
X143954500Y-134246500D01*
X143700500Y-134246500D01*
X142551250Y-134246500D01*
X142392500Y-134405250D01*
X142389428Y-134919500D01*
X122580000Y-134919500D01*
X122580000Y-133319500D01*
X142389428Y-133319500D01*
X142392500Y-133833750D01*
X142551250Y-133992500D01*
X143700500Y-133992500D01*
X143700500Y-132843250D01*
X143954500Y-132843250D01*
X143954500Y-133992500D01*
X145103750Y-133992500D01*
X145262500Y-133833750D01*
X145265572Y-133319500D01*
X145253312Y-133195018D01*
X145217002Y-133075320D01*
X145158037Y-132965006D01*
X145078685Y-132868315D01*
X144981994Y-132788963D01*
X144871680Y-132729998D01*
X144751982Y-132693688D01*
X144627500Y-132681428D01*
X144113250Y-132684500D01*
X143954500Y-132843250D01*
X143700500Y-132843250D01*
X143541750Y-132684500D01*
X143027500Y-132681428D01*
X142903018Y-132693688D01*
X142783320Y-132729998D01*
X142673006Y-132788963D01*
X142576315Y-132868315D01*
X142496963Y-132965006D01*
X142437998Y-133075320D01*
X142401688Y-133195018D01*
X142389428Y-133319500D01*
X122580000Y-133319500D01*
X122580000Y-130478165D01*
X142392500Y-130478165D01*
X142392500Y-130760835D01*
X142447647Y-131038074D01*
X142555820Y-131299227D01*
X142712863Y-131534259D01*
X142912741Y-131734137D01*
X143147773Y-131891180D01*
X143408926Y-131999353D01*
X143686165Y-132054500D01*
X143968835Y-132054500D01*
X144246074Y-131999353D01*
X144507227Y-131891180D01*
X144742259Y-131734137D01*
X144942137Y-131534259D01*
X145099180Y-131299227D01*
X145207353Y-131038074D01*
X145262500Y-130760835D01*
X145262500Y-130478165D01*
X145258582Y-130458467D01*
X194453000Y-130458467D01*
X194453000Y-130780533D01*
X194515832Y-131096412D01*
X194639082Y-131393963D01*
X194818013Y-131661752D01*
X195045748Y-131889487D01*
X195313537Y-132068418D01*
X195611088Y-132191668D01*
X195926967Y-132254500D01*
X196249033Y-132254500D01*
X196564912Y-132191668D01*
X196862463Y-132068418D01*
X197130252Y-131889487D01*
X197357987Y-131661752D01*
X197536918Y-131393963D01*
X197660168Y-131096412D01*
X197723000Y-130780533D01*
X197723000Y-130458467D01*
X197660168Y-130142588D01*
X197536918Y-129845037D01*
X197357987Y-129577248D01*
X197130252Y-129349513D01*
X196862463Y-129170582D01*
X196564912Y-129047332D01*
X196249033Y-128984500D01*
X195926967Y-128984500D01*
X195611088Y-129047332D01*
X195313537Y-129170582D01*
X195045748Y-129349513D01*
X194818013Y-129577248D01*
X194639082Y-129845037D01*
X194515832Y-130142588D01*
X194453000Y-130458467D01*
X145258582Y-130458467D01*
X145207353Y-130200926D01*
X145099180Y-129939773D01*
X144942137Y-129704741D01*
X144742259Y-129504863D01*
X144507227Y-129347820D01*
X144246074Y-129239647D01*
X143968835Y-129184500D01*
X143686165Y-129184500D01*
X143408926Y-129239647D01*
X143147773Y-129347820D01*
X142912741Y-129504863D01*
X142712863Y-129704741D01*
X142555820Y-129939773D01*
X142447647Y-130200926D01*
X142392500Y-130478165D01*
X122580000Y-130478165D01*
X122580000Y-128628500D01*
X136187928Y-128628500D01*
X136200188Y-128752982D01*
X136236498Y-128872680D01*
X136295463Y-128982994D01*
X136374815Y-129079685D01*
X136471506Y-129159037D01*
X136581820Y-129218002D01*
X136701518Y-129254312D01*
X136826000Y-129266572D01*
X137890250Y-129263500D01*
X138049000Y-129104750D01*
X138049000Y-128093000D01*
X138303000Y-128093000D01*
X138303000Y-129104750D01*
X138461750Y-129263500D01*
X139526000Y-129266572D01*
X139650482Y-129254312D01*
X139770180Y-129218002D01*
X139880494Y-129159037D01*
X139977185Y-129079685D01*
X140056537Y-128982994D01*
X140115502Y-128872680D01*
X140151812Y-128752982D01*
X140164072Y-128628500D01*
X140161000Y-128251750D01*
X140002250Y-128093000D01*
X138303000Y-128093000D01*
X138049000Y-128093000D01*
X136349750Y-128093000D01*
X136191000Y-128251750D01*
X136187928Y-128628500D01*
X122580000Y-128628500D01*
X122580000Y-127303500D01*
X136187928Y-127303500D01*
X136191000Y-127680250D01*
X136349750Y-127839000D01*
X138049000Y-127839000D01*
X138049000Y-126827250D01*
X138303000Y-126827250D01*
X138303000Y-127839000D01*
X140002250Y-127839000D01*
X140161000Y-127680250D01*
X140164072Y-127303500D01*
X140151812Y-127179018D01*
X140115502Y-127059320D01*
X140056537Y-126949006D01*
X139977185Y-126852315D01*
X139880494Y-126772963D01*
X139770180Y-126713998D01*
X139650482Y-126677688D01*
X139526000Y-126665428D01*
X138461750Y-126668500D01*
X138303000Y-126827250D01*
X138049000Y-126827250D01*
X137890250Y-126668500D01*
X136826000Y-126665428D01*
X136701518Y-126677688D01*
X136581820Y-126713998D01*
X136471506Y-126772963D01*
X136374815Y-126852315D01*
X136295463Y-126949006D01*
X136236498Y-127059320D01*
X136200188Y-127179018D01*
X136187928Y-127303500D01*
X122580000Y-127303500D01*
X122580000Y-125722413D01*
X125345692Y-125722413D01*
X125441456Y-125986814D01*
X125731071Y-126127704D01*
X126042608Y-126209384D01*
X126364095Y-126228718D01*
X126683175Y-126184961D01*
X126987588Y-126079795D01*
X127161544Y-125986814D01*
X127257308Y-125722413D01*
X126301500Y-124766605D01*
X125345692Y-125722413D01*
X122580000Y-125722413D01*
X122580000Y-124649595D01*
X124659782Y-124649595D01*
X124703539Y-124968675D01*
X124808705Y-125273088D01*
X124901686Y-125447044D01*
X125166087Y-125542808D01*
X126121895Y-124587000D01*
X126481105Y-124587000D01*
X127436913Y-125542808D01*
X127701314Y-125447044D01*
X127842204Y-125157429D01*
X127923884Y-124845892D01*
X127943218Y-124524405D01*
X127899461Y-124205325D01*
X127794295Y-123900912D01*
X127701314Y-123726956D01*
X127436913Y-123631192D01*
X126481105Y-124587000D01*
X126121895Y-124587000D01*
X125166087Y-123631192D01*
X124901686Y-123726956D01*
X124760796Y-124016571D01*
X124679116Y-124328108D01*
X124659782Y-124649595D01*
X122580000Y-124649595D01*
X122580000Y-123451587D01*
X125345692Y-123451587D01*
X126301500Y-124407395D01*
X127257308Y-123451587D01*
X127161544Y-123187186D01*
X126871929Y-123046296D01*
X126560392Y-122964616D01*
X126238905Y-122945282D01*
X125919825Y-122989039D01*
X125615412Y-123094205D01*
X125441456Y-123187186D01*
X125345692Y-123451587D01*
X122580000Y-123451587D01*
X122580000Y-122170500D01*
X133980428Y-122170500D01*
X133992688Y-122294982D01*
X134028998Y-122414680D01*
X134087963Y-122524994D01*
X134167315Y-122621685D01*
X134264006Y-122701037D01*
X134374320Y-122760002D01*
X134494018Y-122796312D01*
X134618500Y-122808572D01*
X135032750Y-122805500D01*
X135191500Y-122646750D01*
X135191500Y-121697500D01*
X135445500Y-121697500D01*
X135445500Y-122646750D01*
X135604250Y-122805500D01*
X136018500Y-122808572D01*
X136142982Y-122796312D01*
X136262680Y-122760002D01*
X136372994Y-122701037D01*
X136469685Y-122621685D01*
X136549037Y-122524994D01*
X136608002Y-122414680D01*
X136644312Y-122294982D01*
X136656572Y-122170500D01*
X136653500Y-121856250D01*
X136494750Y-121697500D01*
X135445500Y-121697500D01*
X135191500Y-121697500D01*
X134142250Y-121697500D01*
X133983500Y-121856250D01*
X133980428Y-122170500D01*
X122580000Y-122170500D01*
X122580000Y-119409467D01*
X124666500Y-119409467D01*
X124666500Y-119731533D01*
X124729332Y-120047412D01*
X124852582Y-120344963D01*
X125031513Y-120612752D01*
X125259248Y-120840487D01*
X125527037Y-121019418D01*
X125824588Y-121142668D01*
X126140467Y-121205500D01*
X126462533Y-121205500D01*
X126778412Y-121142668D01*
X127075963Y-121019418D01*
X127343752Y-120840487D01*
X127571487Y-120612752D01*
X127750418Y-120344963D01*
X127756409Y-120330500D01*
X134085524Y-120330500D01*
X134130095Y-120413887D01*
X134196776Y-120495137D01*
X134167315Y-120519315D01*
X134087963Y-120616006D01*
X134028998Y-120726320D01*
X133992688Y-120846018D01*
X133980428Y-120970500D01*
X133983500Y-121284750D01*
X134142250Y-121443500D01*
X135191500Y-121443500D01*
X135191500Y-121423500D01*
X135445500Y-121423500D01*
X135445500Y-121443500D01*
X136494750Y-121443500D01*
X136653500Y-121284750D01*
X136656572Y-120970500D01*
X136644312Y-120846018D01*
X136608002Y-120726320D01*
X136549037Y-120616006D01*
X136469685Y-120519315D01*
X136440224Y-120495137D01*
X136506905Y-120413887D01*
X136551476Y-120330500D01*
X136957957Y-120330500D01*
X137061363Y-120485259D01*
X137261241Y-120685137D01*
X137493759Y-120840500D01*
X137261241Y-120995863D01*
X137061363Y-121195741D01*
X136904320Y-121430773D01*
X136796147Y-121691926D01*
X136741000Y-121969165D01*
X136741000Y-122251835D01*
X136796147Y-122529074D01*
X136904320Y-122790227D01*
X137061363Y-123025259D01*
X137261241Y-123225137D01*
X137291001Y-123245022D01*
X137291000Y-123540428D01*
X137075999Y-123540428D01*
X136902745Y-123557492D01*
X136736149Y-123608028D01*
X136582613Y-123690095D01*
X136448038Y-123800538D01*
X136337595Y-123935113D01*
X136255528Y-124088649D01*
X136204992Y-124255245D01*
X136187928Y-124428499D01*
X136187928Y-125253501D01*
X136204992Y-125426755D01*
X136255528Y-125593351D01*
X136337595Y-125746887D01*
X136448038Y-125881462D01*
X136582613Y-125991905D01*
X136736149Y-126073972D01*
X136902745Y-126124508D01*
X137075999Y-126141572D01*
X139276001Y-126141572D01*
X139449255Y-126124508D01*
X139615851Y-126073972D01*
X139769387Y-125991905D01*
X139903962Y-125881462D01*
X140014405Y-125746887D01*
X140096472Y-125593351D01*
X140147008Y-125426755D01*
X140164072Y-125253501D01*
X140164072Y-124428499D01*
X140147008Y-124255245D01*
X140096472Y-124088649D01*
X140014405Y-123935113D01*
X139903962Y-123800538D01*
X139769387Y-123690095D01*
X139615851Y-123608028D01*
X139449255Y-123557492D01*
X139276001Y-123540428D01*
X139061000Y-123540428D01*
X139061000Y-123245021D01*
X139090759Y-123225137D01*
X139290637Y-123025259D01*
X139447680Y-122790227D01*
X139555853Y-122529074D01*
X139611000Y-122251835D01*
X139611000Y-121969165D01*
X139555853Y-121691926D01*
X139447680Y-121430773D01*
X139290637Y-121195741D01*
X139090759Y-120995863D01*
X138858241Y-120840500D01*
X139090759Y-120685137D01*
X139290637Y-120485259D01*
X139447680Y-120250227D01*
X139555853Y-119989074D01*
X139611000Y-119711835D01*
X139611000Y-119429165D01*
X139555853Y-119151926D01*
X139447680Y-118890773D01*
X139290637Y-118655741D01*
X139090759Y-118455863D01*
X138858241Y-118300500D01*
X139090759Y-118145137D01*
X139290637Y-117945259D01*
X139394043Y-117790500D01*
X139795390Y-117790500D01*
X139812028Y-117845350D01*
X139894095Y-117998886D01*
X140004538Y-118133462D01*
X140139114Y-118243905D01*
X140242001Y-118298899D01*
X140242000Y-118337523D01*
X140158613Y-118382095D01*
X140024038Y-118492538D01*
X139913595Y-118627113D01*
X139831528Y-118780649D01*
X139780992Y-118947245D01*
X139763928Y-119120499D01*
X139763928Y-120020501D01*
X139780992Y-120193755D01*
X139831528Y-120360351D01*
X139913595Y-120513887D01*
X140024038Y-120648462D01*
X140158613Y-120758905D01*
X140312149Y-120840972D01*
X140478745Y-120891508D01*
X140651999Y-120908572D01*
X141352001Y-120908572D01*
X141525255Y-120891508D01*
X141691851Y-120840972D01*
X141845387Y-120758905D01*
X141979962Y-120648462D01*
X142002000Y-120621609D01*
X142024038Y-120648462D01*
X142158613Y-120758905D01*
X142312149Y-120840972D01*
X142478745Y-120891508D01*
X142651999Y-120908572D01*
X143352001Y-120908572D01*
X143525255Y-120891508D01*
X143691851Y-120840972D01*
X143845387Y-120758905D01*
X143979962Y-120648462D01*
X144090405Y-120513887D01*
X144172472Y-120360351D01*
X144181527Y-120330500D01*
X144577957Y-120330500D01*
X144681363Y-120485259D01*
X144881241Y-120685137D01*
X145113759Y-120840500D01*
X144881241Y-120995863D01*
X144681363Y-121195741D01*
X144524320Y-121430773D01*
X144416147Y-121691926D01*
X144361000Y-121969165D01*
X144361000Y-122251835D01*
X144416147Y-122529074D01*
X144524320Y-122790227D01*
X144681363Y-123025259D01*
X144881241Y-123225137D01*
X145116273Y-123382180D01*
X145377426Y-123490353D01*
X145654665Y-123545500D01*
X145937335Y-123545500D01*
X146214574Y-123490353D01*
X146475727Y-123382180D01*
X146710759Y-123225137D01*
X146910637Y-123025259D01*
X147067680Y-122790227D01*
X147175853Y-122529074D01*
X147231000Y-122251835D01*
X147231000Y-121969165D01*
X147175853Y-121691926D01*
X147067680Y-121430773D01*
X146910637Y-121195741D01*
X146710759Y-120995863D01*
X146478241Y-120840500D01*
X146710759Y-120685137D01*
X146910637Y-120485259D01*
X147014043Y-120330500D01*
X147346973Y-120330500D01*
X147356028Y-120360351D01*
X147438095Y-120513887D01*
X147548538Y-120648462D01*
X147683113Y-120758905D01*
X147696874Y-120766260D01*
X147648416Y-120856918D01*
X147603571Y-121004755D01*
X147588428Y-121158500D01*
X147588428Y-122808500D01*
X147603571Y-122962245D01*
X147648416Y-123110082D01*
X147721242Y-123246329D01*
X147819249Y-123365751D01*
X147938671Y-123463758D01*
X148074918Y-123536584D01*
X148222755Y-123581429D01*
X148376500Y-123596572D01*
X148676500Y-123596572D01*
X148830245Y-123581429D01*
X148978082Y-123536584D01*
X149114329Y-123463758D01*
X149161500Y-123425046D01*
X149208671Y-123463758D01*
X149344918Y-123536584D01*
X149492755Y-123581429D01*
X149646500Y-123596572D01*
X149946500Y-123596572D01*
X150100245Y-123581429D01*
X150248082Y-123536584D01*
X150306500Y-123505359D01*
X150306500Y-123850964D01*
X150237914Y-123953611D01*
X150167432Y-124123771D01*
X150131500Y-124304411D01*
X150131500Y-124488589D01*
X150167432Y-124669229D01*
X150237914Y-124839389D01*
X150306500Y-124942036D01*
X150306500Y-125311677D01*
X150302824Y-125349000D01*
X150306500Y-125386322D01*
X150306500Y-125386332D01*
X150306501Y-125386342D01*
X150306501Y-125411642D01*
X150248082Y-125380416D01*
X150100245Y-125335571D01*
X149946500Y-125320428D01*
X149646500Y-125320428D01*
X149492755Y-125335571D01*
X149344918Y-125380416D01*
X149208671Y-125453242D01*
X149161500Y-125491954D01*
X149114329Y-125453242D01*
X148978082Y-125380416D01*
X148830245Y-125335571D01*
X148676500Y-125320428D01*
X148376500Y-125320428D01*
X148222755Y-125335571D01*
X148074918Y-125380416D01*
X147938671Y-125453242D01*
X147819249Y-125551249D01*
X147721242Y-125670671D01*
X147648416Y-125806918D01*
X147603571Y-125954755D01*
X147588428Y-126108500D01*
X147588428Y-127758500D01*
X147603571Y-127912245D01*
X147648416Y-128060082D01*
X147721242Y-128196329D01*
X147819249Y-128315751D01*
X147938671Y-128413758D01*
X148074918Y-128486584D01*
X148222755Y-128531429D01*
X148376500Y-128546572D01*
X148676500Y-128546572D01*
X148830245Y-128531429D01*
X148978082Y-128486584D01*
X149114329Y-128413758D01*
X149161500Y-128375046D01*
X149208671Y-128413758D01*
X149344918Y-128486584D01*
X149492755Y-128531429D01*
X149646500Y-128546572D01*
X149946500Y-128546572D01*
X150100245Y-128531429D01*
X150248082Y-128486584D01*
X150384329Y-128413758D01*
X150431500Y-128375046D01*
X150478671Y-128413758D01*
X150614918Y-128486584D01*
X150762755Y-128531429D01*
X150916500Y-128546572D01*
X151216500Y-128546572D01*
X151370245Y-128531429D01*
X151518082Y-128486584D01*
X151654329Y-128413758D01*
X151701500Y-128375046D01*
X151748671Y-128413758D01*
X151884918Y-128486584D01*
X152032755Y-128531429D01*
X152186500Y-128546572D01*
X152486500Y-128546572D01*
X152640245Y-128531429D01*
X152788082Y-128486584D01*
X152924329Y-128413758D01*
X153043751Y-128315751D01*
X153141758Y-128196329D01*
X153214584Y-128060082D01*
X153259429Y-127912245D01*
X153274572Y-127758500D01*
X153274572Y-126108500D01*
X153273490Y-126097517D01*
X153307095Y-126160387D01*
X153417538Y-126294962D01*
X153552113Y-126405405D01*
X153705649Y-126487472D01*
X153872245Y-126538008D01*
X154045499Y-126555072D01*
X154945501Y-126555072D01*
X155118755Y-126538008D01*
X155285351Y-126487472D01*
X155438887Y-126405405D01*
X155573462Y-126294962D01*
X155683905Y-126160387D01*
X155765972Y-126006851D01*
X155816508Y-125840255D01*
X155828114Y-125722413D01*
X156968692Y-125722413D01*
X157064456Y-125986814D01*
X157354071Y-126127704D01*
X157665608Y-126209384D01*
X157987095Y-126228718D01*
X158306175Y-126184961D01*
X158610588Y-126079795D01*
X158784544Y-125986814D01*
X158880308Y-125722413D01*
X157924500Y-124766605D01*
X156968692Y-125722413D01*
X155828114Y-125722413D01*
X155833572Y-125667001D01*
X155833572Y-124966999D01*
X155816508Y-124793745D01*
X155772781Y-124649595D01*
X156282782Y-124649595D01*
X156326539Y-124968675D01*
X156431705Y-125273088D01*
X156524686Y-125447044D01*
X156789087Y-125542808D01*
X157744895Y-124587000D01*
X158104105Y-124587000D01*
X159059913Y-125542808D01*
X159324314Y-125447044D01*
X159465204Y-125157429D01*
X159546884Y-124845892D01*
X159566218Y-124524405D01*
X159522461Y-124205325D01*
X159417295Y-123900912D01*
X159324314Y-123726956D01*
X159059913Y-123631192D01*
X158104105Y-124587000D01*
X157744895Y-124587000D01*
X156789087Y-123631192D01*
X156524686Y-123726956D01*
X156383796Y-124016571D01*
X156302116Y-124328108D01*
X156282782Y-124649595D01*
X155772781Y-124649595D01*
X155765972Y-124627149D01*
X155683905Y-124473613D01*
X155573462Y-124339038D01*
X155546609Y-124317000D01*
X155573462Y-124294962D01*
X155683905Y-124160387D01*
X155765972Y-124006851D01*
X155816508Y-123840255D01*
X155833572Y-123667001D01*
X155833572Y-123451587D01*
X156968692Y-123451587D01*
X157924500Y-124407395D01*
X158880308Y-123451587D01*
X158784544Y-123187186D01*
X158513671Y-123055413D01*
X193798692Y-123055413D01*
X193894456Y-123319814D01*
X194184071Y-123460704D01*
X194495608Y-123542384D01*
X194817095Y-123561718D01*
X195136175Y-123517961D01*
X195440588Y-123412795D01*
X195614544Y-123319814D01*
X195710308Y-123055413D01*
X194754500Y-122099605D01*
X193798692Y-123055413D01*
X158513671Y-123055413D01*
X158494929Y-123046296D01*
X158183392Y-122964616D01*
X157861905Y-122945282D01*
X157542825Y-122989039D01*
X157238412Y-123094205D01*
X157064456Y-123187186D01*
X156968692Y-123451587D01*
X155833572Y-123451587D01*
X155833572Y-122966999D01*
X155816508Y-122793745D01*
X155765972Y-122627149D01*
X155683905Y-122473613D01*
X155573462Y-122339038D01*
X155438887Y-122228595D01*
X155285351Y-122146528D01*
X155118755Y-122095992D01*
X154945501Y-122078928D01*
X154332229Y-122078928D01*
X154235896Y-121982595D01*
X193112782Y-121982595D01*
X193156539Y-122301675D01*
X193261705Y-122606088D01*
X193354686Y-122780044D01*
X193619087Y-122875808D01*
X194574895Y-121920000D01*
X194934105Y-121920000D01*
X195889913Y-122875808D01*
X196154314Y-122780044D01*
X196295204Y-122490429D01*
X196376884Y-122178892D01*
X196396218Y-121857405D01*
X196352461Y-121538325D01*
X196247295Y-121233912D01*
X196154314Y-121059956D01*
X195889913Y-120964192D01*
X194934105Y-121920000D01*
X194574895Y-121920000D01*
X193619087Y-120964192D01*
X193354686Y-121059956D01*
X193213796Y-121349571D01*
X193132116Y-121661108D01*
X193112782Y-121982595D01*
X154235896Y-121982595D01*
X153725804Y-121472503D01*
X153702001Y-121443499D01*
X153586276Y-121348526D01*
X153454247Y-121277954D01*
X153310986Y-121234497D01*
X153274572Y-121230910D01*
X153274572Y-121158500D01*
X153259429Y-121004755D01*
X153214584Y-120856918D01*
X153141758Y-120720671D01*
X153043751Y-120601249D01*
X152924329Y-120503242D01*
X152788082Y-120430416D01*
X152640245Y-120385571D01*
X152486500Y-120370428D01*
X152186500Y-120370428D01*
X152032755Y-120385571D01*
X151884918Y-120430416D01*
X151748671Y-120503242D01*
X151701500Y-120541954D01*
X151654329Y-120503242D01*
X151628091Y-120489217D01*
X151696972Y-120360351D01*
X151706027Y-120330500D01*
X156469591Y-120330500D01*
X156475582Y-120344963D01*
X156654513Y-120612752D01*
X156882248Y-120840487D01*
X157150037Y-121019418D01*
X157447588Y-121142668D01*
X157763467Y-121205500D01*
X158085533Y-121205500D01*
X158401412Y-121142668D01*
X158698963Y-121019418D01*
X158966752Y-120840487D01*
X159022652Y-120784587D01*
X193798692Y-120784587D01*
X194754500Y-121740395D01*
X195710308Y-120784587D01*
X195614544Y-120520186D01*
X195324929Y-120379296D01*
X195013392Y-120297616D01*
X194691905Y-120278282D01*
X194372825Y-120322039D01*
X194068412Y-120427205D01*
X193894456Y-120520186D01*
X193798692Y-120784587D01*
X159022652Y-120784587D01*
X159194487Y-120612752D01*
X159373418Y-120344963D01*
X159496668Y-120047412D01*
X159559500Y-119731533D01*
X159559500Y-119409467D01*
X159496668Y-119093588D01*
X159373418Y-118796037D01*
X159194487Y-118528248D01*
X158966752Y-118300513D01*
X158698963Y-118121582D01*
X158401412Y-117998332D01*
X158085533Y-117935500D01*
X157763467Y-117935500D01*
X157447588Y-117998332D01*
X157150037Y-118121582D01*
X156882248Y-118300513D01*
X156654513Y-118528248D01*
X156475582Y-118796037D01*
X156469591Y-118810500D01*
X151706027Y-118810500D01*
X151696972Y-118780649D01*
X151614905Y-118627113D01*
X151504462Y-118492538D01*
X151369887Y-118382095D01*
X151216351Y-118300028D01*
X151049755Y-118249492D01*
X150876501Y-118232428D01*
X150849930Y-118232428D01*
X150945387Y-118181405D01*
X151079962Y-118070962D01*
X151190405Y-117936387D01*
X151272472Y-117782851D01*
X151323008Y-117616255D01*
X151340072Y-117443001D01*
X151340072Y-116617999D01*
X151323008Y-116444745D01*
X151272472Y-116278149D01*
X151190405Y-116124613D01*
X151079962Y-115990038D01*
X150945387Y-115879595D01*
X150791851Y-115797528D01*
X150625255Y-115746992D01*
X150452001Y-115729928D01*
X148251999Y-115729928D01*
X148078745Y-115746992D01*
X147912149Y-115797528D01*
X147758613Y-115879595D01*
X147624038Y-115990038D01*
X147513595Y-116124613D01*
X147502431Y-116145500D01*
X146930521Y-116145500D01*
X146910637Y-116115741D01*
X146710759Y-115915863D01*
X146478241Y-115760500D01*
X146710759Y-115605137D01*
X146910637Y-115405259D01*
X147067680Y-115170227D01*
X147175853Y-114909074D01*
X147231000Y-114631835D01*
X147231000Y-114568000D01*
X147363928Y-114568000D01*
X147376188Y-114692482D01*
X147412498Y-114812180D01*
X147471463Y-114922494D01*
X147550815Y-115019185D01*
X147647506Y-115098537D01*
X147757820Y-115157502D01*
X147877518Y-115193812D01*
X148002000Y-115206072D01*
X149066250Y-115203000D01*
X149225000Y-115044250D01*
X149225000Y-114032500D01*
X149479000Y-114032500D01*
X149479000Y-115044250D01*
X149637750Y-115203000D01*
X150702000Y-115206072D01*
X150826482Y-115193812D01*
X150946180Y-115157502D01*
X151056494Y-115098537D01*
X151153185Y-115019185D01*
X151232537Y-114922494D01*
X151291502Y-114812180D01*
X151327812Y-114692482D01*
X151340072Y-114568000D01*
X151337000Y-114191250D01*
X151178250Y-114032500D01*
X149479000Y-114032500D01*
X149225000Y-114032500D01*
X147525750Y-114032500D01*
X147367000Y-114191250D01*
X147363928Y-114568000D01*
X147231000Y-114568000D01*
X147231000Y-114349165D01*
X147175853Y-114071926D01*
X147067680Y-113810773D01*
X146910637Y-113575741D01*
X146710759Y-113375863D01*
X146511916Y-113243000D01*
X147363928Y-113243000D01*
X147367000Y-113619750D01*
X147525750Y-113778500D01*
X149225000Y-113778500D01*
X149225000Y-112766750D01*
X149479000Y-112766750D01*
X149479000Y-113778500D01*
X151178250Y-113778500D01*
X151337000Y-113619750D01*
X151340072Y-113243000D01*
X151327812Y-113118518D01*
X151291502Y-112998820D01*
X151232537Y-112888506D01*
X151153185Y-112791815D01*
X151056494Y-112712463D01*
X150946180Y-112653498D01*
X150826482Y-112617188D01*
X150702000Y-112604928D01*
X149637750Y-112608000D01*
X149479000Y-112766750D01*
X149225000Y-112766750D01*
X149066250Y-112608000D01*
X148002000Y-112604928D01*
X147877518Y-112617188D01*
X147757820Y-112653498D01*
X147647506Y-112712463D01*
X147550815Y-112791815D01*
X147471463Y-112888506D01*
X147412498Y-112998820D01*
X147376188Y-113118518D01*
X147363928Y-113243000D01*
X146511916Y-113243000D01*
X146475727Y-113218820D01*
X146214574Y-113110647D01*
X145937335Y-113055500D01*
X145654665Y-113055500D01*
X145377426Y-113110647D01*
X145116273Y-113218820D01*
X144881241Y-113375863D01*
X144681363Y-113575741D01*
X144524320Y-113810773D01*
X144416147Y-114071926D01*
X144361000Y-114349165D01*
X144361000Y-114631835D01*
X144416147Y-114909074D01*
X144524320Y-115170227D01*
X144681363Y-115405259D01*
X144881241Y-115605137D01*
X145113759Y-115760500D01*
X144881241Y-115915863D01*
X144681363Y-116115741D01*
X144524320Y-116350773D01*
X144416147Y-116611926D01*
X144361000Y-116889165D01*
X144361000Y-117171835D01*
X144416147Y-117449074D01*
X144524320Y-117710227D01*
X144681363Y-117945259D01*
X144881241Y-118145137D01*
X145113759Y-118300500D01*
X144881241Y-118455863D01*
X144681363Y-118655741D01*
X144577957Y-118810500D01*
X144181527Y-118810500D01*
X144172472Y-118780649D01*
X144090405Y-118627113D01*
X143979962Y-118492538D01*
X143845387Y-118382095D01*
X143762000Y-118337524D01*
X143762000Y-118304779D01*
X143875886Y-118243905D01*
X144010462Y-118133462D01*
X144120905Y-117998886D01*
X144202972Y-117845350D01*
X144253508Y-117678754D01*
X144270572Y-117505500D01*
X144270572Y-116555500D01*
X144253508Y-116382246D01*
X144202972Y-116215650D01*
X144120905Y-116062114D01*
X144010462Y-115927538D01*
X143875886Y-115817095D01*
X143722350Y-115735028D01*
X143555754Y-115684492D01*
X143382500Y-115667428D01*
X142707500Y-115667428D01*
X142534246Y-115684492D01*
X142367650Y-115735028D01*
X142214114Y-115817095D01*
X142079538Y-115927538D01*
X142007500Y-116015317D01*
X141935462Y-115927538D01*
X141800886Y-115817095D01*
X141647350Y-115735028D01*
X141480754Y-115684492D01*
X141307500Y-115667428D01*
X140632500Y-115667428D01*
X140459246Y-115684492D01*
X140292650Y-115735028D01*
X140139114Y-115817095D01*
X140004538Y-115927538D01*
X139894095Y-116062114D01*
X139812028Y-116215650D01*
X139795390Y-116270500D01*
X139394043Y-116270500D01*
X139290637Y-116115741D01*
X139092039Y-115917143D01*
X139100482Y-115916312D01*
X139220180Y-115880002D01*
X139330494Y-115821037D01*
X139427185Y-115741685D01*
X139506537Y-115644994D01*
X139565502Y-115534680D01*
X139601812Y-115414982D01*
X139614072Y-115290500D01*
X139614072Y-113690500D01*
X139601812Y-113566018D01*
X139565502Y-113446320D01*
X139506537Y-113336006D01*
X139427185Y-113239315D01*
X139330494Y-113159963D01*
X139220180Y-113100998D01*
X139100482Y-113064688D01*
X138976000Y-113052428D01*
X137376000Y-113052428D01*
X137251518Y-113064688D01*
X137131820Y-113100998D01*
X137021506Y-113159963D01*
X136924815Y-113239315D01*
X136845463Y-113336006D01*
X136786498Y-113446320D01*
X136750188Y-113566018D01*
X136737928Y-113690500D01*
X136737928Y-115290500D01*
X136750188Y-115414982D01*
X136786498Y-115534680D01*
X136845463Y-115644994D01*
X136924815Y-115741685D01*
X137021506Y-115821037D01*
X137131820Y-115880002D01*
X137251518Y-115916312D01*
X137259961Y-115917143D01*
X137061363Y-116115741D01*
X136957957Y-116270500D01*
X136561527Y-116270500D01*
X136552472Y-116240649D01*
X136470405Y-116087113D01*
X136359962Y-115952538D01*
X136225387Y-115842095D01*
X136071851Y-115760028D01*
X135905255Y-115709492D01*
X135732001Y-115692428D01*
X135031999Y-115692428D01*
X134858745Y-115709492D01*
X134692149Y-115760028D01*
X134538613Y-115842095D01*
X134457363Y-115908776D01*
X134433185Y-115879315D01*
X134336494Y-115799963D01*
X134226180Y-115740998D01*
X134106482Y-115704688D01*
X133982000Y-115692428D01*
X133667750Y-115695500D01*
X133509000Y-115854250D01*
X133509000Y-116903500D01*
X133529000Y-116903500D01*
X133529000Y-117157500D01*
X133509000Y-117157500D01*
X133509000Y-118206750D01*
X133667750Y-118365500D01*
X133982000Y-118368572D01*
X134106482Y-118356312D01*
X134226180Y-118320002D01*
X134336494Y-118261037D01*
X134433185Y-118181685D01*
X134457363Y-118152224D01*
X134538613Y-118218905D01*
X134692149Y-118300972D01*
X134813654Y-118337830D01*
X134695245Y-118349492D01*
X134528649Y-118400028D01*
X134375113Y-118482095D01*
X134240538Y-118592538D01*
X134130095Y-118727113D01*
X134085524Y-118810500D01*
X127756409Y-118810500D01*
X127750418Y-118796037D01*
X127571487Y-118528248D01*
X127343752Y-118300513D01*
X127075963Y-118121582D01*
X126778412Y-117998332D01*
X126462533Y-117935500D01*
X126140467Y-117935500D01*
X125824588Y-117998332D01*
X125527037Y-118121582D01*
X125259248Y-118300513D01*
X125031513Y-118528248D01*
X124852582Y-118796037D01*
X124729332Y-119093588D01*
X124666500Y-119409467D01*
X122580000Y-119409467D01*
X122580000Y-117730500D01*
X132143928Y-117730500D01*
X132156188Y-117854982D01*
X132192498Y-117974680D01*
X132251463Y-118084994D01*
X132330815Y-118181685D01*
X132427506Y-118261037D01*
X132537820Y-118320002D01*
X132657518Y-118356312D01*
X132782000Y-118368572D01*
X133096250Y-118365500D01*
X133255000Y-118206750D01*
X133255000Y-117157500D01*
X132305750Y-117157500D01*
X132147000Y-117316250D01*
X132143928Y-117730500D01*
X122580000Y-117730500D01*
X122580000Y-116330500D01*
X132143928Y-116330500D01*
X132147000Y-116744750D01*
X132305750Y-116903500D01*
X133255000Y-116903500D01*
X133255000Y-115854250D01*
X133096250Y-115695500D01*
X132782000Y-115692428D01*
X132657518Y-115704688D01*
X132537820Y-115740998D01*
X132427506Y-115799963D01*
X132330815Y-115879315D01*
X132251463Y-115976006D01*
X132192498Y-116086320D01*
X132156188Y-116206018D01*
X132143928Y-116330500D01*
X122580000Y-116330500D01*
X122580000Y-112230000D01*
X153628928Y-112230000D01*
X153628928Y-113830000D01*
X153641188Y-113954482D01*
X153677498Y-114074180D01*
X153736463Y-114184494D01*
X153815815Y-114281185D01*
X153912506Y-114360537D01*
X154022820Y-114419502D01*
X154142518Y-114455812D01*
X154267000Y-114468072D01*
X155867000Y-114468072D01*
X155991482Y-114455812D01*
X156111180Y-114419502D01*
X156221494Y-114360537D01*
X156318185Y-114281185D01*
X156397537Y-114184494D01*
X156456502Y-114074180D01*
X156492812Y-113954482D01*
X156505072Y-113830000D01*
X156505072Y-112868967D01*
X194580000Y-112868967D01*
X194580000Y-113191033D01*
X194642832Y-113506912D01*
X194766082Y-113804463D01*
X194945013Y-114072252D01*
X195172748Y-114299987D01*
X195440537Y-114478918D01*
X195738088Y-114602168D01*
X196053967Y-114665000D01*
X196376033Y-114665000D01*
X196691912Y-114602168D01*
X196989463Y-114478918D01*
X197257252Y-114299987D01*
X197484987Y-114072252D01*
X197663918Y-113804463D01*
X197787168Y-113506912D01*
X197850000Y-113191033D01*
X197850000Y-112868967D01*
X197787168Y-112553088D01*
X197663918Y-112255537D01*
X197484987Y-111987748D01*
X197257252Y-111760013D01*
X196989463Y-111581082D01*
X196691912Y-111457832D01*
X196376033Y-111395000D01*
X196053967Y-111395000D01*
X195738088Y-111457832D01*
X195440537Y-111581082D01*
X195172748Y-111760013D01*
X194945013Y-111987748D01*
X194766082Y-112255537D01*
X194642832Y-112553088D01*
X194580000Y-112868967D01*
X156505072Y-112868967D01*
X156505072Y-112230000D01*
X156492812Y-112105518D01*
X156456502Y-111985820D01*
X156397537Y-111875506D01*
X156318185Y-111778815D01*
X156221494Y-111699463D01*
X156111180Y-111640498D01*
X155991482Y-111604188D01*
X155867000Y-111591928D01*
X154267000Y-111591928D01*
X154142518Y-111604188D01*
X154022820Y-111640498D01*
X153912506Y-111699463D01*
X153815815Y-111778815D01*
X153736463Y-111875506D01*
X153677498Y-111985820D01*
X153641188Y-112105518D01*
X153628928Y-112230000D01*
X122580000Y-112230000D01*
X122580000Y-109721544D01*
X137837000Y-109721544D01*
X137837000Y-109988456D01*
X137889072Y-110250239D01*
X137991215Y-110496833D01*
X138139503Y-110718762D01*
X138328238Y-110907497D01*
X138550167Y-111055785D01*
X138796761Y-111157928D01*
X139058544Y-111210000D01*
X139325456Y-111210000D01*
X139587239Y-111157928D01*
X139833833Y-111055785D01*
X140055762Y-110907497D01*
X140244497Y-110718762D01*
X140392785Y-110496833D01*
X140462000Y-110329734D01*
X140531215Y-110496833D01*
X140679503Y-110718762D01*
X140868238Y-110907497D01*
X141090167Y-111055785D01*
X141336761Y-111157928D01*
X141598544Y-111210000D01*
X141865456Y-111210000D01*
X142127239Y-111157928D01*
X142373833Y-111055785D01*
X142595762Y-110907497D01*
X142784497Y-110718762D01*
X142932785Y-110496833D01*
X143002000Y-110329734D01*
X143071215Y-110496833D01*
X143219503Y-110718762D01*
X143408238Y-110907497D01*
X143630167Y-111055785D01*
X143876761Y-111157928D01*
X144138544Y-111210000D01*
X144405456Y-111210000D01*
X144667239Y-111157928D01*
X144913833Y-111055785D01*
X145135762Y-110907497D01*
X145324497Y-110718762D01*
X145455499Y-110522702D01*
X154253903Y-110522702D01*
X154325486Y-110766671D01*
X154580996Y-110887571D01*
X154855184Y-110956300D01*
X155137512Y-110970217D01*
X155417130Y-110928787D01*
X155683292Y-110833603D01*
X155808514Y-110766671D01*
X155880097Y-110522702D01*
X155067000Y-109709605D01*
X154253903Y-110522702D01*
X145455499Y-110522702D01*
X145472785Y-110496833D01*
X145574928Y-110250239D01*
X145627000Y-109988456D01*
X145627000Y-109721544D01*
X145602926Y-109600512D01*
X153626783Y-109600512D01*
X153668213Y-109880130D01*
X153763397Y-110146292D01*
X153830329Y-110271514D01*
X154074298Y-110343097D01*
X154887395Y-109530000D01*
X155246605Y-109530000D01*
X156059702Y-110343097D01*
X156303671Y-110271514D01*
X156424571Y-110016004D01*
X156493300Y-109741816D01*
X156507217Y-109459488D01*
X156465787Y-109179870D01*
X156370603Y-108913708D01*
X156303671Y-108788486D01*
X156059702Y-108716903D01*
X155246605Y-109530000D01*
X154887395Y-109530000D01*
X154074298Y-108716903D01*
X153830329Y-108788486D01*
X153709429Y-109043996D01*
X153640700Y-109318184D01*
X153626783Y-109600512D01*
X145602926Y-109600512D01*
X145574928Y-109459761D01*
X145472785Y-109213167D01*
X145324497Y-108991238D01*
X145135762Y-108802503D01*
X144913833Y-108654215D01*
X144667239Y-108552072D01*
X144592966Y-108537298D01*
X154253903Y-108537298D01*
X155067000Y-109350395D01*
X155880097Y-108537298D01*
X155808514Y-108293329D01*
X155553004Y-108172429D01*
X155278816Y-108103700D01*
X154996488Y-108089783D01*
X154716870Y-108131213D01*
X154450708Y-108226397D01*
X154325486Y-108293329D01*
X154253903Y-108537298D01*
X144592966Y-108537298D01*
X144405456Y-108500000D01*
X144138544Y-108500000D01*
X143876761Y-108552072D01*
X143630167Y-108654215D01*
X143408238Y-108802503D01*
X143219503Y-108991238D01*
X143071215Y-109213167D01*
X143002000Y-109380266D01*
X142932785Y-109213167D01*
X142784497Y-108991238D01*
X142595762Y-108802503D01*
X142373833Y-108654215D01*
X142127239Y-108552072D01*
X141865456Y-108500000D01*
X141598544Y-108500000D01*
X141336761Y-108552072D01*
X141090167Y-108654215D01*
X140868238Y-108802503D01*
X140679503Y-108991238D01*
X140531215Y-109213167D01*
X140462000Y-109380266D01*
X140392785Y-109213167D01*
X140244497Y-108991238D01*
X140055762Y-108802503D01*
X139833833Y-108654215D01*
X139587239Y-108552072D01*
X139325456Y-108500000D01*
X139058544Y-108500000D01*
X138796761Y-108552072D01*
X138550167Y-108654215D01*
X138328238Y-108802503D01*
X138139503Y-108991238D01*
X137991215Y-109213167D01*
X137889072Y-109459761D01*
X137837000Y-109721544D01*
X122580000Y-109721544D01*
X122580000Y-100109872D01*
X124003000Y-100109872D01*
X124003000Y-100550128D01*
X124088890Y-100981925D01*
X124257369Y-101388669D01*
X124501962Y-101754729D01*
X124813271Y-102066038D01*
X125179331Y-102310631D01*
X125586075Y-102479110D01*
X126017872Y-102565000D01*
X126458128Y-102565000D01*
X126889925Y-102479110D01*
X127296669Y-102310631D01*
X127662729Y-102066038D01*
X127974038Y-101754729D01*
X128218631Y-101388669D01*
X128387110Y-100981925D01*
X128473000Y-100550128D01*
X128473000Y-100109872D01*
X197409000Y-100109872D01*
X197409000Y-100550128D01*
X197494890Y-100981925D01*
X197663369Y-101388669D01*
X197907962Y-101754729D01*
X198219271Y-102066038D01*
X198585331Y-102310631D01*
X198992075Y-102479110D01*
X199423872Y-102565000D01*
X199864128Y-102565000D01*
X200295925Y-102479110D01*
X200702669Y-102310631D01*
X201068729Y-102066038D01*
X201380038Y-101754729D01*
X201624631Y-101388669D01*
X201793110Y-100981925D01*
X201879000Y-100550128D01*
X201879000Y-100109872D01*
X201793110Y-99678075D01*
X201624631Y-99271331D01*
X201380038Y-98905271D01*
X201068729Y-98593962D01*
X200702669Y-98349369D01*
X200295925Y-98180890D01*
X199864128Y-98095000D01*
X199423872Y-98095000D01*
X198992075Y-98180890D01*
X198585331Y-98349369D01*
X198219271Y-98593962D01*
X197907962Y-98905271D01*
X197663369Y-99271331D01*
X197494890Y-99678075D01*
X197409000Y-100109872D01*
X128473000Y-100109872D01*
X128387110Y-99678075D01*
X128218631Y-99271331D01*
X127974038Y-98905271D01*
X127662729Y-98593962D01*
X127296669Y-98349369D01*
X126889925Y-98180890D01*
X126458128Y-98095000D01*
X126017872Y-98095000D01*
X125586075Y-98180890D01*
X125179331Y-98349369D01*
X124813271Y-98593962D01*
X124501962Y-98905271D01*
X124257369Y-99271331D01*
X124088890Y-99678075D01*
X124003000Y-100109872D01*
X122580000Y-100109872D01*
X122580000Y-96545000D01*
X203175001Y-96545000D01*
X203175000Y-147295000D01*
G04 #@! TA.AperFunction,Conductor*
D19*
G36*
X203175000Y-147295000D02*
G01*
X122580000Y-147295000D01*
X122580000Y-143289872D01*
X123749000Y-143289872D01*
X123749000Y-143730128D01*
X123834890Y-144161925D01*
X124003369Y-144568669D01*
X124247962Y-144934729D01*
X124559271Y-145246038D01*
X124925331Y-145490631D01*
X125332075Y-145659110D01*
X125763872Y-145745000D01*
X126204128Y-145745000D01*
X126635925Y-145659110D01*
X127042669Y-145490631D01*
X127408729Y-145246038D01*
X127720038Y-144934729D01*
X127964631Y-144568669D01*
X128133110Y-144161925D01*
X128219000Y-143730128D01*
X128219000Y-143289872D01*
X197409000Y-143289872D01*
X197409000Y-143730128D01*
X197494890Y-144161925D01*
X197663369Y-144568669D01*
X197907962Y-144934729D01*
X198219271Y-145246038D01*
X198585331Y-145490631D01*
X198992075Y-145659110D01*
X199423872Y-145745000D01*
X199864128Y-145745000D01*
X200295925Y-145659110D01*
X200702669Y-145490631D01*
X201068729Y-145246038D01*
X201380038Y-144934729D01*
X201624631Y-144568669D01*
X201793110Y-144161925D01*
X201879000Y-143730128D01*
X201879000Y-143289872D01*
X201793110Y-142858075D01*
X201624631Y-142451331D01*
X201380038Y-142085271D01*
X201068729Y-141773962D01*
X200702669Y-141529369D01*
X200295925Y-141360890D01*
X199864128Y-141275000D01*
X199423872Y-141275000D01*
X198992075Y-141360890D01*
X198585331Y-141529369D01*
X198219271Y-141773962D01*
X197907962Y-142085271D01*
X197663369Y-142451331D01*
X197494890Y-142858075D01*
X197409000Y-143289872D01*
X128219000Y-143289872D01*
X128133110Y-142858075D01*
X127964631Y-142451331D01*
X127720038Y-142085271D01*
X127408729Y-141773962D01*
X127042669Y-141529369D01*
X126635925Y-141360890D01*
X126204128Y-141275000D01*
X125763872Y-141275000D01*
X125332075Y-141360890D01*
X124925331Y-141529369D01*
X124559271Y-141773962D01*
X124247962Y-142085271D01*
X124003369Y-142451331D01*
X123834890Y-142858075D01*
X123749000Y-143289872D01*
X122580000Y-143289872D01*
X122580000Y-134919500D01*
X142389428Y-134919500D01*
X142401688Y-135043982D01*
X142437998Y-135163680D01*
X142496963Y-135273994D01*
X142576315Y-135370685D01*
X142673006Y-135450037D01*
X142783320Y-135509002D01*
X142903018Y-135545312D01*
X143027500Y-135557572D01*
X143541750Y-135554500D01*
X143700500Y-135395750D01*
X143700500Y-134246500D01*
X143954500Y-134246500D01*
X143954500Y-135395750D01*
X144113250Y-135554500D01*
X144627500Y-135557572D01*
X144751982Y-135545312D01*
X144871680Y-135509002D01*
X144981994Y-135450037D01*
X145078685Y-135370685D01*
X145158037Y-135273994D01*
X145217002Y-135163680D01*
X145253312Y-135043982D01*
X145265572Y-134919500D01*
X145262500Y-134405250D01*
X145103750Y-134246500D01*
X143954500Y-134246500D01*
X143700500Y-134246500D01*
X142551250Y-134246500D01*
X142392500Y-134405250D01*
X142389428Y-134919500D01*
X122580000Y-134919500D01*
X122580000Y-133319500D01*
X142389428Y-133319500D01*
X142392500Y-133833750D01*
X142551250Y-133992500D01*
X143700500Y-133992500D01*
X143700500Y-132843250D01*
X143954500Y-132843250D01*
X143954500Y-133992500D01*
X145103750Y-133992500D01*
X145262500Y-133833750D01*
X145265572Y-133319500D01*
X145253312Y-133195018D01*
X145217002Y-133075320D01*
X145158037Y-132965006D01*
X145078685Y-132868315D01*
X144981994Y-132788963D01*
X144871680Y-132729998D01*
X144751982Y-132693688D01*
X144627500Y-132681428D01*
X144113250Y-132684500D01*
X143954500Y-132843250D01*
X143700500Y-132843250D01*
X143541750Y-132684500D01*
X143027500Y-132681428D01*
X142903018Y-132693688D01*
X142783320Y-132729998D01*
X142673006Y-132788963D01*
X142576315Y-132868315D01*
X142496963Y-132965006D01*
X142437998Y-133075320D01*
X142401688Y-133195018D01*
X142389428Y-133319500D01*
X122580000Y-133319500D01*
X122580000Y-130478165D01*
X142392500Y-130478165D01*
X142392500Y-130760835D01*
X142447647Y-131038074D01*
X142555820Y-131299227D01*
X142712863Y-131534259D01*
X142912741Y-131734137D01*
X143147773Y-131891180D01*
X143408926Y-131999353D01*
X143686165Y-132054500D01*
X143968835Y-132054500D01*
X144246074Y-131999353D01*
X144507227Y-131891180D01*
X144742259Y-131734137D01*
X144942137Y-131534259D01*
X145099180Y-131299227D01*
X145207353Y-131038074D01*
X145262500Y-130760835D01*
X145262500Y-130478165D01*
X145258582Y-130458467D01*
X194453000Y-130458467D01*
X194453000Y-130780533D01*
X194515832Y-131096412D01*
X194639082Y-131393963D01*
X194818013Y-131661752D01*
X195045748Y-131889487D01*
X195313537Y-132068418D01*
X195611088Y-132191668D01*
X195926967Y-132254500D01*
X196249033Y-132254500D01*
X196564912Y-132191668D01*
X196862463Y-132068418D01*
X197130252Y-131889487D01*
X197357987Y-131661752D01*
X197536918Y-131393963D01*
X197660168Y-131096412D01*
X197723000Y-130780533D01*
X197723000Y-130458467D01*
X197660168Y-130142588D01*
X197536918Y-129845037D01*
X197357987Y-129577248D01*
X197130252Y-129349513D01*
X196862463Y-129170582D01*
X196564912Y-129047332D01*
X196249033Y-128984500D01*
X195926967Y-128984500D01*
X195611088Y-129047332D01*
X195313537Y-129170582D01*
X195045748Y-129349513D01*
X194818013Y-129577248D01*
X194639082Y-129845037D01*
X194515832Y-130142588D01*
X194453000Y-130458467D01*
X145258582Y-130458467D01*
X145207353Y-130200926D01*
X145099180Y-129939773D01*
X144942137Y-129704741D01*
X144742259Y-129504863D01*
X144507227Y-129347820D01*
X144246074Y-129239647D01*
X143968835Y-129184500D01*
X143686165Y-129184500D01*
X143408926Y-129239647D01*
X143147773Y-129347820D01*
X142912741Y-129504863D01*
X142712863Y-129704741D01*
X142555820Y-129939773D01*
X142447647Y-130200926D01*
X142392500Y-130478165D01*
X122580000Y-130478165D01*
X122580000Y-128628500D01*
X136187928Y-128628500D01*
X136200188Y-128752982D01*
X136236498Y-128872680D01*
X136295463Y-128982994D01*
X136374815Y-129079685D01*
X136471506Y-129159037D01*
X136581820Y-129218002D01*
X136701518Y-129254312D01*
X136826000Y-129266572D01*
X137890250Y-129263500D01*
X138049000Y-129104750D01*
X138049000Y-128093000D01*
X138303000Y-128093000D01*
X138303000Y-129104750D01*
X138461750Y-129263500D01*
X139526000Y-129266572D01*
X139650482Y-129254312D01*
X139770180Y-129218002D01*
X139880494Y-129159037D01*
X139977185Y-129079685D01*
X140056537Y-128982994D01*
X140115502Y-128872680D01*
X140151812Y-128752982D01*
X140164072Y-128628500D01*
X140161000Y-128251750D01*
X140002250Y-128093000D01*
X138303000Y-128093000D01*
X138049000Y-128093000D01*
X136349750Y-128093000D01*
X136191000Y-128251750D01*
X136187928Y-128628500D01*
X122580000Y-128628500D01*
X122580000Y-127303500D01*
X136187928Y-127303500D01*
X136191000Y-127680250D01*
X136349750Y-127839000D01*
X138049000Y-127839000D01*
X138049000Y-126827250D01*
X138303000Y-126827250D01*
X138303000Y-127839000D01*
X140002250Y-127839000D01*
X140161000Y-127680250D01*
X140164072Y-127303500D01*
X140151812Y-127179018D01*
X140115502Y-127059320D01*
X140056537Y-126949006D01*
X139977185Y-126852315D01*
X139880494Y-126772963D01*
X139770180Y-126713998D01*
X139650482Y-126677688D01*
X139526000Y-126665428D01*
X138461750Y-126668500D01*
X138303000Y-126827250D01*
X138049000Y-126827250D01*
X137890250Y-126668500D01*
X136826000Y-126665428D01*
X136701518Y-126677688D01*
X136581820Y-126713998D01*
X136471506Y-126772963D01*
X136374815Y-126852315D01*
X136295463Y-126949006D01*
X136236498Y-127059320D01*
X136200188Y-127179018D01*
X136187928Y-127303500D01*
X122580000Y-127303500D01*
X122580000Y-125722413D01*
X125345692Y-125722413D01*
X125441456Y-125986814D01*
X125731071Y-126127704D01*
X126042608Y-126209384D01*
X126364095Y-126228718D01*
X126683175Y-126184961D01*
X126987588Y-126079795D01*
X127161544Y-125986814D01*
X127257308Y-125722413D01*
X126301500Y-124766605D01*
X125345692Y-125722413D01*
X122580000Y-125722413D01*
X122580000Y-124649595D01*
X124659782Y-124649595D01*
X124703539Y-124968675D01*
X124808705Y-125273088D01*
X124901686Y-125447044D01*
X125166087Y-125542808D01*
X126121895Y-124587000D01*
X126481105Y-124587000D01*
X127436913Y-125542808D01*
X127701314Y-125447044D01*
X127842204Y-125157429D01*
X127923884Y-124845892D01*
X127943218Y-124524405D01*
X127899461Y-124205325D01*
X127794295Y-123900912D01*
X127701314Y-123726956D01*
X127436913Y-123631192D01*
X126481105Y-124587000D01*
X126121895Y-124587000D01*
X125166087Y-123631192D01*
X124901686Y-123726956D01*
X124760796Y-124016571D01*
X124679116Y-124328108D01*
X124659782Y-124649595D01*
X122580000Y-124649595D01*
X122580000Y-123451587D01*
X125345692Y-123451587D01*
X126301500Y-124407395D01*
X127257308Y-123451587D01*
X127161544Y-123187186D01*
X126871929Y-123046296D01*
X126560392Y-122964616D01*
X126238905Y-122945282D01*
X125919825Y-122989039D01*
X125615412Y-123094205D01*
X125441456Y-123187186D01*
X125345692Y-123451587D01*
X122580000Y-123451587D01*
X122580000Y-122170500D01*
X133980428Y-122170500D01*
X133992688Y-122294982D01*
X134028998Y-122414680D01*
X134087963Y-122524994D01*
X134167315Y-122621685D01*
X134264006Y-122701037D01*
X134374320Y-122760002D01*
X134494018Y-122796312D01*
X134618500Y-122808572D01*
X135032750Y-122805500D01*
X135191500Y-122646750D01*
X135191500Y-121697500D01*
X135445500Y-121697500D01*
X135445500Y-122646750D01*
X135604250Y-122805500D01*
X136018500Y-122808572D01*
X136142982Y-122796312D01*
X136262680Y-122760002D01*
X136372994Y-122701037D01*
X136469685Y-122621685D01*
X136549037Y-122524994D01*
X136608002Y-122414680D01*
X136644312Y-122294982D01*
X136656572Y-122170500D01*
X136653500Y-121856250D01*
X136494750Y-121697500D01*
X135445500Y-121697500D01*
X135191500Y-121697500D01*
X134142250Y-121697500D01*
X133983500Y-121856250D01*
X133980428Y-122170500D01*
X122580000Y-122170500D01*
X122580000Y-119409467D01*
X124666500Y-119409467D01*
X124666500Y-119731533D01*
X124729332Y-120047412D01*
X124852582Y-120344963D01*
X125031513Y-120612752D01*
X125259248Y-120840487D01*
X125527037Y-121019418D01*
X125824588Y-121142668D01*
X126140467Y-121205500D01*
X126462533Y-121205500D01*
X126778412Y-121142668D01*
X127075963Y-121019418D01*
X127343752Y-120840487D01*
X127571487Y-120612752D01*
X127750418Y-120344963D01*
X127756409Y-120330500D01*
X134085524Y-120330500D01*
X134130095Y-120413887D01*
X134196776Y-120495137D01*
X134167315Y-120519315D01*
X134087963Y-120616006D01*
X134028998Y-120726320D01*
X133992688Y-120846018D01*
X133980428Y-120970500D01*
X133983500Y-121284750D01*
X134142250Y-121443500D01*
X135191500Y-121443500D01*
X135191500Y-121423500D01*
X135445500Y-121423500D01*
X135445500Y-121443500D01*
X136494750Y-121443500D01*
X136653500Y-121284750D01*
X136656572Y-120970500D01*
X136644312Y-120846018D01*
X136608002Y-120726320D01*
X136549037Y-120616006D01*
X136469685Y-120519315D01*
X136440224Y-120495137D01*
X136506905Y-120413887D01*
X136551476Y-120330500D01*
X136957957Y-120330500D01*
X137061363Y-120485259D01*
X137261241Y-120685137D01*
X137493759Y-120840500D01*
X137261241Y-120995863D01*
X137061363Y-121195741D01*
X136904320Y-121430773D01*
X136796147Y-121691926D01*
X136741000Y-121969165D01*
X136741000Y-122251835D01*
X136796147Y-122529074D01*
X136904320Y-122790227D01*
X137061363Y-123025259D01*
X137261241Y-123225137D01*
X137291001Y-123245022D01*
X137291000Y-123540428D01*
X137075999Y-123540428D01*
X136902745Y-123557492D01*
X136736149Y-123608028D01*
X136582613Y-123690095D01*
X136448038Y-123800538D01*
X136337595Y-123935113D01*
X136255528Y-124088649D01*
X136204992Y-124255245D01*
X136187928Y-124428499D01*
X136187928Y-125253501D01*
X136204992Y-125426755D01*
X136255528Y-125593351D01*
X136337595Y-125746887D01*
X136448038Y-125881462D01*
X136582613Y-125991905D01*
X136736149Y-126073972D01*
X136902745Y-126124508D01*
X137075999Y-126141572D01*
X139276001Y-126141572D01*
X139449255Y-126124508D01*
X139615851Y-126073972D01*
X139769387Y-125991905D01*
X139903962Y-125881462D01*
X140014405Y-125746887D01*
X140096472Y-125593351D01*
X140147008Y-125426755D01*
X140164072Y-125253501D01*
X140164072Y-124428499D01*
X140147008Y-124255245D01*
X140096472Y-124088649D01*
X140014405Y-123935113D01*
X139903962Y-123800538D01*
X139769387Y-123690095D01*
X139615851Y-123608028D01*
X139449255Y-123557492D01*
X139276001Y-123540428D01*
X139061000Y-123540428D01*
X139061000Y-123245021D01*
X139090759Y-123225137D01*
X139290637Y-123025259D01*
X139447680Y-122790227D01*
X139555853Y-122529074D01*
X139611000Y-122251835D01*
X139611000Y-121969165D01*
X139555853Y-121691926D01*
X139447680Y-121430773D01*
X139290637Y-121195741D01*
X139090759Y-120995863D01*
X138858241Y-120840500D01*
X139090759Y-120685137D01*
X139290637Y-120485259D01*
X139447680Y-120250227D01*
X139555853Y-119989074D01*
X139611000Y-119711835D01*
X139611000Y-119429165D01*
X139555853Y-119151926D01*
X139447680Y-118890773D01*
X139290637Y-118655741D01*
X139090759Y-118455863D01*
X138858241Y-118300500D01*
X139090759Y-118145137D01*
X139290637Y-117945259D01*
X139394043Y-117790500D01*
X139795390Y-117790500D01*
X139812028Y-117845350D01*
X139894095Y-117998886D01*
X140004538Y-118133462D01*
X140139114Y-118243905D01*
X140242001Y-118298899D01*
X140242000Y-118337523D01*
X140158613Y-118382095D01*
X140024038Y-118492538D01*
X139913595Y-118627113D01*
X139831528Y-118780649D01*
X139780992Y-118947245D01*
X139763928Y-119120499D01*
X139763928Y-120020501D01*
X139780992Y-120193755D01*
X139831528Y-120360351D01*
X139913595Y-120513887D01*
X140024038Y-120648462D01*
X140158613Y-120758905D01*
X140312149Y-120840972D01*
X140478745Y-120891508D01*
X140651999Y-120908572D01*
X141352001Y-120908572D01*
X141525255Y-120891508D01*
X141691851Y-120840972D01*
X141845387Y-120758905D01*
X141979962Y-120648462D01*
X142002000Y-120621609D01*
X142024038Y-120648462D01*
X142158613Y-120758905D01*
X142312149Y-120840972D01*
X142478745Y-120891508D01*
X142651999Y-120908572D01*
X143352001Y-120908572D01*
X143525255Y-120891508D01*
X143691851Y-120840972D01*
X143845387Y-120758905D01*
X143979962Y-120648462D01*
X144090405Y-120513887D01*
X144172472Y-120360351D01*
X144181527Y-120330500D01*
X144577957Y-120330500D01*
X144681363Y-120485259D01*
X144881241Y-120685137D01*
X145113759Y-120840500D01*
X144881241Y-120995863D01*
X144681363Y-121195741D01*
X144524320Y-121430773D01*
X144416147Y-121691926D01*
X144361000Y-121969165D01*
X144361000Y-122251835D01*
X144416147Y-122529074D01*
X144524320Y-122790227D01*
X144681363Y-123025259D01*
X144881241Y-123225137D01*
X145116273Y-123382180D01*
X145377426Y-123490353D01*
X145654665Y-123545500D01*
X145937335Y-123545500D01*
X146214574Y-123490353D01*
X146475727Y-123382180D01*
X146710759Y-123225137D01*
X146910637Y-123025259D01*
X147067680Y-122790227D01*
X147175853Y-122529074D01*
X147231000Y-122251835D01*
X147231000Y-121969165D01*
X147175853Y-121691926D01*
X147067680Y-121430773D01*
X146910637Y-121195741D01*
X146710759Y-120995863D01*
X146478241Y-120840500D01*
X146710759Y-120685137D01*
X146910637Y-120485259D01*
X147014043Y-120330500D01*
X147346973Y-120330500D01*
X147356028Y-120360351D01*
X147438095Y-120513887D01*
X147548538Y-120648462D01*
X147683113Y-120758905D01*
X147696874Y-120766260D01*
X147648416Y-120856918D01*
X147603571Y-121004755D01*
X147588428Y-121158500D01*
X147588428Y-122808500D01*
X147603571Y-122962245D01*
X147648416Y-123110082D01*
X147721242Y-123246329D01*
X147819249Y-123365751D01*
X147938671Y-123463758D01*
X148074918Y-123536584D01*
X148222755Y-123581429D01*
X148376500Y-123596572D01*
X148676500Y-123596572D01*
X148830245Y-123581429D01*
X148978082Y-123536584D01*
X149114329Y-123463758D01*
X149161500Y-123425046D01*
X149208671Y-123463758D01*
X149344918Y-123536584D01*
X149492755Y-123581429D01*
X149646500Y-123596572D01*
X149946500Y-123596572D01*
X150100245Y-123581429D01*
X150248082Y-123536584D01*
X150306500Y-123505359D01*
X150306500Y-123850964D01*
X150237914Y-123953611D01*
X150167432Y-124123771D01*
X150131500Y-124304411D01*
X150131500Y-124488589D01*
X150167432Y-124669229D01*
X150237914Y-124839389D01*
X150306500Y-124942036D01*
X150306500Y-125311677D01*
X150302824Y-125349000D01*
X150306500Y-125386322D01*
X150306500Y-125386332D01*
X150306501Y-125386342D01*
X150306501Y-125411642D01*
X150248082Y-125380416D01*
X150100245Y-125335571D01*
X149946500Y-125320428D01*
X149646500Y-125320428D01*
X149492755Y-125335571D01*
X149344918Y-125380416D01*
X149208671Y-125453242D01*
X149161500Y-125491954D01*
X149114329Y-125453242D01*
X148978082Y-125380416D01*
X148830245Y-125335571D01*
X148676500Y-125320428D01*
X148376500Y-125320428D01*
X148222755Y-125335571D01*
X148074918Y-125380416D01*
X147938671Y-125453242D01*
X147819249Y-125551249D01*
X147721242Y-125670671D01*
X147648416Y-125806918D01*
X147603571Y-125954755D01*
X147588428Y-126108500D01*
X147588428Y-127758500D01*
X147603571Y-127912245D01*
X147648416Y-128060082D01*
X147721242Y-128196329D01*
X147819249Y-128315751D01*
X147938671Y-128413758D01*
X148074918Y-128486584D01*
X148222755Y-128531429D01*
X148376500Y-128546572D01*
X148676500Y-128546572D01*
X148830245Y-128531429D01*
X148978082Y-128486584D01*
X149114329Y-128413758D01*
X149161500Y-128375046D01*
X149208671Y-128413758D01*
X149344918Y-128486584D01*
X149492755Y-128531429D01*
X149646500Y-128546572D01*
X149946500Y-128546572D01*
X150100245Y-128531429D01*
X150248082Y-128486584D01*
X150384329Y-128413758D01*
X150431500Y-128375046D01*
X150478671Y-128413758D01*
X150614918Y-128486584D01*
X150762755Y-128531429D01*
X150916500Y-128546572D01*
X151216500Y-128546572D01*
X151370245Y-128531429D01*
X151518082Y-128486584D01*
X151654329Y-128413758D01*
X151701500Y-128375046D01*
X151748671Y-128413758D01*
X151884918Y-128486584D01*
X152032755Y-128531429D01*
X152186500Y-128546572D01*
X152486500Y-128546572D01*
X152640245Y-128531429D01*
X152788082Y-128486584D01*
X152924329Y-128413758D01*
X153043751Y-128315751D01*
X153141758Y-128196329D01*
X153214584Y-128060082D01*
X153259429Y-127912245D01*
X153274572Y-127758500D01*
X153274572Y-126108500D01*
X153273490Y-126097517D01*
X153307095Y-126160387D01*
X153417538Y-126294962D01*
X153552113Y-126405405D01*
X153705649Y-126487472D01*
X153872245Y-126538008D01*
X154045499Y-126555072D01*
X154945501Y-126555072D01*
X155118755Y-126538008D01*
X155285351Y-126487472D01*
X155438887Y-126405405D01*
X155573462Y-126294962D01*
X155683905Y-126160387D01*
X155765972Y-126006851D01*
X155816508Y-125840255D01*
X155828114Y-125722413D01*
X156968692Y-125722413D01*
X157064456Y-125986814D01*
X157354071Y-126127704D01*
X157665608Y-126209384D01*
X157987095Y-126228718D01*
X158306175Y-126184961D01*
X158610588Y-126079795D01*
X158784544Y-125986814D01*
X158880308Y-125722413D01*
X157924500Y-124766605D01*
X156968692Y-125722413D01*
X155828114Y-125722413D01*
X155833572Y-125667001D01*
X155833572Y-124966999D01*
X155816508Y-124793745D01*
X155772781Y-124649595D01*
X156282782Y-124649595D01*
X156326539Y-124968675D01*
X156431705Y-125273088D01*
X156524686Y-125447044D01*
X156789087Y-125542808D01*
X157744895Y-124587000D01*
X158104105Y-124587000D01*
X159059913Y-125542808D01*
X159324314Y-125447044D01*
X159465204Y-125157429D01*
X159546884Y-124845892D01*
X159566218Y-124524405D01*
X159522461Y-124205325D01*
X159417295Y-123900912D01*
X159324314Y-123726956D01*
X159059913Y-123631192D01*
X158104105Y-124587000D01*
X157744895Y-124587000D01*
X156789087Y-123631192D01*
X156524686Y-123726956D01*
X156383796Y-124016571D01*
X156302116Y-124328108D01*
X156282782Y-124649595D01*
X155772781Y-124649595D01*
X155765972Y-124627149D01*
X155683905Y-124473613D01*
X155573462Y-124339038D01*
X155546609Y-124317000D01*
X155573462Y-124294962D01*
X155683905Y-124160387D01*
X155765972Y-124006851D01*
X155816508Y-123840255D01*
X155833572Y-123667001D01*
X155833572Y-123451587D01*
X156968692Y-123451587D01*
X157924500Y-124407395D01*
X158880308Y-123451587D01*
X158784544Y-123187186D01*
X158513671Y-123055413D01*
X193798692Y-123055413D01*
X193894456Y-123319814D01*
X194184071Y-123460704D01*
X194495608Y-123542384D01*
X194817095Y-123561718D01*
X195136175Y-123517961D01*
X195440588Y-123412795D01*
X195614544Y-123319814D01*
X195710308Y-123055413D01*
X194754500Y-122099605D01*
X193798692Y-123055413D01*
X158513671Y-123055413D01*
X158494929Y-123046296D01*
X158183392Y-122964616D01*
X157861905Y-122945282D01*
X157542825Y-122989039D01*
X157238412Y-123094205D01*
X157064456Y-123187186D01*
X156968692Y-123451587D01*
X155833572Y-123451587D01*
X155833572Y-122966999D01*
X155816508Y-122793745D01*
X155765972Y-122627149D01*
X155683905Y-122473613D01*
X155573462Y-122339038D01*
X155438887Y-122228595D01*
X155285351Y-122146528D01*
X155118755Y-122095992D01*
X154945501Y-122078928D01*
X154332229Y-122078928D01*
X154235896Y-121982595D01*
X193112782Y-121982595D01*
X193156539Y-122301675D01*
X193261705Y-122606088D01*
X193354686Y-122780044D01*
X193619087Y-122875808D01*
X194574895Y-121920000D01*
X194934105Y-121920000D01*
X195889913Y-122875808D01*
X196154314Y-122780044D01*
X196295204Y-122490429D01*
X196376884Y-122178892D01*
X196396218Y-121857405D01*
X196352461Y-121538325D01*
X196247295Y-121233912D01*
X196154314Y-121059956D01*
X195889913Y-120964192D01*
X194934105Y-121920000D01*
X194574895Y-121920000D01*
X193619087Y-120964192D01*
X193354686Y-121059956D01*
X193213796Y-121349571D01*
X193132116Y-121661108D01*
X193112782Y-121982595D01*
X154235896Y-121982595D01*
X153725804Y-121472503D01*
X153702001Y-121443499D01*
X153586276Y-121348526D01*
X153454247Y-121277954D01*
X153310986Y-121234497D01*
X153274572Y-121230910D01*
X153274572Y-121158500D01*
X153259429Y-121004755D01*
X153214584Y-120856918D01*
X153141758Y-120720671D01*
X153043751Y-120601249D01*
X152924329Y-120503242D01*
X152788082Y-120430416D01*
X152640245Y-120385571D01*
X152486500Y-120370428D01*
X152186500Y-120370428D01*
X152032755Y-120385571D01*
X151884918Y-120430416D01*
X151748671Y-120503242D01*
X151701500Y-120541954D01*
X151654329Y-120503242D01*
X151628091Y-120489217D01*
X151696972Y-120360351D01*
X151706027Y-120330500D01*
X156469591Y-120330500D01*
X156475582Y-120344963D01*
X156654513Y-120612752D01*
X156882248Y-120840487D01*
X157150037Y-121019418D01*
X157447588Y-121142668D01*
X157763467Y-121205500D01*
X158085533Y-121205500D01*
X158401412Y-121142668D01*
X158698963Y-121019418D01*
X158966752Y-120840487D01*
X159022652Y-120784587D01*
X193798692Y-120784587D01*
X194754500Y-121740395D01*
X195710308Y-120784587D01*
X195614544Y-120520186D01*
X195324929Y-120379296D01*
X195013392Y-120297616D01*
X194691905Y-120278282D01*
X194372825Y-120322039D01*
X194068412Y-120427205D01*
X193894456Y-120520186D01*
X193798692Y-120784587D01*
X159022652Y-120784587D01*
X159194487Y-120612752D01*
X159373418Y-120344963D01*
X159496668Y-120047412D01*
X159559500Y-119731533D01*
X159559500Y-119409467D01*
X159496668Y-119093588D01*
X159373418Y-118796037D01*
X159194487Y-118528248D01*
X158966752Y-118300513D01*
X158698963Y-118121582D01*
X158401412Y-117998332D01*
X158085533Y-117935500D01*
X157763467Y-117935500D01*
X157447588Y-117998332D01*
X157150037Y-118121582D01*
X156882248Y-118300513D01*
X156654513Y-118528248D01*
X156475582Y-118796037D01*
X156469591Y-118810500D01*
X151706027Y-118810500D01*
X151696972Y-118780649D01*
X151614905Y-118627113D01*
X151504462Y-118492538D01*
X151369887Y-118382095D01*
X151216351Y-118300028D01*
X151049755Y-118249492D01*
X150876501Y-118232428D01*
X150849930Y-118232428D01*
X150945387Y-118181405D01*
X151079962Y-118070962D01*
X151190405Y-117936387D01*
X151272472Y-117782851D01*
X151323008Y-117616255D01*
X151340072Y-117443001D01*
X151340072Y-116617999D01*
X151323008Y-116444745D01*
X151272472Y-116278149D01*
X151190405Y-116124613D01*
X151079962Y-115990038D01*
X150945387Y-115879595D01*
X150791851Y-115797528D01*
X150625255Y-115746992D01*
X150452001Y-115729928D01*
X148251999Y-115729928D01*
X148078745Y-115746992D01*
X147912149Y-115797528D01*
X147758613Y-115879595D01*
X147624038Y-115990038D01*
X147513595Y-116124613D01*
X147502431Y-116145500D01*
X146930521Y-116145500D01*
X146910637Y-116115741D01*
X146710759Y-115915863D01*
X146478241Y-115760500D01*
X146710759Y-115605137D01*
X146910637Y-115405259D01*
X147067680Y-115170227D01*
X147175853Y-114909074D01*
X147231000Y-114631835D01*
X147231000Y-114568000D01*
X147363928Y-114568000D01*
X147376188Y-114692482D01*
X147412498Y-114812180D01*
X147471463Y-114922494D01*
X147550815Y-115019185D01*
X147647506Y-115098537D01*
X147757820Y-115157502D01*
X147877518Y-115193812D01*
X148002000Y-115206072D01*
X149066250Y-115203000D01*
X149225000Y-115044250D01*
X149225000Y-114032500D01*
X149479000Y-114032500D01*
X149479000Y-115044250D01*
X149637750Y-115203000D01*
X150702000Y-115206072D01*
X150826482Y-115193812D01*
X150946180Y-115157502D01*
X151056494Y-115098537D01*
X151153185Y-115019185D01*
X151232537Y-114922494D01*
X151291502Y-114812180D01*
X151327812Y-114692482D01*
X151340072Y-114568000D01*
X151337000Y-114191250D01*
X151178250Y-114032500D01*
X149479000Y-114032500D01*
X149225000Y-114032500D01*
X147525750Y-114032500D01*
X147367000Y-114191250D01*
X147363928Y-114568000D01*
X147231000Y-114568000D01*
X147231000Y-114349165D01*
X147175853Y-114071926D01*
X147067680Y-113810773D01*
X146910637Y-113575741D01*
X146710759Y-113375863D01*
X146511916Y-113243000D01*
X147363928Y-113243000D01*
X147367000Y-113619750D01*
X147525750Y-113778500D01*
X149225000Y-113778500D01*
X149225000Y-112766750D01*
X149479000Y-112766750D01*
X149479000Y-113778500D01*
X151178250Y-113778500D01*
X151337000Y-113619750D01*
X151340072Y-113243000D01*
X151327812Y-113118518D01*
X151291502Y-112998820D01*
X151232537Y-112888506D01*
X151153185Y-112791815D01*
X151056494Y-112712463D01*
X150946180Y-112653498D01*
X150826482Y-112617188D01*
X150702000Y-112604928D01*
X149637750Y-112608000D01*
X149479000Y-112766750D01*
X149225000Y-112766750D01*
X149066250Y-112608000D01*
X148002000Y-112604928D01*
X147877518Y-112617188D01*
X147757820Y-112653498D01*
X147647506Y-112712463D01*
X147550815Y-112791815D01*
X147471463Y-112888506D01*
X147412498Y-112998820D01*
X147376188Y-113118518D01*
X147363928Y-113243000D01*
X146511916Y-113243000D01*
X146475727Y-113218820D01*
X146214574Y-113110647D01*
X145937335Y-113055500D01*
X145654665Y-113055500D01*
X145377426Y-113110647D01*
X145116273Y-113218820D01*
X144881241Y-113375863D01*
X144681363Y-113575741D01*
X144524320Y-113810773D01*
X144416147Y-114071926D01*
X144361000Y-114349165D01*
X144361000Y-114631835D01*
X144416147Y-114909074D01*
X144524320Y-115170227D01*
X144681363Y-115405259D01*
X144881241Y-115605137D01*
X145113759Y-115760500D01*
X144881241Y-115915863D01*
X144681363Y-116115741D01*
X144524320Y-116350773D01*
X144416147Y-116611926D01*
X144361000Y-116889165D01*
X144361000Y-117171835D01*
X144416147Y-117449074D01*
X144524320Y-117710227D01*
X144681363Y-117945259D01*
X144881241Y-118145137D01*
X145113759Y-118300500D01*
X144881241Y-118455863D01*
X144681363Y-118655741D01*
X144577957Y-118810500D01*
X144181527Y-118810500D01*
X144172472Y-118780649D01*
X144090405Y-118627113D01*
X143979962Y-118492538D01*
X143845387Y-118382095D01*
X143762000Y-118337524D01*
X143762000Y-118304779D01*
X143875886Y-118243905D01*
X144010462Y-118133462D01*
X144120905Y-117998886D01*
X144202972Y-117845350D01*
X144253508Y-117678754D01*
X144270572Y-117505500D01*
X144270572Y-116555500D01*
X144253508Y-116382246D01*
X144202972Y-116215650D01*
X144120905Y-116062114D01*
X144010462Y-115927538D01*
X143875886Y-115817095D01*
X143722350Y-115735028D01*
X143555754Y-115684492D01*
X143382500Y-115667428D01*
X142707500Y-115667428D01*
X142534246Y-115684492D01*
X142367650Y-115735028D01*
X142214114Y-115817095D01*
X142079538Y-115927538D01*
X142007500Y-116015317D01*
X141935462Y-115927538D01*
X141800886Y-115817095D01*
X141647350Y-115735028D01*
X141480754Y-115684492D01*
X141307500Y-115667428D01*
X140632500Y-115667428D01*
X140459246Y-115684492D01*
X140292650Y-115735028D01*
X140139114Y-115817095D01*
X140004538Y-115927538D01*
X139894095Y-116062114D01*
X139812028Y-116215650D01*
X139795390Y-116270500D01*
X139394043Y-116270500D01*
X139290637Y-116115741D01*
X139092039Y-115917143D01*
X139100482Y-115916312D01*
X139220180Y-115880002D01*
X139330494Y-115821037D01*
X139427185Y-115741685D01*
X139506537Y-115644994D01*
X139565502Y-115534680D01*
X139601812Y-115414982D01*
X139614072Y-115290500D01*
X139614072Y-113690500D01*
X139601812Y-113566018D01*
X139565502Y-113446320D01*
X139506537Y-113336006D01*
X139427185Y-113239315D01*
X139330494Y-113159963D01*
X139220180Y-113100998D01*
X139100482Y-113064688D01*
X138976000Y-113052428D01*
X137376000Y-113052428D01*
X137251518Y-113064688D01*
X137131820Y-113100998D01*
X137021506Y-113159963D01*
X136924815Y-113239315D01*
X136845463Y-113336006D01*
X136786498Y-113446320D01*
X136750188Y-113566018D01*
X136737928Y-113690500D01*
X136737928Y-115290500D01*
X136750188Y-115414982D01*
X136786498Y-115534680D01*
X136845463Y-115644994D01*
X136924815Y-115741685D01*
X137021506Y-115821037D01*
X137131820Y-115880002D01*
X137251518Y-115916312D01*
X137259961Y-115917143D01*
X137061363Y-116115741D01*
X136957957Y-116270500D01*
X136561527Y-116270500D01*
X136552472Y-116240649D01*
X136470405Y-116087113D01*
X136359962Y-115952538D01*
X136225387Y-115842095D01*
X136071851Y-115760028D01*
X135905255Y-115709492D01*
X135732001Y-115692428D01*
X135031999Y-115692428D01*
X134858745Y-115709492D01*
X134692149Y-115760028D01*
X134538613Y-115842095D01*
X134457363Y-115908776D01*
X134433185Y-115879315D01*
X134336494Y-115799963D01*
X134226180Y-115740998D01*
X134106482Y-115704688D01*
X133982000Y-115692428D01*
X133667750Y-115695500D01*
X133509000Y-115854250D01*
X133509000Y-116903500D01*
X133529000Y-116903500D01*
X133529000Y-117157500D01*
X133509000Y-117157500D01*
X133509000Y-118206750D01*
X133667750Y-118365500D01*
X133982000Y-118368572D01*
X134106482Y-118356312D01*
X134226180Y-118320002D01*
X134336494Y-118261037D01*
X134433185Y-118181685D01*
X134457363Y-118152224D01*
X134538613Y-118218905D01*
X134692149Y-118300972D01*
X134813654Y-118337830D01*
X134695245Y-118349492D01*
X134528649Y-118400028D01*
X134375113Y-118482095D01*
X134240538Y-118592538D01*
X134130095Y-118727113D01*
X134085524Y-118810500D01*
X127756409Y-118810500D01*
X127750418Y-118796037D01*
X127571487Y-118528248D01*
X127343752Y-118300513D01*
X127075963Y-118121582D01*
X126778412Y-117998332D01*
X126462533Y-117935500D01*
X126140467Y-117935500D01*
X125824588Y-117998332D01*
X125527037Y-118121582D01*
X125259248Y-118300513D01*
X125031513Y-118528248D01*
X124852582Y-118796037D01*
X124729332Y-119093588D01*
X124666500Y-119409467D01*
X122580000Y-119409467D01*
X122580000Y-117730500D01*
X132143928Y-117730500D01*
X132156188Y-117854982D01*
X132192498Y-117974680D01*
X132251463Y-118084994D01*
X132330815Y-118181685D01*
X132427506Y-118261037D01*
X132537820Y-118320002D01*
X132657518Y-118356312D01*
X132782000Y-118368572D01*
X133096250Y-118365500D01*
X133255000Y-118206750D01*
X133255000Y-117157500D01*
X132305750Y-117157500D01*
X132147000Y-117316250D01*
X132143928Y-117730500D01*
X122580000Y-117730500D01*
X122580000Y-116330500D01*
X132143928Y-116330500D01*
X132147000Y-116744750D01*
X132305750Y-116903500D01*
X133255000Y-116903500D01*
X133255000Y-115854250D01*
X133096250Y-115695500D01*
X132782000Y-115692428D01*
X132657518Y-115704688D01*
X132537820Y-115740998D01*
X132427506Y-115799963D01*
X132330815Y-115879315D01*
X132251463Y-115976006D01*
X132192498Y-116086320D01*
X132156188Y-116206018D01*
X132143928Y-116330500D01*
X122580000Y-116330500D01*
X122580000Y-112230000D01*
X153628928Y-112230000D01*
X153628928Y-113830000D01*
X153641188Y-113954482D01*
X153677498Y-114074180D01*
X153736463Y-114184494D01*
X153815815Y-114281185D01*
X153912506Y-114360537D01*
X154022820Y-114419502D01*
X154142518Y-114455812D01*
X154267000Y-114468072D01*
X155867000Y-114468072D01*
X155991482Y-114455812D01*
X156111180Y-114419502D01*
X156221494Y-114360537D01*
X156318185Y-114281185D01*
X156397537Y-114184494D01*
X156456502Y-114074180D01*
X156492812Y-113954482D01*
X156505072Y-113830000D01*
X156505072Y-112868967D01*
X194580000Y-112868967D01*
X194580000Y-113191033D01*
X194642832Y-113506912D01*
X194766082Y-113804463D01*
X194945013Y-114072252D01*
X195172748Y-114299987D01*
X195440537Y-114478918D01*
X195738088Y-114602168D01*
X196053967Y-114665000D01*
X196376033Y-114665000D01*
X196691912Y-114602168D01*
X196989463Y-114478918D01*
X197257252Y-114299987D01*
X197484987Y-114072252D01*
X197663918Y-113804463D01*
X197787168Y-113506912D01*
X197850000Y-113191033D01*
X197850000Y-112868967D01*
X197787168Y-112553088D01*
X197663918Y-112255537D01*
X197484987Y-111987748D01*
X197257252Y-111760013D01*
X196989463Y-111581082D01*
X196691912Y-111457832D01*
X196376033Y-111395000D01*
X196053967Y-111395000D01*
X195738088Y-111457832D01*
X195440537Y-111581082D01*
X195172748Y-111760013D01*
X194945013Y-111987748D01*
X194766082Y-112255537D01*
X194642832Y-112553088D01*
X194580000Y-112868967D01*
X156505072Y-112868967D01*
X156505072Y-112230000D01*
X156492812Y-112105518D01*
X156456502Y-111985820D01*
X156397537Y-111875506D01*
X156318185Y-111778815D01*
X156221494Y-111699463D01*
X156111180Y-111640498D01*
X155991482Y-111604188D01*
X155867000Y-111591928D01*
X154267000Y-111591928D01*
X154142518Y-111604188D01*
X154022820Y-111640498D01*
X153912506Y-111699463D01*
X153815815Y-111778815D01*
X153736463Y-111875506D01*
X153677498Y-111985820D01*
X153641188Y-112105518D01*
X153628928Y-112230000D01*
X122580000Y-112230000D01*
X122580000Y-109721544D01*
X137837000Y-109721544D01*
X137837000Y-109988456D01*
X137889072Y-110250239D01*
X137991215Y-110496833D01*
X138139503Y-110718762D01*
X138328238Y-110907497D01*
X138550167Y-111055785D01*
X138796761Y-111157928D01*
X139058544Y-111210000D01*
X139325456Y-111210000D01*
X139587239Y-111157928D01*
X139833833Y-111055785D01*
X140055762Y-110907497D01*
X140244497Y-110718762D01*
X140392785Y-110496833D01*
X140462000Y-110329734D01*
X140531215Y-110496833D01*
X140679503Y-110718762D01*
X140868238Y-110907497D01*
X141090167Y-111055785D01*
X141336761Y-111157928D01*
X141598544Y-111210000D01*
X141865456Y-111210000D01*
X142127239Y-111157928D01*
X142373833Y-111055785D01*
X142595762Y-110907497D01*
X142784497Y-110718762D01*
X142932785Y-110496833D01*
X143002000Y-110329734D01*
X143071215Y-110496833D01*
X143219503Y-110718762D01*
X143408238Y-110907497D01*
X143630167Y-111055785D01*
X143876761Y-111157928D01*
X144138544Y-111210000D01*
X144405456Y-111210000D01*
X144667239Y-111157928D01*
X144913833Y-111055785D01*
X145135762Y-110907497D01*
X145324497Y-110718762D01*
X145455499Y-110522702D01*
X154253903Y-110522702D01*
X154325486Y-110766671D01*
X154580996Y-110887571D01*
X154855184Y-110956300D01*
X155137512Y-110970217D01*
X155417130Y-110928787D01*
X155683292Y-110833603D01*
X155808514Y-110766671D01*
X155880097Y-110522702D01*
X155067000Y-109709605D01*
X154253903Y-110522702D01*
X145455499Y-110522702D01*
X145472785Y-110496833D01*
X145574928Y-110250239D01*
X145627000Y-109988456D01*
X145627000Y-109721544D01*
X145602926Y-109600512D01*
X153626783Y-109600512D01*
X153668213Y-109880130D01*
X153763397Y-110146292D01*
X153830329Y-110271514D01*
X154074298Y-110343097D01*
X154887395Y-109530000D01*
X155246605Y-109530000D01*
X156059702Y-110343097D01*
X156303671Y-110271514D01*
X156424571Y-110016004D01*
X156493300Y-109741816D01*
X156507217Y-109459488D01*
X156465787Y-109179870D01*
X156370603Y-108913708D01*
X156303671Y-108788486D01*
X156059702Y-108716903D01*
X155246605Y-109530000D01*
X154887395Y-109530000D01*
X154074298Y-108716903D01*
X153830329Y-108788486D01*
X153709429Y-109043996D01*
X153640700Y-109318184D01*
X153626783Y-109600512D01*
X145602926Y-109600512D01*
X145574928Y-109459761D01*
X145472785Y-109213167D01*
X145324497Y-108991238D01*
X145135762Y-108802503D01*
X144913833Y-108654215D01*
X144667239Y-108552072D01*
X144592966Y-108537298D01*
X154253903Y-108537298D01*
X155067000Y-109350395D01*
X155880097Y-108537298D01*
X155808514Y-108293329D01*
X155553004Y-108172429D01*
X155278816Y-108103700D01*
X154996488Y-108089783D01*
X154716870Y-108131213D01*
X154450708Y-108226397D01*
X154325486Y-108293329D01*
X154253903Y-108537298D01*
X144592966Y-108537298D01*
X144405456Y-108500000D01*
X144138544Y-108500000D01*
X143876761Y-108552072D01*
X143630167Y-108654215D01*
X143408238Y-108802503D01*
X143219503Y-108991238D01*
X143071215Y-109213167D01*
X143002000Y-109380266D01*
X142932785Y-109213167D01*
X142784497Y-108991238D01*
X142595762Y-108802503D01*
X142373833Y-108654215D01*
X142127239Y-108552072D01*
X141865456Y-108500000D01*
X141598544Y-108500000D01*
X141336761Y-108552072D01*
X141090167Y-108654215D01*
X140868238Y-108802503D01*
X140679503Y-108991238D01*
X140531215Y-109213167D01*
X140462000Y-109380266D01*
X140392785Y-109213167D01*
X140244497Y-108991238D01*
X140055762Y-108802503D01*
X139833833Y-108654215D01*
X139587239Y-108552072D01*
X139325456Y-108500000D01*
X139058544Y-108500000D01*
X138796761Y-108552072D01*
X138550167Y-108654215D01*
X138328238Y-108802503D01*
X138139503Y-108991238D01*
X137991215Y-109213167D01*
X137889072Y-109459761D01*
X137837000Y-109721544D01*
X122580000Y-109721544D01*
X122580000Y-100109872D01*
X124003000Y-100109872D01*
X124003000Y-100550128D01*
X124088890Y-100981925D01*
X124257369Y-101388669D01*
X124501962Y-101754729D01*
X124813271Y-102066038D01*
X125179331Y-102310631D01*
X125586075Y-102479110D01*
X126017872Y-102565000D01*
X126458128Y-102565000D01*
X126889925Y-102479110D01*
X127296669Y-102310631D01*
X127662729Y-102066038D01*
X127974038Y-101754729D01*
X128218631Y-101388669D01*
X128387110Y-100981925D01*
X128473000Y-100550128D01*
X128473000Y-100109872D01*
X197409000Y-100109872D01*
X197409000Y-100550128D01*
X197494890Y-100981925D01*
X197663369Y-101388669D01*
X197907962Y-101754729D01*
X198219271Y-102066038D01*
X198585331Y-102310631D01*
X198992075Y-102479110D01*
X199423872Y-102565000D01*
X199864128Y-102565000D01*
X200295925Y-102479110D01*
X200702669Y-102310631D01*
X201068729Y-102066038D01*
X201380038Y-101754729D01*
X201624631Y-101388669D01*
X201793110Y-100981925D01*
X201879000Y-100550128D01*
X201879000Y-100109872D01*
X201793110Y-99678075D01*
X201624631Y-99271331D01*
X201380038Y-98905271D01*
X201068729Y-98593962D01*
X200702669Y-98349369D01*
X200295925Y-98180890D01*
X199864128Y-98095000D01*
X199423872Y-98095000D01*
X198992075Y-98180890D01*
X198585331Y-98349369D01*
X198219271Y-98593962D01*
X197907962Y-98905271D01*
X197663369Y-99271331D01*
X197494890Y-99678075D01*
X197409000Y-100109872D01*
X128473000Y-100109872D01*
X128387110Y-99678075D01*
X128218631Y-99271331D01*
X127974038Y-98905271D01*
X127662729Y-98593962D01*
X127296669Y-98349369D01*
X126889925Y-98180890D01*
X126458128Y-98095000D01*
X126017872Y-98095000D01*
X125586075Y-98180890D01*
X125179331Y-98349369D01*
X124813271Y-98593962D01*
X124501962Y-98905271D01*
X124257369Y-99271331D01*
X124088890Y-99678075D01*
X124003000Y-100109872D01*
X122580000Y-100109872D01*
X122580000Y-96545000D01*
X203175001Y-96545000D01*
X203175000Y-147295000D01*
G37*
G04 #@! TD.AperFunction*
M02*
