G04 #@! TF.GenerationSoftware,KiCad,Pcbnew,(5.1.10-0-10_14)*
G04 #@! TF.CreationDate,2021-10-31T18:18:55+01:00*
G04 #@! TF.ProjectId,pre-amp-opa627,7072652d-616d-4702-9d6f-70613632372e,rev?*
G04 #@! TF.SameCoordinates,Original*
G04 #@! TF.FileFunction,Legend,Top*
G04 #@! TF.FilePolarity,Positive*
%FSLAX46Y46*%
G04 Gerber Fmt 4.6, Leading zero omitted, Abs format (unit mm)*
G04 Created by KiCad (PCBNEW (5.1.10-0-10_14)) date 2021-10-31 18:18:55*
%MOMM*%
%LPD*%
G01*
G04 APERTURE LIST*
%ADD10C,0.150000*%
%ADD11C,0.120000*%
G04 APERTURE END LIST*
D10*
X196985000Y-122681904D02*
X196937380Y-122777142D01*
X196937380Y-122920000D01*
X196985000Y-123062857D01*
X197080238Y-123158095D01*
X197175476Y-123205714D01*
X197365952Y-123253333D01*
X197508809Y-123253333D01*
X197699285Y-123205714D01*
X197794523Y-123158095D01*
X197889761Y-123062857D01*
X197937380Y-122920000D01*
X197937380Y-122824761D01*
X197889761Y-122681904D01*
X197842142Y-122634285D01*
X197508809Y-122634285D01*
X197508809Y-122824761D01*
X197937380Y-122205714D02*
X196937380Y-122205714D01*
X197937380Y-121634285D01*
X196937380Y-121634285D01*
X197937380Y-121158095D02*
X196937380Y-121158095D01*
X196937380Y-120920000D01*
X196985000Y-120777142D01*
X197080238Y-120681904D01*
X197175476Y-120634285D01*
X197365952Y-120586666D01*
X197508809Y-120586666D01*
X197699285Y-120634285D01*
X197794523Y-120681904D01*
X197889761Y-120777142D01*
X197937380Y-120920000D01*
X197937380Y-121158095D01*
X131170114Y-145283180D02*
X131170114Y-144616514D01*
X131170114Y-144711752D02*
X131217733Y-144664133D01*
X131312971Y-144616514D01*
X131455828Y-144616514D01*
X131551066Y-144664133D01*
X131598685Y-144759371D01*
X131598685Y-145283180D01*
X131598685Y-144759371D02*
X131646304Y-144664133D01*
X131741542Y-144616514D01*
X131884400Y-144616514D01*
X131979638Y-144664133D01*
X132027257Y-144759371D01*
X132027257Y-145283180D01*
X132503447Y-145283180D02*
X132503447Y-144616514D01*
X132503447Y-144283180D02*
X132455828Y-144330800D01*
X132503447Y-144378419D01*
X132551066Y-144330800D01*
X132503447Y-144283180D01*
X132503447Y-144378419D01*
X133408209Y-145235561D02*
X133312971Y-145283180D01*
X133122495Y-145283180D01*
X133027257Y-145235561D01*
X132979638Y-145187942D01*
X132932019Y-145092704D01*
X132932019Y-144806990D01*
X132979638Y-144711752D01*
X133027257Y-144664133D01*
X133122495Y-144616514D01*
X133312971Y-144616514D01*
X133408209Y-144664133D01*
X133836780Y-145283180D02*
X133836780Y-144283180D01*
X134265352Y-145283180D02*
X134265352Y-144759371D01*
X134217733Y-144664133D01*
X134122495Y-144616514D01*
X133979638Y-144616514D01*
X133884400Y-144664133D01*
X133836780Y-144711752D01*
X135170114Y-145283180D02*
X135170114Y-144759371D01*
X135122495Y-144664133D01*
X135027257Y-144616514D01*
X134836780Y-144616514D01*
X134741542Y-144664133D01*
X135170114Y-145235561D02*
X135074876Y-145283180D01*
X134836780Y-145283180D01*
X134741542Y-145235561D01*
X134693923Y-145140323D01*
X134693923Y-145045085D01*
X134741542Y-144949847D01*
X134836780Y-144902228D01*
X135074876Y-144902228D01*
X135170114Y-144854609D01*
X136027257Y-145235561D02*
X135932019Y-145283180D01*
X135741542Y-145283180D01*
X135646304Y-145235561D01*
X135598685Y-145140323D01*
X135598685Y-144759371D01*
X135646304Y-144664133D01*
X135741542Y-144616514D01*
X135932019Y-144616514D01*
X136027257Y-144664133D01*
X136074876Y-144759371D01*
X136074876Y-144854609D01*
X135598685Y-144949847D01*
X136646304Y-145283180D02*
X136551066Y-145235561D01*
X136503447Y-145140323D01*
X136503447Y-144283180D01*
X136979638Y-145235561D02*
X137074876Y-145283180D01*
X137265352Y-145283180D01*
X137360590Y-145235561D01*
X137408209Y-145140323D01*
X137408209Y-145092704D01*
X137360590Y-144997466D01*
X137265352Y-144949847D01*
X137122495Y-144949847D01*
X137027257Y-144902228D01*
X136979638Y-144806990D01*
X136979638Y-144759371D01*
X137027257Y-144664133D01*
X137122495Y-144616514D01*
X137265352Y-144616514D01*
X137360590Y-144664133D01*
X138265352Y-145235561D02*
X138170114Y-145283180D01*
X137979638Y-145283180D01*
X137884400Y-145235561D01*
X137836780Y-145187942D01*
X137789161Y-145092704D01*
X137789161Y-144806990D01*
X137836780Y-144711752D01*
X137884400Y-144664133D01*
X137979638Y-144616514D01*
X138170114Y-144616514D01*
X138265352Y-144664133D01*
X138693923Y-145283180D02*
X138693923Y-144283180D01*
X139122495Y-145283180D02*
X139122495Y-144759371D01*
X139074876Y-144664133D01*
X138979638Y-144616514D01*
X138836780Y-144616514D01*
X138741542Y-144664133D01*
X138693923Y-144711752D01*
X139979638Y-145235561D02*
X139884400Y-145283180D01*
X139693923Y-145283180D01*
X139598685Y-145235561D01*
X139551066Y-145140323D01*
X139551066Y-144759371D01*
X139598685Y-144664133D01*
X139693923Y-144616514D01*
X139884400Y-144616514D01*
X139979638Y-144664133D01*
X140027257Y-144759371D01*
X140027257Y-144854609D01*
X139551066Y-144949847D01*
X140455828Y-144616514D02*
X140455828Y-145283180D01*
X140455828Y-144711752D02*
X140503447Y-144664133D01*
X140598685Y-144616514D01*
X140741542Y-144616514D01*
X140836780Y-144664133D01*
X140884400Y-144759371D01*
X140884400Y-145283180D01*
X141360590Y-145283180D02*
X141360590Y-144283180D01*
X141455828Y-144902228D02*
X141741542Y-145283180D01*
X141741542Y-144616514D02*
X141360590Y-144997466D01*
X142074876Y-144283180D02*
X142741542Y-144283180D01*
X142312971Y-145283180D01*
X143074876Y-144378419D02*
X143122495Y-144330800D01*
X143217733Y-144283180D01*
X143455828Y-144283180D01*
X143551066Y-144330800D01*
X143598685Y-144378419D01*
X143646304Y-144473657D01*
X143646304Y-144568895D01*
X143598685Y-144711752D01*
X143027257Y-145283180D01*
X143646304Y-145283180D01*
X144693923Y-144806990D02*
X144646304Y-144759371D01*
X144551066Y-144711752D01*
X144455828Y-144711752D01*
X144360590Y-144759371D01*
X144312971Y-144806990D01*
X144265352Y-144902228D01*
X144265352Y-144997466D01*
X144312971Y-145092704D01*
X144360590Y-145140323D01*
X144455828Y-145187942D01*
X144551066Y-145187942D01*
X144646304Y-145140323D01*
X144693923Y-145092704D01*
X144693923Y-144711752D02*
X144693923Y-145092704D01*
X144741542Y-145140323D01*
X144789161Y-145140323D01*
X144884400Y-145092704D01*
X144932019Y-144997466D01*
X144932019Y-144759371D01*
X144836780Y-144616514D01*
X144693923Y-144521276D01*
X144503447Y-144473657D01*
X144312971Y-144521276D01*
X144170114Y-144616514D01*
X144074876Y-144759371D01*
X144027257Y-144949847D01*
X144074876Y-145140323D01*
X144170114Y-145283180D01*
X144312971Y-145378419D01*
X144503447Y-145426038D01*
X144693923Y-145378419D01*
X144836780Y-145283180D01*
X145789161Y-144616514D02*
X145789161Y-145426038D01*
X145741542Y-145521276D01*
X145693923Y-145568895D01*
X145598685Y-145616514D01*
X145455828Y-145616514D01*
X145360590Y-145568895D01*
X145789161Y-145235561D02*
X145693923Y-145283180D01*
X145503447Y-145283180D01*
X145408209Y-145235561D01*
X145360590Y-145187942D01*
X145312971Y-145092704D01*
X145312971Y-144806990D01*
X145360590Y-144711752D01*
X145408209Y-144664133D01*
X145503447Y-144616514D01*
X145693923Y-144616514D01*
X145789161Y-144664133D01*
X146265352Y-145283180D02*
X146265352Y-144616514D01*
X146265352Y-144711752D02*
X146312971Y-144664133D01*
X146408209Y-144616514D01*
X146551066Y-144616514D01*
X146646304Y-144664133D01*
X146693923Y-144759371D01*
X146693923Y-145283180D01*
X146693923Y-144759371D02*
X146741542Y-144664133D01*
X146836780Y-144616514D01*
X146979638Y-144616514D01*
X147074876Y-144664133D01*
X147122495Y-144759371D01*
X147122495Y-145283180D01*
X148027257Y-145283180D02*
X148027257Y-144759371D01*
X147979638Y-144664133D01*
X147884400Y-144616514D01*
X147693923Y-144616514D01*
X147598685Y-144664133D01*
X148027257Y-145235561D02*
X147932019Y-145283180D01*
X147693923Y-145283180D01*
X147598685Y-145235561D01*
X147551066Y-145140323D01*
X147551066Y-145045085D01*
X147598685Y-144949847D01*
X147693923Y-144902228D01*
X147932019Y-144902228D01*
X148027257Y-144854609D01*
X148503447Y-145283180D02*
X148503447Y-144616514D01*
X148503447Y-144283180D02*
X148455828Y-144330800D01*
X148503447Y-144378419D01*
X148551066Y-144330800D01*
X148503447Y-144283180D01*
X148503447Y-144378419D01*
X149122495Y-145283180D02*
X149027257Y-145235561D01*
X148979638Y-145140323D01*
X148979638Y-144283180D01*
X149503447Y-145187942D02*
X149551066Y-145235561D01*
X149503447Y-145283180D01*
X149455828Y-145235561D01*
X149503447Y-145187942D01*
X149503447Y-145283180D01*
X150408209Y-145235561D02*
X150312971Y-145283180D01*
X150122495Y-145283180D01*
X150027257Y-145235561D01*
X149979638Y-145187942D01*
X149932019Y-145092704D01*
X149932019Y-144806990D01*
X149979638Y-144711752D01*
X150027257Y-144664133D01*
X150122495Y-144616514D01*
X150312971Y-144616514D01*
X150408209Y-144664133D01*
X150979638Y-145283180D02*
X150884400Y-145235561D01*
X150836780Y-145187942D01*
X150789161Y-145092704D01*
X150789161Y-144806990D01*
X150836780Y-144711752D01*
X150884400Y-144664133D01*
X150979638Y-144616514D01*
X151122495Y-144616514D01*
X151217733Y-144664133D01*
X151265352Y-144711752D01*
X151312971Y-144806990D01*
X151312971Y-145092704D01*
X151265352Y-145187942D01*
X151217733Y-145235561D01*
X151122495Y-145283180D01*
X150979638Y-145283180D01*
X151741542Y-145283180D02*
X151741542Y-144616514D01*
X151741542Y-144711752D02*
X151789161Y-144664133D01*
X151884400Y-144616514D01*
X152027257Y-144616514D01*
X152122495Y-144664133D01*
X152170114Y-144759371D01*
X152170114Y-145283180D01*
X152170114Y-144759371D02*
X152217733Y-144664133D01*
X152312971Y-144616514D01*
X152455828Y-144616514D01*
X152551066Y-144664133D01*
X152598685Y-144759371D01*
X152598685Y-145283180D01*
X169656928Y-101355380D02*
X169656928Y-100355380D01*
X170037880Y-100355380D01*
X170133119Y-100403000D01*
X170180738Y-100450619D01*
X170228357Y-100545857D01*
X170228357Y-100688714D01*
X170180738Y-100783952D01*
X170133119Y-100831571D01*
X170037880Y-100879190D01*
X169656928Y-100879190D01*
X170656928Y-101355380D02*
X170656928Y-100688714D01*
X170656928Y-100879190D02*
X170704547Y-100783952D01*
X170752166Y-100736333D01*
X170847404Y-100688714D01*
X170942642Y-100688714D01*
X171656928Y-101307761D02*
X171561690Y-101355380D01*
X171371214Y-101355380D01*
X171275976Y-101307761D01*
X171228357Y-101212523D01*
X171228357Y-100831571D01*
X171275976Y-100736333D01*
X171371214Y-100688714D01*
X171561690Y-100688714D01*
X171656928Y-100736333D01*
X171704547Y-100831571D01*
X171704547Y-100926809D01*
X171228357Y-101022047D01*
X172133119Y-100974428D02*
X172895023Y-100974428D01*
X173323595Y-101069666D02*
X173799785Y-101069666D01*
X173228357Y-101355380D02*
X173561690Y-100355380D01*
X173895023Y-101355380D01*
X174228357Y-101355380D02*
X174228357Y-100688714D01*
X174228357Y-100783952D02*
X174275976Y-100736333D01*
X174371214Y-100688714D01*
X174514071Y-100688714D01*
X174609309Y-100736333D01*
X174656928Y-100831571D01*
X174656928Y-101355380D01*
X174656928Y-100831571D02*
X174704547Y-100736333D01*
X174799785Y-100688714D01*
X174942642Y-100688714D01*
X175037880Y-100736333D01*
X175085500Y-100831571D01*
X175085500Y-101355380D01*
X175561690Y-100688714D02*
X175561690Y-101688714D01*
X175561690Y-100736333D02*
X175656928Y-100688714D01*
X175847404Y-100688714D01*
X175942642Y-100736333D01*
X175990261Y-100783952D01*
X176037880Y-100879190D01*
X176037880Y-101164904D01*
X175990261Y-101260142D01*
X175942642Y-101307761D01*
X175847404Y-101355380D01*
X175656928Y-101355380D01*
X175561690Y-101307761D01*
X177418833Y-100355380D02*
X177609309Y-100355380D01*
X177704547Y-100403000D01*
X177799785Y-100498238D01*
X177847404Y-100688714D01*
X177847404Y-101022047D01*
X177799785Y-101212523D01*
X177704547Y-101307761D01*
X177609309Y-101355380D01*
X177418833Y-101355380D01*
X177323595Y-101307761D01*
X177228357Y-101212523D01*
X177180738Y-101022047D01*
X177180738Y-100688714D01*
X177228357Y-100498238D01*
X177323595Y-100403000D01*
X177418833Y-100355380D01*
X178275976Y-101355380D02*
X178275976Y-100355380D01*
X178656928Y-100355380D01*
X178752166Y-100403000D01*
X178799785Y-100450619D01*
X178847404Y-100545857D01*
X178847404Y-100688714D01*
X178799785Y-100783952D01*
X178752166Y-100831571D01*
X178656928Y-100879190D01*
X178275976Y-100879190D01*
X179228357Y-101069666D02*
X179704547Y-101069666D01*
X179133119Y-101355380D02*
X179466452Y-100355380D01*
X179799785Y-101355380D01*
X180561690Y-100355380D02*
X180371214Y-100355380D01*
X180275976Y-100403000D01*
X180228357Y-100450619D01*
X180133119Y-100593476D01*
X180085500Y-100783952D01*
X180085500Y-101164904D01*
X180133119Y-101260142D01*
X180180738Y-101307761D01*
X180275976Y-101355380D01*
X180466452Y-101355380D01*
X180561690Y-101307761D01*
X180609309Y-101260142D01*
X180656928Y-101164904D01*
X180656928Y-100926809D01*
X180609309Y-100831571D01*
X180561690Y-100783952D01*
X180466452Y-100736333D01*
X180275976Y-100736333D01*
X180180738Y-100783952D01*
X180133119Y-100831571D01*
X180085500Y-100926809D01*
X181037880Y-100450619D02*
X181085500Y-100403000D01*
X181180738Y-100355380D01*
X181418833Y-100355380D01*
X181514071Y-100403000D01*
X181561690Y-100450619D01*
X181609309Y-100545857D01*
X181609309Y-100641095D01*
X181561690Y-100783952D01*
X180990261Y-101355380D01*
X181609309Y-101355380D01*
X181942642Y-100355380D02*
X182609309Y-100355380D01*
X182180738Y-101355380D01*
X172085500Y-102910142D02*
X172037880Y-102957761D01*
X171895023Y-103005380D01*
X171799785Y-103005380D01*
X171656928Y-102957761D01*
X171561690Y-102862523D01*
X171514071Y-102767285D01*
X171466452Y-102576809D01*
X171466452Y-102433952D01*
X171514071Y-102243476D01*
X171561690Y-102148238D01*
X171656928Y-102053000D01*
X171799785Y-102005380D01*
X171895023Y-102005380D01*
X172037880Y-102053000D01*
X172085500Y-102100619D01*
X172656928Y-103005380D02*
X172561690Y-102957761D01*
X172514071Y-102862523D01*
X172514071Y-102005380D01*
X173466452Y-103005380D02*
X173466452Y-102481571D01*
X173418833Y-102386333D01*
X173323595Y-102338714D01*
X173133119Y-102338714D01*
X173037880Y-102386333D01*
X173466452Y-102957761D02*
X173371214Y-103005380D01*
X173133119Y-103005380D01*
X173037880Y-102957761D01*
X172990261Y-102862523D01*
X172990261Y-102767285D01*
X173037880Y-102672047D01*
X173133119Y-102624428D01*
X173371214Y-102624428D01*
X173466452Y-102576809D01*
X173895023Y-102957761D02*
X173990261Y-103005380D01*
X174180738Y-103005380D01*
X174275976Y-102957761D01*
X174323595Y-102862523D01*
X174323595Y-102814904D01*
X174275976Y-102719666D01*
X174180738Y-102672047D01*
X174037880Y-102672047D01*
X173942642Y-102624428D01*
X173895023Y-102529190D01*
X173895023Y-102481571D01*
X173942642Y-102386333D01*
X174037880Y-102338714D01*
X174180738Y-102338714D01*
X174275976Y-102386333D01*
X174704547Y-102957761D02*
X174799785Y-103005380D01*
X174990261Y-103005380D01*
X175085500Y-102957761D01*
X175133119Y-102862523D01*
X175133119Y-102814904D01*
X175085500Y-102719666D01*
X174990261Y-102672047D01*
X174847404Y-102672047D01*
X174752166Y-102624428D01*
X174704547Y-102529190D01*
X174704547Y-102481571D01*
X174752166Y-102386333D01*
X174847404Y-102338714D01*
X174990261Y-102338714D01*
X175085500Y-102386333D01*
X176275976Y-102719666D02*
X176752166Y-102719666D01*
X176180738Y-103005380D02*
X176514071Y-102005380D01*
X176847404Y-103005380D01*
X178275976Y-102481571D02*
X178418833Y-102529190D01*
X178466452Y-102576809D01*
X178514071Y-102672047D01*
X178514071Y-102814904D01*
X178466452Y-102910142D01*
X178418833Y-102957761D01*
X178323595Y-103005380D01*
X177942642Y-103005380D01*
X177942642Y-102005380D01*
X178275976Y-102005380D01*
X178371214Y-102053000D01*
X178418833Y-102100619D01*
X178466452Y-102195857D01*
X178466452Y-102291095D01*
X178418833Y-102386333D01*
X178371214Y-102433952D01*
X178275976Y-102481571D01*
X177942642Y-102481571D01*
X178942642Y-103005380D02*
X178942642Y-102338714D01*
X178942642Y-102005380D02*
X178895023Y-102053000D01*
X178942642Y-102100619D01*
X178990261Y-102053000D01*
X178942642Y-102005380D01*
X178942642Y-102100619D01*
X179847404Y-103005380D02*
X179847404Y-102481571D01*
X179799785Y-102386333D01*
X179704547Y-102338714D01*
X179514071Y-102338714D01*
X179418833Y-102386333D01*
X179847404Y-102957761D02*
X179752166Y-103005380D01*
X179514071Y-103005380D01*
X179418833Y-102957761D01*
X179371214Y-102862523D01*
X179371214Y-102767285D01*
X179418833Y-102672047D01*
X179514071Y-102624428D01*
X179752166Y-102624428D01*
X179847404Y-102576809D01*
X180275976Y-102957761D02*
X180371214Y-103005380D01*
X180561690Y-103005380D01*
X180656928Y-102957761D01*
X180704547Y-102862523D01*
X180704547Y-102814904D01*
X180656928Y-102719666D01*
X180561690Y-102672047D01*
X180418833Y-102672047D01*
X180323595Y-102624428D01*
X180275976Y-102529190D01*
X180275976Y-102481571D01*
X180323595Y-102386333D01*
X180418833Y-102338714D01*
X180561690Y-102338714D01*
X180656928Y-102386333D01*
X170466452Y-104655380D02*
X170466452Y-103655380D01*
X170799785Y-104369666D01*
X171133119Y-103655380D01*
X171133119Y-104655380D01*
X171609309Y-104655380D02*
X171609309Y-103988714D01*
X171609309Y-103655380D02*
X171561690Y-103703000D01*
X171609309Y-103750619D01*
X171656928Y-103703000D01*
X171609309Y-103655380D01*
X171609309Y-103750619D01*
X172514071Y-104607761D02*
X172418833Y-104655380D01*
X172228357Y-104655380D01*
X172133119Y-104607761D01*
X172085500Y-104560142D01*
X172037880Y-104464904D01*
X172037880Y-104179190D01*
X172085500Y-104083952D01*
X172133119Y-104036333D01*
X172228357Y-103988714D01*
X172418833Y-103988714D01*
X172514071Y-104036333D01*
X172942642Y-104655380D02*
X172942642Y-103655380D01*
X173371214Y-104655380D02*
X173371214Y-104131571D01*
X173323595Y-104036333D01*
X173228357Y-103988714D01*
X173085500Y-103988714D01*
X172990261Y-104036333D01*
X172942642Y-104083952D01*
X174275976Y-104655380D02*
X174275976Y-104131571D01*
X174228357Y-104036333D01*
X174133119Y-103988714D01*
X173942642Y-103988714D01*
X173847404Y-104036333D01*
X174275976Y-104607761D02*
X174180738Y-104655380D01*
X173942642Y-104655380D01*
X173847404Y-104607761D01*
X173799785Y-104512523D01*
X173799785Y-104417285D01*
X173847404Y-104322047D01*
X173942642Y-104274428D01*
X174180738Y-104274428D01*
X174275976Y-104226809D01*
X175133119Y-104607761D02*
X175037880Y-104655380D01*
X174847404Y-104655380D01*
X174752166Y-104607761D01*
X174704547Y-104512523D01*
X174704547Y-104131571D01*
X174752166Y-104036333D01*
X174847404Y-103988714D01*
X175037880Y-103988714D01*
X175133119Y-104036333D01*
X175180738Y-104131571D01*
X175180738Y-104226809D01*
X174704547Y-104322047D01*
X175752166Y-104655380D02*
X175656928Y-104607761D01*
X175609309Y-104512523D01*
X175609309Y-103655380D01*
X176847404Y-104607761D02*
X176990261Y-104655380D01*
X177228357Y-104655380D01*
X177323595Y-104607761D01*
X177371214Y-104560142D01*
X177418833Y-104464904D01*
X177418833Y-104369666D01*
X177371214Y-104274428D01*
X177323595Y-104226809D01*
X177228357Y-104179190D01*
X177037880Y-104131571D01*
X176942642Y-104083952D01*
X176895023Y-104036333D01*
X176847404Y-103941095D01*
X176847404Y-103845857D01*
X176895023Y-103750619D01*
X176942642Y-103703000D01*
X177037880Y-103655380D01*
X177275976Y-103655380D01*
X177418833Y-103703000D01*
X178275976Y-104607761D02*
X178180738Y-104655380D01*
X177990261Y-104655380D01*
X177895023Y-104607761D01*
X177847404Y-104560142D01*
X177799785Y-104464904D01*
X177799785Y-104179190D01*
X177847404Y-104083952D01*
X177895023Y-104036333D01*
X177990261Y-103988714D01*
X178180738Y-103988714D01*
X178275976Y-104036333D01*
X178704547Y-104655380D02*
X178704547Y-103655380D01*
X179133119Y-104655380D02*
X179133119Y-104131571D01*
X179085500Y-104036333D01*
X178990261Y-103988714D01*
X178847404Y-103988714D01*
X178752166Y-104036333D01*
X178704547Y-104083952D01*
X179990261Y-104607761D02*
X179895023Y-104655380D01*
X179704547Y-104655380D01*
X179609309Y-104607761D01*
X179561690Y-104512523D01*
X179561690Y-104131571D01*
X179609309Y-104036333D01*
X179704547Y-103988714D01*
X179895023Y-103988714D01*
X179990261Y-104036333D01*
X180037880Y-104131571D01*
X180037880Y-104226809D01*
X179561690Y-104322047D01*
X180466452Y-103988714D02*
X180466452Y-104655380D01*
X180466452Y-104083952D02*
X180514071Y-104036333D01*
X180609309Y-103988714D01*
X180752166Y-103988714D01*
X180847404Y-104036333D01*
X180895023Y-104131571D01*
X180895023Y-104655380D01*
X181371214Y-104655380D02*
X181371214Y-103655380D01*
X181466452Y-104274428D02*
X181752166Y-104655380D01*
X181752166Y-103988714D02*
X181371214Y-104369666D01*
X171990261Y-105400619D02*
X172037880Y-105353000D01*
X172133119Y-105305380D01*
X172371214Y-105305380D01*
X172466452Y-105353000D01*
X172514071Y-105400619D01*
X172561690Y-105495857D01*
X172561690Y-105591095D01*
X172514071Y-105733952D01*
X171942642Y-106305380D01*
X172561690Y-106305380D01*
X173180738Y-105305380D02*
X173275976Y-105305380D01*
X173371214Y-105353000D01*
X173418833Y-105400619D01*
X173466452Y-105495857D01*
X173514071Y-105686333D01*
X173514071Y-105924428D01*
X173466452Y-106114904D01*
X173418833Y-106210142D01*
X173371214Y-106257761D01*
X173275976Y-106305380D01*
X173180738Y-106305380D01*
X173085500Y-106257761D01*
X173037880Y-106210142D01*
X172990261Y-106114904D01*
X172942642Y-105924428D01*
X172942642Y-105686333D01*
X172990261Y-105495857D01*
X173037880Y-105400619D01*
X173085500Y-105353000D01*
X173180738Y-105305380D01*
X173895023Y-105400619D02*
X173942642Y-105353000D01*
X174037880Y-105305380D01*
X174275976Y-105305380D01*
X174371214Y-105353000D01*
X174418833Y-105400619D01*
X174466452Y-105495857D01*
X174466452Y-105591095D01*
X174418833Y-105733952D01*
X173847404Y-106305380D01*
X174466452Y-106305380D01*
X175418833Y-106305380D02*
X174847404Y-106305380D01*
X175133119Y-106305380D02*
X175133119Y-105305380D01*
X175037880Y-105448238D01*
X174942642Y-105543476D01*
X174847404Y-105591095D01*
X175847404Y-106210142D02*
X175895023Y-106257761D01*
X175847404Y-106305380D01*
X175799785Y-106257761D01*
X175847404Y-106210142D01*
X175847404Y-106305380D01*
X176847404Y-106305380D02*
X176275976Y-106305380D01*
X176561690Y-106305380D02*
X176561690Y-105305380D01*
X176466452Y-105448238D01*
X176371214Y-105543476D01*
X176275976Y-105591095D01*
X177466452Y-105305380D02*
X177561690Y-105305380D01*
X177656928Y-105353000D01*
X177704547Y-105400619D01*
X177752166Y-105495857D01*
X177799785Y-105686333D01*
X177799785Y-105924428D01*
X177752166Y-106114904D01*
X177704547Y-106210142D01*
X177656928Y-106257761D01*
X177561690Y-106305380D01*
X177466452Y-106305380D01*
X177371214Y-106257761D01*
X177323595Y-106210142D01*
X177275976Y-106114904D01*
X177228357Y-105924428D01*
X177228357Y-105686333D01*
X177275976Y-105495857D01*
X177323595Y-105400619D01*
X177371214Y-105353000D01*
X177466452Y-105305380D01*
X178228357Y-106210142D02*
X178275976Y-106257761D01*
X178228357Y-106305380D01*
X178180738Y-106257761D01*
X178228357Y-106210142D01*
X178228357Y-106305380D01*
X178609309Y-105305380D02*
X179228357Y-105305380D01*
X178895023Y-105686333D01*
X179037880Y-105686333D01*
X179133119Y-105733952D01*
X179180738Y-105781571D01*
X179228357Y-105876809D01*
X179228357Y-106114904D01*
X179180738Y-106210142D01*
X179133119Y-106257761D01*
X179037880Y-106305380D01*
X178752166Y-106305380D01*
X178656928Y-106257761D01*
X178609309Y-106210142D01*
X180180738Y-106305380D02*
X179609309Y-106305380D01*
X179895023Y-106305380D02*
X179895023Y-105305380D01*
X179799785Y-105448238D01*
X179704547Y-105543476D01*
X179609309Y-105591095D01*
X160155000Y-125348904D02*
X160107380Y-125444142D01*
X160107380Y-125587000D01*
X160155000Y-125729857D01*
X160250238Y-125825095D01*
X160345476Y-125872714D01*
X160535952Y-125920333D01*
X160678809Y-125920333D01*
X160869285Y-125872714D01*
X160964523Y-125825095D01*
X161059761Y-125729857D01*
X161107380Y-125587000D01*
X161107380Y-125491761D01*
X161059761Y-125348904D01*
X161012142Y-125301285D01*
X160678809Y-125301285D01*
X160678809Y-125491761D01*
X161107380Y-124872714D02*
X160107380Y-124872714D01*
X161107380Y-124301285D01*
X160107380Y-124301285D01*
X161107380Y-123825095D02*
X160107380Y-123825095D01*
X160107380Y-123587000D01*
X160155000Y-123444142D01*
X160250238Y-123348904D01*
X160345476Y-123301285D01*
X160535952Y-123253666D01*
X160678809Y-123253666D01*
X160869285Y-123301285D01*
X160964523Y-123348904D01*
X161059761Y-123444142D01*
X161107380Y-123587000D01*
X161107380Y-123825095D01*
X160107380Y-120570500D02*
X160107380Y-120380023D01*
X160155000Y-120284785D01*
X160250238Y-120189547D01*
X160440714Y-120141928D01*
X160774047Y-120141928D01*
X160964523Y-120189547D01*
X161059761Y-120284785D01*
X161107380Y-120380023D01*
X161107380Y-120570500D01*
X161059761Y-120665738D01*
X160964523Y-120760976D01*
X160774047Y-120808595D01*
X160440714Y-120808595D01*
X160250238Y-120760976D01*
X160155000Y-120665738D01*
X160107380Y-120570500D01*
X160107380Y-119713357D02*
X160916904Y-119713357D01*
X161012142Y-119665738D01*
X161059761Y-119618119D01*
X161107380Y-119522880D01*
X161107380Y-119332404D01*
X161059761Y-119237166D01*
X161012142Y-119189547D01*
X160916904Y-119141928D01*
X160107380Y-119141928D01*
X160107380Y-118808595D02*
X160107380Y-118237166D01*
X161107380Y-118522880D02*
X160107380Y-118522880D01*
X124236100Y-123850495D02*
X124283719Y-123755257D01*
X124283719Y-123612400D01*
X124236100Y-123469542D01*
X124140861Y-123374304D01*
X124045623Y-123326685D01*
X123855147Y-123279066D01*
X123712290Y-123279066D01*
X123521814Y-123326685D01*
X123426576Y-123374304D01*
X123331338Y-123469542D01*
X123283719Y-123612400D01*
X123283719Y-123707638D01*
X123331338Y-123850495D01*
X123378957Y-123898114D01*
X123712290Y-123898114D01*
X123712290Y-123707638D01*
X123283719Y-124326685D02*
X124283719Y-124326685D01*
X123283719Y-124898114D01*
X124283719Y-124898114D01*
X123283719Y-125374304D02*
X124283719Y-125374304D01*
X124283719Y-125612400D01*
X124236100Y-125755257D01*
X124140861Y-125850495D01*
X124045623Y-125898114D01*
X123855147Y-125945733D01*
X123712290Y-125945733D01*
X123521814Y-125898114D01*
X123426576Y-125850495D01*
X123331338Y-125755257D01*
X123283719Y-125612400D01*
X123283719Y-125374304D01*
X123283719Y-119059390D02*
X124283719Y-119059390D01*
X123283719Y-119535580D02*
X124283719Y-119535580D01*
X123283719Y-120107009D01*
X124283719Y-120107009D01*
X198826428Y-132571904D02*
X198826428Y-131810000D01*
X199207380Y-130810000D02*
X199207380Y-131381428D01*
X199207380Y-131095714D02*
X198207380Y-131095714D01*
X198350238Y-131190952D01*
X198445476Y-131286190D01*
X198493095Y-131381428D01*
X198207380Y-129905238D02*
X198207380Y-130381428D01*
X198683571Y-130429047D01*
X198635952Y-130381428D01*
X198588333Y-130286190D01*
X198588333Y-130048095D01*
X198635952Y-129952857D01*
X198683571Y-129905238D01*
X198778809Y-129857619D01*
X199016904Y-129857619D01*
X199112142Y-129905238D01*
X199159761Y-129952857D01*
X199207380Y-130048095D01*
X199207380Y-130286190D01*
X199159761Y-130381428D01*
X199112142Y-130429047D01*
X198207380Y-129571904D02*
X199207380Y-129238571D01*
X198207380Y-128905238D01*
X198826428Y-114791904D02*
X198826428Y-114030000D01*
X199207380Y-114410952D02*
X198445476Y-114410952D01*
X199207380Y-113030000D02*
X199207380Y-113601428D01*
X199207380Y-113315714D02*
X198207380Y-113315714D01*
X198350238Y-113410952D01*
X198445476Y-113506190D01*
X198493095Y-113601428D01*
X198207380Y-112125238D02*
X198207380Y-112601428D01*
X198683571Y-112649047D01*
X198635952Y-112601428D01*
X198588333Y-112506190D01*
X198588333Y-112268095D01*
X198635952Y-112172857D01*
X198683571Y-112125238D01*
X198778809Y-112077619D01*
X199016904Y-112077619D01*
X199112142Y-112125238D01*
X199159761Y-112172857D01*
X199207380Y-112268095D01*
X199207380Y-112506190D01*
X199159761Y-112601428D01*
X199112142Y-112649047D01*
X198207380Y-111791904D02*
X199207380Y-111458571D01*
X198207380Y-111125238D01*
D11*
X155230500Y-124089936D02*
X155230500Y-124544064D01*
X153760500Y-124089936D02*
X153760500Y-124544064D01*
X147871500Y-124458500D02*
X147871500Y-126408500D01*
X147871500Y-124458500D02*
X147871500Y-122508500D01*
X152991500Y-124458500D02*
X152991500Y-126408500D01*
X152991500Y-124458500D02*
X152991500Y-121008500D01*
X146617000Y-112385000D02*
X136847000Y-112385000D01*
X146617000Y-107315000D02*
X136847000Y-107315000D01*
X146617000Y-112385000D02*
X146617000Y-107315000D01*
X136847000Y-112385000D02*
X136847000Y-107315000D01*
X142229064Y-120305500D02*
X141774936Y-120305500D01*
X142229064Y-118835500D02*
X141774936Y-118835500D01*
X134154936Y-116295500D02*
X134609064Y-116295500D01*
X134154936Y-117765500D02*
X134609064Y-117765500D01*
X140986000Y-113160500D02*
X139336000Y-113160500D01*
X139336000Y-113160500D02*
X139336000Y-123440500D01*
X139336000Y-123440500D02*
X144636000Y-123440500D01*
X144636000Y-123440500D02*
X144636000Y-113160500D01*
X144636000Y-113160500D02*
X142986000Y-113160500D01*
X136846000Y-113100500D02*
X136846000Y-123500500D01*
X136846000Y-123500500D02*
X147126000Y-123500500D01*
X147126000Y-123500500D02*
X147126000Y-113100500D01*
X147126000Y-113100500D02*
X136846000Y-113100500D01*
X142986000Y-113160500D02*
G75*
G02*
X140986000Y-113160500I-1000000J0D01*
G01*
X141746248Y-116295500D02*
X142268752Y-116295500D01*
X141746248Y-117765500D02*
X142268752Y-117765500D01*
X141112500Y-136379198D02*
X141912500Y-136379198D01*
X141512500Y-136779198D02*
X141512500Y-135979198D01*
X143294500Y-128288500D02*
X144360500Y-128288500D01*
X143059500Y-128328500D02*
X144595500Y-128328500D01*
X142879500Y-128368500D02*
X144775500Y-128368500D01*
X142729500Y-128408500D02*
X144925500Y-128408500D01*
X142598500Y-128448500D02*
X145056500Y-128448500D01*
X142481500Y-128488500D02*
X145173500Y-128488500D01*
X142374500Y-128528500D02*
X145280500Y-128528500D01*
X142275500Y-128568500D02*
X145379500Y-128568500D01*
X142182500Y-128608500D02*
X145472500Y-128608500D01*
X142096500Y-128648500D02*
X145558500Y-128648500D01*
X142014500Y-128688500D02*
X145640500Y-128688500D01*
X141937500Y-128728500D02*
X145717500Y-128728500D01*
X141863500Y-128768500D02*
X145791500Y-128768500D01*
X141793500Y-128808500D02*
X145861500Y-128808500D01*
X141725500Y-128848500D02*
X145929500Y-128848500D01*
X141661500Y-128888500D02*
X145993500Y-128888500D01*
X141599500Y-128928500D02*
X146055500Y-128928500D01*
X141540500Y-128968500D02*
X146114500Y-128968500D01*
X141482500Y-129008500D02*
X146172500Y-129008500D01*
X141427500Y-129048500D02*
X146227500Y-129048500D01*
X141373500Y-129088500D02*
X146281500Y-129088500D01*
X141322500Y-129128500D02*
X146332500Y-129128500D01*
X141271500Y-129168500D02*
X146383500Y-129168500D01*
X141223500Y-129208500D02*
X146431500Y-129208500D01*
X141176500Y-129248500D02*
X146478500Y-129248500D01*
X141130500Y-129288500D02*
X146524500Y-129288500D01*
X141086500Y-129328500D02*
X146568500Y-129328500D01*
X141043500Y-129368500D02*
X146611500Y-129368500D01*
X141001500Y-129408500D02*
X146653500Y-129408500D01*
X140960500Y-129448500D02*
X146694500Y-129448500D01*
X140920500Y-129488500D02*
X146734500Y-129488500D01*
X140882500Y-129528500D02*
X146772500Y-129528500D01*
X140844500Y-129568500D02*
X146810500Y-129568500D01*
X144867500Y-129608500D02*
X146846500Y-129608500D01*
X140808500Y-129608500D02*
X142787500Y-129608500D01*
X144867500Y-129648500D02*
X146882500Y-129648500D01*
X140772500Y-129648500D02*
X142787500Y-129648500D01*
X144867500Y-129688500D02*
X146917500Y-129688500D01*
X140737500Y-129688500D02*
X142787500Y-129688500D01*
X144867500Y-129728500D02*
X146951500Y-129728500D01*
X140703500Y-129728500D02*
X142787500Y-129728500D01*
X144867500Y-129768500D02*
X146983500Y-129768500D01*
X140671500Y-129768500D02*
X142787500Y-129768500D01*
X144867500Y-129808500D02*
X147016500Y-129808500D01*
X140638500Y-129808500D02*
X142787500Y-129808500D01*
X144867500Y-129848500D02*
X147047500Y-129848500D01*
X140607500Y-129848500D02*
X142787500Y-129848500D01*
X144867500Y-129888500D02*
X147077500Y-129888500D01*
X140577500Y-129888500D02*
X142787500Y-129888500D01*
X144867500Y-129928500D02*
X147107500Y-129928500D01*
X140547500Y-129928500D02*
X142787500Y-129928500D01*
X144867500Y-129968500D02*
X147136500Y-129968500D01*
X140518500Y-129968500D02*
X142787500Y-129968500D01*
X144867500Y-130008500D02*
X147165500Y-130008500D01*
X140489500Y-130008500D02*
X142787500Y-130008500D01*
X144867500Y-130048500D02*
X147192500Y-130048500D01*
X140462500Y-130048500D02*
X142787500Y-130048500D01*
X144867500Y-130088500D02*
X147219500Y-130088500D01*
X140435500Y-130088500D02*
X142787500Y-130088500D01*
X144867500Y-130128500D02*
X147245500Y-130128500D01*
X140409500Y-130128500D02*
X142787500Y-130128500D01*
X144867500Y-130168500D02*
X147271500Y-130168500D01*
X140383500Y-130168500D02*
X142787500Y-130168500D01*
X144867500Y-130208500D02*
X147296500Y-130208500D01*
X140358500Y-130208500D02*
X142787500Y-130208500D01*
X144867500Y-130248500D02*
X147320500Y-130248500D01*
X140334500Y-130248500D02*
X142787500Y-130248500D01*
X144867500Y-130288500D02*
X147344500Y-130288500D01*
X140310500Y-130288500D02*
X142787500Y-130288500D01*
X144867500Y-130328500D02*
X147367500Y-130328500D01*
X140287500Y-130328500D02*
X142787500Y-130328500D01*
X144867500Y-130368500D02*
X147389500Y-130368500D01*
X140265500Y-130368500D02*
X142787500Y-130368500D01*
X144867500Y-130408500D02*
X147411500Y-130408500D01*
X140243500Y-130408500D02*
X142787500Y-130408500D01*
X144867500Y-130448500D02*
X147433500Y-130448500D01*
X140221500Y-130448500D02*
X142787500Y-130448500D01*
X144867500Y-130488500D02*
X147454500Y-130488500D01*
X140200500Y-130488500D02*
X142787500Y-130488500D01*
X144867500Y-130528500D02*
X147474500Y-130528500D01*
X140180500Y-130528500D02*
X142787500Y-130528500D01*
X144867500Y-130568500D02*
X147493500Y-130568500D01*
X140161500Y-130568500D02*
X142787500Y-130568500D01*
X144867500Y-130608500D02*
X147513500Y-130608500D01*
X140141500Y-130608500D02*
X142787500Y-130608500D01*
X144867500Y-130648500D02*
X147531500Y-130648500D01*
X140123500Y-130648500D02*
X142787500Y-130648500D01*
X144867500Y-130688500D02*
X147549500Y-130688500D01*
X140105500Y-130688500D02*
X142787500Y-130688500D01*
X144867500Y-130728500D02*
X147567500Y-130728500D01*
X140087500Y-130728500D02*
X142787500Y-130728500D01*
X144867500Y-130768500D02*
X147584500Y-130768500D01*
X140070500Y-130768500D02*
X142787500Y-130768500D01*
X144867500Y-130808500D02*
X147601500Y-130808500D01*
X140053500Y-130808500D02*
X142787500Y-130808500D01*
X144867500Y-130848500D02*
X147617500Y-130848500D01*
X140037500Y-130848500D02*
X142787500Y-130848500D01*
X144867500Y-130888500D02*
X147632500Y-130888500D01*
X140022500Y-130888500D02*
X142787500Y-130888500D01*
X144867500Y-130928500D02*
X147648500Y-130928500D01*
X140006500Y-130928500D02*
X142787500Y-130928500D01*
X144867500Y-130968500D02*
X147662500Y-130968500D01*
X139992500Y-130968500D02*
X142787500Y-130968500D01*
X144867500Y-131008500D02*
X147677500Y-131008500D01*
X139977500Y-131008500D02*
X142787500Y-131008500D01*
X144867500Y-131048500D02*
X147690500Y-131048500D01*
X139964500Y-131048500D02*
X142787500Y-131048500D01*
X144867500Y-131088500D02*
X147704500Y-131088500D01*
X139950500Y-131088500D02*
X142787500Y-131088500D01*
X144867500Y-131128500D02*
X147716500Y-131128500D01*
X139938500Y-131128500D02*
X142787500Y-131128500D01*
X144867500Y-131168500D02*
X147729500Y-131168500D01*
X139925500Y-131168500D02*
X142787500Y-131168500D01*
X144867500Y-131208500D02*
X147741500Y-131208500D01*
X139913500Y-131208500D02*
X142787500Y-131208500D01*
X144867500Y-131248500D02*
X147752500Y-131248500D01*
X139902500Y-131248500D02*
X142787500Y-131248500D01*
X144867500Y-131288500D02*
X147763500Y-131288500D01*
X139891500Y-131288500D02*
X142787500Y-131288500D01*
X144867500Y-131328500D02*
X147774500Y-131328500D01*
X139880500Y-131328500D02*
X142787500Y-131328500D01*
X144867500Y-131368500D02*
X147784500Y-131368500D01*
X139870500Y-131368500D02*
X142787500Y-131368500D01*
X144867500Y-131408500D02*
X147794500Y-131408500D01*
X139860500Y-131408500D02*
X142787500Y-131408500D01*
X144867500Y-131448500D02*
X147803500Y-131448500D01*
X139851500Y-131448500D02*
X142787500Y-131448500D01*
X144867500Y-131488500D02*
X147812500Y-131488500D01*
X139842500Y-131488500D02*
X142787500Y-131488500D01*
X144867500Y-131528500D02*
X147821500Y-131528500D01*
X139833500Y-131528500D02*
X142787500Y-131528500D01*
X144867500Y-131568500D02*
X147829500Y-131568500D01*
X139825500Y-131568500D02*
X142787500Y-131568500D01*
X144867500Y-131608500D02*
X147837500Y-131608500D01*
X139817500Y-131608500D02*
X142787500Y-131608500D01*
X144867500Y-131648500D02*
X147844500Y-131648500D01*
X139810500Y-131648500D02*
X142787500Y-131648500D01*
X139803500Y-131689500D02*
X147851500Y-131689500D01*
X139797500Y-131729500D02*
X147857500Y-131729500D01*
X139790500Y-131769500D02*
X147864500Y-131769500D01*
X139785500Y-131809500D02*
X147869500Y-131809500D01*
X139779500Y-131849500D02*
X147875500Y-131849500D01*
X139775500Y-131889500D02*
X147879500Y-131889500D01*
X139770500Y-131929500D02*
X147884500Y-131929500D01*
X139766500Y-131969500D02*
X147888500Y-131969500D01*
X139762500Y-132009500D02*
X147892500Y-132009500D01*
X139759500Y-132049500D02*
X147895500Y-132049500D01*
X139756500Y-132089500D02*
X147898500Y-132089500D01*
X139753500Y-132129500D02*
X147901500Y-132129500D01*
X139751500Y-132169500D02*
X147903500Y-132169500D01*
X139750500Y-132209500D02*
X147904500Y-132209500D01*
X139748500Y-132249500D02*
X147906500Y-132249500D01*
X139747500Y-132289500D02*
X147907500Y-132289500D01*
X139747500Y-132329500D02*
X147907500Y-132329500D01*
X139747500Y-132369500D02*
X147907500Y-132369500D01*
X147947500Y-132369500D02*
G75*
G03*
X147947500Y-132369500I-4120000J0D01*
G01*
X152352000Y-115289698D02*
X153152000Y-115289698D01*
X152752000Y-115689698D02*
X152752000Y-114889698D01*
X154534000Y-107199000D02*
X155600000Y-107199000D01*
X154299000Y-107239000D02*
X155835000Y-107239000D01*
X154119000Y-107279000D02*
X156015000Y-107279000D01*
X153969000Y-107319000D02*
X156165000Y-107319000D01*
X153838000Y-107359000D02*
X156296000Y-107359000D01*
X153721000Y-107399000D02*
X156413000Y-107399000D01*
X153614000Y-107439000D02*
X156520000Y-107439000D01*
X153515000Y-107479000D02*
X156619000Y-107479000D01*
X153422000Y-107519000D02*
X156712000Y-107519000D01*
X153336000Y-107559000D02*
X156798000Y-107559000D01*
X153254000Y-107599000D02*
X156880000Y-107599000D01*
X153177000Y-107639000D02*
X156957000Y-107639000D01*
X153103000Y-107679000D02*
X157031000Y-107679000D01*
X153033000Y-107719000D02*
X157101000Y-107719000D01*
X152965000Y-107759000D02*
X157169000Y-107759000D01*
X152901000Y-107799000D02*
X157233000Y-107799000D01*
X152839000Y-107839000D02*
X157295000Y-107839000D01*
X152780000Y-107879000D02*
X157354000Y-107879000D01*
X152722000Y-107919000D02*
X157412000Y-107919000D01*
X152667000Y-107959000D02*
X157467000Y-107959000D01*
X152613000Y-107999000D02*
X157521000Y-107999000D01*
X152562000Y-108039000D02*
X157572000Y-108039000D01*
X152511000Y-108079000D02*
X157623000Y-108079000D01*
X152463000Y-108119000D02*
X157671000Y-108119000D01*
X152416000Y-108159000D02*
X157718000Y-108159000D01*
X152370000Y-108199000D02*
X157764000Y-108199000D01*
X152326000Y-108239000D02*
X157808000Y-108239000D01*
X152283000Y-108279000D02*
X157851000Y-108279000D01*
X152241000Y-108319000D02*
X157893000Y-108319000D01*
X152200000Y-108359000D02*
X157934000Y-108359000D01*
X152160000Y-108399000D02*
X157974000Y-108399000D01*
X152122000Y-108439000D02*
X158012000Y-108439000D01*
X152084000Y-108479000D02*
X158050000Y-108479000D01*
X156107000Y-108519000D02*
X158086000Y-108519000D01*
X152048000Y-108519000D02*
X154027000Y-108519000D01*
X156107000Y-108559000D02*
X158122000Y-108559000D01*
X152012000Y-108559000D02*
X154027000Y-108559000D01*
X156107000Y-108599000D02*
X158157000Y-108599000D01*
X151977000Y-108599000D02*
X154027000Y-108599000D01*
X156107000Y-108639000D02*
X158191000Y-108639000D01*
X151943000Y-108639000D02*
X154027000Y-108639000D01*
X156107000Y-108679000D02*
X158223000Y-108679000D01*
X151911000Y-108679000D02*
X154027000Y-108679000D01*
X156107000Y-108719000D02*
X158256000Y-108719000D01*
X151878000Y-108719000D02*
X154027000Y-108719000D01*
X156107000Y-108759000D02*
X158287000Y-108759000D01*
X151847000Y-108759000D02*
X154027000Y-108759000D01*
X156107000Y-108799000D02*
X158317000Y-108799000D01*
X151817000Y-108799000D02*
X154027000Y-108799000D01*
X156107000Y-108839000D02*
X158347000Y-108839000D01*
X151787000Y-108839000D02*
X154027000Y-108839000D01*
X156107000Y-108879000D02*
X158376000Y-108879000D01*
X151758000Y-108879000D02*
X154027000Y-108879000D01*
X156107000Y-108919000D02*
X158405000Y-108919000D01*
X151729000Y-108919000D02*
X154027000Y-108919000D01*
X156107000Y-108959000D02*
X158432000Y-108959000D01*
X151702000Y-108959000D02*
X154027000Y-108959000D01*
X156107000Y-108999000D02*
X158459000Y-108999000D01*
X151675000Y-108999000D02*
X154027000Y-108999000D01*
X156107000Y-109039000D02*
X158485000Y-109039000D01*
X151649000Y-109039000D02*
X154027000Y-109039000D01*
X156107000Y-109079000D02*
X158511000Y-109079000D01*
X151623000Y-109079000D02*
X154027000Y-109079000D01*
X156107000Y-109119000D02*
X158536000Y-109119000D01*
X151598000Y-109119000D02*
X154027000Y-109119000D01*
X156107000Y-109159000D02*
X158560000Y-109159000D01*
X151574000Y-109159000D02*
X154027000Y-109159000D01*
X156107000Y-109199000D02*
X158584000Y-109199000D01*
X151550000Y-109199000D02*
X154027000Y-109199000D01*
X156107000Y-109239000D02*
X158607000Y-109239000D01*
X151527000Y-109239000D02*
X154027000Y-109239000D01*
X156107000Y-109279000D02*
X158629000Y-109279000D01*
X151505000Y-109279000D02*
X154027000Y-109279000D01*
X156107000Y-109319000D02*
X158651000Y-109319000D01*
X151483000Y-109319000D02*
X154027000Y-109319000D01*
X156107000Y-109359000D02*
X158673000Y-109359000D01*
X151461000Y-109359000D02*
X154027000Y-109359000D01*
X156107000Y-109399000D02*
X158694000Y-109399000D01*
X151440000Y-109399000D02*
X154027000Y-109399000D01*
X156107000Y-109439000D02*
X158714000Y-109439000D01*
X151420000Y-109439000D02*
X154027000Y-109439000D01*
X156107000Y-109479000D02*
X158733000Y-109479000D01*
X151401000Y-109479000D02*
X154027000Y-109479000D01*
X156107000Y-109519000D02*
X158753000Y-109519000D01*
X151381000Y-109519000D02*
X154027000Y-109519000D01*
X156107000Y-109559000D02*
X158771000Y-109559000D01*
X151363000Y-109559000D02*
X154027000Y-109559000D01*
X156107000Y-109599000D02*
X158789000Y-109599000D01*
X151345000Y-109599000D02*
X154027000Y-109599000D01*
X156107000Y-109639000D02*
X158807000Y-109639000D01*
X151327000Y-109639000D02*
X154027000Y-109639000D01*
X156107000Y-109679000D02*
X158824000Y-109679000D01*
X151310000Y-109679000D02*
X154027000Y-109679000D01*
X156107000Y-109719000D02*
X158841000Y-109719000D01*
X151293000Y-109719000D02*
X154027000Y-109719000D01*
X156107000Y-109759000D02*
X158857000Y-109759000D01*
X151277000Y-109759000D02*
X154027000Y-109759000D01*
X156107000Y-109799000D02*
X158872000Y-109799000D01*
X151262000Y-109799000D02*
X154027000Y-109799000D01*
X156107000Y-109839000D02*
X158888000Y-109839000D01*
X151246000Y-109839000D02*
X154027000Y-109839000D01*
X156107000Y-109879000D02*
X158902000Y-109879000D01*
X151232000Y-109879000D02*
X154027000Y-109879000D01*
X156107000Y-109919000D02*
X158917000Y-109919000D01*
X151217000Y-109919000D02*
X154027000Y-109919000D01*
X156107000Y-109959000D02*
X158930000Y-109959000D01*
X151204000Y-109959000D02*
X154027000Y-109959000D01*
X156107000Y-109999000D02*
X158944000Y-109999000D01*
X151190000Y-109999000D02*
X154027000Y-109999000D01*
X156107000Y-110039000D02*
X158956000Y-110039000D01*
X151178000Y-110039000D02*
X154027000Y-110039000D01*
X156107000Y-110079000D02*
X158969000Y-110079000D01*
X151165000Y-110079000D02*
X154027000Y-110079000D01*
X156107000Y-110119000D02*
X158981000Y-110119000D01*
X151153000Y-110119000D02*
X154027000Y-110119000D01*
X156107000Y-110159000D02*
X158992000Y-110159000D01*
X151142000Y-110159000D02*
X154027000Y-110159000D01*
X156107000Y-110199000D02*
X159003000Y-110199000D01*
X151131000Y-110199000D02*
X154027000Y-110199000D01*
X156107000Y-110239000D02*
X159014000Y-110239000D01*
X151120000Y-110239000D02*
X154027000Y-110239000D01*
X156107000Y-110279000D02*
X159024000Y-110279000D01*
X151110000Y-110279000D02*
X154027000Y-110279000D01*
X156107000Y-110319000D02*
X159034000Y-110319000D01*
X151100000Y-110319000D02*
X154027000Y-110319000D01*
X156107000Y-110359000D02*
X159043000Y-110359000D01*
X151091000Y-110359000D02*
X154027000Y-110359000D01*
X156107000Y-110399000D02*
X159052000Y-110399000D01*
X151082000Y-110399000D02*
X154027000Y-110399000D01*
X156107000Y-110439000D02*
X159061000Y-110439000D01*
X151073000Y-110439000D02*
X154027000Y-110439000D01*
X156107000Y-110479000D02*
X159069000Y-110479000D01*
X151065000Y-110479000D02*
X154027000Y-110479000D01*
X156107000Y-110519000D02*
X159077000Y-110519000D01*
X151057000Y-110519000D02*
X154027000Y-110519000D01*
X156107000Y-110559000D02*
X159084000Y-110559000D01*
X151050000Y-110559000D02*
X154027000Y-110559000D01*
X151043000Y-110600000D02*
X159091000Y-110600000D01*
X151037000Y-110640000D02*
X159097000Y-110640000D01*
X151030000Y-110680000D02*
X159104000Y-110680000D01*
X151025000Y-110720000D02*
X159109000Y-110720000D01*
X151019000Y-110760000D02*
X159115000Y-110760000D01*
X151015000Y-110800000D02*
X159119000Y-110800000D01*
X151010000Y-110840000D02*
X159124000Y-110840000D01*
X151006000Y-110880000D02*
X159128000Y-110880000D01*
X151002000Y-110920000D02*
X159132000Y-110920000D01*
X150999000Y-110960000D02*
X159135000Y-110960000D01*
X150996000Y-111000000D02*
X159138000Y-111000000D01*
X150993000Y-111040000D02*
X159141000Y-111040000D01*
X150991000Y-111080000D02*
X159143000Y-111080000D01*
X150990000Y-111120000D02*
X159144000Y-111120000D01*
X150988000Y-111160000D02*
X159146000Y-111160000D01*
X150987000Y-111200000D02*
X159147000Y-111200000D01*
X150987000Y-111240000D02*
X159147000Y-111240000D01*
X150987000Y-111280000D02*
X159147000Y-111280000D01*
X159187000Y-111280000D02*
G75*
G03*
X159187000Y-111280000I-4120000J0D01*
G01*
X139536000Y-125692248D02*
X139536000Y-127114752D01*
X136816000Y-125692248D02*
X136816000Y-127114752D01*
X150712000Y-114756748D02*
X150712000Y-116179252D01*
X147992000Y-114756748D02*
X147992000Y-116179252D01*
X196005500Y-121920000D02*
G75*
G03*
X196005500Y-121920000I-1251000J0D01*
G01*
X197466000Y-113030000D02*
G75*
G03*
X197466000Y-113030000I-1251000J0D01*
G01*
X197339000Y-130619500D02*
G75*
G03*
X197339000Y-130619500I-1251000J0D01*
G01*
X159175500Y-124587000D02*
G75*
G03*
X159175500Y-124587000I-1251000J0D01*
G01*
X159175500Y-119570500D02*
G75*
G03*
X159175500Y-119570500I-1251000J0D01*
G01*
X127552500Y-124587000D02*
G75*
G03*
X127552500Y-124587000I-1251000J0D01*
G01*
X127552500Y-119570500D02*
G75*
G03*
X127552500Y-119570500I-1251000J0D01*
G01*
X134583500Y-120343436D02*
X134583500Y-120797564D01*
X136053500Y-120343436D02*
X136053500Y-120797564D01*
X149753564Y-118835500D02*
X149299436Y-118835500D01*
X149753564Y-120305500D02*
X149299436Y-120305500D01*
D10*
X154947880Y-127738166D02*
X154471690Y-128071500D01*
X154947880Y-128309595D02*
X153947880Y-128309595D01*
X153947880Y-127928642D01*
X153995500Y-127833404D01*
X154043119Y-127785785D01*
X154138357Y-127738166D01*
X154281214Y-127738166D01*
X154376452Y-127785785D01*
X154424071Y-127833404D01*
X154471690Y-127928642D01*
X154471690Y-128309595D01*
X154281214Y-126881023D02*
X154947880Y-126881023D01*
X153900261Y-127119119D02*
X154614547Y-127357214D01*
X154614547Y-126738166D01*
X149796595Y-128547880D02*
X149796595Y-129357404D01*
X149844214Y-129452642D01*
X149891833Y-129500261D01*
X149987071Y-129547880D01*
X150177547Y-129547880D01*
X150272785Y-129500261D01*
X150320404Y-129452642D01*
X150368023Y-129357404D01*
X150368023Y-128547880D01*
X151368023Y-129547880D02*
X150796595Y-129547880D01*
X151082309Y-129547880D02*
X151082309Y-128547880D01*
X150987071Y-128690738D01*
X150891833Y-128785976D01*
X150796595Y-128833595D01*
X137390261Y-106814880D02*
X137056928Y-106338690D01*
X136818833Y-106814880D02*
X136818833Y-105814880D01*
X137199785Y-105814880D01*
X137295023Y-105862500D01*
X137342642Y-105910119D01*
X137390261Y-106005357D01*
X137390261Y-106148214D01*
X137342642Y-106243452D01*
X137295023Y-106291071D01*
X137199785Y-106338690D01*
X136818833Y-106338690D01*
X137675976Y-105814880D02*
X138009309Y-106814880D01*
X138342642Y-105814880D01*
X139199785Y-106814880D02*
X138628357Y-106814880D01*
X138914071Y-106814880D02*
X138914071Y-105814880D01*
X138818833Y-105957738D01*
X138723595Y-106052976D01*
X138628357Y-106100595D01*
X141835333Y-121672880D02*
X141502000Y-121196690D01*
X141263904Y-121672880D02*
X141263904Y-120672880D01*
X141644857Y-120672880D01*
X141740095Y-120720500D01*
X141787714Y-120768119D01*
X141835333Y-120863357D01*
X141835333Y-121006214D01*
X141787714Y-121101452D01*
X141740095Y-121149071D01*
X141644857Y-121196690D01*
X141263904Y-121196690D01*
X142168666Y-120672880D02*
X142787714Y-120672880D01*
X142454380Y-121053833D01*
X142597238Y-121053833D01*
X142692476Y-121101452D01*
X142740095Y-121149071D01*
X142787714Y-121244309D01*
X142787714Y-121482404D01*
X142740095Y-121577642D01*
X142692476Y-121625261D01*
X142597238Y-121672880D01*
X142311523Y-121672880D01*
X142216285Y-121625261D01*
X142168666Y-121577642D01*
X134215333Y-115832880D02*
X133882000Y-115356690D01*
X133643904Y-115832880D02*
X133643904Y-114832880D01*
X134024857Y-114832880D01*
X134120095Y-114880500D01*
X134167714Y-114928119D01*
X134215333Y-115023357D01*
X134215333Y-115166214D01*
X134167714Y-115261452D01*
X134120095Y-115309071D01*
X134024857Y-115356690D01*
X133643904Y-115356690D01*
X134596285Y-114928119D02*
X134643904Y-114880500D01*
X134739142Y-114832880D01*
X134977238Y-114832880D01*
X135072476Y-114880500D01*
X135120095Y-114928119D01*
X135167714Y-115023357D01*
X135167714Y-115118595D01*
X135120095Y-115261452D01*
X134548666Y-115832880D01*
X135167714Y-115832880D01*
X140946309Y-125166380D02*
X140946309Y-124166380D01*
X141993928Y-125071142D02*
X141946309Y-125118761D01*
X141803452Y-125166380D01*
X141708214Y-125166380D01*
X141565357Y-125118761D01*
X141470119Y-125023523D01*
X141422500Y-124928285D01*
X141374880Y-124737809D01*
X141374880Y-124594952D01*
X141422500Y-124404476D01*
X141470119Y-124309238D01*
X141565357Y-124214000D01*
X141708214Y-124166380D01*
X141803452Y-124166380D01*
X141946309Y-124214000D01*
X141993928Y-124261619D01*
X142946309Y-125166380D02*
X142374880Y-125166380D01*
X142660595Y-125166380D02*
X142660595Y-124166380D01*
X142565357Y-124309238D01*
X142470119Y-124404476D01*
X142374880Y-124452095D01*
X141840833Y-115707642D02*
X141793214Y-115755261D01*
X141650357Y-115802880D01*
X141555119Y-115802880D01*
X141412261Y-115755261D01*
X141317023Y-115660023D01*
X141269404Y-115564785D01*
X141221785Y-115374309D01*
X141221785Y-115231452D01*
X141269404Y-115040976D01*
X141317023Y-114945738D01*
X141412261Y-114850500D01*
X141555119Y-114802880D01*
X141650357Y-114802880D01*
X141793214Y-114850500D01*
X141840833Y-114898119D01*
X142793214Y-115802880D02*
X142221785Y-115802880D01*
X142507500Y-115802880D02*
X142507500Y-114802880D01*
X142412261Y-114945738D01*
X142317023Y-115040976D01*
X142221785Y-115088595D01*
X149518642Y-133040357D02*
X149566261Y-133087976D01*
X149613880Y-133230833D01*
X149613880Y-133326071D01*
X149566261Y-133468928D01*
X149471023Y-133564166D01*
X149375785Y-133611785D01*
X149185309Y-133659404D01*
X149042452Y-133659404D01*
X148851976Y-133611785D01*
X148756738Y-133564166D01*
X148661500Y-133468928D01*
X148613880Y-133326071D01*
X148613880Y-133230833D01*
X148661500Y-133087976D01*
X148709119Y-133040357D01*
X149613880Y-132087976D02*
X149613880Y-132659404D01*
X149613880Y-132373690D02*
X148613880Y-132373690D01*
X148756738Y-132468928D01*
X148851976Y-132564166D01*
X148899595Y-132659404D01*
X148613880Y-131754642D02*
X148613880Y-131087976D01*
X149613880Y-131516547D01*
X160758142Y-111894857D02*
X160805761Y-111942476D01*
X160853380Y-112085333D01*
X160853380Y-112180571D01*
X160805761Y-112323428D01*
X160710523Y-112418666D01*
X160615285Y-112466285D01*
X160424809Y-112513904D01*
X160281952Y-112513904D01*
X160091476Y-112466285D01*
X159996238Y-112418666D01*
X159901000Y-112323428D01*
X159853380Y-112180571D01*
X159853380Y-112085333D01*
X159901000Y-111942476D01*
X159948619Y-111894857D01*
X160853380Y-110942476D02*
X160853380Y-111513904D01*
X160853380Y-111228190D02*
X159853380Y-111228190D01*
X159996238Y-111323428D01*
X160091476Y-111418666D01*
X160139095Y-111513904D01*
X160853380Y-109990095D02*
X160853380Y-110561523D01*
X160853380Y-110275809D02*
X159853380Y-110275809D01*
X159996238Y-110371047D01*
X160091476Y-110466285D01*
X160139095Y-110561523D01*
X136056642Y-126753857D02*
X136104261Y-126801476D01*
X136151880Y-126944333D01*
X136151880Y-127039571D01*
X136104261Y-127182428D01*
X136009023Y-127277666D01*
X135913785Y-127325285D01*
X135723309Y-127372904D01*
X135580452Y-127372904D01*
X135389976Y-127325285D01*
X135294738Y-127277666D01*
X135199500Y-127182428D01*
X135151880Y-127039571D01*
X135151880Y-126944333D01*
X135199500Y-126801476D01*
X135247119Y-126753857D01*
X136151880Y-125801476D02*
X136151880Y-126372904D01*
X136151880Y-126087190D02*
X135151880Y-126087190D01*
X135294738Y-126182428D01*
X135389976Y-126277666D01*
X135437595Y-126372904D01*
X135485214Y-124944333D02*
X136151880Y-124944333D01*
X135104261Y-125182428D02*
X135818547Y-125420523D01*
X135818547Y-124801476D01*
X149645642Y-112021857D02*
X149693261Y-112069476D01*
X149740880Y-112212333D01*
X149740880Y-112307571D01*
X149693261Y-112450428D01*
X149598023Y-112545666D01*
X149502785Y-112593285D01*
X149312309Y-112640904D01*
X149169452Y-112640904D01*
X148978976Y-112593285D01*
X148883738Y-112545666D01*
X148788500Y-112450428D01*
X148740880Y-112307571D01*
X148740880Y-112212333D01*
X148788500Y-112069476D01*
X148836119Y-112021857D01*
X149740880Y-111069476D02*
X149740880Y-111640904D01*
X149740880Y-111355190D02*
X148740880Y-111355190D01*
X148883738Y-111450428D01*
X148978976Y-111545666D01*
X149026595Y-111640904D01*
X148740880Y-110736142D02*
X148740880Y-110117095D01*
X149121833Y-110450428D01*
X149121833Y-110307571D01*
X149169452Y-110212333D01*
X149217071Y-110164714D01*
X149312309Y-110117095D01*
X149550404Y-110117095D01*
X149645642Y-110164714D01*
X149693261Y-110212333D01*
X149740880Y-110307571D01*
X149740880Y-110593285D01*
X149693261Y-110688523D01*
X149645642Y-110736142D01*
X194421166Y-123622380D02*
X194421166Y-124336666D01*
X194373547Y-124479523D01*
X194278309Y-124574761D01*
X194135452Y-124622380D01*
X194040214Y-124622380D01*
X194802119Y-123622380D02*
X195421166Y-123622380D01*
X195087833Y-124003333D01*
X195230690Y-124003333D01*
X195325928Y-124050952D01*
X195373547Y-124098571D01*
X195421166Y-124193809D01*
X195421166Y-124431904D01*
X195373547Y-124527142D01*
X195325928Y-124574761D01*
X195230690Y-124622380D01*
X194944976Y-124622380D01*
X194849738Y-124574761D01*
X194802119Y-124527142D01*
X195881666Y-114732380D02*
X195881666Y-115446666D01*
X195834047Y-115589523D01*
X195738809Y-115684761D01*
X195595952Y-115732380D01*
X195500714Y-115732380D01*
X196310238Y-114827619D02*
X196357857Y-114780000D01*
X196453095Y-114732380D01*
X196691190Y-114732380D01*
X196786428Y-114780000D01*
X196834047Y-114827619D01*
X196881666Y-114922857D01*
X196881666Y-115018095D01*
X196834047Y-115160952D01*
X196262619Y-115732380D01*
X196881666Y-115732380D01*
X195754666Y-132321880D02*
X195754666Y-133036166D01*
X195707047Y-133179023D01*
X195611809Y-133274261D01*
X195468952Y-133321880D01*
X195373714Y-133321880D01*
X196754666Y-133321880D02*
X196183238Y-133321880D01*
X196468952Y-133321880D02*
X196468952Y-132321880D01*
X196373714Y-132464738D01*
X196278476Y-132559976D01*
X196183238Y-132607595D01*
X157591166Y-126289380D02*
X157591166Y-127003666D01*
X157543547Y-127146523D01*
X157448309Y-127241761D01*
X157305452Y-127289380D01*
X157210214Y-127289380D01*
X157972119Y-126289380D02*
X158638785Y-126289380D01*
X158210214Y-127289380D01*
X157591166Y-121272880D02*
X157591166Y-121987166D01*
X157543547Y-122130023D01*
X157448309Y-122225261D01*
X157305452Y-122272880D01*
X157210214Y-122272880D01*
X158495928Y-121272880D02*
X158305452Y-121272880D01*
X158210214Y-121320500D01*
X158162595Y-121368119D01*
X158067357Y-121510976D01*
X158019738Y-121701452D01*
X158019738Y-122082404D01*
X158067357Y-122177642D01*
X158114976Y-122225261D01*
X158210214Y-122272880D01*
X158400690Y-122272880D01*
X158495928Y-122225261D01*
X158543547Y-122177642D01*
X158591166Y-122082404D01*
X158591166Y-121844309D01*
X158543547Y-121749071D01*
X158495928Y-121701452D01*
X158400690Y-121653833D01*
X158210214Y-121653833D01*
X158114976Y-121701452D01*
X158067357Y-121749071D01*
X158019738Y-121844309D01*
X125968166Y-126289380D02*
X125968166Y-127003666D01*
X125920547Y-127146523D01*
X125825309Y-127241761D01*
X125682452Y-127289380D01*
X125587214Y-127289380D01*
X126920547Y-126289380D02*
X126444357Y-126289380D01*
X126396738Y-126765571D01*
X126444357Y-126717952D01*
X126539595Y-126670333D01*
X126777690Y-126670333D01*
X126872928Y-126717952D01*
X126920547Y-126765571D01*
X126968166Y-126860809D01*
X126968166Y-127098904D01*
X126920547Y-127194142D01*
X126872928Y-127241761D01*
X126777690Y-127289380D01*
X126539595Y-127289380D01*
X126444357Y-127241761D01*
X126396738Y-127194142D01*
X125968166Y-121272880D02*
X125968166Y-121987166D01*
X125920547Y-122130023D01*
X125825309Y-122225261D01*
X125682452Y-122272880D01*
X125587214Y-122272880D01*
X126872928Y-121606214D02*
X126872928Y-122272880D01*
X126634833Y-121225261D02*
X126396738Y-121939547D01*
X127015785Y-121939547D01*
X133929380Y-120689666D02*
X133453190Y-121023000D01*
X133929380Y-121261095D02*
X132929380Y-121261095D01*
X132929380Y-120880142D01*
X132977000Y-120784904D01*
X133024619Y-120737285D01*
X133119857Y-120689666D01*
X133262714Y-120689666D01*
X133357952Y-120737285D01*
X133405571Y-120784904D01*
X133453190Y-120880142D01*
X133453190Y-121261095D01*
X133929380Y-119737285D02*
X133929380Y-120308714D01*
X133929380Y-120023000D02*
X132929380Y-120023000D01*
X133072238Y-120118238D01*
X133167476Y-120213476D01*
X133215095Y-120308714D01*
X152201642Y-119514880D02*
X151868309Y-119038690D01*
X151630214Y-119514880D02*
X151630214Y-118514880D01*
X152011166Y-118514880D01*
X152106404Y-118562500D01*
X152154023Y-118610119D01*
X152201642Y-118705357D01*
X152201642Y-118848214D01*
X152154023Y-118943452D01*
X152106404Y-118991071D01*
X152011166Y-119038690D01*
X151630214Y-119038690D01*
X153154023Y-119514880D02*
X152582595Y-119514880D01*
X152868309Y-119514880D02*
X152868309Y-118514880D01*
X152773071Y-118657738D01*
X152677833Y-118752976D01*
X152582595Y-118800595D01*
X153487357Y-118514880D02*
X154106404Y-118514880D01*
X153773071Y-118895833D01*
X153915928Y-118895833D01*
X154011166Y-118943452D01*
X154058785Y-118991071D01*
X154106404Y-119086309D01*
X154106404Y-119324404D01*
X154058785Y-119419642D01*
X154011166Y-119467261D01*
X153915928Y-119514880D01*
X153630214Y-119514880D01*
X153534976Y-119467261D01*
X153487357Y-119419642D01*
X128397095Y-100782380D02*
X128397095Y-99782380D01*
X128397095Y-100258571D02*
X128968523Y-100258571D01*
X128968523Y-100782380D02*
X128968523Y-99782380D01*
X129873285Y-100115714D02*
X129873285Y-100782380D01*
X129635190Y-99734761D02*
X129397095Y-100449047D01*
X130016142Y-100449047D01*
X128143095Y-143962380D02*
X128143095Y-142962380D01*
X128143095Y-143438571D02*
X128714523Y-143438571D01*
X128714523Y-143962380D02*
X128714523Y-142962380D01*
X129095476Y-142962380D02*
X129714523Y-142962380D01*
X129381190Y-143343333D01*
X129524047Y-143343333D01*
X129619285Y-143390952D01*
X129666904Y-143438571D01*
X129714523Y-143533809D01*
X129714523Y-143771904D01*
X129666904Y-143867142D01*
X129619285Y-143914761D01*
X129524047Y-143962380D01*
X129238333Y-143962380D01*
X129143095Y-143914761D01*
X129095476Y-143867142D01*
X195707095Y-143962380D02*
X195707095Y-142962380D01*
X195707095Y-143438571D02*
X196278523Y-143438571D01*
X196278523Y-143962380D02*
X196278523Y-142962380D01*
X196707095Y-143057619D02*
X196754714Y-143010000D01*
X196849952Y-142962380D01*
X197088047Y-142962380D01*
X197183285Y-143010000D01*
X197230904Y-143057619D01*
X197278523Y-143152857D01*
X197278523Y-143248095D01*
X197230904Y-143390952D01*
X196659476Y-143962380D01*
X197278523Y-143962380D01*
X195834095Y-100782380D02*
X195834095Y-99782380D01*
X195834095Y-100258571D02*
X196405523Y-100258571D01*
X196405523Y-100782380D02*
X196405523Y-99782380D01*
X197405523Y-100782380D02*
X196834095Y-100782380D01*
X197119809Y-100782380D02*
X197119809Y-99782380D01*
X197024571Y-99925238D01*
X196929333Y-100020476D01*
X196834095Y-100068095D01*
M02*
