G04 #@! TF.GenerationSoftware,KiCad,Pcbnew,(5.1.7-0-10_14)*
G04 #@! TF.CreationDate,2020-11-05T19:56:57+01:00*
G04 #@! TF.ProjectId,lv-lownoise-psu,6c762d6c-6f77-46e6-9f69-73652d707375,rev?*
G04 #@! TF.SameCoordinates,Original*
G04 #@! TF.FileFunction,Copper,L1,Top*
G04 #@! TF.FilePolarity,Positive*
%FSLAX46Y46*%
G04 Gerber Fmt 4.6, Leading zero omitted, Abs format (unit mm)*
G04 Created by KiCad (PCBNEW (5.1.7-0-10_14)) date 2020-11-05 19:56:57*
%MOMM*%
%LPD*%
G01*
G04 APERTURE LIST*
G04 #@! TA.AperFunction,ComponentPad*
%ADD10C,1.440000*%
G04 #@! TD*
G04 #@! TA.AperFunction,SMDPad,CuDef*
%ADD11R,1.650000X2.850000*%
G04 #@! TD*
G04 #@! TA.AperFunction,ComponentPad*
%ADD12O,1.800000X1.800000*%
G04 #@! TD*
G04 #@! TA.AperFunction,ComponentPad*
%ADD13R,1.800000X1.800000*%
G04 #@! TD*
G04 #@! TA.AperFunction,ComponentPad*
%ADD14C,2.600000*%
G04 #@! TD*
G04 #@! TA.AperFunction,SMDPad,CuDef*
%ADD15R,1.000000X0.800000*%
G04 #@! TD*
G04 #@! TA.AperFunction,ViaPad*
%ADD16C,0.800000*%
G04 #@! TD*
G04 #@! TA.AperFunction,ViaPad*
%ADD17C,0.600000*%
G04 #@! TD*
G04 #@! TA.AperFunction,Conductor*
%ADD18C,0.250000*%
G04 #@! TD*
G04 #@! TA.AperFunction,Conductor*
%ADD19C,0.500000*%
G04 #@! TD*
G04 #@! TA.AperFunction,Conductor*
%ADD20C,0.254000*%
G04 #@! TD*
G04 #@! TA.AperFunction,Conductor*
%ADD21C,0.100000*%
G04 #@! TD*
G04 APERTURE END LIST*
G04 #@! TA.AperFunction,SMDPad,CuDef*
G36*
G01*
X94743500Y-71700000D02*
X93343500Y-71700000D01*
G75*
G02*
X93093500Y-71450000I0J250000D01*
G01*
X93093500Y-67800000D01*
G75*
G02*
X93343500Y-67550000I250000J0D01*
G01*
X94743500Y-67550000D01*
G75*
G02*
X94993500Y-67800000I0J-250000D01*
G01*
X94993500Y-71450000D01*
G75*
G02*
X94743500Y-71700000I-250000J0D01*
G01*
G37*
G04 #@! TD.AperFunction*
G04 #@! TA.AperFunction,SMDPad,CuDef*
G36*
G01*
X94743500Y-78650000D02*
X93343500Y-78650000D01*
G75*
G02*
X93093500Y-78400000I0J250000D01*
G01*
X93093500Y-74750000D01*
G75*
G02*
X93343500Y-74500000I250000J0D01*
G01*
X94743500Y-74500000D01*
G75*
G02*
X94993500Y-74750000I0J-250000D01*
G01*
X94993500Y-78400000D01*
G75*
G02*
X94743500Y-78650000I-250000J0D01*
G01*
G37*
G04 #@! TD.AperFunction*
D10*
X116484400Y-82600800D03*
X116484400Y-80060800D03*
X116484400Y-77520800D03*
G04 #@! TA.AperFunction,SMDPad,CuDef*
G36*
G01*
X112972001Y-74450500D02*
X112071999Y-74450500D01*
G75*
G02*
X111822000Y-74200501I0J249999D01*
G01*
X111822000Y-73500499D01*
G75*
G02*
X112071999Y-73250500I249999J0D01*
G01*
X112972001Y-73250500D01*
G75*
G02*
X113222000Y-73500499I0J-249999D01*
G01*
X113222000Y-74200501D01*
G75*
G02*
X112972001Y-74450500I-249999J0D01*
G01*
G37*
G04 #@! TD.AperFunction*
G04 #@! TA.AperFunction,SMDPad,CuDef*
G36*
G01*
X112972001Y-76450500D02*
X112071999Y-76450500D01*
G75*
G02*
X111822000Y-76200501I0J249999D01*
G01*
X111822000Y-75500499D01*
G75*
G02*
X112071999Y-75250500I249999J0D01*
G01*
X112972001Y-75250500D01*
G75*
G02*
X113222000Y-75500499I0J-249999D01*
G01*
X113222000Y-76200501D01*
G75*
G02*
X112972001Y-76450500I-249999J0D01*
G01*
G37*
G04 #@! TD.AperFunction*
G04 #@! TA.AperFunction,SMDPad,CuDef*
G36*
G01*
X112069699Y-70432500D02*
X114269701Y-70432500D01*
G75*
G02*
X114519700Y-70682499I0J-249999D01*
G01*
X114519700Y-71507501D01*
G75*
G02*
X114269701Y-71757500I-249999J0D01*
G01*
X112069699Y-71757500D01*
G75*
G02*
X111819700Y-71507501I0J249999D01*
G01*
X111819700Y-70682499D01*
G75*
G02*
X112069699Y-70432500I249999J0D01*
G01*
G37*
G04 #@! TD.AperFunction*
G04 #@! TA.AperFunction,SMDPad,CuDef*
G36*
G01*
X112069699Y-67307500D02*
X114269701Y-67307500D01*
G75*
G02*
X114519700Y-67557499I0J-249999D01*
G01*
X114519700Y-68382501D01*
G75*
G02*
X114269701Y-68632500I-249999J0D01*
G01*
X112069699Y-68632500D01*
G75*
G02*
X111819700Y-68382501I0J249999D01*
G01*
X111819700Y-67557499D01*
G75*
G02*
X112069699Y-67307500I249999J0D01*
G01*
G37*
G04 #@! TD.AperFunction*
G04 #@! TA.AperFunction,SMDPad,CuDef*
G36*
G01*
X115221600Y-73388200D02*
X115221600Y-74338200D01*
G75*
G02*
X114971600Y-74588200I-250000J0D01*
G01*
X114296600Y-74588200D01*
G75*
G02*
X114046600Y-74338200I0J250000D01*
G01*
X114046600Y-73388200D01*
G75*
G02*
X114296600Y-73138200I250000J0D01*
G01*
X114971600Y-73138200D01*
G75*
G02*
X115221600Y-73388200I0J-250000D01*
G01*
G37*
G04 #@! TD.AperFunction*
G04 #@! TA.AperFunction,SMDPad,CuDef*
G36*
G01*
X117296600Y-73388200D02*
X117296600Y-74338200D01*
G75*
G02*
X117046600Y-74588200I-250000J0D01*
G01*
X116371600Y-74588200D01*
G75*
G02*
X116121600Y-74338200I0J250000D01*
G01*
X116121600Y-73388200D01*
G75*
G02*
X116371600Y-73138200I250000J0D01*
G01*
X117046600Y-73138200D01*
G75*
G02*
X117296600Y-73388200I0J-250000D01*
G01*
G37*
G04 #@! TD.AperFunction*
G04 #@! TA.AperFunction,SMDPad,CuDef*
G36*
G01*
X103134399Y-69784400D02*
X104434401Y-69784400D01*
G75*
G02*
X104684400Y-70034399I0J-249999D01*
G01*
X104684400Y-70859401D01*
G75*
G02*
X104434401Y-71109400I-249999J0D01*
G01*
X103134399Y-71109400D01*
G75*
G02*
X102884400Y-70859401I0J249999D01*
G01*
X102884400Y-70034399D01*
G75*
G02*
X103134399Y-69784400I249999J0D01*
G01*
G37*
G04 #@! TD.AperFunction*
G04 #@! TA.AperFunction,SMDPad,CuDef*
G36*
G01*
X103134399Y-66659400D02*
X104434401Y-66659400D01*
G75*
G02*
X104684400Y-66909399I0J-249999D01*
G01*
X104684400Y-67734401D01*
G75*
G02*
X104434401Y-67984400I-249999J0D01*
G01*
X103134399Y-67984400D01*
G75*
G02*
X102884400Y-67734401I0J249999D01*
G01*
X102884400Y-66909399D01*
G75*
G02*
X103134399Y-66659400I249999J0D01*
G01*
G37*
G04 #@! TD.AperFunction*
D11*
X108296600Y-72071900D03*
G04 #@! TA.AperFunction,SMDPad,CuDef*
G36*
G01*
X109721600Y-70546900D02*
X109721600Y-70346900D01*
G75*
G02*
X109821600Y-70246900I100000J0D01*
G01*
X111071600Y-70246900D01*
G75*
G02*
X111171600Y-70346900I0J-100000D01*
G01*
X111171600Y-70546900D01*
G75*
G02*
X111071600Y-70646900I-100000J0D01*
G01*
X109821600Y-70646900D01*
G75*
G02*
X109721600Y-70546900I0J100000D01*
G01*
G37*
G04 #@! TD.AperFunction*
G04 #@! TA.AperFunction,SMDPad,CuDef*
G36*
G01*
X109721600Y-71196900D02*
X109721600Y-70996900D01*
G75*
G02*
X109821600Y-70896900I100000J0D01*
G01*
X111071600Y-70896900D01*
G75*
G02*
X111171600Y-70996900I0J-100000D01*
G01*
X111171600Y-71196900D01*
G75*
G02*
X111071600Y-71296900I-100000J0D01*
G01*
X109821600Y-71296900D01*
G75*
G02*
X109721600Y-71196900I0J100000D01*
G01*
G37*
G04 #@! TD.AperFunction*
G04 #@! TA.AperFunction,SMDPad,CuDef*
G36*
G01*
X109721600Y-71846900D02*
X109721600Y-71646900D01*
G75*
G02*
X109821600Y-71546900I100000J0D01*
G01*
X111071600Y-71546900D01*
G75*
G02*
X111171600Y-71646900I0J-100000D01*
G01*
X111171600Y-71846900D01*
G75*
G02*
X111071600Y-71946900I-100000J0D01*
G01*
X109821600Y-71946900D01*
G75*
G02*
X109721600Y-71846900I0J100000D01*
G01*
G37*
G04 #@! TD.AperFunction*
G04 #@! TA.AperFunction,SMDPad,CuDef*
G36*
G01*
X109721600Y-72496900D02*
X109721600Y-72296900D01*
G75*
G02*
X109821600Y-72196900I100000J0D01*
G01*
X111071600Y-72196900D01*
G75*
G02*
X111171600Y-72296900I0J-100000D01*
G01*
X111171600Y-72496900D01*
G75*
G02*
X111071600Y-72596900I-100000J0D01*
G01*
X109821600Y-72596900D01*
G75*
G02*
X109721600Y-72496900I0J100000D01*
G01*
G37*
G04 #@! TD.AperFunction*
G04 #@! TA.AperFunction,SMDPad,CuDef*
G36*
G01*
X109721600Y-73146900D02*
X109721600Y-72946900D01*
G75*
G02*
X109821600Y-72846900I100000J0D01*
G01*
X111071600Y-72846900D01*
G75*
G02*
X111171600Y-72946900I0J-100000D01*
G01*
X111171600Y-73146900D01*
G75*
G02*
X111071600Y-73246900I-100000J0D01*
G01*
X109821600Y-73246900D01*
G75*
G02*
X109721600Y-73146900I0J100000D01*
G01*
G37*
G04 #@! TD.AperFunction*
G04 #@! TA.AperFunction,SMDPad,CuDef*
G36*
G01*
X109721600Y-73796900D02*
X109721600Y-73596900D01*
G75*
G02*
X109821600Y-73496900I100000J0D01*
G01*
X111071600Y-73496900D01*
G75*
G02*
X111171600Y-73596900I0J-100000D01*
G01*
X111171600Y-73796900D01*
G75*
G02*
X111071600Y-73896900I-100000J0D01*
G01*
X109821600Y-73896900D01*
G75*
G02*
X109721600Y-73796900I0J100000D01*
G01*
G37*
G04 #@! TD.AperFunction*
G04 #@! TA.AperFunction,SMDPad,CuDef*
G36*
G01*
X105421600Y-73796900D02*
X105421600Y-73596900D01*
G75*
G02*
X105521600Y-73496900I100000J0D01*
G01*
X106771600Y-73496900D01*
G75*
G02*
X106871600Y-73596900I0J-100000D01*
G01*
X106871600Y-73796900D01*
G75*
G02*
X106771600Y-73896900I-100000J0D01*
G01*
X105521600Y-73896900D01*
G75*
G02*
X105421600Y-73796900I0J100000D01*
G01*
G37*
G04 #@! TD.AperFunction*
G04 #@! TA.AperFunction,SMDPad,CuDef*
G36*
G01*
X105421600Y-73146900D02*
X105421600Y-72946900D01*
G75*
G02*
X105521600Y-72846900I100000J0D01*
G01*
X106771600Y-72846900D01*
G75*
G02*
X106871600Y-72946900I0J-100000D01*
G01*
X106871600Y-73146900D01*
G75*
G02*
X106771600Y-73246900I-100000J0D01*
G01*
X105521600Y-73246900D01*
G75*
G02*
X105421600Y-73146900I0J100000D01*
G01*
G37*
G04 #@! TD.AperFunction*
G04 #@! TA.AperFunction,SMDPad,CuDef*
G36*
G01*
X105421600Y-72496900D02*
X105421600Y-72296900D01*
G75*
G02*
X105521600Y-72196900I100000J0D01*
G01*
X106771600Y-72196900D01*
G75*
G02*
X106871600Y-72296900I0J-100000D01*
G01*
X106871600Y-72496900D01*
G75*
G02*
X106771600Y-72596900I-100000J0D01*
G01*
X105521600Y-72596900D01*
G75*
G02*
X105421600Y-72496900I0J100000D01*
G01*
G37*
G04 #@! TD.AperFunction*
G04 #@! TA.AperFunction,SMDPad,CuDef*
G36*
G01*
X105421600Y-71846900D02*
X105421600Y-71646900D01*
G75*
G02*
X105521600Y-71546900I100000J0D01*
G01*
X106771600Y-71546900D01*
G75*
G02*
X106871600Y-71646900I0J-100000D01*
G01*
X106871600Y-71846900D01*
G75*
G02*
X106771600Y-71946900I-100000J0D01*
G01*
X105521600Y-71946900D01*
G75*
G02*
X105421600Y-71846900I0J100000D01*
G01*
G37*
G04 #@! TD.AperFunction*
G04 #@! TA.AperFunction,SMDPad,CuDef*
G36*
G01*
X105421600Y-71196900D02*
X105421600Y-70996900D01*
G75*
G02*
X105521600Y-70896900I100000J0D01*
G01*
X106771600Y-70896900D01*
G75*
G02*
X106871600Y-70996900I0J-100000D01*
G01*
X106871600Y-71196900D01*
G75*
G02*
X106771600Y-71296900I-100000J0D01*
G01*
X105521600Y-71296900D01*
G75*
G02*
X105421600Y-71196900I0J100000D01*
G01*
G37*
G04 #@! TD.AperFunction*
G04 #@! TA.AperFunction,SMDPad,CuDef*
G36*
G01*
X105421600Y-70546900D02*
X105421600Y-70346900D01*
G75*
G02*
X105521600Y-70246900I100000J0D01*
G01*
X106771600Y-70246900D01*
G75*
G02*
X106871600Y-70346900I0J-100000D01*
G01*
X106871600Y-70546900D01*
G75*
G02*
X106771600Y-70646900I-100000J0D01*
G01*
X105521600Y-70646900D01*
G75*
G02*
X105421600Y-70546900I0J100000D01*
G01*
G37*
G04 #@! TD.AperFunction*
X108474400Y-54597900D03*
G04 #@! TA.AperFunction,SMDPad,CuDef*
G36*
G01*
X109899400Y-53072900D02*
X109899400Y-52872900D01*
G75*
G02*
X109999400Y-52772900I100000J0D01*
G01*
X111249400Y-52772900D01*
G75*
G02*
X111349400Y-52872900I0J-100000D01*
G01*
X111349400Y-53072900D01*
G75*
G02*
X111249400Y-53172900I-100000J0D01*
G01*
X109999400Y-53172900D01*
G75*
G02*
X109899400Y-53072900I0J100000D01*
G01*
G37*
G04 #@! TD.AperFunction*
G04 #@! TA.AperFunction,SMDPad,CuDef*
G36*
G01*
X109899400Y-53722900D02*
X109899400Y-53522900D01*
G75*
G02*
X109999400Y-53422900I100000J0D01*
G01*
X111249400Y-53422900D01*
G75*
G02*
X111349400Y-53522900I0J-100000D01*
G01*
X111349400Y-53722900D01*
G75*
G02*
X111249400Y-53822900I-100000J0D01*
G01*
X109999400Y-53822900D01*
G75*
G02*
X109899400Y-53722900I0J100000D01*
G01*
G37*
G04 #@! TD.AperFunction*
G04 #@! TA.AperFunction,SMDPad,CuDef*
G36*
G01*
X109899400Y-54372900D02*
X109899400Y-54172900D01*
G75*
G02*
X109999400Y-54072900I100000J0D01*
G01*
X111249400Y-54072900D01*
G75*
G02*
X111349400Y-54172900I0J-100000D01*
G01*
X111349400Y-54372900D01*
G75*
G02*
X111249400Y-54472900I-100000J0D01*
G01*
X109999400Y-54472900D01*
G75*
G02*
X109899400Y-54372900I0J100000D01*
G01*
G37*
G04 #@! TD.AperFunction*
G04 #@! TA.AperFunction,SMDPad,CuDef*
G36*
G01*
X109899400Y-55022900D02*
X109899400Y-54822900D01*
G75*
G02*
X109999400Y-54722900I100000J0D01*
G01*
X111249400Y-54722900D01*
G75*
G02*
X111349400Y-54822900I0J-100000D01*
G01*
X111349400Y-55022900D01*
G75*
G02*
X111249400Y-55122900I-100000J0D01*
G01*
X109999400Y-55122900D01*
G75*
G02*
X109899400Y-55022900I0J100000D01*
G01*
G37*
G04 #@! TD.AperFunction*
G04 #@! TA.AperFunction,SMDPad,CuDef*
G36*
G01*
X109899400Y-55672900D02*
X109899400Y-55472900D01*
G75*
G02*
X109999400Y-55372900I100000J0D01*
G01*
X111249400Y-55372900D01*
G75*
G02*
X111349400Y-55472900I0J-100000D01*
G01*
X111349400Y-55672900D01*
G75*
G02*
X111249400Y-55772900I-100000J0D01*
G01*
X109999400Y-55772900D01*
G75*
G02*
X109899400Y-55672900I0J100000D01*
G01*
G37*
G04 #@! TD.AperFunction*
G04 #@! TA.AperFunction,SMDPad,CuDef*
G36*
G01*
X109899400Y-56322900D02*
X109899400Y-56122900D01*
G75*
G02*
X109999400Y-56022900I100000J0D01*
G01*
X111249400Y-56022900D01*
G75*
G02*
X111349400Y-56122900I0J-100000D01*
G01*
X111349400Y-56322900D01*
G75*
G02*
X111249400Y-56422900I-100000J0D01*
G01*
X109999400Y-56422900D01*
G75*
G02*
X109899400Y-56322900I0J100000D01*
G01*
G37*
G04 #@! TD.AperFunction*
G04 #@! TA.AperFunction,SMDPad,CuDef*
G36*
G01*
X105599400Y-56322900D02*
X105599400Y-56122900D01*
G75*
G02*
X105699400Y-56022900I100000J0D01*
G01*
X106949400Y-56022900D01*
G75*
G02*
X107049400Y-56122900I0J-100000D01*
G01*
X107049400Y-56322900D01*
G75*
G02*
X106949400Y-56422900I-100000J0D01*
G01*
X105699400Y-56422900D01*
G75*
G02*
X105599400Y-56322900I0J100000D01*
G01*
G37*
G04 #@! TD.AperFunction*
G04 #@! TA.AperFunction,SMDPad,CuDef*
G36*
G01*
X105599400Y-55672900D02*
X105599400Y-55472900D01*
G75*
G02*
X105699400Y-55372900I100000J0D01*
G01*
X106949400Y-55372900D01*
G75*
G02*
X107049400Y-55472900I0J-100000D01*
G01*
X107049400Y-55672900D01*
G75*
G02*
X106949400Y-55772900I-100000J0D01*
G01*
X105699400Y-55772900D01*
G75*
G02*
X105599400Y-55672900I0J100000D01*
G01*
G37*
G04 #@! TD.AperFunction*
G04 #@! TA.AperFunction,SMDPad,CuDef*
G36*
G01*
X105599400Y-55022900D02*
X105599400Y-54822900D01*
G75*
G02*
X105699400Y-54722900I100000J0D01*
G01*
X106949400Y-54722900D01*
G75*
G02*
X107049400Y-54822900I0J-100000D01*
G01*
X107049400Y-55022900D01*
G75*
G02*
X106949400Y-55122900I-100000J0D01*
G01*
X105699400Y-55122900D01*
G75*
G02*
X105599400Y-55022900I0J100000D01*
G01*
G37*
G04 #@! TD.AperFunction*
G04 #@! TA.AperFunction,SMDPad,CuDef*
G36*
G01*
X105599400Y-54372900D02*
X105599400Y-54172900D01*
G75*
G02*
X105699400Y-54072900I100000J0D01*
G01*
X106949400Y-54072900D01*
G75*
G02*
X107049400Y-54172900I0J-100000D01*
G01*
X107049400Y-54372900D01*
G75*
G02*
X106949400Y-54472900I-100000J0D01*
G01*
X105699400Y-54472900D01*
G75*
G02*
X105599400Y-54372900I0J100000D01*
G01*
G37*
G04 #@! TD.AperFunction*
G04 #@! TA.AperFunction,SMDPad,CuDef*
G36*
G01*
X105599400Y-53722900D02*
X105599400Y-53522900D01*
G75*
G02*
X105699400Y-53422900I100000J0D01*
G01*
X106949400Y-53422900D01*
G75*
G02*
X107049400Y-53522900I0J-100000D01*
G01*
X107049400Y-53722900D01*
G75*
G02*
X106949400Y-53822900I-100000J0D01*
G01*
X105699400Y-53822900D01*
G75*
G02*
X105599400Y-53722900I0J100000D01*
G01*
G37*
G04 #@! TD.AperFunction*
G04 #@! TA.AperFunction,SMDPad,CuDef*
G36*
G01*
X105599400Y-53072900D02*
X105599400Y-52872900D01*
G75*
G02*
X105699400Y-52772900I100000J0D01*
G01*
X106949400Y-52772900D01*
G75*
G02*
X107049400Y-52872900I0J-100000D01*
G01*
X107049400Y-53072900D01*
G75*
G02*
X106949400Y-53172900I-100000J0D01*
G01*
X105699400Y-53172900D01*
G75*
G02*
X105599400Y-53072900I0J100000D01*
G01*
G37*
G04 #@! TD.AperFunction*
G04 #@! TA.AperFunction,SMDPad,CuDef*
G36*
G01*
X114434801Y-51144200D02*
X112234799Y-51144200D01*
G75*
G02*
X111984800Y-50894201I0J249999D01*
G01*
X111984800Y-50069199D01*
G75*
G02*
X112234799Y-49819200I249999J0D01*
G01*
X114434801Y-49819200D01*
G75*
G02*
X114684800Y-50069199I0J-249999D01*
G01*
X114684800Y-50894201D01*
G75*
G02*
X114434801Y-51144200I-249999J0D01*
G01*
G37*
G04 #@! TD.AperFunction*
G04 #@! TA.AperFunction,SMDPad,CuDef*
G36*
G01*
X114434801Y-54269200D02*
X112234799Y-54269200D01*
G75*
G02*
X111984800Y-54019201I0J249999D01*
G01*
X111984800Y-53194199D01*
G75*
G02*
X112234799Y-52944200I249999J0D01*
G01*
X114434801Y-52944200D01*
G75*
G02*
X114684800Y-53194199I0J-249999D01*
G01*
X114684800Y-54019201D01*
G75*
G02*
X114434801Y-54269200I-249999J0D01*
G01*
G37*
G04 #@! TD.AperFunction*
G04 #@! TA.AperFunction,SMDPad,CuDef*
G36*
G01*
X116401000Y-56101000D02*
X116401000Y-55151000D01*
G75*
G02*
X116651000Y-54901000I250000J0D01*
G01*
X117326000Y-54901000D01*
G75*
G02*
X117576000Y-55151000I0J-250000D01*
G01*
X117576000Y-56101000D01*
G75*
G02*
X117326000Y-56351000I-250000J0D01*
G01*
X116651000Y-56351000D01*
G75*
G02*
X116401000Y-56101000I0J250000D01*
G01*
G37*
G04 #@! TD.AperFunction*
G04 #@! TA.AperFunction,SMDPad,CuDef*
G36*
G01*
X114326000Y-56101000D02*
X114326000Y-55151000D01*
G75*
G02*
X114576000Y-54901000I250000J0D01*
G01*
X115251000Y-54901000D01*
G75*
G02*
X115501000Y-55151000I0J-250000D01*
G01*
X115501000Y-56101000D01*
G75*
G02*
X115251000Y-56351000I-250000J0D01*
G01*
X114576000Y-56351000D01*
G75*
G02*
X114326000Y-56101000I0J250000D01*
G01*
G37*
G04 #@! TD.AperFunction*
G04 #@! TA.AperFunction,SMDPad,CuDef*
G36*
G01*
X104663001Y-50509600D02*
X103362999Y-50509600D01*
G75*
G02*
X103113000Y-50259601I0J249999D01*
G01*
X103113000Y-49434599D01*
G75*
G02*
X103362999Y-49184600I249999J0D01*
G01*
X104663001Y-49184600D01*
G75*
G02*
X104913000Y-49434599I0J-249999D01*
G01*
X104913000Y-50259601D01*
G75*
G02*
X104663001Y-50509600I-249999J0D01*
G01*
G37*
G04 #@! TD.AperFunction*
G04 #@! TA.AperFunction,SMDPad,CuDef*
G36*
G01*
X104663001Y-53634600D02*
X103362999Y-53634600D01*
G75*
G02*
X103113000Y-53384601I0J249999D01*
G01*
X103113000Y-52559599D01*
G75*
G02*
X103362999Y-52309600I249999J0D01*
G01*
X104663001Y-52309600D01*
G75*
G02*
X104913000Y-52559599I0J-249999D01*
G01*
X104913000Y-53384601D01*
G75*
G02*
X104663001Y-53634600I-249999J0D01*
G01*
G37*
G04 #@! TD.AperFunction*
G04 #@! TA.AperFunction,SMDPad,CuDef*
G36*
G01*
X94807000Y-54307000D02*
X93407000Y-54307000D01*
G75*
G02*
X93157000Y-54057000I0J250000D01*
G01*
X93157000Y-50407000D01*
G75*
G02*
X93407000Y-50157000I250000J0D01*
G01*
X94807000Y-50157000D01*
G75*
G02*
X95057000Y-50407000I0J-250000D01*
G01*
X95057000Y-54057000D01*
G75*
G02*
X94807000Y-54307000I-250000J0D01*
G01*
G37*
G04 #@! TD.AperFunction*
G04 #@! TA.AperFunction,SMDPad,CuDef*
G36*
G01*
X94807000Y-61257000D02*
X93407000Y-61257000D01*
G75*
G02*
X93157000Y-61007000I0J250000D01*
G01*
X93157000Y-57357000D01*
G75*
G02*
X93407000Y-57107000I250000J0D01*
G01*
X94807000Y-57107000D01*
G75*
G02*
X95057000Y-57357000I0J-250000D01*
G01*
X95057000Y-61007000D01*
G75*
G02*
X94807000Y-61257000I-250000J0D01*
G01*
G37*
G04 #@! TD.AperFunction*
G04 #@! TA.AperFunction,SMDPad,CuDef*
G36*
G01*
X104094701Y-73548800D02*
X103194699Y-73548800D01*
G75*
G02*
X102944700Y-73298801I0J249999D01*
G01*
X102944700Y-72598799D01*
G75*
G02*
X103194699Y-72348800I249999J0D01*
G01*
X104094701Y-72348800D01*
G75*
G02*
X104344700Y-72598799I0J-249999D01*
G01*
X104344700Y-73298801D01*
G75*
G02*
X104094701Y-73548800I-249999J0D01*
G01*
G37*
G04 #@! TD.AperFunction*
G04 #@! TA.AperFunction,SMDPad,CuDef*
G36*
G01*
X104094701Y-75548800D02*
X103194699Y-75548800D01*
G75*
G02*
X102944700Y-75298801I0J249999D01*
G01*
X102944700Y-74598799D01*
G75*
G02*
X103194699Y-74348800I249999J0D01*
G01*
X104094701Y-74348800D01*
G75*
G02*
X104344700Y-74598799I0J-249999D01*
G01*
X104344700Y-75298801D01*
G75*
G02*
X104094701Y-75548800I-249999J0D01*
G01*
G37*
G04 #@! TD.AperFunction*
G04 #@! TA.AperFunction,SMDPad,CuDef*
G36*
G01*
X100752200Y-78048699D02*
X100752200Y-78948701D01*
G75*
G02*
X100502201Y-79198700I-249999J0D01*
G01*
X99802199Y-79198700D01*
G75*
G02*
X99552200Y-78948701I0J249999D01*
G01*
X99552200Y-78048699D01*
G75*
G02*
X99802199Y-77798700I249999J0D01*
G01*
X100502201Y-77798700D01*
G75*
G02*
X100752200Y-78048699I0J-249999D01*
G01*
G37*
G04 #@! TD.AperFunction*
G04 #@! TA.AperFunction,SMDPad,CuDef*
G36*
G01*
X102752200Y-78048699D02*
X102752200Y-78948701D01*
G75*
G02*
X102502201Y-79198700I-249999J0D01*
G01*
X101802199Y-79198700D01*
G75*
G02*
X101552200Y-78948701I0J249999D01*
G01*
X101552200Y-78048699D01*
G75*
G02*
X101802199Y-77798700I249999J0D01*
G01*
X102502201Y-77798700D01*
G75*
G02*
X102752200Y-78048699I0J-249999D01*
G01*
G37*
G04 #@! TD.AperFunction*
G04 #@! TA.AperFunction,SMDPad,CuDef*
G36*
G01*
X101755400Y-61321101D02*
X101755400Y-60421099D01*
G75*
G02*
X102005399Y-60171100I249999J0D01*
G01*
X102705401Y-60171100D01*
G75*
G02*
X102955400Y-60421099I0J-249999D01*
G01*
X102955400Y-61321101D01*
G75*
G02*
X102705401Y-61571100I-249999J0D01*
G01*
X102005399Y-61571100D01*
G75*
G02*
X101755400Y-61321101I0J249999D01*
G01*
G37*
G04 #@! TD.AperFunction*
G04 #@! TA.AperFunction,SMDPad,CuDef*
G36*
G01*
X99755400Y-61321101D02*
X99755400Y-60421099D01*
G75*
G02*
X100005399Y-60171100I249999J0D01*
G01*
X100705401Y-60171100D01*
G75*
G02*
X100955400Y-60421099I0J-249999D01*
G01*
X100955400Y-61321101D01*
G75*
G02*
X100705401Y-61571100I-249999J0D01*
G01*
X100005399Y-61571100D01*
G75*
G02*
X99755400Y-61321101I0J249999D01*
G01*
G37*
G04 #@! TD.AperFunction*
G04 #@! TA.AperFunction,SMDPad,CuDef*
G36*
G01*
X103486799Y-56965800D02*
X104386801Y-56965800D01*
G75*
G02*
X104636800Y-57215799I0J-249999D01*
G01*
X104636800Y-57915801D01*
G75*
G02*
X104386801Y-58165800I-249999J0D01*
G01*
X103486799Y-58165800D01*
G75*
G02*
X103236800Y-57915801I0J249999D01*
G01*
X103236800Y-57215799D01*
G75*
G02*
X103486799Y-56965800I249999J0D01*
G01*
G37*
G04 #@! TD.AperFunction*
G04 #@! TA.AperFunction,SMDPad,CuDef*
G36*
G01*
X103486799Y-54965800D02*
X104386801Y-54965800D01*
G75*
G02*
X104636800Y-55215799I0J-249999D01*
G01*
X104636800Y-55915801D01*
G75*
G02*
X104386801Y-56165800I-249999J0D01*
G01*
X103486799Y-56165800D01*
G75*
G02*
X103236800Y-55915801I0J249999D01*
G01*
X103236800Y-55215799D01*
G75*
G02*
X103486799Y-54965800I249999J0D01*
G01*
G37*
G04 #@! TD.AperFunction*
D12*
X100190300Y-75501500D03*
X100190300Y-72961500D03*
D13*
X100190300Y-70421500D03*
D12*
X100355400Y-58064400D03*
X100355400Y-55524400D03*
D13*
X100355400Y-52984400D03*
D10*
X116789200Y-64363600D03*
X116789200Y-61823600D03*
X116789200Y-59283600D03*
G04 #@! TA.AperFunction,SMDPad,CuDef*
G36*
G01*
X112516499Y-57026000D02*
X113416501Y-57026000D01*
G75*
G02*
X113666500Y-57275999I0J-249999D01*
G01*
X113666500Y-57976001D01*
G75*
G02*
X113416501Y-58226000I-249999J0D01*
G01*
X112516499Y-58226000D01*
G75*
G02*
X112266500Y-57976001I0J249999D01*
G01*
X112266500Y-57275999D01*
G75*
G02*
X112516499Y-57026000I249999J0D01*
G01*
G37*
G04 #@! TD.AperFunction*
G04 #@! TA.AperFunction,SMDPad,CuDef*
G36*
G01*
X112516499Y-55026000D02*
X113416501Y-55026000D01*
G75*
G02*
X113666500Y-55275999I0J-249999D01*
G01*
X113666500Y-55976001D01*
G75*
G02*
X113416501Y-56226000I-249999J0D01*
G01*
X112516499Y-56226000D01*
G75*
G02*
X112266500Y-55976001I0J249999D01*
G01*
X112266500Y-55275999D01*
G75*
G02*
X112516499Y-55026000I249999J0D01*
G01*
G37*
G04 #@! TD.AperFunction*
D14*
X122783600Y-71120000D03*
X122732800Y-61874400D03*
X122732800Y-53594000D03*
X86868000Y-55880000D03*
X86868000Y-64135000D03*
X86868000Y-72390000D03*
D15*
X96964500Y-63119000D03*
X96964500Y-65659000D03*
X90814500Y-65659000D03*
X90814500Y-63119000D03*
D16*
X112166400Y-72440800D03*
X106121200Y-74879200D03*
X94132400Y-56337200D03*
X95631000Y-63055500D03*
X94030800Y-72390000D03*
X94030800Y-66598800D03*
D17*
X115874800Y-55626000D03*
X115620800Y-73863200D03*
D16*
X89281000Y-65659000D03*
X89281000Y-63119000D03*
D17*
X110617000Y-56832500D03*
X105156000Y-54927500D03*
D16*
X115722400Y-53594000D03*
X115519200Y-71120000D03*
D18*
X108474400Y-54797900D02*
X108474400Y-54597900D01*
X108799400Y-54922900D02*
X108474400Y-54597900D01*
X110624400Y-54922900D02*
X108799400Y-54922900D01*
X108474400Y-54748958D02*
X108474400Y-54597900D01*
X107000458Y-56222900D02*
X108474400Y-54748958D01*
X106324400Y-56222900D02*
X107000458Y-56222900D01*
D19*
X106121200Y-73772310D02*
X106146600Y-73746910D01*
X106121200Y-74879200D02*
X106121200Y-73772310D01*
D18*
X110490500Y-72440800D02*
X110446600Y-72396900D01*
X112166400Y-72440800D02*
X110490500Y-72440800D01*
D19*
X94737502Y-59182000D02*
X94107000Y-59182000D01*
D18*
X100396800Y-55565800D02*
X100355400Y-55524400D01*
X103936800Y-55565800D02*
X100396800Y-55565800D01*
D19*
X94107000Y-56362600D02*
X94132400Y-56337200D01*
X94107000Y-59182000D02*
X94107000Y-56362600D01*
X96964500Y-65659000D02*
X94132400Y-62826900D01*
X94132400Y-59207400D02*
X94107000Y-59182000D01*
X94132400Y-62826900D02*
X94132400Y-59207400D01*
X95694500Y-63119000D02*
X95631000Y-63055500D01*
X96964500Y-63119000D02*
X95694500Y-63119000D01*
D18*
X100203000Y-72948800D02*
X100190300Y-72961500D01*
X103644700Y-72948800D02*
X100203000Y-72948800D01*
D19*
X94030800Y-69637700D02*
X94043500Y-69625000D01*
X94030800Y-72390000D02*
X94030800Y-69637700D01*
X94030800Y-69612300D02*
X94043500Y-69625000D01*
X94030800Y-66598800D02*
X94030800Y-69612300D01*
D18*
X112913400Y-55572900D02*
X112966500Y-55626000D01*
X110624400Y-55572900D02*
X112913400Y-55572900D01*
X112966500Y-55626000D02*
X114913500Y-55626000D01*
X114935000Y-55647500D02*
X114913500Y-55626000D01*
X114913500Y-55626000D02*
X115976400Y-55626000D01*
X114634100Y-73863200D02*
X115722400Y-73863200D01*
X111718400Y-73046900D02*
X112522000Y-73850500D01*
X110446600Y-73046900D02*
X111718400Y-73046900D01*
X114621400Y-73850500D02*
X114634100Y-73863200D01*
X112522000Y-73850500D02*
X114621400Y-73850500D01*
D19*
X90814500Y-65659000D02*
X89281000Y-65659000D01*
X90814500Y-63119000D02*
X89281000Y-63119000D01*
D18*
X104013800Y-52972900D02*
X104013000Y-52972100D01*
X110624400Y-56825100D02*
X110617000Y-56832500D01*
X110624400Y-56222900D02*
X110624400Y-56825100D01*
X106236994Y-55010306D02*
X106324400Y-54922900D01*
X106319800Y-54927500D02*
X106324400Y-54922900D01*
X105156000Y-54927500D02*
X106319800Y-54927500D01*
D19*
X106323600Y-52972100D02*
X106324400Y-52972900D01*
X104013000Y-52972100D02*
X106323600Y-52972100D01*
X106324400Y-52972900D02*
X106324400Y-54922900D01*
X100367700Y-52972100D02*
X100355400Y-52984400D01*
X104013000Y-52972100D02*
X100367700Y-52972100D01*
X103759000Y-70421500D02*
X103784400Y-70446900D01*
X100190300Y-70421500D02*
X103759000Y-70421500D01*
X103784400Y-70446900D02*
X106146600Y-70446900D01*
X106146600Y-70446900D02*
X106146600Y-71746900D01*
X107971590Y-71746890D02*
X106146600Y-71746890D01*
X108296600Y-72071900D02*
X107971590Y-71746890D01*
X107321600Y-73046900D02*
X108296600Y-72071900D01*
X106146600Y-73046900D02*
X107321600Y-73046900D01*
D18*
X100854000Y-57565800D02*
X100355400Y-58064400D01*
X103936800Y-57565800D02*
X100854000Y-57565800D01*
X100355400Y-58064400D02*
X100355400Y-60871100D01*
X100743000Y-74948800D02*
X100190300Y-75501500D01*
X103644700Y-74948800D02*
X100743000Y-74948800D01*
X100152200Y-75539600D02*
X100190300Y-75501500D01*
X100152200Y-78498700D02*
X100152200Y-75539600D01*
D19*
X113318600Y-53622900D02*
X113334800Y-53606700D01*
X110624400Y-53622900D02*
X113318600Y-53622900D01*
X110624400Y-52972900D02*
X110624400Y-54272900D01*
X115709700Y-53606700D02*
X115722400Y-53594000D01*
X113334800Y-53606700D02*
X115709700Y-53606700D01*
X115494200Y-71095000D02*
X115519200Y-71120000D01*
X113169700Y-71095000D02*
X115494200Y-71095000D01*
X110448500Y-71095000D02*
X110446600Y-71096900D01*
X113169700Y-71095000D02*
X110448500Y-71095000D01*
X110446600Y-70446900D02*
X110446600Y-71746900D01*
D20*
X129413000Y-87503000D02*
X81407000Y-87503000D01*
X81407000Y-82329872D01*
X82855000Y-82329872D01*
X82855000Y-82770128D01*
X82940890Y-83201925D01*
X83109369Y-83608669D01*
X83353962Y-83974729D01*
X83665271Y-84286038D01*
X84031331Y-84530631D01*
X84438075Y-84699110D01*
X84869872Y-84785000D01*
X85310128Y-84785000D01*
X85741925Y-84699110D01*
X86148669Y-84530631D01*
X86514729Y-84286038D01*
X86826038Y-83974729D01*
X87070631Y-83608669D01*
X87100582Y-83536360D01*
X115728445Y-83536360D01*
X115790332Y-83772168D01*
X116032190Y-83885066D01*
X116291427Y-83948611D01*
X116558080Y-83960361D01*
X116821901Y-83919863D01*
X117072753Y-83828675D01*
X117178468Y-83772168D01*
X117240355Y-83536360D01*
X116484400Y-82780405D01*
X115728445Y-83536360D01*
X87100582Y-83536360D01*
X87239110Y-83201925D01*
X87325000Y-82770128D01*
X87325000Y-82674480D01*
X115124839Y-82674480D01*
X115165337Y-82938301D01*
X115256525Y-83189153D01*
X115313032Y-83294868D01*
X115548840Y-83356755D01*
X116304795Y-82600800D01*
X116664005Y-82600800D01*
X117419960Y-83356755D01*
X117655768Y-83294868D01*
X117768666Y-83053010D01*
X117832211Y-82793773D01*
X117843961Y-82527120D01*
X117813683Y-82329872D01*
X123495000Y-82329872D01*
X123495000Y-82770128D01*
X123580890Y-83201925D01*
X123749369Y-83608669D01*
X123993962Y-83974729D01*
X124305271Y-84286038D01*
X124671331Y-84530631D01*
X125078075Y-84699110D01*
X125509872Y-84785000D01*
X125950128Y-84785000D01*
X126381925Y-84699110D01*
X126788669Y-84530631D01*
X127154729Y-84286038D01*
X127466038Y-83974729D01*
X127710631Y-83608669D01*
X127879110Y-83201925D01*
X127965000Y-82770128D01*
X127965000Y-82329872D01*
X127879110Y-81898075D01*
X127710631Y-81491331D01*
X127466038Y-81125271D01*
X127154729Y-80813962D01*
X126788669Y-80569369D01*
X126381925Y-80400890D01*
X125950128Y-80315000D01*
X125509872Y-80315000D01*
X125078075Y-80400890D01*
X124671331Y-80569369D01*
X124305271Y-80813962D01*
X123993962Y-81125271D01*
X123749369Y-81491331D01*
X123580890Y-81898075D01*
X123495000Y-82329872D01*
X117813683Y-82329872D01*
X117803463Y-82263299D01*
X117712275Y-82012447D01*
X117655768Y-81906732D01*
X117419960Y-81844845D01*
X116664005Y-82600800D01*
X116304795Y-82600800D01*
X115548840Y-81844845D01*
X115313032Y-81906732D01*
X115200134Y-82148590D01*
X115136589Y-82407827D01*
X115124839Y-82674480D01*
X87325000Y-82674480D01*
X87325000Y-82329872D01*
X87239110Y-81898075D01*
X87070631Y-81491331D01*
X86826038Y-81125271D01*
X86697127Y-80996360D01*
X115728445Y-80996360D01*
X115790332Y-81232168D01*
X116006138Y-81332905D01*
X115896047Y-81372925D01*
X115790332Y-81429432D01*
X115728445Y-81665240D01*
X116484400Y-82421195D01*
X117240355Y-81665240D01*
X117178468Y-81429432D01*
X116962662Y-81328695D01*
X117072753Y-81288675D01*
X117178468Y-81232168D01*
X117240355Y-80996360D01*
X116484400Y-80240405D01*
X115728445Y-80996360D01*
X86697127Y-80996360D01*
X86514729Y-80813962D01*
X86148669Y-80569369D01*
X85741925Y-80400890D01*
X85310128Y-80315000D01*
X84869872Y-80315000D01*
X84438075Y-80400890D01*
X84031331Y-80569369D01*
X83665271Y-80813962D01*
X83353962Y-81125271D01*
X83109369Y-81491331D01*
X82940890Y-81898075D01*
X82855000Y-82329872D01*
X81407000Y-82329872D01*
X81407000Y-80134480D01*
X115124839Y-80134480D01*
X115165337Y-80398301D01*
X115256525Y-80649153D01*
X115313032Y-80754868D01*
X115548840Y-80816755D01*
X116304795Y-80060800D01*
X116664005Y-80060800D01*
X117419960Y-80816755D01*
X117655768Y-80754868D01*
X117768666Y-80513010D01*
X117832211Y-80253773D01*
X117843961Y-79987120D01*
X117803463Y-79723299D01*
X117712275Y-79472447D01*
X117655768Y-79366732D01*
X117419960Y-79304845D01*
X116664005Y-80060800D01*
X116304795Y-80060800D01*
X115548840Y-79304845D01*
X115313032Y-79366732D01*
X115200134Y-79608590D01*
X115136589Y-79867827D01*
X115124839Y-80134480D01*
X81407000Y-80134480D01*
X81407000Y-78650000D01*
X92455428Y-78650000D01*
X92467688Y-78774482D01*
X92503998Y-78894180D01*
X92562963Y-79004494D01*
X92642315Y-79101185D01*
X92739006Y-79180537D01*
X92849320Y-79239502D01*
X92969018Y-79275812D01*
X93093500Y-79288072D01*
X93757750Y-79285000D01*
X93916500Y-79126250D01*
X93916500Y-76702000D01*
X94170500Y-76702000D01*
X94170500Y-79126250D01*
X94329250Y-79285000D01*
X94993500Y-79288072D01*
X95117982Y-79275812D01*
X95237680Y-79239502D01*
X95347994Y-79180537D01*
X95444685Y-79101185D01*
X95524037Y-79004494D01*
X95583002Y-78894180D01*
X95619312Y-78774482D01*
X95631572Y-78650000D01*
X95628500Y-76860750D01*
X95469750Y-76702000D01*
X94170500Y-76702000D01*
X93916500Y-76702000D01*
X92617250Y-76702000D01*
X92458500Y-76860750D01*
X92455428Y-78650000D01*
X81407000Y-78650000D01*
X81407000Y-74500000D01*
X92455428Y-74500000D01*
X92458500Y-76289250D01*
X92617250Y-76448000D01*
X93916500Y-76448000D01*
X93916500Y-74023750D01*
X94170500Y-74023750D01*
X94170500Y-76448000D01*
X95469750Y-76448000D01*
X95628500Y-76289250D01*
X95631572Y-74500000D01*
X95619312Y-74375518D01*
X95583002Y-74255820D01*
X95524037Y-74145506D01*
X95444685Y-74048815D01*
X95347994Y-73969463D01*
X95237680Y-73910498D01*
X95117982Y-73874188D01*
X94993500Y-73861928D01*
X94329250Y-73865000D01*
X94170500Y-74023750D01*
X93916500Y-74023750D01*
X93757750Y-73865000D01*
X93093500Y-73861928D01*
X92969018Y-73874188D01*
X92849320Y-73910498D01*
X92739006Y-73969463D01*
X92642315Y-74048815D01*
X92562963Y-74145506D01*
X92503998Y-74255820D01*
X92467688Y-74375518D01*
X92455428Y-74500000D01*
X81407000Y-74500000D01*
X81407000Y-72199419D01*
X84933000Y-72199419D01*
X84933000Y-72580581D01*
X85007361Y-72954419D01*
X85153225Y-73306566D01*
X85364987Y-73623491D01*
X85634509Y-73893013D01*
X85951434Y-74104775D01*
X86303581Y-74250639D01*
X86677419Y-74325000D01*
X87058581Y-74325000D01*
X87432419Y-74250639D01*
X87784566Y-74104775D01*
X88101491Y-73893013D01*
X88371013Y-73623491D01*
X88582775Y-73306566D01*
X88728639Y-72954419D01*
X88803000Y-72580581D01*
X88803000Y-72199419D01*
X88728639Y-71825581D01*
X88582775Y-71473434D01*
X88371013Y-71156509D01*
X88101491Y-70886987D01*
X87784566Y-70675225D01*
X87432419Y-70529361D01*
X87058581Y-70455000D01*
X86677419Y-70455000D01*
X86303581Y-70529361D01*
X85951434Y-70675225D01*
X85634509Y-70886987D01*
X85364987Y-71156509D01*
X85153225Y-71473434D01*
X85007361Y-71825581D01*
X84933000Y-72199419D01*
X81407000Y-72199419D01*
X81407000Y-67800000D01*
X92455428Y-67800000D01*
X92455428Y-71450000D01*
X92472492Y-71623254D01*
X92523028Y-71789850D01*
X92605095Y-71943386D01*
X92715538Y-72077962D01*
X92850114Y-72188405D01*
X92999717Y-72268370D01*
X92995800Y-72288061D01*
X92995800Y-72491939D01*
X93035574Y-72691898D01*
X93113595Y-72880256D01*
X93226863Y-73049774D01*
X93371026Y-73193937D01*
X93540544Y-73307205D01*
X93728902Y-73385226D01*
X93928861Y-73425000D01*
X94132739Y-73425000D01*
X94332698Y-73385226D01*
X94521056Y-73307205D01*
X94690574Y-73193937D01*
X94834737Y-73049774D01*
X94948005Y-72880256D01*
X95026026Y-72691898D01*
X95065800Y-72491939D01*
X95065800Y-72288061D01*
X95063499Y-72276494D01*
X95083350Y-72270472D01*
X95236886Y-72188405D01*
X95371462Y-72077962D01*
X95481905Y-71943386D01*
X95563972Y-71789850D01*
X95614508Y-71623254D01*
X95631572Y-71450000D01*
X95631572Y-69521500D01*
X98652228Y-69521500D01*
X98652228Y-71321500D01*
X98664488Y-71445982D01*
X98700798Y-71565680D01*
X98759763Y-71675994D01*
X98839115Y-71772685D01*
X98935806Y-71852037D01*
X99046120Y-71911002D01*
X99064427Y-71916556D01*
X98997988Y-71982995D01*
X98830001Y-72234405D01*
X98714289Y-72513757D01*
X98655300Y-72810316D01*
X98655300Y-73112684D01*
X98714289Y-73409243D01*
X98830001Y-73688595D01*
X98997988Y-73940005D01*
X99211795Y-74153812D01*
X99328063Y-74231500D01*
X99211795Y-74309188D01*
X98997988Y-74522995D01*
X98830001Y-74774405D01*
X98714289Y-75053757D01*
X98655300Y-75350316D01*
X98655300Y-75652684D01*
X98714289Y-75949243D01*
X98830001Y-76228595D01*
X98997988Y-76480005D01*
X99211795Y-76693812D01*
X99392201Y-76814355D01*
X99392200Y-77265723D01*
X99308813Y-77310295D01*
X99174238Y-77420738D01*
X99063795Y-77555313D01*
X98981728Y-77708849D01*
X98931192Y-77875445D01*
X98914128Y-78048699D01*
X98914128Y-78948701D01*
X98931192Y-79121955D01*
X98981728Y-79288551D01*
X99063795Y-79442087D01*
X99174238Y-79576662D01*
X99308813Y-79687105D01*
X99462349Y-79769172D01*
X99628945Y-79819708D01*
X99802199Y-79836772D01*
X100502201Y-79836772D01*
X100675455Y-79819708D01*
X100842051Y-79769172D01*
X100995587Y-79687105D01*
X101076837Y-79620424D01*
X101101015Y-79649885D01*
X101197706Y-79729237D01*
X101308020Y-79788202D01*
X101427718Y-79824512D01*
X101552200Y-79836772D01*
X101866450Y-79833700D01*
X102025200Y-79674950D01*
X102025200Y-78625700D01*
X102279200Y-78625700D01*
X102279200Y-79674950D01*
X102437950Y-79833700D01*
X102752200Y-79836772D01*
X102876682Y-79824512D01*
X102996380Y-79788202D01*
X103106694Y-79729237D01*
X103203385Y-79649885D01*
X103282737Y-79553194D01*
X103341702Y-79442880D01*
X103378012Y-79323182D01*
X103390272Y-79198700D01*
X103387200Y-78784450D01*
X103228450Y-78625700D01*
X102279200Y-78625700D01*
X102025200Y-78625700D01*
X102005200Y-78625700D01*
X102005200Y-78371700D01*
X102025200Y-78371700D01*
X102025200Y-77322450D01*
X102279200Y-77322450D01*
X102279200Y-78371700D01*
X103228450Y-78371700D01*
X103387200Y-78212950D01*
X103390272Y-77798700D01*
X103378012Y-77674218D01*
X103341702Y-77554520D01*
X103282737Y-77444206D01*
X103236072Y-77387344D01*
X115129400Y-77387344D01*
X115129400Y-77654256D01*
X115181472Y-77916039D01*
X115283615Y-78162633D01*
X115431903Y-78384562D01*
X115620638Y-78573297D01*
X115842567Y-78721585D01*
X116010724Y-78791238D01*
X115896047Y-78832925D01*
X115790332Y-78889432D01*
X115728445Y-79125240D01*
X116484400Y-79881195D01*
X117240355Y-79125240D01*
X117178468Y-78889432D01*
X116963393Y-78789036D01*
X117126233Y-78721585D01*
X117348162Y-78573297D01*
X117536897Y-78384562D01*
X117685185Y-78162633D01*
X117787328Y-77916039D01*
X117839400Y-77654256D01*
X117839400Y-77387344D01*
X117787328Y-77125561D01*
X117685185Y-76878967D01*
X117536897Y-76657038D01*
X117348162Y-76468303D01*
X117126233Y-76320015D01*
X116879639Y-76217872D01*
X116617856Y-76165800D01*
X116350944Y-76165800D01*
X116089161Y-76217872D01*
X115842567Y-76320015D01*
X115620638Y-76468303D01*
X115431903Y-76657038D01*
X115283615Y-76878967D01*
X115181472Y-77125561D01*
X115129400Y-77387344D01*
X103236072Y-77387344D01*
X103203385Y-77347515D01*
X103106694Y-77268163D01*
X102996380Y-77209198D01*
X102876682Y-77172888D01*
X102752200Y-77160628D01*
X102437950Y-77163700D01*
X102279200Y-77322450D01*
X102025200Y-77322450D01*
X101866450Y-77163700D01*
X101552200Y-77160628D01*
X101427718Y-77172888D01*
X101308020Y-77209198D01*
X101197706Y-77268163D01*
X101101015Y-77347515D01*
X101076837Y-77376976D01*
X100995587Y-77310295D01*
X100912200Y-77265724D01*
X100912200Y-76863951D01*
X100917395Y-76861799D01*
X101168805Y-76693812D01*
X101382612Y-76480005D01*
X101402326Y-76450500D01*
X111183928Y-76450500D01*
X111196188Y-76574982D01*
X111232498Y-76694680D01*
X111291463Y-76804994D01*
X111370815Y-76901685D01*
X111467506Y-76981037D01*
X111577820Y-77040002D01*
X111697518Y-77076312D01*
X111822000Y-77088572D01*
X112236250Y-77085500D01*
X112395000Y-76926750D01*
X112395000Y-75977500D01*
X112649000Y-75977500D01*
X112649000Y-76926750D01*
X112807750Y-77085500D01*
X113222000Y-77088572D01*
X113346482Y-77076312D01*
X113466180Y-77040002D01*
X113576494Y-76981037D01*
X113673185Y-76901685D01*
X113752537Y-76804994D01*
X113811502Y-76694680D01*
X113847812Y-76574982D01*
X113860072Y-76450500D01*
X113857000Y-76136250D01*
X113698250Y-75977500D01*
X112649000Y-75977500D01*
X112395000Y-75977500D01*
X111345750Y-75977500D01*
X111187000Y-76136250D01*
X111183928Y-76450500D01*
X101402326Y-76450500D01*
X101550599Y-76228595D01*
X101666311Y-75949243D01*
X101714138Y-75708800D01*
X102411724Y-75708800D01*
X102456295Y-75792187D01*
X102566738Y-75926762D01*
X102701313Y-76037205D01*
X102854849Y-76119272D01*
X103021445Y-76169808D01*
X103194699Y-76186872D01*
X104094701Y-76186872D01*
X104267955Y-76169808D01*
X104434551Y-76119272D01*
X104588087Y-76037205D01*
X104722662Y-75926762D01*
X104833105Y-75792187D01*
X104915172Y-75638651D01*
X104965708Y-75472055D01*
X104982772Y-75298801D01*
X104982772Y-74598799D01*
X104965708Y-74425545D01*
X104925816Y-74294038D01*
X104977337Y-74354903D01*
X105075225Y-74432774D01*
X105186425Y-74490051D01*
X105306661Y-74524534D01*
X105431315Y-74534898D01*
X105860850Y-74531900D01*
X106019600Y-74373150D01*
X106019600Y-73923674D01*
X106103123Y-73931900D01*
X106273600Y-73931900D01*
X106273600Y-74373150D01*
X106432350Y-74531900D01*
X106861885Y-74534898D01*
X106986539Y-74524534D01*
X107106775Y-74490051D01*
X107217975Y-74432774D01*
X107315863Y-74354903D01*
X107396678Y-74259431D01*
X107457315Y-74150027D01*
X107462423Y-74134068D01*
X107471600Y-74134972D01*
X109121600Y-74134972D01*
X109167049Y-74130496D01*
X109207916Y-74206951D01*
X109299704Y-74318796D01*
X109411549Y-74410584D01*
X109539152Y-74478790D01*
X109677609Y-74520790D01*
X109821600Y-74534972D01*
X111071600Y-74534972D01*
X111215591Y-74520790D01*
X111243066Y-74512456D01*
X111251528Y-74540351D01*
X111333595Y-74693887D01*
X111400276Y-74775137D01*
X111370815Y-74799315D01*
X111291463Y-74896006D01*
X111232498Y-75006320D01*
X111196188Y-75126018D01*
X111183928Y-75250500D01*
X111187000Y-75564750D01*
X111345750Y-75723500D01*
X112395000Y-75723500D01*
X112395000Y-75703500D01*
X112649000Y-75703500D01*
X112649000Y-75723500D01*
X113698250Y-75723500D01*
X113857000Y-75564750D01*
X113860072Y-75250500D01*
X113847812Y-75126018D01*
X113838553Y-75095494D01*
X113956750Y-75158672D01*
X114123346Y-75209208D01*
X114296600Y-75226272D01*
X114971600Y-75226272D01*
X115144854Y-75209208D01*
X115311450Y-75158672D01*
X115464986Y-75076605D01*
X115599562Y-74966162D01*
X115604942Y-74959606D01*
X115670415Y-75039385D01*
X115767106Y-75118737D01*
X115877420Y-75177702D01*
X115997118Y-75214012D01*
X116121600Y-75226272D01*
X116423350Y-75223200D01*
X116582100Y-75064450D01*
X116582100Y-73990200D01*
X116836100Y-73990200D01*
X116836100Y-75064450D01*
X116994850Y-75223200D01*
X117296600Y-75226272D01*
X117421082Y-75214012D01*
X117540780Y-75177702D01*
X117651094Y-75118737D01*
X117747785Y-75039385D01*
X117827137Y-74942694D01*
X117886102Y-74832380D01*
X117922412Y-74712682D01*
X117934672Y-74588200D01*
X117931600Y-74148950D01*
X117772850Y-73990200D01*
X116836100Y-73990200D01*
X116582100Y-73990200D01*
X116562100Y-73990200D01*
X116562100Y-73736200D01*
X116582100Y-73736200D01*
X116582100Y-72661950D01*
X116836100Y-72661950D01*
X116836100Y-73736200D01*
X117772850Y-73736200D01*
X117931600Y-73577450D01*
X117934672Y-73138200D01*
X117922412Y-73013718D01*
X117886102Y-72894020D01*
X117827137Y-72783706D01*
X117747785Y-72687015D01*
X117651094Y-72607663D01*
X117540780Y-72548698D01*
X117421082Y-72512388D01*
X117296600Y-72500128D01*
X116994850Y-72503200D01*
X116836100Y-72661950D01*
X116582100Y-72661950D01*
X116423350Y-72503200D01*
X116121600Y-72500128D01*
X115997118Y-72512388D01*
X115877420Y-72548698D01*
X115767106Y-72607663D01*
X115670415Y-72687015D01*
X115604942Y-72766794D01*
X115599562Y-72760238D01*
X115464986Y-72649795D01*
X115311450Y-72567728D01*
X115144854Y-72517192D01*
X114971600Y-72500128D01*
X114296600Y-72500128D01*
X114123346Y-72517192D01*
X113956750Y-72567728D01*
X113803214Y-72649795D01*
X113668638Y-72760238D01*
X113585928Y-72861021D01*
X113465387Y-72762095D01*
X113311851Y-72680028D01*
X113145255Y-72629492D01*
X112972001Y-72612428D01*
X112358729Y-72612428D01*
X112282203Y-72535902D01*
X112258401Y-72506899D01*
X112142676Y-72411926D01*
X112112080Y-72395572D01*
X114269701Y-72395572D01*
X114442955Y-72378508D01*
X114609551Y-72327972D01*
X114763087Y-72245905D01*
X114897662Y-72135462D01*
X114996236Y-72015350D01*
X115028944Y-72037205D01*
X115217302Y-72115226D01*
X115417261Y-72155000D01*
X115621139Y-72155000D01*
X115821098Y-72115226D01*
X116009456Y-72037205D01*
X116178974Y-71923937D01*
X116323137Y-71779774D01*
X116436405Y-71610256D01*
X116514426Y-71421898D01*
X116554200Y-71221939D01*
X116554200Y-71018061D01*
X116536569Y-70929419D01*
X120848600Y-70929419D01*
X120848600Y-71310581D01*
X120922961Y-71684419D01*
X121068825Y-72036566D01*
X121280587Y-72353491D01*
X121550109Y-72623013D01*
X121867034Y-72834775D01*
X122219181Y-72980639D01*
X122593019Y-73055000D01*
X122974181Y-73055000D01*
X123348019Y-72980639D01*
X123700166Y-72834775D01*
X124017091Y-72623013D01*
X124286613Y-72353491D01*
X124498375Y-72036566D01*
X124644239Y-71684419D01*
X124718600Y-71310581D01*
X124718600Y-70929419D01*
X124644239Y-70555581D01*
X124498375Y-70203434D01*
X124286613Y-69886509D01*
X124017091Y-69616987D01*
X123700166Y-69405225D01*
X123348019Y-69259361D01*
X122974181Y-69185000D01*
X122593019Y-69185000D01*
X122219181Y-69259361D01*
X121867034Y-69405225D01*
X121550109Y-69616987D01*
X121280587Y-69886509D01*
X121068825Y-70203434D01*
X120922961Y-70555581D01*
X120848600Y-70929419D01*
X116536569Y-70929419D01*
X116514426Y-70818102D01*
X116436405Y-70629744D01*
X116323137Y-70460226D01*
X116178974Y-70316063D01*
X116009456Y-70202795D01*
X115821098Y-70124774D01*
X115621139Y-70085000D01*
X115417261Y-70085000D01*
X115217302Y-70124774D01*
X115028944Y-70202795D01*
X115018978Y-70209454D01*
X115008105Y-70189113D01*
X114897662Y-70054538D01*
X114763087Y-69944095D01*
X114609551Y-69862028D01*
X114442955Y-69811492D01*
X114269701Y-69794428D01*
X112069699Y-69794428D01*
X111896445Y-69811492D01*
X111729849Y-69862028D01*
X111656191Y-69901399D01*
X111593496Y-69825004D01*
X111481651Y-69733216D01*
X111354048Y-69665010D01*
X111215591Y-69623010D01*
X111071600Y-69608828D01*
X110732576Y-69608828D01*
X110620089Y-69574705D01*
X110446600Y-69557618D01*
X110273110Y-69574705D01*
X110160623Y-69608828D01*
X109821600Y-69608828D01*
X109677609Y-69623010D01*
X109539152Y-69665010D01*
X109411549Y-69733216D01*
X109299704Y-69825004D01*
X109207916Y-69936849D01*
X109167049Y-70013304D01*
X109121600Y-70008828D01*
X107471600Y-70008828D01*
X107426151Y-70013304D01*
X107385284Y-69936849D01*
X107293496Y-69825004D01*
X107181651Y-69733216D01*
X107054048Y-69665010D01*
X106915591Y-69623010D01*
X106771600Y-69608828D01*
X106432577Y-69608828D01*
X106320090Y-69574705D01*
X106190077Y-69561900D01*
X106190076Y-69561900D01*
X106146600Y-69557618D01*
X106103123Y-69561900D01*
X105183969Y-69561900D01*
X105172805Y-69541013D01*
X105062362Y-69406438D01*
X104927787Y-69295995D01*
X104774251Y-69213928D01*
X104607655Y-69163392D01*
X104434401Y-69146328D01*
X103134399Y-69146328D01*
X102961145Y-69163392D01*
X102794549Y-69213928D01*
X102641013Y-69295995D01*
X102506438Y-69406438D01*
X102399699Y-69536500D01*
X101728372Y-69536500D01*
X101728372Y-69521500D01*
X101716112Y-69397018D01*
X101679802Y-69277320D01*
X101620837Y-69167006D01*
X101541485Y-69070315D01*
X101444794Y-68990963D01*
X101334480Y-68931998D01*
X101214782Y-68895688D01*
X101090300Y-68883428D01*
X99290300Y-68883428D01*
X99165818Y-68895688D01*
X99046120Y-68931998D01*
X98935806Y-68990963D01*
X98839115Y-69070315D01*
X98759763Y-69167006D01*
X98700798Y-69277320D01*
X98664488Y-69397018D01*
X98652228Y-69521500D01*
X95631572Y-69521500D01*
X95631572Y-68632500D01*
X111181628Y-68632500D01*
X111193888Y-68756982D01*
X111230198Y-68876680D01*
X111289163Y-68986994D01*
X111368515Y-69083685D01*
X111465206Y-69163037D01*
X111575520Y-69222002D01*
X111695218Y-69258312D01*
X111819700Y-69270572D01*
X112883950Y-69267500D01*
X113042700Y-69108750D01*
X113042700Y-68097000D01*
X113296700Y-68097000D01*
X113296700Y-69108750D01*
X113455450Y-69267500D01*
X114519700Y-69270572D01*
X114644182Y-69258312D01*
X114763880Y-69222002D01*
X114874194Y-69163037D01*
X114970885Y-69083685D01*
X115050237Y-68986994D01*
X115109202Y-68876680D01*
X115145512Y-68756982D01*
X115157772Y-68632500D01*
X115154700Y-68255750D01*
X114995950Y-68097000D01*
X113296700Y-68097000D01*
X113042700Y-68097000D01*
X111343450Y-68097000D01*
X111184700Y-68255750D01*
X111181628Y-68632500D01*
X95631572Y-68632500D01*
X95631572Y-67984400D01*
X102246328Y-67984400D01*
X102258588Y-68108882D01*
X102294898Y-68228580D01*
X102353863Y-68338894D01*
X102433215Y-68435585D01*
X102529906Y-68514937D01*
X102640220Y-68573902D01*
X102759918Y-68610212D01*
X102884400Y-68622472D01*
X103498650Y-68619400D01*
X103657400Y-68460650D01*
X103657400Y-67448900D01*
X103911400Y-67448900D01*
X103911400Y-68460650D01*
X104070150Y-68619400D01*
X104684400Y-68622472D01*
X104808882Y-68610212D01*
X104928580Y-68573902D01*
X105038894Y-68514937D01*
X105135585Y-68435585D01*
X105214937Y-68338894D01*
X105273902Y-68228580D01*
X105310212Y-68108882D01*
X105322472Y-67984400D01*
X105319400Y-67607650D01*
X105160650Y-67448900D01*
X103911400Y-67448900D01*
X103657400Y-67448900D01*
X102408150Y-67448900D01*
X102249400Y-67607650D01*
X102246328Y-67984400D01*
X95631572Y-67984400D01*
X95631572Y-67800000D01*
X95614508Y-67626746D01*
X95563972Y-67460150D01*
X95482379Y-67307500D01*
X111181628Y-67307500D01*
X111184700Y-67684250D01*
X111343450Y-67843000D01*
X113042700Y-67843000D01*
X113042700Y-66831250D01*
X113296700Y-66831250D01*
X113296700Y-67843000D01*
X114995950Y-67843000D01*
X115154700Y-67684250D01*
X115157772Y-67307500D01*
X115145512Y-67183018D01*
X115109202Y-67063320D01*
X115050237Y-66953006D01*
X114970885Y-66856315D01*
X114874194Y-66776963D01*
X114763880Y-66717998D01*
X114644182Y-66681688D01*
X114519700Y-66669428D01*
X113455450Y-66672500D01*
X113296700Y-66831250D01*
X113042700Y-66831250D01*
X112883950Y-66672500D01*
X111819700Y-66669428D01*
X111695218Y-66681688D01*
X111575520Y-66717998D01*
X111465206Y-66776963D01*
X111368515Y-66856315D01*
X111289163Y-66953006D01*
X111230198Y-67063320D01*
X111193888Y-67183018D01*
X111181628Y-67307500D01*
X95482379Y-67307500D01*
X95481905Y-67306614D01*
X95371462Y-67172038D01*
X95236886Y-67061595D01*
X95083350Y-66979528D01*
X95003417Y-66955281D01*
X95026026Y-66900698D01*
X95065800Y-66700739D01*
X95065800Y-66496861D01*
X95026026Y-66296902D01*
X94948005Y-66108544D01*
X94834737Y-65939026D01*
X94690574Y-65794863D01*
X94521056Y-65681595D01*
X94332698Y-65603574D01*
X94132739Y-65563800D01*
X93928861Y-65563800D01*
X93728902Y-65603574D01*
X93540544Y-65681595D01*
X93371026Y-65794863D01*
X93226863Y-65939026D01*
X93113595Y-66108544D01*
X93035574Y-66296902D01*
X92995800Y-66496861D01*
X92995800Y-66700739D01*
X93035574Y-66900698D01*
X93061018Y-66962126D01*
X93003650Y-66979528D01*
X92850114Y-67061595D01*
X92715538Y-67172038D01*
X92605095Y-67306614D01*
X92523028Y-67460150D01*
X92472492Y-67626746D01*
X92455428Y-67800000D01*
X81407000Y-67800000D01*
X81407000Y-65484224D01*
X85698381Y-65484224D01*
X85830317Y-65779312D01*
X86171045Y-65950159D01*
X86538557Y-66051250D01*
X86918729Y-66078701D01*
X87296951Y-66031457D01*
X87658690Y-65911333D01*
X87905683Y-65779312D01*
X88037619Y-65484224D01*
X86868000Y-64314605D01*
X85698381Y-65484224D01*
X81407000Y-65484224D01*
X81407000Y-64185729D01*
X84924299Y-64185729D01*
X84971543Y-64563951D01*
X85091667Y-64925690D01*
X85223688Y-65172683D01*
X85518776Y-65304619D01*
X86688395Y-64135000D01*
X87047605Y-64135000D01*
X88217224Y-65304619D01*
X88328036Y-65255074D01*
X88285774Y-65357102D01*
X88246000Y-65557061D01*
X88246000Y-65760939D01*
X88285774Y-65960898D01*
X88363795Y-66149256D01*
X88477063Y-66318774D01*
X88621226Y-66462937D01*
X88790744Y-66576205D01*
X88979102Y-66654226D01*
X89179061Y-66694000D01*
X89382939Y-66694000D01*
X89582898Y-66654226D01*
X89771256Y-66576205D01*
X89819454Y-66544000D01*
X89904519Y-66544000D01*
X89960006Y-66589537D01*
X90070320Y-66648502D01*
X90190018Y-66684812D01*
X90314500Y-66697072D01*
X91314500Y-66697072D01*
X91438982Y-66684812D01*
X91558680Y-66648502D01*
X91668994Y-66589537D01*
X91765685Y-66510185D01*
X91845037Y-66413494D01*
X91904002Y-66303180D01*
X91940312Y-66183482D01*
X91952572Y-66059000D01*
X91952572Y-65259000D01*
X91940312Y-65134518D01*
X91904002Y-65014820D01*
X91845037Y-64904506D01*
X91765685Y-64807815D01*
X91668994Y-64728463D01*
X91558680Y-64669498D01*
X91438982Y-64633188D01*
X91314500Y-64620928D01*
X90314500Y-64620928D01*
X90190018Y-64633188D01*
X90070320Y-64669498D01*
X89960006Y-64728463D01*
X89904519Y-64774000D01*
X89819454Y-64774000D01*
X89771256Y-64741795D01*
X89582898Y-64663774D01*
X89382939Y-64624000D01*
X89179061Y-64624000D01*
X88979102Y-64663774D01*
X88790744Y-64741795D01*
X88689318Y-64809566D01*
X88784250Y-64464443D01*
X88811701Y-64084271D01*
X88806513Y-64042737D01*
X88979102Y-64114226D01*
X89179061Y-64154000D01*
X89382939Y-64154000D01*
X89582898Y-64114226D01*
X89771256Y-64036205D01*
X89819454Y-64004000D01*
X89904519Y-64004000D01*
X89960006Y-64049537D01*
X90070320Y-64108502D01*
X90190018Y-64144812D01*
X90314500Y-64157072D01*
X91314500Y-64157072D01*
X91438982Y-64144812D01*
X91558680Y-64108502D01*
X91668994Y-64049537D01*
X91765685Y-63970185D01*
X91845037Y-63873494D01*
X91904002Y-63763180D01*
X91940312Y-63643482D01*
X91952572Y-63519000D01*
X91952572Y-62719000D01*
X91940312Y-62594518D01*
X91904002Y-62474820D01*
X91845037Y-62364506D01*
X91765685Y-62267815D01*
X91668994Y-62188463D01*
X91558680Y-62129498D01*
X91438982Y-62093188D01*
X91314500Y-62080928D01*
X90314500Y-62080928D01*
X90190018Y-62093188D01*
X90070320Y-62129498D01*
X89960006Y-62188463D01*
X89904519Y-62234000D01*
X89819454Y-62234000D01*
X89771256Y-62201795D01*
X89582898Y-62123774D01*
X89382939Y-62084000D01*
X89179061Y-62084000D01*
X88979102Y-62123774D01*
X88790744Y-62201795D01*
X88621226Y-62315063D01*
X88477063Y-62459226D01*
X88363795Y-62628744D01*
X88285774Y-62817102D01*
X88253090Y-62981417D01*
X88217224Y-62965381D01*
X87047605Y-64135000D01*
X86688395Y-64135000D01*
X85518776Y-62965381D01*
X85223688Y-63097317D01*
X85052841Y-63438045D01*
X84951750Y-63805557D01*
X84924299Y-64185729D01*
X81407000Y-64185729D01*
X81407000Y-62785776D01*
X85698381Y-62785776D01*
X86868000Y-63955395D01*
X88037619Y-62785776D01*
X87905683Y-62490688D01*
X87564955Y-62319841D01*
X87197443Y-62218750D01*
X86817271Y-62191299D01*
X86439049Y-62238543D01*
X86077310Y-62358667D01*
X85830317Y-62490688D01*
X85698381Y-62785776D01*
X81407000Y-62785776D01*
X81407000Y-55689419D01*
X84933000Y-55689419D01*
X84933000Y-56070581D01*
X85007361Y-56444419D01*
X85153225Y-56796566D01*
X85364987Y-57113491D01*
X85634509Y-57383013D01*
X85951434Y-57594775D01*
X86303581Y-57740639D01*
X86677419Y-57815000D01*
X87058581Y-57815000D01*
X87432419Y-57740639D01*
X87784566Y-57594775D01*
X88101491Y-57383013D01*
X88127504Y-57357000D01*
X92518928Y-57357000D01*
X92518928Y-61007000D01*
X92535992Y-61180254D01*
X92586528Y-61346850D01*
X92668595Y-61500386D01*
X92779038Y-61634962D01*
X92913614Y-61745405D01*
X93067150Y-61827472D01*
X93233746Y-61878008D01*
X93247400Y-61879353D01*
X93247400Y-62783431D01*
X93243119Y-62826900D01*
X93247400Y-62870369D01*
X93247400Y-62870376D01*
X93248546Y-62882010D01*
X93260205Y-63000390D01*
X93265262Y-63017061D01*
X93310811Y-63167212D01*
X93392989Y-63320958D01*
X93503583Y-63455717D01*
X93537356Y-63483434D01*
X95826428Y-65772507D01*
X95826428Y-66059000D01*
X95838688Y-66183482D01*
X95874998Y-66303180D01*
X95933963Y-66413494D01*
X96013315Y-66510185D01*
X96110006Y-66589537D01*
X96220320Y-66648502D01*
X96340018Y-66684812D01*
X96464500Y-66697072D01*
X97464500Y-66697072D01*
X97588982Y-66684812D01*
X97672754Y-66659400D01*
X102246328Y-66659400D01*
X102249400Y-67036150D01*
X102408150Y-67194900D01*
X103657400Y-67194900D01*
X103657400Y-66183150D01*
X103911400Y-66183150D01*
X103911400Y-67194900D01*
X105160650Y-67194900D01*
X105319400Y-67036150D01*
X105322472Y-66659400D01*
X105310212Y-66534918D01*
X105273902Y-66415220D01*
X105214937Y-66304906D01*
X105135585Y-66208215D01*
X105038894Y-66128863D01*
X104928580Y-66069898D01*
X104808882Y-66033588D01*
X104684400Y-66021328D01*
X104070150Y-66024400D01*
X103911400Y-66183150D01*
X103657400Y-66183150D01*
X103498650Y-66024400D01*
X102884400Y-66021328D01*
X102759918Y-66033588D01*
X102640220Y-66069898D01*
X102529906Y-66128863D01*
X102433215Y-66208215D01*
X102353863Y-66304906D01*
X102294898Y-66415220D01*
X102258588Y-66534918D01*
X102246328Y-66659400D01*
X97672754Y-66659400D01*
X97708680Y-66648502D01*
X97818994Y-66589537D01*
X97915685Y-66510185D01*
X97995037Y-66413494D01*
X98054002Y-66303180D01*
X98090312Y-66183482D01*
X98102572Y-66059000D01*
X98102572Y-65299160D01*
X116033245Y-65299160D01*
X116095132Y-65534968D01*
X116336990Y-65647866D01*
X116596227Y-65711411D01*
X116862880Y-65723161D01*
X117126701Y-65682663D01*
X117377553Y-65591475D01*
X117483268Y-65534968D01*
X117545155Y-65299160D01*
X116789200Y-64543205D01*
X116033245Y-65299160D01*
X98102572Y-65299160D01*
X98102572Y-65259000D01*
X98090312Y-65134518D01*
X98054002Y-65014820D01*
X97995037Y-64904506D01*
X97915685Y-64807815D01*
X97818994Y-64728463D01*
X97708680Y-64669498D01*
X97588982Y-64633188D01*
X97464500Y-64620928D01*
X97178007Y-64620928D01*
X96994359Y-64437280D01*
X115429639Y-64437280D01*
X115470137Y-64701101D01*
X115561325Y-64951953D01*
X115617832Y-65057668D01*
X115853640Y-65119555D01*
X116609595Y-64363600D01*
X116968805Y-64363600D01*
X117724760Y-65119555D01*
X117960568Y-65057668D01*
X118073466Y-64815810D01*
X118137011Y-64556573D01*
X118148761Y-64289920D01*
X118108263Y-64026099D01*
X118017075Y-63775247D01*
X117960568Y-63669532D01*
X117724760Y-63607645D01*
X116968805Y-64363600D01*
X116609595Y-64363600D01*
X115853640Y-63607645D01*
X115617832Y-63669532D01*
X115504934Y-63911390D01*
X115441389Y-64170627D01*
X115429639Y-64437280D01*
X96994359Y-64437280D01*
X96714151Y-64157072D01*
X97464500Y-64157072D01*
X97588982Y-64144812D01*
X97708680Y-64108502D01*
X97818994Y-64049537D01*
X97915685Y-63970185D01*
X97995037Y-63873494D01*
X98054002Y-63763180D01*
X98090312Y-63643482D01*
X98102572Y-63519000D01*
X98102572Y-62759160D01*
X116033245Y-62759160D01*
X116095132Y-62994968D01*
X116310938Y-63095705D01*
X116200847Y-63135725D01*
X116095132Y-63192232D01*
X116033245Y-63428040D01*
X116789200Y-64183995D01*
X117545155Y-63428040D01*
X117491507Y-63223624D01*
X121563181Y-63223624D01*
X121695117Y-63518712D01*
X122035845Y-63689559D01*
X122403357Y-63790650D01*
X122783529Y-63818101D01*
X123161751Y-63770857D01*
X123523490Y-63650733D01*
X123770483Y-63518712D01*
X123902419Y-63223624D01*
X122732800Y-62054005D01*
X121563181Y-63223624D01*
X117491507Y-63223624D01*
X117483268Y-63192232D01*
X117267462Y-63091495D01*
X117377553Y-63051475D01*
X117483268Y-62994968D01*
X117545155Y-62759160D01*
X116789200Y-62003205D01*
X116033245Y-62759160D01*
X98102572Y-62759160D01*
X98102572Y-62719000D01*
X98090312Y-62594518D01*
X98054002Y-62474820D01*
X97995037Y-62364506D01*
X97915685Y-62267815D01*
X97818994Y-62188463D01*
X97708680Y-62129498D01*
X97588982Y-62093188D01*
X97464500Y-62080928D01*
X96464500Y-62080928D01*
X96340018Y-62093188D01*
X96220320Y-62129498D01*
X96157969Y-62162826D01*
X96121256Y-62138295D01*
X95932898Y-62060274D01*
X95732939Y-62020500D01*
X95529061Y-62020500D01*
X95329102Y-62060274D01*
X95140744Y-62138295D01*
X95017400Y-62220711D01*
X95017400Y-61866740D01*
X95146850Y-61827472D01*
X95300386Y-61745405D01*
X95434962Y-61634962D01*
X95545405Y-61500386D01*
X95627472Y-61346850D01*
X95678008Y-61180254D01*
X95695072Y-61007000D01*
X95695072Y-57357000D01*
X95678008Y-57183746D01*
X95627472Y-57017150D01*
X95545405Y-56863614D01*
X95434962Y-56729038D01*
X95300386Y-56618595D01*
X95147915Y-56537097D01*
X95167400Y-56439139D01*
X95167400Y-56235261D01*
X95127626Y-56035302D01*
X95049605Y-55846944D01*
X94936337Y-55677426D01*
X94792174Y-55533263D01*
X94622656Y-55419995D01*
X94434298Y-55341974D01*
X94234339Y-55302200D01*
X94030461Y-55302200D01*
X93830502Y-55341974D01*
X93642144Y-55419995D01*
X93472626Y-55533263D01*
X93328463Y-55677426D01*
X93215195Y-55846944D01*
X93137174Y-56035302D01*
X93097400Y-56235261D01*
X93097400Y-56439139D01*
X93113948Y-56522332D01*
X93067150Y-56536528D01*
X92913614Y-56618595D01*
X92779038Y-56729038D01*
X92668595Y-56863614D01*
X92586528Y-57017150D01*
X92535992Y-57183746D01*
X92518928Y-57357000D01*
X88127504Y-57357000D01*
X88371013Y-57113491D01*
X88582775Y-56796566D01*
X88728639Y-56444419D01*
X88803000Y-56070581D01*
X88803000Y-55689419D01*
X88728639Y-55315581D01*
X88582775Y-54963434D01*
X88371013Y-54646509D01*
X88101491Y-54376987D01*
X87996748Y-54307000D01*
X92518928Y-54307000D01*
X92531188Y-54431482D01*
X92567498Y-54551180D01*
X92626463Y-54661494D01*
X92705815Y-54758185D01*
X92802506Y-54837537D01*
X92912820Y-54896502D01*
X93032518Y-54932812D01*
X93157000Y-54945072D01*
X93821250Y-54942000D01*
X93980000Y-54783250D01*
X93980000Y-52359000D01*
X94234000Y-52359000D01*
X94234000Y-54783250D01*
X94392750Y-54942000D01*
X95057000Y-54945072D01*
X95181482Y-54932812D01*
X95301180Y-54896502D01*
X95411494Y-54837537D01*
X95508185Y-54758185D01*
X95587537Y-54661494D01*
X95646502Y-54551180D01*
X95682812Y-54431482D01*
X95695072Y-54307000D01*
X95692000Y-52517750D01*
X95533250Y-52359000D01*
X94234000Y-52359000D01*
X93980000Y-52359000D01*
X92680750Y-52359000D01*
X92522000Y-52517750D01*
X92518928Y-54307000D01*
X87996748Y-54307000D01*
X87784566Y-54165225D01*
X87432419Y-54019361D01*
X87058581Y-53945000D01*
X86677419Y-53945000D01*
X86303581Y-54019361D01*
X85951434Y-54165225D01*
X85634509Y-54376987D01*
X85364987Y-54646509D01*
X85153225Y-54963434D01*
X85007361Y-55315581D01*
X84933000Y-55689419D01*
X81407000Y-55689419D01*
X81407000Y-50157000D01*
X92518928Y-50157000D01*
X92522000Y-51946250D01*
X92680750Y-52105000D01*
X93980000Y-52105000D01*
X93980000Y-49680750D01*
X94234000Y-49680750D01*
X94234000Y-52105000D01*
X95533250Y-52105000D01*
X95553850Y-52084400D01*
X98817328Y-52084400D01*
X98817328Y-53884400D01*
X98829588Y-54008882D01*
X98865898Y-54128580D01*
X98924863Y-54238894D01*
X99004215Y-54335585D01*
X99100906Y-54414937D01*
X99211220Y-54473902D01*
X99229527Y-54479456D01*
X99163088Y-54545895D01*
X98995101Y-54797305D01*
X98879389Y-55076657D01*
X98820400Y-55373216D01*
X98820400Y-55675584D01*
X98879389Y-55972143D01*
X98995101Y-56251495D01*
X99163088Y-56502905D01*
X99376895Y-56716712D01*
X99493163Y-56794400D01*
X99376895Y-56872088D01*
X99163088Y-57085895D01*
X98995101Y-57337305D01*
X98879389Y-57616657D01*
X98820400Y-57913216D01*
X98820400Y-58215584D01*
X98879389Y-58512143D01*
X98995101Y-58791495D01*
X99163088Y-59042905D01*
X99376895Y-59256712D01*
X99595400Y-59402713D01*
X99595401Y-59638123D01*
X99512013Y-59682695D01*
X99377438Y-59793138D01*
X99266995Y-59927713D01*
X99184928Y-60081249D01*
X99134392Y-60247845D01*
X99117328Y-60421099D01*
X99117328Y-61321101D01*
X99134392Y-61494355D01*
X99184928Y-61660951D01*
X99266995Y-61814487D01*
X99377438Y-61949062D01*
X99512013Y-62059505D01*
X99665549Y-62141572D01*
X99832145Y-62192108D01*
X100005399Y-62209172D01*
X100705401Y-62209172D01*
X100878655Y-62192108D01*
X101045251Y-62141572D01*
X101198787Y-62059505D01*
X101280037Y-61992824D01*
X101304215Y-62022285D01*
X101400906Y-62101637D01*
X101511220Y-62160602D01*
X101630918Y-62196912D01*
X101755400Y-62209172D01*
X102069650Y-62206100D01*
X102228400Y-62047350D01*
X102228400Y-60998100D01*
X102482400Y-60998100D01*
X102482400Y-62047350D01*
X102641150Y-62206100D01*
X102955400Y-62209172D01*
X103079882Y-62196912D01*
X103199580Y-62160602D01*
X103309894Y-62101637D01*
X103406585Y-62022285D01*
X103485937Y-61925594D01*
X103501071Y-61897280D01*
X115429639Y-61897280D01*
X115470137Y-62161101D01*
X115561325Y-62411953D01*
X115617832Y-62517668D01*
X115853640Y-62579555D01*
X116609595Y-61823600D01*
X116968805Y-61823600D01*
X117724760Y-62579555D01*
X117960568Y-62517668D01*
X118073466Y-62275810D01*
X118137011Y-62016573D01*
X118141040Y-61925129D01*
X120789099Y-61925129D01*
X120836343Y-62303351D01*
X120956467Y-62665090D01*
X121088488Y-62912083D01*
X121383576Y-63044019D01*
X122553195Y-61874400D01*
X122912405Y-61874400D01*
X124082024Y-63044019D01*
X124377112Y-62912083D01*
X124547959Y-62571355D01*
X124649050Y-62203843D01*
X124676501Y-61823671D01*
X124629257Y-61445449D01*
X124509133Y-61083710D01*
X124377112Y-60836717D01*
X124082024Y-60704781D01*
X122912405Y-61874400D01*
X122553195Y-61874400D01*
X121383576Y-60704781D01*
X121088488Y-60836717D01*
X120917641Y-61177445D01*
X120816550Y-61544957D01*
X120789099Y-61925129D01*
X118141040Y-61925129D01*
X118148761Y-61749920D01*
X118108263Y-61486099D01*
X118017075Y-61235247D01*
X117960568Y-61129532D01*
X117724760Y-61067645D01*
X116968805Y-61823600D01*
X116609595Y-61823600D01*
X115853640Y-61067645D01*
X115617832Y-61129532D01*
X115504934Y-61371390D01*
X115441389Y-61630627D01*
X115429639Y-61897280D01*
X103501071Y-61897280D01*
X103544902Y-61815280D01*
X103581212Y-61695582D01*
X103593472Y-61571100D01*
X103590400Y-61156850D01*
X103431650Y-60998100D01*
X102482400Y-60998100D01*
X102228400Y-60998100D01*
X102208400Y-60998100D01*
X102208400Y-60744100D01*
X102228400Y-60744100D01*
X102228400Y-59694850D01*
X102482400Y-59694850D01*
X102482400Y-60744100D01*
X103431650Y-60744100D01*
X103590400Y-60585350D01*
X103593472Y-60171100D01*
X103581212Y-60046618D01*
X103544902Y-59926920D01*
X103485937Y-59816606D01*
X103406585Y-59719915D01*
X103309894Y-59640563D01*
X103199580Y-59581598D01*
X103079882Y-59545288D01*
X102955400Y-59533028D01*
X102641150Y-59536100D01*
X102482400Y-59694850D01*
X102228400Y-59694850D01*
X102069650Y-59536100D01*
X101755400Y-59533028D01*
X101630918Y-59545288D01*
X101511220Y-59581598D01*
X101400906Y-59640563D01*
X101304215Y-59719915D01*
X101280037Y-59749376D01*
X101198787Y-59682695D01*
X101115400Y-59638124D01*
X101115400Y-59402713D01*
X101333905Y-59256712D01*
X101440473Y-59150144D01*
X115434200Y-59150144D01*
X115434200Y-59417056D01*
X115486272Y-59678839D01*
X115588415Y-59925433D01*
X115736703Y-60147362D01*
X115925438Y-60336097D01*
X116147367Y-60484385D01*
X116315524Y-60554038D01*
X116200847Y-60595725D01*
X116095132Y-60652232D01*
X116033245Y-60888040D01*
X116789200Y-61643995D01*
X117545155Y-60888040D01*
X117483268Y-60652232D01*
X117268193Y-60551836D01*
X117332555Y-60525176D01*
X121563181Y-60525176D01*
X122732800Y-61694795D01*
X123902419Y-60525176D01*
X123770483Y-60230088D01*
X123429755Y-60059241D01*
X123062243Y-59958150D01*
X122682071Y-59930699D01*
X122303849Y-59977943D01*
X121942110Y-60098067D01*
X121695117Y-60230088D01*
X121563181Y-60525176D01*
X117332555Y-60525176D01*
X117431033Y-60484385D01*
X117652962Y-60336097D01*
X117841697Y-60147362D01*
X117989985Y-59925433D01*
X118092128Y-59678839D01*
X118144200Y-59417056D01*
X118144200Y-59150144D01*
X118092128Y-58888361D01*
X117989985Y-58641767D01*
X117841697Y-58419838D01*
X117652962Y-58231103D01*
X117431033Y-58082815D01*
X117184439Y-57980672D01*
X116922656Y-57928600D01*
X116655744Y-57928600D01*
X116393961Y-57980672D01*
X116147367Y-58082815D01*
X115925438Y-58231103D01*
X115736703Y-58419838D01*
X115588415Y-58641767D01*
X115486272Y-58888361D01*
X115434200Y-59150144D01*
X101440473Y-59150144D01*
X101547712Y-59042905D01*
X101715699Y-58791495D01*
X101831411Y-58512143D01*
X101868477Y-58325800D01*
X102703824Y-58325800D01*
X102748395Y-58409187D01*
X102858838Y-58543762D01*
X102993413Y-58654205D01*
X103146949Y-58736272D01*
X103313545Y-58786808D01*
X103486799Y-58803872D01*
X104386801Y-58803872D01*
X104560055Y-58786808D01*
X104726651Y-58736272D01*
X104880187Y-58654205D01*
X105014762Y-58543762D01*
X105125205Y-58409187D01*
X105207272Y-58255651D01*
X105216266Y-58226000D01*
X111628428Y-58226000D01*
X111640688Y-58350482D01*
X111676998Y-58470180D01*
X111735963Y-58580494D01*
X111815315Y-58677185D01*
X111912006Y-58756537D01*
X112022320Y-58815502D01*
X112142018Y-58851812D01*
X112266500Y-58864072D01*
X112680750Y-58861000D01*
X112839500Y-58702250D01*
X112839500Y-57753000D01*
X113093500Y-57753000D01*
X113093500Y-58702250D01*
X113252250Y-58861000D01*
X113666500Y-58864072D01*
X113790982Y-58851812D01*
X113910680Y-58815502D01*
X114020994Y-58756537D01*
X114117685Y-58677185D01*
X114197037Y-58580494D01*
X114256002Y-58470180D01*
X114292312Y-58350482D01*
X114304572Y-58226000D01*
X114301500Y-57911750D01*
X114142750Y-57753000D01*
X113093500Y-57753000D01*
X112839500Y-57753000D01*
X111790250Y-57753000D01*
X111631500Y-57911750D01*
X111628428Y-58226000D01*
X105216266Y-58226000D01*
X105257808Y-58089055D01*
X105274872Y-57915801D01*
X105274872Y-57215799D01*
X105257808Y-57042545D01*
X105225835Y-56937144D01*
X105253025Y-56958774D01*
X105364225Y-57016051D01*
X105484461Y-57050534D01*
X105609115Y-57060898D01*
X106038650Y-57057900D01*
X106197400Y-56899150D01*
X106197400Y-56410972D01*
X106451400Y-56410972D01*
X106451400Y-56899150D01*
X106610150Y-57057900D01*
X107039685Y-57060898D01*
X107164339Y-57050534D01*
X107284575Y-57016051D01*
X107395775Y-56958774D01*
X107493663Y-56880903D01*
X107574478Y-56785431D01*
X107635115Y-56676027D01*
X107640223Y-56660068D01*
X107649400Y-56660972D01*
X108188650Y-56657900D01*
X108347400Y-56499150D01*
X108347400Y-54724900D01*
X108327400Y-54724900D01*
X108327400Y-54470900D01*
X108347400Y-54470900D01*
X108347400Y-52696650D01*
X108601400Y-52696650D01*
X108601400Y-54470900D01*
X108621400Y-54470900D01*
X108621400Y-54724900D01*
X108601400Y-54724900D01*
X108601400Y-56499150D01*
X108760150Y-56657900D01*
X109299400Y-56660972D01*
X109344849Y-56656496D01*
X109385716Y-56732951D01*
X109477504Y-56844796D01*
X109589349Y-56936584D01*
X109695693Y-56993427D01*
X109717932Y-57105229D01*
X109788414Y-57275389D01*
X109890738Y-57428528D01*
X110020972Y-57558762D01*
X110174111Y-57661086D01*
X110344271Y-57731568D01*
X110524911Y-57767500D01*
X110709089Y-57767500D01*
X110889729Y-57731568D01*
X111059889Y-57661086D01*
X111213028Y-57558762D01*
X111343262Y-57428528D01*
X111445586Y-57275389D01*
X111516068Y-57105229D01*
X111536546Y-57002279D01*
X111636000Y-56949119D01*
X111628428Y-57026000D01*
X111631500Y-57340250D01*
X111790250Y-57499000D01*
X112839500Y-57499000D01*
X112839500Y-57479000D01*
X113093500Y-57479000D01*
X113093500Y-57499000D01*
X114142750Y-57499000D01*
X114301500Y-57340250D01*
X114304572Y-57026000D01*
X114296067Y-56939648D01*
X114402746Y-56972008D01*
X114576000Y-56989072D01*
X115251000Y-56989072D01*
X115424254Y-56972008D01*
X115590850Y-56921472D01*
X115744386Y-56839405D01*
X115878962Y-56728962D01*
X115884342Y-56722406D01*
X115949815Y-56802185D01*
X116046506Y-56881537D01*
X116156820Y-56940502D01*
X116276518Y-56976812D01*
X116401000Y-56989072D01*
X116702750Y-56986000D01*
X116861500Y-56827250D01*
X116861500Y-55753000D01*
X117115500Y-55753000D01*
X117115500Y-56827250D01*
X117274250Y-56986000D01*
X117576000Y-56989072D01*
X117700482Y-56976812D01*
X117820180Y-56940502D01*
X117930494Y-56881537D01*
X118027185Y-56802185D01*
X118106537Y-56705494D01*
X118165502Y-56595180D01*
X118201812Y-56475482D01*
X118214072Y-56351000D01*
X118211000Y-55911750D01*
X118052250Y-55753000D01*
X117115500Y-55753000D01*
X116861500Y-55753000D01*
X116841500Y-55753000D01*
X116841500Y-55499000D01*
X116861500Y-55499000D01*
X116861500Y-54424750D01*
X117115500Y-54424750D01*
X117115500Y-55499000D01*
X118052250Y-55499000D01*
X118211000Y-55340250D01*
X118214072Y-54901000D01*
X118201812Y-54776518D01*
X118165502Y-54656820D01*
X118106537Y-54546506D01*
X118027185Y-54449815D01*
X117930494Y-54370463D01*
X117820180Y-54311498D01*
X117700482Y-54275188D01*
X117576000Y-54262928D01*
X117274250Y-54266000D01*
X117115500Y-54424750D01*
X116861500Y-54424750D01*
X116702750Y-54266000D01*
X116516012Y-54264099D01*
X116526337Y-54253774D01*
X116639605Y-54084256D01*
X116717626Y-53895898D01*
X116757400Y-53695939D01*
X116757400Y-53492061D01*
X116739769Y-53403419D01*
X120797800Y-53403419D01*
X120797800Y-53784581D01*
X120872161Y-54158419D01*
X121018025Y-54510566D01*
X121229787Y-54827491D01*
X121499309Y-55097013D01*
X121816234Y-55308775D01*
X122168381Y-55454639D01*
X122542219Y-55529000D01*
X122923381Y-55529000D01*
X123297219Y-55454639D01*
X123649366Y-55308775D01*
X123966291Y-55097013D01*
X124235813Y-54827491D01*
X124447575Y-54510566D01*
X124593439Y-54158419D01*
X124667800Y-53784581D01*
X124667800Y-53403419D01*
X124593439Y-53029581D01*
X124447575Y-52677434D01*
X124235813Y-52360509D01*
X123966291Y-52090987D01*
X123649366Y-51879225D01*
X123297219Y-51733361D01*
X122923381Y-51659000D01*
X122542219Y-51659000D01*
X122168381Y-51733361D01*
X121816234Y-51879225D01*
X121499309Y-52090987D01*
X121229787Y-52360509D01*
X121018025Y-52677434D01*
X120872161Y-53029581D01*
X120797800Y-53403419D01*
X116739769Y-53403419D01*
X116717626Y-53292102D01*
X116639605Y-53103744D01*
X116526337Y-52934226D01*
X116382174Y-52790063D01*
X116212656Y-52676795D01*
X116024298Y-52598774D01*
X115824339Y-52559000D01*
X115620461Y-52559000D01*
X115420502Y-52598774D01*
X115232144Y-52676795D01*
X115179256Y-52712134D01*
X115173205Y-52700813D01*
X115062762Y-52566238D01*
X114928187Y-52455795D01*
X114774651Y-52373728D01*
X114608055Y-52323192D01*
X114434801Y-52306128D01*
X112234799Y-52306128D01*
X112061545Y-52323192D01*
X111894949Y-52373728D01*
X111821962Y-52412741D01*
X111771296Y-52351004D01*
X111659451Y-52259216D01*
X111531848Y-52191010D01*
X111393391Y-52149010D01*
X111249400Y-52134828D01*
X110910376Y-52134828D01*
X110797889Y-52100705D01*
X110624400Y-52083618D01*
X110450910Y-52100705D01*
X110338423Y-52134828D01*
X109999400Y-52134828D01*
X109855409Y-52149010D01*
X109716952Y-52191010D01*
X109589349Y-52259216D01*
X109477504Y-52351004D01*
X109385716Y-52462849D01*
X109344849Y-52539304D01*
X109299400Y-52534828D01*
X108760150Y-52537900D01*
X108601400Y-52696650D01*
X108347400Y-52696650D01*
X108188650Y-52537900D01*
X107649400Y-52534828D01*
X107603951Y-52539304D01*
X107563084Y-52462849D01*
X107471296Y-52351004D01*
X107359451Y-52259216D01*
X107231848Y-52191010D01*
X107093391Y-52149010D01*
X106949400Y-52134828D01*
X106612214Y-52134828D01*
X106497090Y-52099905D01*
X106367077Y-52087100D01*
X106367069Y-52087100D01*
X106323600Y-52082819D01*
X106280131Y-52087100D01*
X105412569Y-52087100D01*
X105401405Y-52066213D01*
X105290962Y-51931638D01*
X105156387Y-51821195D01*
X105002851Y-51739128D01*
X104836255Y-51688592D01*
X104663001Y-51671528D01*
X103362999Y-51671528D01*
X103189745Y-51688592D01*
X103023149Y-51739128D01*
X102869613Y-51821195D01*
X102735038Y-51931638D01*
X102624595Y-52066213D01*
X102613431Y-52087100D01*
X101893472Y-52087100D01*
X101893472Y-52084400D01*
X101881212Y-51959918D01*
X101844902Y-51840220D01*
X101785937Y-51729906D01*
X101706585Y-51633215D01*
X101609894Y-51553863D01*
X101499580Y-51494898D01*
X101379882Y-51458588D01*
X101255400Y-51446328D01*
X99455400Y-51446328D01*
X99330918Y-51458588D01*
X99211220Y-51494898D01*
X99100906Y-51553863D01*
X99004215Y-51633215D01*
X98924863Y-51729906D01*
X98865898Y-51840220D01*
X98829588Y-51959918D01*
X98817328Y-52084400D01*
X95553850Y-52084400D01*
X95692000Y-51946250D01*
X95694466Y-50509600D01*
X102474928Y-50509600D01*
X102487188Y-50634082D01*
X102523498Y-50753780D01*
X102582463Y-50864094D01*
X102661815Y-50960785D01*
X102758506Y-51040137D01*
X102868820Y-51099102D01*
X102988518Y-51135412D01*
X103113000Y-51147672D01*
X103727250Y-51144600D01*
X103886000Y-50985850D01*
X103886000Y-49974100D01*
X104140000Y-49974100D01*
X104140000Y-50985850D01*
X104298750Y-51144600D01*
X104913000Y-51147672D01*
X104948252Y-51144200D01*
X111346728Y-51144200D01*
X111358988Y-51268682D01*
X111395298Y-51388380D01*
X111454263Y-51498694D01*
X111533615Y-51595385D01*
X111630306Y-51674737D01*
X111740620Y-51733702D01*
X111860318Y-51770012D01*
X111984800Y-51782272D01*
X113049050Y-51779200D01*
X113207800Y-51620450D01*
X113207800Y-50608700D01*
X113461800Y-50608700D01*
X113461800Y-51620450D01*
X113620550Y-51779200D01*
X114684800Y-51782272D01*
X114809282Y-51770012D01*
X114928980Y-51733702D01*
X115039294Y-51674737D01*
X115135985Y-51595385D01*
X115215337Y-51498694D01*
X115274302Y-51388380D01*
X115310612Y-51268682D01*
X115322872Y-51144200D01*
X115319800Y-50767450D01*
X115161050Y-50608700D01*
X113461800Y-50608700D01*
X113207800Y-50608700D01*
X111508550Y-50608700D01*
X111349800Y-50767450D01*
X111346728Y-51144200D01*
X104948252Y-51144200D01*
X105037482Y-51135412D01*
X105157180Y-51099102D01*
X105267494Y-51040137D01*
X105364185Y-50960785D01*
X105443537Y-50864094D01*
X105502502Y-50753780D01*
X105538812Y-50634082D01*
X105551072Y-50509600D01*
X105548000Y-50132850D01*
X105389250Y-49974100D01*
X104140000Y-49974100D01*
X103886000Y-49974100D01*
X102636750Y-49974100D01*
X102478000Y-50132850D01*
X102474928Y-50509600D01*
X95694466Y-50509600D01*
X95695072Y-50157000D01*
X95682812Y-50032518D01*
X95646502Y-49912820D01*
X95596461Y-49819200D01*
X111346728Y-49819200D01*
X111349800Y-50195950D01*
X111508550Y-50354700D01*
X113207800Y-50354700D01*
X113207800Y-49342950D01*
X113461800Y-49342950D01*
X113461800Y-50354700D01*
X115161050Y-50354700D01*
X115319800Y-50195950D01*
X115322872Y-49819200D01*
X115310612Y-49694718D01*
X115274302Y-49575020D01*
X115215337Y-49464706D01*
X115135985Y-49368015D01*
X115039294Y-49288663D01*
X114928980Y-49229698D01*
X114809282Y-49193388D01*
X114684800Y-49181128D01*
X113620550Y-49184200D01*
X113461800Y-49342950D01*
X113207800Y-49342950D01*
X113049050Y-49184200D01*
X111984800Y-49181128D01*
X111860318Y-49193388D01*
X111740620Y-49229698D01*
X111630306Y-49288663D01*
X111533615Y-49368015D01*
X111454263Y-49464706D01*
X111395298Y-49575020D01*
X111358988Y-49694718D01*
X111346728Y-49819200D01*
X95596461Y-49819200D01*
X95587537Y-49802506D01*
X95508185Y-49705815D01*
X95411494Y-49626463D01*
X95301180Y-49567498D01*
X95181482Y-49531188D01*
X95057000Y-49518928D01*
X94392750Y-49522000D01*
X94234000Y-49680750D01*
X93980000Y-49680750D01*
X93821250Y-49522000D01*
X93157000Y-49518928D01*
X93032518Y-49531188D01*
X92912820Y-49567498D01*
X92802506Y-49626463D01*
X92705815Y-49705815D01*
X92626463Y-49802506D01*
X92567498Y-49912820D01*
X92531188Y-50032518D01*
X92518928Y-50157000D01*
X81407000Y-50157000D01*
X81407000Y-49184600D01*
X102474928Y-49184600D01*
X102478000Y-49561350D01*
X102636750Y-49720100D01*
X103886000Y-49720100D01*
X103886000Y-48708350D01*
X104140000Y-48708350D01*
X104140000Y-49720100D01*
X105389250Y-49720100D01*
X105548000Y-49561350D01*
X105551072Y-49184600D01*
X105538812Y-49060118D01*
X105502502Y-48940420D01*
X105443537Y-48830106D01*
X105364185Y-48733415D01*
X105267494Y-48654063D01*
X105157180Y-48595098D01*
X105037482Y-48558788D01*
X104913000Y-48546528D01*
X104298750Y-48549600D01*
X104140000Y-48708350D01*
X103886000Y-48708350D01*
X103727250Y-48549600D01*
X103113000Y-48546528D01*
X102988518Y-48558788D01*
X102868820Y-48595098D01*
X102758506Y-48654063D01*
X102661815Y-48733415D01*
X102582463Y-48830106D01*
X102523498Y-48940420D01*
X102487188Y-49060118D01*
X102474928Y-49184600D01*
X81407000Y-49184600D01*
X81407000Y-45499872D01*
X82855000Y-45499872D01*
X82855000Y-45940128D01*
X82940890Y-46371925D01*
X83109369Y-46778669D01*
X83353962Y-47144729D01*
X83665271Y-47456038D01*
X84031331Y-47700631D01*
X84438075Y-47869110D01*
X84869872Y-47955000D01*
X85310128Y-47955000D01*
X85741925Y-47869110D01*
X86148669Y-47700631D01*
X86514729Y-47456038D01*
X86826038Y-47144729D01*
X87070631Y-46778669D01*
X87239110Y-46371925D01*
X87325000Y-45940128D01*
X87325000Y-45499872D01*
X123495000Y-45499872D01*
X123495000Y-45940128D01*
X123580890Y-46371925D01*
X123749369Y-46778669D01*
X123993962Y-47144729D01*
X124305271Y-47456038D01*
X124671331Y-47700631D01*
X125078075Y-47869110D01*
X125509872Y-47955000D01*
X125950128Y-47955000D01*
X126381925Y-47869110D01*
X126788669Y-47700631D01*
X127154729Y-47456038D01*
X127466038Y-47144729D01*
X127710631Y-46778669D01*
X127879110Y-46371925D01*
X127965000Y-45940128D01*
X127965000Y-45499872D01*
X127879110Y-45068075D01*
X127710631Y-44661331D01*
X127466038Y-44295271D01*
X127154729Y-43983962D01*
X126788669Y-43739369D01*
X126381925Y-43570890D01*
X125950128Y-43485000D01*
X125509872Y-43485000D01*
X125078075Y-43570890D01*
X124671331Y-43739369D01*
X124305271Y-43983962D01*
X123993962Y-44295271D01*
X123749369Y-44661331D01*
X123580890Y-45068075D01*
X123495000Y-45499872D01*
X87325000Y-45499872D01*
X87239110Y-45068075D01*
X87070631Y-44661331D01*
X86826038Y-44295271D01*
X86514729Y-43983962D01*
X86148669Y-43739369D01*
X85741925Y-43570890D01*
X85310128Y-43485000D01*
X84869872Y-43485000D01*
X84438075Y-43570890D01*
X84031331Y-43739369D01*
X83665271Y-43983962D01*
X83353962Y-44295271D01*
X83109369Y-44661331D01*
X82940890Y-45068075D01*
X82855000Y-45499872D01*
X81407000Y-45499872D01*
X81407000Y-41402000D01*
X129413000Y-41402000D01*
X129413000Y-87503000D01*
G04 #@! TA.AperFunction,Conductor*
D21*
G36*
X129413000Y-87503000D02*
G01*
X81407000Y-87503000D01*
X81407000Y-82329872D01*
X82855000Y-82329872D01*
X82855000Y-82770128D01*
X82940890Y-83201925D01*
X83109369Y-83608669D01*
X83353962Y-83974729D01*
X83665271Y-84286038D01*
X84031331Y-84530631D01*
X84438075Y-84699110D01*
X84869872Y-84785000D01*
X85310128Y-84785000D01*
X85741925Y-84699110D01*
X86148669Y-84530631D01*
X86514729Y-84286038D01*
X86826038Y-83974729D01*
X87070631Y-83608669D01*
X87100582Y-83536360D01*
X115728445Y-83536360D01*
X115790332Y-83772168D01*
X116032190Y-83885066D01*
X116291427Y-83948611D01*
X116558080Y-83960361D01*
X116821901Y-83919863D01*
X117072753Y-83828675D01*
X117178468Y-83772168D01*
X117240355Y-83536360D01*
X116484400Y-82780405D01*
X115728445Y-83536360D01*
X87100582Y-83536360D01*
X87239110Y-83201925D01*
X87325000Y-82770128D01*
X87325000Y-82674480D01*
X115124839Y-82674480D01*
X115165337Y-82938301D01*
X115256525Y-83189153D01*
X115313032Y-83294868D01*
X115548840Y-83356755D01*
X116304795Y-82600800D01*
X116664005Y-82600800D01*
X117419960Y-83356755D01*
X117655768Y-83294868D01*
X117768666Y-83053010D01*
X117832211Y-82793773D01*
X117843961Y-82527120D01*
X117813683Y-82329872D01*
X123495000Y-82329872D01*
X123495000Y-82770128D01*
X123580890Y-83201925D01*
X123749369Y-83608669D01*
X123993962Y-83974729D01*
X124305271Y-84286038D01*
X124671331Y-84530631D01*
X125078075Y-84699110D01*
X125509872Y-84785000D01*
X125950128Y-84785000D01*
X126381925Y-84699110D01*
X126788669Y-84530631D01*
X127154729Y-84286038D01*
X127466038Y-83974729D01*
X127710631Y-83608669D01*
X127879110Y-83201925D01*
X127965000Y-82770128D01*
X127965000Y-82329872D01*
X127879110Y-81898075D01*
X127710631Y-81491331D01*
X127466038Y-81125271D01*
X127154729Y-80813962D01*
X126788669Y-80569369D01*
X126381925Y-80400890D01*
X125950128Y-80315000D01*
X125509872Y-80315000D01*
X125078075Y-80400890D01*
X124671331Y-80569369D01*
X124305271Y-80813962D01*
X123993962Y-81125271D01*
X123749369Y-81491331D01*
X123580890Y-81898075D01*
X123495000Y-82329872D01*
X117813683Y-82329872D01*
X117803463Y-82263299D01*
X117712275Y-82012447D01*
X117655768Y-81906732D01*
X117419960Y-81844845D01*
X116664005Y-82600800D01*
X116304795Y-82600800D01*
X115548840Y-81844845D01*
X115313032Y-81906732D01*
X115200134Y-82148590D01*
X115136589Y-82407827D01*
X115124839Y-82674480D01*
X87325000Y-82674480D01*
X87325000Y-82329872D01*
X87239110Y-81898075D01*
X87070631Y-81491331D01*
X86826038Y-81125271D01*
X86697127Y-80996360D01*
X115728445Y-80996360D01*
X115790332Y-81232168D01*
X116006138Y-81332905D01*
X115896047Y-81372925D01*
X115790332Y-81429432D01*
X115728445Y-81665240D01*
X116484400Y-82421195D01*
X117240355Y-81665240D01*
X117178468Y-81429432D01*
X116962662Y-81328695D01*
X117072753Y-81288675D01*
X117178468Y-81232168D01*
X117240355Y-80996360D01*
X116484400Y-80240405D01*
X115728445Y-80996360D01*
X86697127Y-80996360D01*
X86514729Y-80813962D01*
X86148669Y-80569369D01*
X85741925Y-80400890D01*
X85310128Y-80315000D01*
X84869872Y-80315000D01*
X84438075Y-80400890D01*
X84031331Y-80569369D01*
X83665271Y-80813962D01*
X83353962Y-81125271D01*
X83109369Y-81491331D01*
X82940890Y-81898075D01*
X82855000Y-82329872D01*
X81407000Y-82329872D01*
X81407000Y-80134480D01*
X115124839Y-80134480D01*
X115165337Y-80398301D01*
X115256525Y-80649153D01*
X115313032Y-80754868D01*
X115548840Y-80816755D01*
X116304795Y-80060800D01*
X116664005Y-80060800D01*
X117419960Y-80816755D01*
X117655768Y-80754868D01*
X117768666Y-80513010D01*
X117832211Y-80253773D01*
X117843961Y-79987120D01*
X117803463Y-79723299D01*
X117712275Y-79472447D01*
X117655768Y-79366732D01*
X117419960Y-79304845D01*
X116664005Y-80060800D01*
X116304795Y-80060800D01*
X115548840Y-79304845D01*
X115313032Y-79366732D01*
X115200134Y-79608590D01*
X115136589Y-79867827D01*
X115124839Y-80134480D01*
X81407000Y-80134480D01*
X81407000Y-78650000D01*
X92455428Y-78650000D01*
X92467688Y-78774482D01*
X92503998Y-78894180D01*
X92562963Y-79004494D01*
X92642315Y-79101185D01*
X92739006Y-79180537D01*
X92849320Y-79239502D01*
X92969018Y-79275812D01*
X93093500Y-79288072D01*
X93757750Y-79285000D01*
X93916500Y-79126250D01*
X93916500Y-76702000D01*
X94170500Y-76702000D01*
X94170500Y-79126250D01*
X94329250Y-79285000D01*
X94993500Y-79288072D01*
X95117982Y-79275812D01*
X95237680Y-79239502D01*
X95347994Y-79180537D01*
X95444685Y-79101185D01*
X95524037Y-79004494D01*
X95583002Y-78894180D01*
X95619312Y-78774482D01*
X95631572Y-78650000D01*
X95628500Y-76860750D01*
X95469750Y-76702000D01*
X94170500Y-76702000D01*
X93916500Y-76702000D01*
X92617250Y-76702000D01*
X92458500Y-76860750D01*
X92455428Y-78650000D01*
X81407000Y-78650000D01*
X81407000Y-74500000D01*
X92455428Y-74500000D01*
X92458500Y-76289250D01*
X92617250Y-76448000D01*
X93916500Y-76448000D01*
X93916500Y-74023750D01*
X94170500Y-74023750D01*
X94170500Y-76448000D01*
X95469750Y-76448000D01*
X95628500Y-76289250D01*
X95631572Y-74500000D01*
X95619312Y-74375518D01*
X95583002Y-74255820D01*
X95524037Y-74145506D01*
X95444685Y-74048815D01*
X95347994Y-73969463D01*
X95237680Y-73910498D01*
X95117982Y-73874188D01*
X94993500Y-73861928D01*
X94329250Y-73865000D01*
X94170500Y-74023750D01*
X93916500Y-74023750D01*
X93757750Y-73865000D01*
X93093500Y-73861928D01*
X92969018Y-73874188D01*
X92849320Y-73910498D01*
X92739006Y-73969463D01*
X92642315Y-74048815D01*
X92562963Y-74145506D01*
X92503998Y-74255820D01*
X92467688Y-74375518D01*
X92455428Y-74500000D01*
X81407000Y-74500000D01*
X81407000Y-72199419D01*
X84933000Y-72199419D01*
X84933000Y-72580581D01*
X85007361Y-72954419D01*
X85153225Y-73306566D01*
X85364987Y-73623491D01*
X85634509Y-73893013D01*
X85951434Y-74104775D01*
X86303581Y-74250639D01*
X86677419Y-74325000D01*
X87058581Y-74325000D01*
X87432419Y-74250639D01*
X87784566Y-74104775D01*
X88101491Y-73893013D01*
X88371013Y-73623491D01*
X88582775Y-73306566D01*
X88728639Y-72954419D01*
X88803000Y-72580581D01*
X88803000Y-72199419D01*
X88728639Y-71825581D01*
X88582775Y-71473434D01*
X88371013Y-71156509D01*
X88101491Y-70886987D01*
X87784566Y-70675225D01*
X87432419Y-70529361D01*
X87058581Y-70455000D01*
X86677419Y-70455000D01*
X86303581Y-70529361D01*
X85951434Y-70675225D01*
X85634509Y-70886987D01*
X85364987Y-71156509D01*
X85153225Y-71473434D01*
X85007361Y-71825581D01*
X84933000Y-72199419D01*
X81407000Y-72199419D01*
X81407000Y-67800000D01*
X92455428Y-67800000D01*
X92455428Y-71450000D01*
X92472492Y-71623254D01*
X92523028Y-71789850D01*
X92605095Y-71943386D01*
X92715538Y-72077962D01*
X92850114Y-72188405D01*
X92999717Y-72268370D01*
X92995800Y-72288061D01*
X92995800Y-72491939D01*
X93035574Y-72691898D01*
X93113595Y-72880256D01*
X93226863Y-73049774D01*
X93371026Y-73193937D01*
X93540544Y-73307205D01*
X93728902Y-73385226D01*
X93928861Y-73425000D01*
X94132739Y-73425000D01*
X94332698Y-73385226D01*
X94521056Y-73307205D01*
X94690574Y-73193937D01*
X94834737Y-73049774D01*
X94948005Y-72880256D01*
X95026026Y-72691898D01*
X95065800Y-72491939D01*
X95065800Y-72288061D01*
X95063499Y-72276494D01*
X95083350Y-72270472D01*
X95236886Y-72188405D01*
X95371462Y-72077962D01*
X95481905Y-71943386D01*
X95563972Y-71789850D01*
X95614508Y-71623254D01*
X95631572Y-71450000D01*
X95631572Y-69521500D01*
X98652228Y-69521500D01*
X98652228Y-71321500D01*
X98664488Y-71445982D01*
X98700798Y-71565680D01*
X98759763Y-71675994D01*
X98839115Y-71772685D01*
X98935806Y-71852037D01*
X99046120Y-71911002D01*
X99064427Y-71916556D01*
X98997988Y-71982995D01*
X98830001Y-72234405D01*
X98714289Y-72513757D01*
X98655300Y-72810316D01*
X98655300Y-73112684D01*
X98714289Y-73409243D01*
X98830001Y-73688595D01*
X98997988Y-73940005D01*
X99211795Y-74153812D01*
X99328063Y-74231500D01*
X99211795Y-74309188D01*
X98997988Y-74522995D01*
X98830001Y-74774405D01*
X98714289Y-75053757D01*
X98655300Y-75350316D01*
X98655300Y-75652684D01*
X98714289Y-75949243D01*
X98830001Y-76228595D01*
X98997988Y-76480005D01*
X99211795Y-76693812D01*
X99392201Y-76814355D01*
X99392200Y-77265723D01*
X99308813Y-77310295D01*
X99174238Y-77420738D01*
X99063795Y-77555313D01*
X98981728Y-77708849D01*
X98931192Y-77875445D01*
X98914128Y-78048699D01*
X98914128Y-78948701D01*
X98931192Y-79121955D01*
X98981728Y-79288551D01*
X99063795Y-79442087D01*
X99174238Y-79576662D01*
X99308813Y-79687105D01*
X99462349Y-79769172D01*
X99628945Y-79819708D01*
X99802199Y-79836772D01*
X100502201Y-79836772D01*
X100675455Y-79819708D01*
X100842051Y-79769172D01*
X100995587Y-79687105D01*
X101076837Y-79620424D01*
X101101015Y-79649885D01*
X101197706Y-79729237D01*
X101308020Y-79788202D01*
X101427718Y-79824512D01*
X101552200Y-79836772D01*
X101866450Y-79833700D01*
X102025200Y-79674950D01*
X102025200Y-78625700D01*
X102279200Y-78625700D01*
X102279200Y-79674950D01*
X102437950Y-79833700D01*
X102752200Y-79836772D01*
X102876682Y-79824512D01*
X102996380Y-79788202D01*
X103106694Y-79729237D01*
X103203385Y-79649885D01*
X103282737Y-79553194D01*
X103341702Y-79442880D01*
X103378012Y-79323182D01*
X103390272Y-79198700D01*
X103387200Y-78784450D01*
X103228450Y-78625700D01*
X102279200Y-78625700D01*
X102025200Y-78625700D01*
X102005200Y-78625700D01*
X102005200Y-78371700D01*
X102025200Y-78371700D01*
X102025200Y-77322450D01*
X102279200Y-77322450D01*
X102279200Y-78371700D01*
X103228450Y-78371700D01*
X103387200Y-78212950D01*
X103390272Y-77798700D01*
X103378012Y-77674218D01*
X103341702Y-77554520D01*
X103282737Y-77444206D01*
X103236072Y-77387344D01*
X115129400Y-77387344D01*
X115129400Y-77654256D01*
X115181472Y-77916039D01*
X115283615Y-78162633D01*
X115431903Y-78384562D01*
X115620638Y-78573297D01*
X115842567Y-78721585D01*
X116010724Y-78791238D01*
X115896047Y-78832925D01*
X115790332Y-78889432D01*
X115728445Y-79125240D01*
X116484400Y-79881195D01*
X117240355Y-79125240D01*
X117178468Y-78889432D01*
X116963393Y-78789036D01*
X117126233Y-78721585D01*
X117348162Y-78573297D01*
X117536897Y-78384562D01*
X117685185Y-78162633D01*
X117787328Y-77916039D01*
X117839400Y-77654256D01*
X117839400Y-77387344D01*
X117787328Y-77125561D01*
X117685185Y-76878967D01*
X117536897Y-76657038D01*
X117348162Y-76468303D01*
X117126233Y-76320015D01*
X116879639Y-76217872D01*
X116617856Y-76165800D01*
X116350944Y-76165800D01*
X116089161Y-76217872D01*
X115842567Y-76320015D01*
X115620638Y-76468303D01*
X115431903Y-76657038D01*
X115283615Y-76878967D01*
X115181472Y-77125561D01*
X115129400Y-77387344D01*
X103236072Y-77387344D01*
X103203385Y-77347515D01*
X103106694Y-77268163D01*
X102996380Y-77209198D01*
X102876682Y-77172888D01*
X102752200Y-77160628D01*
X102437950Y-77163700D01*
X102279200Y-77322450D01*
X102025200Y-77322450D01*
X101866450Y-77163700D01*
X101552200Y-77160628D01*
X101427718Y-77172888D01*
X101308020Y-77209198D01*
X101197706Y-77268163D01*
X101101015Y-77347515D01*
X101076837Y-77376976D01*
X100995587Y-77310295D01*
X100912200Y-77265724D01*
X100912200Y-76863951D01*
X100917395Y-76861799D01*
X101168805Y-76693812D01*
X101382612Y-76480005D01*
X101402326Y-76450500D01*
X111183928Y-76450500D01*
X111196188Y-76574982D01*
X111232498Y-76694680D01*
X111291463Y-76804994D01*
X111370815Y-76901685D01*
X111467506Y-76981037D01*
X111577820Y-77040002D01*
X111697518Y-77076312D01*
X111822000Y-77088572D01*
X112236250Y-77085500D01*
X112395000Y-76926750D01*
X112395000Y-75977500D01*
X112649000Y-75977500D01*
X112649000Y-76926750D01*
X112807750Y-77085500D01*
X113222000Y-77088572D01*
X113346482Y-77076312D01*
X113466180Y-77040002D01*
X113576494Y-76981037D01*
X113673185Y-76901685D01*
X113752537Y-76804994D01*
X113811502Y-76694680D01*
X113847812Y-76574982D01*
X113860072Y-76450500D01*
X113857000Y-76136250D01*
X113698250Y-75977500D01*
X112649000Y-75977500D01*
X112395000Y-75977500D01*
X111345750Y-75977500D01*
X111187000Y-76136250D01*
X111183928Y-76450500D01*
X101402326Y-76450500D01*
X101550599Y-76228595D01*
X101666311Y-75949243D01*
X101714138Y-75708800D01*
X102411724Y-75708800D01*
X102456295Y-75792187D01*
X102566738Y-75926762D01*
X102701313Y-76037205D01*
X102854849Y-76119272D01*
X103021445Y-76169808D01*
X103194699Y-76186872D01*
X104094701Y-76186872D01*
X104267955Y-76169808D01*
X104434551Y-76119272D01*
X104588087Y-76037205D01*
X104722662Y-75926762D01*
X104833105Y-75792187D01*
X104915172Y-75638651D01*
X104965708Y-75472055D01*
X104982772Y-75298801D01*
X104982772Y-74598799D01*
X104965708Y-74425545D01*
X104925816Y-74294038D01*
X104977337Y-74354903D01*
X105075225Y-74432774D01*
X105186425Y-74490051D01*
X105306661Y-74524534D01*
X105431315Y-74534898D01*
X105860850Y-74531900D01*
X106019600Y-74373150D01*
X106019600Y-73923674D01*
X106103123Y-73931900D01*
X106273600Y-73931900D01*
X106273600Y-74373150D01*
X106432350Y-74531900D01*
X106861885Y-74534898D01*
X106986539Y-74524534D01*
X107106775Y-74490051D01*
X107217975Y-74432774D01*
X107315863Y-74354903D01*
X107396678Y-74259431D01*
X107457315Y-74150027D01*
X107462423Y-74134068D01*
X107471600Y-74134972D01*
X109121600Y-74134972D01*
X109167049Y-74130496D01*
X109207916Y-74206951D01*
X109299704Y-74318796D01*
X109411549Y-74410584D01*
X109539152Y-74478790D01*
X109677609Y-74520790D01*
X109821600Y-74534972D01*
X111071600Y-74534972D01*
X111215591Y-74520790D01*
X111243066Y-74512456D01*
X111251528Y-74540351D01*
X111333595Y-74693887D01*
X111400276Y-74775137D01*
X111370815Y-74799315D01*
X111291463Y-74896006D01*
X111232498Y-75006320D01*
X111196188Y-75126018D01*
X111183928Y-75250500D01*
X111187000Y-75564750D01*
X111345750Y-75723500D01*
X112395000Y-75723500D01*
X112395000Y-75703500D01*
X112649000Y-75703500D01*
X112649000Y-75723500D01*
X113698250Y-75723500D01*
X113857000Y-75564750D01*
X113860072Y-75250500D01*
X113847812Y-75126018D01*
X113838553Y-75095494D01*
X113956750Y-75158672D01*
X114123346Y-75209208D01*
X114296600Y-75226272D01*
X114971600Y-75226272D01*
X115144854Y-75209208D01*
X115311450Y-75158672D01*
X115464986Y-75076605D01*
X115599562Y-74966162D01*
X115604942Y-74959606D01*
X115670415Y-75039385D01*
X115767106Y-75118737D01*
X115877420Y-75177702D01*
X115997118Y-75214012D01*
X116121600Y-75226272D01*
X116423350Y-75223200D01*
X116582100Y-75064450D01*
X116582100Y-73990200D01*
X116836100Y-73990200D01*
X116836100Y-75064450D01*
X116994850Y-75223200D01*
X117296600Y-75226272D01*
X117421082Y-75214012D01*
X117540780Y-75177702D01*
X117651094Y-75118737D01*
X117747785Y-75039385D01*
X117827137Y-74942694D01*
X117886102Y-74832380D01*
X117922412Y-74712682D01*
X117934672Y-74588200D01*
X117931600Y-74148950D01*
X117772850Y-73990200D01*
X116836100Y-73990200D01*
X116582100Y-73990200D01*
X116562100Y-73990200D01*
X116562100Y-73736200D01*
X116582100Y-73736200D01*
X116582100Y-72661950D01*
X116836100Y-72661950D01*
X116836100Y-73736200D01*
X117772850Y-73736200D01*
X117931600Y-73577450D01*
X117934672Y-73138200D01*
X117922412Y-73013718D01*
X117886102Y-72894020D01*
X117827137Y-72783706D01*
X117747785Y-72687015D01*
X117651094Y-72607663D01*
X117540780Y-72548698D01*
X117421082Y-72512388D01*
X117296600Y-72500128D01*
X116994850Y-72503200D01*
X116836100Y-72661950D01*
X116582100Y-72661950D01*
X116423350Y-72503200D01*
X116121600Y-72500128D01*
X115997118Y-72512388D01*
X115877420Y-72548698D01*
X115767106Y-72607663D01*
X115670415Y-72687015D01*
X115604942Y-72766794D01*
X115599562Y-72760238D01*
X115464986Y-72649795D01*
X115311450Y-72567728D01*
X115144854Y-72517192D01*
X114971600Y-72500128D01*
X114296600Y-72500128D01*
X114123346Y-72517192D01*
X113956750Y-72567728D01*
X113803214Y-72649795D01*
X113668638Y-72760238D01*
X113585928Y-72861021D01*
X113465387Y-72762095D01*
X113311851Y-72680028D01*
X113145255Y-72629492D01*
X112972001Y-72612428D01*
X112358729Y-72612428D01*
X112282203Y-72535902D01*
X112258401Y-72506899D01*
X112142676Y-72411926D01*
X112112080Y-72395572D01*
X114269701Y-72395572D01*
X114442955Y-72378508D01*
X114609551Y-72327972D01*
X114763087Y-72245905D01*
X114897662Y-72135462D01*
X114996236Y-72015350D01*
X115028944Y-72037205D01*
X115217302Y-72115226D01*
X115417261Y-72155000D01*
X115621139Y-72155000D01*
X115821098Y-72115226D01*
X116009456Y-72037205D01*
X116178974Y-71923937D01*
X116323137Y-71779774D01*
X116436405Y-71610256D01*
X116514426Y-71421898D01*
X116554200Y-71221939D01*
X116554200Y-71018061D01*
X116536569Y-70929419D01*
X120848600Y-70929419D01*
X120848600Y-71310581D01*
X120922961Y-71684419D01*
X121068825Y-72036566D01*
X121280587Y-72353491D01*
X121550109Y-72623013D01*
X121867034Y-72834775D01*
X122219181Y-72980639D01*
X122593019Y-73055000D01*
X122974181Y-73055000D01*
X123348019Y-72980639D01*
X123700166Y-72834775D01*
X124017091Y-72623013D01*
X124286613Y-72353491D01*
X124498375Y-72036566D01*
X124644239Y-71684419D01*
X124718600Y-71310581D01*
X124718600Y-70929419D01*
X124644239Y-70555581D01*
X124498375Y-70203434D01*
X124286613Y-69886509D01*
X124017091Y-69616987D01*
X123700166Y-69405225D01*
X123348019Y-69259361D01*
X122974181Y-69185000D01*
X122593019Y-69185000D01*
X122219181Y-69259361D01*
X121867034Y-69405225D01*
X121550109Y-69616987D01*
X121280587Y-69886509D01*
X121068825Y-70203434D01*
X120922961Y-70555581D01*
X120848600Y-70929419D01*
X116536569Y-70929419D01*
X116514426Y-70818102D01*
X116436405Y-70629744D01*
X116323137Y-70460226D01*
X116178974Y-70316063D01*
X116009456Y-70202795D01*
X115821098Y-70124774D01*
X115621139Y-70085000D01*
X115417261Y-70085000D01*
X115217302Y-70124774D01*
X115028944Y-70202795D01*
X115018978Y-70209454D01*
X115008105Y-70189113D01*
X114897662Y-70054538D01*
X114763087Y-69944095D01*
X114609551Y-69862028D01*
X114442955Y-69811492D01*
X114269701Y-69794428D01*
X112069699Y-69794428D01*
X111896445Y-69811492D01*
X111729849Y-69862028D01*
X111656191Y-69901399D01*
X111593496Y-69825004D01*
X111481651Y-69733216D01*
X111354048Y-69665010D01*
X111215591Y-69623010D01*
X111071600Y-69608828D01*
X110732576Y-69608828D01*
X110620089Y-69574705D01*
X110446600Y-69557618D01*
X110273110Y-69574705D01*
X110160623Y-69608828D01*
X109821600Y-69608828D01*
X109677609Y-69623010D01*
X109539152Y-69665010D01*
X109411549Y-69733216D01*
X109299704Y-69825004D01*
X109207916Y-69936849D01*
X109167049Y-70013304D01*
X109121600Y-70008828D01*
X107471600Y-70008828D01*
X107426151Y-70013304D01*
X107385284Y-69936849D01*
X107293496Y-69825004D01*
X107181651Y-69733216D01*
X107054048Y-69665010D01*
X106915591Y-69623010D01*
X106771600Y-69608828D01*
X106432577Y-69608828D01*
X106320090Y-69574705D01*
X106190077Y-69561900D01*
X106190076Y-69561900D01*
X106146600Y-69557618D01*
X106103123Y-69561900D01*
X105183969Y-69561900D01*
X105172805Y-69541013D01*
X105062362Y-69406438D01*
X104927787Y-69295995D01*
X104774251Y-69213928D01*
X104607655Y-69163392D01*
X104434401Y-69146328D01*
X103134399Y-69146328D01*
X102961145Y-69163392D01*
X102794549Y-69213928D01*
X102641013Y-69295995D01*
X102506438Y-69406438D01*
X102399699Y-69536500D01*
X101728372Y-69536500D01*
X101728372Y-69521500D01*
X101716112Y-69397018D01*
X101679802Y-69277320D01*
X101620837Y-69167006D01*
X101541485Y-69070315D01*
X101444794Y-68990963D01*
X101334480Y-68931998D01*
X101214782Y-68895688D01*
X101090300Y-68883428D01*
X99290300Y-68883428D01*
X99165818Y-68895688D01*
X99046120Y-68931998D01*
X98935806Y-68990963D01*
X98839115Y-69070315D01*
X98759763Y-69167006D01*
X98700798Y-69277320D01*
X98664488Y-69397018D01*
X98652228Y-69521500D01*
X95631572Y-69521500D01*
X95631572Y-68632500D01*
X111181628Y-68632500D01*
X111193888Y-68756982D01*
X111230198Y-68876680D01*
X111289163Y-68986994D01*
X111368515Y-69083685D01*
X111465206Y-69163037D01*
X111575520Y-69222002D01*
X111695218Y-69258312D01*
X111819700Y-69270572D01*
X112883950Y-69267500D01*
X113042700Y-69108750D01*
X113042700Y-68097000D01*
X113296700Y-68097000D01*
X113296700Y-69108750D01*
X113455450Y-69267500D01*
X114519700Y-69270572D01*
X114644182Y-69258312D01*
X114763880Y-69222002D01*
X114874194Y-69163037D01*
X114970885Y-69083685D01*
X115050237Y-68986994D01*
X115109202Y-68876680D01*
X115145512Y-68756982D01*
X115157772Y-68632500D01*
X115154700Y-68255750D01*
X114995950Y-68097000D01*
X113296700Y-68097000D01*
X113042700Y-68097000D01*
X111343450Y-68097000D01*
X111184700Y-68255750D01*
X111181628Y-68632500D01*
X95631572Y-68632500D01*
X95631572Y-67984400D01*
X102246328Y-67984400D01*
X102258588Y-68108882D01*
X102294898Y-68228580D01*
X102353863Y-68338894D01*
X102433215Y-68435585D01*
X102529906Y-68514937D01*
X102640220Y-68573902D01*
X102759918Y-68610212D01*
X102884400Y-68622472D01*
X103498650Y-68619400D01*
X103657400Y-68460650D01*
X103657400Y-67448900D01*
X103911400Y-67448900D01*
X103911400Y-68460650D01*
X104070150Y-68619400D01*
X104684400Y-68622472D01*
X104808882Y-68610212D01*
X104928580Y-68573902D01*
X105038894Y-68514937D01*
X105135585Y-68435585D01*
X105214937Y-68338894D01*
X105273902Y-68228580D01*
X105310212Y-68108882D01*
X105322472Y-67984400D01*
X105319400Y-67607650D01*
X105160650Y-67448900D01*
X103911400Y-67448900D01*
X103657400Y-67448900D01*
X102408150Y-67448900D01*
X102249400Y-67607650D01*
X102246328Y-67984400D01*
X95631572Y-67984400D01*
X95631572Y-67800000D01*
X95614508Y-67626746D01*
X95563972Y-67460150D01*
X95482379Y-67307500D01*
X111181628Y-67307500D01*
X111184700Y-67684250D01*
X111343450Y-67843000D01*
X113042700Y-67843000D01*
X113042700Y-66831250D01*
X113296700Y-66831250D01*
X113296700Y-67843000D01*
X114995950Y-67843000D01*
X115154700Y-67684250D01*
X115157772Y-67307500D01*
X115145512Y-67183018D01*
X115109202Y-67063320D01*
X115050237Y-66953006D01*
X114970885Y-66856315D01*
X114874194Y-66776963D01*
X114763880Y-66717998D01*
X114644182Y-66681688D01*
X114519700Y-66669428D01*
X113455450Y-66672500D01*
X113296700Y-66831250D01*
X113042700Y-66831250D01*
X112883950Y-66672500D01*
X111819700Y-66669428D01*
X111695218Y-66681688D01*
X111575520Y-66717998D01*
X111465206Y-66776963D01*
X111368515Y-66856315D01*
X111289163Y-66953006D01*
X111230198Y-67063320D01*
X111193888Y-67183018D01*
X111181628Y-67307500D01*
X95482379Y-67307500D01*
X95481905Y-67306614D01*
X95371462Y-67172038D01*
X95236886Y-67061595D01*
X95083350Y-66979528D01*
X95003417Y-66955281D01*
X95026026Y-66900698D01*
X95065800Y-66700739D01*
X95065800Y-66496861D01*
X95026026Y-66296902D01*
X94948005Y-66108544D01*
X94834737Y-65939026D01*
X94690574Y-65794863D01*
X94521056Y-65681595D01*
X94332698Y-65603574D01*
X94132739Y-65563800D01*
X93928861Y-65563800D01*
X93728902Y-65603574D01*
X93540544Y-65681595D01*
X93371026Y-65794863D01*
X93226863Y-65939026D01*
X93113595Y-66108544D01*
X93035574Y-66296902D01*
X92995800Y-66496861D01*
X92995800Y-66700739D01*
X93035574Y-66900698D01*
X93061018Y-66962126D01*
X93003650Y-66979528D01*
X92850114Y-67061595D01*
X92715538Y-67172038D01*
X92605095Y-67306614D01*
X92523028Y-67460150D01*
X92472492Y-67626746D01*
X92455428Y-67800000D01*
X81407000Y-67800000D01*
X81407000Y-65484224D01*
X85698381Y-65484224D01*
X85830317Y-65779312D01*
X86171045Y-65950159D01*
X86538557Y-66051250D01*
X86918729Y-66078701D01*
X87296951Y-66031457D01*
X87658690Y-65911333D01*
X87905683Y-65779312D01*
X88037619Y-65484224D01*
X86868000Y-64314605D01*
X85698381Y-65484224D01*
X81407000Y-65484224D01*
X81407000Y-64185729D01*
X84924299Y-64185729D01*
X84971543Y-64563951D01*
X85091667Y-64925690D01*
X85223688Y-65172683D01*
X85518776Y-65304619D01*
X86688395Y-64135000D01*
X87047605Y-64135000D01*
X88217224Y-65304619D01*
X88328036Y-65255074D01*
X88285774Y-65357102D01*
X88246000Y-65557061D01*
X88246000Y-65760939D01*
X88285774Y-65960898D01*
X88363795Y-66149256D01*
X88477063Y-66318774D01*
X88621226Y-66462937D01*
X88790744Y-66576205D01*
X88979102Y-66654226D01*
X89179061Y-66694000D01*
X89382939Y-66694000D01*
X89582898Y-66654226D01*
X89771256Y-66576205D01*
X89819454Y-66544000D01*
X89904519Y-66544000D01*
X89960006Y-66589537D01*
X90070320Y-66648502D01*
X90190018Y-66684812D01*
X90314500Y-66697072D01*
X91314500Y-66697072D01*
X91438982Y-66684812D01*
X91558680Y-66648502D01*
X91668994Y-66589537D01*
X91765685Y-66510185D01*
X91845037Y-66413494D01*
X91904002Y-66303180D01*
X91940312Y-66183482D01*
X91952572Y-66059000D01*
X91952572Y-65259000D01*
X91940312Y-65134518D01*
X91904002Y-65014820D01*
X91845037Y-64904506D01*
X91765685Y-64807815D01*
X91668994Y-64728463D01*
X91558680Y-64669498D01*
X91438982Y-64633188D01*
X91314500Y-64620928D01*
X90314500Y-64620928D01*
X90190018Y-64633188D01*
X90070320Y-64669498D01*
X89960006Y-64728463D01*
X89904519Y-64774000D01*
X89819454Y-64774000D01*
X89771256Y-64741795D01*
X89582898Y-64663774D01*
X89382939Y-64624000D01*
X89179061Y-64624000D01*
X88979102Y-64663774D01*
X88790744Y-64741795D01*
X88689318Y-64809566D01*
X88784250Y-64464443D01*
X88811701Y-64084271D01*
X88806513Y-64042737D01*
X88979102Y-64114226D01*
X89179061Y-64154000D01*
X89382939Y-64154000D01*
X89582898Y-64114226D01*
X89771256Y-64036205D01*
X89819454Y-64004000D01*
X89904519Y-64004000D01*
X89960006Y-64049537D01*
X90070320Y-64108502D01*
X90190018Y-64144812D01*
X90314500Y-64157072D01*
X91314500Y-64157072D01*
X91438982Y-64144812D01*
X91558680Y-64108502D01*
X91668994Y-64049537D01*
X91765685Y-63970185D01*
X91845037Y-63873494D01*
X91904002Y-63763180D01*
X91940312Y-63643482D01*
X91952572Y-63519000D01*
X91952572Y-62719000D01*
X91940312Y-62594518D01*
X91904002Y-62474820D01*
X91845037Y-62364506D01*
X91765685Y-62267815D01*
X91668994Y-62188463D01*
X91558680Y-62129498D01*
X91438982Y-62093188D01*
X91314500Y-62080928D01*
X90314500Y-62080928D01*
X90190018Y-62093188D01*
X90070320Y-62129498D01*
X89960006Y-62188463D01*
X89904519Y-62234000D01*
X89819454Y-62234000D01*
X89771256Y-62201795D01*
X89582898Y-62123774D01*
X89382939Y-62084000D01*
X89179061Y-62084000D01*
X88979102Y-62123774D01*
X88790744Y-62201795D01*
X88621226Y-62315063D01*
X88477063Y-62459226D01*
X88363795Y-62628744D01*
X88285774Y-62817102D01*
X88253090Y-62981417D01*
X88217224Y-62965381D01*
X87047605Y-64135000D01*
X86688395Y-64135000D01*
X85518776Y-62965381D01*
X85223688Y-63097317D01*
X85052841Y-63438045D01*
X84951750Y-63805557D01*
X84924299Y-64185729D01*
X81407000Y-64185729D01*
X81407000Y-62785776D01*
X85698381Y-62785776D01*
X86868000Y-63955395D01*
X88037619Y-62785776D01*
X87905683Y-62490688D01*
X87564955Y-62319841D01*
X87197443Y-62218750D01*
X86817271Y-62191299D01*
X86439049Y-62238543D01*
X86077310Y-62358667D01*
X85830317Y-62490688D01*
X85698381Y-62785776D01*
X81407000Y-62785776D01*
X81407000Y-55689419D01*
X84933000Y-55689419D01*
X84933000Y-56070581D01*
X85007361Y-56444419D01*
X85153225Y-56796566D01*
X85364987Y-57113491D01*
X85634509Y-57383013D01*
X85951434Y-57594775D01*
X86303581Y-57740639D01*
X86677419Y-57815000D01*
X87058581Y-57815000D01*
X87432419Y-57740639D01*
X87784566Y-57594775D01*
X88101491Y-57383013D01*
X88127504Y-57357000D01*
X92518928Y-57357000D01*
X92518928Y-61007000D01*
X92535992Y-61180254D01*
X92586528Y-61346850D01*
X92668595Y-61500386D01*
X92779038Y-61634962D01*
X92913614Y-61745405D01*
X93067150Y-61827472D01*
X93233746Y-61878008D01*
X93247400Y-61879353D01*
X93247400Y-62783431D01*
X93243119Y-62826900D01*
X93247400Y-62870369D01*
X93247400Y-62870376D01*
X93248546Y-62882010D01*
X93260205Y-63000390D01*
X93265262Y-63017061D01*
X93310811Y-63167212D01*
X93392989Y-63320958D01*
X93503583Y-63455717D01*
X93537356Y-63483434D01*
X95826428Y-65772507D01*
X95826428Y-66059000D01*
X95838688Y-66183482D01*
X95874998Y-66303180D01*
X95933963Y-66413494D01*
X96013315Y-66510185D01*
X96110006Y-66589537D01*
X96220320Y-66648502D01*
X96340018Y-66684812D01*
X96464500Y-66697072D01*
X97464500Y-66697072D01*
X97588982Y-66684812D01*
X97672754Y-66659400D01*
X102246328Y-66659400D01*
X102249400Y-67036150D01*
X102408150Y-67194900D01*
X103657400Y-67194900D01*
X103657400Y-66183150D01*
X103911400Y-66183150D01*
X103911400Y-67194900D01*
X105160650Y-67194900D01*
X105319400Y-67036150D01*
X105322472Y-66659400D01*
X105310212Y-66534918D01*
X105273902Y-66415220D01*
X105214937Y-66304906D01*
X105135585Y-66208215D01*
X105038894Y-66128863D01*
X104928580Y-66069898D01*
X104808882Y-66033588D01*
X104684400Y-66021328D01*
X104070150Y-66024400D01*
X103911400Y-66183150D01*
X103657400Y-66183150D01*
X103498650Y-66024400D01*
X102884400Y-66021328D01*
X102759918Y-66033588D01*
X102640220Y-66069898D01*
X102529906Y-66128863D01*
X102433215Y-66208215D01*
X102353863Y-66304906D01*
X102294898Y-66415220D01*
X102258588Y-66534918D01*
X102246328Y-66659400D01*
X97672754Y-66659400D01*
X97708680Y-66648502D01*
X97818994Y-66589537D01*
X97915685Y-66510185D01*
X97995037Y-66413494D01*
X98054002Y-66303180D01*
X98090312Y-66183482D01*
X98102572Y-66059000D01*
X98102572Y-65299160D01*
X116033245Y-65299160D01*
X116095132Y-65534968D01*
X116336990Y-65647866D01*
X116596227Y-65711411D01*
X116862880Y-65723161D01*
X117126701Y-65682663D01*
X117377553Y-65591475D01*
X117483268Y-65534968D01*
X117545155Y-65299160D01*
X116789200Y-64543205D01*
X116033245Y-65299160D01*
X98102572Y-65299160D01*
X98102572Y-65259000D01*
X98090312Y-65134518D01*
X98054002Y-65014820D01*
X97995037Y-64904506D01*
X97915685Y-64807815D01*
X97818994Y-64728463D01*
X97708680Y-64669498D01*
X97588982Y-64633188D01*
X97464500Y-64620928D01*
X97178007Y-64620928D01*
X96994359Y-64437280D01*
X115429639Y-64437280D01*
X115470137Y-64701101D01*
X115561325Y-64951953D01*
X115617832Y-65057668D01*
X115853640Y-65119555D01*
X116609595Y-64363600D01*
X116968805Y-64363600D01*
X117724760Y-65119555D01*
X117960568Y-65057668D01*
X118073466Y-64815810D01*
X118137011Y-64556573D01*
X118148761Y-64289920D01*
X118108263Y-64026099D01*
X118017075Y-63775247D01*
X117960568Y-63669532D01*
X117724760Y-63607645D01*
X116968805Y-64363600D01*
X116609595Y-64363600D01*
X115853640Y-63607645D01*
X115617832Y-63669532D01*
X115504934Y-63911390D01*
X115441389Y-64170627D01*
X115429639Y-64437280D01*
X96994359Y-64437280D01*
X96714151Y-64157072D01*
X97464500Y-64157072D01*
X97588982Y-64144812D01*
X97708680Y-64108502D01*
X97818994Y-64049537D01*
X97915685Y-63970185D01*
X97995037Y-63873494D01*
X98054002Y-63763180D01*
X98090312Y-63643482D01*
X98102572Y-63519000D01*
X98102572Y-62759160D01*
X116033245Y-62759160D01*
X116095132Y-62994968D01*
X116310938Y-63095705D01*
X116200847Y-63135725D01*
X116095132Y-63192232D01*
X116033245Y-63428040D01*
X116789200Y-64183995D01*
X117545155Y-63428040D01*
X117491507Y-63223624D01*
X121563181Y-63223624D01*
X121695117Y-63518712D01*
X122035845Y-63689559D01*
X122403357Y-63790650D01*
X122783529Y-63818101D01*
X123161751Y-63770857D01*
X123523490Y-63650733D01*
X123770483Y-63518712D01*
X123902419Y-63223624D01*
X122732800Y-62054005D01*
X121563181Y-63223624D01*
X117491507Y-63223624D01*
X117483268Y-63192232D01*
X117267462Y-63091495D01*
X117377553Y-63051475D01*
X117483268Y-62994968D01*
X117545155Y-62759160D01*
X116789200Y-62003205D01*
X116033245Y-62759160D01*
X98102572Y-62759160D01*
X98102572Y-62719000D01*
X98090312Y-62594518D01*
X98054002Y-62474820D01*
X97995037Y-62364506D01*
X97915685Y-62267815D01*
X97818994Y-62188463D01*
X97708680Y-62129498D01*
X97588982Y-62093188D01*
X97464500Y-62080928D01*
X96464500Y-62080928D01*
X96340018Y-62093188D01*
X96220320Y-62129498D01*
X96157969Y-62162826D01*
X96121256Y-62138295D01*
X95932898Y-62060274D01*
X95732939Y-62020500D01*
X95529061Y-62020500D01*
X95329102Y-62060274D01*
X95140744Y-62138295D01*
X95017400Y-62220711D01*
X95017400Y-61866740D01*
X95146850Y-61827472D01*
X95300386Y-61745405D01*
X95434962Y-61634962D01*
X95545405Y-61500386D01*
X95627472Y-61346850D01*
X95678008Y-61180254D01*
X95695072Y-61007000D01*
X95695072Y-57357000D01*
X95678008Y-57183746D01*
X95627472Y-57017150D01*
X95545405Y-56863614D01*
X95434962Y-56729038D01*
X95300386Y-56618595D01*
X95147915Y-56537097D01*
X95167400Y-56439139D01*
X95167400Y-56235261D01*
X95127626Y-56035302D01*
X95049605Y-55846944D01*
X94936337Y-55677426D01*
X94792174Y-55533263D01*
X94622656Y-55419995D01*
X94434298Y-55341974D01*
X94234339Y-55302200D01*
X94030461Y-55302200D01*
X93830502Y-55341974D01*
X93642144Y-55419995D01*
X93472626Y-55533263D01*
X93328463Y-55677426D01*
X93215195Y-55846944D01*
X93137174Y-56035302D01*
X93097400Y-56235261D01*
X93097400Y-56439139D01*
X93113948Y-56522332D01*
X93067150Y-56536528D01*
X92913614Y-56618595D01*
X92779038Y-56729038D01*
X92668595Y-56863614D01*
X92586528Y-57017150D01*
X92535992Y-57183746D01*
X92518928Y-57357000D01*
X88127504Y-57357000D01*
X88371013Y-57113491D01*
X88582775Y-56796566D01*
X88728639Y-56444419D01*
X88803000Y-56070581D01*
X88803000Y-55689419D01*
X88728639Y-55315581D01*
X88582775Y-54963434D01*
X88371013Y-54646509D01*
X88101491Y-54376987D01*
X87996748Y-54307000D01*
X92518928Y-54307000D01*
X92531188Y-54431482D01*
X92567498Y-54551180D01*
X92626463Y-54661494D01*
X92705815Y-54758185D01*
X92802506Y-54837537D01*
X92912820Y-54896502D01*
X93032518Y-54932812D01*
X93157000Y-54945072D01*
X93821250Y-54942000D01*
X93980000Y-54783250D01*
X93980000Y-52359000D01*
X94234000Y-52359000D01*
X94234000Y-54783250D01*
X94392750Y-54942000D01*
X95057000Y-54945072D01*
X95181482Y-54932812D01*
X95301180Y-54896502D01*
X95411494Y-54837537D01*
X95508185Y-54758185D01*
X95587537Y-54661494D01*
X95646502Y-54551180D01*
X95682812Y-54431482D01*
X95695072Y-54307000D01*
X95692000Y-52517750D01*
X95533250Y-52359000D01*
X94234000Y-52359000D01*
X93980000Y-52359000D01*
X92680750Y-52359000D01*
X92522000Y-52517750D01*
X92518928Y-54307000D01*
X87996748Y-54307000D01*
X87784566Y-54165225D01*
X87432419Y-54019361D01*
X87058581Y-53945000D01*
X86677419Y-53945000D01*
X86303581Y-54019361D01*
X85951434Y-54165225D01*
X85634509Y-54376987D01*
X85364987Y-54646509D01*
X85153225Y-54963434D01*
X85007361Y-55315581D01*
X84933000Y-55689419D01*
X81407000Y-55689419D01*
X81407000Y-50157000D01*
X92518928Y-50157000D01*
X92522000Y-51946250D01*
X92680750Y-52105000D01*
X93980000Y-52105000D01*
X93980000Y-49680750D01*
X94234000Y-49680750D01*
X94234000Y-52105000D01*
X95533250Y-52105000D01*
X95553850Y-52084400D01*
X98817328Y-52084400D01*
X98817328Y-53884400D01*
X98829588Y-54008882D01*
X98865898Y-54128580D01*
X98924863Y-54238894D01*
X99004215Y-54335585D01*
X99100906Y-54414937D01*
X99211220Y-54473902D01*
X99229527Y-54479456D01*
X99163088Y-54545895D01*
X98995101Y-54797305D01*
X98879389Y-55076657D01*
X98820400Y-55373216D01*
X98820400Y-55675584D01*
X98879389Y-55972143D01*
X98995101Y-56251495D01*
X99163088Y-56502905D01*
X99376895Y-56716712D01*
X99493163Y-56794400D01*
X99376895Y-56872088D01*
X99163088Y-57085895D01*
X98995101Y-57337305D01*
X98879389Y-57616657D01*
X98820400Y-57913216D01*
X98820400Y-58215584D01*
X98879389Y-58512143D01*
X98995101Y-58791495D01*
X99163088Y-59042905D01*
X99376895Y-59256712D01*
X99595400Y-59402713D01*
X99595401Y-59638123D01*
X99512013Y-59682695D01*
X99377438Y-59793138D01*
X99266995Y-59927713D01*
X99184928Y-60081249D01*
X99134392Y-60247845D01*
X99117328Y-60421099D01*
X99117328Y-61321101D01*
X99134392Y-61494355D01*
X99184928Y-61660951D01*
X99266995Y-61814487D01*
X99377438Y-61949062D01*
X99512013Y-62059505D01*
X99665549Y-62141572D01*
X99832145Y-62192108D01*
X100005399Y-62209172D01*
X100705401Y-62209172D01*
X100878655Y-62192108D01*
X101045251Y-62141572D01*
X101198787Y-62059505D01*
X101280037Y-61992824D01*
X101304215Y-62022285D01*
X101400906Y-62101637D01*
X101511220Y-62160602D01*
X101630918Y-62196912D01*
X101755400Y-62209172D01*
X102069650Y-62206100D01*
X102228400Y-62047350D01*
X102228400Y-60998100D01*
X102482400Y-60998100D01*
X102482400Y-62047350D01*
X102641150Y-62206100D01*
X102955400Y-62209172D01*
X103079882Y-62196912D01*
X103199580Y-62160602D01*
X103309894Y-62101637D01*
X103406585Y-62022285D01*
X103485937Y-61925594D01*
X103501071Y-61897280D01*
X115429639Y-61897280D01*
X115470137Y-62161101D01*
X115561325Y-62411953D01*
X115617832Y-62517668D01*
X115853640Y-62579555D01*
X116609595Y-61823600D01*
X116968805Y-61823600D01*
X117724760Y-62579555D01*
X117960568Y-62517668D01*
X118073466Y-62275810D01*
X118137011Y-62016573D01*
X118141040Y-61925129D01*
X120789099Y-61925129D01*
X120836343Y-62303351D01*
X120956467Y-62665090D01*
X121088488Y-62912083D01*
X121383576Y-63044019D01*
X122553195Y-61874400D01*
X122912405Y-61874400D01*
X124082024Y-63044019D01*
X124377112Y-62912083D01*
X124547959Y-62571355D01*
X124649050Y-62203843D01*
X124676501Y-61823671D01*
X124629257Y-61445449D01*
X124509133Y-61083710D01*
X124377112Y-60836717D01*
X124082024Y-60704781D01*
X122912405Y-61874400D01*
X122553195Y-61874400D01*
X121383576Y-60704781D01*
X121088488Y-60836717D01*
X120917641Y-61177445D01*
X120816550Y-61544957D01*
X120789099Y-61925129D01*
X118141040Y-61925129D01*
X118148761Y-61749920D01*
X118108263Y-61486099D01*
X118017075Y-61235247D01*
X117960568Y-61129532D01*
X117724760Y-61067645D01*
X116968805Y-61823600D01*
X116609595Y-61823600D01*
X115853640Y-61067645D01*
X115617832Y-61129532D01*
X115504934Y-61371390D01*
X115441389Y-61630627D01*
X115429639Y-61897280D01*
X103501071Y-61897280D01*
X103544902Y-61815280D01*
X103581212Y-61695582D01*
X103593472Y-61571100D01*
X103590400Y-61156850D01*
X103431650Y-60998100D01*
X102482400Y-60998100D01*
X102228400Y-60998100D01*
X102208400Y-60998100D01*
X102208400Y-60744100D01*
X102228400Y-60744100D01*
X102228400Y-59694850D01*
X102482400Y-59694850D01*
X102482400Y-60744100D01*
X103431650Y-60744100D01*
X103590400Y-60585350D01*
X103593472Y-60171100D01*
X103581212Y-60046618D01*
X103544902Y-59926920D01*
X103485937Y-59816606D01*
X103406585Y-59719915D01*
X103309894Y-59640563D01*
X103199580Y-59581598D01*
X103079882Y-59545288D01*
X102955400Y-59533028D01*
X102641150Y-59536100D01*
X102482400Y-59694850D01*
X102228400Y-59694850D01*
X102069650Y-59536100D01*
X101755400Y-59533028D01*
X101630918Y-59545288D01*
X101511220Y-59581598D01*
X101400906Y-59640563D01*
X101304215Y-59719915D01*
X101280037Y-59749376D01*
X101198787Y-59682695D01*
X101115400Y-59638124D01*
X101115400Y-59402713D01*
X101333905Y-59256712D01*
X101440473Y-59150144D01*
X115434200Y-59150144D01*
X115434200Y-59417056D01*
X115486272Y-59678839D01*
X115588415Y-59925433D01*
X115736703Y-60147362D01*
X115925438Y-60336097D01*
X116147367Y-60484385D01*
X116315524Y-60554038D01*
X116200847Y-60595725D01*
X116095132Y-60652232D01*
X116033245Y-60888040D01*
X116789200Y-61643995D01*
X117545155Y-60888040D01*
X117483268Y-60652232D01*
X117268193Y-60551836D01*
X117332555Y-60525176D01*
X121563181Y-60525176D01*
X122732800Y-61694795D01*
X123902419Y-60525176D01*
X123770483Y-60230088D01*
X123429755Y-60059241D01*
X123062243Y-59958150D01*
X122682071Y-59930699D01*
X122303849Y-59977943D01*
X121942110Y-60098067D01*
X121695117Y-60230088D01*
X121563181Y-60525176D01*
X117332555Y-60525176D01*
X117431033Y-60484385D01*
X117652962Y-60336097D01*
X117841697Y-60147362D01*
X117989985Y-59925433D01*
X118092128Y-59678839D01*
X118144200Y-59417056D01*
X118144200Y-59150144D01*
X118092128Y-58888361D01*
X117989985Y-58641767D01*
X117841697Y-58419838D01*
X117652962Y-58231103D01*
X117431033Y-58082815D01*
X117184439Y-57980672D01*
X116922656Y-57928600D01*
X116655744Y-57928600D01*
X116393961Y-57980672D01*
X116147367Y-58082815D01*
X115925438Y-58231103D01*
X115736703Y-58419838D01*
X115588415Y-58641767D01*
X115486272Y-58888361D01*
X115434200Y-59150144D01*
X101440473Y-59150144D01*
X101547712Y-59042905D01*
X101715699Y-58791495D01*
X101831411Y-58512143D01*
X101868477Y-58325800D01*
X102703824Y-58325800D01*
X102748395Y-58409187D01*
X102858838Y-58543762D01*
X102993413Y-58654205D01*
X103146949Y-58736272D01*
X103313545Y-58786808D01*
X103486799Y-58803872D01*
X104386801Y-58803872D01*
X104560055Y-58786808D01*
X104726651Y-58736272D01*
X104880187Y-58654205D01*
X105014762Y-58543762D01*
X105125205Y-58409187D01*
X105207272Y-58255651D01*
X105216266Y-58226000D01*
X111628428Y-58226000D01*
X111640688Y-58350482D01*
X111676998Y-58470180D01*
X111735963Y-58580494D01*
X111815315Y-58677185D01*
X111912006Y-58756537D01*
X112022320Y-58815502D01*
X112142018Y-58851812D01*
X112266500Y-58864072D01*
X112680750Y-58861000D01*
X112839500Y-58702250D01*
X112839500Y-57753000D01*
X113093500Y-57753000D01*
X113093500Y-58702250D01*
X113252250Y-58861000D01*
X113666500Y-58864072D01*
X113790982Y-58851812D01*
X113910680Y-58815502D01*
X114020994Y-58756537D01*
X114117685Y-58677185D01*
X114197037Y-58580494D01*
X114256002Y-58470180D01*
X114292312Y-58350482D01*
X114304572Y-58226000D01*
X114301500Y-57911750D01*
X114142750Y-57753000D01*
X113093500Y-57753000D01*
X112839500Y-57753000D01*
X111790250Y-57753000D01*
X111631500Y-57911750D01*
X111628428Y-58226000D01*
X105216266Y-58226000D01*
X105257808Y-58089055D01*
X105274872Y-57915801D01*
X105274872Y-57215799D01*
X105257808Y-57042545D01*
X105225835Y-56937144D01*
X105253025Y-56958774D01*
X105364225Y-57016051D01*
X105484461Y-57050534D01*
X105609115Y-57060898D01*
X106038650Y-57057900D01*
X106197400Y-56899150D01*
X106197400Y-56410972D01*
X106451400Y-56410972D01*
X106451400Y-56899150D01*
X106610150Y-57057900D01*
X107039685Y-57060898D01*
X107164339Y-57050534D01*
X107284575Y-57016051D01*
X107395775Y-56958774D01*
X107493663Y-56880903D01*
X107574478Y-56785431D01*
X107635115Y-56676027D01*
X107640223Y-56660068D01*
X107649400Y-56660972D01*
X108188650Y-56657900D01*
X108347400Y-56499150D01*
X108347400Y-54724900D01*
X108327400Y-54724900D01*
X108327400Y-54470900D01*
X108347400Y-54470900D01*
X108347400Y-52696650D01*
X108601400Y-52696650D01*
X108601400Y-54470900D01*
X108621400Y-54470900D01*
X108621400Y-54724900D01*
X108601400Y-54724900D01*
X108601400Y-56499150D01*
X108760150Y-56657900D01*
X109299400Y-56660972D01*
X109344849Y-56656496D01*
X109385716Y-56732951D01*
X109477504Y-56844796D01*
X109589349Y-56936584D01*
X109695693Y-56993427D01*
X109717932Y-57105229D01*
X109788414Y-57275389D01*
X109890738Y-57428528D01*
X110020972Y-57558762D01*
X110174111Y-57661086D01*
X110344271Y-57731568D01*
X110524911Y-57767500D01*
X110709089Y-57767500D01*
X110889729Y-57731568D01*
X111059889Y-57661086D01*
X111213028Y-57558762D01*
X111343262Y-57428528D01*
X111445586Y-57275389D01*
X111516068Y-57105229D01*
X111536546Y-57002279D01*
X111636000Y-56949119D01*
X111628428Y-57026000D01*
X111631500Y-57340250D01*
X111790250Y-57499000D01*
X112839500Y-57499000D01*
X112839500Y-57479000D01*
X113093500Y-57479000D01*
X113093500Y-57499000D01*
X114142750Y-57499000D01*
X114301500Y-57340250D01*
X114304572Y-57026000D01*
X114296067Y-56939648D01*
X114402746Y-56972008D01*
X114576000Y-56989072D01*
X115251000Y-56989072D01*
X115424254Y-56972008D01*
X115590850Y-56921472D01*
X115744386Y-56839405D01*
X115878962Y-56728962D01*
X115884342Y-56722406D01*
X115949815Y-56802185D01*
X116046506Y-56881537D01*
X116156820Y-56940502D01*
X116276518Y-56976812D01*
X116401000Y-56989072D01*
X116702750Y-56986000D01*
X116861500Y-56827250D01*
X116861500Y-55753000D01*
X117115500Y-55753000D01*
X117115500Y-56827250D01*
X117274250Y-56986000D01*
X117576000Y-56989072D01*
X117700482Y-56976812D01*
X117820180Y-56940502D01*
X117930494Y-56881537D01*
X118027185Y-56802185D01*
X118106537Y-56705494D01*
X118165502Y-56595180D01*
X118201812Y-56475482D01*
X118214072Y-56351000D01*
X118211000Y-55911750D01*
X118052250Y-55753000D01*
X117115500Y-55753000D01*
X116861500Y-55753000D01*
X116841500Y-55753000D01*
X116841500Y-55499000D01*
X116861500Y-55499000D01*
X116861500Y-54424750D01*
X117115500Y-54424750D01*
X117115500Y-55499000D01*
X118052250Y-55499000D01*
X118211000Y-55340250D01*
X118214072Y-54901000D01*
X118201812Y-54776518D01*
X118165502Y-54656820D01*
X118106537Y-54546506D01*
X118027185Y-54449815D01*
X117930494Y-54370463D01*
X117820180Y-54311498D01*
X117700482Y-54275188D01*
X117576000Y-54262928D01*
X117274250Y-54266000D01*
X117115500Y-54424750D01*
X116861500Y-54424750D01*
X116702750Y-54266000D01*
X116516012Y-54264099D01*
X116526337Y-54253774D01*
X116639605Y-54084256D01*
X116717626Y-53895898D01*
X116757400Y-53695939D01*
X116757400Y-53492061D01*
X116739769Y-53403419D01*
X120797800Y-53403419D01*
X120797800Y-53784581D01*
X120872161Y-54158419D01*
X121018025Y-54510566D01*
X121229787Y-54827491D01*
X121499309Y-55097013D01*
X121816234Y-55308775D01*
X122168381Y-55454639D01*
X122542219Y-55529000D01*
X122923381Y-55529000D01*
X123297219Y-55454639D01*
X123649366Y-55308775D01*
X123966291Y-55097013D01*
X124235813Y-54827491D01*
X124447575Y-54510566D01*
X124593439Y-54158419D01*
X124667800Y-53784581D01*
X124667800Y-53403419D01*
X124593439Y-53029581D01*
X124447575Y-52677434D01*
X124235813Y-52360509D01*
X123966291Y-52090987D01*
X123649366Y-51879225D01*
X123297219Y-51733361D01*
X122923381Y-51659000D01*
X122542219Y-51659000D01*
X122168381Y-51733361D01*
X121816234Y-51879225D01*
X121499309Y-52090987D01*
X121229787Y-52360509D01*
X121018025Y-52677434D01*
X120872161Y-53029581D01*
X120797800Y-53403419D01*
X116739769Y-53403419D01*
X116717626Y-53292102D01*
X116639605Y-53103744D01*
X116526337Y-52934226D01*
X116382174Y-52790063D01*
X116212656Y-52676795D01*
X116024298Y-52598774D01*
X115824339Y-52559000D01*
X115620461Y-52559000D01*
X115420502Y-52598774D01*
X115232144Y-52676795D01*
X115179256Y-52712134D01*
X115173205Y-52700813D01*
X115062762Y-52566238D01*
X114928187Y-52455795D01*
X114774651Y-52373728D01*
X114608055Y-52323192D01*
X114434801Y-52306128D01*
X112234799Y-52306128D01*
X112061545Y-52323192D01*
X111894949Y-52373728D01*
X111821962Y-52412741D01*
X111771296Y-52351004D01*
X111659451Y-52259216D01*
X111531848Y-52191010D01*
X111393391Y-52149010D01*
X111249400Y-52134828D01*
X110910376Y-52134828D01*
X110797889Y-52100705D01*
X110624400Y-52083618D01*
X110450910Y-52100705D01*
X110338423Y-52134828D01*
X109999400Y-52134828D01*
X109855409Y-52149010D01*
X109716952Y-52191010D01*
X109589349Y-52259216D01*
X109477504Y-52351004D01*
X109385716Y-52462849D01*
X109344849Y-52539304D01*
X109299400Y-52534828D01*
X108760150Y-52537900D01*
X108601400Y-52696650D01*
X108347400Y-52696650D01*
X108188650Y-52537900D01*
X107649400Y-52534828D01*
X107603951Y-52539304D01*
X107563084Y-52462849D01*
X107471296Y-52351004D01*
X107359451Y-52259216D01*
X107231848Y-52191010D01*
X107093391Y-52149010D01*
X106949400Y-52134828D01*
X106612214Y-52134828D01*
X106497090Y-52099905D01*
X106367077Y-52087100D01*
X106367069Y-52087100D01*
X106323600Y-52082819D01*
X106280131Y-52087100D01*
X105412569Y-52087100D01*
X105401405Y-52066213D01*
X105290962Y-51931638D01*
X105156387Y-51821195D01*
X105002851Y-51739128D01*
X104836255Y-51688592D01*
X104663001Y-51671528D01*
X103362999Y-51671528D01*
X103189745Y-51688592D01*
X103023149Y-51739128D01*
X102869613Y-51821195D01*
X102735038Y-51931638D01*
X102624595Y-52066213D01*
X102613431Y-52087100D01*
X101893472Y-52087100D01*
X101893472Y-52084400D01*
X101881212Y-51959918D01*
X101844902Y-51840220D01*
X101785937Y-51729906D01*
X101706585Y-51633215D01*
X101609894Y-51553863D01*
X101499580Y-51494898D01*
X101379882Y-51458588D01*
X101255400Y-51446328D01*
X99455400Y-51446328D01*
X99330918Y-51458588D01*
X99211220Y-51494898D01*
X99100906Y-51553863D01*
X99004215Y-51633215D01*
X98924863Y-51729906D01*
X98865898Y-51840220D01*
X98829588Y-51959918D01*
X98817328Y-52084400D01*
X95553850Y-52084400D01*
X95692000Y-51946250D01*
X95694466Y-50509600D01*
X102474928Y-50509600D01*
X102487188Y-50634082D01*
X102523498Y-50753780D01*
X102582463Y-50864094D01*
X102661815Y-50960785D01*
X102758506Y-51040137D01*
X102868820Y-51099102D01*
X102988518Y-51135412D01*
X103113000Y-51147672D01*
X103727250Y-51144600D01*
X103886000Y-50985850D01*
X103886000Y-49974100D01*
X104140000Y-49974100D01*
X104140000Y-50985850D01*
X104298750Y-51144600D01*
X104913000Y-51147672D01*
X104948252Y-51144200D01*
X111346728Y-51144200D01*
X111358988Y-51268682D01*
X111395298Y-51388380D01*
X111454263Y-51498694D01*
X111533615Y-51595385D01*
X111630306Y-51674737D01*
X111740620Y-51733702D01*
X111860318Y-51770012D01*
X111984800Y-51782272D01*
X113049050Y-51779200D01*
X113207800Y-51620450D01*
X113207800Y-50608700D01*
X113461800Y-50608700D01*
X113461800Y-51620450D01*
X113620550Y-51779200D01*
X114684800Y-51782272D01*
X114809282Y-51770012D01*
X114928980Y-51733702D01*
X115039294Y-51674737D01*
X115135985Y-51595385D01*
X115215337Y-51498694D01*
X115274302Y-51388380D01*
X115310612Y-51268682D01*
X115322872Y-51144200D01*
X115319800Y-50767450D01*
X115161050Y-50608700D01*
X113461800Y-50608700D01*
X113207800Y-50608700D01*
X111508550Y-50608700D01*
X111349800Y-50767450D01*
X111346728Y-51144200D01*
X104948252Y-51144200D01*
X105037482Y-51135412D01*
X105157180Y-51099102D01*
X105267494Y-51040137D01*
X105364185Y-50960785D01*
X105443537Y-50864094D01*
X105502502Y-50753780D01*
X105538812Y-50634082D01*
X105551072Y-50509600D01*
X105548000Y-50132850D01*
X105389250Y-49974100D01*
X104140000Y-49974100D01*
X103886000Y-49974100D01*
X102636750Y-49974100D01*
X102478000Y-50132850D01*
X102474928Y-50509600D01*
X95694466Y-50509600D01*
X95695072Y-50157000D01*
X95682812Y-50032518D01*
X95646502Y-49912820D01*
X95596461Y-49819200D01*
X111346728Y-49819200D01*
X111349800Y-50195950D01*
X111508550Y-50354700D01*
X113207800Y-50354700D01*
X113207800Y-49342950D01*
X113461800Y-49342950D01*
X113461800Y-50354700D01*
X115161050Y-50354700D01*
X115319800Y-50195950D01*
X115322872Y-49819200D01*
X115310612Y-49694718D01*
X115274302Y-49575020D01*
X115215337Y-49464706D01*
X115135985Y-49368015D01*
X115039294Y-49288663D01*
X114928980Y-49229698D01*
X114809282Y-49193388D01*
X114684800Y-49181128D01*
X113620550Y-49184200D01*
X113461800Y-49342950D01*
X113207800Y-49342950D01*
X113049050Y-49184200D01*
X111984800Y-49181128D01*
X111860318Y-49193388D01*
X111740620Y-49229698D01*
X111630306Y-49288663D01*
X111533615Y-49368015D01*
X111454263Y-49464706D01*
X111395298Y-49575020D01*
X111358988Y-49694718D01*
X111346728Y-49819200D01*
X95596461Y-49819200D01*
X95587537Y-49802506D01*
X95508185Y-49705815D01*
X95411494Y-49626463D01*
X95301180Y-49567498D01*
X95181482Y-49531188D01*
X95057000Y-49518928D01*
X94392750Y-49522000D01*
X94234000Y-49680750D01*
X93980000Y-49680750D01*
X93821250Y-49522000D01*
X93157000Y-49518928D01*
X93032518Y-49531188D01*
X92912820Y-49567498D01*
X92802506Y-49626463D01*
X92705815Y-49705815D01*
X92626463Y-49802506D01*
X92567498Y-49912820D01*
X92531188Y-50032518D01*
X92518928Y-50157000D01*
X81407000Y-50157000D01*
X81407000Y-49184600D01*
X102474928Y-49184600D01*
X102478000Y-49561350D01*
X102636750Y-49720100D01*
X103886000Y-49720100D01*
X103886000Y-48708350D01*
X104140000Y-48708350D01*
X104140000Y-49720100D01*
X105389250Y-49720100D01*
X105548000Y-49561350D01*
X105551072Y-49184600D01*
X105538812Y-49060118D01*
X105502502Y-48940420D01*
X105443537Y-48830106D01*
X105364185Y-48733415D01*
X105267494Y-48654063D01*
X105157180Y-48595098D01*
X105037482Y-48558788D01*
X104913000Y-48546528D01*
X104298750Y-48549600D01*
X104140000Y-48708350D01*
X103886000Y-48708350D01*
X103727250Y-48549600D01*
X103113000Y-48546528D01*
X102988518Y-48558788D01*
X102868820Y-48595098D01*
X102758506Y-48654063D01*
X102661815Y-48733415D01*
X102582463Y-48830106D01*
X102523498Y-48940420D01*
X102487188Y-49060118D01*
X102474928Y-49184600D01*
X81407000Y-49184600D01*
X81407000Y-45499872D01*
X82855000Y-45499872D01*
X82855000Y-45940128D01*
X82940890Y-46371925D01*
X83109369Y-46778669D01*
X83353962Y-47144729D01*
X83665271Y-47456038D01*
X84031331Y-47700631D01*
X84438075Y-47869110D01*
X84869872Y-47955000D01*
X85310128Y-47955000D01*
X85741925Y-47869110D01*
X86148669Y-47700631D01*
X86514729Y-47456038D01*
X86826038Y-47144729D01*
X87070631Y-46778669D01*
X87239110Y-46371925D01*
X87325000Y-45940128D01*
X87325000Y-45499872D01*
X123495000Y-45499872D01*
X123495000Y-45940128D01*
X123580890Y-46371925D01*
X123749369Y-46778669D01*
X123993962Y-47144729D01*
X124305271Y-47456038D01*
X124671331Y-47700631D01*
X125078075Y-47869110D01*
X125509872Y-47955000D01*
X125950128Y-47955000D01*
X126381925Y-47869110D01*
X126788669Y-47700631D01*
X127154729Y-47456038D01*
X127466038Y-47144729D01*
X127710631Y-46778669D01*
X127879110Y-46371925D01*
X127965000Y-45940128D01*
X127965000Y-45499872D01*
X127879110Y-45068075D01*
X127710631Y-44661331D01*
X127466038Y-44295271D01*
X127154729Y-43983962D01*
X126788669Y-43739369D01*
X126381925Y-43570890D01*
X125950128Y-43485000D01*
X125509872Y-43485000D01*
X125078075Y-43570890D01*
X124671331Y-43739369D01*
X124305271Y-43983962D01*
X123993962Y-44295271D01*
X123749369Y-44661331D01*
X123580890Y-45068075D01*
X123495000Y-45499872D01*
X87325000Y-45499872D01*
X87239110Y-45068075D01*
X87070631Y-44661331D01*
X86826038Y-44295271D01*
X86514729Y-43983962D01*
X86148669Y-43739369D01*
X85741925Y-43570890D01*
X85310128Y-43485000D01*
X84869872Y-43485000D01*
X84438075Y-43570890D01*
X84031331Y-43739369D01*
X83665271Y-43983962D01*
X83353962Y-44295271D01*
X83109369Y-44661331D01*
X82940890Y-45068075D01*
X82855000Y-45499872D01*
X81407000Y-45499872D01*
X81407000Y-41402000D01*
X129413000Y-41402000D01*
X129413000Y-87503000D01*
G37*
G04 #@! TD.AperFunction*
M02*
