M48
; DRILL file {KiCad (5.1.12-1-10_14)} date 2021 December 08, Wednesday 14:07:26
; FORMAT={-:-/ absolute / inch / decimal}
; #@! TF.CreationDate,2021-12-08T14:07:26+01:00
; #@! TF.GenerationSoftware,Kicad,Pcbnew,(5.1.12-1-10_14)
; #@! TF.FileFunction,Plated,1,2,PTH
FMAT,2
INCH
T1C0.0197
T2C0.0295
T3C0.0315
T4C0.0394
T5C0.0433
T6C0.0472
T7C0.0591
T8C0.0827
T9C0.1260
%
G90
G05
T1
X2.4855Y-1.675
X2.4887Y-5.175
X2.5132Y-1.6082
X2.5132Y-1.7418
X2.5164Y-5.1082
X2.5164Y-5.2418
X2.58Y-1.5805
X2.58Y-1.7695
X2.5832Y-5.0805
X2.5832Y-5.2695
X2.6468Y-1.6082
X2.6468Y-1.7418
X2.65Y-5.1082
X2.65Y-5.2418
X2.6745Y-1.675
X2.6777Y-5.175
X5.8563Y-3.8287
X7.9555Y-1.675
X7.9555Y-5.175
X7.9832Y-1.6082
X7.9832Y-1.7418
X7.9832Y-5.1082
X7.9832Y-5.2418
X8.05Y-1.5805
X8.05Y-1.7695
X8.05Y-5.0805
X8.05Y-5.2695
X8.1168Y-1.6082
X8.1168Y-1.7418
X8.1168Y-5.1082
X8.1168Y-5.2418
X8.1445Y-1.675
X8.1445Y-5.175
T2
X4.5025Y-3.935
X4.5025Y-3.985
X4.5025Y-4.035
X4.665Y-3.935
X4.665Y-3.985
X4.665Y-4.035
X5.78Y-4.335
X5.78Y-4.385
X5.78Y-4.435
X5.945Y-4.335
X5.945Y-4.385
X5.945Y-4.435
T3
X2.65Y-3.25
X2.65Y-3.4469
X2.795Y-4.02
X3.195Y-4.02
X3.435Y-4.35
X3.435Y-4.5469
X3.515Y-3.37
X3.515Y-3.67
X3.62Y-2.97
X3.62Y-3.37
X3.94Y-4.035
X3.9981Y-4.555
X4.195Y-4.555
X4.265Y-3.81
X4.33Y-4.675
X4.34Y-4.035
X4.58Y-2.545
X4.58Y-2.945
X4.59Y-4.155
X4.59Y-4.555
X4.665Y-3.81
X4.72Y-4.155
X4.72Y-4.3519
X4.73Y-4.675
X4.87Y-4.6725
X4.87Y-4.8694
X4.91Y-4.035
X4.91Y-4.435
X5.06Y-4.265
X5.06Y-4.665
X5.06Y-4.79
X5.06Y-4.8687
X5.12Y-2.93
X5.185Y-3.865
X5.185Y-4.265
X5.225Y-3.065
X5.225Y-3.25
X5.3169Y-2.93
X5.325Y-3.25
X5.34Y-2.575
X5.36Y-3.865
X5.4219Y-3.065
X5.425Y-3.25
X5.5569Y-3.865
X5.575Y-4.1825
X5.575Y-4.5825
X5.74Y-2.575
X5.855Y-2.55
X5.855Y-2.95
X6.13Y-4.335
X6.13Y-4.735
X6.9625Y-3.2725
X6.9625Y-3.6725
X7.1Y-2.97
X7.1Y-3.27
X7.19Y-4.345
X7.19Y-4.5419
X7.425Y-4.02
X7.825Y-4.02
X7.975Y-3.255
X7.975Y-3.4519
T4
X2.795Y-3.25
X2.795Y-3.35
X3.9975Y-4.8625
X4.375Y-4.87
X4.58Y-2.45
X4.68Y-2.45
X4.78Y-2.45
X5.005Y-2.45
X5.105Y-2.45
X5.205Y-2.45
X5.43Y-2.45
X5.53Y-2.45
X5.63Y-2.45
X5.855Y-2.45
X5.955Y-2.45
X6.055Y-2.45
X7.825Y-3.255
X7.825Y-3.355
T5
X2.795Y-3.5
X2.795Y-3.9
X7.825Y-3.5
X7.825Y-3.9
T6
X2.9981Y-4.35
X3.165Y-2.67
X3.165Y-3.67
X3.195Y-4.35
X4.0Y-2.67
X4.0Y-3.67
X4.935Y-2.76
X5.355Y-4.045
X5.355Y-4.645
X5.535Y-2.76
X6.635Y-2.67
X6.635Y-3.67
X7.425Y-4.345
X7.47Y-2.67
X7.47Y-3.67
X7.6219Y-4.345
T7
X2.95Y-2.5
X3.1646Y-2.5
X3.3791Y-2.5
X3.785Y-2.5
X3.9996Y-2.5
X4.2141Y-2.5
X6.42Y-2.5
X6.6346Y-2.5
X6.8491Y-2.5
X7.255Y-2.5
X7.4696Y-2.5
X7.6841Y-2.5
T8
X2.65Y-3.05
X5.355Y-4.835
X5.355Y-5.305
X5.3575Y-3.6675
X7.975Y-3.055
T9
X2.58Y-1.675
X2.5832Y-5.175
X8.05Y-1.675
X8.05Y-5.175
T0
M30
