G04 #@! TF.GenerationSoftware,KiCad,Pcbnew,(5.1.9-0-10_14)*
G04 #@! TF.CreationDate,2021-03-23T09:48:54+01:00*
G04 #@! TF.ProjectId,dac-cs4344,6461632d-6373-4343-9334-342e6b696361,rev?*
G04 #@! TF.SameCoordinates,Original*
G04 #@! TF.FileFunction,Soldermask,Top*
G04 #@! TF.FilePolarity,Negative*
%FSLAX46Y46*%
G04 Gerber Fmt 4.6, Leading zero omitted, Abs format (unit mm)*
G04 Created by KiCad (PCBNEW (5.1.9-0-10_14)) date 2021-03-23 09:48:54*
%MOMM*%
%LPD*%
G01*
G04 APERTURE LIST*
%ADD10R,1.308000X1.308000*%
%ADD11C,1.308000*%
%ADD12C,1.500000*%
%ADD13O,1.700000X1.700000*%
%ADD14R,1.700000X1.700000*%
%ADD15C,2.000000*%
%ADD16R,1.100000X0.250000*%
%ADD17C,1.600000*%
%ADD18R,2.000000X1.500000*%
%ADD19R,2.000000X3.800000*%
%ADD20C,1.000000*%
%ADD21R,1.600000X1.600000*%
%ADD22C,3.200000*%
%ADD23R,0.800000X1.000000*%
%ADD24C,2.400000*%
%ADD25R,2.400000X2.400000*%
G04 APERTURE END LIST*
G36*
G01*
X136362000Y-87463000D02*
X138212000Y-87463000D01*
G75*
G02*
X138462000Y-87713000I0J-250000D01*
G01*
X138462000Y-88713000D01*
G75*
G02*
X138212000Y-88963000I-250000J0D01*
G01*
X136362000Y-88963000D01*
G75*
G02*
X136112000Y-88713000I0J250000D01*
G01*
X136112000Y-87713000D01*
G75*
G02*
X136362000Y-87463000I250000J0D01*
G01*
G37*
G36*
G01*
X136362000Y-84213000D02*
X138212000Y-84213000D01*
G75*
G02*
X138462000Y-84463000I0J-250000D01*
G01*
X138462000Y-85463000D01*
G75*
G02*
X138212000Y-85713000I-250000J0D01*
G01*
X136362000Y-85713000D01*
G75*
G02*
X136112000Y-85463000I0J250000D01*
G01*
X136112000Y-84463000D01*
G75*
G02*
X136362000Y-84213000I250000J0D01*
G01*
G37*
G36*
G01*
X122534500Y-79264500D02*
X122534500Y-79739500D01*
G75*
G02*
X122297000Y-79977000I-237500J0D01*
G01*
X121797000Y-79977000D01*
G75*
G02*
X121559500Y-79739500I0J237500D01*
G01*
X121559500Y-79264500D01*
G75*
G02*
X121797000Y-79027000I237500J0D01*
G01*
X122297000Y-79027000D01*
G75*
G02*
X122534500Y-79264500I0J-237500D01*
G01*
G37*
G36*
G01*
X124359500Y-79264500D02*
X124359500Y-79739500D01*
G75*
G02*
X124122000Y-79977000I-237500J0D01*
G01*
X123622000Y-79977000D01*
G75*
G02*
X123384500Y-79739500I0J237500D01*
G01*
X123384500Y-79264500D01*
G75*
G02*
X123622000Y-79027000I237500J0D01*
G01*
X124122000Y-79027000D01*
G75*
G02*
X124359500Y-79264500I0J-237500D01*
G01*
G37*
G36*
G01*
X122534500Y-76724500D02*
X122534500Y-77199500D01*
G75*
G02*
X122297000Y-77437000I-237500J0D01*
G01*
X121797000Y-77437000D01*
G75*
G02*
X121559500Y-77199500I0J237500D01*
G01*
X121559500Y-76724500D01*
G75*
G02*
X121797000Y-76487000I237500J0D01*
G01*
X122297000Y-76487000D01*
G75*
G02*
X122534500Y-76724500I0J-237500D01*
G01*
G37*
G36*
G01*
X124359500Y-76724500D02*
X124359500Y-77199500D01*
G75*
G02*
X124122000Y-77437000I-237500J0D01*
G01*
X123622000Y-77437000D01*
G75*
G02*
X123384500Y-77199500I0J237500D01*
G01*
X123384500Y-76724500D01*
G75*
G02*
X123622000Y-76487000I237500J0D01*
G01*
X124122000Y-76487000D01*
G75*
G02*
X124359500Y-76724500I0J-237500D01*
G01*
G37*
G36*
G01*
X132100500Y-78342500D02*
X132100500Y-77867500D01*
G75*
G02*
X132338000Y-77630000I237500J0D01*
G01*
X132838000Y-77630000D01*
G75*
G02*
X133075500Y-77867500I0J-237500D01*
G01*
X133075500Y-78342500D01*
G75*
G02*
X132838000Y-78580000I-237500J0D01*
G01*
X132338000Y-78580000D01*
G75*
G02*
X132100500Y-78342500I0J237500D01*
G01*
G37*
G36*
G01*
X130275500Y-78342500D02*
X130275500Y-77867500D01*
G75*
G02*
X130513000Y-77630000I237500J0D01*
G01*
X131013000Y-77630000D01*
G75*
G02*
X131250500Y-77867500I0J-237500D01*
G01*
X131250500Y-78342500D01*
G75*
G02*
X131013000Y-78580000I-237500J0D01*
G01*
X130513000Y-78580000D01*
G75*
G02*
X130275500Y-78342500I0J237500D01*
G01*
G37*
G36*
G01*
X132124000Y-82152500D02*
X132124000Y-81677500D01*
G75*
G02*
X132361500Y-81440000I237500J0D01*
G01*
X132861500Y-81440000D01*
G75*
G02*
X133099000Y-81677500I0J-237500D01*
G01*
X133099000Y-82152500D01*
G75*
G02*
X132861500Y-82390000I-237500J0D01*
G01*
X132361500Y-82390000D01*
G75*
G02*
X132124000Y-82152500I0J237500D01*
G01*
G37*
G36*
G01*
X130299000Y-82152500D02*
X130299000Y-81677500D01*
G75*
G02*
X130536500Y-81440000I237500J0D01*
G01*
X131036500Y-81440000D01*
G75*
G02*
X131274000Y-81677500I0J-237500D01*
G01*
X131274000Y-82152500D01*
G75*
G02*
X131036500Y-82390000I-237500J0D01*
G01*
X130536500Y-82390000D01*
G75*
G02*
X130299000Y-82152500I0J237500D01*
G01*
G37*
G36*
G01*
X132100500Y-80247500D02*
X132100500Y-79772500D01*
G75*
G02*
X132338000Y-79535000I237500J0D01*
G01*
X132838000Y-79535000D01*
G75*
G02*
X133075500Y-79772500I0J-237500D01*
G01*
X133075500Y-80247500D01*
G75*
G02*
X132838000Y-80485000I-237500J0D01*
G01*
X132338000Y-80485000D01*
G75*
G02*
X132100500Y-80247500I0J237500D01*
G01*
G37*
G36*
G01*
X130275500Y-80247500D02*
X130275500Y-79772500D01*
G75*
G02*
X130513000Y-79535000I237500J0D01*
G01*
X131013000Y-79535000D01*
G75*
G02*
X131250500Y-79772500I0J-237500D01*
G01*
X131250500Y-80247500D01*
G75*
G02*
X131013000Y-80485000I-237500J0D01*
G01*
X130513000Y-80485000D01*
G75*
G02*
X130275500Y-80247500I0J237500D01*
G01*
G37*
G36*
G01*
X132100500Y-84057500D02*
X132100500Y-83582500D01*
G75*
G02*
X132338000Y-83345000I237500J0D01*
G01*
X132838000Y-83345000D01*
G75*
G02*
X133075500Y-83582500I0J-237500D01*
G01*
X133075500Y-84057500D01*
G75*
G02*
X132838000Y-84295000I-237500J0D01*
G01*
X132338000Y-84295000D01*
G75*
G02*
X132100500Y-84057500I0J237500D01*
G01*
G37*
G36*
G01*
X130275500Y-84057500D02*
X130275500Y-83582500D01*
G75*
G02*
X130513000Y-83345000I237500J0D01*
G01*
X131013000Y-83345000D01*
G75*
G02*
X131250500Y-83582500I0J-237500D01*
G01*
X131250500Y-84057500D01*
G75*
G02*
X131013000Y-84295000I-237500J0D01*
G01*
X130513000Y-84295000D01*
G75*
G02*
X130275500Y-84057500I0J237500D01*
G01*
G37*
G36*
G01*
X155769500Y-77453500D02*
X155769500Y-76978500D01*
G75*
G02*
X156007000Y-76741000I237500J0D01*
G01*
X156507000Y-76741000D01*
G75*
G02*
X156744500Y-76978500I0J-237500D01*
G01*
X156744500Y-77453500D01*
G75*
G02*
X156507000Y-77691000I-237500J0D01*
G01*
X156007000Y-77691000D01*
G75*
G02*
X155769500Y-77453500I0J237500D01*
G01*
G37*
G36*
G01*
X153944500Y-77453500D02*
X153944500Y-76978500D01*
G75*
G02*
X154182000Y-76741000I237500J0D01*
G01*
X154682000Y-76741000D01*
G75*
G02*
X154919500Y-76978500I0J-237500D01*
G01*
X154919500Y-77453500D01*
G75*
G02*
X154682000Y-77691000I-237500J0D01*
G01*
X154182000Y-77691000D01*
G75*
G02*
X153944500Y-77453500I0J237500D01*
G01*
G37*
G36*
G01*
X152637500Y-77703500D02*
X152162500Y-77703500D01*
G75*
G02*
X151925000Y-77466000I0J237500D01*
G01*
X151925000Y-76966000D01*
G75*
G02*
X152162500Y-76728500I237500J0D01*
G01*
X152637500Y-76728500D01*
G75*
G02*
X152875000Y-76966000I0J-237500D01*
G01*
X152875000Y-77466000D01*
G75*
G02*
X152637500Y-77703500I-237500J0D01*
G01*
G37*
G36*
G01*
X152637500Y-79528500D02*
X152162500Y-79528500D01*
G75*
G02*
X151925000Y-79291000I0J237500D01*
G01*
X151925000Y-78791000D01*
G75*
G02*
X152162500Y-78553500I237500J0D01*
G01*
X152637500Y-78553500D01*
G75*
G02*
X152875000Y-78791000I0J-237500D01*
G01*
X152875000Y-79291000D01*
G75*
G02*
X152637500Y-79528500I-237500J0D01*
G01*
G37*
G36*
G01*
X152162500Y-85110500D02*
X152637500Y-85110500D01*
G75*
G02*
X152875000Y-85348000I0J-237500D01*
G01*
X152875000Y-85848000D01*
G75*
G02*
X152637500Y-86085500I-237500J0D01*
G01*
X152162500Y-86085500D01*
G75*
G02*
X151925000Y-85848000I0J237500D01*
G01*
X151925000Y-85348000D01*
G75*
G02*
X152162500Y-85110500I237500J0D01*
G01*
G37*
G36*
G01*
X152162500Y-83285500D02*
X152637500Y-83285500D01*
G75*
G02*
X152875000Y-83523000I0J-237500D01*
G01*
X152875000Y-84023000D01*
G75*
G02*
X152637500Y-84260500I-237500J0D01*
G01*
X152162500Y-84260500D01*
G75*
G02*
X151925000Y-84023000I0J237500D01*
G01*
X151925000Y-83523000D01*
G75*
G02*
X152162500Y-83285500I237500J0D01*
G01*
G37*
D10*
X115294000Y-86490000D03*
D11*
X112754000Y-85220000D03*
X115294000Y-83950000D03*
X112754000Y-82680000D03*
X115294000Y-81410000D03*
X112754000Y-80140000D03*
X115294000Y-78870000D03*
X112754000Y-77600000D03*
X115294000Y-76330000D03*
X112754000Y-75060000D03*
D12*
X114554000Y-73660000D03*
D13*
X119126000Y-71882000D03*
X119126000Y-74422000D03*
X119126000Y-76962000D03*
X119126000Y-79502000D03*
X119126000Y-82042000D03*
X119126000Y-84582000D03*
X119126000Y-87122000D03*
D14*
X119126000Y-89662000D03*
D15*
X176657000Y-77343000D03*
X176530000Y-92710000D03*
X176657000Y-85598000D03*
D16*
X139945000Y-80407000D03*
X139945000Y-80907000D03*
X139945000Y-81407000D03*
X139945000Y-81907000D03*
X139945000Y-82407000D03*
X135645000Y-82407000D03*
X135645000Y-81907000D03*
X135645000Y-81407000D03*
X135645000Y-80907000D03*
X135645000Y-80407000D03*
G36*
G01*
X159098000Y-77887500D02*
X158148000Y-77887500D01*
G75*
G02*
X157898000Y-77637500I0J250000D01*
G01*
X157898000Y-76962500D01*
G75*
G02*
X158148000Y-76712500I250000J0D01*
G01*
X159098000Y-76712500D01*
G75*
G02*
X159348000Y-76962500I0J-250000D01*
G01*
X159348000Y-77637500D01*
G75*
G02*
X159098000Y-77887500I-250000J0D01*
G01*
G37*
G36*
G01*
X159098000Y-79962500D02*
X158148000Y-79962500D01*
G75*
G02*
X157898000Y-79712500I0J250000D01*
G01*
X157898000Y-79037500D01*
G75*
G02*
X158148000Y-78787500I250000J0D01*
G01*
X159098000Y-78787500D01*
G75*
G02*
X159348000Y-79037500I0J-250000D01*
G01*
X159348000Y-79712500D01*
G75*
G02*
X159098000Y-79962500I-250000J0D01*
G01*
G37*
G36*
G01*
X134888000Y-74386000D02*
X134888000Y-76236000D01*
G75*
G02*
X134638000Y-76486000I-250000J0D01*
G01*
X133638000Y-76486000D01*
G75*
G02*
X133388000Y-76236000I0J250000D01*
G01*
X133388000Y-74386000D01*
G75*
G02*
X133638000Y-74136000I250000J0D01*
G01*
X134638000Y-74136000D01*
G75*
G02*
X134888000Y-74386000I0J-250000D01*
G01*
G37*
G36*
G01*
X138138000Y-74386000D02*
X138138000Y-76236000D01*
G75*
G02*
X137888000Y-76486000I-250000J0D01*
G01*
X136888000Y-76486000D01*
G75*
G02*
X136638000Y-76236000I0J250000D01*
G01*
X136638000Y-74386000D01*
G75*
G02*
X136888000Y-74136000I250000J0D01*
G01*
X137888000Y-74136000D01*
G75*
G02*
X138138000Y-74386000I0J-250000D01*
G01*
G37*
D17*
X144780000Y-77216000D03*
X149780000Y-77216000D03*
G36*
G01*
X136876500Y-78215500D02*
X136876500Y-77740500D01*
G75*
G02*
X137114000Y-77503000I237500J0D01*
G01*
X137714000Y-77503000D01*
G75*
G02*
X137951500Y-77740500I0J-237500D01*
G01*
X137951500Y-78215500D01*
G75*
G02*
X137714000Y-78453000I-237500J0D01*
G01*
X137114000Y-78453000D01*
G75*
G02*
X136876500Y-78215500I0J237500D01*
G01*
G37*
G36*
G01*
X135151500Y-78215500D02*
X135151500Y-77740500D01*
G75*
G02*
X135389000Y-77503000I237500J0D01*
G01*
X135989000Y-77503000D01*
G75*
G02*
X136226500Y-77740500I0J-237500D01*
G01*
X136226500Y-78215500D01*
G75*
G02*
X135989000Y-78453000I-237500J0D01*
G01*
X135389000Y-78453000D01*
G75*
G02*
X135151500Y-78215500I0J237500D01*
G01*
G37*
X144780000Y-85598000D03*
X149780000Y-85598000D03*
G36*
G01*
X140299000Y-87463000D02*
X142149000Y-87463000D01*
G75*
G02*
X142399000Y-87713000I0J-250000D01*
G01*
X142399000Y-88713000D01*
G75*
G02*
X142149000Y-88963000I-250000J0D01*
G01*
X140299000Y-88963000D01*
G75*
G02*
X140049000Y-88713000I0J250000D01*
G01*
X140049000Y-87713000D01*
G75*
G02*
X140299000Y-87463000I250000J0D01*
G01*
G37*
G36*
G01*
X140299000Y-84213000D02*
X142149000Y-84213000D01*
G75*
G02*
X142399000Y-84463000I0J-250000D01*
G01*
X142399000Y-85463000D01*
G75*
G02*
X142149000Y-85713000I-250000J0D01*
G01*
X140299000Y-85713000D01*
G75*
G02*
X140049000Y-85463000I0J250000D01*
G01*
X140049000Y-84463000D01*
G75*
G02*
X140299000Y-84213000I250000J0D01*
G01*
G37*
G36*
G01*
X155769500Y-85835500D02*
X155769500Y-85360500D01*
G75*
G02*
X156007000Y-85123000I237500J0D01*
G01*
X156507000Y-85123000D01*
G75*
G02*
X156744500Y-85360500I0J-237500D01*
G01*
X156744500Y-85835500D01*
G75*
G02*
X156507000Y-86073000I-237500J0D01*
G01*
X156007000Y-86073000D01*
G75*
G02*
X155769500Y-85835500I0J237500D01*
G01*
G37*
G36*
G01*
X153944500Y-85835500D02*
X153944500Y-85360500D01*
G75*
G02*
X154182000Y-85123000I237500J0D01*
G01*
X154682000Y-85123000D01*
G75*
G02*
X154919500Y-85360500I0J-237500D01*
G01*
X154919500Y-85835500D01*
G75*
G02*
X154682000Y-86073000I-237500J0D01*
G01*
X154182000Y-86073000D01*
G75*
G02*
X153944500Y-85835500I0J237500D01*
G01*
G37*
D15*
X176657000Y-69215000D03*
G36*
G01*
X158148000Y-85032000D02*
X159098000Y-85032000D01*
G75*
G02*
X159348000Y-85282000I0J-250000D01*
G01*
X159348000Y-85957000D01*
G75*
G02*
X159098000Y-86207000I-250000J0D01*
G01*
X158148000Y-86207000D01*
G75*
G02*
X157898000Y-85957000I0J250000D01*
G01*
X157898000Y-85282000D01*
G75*
G02*
X158148000Y-85032000I250000J0D01*
G01*
G37*
G36*
G01*
X158148000Y-82957000D02*
X159098000Y-82957000D01*
G75*
G02*
X159348000Y-83207000I0J-250000D01*
G01*
X159348000Y-83882000D01*
G75*
G02*
X159098000Y-84132000I-250000J0D01*
G01*
X158148000Y-84132000D01*
G75*
G02*
X157898000Y-83882000I0J250000D01*
G01*
X157898000Y-83207000D01*
G75*
G02*
X158148000Y-82957000I250000J0D01*
G01*
G37*
G36*
G01*
X134730500Y-85500500D02*
X134255500Y-85500500D01*
G75*
G02*
X134018000Y-85263000I0J237500D01*
G01*
X134018000Y-84663000D01*
G75*
G02*
X134255500Y-84425500I237500J0D01*
G01*
X134730500Y-84425500D01*
G75*
G02*
X134968000Y-84663000I0J-237500D01*
G01*
X134968000Y-85263000D01*
G75*
G02*
X134730500Y-85500500I-237500J0D01*
G01*
G37*
G36*
G01*
X134730500Y-87225500D02*
X134255500Y-87225500D01*
G75*
G02*
X134018000Y-86988000I0J237500D01*
G01*
X134018000Y-86388000D01*
G75*
G02*
X134255500Y-86150500I237500J0D01*
G01*
X134730500Y-86150500D01*
G75*
G02*
X134968000Y-86388000I0J-237500D01*
G01*
X134968000Y-86988000D01*
G75*
G02*
X134730500Y-87225500I-237500J0D01*
G01*
G37*
X141986000Y-122047000D03*
X135890000Y-122047000D03*
D18*
X163893500Y-99222500D03*
X163893500Y-103822500D03*
X163893500Y-101522500D03*
D19*
X170193500Y-101522500D03*
D18*
X149275000Y-99363500D03*
X149275000Y-103963500D03*
X149275000Y-101663500D03*
D19*
X155575000Y-101663500D03*
D18*
X149352000Y-110081000D03*
X149352000Y-114681000D03*
X149352000Y-112381000D03*
D19*
X155652000Y-112381000D03*
D20*
X163893500Y-94678500D03*
X149288500Y-94678500D03*
G36*
G01*
X169811000Y-95603500D02*
X169811000Y-93753500D01*
G75*
G02*
X170061000Y-93503500I250000J0D01*
G01*
X171061000Y-93503500D01*
G75*
G02*
X171311000Y-93753500I0J-250000D01*
G01*
X171311000Y-95603500D01*
G75*
G02*
X171061000Y-95853500I-250000J0D01*
G01*
X170061000Y-95853500D01*
G75*
G02*
X169811000Y-95603500I0J250000D01*
G01*
G37*
G36*
G01*
X166561000Y-95603500D02*
X166561000Y-93753500D01*
G75*
G02*
X166811000Y-93503500I250000J0D01*
G01*
X167811000Y-93503500D01*
G75*
G02*
X168061000Y-93753500I0J-250000D01*
G01*
X168061000Y-95603500D01*
G75*
G02*
X167811000Y-95853500I-250000J0D01*
G01*
X166811000Y-95853500D01*
G75*
G02*
X166561000Y-95603500I0J250000D01*
G01*
G37*
G36*
G01*
X155079000Y-95603500D02*
X155079000Y-93753500D01*
G75*
G02*
X155329000Y-93503500I250000J0D01*
G01*
X156329000Y-93503500D01*
G75*
G02*
X156579000Y-93753500I0J-250000D01*
G01*
X156579000Y-95603500D01*
G75*
G02*
X156329000Y-95853500I-250000J0D01*
G01*
X155329000Y-95853500D01*
G75*
G02*
X155079000Y-95603500I0J250000D01*
G01*
G37*
G36*
G01*
X151829000Y-95603500D02*
X151829000Y-93753500D01*
G75*
G02*
X152079000Y-93503500I250000J0D01*
G01*
X153079000Y-93503500D01*
G75*
G02*
X153329000Y-93753500I0J-250000D01*
G01*
X153329000Y-95603500D01*
G75*
G02*
X153079000Y-95853500I-250000J0D01*
G01*
X152079000Y-95853500D01*
G75*
G02*
X151829000Y-95603500I0J250000D01*
G01*
G37*
G36*
G01*
X159294500Y-101061500D02*
X159294500Y-102011500D01*
G75*
G02*
X159044500Y-102261500I-250000J0D01*
G01*
X158369500Y-102261500D01*
G75*
G02*
X158119500Y-102011500I0J250000D01*
G01*
X158119500Y-101061500D01*
G75*
G02*
X158369500Y-100811500I250000J0D01*
G01*
X159044500Y-100811500D01*
G75*
G02*
X159294500Y-101061500I0J-250000D01*
G01*
G37*
G36*
G01*
X161369500Y-101061500D02*
X161369500Y-102011500D01*
G75*
G02*
X161119500Y-102261500I-250000J0D01*
G01*
X160444500Y-102261500D01*
G75*
G02*
X160194500Y-102011500I0J250000D01*
G01*
X160194500Y-101061500D01*
G75*
G02*
X160444500Y-100811500I250000J0D01*
G01*
X161119500Y-100811500D01*
G75*
G02*
X161369500Y-101061500I0J-250000D01*
G01*
G37*
G36*
G01*
X144542000Y-101188500D02*
X144542000Y-102138500D01*
G75*
G02*
X144292000Y-102388500I-250000J0D01*
G01*
X143617000Y-102388500D01*
G75*
G02*
X143367000Y-102138500I0J250000D01*
G01*
X143367000Y-101188500D01*
G75*
G02*
X143617000Y-100938500I250000J0D01*
G01*
X144292000Y-100938500D01*
G75*
G02*
X144542000Y-101188500I0J-250000D01*
G01*
G37*
G36*
G01*
X146617000Y-101188500D02*
X146617000Y-102138500D01*
G75*
G02*
X146367000Y-102388500I-250000J0D01*
G01*
X145692000Y-102388500D01*
G75*
G02*
X145442000Y-102138500I0J250000D01*
G01*
X145442000Y-101188500D01*
G75*
G02*
X145692000Y-100938500I250000J0D01*
G01*
X146367000Y-100938500D01*
G75*
G02*
X146617000Y-101188500I0J-250000D01*
G01*
G37*
G36*
G01*
X159294500Y-103347500D02*
X159294500Y-104297500D01*
G75*
G02*
X159044500Y-104547500I-250000J0D01*
G01*
X158369500Y-104547500D01*
G75*
G02*
X158119500Y-104297500I0J250000D01*
G01*
X158119500Y-103347500D01*
G75*
G02*
X158369500Y-103097500I250000J0D01*
G01*
X159044500Y-103097500D01*
G75*
G02*
X159294500Y-103347500I0J-250000D01*
G01*
G37*
G36*
G01*
X161369500Y-103347500D02*
X161369500Y-104297500D01*
G75*
G02*
X161119500Y-104547500I-250000J0D01*
G01*
X160444500Y-104547500D01*
G75*
G02*
X160194500Y-104297500I0J250000D01*
G01*
X160194500Y-103347500D01*
G75*
G02*
X160444500Y-103097500I250000J0D01*
G01*
X161119500Y-103097500D01*
G75*
G02*
X161369500Y-103347500I0J-250000D01*
G01*
G37*
G36*
G01*
X144520500Y-103474500D02*
X144520500Y-104424500D01*
G75*
G02*
X144270500Y-104674500I-250000J0D01*
G01*
X143595500Y-104674500D01*
G75*
G02*
X143345500Y-104424500I0J250000D01*
G01*
X143345500Y-103474500D01*
G75*
G02*
X143595500Y-103224500I250000J0D01*
G01*
X144270500Y-103224500D01*
G75*
G02*
X144520500Y-103474500I0J-250000D01*
G01*
G37*
G36*
G01*
X146595500Y-103474500D02*
X146595500Y-104424500D01*
G75*
G02*
X146345500Y-104674500I-250000J0D01*
G01*
X145670500Y-104674500D01*
G75*
G02*
X145420500Y-104424500I0J250000D01*
G01*
X145420500Y-103474500D01*
G75*
G02*
X145670500Y-103224500I250000J0D01*
G01*
X146345500Y-103224500D01*
G75*
G02*
X146595500Y-103474500I0J-250000D01*
G01*
G37*
D17*
X164211000Y-112331500D03*
D21*
X160711000Y-112331500D03*
G36*
G01*
X144499000Y-111920000D02*
X144499000Y-112870000D01*
G75*
G02*
X144249000Y-113120000I-250000J0D01*
G01*
X143574000Y-113120000D01*
G75*
G02*
X143324000Y-112870000I0J250000D01*
G01*
X143324000Y-111920000D01*
G75*
G02*
X143574000Y-111670000I250000J0D01*
G01*
X144249000Y-111670000D01*
G75*
G02*
X144499000Y-111920000I0J-250000D01*
G01*
G37*
G36*
G01*
X146574000Y-111920000D02*
X146574000Y-112870000D01*
G75*
G02*
X146324000Y-113120000I-250000J0D01*
G01*
X145649000Y-113120000D01*
G75*
G02*
X145399000Y-112870000I0J250000D01*
G01*
X145399000Y-111920000D01*
G75*
G02*
X145649000Y-111670000I250000J0D01*
G01*
X146324000Y-111670000D01*
G75*
G02*
X146574000Y-111920000I0J-250000D01*
G01*
G37*
G36*
G01*
X150371000Y-118941001D02*
X150371000Y-118040999D01*
G75*
G02*
X150620999Y-117791000I249999J0D01*
G01*
X151321001Y-117791000D01*
G75*
G02*
X151571000Y-118040999I0J-249999D01*
G01*
X151571000Y-118941001D01*
G75*
G02*
X151321001Y-119191000I-249999J0D01*
G01*
X150620999Y-119191000D01*
G75*
G02*
X150371000Y-118941001I0J249999D01*
G01*
G37*
G36*
G01*
X148371000Y-118941001D02*
X148371000Y-118040999D01*
G75*
G02*
X148620999Y-117791000I249999J0D01*
G01*
X149321001Y-117791000D01*
G75*
G02*
X149571000Y-118040999I0J-249999D01*
G01*
X149571000Y-118941001D01*
G75*
G02*
X149321001Y-119191000I-249999J0D01*
G01*
X148620999Y-119191000D01*
G75*
G02*
X148371000Y-118941001I0J249999D01*
G01*
G37*
D15*
X122047000Y-122047000D03*
X128143000Y-122047000D03*
X155067000Y-122047000D03*
X160655000Y-122047000D03*
X166751000Y-122047000D03*
X148971000Y-122047000D03*
D22*
X113665000Y-119507000D03*
X196215000Y-119380000D03*
X196215000Y-61595000D03*
X113665000Y-61595000D03*
D23*
X123825000Y-112749000D03*
X126365000Y-112749000D03*
X126365000Y-118899000D03*
X123825000Y-118899000D03*
G36*
G01*
X144520500Y-114206000D02*
X144520500Y-115156000D01*
G75*
G02*
X144270500Y-115406000I-250000J0D01*
G01*
X143595500Y-115406000D01*
G75*
G02*
X143345500Y-115156000I0J250000D01*
G01*
X143345500Y-114206000D01*
G75*
G02*
X143595500Y-113956000I250000J0D01*
G01*
X144270500Y-113956000D01*
G75*
G02*
X144520500Y-114206000I0J-250000D01*
G01*
G37*
G36*
G01*
X146595500Y-114206000D02*
X146595500Y-115156000D01*
G75*
G02*
X146345500Y-115406000I-250000J0D01*
G01*
X145670500Y-115406000D01*
G75*
G02*
X145420500Y-115156000I0J250000D01*
G01*
X145420500Y-114206000D01*
G75*
G02*
X145670500Y-113956000I250000J0D01*
G01*
X146345500Y-113956000D01*
G75*
G02*
X146595500Y-114206000I0J-250000D01*
G01*
G37*
D24*
X135890000Y-109681000D03*
D25*
X135890000Y-114681000D03*
M02*
