G04 #@! TF.GenerationSoftware,KiCad,Pcbnew,(5.1.7-0-10_14)*
G04 #@! TF.CreationDate,2020-11-10T14:54:09+01:00*
G04 #@! TF.ProjectId,input-sel-v1,696e7075-742d-4736-956c-2d76312e6b69,rev?*
G04 #@! TF.SameCoordinates,Original*
G04 #@! TF.FileFunction,Soldermask,Top*
G04 #@! TF.FilePolarity,Negative*
%FSLAX46Y46*%
G04 Gerber Fmt 4.6, Leading zero omitted, Abs format (unit mm)*
G04 Created by KiCad (PCBNEW (5.1.7-0-10_14)) date 2020-11-10 14:54:09*
%MOMM*%
%LPD*%
G01*
G04 APERTURE LIST*
%ADD10O,1.600000X1.600000*%
%ADD11R,1.600000X1.600000*%
%ADD12C,0.100000*%
%ADD13R,0.900000X1.300000*%
%ADD14O,1.905000X2.000000*%
%ADD15R,1.905000X2.000000*%
%ADD16R,1.800000X0.800000*%
%ADD17C,2.000000*%
%ADD18O,1.700000X1.700000*%
%ADD19R,1.700000X1.700000*%
%ADD20C,1.500000*%
%ADD21C,1.308000*%
%ADD22R,1.308000X1.308000*%
%ADD23C,3.200000*%
%ADD24R,1.000000X0.800000*%
G04 APERTURE END LIST*
G36*
G01*
X167790000Y-74065000D02*
X167490000Y-74065000D01*
G75*
G02*
X167340000Y-73915000I0J150000D01*
G01*
X167340000Y-72265000D01*
G75*
G02*
X167490000Y-72115000I150000J0D01*
G01*
X167790000Y-72115000D01*
G75*
G02*
X167940000Y-72265000I0J-150000D01*
G01*
X167940000Y-73915000D01*
G75*
G02*
X167790000Y-74065000I-150000J0D01*
G01*
G37*
G36*
G01*
X169060000Y-74065000D02*
X168760000Y-74065000D01*
G75*
G02*
X168610000Y-73915000I0J150000D01*
G01*
X168610000Y-72265000D01*
G75*
G02*
X168760000Y-72115000I150000J0D01*
G01*
X169060000Y-72115000D01*
G75*
G02*
X169210000Y-72265000I0J-150000D01*
G01*
X169210000Y-73915000D01*
G75*
G02*
X169060000Y-74065000I-150000J0D01*
G01*
G37*
G36*
G01*
X170330000Y-74065000D02*
X170030000Y-74065000D01*
G75*
G02*
X169880000Y-73915000I0J150000D01*
G01*
X169880000Y-72265000D01*
G75*
G02*
X170030000Y-72115000I150000J0D01*
G01*
X170330000Y-72115000D01*
G75*
G02*
X170480000Y-72265000I0J-150000D01*
G01*
X170480000Y-73915000D01*
G75*
G02*
X170330000Y-74065000I-150000J0D01*
G01*
G37*
G36*
G01*
X171600000Y-74065000D02*
X171300000Y-74065000D01*
G75*
G02*
X171150000Y-73915000I0J150000D01*
G01*
X171150000Y-72265000D01*
G75*
G02*
X171300000Y-72115000I150000J0D01*
G01*
X171600000Y-72115000D01*
G75*
G02*
X171750000Y-72265000I0J-150000D01*
G01*
X171750000Y-73915000D01*
G75*
G02*
X171600000Y-74065000I-150000J0D01*
G01*
G37*
G36*
G01*
X172870000Y-74065000D02*
X172570000Y-74065000D01*
G75*
G02*
X172420000Y-73915000I0J150000D01*
G01*
X172420000Y-72265000D01*
G75*
G02*
X172570000Y-72115000I150000J0D01*
G01*
X172870000Y-72115000D01*
G75*
G02*
X173020000Y-72265000I0J-150000D01*
G01*
X173020000Y-73915000D01*
G75*
G02*
X172870000Y-74065000I-150000J0D01*
G01*
G37*
G36*
G01*
X174140000Y-74065000D02*
X173840000Y-74065000D01*
G75*
G02*
X173690000Y-73915000I0J150000D01*
G01*
X173690000Y-72265000D01*
G75*
G02*
X173840000Y-72115000I150000J0D01*
G01*
X174140000Y-72115000D01*
G75*
G02*
X174290000Y-72265000I0J-150000D01*
G01*
X174290000Y-73915000D01*
G75*
G02*
X174140000Y-74065000I-150000J0D01*
G01*
G37*
G36*
G01*
X175410000Y-74065000D02*
X175110000Y-74065000D01*
G75*
G02*
X174960000Y-73915000I0J150000D01*
G01*
X174960000Y-72265000D01*
G75*
G02*
X175110000Y-72115000I150000J0D01*
G01*
X175410000Y-72115000D01*
G75*
G02*
X175560000Y-72265000I0J-150000D01*
G01*
X175560000Y-73915000D01*
G75*
G02*
X175410000Y-74065000I-150000J0D01*
G01*
G37*
G36*
G01*
X176680000Y-74065000D02*
X176380000Y-74065000D01*
G75*
G02*
X176230000Y-73915000I0J150000D01*
G01*
X176230000Y-72265000D01*
G75*
G02*
X176380000Y-72115000I150000J0D01*
G01*
X176680000Y-72115000D01*
G75*
G02*
X176830000Y-72265000I0J-150000D01*
G01*
X176830000Y-73915000D01*
G75*
G02*
X176680000Y-74065000I-150000J0D01*
G01*
G37*
G36*
G01*
X176680000Y-79015000D02*
X176380000Y-79015000D01*
G75*
G02*
X176230000Y-78865000I0J150000D01*
G01*
X176230000Y-77215000D01*
G75*
G02*
X176380000Y-77065000I150000J0D01*
G01*
X176680000Y-77065000D01*
G75*
G02*
X176830000Y-77215000I0J-150000D01*
G01*
X176830000Y-78865000D01*
G75*
G02*
X176680000Y-79015000I-150000J0D01*
G01*
G37*
G36*
G01*
X175410000Y-79015000D02*
X175110000Y-79015000D01*
G75*
G02*
X174960000Y-78865000I0J150000D01*
G01*
X174960000Y-77215000D01*
G75*
G02*
X175110000Y-77065000I150000J0D01*
G01*
X175410000Y-77065000D01*
G75*
G02*
X175560000Y-77215000I0J-150000D01*
G01*
X175560000Y-78865000D01*
G75*
G02*
X175410000Y-79015000I-150000J0D01*
G01*
G37*
G36*
G01*
X174140000Y-79015000D02*
X173840000Y-79015000D01*
G75*
G02*
X173690000Y-78865000I0J150000D01*
G01*
X173690000Y-77215000D01*
G75*
G02*
X173840000Y-77065000I150000J0D01*
G01*
X174140000Y-77065000D01*
G75*
G02*
X174290000Y-77215000I0J-150000D01*
G01*
X174290000Y-78865000D01*
G75*
G02*
X174140000Y-79015000I-150000J0D01*
G01*
G37*
G36*
G01*
X172870000Y-79015000D02*
X172570000Y-79015000D01*
G75*
G02*
X172420000Y-78865000I0J150000D01*
G01*
X172420000Y-77215000D01*
G75*
G02*
X172570000Y-77065000I150000J0D01*
G01*
X172870000Y-77065000D01*
G75*
G02*
X173020000Y-77215000I0J-150000D01*
G01*
X173020000Y-78865000D01*
G75*
G02*
X172870000Y-79015000I-150000J0D01*
G01*
G37*
G36*
G01*
X171600000Y-79015000D02*
X171300000Y-79015000D01*
G75*
G02*
X171150000Y-78865000I0J150000D01*
G01*
X171150000Y-77215000D01*
G75*
G02*
X171300000Y-77065000I150000J0D01*
G01*
X171600000Y-77065000D01*
G75*
G02*
X171750000Y-77215000I0J-150000D01*
G01*
X171750000Y-78865000D01*
G75*
G02*
X171600000Y-79015000I-150000J0D01*
G01*
G37*
G36*
G01*
X170330000Y-79015000D02*
X170030000Y-79015000D01*
G75*
G02*
X169880000Y-78865000I0J150000D01*
G01*
X169880000Y-77215000D01*
G75*
G02*
X170030000Y-77065000I150000J0D01*
G01*
X170330000Y-77065000D01*
G75*
G02*
X170480000Y-77215000I0J-150000D01*
G01*
X170480000Y-78865000D01*
G75*
G02*
X170330000Y-79015000I-150000J0D01*
G01*
G37*
G36*
G01*
X169060000Y-79015000D02*
X168760000Y-79015000D01*
G75*
G02*
X168610000Y-78865000I0J150000D01*
G01*
X168610000Y-77215000D01*
G75*
G02*
X168760000Y-77065000I150000J0D01*
G01*
X169060000Y-77065000D01*
G75*
G02*
X169210000Y-77215000I0J-150000D01*
G01*
X169210000Y-78865000D01*
G75*
G02*
X169060000Y-79015000I-150000J0D01*
G01*
G37*
G36*
G01*
X167790000Y-79015000D02*
X167490000Y-79015000D01*
G75*
G02*
X167340000Y-78865000I0J150000D01*
G01*
X167340000Y-77215000D01*
G75*
G02*
X167490000Y-77065000I150000J0D01*
G01*
X167790000Y-77065000D01*
G75*
G02*
X167940000Y-77215000I0J-150000D01*
G01*
X167940000Y-78865000D01*
G75*
G02*
X167790000Y-79015000I-150000J0D01*
G01*
G37*
D10*
X161925000Y-82550000D03*
X184785000Y-90170000D03*
X164465000Y-82550000D03*
X182245000Y-90170000D03*
X167005000Y-82550000D03*
X179705000Y-90170000D03*
X169545000Y-82550000D03*
X177165000Y-90170000D03*
X172085000Y-82550000D03*
X174625000Y-90170000D03*
X174625000Y-82550000D03*
X172085000Y-90170000D03*
X177165000Y-82550000D03*
X169545000Y-90170000D03*
X179705000Y-82550000D03*
X167005000Y-90170000D03*
X182245000Y-82550000D03*
X164465000Y-90170000D03*
X184785000Y-82550000D03*
D11*
X161925000Y-90170000D03*
D12*
G36*
X140103500Y-79770000D02*
G01*
X140103500Y-76645000D01*
X140520000Y-76645000D01*
X140520000Y-75170000D01*
X141420000Y-75170000D01*
X141420000Y-76645000D01*
X141836500Y-76645000D01*
X141836500Y-79770000D01*
X140103500Y-79770000D01*
G37*
D13*
X139470000Y-75820000D03*
X142470000Y-75820000D03*
D14*
X143510000Y-84455000D03*
X140970000Y-84455000D03*
D15*
X138430000Y-84455000D03*
G36*
G01*
X181845000Y-99244999D02*
X181845000Y-100145001D01*
G75*
G02*
X181595001Y-100395000I-249999J0D01*
G01*
X180894999Y-100395000D01*
G75*
G02*
X180645000Y-100145001I0J249999D01*
G01*
X180645000Y-99244999D01*
G75*
G02*
X180894999Y-98995000I249999J0D01*
G01*
X181595001Y-98995000D01*
G75*
G02*
X181845000Y-99244999I0J-249999D01*
G01*
G37*
G36*
G01*
X183845000Y-99244999D02*
X183845000Y-100145001D01*
G75*
G02*
X183595001Y-100395000I-249999J0D01*
G01*
X182894999Y-100395000D01*
G75*
G02*
X182645000Y-100145001I0J249999D01*
G01*
X182645000Y-99244999D01*
G75*
G02*
X182894999Y-98995000I249999J0D01*
G01*
X183595001Y-98995000D01*
G75*
G02*
X183845000Y-99244999I0J-249999D01*
G01*
G37*
G36*
G01*
X173805001Y-102470000D02*
X172904999Y-102470000D01*
G75*
G02*
X172655000Y-102220001I0J249999D01*
G01*
X172655000Y-101519999D01*
G75*
G02*
X172904999Y-101270000I249999J0D01*
G01*
X173805001Y-101270000D01*
G75*
G02*
X174055000Y-101519999I0J-249999D01*
G01*
X174055000Y-102220001D01*
G75*
G02*
X173805001Y-102470000I-249999J0D01*
G01*
G37*
G36*
G01*
X173805001Y-104470000D02*
X172904999Y-104470000D01*
G75*
G02*
X172655000Y-104220001I0J249999D01*
G01*
X172655000Y-103519999D01*
G75*
G02*
X172904999Y-103270000I249999J0D01*
G01*
X173805001Y-103270000D01*
G75*
G02*
X174055000Y-103519999I0J-249999D01*
G01*
X174055000Y-104220001D01*
G75*
G02*
X173805001Y-104470000I-249999J0D01*
G01*
G37*
G36*
G01*
X210150000Y-82734999D02*
X210150000Y-83635001D01*
G75*
G02*
X209900001Y-83885000I-249999J0D01*
G01*
X209199999Y-83885000D01*
G75*
G02*
X208950000Y-83635001I0J249999D01*
G01*
X208950000Y-82734999D01*
G75*
G02*
X209199999Y-82485000I249999J0D01*
G01*
X209900001Y-82485000D01*
G75*
G02*
X210150000Y-82734999I0J-249999D01*
G01*
G37*
G36*
G01*
X212150000Y-82734999D02*
X212150000Y-83635001D01*
G75*
G02*
X211900001Y-83885000I-249999J0D01*
G01*
X211199999Y-83885000D01*
G75*
G02*
X210950000Y-83635001I0J249999D01*
G01*
X210950000Y-82734999D01*
G75*
G02*
X211199999Y-82485000I249999J0D01*
G01*
X211900001Y-82485000D01*
G75*
G02*
X212150000Y-82734999I0J-249999D01*
G01*
G37*
G36*
G01*
X203015001Y-79610000D02*
X202114999Y-79610000D01*
G75*
G02*
X201865000Y-79360001I0J249999D01*
G01*
X201865000Y-78659999D01*
G75*
G02*
X202114999Y-78410000I249999J0D01*
G01*
X203015001Y-78410000D01*
G75*
G02*
X203265000Y-78659999I0J-249999D01*
G01*
X203265000Y-79360001D01*
G75*
G02*
X203015001Y-79610000I-249999J0D01*
G01*
G37*
G36*
G01*
X203015001Y-81610000D02*
X202114999Y-81610000D01*
G75*
G02*
X201865000Y-81360001I0J249999D01*
G01*
X201865000Y-80659999D01*
G75*
G02*
X202114999Y-80410000I249999J0D01*
G01*
X203015001Y-80410000D01*
G75*
G02*
X203265000Y-80659999I0J-249999D01*
G01*
X203265000Y-81360001D01*
G75*
G02*
X203015001Y-81610000I-249999J0D01*
G01*
G37*
G36*
G01*
X161474999Y-97920000D02*
X162375001Y-97920000D01*
G75*
G02*
X162625000Y-98169999I0J-249999D01*
G01*
X162625000Y-98870001D01*
G75*
G02*
X162375001Y-99120000I-249999J0D01*
G01*
X161474999Y-99120000D01*
G75*
G02*
X161225000Y-98870001I0J249999D01*
G01*
X161225000Y-98169999D01*
G75*
G02*
X161474999Y-97920000I249999J0D01*
G01*
G37*
G36*
G01*
X161474999Y-95920000D02*
X162375001Y-95920000D01*
G75*
G02*
X162625000Y-96169999I0J-249999D01*
G01*
X162625000Y-96870001D01*
G75*
G02*
X162375001Y-97120000I-249999J0D01*
G01*
X161474999Y-97120000D01*
G75*
G02*
X161225000Y-96870001I0J249999D01*
G01*
X161225000Y-96169999D01*
G75*
G02*
X161474999Y-95920000I249999J0D01*
G01*
G37*
G36*
G01*
X166554999Y-97920000D02*
X167455001Y-97920000D01*
G75*
G02*
X167705000Y-98169999I0J-249999D01*
G01*
X167705000Y-98870001D01*
G75*
G02*
X167455001Y-99120000I-249999J0D01*
G01*
X166554999Y-99120000D01*
G75*
G02*
X166305000Y-98870001I0J249999D01*
G01*
X166305000Y-98169999D01*
G75*
G02*
X166554999Y-97920000I249999J0D01*
G01*
G37*
G36*
G01*
X166554999Y-95920000D02*
X167455001Y-95920000D01*
G75*
G02*
X167705000Y-96169999I0J-249999D01*
G01*
X167705000Y-96870001D01*
G75*
G02*
X167455001Y-97120000I-249999J0D01*
G01*
X166554999Y-97120000D01*
G75*
G02*
X166305000Y-96870001I0J249999D01*
G01*
X166305000Y-96169999D01*
G75*
G02*
X166554999Y-95920000I249999J0D01*
G01*
G37*
D16*
X200025000Y-67945000D03*
X200025000Y-65405000D03*
X200025000Y-62865000D03*
X200025000Y-60325000D03*
X193025000Y-60325000D03*
X193025000Y-62865000D03*
X193025000Y-65405000D03*
X193025000Y-67945000D03*
X179070000Y-67945000D03*
X179070000Y-65405000D03*
X179070000Y-62865000D03*
X179070000Y-60325000D03*
X172070000Y-60325000D03*
X172070000Y-62865000D03*
X172070000Y-65405000D03*
X172070000Y-67945000D03*
X158115000Y-67945000D03*
X158115000Y-65405000D03*
X158115000Y-62865000D03*
X158115000Y-60325000D03*
X151115000Y-60325000D03*
X151115000Y-62865000D03*
X151115000Y-65405000D03*
X151115000Y-67945000D03*
X137160000Y-67945000D03*
X137160000Y-65405000D03*
X137160000Y-62865000D03*
X137160000Y-60325000D03*
X130160000Y-60325000D03*
X130160000Y-62865000D03*
X130160000Y-65405000D03*
X130160000Y-67945000D03*
X200040000Y-81915000D03*
X200040000Y-79375000D03*
X200040000Y-76835000D03*
X200040000Y-74295000D03*
X193040000Y-74295000D03*
X193040000Y-76835000D03*
X193040000Y-79375000D03*
X193040000Y-81915000D03*
D17*
X189865000Y-50800000D03*
X193040000Y-53975000D03*
X203200000Y-57150000D03*
X200025000Y-53975000D03*
X168910000Y-50800000D03*
X172085000Y-53975000D03*
X182245000Y-57150000D03*
X179070000Y-53975000D03*
X147955000Y-50800000D03*
X151130000Y-53975000D03*
X161290000Y-57150000D03*
X158115000Y-53975000D03*
X127000000Y-50800000D03*
X130175000Y-53975000D03*
X140335000Y-57150000D03*
X137160000Y-53975000D03*
X211455000Y-67310000D03*
X208280000Y-70485000D03*
X205105000Y-80010000D03*
X208280000Y-76835000D03*
D18*
X156845000Y-80010000D03*
X156845000Y-82550000D03*
X156845000Y-85090000D03*
X156845000Y-87630000D03*
X156845000Y-90170000D03*
D19*
X156845000Y-92710000D03*
D20*
X191265000Y-104670000D03*
D21*
X189865000Y-102870000D03*
X188595000Y-105410000D03*
X187325000Y-102870000D03*
X186055000Y-105410000D03*
X184785000Y-102870000D03*
X183515000Y-105410000D03*
X182245000Y-102870000D03*
X180975000Y-105410000D03*
X179705000Y-102870000D03*
D22*
X178435000Y-105410000D03*
D17*
X118745000Y-88900000D03*
X118745000Y-94615000D03*
X118745000Y-74930000D03*
X118745000Y-81280000D03*
X146685000Y-104140000D03*
X152400000Y-104140000D03*
X158750000Y-104140000D03*
X164465000Y-104140000D03*
D23*
X118745000Y-104140000D03*
X210185000Y-104140000D03*
X210185000Y-52705000D03*
X118745000Y-52705000D03*
D24*
X128805000Y-90805000D03*
X128805000Y-93345000D03*
X122655000Y-93345000D03*
X122655000Y-90805000D03*
G36*
G01*
X163412500Y-93820000D02*
X163412500Y-92870000D01*
G75*
G02*
X163662500Y-92620000I250000J0D01*
G01*
X164337500Y-92620000D01*
G75*
G02*
X164587500Y-92870000I0J-250000D01*
G01*
X164587500Y-93820000D01*
G75*
G02*
X164337500Y-94070000I-250000J0D01*
G01*
X163662500Y-94070000D01*
G75*
G02*
X163412500Y-93820000I0J250000D01*
G01*
G37*
G36*
G01*
X161337500Y-93820000D02*
X161337500Y-92870000D01*
G75*
G02*
X161587500Y-92620000I250000J0D01*
G01*
X162262500Y-92620000D01*
G75*
G02*
X162512500Y-92870000I0J-250000D01*
G01*
X162512500Y-93820000D01*
G75*
G02*
X162262500Y-94070000I-250000J0D01*
G01*
X161587500Y-94070000D01*
G75*
G02*
X161337500Y-93820000I0J250000D01*
G01*
G37*
G36*
G01*
X179657500Y-72550000D02*
X179657500Y-73500000D01*
G75*
G02*
X179407500Y-73750000I-250000J0D01*
G01*
X178732500Y-73750000D01*
G75*
G02*
X178482500Y-73500000I0J250000D01*
G01*
X178482500Y-72550000D01*
G75*
G02*
X178732500Y-72300000I250000J0D01*
G01*
X179407500Y-72300000D01*
G75*
G02*
X179657500Y-72550000I0J-250000D01*
G01*
G37*
G36*
G01*
X181732500Y-72550000D02*
X181732500Y-73500000D01*
G75*
G02*
X181482500Y-73750000I-250000J0D01*
G01*
X180807500Y-73750000D01*
G75*
G02*
X180557500Y-73500000I0J250000D01*
G01*
X180557500Y-72550000D01*
G75*
G02*
X180807500Y-72300000I250000J0D01*
G01*
X181482500Y-72300000D01*
G75*
G02*
X181732500Y-72550000I0J-250000D01*
G01*
G37*
G36*
G01*
X149945000Y-84215000D02*
X151045000Y-84215000D01*
G75*
G02*
X151295000Y-84465000I0J-250000D01*
G01*
X151295000Y-86565000D01*
G75*
G02*
X151045000Y-86815000I-250000J0D01*
G01*
X149945000Y-86815000D01*
G75*
G02*
X149695000Y-86565000I0J250000D01*
G01*
X149695000Y-84465000D01*
G75*
G02*
X149945000Y-84215000I250000J0D01*
G01*
G37*
G36*
G01*
X149945000Y-80615000D02*
X151045000Y-80615000D01*
G75*
G02*
X151295000Y-80865000I0J-250000D01*
G01*
X151295000Y-82965000D01*
G75*
G02*
X151045000Y-83215000I-250000J0D01*
G01*
X149945000Y-83215000D01*
G75*
G02*
X149695000Y-82965000I0J250000D01*
G01*
X149695000Y-80865000D01*
G75*
G02*
X149945000Y-80615000I250000J0D01*
G01*
G37*
G36*
G01*
X146210000Y-77517500D02*
X147160000Y-77517500D01*
G75*
G02*
X147410000Y-77767500I0J-250000D01*
G01*
X147410000Y-78442500D01*
G75*
G02*
X147160000Y-78692500I-250000J0D01*
G01*
X146210000Y-78692500D01*
G75*
G02*
X145960000Y-78442500I0J250000D01*
G01*
X145960000Y-77767500D01*
G75*
G02*
X146210000Y-77517500I250000J0D01*
G01*
G37*
G36*
G01*
X146210000Y-75442500D02*
X147160000Y-75442500D01*
G75*
G02*
X147410000Y-75692500I0J-250000D01*
G01*
X147410000Y-76367500D01*
G75*
G02*
X147160000Y-76617500I-250000J0D01*
G01*
X146210000Y-76617500D01*
G75*
G02*
X145960000Y-76367500I0J250000D01*
G01*
X145960000Y-75692500D01*
G75*
G02*
X146210000Y-75442500I250000J0D01*
G01*
G37*
G36*
G01*
X135207500Y-75260000D02*
X135207500Y-76210000D01*
G75*
G02*
X134957500Y-76460000I-250000J0D01*
G01*
X134282500Y-76460000D01*
G75*
G02*
X134032500Y-76210000I0J250000D01*
G01*
X134032500Y-75260000D01*
G75*
G02*
X134282500Y-75010000I250000J0D01*
G01*
X134957500Y-75010000D01*
G75*
G02*
X135207500Y-75260000I0J-250000D01*
G01*
G37*
G36*
G01*
X137282500Y-75260000D02*
X137282500Y-76210000D01*
G75*
G02*
X137032500Y-76460000I-250000J0D01*
G01*
X136357500Y-76460000D01*
G75*
G02*
X136107500Y-76210000I0J250000D01*
G01*
X136107500Y-75260000D01*
G75*
G02*
X136357500Y-75010000I250000J0D01*
G01*
X137032500Y-75010000D01*
G75*
G02*
X137282500Y-75260000I0J-250000D01*
G01*
G37*
G36*
G01*
X137430000Y-94285000D02*
X139430000Y-94285000D01*
G75*
G02*
X139680000Y-94535000I0J-250000D01*
G01*
X139680000Y-97535000D01*
G75*
G02*
X139430000Y-97785000I-250000J0D01*
G01*
X137430000Y-97785000D01*
G75*
G02*
X137180000Y-97535000I0J250000D01*
G01*
X137180000Y-94535000D01*
G75*
G02*
X137430000Y-94285000I250000J0D01*
G01*
G37*
G36*
G01*
X137430000Y-87785000D02*
X139430000Y-87785000D01*
G75*
G02*
X139680000Y-88035000I0J-250000D01*
G01*
X139680000Y-91035000D01*
G75*
G02*
X139430000Y-91285000I-250000J0D01*
G01*
X137430000Y-91285000D01*
G75*
G02*
X137180000Y-91035000I0J250000D01*
G01*
X137180000Y-88035000D01*
G75*
G02*
X137430000Y-87785000I250000J0D01*
G01*
G37*
M02*
