M48
; DRILL file {KiCad (5.1.9-0-10_14)} date Sunday, January 24, 2021 at 04:16:16 PM
; FORMAT={-:-/ absolute / inch / decimal}
; #@! TF.CreationDate,2021-01-24T16:16:16+01:00
; #@! TF.GenerationSoftware,Kicad,Pcbnew,(5.1.9-0-10_14)
; #@! TF.FileFunction,Plated,1,2,PTH
FMAT,2
INCH
T1C0.0118
T2C0.0295
T3C0.0315
T4C0.0394
%
G90
G05
T1
X5.37Y-4.905
X5.465Y-4.905
X5.495Y-4.215
X5.5025Y-4.6125
X5.5025Y-4.808
X5.54Y-4.31
X5.615Y-5.06
X5.636Y-4.5045
X5.6367Y-4.6688
X5.6375Y-4.5885
X5.7005Y-4.602
X5.7308Y-4.2742
X5.732Y-4.8545
X5.7325Y-4.3115
X5.7566Y-4.5445
X5.757Y-4.6025
X5.775Y-4.14
X5.795Y-4.3245
X5.795Y-4.545
X5.795Y-4.68
X5.845Y-4.82
X5.855Y-4.115
X6.035Y-4.605
X6.05Y-4.515
X6.0606Y-4.7331
X6.1546Y-4.4796
X6.18Y-4.85
X6.1815Y-4.7954
X6.21Y-4.555
X6.215Y-4.36
X6.255Y-4.515
X6.3Y-4.36
X6.34Y-4.72
X6.475Y-4.65
X6.535Y-4.8
X6.735Y-4.265
X6.755Y-5.16
X6.815Y-4.36
X6.905Y-5.0
X6.96Y-5.3
X6.9625Y-4.615
X7.025Y-4.48
X7.07Y-4.615
X7.115Y-4.8
X7.305Y-4.5875
X7.305Y-5.01
T2
X7.105Y-4.39
X7.105Y-4.55
X7.105Y-5.08
X7.105Y-5.24
X7.155Y-4.39
X7.155Y-4.55
X7.155Y-5.08
X7.155Y-5.24
X7.205Y-4.39
X7.205Y-4.55
X7.205Y-5.08
X7.205Y-5.24
T3
X5.06Y-4.615
X5.25Y-5.285
X5.2569Y-4.615
X5.35Y-5.385
X5.45Y-5.285
X5.635Y-3.9322
X5.635Y-4.07
X5.785Y-5.0
X5.93Y-3.8731
X5.93Y-4.07
X5.96Y-5.175
X5.96Y-5.3128
X5.9819Y-5.0
X6.4Y-4.91
X6.4Y-4.9887
X6.585Y-3.9322
X6.585Y-4.07
X6.585Y-5.52
X6.585Y-5.6578
X6.855Y-4.65
X6.855Y-4.85
X6.955Y-4.75
X6.96Y-5.52
X6.96Y-5.6578
X6.9825Y-3.9322
X6.9825Y-4.07
X7.105Y-4.2175
X7.1425Y-4.7175
X7.1425Y-4.9144
X7.2075Y-5.4125
X7.3019Y-4.2175
X7.4044Y-5.4125
T4
X4.94Y-4.615
X4.94Y-4.925
X7.49Y-4.49
X7.49Y-4.8
X7.8025Y-5.27
X7.805Y-4.325
X7.805Y-4.8
T0
M30
