G04 #@! TF.GenerationSoftware,KiCad,Pcbnew,(6.0.1-0)*
G04 #@! TF.CreationDate,2022-02-11T16:00:43+01:00*
G04 #@! TF.ProjectId,psu-mosfet-80w,7073752d-6d6f-4736-9665-742d3830772e,rev?*
G04 #@! TF.SameCoordinates,Original*
G04 #@! TF.FileFunction,Copper,L2,Bot*
G04 #@! TF.FilePolarity,Positive*
%FSLAX46Y46*%
G04 Gerber Fmt 4.6, Leading zero omitted, Abs format (unit mm)*
G04 Created by KiCad (PCBNEW (6.0.1-0)) date 2022-02-11 16:00:43*
%MOMM*%
%LPD*%
G01*
G04 APERTURE LIST*
G04 #@! TA.AperFunction,ComponentPad*
%ADD10C,2.400000*%
G04 #@! TD*
G04 #@! TA.AperFunction,ComponentPad*
%ADD11R,4.000000X4.000000*%
G04 #@! TD*
G04 #@! TA.AperFunction,ComponentPad*
%ADD12C,4.000000*%
G04 #@! TD*
G04 #@! TA.AperFunction,ComponentPad*
%ADD13O,4.800600X2.400300*%
G04 #@! TD*
G04 #@! TA.AperFunction,ComponentPad*
%ADD14R,2.500000X2.500000*%
G04 #@! TD*
G04 #@! TA.AperFunction,ComponentPad*
%ADD15C,2.500000*%
G04 #@! TD*
G04 #@! TA.AperFunction,ComponentPad*
%ADD16C,2.600000*%
G04 #@! TD*
G04 #@! TA.AperFunction,ComponentPad*
%ADD17O,2.400000X2.400000*%
G04 #@! TD*
G04 #@! TA.AperFunction,ComponentPad*
%ADD18C,1.600000*%
G04 #@! TD*
G04 #@! TA.AperFunction,ComponentPad*
%ADD19C,2.145000*%
G04 #@! TD*
G04 #@! TA.AperFunction,ComponentPad*
%ADD20C,2.000000*%
G04 #@! TD*
G04 #@! TA.AperFunction,ViaPad*
%ADD21C,0.800000*%
G04 #@! TD*
G04 #@! TA.AperFunction,Conductor*
%ADD22C,3.000000*%
G04 #@! TD*
G04 #@! TA.AperFunction,Conductor*
%ADD23C,0.500000*%
G04 #@! TD*
G04 APERTURE END LIST*
D10*
X59690000Y-115570000D03*
X74690000Y-115570000D03*
D11*
X100711000Y-73660000D03*
D12*
X100711000Y-63660000D03*
X100584000Y-104935000D03*
D11*
X100584000Y-114935000D03*
X142494000Y-73660000D03*
D12*
X142494000Y-63660000D03*
D11*
X142494000Y-114935000D03*
D12*
X142494000Y-104935000D03*
D13*
X68199000Y-94615000D03*
X78359000Y-94615000D03*
X68199000Y-100965000D03*
X78359000Y-100965000D03*
X78359000Y-77470000D03*
X68199000Y-77470000D03*
X78359000Y-83820000D03*
X68199000Y-83820000D03*
D14*
X53594000Y-83820000D03*
D15*
X53594000Y-88820000D03*
X53594000Y-93820000D03*
D16*
X53594000Y-109982000D03*
D10*
X59690000Y-109855000D03*
D17*
X74930000Y-109855000D03*
D18*
X166370000Y-82550000D03*
X166370000Y-87550000D03*
X166370000Y-90805000D03*
X166370000Y-95805000D03*
D14*
X176530000Y-83900000D03*
D15*
X176530000Y-88900000D03*
X176530000Y-93900000D03*
D19*
X166370000Y-99568000D03*
X166370000Y-104648000D03*
D20*
X176530000Y-66294000D03*
D19*
X53594000Y-78994000D03*
X53594000Y-73914000D03*
X166370000Y-78740000D03*
X166370000Y-73660000D03*
D20*
X176530000Y-58420000D03*
X67078000Y-50768000D03*
D10*
X78232000Y-70358000D03*
D17*
X57912000Y-70358000D03*
D20*
X74178000Y-50768000D03*
D19*
X170180000Y-91440000D03*
X170180000Y-86360000D03*
D10*
X166370000Y-70104000D03*
D17*
X166370000Y-49784000D03*
D10*
X166370000Y-128524000D03*
D17*
X166370000Y-108204000D03*
D19*
X53594000Y-103886000D03*
X53594000Y-98806000D03*
X59944000Y-91440000D03*
X59944000Y-86360000D03*
D21*
X75168000Y-58436000D03*
X76200000Y-67056000D03*
X73914000Y-67056000D03*
D22*
X166370000Y-104648000D02*
X166370000Y-108204000D01*
X166370000Y-99568000D02*
X166370000Y-104648000D01*
X166370000Y-95805000D02*
X166370000Y-99568000D01*
X166370000Y-73660000D02*
X166370000Y-70104000D01*
X166370000Y-78740000D02*
X166370000Y-73660000D01*
X166370000Y-82550000D02*
X166370000Y-78740000D01*
X166370000Y-95805000D02*
X174625000Y-95805000D01*
X174625000Y-95805000D02*
X176530000Y-93900000D01*
X166370000Y-82550000D02*
X175180000Y-82550000D01*
X175180000Y-82550000D02*
X176530000Y-83900000D01*
D23*
X176530000Y-58420000D02*
X75184000Y-58420000D01*
X75184000Y-58420000D02*
X75168000Y-58436000D01*
X73914000Y-67056000D02*
X73914000Y-71374000D01*
X73914000Y-71374000D02*
X68199000Y-77089000D01*
X68199000Y-77089000D02*
X68199000Y-77470000D01*
X76200000Y-67056000D02*
X76200000Y-71882000D01*
X76200000Y-71882000D02*
X73406000Y-74676000D01*
X73406000Y-74676000D02*
X73406000Y-78613000D01*
X73406000Y-78613000D02*
X68199000Y-83820000D01*
X57912000Y-70358000D02*
X57912000Y-67034000D01*
X57912000Y-67034000D02*
X74178000Y-50768000D01*
X78232000Y-70358000D02*
X97409000Y-70358000D01*
X97409000Y-70358000D02*
X100711000Y-73660000D01*
D22*
X59690000Y-109855000D02*
X59690000Y-115570000D01*
X53594000Y-109982000D02*
X59563000Y-109982000D01*
X59563000Y-109982000D02*
X59690000Y-109855000D01*
X68199000Y-77470000D02*
X59944000Y-77470000D01*
X59944000Y-77470000D02*
X53594000Y-83820000D01*
X68199000Y-100965000D02*
X60739000Y-100965000D01*
X60739000Y-100965000D02*
X53594000Y-93820000D01*
X53594000Y-98806000D02*
X53594000Y-103886000D01*
X53594000Y-93820000D02*
X53594000Y-98806000D01*
X53594000Y-78994000D02*
X53594000Y-73914000D01*
X53594000Y-83820000D02*
X53594000Y-78994000D01*
X64098690Y-90514690D02*
X68199000Y-94615000D01*
X64098690Y-81570310D02*
X64098690Y-90514690D01*
X68199000Y-77470000D02*
X64098690Y-81570310D01*
X68199000Y-100965000D02*
X73279000Y-95885000D01*
X70104000Y-83820000D02*
X68199000Y-83820000D01*
X73279000Y-86995000D02*
X70104000Y-83820000D01*
X73279000Y-95885000D02*
X73279000Y-86995000D01*
X78359000Y-80645000D02*
X78359000Y-77470000D01*
X157480000Y-73660000D02*
X166370000Y-82550000D01*
X100711000Y-73660000D02*
X142494000Y-73660000D01*
X78359000Y-83820000D02*
X78359000Y-80645000D01*
X93726000Y-80645000D02*
X100711000Y-73660000D01*
X78359000Y-80645000D02*
X93726000Y-80645000D01*
X142494000Y-73660000D02*
X157480000Y-73660000D01*
X157240000Y-104935000D02*
X166370000Y-95805000D01*
X142494000Y-104935000D02*
X100584000Y-104935000D01*
X78359000Y-97790000D02*
X93439000Y-97790000D01*
X142494000Y-104935000D02*
X157240000Y-104935000D01*
X93439000Y-97790000D02*
X100584000Y-104935000D01*
X78359000Y-100965000D02*
X78359000Y-97790000D01*
X78359000Y-97790000D02*
X78359000Y-94615000D01*
M02*
