M48
; DRILL file {KiCad (5.1.10-0-10_14)} date Saturday, June 26, 2021 at 03:37:52 PM
; FORMAT={-:-/ absolute / inch / decimal}
; #@! TF.CreationDate,2021-06-26T15:37:52+02:00
; #@! TF.GenerationSoftware,Kicad,Pcbnew,(5.1.10-0-10_14)
; #@! TF.FileFunction,Plated,1,2,PTH
FMAT,2
INCH
T1C0.0118
T2C0.0157
T3C0.0315
T4C0.0394
%
G90
G05
T1
X4.875Y-3.8875
X4.875Y-4.23
X4.89Y-3.4775
X4.89Y-3.625
X4.93Y-3.4375
X4.93Y-3.58
X4.935Y-3.155
X4.935Y-3.215
X4.935Y-3.275
X5.125Y-3.4625
X5.1532Y-3.3599
X5.1617Y-3.4142
X5.1725Y-3.335
X5.1775Y-3.385
X5.29Y-3.515
X5.29Y-3.565
X5.295Y-3.21
X5.3051Y-3.5927
X5.3925Y-3.69
X5.44Y-3.345
X5.44Y-3.5075
X5.4425Y-3.2125
X5.6325Y-3.4275
X5.6875Y-3.0175
X5.6875Y-3.645
X5.725Y-3.335
X5.725Y-3.515
X5.7925Y-3.3075
X5.7925Y-3.54
X5.975Y-3.1625
X5.975Y-3.7875
X6.0244Y-3.0675
X6.025Y-3.6975
X6.2125Y-3.665
X6.2525Y-3.08
X6.28Y-3.575
X6.315Y-3.2125
X6.315Y-3.38
X6.315Y-3.84
X6.3525Y-3.7675
X6.39Y-3.14
X6.4675Y-3.26
X6.5675Y-3.7675
X6.66Y-3.1725
X6.8725Y-3.6875
T2
X5.6325Y-3.1975
T3
X4.4441Y-3.275
X4.4441Y-3.375
X4.4441Y-3.475
X4.4441Y-3.575
X4.4441Y-3.675
X4.5441Y-3.325
X4.5441Y-3.425
X4.5441Y-3.525
X4.5441Y-3.625
X4.5441Y-3.725
T4
X4.7Y-3.15
X4.7Y-3.25
X4.7Y-3.35
X4.7Y-3.45
X4.7Y-3.55
X4.7Y-3.65
X4.7Y-3.75
X4.7Y-3.85
X4.875Y-4.395
X5.0725Y-4.3975
X5.36Y-4.4
X5.5625Y-4.4
X5.925Y-4.3
X6.125Y-4.3
X6.325Y-4.3
X7.1Y-3.125
X7.1Y-3.3425
X7.1Y-3.6
X7.1Y-3.8125
T0
M30
