M48
; DRILL file {KiCad (5.1.9-0-10_14)} date Saturday, February 13, 2021 at 11:15:43 AM
; FORMAT={-:-/ absolute / inch / decimal}
; #@! TF.CreationDate,2021-02-13T11:15:43+01:00
; #@! TF.GenerationSoftware,Kicad,Pcbnew,(5.1.9-0-10_14)
; #@! TF.FileFunction,Plated,1,2,PTH
FMAT,2
INCH
T1C0.0118
T2C0.0157
T3C0.0295
T4C0.0315
T5C0.0394
T6C0.0433
T7C0.0472
T8C0.0512
T9C0.0591
T10C0.0630
T11C0.0787
T12C0.0984
%
G90
G05
T1
X4.76Y-4.4
X5.02Y-4.51
X5.59Y-4.4
X6.18Y-4.44
T2
X4.305Y-4.695
X4.305Y-4.84
X6.8Y-3.03
T3
X5.14Y-3.325
X5.19Y-3.275
X5.24Y-3.325
T4
X5.0Y-4.02
X5.4Y-4.02
X5.44Y-2.83
X5.44Y-2.93
X5.44Y-3.03
X5.46Y-4.7513
X5.46Y-4.83
X5.63Y-2.83
X5.63Y-2.97
X5.635Y-5.77
X5.7137Y-5.77
X5.78Y-2.65
X5.8784Y-2.65
X6.03Y-2.83
X6.03Y-2.97
T5
X2.78Y-5.84
X2.81Y-2.95
X2.81Y-3.15
X2.815Y-3.67
X2.8163Y-2.43
X3.175Y-5.84
X3.2037Y-2.95
X3.2037Y-3.15
X3.2087Y-3.67
X3.21Y-2.43
X3.57Y-5.84
X3.965Y-5.84
T6
X4.105Y-4.475
X4.205Y-4.475
X4.305Y-4.475
X5.11Y-3.695
X5.21Y-3.695
X5.275Y-5.57
X5.305Y-5.095
X5.31Y-3.695
X5.38Y-5.265
X5.44Y-3.49
X5.48Y-5.265
X5.58Y-5.265
X5.63Y-3.15
X5.675Y-5.57
X5.705Y-5.095
X5.84Y-3.49
X6.03Y-3.15
X6.26Y-3.23
X6.26Y-3.63
X6.47Y-2.27
X6.5331Y-2.7757
X6.6Y-2.63
X6.6669Y-2.7757
X6.7339Y-2.63
X6.8008Y-2.7757
X6.87Y-2.27
T7
X2.335Y-3.4694
X2.335Y-4.06
X2.56Y-3.465
X2.56Y-4.065
X4.92Y-2.87
X4.92Y-3.4606
X6.67Y-2.97
X6.67Y-4.0527
X7.11Y-2.9
X7.27Y-3.33
X7.27Y-3.93
X7.9958Y-2.9
T8
X2.125Y-2.68
X2.125Y-3.075
X2.125Y-3.47
X2.125Y-4.54
X2.125Y-5.34
X4.48Y-5.84
X5.365Y-5.84
X6.66Y-5.84
X7.08Y-5.84
T9
X6.2894Y-4.4447
X6.2894Y-4.74
X6.88Y-4.4447
X6.88Y-4.74
X7.0769Y-4.4447
X7.0769Y-4.74
X7.2737Y-4.4447
X7.2737Y-4.74
T10
X2.39Y-4.54
X2.39Y-4.73
X2.39Y-5.14
X2.39Y-5.34
X2.79Y-4.54
X2.79Y-4.73
X2.79Y-5.14
X2.79Y-5.34
T11
X3.53Y-4.765
X3.53Y-5.1587
X4.05Y-2.73
X4.05Y-3.1237
T12
X4.71Y-3.865
X4.98Y-5.445
X5.71Y-3.865
X5.98Y-5.445
X6.17Y-2.4
X7.17Y-2.4
T0
M30
