M48
; DRILL file {KiCad (5.1.10-0-10_14)} date Sunday, October 17, 2021 at 01:02:43 PM
; FORMAT={-:-/ absolute / inch / decimal}
; #@! TF.CreationDate,2021-10-17T13:02:43+02:00
; #@! TF.GenerationSoftware,Kicad,Pcbnew,(5.1.10-0-10_14)
; #@! TF.FileFunction,Plated,1,2,PTH
FMAT,2
INCH
T1C0.0118
T2C0.0157
T3C0.0315
T4C0.0394
T5C0.0433
T6C0.0472
T7C0.0512
%
G90
G05
T1
X4.2425Y-1.2325
X5.0962Y-1.9637
X5.3475Y-2.05
X5.365Y-2.8925
X5.3957Y-1.9893
T2
X3.4931Y-2.4409
X3.494Y-2.564
X3.498Y-1.994
X3.596Y-2.0
X3.69Y-2.564
X3.694Y-2.0
T3
X4.5Y-1.83
X4.5Y-2.23
X4.5Y-2.41
X4.5Y-2.81
X5.3625Y-3.0575
X5.365Y-2.1775
X5.4625Y-3.0575
X5.465Y-2.1775
X5.5625Y-3.0575
X5.565Y-2.1775
T4
X3.6975Y-1.2325
X3.9975Y-1.2325
X4.65Y-1.9125
X4.65Y-2.0125
X4.65Y-2.1125
X4.6775Y-2.5275
X4.6775Y-2.6275
X4.6775Y-2.7275
X4.715Y-3.365
X4.725Y-1.235
X5.0775Y-1.235
X5.08Y-3.365
X5.7525Y-2.285
X5.825Y-1.8725
X5.825Y-2.7175
T5
X4.8Y-1.45
X4.8Y-3.15
X4.9Y-1.45
X4.9Y-3.15
X5.0Y-1.45
X5.0Y-3.15
T6
X4.1Y-1.7047
X4.1Y-2.0
X4.1Y-2.565
X4.1Y-2.8603
T7
X3.304Y-1.954
X3.306Y-2.648
X3.4Y-2.29
T0
M30
