M48
; DRILL file {KiCad (5.1.10-1-10_14)} date Wednesday, November 03, 2021 at 03:55:21 PM
; FORMAT={-:-/ absolute / inch / decimal}
; #@! TF.CreationDate,2021-11-03T15:55:21+01:00
; #@! TF.GenerationSoftware,Kicad,Pcbnew,(5.1.10-1-10_14)
; #@! TF.FileFunction,Plated,1,2,PTH
FMAT,2
INCH
T1C0.0118
T2C0.0315
T3C0.0394
%
G90
G05
T1
X5.14Y-4.2275
X5.1425Y-5.255
X5.28Y-4.34
X5.2825Y-5.365
X5.33Y-4.2275
X5.33Y-5.255
X5.7075Y-4.1175
X5.71Y-5.145
X5.78Y-5.48
X5.7825Y-4.445
X5.8125Y-5.285
X5.815Y-4.2575
X7.405Y-4.77
X7.405Y-4.91
T2
X5.4775Y-5.5075
X5.4775Y-5.6453
X5.48Y-4.47
X5.48Y-4.6078
X5.9475Y-3.9797
X5.9475Y-4.1175
X5.95Y-5.0072
X5.95Y-5.145
T3
X4.965Y-5.0575
X4.965Y-5.255
X4.9675Y-4.2275
X4.9675Y-4.425
X6.2025Y-4.2575
X6.2025Y-4.455
X6.2075Y-5.0875
X6.2075Y-5.285
X7.6675Y-4.8
X7.72Y-5.1425
X7.725Y-4.45
T0
M30
