G04 #@! TF.GenerationSoftware,KiCad,Pcbnew,(5.1.10-1-10_14)*
G04 #@! TF.CreationDate,2021-11-03T15:55:19+01:00*
G04 #@! TF.ProjectId,pre-amp-opa1611,7072652d-616d-4702-9d6f-706131363131,rev?*
G04 #@! TF.SameCoordinates,Original*
G04 #@! TF.FileFunction,Legend,Top*
G04 #@! TF.FilePolarity,Positive*
%FSLAX46Y46*%
G04 Gerber Fmt 4.6, Leading zero omitted, Abs format (unit mm)*
G04 Created by KiCad (PCBNEW (5.1.10-1-10_14)) date 2021-11-03 15:55:19*
%MOMM*%
%LPD*%
G01*
G04 APERTURE LIST*
%ADD10C,0.150000*%
%ADD11C,0.120000*%
G04 APERTURE END LIST*
D10*
X149288500Y-135405880D02*
X149193261Y-135453500D01*
X149145642Y-135548738D01*
X149193261Y-135643976D01*
X149288500Y-135691595D01*
X149383738Y-135643976D01*
X149431357Y-135548738D01*
X149383738Y-135453500D01*
X149288500Y-135405880D01*
X136334500Y-129436880D02*
X136239261Y-129484500D01*
X136191642Y-129579738D01*
X136239261Y-129674976D01*
X136334500Y-129722595D01*
X136429738Y-129674976D01*
X136477357Y-129579738D01*
X136429738Y-129484500D01*
X136334500Y-129436880D01*
X149288500Y-109370880D02*
X149193261Y-109418500D01*
X149145642Y-109513738D01*
X149193261Y-109608976D01*
X149288500Y-109656595D01*
X149383738Y-109608976D01*
X149431357Y-109513738D01*
X149383738Y-109418500D01*
X149288500Y-109370880D01*
X136461500Y-103528880D02*
X136366261Y-103576500D01*
X136318642Y-103671738D01*
X136366261Y-103766976D01*
X136461500Y-103814595D01*
X136556738Y-103766976D01*
X136604357Y-103671738D01*
X136556738Y-103576500D01*
X136461500Y-103528880D01*
X123245619Y-133016690D02*
X124245619Y-133016690D01*
X123245619Y-133492880D02*
X124245619Y-133492880D01*
X123245619Y-134064309D01*
X124245619Y-134064309D01*
X124134500Y-127762095D02*
X124182119Y-127666857D01*
X124182119Y-127524000D01*
X124134500Y-127381142D01*
X124039261Y-127285904D01*
X123944023Y-127238285D01*
X123753547Y-127190666D01*
X123610690Y-127190666D01*
X123420214Y-127238285D01*
X123324976Y-127285904D01*
X123229738Y-127381142D01*
X123182119Y-127524000D01*
X123182119Y-127619238D01*
X123229738Y-127762095D01*
X123277357Y-127809714D01*
X123610690Y-127809714D01*
X123610690Y-127619238D01*
X123182119Y-128238285D02*
X124182119Y-128238285D01*
X123182119Y-128809714D01*
X124182119Y-128809714D01*
X123182119Y-129285904D02*
X124182119Y-129285904D01*
X124182119Y-129524000D01*
X124134500Y-129666857D01*
X124039261Y-129762095D01*
X123944023Y-129809714D01*
X123753547Y-129857333D01*
X123610690Y-129857333D01*
X123420214Y-129809714D01*
X123324976Y-129762095D01*
X123229738Y-129666857D01*
X123182119Y-129524000D01*
X123182119Y-129285904D01*
X159726380Y-135239000D02*
X159726380Y-135048523D01*
X159774000Y-134953285D01*
X159869238Y-134858047D01*
X160059714Y-134810428D01*
X160393047Y-134810428D01*
X160583523Y-134858047D01*
X160678761Y-134953285D01*
X160726380Y-135048523D01*
X160726380Y-135239000D01*
X160678761Y-135334238D01*
X160583523Y-135429476D01*
X160393047Y-135477095D01*
X160059714Y-135477095D01*
X159869238Y-135429476D01*
X159774000Y-135334238D01*
X159726380Y-135239000D01*
X159726380Y-134381857D02*
X160535904Y-134381857D01*
X160631142Y-134334238D01*
X160678761Y-134286619D01*
X160726380Y-134191380D01*
X160726380Y-134000904D01*
X160678761Y-133905666D01*
X160631142Y-133858047D01*
X160535904Y-133810428D01*
X159726380Y-133810428D01*
X159726380Y-133477095D02*
X159726380Y-132905666D01*
X160726380Y-133191380D02*
X159726380Y-133191380D01*
X159837500Y-129984404D02*
X159789880Y-130079642D01*
X159789880Y-130222500D01*
X159837500Y-130365357D01*
X159932738Y-130460595D01*
X160027976Y-130508214D01*
X160218452Y-130555833D01*
X160361309Y-130555833D01*
X160551785Y-130508214D01*
X160647023Y-130460595D01*
X160742261Y-130365357D01*
X160789880Y-130222500D01*
X160789880Y-130127261D01*
X160742261Y-129984404D01*
X160694642Y-129936785D01*
X160361309Y-129936785D01*
X160361309Y-130127261D01*
X160789880Y-129508214D02*
X159789880Y-129508214D01*
X160789880Y-128936785D01*
X159789880Y-128936785D01*
X160789880Y-128460595D02*
X159789880Y-128460595D01*
X159789880Y-128222500D01*
X159837500Y-128079642D01*
X159932738Y-127984404D01*
X160027976Y-127936785D01*
X160218452Y-127889166D01*
X160361309Y-127889166D01*
X160551785Y-127936785D01*
X160647023Y-127984404D01*
X160742261Y-128079642D01*
X160789880Y-128222500D01*
X160789880Y-128460595D01*
X196985000Y-122681904D02*
X196937380Y-122777142D01*
X196937380Y-122920000D01*
X196985000Y-123062857D01*
X197080238Y-123158095D01*
X197175476Y-123205714D01*
X197365952Y-123253333D01*
X197508809Y-123253333D01*
X197699285Y-123205714D01*
X197794523Y-123158095D01*
X197889761Y-123062857D01*
X197937380Y-122920000D01*
X197937380Y-122824761D01*
X197889761Y-122681904D01*
X197842142Y-122634285D01*
X197508809Y-122634285D01*
X197508809Y-122824761D01*
X197937380Y-122205714D02*
X196937380Y-122205714D01*
X197937380Y-121634285D01*
X196937380Y-121634285D01*
X197937380Y-121158095D02*
X196937380Y-121158095D01*
X196937380Y-120920000D01*
X196985000Y-120777142D01*
X197080238Y-120681904D01*
X197175476Y-120634285D01*
X197365952Y-120586666D01*
X197508809Y-120586666D01*
X197699285Y-120634285D01*
X197794523Y-120681904D01*
X197889761Y-120777142D01*
X197937380Y-120920000D01*
X197937380Y-121158095D01*
X165879214Y-146121380D02*
X165879214Y-145454714D01*
X165879214Y-145549952D02*
X165926833Y-145502333D01*
X166022071Y-145454714D01*
X166164928Y-145454714D01*
X166260166Y-145502333D01*
X166307785Y-145597571D01*
X166307785Y-146121380D01*
X166307785Y-145597571D02*
X166355404Y-145502333D01*
X166450642Y-145454714D01*
X166593500Y-145454714D01*
X166688738Y-145502333D01*
X166736357Y-145597571D01*
X166736357Y-146121380D01*
X167212547Y-146121380D02*
X167212547Y-145454714D01*
X167212547Y-145121380D02*
X167164928Y-145169000D01*
X167212547Y-145216619D01*
X167260166Y-145169000D01*
X167212547Y-145121380D01*
X167212547Y-145216619D01*
X168117309Y-146073761D02*
X168022071Y-146121380D01*
X167831595Y-146121380D01*
X167736357Y-146073761D01*
X167688738Y-146026142D01*
X167641119Y-145930904D01*
X167641119Y-145645190D01*
X167688738Y-145549952D01*
X167736357Y-145502333D01*
X167831595Y-145454714D01*
X168022071Y-145454714D01*
X168117309Y-145502333D01*
X168545880Y-146121380D02*
X168545880Y-145121380D01*
X168974452Y-146121380D02*
X168974452Y-145597571D01*
X168926833Y-145502333D01*
X168831595Y-145454714D01*
X168688738Y-145454714D01*
X168593500Y-145502333D01*
X168545880Y-145549952D01*
X169879214Y-146121380D02*
X169879214Y-145597571D01*
X169831595Y-145502333D01*
X169736357Y-145454714D01*
X169545880Y-145454714D01*
X169450642Y-145502333D01*
X169879214Y-146073761D02*
X169783976Y-146121380D01*
X169545880Y-146121380D01*
X169450642Y-146073761D01*
X169403023Y-145978523D01*
X169403023Y-145883285D01*
X169450642Y-145788047D01*
X169545880Y-145740428D01*
X169783976Y-145740428D01*
X169879214Y-145692809D01*
X170736357Y-146073761D02*
X170641119Y-146121380D01*
X170450642Y-146121380D01*
X170355404Y-146073761D01*
X170307785Y-145978523D01*
X170307785Y-145597571D01*
X170355404Y-145502333D01*
X170450642Y-145454714D01*
X170641119Y-145454714D01*
X170736357Y-145502333D01*
X170783976Y-145597571D01*
X170783976Y-145692809D01*
X170307785Y-145788047D01*
X171355404Y-146121380D02*
X171260166Y-146073761D01*
X171212547Y-145978523D01*
X171212547Y-145121380D01*
X171688738Y-146073761D02*
X171783976Y-146121380D01*
X171974452Y-146121380D01*
X172069690Y-146073761D01*
X172117309Y-145978523D01*
X172117309Y-145930904D01*
X172069690Y-145835666D01*
X171974452Y-145788047D01*
X171831595Y-145788047D01*
X171736357Y-145740428D01*
X171688738Y-145645190D01*
X171688738Y-145597571D01*
X171736357Y-145502333D01*
X171831595Y-145454714D01*
X171974452Y-145454714D01*
X172069690Y-145502333D01*
X172974452Y-146073761D02*
X172879214Y-146121380D01*
X172688738Y-146121380D01*
X172593500Y-146073761D01*
X172545880Y-146026142D01*
X172498261Y-145930904D01*
X172498261Y-145645190D01*
X172545880Y-145549952D01*
X172593500Y-145502333D01*
X172688738Y-145454714D01*
X172879214Y-145454714D01*
X172974452Y-145502333D01*
X173403023Y-146121380D02*
X173403023Y-145121380D01*
X173831595Y-146121380D02*
X173831595Y-145597571D01*
X173783976Y-145502333D01*
X173688738Y-145454714D01*
X173545880Y-145454714D01*
X173450642Y-145502333D01*
X173403023Y-145549952D01*
X174688738Y-146073761D02*
X174593500Y-146121380D01*
X174403023Y-146121380D01*
X174307785Y-146073761D01*
X174260166Y-145978523D01*
X174260166Y-145597571D01*
X174307785Y-145502333D01*
X174403023Y-145454714D01*
X174593500Y-145454714D01*
X174688738Y-145502333D01*
X174736357Y-145597571D01*
X174736357Y-145692809D01*
X174260166Y-145788047D01*
X175164928Y-145454714D02*
X175164928Y-146121380D01*
X175164928Y-145549952D02*
X175212547Y-145502333D01*
X175307785Y-145454714D01*
X175450642Y-145454714D01*
X175545880Y-145502333D01*
X175593500Y-145597571D01*
X175593500Y-146121380D01*
X176069690Y-146121380D02*
X176069690Y-145121380D01*
X176164928Y-145740428D02*
X176450642Y-146121380D01*
X176450642Y-145454714D02*
X176069690Y-145835666D01*
X176783976Y-145121380D02*
X177450642Y-145121380D01*
X177022071Y-146121380D01*
X177783976Y-145216619D02*
X177831595Y-145169000D01*
X177926833Y-145121380D01*
X178164928Y-145121380D01*
X178260166Y-145169000D01*
X178307785Y-145216619D01*
X178355404Y-145311857D01*
X178355404Y-145407095D01*
X178307785Y-145549952D01*
X177736357Y-146121380D01*
X178355404Y-146121380D01*
X179403023Y-145645190D02*
X179355404Y-145597571D01*
X179260166Y-145549952D01*
X179164928Y-145549952D01*
X179069690Y-145597571D01*
X179022071Y-145645190D01*
X178974452Y-145740428D01*
X178974452Y-145835666D01*
X179022071Y-145930904D01*
X179069690Y-145978523D01*
X179164928Y-146026142D01*
X179260166Y-146026142D01*
X179355404Y-145978523D01*
X179403023Y-145930904D01*
X179403023Y-145549952D02*
X179403023Y-145930904D01*
X179450642Y-145978523D01*
X179498261Y-145978523D01*
X179593500Y-145930904D01*
X179641119Y-145835666D01*
X179641119Y-145597571D01*
X179545880Y-145454714D01*
X179403023Y-145359476D01*
X179212547Y-145311857D01*
X179022071Y-145359476D01*
X178879214Y-145454714D01*
X178783976Y-145597571D01*
X178736357Y-145788047D01*
X178783976Y-145978523D01*
X178879214Y-146121380D01*
X179022071Y-146216619D01*
X179212547Y-146264238D01*
X179403023Y-146216619D01*
X179545880Y-146121380D01*
X180498261Y-145454714D02*
X180498261Y-146264238D01*
X180450642Y-146359476D01*
X180403023Y-146407095D01*
X180307785Y-146454714D01*
X180164928Y-146454714D01*
X180069690Y-146407095D01*
X180498261Y-146073761D02*
X180403023Y-146121380D01*
X180212547Y-146121380D01*
X180117309Y-146073761D01*
X180069690Y-146026142D01*
X180022071Y-145930904D01*
X180022071Y-145645190D01*
X180069690Y-145549952D01*
X180117309Y-145502333D01*
X180212547Y-145454714D01*
X180403023Y-145454714D01*
X180498261Y-145502333D01*
X180974452Y-146121380D02*
X180974452Y-145454714D01*
X180974452Y-145549952D02*
X181022071Y-145502333D01*
X181117309Y-145454714D01*
X181260166Y-145454714D01*
X181355404Y-145502333D01*
X181403023Y-145597571D01*
X181403023Y-146121380D01*
X181403023Y-145597571D02*
X181450642Y-145502333D01*
X181545880Y-145454714D01*
X181688738Y-145454714D01*
X181783976Y-145502333D01*
X181831595Y-145597571D01*
X181831595Y-146121380D01*
X182736357Y-146121380D02*
X182736357Y-145597571D01*
X182688738Y-145502333D01*
X182593500Y-145454714D01*
X182403023Y-145454714D01*
X182307785Y-145502333D01*
X182736357Y-146073761D02*
X182641119Y-146121380D01*
X182403023Y-146121380D01*
X182307785Y-146073761D01*
X182260166Y-145978523D01*
X182260166Y-145883285D01*
X182307785Y-145788047D01*
X182403023Y-145740428D01*
X182641119Y-145740428D01*
X182736357Y-145692809D01*
X183212547Y-146121380D02*
X183212547Y-145454714D01*
X183212547Y-145121380D02*
X183164928Y-145169000D01*
X183212547Y-145216619D01*
X183260166Y-145169000D01*
X183212547Y-145121380D01*
X183212547Y-145216619D01*
X183831595Y-146121380D02*
X183736357Y-146073761D01*
X183688738Y-145978523D01*
X183688738Y-145121380D01*
X184212547Y-146026142D02*
X184260166Y-146073761D01*
X184212547Y-146121380D01*
X184164928Y-146073761D01*
X184212547Y-146026142D01*
X184212547Y-146121380D01*
X185117309Y-146073761D02*
X185022071Y-146121380D01*
X184831595Y-146121380D01*
X184736357Y-146073761D01*
X184688738Y-146026142D01*
X184641119Y-145930904D01*
X184641119Y-145645190D01*
X184688738Y-145549952D01*
X184736357Y-145502333D01*
X184831595Y-145454714D01*
X185022071Y-145454714D01*
X185117309Y-145502333D01*
X185688738Y-146121380D02*
X185593500Y-146073761D01*
X185545880Y-146026142D01*
X185498261Y-145930904D01*
X185498261Y-145645190D01*
X185545880Y-145549952D01*
X185593500Y-145502333D01*
X185688738Y-145454714D01*
X185831595Y-145454714D01*
X185926833Y-145502333D01*
X185974452Y-145549952D01*
X186022071Y-145645190D01*
X186022071Y-145930904D01*
X185974452Y-146026142D01*
X185926833Y-146073761D01*
X185831595Y-146121380D01*
X185688738Y-146121380D01*
X186450642Y-146121380D02*
X186450642Y-145454714D01*
X186450642Y-145549952D02*
X186498261Y-145502333D01*
X186593500Y-145454714D01*
X186736357Y-145454714D01*
X186831595Y-145502333D01*
X186879214Y-145597571D01*
X186879214Y-146121380D01*
X186879214Y-145597571D02*
X186926833Y-145502333D01*
X187022071Y-145454714D01*
X187164928Y-145454714D01*
X187260166Y-145502333D01*
X187307785Y-145597571D01*
X187307785Y-146121380D01*
X169180738Y-101355380D02*
X169180738Y-100355380D01*
X169561690Y-100355380D01*
X169656928Y-100403000D01*
X169704547Y-100450619D01*
X169752166Y-100545857D01*
X169752166Y-100688714D01*
X169704547Y-100783952D01*
X169656928Y-100831571D01*
X169561690Y-100879190D01*
X169180738Y-100879190D01*
X170180738Y-101355380D02*
X170180738Y-100688714D01*
X170180738Y-100879190D02*
X170228357Y-100783952D01*
X170275976Y-100736333D01*
X170371214Y-100688714D01*
X170466452Y-100688714D01*
X171180738Y-101307761D02*
X171085500Y-101355380D01*
X170895023Y-101355380D01*
X170799785Y-101307761D01*
X170752166Y-101212523D01*
X170752166Y-100831571D01*
X170799785Y-100736333D01*
X170895023Y-100688714D01*
X171085500Y-100688714D01*
X171180738Y-100736333D01*
X171228357Y-100831571D01*
X171228357Y-100926809D01*
X170752166Y-101022047D01*
X171656928Y-100974428D02*
X172418833Y-100974428D01*
X172847404Y-101069666D02*
X173323595Y-101069666D01*
X172752166Y-101355380D02*
X173085500Y-100355380D01*
X173418833Y-101355380D01*
X173752166Y-101355380D02*
X173752166Y-100688714D01*
X173752166Y-100783952D02*
X173799785Y-100736333D01*
X173895023Y-100688714D01*
X174037880Y-100688714D01*
X174133119Y-100736333D01*
X174180738Y-100831571D01*
X174180738Y-101355380D01*
X174180738Y-100831571D02*
X174228357Y-100736333D01*
X174323595Y-100688714D01*
X174466452Y-100688714D01*
X174561690Y-100736333D01*
X174609309Y-100831571D01*
X174609309Y-101355380D01*
X175085500Y-100688714D02*
X175085500Y-101688714D01*
X175085500Y-100736333D02*
X175180738Y-100688714D01*
X175371214Y-100688714D01*
X175466452Y-100736333D01*
X175514071Y-100783952D01*
X175561690Y-100879190D01*
X175561690Y-101164904D01*
X175514071Y-101260142D01*
X175466452Y-101307761D01*
X175371214Y-101355380D01*
X175180738Y-101355380D01*
X175085500Y-101307761D01*
X176942642Y-100355380D02*
X177133119Y-100355380D01*
X177228357Y-100403000D01*
X177323595Y-100498238D01*
X177371214Y-100688714D01*
X177371214Y-101022047D01*
X177323595Y-101212523D01*
X177228357Y-101307761D01*
X177133119Y-101355380D01*
X176942642Y-101355380D01*
X176847404Y-101307761D01*
X176752166Y-101212523D01*
X176704547Y-101022047D01*
X176704547Y-100688714D01*
X176752166Y-100498238D01*
X176847404Y-100403000D01*
X176942642Y-100355380D01*
X177799785Y-101355380D02*
X177799785Y-100355380D01*
X178180738Y-100355380D01*
X178275976Y-100403000D01*
X178323595Y-100450619D01*
X178371214Y-100545857D01*
X178371214Y-100688714D01*
X178323595Y-100783952D01*
X178275976Y-100831571D01*
X178180738Y-100879190D01*
X177799785Y-100879190D01*
X178752166Y-101069666D02*
X179228357Y-101069666D01*
X178656928Y-101355380D02*
X178990261Y-100355380D01*
X179323595Y-101355380D01*
X180180738Y-101355380D02*
X179609309Y-101355380D01*
X179895023Y-101355380D02*
X179895023Y-100355380D01*
X179799785Y-100498238D01*
X179704547Y-100593476D01*
X179609309Y-100641095D01*
X181037880Y-100355380D02*
X180847404Y-100355380D01*
X180752166Y-100403000D01*
X180704547Y-100450619D01*
X180609309Y-100593476D01*
X180561690Y-100783952D01*
X180561690Y-101164904D01*
X180609309Y-101260142D01*
X180656928Y-101307761D01*
X180752166Y-101355380D01*
X180942642Y-101355380D01*
X181037880Y-101307761D01*
X181085500Y-101260142D01*
X181133119Y-101164904D01*
X181133119Y-100926809D01*
X181085500Y-100831571D01*
X181037880Y-100783952D01*
X180942642Y-100736333D01*
X180752166Y-100736333D01*
X180656928Y-100783952D01*
X180609309Y-100831571D01*
X180561690Y-100926809D01*
X182085500Y-101355380D02*
X181514071Y-101355380D01*
X181799785Y-101355380D02*
X181799785Y-100355380D01*
X181704547Y-100498238D01*
X181609309Y-100593476D01*
X181514071Y-100641095D01*
X183037880Y-101355380D02*
X182466452Y-101355380D01*
X182752166Y-101355380D02*
X182752166Y-100355380D01*
X182656928Y-100498238D01*
X182561690Y-100593476D01*
X182466452Y-100641095D01*
X172085500Y-102910142D02*
X172037880Y-102957761D01*
X171895023Y-103005380D01*
X171799785Y-103005380D01*
X171656928Y-102957761D01*
X171561690Y-102862523D01*
X171514071Y-102767285D01*
X171466452Y-102576809D01*
X171466452Y-102433952D01*
X171514071Y-102243476D01*
X171561690Y-102148238D01*
X171656928Y-102053000D01*
X171799785Y-102005380D01*
X171895023Y-102005380D01*
X172037880Y-102053000D01*
X172085500Y-102100619D01*
X172656928Y-103005380D02*
X172561690Y-102957761D01*
X172514071Y-102862523D01*
X172514071Y-102005380D01*
X173466452Y-103005380D02*
X173466452Y-102481571D01*
X173418833Y-102386333D01*
X173323595Y-102338714D01*
X173133119Y-102338714D01*
X173037880Y-102386333D01*
X173466452Y-102957761D02*
X173371214Y-103005380D01*
X173133119Y-103005380D01*
X173037880Y-102957761D01*
X172990261Y-102862523D01*
X172990261Y-102767285D01*
X173037880Y-102672047D01*
X173133119Y-102624428D01*
X173371214Y-102624428D01*
X173466452Y-102576809D01*
X173895023Y-102957761D02*
X173990261Y-103005380D01*
X174180738Y-103005380D01*
X174275976Y-102957761D01*
X174323595Y-102862523D01*
X174323595Y-102814904D01*
X174275976Y-102719666D01*
X174180738Y-102672047D01*
X174037880Y-102672047D01*
X173942642Y-102624428D01*
X173895023Y-102529190D01*
X173895023Y-102481571D01*
X173942642Y-102386333D01*
X174037880Y-102338714D01*
X174180738Y-102338714D01*
X174275976Y-102386333D01*
X174704547Y-102957761D02*
X174799785Y-103005380D01*
X174990261Y-103005380D01*
X175085500Y-102957761D01*
X175133119Y-102862523D01*
X175133119Y-102814904D01*
X175085500Y-102719666D01*
X174990261Y-102672047D01*
X174847404Y-102672047D01*
X174752166Y-102624428D01*
X174704547Y-102529190D01*
X174704547Y-102481571D01*
X174752166Y-102386333D01*
X174847404Y-102338714D01*
X174990261Y-102338714D01*
X175085500Y-102386333D01*
X176275976Y-102719666D02*
X176752166Y-102719666D01*
X176180738Y-103005380D02*
X176514071Y-102005380D01*
X176847404Y-103005380D01*
X178275976Y-102481571D02*
X178418833Y-102529190D01*
X178466452Y-102576809D01*
X178514071Y-102672047D01*
X178514071Y-102814904D01*
X178466452Y-102910142D01*
X178418833Y-102957761D01*
X178323595Y-103005380D01*
X177942642Y-103005380D01*
X177942642Y-102005380D01*
X178275976Y-102005380D01*
X178371214Y-102053000D01*
X178418833Y-102100619D01*
X178466452Y-102195857D01*
X178466452Y-102291095D01*
X178418833Y-102386333D01*
X178371214Y-102433952D01*
X178275976Y-102481571D01*
X177942642Y-102481571D01*
X178942642Y-103005380D02*
X178942642Y-102338714D01*
X178942642Y-102005380D02*
X178895023Y-102053000D01*
X178942642Y-102100619D01*
X178990261Y-102053000D01*
X178942642Y-102005380D01*
X178942642Y-102100619D01*
X179847404Y-103005380D02*
X179847404Y-102481571D01*
X179799785Y-102386333D01*
X179704547Y-102338714D01*
X179514071Y-102338714D01*
X179418833Y-102386333D01*
X179847404Y-102957761D02*
X179752166Y-103005380D01*
X179514071Y-103005380D01*
X179418833Y-102957761D01*
X179371214Y-102862523D01*
X179371214Y-102767285D01*
X179418833Y-102672047D01*
X179514071Y-102624428D01*
X179752166Y-102624428D01*
X179847404Y-102576809D01*
X180275976Y-102957761D02*
X180371214Y-103005380D01*
X180561690Y-103005380D01*
X180656928Y-102957761D01*
X180704547Y-102862523D01*
X180704547Y-102814904D01*
X180656928Y-102719666D01*
X180561690Y-102672047D01*
X180418833Y-102672047D01*
X180323595Y-102624428D01*
X180275976Y-102529190D01*
X180275976Y-102481571D01*
X180323595Y-102386333D01*
X180418833Y-102338714D01*
X180561690Y-102338714D01*
X180656928Y-102386333D01*
X170466452Y-104655380D02*
X170466452Y-103655380D01*
X170799785Y-104369666D01*
X171133119Y-103655380D01*
X171133119Y-104655380D01*
X171609309Y-104655380D02*
X171609309Y-103988714D01*
X171609309Y-103655380D02*
X171561690Y-103703000D01*
X171609309Y-103750619D01*
X171656928Y-103703000D01*
X171609309Y-103655380D01*
X171609309Y-103750619D01*
X172514071Y-104607761D02*
X172418833Y-104655380D01*
X172228357Y-104655380D01*
X172133119Y-104607761D01*
X172085500Y-104560142D01*
X172037880Y-104464904D01*
X172037880Y-104179190D01*
X172085500Y-104083952D01*
X172133119Y-104036333D01*
X172228357Y-103988714D01*
X172418833Y-103988714D01*
X172514071Y-104036333D01*
X172942642Y-104655380D02*
X172942642Y-103655380D01*
X173371214Y-104655380D02*
X173371214Y-104131571D01*
X173323595Y-104036333D01*
X173228357Y-103988714D01*
X173085500Y-103988714D01*
X172990261Y-104036333D01*
X172942642Y-104083952D01*
X174275976Y-104655380D02*
X174275976Y-104131571D01*
X174228357Y-104036333D01*
X174133119Y-103988714D01*
X173942642Y-103988714D01*
X173847404Y-104036333D01*
X174275976Y-104607761D02*
X174180738Y-104655380D01*
X173942642Y-104655380D01*
X173847404Y-104607761D01*
X173799785Y-104512523D01*
X173799785Y-104417285D01*
X173847404Y-104322047D01*
X173942642Y-104274428D01*
X174180738Y-104274428D01*
X174275976Y-104226809D01*
X175133119Y-104607761D02*
X175037880Y-104655380D01*
X174847404Y-104655380D01*
X174752166Y-104607761D01*
X174704547Y-104512523D01*
X174704547Y-104131571D01*
X174752166Y-104036333D01*
X174847404Y-103988714D01*
X175037880Y-103988714D01*
X175133119Y-104036333D01*
X175180738Y-104131571D01*
X175180738Y-104226809D01*
X174704547Y-104322047D01*
X175752166Y-104655380D02*
X175656928Y-104607761D01*
X175609309Y-104512523D01*
X175609309Y-103655380D01*
X176847404Y-104607761D02*
X176990261Y-104655380D01*
X177228357Y-104655380D01*
X177323595Y-104607761D01*
X177371214Y-104560142D01*
X177418833Y-104464904D01*
X177418833Y-104369666D01*
X177371214Y-104274428D01*
X177323595Y-104226809D01*
X177228357Y-104179190D01*
X177037880Y-104131571D01*
X176942642Y-104083952D01*
X176895023Y-104036333D01*
X176847404Y-103941095D01*
X176847404Y-103845857D01*
X176895023Y-103750619D01*
X176942642Y-103703000D01*
X177037880Y-103655380D01*
X177275976Y-103655380D01*
X177418833Y-103703000D01*
X178275976Y-104607761D02*
X178180738Y-104655380D01*
X177990261Y-104655380D01*
X177895023Y-104607761D01*
X177847404Y-104560142D01*
X177799785Y-104464904D01*
X177799785Y-104179190D01*
X177847404Y-104083952D01*
X177895023Y-104036333D01*
X177990261Y-103988714D01*
X178180738Y-103988714D01*
X178275976Y-104036333D01*
X178704547Y-104655380D02*
X178704547Y-103655380D01*
X179133119Y-104655380D02*
X179133119Y-104131571D01*
X179085500Y-104036333D01*
X178990261Y-103988714D01*
X178847404Y-103988714D01*
X178752166Y-104036333D01*
X178704547Y-104083952D01*
X179990261Y-104607761D02*
X179895023Y-104655380D01*
X179704547Y-104655380D01*
X179609309Y-104607761D01*
X179561690Y-104512523D01*
X179561690Y-104131571D01*
X179609309Y-104036333D01*
X179704547Y-103988714D01*
X179895023Y-103988714D01*
X179990261Y-104036333D01*
X180037880Y-104131571D01*
X180037880Y-104226809D01*
X179561690Y-104322047D01*
X180466452Y-103988714D02*
X180466452Y-104655380D01*
X180466452Y-104083952D02*
X180514071Y-104036333D01*
X180609309Y-103988714D01*
X180752166Y-103988714D01*
X180847404Y-104036333D01*
X180895023Y-104131571D01*
X180895023Y-104655380D01*
X181371214Y-104655380D02*
X181371214Y-103655380D01*
X181466452Y-104274428D02*
X181752166Y-104655380D01*
X181752166Y-103988714D02*
X181371214Y-104369666D01*
X171990261Y-105400619D02*
X172037880Y-105353000D01*
X172133119Y-105305380D01*
X172371214Y-105305380D01*
X172466452Y-105353000D01*
X172514071Y-105400619D01*
X172561690Y-105495857D01*
X172561690Y-105591095D01*
X172514071Y-105733952D01*
X171942642Y-106305380D01*
X172561690Y-106305380D01*
X173180738Y-105305380D02*
X173275976Y-105305380D01*
X173371214Y-105353000D01*
X173418833Y-105400619D01*
X173466452Y-105495857D01*
X173514071Y-105686333D01*
X173514071Y-105924428D01*
X173466452Y-106114904D01*
X173418833Y-106210142D01*
X173371214Y-106257761D01*
X173275976Y-106305380D01*
X173180738Y-106305380D01*
X173085500Y-106257761D01*
X173037880Y-106210142D01*
X172990261Y-106114904D01*
X172942642Y-105924428D01*
X172942642Y-105686333D01*
X172990261Y-105495857D01*
X173037880Y-105400619D01*
X173085500Y-105353000D01*
X173180738Y-105305380D01*
X173895023Y-105400619D02*
X173942642Y-105353000D01*
X174037880Y-105305380D01*
X174275976Y-105305380D01*
X174371214Y-105353000D01*
X174418833Y-105400619D01*
X174466452Y-105495857D01*
X174466452Y-105591095D01*
X174418833Y-105733952D01*
X173847404Y-106305380D01*
X174466452Y-106305380D01*
X175418833Y-106305380D02*
X174847404Y-106305380D01*
X175133119Y-106305380D02*
X175133119Y-105305380D01*
X175037880Y-105448238D01*
X174942642Y-105543476D01*
X174847404Y-105591095D01*
X175847404Y-106210142D02*
X175895023Y-106257761D01*
X175847404Y-106305380D01*
X175799785Y-106257761D01*
X175847404Y-106210142D01*
X175847404Y-106305380D01*
X176847404Y-106305380D02*
X176275976Y-106305380D01*
X176561690Y-106305380D02*
X176561690Y-105305380D01*
X176466452Y-105448238D01*
X176371214Y-105543476D01*
X176275976Y-105591095D01*
X177799785Y-106305380D02*
X177228357Y-106305380D01*
X177514071Y-106305380D02*
X177514071Y-105305380D01*
X177418833Y-105448238D01*
X177323595Y-105543476D01*
X177228357Y-105591095D01*
X178228357Y-106210142D02*
X178275976Y-106257761D01*
X178228357Y-106305380D01*
X178180738Y-106257761D01*
X178228357Y-106210142D01*
X178228357Y-106305380D01*
X178895023Y-105305380D02*
X178990261Y-105305380D01*
X179085500Y-105353000D01*
X179133119Y-105400619D01*
X179180738Y-105495857D01*
X179228357Y-105686333D01*
X179228357Y-105924428D01*
X179180738Y-106114904D01*
X179133119Y-106210142D01*
X179085500Y-106257761D01*
X178990261Y-106305380D01*
X178895023Y-106305380D01*
X178799785Y-106257761D01*
X178752166Y-106210142D01*
X178704547Y-106114904D01*
X178656928Y-105924428D01*
X178656928Y-105686333D01*
X178704547Y-105495857D01*
X178752166Y-105400619D01*
X178799785Y-105353000D01*
X178895023Y-105305380D01*
X179561690Y-105305380D02*
X180180738Y-105305380D01*
X179847404Y-105686333D01*
X179990261Y-105686333D01*
X180085500Y-105733952D01*
X180133119Y-105781571D01*
X180180738Y-105876809D01*
X180180738Y-106114904D01*
X180133119Y-106210142D01*
X180085500Y-106257761D01*
X179990261Y-106305380D01*
X179704547Y-106305380D01*
X179609309Y-106257761D01*
X179561690Y-106210142D01*
X159774000Y-113918904D02*
X159726380Y-114014142D01*
X159726380Y-114157000D01*
X159774000Y-114299857D01*
X159869238Y-114395095D01*
X159964476Y-114442714D01*
X160154952Y-114490333D01*
X160297809Y-114490333D01*
X160488285Y-114442714D01*
X160583523Y-114395095D01*
X160678761Y-114299857D01*
X160726380Y-114157000D01*
X160726380Y-114061761D01*
X160678761Y-113918904D01*
X160631142Y-113871285D01*
X160297809Y-113871285D01*
X160297809Y-114061761D01*
X160726380Y-113442714D02*
X159726380Y-113442714D01*
X160726380Y-112871285D01*
X159726380Y-112871285D01*
X160726380Y-112395095D02*
X159726380Y-112395095D01*
X159726380Y-112157000D01*
X159774000Y-112014142D01*
X159869238Y-111918904D01*
X159964476Y-111871285D01*
X160154952Y-111823666D01*
X160297809Y-111823666D01*
X160488285Y-111871285D01*
X160583523Y-111918904D01*
X160678761Y-112014142D01*
X160726380Y-112157000D01*
X160726380Y-112395095D01*
X159726380Y-109140500D02*
X159726380Y-108950023D01*
X159774000Y-108854785D01*
X159869238Y-108759547D01*
X160059714Y-108711928D01*
X160393047Y-108711928D01*
X160583523Y-108759547D01*
X160678761Y-108854785D01*
X160726380Y-108950023D01*
X160726380Y-109140500D01*
X160678761Y-109235738D01*
X160583523Y-109330976D01*
X160393047Y-109378595D01*
X160059714Y-109378595D01*
X159869238Y-109330976D01*
X159774000Y-109235738D01*
X159726380Y-109140500D01*
X159726380Y-108283357D02*
X160535904Y-108283357D01*
X160631142Y-108235738D01*
X160678761Y-108188119D01*
X160726380Y-108092880D01*
X160726380Y-107902404D01*
X160678761Y-107807166D01*
X160631142Y-107759547D01*
X160535904Y-107711928D01*
X159726380Y-107711928D01*
X159726380Y-107378595D02*
X159726380Y-106807166D01*
X160726380Y-107092880D02*
X159726380Y-107092880D01*
X124325000Y-111696595D02*
X124372619Y-111601357D01*
X124372619Y-111458500D01*
X124325000Y-111315642D01*
X124229761Y-111220404D01*
X124134523Y-111172785D01*
X123944047Y-111125166D01*
X123801190Y-111125166D01*
X123610714Y-111172785D01*
X123515476Y-111220404D01*
X123420238Y-111315642D01*
X123372619Y-111458500D01*
X123372619Y-111553738D01*
X123420238Y-111696595D01*
X123467857Y-111744214D01*
X123801190Y-111744214D01*
X123801190Y-111553738D01*
X123372619Y-112172785D02*
X124372619Y-112172785D01*
X123372619Y-112744214D01*
X124372619Y-112744214D01*
X123372619Y-113220404D02*
X124372619Y-113220404D01*
X124372619Y-113458500D01*
X124325000Y-113601357D01*
X124229761Y-113696595D01*
X124134523Y-113744214D01*
X123944047Y-113791833D01*
X123801190Y-113791833D01*
X123610714Y-113744214D01*
X123515476Y-113696595D01*
X123420238Y-113601357D01*
X123372619Y-113458500D01*
X123372619Y-113220404D01*
X123245619Y-106854690D02*
X124245619Y-106854690D01*
X123245619Y-107330880D02*
X124245619Y-107330880D01*
X123245619Y-107902309D01*
X124245619Y-107902309D01*
X198826428Y-132571904D02*
X198826428Y-131810000D01*
X199207380Y-130810000D02*
X199207380Y-131381428D01*
X199207380Y-131095714D02*
X198207380Y-131095714D01*
X198350238Y-131190952D01*
X198445476Y-131286190D01*
X198493095Y-131381428D01*
X198207380Y-129905238D02*
X198207380Y-130381428D01*
X198683571Y-130429047D01*
X198635952Y-130381428D01*
X198588333Y-130286190D01*
X198588333Y-130048095D01*
X198635952Y-129952857D01*
X198683571Y-129905238D01*
X198778809Y-129857619D01*
X199016904Y-129857619D01*
X199112142Y-129905238D01*
X199159761Y-129952857D01*
X199207380Y-130048095D01*
X199207380Y-130286190D01*
X199159761Y-130381428D01*
X199112142Y-130429047D01*
X198207380Y-129571904D02*
X199207380Y-129238571D01*
X198207380Y-128905238D01*
X198826428Y-114791904D02*
X198826428Y-114030000D01*
X199207380Y-114410952D02*
X198445476Y-114410952D01*
X199207380Y-113030000D02*
X199207380Y-113601428D01*
X199207380Y-113315714D02*
X198207380Y-113315714D01*
X198350238Y-113410952D01*
X198445476Y-113506190D01*
X198493095Y-113601428D01*
X198207380Y-112125238D02*
X198207380Y-112601428D01*
X198683571Y-112649047D01*
X198635952Y-112601428D01*
X198588333Y-112506190D01*
X198588333Y-112268095D01*
X198635952Y-112172857D01*
X198683571Y-112125238D01*
X198778809Y-112077619D01*
X199016904Y-112077619D01*
X199112142Y-112125238D01*
X199159761Y-112172857D01*
X199207380Y-112268095D01*
X199207380Y-112506190D01*
X199159761Y-112601428D01*
X199112142Y-112649047D01*
X198207380Y-111791904D02*
X199207380Y-111458571D01*
X198207380Y-111125238D01*
D11*
X139571500Y-109303500D02*
X141521500Y-109303500D01*
X139571500Y-109303500D02*
X137621500Y-109303500D01*
X139571500Y-104183500D02*
X141521500Y-104183500D01*
X139571500Y-104183500D02*
X136121500Y-104183500D01*
X132752000Y-109499748D02*
X132752000Y-110922252D01*
X135472000Y-109499748D02*
X135472000Y-110922252D01*
X143617000Y-139127000D02*
X143617000Y-141077000D01*
X143617000Y-139127000D02*
X143617000Y-137177000D01*
X148737000Y-139127000D02*
X148737000Y-141077000D01*
X148737000Y-139127000D02*
X148737000Y-135677000D01*
X139571500Y-135402000D02*
X141521500Y-135402000D01*
X139571500Y-135402000D02*
X137621500Y-135402000D01*
X139571500Y-130282000D02*
X141521500Y-130282000D01*
X139571500Y-130282000D02*
X136121500Y-130282000D01*
X145499064Y-134974000D02*
X145044936Y-134974000D01*
X145499064Y-133504000D02*
X145044936Y-133504000D01*
X150658500Y-137964936D02*
X150658500Y-138419064D01*
X149188500Y-137964936D02*
X149188500Y-138419064D01*
X139816064Y-129830500D02*
X139361936Y-129830500D01*
X139816064Y-128360500D02*
X139361936Y-128360500D01*
X135545500Y-130979936D02*
X135545500Y-131434064D01*
X134075500Y-130979936D02*
X134075500Y-131434064D01*
X131291000Y-135329436D02*
X131291000Y-135783564D01*
X129821000Y-135329436D02*
X129821000Y-135783564D01*
X158921500Y-129222500D02*
G75*
G03*
X158921500Y-129222500I-1251000J0D01*
G01*
X158921500Y-134239000D02*
G75*
G03*
X158921500Y-134239000I-1251000J0D01*
G01*
X127362000Y-128460500D02*
G75*
G03*
X127362000Y-128460500I-1251000J0D01*
G01*
X127362000Y-133477000D02*
G75*
G03*
X127362000Y-133477000I-1251000J0D01*
G01*
X135535500Y-135598248D02*
X135535500Y-137020752D01*
X132815500Y-135598248D02*
X132815500Y-137020752D01*
X146394000Y-129933248D02*
X146394000Y-131355752D01*
X143674000Y-129933248D02*
X143674000Y-131355752D01*
X139353748Y-126328500D02*
X139876252Y-126328500D01*
X139353748Y-127798500D02*
X139876252Y-127798500D01*
X143248500Y-141640500D02*
G75*
G03*
X143248500Y-141640500I-4120000J0D01*
G01*
X135048500Y-141640500D02*
X143208500Y-141640500D01*
X135048500Y-141600500D02*
X143208500Y-141600500D01*
X135048500Y-141560500D02*
X143208500Y-141560500D01*
X135049500Y-141520500D02*
X143207500Y-141520500D01*
X135051500Y-141480500D02*
X143205500Y-141480500D01*
X135052500Y-141440500D02*
X143204500Y-141440500D01*
X135054500Y-141400500D02*
X143202500Y-141400500D01*
X135057500Y-141360500D02*
X143199500Y-141360500D01*
X135060500Y-141320500D02*
X143196500Y-141320500D01*
X135063500Y-141280500D02*
X143193500Y-141280500D01*
X135067500Y-141240500D02*
X143189500Y-141240500D01*
X135071500Y-141200500D02*
X143185500Y-141200500D01*
X135076500Y-141160500D02*
X143180500Y-141160500D01*
X135080500Y-141120500D02*
X143176500Y-141120500D01*
X135086500Y-141080500D02*
X143170500Y-141080500D01*
X135091500Y-141040500D02*
X143165500Y-141040500D01*
X135098500Y-141000500D02*
X143158500Y-141000500D01*
X135104500Y-140960500D02*
X143152500Y-140960500D01*
X135111500Y-140919500D02*
X138088500Y-140919500D01*
X140168500Y-140919500D02*
X143145500Y-140919500D01*
X135118500Y-140879500D02*
X138088500Y-140879500D01*
X140168500Y-140879500D02*
X143138500Y-140879500D01*
X135126500Y-140839500D02*
X138088500Y-140839500D01*
X140168500Y-140839500D02*
X143130500Y-140839500D01*
X135134500Y-140799500D02*
X138088500Y-140799500D01*
X140168500Y-140799500D02*
X143122500Y-140799500D01*
X135143500Y-140759500D02*
X138088500Y-140759500D01*
X140168500Y-140759500D02*
X143113500Y-140759500D01*
X135152500Y-140719500D02*
X138088500Y-140719500D01*
X140168500Y-140719500D02*
X143104500Y-140719500D01*
X135161500Y-140679500D02*
X138088500Y-140679500D01*
X140168500Y-140679500D02*
X143095500Y-140679500D01*
X135171500Y-140639500D02*
X138088500Y-140639500D01*
X140168500Y-140639500D02*
X143085500Y-140639500D01*
X135181500Y-140599500D02*
X138088500Y-140599500D01*
X140168500Y-140599500D02*
X143075500Y-140599500D01*
X135192500Y-140559500D02*
X138088500Y-140559500D01*
X140168500Y-140559500D02*
X143064500Y-140559500D01*
X135203500Y-140519500D02*
X138088500Y-140519500D01*
X140168500Y-140519500D02*
X143053500Y-140519500D01*
X135214500Y-140479500D02*
X138088500Y-140479500D01*
X140168500Y-140479500D02*
X143042500Y-140479500D01*
X135226500Y-140439500D02*
X138088500Y-140439500D01*
X140168500Y-140439500D02*
X143030500Y-140439500D01*
X135239500Y-140399500D02*
X138088500Y-140399500D01*
X140168500Y-140399500D02*
X143017500Y-140399500D01*
X135251500Y-140359500D02*
X138088500Y-140359500D01*
X140168500Y-140359500D02*
X143005500Y-140359500D01*
X135265500Y-140319500D02*
X138088500Y-140319500D01*
X140168500Y-140319500D02*
X142991500Y-140319500D01*
X135278500Y-140279500D02*
X138088500Y-140279500D01*
X140168500Y-140279500D02*
X142978500Y-140279500D01*
X135293500Y-140239500D02*
X138088500Y-140239500D01*
X140168500Y-140239500D02*
X142963500Y-140239500D01*
X135307500Y-140199500D02*
X138088500Y-140199500D01*
X140168500Y-140199500D02*
X142949500Y-140199500D01*
X135323500Y-140159500D02*
X138088500Y-140159500D01*
X140168500Y-140159500D02*
X142933500Y-140159500D01*
X135338500Y-140119500D02*
X138088500Y-140119500D01*
X140168500Y-140119500D02*
X142918500Y-140119500D01*
X135354500Y-140079500D02*
X138088500Y-140079500D01*
X140168500Y-140079500D02*
X142902500Y-140079500D01*
X135371500Y-140039500D02*
X138088500Y-140039500D01*
X140168500Y-140039500D02*
X142885500Y-140039500D01*
X135388500Y-139999500D02*
X138088500Y-139999500D01*
X140168500Y-139999500D02*
X142868500Y-139999500D01*
X135406500Y-139959500D02*
X138088500Y-139959500D01*
X140168500Y-139959500D02*
X142850500Y-139959500D01*
X135424500Y-139919500D02*
X138088500Y-139919500D01*
X140168500Y-139919500D02*
X142832500Y-139919500D01*
X135442500Y-139879500D02*
X138088500Y-139879500D01*
X140168500Y-139879500D02*
X142814500Y-139879500D01*
X135462500Y-139839500D02*
X138088500Y-139839500D01*
X140168500Y-139839500D02*
X142794500Y-139839500D01*
X135481500Y-139799500D02*
X138088500Y-139799500D01*
X140168500Y-139799500D02*
X142775500Y-139799500D01*
X135501500Y-139759500D02*
X138088500Y-139759500D01*
X140168500Y-139759500D02*
X142755500Y-139759500D01*
X135522500Y-139719500D02*
X138088500Y-139719500D01*
X140168500Y-139719500D02*
X142734500Y-139719500D01*
X135544500Y-139679500D02*
X138088500Y-139679500D01*
X140168500Y-139679500D02*
X142712500Y-139679500D01*
X135566500Y-139639500D02*
X138088500Y-139639500D01*
X140168500Y-139639500D02*
X142690500Y-139639500D01*
X135588500Y-139599500D02*
X138088500Y-139599500D01*
X140168500Y-139599500D02*
X142668500Y-139599500D01*
X135611500Y-139559500D02*
X138088500Y-139559500D01*
X140168500Y-139559500D02*
X142645500Y-139559500D01*
X135635500Y-139519500D02*
X138088500Y-139519500D01*
X140168500Y-139519500D02*
X142621500Y-139519500D01*
X135659500Y-139479500D02*
X138088500Y-139479500D01*
X140168500Y-139479500D02*
X142597500Y-139479500D01*
X135684500Y-139439500D02*
X138088500Y-139439500D01*
X140168500Y-139439500D02*
X142572500Y-139439500D01*
X135710500Y-139399500D02*
X138088500Y-139399500D01*
X140168500Y-139399500D02*
X142546500Y-139399500D01*
X135736500Y-139359500D02*
X138088500Y-139359500D01*
X140168500Y-139359500D02*
X142520500Y-139359500D01*
X135763500Y-139319500D02*
X138088500Y-139319500D01*
X140168500Y-139319500D02*
X142493500Y-139319500D01*
X135790500Y-139279500D02*
X138088500Y-139279500D01*
X140168500Y-139279500D02*
X142466500Y-139279500D01*
X135819500Y-139239500D02*
X138088500Y-139239500D01*
X140168500Y-139239500D02*
X142437500Y-139239500D01*
X135848500Y-139199500D02*
X138088500Y-139199500D01*
X140168500Y-139199500D02*
X142408500Y-139199500D01*
X135878500Y-139159500D02*
X138088500Y-139159500D01*
X140168500Y-139159500D02*
X142378500Y-139159500D01*
X135908500Y-139119500D02*
X138088500Y-139119500D01*
X140168500Y-139119500D02*
X142348500Y-139119500D01*
X135939500Y-139079500D02*
X138088500Y-139079500D01*
X140168500Y-139079500D02*
X142317500Y-139079500D01*
X135972500Y-139039500D02*
X138088500Y-139039500D01*
X140168500Y-139039500D02*
X142284500Y-139039500D01*
X136004500Y-138999500D02*
X138088500Y-138999500D01*
X140168500Y-138999500D02*
X142252500Y-138999500D01*
X136038500Y-138959500D02*
X138088500Y-138959500D01*
X140168500Y-138959500D02*
X142218500Y-138959500D01*
X136073500Y-138919500D02*
X138088500Y-138919500D01*
X140168500Y-138919500D02*
X142183500Y-138919500D01*
X136109500Y-138879500D02*
X138088500Y-138879500D01*
X140168500Y-138879500D02*
X142147500Y-138879500D01*
X136145500Y-138839500D02*
X142111500Y-138839500D01*
X136183500Y-138799500D02*
X142073500Y-138799500D01*
X136221500Y-138759500D02*
X142035500Y-138759500D01*
X136261500Y-138719500D02*
X141995500Y-138719500D01*
X136302500Y-138679500D02*
X141954500Y-138679500D01*
X136344500Y-138639500D02*
X141912500Y-138639500D01*
X136387500Y-138599500D02*
X141869500Y-138599500D01*
X136431500Y-138559500D02*
X141825500Y-138559500D01*
X136477500Y-138519500D02*
X141779500Y-138519500D01*
X136524500Y-138479500D02*
X141732500Y-138479500D01*
X136572500Y-138439500D02*
X141684500Y-138439500D01*
X136623500Y-138399500D02*
X141633500Y-138399500D01*
X136674500Y-138359500D02*
X141582500Y-138359500D01*
X136728500Y-138319500D02*
X141528500Y-138319500D01*
X136783500Y-138279500D02*
X141473500Y-138279500D01*
X136841500Y-138239500D02*
X141415500Y-138239500D01*
X136900500Y-138199500D02*
X141356500Y-138199500D01*
X136962500Y-138159500D02*
X141294500Y-138159500D01*
X137026500Y-138119500D02*
X141230500Y-138119500D01*
X137094500Y-138079500D02*
X141162500Y-138079500D01*
X137164500Y-138039500D02*
X141092500Y-138039500D01*
X137238500Y-137999500D02*
X141018500Y-137999500D01*
X137315500Y-137959500D02*
X140941500Y-137959500D01*
X137397500Y-137919500D02*
X140859500Y-137919500D01*
X137483500Y-137879500D02*
X140773500Y-137879500D01*
X137576500Y-137839500D02*
X140680500Y-137839500D01*
X137675500Y-137799500D02*
X140581500Y-137799500D01*
X137782500Y-137759500D02*
X140474500Y-137759500D01*
X137899500Y-137719500D02*
X140357500Y-137719500D01*
X138030500Y-137679500D02*
X140226500Y-137679500D01*
X138180500Y-137639500D02*
X140076500Y-137639500D01*
X138360500Y-137599500D02*
X139896500Y-137599500D01*
X138595500Y-137559500D02*
X139661500Y-137559500D01*
X136813500Y-146050198D02*
X136813500Y-145250198D01*
X136413500Y-145650198D02*
X137213500Y-145650198D01*
X155250000Y-128933000D02*
G75*
G03*
X155250000Y-128933000I-4120000J0D01*
G01*
X147050000Y-128933000D02*
X155210000Y-128933000D01*
X147050000Y-128893000D02*
X155210000Y-128893000D01*
X147050000Y-128853000D02*
X155210000Y-128853000D01*
X147051000Y-128813000D02*
X155209000Y-128813000D01*
X147053000Y-128773000D02*
X155207000Y-128773000D01*
X147054000Y-128733000D02*
X155206000Y-128733000D01*
X147056000Y-128693000D02*
X155204000Y-128693000D01*
X147059000Y-128653000D02*
X155201000Y-128653000D01*
X147062000Y-128613000D02*
X155198000Y-128613000D01*
X147065000Y-128573000D02*
X155195000Y-128573000D01*
X147069000Y-128533000D02*
X155191000Y-128533000D01*
X147073000Y-128493000D02*
X155187000Y-128493000D01*
X147078000Y-128453000D02*
X155182000Y-128453000D01*
X147082000Y-128413000D02*
X155178000Y-128413000D01*
X147088000Y-128373000D02*
X155172000Y-128373000D01*
X147093000Y-128333000D02*
X155167000Y-128333000D01*
X147100000Y-128293000D02*
X155160000Y-128293000D01*
X147106000Y-128253000D02*
X155154000Y-128253000D01*
X147113000Y-128212000D02*
X150090000Y-128212000D01*
X152170000Y-128212000D02*
X155147000Y-128212000D01*
X147120000Y-128172000D02*
X150090000Y-128172000D01*
X152170000Y-128172000D02*
X155140000Y-128172000D01*
X147128000Y-128132000D02*
X150090000Y-128132000D01*
X152170000Y-128132000D02*
X155132000Y-128132000D01*
X147136000Y-128092000D02*
X150090000Y-128092000D01*
X152170000Y-128092000D02*
X155124000Y-128092000D01*
X147145000Y-128052000D02*
X150090000Y-128052000D01*
X152170000Y-128052000D02*
X155115000Y-128052000D01*
X147154000Y-128012000D02*
X150090000Y-128012000D01*
X152170000Y-128012000D02*
X155106000Y-128012000D01*
X147163000Y-127972000D02*
X150090000Y-127972000D01*
X152170000Y-127972000D02*
X155097000Y-127972000D01*
X147173000Y-127932000D02*
X150090000Y-127932000D01*
X152170000Y-127932000D02*
X155087000Y-127932000D01*
X147183000Y-127892000D02*
X150090000Y-127892000D01*
X152170000Y-127892000D02*
X155077000Y-127892000D01*
X147194000Y-127852000D02*
X150090000Y-127852000D01*
X152170000Y-127852000D02*
X155066000Y-127852000D01*
X147205000Y-127812000D02*
X150090000Y-127812000D01*
X152170000Y-127812000D02*
X155055000Y-127812000D01*
X147216000Y-127772000D02*
X150090000Y-127772000D01*
X152170000Y-127772000D02*
X155044000Y-127772000D01*
X147228000Y-127732000D02*
X150090000Y-127732000D01*
X152170000Y-127732000D02*
X155032000Y-127732000D01*
X147241000Y-127692000D02*
X150090000Y-127692000D01*
X152170000Y-127692000D02*
X155019000Y-127692000D01*
X147253000Y-127652000D02*
X150090000Y-127652000D01*
X152170000Y-127652000D02*
X155007000Y-127652000D01*
X147267000Y-127612000D02*
X150090000Y-127612000D01*
X152170000Y-127612000D02*
X154993000Y-127612000D01*
X147280000Y-127572000D02*
X150090000Y-127572000D01*
X152170000Y-127572000D02*
X154980000Y-127572000D01*
X147295000Y-127532000D02*
X150090000Y-127532000D01*
X152170000Y-127532000D02*
X154965000Y-127532000D01*
X147309000Y-127492000D02*
X150090000Y-127492000D01*
X152170000Y-127492000D02*
X154951000Y-127492000D01*
X147325000Y-127452000D02*
X150090000Y-127452000D01*
X152170000Y-127452000D02*
X154935000Y-127452000D01*
X147340000Y-127412000D02*
X150090000Y-127412000D01*
X152170000Y-127412000D02*
X154920000Y-127412000D01*
X147356000Y-127372000D02*
X150090000Y-127372000D01*
X152170000Y-127372000D02*
X154904000Y-127372000D01*
X147373000Y-127332000D02*
X150090000Y-127332000D01*
X152170000Y-127332000D02*
X154887000Y-127332000D01*
X147390000Y-127292000D02*
X150090000Y-127292000D01*
X152170000Y-127292000D02*
X154870000Y-127292000D01*
X147408000Y-127252000D02*
X150090000Y-127252000D01*
X152170000Y-127252000D02*
X154852000Y-127252000D01*
X147426000Y-127212000D02*
X150090000Y-127212000D01*
X152170000Y-127212000D02*
X154834000Y-127212000D01*
X147444000Y-127172000D02*
X150090000Y-127172000D01*
X152170000Y-127172000D02*
X154816000Y-127172000D01*
X147464000Y-127132000D02*
X150090000Y-127132000D01*
X152170000Y-127132000D02*
X154796000Y-127132000D01*
X147483000Y-127092000D02*
X150090000Y-127092000D01*
X152170000Y-127092000D02*
X154777000Y-127092000D01*
X147503000Y-127052000D02*
X150090000Y-127052000D01*
X152170000Y-127052000D02*
X154757000Y-127052000D01*
X147524000Y-127012000D02*
X150090000Y-127012000D01*
X152170000Y-127012000D02*
X154736000Y-127012000D01*
X147546000Y-126972000D02*
X150090000Y-126972000D01*
X152170000Y-126972000D02*
X154714000Y-126972000D01*
X147568000Y-126932000D02*
X150090000Y-126932000D01*
X152170000Y-126932000D02*
X154692000Y-126932000D01*
X147590000Y-126892000D02*
X150090000Y-126892000D01*
X152170000Y-126892000D02*
X154670000Y-126892000D01*
X147613000Y-126852000D02*
X150090000Y-126852000D01*
X152170000Y-126852000D02*
X154647000Y-126852000D01*
X147637000Y-126812000D02*
X150090000Y-126812000D01*
X152170000Y-126812000D02*
X154623000Y-126812000D01*
X147661000Y-126772000D02*
X150090000Y-126772000D01*
X152170000Y-126772000D02*
X154599000Y-126772000D01*
X147686000Y-126732000D02*
X150090000Y-126732000D01*
X152170000Y-126732000D02*
X154574000Y-126732000D01*
X147712000Y-126692000D02*
X150090000Y-126692000D01*
X152170000Y-126692000D02*
X154548000Y-126692000D01*
X147738000Y-126652000D02*
X150090000Y-126652000D01*
X152170000Y-126652000D02*
X154522000Y-126652000D01*
X147765000Y-126612000D02*
X150090000Y-126612000D01*
X152170000Y-126612000D02*
X154495000Y-126612000D01*
X147792000Y-126572000D02*
X150090000Y-126572000D01*
X152170000Y-126572000D02*
X154468000Y-126572000D01*
X147821000Y-126532000D02*
X150090000Y-126532000D01*
X152170000Y-126532000D02*
X154439000Y-126532000D01*
X147850000Y-126492000D02*
X150090000Y-126492000D01*
X152170000Y-126492000D02*
X154410000Y-126492000D01*
X147880000Y-126452000D02*
X150090000Y-126452000D01*
X152170000Y-126452000D02*
X154380000Y-126452000D01*
X147910000Y-126412000D02*
X150090000Y-126412000D01*
X152170000Y-126412000D02*
X154350000Y-126412000D01*
X147941000Y-126372000D02*
X150090000Y-126372000D01*
X152170000Y-126372000D02*
X154319000Y-126372000D01*
X147974000Y-126332000D02*
X150090000Y-126332000D01*
X152170000Y-126332000D02*
X154286000Y-126332000D01*
X148006000Y-126292000D02*
X150090000Y-126292000D01*
X152170000Y-126292000D02*
X154254000Y-126292000D01*
X148040000Y-126252000D02*
X150090000Y-126252000D01*
X152170000Y-126252000D02*
X154220000Y-126252000D01*
X148075000Y-126212000D02*
X150090000Y-126212000D01*
X152170000Y-126212000D02*
X154185000Y-126212000D01*
X148111000Y-126172000D02*
X150090000Y-126172000D01*
X152170000Y-126172000D02*
X154149000Y-126172000D01*
X148147000Y-126132000D02*
X154113000Y-126132000D01*
X148185000Y-126092000D02*
X154075000Y-126092000D01*
X148223000Y-126052000D02*
X154037000Y-126052000D01*
X148263000Y-126012000D02*
X153997000Y-126012000D01*
X148304000Y-125972000D02*
X153956000Y-125972000D01*
X148346000Y-125932000D02*
X153914000Y-125932000D01*
X148389000Y-125892000D02*
X153871000Y-125892000D01*
X148433000Y-125852000D02*
X153827000Y-125852000D01*
X148479000Y-125812000D02*
X153781000Y-125812000D01*
X148526000Y-125772000D02*
X153734000Y-125772000D01*
X148574000Y-125732000D02*
X153686000Y-125732000D01*
X148625000Y-125692000D02*
X153635000Y-125692000D01*
X148676000Y-125652000D02*
X153584000Y-125652000D01*
X148730000Y-125612000D02*
X153530000Y-125612000D01*
X148785000Y-125572000D02*
X153475000Y-125572000D01*
X148843000Y-125532000D02*
X153417000Y-125532000D01*
X148902000Y-125492000D02*
X153358000Y-125492000D01*
X148964000Y-125452000D02*
X153296000Y-125452000D01*
X149028000Y-125412000D02*
X153232000Y-125412000D01*
X149096000Y-125372000D02*
X153164000Y-125372000D01*
X149166000Y-125332000D02*
X153094000Y-125332000D01*
X149240000Y-125292000D02*
X153020000Y-125292000D01*
X149317000Y-125252000D02*
X152943000Y-125252000D01*
X149399000Y-125212000D02*
X152861000Y-125212000D01*
X149485000Y-125172000D02*
X152775000Y-125172000D01*
X149578000Y-125132000D02*
X152682000Y-125132000D01*
X149677000Y-125092000D02*
X152583000Y-125092000D01*
X149784000Y-125052000D02*
X152476000Y-125052000D01*
X149901000Y-125012000D02*
X152359000Y-125012000D01*
X150032000Y-124972000D02*
X152228000Y-124972000D01*
X150182000Y-124932000D02*
X152078000Y-124932000D01*
X150362000Y-124892000D02*
X151898000Y-124892000D01*
X150597000Y-124852000D02*
X151663000Y-124852000D01*
X148815000Y-133342698D02*
X148815000Y-132542698D01*
X148415000Y-132942698D02*
X149215000Y-132942698D01*
X149315500Y-111675936D02*
X149315500Y-112130064D01*
X150785500Y-111675936D02*
X150785500Y-112130064D01*
X148800500Y-112965000D02*
X148800500Y-109515000D01*
X148800500Y-112965000D02*
X148800500Y-114915000D01*
X143680500Y-112965000D02*
X143680500Y-111015000D01*
X143680500Y-112965000D02*
X143680500Y-114915000D01*
X139847564Y-102198500D02*
X139393436Y-102198500D01*
X139847564Y-103668500D02*
X139393436Y-103668500D01*
X134075500Y-104881436D02*
X134075500Y-105335564D01*
X135545500Y-104881436D02*
X135545500Y-105335564D01*
X139353748Y-101636500D02*
X139876252Y-101636500D01*
X139353748Y-100166500D02*
X139876252Y-100166500D01*
X143312000Y-115288000D02*
G75*
G03*
X143312000Y-115288000I-4120000J0D01*
G01*
X135112000Y-115288000D02*
X143272000Y-115288000D01*
X135112000Y-115248000D02*
X143272000Y-115248000D01*
X135112000Y-115208000D02*
X143272000Y-115208000D01*
X135113000Y-115168000D02*
X143271000Y-115168000D01*
X135115000Y-115128000D02*
X143269000Y-115128000D01*
X135116000Y-115088000D02*
X143268000Y-115088000D01*
X135118000Y-115048000D02*
X143266000Y-115048000D01*
X135121000Y-115008000D02*
X143263000Y-115008000D01*
X135124000Y-114968000D02*
X143260000Y-114968000D01*
X135127000Y-114928000D02*
X143257000Y-114928000D01*
X135131000Y-114888000D02*
X143253000Y-114888000D01*
X135135000Y-114848000D02*
X143249000Y-114848000D01*
X135140000Y-114808000D02*
X143244000Y-114808000D01*
X135144000Y-114768000D02*
X143240000Y-114768000D01*
X135150000Y-114728000D02*
X143234000Y-114728000D01*
X135155000Y-114688000D02*
X143229000Y-114688000D01*
X135162000Y-114648000D02*
X143222000Y-114648000D01*
X135168000Y-114608000D02*
X143216000Y-114608000D01*
X135175000Y-114567000D02*
X138152000Y-114567000D01*
X140232000Y-114567000D02*
X143209000Y-114567000D01*
X135182000Y-114527000D02*
X138152000Y-114527000D01*
X140232000Y-114527000D02*
X143202000Y-114527000D01*
X135190000Y-114487000D02*
X138152000Y-114487000D01*
X140232000Y-114487000D02*
X143194000Y-114487000D01*
X135198000Y-114447000D02*
X138152000Y-114447000D01*
X140232000Y-114447000D02*
X143186000Y-114447000D01*
X135207000Y-114407000D02*
X138152000Y-114407000D01*
X140232000Y-114407000D02*
X143177000Y-114407000D01*
X135216000Y-114367000D02*
X138152000Y-114367000D01*
X140232000Y-114367000D02*
X143168000Y-114367000D01*
X135225000Y-114327000D02*
X138152000Y-114327000D01*
X140232000Y-114327000D02*
X143159000Y-114327000D01*
X135235000Y-114287000D02*
X138152000Y-114287000D01*
X140232000Y-114287000D02*
X143149000Y-114287000D01*
X135245000Y-114247000D02*
X138152000Y-114247000D01*
X140232000Y-114247000D02*
X143139000Y-114247000D01*
X135256000Y-114207000D02*
X138152000Y-114207000D01*
X140232000Y-114207000D02*
X143128000Y-114207000D01*
X135267000Y-114167000D02*
X138152000Y-114167000D01*
X140232000Y-114167000D02*
X143117000Y-114167000D01*
X135278000Y-114127000D02*
X138152000Y-114127000D01*
X140232000Y-114127000D02*
X143106000Y-114127000D01*
X135290000Y-114087000D02*
X138152000Y-114087000D01*
X140232000Y-114087000D02*
X143094000Y-114087000D01*
X135303000Y-114047000D02*
X138152000Y-114047000D01*
X140232000Y-114047000D02*
X143081000Y-114047000D01*
X135315000Y-114007000D02*
X138152000Y-114007000D01*
X140232000Y-114007000D02*
X143069000Y-114007000D01*
X135329000Y-113967000D02*
X138152000Y-113967000D01*
X140232000Y-113967000D02*
X143055000Y-113967000D01*
X135342000Y-113927000D02*
X138152000Y-113927000D01*
X140232000Y-113927000D02*
X143042000Y-113927000D01*
X135357000Y-113887000D02*
X138152000Y-113887000D01*
X140232000Y-113887000D02*
X143027000Y-113887000D01*
X135371000Y-113847000D02*
X138152000Y-113847000D01*
X140232000Y-113847000D02*
X143013000Y-113847000D01*
X135387000Y-113807000D02*
X138152000Y-113807000D01*
X140232000Y-113807000D02*
X142997000Y-113807000D01*
X135402000Y-113767000D02*
X138152000Y-113767000D01*
X140232000Y-113767000D02*
X142982000Y-113767000D01*
X135418000Y-113727000D02*
X138152000Y-113727000D01*
X140232000Y-113727000D02*
X142966000Y-113727000D01*
X135435000Y-113687000D02*
X138152000Y-113687000D01*
X140232000Y-113687000D02*
X142949000Y-113687000D01*
X135452000Y-113647000D02*
X138152000Y-113647000D01*
X140232000Y-113647000D02*
X142932000Y-113647000D01*
X135470000Y-113607000D02*
X138152000Y-113607000D01*
X140232000Y-113607000D02*
X142914000Y-113607000D01*
X135488000Y-113567000D02*
X138152000Y-113567000D01*
X140232000Y-113567000D02*
X142896000Y-113567000D01*
X135506000Y-113527000D02*
X138152000Y-113527000D01*
X140232000Y-113527000D02*
X142878000Y-113527000D01*
X135526000Y-113487000D02*
X138152000Y-113487000D01*
X140232000Y-113487000D02*
X142858000Y-113487000D01*
X135545000Y-113447000D02*
X138152000Y-113447000D01*
X140232000Y-113447000D02*
X142839000Y-113447000D01*
X135565000Y-113407000D02*
X138152000Y-113407000D01*
X140232000Y-113407000D02*
X142819000Y-113407000D01*
X135586000Y-113367000D02*
X138152000Y-113367000D01*
X140232000Y-113367000D02*
X142798000Y-113367000D01*
X135608000Y-113327000D02*
X138152000Y-113327000D01*
X140232000Y-113327000D02*
X142776000Y-113327000D01*
X135630000Y-113287000D02*
X138152000Y-113287000D01*
X140232000Y-113287000D02*
X142754000Y-113287000D01*
X135652000Y-113247000D02*
X138152000Y-113247000D01*
X140232000Y-113247000D02*
X142732000Y-113247000D01*
X135675000Y-113207000D02*
X138152000Y-113207000D01*
X140232000Y-113207000D02*
X142709000Y-113207000D01*
X135699000Y-113167000D02*
X138152000Y-113167000D01*
X140232000Y-113167000D02*
X142685000Y-113167000D01*
X135723000Y-113127000D02*
X138152000Y-113127000D01*
X140232000Y-113127000D02*
X142661000Y-113127000D01*
X135748000Y-113087000D02*
X138152000Y-113087000D01*
X140232000Y-113087000D02*
X142636000Y-113087000D01*
X135774000Y-113047000D02*
X138152000Y-113047000D01*
X140232000Y-113047000D02*
X142610000Y-113047000D01*
X135800000Y-113007000D02*
X138152000Y-113007000D01*
X140232000Y-113007000D02*
X142584000Y-113007000D01*
X135827000Y-112967000D02*
X138152000Y-112967000D01*
X140232000Y-112967000D02*
X142557000Y-112967000D01*
X135854000Y-112927000D02*
X138152000Y-112927000D01*
X140232000Y-112927000D02*
X142530000Y-112927000D01*
X135883000Y-112887000D02*
X138152000Y-112887000D01*
X140232000Y-112887000D02*
X142501000Y-112887000D01*
X135912000Y-112847000D02*
X138152000Y-112847000D01*
X140232000Y-112847000D02*
X142472000Y-112847000D01*
X135942000Y-112807000D02*
X138152000Y-112807000D01*
X140232000Y-112807000D02*
X142442000Y-112807000D01*
X135972000Y-112767000D02*
X138152000Y-112767000D01*
X140232000Y-112767000D02*
X142412000Y-112767000D01*
X136003000Y-112727000D02*
X138152000Y-112727000D01*
X140232000Y-112727000D02*
X142381000Y-112727000D01*
X136036000Y-112687000D02*
X138152000Y-112687000D01*
X140232000Y-112687000D02*
X142348000Y-112687000D01*
X136068000Y-112647000D02*
X138152000Y-112647000D01*
X140232000Y-112647000D02*
X142316000Y-112647000D01*
X136102000Y-112607000D02*
X138152000Y-112607000D01*
X140232000Y-112607000D02*
X142282000Y-112607000D01*
X136137000Y-112567000D02*
X138152000Y-112567000D01*
X140232000Y-112567000D02*
X142247000Y-112567000D01*
X136173000Y-112527000D02*
X138152000Y-112527000D01*
X140232000Y-112527000D02*
X142211000Y-112527000D01*
X136209000Y-112487000D02*
X142175000Y-112487000D01*
X136247000Y-112447000D02*
X142137000Y-112447000D01*
X136285000Y-112407000D02*
X142099000Y-112407000D01*
X136325000Y-112367000D02*
X142059000Y-112367000D01*
X136366000Y-112327000D02*
X142018000Y-112327000D01*
X136408000Y-112287000D02*
X141976000Y-112287000D01*
X136451000Y-112247000D02*
X141933000Y-112247000D01*
X136495000Y-112207000D02*
X141889000Y-112207000D01*
X136541000Y-112167000D02*
X141843000Y-112167000D01*
X136588000Y-112127000D02*
X141796000Y-112127000D01*
X136636000Y-112087000D02*
X141748000Y-112087000D01*
X136687000Y-112047000D02*
X141697000Y-112047000D01*
X136738000Y-112007000D02*
X141646000Y-112007000D01*
X136792000Y-111967000D02*
X141592000Y-111967000D01*
X136847000Y-111927000D02*
X141537000Y-111927000D01*
X136905000Y-111887000D02*
X141479000Y-111887000D01*
X136964000Y-111847000D02*
X141420000Y-111847000D01*
X137026000Y-111807000D02*
X141358000Y-111807000D01*
X137090000Y-111767000D02*
X141294000Y-111767000D01*
X137158000Y-111727000D02*
X141226000Y-111727000D01*
X137228000Y-111687000D02*
X141156000Y-111687000D01*
X137302000Y-111647000D02*
X141082000Y-111647000D01*
X137379000Y-111607000D02*
X141005000Y-111607000D01*
X137461000Y-111567000D02*
X140923000Y-111567000D01*
X137547000Y-111527000D02*
X140837000Y-111527000D01*
X137640000Y-111487000D02*
X140744000Y-111487000D01*
X137739000Y-111447000D02*
X140645000Y-111447000D01*
X137846000Y-111407000D02*
X140538000Y-111407000D01*
X137963000Y-111367000D02*
X140421000Y-111367000D01*
X138094000Y-111327000D02*
X140290000Y-111327000D01*
X138244000Y-111287000D02*
X140140000Y-111287000D01*
X138424000Y-111247000D02*
X139960000Y-111247000D01*
X138659000Y-111207000D02*
X139725000Y-111207000D01*
X136877000Y-119697698D02*
X136877000Y-118897698D01*
X136477000Y-119297698D02*
X137277000Y-119297698D01*
X155186500Y-102834500D02*
G75*
G03*
X155186500Y-102834500I-4120000J0D01*
G01*
X146986500Y-102834500D02*
X155146500Y-102834500D01*
X146986500Y-102794500D02*
X155146500Y-102794500D01*
X146986500Y-102754500D02*
X155146500Y-102754500D01*
X146987500Y-102714500D02*
X155145500Y-102714500D01*
X146989500Y-102674500D02*
X155143500Y-102674500D01*
X146990500Y-102634500D02*
X155142500Y-102634500D01*
X146992500Y-102594500D02*
X155140500Y-102594500D01*
X146995500Y-102554500D02*
X155137500Y-102554500D01*
X146998500Y-102514500D02*
X155134500Y-102514500D01*
X147001500Y-102474500D02*
X155131500Y-102474500D01*
X147005500Y-102434500D02*
X155127500Y-102434500D01*
X147009500Y-102394500D02*
X155123500Y-102394500D01*
X147014500Y-102354500D02*
X155118500Y-102354500D01*
X147018500Y-102314500D02*
X155114500Y-102314500D01*
X147024500Y-102274500D02*
X155108500Y-102274500D01*
X147029500Y-102234500D02*
X155103500Y-102234500D01*
X147036500Y-102194500D02*
X155096500Y-102194500D01*
X147042500Y-102154500D02*
X155090500Y-102154500D01*
X147049500Y-102113500D02*
X150026500Y-102113500D01*
X152106500Y-102113500D02*
X155083500Y-102113500D01*
X147056500Y-102073500D02*
X150026500Y-102073500D01*
X152106500Y-102073500D02*
X155076500Y-102073500D01*
X147064500Y-102033500D02*
X150026500Y-102033500D01*
X152106500Y-102033500D02*
X155068500Y-102033500D01*
X147072500Y-101993500D02*
X150026500Y-101993500D01*
X152106500Y-101993500D02*
X155060500Y-101993500D01*
X147081500Y-101953500D02*
X150026500Y-101953500D01*
X152106500Y-101953500D02*
X155051500Y-101953500D01*
X147090500Y-101913500D02*
X150026500Y-101913500D01*
X152106500Y-101913500D02*
X155042500Y-101913500D01*
X147099500Y-101873500D02*
X150026500Y-101873500D01*
X152106500Y-101873500D02*
X155033500Y-101873500D01*
X147109500Y-101833500D02*
X150026500Y-101833500D01*
X152106500Y-101833500D02*
X155023500Y-101833500D01*
X147119500Y-101793500D02*
X150026500Y-101793500D01*
X152106500Y-101793500D02*
X155013500Y-101793500D01*
X147130500Y-101753500D02*
X150026500Y-101753500D01*
X152106500Y-101753500D02*
X155002500Y-101753500D01*
X147141500Y-101713500D02*
X150026500Y-101713500D01*
X152106500Y-101713500D02*
X154991500Y-101713500D01*
X147152500Y-101673500D02*
X150026500Y-101673500D01*
X152106500Y-101673500D02*
X154980500Y-101673500D01*
X147164500Y-101633500D02*
X150026500Y-101633500D01*
X152106500Y-101633500D02*
X154968500Y-101633500D01*
X147177500Y-101593500D02*
X150026500Y-101593500D01*
X152106500Y-101593500D02*
X154955500Y-101593500D01*
X147189500Y-101553500D02*
X150026500Y-101553500D01*
X152106500Y-101553500D02*
X154943500Y-101553500D01*
X147203500Y-101513500D02*
X150026500Y-101513500D01*
X152106500Y-101513500D02*
X154929500Y-101513500D01*
X147216500Y-101473500D02*
X150026500Y-101473500D01*
X152106500Y-101473500D02*
X154916500Y-101473500D01*
X147231500Y-101433500D02*
X150026500Y-101433500D01*
X152106500Y-101433500D02*
X154901500Y-101433500D01*
X147245500Y-101393500D02*
X150026500Y-101393500D01*
X152106500Y-101393500D02*
X154887500Y-101393500D01*
X147261500Y-101353500D02*
X150026500Y-101353500D01*
X152106500Y-101353500D02*
X154871500Y-101353500D01*
X147276500Y-101313500D02*
X150026500Y-101313500D01*
X152106500Y-101313500D02*
X154856500Y-101313500D01*
X147292500Y-101273500D02*
X150026500Y-101273500D01*
X152106500Y-101273500D02*
X154840500Y-101273500D01*
X147309500Y-101233500D02*
X150026500Y-101233500D01*
X152106500Y-101233500D02*
X154823500Y-101233500D01*
X147326500Y-101193500D02*
X150026500Y-101193500D01*
X152106500Y-101193500D02*
X154806500Y-101193500D01*
X147344500Y-101153500D02*
X150026500Y-101153500D01*
X152106500Y-101153500D02*
X154788500Y-101153500D01*
X147362500Y-101113500D02*
X150026500Y-101113500D01*
X152106500Y-101113500D02*
X154770500Y-101113500D01*
X147380500Y-101073500D02*
X150026500Y-101073500D01*
X152106500Y-101073500D02*
X154752500Y-101073500D01*
X147400500Y-101033500D02*
X150026500Y-101033500D01*
X152106500Y-101033500D02*
X154732500Y-101033500D01*
X147419500Y-100993500D02*
X150026500Y-100993500D01*
X152106500Y-100993500D02*
X154713500Y-100993500D01*
X147439500Y-100953500D02*
X150026500Y-100953500D01*
X152106500Y-100953500D02*
X154693500Y-100953500D01*
X147460500Y-100913500D02*
X150026500Y-100913500D01*
X152106500Y-100913500D02*
X154672500Y-100913500D01*
X147482500Y-100873500D02*
X150026500Y-100873500D01*
X152106500Y-100873500D02*
X154650500Y-100873500D01*
X147504500Y-100833500D02*
X150026500Y-100833500D01*
X152106500Y-100833500D02*
X154628500Y-100833500D01*
X147526500Y-100793500D02*
X150026500Y-100793500D01*
X152106500Y-100793500D02*
X154606500Y-100793500D01*
X147549500Y-100753500D02*
X150026500Y-100753500D01*
X152106500Y-100753500D02*
X154583500Y-100753500D01*
X147573500Y-100713500D02*
X150026500Y-100713500D01*
X152106500Y-100713500D02*
X154559500Y-100713500D01*
X147597500Y-100673500D02*
X150026500Y-100673500D01*
X152106500Y-100673500D02*
X154535500Y-100673500D01*
X147622500Y-100633500D02*
X150026500Y-100633500D01*
X152106500Y-100633500D02*
X154510500Y-100633500D01*
X147648500Y-100593500D02*
X150026500Y-100593500D01*
X152106500Y-100593500D02*
X154484500Y-100593500D01*
X147674500Y-100553500D02*
X150026500Y-100553500D01*
X152106500Y-100553500D02*
X154458500Y-100553500D01*
X147701500Y-100513500D02*
X150026500Y-100513500D01*
X152106500Y-100513500D02*
X154431500Y-100513500D01*
X147728500Y-100473500D02*
X150026500Y-100473500D01*
X152106500Y-100473500D02*
X154404500Y-100473500D01*
X147757500Y-100433500D02*
X150026500Y-100433500D01*
X152106500Y-100433500D02*
X154375500Y-100433500D01*
X147786500Y-100393500D02*
X150026500Y-100393500D01*
X152106500Y-100393500D02*
X154346500Y-100393500D01*
X147816500Y-100353500D02*
X150026500Y-100353500D01*
X152106500Y-100353500D02*
X154316500Y-100353500D01*
X147846500Y-100313500D02*
X150026500Y-100313500D01*
X152106500Y-100313500D02*
X154286500Y-100313500D01*
X147877500Y-100273500D02*
X150026500Y-100273500D01*
X152106500Y-100273500D02*
X154255500Y-100273500D01*
X147910500Y-100233500D02*
X150026500Y-100233500D01*
X152106500Y-100233500D02*
X154222500Y-100233500D01*
X147942500Y-100193500D02*
X150026500Y-100193500D01*
X152106500Y-100193500D02*
X154190500Y-100193500D01*
X147976500Y-100153500D02*
X150026500Y-100153500D01*
X152106500Y-100153500D02*
X154156500Y-100153500D01*
X148011500Y-100113500D02*
X150026500Y-100113500D01*
X152106500Y-100113500D02*
X154121500Y-100113500D01*
X148047500Y-100073500D02*
X150026500Y-100073500D01*
X152106500Y-100073500D02*
X154085500Y-100073500D01*
X148083500Y-100033500D02*
X154049500Y-100033500D01*
X148121500Y-99993500D02*
X154011500Y-99993500D01*
X148159500Y-99953500D02*
X153973500Y-99953500D01*
X148199500Y-99913500D02*
X153933500Y-99913500D01*
X148240500Y-99873500D02*
X153892500Y-99873500D01*
X148282500Y-99833500D02*
X153850500Y-99833500D01*
X148325500Y-99793500D02*
X153807500Y-99793500D01*
X148369500Y-99753500D02*
X153763500Y-99753500D01*
X148415500Y-99713500D02*
X153717500Y-99713500D01*
X148462500Y-99673500D02*
X153670500Y-99673500D01*
X148510500Y-99633500D02*
X153622500Y-99633500D01*
X148561500Y-99593500D02*
X153571500Y-99593500D01*
X148612500Y-99553500D02*
X153520500Y-99553500D01*
X148666500Y-99513500D02*
X153466500Y-99513500D01*
X148721500Y-99473500D02*
X153411500Y-99473500D01*
X148779500Y-99433500D02*
X153353500Y-99433500D01*
X148838500Y-99393500D02*
X153294500Y-99393500D01*
X148900500Y-99353500D02*
X153232500Y-99353500D01*
X148964500Y-99313500D02*
X153168500Y-99313500D01*
X149032500Y-99273500D02*
X153100500Y-99273500D01*
X149102500Y-99233500D02*
X153030500Y-99233500D01*
X149176500Y-99193500D02*
X152956500Y-99193500D01*
X149253500Y-99153500D02*
X152879500Y-99153500D01*
X149335500Y-99113500D02*
X152797500Y-99113500D01*
X149421500Y-99073500D02*
X152711500Y-99073500D01*
X149514500Y-99033500D02*
X152618500Y-99033500D01*
X149613500Y-98993500D02*
X152519500Y-98993500D01*
X149720500Y-98953500D02*
X152412500Y-98953500D01*
X149837500Y-98913500D02*
X152295500Y-98913500D01*
X149968500Y-98873500D02*
X152164500Y-98873500D01*
X150118500Y-98833500D02*
X152014500Y-98833500D01*
X150298500Y-98793500D02*
X151834500Y-98793500D01*
X150533500Y-98753500D02*
X151599500Y-98753500D01*
X148751500Y-107244198D02*
X148751500Y-106444198D01*
X148351500Y-106844198D02*
X149151500Y-106844198D01*
X143610500Y-103834748D02*
X143610500Y-105257252D01*
X146330500Y-103834748D02*
X146330500Y-105257252D01*
X196005500Y-121920000D02*
G75*
G03*
X196005500Y-121920000I-1251000J0D01*
G01*
X197466000Y-113030000D02*
G75*
G03*
X197466000Y-113030000I-1251000J0D01*
G01*
X197339000Y-130619500D02*
G75*
G03*
X197339000Y-130619500I-1251000J0D01*
G01*
X158794500Y-113157000D02*
G75*
G03*
X158794500Y-113157000I-1251000J0D01*
G01*
X158794500Y-108140500D02*
G75*
G03*
X158794500Y-108140500I-1251000J0D01*
G01*
X127425500Y-112395000D02*
G75*
G03*
X127425500Y-112395000I-1251000J0D01*
G01*
X127425500Y-107378500D02*
G75*
G03*
X127425500Y-107378500I-1251000J0D01*
G01*
X131291000Y-109310436D02*
X131291000Y-109764564D01*
X129821000Y-109310436D02*
X129821000Y-109764564D01*
X145562564Y-108875500D02*
X145108436Y-108875500D01*
X145562564Y-107405500D02*
X145108436Y-107405500D01*
D10*
X141287595Y-109688380D02*
X141287595Y-110497904D01*
X141335214Y-110593142D01*
X141382833Y-110640761D01*
X141478071Y-110688380D01*
X141668547Y-110688380D01*
X141763785Y-110640761D01*
X141811404Y-110593142D01*
X141859023Y-110497904D01*
X141859023Y-109688380D01*
X142287595Y-109783619D02*
X142335214Y-109736000D01*
X142430452Y-109688380D01*
X142668547Y-109688380D01*
X142763785Y-109736000D01*
X142811404Y-109783619D01*
X142859023Y-109878857D01*
X142859023Y-109974095D01*
X142811404Y-110116952D01*
X142239976Y-110688380D01*
X142859023Y-110688380D01*
X133326142Y-106878357D02*
X133373761Y-106925976D01*
X133421380Y-107068833D01*
X133421380Y-107164071D01*
X133373761Y-107306928D01*
X133278523Y-107402166D01*
X133183285Y-107449785D01*
X132992809Y-107497404D01*
X132849952Y-107497404D01*
X132659476Y-107449785D01*
X132564238Y-107402166D01*
X132469000Y-107306928D01*
X132421380Y-107164071D01*
X132421380Y-107068833D01*
X132469000Y-106925976D01*
X132516619Y-106878357D01*
X133421380Y-105925976D02*
X133421380Y-106497404D01*
X133421380Y-106211690D02*
X132421380Y-106211690D01*
X132564238Y-106306928D01*
X132659476Y-106402166D01*
X132707095Y-106497404D01*
X132754714Y-105068833D02*
X133421380Y-105068833D01*
X132373761Y-105306928D02*
X133088047Y-105545023D01*
X133088047Y-104925976D01*
X145351595Y-143533880D02*
X145351595Y-144343404D01*
X145399214Y-144438642D01*
X145446833Y-144486261D01*
X145542071Y-144533880D01*
X145732547Y-144533880D01*
X145827785Y-144486261D01*
X145875404Y-144438642D01*
X145923023Y-144343404D01*
X145923023Y-143533880D01*
X146827785Y-143867214D02*
X146827785Y-144533880D01*
X146589690Y-143486261D02*
X146351595Y-144200547D01*
X146970642Y-144200547D01*
X141287595Y-136040880D02*
X141287595Y-136850404D01*
X141335214Y-136945642D01*
X141382833Y-136993261D01*
X141478071Y-137040880D01*
X141668547Y-137040880D01*
X141763785Y-136993261D01*
X141811404Y-136945642D01*
X141859023Y-136850404D01*
X141859023Y-136040880D01*
X142239976Y-136040880D02*
X142859023Y-136040880D01*
X142525690Y-136421833D01*
X142668547Y-136421833D01*
X142763785Y-136469452D01*
X142811404Y-136517071D01*
X142859023Y-136612309D01*
X142859023Y-136850404D01*
X142811404Y-136945642D01*
X142763785Y-136993261D01*
X142668547Y-137040880D01*
X142382833Y-137040880D01*
X142287595Y-136993261D01*
X142239976Y-136945642D01*
X145105333Y-136341380D02*
X144772000Y-135865190D01*
X144533904Y-136341380D02*
X144533904Y-135341380D01*
X144914857Y-135341380D01*
X145010095Y-135389000D01*
X145057714Y-135436619D01*
X145105333Y-135531857D01*
X145105333Y-135674714D01*
X145057714Y-135769952D01*
X145010095Y-135817571D01*
X144914857Y-135865190D01*
X144533904Y-135865190D01*
X145581523Y-136341380D02*
X145772000Y-136341380D01*
X145867238Y-136293761D01*
X145914857Y-136246142D01*
X146010095Y-136103285D01*
X146057714Y-135912809D01*
X146057714Y-135531857D01*
X146010095Y-135436619D01*
X145962476Y-135389000D01*
X145867238Y-135341380D01*
X145676761Y-135341380D01*
X145581523Y-135389000D01*
X145533904Y-135436619D01*
X145486285Y-135531857D01*
X145486285Y-135769952D01*
X145533904Y-135865190D01*
X145581523Y-135912809D01*
X145676761Y-135960428D01*
X145867238Y-135960428D01*
X145962476Y-135912809D01*
X146010095Y-135865190D01*
X146057714Y-135769952D01*
X150439380Y-141327166D02*
X149963190Y-141660500D01*
X150439380Y-141898595D02*
X149439380Y-141898595D01*
X149439380Y-141517642D01*
X149487000Y-141422404D01*
X149534619Y-141374785D01*
X149629857Y-141327166D01*
X149772714Y-141327166D01*
X149867952Y-141374785D01*
X149915571Y-141422404D01*
X149963190Y-141517642D01*
X149963190Y-141898595D01*
X149867952Y-140755738D02*
X149820333Y-140850976D01*
X149772714Y-140898595D01*
X149677476Y-140946214D01*
X149629857Y-140946214D01*
X149534619Y-140898595D01*
X149487000Y-140850976D01*
X149439380Y-140755738D01*
X149439380Y-140565261D01*
X149487000Y-140470023D01*
X149534619Y-140422404D01*
X149629857Y-140374785D01*
X149677476Y-140374785D01*
X149772714Y-140422404D01*
X149820333Y-140470023D01*
X149867952Y-140565261D01*
X149867952Y-140755738D01*
X149915571Y-140850976D01*
X149963190Y-140898595D01*
X150058428Y-140946214D01*
X150248904Y-140946214D01*
X150344142Y-140898595D01*
X150391761Y-140850976D01*
X150439380Y-140755738D01*
X150439380Y-140565261D01*
X150391761Y-140470023D01*
X150344142Y-140422404D01*
X150248904Y-140374785D01*
X150058428Y-140374785D01*
X149963190Y-140422404D01*
X149915571Y-140470023D01*
X149867952Y-140565261D01*
X142200333Y-129674880D02*
X141867000Y-129198690D01*
X141628904Y-129674880D02*
X141628904Y-128674880D01*
X142009857Y-128674880D01*
X142105095Y-128722500D01*
X142152714Y-128770119D01*
X142200333Y-128865357D01*
X142200333Y-129008214D01*
X142152714Y-129103452D01*
X142105095Y-129151071D01*
X142009857Y-129198690D01*
X141628904Y-129198690D01*
X142533666Y-128674880D02*
X143200333Y-128674880D01*
X142771761Y-129674880D01*
X135262880Y-128500166D02*
X134786690Y-128833500D01*
X135262880Y-129071595D02*
X134262880Y-129071595D01*
X134262880Y-128690642D01*
X134310500Y-128595404D01*
X134358119Y-128547785D01*
X134453357Y-128500166D01*
X134596214Y-128500166D01*
X134691452Y-128547785D01*
X134739071Y-128595404D01*
X134786690Y-128690642D01*
X134786690Y-129071595D01*
X134262880Y-127643023D02*
X134262880Y-127833500D01*
X134310500Y-127928738D01*
X134358119Y-127976357D01*
X134500976Y-128071595D01*
X134691452Y-128119214D01*
X135072404Y-128119214D01*
X135167642Y-128071595D01*
X135215261Y-128023976D01*
X135262880Y-127928738D01*
X135262880Y-127738261D01*
X135215261Y-127643023D01*
X135167642Y-127595404D01*
X135072404Y-127547785D01*
X134834309Y-127547785D01*
X134739071Y-127595404D01*
X134691452Y-127643023D01*
X134643833Y-127738261D01*
X134643833Y-127928738D01*
X134691452Y-128023976D01*
X134739071Y-128071595D01*
X134834309Y-128119214D01*
X131071880Y-138660166D02*
X130595690Y-138993500D01*
X131071880Y-139231595D02*
X130071880Y-139231595D01*
X130071880Y-138850642D01*
X130119500Y-138755404D01*
X130167119Y-138707785D01*
X130262357Y-138660166D01*
X130405214Y-138660166D01*
X130500452Y-138707785D01*
X130548071Y-138755404D01*
X130595690Y-138850642D01*
X130595690Y-139231595D01*
X130071880Y-137755404D02*
X130071880Y-138231595D01*
X130548071Y-138279214D01*
X130500452Y-138231595D01*
X130452833Y-138136357D01*
X130452833Y-137898261D01*
X130500452Y-137803023D01*
X130548071Y-137755404D01*
X130643309Y-137707785D01*
X130881404Y-137707785D01*
X130976642Y-137755404D01*
X131024261Y-137803023D01*
X131071880Y-137898261D01*
X131071880Y-138136357D01*
X131024261Y-138231595D01*
X130976642Y-138279214D01*
X156860976Y-130924880D02*
X156860976Y-131639166D01*
X156813357Y-131782023D01*
X156718119Y-131877261D01*
X156575261Y-131924880D01*
X156480023Y-131924880D01*
X157860976Y-131924880D02*
X157289547Y-131924880D01*
X157575261Y-131924880D02*
X157575261Y-130924880D01*
X157480023Y-131067738D01*
X157384785Y-131162976D01*
X157289547Y-131210595D01*
X158813357Y-131924880D02*
X158241928Y-131924880D01*
X158527642Y-131924880D02*
X158527642Y-130924880D01*
X158432404Y-131067738D01*
X158337166Y-131162976D01*
X158241928Y-131210595D01*
X156860976Y-135941380D02*
X156860976Y-136655666D01*
X156813357Y-136798523D01*
X156718119Y-136893761D01*
X156575261Y-136941380D01*
X156480023Y-136941380D01*
X157860976Y-136941380D02*
X157289547Y-136941380D01*
X157575261Y-136941380D02*
X157575261Y-135941380D01*
X157480023Y-136084238D01*
X157384785Y-136179476D01*
X157289547Y-136227095D01*
X158480023Y-135941380D02*
X158575261Y-135941380D01*
X158670500Y-135989000D01*
X158718119Y-136036619D01*
X158765738Y-136131857D01*
X158813357Y-136322333D01*
X158813357Y-136560428D01*
X158765738Y-136750904D01*
X158718119Y-136846142D01*
X158670500Y-136893761D01*
X158575261Y-136941380D01*
X158480023Y-136941380D01*
X158384785Y-136893761D01*
X158337166Y-136846142D01*
X158289547Y-136750904D01*
X158241928Y-136560428D01*
X158241928Y-136322333D01*
X158289547Y-136131857D01*
X158337166Y-136036619D01*
X158384785Y-135989000D01*
X158480023Y-135941380D01*
X128508166Y-127976380D02*
X128508166Y-128690666D01*
X128460547Y-128833523D01*
X128365309Y-128928761D01*
X128222452Y-128976380D01*
X128127214Y-128976380D01*
X129031976Y-128976380D02*
X129222452Y-128976380D01*
X129317690Y-128928761D01*
X129365309Y-128881142D01*
X129460547Y-128738285D01*
X129508166Y-128547809D01*
X129508166Y-128166857D01*
X129460547Y-128071619D01*
X129412928Y-128024000D01*
X129317690Y-127976380D01*
X129127214Y-127976380D01*
X129031976Y-128024000D01*
X128984357Y-128071619D01*
X128936738Y-128166857D01*
X128936738Y-128404952D01*
X128984357Y-128500190D01*
X129031976Y-128547809D01*
X129127214Y-128595428D01*
X129317690Y-128595428D01*
X129412928Y-128547809D01*
X129460547Y-128500190D01*
X129508166Y-128404952D01*
X128254166Y-132992880D02*
X128254166Y-133707166D01*
X128206547Y-133850023D01*
X128111309Y-133945261D01*
X127968452Y-133992880D01*
X127873214Y-133992880D01*
X128873214Y-133421452D02*
X128777976Y-133373833D01*
X128730357Y-133326214D01*
X128682738Y-133230976D01*
X128682738Y-133183357D01*
X128730357Y-133088119D01*
X128777976Y-133040500D01*
X128873214Y-132992880D01*
X129063690Y-132992880D01*
X129158928Y-133040500D01*
X129206547Y-133088119D01*
X129254166Y-133183357D01*
X129254166Y-133230976D01*
X129206547Y-133326214D01*
X129158928Y-133373833D01*
X129063690Y-133421452D01*
X128873214Y-133421452D01*
X128777976Y-133469071D01*
X128730357Y-133516690D01*
X128682738Y-133611928D01*
X128682738Y-133802404D01*
X128730357Y-133897642D01*
X128777976Y-133945261D01*
X128873214Y-133992880D01*
X129063690Y-133992880D01*
X129158928Y-133945261D01*
X129206547Y-133897642D01*
X129254166Y-133802404D01*
X129254166Y-133611928D01*
X129206547Y-133516690D01*
X129158928Y-133469071D01*
X129063690Y-133421452D01*
X133580142Y-132881666D02*
X133627761Y-132929285D01*
X133675380Y-133072142D01*
X133675380Y-133167380D01*
X133627761Y-133310238D01*
X133532523Y-133405476D01*
X133437285Y-133453095D01*
X133246809Y-133500714D01*
X133103952Y-133500714D01*
X132913476Y-133453095D01*
X132818238Y-133405476D01*
X132723000Y-133310238D01*
X132675380Y-133167380D01*
X132675380Y-133072142D01*
X132723000Y-132929285D01*
X132770619Y-132881666D01*
X132675380Y-132024523D02*
X132675380Y-132215000D01*
X132723000Y-132310238D01*
X132770619Y-132357857D01*
X132913476Y-132453095D01*
X133103952Y-132500714D01*
X133484904Y-132500714D01*
X133580142Y-132453095D01*
X133627761Y-132405476D01*
X133675380Y-132310238D01*
X133675380Y-132119761D01*
X133627761Y-132024523D01*
X133580142Y-131976904D01*
X133484904Y-131929285D01*
X133246809Y-131929285D01*
X133151571Y-131976904D01*
X133103952Y-132024523D01*
X133056333Y-132119761D01*
X133056333Y-132310238D01*
X133103952Y-132405476D01*
X133151571Y-132453095D01*
X133246809Y-132500714D01*
X145454642Y-127166666D02*
X145502261Y-127214285D01*
X145549880Y-127357142D01*
X145549880Y-127452380D01*
X145502261Y-127595238D01*
X145407023Y-127690476D01*
X145311785Y-127738095D01*
X145121309Y-127785714D01*
X144978452Y-127785714D01*
X144787976Y-127738095D01*
X144692738Y-127690476D01*
X144597500Y-127595238D01*
X144549880Y-127452380D01*
X144549880Y-127357142D01*
X144597500Y-127214285D01*
X144645119Y-127166666D01*
X144549880Y-126261904D02*
X144549880Y-126738095D01*
X145026071Y-126785714D01*
X144978452Y-126738095D01*
X144930833Y-126642857D01*
X144930833Y-126404761D01*
X144978452Y-126309523D01*
X145026071Y-126261904D01*
X145121309Y-126214285D01*
X145359404Y-126214285D01*
X145454642Y-126261904D01*
X145502261Y-126309523D01*
X145549880Y-126404761D01*
X145549880Y-126642857D01*
X145502261Y-126738095D01*
X145454642Y-126785714D01*
X142327333Y-127357142D02*
X142279714Y-127404761D01*
X142136857Y-127452380D01*
X142041619Y-127452380D01*
X141898761Y-127404761D01*
X141803523Y-127309523D01*
X141755904Y-127214285D01*
X141708285Y-127023809D01*
X141708285Y-126880952D01*
X141755904Y-126690476D01*
X141803523Y-126595238D01*
X141898761Y-126500000D01*
X142041619Y-126452380D01*
X142136857Y-126452380D01*
X142279714Y-126500000D01*
X142327333Y-126547619D01*
X143184476Y-126785714D02*
X143184476Y-127452380D01*
X142946380Y-126404761D02*
X142708285Y-127119047D01*
X143327333Y-127119047D01*
X143613142Y-146153166D02*
X143660761Y-146200785D01*
X143708380Y-146343642D01*
X143708380Y-146438880D01*
X143660761Y-146581738D01*
X143565523Y-146676976D01*
X143470285Y-146724595D01*
X143279809Y-146772214D01*
X143136952Y-146772214D01*
X142946476Y-146724595D01*
X142851238Y-146676976D01*
X142756000Y-146581738D01*
X142708380Y-146438880D01*
X142708380Y-146343642D01*
X142756000Y-146200785D01*
X142803619Y-146153166D01*
X142708380Y-145819833D02*
X142708380Y-145200785D01*
X143089333Y-145534119D01*
X143089333Y-145391261D01*
X143136952Y-145296023D01*
X143184571Y-145248404D01*
X143279809Y-145200785D01*
X143517904Y-145200785D01*
X143613142Y-145248404D01*
X143660761Y-145296023D01*
X143708380Y-145391261D01*
X143708380Y-145676976D01*
X143660761Y-145772214D01*
X143613142Y-145819833D01*
X155868642Y-125833166D02*
X155916261Y-125880785D01*
X155963880Y-126023642D01*
X155963880Y-126118880D01*
X155916261Y-126261738D01*
X155821023Y-126356976D01*
X155725785Y-126404595D01*
X155535309Y-126452214D01*
X155392452Y-126452214D01*
X155201976Y-126404595D01*
X155106738Y-126356976D01*
X155011500Y-126261738D01*
X154963880Y-126118880D01*
X154963880Y-126023642D01*
X155011500Y-125880785D01*
X155059119Y-125833166D01*
X155059119Y-125452214D02*
X155011500Y-125404595D01*
X154963880Y-125309357D01*
X154963880Y-125071261D01*
X155011500Y-124976023D01*
X155059119Y-124928404D01*
X155154357Y-124880785D01*
X155249595Y-124880785D01*
X155392452Y-124928404D01*
X155963880Y-125499833D01*
X155963880Y-124880785D01*
X150502880Y-115324166D02*
X150026690Y-115657500D01*
X150502880Y-115895595D02*
X149502880Y-115895595D01*
X149502880Y-115514642D01*
X149550500Y-115419404D01*
X149598119Y-115371785D01*
X149693357Y-115324166D01*
X149836214Y-115324166D01*
X149931452Y-115371785D01*
X149979071Y-115419404D01*
X150026690Y-115514642D01*
X150026690Y-115895595D01*
X149836214Y-114467023D02*
X150502880Y-114467023D01*
X149455261Y-114705119D02*
X150169547Y-114943214D01*
X150169547Y-114324166D01*
X145605595Y-117054380D02*
X145605595Y-117863904D01*
X145653214Y-117959142D01*
X145700833Y-118006761D01*
X145796071Y-118054380D01*
X145986547Y-118054380D01*
X146081785Y-118006761D01*
X146129404Y-117959142D01*
X146177023Y-117863904D01*
X146177023Y-117054380D01*
X147177023Y-118054380D02*
X146605595Y-118054380D01*
X146891309Y-118054380D02*
X146891309Y-117054380D01*
X146796071Y-117197238D01*
X146700833Y-117292476D01*
X146605595Y-117340095D01*
X142263833Y-103385880D02*
X141930500Y-102909690D01*
X141692404Y-103385880D02*
X141692404Y-102385880D01*
X142073357Y-102385880D01*
X142168595Y-102433500D01*
X142216214Y-102481119D01*
X142263833Y-102576357D01*
X142263833Y-102719214D01*
X142216214Y-102814452D01*
X142168595Y-102862071D01*
X142073357Y-102909690D01*
X141692404Y-102909690D01*
X142597166Y-102385880D02*
X143216214Y-102385880D01*
X142882880Y-102766833D01*
X143025738Y-102766833D01*
X143120976Y-102814452D01*
X143168595Y-102862071D01*
X143216214Y-102957309D01*
X143216214Y-103195404D01*
X143168595Y-103290642D01*
X143120976Y-103338261D01*
X143025738Y-103385880D01*
X142740023Y-103385880D01*
X142644785Y-103338261D01*
X142597166Y-103290642D01*
X135262880Y-102401666D02*
X134786690Y-102735000D01*
X135262880Y-102973095D02*
X134262880Y-102973095D01*
X134262880Y-102592142D01*
X134310500Y-102496904D01*
X134358119Y-102449285D01*
X134453357Y-102401666D01*
X134596214Y-102401666D01*
X134691452Y-102449285D01*
X134739071Y-102496904D01*
X134786690Y-102592142D01*
X134786690Y-102973095D01*
X134358119Y-102020714D02*
X134310500Y-101973095D01*
X134262880Y-101877857D01*
X134262880Y-101639761D01*
X134310500Y-101544523D01*
X134358119Y-101496904D01*
X134453357Y-101449285D01*
X134548595Y-101449285D01*
X134691452Y-101496904D01*
X135262880Y-102068333D01*
X135262880Y-101449285D01*
X142263833Y-101258642D02*
X142216214Y-101306261D01*
X142073357Y-101353880D01*
X141978119Y-101353880D01*
X141835261Y-101306261D01*
X141740023Y-101211023D01*
X141692404Y-101115785D01*
X141644785Y-100925309D01*
X141644785Y-100782452D01*
X141692404Y-100591976D01*
X141740023Y-100496738D01*
X141835261Y-100401500D01*
X141978119Y-100353880D01*
X142073357Y-100353880D01*
X142216214Y-100401500D01*
X142263833Y-100449119D01*
X143216214Y-101353880D02*
X142644785Y-101353880D01*
X142930500Y-101353880D02*
X142930500Y-100353880D01*
X142835261Y-100496738D01*
X142740023Y-100591976D01*
X142644785Y-100639595D01*
X143422642Y-120721357D02*
X143470261Y-120768976D01*
X143517880Y-120911833D01*
X143517880Y-121007071D01*
X143470261Y-121149928D01*
X143375023Y-121245166D01*
X143279785Y-121292785D01*
X143089309Y-121340404D01*
X142946452Y-121340404D01*
X142755976Y-121292785D01*
X142660738Y-121245166D01*
X142565500Y-121149928D01*
X142517880Y-121007071D01*
X142517880Y-120911833D01*
X142565500Y-120768976D01*
X142613119Y-120721357D01*
X143517880Y-119768976D02*
X143517880Y-120340404D01*
X143517880Y-120054690D02*
X142517880Y-120054690D01*
X142660738Y-120149928D01*
X142755976Y-120245166D01*
X142803595Y-120340404D01*
X142517880Y-119435642D02*
X142517880Y-118768976D01*
X143517880Y-119197547D01*
X156757642Y-103449357D02*
X156805261Y-103496976D01*
X156852880Y-103639833D01*
X156852880Y-103735071D01*
X156805261Y-103877928D01*
X156710023Y-103973166D01*
X156614785Y-104020785D01*
X156424309Y-104068404D01*
X156281452Y-104068404D01*
X156090976Y-104020785D01*
X155995738Y-103973166D01*
X155900500Y-103877928D01*
X155852880Y-103735071D01*
X155852880Y-103639833D01*
X155900500Y-103496976D01*
X155948119Y-103449357D01*
X156852880Y-102496976D02*
X156852880Y-103068404D01*
X156852880Y-102782690D02*
X155852880Y-102782690D01*
X155995738Y-102877928D01*
X156090976Y-102973166D01*
X156138595Y-103068404D01*
X156852880Y-101544595D02*
X156852880Y-102116023D01*
X156852880Y-101830309D02*
X155852880Y-101830309D01*
X155995738Y-101925547D01*
X156090976Y-102020785D01*
X156138595Y-102116023D01*
X145264142Y-101099857D02*
X145311761Y-101147476D01*
X145359380Y-101290333D01*
X145359380Y-101385571D01*
X145311761Y-101528428D01*
X145216523Y-101623666D01*
X145121285Y-101671285D01*
X144930809Y-101718904D01*
X144787952Y-101718904D01*
X144597476Y-101671285D01*
X144502238Y-101623666D01*
X144407000Y-101528428D01*
X144359380Y-101385571D01*
X144359380Y-101290333D01*
X144407000Y-101147476D01*
X144454619Y-101099857D01*
X145359380Y-100147476D02*
X145359380Y-100718904D01*
X145359380Y-100433190D02*
X144359380Y-100433190D01*
X144502238Y-100528428D01*
X144597476Y-100623666D01*
X144645095Y-100718904D01*
X144359380Y-99814142D02*
X144359380Y-99195095D01*
X144740333Y-99528428D01*
X144740333Y-99385571D01*
X144787952Y-99290333D01*
X144835571Y-99242714D01*
X144930809Y-99195095D01*
X145168904Y-99195095D01*
X145264142Y-99242714D01*
X145311761Y-99290333D01*
X145359380Y-99385571D01*
X145359380Y-99671285D01*
X145311761Y-99766523D01*
X145264142Y-99814142D01*
X194421166Y-123622380D02*
X194421166Y-124336666D01*
X194373547Y-124479523D01*
X194278309Y-124574761D01*
X194135452Y-124622380D01*
X194040214Y-124622380D01*
X194802119Y-123622380D02*
X195421166Y-123622380D01*
X195087833Y-124003333D01*
X195230690Y-124003333D01*
X195325928Y-124050952D01*
X195373547Y-124098571D01*
X195421166Y-124193809D01*
X195421166Y-124431904D01*
X195373547Y-124527142D01*
X195325928Y-124574761D01*
X195230690Y-124622380D01*
X194944976Y-124622380D01*
X194849738Y-124574761D01*
X194802119Y-124527142D01*
X195881666Y-114732380D02*
X195881666Y-115446666D01*
X195834047Y-115589523D01*
X195738809Y-115684761D01*
X195595952Y-115732380D01*
X195500714Y-115732380D01*
X196310238Y-114827619D02*
X196357857Y-114780000D01*
X196453095Y-114732380D01*
X196691190Y-114732380D01*
X196786428Y-114780000D01*
X196834047Y-114827619D01*
X196881666Y-114922857D01*
X196881666Y-115018095D01*
X196834047Y-115160952D01*
X196262619Y-115732380D01*
X196881666Y-115732380D01*
X195754666Y-132321880D02*
X195754666Y-133036166D01*
X195707047Y-133179023D01*
X195611809Y-133274261D01*
X195468952Y-133321880D01*
X195373714Y-133321880D01*
X196754666Y-133321880D02*
X196183238Y-133321880D01*
X196468952Y-133321880D02*
X196468952Y-132321880D01*
X196373714Y-132464738D01*
X196278476Y-132559976D01*
X196183238Y-132607595D01*
X154797166Y-112609380D02*
X154797166Y-113323666D01*
X154749547Y-113466523D01*
X154654309Y-113561761D01*
X154511452Y-113609380D01*
X154416214Y-113609380D01*
X155178119Y-112609380D02*
X155844785Y-112609380D01*
X155416214Y-113609380D01*
X154797166Y-107529380D02*
X154797166Y-108243666D01*
X154749547Y-108386523D01*
X154654309Y-108481761D01*
X154511452Y-108529380D01*
X154416214Y-108529380D01*
X155701928Y-107529380D02*
X155511452Y-107529380D01*
X155416214Y-107577000D01*
X155368595Y-107624619D01*
X155273357Y-107767476D01*
X155225738Y-107957952D01*
X155225738Y-108338904D01*
X155273357Y-108434142D01*
X155320976Y-108481761D01*
X155416214Y-108529380D01*
X155606690Y-108529380D01*
X155701928Y-108481761D01*
X155749547Y-108434142D01*
X155797166Y-108338904D01*
X155797166Y-108100809D01*
X155749547Y-108005571D01*
X155701928Y-107957952D01*
X155606690Y-107910333D01*
X155416214Y-107910333D01*
X155320976Y-107957952D01*
X155273357Y-108005571D01*
X155225738Y-108100809D01*
X128317666Y-111783880D02*
X128317666Y-112498166D01*
X128270047Y-112641023D01*
X128174809Y-112736261D01*
X128031952Y-112783880D01*
X127936714Y-112783880D01*
X129270047Y-111783880D02*
X128793857Y-111783880D01*
X128746238Y-112260071D01*
X128793857Y-112212452D01*
X128889095Y-112164833D01*
X129127190Y-112164833D01*
X129222428Y-112212452D01*
X129270047Y-112260071D01*
X129317666Y-112355309D01*
X129317666Y-112593404D01*
X129270047Y-112688642D01*
X129222428Y-112736261D01*
X129127190Y-112783880D01*
X128889095Y-112783880D01*
X128793857Y-112736261D01*
X128746238Y-112688642D01*
X128254166Y-106830880D02*
X128254166Y-107545166D01*
X128206547Y-107688023D01*
X128111309Y-107783261D01*
X127968452Y-107830880D01*
X127873214Y-107830880D01*
X129158928Y-107164214D02*
X129158928Y-107830880D01*
X128920833Y-106783261D02*
X128682738Y-107497547D01*
X129301785Y-107497547D01*
X130944880Y-112498166D02*
X130468690Y-112831500D01*
X130944880Y-113069595D02*
X129944880Y-113069595D01*
X129944880Y-112688642D01*
X129992500Y-112593404D01*
X130040119Y-112545785D01*
X130135357Y-112498166D01*
X130278214Y-112498166D01*
X130373452Y-112545785D01*
X130421071Y-112593404D01*
X130468690Y-112688642D01*
X130468690Y-113069595D01*
X130944880Y-111545785D02*
X130944880Y-112117214D01*
X130944880Y-111831500D02*
X129944880Y-111831500D01*
X130087738Y-111926738D01*
X130182976Y-112021976D01*
X130230595Y-112117214D01*
X147883642Y-108592880D02*
X147550309Y-108116690D01*
X147312214Y-108592880D02*
X147312214Y-107592880D01*
X147693166Y-107592880D01*
X147788404Y-107640500D01*
X147836023Y-107688119D01*
X147883642Y-107783357D01*
X147883642Y-107926214D01*
X147836023Y-108021452D01*
X147788404Y-108069071D01*
X147693166Y-108116690D01*
X147312214Y-108116690D01*
X148836023Y-108592880D02*
X148264595Y-108592880D01*
X148550309Y-108592880D02*
X148550309Y-107592880D01*
X148455071Y-107735738D01*
X148359833Y-107830976D01*
X148264595Y-107878595D01*
X149169357Y-107592880D02*
X149788404Y-107592880D01*
X149455071Y-107973833D01*
X149597928Y-107973833D01*
X149693166Y-108021452D01*
X149740785Y-108069071D01*
X149788404Y-108164309D01*
X149788404Y-108402404D01*
X149740785Y-108497642D01*
X149693166Y-108545261D01*
X149597928Y-108592880D01*
X149312214Y-108592880D01*
X149216976Y-108545261D01*
X149169357Y-108497642D01*
X128397095Y-100782380D02*
X128397095Y-99782380D01*
X128397095Y-100258571D02*
X128968523Y-100258571D01*
X128968523Y-100782380D02*
X128968523Y-99782380D01*
X129873285Y-100115714D02*
X129873285Y-100782380D01*
X129635190Y-99734761D02*
X129397095Y-100449047D01*
X130016142Y-100449047D01*
X128143095Y-143962380D02*
X128143095Y-142962380D01*
X128143095Y-143438571D02*
X128714523Y-143438571D01*
X128714523Y-143962380D02*
X128714523Y-142962380D01*
X129095476Y-142962380D02*
X129714523Y-142962380D01*
X129381190Y-143343333D01*
X129524047Y-143343333D01*
X129619285Y-143390952D01*
X129666904Y-143438571D01*
X129714523Y-143533809D01*
X129714523Y-143771904D01*
X129666904Y-143867142D01*
X129619285Y-143914761D01*
X129524047Y-143962380D01*
X129238333Y-143962380D01*
X129143095Y-143914761D01*
X129095476Y-143867142D01*
X195707095Y-143962380D02*
X195707095Y-142962380D01*
X195707095Y-143438571D02*
X196278523Y-143438571D01*
X196278523Y-143962380D02*
X196278523Y-142962380D01*
X196707095Y-143057619D02*
X196754714Y-143010000D01*
X196849952Y-142962380D01*
X197088047Y-142962380D01*
X197183285Y-143010000D01*
X197230904Y-143057619D01*
X197278523Y-143152857D01*
X197278523Y-143248095D01*
X197230904Y-143390952D01*
X196659476Y-143962380D01*
X197278523Y-143962380D01*
X195834095Y-100782380D02*
X195834095Y-99782380D01*
X195834095Y-100258571D02*
X196405523Y-100258571D01*
X196405523Y-100782380D02*
X196405523Y-99782380D01*
X197405523Y-100782380D02*
X196834095Y-100782380D01*
X197119809Y-100782380D02*
X197119809Y-99782380D01*
X197024571Y-99925238D01*
X196929333Y-100020476D01*
X196834095Y-100068095D01*
M02*
