G04 #@! TF.GenerationSoftware,KiCad,Pcbnew,(5.1.8-0-10_14)*
G04 #@! TF.CreationDate,2020-12-12T20:12:21+01:00*
G04 #@! TF.ProjectId,pre-amp-discret,7072652d-616d-4702-9d64-697363726574,rev?*
G04 #@! TF.SameCoordinates,Original*
G04 #@! TF.FileFunction,Legend,Top*
G04 #@! TF.FilePolarity,Positive*
%FSLAX46Y46*%
G04 Gerber Fmt 4.6, Leading zero omitted, Abs format (unit mm)*
G04 Created by KiCad (PCBNEW (5.1.8-0-10_14)) date 2020-12-12 20:12:21*
%MOMM*%
%LPD*%
G01*
G04 APERTURE LIST*
%ADD10C,0.150000*%
%ADD11C,0.120000*%
G04 APERTURE END LIST*
D10*
X200731428Y-132825904D02*
X200731428Y-132064000D01*
X201112380Y-131064000D02*
X201112380Y-131635428D01*
X201112380Y-131349714D02*
X200112380Y-131349714D01*
X200255238Y-131444952D01*
X200350476Y-131540190D01*
X200398095Y-131635428D01*
X200112380Y-130159238D02*
X200112380Y-130635428D01*
X200588571Y-130683047D01*
X200540952Y-130635428D01*
X200493333Y-130540190D01*
X200493333Y-130302095D01*
X200540952Y-130206857D01*
X200588571Y-130159238D01*
X200683809Y-130111619D01*
X200921904Y-130111619D01*
X201017142Y-130159238D01*
X201064761Y-130206857D01*
X201112380Y-130302095D01*
X201112380Y-130540190D01*
X201064761Y-130635428D01*
X201017142Y-130683047D01*
X200112380Y-129825904D02*
X201112380Y-129492571D01*
X200112380Y-129159238D01*
X140987214Y-146629380D02*
X140987214Y-145962714D01*
X140987214Y-146057952D02*
X141034833Y-146010333D01*
X141130071Y-145962714D01*
X141272928Y-145962714D01*
X141368166Y-146010333D01*
X141415785Y-146105571D01*
X141415785Y-146629380D01*
X141415785Y-146105571D02*
X141463404Y-146010333D01*
X141558642Y-145962714D01*
X141701500Y-145962714D01*
X141796738Y-146010333D01*
X141844357Y-146105571D01*
X141844357Y-146629380D01*
X142320547Y-146629380D02*
X142320547Y-145962714D01*
X142320547Y-145629380D02*
X142272928Y-145677000D01*
X142320547Y-145724619D01*
X142368166Y-145677000D01*
X142320547Y-145629380D01*
X142320547Y-145724619D01*
X143225309Y-146581761D02*
X143130071Y-146629380D01*
X142939595Y-146629380D01*
X142844357Y-146581761D01*
X142796738Y-146534142D01*
X142749119Y-146438904D01*
X142749119Y-146153190D01*
X142796738Y-146057952D01*
X142844357Y-146010333D01*
X142939595Y-145962714D01*
X143130071Y-145962714D01*
X143225309Y-146010333D01*
X143653880Y-146629380D02*
X143653880Y-145629380D01*
X144082452Y-146629380D02*
X144082452Y-146105571D01*
X144034833Y-146010333D01*
X143939595Y-145962714D01*
X143796738Y-145962714D01*
X143701500Y-146010333D01*
X143653880Y-146057952D01*
X144987214Y-146629380D02*
X144987214Y-146105571D01*
X144939595Y-146010333D01*
X144844357Y-145962714D01*
X144653880Y-145962714D01*
X144558642Y-146010333D01*
X144987214Y-146581761D02*
X144891976Y-146629380D01*
X144653880Y-146629380D01*
X144558642Y-146581761D01*
X144511023Y-146486523D01*
X144511023Y-146391285D01*
X144558642Y-146296047D01*
X144653880Y-146248428D01*
X144891976Y-146248428D01*
X144987214Y-146200809D01*
X145844357Y-146581761D02*
X145749119Y-146629380D01*
X145558642Y-146629380D01*
X145463404Y-146581761D01*
X145415785Y-146486523D01*
X145415785Y-146105571D01*
X145463404Y-146010333D01*
X145558642Y-145962714D01*
X145749119Y-145962714D01*
X145844357Y-146010333D01*
X145891976Y-146105571D01*
X145891976Y-146200809D01*
X145415785Y-146296047D01*
X146463404Y-146629380D02*
X146368166Y-146581761D01*
X146320547Y-146486523D01*
X146320547Y-145629380D01*
X146796738Y-146581761D02*
X146891976Y-146629380D01*
X147082452Y-146629380D01*
X147177690Y-146581761D01*
X147225309Y-146486523D01*
X147225309Y-146438904D01*
X147177690Y-146343666D01*
X147082452Y-146296047D01*
X146939595Y-146296047D01*
X146844357Y-146248428D01*
X146796738Y-146153190D01*
X146796738Y-146105571D01*
X146844357Y-146010333D01*
X146939595Y-145962714D01*
X147082452Y-145962714D01*
X147177690Y-146010333D01*
X148082452Y-146581761D02*
X147987214Y-146629380D01*
X147796738Y-146629380D01*
X147701500Y-146581761D01*
X147653880Y-146534142D01*
X147606261Y-146438904D01*
X147606261Y-146153190D01*
X147653880Y-146057952D01*
X147701500Y-146010333D01*
X147796738Y-145962714D01*
X147987214Y-145962714D01*
X148082452Y-146010333D01*
X148511023Y-146629380D02*
X148511023Y-145629380D01*
X148939595Y-146629380D02*
X148939595Y-146105571D01*
X148891976Y-146010333D01*
X148796738Y-145962714D01*
X148653880Y-145962714D01*
X148558642Y-146010333D01*
X148511023Y-146057952D01*
X149796738Y-146581761D02*
X149701500Y-146629380D01*
X149511023Y-146629380D01*
X149415785Y-146581761D01*
X149368166Y-146486523D01*
X149368166Y-146105571D01*
X149415785Y-146010333D01*
X149511023Y-145962714D01*
X149701500Y-145962714D01*
X149796738Y-146010333D01*
X149844357Y-146105571D01*
X149844357Y-146200809D01*
X149368166Y-146296047D01*
X150272928Y-145962714D02*
X150272928Y-146629380D01*
X150272928Y-146057952D02*
X150320547Y-146010333D01*
X150415785Y-145962714D01*
X150558642Y-145962714D01*
X150653880Y-146010333D01*
X150701500Y-146105571D01*
X150701500Y-146629380D01*
X151177690Y-146629380D02*
X151177690Y-145629380D01*
X151272928Y-146248428D02*
X151558642Y-146629380D01*
X151558642Y-145962714D02*
X151177690Y-146343666D01*
X151891976Y-145629380D02*
X152558642Y-145629380D01*
X152130071Y-146629380D01*
X152891976Y-145724619D02*
X152939595Y-145677000D01*
X153034833Y-145629380D01*
X153272928Y-145629380D01*
X153368166Y-145677000D01*
X153415785Y-145724619D01*
X153463404Y-145819857D01*
X153463404Y-145915095D01*
X153415785Y-146057952D01*
X152844357Y-146629380D01*
X153463404Y-146629380D01*
X154511023Y-146153190D02*
X154463404Y-146105571D01*
X154368166Y-146057952D01*
X154272928Y-146057952D01*
X154177690Y-146105571D01*
X154130071Y-146153190D01*
X154082452Y-146248428D01*
X154082452Y-146343666D01*
X154130071Y-146438904D01*
X154177690Y-146486523D01*
X154272928Y-146534142D01*
X154368166Y-146534142D01*
X154463404Y-146486523D01*
X154511023Y-146438904D01*
X154511023Y-146057952D02*
X154511023Y-146438904D01*
X154558642Y-146486523D01*
X154606261Y-146486523D01*
X154701500Y-146438904D01*
X154749119Y-146343666D01*
X154749119Y-146105571D01*
X154653880Y-145962714D01*
X154511023Y-145867476D01*
X154320547Y-145819857D01*
X154130071Y-145867476D01*
X153987214Y-145962714D01*
X153891976Y-146105571D01*
X153844357Y-146296047D01*
X153891976Y-146486523D01*
X153987214Y-146629380D01*
X154130071Y-146724619D01*
X154320547Y-146772238D01*
X154511023Y-146724619D01*
X154653880Y-146629380D01*
X155606261Y-145962714D02*
X155606261Y-146772238D01*
X155558642Y-146867476D01*
X155511023Y-146915095D01*
X155415785Y-146962714D01*
X155272928Y-146962714D01*
X155177690Y-146915095D01*
X155606261Y-146581761D02*
X155511023Y-146629380D01*
X155320547Y-146629380D01*
X155225309Y-146581761D01*
X155177690Y-146534142D01*
X155130071Y-146438904D01*
X155130071Y-146153190D01*
X155177690Y-146057952D01*
X155225309Y-146010333D01*
X155320547Y-145962714D01*
X155511023Y-145962714D01*
X155606261Y-146010333D01*
X156082452Y-146629380D02*
X156082452Y-145962714D01*
X156082452Y-146057952D02*
X156130071Y-146010333D01*
X156225309Y-145962714D01*
X156368166Y-145962714D01*
X156463404Y-146010333D01*
X156511023Y-146105571D01*
X156511023Y-146629380D01*
X156511023Y-146105571D02*
X156558642Y-146010333D01*
X156653880Y-145962714D01*
X156796738Y-145962714D01*
X156891976Y-146010333D01*
X156939595Y-146105571D01*
X156939595Y-146629380D01*
X157844357Y-146629380D02*
X157844357Y-146105571D01*
X157796738Y-146010333D01*
X157701500Y-145962714D01*
X157511023Y-145962714D01*
X157415785Y-146010333D01*
X157844357Y-146581761D02*
X157749119Y-146629380D01*
X157511023Y-146629380D01*
X157415785Y-146581761D01*
X157368166Y-146486523D01*
X157368166Y-146391285D01*
X157415785Y-146296047D01*
X157511023Y-146248428D01*
X157749119Y-146248428D01*
X157844357Y-146200809D01*
X158320547Y-146629380D02*
X158320547Y-145962714D01*
X158320547Y-145629380D02*
X158272928Y-145677000D01*
X158320547Y-145724619D01*
X158368166Y-145677000D01*
X158320547Y-145629380D01*
X158320547Y-145724619D01*
X158939595Y-146629380D02*
X158844357Y-146581761D01*
X158796738Y-146486523D01*
X158796738Y-145629380D01*
X159320547Y-146534142D02*
X159368166Y-146581761D01*
X159320547Y-146629380D01*
X159272928Y-146581761D01*
X159320547Y-146534142D01*
X159320547Y-146629380D01*
X160225309Y-146581761D02*
X160130071Y-146629380D01*
X159939595Y-146629380D01*
X159844357Y-146581761D01*
X159796738Y-146534142D01*
X159749119Y-146438904D01*
X159749119Y-146153190D01*
X159796738Y-146057952D01*
X159844357Y-146010333D01*
X159939595Y-145962714D01*
X160130071Y-145962714D01*
X160225309Y-146010333D01*
X160796738Y-146629380D02*
X160701500Y-146581761D01*
X160653880Y-146534142D01*
X160606261Y-146438904D01*
X160606261Y-146153190D01*
X160653880Y-146057952D01*
X160701500Y-146010333D01*
X160796738Y-145962714D01*
X160939595Y-145962714D01*
X161034833Y-146010333D01*
X161082452Y-146057952D01*
X161130071Y-146153190D01*
X161130071Y-146438904D01*
X161082452Y-146534142D01*
X161034833Y-146581761D01*
X160939595Y-146629380D01*
X160796738Y-146629380D01*
X161558642Y-146629380D02*
X161558642Y-145962714D01*
X161558642Y-146057952D02*
X161606261Y-146010333D01*
X161701500Y-145962714D01*
X161844357Y-145962714D01*
X161939595Y-146010333D01*
X161987214Y-146105571D01*
X161987214Y-146629380D01*
X161987214Y-146105571D02*
X162034833Y-146010333D01*
X162130071Y-145962714D01*
X162272928Y-145962714D01*
X162368166Y-146010333D01*
X162415785Y-146105571D01*
X162415785Y-146629380D01*
X124603857Y-109165880D02*
X124603857Y-108165880D01*
X124984809Y-108165880D01*
X125080047Y-108213500D01*
X125127666Y-108261119D01*
X125175285Y-108356357D01*
X125175285Y-108499214D01*
X125127666Y-108594452D01*
X125080047Y-108642071D01*
X124984809Y-108689690D01*
X124603857Y-108689690D01*
X125603857Y-109165880D02*
X125603857Y-108499214D01*
X125603857Y-108689690D02*
X125651476Y-108594452D01*
X125699095Y-108546833D01*
X125794333Y-108499214D01*
X125889571Y-108499214D01*
X126603857Y-109118261D02*
X126508619Y-109165880D01*
X126318142Y-109165880D01*
X126222904Y-109118261D01*
X126175285Y-109023023D01*
X126175285Y-108642071D01*
X126222904Y-108546833D01*
X126318142Y-108499214D01*
X126508619Y-108499214D01*
X126603857Y-108546833D01*
X126651476Y-108642071D01*
X126651476Y-108737309D01*
X126175285Y-108832547D01*
X127080047Y-108784928D02*
X127841952Y-108784928D01*
X128270523Y-108880166D02*
X128746714Y-108880166D01*
X128175285Y-109165880D02*
X128508619Y-108165880D01*
X128841952Y-109165880D01*
X129175285Y-109165880D02*
X129175285Y-108499214D01*
X129175285Y-108594452D02*
X129222904Y-108546833D01*
X129318142Y-108499214D01*
X129461000Y-108499214D01*
X129556238Y-108546833D01*
X129603857Y-108642071D01*
X129603857Y-109165880D01*
X129603857Y-108642071D02*
X129651476Y-108546833D01*
X129746714Y-108499214D01*
X129889571Y-108499214D01*
X129984809Y-108546833D01*
X130032428Y-108642071D01*
X130032428Y-109165880D01*
X130508619Y-108499214D02*
X130508619Y-109499214D01*
X130508619Y-108546833D02*
X130603857Y-108499214D01*
X130794333Y-108499214D01*
X130889571Y-108546833D01*
X130937190Y-108594452D01*
X130984809Y-108689690D01*
X130984809Y-108975404D01*
X130937190Y-109070642D01*
X130889571Y-109118261D01*
X130794333Y-109165880D01*
X130603857Y-109165880D01*
X130508619Y-109118261D01*
X132127666Y-109118261D02*
X132270523Y-109165880D01*
X132508619Y-109165880D01*
X132603857Y-109118261D01*
X132651476Y-109070642D01*
X132699095Y-108975404D01*
X132699095Y-108880166D01*
X132651476Y-108784928D01*
X132603857Y-108737309D01*
X132508619Y-108689690D01*
X132318142Y-108642071D01*
X132222904Y-108594452D01*
X132175285Y-108546833D01*
X132127666Y-108451595D01*
X132127666Y-108356357D01*
X132175285Y-108261119D01*
X132222904Y-108213500D01*
X132318142Y-108165880D01*
X132556238Y-108165880D01*
X132699095Y-108213500D01*
X133032428Y-108499214D02*
X133270523Y-109165880D01*
X133508619Y-108499214D02*
X133270523Y-109165880D01*
X133175285Y-109403976D01*
X133127666Y-109451595D01*
X133032428Y-109499214D01*
X133889571Y-109165880D02*
X133889571Y-108499214D01*
X133889571Y-108594452D02*
X133937190Y-108546833D01*
X134032428Y-108499214D01*
X134175285Y-108499214D01*
X134270523Y-108546833D01*
X134318142Y-108642071D01*
X134318142Y-109165880D01*
X134318142Y-108642071D02*
X134365761Y-108546833D01*
X134461000Y-108499214D01*
X134603857Y-108499214D01*
X134699095Y-108546833D01*
X134746714Y-108642071D01*
X134746714Y-109165880D01*
X135603857Y-109118261D02*
X135508619Y-109165880D01*
X135318142Y-109165880D01*
X135222904Y-109118261D01*
X135175285Y-109023023D01*
X135175285Y-108642071D01*
X135222904Y-108546833D01*
X135318142Y-108499214D01*
X135508619Y-108499214D01*
X135603857Y-108546833D01*
X135651476Y-108642071D01*
X135651476Y-108737309D01*
X135175285Y-108832547D01*
X135937190Y-108499214D02*
X136318142Y-108499214D01*
X136080047Y-108165880D02*
X136080047Y-109023023D01*
X136127666Y-109118261D01*
X136222904Y-109165880D01*
X136318142Y-109165880D01*
X136651476Y-109165880D02*
X136651476Y-108499214D01*
X136651476Y-108689690D02*
X136699095Y-108594452D01*
X136746714Y-108546833D01*
X136841952Y-108499214D01*
X136937190Y-108499214D01*
X137270523Y-109165880D02*
X137270523Y-108499214D01*
X137270523Y-108165880D02*
X137222904Y-108213500D01*
X137270523Y-108261119D01*
X137318142Y-108213500D01*
X137270523Y-108165880D01*
X137270523Y-108261119D01*
X138175285Y-109118261D02*
X138080047Y-109165880D01*
X137889571Y-109165880D01*
X137794333Y-109118261D01*
X137746714Y-109070642D01*
X137699095Y-108975404D01*
X137699095Y-108689690D01*
X137746714Y-108594452D01*
X137794333Y-108546833D01*
X137889571Y-108499214D01*
X138080047Y-108499214D01*
X138175285Y-108546833D01*
X139032428Y-109165880D02*
X139032428Y-108642071D01*
X138984809Y-108546833D01*
X138889571Y-108499214D01*
X138699095Y-108499214D01*
X138603857Y-108546833D01*
X139032428Y-109118261D02*
X138937190Y-109165880D01*
X138699095Y-109165880D01*
X138603857Y-109118261D01*
X138556238Y-109023023D01*
X138556238Y-108927785D01*
X138603857Y-108832547D01*
X138699095Y-108784928D01*
X138937190Y-108784928D01*
X139032428Y-108737309D01*
X139651476Y-109165880D02*
X139556238Y-109118261D01*
X139508619Y-109023023D01*
X139508619Y-108165880D01*
X128818142Y-110815880D02*
X128818142Y-109815880D01*
X129056238Y-109815880D01*
X129199095Y-109863500D01*
X129294333Y-109958738D01*
X129341952Y-110053976D01*
X129389571Y-110244452D01*
X129389571Y-110387309D01*
X129341952Y-110577785D01*
X129294333Y-110673023D01*
X129199095Y-110768261D01*
X129056238Y-110815880D01*
X128818142Y-110815880D01*
X129818142Y-110815880D02*
X129818142Y-110149214D01*
X129818142Y-109815880D02*
X129770523Y-109863500D01*
X129818142Y-109911119D01*
X129865761Y-109863500D01*
X129818142Y-109815880D01*
X129818142Y-109911119D01*
X130246714Y-110768261D02*
X130341952Y-110815880D01*
X130532428Y-110815880D01*
X130627666Y-110768261D01*
X130675285Y-110673023D01*
X130675285Y-110625404D01*
X130627666Y-110530166D01*
X130532428Y-110482547D01*
X130389571Y-110482547D01*
X130294333Y-110434928D01*
X130246714Y-110339690D01*
X130246714Y-110292071D01*
X130294333Y-110196833D01*
X130389571Y-110149214D01*
X130532428Y-110149214D01*
X130627666Y-110196833D01*
X131532428Y-110768261D02*
X131437190Y-110815880D01*
X131246714Y-110815880D01*
X131151476Y-110768261D01*
X131103857Y-110720642D01*
X131056238Y-110625404D01*
X131056238Y-110339690D01*
X131103857Y-110244452D01*
X131151476Y-110196833D01*
X131246714Y-110149214D01*
X131437190Y-110149214D01*
X131532428Y-110196833D01*
X131961000Y-110815880D02*
X131961000Y-110149214D01*
X131961000Y-110339690D02*
X132008619Y-110244452D01*
X132056238Y-110196833D01*
X132151476Y-110149214D01*
X132246714Y-110149214D01*
X132961000Y-110768261D02*
X132865761Y-110815880D01*
X132675285Y-110815880D01*
X132580047Y-110768261D01*
X132532428Y-110673023D01*
X132532428Y-110292071D01*
X132580047Y-110196833D01*
X132675285Y-110149214D01*
X132865761Y-110149214D01*
X132961000Y-110196833D01*
X133008619Y-110292071D01*
X133008619Y-110387309D01*
X132532428Y-110482547D01*
X133294333Y-110149214D02*
X133675285Y-110149214D01*
X133437190Y-109815880D02*
X133437190Y-110673023D01*
X133484809Y-110768261D01*
X133580047Y-110815880D01*
X133675285Y-110815880D01*
X134627666Y-109815880D02*
X134961000Y-110815880D01*
X135294333Y-109815880D01*
X136151476Y-110815880D02*
X135580047Y-110815880D01*
X135865761Y-110815880D02*
X135865761Y-109815880D01*
X135770523Y-109958738D01*
X135675285Y-110053976D01*
X135580047Y-110101595D01*
X126841952Y-112465880D02*
X126841952Y-111465880D01*
X127175285Y-112180166D01*
X127508619Y-111465880D01*
X127508619Y-112465880D01*
X127984809Y-112465880D02*
X127984809Y-111799214D01*
X127984809Y-111465880D02*
X127937190Y-111513500D01*
X127984809Y-111561119D01*
X128032428Y-111513500D01*
X127984809Y-111465880D01*
X127984809Y-111561119D01*
X128889571Y-112418261D02*
X128794333Y-112465880D01*
X128603857Y-112465880D01*
X128508619Y-112418261D01*
X128461000Y-112370642D01*
X128413380Y-112275404D01*
X128413380Y-111989690D01*
X128461000Y-111894452D01*
X128508619Y-111846833D01*
X128603857Y-111799214D01*
X128794333Y-111799214D01*
X128889571Y-111846833D01*
X129318142Y-112465880D02*
X129318142Y-111465880D01*
X129746714Y-112465880D02*
X129746714Y-111942071D01*
X129699095Y-111846833D01*
X129603857Y-111799214D01*
X129461000Y-111799214D01*
X129365761Y-111846833D01*
X129318142Y-111894452D01*
X130651476Y-112465880D02*
X130651476Y-111942071D01*
X130603857Y-111846833D01*
X130508619Y-111799214D01*
X130318142Y-111799214D01*
X130222904Y-111846833D01*
X130651476Y-112418261D02*
X130556238Y-112465880D01*
X130318142Y-112465880D01*
X130222904Y-112418261D01*
X130175285Y-112323023D01*
X130175285Y-112227785D01*
X130222904Y-112132547D01*
X130318142Y-112084928D01*
X130556238Y-112084928D01*
X130651476Y-112037309D01*
X131508619Y-112418261D02*
X131413380Y-112465880D01*
X131222904Y-112465880D01*
X131127666Y-112418261D01*
X131080047Y-112323023D01*
X131080047Y-111942071D01*
X131127666Y-111846833D01*
X131222904Y-111799214D01*
X131413380Y-111799214D01*
X131508619Y-111846833D01*
X131556238Y-111942071D01*
X131556238Y-112037309D01*
X131080047Y-112132547D01*
X132127666Y-112465880D02*
X132032428Y-112418261D01*
X131984809Y-112323023D01*
X131984809Y-111465880D01*
X133222904Y-112418261D02*
X133365761Y-112465880D01*
X133603857Y-112465880D01*
X133699095Y-112418261D01*
X133746714Y-112370642D01*
X133794333Y-112275404D01*
X133794333Y-112180166D01*
X133746714Y-112084928D01*
X133699095Y-112037309D01*
X133603857Y-111989690D01*
X133413380Y-111942071D01*
X133318142Y-111894452D01*
X133270523Y-111846833D01*
X133222904Y-111751595D01*
X133222904Y-111656357D01*
X133270523Y-111561119D01*
X133318142Y-111513500D01*
X133413380Y-111465880D01*
X133651476Y-111465880D01*
X133794333Y-111513500D01*
X134651476Y-112418261D02*
X134556238Y-112465880D01*
X134365761Y-112465880D01*
X134270523Y-112418261D01*
X134222904Y-112370642D01*
X134175285Y-112275404D01*
X134175285Y-111989690D01*
X134222904Y-111894452D01*
X134270523Y-111846833D01*
X134365761Y-111799214D01*
X134556238Y-111799214D01*
X134651476Y-111846833D01*
X135080047Y-112465880D02*
X135080047Y-111465880D01*
X135508619Y-112465880D02*
X135508619Y-111942071D01*
X135461000Y-111846833D01*
X135365761Y-111799214D01*
X135222904Y-111799214D01*
X135127666Y-111846833D01*
X135080047Y-111894452D01*
X136365761Y-112418261D02*
X136270523Y-112465880D01*
X136080047Y-112465880D01*
X135984809Y-112418261D01*
X135937190Y-112323023D01*
X135937190Y-111942071D01*
X135984809Y-111846833D01*
X136080047Y-111799214D01*
X136270523Y-111799214D01*
X136365761Y-111846833D01*
X136413380Y-111942071D01*
X136413380Y-112037309D01*
X135937190Y-112132547D01*
X136841952Y-111799214D02*
X136841952Y-112465880D01*
X136841952Y-111894452D02*
X136889571Y-111846833D01*
X136984809Y-111799214D01*
X137127666Y-111799214D01*
X137222904Y-111846833D01*
X137270523Y-111942071D01*
X137270523Y-112465880D01*
X137746714Y-112465880D02*
X137746714Y-111465880D01*
X137841952Y-112084928D02*
X138127666Y-112465880D01*
X138127666Y-111799214D02*
X137746714Y-112180166D01*
X128365761Y-113211119D02*
X128413380Y-113163500D01*
X128508619Y-113115880D01*
X128746714Y-113115880D01*
X128841952Y-113163500D01*
X128889571Y-113211119D01*
X128937190Y-113306357D01*
X128937190Y-113401595D01*
X128889571Y-113544452D01*
X128318142Y-114115880D01*
X128937190Y-114115880D01*
X129556238Y-113115880D02*
X129651476Y-113115880D01*
X129746714Y-113163500D01*
X129794333Y-113211119D01*
X129841952Y-113306357D01*
X129889571Y-113496833D01*
X129889571Y-113734928D01*
X129841952Y-113925404D01*
X129794333Y-114020642D01*
X129746714Y-114068261D01*
X129651476Y-114115880D01*
X129556238Y-114115880D01*
X129461000Y-114068261D01*
X129413380Y-114020642D01*
X129365761Y-113925404D01*
X129318142Y-113734928D01*
X129318142Y-113496833D01*
X129365761Y-113306357D01*
X129413380Y-113211119D01*
X129461000Y-113163500D01*
X129556238Y-113115880D01*
X130270523Y-113211119D02*
X130318142Y-113163500D01*
X130413380Y-113115880D01*
X130651476Y-113115880D01*
X130746714Y-113163500D01*
X130794333Y-113211119D01*
X130841952Y-113306357D01*
X130841952Y-113401595D01*
X130794333Y-113544452D01*
X130222904Y-114115880D01*
X130841952Y-114115880D01*
X131461000Y-113115880D02*
X131556238Y-113115880D01*
X131651476Y-113163500D01*
X131699095Y-113211119D01*
X131746714Y-113306357D01*
X131794333Y-113496833D01*
X131794333Y-113734928D01*
X131746714Y-113925404D01*
X131699095Y-114020642D01*
X131651476Y-114068261D01*
X131556238Y-114115880D01*
X131461000Y-114115880D01*
X131365761Y-114068261D01*
X131318142Y-114020642D01*
X131270523Y-113925404D01*
X131222904Y-113734928D01*
X131222904Y-113496833D01*
X131270523Y-113306357D01*
X131318142Y-113211119D01*
X131365761Y-113163500D01*
X131461000Y-113115880D01*
X132222904Y-114020642D02*
X132270523Y-114068261D01*
X132222904Y-114115880D01*
X132175285Y-114068261D01*
X132222904Y-114020642D01*
X132222904Y-114115880D01*
X133222904Y-114115880D02*
X132651476Y-114115880D01*
X132937190Y-114115880D02*
X132937190Y-113115880D01*
X132841952Y-113258738D01*
X132746714Y-113353976D01*
X132651476Y-113401595D01*
X134175285Y-114115880D02*
X133603857Y-114115880D01*
X133889571Y-114115880D02*
X133889571Y-113115880D01*
X133794333Y-113258738D01*
X133699095Y-113353976D01*
X133603857Y-113401595D01*
X134603857Y-114020642D02*
X134651476Y-114068261D01*
X134603857Y-114115880D01*
X134556238Y-114068261D01*
X134603857Y-114020642D01*
X134603857Y-114115880D01*
X135270523Y-113115880D02*
X135365761Y-113115880D01*
X135461000Y-113163500D01*
X135508619Y-113211119D01*
X135556238Y-113306357D01*
X135603857Y-113496833D01*
X135603857Y-113734928D01*
X135556238Y-113925404D01*
X135508619Y-114020642D01*
X135461000Y-114068261D01*
X135365761Y-114115880D01*
X135270523Y-114115880D01*
X135175285Y-114068261D01*
X135127666Y-114020642D01*
X135080047Y-113925404D01*
X135032428Y-113734928D01*
X135032428Y-113496833D01*
X135080047Y-113306357D01*
X135127666Y-113211119D01*
X135175285Y-113163500D01*
X135270523Y-113115880D01*
X136508619Y-113115880D02*
X136032428Y-113115880D01*
X135984809Y-113592071D01*
X136032428Y-113544452D01*
X136127666Y-113496833D01*
X136365761Y-113496833D01*
X136461000Y-113544452D01*
X136508619Y-113592071D01*
X136556238Y-113687309D01*
X136556238Y-113925404D01*
X136508619Y-114020642D01*
X136461000Y-114068261D01*
X136365761Y-114115880D01*
X136127666Y-114115880D01*
X136032428Y-114068261D01*
X135984809Y-114020642D01*
X186380500Y-120141904D02*
X186332880Y-120237142D01*
X186332880Y-120380000D01*
X186380500Y-120522857D01*
X186475738Y-120618095D01*
X186570976Y-120665714D01*
X186761452Y-120713333D01*
X186904309Y-120713333D01*
X187094785Y-120665714D01*
X187190023Y-120618095D01*
X187285261Y-120522857D01*
X187332880Y-120380000D01*
X187332880Y-120284761D01*
X187285261Y-120141904D01*
X187237642Y-120094285D01*
X186904309Y-120094285D01*
X186904309Y-120284761D01*
X187332880Y-119665714D02*
X186332880Y-119665714D01*
X187332880Y-119094285D01*
X186332880Y-119094285D01*
X187332880Y-118618095D02*
X186332880Y-118618095D01*
X186332880Y-118380000D01*
X186380500Y-118237142D01*
X186475738Y-118141904D01*
X186570976Y-118094285D01*
X186761452Y-118046666D01*
X186904309Y-118046666D01*
X187094785Y-118094285D01*
X187190023Y-118141904D01*
X187285261Y-118237142D01*
X187332880Y-118380000D01*
X187332880Y-118618095D01*
X186269380Y-126857000D02*
X186269380Y-126666523D01*
X186317000Y-126571285D01*
X186412238Y-126476047D01*
X186602714Y-126428428D01*
X186936047Y-126428428D01*
X187126523Y-126476047D01*
X187221761Y-126571285D01*
X187269380Y-126666523D01*
X187269380Y-126857000D01*
X187221761Y-126952238D01*
X187126523Y-127047476D01*
X186936047Y-127095095D01*
X186602714Y-127095095D01*
X186412238Y-127047476D01*
X186317000Y-126952238D01*
X186269380Y-126857000D01*
X186269380Y-125999857D02*
X187078904Y-125999857D01*
X187174142Y-125952238D01*
X187221761Y-125904619D01*
X187269380Y-125809380D01*
X187269380Y-125618904D01*
X187221761Y-125523666D01*
X187174142Y-125476047D01*
X187078904Y-125428428D01*
X186269380Y-125428428D01*
X186269380Y-125095095D02*
X186269380Y-124523666D01*
X187269380Y-124809380D02*
X186269380Y-124809380D01*
X123563000Y-118745095D02*
X123610619Y-118649857D01*
X123610619Y-118507000D01*
X123563000Y-118364142D01*
X123467761Y-118268904D01*
X123372523Y-118221285D01*
X123182047Y-118173666D01*
X123039190Y-118173666D01*
X122848714Y-118221285D01*
X122753476Y-118268904D01*
X122658238Y-118364142D01*
X122610619Y-118507000D01*
X122610619Y-118602238D01*
X122658238Y-118745095D01*
X122705857Y-118792714D01*
X123039190Y-118792714D01*
X123039190Y-118602238D01*
X122610619Y-119221285D02*
X123610619Y-119221285D01*
X122610619Y-119792714D01*
X123610619Y-119792714D01*
X122610619Y-120268904D02*
X123610619Y-120268904D01*
X123610619Y-120507000D01*
X123563000Y-120649857D01*
X123467761Y-120745095D01*
X123372523Y-120792714D01*
X123182047Y-120840333D01*
X123039190Y-120840333D01*
X122848714Y-120792714D01*
X122753476Y-120745095D01*
X122658238Y-120649857D01*
X122610619Y-120507000D01*
X122610619Y-120268904D01*
X122610619Y-126984190D02*
X123610619Y-126984190D01*
X122610619Y-127460380D02*
X123610619Y-127460380D01*
X122610619Y-128031809D01*
X123610619Y-128031809D01*
X200160000Y-122681904D02*
X200112380Y-122777142D01*
X200112380Y-122920000D01*
X200160000Y-123062857D01*
X200255238Y-123158095D01*
X200350476Y-123205714D01*
X200540952Y-123253333D01*
X200683809Y-123253333D01*
X200874285Y-123205714D01*
X200969523Y-123158095D01*
X201064761Y-123062857D01*
X201112380Y-122920000D01*
X201112380Y-122824761D01*
X201064761Y-122681904D01*
X201017142Y-122634285D01*
X200683809Y-122634285D01*
X200683809Y-122824761D01*
X201112380Y-122205714D02*
X200112380Y-122205714D01*
X201112380Y-121634285D01*
X200112380Y-121634285D01*
X201112380Y-121158095D02*
X200112380Y-121158095D01*
X200112380Y-120920000D01*
X200160000Y-120777142D01*
X200255238Y-120681904D01*
X200350476Y-120634285D01*
X200540952Y-120586666D01*
X200683809Y-120586666D01*
X200874285Y-120634285D01*
X200969523Y-120681904D01*
X201064761Y-120777142D01*
X201112380Y-120920000D01*
X201112380Y-121158095D01*
X200731428Y-115045904D02*
X200731428Y-114284000D01*
X201112380Y-114664952D02*
X200350476Y-114664952D01*
X201112380Y-113284000D02*
X201112380Y-113855428D01*
X201112380Y-113569714D02*
X200112380Y-113569714D01*
X200255238Y-113664952D01*
X200350476Y-113760190D01*
X200398095Y-113855428D01*
X200112380Y-112379238D02*
X200112380Y-112855428D01*
X200588571Y-112903047D01*
X200540952Y-112855428D01*
X200493333Y-112760190D01*
X200493333Y-112522095D01*
X200540952Y-112426857D01*
X200588571Y-112379238D01*
X200683809Y-112331619D01*
X200921904Y-112331619D01*
X201017142Y-112379238D01*
X201064761Y-112426857D01*
X201112380Y-112522095D01*
X201112380Y-112760190D01*
X201064761Y-112855428D01*
X201017142Y-112903047D01*
X200112380Y-112045904D02*
X201112380Y-111712571D01*
X200112380Y-111379238D01*
D11*
X159669775Y-124915000D02*
X159669775Y-124415000D01*
X159919775Y-124665000D02*
X159419775Y-124665000D01*
X154514000Y-123474000D02*
X154514000Y-122906000D01*
X154554000Y-123708000D02*
X154554000Y-122672000D01*
X154594000Y-123867000D02*
X154594000Y-122513000D01*
X154634000Y-123995000D02*
X154634000Y-122385000D01*
X154674000Y-124105000D02*
X154674000Y-122275000D01*
X154714000Y-124201000D02*
X154714000Y-122179000D01*
X154754000Y-124288000D02*
X154754000Y-122092000D01*
X154794000Y-124368000D02*
X154794000Y-122012000D01*
X154834000Y-124441000D02*
X154834000Y-121939000D01*
X154874000Y-124509000D02*
X154874000Y-121871000D01*
X154914000Y-124573000D02*
X154914000Y-121807000D01*
X154954000Y-124633000D02*
X154954000Y-121747000D01*
X154994000Y-124690000D02*
X154994000Y-121690000D01*
X155034000Y-124744000D02*
X155034000Y-121636000D01*
X155074000Y-124795000D02*
X155074000Y-121585000D01*
X155114000Y-122150000D02*
X155114000Y-121537000D01*
X155114000Y-124843000D02*
X155114000Y-124230000D01*
X155154000Y-122150000D02*
X155154000Y-121491000D01*
X155154000Y-124889000D02*
X155154000Y-124230000D01*
X155194000Y-122150000D02*
X155194000Y-121447000D01*
X155194000Y-124933000D02*
X155194000Y-124230000D01*
X155234000Y-122150000D02*
X155234000Y-121405000D01*
X155234000Y-124975000D02*
X155234000Y-124230000D01*
X155274000Y-122150000D02*
X155274000Y-121364000D01*
X155274000Y-125016000D02*
X155274000Y-124230000D01*
X155314000Y-122150000D02*
X155314000Y-121326000D01*
X155314000Y-125054000D02*
X155314000Y-124230000D01*
X155354000Y-122150000D02*
X155354000Y-121289000D01*
X155354000Y-125091000D02*
X155354000Y-124230000D01*
X155394000Y-122150000D02*
X155394000Y-121253000D01*
X155394000Y-125127000D02*
X155394000Y-124230000D01*
X155434000Y-122150000D02*
X155434000Y-121219000D01*
X155434000Y-125161000D02*
X155434000Y-124230000D01*
X155474000Y-122150000D02*
X155474000Y-121186000D01*
X155474000Y-125194000D02*
X155474000Y-124230000D01*
X155514000Y-122150000D02*
X155514000Y-121155000D01*
X155514000Y-125225000D02*
X155514000Y-124230000D01*
X155554000Y-122150000D02*
X155554000Y-121125000D01*
X155554000Y-125255000D02*
X155554000Y-124230000D01*
X155594000Y-122150000D02*
X155594000Y-121095000D01*
X155594000Y-125285000D02*
X155594000Y-124230000D01*
X155634000Y-122150000D02*
X155634000Y-121068000D01*
X155634000Y-125312000D02*
X155634000Y-124230000D01*
X155674000Y-122150000D02*
X155674000Y-121041000D01*
X155674000Y-125339000D02*
X155674000Y-124230000D01*
X155714000Y-122150000D02*
X155714000Y-121015000D01*
X155714000Y-125365000D02*
X155714000Y-124230000D01*
X155754000Y-122150000D02*
X155754000Y-120990000D01*
X155754000Y-125390000D02*
X155754000Y-124230000D01*
X155794000Y-122150000D02*
X155794000Y-120966000D01*
X155794000Y-125414000D02*
X155794000Y-124230000D01*
X155834000Y-122150000D02*
X155834000Y-120943000D01*
X155834000Y-125437000D02*
X155834000Y-124230000D01*
X155874000Y-122150000D02*
X155874000Y-120922000D01*
X155874000Y-125458000D02*
X155874000Y-124230000D01*
X155914000Y-122150000D02*
X155914000Y-120900000D01*
X155914000Y-125480000D02*
X155914000Y-124230000D01*
X155954000Y-122150000D02*
X155954000Y-120880000D01*
X155954000Y-125500000D02*
X155954000Y-124230000D01*
X155994000Y-122150000D02*
X155994000Y-120861000D01*
X155994000Y-125519000D02*
X155994000Y-124230000D01*
X156034000Y-122150000D02*
X156034000Y-120842000D01*
X156034000Y-125538000D02*
X156034000Y-124230000D01*
X156074000Y-122150000D02*
X156074000Y-120825000D01*
X156074000Y-125555000D02*
X156074000Y-124230000D01*
X156114000Y-122150000D02*
X156114000Y-120808000D01*
X156114000Y-125572000D02*
X156114000Y-124230000D01*
X156154000Y-122150000D02*
X156154000Y-120792000D01*
X156154000Y-125588000D02*
X156154000Y-124230000D01*
X156194000Y-122150000D02*
X156194000Y-120776000D01*
X156194000Y-125604000D02*
X156194000Y-124230000D01*
X156234000Y-122150000D02*
X156234000Y-120762000D01*
X156234000Y-125618000D02*
X156234000Y-124230000D01*
X156274000Y-122150000D02*
X156274000Y-120748000D01*
X156274000Y-125632000D02*
X156274000Y-124230000D01*
X156314000Y-122150000D02*
X156314000Y-120735000D01*
X156314000Y-125645000D02*
X156314000Y-124230000D01*
X156354000Y-122150000D02*
X156354000Y-120722000D01*
X156354000Y-125658000D02*
X156354000Y-124230000D01*
X156394000Y-122150000D02*
X156394000Y-120710000D01*
X156394000Y-125670000D02*
X156394000Y-124230000D01*
X156435000Y-122150000D02*
X156435000Y-120699000D01*
X156435000Y-125681000D02*
X156435000Y-124230000D01*
X156475000Y-122150000D02*
X156475000Y-120689000D01*
X156475000Y-125691000D02*
X156475000Y-124230000D01*
X156515000Y-122150000D02*
X156515000Y-120679000D01*
X156515000Y-125701000D02*
X156515000Y-124230000D01*
X156555000Y-122150000D02*
X156555000Y-120670000D01*
X156555000Y-125710000D02*
X156555000Y-124230000D01*
X156595000Y-122150000D02*
X156595000Y-120662000D01*
X156595000Y-125718000D02*
X156595000Y-124230000D01*
X156635000Y-122150000D02*
X156635000Y-120654000D01*
X156635000Y-125726000D02*
X156635000Y-124230000D01*
X156675000Y-122150000D02*
X156675000Y-120647000D01*
X156675000Y-125733000D02*
X156675000Y-124230000D01*
X156715000Y-122150000D02*
X156715000Y-120640000D01*
X156715000Y-125740000D02*
X156715000Y-124230000D01*
X156755000Y-122150000D02*
X156755000Y-120634000D01*
X156755000Y-125746000D02*
X156755000Y-124230000D01*
X156795000Y-122150000D02*
X156795000Y-120629000D01*
X156795000Y-125751000D02*
X156795000Y-124230000D01*
X156835000Y-122150000D02*
X156835000Y-120625000D01*
X156835000Y-125755000D02*
X156835000Y-124230000D01*
X156875000Y-122150000D02*
X156875000Y-120621000D01*
X156875000Y-125759000D02*
X156875000Y-124230000D01*
X156915000Y-122150000D02*
X156915000Y-120617000D01*
X156915000Y-125763000D02*
X156915000Y-124230000D01*
X156955000Y-122150000D02*
X156955000Y-120614000D01*
X156955000Y-125766000D02*
X156955000Y-124230000D01*
X156995000Y-122150000D02*
X156995000Y-120612000D01*
X156995000Y-125768000D02*
X156995000Y-124230000D01*
X157035000Y-122150000D02*
X157035000Y-120611000D01*
X157035000Y-125769000D02*
X157035000Y-124230000D01*
X157075000Y-125770000D02*
X157075000Y-124230000D01*
X157075000Y-122150000D02*
X157075000Y-120610000D01*
X157115000Y-125770000D02*
X157115000Y-124230000D01*
X157115000Y-122150000D02*
X157115000Y-120610000D01*
X159735000Y-123190000D02*
G75*
G03*
X159735000Y-123190000I-2620000J0D01*
G01*
X164197000Y-110561000D02*
X164197000Y-111491000D01*
X164197000Y-113721000D02*
X164197000Y-112791000D01*
X164197000Y-113721000D02*
X166357000Y-113721000D01*
X164197000Y-110561000D02*
X165657000Y-110561000D01*
X180329064Y-125185500D02*
X179874936Y-125185500D01*
X180329064Y-126655500D02*
X179874936Y-126655500D01*
X175503064Y-118718000D02*
X175048936Y-118718000D01*
X175503064Y-117248000D02*
X175048936Y-117248000D01*
X170470500Y-142155936D02*
X170470500Y-142610064D01*
X169000500Y-142155936D02*
X169000500Y-142610064D01*
X166724000Y-101039436D02*
X166724000Y-101493564D01*
X165254000Y-101039436D02*
X165254000Y-101493564D01*
X153643000Y-131979936D02*
X153643000Y-132434064D01*
X152173000Y-131979936D02*
X152173000Y-132434064D01*
X148499500Y-117422436D02*
X148499500Y-117876564D01*
X147029500Y-117422436D02*
X147029500Y-117876564D01*
X148499500Y-101039436D02*
X148499500Y-101493564D01*
X147029500Y-101039436D02*
X147029500Y-101493564D01*
X160818500Y-142155936D02*
X160818500Y-142610064D01*
X159348500Y-142155936D02*
X159348500Y-142610064D01*
X144435500Y-117390936D02*
X144435500Y-117845064D01*
X142965500Y-117390936D02*
X142965500Y-117845064D01*
X145451500Y-101039436D02*
X145451500Y-101493564D01*
X143981500Y-101039436D02*
X143981500Y-101493564D01*
X147137000Y-113996500D02*
X148067000Y-113996500D01*
X150297000Y-113996500D02*
X149367000Y-113996500D01*
X150297000Y-113996500D02*
X150297000Y-111836500D01*
X147137000Y-113996500D02*
X147137000Y-112536500D01*
X147137000Y-109805500D02*
X148067000Y-109805500D01*
X150297000Y-109805500D02*
X149367000Y-109805500D01*
X150297000Y-109805500D02*
X150297000Y-107645500D01*
X147137000Y-109805500D02*
X147137000Y-108345500D01*
X158234500Y-131431000D02*
X157304500Y-131431000D01*
X155074500Y-131431000D02*
X156004500Y-131431000D01*
X155074500Y-131431000D02*
X155074500Y-133591000D01*
X158234500Y-131431000D02*
X158234500Y-132891000D01*
X142956500Y-107452000D02*
X142956500Y-108382000D01*
X142956500Y-110612000D02*
X142956500Y-109682000D01*
X142956500Y-110612000D02*
X145116500Y-110612000D01*
X142956500Y-107452000D02*
X144416500Y-107452000D01*
X144330500Y-112413000D02*
X143400500Y-112413000D01*
X141170500Y-112413000D02*
X142100500Y-112413000D01*
X141170500Y-112413000D02*
X141170500Y-114573000D01*
X144330500Y-112413000D02*
X144330500Y-113873000D01*
X176874000Y-111807500D02*
X176874000Y-109807500D01*
X176874000Y-109807500D02*
X172974000Y-109807500D01*
X176874000Y-111807500D02*
X172974000Y-111807500D01*
X171974000Y-104166500D02*
X173974000Y-104166500D01*
X173974000Y-104166500D02*
X173974000Y-100266500D01*
X171974000Y-104166500D02*
X171974000Y-100266500D01*
X155210000Y-143983000D02*
X157210000Y-143983000D01*
X157210000Y-143983000D02*
X157210000Y-140083000D01*
X155210000Y-143983000D02*
X155210000Y-140083000D01*
X156809000Y-136445500D02*
X156809000Y-134445500D01*
X156809000Y-134445500D02*
X152909000Y-134445500D01*
X156809000Y-136445500D02*
X152909000Y-136445500D01*
X167160752Y-116305000D02*
X166638248Y-116305000D01*
X167160752Y-114835000D02*
X166638248Y-114835000D01*
X137652500Y-137623302D02*
X136852500Y-137623302D01*
X137252500Y-137223302D02*
X137252500Y-138023302D01*
X135470500Y-145714000D02*
X134404500Y-145714000D01*
X135705500Y-145674000D02*
X134169500Y-145674000D01*
X135885500Y-145634000D02*
X133989500Y-145634000D01*
X136035500Y-145594000D02*
X133839500Y-145594000D01*
X136166500Y-145554000D02*
X133708500Y-145554000D01*
X136283500Y-145514000D02*
X133591500Y-145514000D01*
X136390500Y-145474000D02*
X133484500Y-145474000D01*
X136489500Y-145434000D02*
X133385500Y-145434000D01*
X136582500Y-145394000D02*
X133292500Y-145394000D01*
X136668500Y-145354000D02*
X133206500Y-145354000D01*
X136750500Y-145314000D02*
X133124500Y-145314000D01*
X136827500Y-145274000D02*
X133047500Y-145274000D01*
X136901500Y-145234000D02*
X132973500Y-145234000D01*
X136971500Y-145194000D02*
X132903500Y-145194000D01*
X137039500Y-145154000D02*
X132835500Y-145154000D01*
X137103500Y-145114000D02*
X132771500Y-145114000D01*
X137165500Y-145074000D02*
X132709500Y-145074000D01*
X137224500Y-145034000D02*
X132650500Y-145034000D01*
X137282500Y-144994000D02*
X132592500Y-144994000D01*
X137337500Y-144954000D02*
X132537500Y-144954000D01*
X137391500Y-144914000D02*
X132483500Y-144914000D01*
X137442500Y-144874000D02*
X132432500Y-144874000D01*
X137493500Y-144834000D02*
X132381500Y-144834000D01*
X137541500Y-144794000D02*
X132333500Y-144794000D01*
X137588500Y-144754000D02*
X132286500Y-144754000D01*
X137634500Y-144714000D02*
X132240500Y-144714000D01*
X137678500Y-144674000D02*
X132196500Y-144674000D01*
X137721500Y-144634000D02*
X132153500Y-144634000D01*
X137763500Y-144594000D02*
X132111500Y-144594000D01*
X137804500Y-144554000D02*
X132070500Y-144554000D01*
X137844500Y-144514000D02*
X132030500Y-144514000D01*
X137882500Y-144474000D02*
X131992500Y-144474000D01*
X137920500Y-144434000D02*
X131954500Y-144434000D01*
X133897500Y-144394000D02*
X131918500Y-144394000D01*
X137956500Y-144394000D02*
X135977500Y-144394000D01*
X133897500Y-144354000D02*
X131882500Y-144354000D01*
X137992500Y-144354000D02*
X135977500Y-144354000D01*
X133897500Y-144314000D02*
X131847500Y-144314000D01*
X138027500Y-144314000D02*
X135977500Y-144314000D01*
X133897500Y-144274000D02*
X131813500Y-144274000D01*
X138061500Y-144274000D02*
X135977500Y-144274000D01*
X133897500Y-144234000D02*
X131781500Y-144234000D01*
X138093500Y-144234000D02*
X135977500Y-144234000D01*
X133897500Y-144194000D02*
X131748500Y-144194000D01*
X138126500Y-144194000D02*
X135977500Y-144194000D01*
X133897500Y-144154000D02*
X131717500Y-144154000D01*
X138157500Y-144154000D02*
X135977500Y-144154000D01*
X133897500Y-144114000D02*
X131687500Y-144114000D01*
X138187500Y-144114000D02*
X135977500Y-144114000D01*
X133897500Y-144074000D02*
X131657500Y-144074000D01*
X138217500Y-144074000D02*
X135977500Y-144074000D01*
X133897500Y-144034000D02*
X131628500Y-144034000D01*
X138246500Y-144034000D02*
X135977500Y-144034000D01*
X133897500Y-143994000D02*
X131599500Y-143994000D01*
X138275500Y-143994000D02*
X135977500Y-143994000D01*
X133897500Y-143954000D02*
X131572500Y-143954000D01*
X138302500Y-143954000D02*
X135977500Y-143954000D01*
X133897500Y-143914000D02*
X131545500Y-143914000D01*
X138329500Y-143914000D02*
X135977500Y-143914000D01*
X133897500Y-143874000D02*
X131519500Y-143874000D01*
X138355500Y-143874000D02*
X135977500Y-143874000D01*
X133897500Y-143834000D02*
X131493500Y-143834000D01*
X138381500Y-143834000D02*
X135977500Y-143834000D01*
X133897500Y-143794000D02*
X131468500Y-143794000D01*
X138406500Y-143794000D02*
X135977500Y-143794000D01*
X133897500Y-143754000D02*
X131444500Y-143754000D01*
X138430500Y-143754000D02*
X135977500Y-143754000D01*
X133897500Y-143714000D02*
X131420500Y-143714000D01*
X138454500Y-143714000D02*
X135977500Y-143714000D01*
X133897500Y-143674000D02*
X131397500Y-143674000D01*
X138477500Y-143674000D02*
X135977500Y-143674000D01*
X133897500Y-143634000D02*
X131375500Y-143634000D01*
X138499500Y-143634000D02*
X135977500Y-143634000D01*
X133897500Y-143594000D02*
X131353500Y-143594000D01*
X138521500Y-143594000D02*
X135977500Y-143594000D01*
X133897500Y-143554000D02*
X131331500Y-143554000D01*
X138543500Y-143554000D02*
X135977500Y-143554000D01*
X133897500Y-143514000D02*
X131310500Y-143514000D01*
X138564500Y-143514000D02*
X135977500Y-143514000D01*
X133897500Y-143474000D02*
X131290500Y-143474000D01*
X138584500Y-143474000D02*
X135977500Y-143474000D01*
X133897500Y-143434000D02*
X131271500Y-143434000D01*
X138603500Y-143434000D02*
X135977500Y-143434000D01*
X133897500Y-143394000D02*
X131251500Y-143394000D01*
X138623500Y-143394000D02*
X135977500Y-143394000D01*
X133897500Y-143354000D02*
X131233500Y-143354000D01*
X138641500Y-143354000D02*
X135977500Y-143354000D01*
X133897500Y-143314000D02*
X131215500Y-143314000D01*
X138659500Y-143314000D02*
X135977500Y-143314000D01*
X133897500Y-143274000D02*
X131197500Y-143274000D01*
X138677500Y-143274000D02*
X135977500Y-143274000D01*
X133897500Y-143234000D02*
X131180500Y-143234000D01*
X138694500Y-143234000D02*
X135977500Y-143234000D01*
X133897500Y-143194000D02*
X131163500Y-143194000D01*
X138711500Y-143194000D02*
X135977500Y-143194000D01*
X133897500Y-143154000D02*
X131147500Y-143154000D01*
X138727500Y-143154000D02*
X135977500Y-143154000D01*
X133897500Y-143114000D02*
X131132500Y-143114000D01*
X138742500Y-143114000D02*
X135977500Y-143114000D01*
X133897500Y-143074000D02*
X131116500Y-143074000D01*
X138758500Y-143074000D02*
X135977500Y-143074000D01*
X133897500Y-143034000D02*
X131102500Y-143034000D01*
X138772500Y-143034000D02*
X135977500Y-143034000D01*
X133897500Y-142994000D02*
X131087500Y-142994000D01*
X138787500Y-142994000D02*
X135977500Y-142994000D01*
X133897500Y-142954000D02*
X131074500Y-142954000D01*
X138800500Y-142954000D02*
X135977500Y-142954000D01*
X133897500Y-142914000D02*
X131060500Y-142914000D01*
X138814500Y-142914000D02*
X135977500Y-142914000D01*
X133897500Y-142874000D02*
X131048500Y-142874000D01*
X138826500Y-142874000D02*
X135977500Y-142874000D01*
X133897500Y-142834000D02*
X131035500Y-142834000D01*
X138839500Y-142834000D02*
X135977500Y-142834000D01*
X133897500Y-142794000D02*
X131023500Y-142794000D01*
X138851500Y-142794000D02*
X135977500Y-142794000D01*
X133897500Y-142754000D02*
X131012500Y-142754000D01*
X138862500Y-142754000D02*
X135977500Y-142754000D01*
X133897500Y-142714000D02*
X131001500Y-142714000D01*
X138873500Y-142714000D02*
X135977500Y-142714000D01*
X133897500Y-142674000D02*
X130990500Y-142674000D01*
X138884500Y-142674000D02*
X135977500Y-142674000D01*
X133897500Y-142634000D02*
X130980500Y-142634000D01*
X138894500Y-142634000D02*
X135977500Y-142634000D01*
X133897500Y-142594000D02*
X130970500Y-142594000D01*
X138904500Y-142594000D02*
X135977500Y-142594000D01*
X133897500Y-142554000D02*
X130961500Y-142554000D01*
X138913500Y-142554000D02*
X135977500Y-142554000D01*
X133897500Y-142514000D02*
X130952500Y-142514000D01*
X138922500Y-142514000D02*
X135977500Y-142514000D01*
X133897500Y-142474000D02*
X130943500Y-142474000D01*
X138931500Y-142474000D02*
X135977500Y-142474000D01*
X133897500Y-142434000D02*
X130935500Y-142434000D01*
X138939500Y-142434000D02*
X135977500Y-142434000D01*
X133897500Y-142394000D02*
X130927500Y-142394000D01*
X138947500Y-142394000D02*
X135977500Y-142394000D01*
X133897500Y-142354000D02*
X130920500Y-142354000D01*
X138954500Y-142354000D02*
X135977500Y-142354000D01*
X138961500Y-142313000D02*
X130913500Y-142313000D01*
X138967500Y-142273000D02*
X130907500Y-142273000D01*
X138974500Y-142233000D02*
X130900500Y-142233000D01*
X138979500Y-142193000D02*
X130895500Y-142193000D01*
X138985500Y-142153000D02*
X130889500Y-142153000D01*
X138989500Y-142113000D02*
X130885500Y-142113000D01*
X138994500Y-142073000D02*
X130880500Y-142073000D01*
X138998500Y-142033000D02*
X130876500Y-142033000D01*
X139002500Y-141993000D02*
X130872500Y-141993000D01*
X139005500Y-141953000D02*
X130869500Y-141953000D01*
X139008500Y-141913000D02*
X130866500Y-141913000D01*
X139011500Y-141873000D02*
X130863500Y-141873000D01*
X139013500Y-141833000D02*
X130861500Y-141833000D01*
X139014500Y-141793000D02*
X130860500Y-141793000D01*
X139016500Y-141753000D02*
X130858500Y-141753000D01*
X139017500Y-141713000D02*
X130857500Y-141713000D01*
X139017500Y-141673000D02*
X130857500Y-141673000D01*
X139017500Y-141633000D02*
X130857500Y-141633000D01*
X139057500Y-141633000D02*
G75*
G03*
X139057500Y-141633000I-4120000J0D01*
G01*
X137716000Y-98006802D02*
X136916000Y-98006802D01*
X137316000Y-97606802D02*
X137316000Y-98406802D01*
X135534000Y-106097500D02*
X134468000Y-106097500D01*
X135769000Y-106057500D02*
X134233000Y-106057500D01*
X135949000Y-106017500D02*
X134053000Y-106017500D01*
X136099000Y-105977500D02*
X133903000Y-105977500D01*
X136230000Y-105937500D02*
X133772000Y-105937500D01*
X136347000Y-105897500D02*
X133655000Y-105897500D01*
X136454000Y-105857500D02*
X133548000Y-105857500D01*
X136553000Y-105817500D02*
X133449000Y-105817500D01*
X136646000Y-105777500D02*
X133356000Y-105777500D01*
X136732000Y-105737500D02*
X133270000Y-105737500D01*
X136814000Y-105697500D02*
X133188000Y-105697500D01*
X136891000Y-105657500D02*
X133111000Y-105657500D01*
X136965000Y-105617500D02*
X133037000Y-105617500D01*
X137035000Y-105577500D02*
X132967000Y-105577500D01*
X137103000Y-105537500D02*
X132899000Y-105537500D01*
X137167000Y-105497500D02*
X132835000Y-105497500D01*
X137229000Y-105457500D02*
X132773000Y-105457500D01*
X137288000Y-105417500D02*
X132714000Y-105417500D01*
X137346000Y-105377500D02*
X132656000Y-105377500D01*
X137401000Y-105337500D02*
X132601000Y-105337500D01*
X137455000Y-105297500D02*
X132547000Y-105297500D01*
X137506000Y-105257500D02*
X132496000Y-105257500D01*
X137557000Y-105217500D02*
X132445000Y-105217500D01*
X137605000Y-105177500D02*
X132397000Y-105177500D01*
X137652000Y-105137500D02*
X132350000Y-105137500D01*
X137698000Y-105097500D02*
X132304000Y-105097500D01*
X137742000Y-105057500D02*
X132260000Y-105057500D01*
X137785000Y-105017500D02*
X132217000Y-105017500D01*
X137827000Y-104977500D02*
X132175000Y-104977500D01*
X137868000Y-104937500D02*
X132134000Y-104937500D01*
X137908000Y-104897500D02*
X132094000Y-104897500D01*
X137946000Y-104857500D02*
X132056000Y-104857500D01*
X137984000Y-104817500D02*
X132018000Y-104817500D01*
X133961000Y-104777500D02*
X131982000Y-104777500D01*
X138020000Y-104777500D02*
X136041000Y-104777500D01*
X133961000Y-104737500D02*
X131946000Y-104737500D01*
X138056000Y-104737500D02*
X136041000Y-104737500D01*
X133961000Y-104697500D02*
X131911000Y-104697500D01*
X138091000Y-104697500D02*
X136041000Y-104697500D01*
X133961000Y-104657500D02*
X131877000Y-104657500D01*
X138125000Y-104657500D02*
X136041000Y-104657500D01*
X133961000Y-104617500D02*
X131845000Y-104617500D01*
X138157000Y-104617500D02*
X136041000Y-104617500D01*
X133961000Y-104577500D02*
X131812000Y-104577500D01*
X138190000Y-104577500D02*
X136041000Y-104577500D01*
X133961000Y-104537500D02*
X131781000Y-104537500D01*
X138221000Y-104537500D02*
X136041000Y-104537500D01*
X133961000Y-104497500D02*
X131751000Y-104497500D01*
X138251000Y-104497500D02*
X136041000Y-104497500D01*
X133961000Y-104457500D02*
X131721000Y-104457500D01*
X138281000Y-104457500D02*
X136041000Y-104457500D01*
X133961000Y-104417500D02*
X131692000Y-104417500D01*
X138310000Y-104417500D02*
X136041000Y-104417500D01*
X133961000Y-104377500D02*
X131663000Y-104377500D01*
X138339000Y-104377500D02*
X136041000Y-104377500D01*
X133961000Y-104337500D02*
X131636000Y-104337500D01*
X138366000Y-104337500D02*
X136041000Y-104337500D01*
X133961000Y-104297500D02*
X131609000Y-104297500D01*
X138393000Y-104297500D02*
X136041000Y-104297500D01*
X133961000Y-104257500D02*
X131583000Y-104257500D01*
X138419000Y-104257500D02*
X136041000Y-104257500D01*
X133961000Y-104217500D02*
X131557000Y-104217500D01*
X138445000Y-104217500D02*
X136041000Y-104217500D01*
X133961000Y-104177500D02*
X131532000Y-104177500D01*
X138470000Y-104177500D02*
X136041000Y-104177500D01*
X133961000Y-104137500D02*
X131508000Y-104137500D01*
X138494000Y-104137500D02*
X136041000Y-104137500D01*
X133961000Y-104097500D02*
X131484000Y-104097500D01*
X138518000Y-104097500D02*
X136041000Y-104097500D01*
X133961000Y-104057500D02*
X131461000Y-104057500D01*
X138541000Y-104057500D02*
X136041000Y-104057500D01*
X133961000Y-104017500D02*
X131439000Y-104017500D01*
X138563000Y-104017500D02*
X136041000Y-104017500D01*
X133961000Y-103977500D02*
X131417000Y-103977500D01*
X138585000Y-103977500D02*
X136041000Y-103977500D01*
X133961000Y-103937500D02*
X131395000Y-103937500D01*
X138607000Y-103937500D02*
X136041000Y-103937500D01*
X133961000Y-103897500D02*
X131374000Y-103897500D01*
X138628000Y-103897500D02*
X136041000Y-103897500D01*
X133961000Y-103857500D02*
X131354000Y-103857500D01*
X138648000Y-103857500D02*
X136041000Y-103857500D01*
X133961000Y-103817500D02*
X131335000Y-103817500D01*
X138667000Y-103817500D02*
X136041000Y-103817500D01*
X133961000Y-103777500D02*
X131315000Y-103777500D01*
X138687000Y-103777500D02*
X136041000Y-103777500D01*
X133961000Y-103737500D02*
X131297000Y-103737500D01*
X138705000Y-103737500D02*
X136041000Y-103737500D01*
X133961000Y-103697500D02*
X131279000Y-103697500D01*
X138723000Y-103697500D02*
X136041000Y-103697500D01*
X133961000Y-103657500D02*
X131261000Y-103657500D01*
X138741000Y-103657500D02*
X136041000Y-103657500D01*
X133961000Y-103617500D02*
X131244000Y-103617500D01*
X138758000Y-103617500D02*
X136041000Y-103617500D01*
X133961000Y-103577500D02*
X131227000Y-103577500D01*
X138775000Y-103577500D02*
X136041000Y-103577500D01*
X133961000Y-103537500D02*
X131211000Y-103537500D01*
X138791000Y-103537500D02*
X136041000Y-103537500D01*
X133961000Y-103497500D02*
X131196000Y-103497500D01*
X138806000Y-103497500D02*
X136041000Y-103497500D01*
X133961000Y-103457500D02*
X131180000Y-103457500D01*
X138822000Y-103457500D02*
X136041000Y-103457500D01*
X133961000Y-103417500D02*
X131166000Y-103417500D01*
X138836000Y-103417500D02*
X136041000Y-103417500D01*
X133961000Y-103377500D02*
X131151000Y-103377500D01*
X138851000Y-103377500D02*
X136041000Y-103377500D01*
X133961000Y-103337500D02*
X131138000Y-103337500D01*
X138864000Y-103337500D02*
X136041000Y-103337500D01*
X133961000Y-103297500D02*
X131124000Y-103297500D01*
X138878000Y-103297500D02*
X136041000Y-103297500D01*
X133961000Y-103257500D02*
X131112000Y-103257500D01*
X138890000Y-103257500D02*
X136041000Y-103257500D01*
X133961000Y-103217500D02*
X131099000Y-103217500D01*
X138903000Y-103217500D02*
X136041000Y-103217500D01*
X133961000Y-103177500D02*
X131087000Y-103177500D01*
X138915000Y-103177500D02*
X136041000Y-103177500D01*
X133961000Y-103137500D02*
X131076000Y-103137500D01*
X138926000Y-103137500D02*
X136041000Y-103137500D01*
X133961000Y-103097500D02*
X131065000Y-103097500D01*
X138937000Y-103097500D02*
X136041000Y-103097500D01*
X133961000Y-103057500D02*
X131054000Y-103057500D01*
X138948000Y-103057500D02*
X136041000Y-103057500D01*
X133961000Y-103017500D02*
X131044000Y-103017500D01*
X138958000Y-103017500D02*
X136041000Y-103017500D01*
X133961000Y-102977500D02*
X131034000Y-102977500D01*
X138968000Y-102977500D02*
X136041000Y-102977500D01*
X133961000Y-102937500D02*
X131025000Y-102937500D01*
X138977000Y-102937500D02*
X136041000Y-102937500D01*
X133961000Y-102897500D02*
X131016000Y-102897500D01*
X138986000Y-102897500D02*
X136041000Y-102897500D01*
X133961000Y-102857500D02*
X131007000Y-102857500D01*
X138995000Y-102857500D02*
X136041000Y-102857500D01*
X133961000Y-102817500D02*
X130999000Y-102817500D01*
X139003000Y-102817500D02*
X136041000Y-102817500D01*
X133961000Y-102777500D02*
X130991000Y-102777500D01*
X139011000Y-102777500D02*
X136041000Y-102777500D01*
X133961000Y-102737500D02*
X130984000Y-102737500D01*
X139018000Y-102737500D02*
X136041000Y-102737500D01*
X139025000Y-102696500D02*
X130977000Y-102696500D01*
X139031000Y-102656500D02*
X130971000Y-102656500D01*
X139038000Y-102616500D02*
X130964000Y-102616500D01*
X139043000Y-102576500D02*
X130959000Y-102576500D01*
X139049000Y-102536500D02*
X130953000Y-102536500D01*
X139053000Y-102496500D02*
X130949000Y-102496500D01*
X139058000Y-102456500D02*
X130944000Y-102456500D01*
X139062000Y-102416500D02*
X130940000Y-102416500D01*
X139066000Y-102376500D02*
X130936000Y-102376500D01*
X139069000Y-102336500D02*
X130933000Y-102336500D01*
X139072000Y-102296500D02*
X130930000Y-102296500D01*
X139075000Y-102256500D02*
X130927000Y-102256500D01*
X139077000Y-102216500D02*
X130925000Y-102216500D01*
X139078000Y-102176500D02*
X130924000Y-102176500D01*
X139080000Y-102136500D02*
X130922000Y-102136500D01*
X139081000Y-102096500D02*
X130921000Y-102096500D01*
X139081000Y-102056500D02*
X130921000Y-102056500D01*
X139081000Y-102016500D02*
X130921000Y-102016500D01*
X139121000Y-102016500D02*
G75*
G03*
X139121000Y-102016500I-4120000J0D01*
G01*
X183309000Y-137630802D02*
X182509000Y-137630802D01*
X182909000Y-137230802D02*
X182909000Y-138030802D01*
X181127000Y-145721500D02*
X180061000Y-145721500D01*
X181362000Y-145681500D02*
X179826000Y-145681500D01*
X181542000Y-145641500D02*
X179646000Y-145641500D01*
X181692000Y-145601500D02*
X179496000Y-145601500D01*
X181823000Y-145561500D02*
X179365000Y-145561500D01*
X181940000Y-145521500D02*
X179248000Y-145521500D01*
X182047000Y-145481500D02*
X179141000Y-145481500D01*
X182146000Y-145441500D02*
X179042000Y-145441500D01*
X182239000Y-145401500D02*
X178949000Y-145401500D01*
X182325000Y-145361500D02*
X178863000Y-145361500D01*
X182407000Y-145321500D02*
X178781000Y-145321500D01*
X182484000Y-145281500D02*
X178704000Y-145281500D01*
X182558000Y-145241500D02*
X178630000Y-145241500D01*
X182628000Y-145201500D02*
X178560000Y-145201500D01*
X182696000Y-145161500D02*
X178492000Y-145161500D01*
X182760000Y-145121500D02*
X178428000Y-145121500D01*
X182822000Y-145081500D02*
X178366000Y-145081500D01*
X182881000Y-145041500D02*
X178307000Y-145041500D01*
X182939000Y-145001500D02*
X178249000Y-145001500D01*
X182994000Y-144961500D02*
X178194000Y-144961500D01*
X183048000Y-144921500D02*
X178140000Y-144921500D01*
X183099000Y-144881500D02*
X178089000Y-144881500D01*
X183150000Y-144841500D02*
X178038000Y-144841500D01*
X183198000Y-144801500D02*
X177990000Y-144801500D01*
X183245000Y-144761500D02*
X177943000Y-144761500D01*
X183291000Y-144721500D02*
X177897000Y-144721500D01*
X183335000Y-144681500D02*
X177853000Y-144681500D01*
X183378000Y-144641500D02*
X177810000Y-144641500D01*
X183420000Y-144601500D02*
X177768000Y-144601500D01*
X183461000Y-144561500D02*
X177727000Y-144561500D01*
X183501000Y-144521500D02*
X177687000Y-144521500D01*
X183539000Y-144481500D02*
X177649000Y-144481500D01*
X183577000Y-144441500D02*
X177611000Y-144441500D01*
X179554000Y-144401500D02*
X177575000Y-144401500D01*
X183613000Y-144401500D02*
X181634000Y-144401500D01*
X179554000Y-144361500D02*
X177539000Y-144361500D01*
X183649000Y-144361500D02*
X181634000Y-144361500D01*
X179554000Y-144321500D02*
X177504000Y-144321500D01*
X183684000Y-144321500D02*
X181634000Y-144321500D01*
X179554000Y-144281500D02*
X177470000Y-144281500D01*
X183718000Y-144281500D02*
X181634000Y-144281500D01*
X179554000Y-144241500D02*
X177438000Y-144241500D01*
X183750000Y-144241500D02*
X181634000Y-144241500D01*
X179554000Y-144201500D02*
X177405000Y-144201500D01*
X183783000Y-144201500D02*
X181634000Y-144201500D01*
X179554000Y-144161500D02*
X177374000Y-144161500D01*
X183814000Y-144161500D02*
X181634000Y-144161500D01*
X179554000Y-144121500D02*
X177344000Y-144121500D01*
X183844000Y-144121500D02*
X181634000Y-144121500D01*
X179554000Y-144081500D02*
X177314000Y-144081500D01*
X183874000Y-144081500D02*
X181634000Y-144081500D01*
X179554000Y-144041500D02*
X177285000Y-144041500D01*
X183903000Y-144041500D02*
X181634000Y-144041500D01*
X179554000Y-144001500D02*
X177256000Y-144001500D01*
X183932000Y-144001500D02*
X181634000Y-144001500D01*
X179554000Y-143961500D02*
X177229000Y-143961500D01*
X183959000Y-143961500D02*
X181634000Y-143961500D01*
X179554000Y-143921500D02*
X177202000Y-143921500D01*
X183986000Y-143921500D02*
X181634000Y-143921500D01*
X179554000Y-143881500D02*
X177176000Y-143881500D01*
X184012000Y-143881500D02*
X181634000Y-143881500D01*
X179554000Y-143841500D02*
X177150000Y-143841500D01*
X184038000Y-143841500D02*
X181634000Y-143841500D01*
X179554000Y-143801500D02*
X177125000Y-143801500D01*
X184063000Y-143801500D02*
X181634000Y-143801500D01*
X179554000Y-143761500D02*
X177101000Y-143761500D01*
X184087000Y-143761500D02*
X181634000Y-143761500D01*
X179554000Y-143721500D02*
X177077000Y-143721500D01*
X184111000Y-143721500D02*
X181634000Y-143721500D01*
X179554000Y-143681500D02*
X177054000Y-143681500D01*
X184134000Y-143681500D02*
X181634000Y-143681500D01*
X179554000Y-143641500D02*
X177032000Y-143641500D01*
X184156000Y-143641500D02*
X181634000Y-143641500D01*
X179554000Y-143601500D02*
X177010000Y-143601500D01*
X184178000Y-143601500D02*
X181634000Y-143601500D01*
X179554000Y-143561500D02*
X176988000Y-143561500D01*
X184200000Y-143561500D02*
X181634000Y-143561500D01*
X179554000Y-143521500D02*
X176967000Y-143521500D01*
X184221000Y-143521500D02*
X181634000Y-143521500D01*
X179554000Y-143481500D02*
X176947000Y-143481500D01*
X184241000Y-143481500D02*
X181634000Y-143481500D01*
X179554000Y-143441500D02*
X176928000Y-143441500D01*
X184260000Y-143441500D02*
X181634000Y-143441500D01*
X179554000Y-143401500D02*
X176908000Y-143401500D01*
X184280000Y-143401500D02*
X181634000Y-143401500D01*
X179554000Y-143361500D02*
X176890000Y-143361500D01*
X184298000Y-143361500D02*
X181634000Y-143361500D01*
X179554000Y-143321500D02*
X176872000Y-143321500D01*
X184316000Y-143321500D02*
X181634000Y-143321500D01*
X179554000Y-143281500D02*
X176854000Y-143281500D01*
X184334000Y-143281500D02*
X181634000Y-143281500D01*
X179554000Y-143241500D02*
X176837000Y-143241500D01*
X184351000Y-143241500D02*
X181634000Y-143241500D01*
X179554000Y-143201500D02*
X176820000Y-143201500D01*
X184368000Y-143201500D02*
X181634000Y-143201500D01*
X179554000Y-143161500D02*
X176804000Y-143161500D01*
X184384000Y-143161500D02*
X181634000Y-143161500D01*
X179554000Y-143121500D02*
X176789000Y-143121500D01*
X184399000Y-143121500D02*
X181634000Y-143121500D01*
X179554000Y-143081500D02*
X176773000Y-143081500D01*
X184415000Y-143081500D02*
X181634000Y-143081500D01*
X179554000Y-143041500D02*
X176759000Y-143041500D01*
X184429000Y-143041500D02*
X181634000Y-143041500D01*
X179554000Y-143001500D02*
X176744000Y-143001500D01*
X184444000Y-143001500D02*
X181634000Y-143001500D01*
X179554000Y-142961500D02*
X176731000Y-142961500D01*
X184457000Y-142961500D02*
X181634000Y-142961500D01*
X179554000Y-142921500D02*
X176717000Y-142921500D01*
X184471000Y-142921500D02*
X181634000Y-142921500D01*
X179554000Y-142881500D02*
X176705000Y-142881500D01*
X184483000Y-142881500D02*
X181634000Y-142881500D01*
X179554000Y-142841500D02*
X176692000Y-142841500D01*
X184496000Y-142841500D02*
X181634000Y-142841500D01*
X179554000Y-142801500D02*
X176680000Y-142801500D01*
X184508000Y-142801500D02*
X181634000Y-142801500D01*
X179554000Y-142761500D02*
X176669000Y-142761500D01*
X184519000Y-142761500D02*
X181634000Y-142761500D01*
X179554000Y-142721500D02*
X176658000Y-142721500D01*
X184530000Y-142721500D02*
X181634000Y-142721500D01*
X179554000Y-142681500D02*
X176647000Y-142681500D01*
X184541000Y-142681500D02*
X181634000Y-142681500D01*
X179554000Y-142641500D02*
X176637000Y-142641500D01*
X184551000Y-142641500D02*
X181634000Y-142641500D01*
X179554000Y-142601500D02*
X176627000Y-142601500D01*
X184561000Y-142601500D02*
X181634000Y-142601500D01*
X179554000Y-142561500D02*
X176618000Y-142561500D01*
X184570000Y-142561500D02*
X181634000Y-142561500D01*
X179554000Y-142521500D02*
X176609000Y-142521500D01*
X184579000Y-142521500D02*
X181634000Y-142521500D01*
X179554000Y-142481500D02*
X176600000Y-142481500D01*
X184588000Y-142481500D02*
X181634000Y-142481500D01*
X179554000Y-142441500D02*
X176592000Y-142441500D01*
X184596000Y-142441500D02*
X181634000Y-142441500D01*
X179554000Y-142401500D02*
X176584000Y-142401500D01*
X184604000Y-142401500D02*
X181634000Y-142401500D01*
X179554000Y-142361500D02*
X176577000Y-142361500D01*
X184611000Y-142361500D02*
X181634000Y-142361500D01*
X184618000Y-142320500D02*
X176570000Y-142320500D01*
X184624000Y-142280500D02*
X176564000Y-142280500D01*
X184631000Y-142240500D02*
X176557000Y-142240500D01*
X184636000Y-142200500D02*
X176552000Y-142200500D01*
X184642000Y-142160500D02*
X176546000Y-142160500D01*
X184646000Y-142120500D02*
X176542000Y-142120500D01*
X184651000Y-142080500D02*
X176537000Y-142080500D01*
X184655000Y-142040500D02*
X176533000Y-142040500D01*
X184659000Y-142000500D02*
X176529000Y-142000500D01*
X184662000Y-141960500D02*
X176526000Y-141960500D01*
X184665000Y-141920500D02*
X176523000Y-141920500D01*
X184668000Y-141880500D02*
X176520000Y-141880500D01*
X184670000Y-141840500D02*
X176518000Y-141840500D01*
X184671000Y-141800500D02*
X176517000Y-141800500D01*
X184673000Y-141760500D02*
X176515000Y-141760500D01*
X184674000Y-141720500D02*
X176514000Y-141720500D01*
X184674000Y-141680500D02*
X176514000Y-141680500D01*
X184674000Y-141640500D02*
X176514000Y-141640500D01*
X184714000Y-141640500D02*
G75*
G03*
X184714000Y-141640500I-4120000J0D01*
G01*
X183309000Y-98006802D02*
X182509000Y-98006802D01*
X182909000Y-97606802D02*
X182909000Y-98406802D01*
X181127000Y-106097500D02*
X180061000Y-106097500D01*
X181362000Y-106057500D02*
X179826000Y-106057500D01*
X181542000Y-106017500D02*
X179646000Y-106017500D01*
X181692000Y-105977500D02*
X179496000Y-105977500D01*
X181823000Y-105937500D02*
X179365000Y-105937500D01*
X181940000Y-105897500D02*
X179248000Y-105897500D01*
X182047000Y-105857500D02*
X179141000Y-105857500D01*
X182146000Y-105817500D02*
X179042000Y-105817500D01*
X182239000Y-105777500D02*
X178949000Y-105777500D01*
X182325000Y-105737500D02*
X178863000Y-105737500D01*
X182407000Y-105697500D02*
X178781000Y-105697500D01*
X182484000Y-105657500D02*
X178704000Y-105657500D01*
X182558000Y-105617500D02*
X178630000Y-105617500D01*
X182628000Y-105577500D02*
X178560000Y-105577500D01*
X182696000Y-105537500D02*
X178492000Y-105537500D01*
X182760000Y-105497500D02*
X178428000Y-105497500D01*
X182822000Y-105457500D02*
X178366000Y-105457500D01*
X182881000Y-105417500D02*
X178307000Y-105417500D01*
X182939000Y-105377500D02*
X178249000Y-105377500D01*
X182994000Y-105337500D02*
X178194000Y-105337500D01*
X183048000Y-105297500D02*
X178140000Y-105297500D01*
X183099000Y-105257500D02*
X178089000Y-105257500D01*
X183150000Y-105217500D02*
X178038000Y-105217500D01*
X183198000Y-105177500D02*
X177990000Y-105177500D01*
X183245000Y-105137500D02*
X177943000Y-105137500D01*
X183291000Y-105097500D02*
X177897000Y-105097500D01*
X183335000Y-105057500D02*
X177853000Y-105057500D01*
X183378000Y-105017500D02*
X177810000Y-105017500D01*
X183420000Y-104977500D02*
X177768000Y-104977500D01*
X183461000Y-104937500D02*
X177727000Y-104937500D01*
X183501000Y-104897500D02*
X177687000Y-104897500D01*
X183539000Y-104857500D02*
X177649000Y-104857500D01*
X183577000Y-104817500D02*
X177611000Y-104817500D01*
X179554000Y-104777500D02*
X177575000Y-104777500D01*
X183613000Y-104777500D02*
X181634000Y-104777500D01*
X179554000Y-104737500D02*
X177539000Y-104737500D01*
X183649000Y-104737500D02*
X181634000Y-104737500D01*
X179554000Y-104697500D02*
X177504000Y-104697500D01*
X183684000Y-104697500D02*
X181634000Y-104697500D01*
X179554000Y-104657500D02*
X177470000Y-104657500D01*
X183718000Y-104657500D02*
X181634000Y-104657500D01*
X179554000Y-104617500D02*
X177438000Y-104617500D01*
X183750000Y-104617500D02*
X181634000Y-104617500D01*
X179554000Y-104577500D02*
X177405000Y-104577500D01*
X183783000Y-104577500D02*
X181634000Y-104577500D01*
X179554000Y-104537500D02*
X177374000Y-104537500D01*
X183814000Y-104537500D02*
X181634000Y-104537500D01*
X179554000Y-104497500D02*
X177344000Y-104497500D01*
X183844000Y-104497500D02*
X181634000Y-104497500D01*
X179554000Y-104457500D02*
X177314000Y-104457500D01*
X183874000Y-104457500D02*
X181634000Y-104457500D01*
X179554000Y-104417500D02*
X177285000Y-104417500D01*
X183903000Y-104417500D02*
X181634000Y-104417500D01*
X179554000Y-104377500D02*
X177256000Y-104377500D01*
X183932000Y-104377500D02*
X181634000Y-104377500D01*
X179554000Y-104337500D02*
X177229000Y-104337500D01*
X183959000Y-104337500D02*
X181634000Y-104337500D01*
X179554000Y-104297500D02*
X177202000Y-104297500D01*
X183986000Y-104297500D02*
X181634000Y-104297500D01*
X179554000Y-104257500D02*
X177176000Y-104257500D01*
X184012000Y-104257500D02*
X181634000Y-104257500D01*
X179554000Y-104217500D02*
X177150000Y-104217500D01*
X184038000Y-104217500D02*
X181634000Y-104217500D01*
X179554000Y-104177500D02*
X177125000Y-104177500D01*
X184063000Y-104177500D02*
X181634000Y-104177500D01*
X179554000Y-104137500D02*
X177101000Y-104137500D01*
X184087000Y-104137500D02*
X181634000Y-104137500D01*
X179554000Y-104097500D02*
X177077000Y-104097500D01*
X184111000Y-104097500D02*
X181634000Y-104097500D01*
X179554000Y-104057500D02*
X177054000Y-104057500D01*
X184134000Y-104057500D02*
X181634000Y-104057500D01*
X179554000Y-104017500D02*
X177032000Y-104017500D01*
X184156000Y-104017500D02*
X181634000Y-104017500D01*
X179554000Y-103977500D02*
X177010000Y-103977500D01*
X184178000Y-103977500D02*
X181634000Y-103977500D01*
X179554000Y-103937500D02*
X176988000Y-103937500D01*
X184200000Y-103937500D02*
X181634000Y-103937500D01*
X179554000Y-103897500D02*
X176967000Y-103897500D01*
X184221000Y-103897500D02*
X181634000Y-103897500D01*
X179554000Y-103857500D02*
X176947000Y-103857500D01*
X184241000Y-103857500D02*
X181634000Y-103857500D01*
X179554000Y-103817500D02*
X176928000Y-103817500D01*
X184260000Y-103817500D02*
X181634000Y-103817500D01*
X179554000Y-103777500D02*
X176908000Y-103777500D01*
X184280000Y-103777500D02*
X181634000Y-103777500D01*
X179554000Y-103737500D02*
X176890000Y-103737500D01*
X184298000Y-103737500D02*
X181634000Y-103737500D01*
X179554000Y-103697500D02*
X176872000Y-103697500D01*
X184316000Y-103697500D02*
X181634000Y-103697500D01*
X179554000Y-103657500D02*
X176854000Y-103657500D01*
X184334000Y-103657500D02*
X181634000Y-103657500D01*
X179554000Y-103617500D02*
X176837000Y-103617500D01*
X184351000Y-103617500D02*
X181634000Y-103617500D01*
X179554000Y-103577500D02*
X176820000Y-103577500D01*
X184368000Y-103577500D02*
X181634000Y-103577500D01*
X179554000Y-103537500D02*
X176804000Y-103537500D01*
X184384000Y-103537500D02*
X181634000Y-103537500D01*
X179554000Y-103497500D02*
X176789000Y-103497500D01*
X184399000Y-103497500D02*
X181634000Y-103497500D01*
X179554000Y-103457500D02*
X176773000Y-103457500D01*
X184415000Y-103457500D02*
X181634000Y-103457500D01*
X179554000Y-103417500D02*
X176759000Y-103417500D01*
X184429000Y-103417500D02*
X181634000Y-103417500D01*
X179554000Y-103377500D02*
X176744000Y-103377500D01*
X184444000Y-103377500D02*
X181634000Y-103377500D01*
X179554000Y-103337500D02*
X176731000Y-103337500D01*
X184457000Y-103337500D02*
X181634000Y-103337500D01*
X179554000Y-103297500D02*
X176717000Y-103297500D01*
X184471000Y-103297500D02*
X181634000Y-103297500D01*
X179554000Y-103257500D02*
X176705000Y-103257500D01*
X184483000Y-103257500D02*
X181634000Y-103257500D01*
X179554000Y-103217500D02*
X176692000Y-103217500D01*
X184496000Y-103217500D02*
X181634000Y-103217500D01*
X179554000Y-103177500D02*
X176680000Y-103177500D01*
X184508000Y-103177500D02*
X181634000Y-103177500D01*
X179554000Y-103137500D02*
X176669000Y-103137500D01*
X184519000Y-103137500D02*
X181634000Y-103137500D01*
X179554000Y-103097500D02*
X176658000Y-103097500D01*
X184530000Y-103097500D02*
X181634000Y-103097500D01*
X179554000Y-103057500D02*
X176647000Y-103057500D01*
X184541000Y-103057500D02*
X181634000Y-103057500D01*
X179554000Y-103017500D02*
X176637000Y-103017500D01*
X184551000Y-103017500D02*
X181634000Y-103017500D01*
X179554000Y-102977500D02*
X176627000Y-102977500D01*
X184561000Y-102977500D02*
X181634000Y-102977500D01*
X179554000Y-102937500D02*
X176618000Y-102937500D01*
X184570000Y-102937500D02*
X181634000Y-102937500D01*
X179554000Y-102897500D02*
X176609000Y-102897500D01*
X184579000Y-102897500D02*
X181634000Y-102897500D01*
X179554000Y-102857500D02*
X176600000Y-102857500D01*
X184588000Y-102857500D02*
X181634000Y-102857500D01*
X179554000Y-102817500D02*
X176592000Y-102817500D01*
X184596000Y-102817500D02*
X181634000Y-102817500D01*
X179554000Y-102777500D02*
X176584000Y-102777500D01*
X184604000Y-102777500D02*
X181634000Y-102777500D01*
X179554000Y-102737500D02*
X176577000Y-102737500D01*
X184611000Y-102737500D02*
X181634000Y-102737500D01*
X184618000Y-102696500D02*
X176570000Y-102696500D01*
X184624000Y-102656500D02*
X176564000Y-102656500D01*
X184631000Y-102616500D02*
X176557000Y-102616500D01*
X184636000Y-102576500D02*
X176552000Y-102576500D01*
X184642000Y-102536500D02*
X176546000Y-102536500D01*
X184646000Y-102496500D02*
X176542000Y-102496500D01*
X184651000Y-102456500D02*
X176537000Y-102456500D01*
X184655000Y-102416500D02*
X176533000Y-102416500D01*
X184659000Y-102376500D02*
X176529000Y-102376500D01*
X184662000Y-102336500D02*
X176526000Y-102336500D01*
X184665000Y-102296500D02*
X176523000Y-102296500D01*
X184668000Y-102256500D02*
X176520000Y-102256500D01*
X184670000Y-102216500D02*
X176518000Y-102216500D01*
X184671000Y-102176500D02*
X176517000Y-102176500D01*
X184673000Y-102136500D02*
X176515000Y-102136500D01*
X184674000Y-102096500D02*
X176514000Y-102096500D01*
X184674000Y-102056500D02*
X176514000Y-102056500D01*
X184674000Y-102016500D02*
X176514000Y-102016500D01*
X184714000Y-102016500D02*
G75*
G03*
X184714000Y-102016500I-4120000J0D01*
G01*
X191770500Y-136398000D02*
G75*
G03*
X191770500Y-136398000I-2620000J0D01*
G01*
X189150500Y-137438000D02*
X189150500Y-138978000D01*
X189150500Y-133818000D02*
X189150500Y-135358000D01*
X189190500Y-137438000D02*
X189190500Y-138978000D01*
X189190500Y-133818000D02*
X189190500Y-135358000D01*
X189230500Y-133819000D02*
X189230500Y-135358000D01*
X189230500Y-137438000D02*
X189230500Y-138977000D01*
X189270500Y-133820000D02*
X189270500Y-135358000D01*
X189270500Y-137438000D02*
X189270500Y-138976000D01*
X189310500Y-133822000D02*
X189310500Y-135358000D01*
X189310500Y-137438000D02*
X189310500Y-138974000D01*
X189350500Y-133825000D02*
X189350500Y-135358000D01*
X189350500Y-137438000D02*
X189350500Y-138971000D01*
X189390500Y-133829000D02*
X189390500Y-135358000D01*
X189390500Y-137438000D02*
X189390500Y-138967000D01*
X189430500Y-133833000D02*
X189430500Y-135358000D01*
X189430500Y-137438000D02*
X189430500Y-138963000D01*
X189470500Y-133837000D02*
X189470500Y-135358000D01*
X189470500Y-137438000D02*
X189470500Y-138959000D01*
X189510500Y-133842000D02*
X189510500Y-135358000D01*
X189510500Y-137438000D02*
X189510500Y-138954000D01*
X189550500Y-133848000D02*
X189550500Y-135358000D01*
X189550500Y-137438000D02*
X189550500Y-138948000D01*
X189590500Y-133855000D02*
X189590500Y-135358000D01*
X189590500Y-137438000D02*
X189590500Y-138941000D01*
X189630500Y-133862000D02*
X189630500Y-135358000D01*
X189630500Y-137438000D02*
X189630500Y-138934000D01*
X189670500Y-133870000D02*
X189670500Y-135358000D01*
X189670500Y-137438000D02*
X189670500Y-138926000D01*
X189710500Y-133878000D02*
X189710500Y-135358000D01*
X189710500Y-137438000D02*
X189710500Y-138918000D01*
X189750500Y-133887000D02*
X189750500Y-135358000D01*
X189750500Y-137438000D02*
X189750500Y-138909000D01*
X189790500Y-133897000D02*
X189790500Y-135358000D01*
X189790500Y-137438000D02*
X189790500Y-138899000D01*
X189830500Y-133907000D02*
X189830500Y-135358000D01*
X189830500Y-137438000D02*
X189830500Y-138889000D01*
X189871500Y-133918000D02*
X189871500Y-135358000D01*
X189871500Y-137438000D02*
X189871500Y-138878000D01*
X189911500Y-133930000D02*
X189911500Y-135358000D01*
X189911500Y-137438000D02*
X189911500Y-138866000D01*
X189951500Y-133943000D02*
X189951500Y-135358000D01*
X189951500Y-137438000D02*
X189951500Y-138853000D01*
X189991500Y-133956000D02*
X189991500Y-135358000D01*
X189991500Y-137438000D02*
X189991500Y-138840000D01*
X190031500Y-133970000D02*
X190031500Y-135358000D01*
X190031500Y-137438000D02*
X190031500Y-138826000D01*
X190071500Y-133984000D02*
X190071500Y-135358000D01*
X190071500Y-137438000D02*
X190071500Y-138812000D01*
X190111500Y-134000000D02*
X190111500Y-135358000D01*
X190111500Y-137438000D02*
X190111500Y-138796000D01*
X190151500Y-134016000D02*
X190151500Y-135358000D01*
X190151500Y-137438000D02*
X190151500Y-138780000D01*
X190191500Y-134033000D02*
X190191500Y-135358000D01*
X190191500Y-137438000D02*
X190191500Y-138763000D01*
X190231500Y-134050000D02*
X190231500Y-135358000D01*
X190231500Y-137438000D02*
X190231500Y-138746000D01*
X190271500Y-134069000D02*
X190271500Y-135358000D01*
X190271500Y-137438000D02*
X190271500Y-138727000D01*
X190311500Y-134088000D02*
X190311500Y-135358000D01*
X190311500Y-137438000D02*
X190311500Y-138708000D01*
X190351500Y-134108000D02*
X190351500Y-135358000D01*
X190351500Y-137438000D02*
X190351500Y-138688000D01*
X190391500Y-134130000D02*
X190391500Y-135358000D01*
X190391500Y-137438000D02*
X190391500Y-138666000D01*
X190431500Y-134151000D02*
X190431500Y-135358000D01*
X190431500Y-137438000D02*
X190431500Y-138645000D01*
X190471500Y-134174000D02*
X190471500Y-135358000D01*
X190471500Y-137438000D02*
X190471500Y-138622000D01*
X190511500Y-134198000D02*
X190511500Y-135358000D01*
X190511500Y-137438000D02*
X190511500Y-138598000D01*
X190551500Y-134223000D02*
X190551500Y-135358000D01*
X190551500Y-137438000D02*
X190551500Y-138573000D01*
X190591500Y-134249000D02*
X190591500Y-135358000D01*
X190591500Y-137438000D02*
X190591500Y-138547000D01*
X190631500Y-134276000D02*
X190631500Y-135358000D01*
X190631500Y-137438000D02*
X190631500Y-138520000D01*
X190671500Y-134303000D02*
X190671500Y-135358000D01*
X190671500Y-137438000D02*
X190671500Y-138493000D01*
X190711500Y-134333000D02*
X190711500Y-135358000D01*
X190711500Y-137438000D02*
X190711500Y-138463000D01*
X190751500Y-134363000D02*
X190751500Y-135358000D01*
X190751500Y-137438000D02*
X190751500Y-138433000D01*
X190791500Y-134394000D02*
X190791500Y-135358000D01*
X190791500Y-137438000D02*
X190791500Y-138402000D01*
X190831500Y-134427000D02*
X190831500Y-135358000D01*
X190831500Y-137438000D02*
X190831500Y-138369000D01*
X190871500Y-134461000D02*
X190871500Y-135358000D01*
X190871500Y-137438000D02*
X190871500Y-138335000D01*
X190911500Y-134497000D02*
X190911500Y-135358000D01*
X190911500Y-137438000D02*
X190911500Y-138299000D01*
X190951500Y-134534000D02*
X190951500Y-135358000D01*
X190951500Y-137438000D02*
X190951500Y-138262000D01*
X190991500Y-134572000D02*
X190991500Y-135358000D01*
X190991500Y-137438000D02*
X190991500Y-138224000D01*
X191031500Y-134613000D02*
X191031500Y-135358000D01*
X191031500Y-137438000D02*
X191031500Y-138183000D01*
X191071500Y-134655000D02*
X191071500Y-135358000D01*
X191071500Y-137438000D02*
X191071500Y-138141000D01*
X191111500Y-134699000D02*
X191111500Y-135358000D01*
X191111500Y-137438000D02*
X191111500Y-138097000D01*
X191151500Y-134745000D02*
X191151500Y-135358000D01*
X191151500Y-137438000D02*
X191151500Y-138051000D01*
X191191500Y-134793000D02*
X191191500Y-138003000D01*
X191231500Y-134844000D02*
X191231500Y-137952000D01*
X191271500Y-134898000D02*
X191271500Y-137898000D01*
X191311500Y-134955000D02*
X191311500Y-137841000D01*
X191351500Y-135015000D02*
X191351500Y-137781000D01*
X191391500Y-135079000D02*
X191391500Y-137717000D01*
X191431500Y-135147000D02*
X191431500Y-137649000D01*
X191471500Y-135220000D02*
X191471500Y-137576000D01*
X191511500Y-135300000D02*
X191511500Y-137496000D01*
X191551500Y-135387000D02*
X191551500Y-137409000D01*
X191591500Y-135483000D02*
X191591500Y-137313000D01*
X191631500Y-135593000D02*
X191631500Y-137203000D01*
X191671500Y-135721000D02*
X191671500Y-137075000D01*
X191711500Y-135880000D02*
X191711500Y-136916000D01*
X191751500Y-136114000D02*
X191751500Y-136682000D01*
X186345725Y-134923000D02*
X186845725Y-134923000D01*
X186595725Y-134673000D02*
X186595725Y-135173000D01*
X197549000Y-135763000D02*
G75*
G03*
X197549000Y-135763000I-2620000J0D01*
G01*
X194929000Y-136803000D02*
X194929000Y-138343000D01*
X194929000Y-133183000D02*
X194929000Y-134723000D01*
X194969000Y-136803000D02*
X194969000Y-138343000D01*
X194969000Y-133183000D02*
X194969000Y-134723000D01*
X195009000Y-133184000D02*
X195009000Y-134723000D01*
X195009000Y-136803000D02*
X195009000Y-138342000D01*
X195049000Y-133185000D02*
X195049000Y-134723000D01*
X195049000Y-136803000D02*
X195049000Y-138341000D01*
X195089000Y-133187000D02*
X195089000Y-134723000D01*
X195089000Y-136803000D02*
X195089000Y-138339000D01*
X195129000Y-133190000D02*
X195129000Y-134723000D01*
X195129000Y-136803000D02*
X195129000Y-138336000D01*
X195169000Y-133194000D02*
X195169000Y-134723000D01*
X195169000Y-136803000D02*
X195169000Y-138332000D01*
X195209000Y-133198000D02*
X195209000Y-134723000D01*
X195209000Y-136803000D02*
X195209000Y-138328000D01*
X195249000Y-133202000D02*
X195249000Y-134723000D01*
X195249000Y-136803000D02*
X195249000Y-138324000D01*
X195289000Y-133207000D02*
X195289000Y-134723000D01*
X195289000Y-136803000D02*
X195289000Y-138319000D01*
X195329000Y-133213000D02*
X195329000Y-134723000D01*
X195329000Y-136803000D02*
X195329000Y-138313000D01*
X195369000Y-133220000D02*
X195369000Y-134723000D01*
X195369000Y-136803000D02*
X195369000Y-138306000D01*
X195409000Y-133227000D02*
X195409000Y-134723000D01*
X195409000Y-136803000D02*
X195409000Y-138299000D01*
X195449000Y-133235000D02*
X195449000Y-134723000D01*
X195449000Y-136803000D02*
X195449000Y-138291000D01*
X195489000Y-133243000D02*
X195489000Y-134723000D01*
X195489000Y-136803000D02*
X195489000Y-138283000D01*
X195529000Y-133252000D02*
X195529000Y-134723000D01*
X195529000Y-136803000D02*
X195529000Y-138274000D01*
X195569000Y-133262000D02*
X195569000Y-134723000D01*
X195569000Y-136803000D02*
X195569000Y-138264000D01*
X195609000Y-133272000D02*
X195609000Y-134723000D01*
X195609000Y-136803000D02*
X195609000Y-138254000D01*
X195650000Y-133283000D02*
X195650000Y-134723000D01*
X195650000Y-136803000D02*
X195650000Y-138243000D01*
X195690000Y-133295000D02*
X195690000Y-134723000D01*
X195690000Y-136803000D02*
X195690000Y-138231000D01*
X195730000Y-133308000D02*
X195730000Y-134723000D01*
X195730000Y-136803000D02*
X195730000Y-138218000D01*
X195770000Y-133321000D02*
X195770000Y-134723000D01*
X195770000Y-136803000D02*
X195770000Y-138205000D01*
X195810000Y-133335000D02*
X195810000Y-134723000D01*
X195810000Y-136803000D02*
X195810000Y-138191000D01*
X195850000Y-133349000D02*
X195850000Y-134723000D01*
X195850000Y-136803000D02*
X195850000Y-138177000D01*
X195890000Y-133365000D02*
X195890000Y-134723000D01*
X195890000Y-136803000D02*
X195890000Y-138161000D01*
X195930000Y-133381000D02*
X195930000Y-134723000D01*
X195930000Y-136803000D02*
X195930000Y-138145000D01*
X195970000Y-133398000D02*
X195970000Y-134723000D01*
X195970000Y-136803000D02*
X195970000Y-138128000D01*
X196010000Y-133415000D02*
X196010000Y-134723000D01*
X196010000Y-136803000D02*
X196010000Y-138111000D01*
X196050000Y-133434000D02*
X196050000Y-134723000D01*
X196050000Y-136803000D02*
X196050000Y-138092000D01*
X196090000Y-133453000D02*
X196090000Y-134723000D01*
X196090000Y-136803000D02*
X196090000Y-138073000D01*
X196130000Y-133473000D02*
X196130000Y-134723000D01*
X196130000Y-136803000D02*
X196130000Y-138053000D01*
X196170000Y-133495000D02*
X196170000Y-134723000D01*
X196170000Y-136803000D02*
X196170000Y-138031000D01*
X196210000Y-133516000D02*
X196210000Y-134723000D01*
X196210000Y-136803000D02*
X196210000Y-138010000D01*
X196250000Y-133539000D02*
X196250000Y-134723000D01*
X196250000Y-136803000D02*
X196250000Y-137987000D01*
X196290000Y-133563000D02*
X196290000Y-134723000D01*
X196290000Y-136803000D02*
X196290000Y-137963000D01*
X196330000Y-133588000D02*
X196330000Y-134723000D01*
X196330000Y-136803000D02*
X196330000Y-137938000D01*
X196370000Y-133614000D02*
X196370000Y-134723000D01*
X196370000Y-136803000D02*
X196370000Y-137912000D01*
X196410000Y-133641000D02*
X196410000Y-134723000D01*
X196410000Y-136803000D02*
X196410000Y-137885000D01*
X196450000Y-133668000D02*
X196450000Y-134723000D01*
X196450000Y-136803000D02*
X196450000Y-137858000D01*
X196490000Y-133698000D02*
X196490000Y-134723000D01*
X196490000Y-136803000D02*
X196490000Y-137828000D01*
X196530000Y-133728000D02*
X196530000Y-134723000D01*
X196530000Y-136803000D02*
X196530000Y-137798000D01*
X196570000Y-133759000D02*
X196570000Y-134723000D01*
X196570000Y-136803000D02*
X196570000Y-137767000D01*
X196610000Y-133792000D02*
X196610000Y-134723000D01*
X196610000Y-136803000D02*
X196610000Y-137734000D01*
X196650000Y-133826000D02*
X196650000Y-134723000D01*
X196650000Y-136803000D02*
X196650000Y-137700000D01*
X196690000Y-133862000D02*
X196690000Y-134723000D01*
X196690000Y-136803000D02*
X196690000Y-137664000D01*
X196730000Y-133899000D02*
X196730000Y-134723000D01*
X196730000Y-136803000D02*
X196730000Y-137627000D01*
X196770000Y-133937000D02*
X196770000Y-134723000D01*
X196770000Y-136803000D02*
X196770000Y-137589000D01*
X196810000Y-133978000D02*
X196810000Y-134723000D01*
X196810000Y-136803000D02*
X196810000Y-137548000D01*
X196850000Y-134020000D02*
X196850000Y-134723000D01*
X196850000Y-136803000D02*
X196850000Y-137506000D01*
X196890000Y-134064000D02*
X196890000Y-134723000D01*
X196890000Y-136803000D02*
X196890000Y-137462000D01*
X196930000Y-134110000D02*
X196930000Y-134723000D01*
X196930000Y-136803000D02*
X196930000Y-137416000D01*
X196970000Y-134158000D02*
X196970000Y-137368000D01*
X197010000Y-134209000D02*
X197010000Y-137317000D01*
X197050000Y-134263000D02*
X197050000Y-137263000D01*
X197090000Y-134320000D02*
X197090000Y-137206000D01*
X197130000Y-134380000D02*
X197130000Y-137146000D01*
X197170000Y-134444000D02*
X197170000Y-137082000D01*
X197210000Y-134512000D02*
X197210000Y-137014000D01*
X197250000Y-134585000D02*
X197250000Y-136941000D01*
X197290000Y-134665000D02*
X197290000Y-136861000D01*
X197330000Y-134752000D02*
X197330000Y-136774000D01*
X197370000Y-134848000D02*
X197370000Y-136678000D01*
X197410000Y-134958000D02*
X197410000Y-136568000D01*
X197450000Y-135086000D02*
X197450000Y-136440000D01*
X197490000Y-135245000D02*
X197490000Y-136281000D01*
X197530000Y-135479000D02*
X197530000Y-136047000D01*
X192124225Y-134288000D02*
X192624225Y-134288000D01*
X192374225Y-134038000D02*
X192374225Y-134538000D01*
X194263000Y-100346000D02*
G75*
G03*
X194263000Y-100346000I-2620000J0D01*
G01*
X192683000Y-100346000D02*
X194223000Y-100346000D01*
X189063000Y-100346000D02*
X190603000Y-100346000D01*
X192683000Y-100306000D02*
X194223000Y-100306000D01*
X189063000Y-100306000D02*
X190603000Y-100306000D01*
X189064000Y-100266000D02*
X190603000Y-100266000D01*
X192683000Y-100266000D02*
X194222000Y-100266000D01*
X189065000Y-100226000D02*
X190603000Y-100226000D01*
X192683000Y-100226000D02*
X194221000Y-100226000D01*
X189067000Y-100186000D02*
X190603000Y-100186000D01*
X192683000Y-100186000D02*
X194219000Y-100186000D01*
X189070000Y-100146000D02*
X190603000Y-100146000D01*
X192683000Y-100146000D02*
X194216000Y-100146000D01*
X189074000Y-100106000D02*
X190603000Y-100106000D01*
X192683000Y-100106000D02*
X194212000Y-100106000D01*
X189078000Y-100066000D02*
X190603000Y-100066000D01*
X192683000Y-100066000D02*
X194208000Y-100066000D01*
X189082000Y-100026000D02*
X190603000Y-100026000D01*
X192683000Y-100026000D02*
X194204000Y-100026000D01*
X189087000Y-99986000D02*
X190603000Y-99986000D01*
X192683000Y-99986000D02*
X194199000Y-99986000D01*
X189093000Y-99946000D02*
X190603000Y-99946000D01*
X192683000Y-99946000D02*
X194193000Y-99946000D01*
X189100000Y-99906000D02*
X190603000Y-99906000D01*
X192683000Y-99906000D02*
X194186000Y-99906000D01*
X189107000Y-99866000D02*
X190603000Y-99866000D01*
X192683000Y-99866000D02*
X194179000Y-99866000D01*
X189115000Y-99826000D02*
X190603000Y-99826000D01*
X192683000Y-99826000D02*
X194171000Y-99826000D01*
X189123000Y-99786000D02*
X190603000Y-99786000D01*
X192683000Y-99786000D02*
X194163000Y-99786000D01*
X189132000Y-99746000D02*
X190603000Y-99746000D01*
X192683000Y-99746000D02*
X194154000Y-99746000D01*
X189142000Y-99706000D02*
X190603000Y-99706000D01*
X192683000Y-99706000D02*
X194144000Y-99706000D01*
X189152000Y-99666000D02*
X190603000Y-99666000D01*
X192683000Y-99666000D02*
X194134000Y-99666000D01*
X189163000Y-99625000D02*
X190603000Y-99625000D01*
X192683000Y-99625000D02*
X194123000Y-99625000D01*
X189175000Y-99585000D02*
X190603000Y-99585000D01*
X192683000Y-99585000D02*
X194111000Y-99585000D01*
X189188000Y-99545000D02*
X190603000Y-99545000D01*
X192683000Y-99545000D02*
X194098000Y-99545000D01*
X189201000Y-99505000D02*
X190603000Y-99505000D01*
X192683000Y-99505000D02*
X194085000Y-99505000D01*
X189215000Y-99465000D02*
X190603000Y-99465000D01*
X192683000Y-99465000D02*
X194071000Y-99465000D01*
X189229000Y-99425000D02*
X190603000Y-99425000D01*
X192683000Y-99425000D02*
X194057000Y-99425000D01*
X189245000Y-99385000D02*
X190603000Y-99385000D01*
X192683000Y-99385000D02*
X194041000Y-99385000D01*
X189261000Y-99345000D02*
X190603000Y-99345000D01*
X192683000Y-99345000D02*
X194025000Y-99345000D01*
X189278000Y-99305000D02*
X190603000Y-99305000D01*
X192683000Y-99305000D02*
X194008000Y-99305000D01*
X189295000Y-99265000D02*
X190603000Y-99265000D01*
X192683000Y-99265000D02*
X193991000Y-99265000D01*
X189314000Y-99225000D02*
X190603000Y-99225000D01*
X192683000Y-99225000D02*
X193972000Y-99225000D01*
X189333000Y-99185000D02*
X190603000Y-99185000D01*
X192683000Y-99185000D02*
X193953000Y-99185000D01*
X189353000Y-99145000D02*
X190603000Y-99145000D01*
X192683000Y-99145000D02*
X193933000Y-99145000D01*
X189375000Y-99105000D02*
X190603000Y-99105000D01*
X192683000Y-99105000D02*
X193911000Y-99105000D01*
X189396000Y-99065000D02*
X190603000Y-99065000D01*
X192683000Y-99065000D02*
X193890000Y-99065000D01*
X189419000Y-99025000D02*
X190603000Y-99025000D01*
X192683000Y-99025000D02*
X193867000Y-99025000D01*
X189443000Y-98985000D02*
X190603000Y-98985000D01*
X192683000Y-98985000D02*
X193843000Y-98985000D01*
X189468000Y-98945000D02*
X190603000Y-98945000D01*
X192683000Y-98945000D02*
X193818000Y-98945000D01*
X189494000Y-98905000D02*
X190603000Y-98905000D01*
X192683000Y-98905000D02*
X193792000Y-98905000D01*
X189521000Y-98865000D02*
X190603000Y-98865000D01*
X192683000Y-98865000D02*
X193765000Y-98865000D01*
X189548000Y-98825000D02*
X190603000Y-98825000D01*
X192683000Y-98825000D02*
X193738000Y-98825000D01*
X189578000Y-98785000D02*
X190603000Y-98785000D01*
X192683000Y-98785000D02*
X193708000Y-98785000D01*
X189608000Y-98745000D02*
X190603000Y-98745000D01*
X192683000Y-98745000D02*
X193678000Y-98745000D01*
X189639000Y-98705000D02*
X190603000Y-98705000D01*
X192683000Y-98705000D02*
X193647000Y-98705000D01*
X189672000Y-98665000D02*
X190603000Y-98665000D01*
X192683000Y-98665000D02*
X193614000Y-98665000D01*
X189706000Y-98625000D02*
X190603000Y-98625000D01*
X192683000Y-98625000D02*
X193580000Y-98625000D01*
X189742000Y-98585000D02*
X190603000Y-98585000D01*
X192683000Y-98585000D02*
X193544000Y-98585000D01*
X189779000Y-98545000D02*
X190603000Y-98545000D01*
X192683000Y-98545000D02*
X193507000Y-98545000D01*
X189817000Y-98505000D02*
X190603000Y-98505000D01*
X192683000Y-98505000D02*
X193469000Y-98505000D01*
X189858000Y-98465000D02*
X190603000Y-98465000D01*
X192683000Y-98465000D02*
X193428000Y-98465000D01*
X189900000Y-98425000D02*
X190603000Y-98425000D01*
X192683000Y-98425000D02*
X193386000Y-98425000D01*
X189944000Y-98385000D02*
X190603000Y-98385000D01*
X192683000Y-98385000D02*
X193342000Y-98385000D01*
X189990000Y-98345000D02*
X190603000Y-98345000D01*
X192683000Y-98345000D02*
X193296000Y-98345000D01*
X190038000Y-98305000D02*
X193248000Y-98305000D01*
X190089000Y-98265000D02*
X193197000Y-98265000D01*
X190143000Y-98225000D02*
X193143000Y-98225000D01*
X190200000Y-98185000D02*
X193086000Y-98185000D01*
X190260000Y-98145000D02*
X193026000Y-98145000D01*
X190324000Y-98105000D02*
X192962000Y-98105000D01*
X190392000Y-98065000D02*
X192894000Y-98065000D01*
X190465000Y-98025000D02*
X192821000Y-98025000D01*
X190545000Y-97985000D02*
X192741000Y-97985000D01*
X190632000Y-97945000D02*
X192654000Y-97945000D01*
X190728000Y-97905000D02*
X192558000Y-97905000D01*
X190838000Y-97865000D02*
X192448000Y-97865000D01*
X190966000Y-97825000D02*
X192320000Y-97825000D01*
X191125000Y-97785000D02*
X192161000Y-97785000D01*
X191359000Y-97745000D02*
X191927000Y-97745000D01*
X190168000Y-103150775D02*
X190168000Y-102650775D01*
X189918000Y-102900775D02*
X190418000Y-102900775D01*
X199089000Y-107426000D02*
G75*
G03*
X199089000Y-107426000I-2620000J0D01*
G01*
X197509000Y-107426000D02*
X199049000Y-107426000D01*
X193889000Y-107426000D02*
X195429000Y-107426000D01*
X197509000Y-107386000D02*
X199049000Y-107386000D01*
X193889000Y-107386000D02*
X195429000Y-107386000D01*
X193890000Y-107346000D02*
X195429000Y-107346000D01*
X197509000Y-107346000D02*
X199048000Y-107346000D01*
X193891000Y-107306000D02*
X195429000Y-107306000D01*
X197509000Y-107306000D02*
X199047000Y-107306000D01*
X193893000Y-107266000D02*
X195429000Y-107266000D01*
X197509000Y-107266000D02*
X199045000Y-107266000D01*
X193896000Y-107226000D02*
X195429000Y-107226000D01*
X197509000Y-107226000D02*
X199042000Y-107226000D01*
X193900000Y-107186000D02*
X195429000Y-107186000D01*
X197509000Y-107186000D02*
X199038000Y-107186000D01*
X193904000Y-107146000D02*
X195429000Y-107146000D01*
X197509000Y-107146000D02*
X199034000Y-107146000D01*
X193908000Y-107106000D02*
X195429000Y-107106000D01*
X197509000Y-107106000D02*
X199030000Y-107106000D01*
X193913000Y-107066000D02*
X195429000Y-107066000D01*
X197509000Y-107066000D02*
X199025000Y-107066000D01*
X193919000Y-107026000D02*
X195429000Y-107026000D01*
X197509000Y-107026000D02*
X199019000Y-107026000D01*
X193926000Y-106986000D02*
X195429000Y-106986000D01*
X197509000Y-106986000D02*
X199012000Y-106986000D01*
X193933000Y-106946000D02*
X195429000Y-106946000D01*
X197509000Y-106946000D02*
X199005000Y-106946000D01*
X193941000Y-106906000D02*
X195429000Y-106906000D01*
X197509000Y-106906000D02*
X198997000Y-106906000D01*
X193949000Y-106866000D02*
X195429000Y-106866000D01*
X197509000Y-106866000D02*
X198989000Y-106866000D01*
X193958000Y-106826000D02*
X195429000Y-106826000D01*
X197509000Y-106826000D02*
X198980000Y-106826000D01*
X193968000Y-106786000D02*
X195429000Y-106786000D01*
X197509000Y-106786000D02*
X198970000Y-106786000D01*
X193978000Y-106746000D02*
X195429000Y-106746000D01*
X197509000Y-106746000D02*
X198960000Y-106746000D01*
X193989000Y-106705000D02*
X195429000Y-106705000D01*
X197509000Y-106705000D02*
X198949000Y-106705000D01*
X194001000Y-106665000D02*
X195429000Y-106665000D01*
X197509000Y-106665000D02*
X198937000Y-106665000D01*
X194014000Y-106625000D02*
X195429000Y-106625000D01*
X197509000Y-106625000D02*
X198924000Y-106625000D01*
X194027000Y-106585000D02*
X195429000Y-106585000D01*
X197509000Y-106585000D02*
X198911000Y-106585000D01*
X194041000Y-106545000D02*
X195429000Y-106545000D01*
X197509000Y-106545000D02*
X198897000Y-106545000D01*
X194055000Y-106505000D02*
X195429000Y-106505000D01*
X197509000Y-106505000D02*
X198883000Y-106505000D01*
X194071000Y-106465000D02*
X195429000Y-106465000D01*
X197509000Y-106465000D02*
X198867000Y-106465000D01*
X194087000Y-106425000D02*
X195429000Y-106425000D01*
X197509000Y-106425000D02*
X198851000Y-106425000D01*
X194104000Y-106385000D02*
X195429000Y-106385000D01*
X197509000Y-106385000D02*
X198834000Y-106385000D01*
X194121000Y-106345000D02*
X195429000Y-106345000D01*
X197509000Y-106345000D02*
X198817000Y-106345000D01*
X194140000Y-106305000D02*
X195429000Y-106305000D01*
X197509000Y-106305000D02*
X198798000Y-106305000D01*
X194159000Y-106265000D02*
X195429000Y-106265000D01*
X197509000Y-106265000D02*
X198779000Y-106265000D01*
X194179000Y-106225000D02*
X195429000Y-106225000D01*
X197509000Y-106225000D02*
X198759000Y-106225000D01*
X194201000Y-106185000D02*
X195429000Y-106185000D01*
X197509000Y-106185000D02*
X198737000Y-106185000D01*
X194222000Y-106145000D02*
X195429000Y-106145000D01*
X197509000Y-106145000D02*
X198716000Y-106145000D01*
X194245000Y-106105000D02*
X195429000Y-106105000D01*
X197509000Y-106105000D02*
X198693000Y-106105000D01*
X194269000Y-106065000D02*
X195429000Y-106065000D01*
X197509000Y-106065000D02*
X198669000Y-106065000D01*
X194294000Y-106025000D02*
X195429000Y-106025000D01*
X197509000Y-106025000D02*
X198644000Y-106025000D01*
X194320000Y-105985000D02*
X195429000Y-105985000D01*
X197509000Y-105985000D02*
X198618000Y-105985000D01*
X194347000Y-105945000D02*
X195429000Y-105945000D01*
X197509000Y-105945000D02*
X198591000Y-105945000D01*
X194374000Y-105905000D02*
X195429000Y-105905000D01*
X197509000Y-105905000D02*
X198564000Y-105905000D01*
X194404000Y-105865000D02*
X195429000Y-105865000D01*
X197509000Y-105865000D02*
X198534000Y-105865000D01*
X194434000Y-105825000D02*
X195429000Y-105825000D01*
X197509000Y-105825000D02*
X198504000Y-105825000D01*
X194465000Y-105785000D02*
X195429000Y-105785000D01*
X197509000Y-105785000D02*
X198473000Y-105785000D01*
X194498000Y-105745000D02*
X195429000Y-105745000D01*
X197509000Y-105745000D02*
X198440000Y-105745000D01*
X194532000Y-105705000D02*
X195429000Y-105705000D01*
X197509000Y-105705000D02*
X198406000Y-105705000D01*
X194568000Y-105665000D02*
X195429000Y-105665000D01*
X197509000Y-105665000D02*
X198370000Y-105665000D01*
X194605000Y-105625000D02*
X195429000Y-105625000D01*
X197509000Y-105625000D02*
X198333000Y-105625000D01*
X194643000Y-105585000D02*
X195429000Y-105585000D01*
X197509000Y-105585000D02*
X198295000Y-105585000D01*
X194684000Y-105545000D02*
X195429000Y-105545000D01*
X197509000Y-105545000D02*
X198254000Y-105545000D01*
X194726000Y-105505000D02*
X195429000Y-105505000D01*
X197509000Y-105505000D02*
X198212000Y-105505000D01*
X194770000Y-105465000D02*
X195429000Y-105465000D01*
X197509000Y-105465000D02*
X198168000Y-105465000D01*
X194816000Y-105425000D02*
X195429000Y-105425000D01*
X197509000Y-105425000D02*
X198122000Y-105425000D01*
X194864000Y-105385000D02*
X198074000Y-105385000D01*
X194915000Y-105345000D02*
X198023000Y-105345000D01*
X194969000Y-105305000D02*
X197969000Y-105305000D01*
X195026000Y-105265000D02*
X197912000Y-105265000D01*
X195086000Y-105225000D02*
X197852000Y-105225000D01*
X195150000Y-105185000D02*
X197788000Y-105185000D01*
X195218000Y-105145000D02*
X197720000Y-105145000D01*
X195291000Y-105105000D02*
X197647000Y-105105000D01*
X195371000Y-105065000D02*
X197567000Y-105065000D01*
X195458000Y-105025000D02*
X197480000Y-105025000D01*
X195554000Y-104985000D02*
X197384000Y-104985000D01*
X195664000Y-104945000D02*
X197274000Y-104945000D01*
X195792000Y-104905000D02*
X197146000Y-104905000D01*
X195951000Y-104865000D02*
X196987000Y-104865000D01*
X196185000Y-104825000D02*
X196753000Y-104825000D01*
X194994000Y-110230775D02*
X194994000Y-109730775D01*
X194744000Y-109980775D02*
X195244000Y-109980775D01*
X189981064Y-139981000D02*
X189526936Y-139981000D01*
X189981064Y-141451000D02*
X189526936Y-141451000D01*
X190870064Y-103786000D02*
X190415936Y-103786000D01*
X190870064Y-105256000D02*
X190415936Y-105256000D01*
X190908000Y-107230936D02*
X190908000Y-107685064D01*
X192378000Y-107230936D02*
X192378000Y-107685064D01*
X150077500Y-144603000D02*
X150077500Y-137163000D01*
X152817500Y-144603000D02*
X152817500Y-137163000D01*
X150077500Y-144603000D02*
X152817500Y-144603000D01*
X150077500Y-137163000D02*
X152817500Y-137163000D01*
X149252000Y-106486500D02*
X149252000Y-99046500D01*
X151992000Y-106486500D02*
X151992000Y-99046500D01*
X149252000Y-106486500D02*
X151992000Y-106486500D01*
X149252000Y-99046500D02*
X151992000Y-99046500D01*
X177913500Y-129440000D02*
X185353500Y-129440000D01*
X177913500Y-132180000D02*
X185353500Y-132180000D01*
X177913500Y-129440000D02*
X177913500Y-132180000D01*
X185353500Y-129440000D02*
X185353500Y-132180000D01*
X184862000Y-112241000D02*
X177422000Y-112241000D01*
X184862000Y-109501000D02*
X177422000Y-109501000D01*
X184862000Y-112241000D02*
X184862000Y-109501000D01*
X177422000Y-112241000D02*
X177422000Y-109501000D01*
X185553400Y-119354600D02*
G75*
G03*
X185553400Y-119354600I-1251000J0D01*
G01*
X185502600Y-125907800D02*
G75*
G03*
X185502600Y-125907800I-1251000J0D01*
G01*
X199625000Y-121920000D02*
G75*
G03*
X199625000Y-121920000I-1251000J0D01*
G01*
X126854000Y-127508000D02*
G75*
G03*
X126854000Y-127508000I-1251000J0D01*
G01*
X199625000Y-130810000D02*
G75*
G03*
X199625000Y-130810000I-1251000J0D01*
G01*
X126854000Y-119634000D02*
G75*
G03*
X126854000Y-119634000I-1251000J0D01*
G01*
X199625000Y-113030000D02*
G75*
G03*
X199625000Y-113030000I-1251000J0D01*
G01*
X148262500Y-134638000D02*
X148262500Y-136098000D01*
X145102500Y-134638000D02*
X145102500Y-136798000D01*
X145102500Y-134638000D02*
X146032500Y-134638000D01*
X148262500Y-134638000D02*
X147332500Y-134638000D01*
X174897000Y-129227500D02*
X176357000Y-129227500D01*
X174897000Y-132387500D02*
X177057000Y-132387500D01*
X174897000Y-132387500D02*
X174897000Y-131457500D01*
X174897000Y-129227500D02*
X174897000Y-130157500D01*
X153697000Y-101039436D02*
X153697000Y-101493564D01*
X155167000Y-101039436D02*
X155167000Y-101493564D01*
X168895752Y-128106500D02*
X168373248Y-128106500D01*
X168895752Y-129576500D02*
X168373248Y-129576500D01*
X167349500Y-122477252D02*
X167349500Y-121954748D01*
X168819500Y-122477252D02*
X168819500Y-121954748D01*
X176865500Y-119702500D02*
X176865500Y-120632500D01*
X176865500Y-122862500D02*
X176865500Y-121932500D01*
X176865500Y-122862500D02*
X179025500Y-122862500D01*
X176865500Y-119702500D02*
X178325500Y-119702500D01*
X134593000Y-118226064D02*
X134593000Y-117771936D01*
X133123000Y-118226064D02*
X133123000Y-117771936D01*
X189917400Y-143476736D02*
X189917400Y-143930864D01*
X191387400Y-143476736D02*
X191387400Y-143930864D01*
X177890500Y-114437936D02*
X177890500Y-114892064D01*
X179360500Y-114437936D02*
X179360500Y-114892064D01*
X169191000Y-101039436D02*
X169191000Y-101493564D01*
X170661000Y-101039436D02*
X170661000Y-101493564D01*
X164428500Y-142155936D02*
X164428500Y-142610064D01*
X165898500Y-142155936D02*
X165898500Y-142610064D01*
X165708000Y-122417064D02*
X165708000Y-121962936D01*
X164238000Y-122417064D02*
X164238000Y-121962936D01*
X161253500Y-121899436D02*
X161253500Y-122353564D01*
X162723500Y-121899436D02*
X162723500Y-122353564D01*
X159920000Y-111770936D02*
X159920000Y-112225064D01*
X161390000Y-111770936D02*
X161390000Y-112225064D01*
X146902500Y-142155936D02*
X146902500Y-142610064D01*
X148372500Y-142155936D02*
X148372500Y-142610064D01*
X147029500Y-125867936D02*
X147029500Y-126322064D01*
X148499500Y-125867936D02*
X148499500Y-126322064D01*
X141060500Y-142155936D02*
X141060500Y-142610064D01*
X142530500Y-142155936D02*
X142530500Y-142610064D01*
X142965500Y-125899936D02*
X142965500Y-126354064D01*
X144435500Y-125899936D02*
X144435500Y-126354064D01*
X186024400Y-144463800D02*
X186024400Y-143003800D01*
X189184400Y-144463800D02*
X189184400Y-142303800D01*
X189184400Y-144463800D02*
X188254400Y-144463800D01*
X186024400Y-144463800D02*
X186954400Y-144463800D01*
X186761000Y-108345000D02*
X186761000Y-106885000D01*
X189921000Y-108345000D02*
X189921000Y-106185000D01*
X189921000Y-108345000D02*
X188991000Y-108345000D01*
X186761000Y-108345000D02*
X187691000Y-108345000D01*
X171495500Y-133340000D02*
X170035500Y-133340000D01*
X171495500Y-130180000D02*
X169335500Y-130180000D01*
X171495500Y-130180000D02*
X171495500Y-131110000D01*
X171495500Y-133340000D02*
X171495500Y-132410000D01*
X168197500Y-110561000D02*
X169657500Y-110561000D01*
X168197500Y-113721000D02*
X170357500Y-113721000D01*
X168197500Y-113721000D02*
X168197500Y-112791000D01*
X168197500Y-110561000D02*
X168197500Y-111491000D01*
X166955500Y-133406000D02*
X165495500Y-133406000D01*
X166955500Y-130246000D02*
X164795500Y-130246000D01*
X166955500Y-130246000D02*
X166955500Y-131176000D01*
X166955500Y-133406000D02*
X166955500Y-132476000D01*
X147137000Y-131633500D02*
X147137000Y-130173500D01*
X150297000Y-131633500D02*
X150297000Y-129473500D01*
X150297000Y-131633500D02*
X149367000Y-131633500D01*
X147137000Y-131633500D02*
X148067000Y-131633500D01*
X155267500Y-112758000D02*
X155267500Y-111298000D01*
X158427500Y-112758000D02*
X158427500Y-110598000D01*
X158427500Y-112758000D02*
X157497500Y-112758000D01*
X155267500Y-112758000D02*
X156197500Y-112758000D01*
X141170500Y-136158000D02*
X141170500Y-134698000D01*
X144330500Y-136158000D02*
X144330500Y-133998000D01*
X144330500Y-136158000D02*
X143400500Y-136158000D01*
X141170500Y-136158000D02*
X142100500Y-136158000D01*
X144330500Y-130066000D02*
X144330500Y-131526000D01*
X141170500Y-130066000D02*
X141170500Y-132226000D01*
X141170500Y-130066000D02*
X142100500Y-130066000D01*
X144330500Y-130066000D02*
X143400500Y-130066000D01*
X161254000Y-109775500D02*
X157354000Y-109775500D01*
X161254000Y-107775500D02*
X157354000Y-107775500D01*
X161254000Y-109775500D02*
X161254000Y-107775500D01*
X156353000Y-104166500D02*
X156353000Y-100266500D01*
X158353000Y-104166500D02*
X158353000Y-100266500D01*
X156353000Y-104166500D02*
X158353000Y-104166500D01*
X137578000Y-128711500D02*
X130138000Y-128711500D01*
X137578000Y-121271500D02*
X130138000Y-121271500D01*
X130138000Y-121271500D02*
X130138000Y-128711500D01*
X137578000Y-121271500D02*
X137578000Y-128711500D01*
D10*
X156948333Y-127297142D02*
X156900714Y-127344761D01*
X156757857Y-127392380D01*
X156662619Y-127392380D01*
X156519761Y-127344761D01*
X156424523Y-127249523D01*
X156376904Y-127154285D01*
X156329285Y-126963809D01*
X156329285Y-126820952D01*
X156376904Y-126630476D01*
X156424523Y-126535238D01*
X156519761Y-126440000D01*
X156662619Y-126392380D01*
X156757857Y-126392380D01*
X156900714Y-126440000D01*
X156948333Y-126487619D01*
X157805476Y-126392380D02*
X157615000Y-126392380D01*
X157519761Y-126440000D01*
X157472142Y-126487619D01*
X157376904Y-126630476D01*
X157329285Y-126820952D01*
X157329285Y-127201904D01*
X157376904Y-127297142D01*
X157424523Y-127344761D01*
X157519761Y-127392380D01*
X157710238Y-127392380D01*
X157805476Y-127344761D01*
X157853095Y-127297142D01*
X157900714Y-127201904D01*
X157900714Y-126963809D01*
X157853095Y-126868571D01*
X157805476Y-126820952D01*
X157710238Y-126773333D01*
X157519761Y-126773333D01*
X157424523Y-126820952D01*
X157376904Y-126868571D01*
X157329285Y-126963809D01*
X163449071Y-110212119D02*
X163353833Y-110164500D01*
X163258595Y-110069261D01*
X163115738Y-109926404D01*
X163020500Y-109878785D01*
X162925261Y-109878785D01*
X162972880Y-110116880D02*
X162877642Y-110069261D01*
X162782404Y-109974023D01*
X162734785Y-109783547D01*
X162734785Y-109450214D01*
X162782404Y-109259738D01*
X162877642Y-109164500D01*
X162972880Y-109116880D01*
X163163357Y-109116880D01*
X163258595Y-109164500D01*
X163353833Y-109259738D01*
X163401452Y-109450214D01*
X163401452Y-109783547D01*
X163353833Y-109974023D01*
X163258595Y-110069261D01*
X163163357Y-110116880D01*
X162972880Y-110116880D01*
X164353833Y-110116880D02*
X163782404Y-110116880D01*
X164068119Y-110116880D02*
X164068119Y-109116880D01*
X163972880Y-109259738D01*
X163877642Y-109354976D01*
X163782404Y-109402595D01*
X164925261Y-109545452D02*
X164830023Y-109497833D01*
X164782404Y-109450214D01*
X164734785Y-109354976D01*
X164734785Y-109307357D01*
X164782404Y-109212119D01*
X164830023Y-109164500D01*
X164925261Y-109116880D01*
X165115738Y-109116880D01*
X165210976Y-109164500D01*
X165258595Y-109212119D01*
X165306214Y-109307357D01*
X165306214Y-109354976D01*
X165258595Y-109450214D01*
X165210976Y-109497833D01*
X165115738Y-109545452D01*
X164925261Y-109545452D01*
X164830023Y-109593071D01*
X164782404Y-109640690D01*
X164734785Y-109735928D01*
X164734785Y-109926404D01*
X164782404Y-110021642D01*
X164830023Y-110069261D01*
X164925261Y-110116880D01*
X165115738Y-110116880D01*
X165210976Y-110069261D01*
X165258595Y-110021642D01*
X165306214Y-109926404D01*
X165306214Y-109735928D01*
X165258595Y-109640690D01*
X165210976Y-109593071D01*
X165115738Y-109545452D01*
X179379642Y-124721880D02*
X179046309Y-124245690D01*
X178808214Y-124721880D02*
X178808214Y-123721880D01*
X179189166Y-123721880D01*
X179284404Y-123769500D01*
X179332023Y-123817119D01*
X179379642Y-123912357D01*
X179379642Y-124055214D01*
X179332023Y-124150452D01*
X179284404Y-124198071D01*
X179189166Y-124245690D01*
X178808214Y-124245690D01*
X180332023Y-124721880D02*
X179760595Y-124721880D01*
X180046309Y-124721880D02*
X180046309Y-123721880D01*
X179951071Y-123864738D01*
X179855833Y-123959976D01*
X179760595Y-124007595D01*
X180665357Y-123721880D02*
X181284404Y-123721880D01*
X180951071Y-124102833D01*
X181093928Y-124102833D01*
X181189166Y-124150452D01*
X181236785Y-124198071D01*
X181284404Y-124293309D01*
X181284404Y-124531404D01*
X181236785Y-124626642D01*
X181189166Y-124674261D01*
X181093928Y-124721880D01*
X180808214Y-124721880D01*
X180712976Y-124674261D01*
X180665357Y-124626642D01*
X173728142Y-116720880D02*
X173394809Y-116244690D01*
X173156714Y-116720880D02*
X173156714Y-115720880D01*
X173537666Y-115720880D01*
X173632904Y-115768500D01*
X173680523Y-115816119D01*
X173728142Y-115911357D01*
X173728142Y-116054214D01*
X173680523Y-116149452D01*
X173632904Y-116197071D01*
X173537666Y-116244690D01*
X173156714Y-116244690D01*
X174109095Y-115816119D02*
X174156714Y-115768500D01*
X174251952Y-115720880D01*
X174490047Y-115720880D01*
X174585285Y-115768500D01*
X174632904Y-115816119D01*
X174680523Y-115911357D01*
X174680523Y-116006595D01*
X174632904Y-116149452D01*
X174061476Y-116720880D01*
X174680523Y-116720880D01*
X175251952Y-116149452D02*
X175156714Y-116101833D01*
X175109095Y-116054214D01*
X175061476Y-115958976D01*
X175061476Y-115911357D01*
X175109095Y-115816119D01*
X175156714Y-115768500D01*
X175251952Y-115720880D01*
X175442428Y-115720880D01*
X175537666Y-115768500D01*
X175585285Y-115816119D01*
X175632904Y-115911357D01*
X175632904Y-115958976D01*
X175585285Y-116054214D01*
X175537666Y-116101833D01*
X175442428Y-116149452D01*
X175251952Y-116149452D01*
X175156714Y-116197071D01*
X175109095Y-116244690D01*
X175061476Y-116339928D01*
X175061476Y-116530404D01*
X175109095Y-116625642D01*
X175156714Y-116673261D01*
X175251952Y-116720880D01*
X175442428Y-116720880D01*
X175537666Y-116673261D01*
X175585285Y-116625642D01*
X175632904Y-116530404D01*
X175632904Y-116339928D01*
X175585285Y-116244690D01*
X175537666Y-116197071D01*
X175442428Y-116149452D01*
X172092880Y-142946357D02*
X171616690Y-143279690D01*
X172092880Y-143517785D02*
X171092880Y-143517785D01*
X171092880Y-143136833D01*
X171140500Y-143041595D01*
X171188119Y-142993976D01*
X171283357Y-142946357D01*
X171426214Y-142946357D01*
X171521452Y-142993976D01*
X171569071Y-143041595D01*
X171616690Y-143136833D01*
X171616690Y-143517785D01*
X171188119Y-142565404D02*
X171140500Y-142517785D01*
X171092880Y-142422547D01*
X171092880Y-142184452D01*
X171140500Y-142089214D01*
X171188119Y-142041595D01*
X171283357Y-141993976D01*
X171378595Y-141993976D01*
X171521452Y-142041595D01*
X172092880Y-142613023D01*
X172092880Y-141993976D01*
X171092880Y-141660642D02*
X171092880Y-140993976D01*
X172092880Y-141422547D01*
X164663380Y-102433357D02*
X164187190Y-102766690D01*
X164663380Y-103004785D02*
X163663380Y-103004785D01*
X163663380Y-102623833D01*
X163711000Y-102528595D01*
X163758619Y-102480976D01*
X163853857Y-102433357D01*
X163996714Y-102433357D01*
X164091952Y-102480976D01*
X164139571Y-102528595D01*
X164187190Y-102623833D01*
X164187190Y-103004785D01*
X163758619Y-102052404D02*
X163711000Y-102004785D01*
X163663380Y-101909547D01*
X163663380Y-101671452D01*
X163711000Y-101576214D01*
X163758619Y-101528595D01*
X163853857Y-101480976D01*
X163949095Y-101480976D01*
X164091952Y-101528595D01*
X164663380Y-102100023D01*
X164663380Y-101480976D01*
X163663380Y-100623833D02*
X163663380Y-100814309D01*
X163711000Y-100909547D01*
X163758619Y-100957166D01*
X163901476Y-101052404D01*
X164091952Y-101100023D01*
X164472904Y-101100023D01*
X164568142Y-101052404D01*
X164615761Y-101004785D01*
X164663380Y-100909547D01*
X164663380Y-100719071D01*
X164615761Y-100623833D01*
X164568142Y-100576214D01*
X164472904Y-100528595D01*
X164234809Y-100528595D01*
X164139571Y-100576214D01*
X164091952Y-100623833D01*
X164044333Y-100719071D01*
X164044333Y-100909547D01*
X164091952Y-101004785D01*
X164139571Y-101052404D01*
X164234809Y-101100023D01*
X153360380Y-129484357D02*
X152884190Y-129817690D01*
X153360380Y-130055785D02*
X152360380Y-130055785D01*
X152360380Y-129674833D01*
X152408000Y-129579595D01*
X152455619Y-129531976D01*
X152550857Y-129484357D01*
X152693714Y-129484357D01*
X152788952Y-129531976D01*
X152836571Y-129579595D01*
X152884190Y-129674833D01*
X152884190Y-130055785D01*
X152455619Y-129103404D02*
X152408000Y-129055785D01*
X152360380Y-128960547D01*
X152360380Y-128722452D01*
X152408000Y-128627214D01*
X152455619Y-128579595D01*
X152550857Y-128531976D01*
X152646095Y-128531976D01*
X152788952Y-128579595D01*
X153360380Y-129151023D01*
X153360380Y-128531976D01*
X152360380Y-127627214D02*
X152360380Y-128103404D01*
X152836571Y-128151023D01*
X152788952Y-128103404D01*
X152741333Y-128008166D01*
X152741333Y-127770071D01*
X152788952Y-127674833D01*
X152836571Y-127627214D01*
X152931809Y-127579595D01*
X153169904Y-127579595D01*
X153265142Y-127627214D01*
X153312761Y-127674833D01*
X153360380Y-127770071D01*
X153360380Y-128008166D01*
X153312761Y-128103404D01*
X153265142Y-128151023D01*
X149866880Y-118292357D02*
X149390690Y-118625690D01*
X149866880Y-118863785D02*
X148866880Y-118863785D01*
X148866880Y-118482833D01*
X148914500Y-118387595D01*
X148962119Y-118339976D01*
X149057357Y-118292357D01*
X149200214Y-118292357D01*
X149295452Y-118339976D01*
X149343071Y-118387595D01*
X149390690Y-118482833D01*
X149390690Y-118863785D01*
X148962119Y-117911404D02*
X148914500Y-117863785D01*
X148866880Y-117768547D01*
X148866880Y-117530452D01*
X148914500Y-117435214D01*
X148962119Y-117387595D01*
X149057357Y-117339976D01*
X149152595Y-117339976D01*
X149295452Y-117387595D01*
X149866880Y-117959023D01*
X149866880Y-117339976D01*
X149200214Y-116482833D02*
X149866880Y-116482833D01*
X148819261Y-116720928D02*
X149533547Y-116959023D01*
X149533547Y-116339976D01*
X148153380Y-98623357D02*
X147677190Y-98956690D01*
X148153380Y-99194785D02*
X147153380Y-99194785D01*
X147153380Y-98813833D01*
X147201000Y-98718595D01*
X147248619Y-98670976D01*
X147343857Y-98623357D01*
X147486714Y-98623357D01*
X147581952Y-98670976D01*
X147629571Y-98718595D01*
X147677190Y-98813833D01*
X147677190Y-99194785D01*
X147248619Y-98242404D02*
X147201000Y-98194785D01*
X147153380Y-98099547D01*
X147153380Y-97861452D01*
X147201000Y-97766214D01*
X147248619Y-97718595D01*
X147343857Y-97670976D01*
X147439095Y-97670976D01*
X147581952Y-97718595D01*
X148153380Y-98290023D01*
X148153380Y-97670976D01*
X147153380Y-97337642D02*
X147153380Y-96718595D01*
X147534333Y-97051928D01*
X147534333Y-96909071D01*
X147581952Y-96813833D01*
X147629571Y-96766214D01*
X147724809Y-96718595D01*
X147962904Y-96718595D01*
X148058142Y-96766214D01*
X148105761Y-96813833D01*
X148153380Y-96909071D01*
X148153380Y-97194785D01*
X148105761Y-97290023D01*
X148058142Y-97337642D01*
X162185880Y-143025857D02*
X161709690Y-143359190D01*
X162185880Y-143597285D02*
X161185880Y-143597285D01*
X161185880Y-143216333D01*
X161233500Y-143121095D01*
X161281119Y-143073476D01*
X161376357Y-143025857D01*
X161519214Y-143025857D01*
X161614452Y-143073476D01*
X161662071Y-143121095D01*
X161709690Y-143216333D01*
X161709690Y-143597285D01*
X161281119Y-142644904D02*
X161233500Y-142597285D01*
X161185880Y-142502047D01*
X161185880Y-142263952D01*
X161233500Y-142168714D01*
X161281119Y-142121095D01*
X161376357Y-142073476D01*
X161471595Y-142073476D01*
X161614452Y-142121095D01*
X162185880Y-142692523D01*
X162185880Y-142073476D01*
X161281119Y-141692523D02*
X161233500Y-141644904D01*
X161185880Y-141549666D01*
X161185880Y-141311571D01*
X161233500Y-141216333D01*
X161281119Y-141168714D01*
X161376357Y-141121095D01*
X161471595Y-141121095D01*
X161614452Y-141168714D01*
X162185880Y-141740142D01*
X162185880Y-141121095D01*
X145802880Y-118260857D02*
X145326690Y-118594190D01*
X145802880Y-118832285D02*
X144802880Y-118832285D01*
X144802880Y-118451333D01*
X144850500Y-118356095D01*
X144898119Y-118308476D01*
X144993357Y-118260857D01*
X145136214Y-118260857D01*
X145231452Y-118308476D01*
X145279071Y-118356095D01*
X145326690Y-118451333D01*
X145326690Y-118832285D01*
X144898119Y-117879904D02*
X144850500Y-117832285D01*
X144802880Y-117737047D01*
X144802880Y-117498952D01*
X144850500Y-117403714D01*
X144898119Y-117356095D01*
X144993357Y-117308476D01*
X145088595Y-117308476D01*
X145231452Y-117356095D01*
X145802880Y-117927523D01*
X145802880Y-117308476D01*
X145802880Y-116356095D02*
X145802880Y-116927523D01*
X145802880Y-116641809D02*
X144802880Y-116641809D01*
X144945738Y-116737047D01*
X145040976Y-116832285D01*
X145088595Y-116927523D01*
X143454380Y-102496857D02*
X142978190Y-102830190D01*
X143454380Y-103068285D02*
X142454380Y-103068285D01*
X142454380Y-102687333D01*
X142502000Y-102592095D01*
X142549619Y-102544476D01*
X142644857Y-102496857D01*
X142787714Y-102496857D01*
X142882952Y-102544476D01*
X142930571Y-102592095D01*
X142978190Y-102687333D01*
X142978190Y-103068285D01*
X142549619Y-102115904D02*
X142502000Y-102068285D01*
X142454380Y-101973047D01*
X142454380Y-101734952D01*
X142502000Y-101639714D01*
X142549619Y-101592095D01*
X142644857Y-101544476D01*
X142740095Y-101544476D01*
X142882952Y-101592095D01*
X143454380Y-102163523D01*
X143454380Y-101544476D01*
X142454380Y-100925428D02*
X142454380Y-100830190D01*
X142502000Y-100734952D01*
X142549619Y-100687333D01*
X142644857Y-100639714D01*
X142835333Y-100592095D01*
X143073428Y-100592095D01*
X143263904Y-100639714D01*
X143359142Y-100687333D01*
X143406761Y-100734952D01*
X143454380Y-100830190D01*
X143454380Y-100925428D01*
X143406761Y-101020666D01*
X143359142Y-101068285D01*
X143263904Y-101115904D01*
X143073428Y-101163523D01*
X142835333Y-101163523D01*
X142644857Y-101115904D01*
X142549619Y-101068285D01*
X142502000Y-101020666D01*
X142454380Y-100925428D01*
X151931619Y-113791928D02*
X151884000Y-113887166D01*
X151788761Y-113982404D01*
X151645904Y-114125261D01*
X151598285Y-114220500D01*
X151598285Y-114315738D01*
X151836380Y-114268119D02*
X151788761Y-114363357D01*
X151693523Y-114458595D01*
X151503047Y-114506214D01*
X151169714Y-114506214D01*
X150979238Y-114458595D01*
X150884000Y-114363357D01*
X150836380Y-114268119D01*
X150836380Y-114077642D01*
X150884000Y-113982404D01*
X150979238Y-113887166D01*
X151169714Y-113839547D01*
X151503047Y-113839547D01*
X151693523Y-113887166D01*
X151788761Y-113982404D01*
X151836380Y-114077642D01*
X151836380Y-114268119D01*
X151836380Y-112887166D02*
X151836380Y-113458595D01*
X151836380Y-113172880D02*
X150836380Y-113172880D01*
X150979238Y-113268119D01*
X151074476Y-113363357D01*
X151122095Y-113458595D01*
X150836380Y-112553833D02*
X150836380Y-111887166D01*
X151836380Y-112315738D01*
X151868119Y-109600928D02*
X151820500Y-109696166D01*
X151725261Y-109791404D01*
X151582404Y-109934261D01*
X151534785Y-110029500D01*
X151534785Y-110124738D01*
X151772880Y-110077119D02*
X151725261Y-110172357D01*
X151630023Y-110267595D01*
X151439547Y-110315214D01*
X151106214Y-110315214D01*
X150915738Y-110267595D01*
X150820500Y-110172357D01*
X150772880Y-110077119D01*
X150772880Y-109886642D01*
X150820500Y-109791404D01*
X150915738Y-109696166D01*
X151106214Y-109648547D01*
X151439547Y-109648547D01*
X151630023Y-109696166D01*
X151725261Y-109791404D01*
X151772880Y-109886642D01*
X151772880Y-110077119D01*
X151772880Y-108696166D02*
X151772880Y-109267595D01*
X151772880Y-108981880D02*
X150772880Y-108981880D01*
X150915738Y-109077119D01*
X151010976Y-109172357D01*
X151058595Y-109267595D01*
X150772880Y-107839023D02*
X150772880Y-108029500D01*
X150820500Y-108124738D01*
X150868119Y-108172357D01*
X151010976Y-108267595D01*
X151201452Y-108315214D01*
X151582404Y-108315214D01*
X151677642Y-108267595D01*
X151725261Y-108219976D01*
X151772880Y-108124738D01*
X151772880Y-107934261D01*
X151725261Y-107839023D01*
X151677642Y-107791404D01*
X151582404Y-107743785D01*
X151344309Y-107743785D01*
X151249071Y-107791404D01*
X151201452Y-107839023D01*
X151153833Y-107934261D01*
X151153833Y-108124738D01*
X151201452Y-108219976D01*
X151249071Y-108267595D01*
X151344309Y-108315214D01*
X159805619Y-132778428D02*
X159758000Y-132873666D01*
X159662761Y-132968904D01*
X159519904Y-133111761D01*
X159472285Y-133207000D01*
X159472285Y-133302238D01*
X159710380Y-133254619D02*
X159662761Y-133349857D01*
X159567523Y-133445095D01*
X159377047Y-133492714D01*
X159043714Y-133492714D01*
X158853238Y-133445095D01*
X158758000Y-133349857D01*
X158710380Y-133254619D01*
X158710380Y-133064142D01*
X158758000Y-132968904D01*
X158853238Y-132873666D01*
X159043714Y-132826047D01*
X159377047Y-132826047D01*
X159567523Y-132873666D01*
X159662761Y-132968904D01*
X159710380Y-133064142D01*
X159710380Y-133254619D01*
X159710380Y-131873666D02*
X159710380Y-132445095D01*
X159710380Y-132159380D02*
X158710380Y-132159380D01*
X158853238Y-132254619D01*
X158948476Y-132349857D01*
X158996095Y-132445095D01*
X158710380Y-130968904D02*
X158710380Y-131445095D01*
X159186571Y-131492714D01*
X159138952Y-131445095D01*
X159091333Y-131349857D01*
X159091333Y-131111761D01*
X159138952Y-131016523D01*
X159186571Y-130968904D01*
X159281809Y-130921285D01*
X159519904Y-130921285D01*
X159615142Y-130968904D01*
X159662761Y-131016523D01*
X159710380Y-131111761D01*
X159710380Y-131349857D01*
X159662761Y-131445095D01*
X159615142Y-131492714D01*
X146724619Y-109664428D02*
X146677000Y-109759666D01*
X146581761Y-109854904D01*
X146438904Y-109997761D01*
X146391285Y-110093000D01*
X146391285Y-110188238D01*
X146629380Y-110140619D02*
X146581761Y-110235857D01*
X146486523Y-110331095D01*
X146296047Y-110378714D01*
X145962714Y-110378714D01*
X145772238Y-110331095D01*
X145677000Y-110235857D01*
X145629380Y-110140619D01*
X145629380Y-109950142D01*
X145677000Y-109854904D01*
X145772238Y-109759666D01*
X145962714Y-109712047D01*
X146296047Y-109712047D01*
X146486523Y-109759666D01*
X146581761Y-109854904D01*
X146629380Y-109950142D01*
X146629380Y-110140619D01*
X146629380Y-108759666D02*
X146629380Y-109331095D01*
X146629380Y-109045380D02*
X145629380Y-109045380D01*
X145772238Y-109140619D01*
X145867476Y-109235857D01*
X145915095Y-109331095D01*
X145962714Y-107902523D02*
X146629380Y-107902523D01*
X145581761Y-108140619D02*
X146296047Y-108378714D01*
X146296047Y-107759666D01*
X145899119Y-113855428D02*
X145851500Y-113950666D01*
X145756261Y-114045904D01*
X145613404Y-114188761D01*
X145565785Y-114284000D01*
X145565785Y-114379238D01*
X145803880Y-114331619D02*
X145756261Y-114426857D01*
X145661023Y-114522095D01*
X145470547Y-114569714D01*
X145137214Y-114569714D01*
X144946738Y-114522095D01*
X144851500Y-114426857D01*
X144803880Y-114331619D01*
X144803880Y-114141142D01*
X144851500Y-114045904D01*
X144946738Y-113950666D01*
X145137214Y-113903047D01*
X145470547Y-113903047D01*
X145661023Y-113950666D01*
X145756261Y-114045904D01*
X145803880Y-114141142D01*
X145803880Y-114331619D01*
X145803880Y-112950666D02*
X145803880Y-113522095D01*
X145803880Y-113236380D02*
X144803880Y-113236380D01*
X144946738Y-113331619D01*
X145041976Y-113426857D01*
X145089595Y-113522095D01*
X144803880Y-112617333D02*
X144803880Y-111998285D01*
X145184833Y-112331619D01*
X145184833Y-112188761D01*
X145232452Y-112093523D01*
X145280071Y-112045904D01*
X145375309Y-111998285D01*
X145613404Y-111998285D01*
X145708642Y-112045904D01*
X145756261Y-112093523D01*
X145803880Y-112188761D01*
X145803880Y-112474476D01*
X145756261Y-112569714D01*
X145708642Y-112617333D01*
X173885904Y-113259880D02*
X173885904Y-112259880D01*
X174124000Y-112259880D01*
X174266857Y-112307500D01*
X174362095Y-112402738D01*
X174409714Y-112497976D01*
X174457333Y-112688452D01*
X174457333Y-112831309D01*
X174409714Y-113021785D01*
X174362095Y-113117023D01*
X174266857Y-113212261D01*
X174124000Y-113259880D01*
X173885904Y-113259880D01*
X175314476Y-112259880D02*
X175124000Y-112259880D01*
X175028761Y-112307500D01*
X174981142Y-112355119D01*
X174885904Y-112497976D01*
X174838285Y-112688452D01*
X174838285Y-113069404D01*
X174885904Y-113164642D01*
X174933523Y-113212261D01*
X175028761Y-113259880D01*
X175219238Y-113259880D01*
X175314476Y-113212261D01*
X175362095Y-113164642D01*
X175409714Y-113069404D01*
X175409714Y-112831309D01*
X175362095Y-112736071D01*
X175314476Y-112688452D01*
X175219238Y-112640833D01*
X175028761Y-112640833D01*
X174933523Y-112688452D01*
X174885904Y-112736071D01*
X174838285Y-112831309D01*
X175331380Y-104179595D02*
X174331380Y-104179595D01*
X174331380Y-103941500D01*
X174379000Y-103798642D01*
X174474238Y-103703404D01*
X174569476Y-103655785D01*
X174759952Y-103608166D01*
X174902809Y-103608166D01*
X175093285Y-103655785D01*
X175188523Y-103703404D01*
X175283761Y-103798642D01*
X175331380Y-103941500D01*
X175331380Y-104179595D01*
X174331380Y-102703404D02*
X174331380Y-103179595D01*
X174807571Y-103227214D01*
X174759952Y-103179595D01*
X174712333Y-103084357D01*
X174712333Y-102846261D01*
X174759952Y-102751023D01*
X174807571Y-102703404D01*
X174902809Y-102655785D01*
X175140904Y-102655785D01*
X175236142Y-102703404D01*
X175283761Y-102751023D01*
X175331380Y-102846261D01*
X175331380Y-103084357D01*
X175283761Y-103179595D01*
X175236142Y-103227214D01*
X158694380Y-141009595D02*
X157694380Y-141009595D01*
X157694380Y-140771500D01*
X157742000Y-140628642D01*
X157837238Y-140533404D01*
X157932476Y-140485785D01*
X158122952Y-140438166D01*
X158265809Y-140438166D01*
X158456285Y-140485785D01*
X158551523Y-140533404D01*
X158646761Y-140628642D01*
X158694380Y-140771500D01*
X158694380Y-141009595D01*
X158027714Y-139581023D02*
X158694380Y-139581023D01*
X157646761Y-139819119D02*
X158361047Y-140057214D01*
X158361047Y-139438166D01*
X157249904Y-135961380D02*
X157249904Y-134961380D01*
X157488000Y-134961380D01*
X157630857Y-135009000D01*
X157726095Y-135104238D01*
X157773714Y-135199476D01*
X157821333Y-135389952D01*
X157821333Y-135532809D01*
X157773714Y-135723285D01*
X157726095Y-135818523D01*
X157630857Y-135913761D01*
X157488000Y-135961380D01*
X157249904Y-135961380D01*
X158154666Y-134961380D02*
X158773714Y-134961380D01*
X158440380Y-135342333D01*
X158583238Y-135342333D01*
X158678476Y-135389952D01*
X158726095Y-135437571D01*
X158773714Y-135532809D01*
X158773714Y-135770904D01*
X158726095Y-135866142D01*
X158678476Y-135913761D01*
X158583238Y-135961380D01*
X158297523Y-135961380D01*
X158202285Y-135913761D01*
X158154666Y-135866142D01*
X166256642Y-117607142D02*
X166209023Y-117654761D01*
X166066166Y-117702380D01*
X165970928Y-117702380D01*
X165828071Y-117654761D01*
X165732833Y-117559523D01*
X165685214Y-117464285D01*
X165637595Y-117273809D01*
X165637595Y-117130952D01*
X165685214Y-116940476D01*
X165732833Y-116845238D01*
X165828071Y-116750000D01*
X165970928Y-116702380D01*
X166066166Y-116702380D01*
X166209023Y-116750000D01*
X166256642Y-116797619D01*
X167209023Y-117702380D02*
X166637595Y-117702380D01*
X166923309Y-117702380D02*
X166923309Y-116702380D01*
X166828071Y-116845238D01*
X166732833Y-116940476D01*
X166637595Y-116988095D01*
X167542357Y-116702380D02*
X168209023Y-116702380D01*
X167780452Y-117702380D01*
X140374642Y-142275857D02*
X140422261Y-142323476D01*
X140469880Y-142466333D01*
X140469880Y-142561571D01*
X140422261Y-142704428D01*
X140327023Y-142799666D01*
X140231785Y-142847285D01*
X140041309Y-142894904D01*
X139898452Y-142894904D01*
X139707976Y-142847285D01*
X139612738Y-142799666D01*
X139517500Y-142704428D01*
X139469880Y-142561571D01*
X139469880Y-142466333D01*
X139517500Y-142323476D01*
X139565119Y-142275857D01*
X140469880Y-141323476D02*
X140469880Y-141894904D01*
X140469880Y-141609190D02*
X139469880Y-141609190D01*
X139612738Y-141704428D01*
X139707976Y-141799666D01*
X139755595Y-141894904D01*
X139469880Y-140466333D02*
X139469880Y-140656809D01*
X139517500Y-140752047D01*
X139565119Y-140799666D01*
X139707976Y-140894904D01*
X139898452Y-140942523D01*
X140279404Y-140942523D01*
X140374642Y-140894904D01*
X140422261Y-140847285D01*
X140469880Y-140752047D01*
X140469880Y-140561571D01*
X140422261Y-140466333D01*
X140374642Y-140418714D01*
X140279404Y-140371095D01*
X140041309Y-140371095D01*
X139946071Y-140418714D01*
X139898452Y-140466333D01*
X139850833Y-140561571D01*
X139850833Y-140752047D01*
X139898452Y-140847285D01*
X139946071Y-140894904D01*
X140041309Y-140942523D01*
X140608142Y-102659357D02*
X140655761Y-102706976D01*
X140703380Y-102849833D01*
X140703380Y-102945071D01*
X140655761Y-103087928D01*
X140560523Y-103183166D01*
X140465285Y-103230785D01*
X140274809Y-103278404D01*
X140131952Y-103278404D01*
X139941476Y-103230785D01*
X139846238Y-103183166D01*
X139751000Y-103087928D01*
X139703380Y-102945071D01*
X139703380Y-102849833D01*
X139751000Y-102706976D01*
X139798619Y-102659357D01*
X140703380Y-101706976D02*
X140703380Y-102278404D01*
X140703380Y-101992690D02*
X139703380Y-101992690D01*
X139846238Y-102087928D01*
X139941476Y-102183166D01*
X139989095Y-102278404D01*
X139703380Y-100802214D02*
X139703380Y-101278404D01*
X140179571Y-101326023D01*
X140131952Y-101278404D01*
X140084333Y-101183166D01*
X140084333Y-100945071D01*
X140131952Y-100849833D01*
X140179571Y-100802214D01*
X140274809Y-100754595D01*
X140512904Y-100754595D01*
X140608142Y-100802214D01*
X140655761Y-100849833D01*
X140703380Y-100945071D01*
X140703380Y-101183166D01*
X140655761Y-101278404D01*
X140608142Y-101326023D01*
X175680642Y-141771666D02*
X175728261Y-141819285D01*
X175775880Y-141962142D01*
X175775880Y-142057380D01*
X175728261Y-142200238D01*
X175633023Y-142295476D01*
X175537785Y-142343095D01*
X175347309Y-142390714D01*
X175204452Y-142390714D01*
X175013976Y-142343095D01*
X174918738Y-142295476D01*
X174823500Y-142200238D01*
X174775880Y-142057380D01*
X174775880Y-141962142D01*
X174823500Y-141819285D01*
X174871119Y-141771666D01*
X174775880Y-141438333D02*
X174775880Y-140819285D01*
X175156833Y-141152619D01*
X175156833Y-141009761D01*
X175204452Y-140914523D01*
X175252071Y-140866904D01*
X175347309Y-140819285D01*
X175585404Y-140819285D01*
X175680642Y-140866904D01*
X175728261Y-140914523D01*
X175775880Y-141009761D01*
X175775880Y-141295476D01*
X175728261Y-141390714D01*
X175680642Y-141438333D01*
X186201142Y-102183166D02*
X186248761Y-102230785D01*
X186296380Y-102373642D01*
X186296380Y-102468880D01*
X186248761Y-102611738D01*
X186153523Y-102706976D01*
X186058285Y-102754595D01*
X185867809Y-102802214D01*
X185724952Y-102802214D01*
X185534476Y-102754595D01*
X185439238Y-102706976D01*
X185344000Y-102611738D01*
X185296380Y-102468880D01*
X185296380Y-102373642D01*
X185344000Y-102230785D01*
X185391619Y-102183166D01*
X186296380Y-101230785D02*
X186296380Y-101802214D01*
X186296380Y-101516500D02*
X185296380Y-101516500D01*
X185439238Y-101611738D01*
X185534476Y-101706976D01*
X185582095Y-101802214D01*
X188269642Y-132945142D02*
X188222023Y-132992761D01*
X188079166Y-133040380D01*
X187983928Y-133040380D01*
X187841071Y-132992761D01*
X187745833Y-132897523D01*
X187698214Y-132802285D01*
X187650595Y-132611809D01*
X187650595Y-132468952D01*
X187698214Y-132278476D01*
X187745833Y-132183238D01*
X187841071Y-132088000D01*
X187983928Y-132040380D01*
X188079166Y-132040380D01*
X188222023Y-132088000D01*
X188269642Y-132135619D01*
X189222023Y-133040380D02*
X188650595Y-133040380D01*
X188936309Y-133040380D02*
X188936309Y-132040380D01*
X188841071Y-132183238D01*
X188745833Y-132278476D01*
X188650595Y-132326095D01*
X190174404Y-133040380D02*
X189602976Y-133040380D01*
X189888690Y-133040380D02*
X189888690Y-132040380D01*
X189793452Y-132183238D01*
X189698214Y-132278476D01*
X189602976Y-132326095D01*
X198620142Y-136120142D02*
X198572523Y-136167761D01*
X198429666Y-136215380D01*
X198334428Y-136215380D01*
X198191571Y-136167761D01*
X198096333Y-136072523D01*
X198048714Y-135977285D01*
X198001095Y-135786809D01*
X198001095Y-135643952D01*
X198048714Y-135453476D01*
X198096333Y-135358238D01*
X198191571Y-135263000D01*
X198334428Y-135215380D01*
X198429666Y-135215380D01*
X198572523Y-135263000D01*
X198620142Y-135310619D01*
X199572523Y-136215380D02*
X199001095Y-136215380D01*
X199286809Y-136215380D02*
X199286809Y-135215380D01*
X199191571Y-135358238D01*
X199096333Y-135453476D01*
X199001095Y-135501095D01*
X200191571Y-135215380D02*
X200286809Y-135215380D01*
X200382047Y-135263000D01*
X200429666Y-135310619D01*
X200477285Y-135405857D01*
X200524904Y-135596333D01*
X200524904Y-135834428D01*
X200477285Y-136024904D01*
X200429666Y-136120142D01*
X200382047Y-136167761D01*
X200286809Y-136215380D01*
X200191571Y-136215380D01*
X200096333Y-136167761D01*
X200048714Y-136120142D01*
X200001095Y-136024904D01*
X199953476Y-135834428D01*
X199953476Y-135596333D01*
X200001095Y-135405857D01*
X200048714Y-135310619D01*
X200096333Y-135263000D01*
X200191571Y-135215380D01*
X195619642Y-100560166D02*
X195667261Y-100607785D01*
X195714880Y-100750642D01*
X195714880Y-100845880D01*
X195667261Y-100988738D01*
X195572023Y-101083976D01*
X195476785Y-101131595D01*
X195286309Y-101179214D01*
X195143452Y-101179214D01*
X194952976Y-101131595D01*
X194857738Y-101083976D01*
X194762500Y-100988738D01*
X194714880Y-100845880D01*
X194714880Y-100750642D01*
X194762500Y-100607785D01*
X194810119Y-100560166D01*
X195714880Y-100083976D02*
X195714880Y-99893500D01*
X195667261Y-99798261D01*
X195619642Y-99750642D01*
X195476785Y-99655404D01*
X195286309Y-99607785D01*
X194905357Y-99607785D01*
X194810119Y-99655404D01*
X194762500Y-99703023D01*
X194714880Y-99798261D01*
X194714880Y-99988738D01*
X194762500Y-100083976D01*
X194810119Y-100131595D01*
X194905357Y-100179214D01*
X195143452Y-100179214D01*
X195238690Y-100131595D01*
X195286309Y-100083976D01*
X195333928Y-99988738D01*
X195333928Y-99798261D01*
X195286309Y-99703023D01*
X195238690Y-99655404D01*
X195143452Y-99607785D01*
X200572642Y-107354666D02*
X200620261Y-107402285D01*
X200667880Y-107545142D01*
X200667880Y-107640380D01*
X200620261Y-107783238D01*
X200525023Y-107878476D01*
X200429785Y-107926095D01*
X200239309Y-107973714D01*
X200096452Y-107973714D01*
X199905976Y-107926095D01*
X199810738Y-107878476D01*
X199715500Y-107783238D01*
X199667880Y-107640380D01*
X199667880Y-107545142D01*
X199715500Y-107402285D01*
X199763119Y-107354666D01*
X200096452Y-106783238D02*
X200048833Y-106878476D01*
X200001214Y-106926095D01*
X199905976Y-106973714D01*
X199858357Y-106973714D01*
X199763119Y-106926095D01*
X199715500Y-106878476D01*
X199667880Y-106783238D01*
X199667880Y-106592761D01*
X199715500Y-106497523D01*
X199763119Y-106449904D01*
X199858357Y-106402285D01*
X199905976Y-106402285D01*
X200001214Y-106449904D01*
X200048833Y-106497523D01*
X200096452Y-106592761D01*
X200096452Y-106783238D01*
X200144071Y-106878476D01*
X200191690Y-106926095D01*
X200286928Y-106973714D01*
X200477404Y-106973714D01*
X200572642Y-106926095D01*
X200620261Y-106878476D01*
X200667880Y-106783238D01*
X200667880Y-106592761D01*
X200620261Y-106497523D01*
X200572642Y-106449904D01*
X200477404Y-106402285D01*
X200286928Y-106402285D01*
X200191690Y-106449904D01*
X200144071Y-106497523D01*
X200096452Y-106592761D01*
X192524142Y-140850880D02*
X192190809Y-140374690D01*
X191952714Y-140850880D02*
X191952714Y-139850880D01*
X192333666Y-139850880D01*
X192428904Y-139898500D01*
X192476523Y-139946119D01*
X192524142Y-140041357D01*
X192524142Y-140184214D01*
X192476523Y-140279452D01*
X192428904Y-140327071D01*
X192333666Y-140374690D01*
X191952714Y-140374690D01*
X193476523Y-140850880D02*
X192905095Y-140850880D01*
X193190809Y-140850880D02*
X193190809Y-139850880D01*
X193095571Y-139993738D01*
X193000333Y-140088976D01*
X192905095Y-140136595D01*
X193952714Y-140850880D02*
X194143190Y-140850880D01*
X194238428Y-140803261D01*
X194286047Y-140755642D01*
X194381285Y-140612785D01*
X194428904Y-140422309D01*
X194428904Y-140041357D01*
X194381285Y-139946119D01*
X194333666Y-139898500D01*
X194238428Y-139850880D01*
X194047952Y-139850880D01*
X193952714Y-139898500D01*
X193905095Y-139946119D01*
X193857476Y-140041357D01*
X193857476Y-140279452D01*
X193905095Y-140374690D01*
X193952714Y-140422309D01*
X194047952Y-140469928D01*
X194238428Y-140469928D01*
X194333666Y-140422309D01*
X194381285Y-140374690D01*
X194428904Y-140279452D01*
X193318142Y-105100380D02*
X192984809Y-104624190D01*
X192746714Y-105100380D02*
X192746714Y-104100380D01*
X193127666Y-104100380D01*
X193222904Y-104148000D01*
X193270523Y-104195619D01*
X193318142Y-104290857D01*
X193318142Y-104433714D01*
X193270523Y-104528952D01*
X193222904Y-104576571D01*
X193127666Y-104624190D01*
X192746714Y-104624190D01*
X194270523Y-105100380D02*
X193699095Y-105100380D01*
X193984809Y-105100380D02*
X193984809Y-104100380D01*
X193889571Y-104243238D01*
X193794333Y-104338476D01*
X193699095Y-104386095D01*
X194841952Y-104528952D02*
X194746714Y-104481333D01*
X194699095Y-104433714D01*
X194651476Y-104338476D01*
X194651476Y-104290857D01*
X194699095Y-104195619D01*
X194746714Y-104148000D01*
X194841952Y-104100380D01*
X195032428Y-104100380D01*
X195127666Y-104148000D01*
X195175285Y-104195619D01*
X195222904Y-104290857D01*
X195222904Y-104338476D01*
X195175285Y-104433714D01*
X195127666Y-104481333D01*
X195032428Y-104528952D01*
X194841952Y-104528952D01*
X194746714Y-104576571D01*
X194699095Y-104624190D01*
X194651476Y-104719428D01*
X194651476Y-104909904D01*
X194699095Y-105005142D01*
X194746714Y-105052761D01*
X194841952Y-105100380D01*
X195032428Y-105100380D01*
X195127666Y-105052761D01*
X195175285Y-105005142D01*
X195222904Y-104909904D01*
X195222904Y-104719428D01*
X195175285Y-104624190D01*
X195127666Y-104576571D01*
X195032428Y-104528952D01*
X193873380Y-111005857D02*
X193397190Y-111339190D01*
X193873380Y-111577285D02*
X192873380Y-111577285D01*
X192873380Y-111196333D01*
X192921000Y-111101095D01*
X192968619Y-111053476D01*
X193063857Y-111005857D01*
X193206714Y-111005857D01*
X193301952Y-111053476D01*
X193349571Y-111101095D01*
X193397190Y-111196333D01*
X193397190Y-111577285D01*
X193873380Y-110053476D02*
X193873380Y-110624904D01*
X193873380Y-110339190D02*
X192873380Y-110339190D01*
X193016238Y-110434428D01*
X193111476Y-110529666D01*
X193159095Y-110624904D01*
X193206714Y-109196333D02*
X193873380Y-109196333D01*
X192825761Y-109434428D02*
X193540047Y-109672523D01*
X193540047Y-109053476D01*
X150915642Y-136024857D02*
X150963261Y-136072476D01*
X151010880Y-136215333D01*
X151010880Y-136310571D01*
X150963261Y-136453428D01*
X150868023Y-136548666D01*
X150772785Y-136596285D01*
X150582309Y-136643904D01*
X150439452Y-136643904D01*
X150248976Y-136596285D01*
X150153738Y-136548666D01*
X150058500Y-136453428D01*
X150010880Y-136310571D01*
X150010880Y-136215333D01*
X150058500Y-136072476D01*
X150106119Y-136024857D01*
X151010880Y-135072476D02*
X151010880Y-135643904D01*
X151010880Y-135358190D02*
X150010880Y-135358190D01*
X150153738Y-135453428D01*
X150248976Y-135548666D01*
X150296595Y-135643904D01*
X150344214Y-134215333D02*
X151010880Y-134215333D01*
X149963261Y-134453428D02*
X150677547Y-134691523D01*
X150677547Y-134072476D01*
X153392142Y-105798857D02*
X153439761Y-105846476D01*
X153487380Y-105989333D01*
X153487380Y-106084571D01*
X153439761Y-106227428D01*
X153344523Y-106322666D01*
X153249285Y-106370285D01*
X153058809Y-106417904D01*
X152915952Y-106417904D01*
X152725476Y-106370285D01*
X152630238Y-106322666D01*
X152535000Y-106227428D01*
X152487380Y-106084571D01*
X152487380Y-105989333D01*
X152535000Y-105846476D01*
X152582619Y-105798857D01*
X153487380Y-104846476D02*
X153487380Y-105417904D01*
X153487380Y-105132190D02*
X152487380Y-105132190D01*
X152630238Y-105227428D01*
X152725476Y-105322666D01*
X152773095Y-105417904D01*
X152487380Y-104513142D02*
X152487380Y-103894095D01*
X152868333Y-104227428D01*
X152868333Y-104084571D01*
X152915952Y-103989333D01*
X152963571Y-103941714D01*
X153058809Y-103894095D01*
X153296904Y-103894095D01*
X153392142Y-103941714D01*
X153439761Y-103989333D01*
X153487380Y-104084571D01*
X153487380Y-104370285D01*
X153439761Y-104465523D01*
X153392142Y-104513142D01*
X184554833Y-133516642D02*
X184507214Y-133564261D01*
X184364357Y-133611880D01*
X184269119Y-133611880D01*
X184126261Y-133564261D01*
X184031023Y-133469023D01*
X183983404Y-133373785D01*
X183935785Y-133183309D01*
X183935785Y-133040452D01*
X183983404Y-132849976D01*
X184031023Y-132754738D01*
X184126261Y-132659500D01*
X184269119Y-132611880D01*
X184364357Y-132611880D01*
X184507214Y-132659500D01*
X184554833Y-132707119D01*
X185459595Y-132611880D02*
X184983404Y-132611880D01*
X184935785Y-133088071D01*
X184983404Y-133040452D01*
X185078642Y-132992833D01*
X185316738Y-132992833D01*
X185411976Y-133040452D01*
X185459595Y-133088071D01*
X185507214Y-133183309D01*
X185507214Y-133421404D01*
X185459595Y-133516642D01*
X185411976Y-133564261D01*
X185316738Y-133611880D01*
X185078642Y-133611880D01*
X184983404Y-133564261D01*
X184935785Y-133516642D01*
X184046833Y-113704642D02*
X183999214Y-113752261D01*
X183856357Y-113799880D01*
X183761119Y-113799880D01*
X183618261Y-113752261D01*
X183523023Y-113657023D01*
X183475404Y-113561785D01*
X183427785Y-113371309D01*
X183427785Y-113228452D01*
X183475404Y-113037976D01*
X183523023Y-112942738D01*
X183618261Y-112847500D01*
X183761119Y-112799880D01*
X183856357Y-112799880D01*
X183999214Y-112847500D01*
X184046833Y-112895119D01*
X184903976Y-113133214D02*
X184903976Y-113799880D01*
X184665880Y-112752261D02*
X184427785Y-113466547D01*
X185046833Y-113466547D01*
X183969066Y-121056980D02*
X183969066Y-121771266D01*
X183921447Y-121914123D01*
X183826209Y-122009361D01*
X183683352Y-122056980D01*
X183588114Y-122056980D01*
X184350019Y-121056980D02*
X185016685Y-121056980D01*
X184588114Y-122056980D01*
X183918266Y-127610180D02*
X183918266Y-128324466D01*
X183870647Y-128467323D01*
X183775409Y-128562561D01*
X183632552Y-128610180D01*
X183537314Y-128610180D01*
X184823028Y-127610180D02*
X184632552Y-127610180D01*
X184537314Y-127657800D01*
X184489695Y-127705419D01*
X184394457Y-127848276D01*
X184346838Y-128038752D01*
X184346838Y-128419704D01*
X184394457Y-128514942D01*
X184442076Y-128562561D01*
X184537314Y-128610180D01*
X184727790Y-128610180D01*
X184823028Y-128562561D01*
X184870647Y-128514942D01*
X184918266Y-128419704D01*
X184918266Y-128181609D01*
X184870647Y-128086371D01*
X184823028Y-128038752D01*
X184727790Y-127991133D01*
X184537314Y-127991133D01*
X184442076Y-128038752D01*
X184394457Y-128086371D01*
X184346838Y-128181609D01*
X198040666Y-123622380D02*
X198040666Y-124336666D01*
X197993047Y-124479523D01*
X197897809Y-124574761D01*
X197754952Y-124622380D01*
X197659714Y-124622380D01*
X198993047Y-123622380D02*
X198516857Y-123622380D01*
X198469238Y-124098571D01*
X198516857Y-124050952D01*
X198612095Y-124003333D01*
X198850190Y-124003333D01*
X198945428Y-124050952D01*
X198993047Y-124098571D01*
X199040666Y-124193809D01*
X199040666Y-124431904D01*
X198993047Y-124527142D01*
X198945428Y-124574761D01*
X198850190Y-124622380D01*
X198612095Y-124622380D01*
X198516857Y-124574761D01*
X198469238Y-124527142D01*
X125269666Y-129210380D02*
X125269666Y-129924666D01*
X125222047Y-130067523D01*
X125126809Y-130162761D01*
X124983952Y-130210380D01*
X124888714Y-130210380D01*
X126174428Y-129543714D02*
X126174428Y-130210380D01*
X125936333Y-129162761D02*
X125698238Y-129877047D01*
X126317285Y-129877047D01*
X198040666Y-132512380D02*
X198040666Y-133226666D01*
X197993047Y-133369523D01*
X197897809Y-133464761D01*
X197754952Y-133512380D01*
X197659714Y-133512380D01*
X198421619Y-132512380D02*
X199040666Y-132512380D01*
X198707333Y-132893333D01*
X198850190Y-132893333D01*
X198945428Y-132940952D01*
X198993047Y-132988571D01*
X199040666Y-133083809D01*
X199040666Y-133321904D01*
X198993047Y-133417142D01*
X198945428Y-133464761D01*
X198850190Y-133512380D01*
X198564476Y-133512380D01*
X198469238Y-133464761D01*
X198421619Y-133417142D01*
X125269666Y-121336380D02*
X125269666Y-122050666D01*
X125222047Y-122193523D01*
X125126809Y-122288761D01*
X124983952Y-122336380D01*
X124888714Y-122336380D01*
X125698238Y-121431619D02*
X125745857Y-121384000D01*
X125841095Y-121336380D01*
X126079190Y-121336380D01*
X126174428Y-121384000D01*
X126222047Y-121431619D01*
X126269666Y-121526857D01*
X126269666Y-121622095D01*
X126222047Y-121764952D01*
X125650619Y-122336380D01*
X126269666Y-122336380D01*
X198040666Y-114732380D02*
X198040666Y-115446666D01*
X197993047Y-115589523D01*
X197897809Y-115684761D01*
X197754952Y-115732380D01*
X197659714Y-115732380D01*
X199040666Y-115732380D02*
X198469238Y-115732380D01*
X198754952Y-115732380D02*
X198754952Y-114732380D01*
X198659714Y-114875238D01*
X198564476Y-114970476D01*
X198469238Y-115018095D01*
X145891261Y-138533119D02*
X145796023Y-138485500D01*
X145700785Y-138390261D01*
X145557928Y-138247404D01*
X145462690Y-138199785D01*
X145367452Y-138199785D01*
X145415071Y-138437880D02*
X145319833Y-138390261D01*
X145224595Y-138295023D01*
X145176976Y-138104547D01*
X145176976Y-137771214D01*
X145224595Y-137580738D01*
X145319833Y-137485500D01*
X145415071Y-137437880D01*
X145605547Y-137437880D01*
X145700785Y-137485500D01*
X145796023Y-137580738D01*
X145843642Y-137771214D01*
X145843642Y-138104547D01*
X145796023Y-138295023D01*
X145700785Y-138390261D01*
X145605547Y-138437880D01*
X145415071Y-138437880D01*
X146700785Y-137771214D02*
X146700785Y-138437880D01*
X146462690Y-137390261D02*
X146224595Y-138104547D01*
X146843642Y-138104547D01*
X175085571Y-133855119D02*
X174990333Y-133807500D01*
X174895095Y-133712261D01*
X174752238Y-133569404D01*
X174657000Y-133521785D01*
X174561761Y-133521785D01*
X174609380Y-133759880D02*
X174514142Y-133712261D01*
X174418904Y-133617023D01*
X174371285Y-133426547D01*
X174371285Y-133093214D01*
X174418904Y-132902738D01*
X174514142Y-132807500D01*
X174609380Y-132759880D01*
X174799857Y-132759880D01*
X174895095Y-132807500D01*
X174990333Y-132902738D01*
X175037952Y-133093214D01*
X175037952Y-133426547D01*
X174990333Y-133617023D01*
X174895095Y-133712261D01*
X174799857Y-133759880D01*
X174609380Y-133759880D01*
X175990333Y-133759880D02*
X175418904Y-133759880D01*
X175704619Y-133759880D02*
X175704619Y-132759880D01*
X175609380Y-132902738D01*
X175514142Y-132997976D01*
X175418904Y-133045595D01*
X176609380Y-132759880D02*
X176704619Y-132759880D01*
X176799857Y-132807500D01*
X176847476Y-132855119D01*
X176895095Y-132950357D01*
X176942714Y-133140833D01*
X176942714Y-133378928D01*
X176895095Y-133569404D01*
X176847476Y-133664642D01*
X176799857Y-133712261D01*
X176704619Y-133759880D01*
X176609380Y-133759880D01*
X176514142Y-133712261D01*
X176466523Y-133664642D01*
X176418904Y-133569404D01*
X176371285Y-133378928D01*
X176371285Y-133140833D01*
X176418904Y-132950357D01*
X176466523Y-132855119D01*
X176514142Y-132807500D01*
X176609380Y-132759880D01*
X154884380Y-98464666D02*
X154408190Y-98798000D01*
X154884380Y-99036095D02*
X153884380Y-99036095D01*
X153884380Y-98655142D01*
X153932000Y-98559904D01*
X153979619Y-98512285D01*
X154074857Y-98464666D01*
X154217714Y-98464666D01*
X154312952Y-98512285D01*
X154360571Y-98559904D01*
X154408190Y-98655142D01*
X154408190Y-99036095D01*
X154217714Y-97607523D02*
X154884380Y-97607523D01*
X153836761Y-97845619D02*
X154551047Y-98083714D01*
X154551047Y-97464666D01*
X167282833Y-127357142D02*
X167235214Y-127404761D01*
X167092357Y-127452380D01*
X166997119Y-127452380D01*
X166854261Y-127404761D01*
X166759023Y-127309523D01*
X166711404Y-127214285D01*
X166663785Y-127023809D01*
X166663785Y-126880952D01*
X166711404Y-126690476D01*
X166759023Y-126595238D01*
X166854261Y-126500000D01*
X166997119Y-126452380D01*
X167092357Y-126452380D01*
X167235214Y-126500000D01*
X167282833Y-126547619D01*
X167616166Y-126452380D02*
X168282833Y-126452380D01*
X167854261Y-127452380D01*
X170219642Y-122245357D02*
X170267261Y-122292976D01*
X170314880Y-122435833D01*
X170314880Y-122531071D01*
X170267261Y-122673928D01*
X170172023Y-122769166D01*
X170076785Y-122816785D01*
X169886309Y-122864404D01*
X169743452Y-122864404D01*
X169552976Y-122816785D01*
X169457738Y-122769166D01*
X169362500Y-122673928D01*
X169314880Y-122531071D01*
X169314880Y-122435833D01*
X169362500Y-122292976D01*
X169410119Y-122245357D01*
X170314880Y-121292976D02*
X170314880Y-121864404D01*
X170314880Y-121578690D02*
X169314880Y-121578690D01*
X169457738Y-121673928D01*
X169552976Y-121769166D01*
X169600595Y-121864404D01*
X169410119Y-120912023D02*
X169362500Y-120864404D01*
X169314880Y-120769166D01*
X169314880Y-120531071D01*
X169362500Y-120435833D01*
X169410119Y-120388214D01*
X169505357Y-120340595D01*
X169600595Y-120340595D01*
X169743452Y-120388214D01*
X170314880Y-120959642D01*
X170314880Y-120340595D01*
X174656761Y-121896119D02*
X174561523Y-121848500D01*
X174466285Y-121753261D01*
X174323428Y-121610404D01*
X174228190Y-121562785D01*
X174132952Y-121562785D01*
X174180571Y-121800880D02*
X174085333Y-121753261D01*
X173990095Y-121658023D01*
X173942476Y-121467547D01*
X173942476Y-121134214D01*
X173990095Y-120943738D01*
X174085333Y-120848500D01*
X174180571Y-120800880D01*
X174371047Y-120800880D01*
X174466285Y-120848500D01*
X174561523Y-120943738D01*
X174609142Y-121134214D01*
X174609142Y-121467547D01*
X174561523Y-121658023D01*
X174466285Y-121753261D01*
X174371047Y-121800880D01*
X174180571Y-121800880D01*
X175085333Y-121800880D02*
X175275809Y-121800880D01*
X175371047Y-121753261D01*
X175418666Y-121705642D01*
X175513904Y-121562785D01*
X175561523Y-121372309D01*
X175561523Y-120991357D01*
X175513904Y-120896119D01*
X175466285Y-120848500D01*
X175371047Y-120800880D01*
X175180571Y-120800880D01*
X175085333Y-120848500D01*
X175037714Y-120896119D01*
X174990095Y-120991357D01*
X174990095Y-121229452D01*
X175037714Y-121324690D01*
X175085333Y-121372309D01*
X175180571Y-121419928D01*
X175371047Y-121419928D01*
X175466285Y-121372309D01*
X175513904Y-121324690D01*
X175561523Y-121229452D01*
X132660380Y-118165666D02*
X132184190Y-118499000D01*
X132660380Y-118737095D02*
X131660380Y-118737095D01*
X131660380Y-118356142D01*
X131708000Y-118260904D01*
X131755619Y-118213285D01*
X131850857Y-118165666D01*
X131993714Y-118165666D01*
X132088952Y-118213285D01*
X132136571Y-118260904D01*
X132184190Y-118356142D01*
X132184190Y-118737095D01*
X132660380Y-117213285D02*
X132660380Y-117784714D01*
X132660380Y-117499000D02*
X131660380Y-117499000D01*
X131803238Y-117594238D01*
X131898476Y-117689476D01*
X131946095Y-117784714D01*
X192754780Y-144346657D02*
X192278590Y-144679990D01*
X192754780Y-144918085D02*
X191754780Y-144918085D01*
X191754780Y-144537133D01*
X191802400Y-144441895D01*
X191850019Y-144394276D01*
X191945257Y-144346657D01*
X192088114Y-144346657D01*
X192183352Y-144394276D01*
X192230971Y-144441895D01*
X192278590Y-144537133D01*
X192278590Y-144918085D01*
X192754780Y-143394276D02*
X192754780Y-143965704D01*
X192754780Y-143679990D02*
X191754780Y-143679990D01*
X191897638Y-143775228D01*
X191992876Y-143870466D01*
X192040495Y-143965704D01*
X191754780Y-142537133D02*
X191754780Y-142727609D01*
X191802400Y-142822847D01*
X191850019Y-142870466D01*
X191992876Y-142965704D01*
X192183352Y-143013323D01*
X192564304Y-143013323D01*
X192659542Y-142965704D01*
X192707161Y-142918085D01*
X192754780Y-142822847D01*
X192754780Y-142632371D01*
X192707161Y-142537133D01*
X192659542Y-142489514D01*
X192564304Y-142441895D01*
X192326209Y-142441895D01*
X192230971Y-142489514D01*
X192183352Y-142537133D01*
X192135733Y-142632371D01*
X192135733Y-142822847D01*
X192183352Y-142918085D01*
X192230971Y-142965704D01*
X192326209Y-143013323D01*
X180919380Y-115260357D02*
X180443190Y-115593690D01*
X180919380Y-115831785D02*
X179919380Y-115831785D01*
X179919380Y-115450833D01*
X179967000Y-115355595D01*
X180014619Y-115307976D01*
X180109857Y-115260357D01*
X180252714Y-115260357D01*
X180347952Y-115307976D01*
X180395571Y-115355595D01*
X180443190Y-115450833D01*
X180443190Y-115831785D01*
X180919380Y-114307976D02*
X180919380Y-114879404D01*
X180919380Y-114593690D02*
X179919380Y-114593690D01*
X180062238Y-114688928D01*
X180157476Y-114784166D01*
X180205095Y-114879404D01*
X180014619Y-113927023D02*
X179967000Y-113879404D01*
X179919380Y-113784166D01*
X179919380Y-113546071D01*
X179967000Y-113450833D01*
X180014619Y-113403214D01*
X180109857Y-113355595D01*
X180205095Y-113355595D01*
X180347952Y-113403214D01*
X180919380Y-113974642D01*
X180919380Y-113355595D01*
X168727380Y-102496857D02*
X168251190Y-102830190D01*
X168727380Y-103068285D02*
X167727380Y-103068285D01*
X167727380Y-102687333D01*
X167775000Y-102592095D01*
X167822619Y-102544476D01*
X167917857Y-102496857D01*
X168060714Y-102496857D01*
X168155952Y-102544476D01*
X168203571Y-102592095D01*
X168251190Y-102687333D01*
X168251190Y-103068285D01*
X168727380Y-101544476D02*
X168727380Y-102115904D01*
X168727380Y-101830190D02*
X167727380Y-101830190D01*
X167870238Y-101925428D01*
X167965476Y-102020666D01*
X168013095Y-102115904D01*
X168727380Y-100592095D02*
X168727380Y-101163523D01*
X168727380Y-100877809D02*
X167727380Y-100877809D01*
X167870238Y-100973047D01*
X167965476Y-101068285D01*
X168013095Y-101163523D01*
X167265880Y-143025857D02*
X166789690Y-143359190D01*
X167265880Y-143597285D02*
X166265880Y-143597285D01*
X166265880Y-143216333D01*
X166313500Y-143121095D01*
X166361119Y-143073476D01*
X166456357Y-143025857D01*
X166599214Y-143025857D01*
X166694452Y-143073476D01*
X166742071Y-143121095D01*
X166789690Y-143216333D01*
X166789690Y-143597285D01*
X167265880Y-142073476D02*
X167265880Y-142644904D01*
X167265880Y-142359190D02*
X166265880Y-142359190D01*
X166408738Y-142454428D01*
X166503976Y-142549666D01*
X166551595Y-142644904D01*
X166265880Y-141454428D02*
X166265880Y-141359190D01*
X166313500Y-141263952D01*
X166361119Y-141216333D01*
X166456357Y-141168714D01*
X166646833Y-141121095D01*
X166884928Y-141121095D01*
X167075404Y-141168714D01*
X167170642Y-141216333D01*
X167218261Y-141263952D01*
X167265880Y-141359190D01*
X167265880Y-141454428D01*
X167218261Y-141549666D01*
X167170642Y-141597285D01*
X167075404Y-141644904D01*
X166884928Y-141692523D01*
X166646833Y-141692523D01*
X166456357Y-141644904D01*
X166361119Y-141597285D01*
X166313500Y-141549666D01*
X166265880Y-141454428D01*
X165361880Y-119356166D02*
X164885690Y-119689500D01*
X165361880Y-119927595D02*
X164361880Y-119927595D01*
X164361880Y-119546642D01*
X164409500Y-119451404D01*
X164457119Y-119403785D01*
X164552357Y-119356166D01*
X164695214Y-119356166D01*
X164790452Y-119403785D01*
X164838071Y-119451404D01*
X164885690Y-119546642D01*
X164885690Y-119927595D01*
X165361880Y-118879976D02*
X165361880Y-118689500D01*
X165314261Y-118594261D01*
X165266642Y-118546642D01*
X165123785Y-118451404D01*
X164933309Y-118403785D01*
X164552357Y-118403785D01*
X164457119Y-118451404D01*
X164409500Y-118499023D01*
X164361880Y-118594261D01*
X164361880Y-118784738D01*
X164409500Y-118879976D01*
X164457119Y-118927595D01*
X164552357Y-118975214D01*
X164790452Y-118975214D01*
X164885690Y-118927595D01*
X164933309Y-118879976D01*
X164980928Y-118784738D01*
X164980928Y-118594261D01*
X164933309Y-118499023D01*
X164885690Y-118451404D01*
X164790452Y-118403785D01*
X162504380Y-119356166D02*
X162028190Y-119689500D01*
X162504380Y-119927595D02*
X161504380Y-119927595D01*
X161504380Y-119546642D01*
X161552000Y-119451404D01*
X161599619Y-119403785D01*
X161694857Y-119356166D01*
X161837714Y-119356166D01*
X161932952Y-119403785D01*
X161980571Y-119451404D01*
X162028190Y-119546642D01*
X162028190Y-119927595D01*
X161932952Y-118784738D02*
X161885333Y-118879976D01*
X161837714Y-118927595D01*
X161742476Y-118975214D01*
X161694857Y-118975214D01*
X161599619Y-118927595D01*
X161552000Y-118879976D01*
X161504380Y-118784738D01*
X161504380Y-118594261D01*
X161552000Y-118499023D01*
X161599619Y-118451404D01*
X161694857Y-118403785D01*
X161742476Y-118403785D01*
X161837714Y-118451404D01*
X161885333Y-118499023D01*
X161932952Y-118594261D01*
X161932952Y-118784738D01*
X161980571Y-118879976D01*
X162028190Y-118927595D01*
X162123428Y-118975214D01*
X162313904Y-118975214D01*
X162409142Y-118927595D01*
X162456761Y-118879976D01*
X162504380Y-118784738D01*
X162504380Y-118594261D01*
X162456761Y-118499023D01*
X162409142Y-118451404D01*
X162313904Y-118403785D01*
X162123428Y-118403785D01*
X162028190Y-118451404D01*
X161980571Y-118499023D01*
X161932952Y-118594261D01*
X162757380Y-112164666D02*
X162281190Y-112498000D01*
X162757380Y-112736095D02*
X161757380Y-112736095D01*
X161757380Y-112355142D01*
X161805000Y-112259904D01*
X161852619Y-112212285D01*
X161947857Y-112164666D01*
X162090714Y-112164666D01*
X162185952Y-112212285D01*
X162233571Y-112259904D01*
X162281190Y-112355142D01*
X162281190Y-112736095D01*
X161757380Y-111831333D02*
X161757380Y-111164666D01*
X162757380Y-111593238D01*
X149739880Y-142549666D02*
X149263690Y-142883000D01*
X149739880Y-143121095D02*
X148739880Y-143121095D01*
X148739880Y-142740142D01*
X148787500Y-142644904D01*
X148835119Y-142597285D01*
X148930357Y-142549666D01*
X149073214Y-142549666D01*
X149168452Y-142597285D01*
X149216071Y-142644904D01*
X149263690Y-142740142D01*
X149263690Y-143121095D01*
X148739880Y-141692523D02*
X148739880Y-141883000D01*
X148787500Y-141978238D01*
X148835119Y-142025857D01*
X148977976Y-142121095D01*
X149168452Y-142168714D01*
X149549404Y-142168714D01*
X149644642Y-142121095D01*
X149692261Y-142073476D01*
X149739880Y-141978238D01*
X149739880Y-141787761D01*
X149692261Y-141692523D01*
X149644642Y-141644904D01*
X149549404Y-141597285D01*
X149311309Y-141597285D01*
X149216071Y-141644904D01*
X149168452Y-141692523D01*
X149120833Y-141787761D01*
X149120833Y-141978238D01*
X149168452Y-142073476D01*
X149216071Y-142121095D01*
X149311309Y-142168714D01*
X149866880Y-126261666D02*
X149390690Y-126595000D01*
X149866880Y-126833095D02*
X148866880Y-126833095D01*
X148866880Y-126452142D01*
X148914500Y-126356904D01*
X148962119Y-126309285D01*
X149057357Y-126261666D01*
X149200214Y-126261666D01*
X149295452Y-126309285D01*
X149343071Y-126356904D01*
X149390690Y-126452142D01*
X149390690Y-126833095D01*
X148866880Y-125356904D02*
X148866880Y-125833095D01*
X149343071Y-125880714D01*
X149295452Y-125833095D01*
X149247833Y-125737857D01*
X149247833Y-125499761D01*
X149295452Y-125404523D01*
X149343071Y-125356904D01*
X149438309Y-125309285D01*
X149676404Y-125309285D01*
X149771642Y-125356904D01*
X149819261Y-125404523D01*
X149866880Y-125499761D01*
X149866880Y-125737857D01*
X149819261Y-125833095D01*
X149771642Y-125880714D01*
X143897880Y-142549666D02*
X143421690Y-142883000D01*
X143897880Y-143121095D02*
X142897880Y-143121095D01*
X142897880Y-142740142D01*
X142945500Y-142644904D01*
X142993119Y-142597285D01*
X143088357Y-142549666D01*
X143231214Y-142549666D01*
X143326452Y-142597285D01*
X143374071Y-142644904D01*
X143421690Y-142740142D01*
X143421690Y-143121095D01*
X142897880Y-142216333D02*
X142897880Y-141597285D01*
X143278833Y-141930619D01*
X143278833Y-141787761D01*
X143326452Y-141692523D01*
X143374071Y-141644904D01*
X143469309Y-141597285D01*
X143707404Y-141597285D01*
X143802642Y-141644904D01*
X143850261Y-141692523D01*
X143897880Y-141787761D01*
X143897880Y-142073476D01*
X143850261Y-142168714D01*
X143802642Y-142216333D01*
X145802880Y-126293666D02*
X145326690Y-126627000D01*
X145802880Y-126865095D02*
X144802880Y-126865095D01*
X144802880Y-126484142D01*
X144850500Y-126388904D01*
X144898119Y-126341285D01*
X144993357Y-126293666D01*
X145136214Y-126293666D01*
X145231452Y-126341285D01*
X145279071Y-126388904D01*
X145326690Y-126484142D01*
X145326690Y-126865095D01*
X144898119Y-125912714D02*
X144850500Y-125865095D01*
X144802880Y-125769857D01*
X144802880Y-125531761D01*
X144850500Y-125436523D01*
X144898119Y-125388904D01*
X144993357Y-125341285D01*
X145088595Y-125341285D01*
X145231452Y-125388904D01*
X145802880Y-125960333D01*
X145802880Y-125341285D01*
X186920119Y-140969928D02*
X186872500Y-141065166D01*
X186777261Y-141160404D01*
X186634404Y-141303261D01*
X186586785Y-141398500D01*
X186586785Y-141493738D01*
X186824880Y-141446119D02*
X186777261Y-141541357D01*
X186682023Y-141636595D01*
X186491547Y-141684214D01*
X186158214Y-141684214D01*
X185967738Y-141636595D01*
X185872500Y-141541357D01*
X185824880Y-141446119D01*
X185824880Y-141255642D01*
X185872500Y-141160404D01*
X185967738Y-141065166D01*
X186158214Y-141017547D01*
X186491547Y-141017547D01*
X186682023Y-141065166D01*
X186777261Y-141160404D01*
X186824880Y-141255642D01*
X186824880Y-141446119D01*
X186824880Y-140065166D02*
X186824880Y-140636595D01*
X186824880Y-140350880D02*
X185824880Y-140350880D01*
X185967738Y-140446119D01*
X186062976Y-140541357D01*
X186110595Y-140636595D01*
X185920119Y-139684214D02*
X185872500Y-139636595D01*
X185824880Y-139541357D01*
X185824880Y-139303261D01*
X185872500Y-139208023D01*
X185920119Y-139160404D01*
X186015357Y-139112785D01*
X186110595Y-139112785D01*
X186253452Y-139160404D01*
X186824880Y-139731833D01*
X186824880Y-139112785D01*
X186221619Y-108140428D02*
X186174000Y-108235666D01*
X186078761Y-108330904D01*
X185935904Y-108473761D01*
X185888285Y-108569000D01*
X185888285Y-108664238D01*
X186126380Y-108616619D02*
X186078761Y-108711857D01*
X185983523Y-108807095D01*
X185793047Y-108854714D01*
X185459714Y-108854714D01*
X185269238Y-108807095D01*
X185174000Y-108711857D01*
X185126380Y-108616619D01*
X185126380Y-108426142D01*
X185174000Y-108330904D01*
X185269238Y-108235666D01*
X185459714Y-108188047D01*
X185793047Y-108188047D01*
X185983523Y-108235666D01*
X186078761Y-108330904D01*
X186126380Y-108426142D01*
X186126380Y-108616619D01*
X186126380Y-107235666D02*
X186126380Y-107807095D01*
X186126380Y-107521380D02*
X185126380Y-107521380D01*
X185269238Y-107616619D01*
X185364476Y-107711857D01*
X185412095Y-107807095D01*
X186126380Y-106283285D02*
X186126380Y-106854714D01*
X186126380Y-106569000D02*
X185126380Y-106569000D01*
X185269238Y-106664238D01*
X185364476Y-106759476D01*
X185412095Y-106854714D01*
X171608761Y-134913619D02*
X171513523Y-134866000D01*
X171418285Y-134770761D01*
X171275428Y-134627904D01*
X171180190Y-134580285D01*
X171084952Y-134580285D01*
X171132571Y-134818380D02*
X171037333Y-134770761D01*
X170942095Y-134675523D01*
X170894476Y-134485047D01*
X170894476Y-134151714D01*
X170942095Y-133961238D01*
X171037333Y-133866000D01*
X171132571Y-133818380D01*
X171323047Y-133818380D01*
X171418285Y-133866000D01*
X171513523Y-133961238D01*
X171561142Y-134151714D01*
X171561142Y-134485047D01*
X171513523Y-134675523D01*
X171418285Y-134770761D01*
X171323047Y-134818380D01*
X171132571Y-134818380D01*
X172132571Y-134246952D02*
X172037333Y-134199333D01*
X171989714Y-134151714D01*
X171942095Y-134056476D01*
X171942095Y-134008857D01*
X171989714Y-133913619D01*
X172037333Y-133866000D01*
X172132571Y-133818380D01*
X172323047Y-133818380D01*
X172418285Y-133866000D01*
X172465904Y-133913619D01*
X172513523Y-134008857D01*
X172513523Y-134056476D01*
X172465904Y-134151714D01*
X172418285Y-134199333D01*
X172323047Y-134246952D01*
X172132571Y-134246952D01*
X172037333Y-134294571D01*
X171989714Y-134342190D01*
X171942095Y-134437428D01*
X171942095Y-134627904D01*
X171989714Y-134723142D01*
X172037333Y-134770761D01*
X172132571Y-134818380D01*
X172323047Y-134818380D01*
X172418285Y-134770761D01*
X172465904Y-134723142D01*
X172513523Y-134627904D01*
X172513523Y-134437428D01*
X172465904Y-134342190D01*
X172418285Y-134294571D01*
X172323047Y-134246952D01*
X168179761Y-110275619D02*
X168084523Y-110228000D01*
X167989285Y-110132761D01*
X167846428Y-109989904D01*
X167751190Y-109942285D01*
X167655952Y-109942285D01*
X167703571Y-110180380D02*
X167608333Y-110132761D01*
X167513095Y-110037523D01*
X167465476Y-109847047D01*
X167465476Y-109513714D01*
X167513095Y-109323238D01*
X167608333Y-109228000D01*
X167703571Y-109180380D01*
X167894047Y-109180380D01*
X167989285Y-109228000D01*
X168084523Y-109323238D01*
X168132142Y-109513714D01*
X168132142Y-109847047D01*
X168084523Y-110037523D01*
X167989285Y-110132761D01*
X167894047Y-110180380D01*
X167703571Y-110180380D01*
X168465476Y-109180380D02*
X169132142Y-109180380D01*
X168703571Y-110180380D01*
X166909761Y-134977119D02*
X166814523Y-134929500D01*
X166719285Y-134834261D01*
X166576428Y-134691404D01*
X166481190Y-134643785D01*
X166385952Y-134643785D01*
X166433571Y-134881880D02*
X166338333Y-134834261D01*
X166243095Y-134739023D01*
X166195476Y-134548547D01*
X166195476Y-134215214D01*
X166243095Y-134024738D01*
X166338333Y-133929500D01*
X166433571Y-133881880D01*
X166624047Y-133881880D01*
X166719285Y-133929500D01*
X166814523Y-134024738D01*
X166862142Y-134215214D01*
X166862142Y-134548547D01*
X166814523Y-134739023D01*
X166719285Y-134834261D01*
X166624047Y-134881880D01*
X166433571Y-134881880D01*
X167719285Y-133881880D02*
X167528809Y-133881880D01*
X167433571Y-133929500D01*
X167385952Y-133977119D01*
X167290714Y-134119976D01*
X167243095Y-134310452D01*
X167243095Y-134691404D01*
X167290714Y-134786642D01*
X167338333Y-134834261D01*
X167433571Y-134881880D01*
X167624047Y-134881880D01*
X167719285Y-134834261D01*
X167766904Y-134786642D01*
X167814523Y-134691404D01*
X167814523Y-134453309D01*
X167766904Y-134358071D01*
X167719285Y-134310452D01*
X167624047Y-134262833D01*
X167433571Y-134262833D01*
X167338333Y-134310452D01*
X167290714Y-134358071D01*
X167243095Y-134453309D01*
X146788119Y-130968738D02*
X146740500Y-131063976D01*
X146645261Y-131159214D01*
X146502404Y-131302071D01*
X146454785Y-131397309D01*
X146454785Y-131492547D01*
X146692880Y-131444928D02*
X146645261Y-131540166D01*
X146550023Y-131635404D01*
X146359547Y-131683023D01*
X146026214Y-131683023D01*
X145835738Y-131635404D01*
X145740500Y-131540166D01*
X145692880Y-131444928D01*
X145692880Y-131254452D01*
X145740500Y-131159214D01*
X145835738Y-131063976D01*
X146026214Y-131016357D01*
X146359547Y-131016357D01*
X146550023Y-131063976D01*
X146645261Y-131159214D01*
X146692880Y-131254452D01*
X146692880Y-131444928D01*
X145692880Y-130111595D02*
X145692880Y-130587785D01*
X146169071Y-130635404D01*
X146121452Y-130587785D01*
X146073833Y-130492547D01*
X146073833Y-130254452D01*
X146121452Y-130159214D01*
X146169071Y-130111595D01*
X146264309Y-130063976D01*
X146502404Y-130063976D01*
X146597642Y-130111595D01*
X146645261Y-130159214D01*
X146692880Y-130254452D01*
X146692880Y-130492547D01*
X146645261Y-130587785D01*
X146597642Y-130635404D01*
X158662619Y-114903238D02*
X158615000Y-114998476D01*
X158519761Y-115093714D01*
X158376904Y-115236571D01*
X158329285Y-115331809D01*
X158329285Y-115427047D01*
X158567380Y-115379428D02*
X158519761Y-115474666D01*
X158424523Y-115569904D01*
X158234047Y-115617523D01*
X157900714Y-115617523D01*
X157710238Y-115569904D01*
X157615000Y-115474666D01*
X157567380Y-115379428D01*
X157567380Y-115188952D01*
X157615000Y-115093714D01*
X157710238Y-114998476D01*
X157900714Y-114950857D01*
X158234047Y-114950857D01*
X158424523Y-114998476D01*
X158519761Y-115093714D01*
X158567380Y-115188952D01*
X158567380Y-115379428D01*
X157567380Y-114617523D02*
X157567380Y-113998476D01*
X157948333Y-114331809D01*
X157948333Y-114188952D01*
X157995952Y-114093714D01*
X158043571Y-114046095D01*
X158138809Y-113998476D01*
X158376904Y-113998476D01*
X158472142Y-114046095D01*
X158519761Y-114093714D01*
X158567380Y-114188952D01*
X158567380Y-114474666D01*
X158519761Y-114569904D01*
X158472142Y-114617523D01*
X142906761Y-138469619D02*
X142811523Y-138422000D01*
X142716285Y-138326761D01*
X142573428Y-138183904D01*
X142478190Y-138136285D01*
X142382952Y-138136285D01*
X142430571Y-138374380D02*
X142335333Y-138326761D01*
X142240095Y-138231523D01*
X142192476Y-138041047D01*
X142192476Y-137707714D01*
X142240095Y-137517238D01*
X142335333Y-137422000D01*
X142430571Y-137374380D01*
X142621047Y-137374380D01*
X142716285Y-137422000D01*
X142811523Y-137517238D01*
X142859142Y-137707714D01*
X142859142Y-138041047D01*
X142811523Y-138231523D01*
X142716285Y-138326761D01*
X142621047Y-138374380D01*
X142430571Y-138374380D01*
X143240095Y-137469619D02*
X143287714Y-137422000D01*
X143382952Y-137374380D01*
X143621047Y-137374380D01*
X143716285Y-137422000D01*
X143763904Y-137469619D01*
X143811523Y-137564857D01*
X143811523Y-137660095D01*
X143763904Y-137802952D01*
X143192476Y-138374380D01*
X143811523Y-138374380D01*
X140798119Y-130921238D02*
X140750500Y-131016476D01*
X140655261Y-131111714D01*
X140512404Y-131254571D01*
X140464785Y-131349809D01*
X140464785Y-131445047D01*
X140702880Y-131397428D02*
X140655261Y-131492666D01*
X140560023Y-131587904D01*
X140369547Y-131635523D01*
X140036214Y-131635523D01*
X139845738Y-131587904D01*
X139750500Y-131492666D01*
X139702880Y-131397428D01*
X139702880Y-131206952D01*
X139750500Y-131111714D01*
X139845738Y-131016476D01*
X140036214Y-130968857D01*
X140369547Y-130968857D01*
X140560023Y-131016476D01*
X140655261Y-131111714D01*
X140702880Y-131206952D01*
X140702880Y-131397428D01*
X140702880Y-130016476D02*
X140702880Y-130587904D01*
X140702880Y-130302190D02*
X139702880Y-130302190D01*
X139845738Y-130397428D01*
X139940976Y-130492666D01*
X139988595Y-130587904D01*
X125476095Y-96582380D02*
X125476095Y-95582380D01*
X125476095Y-96058571D02*
X126047523Y-96058571D01*
X126047523Y-96582380D02*
X126047523Y-95582380D01*
X126952285Y-95915714D02*
X126952285Y-96582380D01*
X126714190Y-95534761D02*
X126476095Y-96249047D01*
X127095142Y-96249047D01*
X125222095Y-139762380D02*
X125222095Y-138762380D01*
X125222095Y-139238571D02*
X125793523Y-139238571D01*
X125793523Y-139762380D02*
X125793523Y-138762380D01*
X126174476Y-138762380D02*
X126793523Y-138762380D01*
X126460190Y-139143333D01*
X126603047Y-139143333D01*
X126698285Y-139190952D01*
X126745904Y-139238571D01*
X126793523Y-139333809D01*
X126793523Y-139571904D01*
X126745904Y-139667142D01*
X126698285Y-139714761D01*
X126603047Y-139762380D01*
X126317333Y-139762380D01*
X126222095Y-139714761D01*
X126174476Y-139667142D01*
X198882095Y-139762380D02*
X198882095Y-138762380D01*
X198882095Y-139238571D02*
X199453523Y-139238571D01*
X199453523Y-139762380D02*
X199453523Y-138762380D01*
X199882095Y-138857619D02*
X199929714Y-138810000D01*
X200024952Y-138762380D01*
X200263047Y-138762380D01*
X200358285Y-138810000D01*
X200405904Y-138857619D01*
X200453523Y-138952857D01*
X200453523Y-139048095D01*
X200405904Y-139190952D01*
X199834476Y-139762380D01*
X200453523Y-139762380D01*
X198882095Y-96582380D02*
X198882095Y-95582380D01*
X198882095Y-96058571D02*
X199453523Y-96058571D01*
X199453523Y-96582380D02*
X199453523Y-95582380D01*
X200453523Y-96582380D02*
X199882095Y-96582380D01*
X200167809Y-96582380D02*
X200167809Y-95582380D01*
X200072571Y-95725238D01*
X199977333Y-95820476D01*
X199882095Y-95868095D01*
X159662904Y-107386380D02*
X159662904Y-106386380D01*
X159901000Y-106386380D01*
X160043857Y-106434000D01*
X160139095Y-106529238D01*
X160186714Y-106624476D01*
X160234333Y-106814952D01*
X160234333Y-106957809D01*
X160186714Y-107148285D01*
X160139095Y-107243523D01*
X160043857Y-107338761D01*
X159901000Y-107386380D01*
X159662904Y-107386380D01*
X160615285Y-106481619D02*
X160662904Y-106434000D01*
X160758142Y-106386380D01*
X160996238Y-106386380D01*
X161091476Y-106434000D01*
X161139095Y-106481619D01*
X161186714Y-106576857D01*
X161186714Y-106672095D01*
X161139095Y-106814952D01*
X160567666Y-107386380D01*
X161186714Y-107386380D01*
X159837380Y-104179595D02*
X158837380Y-104179595D01*
X158837380Y-103941500D01*
X158885000Y-103798642D01*
X158980238Y-103703404D01*
X159075476Y-103655785D01*
X159265952Y-103608166D01*
X159408809Y-103608166D01*
X159599285Y-103655785D01*
X159694523Y-103703404D01*
X159789761Y-103798642D01*
X159837380Y-103941500D01*
X159837380Y-104179595D01*
X159837380Y-102655785D02*
X159837380Y-103227214D01*
X159837380Y-102941500D02*
X158837380Y-102941500D01*
X158980238Y-103036738D01*
X159075476Y-103131976D01*
X159123095Y-103227214D01*
X139065142Y-125158166D02*
X139112761Y-125205785D01*
X139160380Y-125348642D01*
X139160380Y-125443880D01*
X139112761Y-125586738D01*
X139017523Y-125681976D01*
X138922285Y-125729595D01*
X138731809Y-125777214D01*
X138588952Y-125777214D01*
X138398476Y-125729595D01*
X138303238Y-125681976D01*
X138208000Y-125586738D01*
X138160380Y-125443880D01*
X138160380Y-125348642D01*
X138208000Y-125205785D01*
X138255619Y-125158166D01*
X138255619Y-124777214D02*
X138208000Y-124729595D01*
X138160380Y-124634357D01*
X138160380Y-124396261D01*
X138208000Y-124301023D01*
X138255619Y-124253404D01*
X138350857Y-124205785D01*
X138446095Y-124205785D01*
X138588952Y-124253404D01*
X139160380Y-124824833D01*
X139160380Y-124205785D01*
M02*
