G04 #@! TF.GenerationSoftware,KiCad,Pcbnew,(6.0.1-0)*
G04 #@! TF.CreationDate,2022-02-08T18:02:56+01:00*
G04 #@! TF.ProjectId,inrush-current-limiter-relais,696e7275-7368-42d6-9375-7272656e742d,rev?*
G04 #@! TF.SameCoordinates,Original*
G04 #@! TF.FileFunction,Soldermask,Top*
G04 #@! TF.FilePolarity,Negative*
%FSLAX46Y46*%
G04 Gerber Fmt 4.6, Leading zero omitted, Abs format (unit mm)*
G04 Created by KiCad (PCBNEW (6.0.1-0)) date 2022-02-08 18:02:56*
%MOMM*%
%LPD*%
G01*
G04 APERTURE LIST*
%ADD10R,2.200000X2.200000*%
%ADD11O,2.200000X2.200000*%
%ADD12C,1.600000*%
%ADD13O,1.600000X1.600000*%
%ADD14R,1.600000X1.600000*%
%ADD15R,2.500000X2.500000*%
%ADD16C,2.500000*%
%ADD17C,2.145000*%
%ADD18R,2.300000X2.300000*%
%ADD19C,2.300000*%
%ADD20C,0.800000*%
%ADD21C,6.400000*%
%ADD22R,1.500000X1.050000*%
%ADD23O,1.500000X1.050000*%
%ADD24C,2.400000*%
%ADD25O,2.400000X2.400000*%
G04 APERTURE END LIST*
D10*
X120650000Y-75184000D03*
D11*
X110490000Y-75184000D03*
D12*
X91186000Y-81280000D03*
D13*
X106426000Y-81280000D03*
D14*
X106172000Y-62770000D03*
D12*
X106172000Y-64770000D03*
D15*
X85344000Y-77978000D03*
D16*
X85344000Y-82978000D03*
D17*
X138938000Y-93218000D03*
X138938000Y-88138000D03*
D18*
X112522000Y-78994000D03*
D19*
X112522000Y-89154000D03*
X112522000Y-96774000D03*
X120142000Y-94234000D03*
X120142000Y-78994000D03*
D17*
X85344000Y-87757000D03*
X85344000Y-92837000D03*
D12*
X114554000Y-62230000D03*
D13*
X114554000Y-72390000D03*
D17*
X138938000Y-68326000D03*
X138938000Y-73406000D03*
D20*
X85344000Y-63360000D03*
X82944000Y-60960000D03*
D21*
X85344000Y-60960000D03*
D20*
X83646944Y-62657056D03*
X85344000Y-58560000D03*
X87041056Y-62657056D03*
X87041056Y-59262944D03*
X83646944Y-59262944D03*
X87744000Y-60960000D03*
D22*
X119634000Y-70612000D03*
D23*
X119634000Y-69342000D03*
X119634000Y-68072000D03*
D22*
X109982000Y-67818000D03*
D23*
X109982000Y-69088000D03*
X109982000Y-70358000D03*
D12*
X105156000Y-58674000D03*
D13*
X115316000Y-58674000D03*
D15*
X138938000Y-78232000D03*
D16*
X138938000Y-83232000D03*
D20*
X137240944Y-59262944D03*
X138938000Y-63360000D03*
X141338000Y-60960000D03*
X136538000Y-60960000D03*
X137240944Y-62657056D03*
X140635056Y-62657056D03*
X138938000Y-58560000D03*
D21*
X138938000Y-60960000D03*
D20*
X140635056Y-59262944D03*
D14*
X104140000Y-76962000D03*
D12*
X104140000Y-73462000D03*
D14*
X98806000Y-89916000D03*
D13*
X98806000Y-84836000D03*
X91186000Y-84836000D03*
X91186000Y-89916000D03*
D12*
X98298000Y-77978000D03*
D13*
X98298000Y-67818000D03*
D24*
X105156000Y-96012000D03*
X90156000Y-96012000D03*
D12*
X128016000Y-61214000D03*
D13*
X117856000Y-61214000D03*
D12*
X94996000Y-62738000D03*
D13*
X94996000Y-77978000D03*
D10*
X128270000Y-64516000D03*
D11*
X118110000Y-64516000D03*
D17*
X85344000Y-73152000D03*
X85344000Y-68072000D03*
D24*
X120410000Y-103378000D03*
X105410000Y-103378000D03*
X127254000Y-73914000D03*
D25*
X127254000Y-104394000D03*
D12*
X108712000Y-99314000D03*
D13*
X108712000Y-84074000D03*
D12*
X91694000Y-77978000D03*
D13*
X91694000Y-62738000D03*
D20*
X141338000Y-101600000D03*
X136538000Y-101600000D03*
X137240944Y-99902944D03*
X137240944Y-103297056D03*
X140635056Y-99902944D03*
D21*
X138938000Y-101600000D03*
D20*
X140635056Y-103297056D03*
X138938000Y-99200000D03*
X138938000Y-104000000D03*
X83646944Y-103297056D03*
X87041056Y-103297056D03*
X87041056Y-99902944D03*
X85344000Y-99200000D03*
D21*
X85344000Y-101600000D03*
D20*
X85344000Y-104000000D03*
X87744000Y-101600000D03*
X82944000Y-101600000D03*
X83646944Y-99902944D03*
D10*
X101600000Y-57658000D03*
D11*
X101600000Y-67818000D03*
M02*
