G04 #@! TF.GenerationSoftware,KiCad,Pcbnew,(6.0.0-0)*
G04 #@! TF.CreationDate,2021-12-28T19:59:02+01:00*
G04 #@! TF.ProjectId,amp-mosfet-80w,616d702d-6d6f-4736-9665-742d3830772e,rev?*
G04 #@! TF.SameCoordinates,Original*
G04 #@! TF.FileFunction,Copper,L1,Top*
G04 #@! TF.FilePolarity,Positive*
%FSLAX46Y46*%
G04 Gerber Fmt 4.6, Leading zero omitted, Abs format (unit mm)*
G04 Created by KiCad (PCBNEW (6.0.0-0)) date 2021-12-28 19:59:02*
%MOMM*%
%LPD*%
G01*
G04 APERTURE LIST*
G04 Aperture macros list*
%AMRoundRect*
0 Rectangle with rounded corners*
0 $1 Rounding radius*
0 $2 $3 $4 $5 $6 $7 $8 $9 X,Y pos of 4 corners*
0 Add a 4 corners polygon primitive as box body*
4,1,4,$2,$3,$4,$5,$6,$7,$8,$9,$2,$3,0*
0 Add four circle primitives for the rounded corners*
1,1,$1+$1,$2,$3*
1,1,$1+$1,$4,$5*
1,1,$1+$1,$6,$7*
1,1,$1+$1,$8,$9*
0 Add four rect primitives between the rounded corners*
20,1,$1+$1,$2,$3,$4,$5,0*
20,1,$1+$1,$4,$5,$6,$7,0*
20,1,$1+$1,$6,$7,$8,$9,0*
20,1,$1+$1,$8,$9,$2,$3,0*%
G04 Aperture macros list end*
G04 #@! TA.AperFunction,SMDPad,CuDef*
%ADD10RoundRect,0.249999X0.450001X-0.350001X0.450001X0.350001X-0.450001X0.350001X-0.450001X-0.350001X0*%
G04 #@! TD*
G04 #@! TA.AperFunction,ComponentPad*
%ADD11C,1.600000*%
G04 #@! TD*
G04 #@! TA.AperFunction,ComponentPad*
%ADD12R,1.600000X1.600000*%
G04 #@! TD*
G04 #@! TA.AperFunction,SMDPad,CuDef*
%ADD13RoundRect,0.250000X-0.475000X0.337500X-0.475000X-0.337500X0.475000X-0.337500X0.475000X0.337500X0*%
G04 #@! TD*
G04 #@! TA.AperFunction,SMDPad,CuDef*
%ADD14RoundRect,0.250000X-0.337500X-0.475000X0.337500X-0.475000X0.337500X0.475000X-0.337500X0.475000X0*%
G04 #@! TD*
G04 #@! TA.AperFunction,ComponentPad*
%ADD15R,2.400000X2.400000*%
G04 #@! TD*
G04 #@! TA.AperFunction,ComponentPad*
%ADD16C,2.400000*%
G04 #@! TD*
G04 #@! TA.AperFunction,SMDPad,CuDef*
%ADD17R,1.200000X0.900000*%
G04 #@! TD*
G04 #@! TA.AperFunction,SMDPad,CuDef*
%ADD18R,0.900000X1.200000*%
G04 #@! TD*
G04 #@! TA.AperFunction,SMDPad,CuDef*
%ADD19R,1.100000X1.100000*%
G04 #@! TD*
G04 #@! TA.AperFunction,ComponentPad*
%ADD20C,2.000000*%
G04 #@! TD*
G04 #@! TA.AperFunction,ComponentPad*
%ADD21RoundRect,0.250001X-1.699999X-1.699999X1.699999X-1.699999X1.699999X1.699999X-1.699999X1.699999X0*%
G04 #@! TD*
G04 #@! TA.AperFunction,ComponentPad*
%ADD22R,1.700000X1.700000*%
G04 #@! TD*
G04 #@! TA.AperFunction,ComponentPad*
%ADD23O,1.700000X1.700000*%
G04 #@! TD*
G04 #@! TA.AperFunction,ComponentPad*
%ADD24C,6.400000*%
G04 #@! TD*
G04 #@! TA.AperFunction,ComponentPad*
%ADD25C,0.800000*%
G04 #@! TD*
G04 #@! TA.AperFunction,SMDPad,CuDef*
%ADD26RoundRect,0.249999X-0.450001X0.350001X-0.450001X-0.350001X0.450001X-0.350001X0.450001X0.350001X0*%
G04 #@! TD*
G04 #@! TA.AperFunction,SMDPad,CuDef*
%ADD27RoundRect,0.250000X0.400000X0.625000X-0.400000X0.625000X-0.400000X-0.625000X0.400000X-0.625000X0*%
G04 #@! TD*
G04 #@! TA.AperFunction,SMDPad,CuDef*
%ADD28RoundRect,0.249999X-0.350001X-0.450001X0.350001X-0.450001X0.350001X0.450001X-0.350001X0.450001X0*%
G04 #@! TD*
G04 #@! TA.AperFunction,SMDPad,CuDef*
%ADD29RoundRect,0.249999X0.350001X0.450001X-0.350001X0.450001X-0.350001X-0.450001X0.350001X-0.450001X0*%
G04 #@! TD*
G04 #@! TA.AperFunction,SMDPad,CuDef*
%ADD30R,2.600000X2.100000*%
G04 #@! TD*
G04 #@! TA.AperFunction,SMDPad,CuDef*
%ADD31R,1.500000X2.000000*%
G04 #@! TD*
G04 #@! TA.AperFunction,SMDPad,CuDef*
%ADD32R,3.800000X2.000000*%
G04 #@! TD*
G04 #@! TA.AperFunction,SMDPad,CuDef*
%ADD33R,0.400000X0.650000*%
G04 #@! TD*
G04 #@! TA.AperFunction,ComponentPad*
%ADD34C,1.440000*%
G04 #@! TD*
G04 #@! TA.AperFunction,ComponentPad*
%ADD35R,4.500000X2.500000*%
G04 #@! TD*
G04 #@! TA.AperFunction,ComponentPad*
%ADD36O,4.500000X2.500000*%
G04 #@! TD*
G04 #@! TA.AperFunction,ViaPad*
%ADD37C,0.800000*%
G04 #@! TD*
G04 #@! TA.AperFunction,ViaPad*
%ADD38C,0.600000*%
G04 #@! TD*
G04 #@! TA.AperFunction,Conductor*
%ADD39C,1.000000*%
G04 #@! TD*
G04 #@! TA.AperFunction,Conductor*
%ADD40C,3.000000*%
G04 #@! TD*
G04 #@! TA.AperFunction,Conductor*
%ADD41C,0.500000*%
G04 #@! TD*
G04 #@! TA.AperFunction,Conductor*
%ADD42C,0.250000*%
G04 #@! TD*
G04 APERTURE END LIST*
D10*
X180721000Y-64373000D03*
X180721000Y-62373000D03*
D11*
X140890000Y-86106000D03*
X135890000Y-86106000D03*
X146367500Y-83121500D03*
X146367500Y-88121500D03*
X161798000Y-65151000D03*
X156798000Y-65151000D03*
D12*
X150939500Y-79883000D03*
D11*
X150939500Y-81883000D03*
D13*
X153289000Y-68326000D03*
X153289000Y-70401000D03*
D11*
X155448000Y-76835000D03*
X155448000Y-81835000D03*
D14*
X137879000Y-62738000D03*
X139954000Y-62738000D03*
D11*
X189230000Y-84789000D03*
X189230000Y-89789000D03*
D15*
X197866000Y-84772500D03*
D16*
X197866000Y-89772500D03*
D11*
X159385000Y-68326000D03*
X159385000Y-73326000D03*
D14*
X196469000Y-54102000D03*
X198544000Y-54102000D03*
D17*
X166243000Y-54608000D03*
X166243000Y-51308000D03*
D18*
X166242000Y-56896000D03*
X162942000Y-56896000D03*
X152528000Y-56896000D03*
X155828000Y-56896000D03*
D17*
X152527000Y-54608000D03*
X152527000Y-51308000D03*
D19*
X195891500Y-76644500D03*
X198691500Y-76644500D03*
D20*
X135890000Y-91821000D03*
X143446500Y-91821000D03*
D21*
X204978000Y-69723000D03*
X159385000Y-56896000D03*
X159448500Y-85852000D03*
X159448500Y-96012000D03*
D22*
X201485500Y-76644500D03*
D23*
X201485500Y-74104500D03*
D24*
X113411000Y-95631000D03*
D25*
X113411000Y-93231000D03*
X113411000Y-98031000D03*
X111713944Y-93933944D03*
X111011000Y-95631000D03*
X115108056Y-93933944D03*
X111713944Y-97328056D03*
X115108056Y-97328056D03*
X115811000Y-95631000D03*
X203534944Y-94060944D03*
X206929056Y-97455056D03*
D24*
X205232000Y-95758000D03*
D25*
X202832000Y-95758000D03*
X205232000Y-98158000D03*
X203534944Y-97455056D03*
X206929056Y-94060944D03*
X205232000Y-93358000D03*
X207632000Y-95758000D03*
D26*
X143446500Y-86106000D03*
X143446500Y-88106000D03*
X143446500Y-82328000D03*
X143446500Y-84328000D03*
X170751500Y-82391500D03*
X170751500Y-84391500D03*
X173228000Y-79010000D03*
X173228000Y-81010000D03*
X147320000Y-74628500D03*
X147320000Y-76628500D03*
D27*
X160909000Y-62357000D03*
X157809000Y-62357000D03*
D26*
X155448000Y-72390000D03*
X155448000Y-74390000D03*
X155448000Y-68326000D03*
X155448000Y-70326000D03*
X142240000Y-65151000D03*
X142240000Y-67151000D03*
D28*
X124714000Y-62230000D03*
X126714000Y-62230000D03*
D29*
X197897500Y-78930500D03*
X195897500Y-78930500D03*
D30*
X159385000Y-76200000D03*
X159385000Y-81100000D03*
D29*
X194024000Y-51435000D03*
X192024000Y-51435000D03*
D11*
X204978000Y-74104500D03*
X204978000Y-79104500D03*
D29*
X122936000Y-78930500D03*
X120936000Y-78930500D03*
D11*
X129286000Y-89836000D03*
X129286000Y-84836000D03*
D15*
X120904000Y-89836000D03*
D16*
X120904000Y-84836000D03*
D29*
X145605500Y-80264000D03*
X143605500Y-80264000D03*
D26*
X137858500Y-65151000D03*
X137858500Y-67151000D03*
D31*
X150128000Y-65151000D03*
D32*
X147828000Y-71451000D03*
D31*
X147828000Y-65151000D03*
X145528000Y-65151000D03*
X168642000Y-71451000D03*
X170942000Y-71451000D03*
D32*
X170942000Y-65151000D03*
D31*
X173242000Y-71451000D03*
X176135000Y-60021000D03*
D32*
X178435000Y-53721000D03*
D31*
X178435000Y-60021000D03*
X180735000Y-60021000D03*
X137654000Y-60021000D03*
D32*
X139954000Y-53721000D03*
D31*
X139954000Y-60021000D03*
X142254000Y-60021000D03*
D33*
X144005500Y-78532000D03*
X144655500Y-78532000D03*
X145305500Y-78532000D03*
X145305500Y-76632000D03*
X144655500Y-76632000D03*
X144005500Y-76632000D03*
X170101500Y-80769500D03*
X170751500Y-80769500D03*
X171401500Y-80769500D03*
X171401500Y-78869500D03*
X170751500Y-78869500D03*
X170101500Y-78869500D03*
D21*
X113665000Y-69723000D03*
D22*
X117284500Y-74104500D03*
D23*
X117284500Y-76644500D03*
D11*
X113665000Y-79104500D03*
X113665000Y-74104500D03*
D19*
X120142000Y-76644500D03*
X122942000Y-76644500D03*
D11*
X156718000Y-46609000D03*
X161718000Y-46609000D03*
D34*
X161798000Y-51308000D03*
X159258000Y-51308000D03*
X156718000Y-51308000D03*
D29*
X180721000Y-71437500D03*
X178721000Y-71437500D03*
D35*
X121285000Y-62230000D03*
D36*
X121285000Y-56780000D03*
X121285000Y-51330000D03*
D35*
X197485000Y-51435000D03*
D36*
X197485000Y-56885000D03*
X197485000Y-62335000D03*
D37*
X137858500Y-64008000D03*
D38*
X142748000Y-76644500D03*
X146621500Y-78549500D03*
X150114000Y-67056000D03*
X168846500Y-78867000D03*
X148844000Y-74612500D03*
D39*
X140890000Y-86106000D02*
X143446500Y-86106000D01*
X143446500Y-86106000D02*
X143446500Y-84328000D01*
X146352000Y-88106000D02*
X146367500Y-88121500D01*
D40*
X196201998Y-97536000D02*
X160972500Y-97536000D01*
D39*
X143446500Y-88106000D02*
X146352000Y-88106000D01*
X162687000Y-96012000D02*
X170751500Y-87947500D01*
D40*
X122695002Y-97663000D02*
X157797500Y-97663000D01*
X113665000Y-79104500D02*
X113665000Y-88632998D01*
D39*
X159448500Y-96012000D02*
X162687000Y-96012000D01*
D41*
X159448500Y-96012000D02*
X159448500Y-95694500D01*
D40*
X160972500Y-97536000D02*
X159448500Y-96012000D01*
D39*
X170751500Y-87947500D02*
X170751500Y-84391500D01*
D40*
X159385000Y-81100000D02*
X159385000Y-85788500D01*
X204978000Y-88759998D02*
X196201998Y-97536000D01*
X113665000Y-88632998D02*
X122695002Y-97663000D01*
D39*
X143446500Y-91821000D02*
X143446500Y-88106000D01*
D40*
X204978000Y-79104500D02*
X204978000Y-88759998D01*
X157797500Y-97663000D02*
X159448500Y-96012000D01*
X159385000Y-85788500D02*
X159448500Y-85852000D01*
D42*
X144655500Y-81119000D02*
X143446500Y-82328000D01*
D39*
X145574000Y-82328000D02*
X146367500Y-83121500D01*
D42*
X144655500Y-78532000D02*
X144655500Y-81119000D01*
D39*
X143446500Y-82328000D02*
X145574000Y-82328000D01*
X156798000Y-65151000D02*
X156798000Y-63368000D01*
X148082000Y-63055500D02*
X147828000Y-63309500D01*
X147828000Y-63309500D02*
X147828000Y-65151000D01*
X154702500Y-63055500D02*
X148082000Y-63055500D01*
X147828000Y-65151000D02*
X147828000Y-71451000D01*
X156798000Y-63368000D02*
X157809000Y-62357000D01*
X156798000Y-65151000D02*
X154702500Y-63055500D01*
X170942000Y-71451000D02*
X168642000Y-71451000D01*
X170942000Y-62103000D02*
X170942000Y-65151000D01*
X176135000Y-60021000D02*
X173024000Y-60021000D01*
X161798000Y-65151000D02*
X161798000Y-63246000D01*
X161798000Y-63246000D02*
X160909000Y-62357000D01*
D41*
X170942000Y-65151000D02*
X171005000Y-65151000D01*
D39*
X170942000Y-71451000D02*
X170942000Y-65151000D01*
X170942000Y-65151000D02*
X161798000Y-65151000D01*
X173024000Y-60021000D02*
X170942000Y-62103000D01*
X155448000Y-76835000D02*
X155448000Y-74390000D01*
X155448000Y-72390000D02*
X155448000Y-70326000D01*
X155448000Y-70326000D02*
X153364000Y-70326000D01*
D42*
X144655500Y-76632000D02*
X144655500Y-76057000D01*
X152284490Y-75553510D02*
X155448000Y-72390000D01*
D39*
X153364000Y-70326000D02*
X153289000Y-70401000D01*
D42*
X145158990Y-75553510D02*
X152284490Y-75553510D01*
X144655500Y-76057000D02*
X145158990Y-75553510D01*
D39*
X162942000Y-56896000D02*
X159385000Y-56896000D01*
X155828000Y-56896000D02*
X159385000Y-56896000D01*
D41*
X196469000Y-54102000D02*
X196469000Y-55869000D01*
D39*
X155448000Y-68326000D02*
X153289000Y-68326000D01*
X159385000Y-68326000D02*
X155448000Y-68326000D01*
D41*
X196469000Y-55869000D02*
X197485000Y-56885000D01*
D39*
X178435000Y-60021000D02*
X178435000Y-53721000D01*
X178435000Y-52959000D02*
X178435000Y-53721000D01*
X179959000Y-51435000D02*
X178435000Y-52959000D01*
X166243000Y-51308000D02*
X176022000Y-51308000D01*
X192024000Y-51435000D02*
X179959000Y-51435000D01*
X166243000Y-51308000D02*
X161798000Y-51308000D01*
X176022000Y-51308000D02*
X178435000Y-53721000D01*
X128270000Y-62230000D02*
X126714000Y-62230000D01*
X139954000Y-60021000D02*
X139954000Y-53721000D01*
X139954000Y-62738000D02*
X139954000Y-60021000D01*
X156718000Y-51308000D02*
X152527000Y-51308000D01*
X136779000Y-53721000D02*
X128270000Y-62230000D01*
X152527000Y-51308000D02*
X142367000Y-51308000D01*
X142367000Y-51308000D02*
X139954000Y-53721000D01*
X139954000Y-53721000D02*
X136779000Y-53721000D01*
X137858500Y-64008000D02*
X137858500Y-62758500D01*
X137879000Y-60246000D02*
X137654000Y-60021000D01*
D42*
X144005500Y-76632000D02*
X142760500Y-76632000D01*
D39*
X137858500Y-65151000D02*
X137858500Y-64008000D01*
X137879000Y-62738000D02*
X137879000Y-60246000D01*
D42*
X142760500Y-76632000D02*
X142748000Y-76644500D01*
D39*
X137858500Y-62758500D02*
X137879000Y-62738000D01*
D41*
X137654000Y-62513000D02*
X137879000Y-62738000D01*
D42*
X171401500Y-78869500D02*
X173087500Y-78869500D01*
D39*
X189230000Y-74612500D02*
X186055000Y-71437500D01*
X186055000Y-71437500D02*
X180721000Y-71437500D01*
X197866000Y-78962000D02*
X197897500Y-78930500D01*
X182071000Y-84789000D02*
X176276000Y-78994000D01*
X197866000Y-84772500D02*
X197866000Y-78962000D01*
X173244000Y-78994000D02*
X173228000Y-79010000D01*
X189230000Y-84789000D02*
X189230000Y-74612500D01*
D42*
X173087500Y-78869500D02*
X173228000Y-79010000D01*
D39*
X189230000Y-84789000D02*
X182071000Y-84789000D01*
X176276000Y-78994000D02*
X173244000Y-78994000D01*
X180721000Y-71437500D02*
X180721000Y-64373000D01*
X129286000Y-84836000D02*
X129286000Y-75723500D01*
X133858000Y-80264000D02*
X129286000Y-84836000D01*
X120904000Y-78962500D02*
X120936000Y-78930500D01*
X137858500Y-67151000D02*
X142240000Y-67151000D01*
X129286000Y-75723500D02*
X137858500Y-67151000D01*
X143605500Y-80264000D02*
X133858000Y-80264000D01*
X120904000Y-84836000D02*
X120904000Y-78962500D01*
D40*
X159385000Y-73326000D02*
X159385000Y-76200000D01*
D41*
X198544000Y-54102000D02*
X198544000Y-52494000D01*
X198544000Y-52494000D02*
X197485000Y-51435000D01*
D39*
X197485000Y-51435000D02*
X194024000Y-51435000D01*
D41*
X166242000Y-54609000D02*
X166243000Y-54608000D01*
D39*
X166243000Y-56895000D02*
X166242000Y-56896000D01*
X166243000Y-54608000D02*
X166243000Y-56895000D01*
X152528000Y-56896000D02*
X152528000Y-54609000D01*
X152528000Y-54609000D02*
X152527000Y-54608000D01*
X201485500Y-76644500D02*
X198691500Y-76644500D01*
X195891500Y-76644500D02*
X195891500Y-78924500D01*
X195891500Y-78924500D02*
X195897500Y-78930500D01*
X122936000Y-78930500D02*
X122936000Y-76650500D01*
X122936000Y-76650500D02*
X122942000Y-76644500D01*
X120142000Y-76644500D02*
X117284500Y-76644500D01*
D42*
X145305500Y-78532000D02*
X146604000Y-78532000D01*
X150114000Y-65165000D02*
X150128000Y-65151000D01*
X145605500Y-80264000D02*
X145605500Y-78832000D01*
X145605500Y-78832000D02*
X145305500Y-78532000D01*
X146604000Y-78532000D02*
X146621500Y-78549500D01*
X150114000Y-67056000D02*
X150114000Y-65165000D01*
D39*
X121285000Y-62230000D02*
X124714000Y-62230000D01*
D40*
X204978000Y-64643000D02*
X202670000Y-62335000D01*
X204978000Y-69723000D02*
X204978000Y-64643000D01*
X202670000Y-62335000D02*
X197485000Y-62335000D01*
X113665000Y-69723000D02*
X113665000Y-53086000D01*
X113665000Y-53086000D02*
X115443000Y-51308000D01*
X115465000Y-51330000D02*
X121285000Y-51330000D01*
X115443000Y-51308000D02*
X115465000Y-51330000D01*
D42*
X145305500Y-77207000D02*
X145042500Y-77470000D01*
X147316500Y-76632000D02*
X147320000Y-76628500D01*
X145305500Y-76632000D02*
X145305500Y-77207000D01*
X145305500Y-76632000D02*
X147316500Y-76632000D01*
X144005500Y-77957000D02*
X144005500Y-78532000D01*
X144492500Y-77470000D02*
X144005500Y-77957000D01*
X145042500Y-77470000D02*
X144492500Y-77470000D01*
X147320000Y-74628500D02*
X148828000Y-74628500D01*
X170101500Y-78869500D02*
X168849000Y-78869500D01*
X148828000Y-74628500D02*
X148844000Y-74612500D01*
X168849000Y-78869500D02*
X168846500Y-78867000D01*
D39*
X145528000Y-65151000D02*
X142240000Y-65151000D01*
X142240000Y-60035000D02*
X142254000Y-60021000D01*
X142240000Y-65151000D02*
X142240000Y-60035000D01*
X173255500Y-71437500D02*
X173242000Y-71451000D01*
X178721000Y-71437500D02*
X173255500Y-71437500D01*
X180721000Y-62373000D02*
X180721000Y-60035000D01*
X180721000Y-60035000D02*
X180735000Y-60021000D01*
D42*
X170751500Y-82391500D02*
X170751500Y-80769500D01*
X170751500Y-80769500D02*
X171401500Y-80769500D01*
X173228000Y-81010000D02*
X172046501Y-79828501D01*
X170751500Y-79329502D02*
X170751500Y-78869500D01*
X172046501Y-79828501D02*
X170252501Y-79828501D01*
X170101500Y-80769500D02*
X170101500Y-79979502D01*
X173228000Y-81010000D02*
X173228000Y-81026000D01*
X170101500Y-79979502D02*
X170252501Y-79828501D01*
X170252501Y-79828501D02*
X170751500Y-79329502D01*
G04 #@! TA.AperFunction,Conductor*
G36*
X179139764Y-62123002D02*
G01*
X179186257Y-62176658D01*
X179197641Y-62228356D01*
X179235313Y-69596356D01*
X179215660Y-69664578D01*
X179162243Y-69711345D01*
X179109315Y-69723000D01*
X164121318Y-69723000D01*
X164053197Y-69702998D01*
X164006704Y-69649342D01*
X163995320Y-69597644D01*
X163977926Y-66195669D01*
X168534001Y-66195669D01*
X168534371Y-66202490D01*
X168539895Y-66253352D01*
X168543521Y-66268604D01*
X168588676Y-66389054D01*
X168597214Y-66404649D01*
X168673715Y-66506724D01*
X168686276Y-66519285D01*
X168788351Y-66595786D01*
X168803946Y-66604324D01*
X168924394Y-66649478D01*
X168939649Y-66653105D01*
X168990514Y-66658631D01*
X168997328Y-66659000D01*
X170669885Y-66659000D01*
X170685124Y-66654525D01*
X170686329Y-66653135D01*
X170688000Y-66645452D01*
X170688000Y-66640884D01*
X171196000Y-66640884D01*
X171200475Y-66656123D01*
X171201865Y-66657328D01*
X171209548Y-66658999D01*
X172886669Y-66658999D01*
X172893490Y-66658629D01*
X172944352Y-66653105D01*
X172959604Y-66649479D01*
X173080054Y-66604324D01*
X173095649Y-66595786D01*
X173197724Y-66519285D01*
X173210285Y-66506724D01*
X173286786Y-66404649D01*
X173295324Y-66389054D01*
X173340478Y-66268606D01*
X173344105Y-66253351D01*
X173349631Y-66202486D01*
X173350000Y-66195672D01*
X173350000Y-65423115D01*
X173345525Y-65407876D01*
X173344135Y-65406671D01*
X173336452Y-65405000D01*
X171214115Y-65405000D01*
X171198876Y-65409475D01*
X171197671Y-65410865D01*
X171196000Y-65418548D01*
X171196000Y-66640884D01*
X170688000Y-66640884D01*
X170688000Y-65423115D01*
X170683525Y-65407876D01*
X170682135Y-65406671D01*
X170674452Y-65405000D01*
X168552116Y-65405000D01*
X168536877Y-65409475D01*
X168535672Y-65410865D01*
X168534001Y-65418548D01*
X168534001Y-66195669D01*
X163977926Y-66195669D01*
X163971193Y-64878885D01*
X168534000Y-64878885D01*
X168538475Y-64894124D01*
X168539865Y-64895329D01*
X168547548Y-64897000D01*
X170669885Y-64897000D01*
X170685124Y-64892525D01*
X170686329Y-64891135D01*
X170688000Y-64883452D01*
X170688000Y-64878885D01*
X171196000Y-64878885D01*
X171200475Y-64894124D01*
X171201865Y-64895329D01*
X171209548Y-64897000D01*
X173331884Y-64897000D01*
X173347123Y-64892525D01*
X173348328Y-64891135D01*
X173349999Y-64883452D01*
X173349999Y-64106331D01*
X173349629Y-64099510D01*
X173344105Y-64048648D01*
X173340479Y-64033396D01*
X173295324Y-63912946D01*
X173286786Y-63897351D01*
X173210285Y-63795276D01*
X173197724Y-63782715D01*
X173095649Y-63706214D01*
X173080054Y-63697676D01*
X172959606Y-63652522D01*
X172944351Y-63648895D01*
X172893486Y-63643369D01*
X172886672Y-63643000D01*
X171214115Y-63643000D01*
X171198876Y-63647475D01*
X171197671Y-63648865D01*
X171196000Y-63656548D01*
X171196000Y-64878885D01*
X170688000Y-64878885D01*
X170688000Y-63661116D01*
X170683525Y-63645877D01*
X170682135Y-63644672D01*
X170674452Y-63643001D01*
X168997331Y-63643001D01*
X168990510Y-63643371D01*
X168939648Y-63648895D01*
X168924396Y-63652521D01*
X168803946Y-63697676D01*
X168788351Y-63706214D01*
X168686276Y-63782715D01*
X168673715Y-63795276D01*
X168597214Y-63897351D01*
X168588676Y-63912946D01*
X168543522Y-64033394D01*
X168539895Y-64048649D01*
X168534369Y-64099514D01*
X168534000Y-64106328D01*
X168534000Y-64878885D01*
X163971193Y-64878885D01*
X163957648Y-62229644D01*
X163977301Y-62161422D01*
X164030718Y-62114655D01*
X164083646Y-62103000D01*
X179071643Y-62103000D01*
X179139764Y-62123002D01*
G37*
G04 #@! TD.AperFunction*
G04 #@! TA.AperFunction,Conductor*
G36*
X151961822Y-68409502D02*
G01*
X152008315Y-68463158D01*
X152019699Y-68514796D01*
X152032012Y-70722373D01*
X152054719Y-74793307D01*
X152035097Y-74861538D01*
X151981702Y-74908330D01*
X151928721Y-74920010D01*
X149762221Y-74920010D01*
X149694100Y-74900008D01*
X149647607Y-74846352D01*
X149637447Y-74776475D01*
X149656748Y-74639142D01*
X149656749Y-74639132D01*
X149657299Y-74635217D01*
X149657616Y-74612500D01*
X149637397Y-74432245D01*
X149577745Y-74260948D01*
X149555221Y-74224901D01*
X149485359Y-74113098D01*
X149481626Y-74107124D01*
X149476664Y-74102127D01*
X149358778Y-73983415D01*
X149358774Y-73983412D01*
X149353815Y-73978418D01*
X149200666Y-73881227D01*
X149162776Y-73867735D01*
X149036425Y-73822743D01*
X149036420Y-73822742D01*
X149029790Y-73820381D01*
X149022802Y-73819548D01*
X149022799Y-73819547D01*
X148893682Y-73804151D01*
X148849680Y-73798904D01*
X148842677Y-73799640D01*
X148842676Y-73799640D01*
X148676288Y-73817128D01*
X148676286Y-73817129D01*
X148669288Y-73817864D01*
X148522791Y-73867735D01*
X148451861Y-73870753D01*
X148390557Y-73834943D01*
X148375042Y-73814757D01*
X148372331Y-73810376D01*
X148368479Y-73804151D01*
X148243303Y-73679194D01*
X148092739Y-73586385D01*
X147932264Y-73533158D01*
X147931390Y-73532868D01*
X147931388Y-73532868D01*
X147924862Y-73530703D01*
X147918026Y-73530003D01*
X147918023Y-73530002D01*
X147874970Y-73525591D01*
X147820401Y-73520000D01*
X147323859Y-73520000D01*
X146819600Y-73520001D01*
X146713833Y-73530974D01*
X146707286Y-73533158D01*
X146707287Y-73533158D01*
X146552998Y-73584633D01*
X146552996Y-73584634D01*
X146546054Y-73586950D01*
X146395651Y-73680021D01*
X146270694Y-73805197D01*
X146177885Y-73955761D01*
X146122203Y-74123638D01*
X146111500Y-74228099D01*
X146111500Y-74231316D01*
X146111501Y-74794010D01*
X146091499Y-74862131D01*
X146037843Y-74908624D01*
X145985501Y-74920010D01*
X145237753Y-74920010D01*
X145226569Y-74919483D01*
X145219081Y-74917809D01*
X145211158Y-74918058D01*
X145151023Y-74919948D01*
X145147065Y-74920010D01*
X145119134Y-74920010D01*
X145115219Y-74920505D01*
X145115215Y-74920505D01*
X145115157Y-74920513D01*
X145115128Y-74920516D01*
X145103286Y-74921449D01*
X145059100Y-74922837D01*
X145041734Y-74927882D01*
X145039648Y-74928488D01*
X145020296Y-74932496D01*
X145008058Y-74934042D01*
X145008056Y-74934043D01*
X145000193Y-74935036D01*
X144959076Y-74951316D01*
X144947875Y-74955151D01*
X144905396Y-74967492D01*
X144898577Y-74971525D01*
X144898572Y-74971527D01*
X144887961Y-74977803D01*
X144870211Y-74986500D01*
X144851373Y-74993958D01*
X144844957Y-74998619D01*
X144844956Y-74998620D01*
X144815615Y-75019938D01*
X144805691Y-75026457D01*
X144774450Y-75044932D01*
X144774445Y-75044936D01*
X144767627Y-75048968D01*
X144753303Y-75063292D01*
X144738271Y-75076131D01*
X144721883Y-75088038D01*
X144693702Y-75122103D01*
X144685712Y-75130883D01*
X144479000Y-75337595D01*
X144416688Y-75371621D01*
X144389905Y-75374500D01*
X138003280Y-75374500D01*
X137935159Y-75354498D01*
X137888666Y-75300842D01*
X137877282Y-75249203D01*
X137876245Y-75063292D01*
X137861924Y-72495669D01*
X145420001Y-72495669D01*
X145420371Y-72502490D01*
X145425895Y-72553352D01*
X145429521Y-72568604D01*
X145474676Y-72689054D01*
X145483214Y-72704649D01*
X145559715Y-72806724D01*
X145572276Y-72819285D01*
X145674351Y-72895786D01*
X145689946Y-72904324D01*
X145810394Y-72949478D01*
X145825649Y-72953105D01*
X145876514Y-72958631D01*
X145883328Y-72959000D01*
X147555885Y-72959000D01*
X147571124Y-72954525D01*
X147572329Y-72953135D01*
X147574000Y-72945452D01*
X147574000Y-72940884D01*
X148082000Y-72940884D01*
X148086475Y-72956123D01*
X148087865Y-72957328D01*
X148095548Y-72958999D01*
X149772669Y-72958999D01*
X149779490Y-72958629D01*
X149830352Y-72953105D01*
X149845604Y-72949479D01*
X149966054Y-72904324D01*
X149981649Y-72895786D01*
X150083724Y-72819285D01*
X150096285Y-72806724D01*
X150172786Y-72704649D01*
X150181324Y-72689054D01*
X150226478Y-72568606D01*
X150230105Y-72553351D01*
X150235631Y-72502486D01*
X150236000Y-72495672D01*
X150236000Y-71723115D01*
X150231525Y-71707876D01*
X150230135Y-71706671D01*
X150222452Y-71705000D01*
X148100115Y-71705000D01*
X148084876Y-71709475D01*
X148083671Y-71710865D01*
X148082000Y-71718548D01*
X148082000Y-72940884D01*
X147574000Y-72940884D01*
X147574000Y-71723115D01*
X147569525Y-71707876D01*
X147568135Y-71706671D01*
X147560452Y-71705000D01*
X145438116Y-71705000D01*
X145422877Y-71709475D01*
X145421672Y-71710865D01*
X145420001Y-71718548D01*
X145420001Y-72495669D01*
X137861924Y-72495669D01*
X137854579Y-71178885D01*
X145420000Y-71178885D01*
X145424475Y-71194124D01*
X145425865Y-71195329D01*
X145433548Y-71197000D01*
X147555885Y-71197000D01*
X147571124Y-71192525D01*
X147572329Y-71191135D01*
X147574000Y-71183452D01*
X147574000Y-71178885D01*
X148082000Y-71178885D01*
X148086475Y-71194124D01*
X148087865Y-71195329D01*
X148095548Y-71197000D01*
X150217884Y-71197000D01*
X150233123Y-71192525D01*
X150234328Y-71191135D01*
X150235999Y-71183452D01*
X150235999Y-70406331D01*
X150235629Y-70399510D01*
X150230105Y-70348648D01*
X150226479Y-70333396D01*
X150181324Y-70212946D01*
X150172786Y-70197351D01*
X150096285Y-70095276D01*
X150083724Y-70082715D01*
X149981649Y-70006214D01*
X149966054Y-69997676D01*
X149845606Y-69952522D01*
X149830351Y-69948895D01*
X149779486Y-69943369D01*
X149772672Y-69943000D01*
X148100115Y-69943000D01*
X148084876Y-69947475D01*
X148083671Y-69948865D01*
X148082000Y-69956548D01*
X148082000Y-71178885D01*
X147574000Y-71178885D01*
X147574000Y-69961116D01*
X147569525Y-69945877D01*
X147568135Y-69944672D01*
X147560452Y-69943001D01*
X145883331Y-69943001D01*
X145876510Y-69943371D01*
X145825648Y-69948895D01*
X145810396Y-69952521D01*
X145689946Y-69997676D01*
X145674351Y-70006214D01*
X145572276Y-70082715D01*
X145559715Y-70095276D01*
X145483214Y-70197351D01*
X145474676Y-70212946D01*
X145429522Y-70333394D01*
X145425895Y-70348649D01*
X145420369Y-70399514D01*
X145420000Y-70406328D01*
X145420000Y-71178885D01*
X137854579Y-71178885D01*
X137840463Y-68648164D01*
X137860084Y-68579936D01*
X137877365Y-68558369D01*
X138009329Y-68426405D01*
X138071641Y-68392379D01*
X138098424Y-68389500D01*
X151893701Y-68389500D01*
X151961822Y-68409502D01*
G37*
G04 #@! TD.AperFunction*
G04 #@! TA.AperFunction,Conductor*
G36*
X190442121Y-45740002D02*
G01*
X190488614Y-45793658D01*
X190500000Y-45846000D01*
X190500000Y-68454000D01*
X190479998Y-68522121D01*
X190426342Y-68568614D01*
X190374000Y-68580000D01*
X183006000Y-68580000D01*
X182937879Y-68559998D01*
X182891386Y-68506342D01*
X182880000Y-68454000D01*
X182880000Y-58420000D01*
X167766000Y-58420000D01*
X167697879Y-58399998D01*
X167651386Y-58346342D01*
X167640000Y-58294000D01*
X167640000Y-54765669D01*
X176027001Y-54765669D01*
X176027371Y-54772490D01*
X176032895Y-54823352D01*
X176036521Y-54838604D01*
X176081676Y-54959054D01*
X176090214Y-54974649D01*
X176166715Y-55076724D01*
X176179276Y-55089285D01*
X176281351Y-55165786D01*
X176296946Y-55174324D01*
X176417394Y-55219478D01*
X176432649Y-55223105D01*
X176483514Y-55228631D01*
X176490328Y-55229000D01*
X178162885Y-55229000D01*
X178178124Y-55224525D01*
X178179329Y-55223135D01*
X178181000Y-55215452D01*
X178181000Y-55210884D01*
X178689000Y-55210884D01*
X178693475Y-55226123D01*
X178694865Y-55227328D01*
X178702548Y-55228999D01*
X180379669Y-55228999D01*
X180386490Y-55228629D01*
X180437352Y-55223105D01*
X180452604Y-55219479D01*
X180573054Y-55174324D01*
X180588649Y-55165786D01*
X180690724Y-55089285D01*
X180703285Y-55076724D01*
X180779786Y-54974649D01*
X180788324Y-54959054D01*
X180833478Y-54838606D01*
X180837105Y-54823351D01*
X180842631Y-54772486D01*
X180843000Y-54765672D01*
X180843000Y-53993115D01*
X180838525Y-53977876D01*
X180837135Y-53976671D01*
X180829452Y-53975000D01*
X178707115Y-53975000D01*
X178691876Y-53979475D01*
X178690671Y-53980865D01*
X178689000Y-53988548D01*
X178689000Y-55210884D01*
X178181000Y-55210884D01*
X178181000Y-53993115D01*
X178176525Y-53977876D01*
X178175135Y-53976671D01*
X178167452Y-53975000D01*
X176045116Y-53975000D01*
X176029877Y-53979475D01*
X176028672Y-53980865D01*
X176027001Y-53988548D01*
X176027001Y-54765669D01*
X167640000Y-54765669D01*
X167640000Y-53448885D01*
X176027000Y-53448885D01*
X176031475Y-53464124D01*
X176032865Y-53465329D01*
X176040548Y-53467000D01*
X178162885Y-53467000D01*
X178178124Y-53462525D01*
X178179329Y-53461135D01*
X178181000Y-53453452D01*
X178181000Y-53448885D01*
X178689000Y-53448885D01*
X178693475Y-53464124D01*
X178694865Y-53465329D01*
X178702548Y-53467000D01*
X180824884Y-53467000D01*
X180840123Y-53462525D01*
X180841328Y-53461135D01*
X180842999Y-53453452D01*
X180842999Y-52676331D01*
X180842629Y-52669510D01*
X180837105Y-52618648D01*
X180833479Y-52603396D01*
X180788324Y-52482946D01*
X180779786Y-52467351D01*
X180703285Y-52365276D01*
X180690724Y-52352715D01*
X180588649Y-52276214D01*
X180573054Y-52267676D01*
X180452606Y-52222522D01*
X180437351Y-52218895D01*
X180386486Y-52213369D01*
X180379672Y-52213000D01*
X178707115Y-52213000D01*
X178691876Y-52217475D01*
X178690671Y-52218865D01*
X178689000Y-52226548D01*
X178689000Y-53448885D01*
X178181000Y-53448885D01*
X178181000Y-52231116D01*
X178176525Y-52215877D01*
X178175135Y-52214672D01*
X178167452Y-52213001D01*
X176490331Y-52213001D01*
X176483510Y-52213371D01*
X176432648Y-52218895D01*
X176417396Y-52222521D01*
X176296946Y-52267676D01*
X176281351Y-52276214D01*
X176179276Y-52352715D01*
X176166715Y-52365276D01*
X176090214Y-52467351D01*
X176081676Y-52482946D01*
X176036522Y-52603394D01*
X176032895Y-52618649D01*
X176027369Y-52669514D01*
X176027000Y-52676328D01*
X176027000Y-53448885D01*
X167640000Y-53448885D01*
X167640000Y-45846000D01*
X167660002Y-45777879D01*
X167713658Y-45731386D01*
X167766000Y-45720000D01*
X190374000Y-45720000D01*
X190442121Y-45740002D01*
G37*
G04 #@! TD.AperFunction*
G04 #@! TA.AperFunction,Conductor*
G36*
X151072121Y-45740002D02*
G01*
X151118614Y-45793658D01*
X151130000Y-45846000D01*
X151130000Y-61921000D01*
X151109998Y-61989121D01*
X151056342Y-62035614D01*
X151004000Y-62047000D01*
X148143842Y-62047000D01*
X148130235Y-62046263D01*
X148098737Y-62042841D01*
X148098732Y-62042841D01*
X148092611Y-62042176D01*
X148074611Y-62043751D01*
X148042609Y-62046550D01*
X148037784Y-62046879D01*
X148035313Y-62047000D01*
X148032231Y-62047000D01*
X148009763Y-62049203D01*
X147989489Y-62051191D01*
X147988174Y-62051313D01*
X147955913Y-62054136D01*
X147895587Y-62059413D01*
X147890468Y-62060900D01*
X147885167Y-62061420D01*
X147796194Y-62088282D01*
X147795054Y-62088620D01*
X147705663Y-62114591D01*
X147700929Y-62117045D01*
X147695831Y-62118584D01*
X147690387Y-62121478D01*
X147690386Y-62121479D01*
X147613831Y-62162184D01*
X147612663Y-62162798D01*
X147530074Y-62205608D01*
X147525911Y-62208931D01*
X147524007Y-62209944D01*
X147523590Y-62210067D01*
X147521881Y-62211074D01*
X147521204Y-62211434D01*
X147520901Y-62210864D01*
X147456294Y-62230000D01*
X143636000Y-62230000D01*
X143567879Y-62209998D01*
X143521386Y-62156342D01*
X143510000Y-62104000D01*
X143510000Y-61098971D01*
X143510737Y-61085363D01*
X143512131Y-61072531D01*
X143512500Y-61069134D01*
X143512500Y-58972866D01*
X143510737Y-58956637D01*
X143510000Y-58943029D01*
X143510000Y-58420000D01*
X135890000Y-58420000D01*
X135890000Y-67184000D01*
X135869998Y-67252121D01*
X135816342Y-67298614D01*
X135764000Y-67310000D01*
X128396000Y-67310000D01*
X128327879Y-67289998D01*
X128281386Y-67236342D01*
X128270000Y-67184000D01*
X128270000Y-54765669D01*
X137546001Y-54765669D01*
X137546371Y-54772490D01*
X137551895Y-54823352D01*
X137555521Y-54838604D01*
X137600676Y-54959054D01*
X137609214Y-54974649D01*
X137685715Y-55076724D01*
X137698276Y-55089285D01*
X137800351Y-55165786D01*
X137815946Y-55174324D01*
X137936394Y-55219478D01*
X137951649Y-55223105D01*
X138002514Y-55228631D01*
X138009328Y-55229000D01*
X139681885Y-55229000D01*
X139697124Y-55224525D01*
X139698329Y-55223135D01*
X139700000Y-55215452D01*
X139700000Y-55210884D01*
X140208000Y-55210884D01*
X140212475Y-55226123D01*
X140213865Y-55227328D01*
X140221548Y-55228999D01*
X141898669Y-55228999D01*
X141905490Y-55228629D01*
X141956352Y-55223105D01*
X141971604Y-55219479D01*
X142092054Y-55174324D01*
X142107649Y-55165786D01*
X142209724Y-55089285D01*
X142222285Y-55076724D01*
X142298786Y-54974649D01*
X142307324Y-54959054D01*
X142352478Y-54838606D01*
X142356105Y-54823351D01*
X142361631Y-54772486D01*
X142362000Y-54765672D01*
X142362000Y-53993115D01*
X142357525Y-53977876D01*
X142356135Y-53976671D01*
X142348452Y-53975000D01*
X140226115Y-53975000D01*
X140210876Y-53979475D01*
X140209671Y-53980865D01*
X140208000Y-53988548D01*
X140208000Y-55210884D01*
X139700000Y-55210884D01*
X139700000Y-53993115D01*
X139695525Y-53977876D01*
X139694135Y-53976671D01*
X139686452Y-53975000D01*
X137564116Y-53975000D01*
X137548877Y-53979475D01*
X137547672Y-53980865D01*
X137546001Y-53988548D01*
X137546001Y-54765669D01*
X128270000Y-54765669D01*
X128270000Y-53448885D01*
X137546000Y-53448885D01*
X137550475Y-53464124D01*
X137551865Y-53465329D01*
X137559548Y-53467000D01*
X139681885Y-53467000D01*
X139697124Y-53462525D01*
X139698329Y-53461135D01*
X139700000Y-53453452D01*
X139700000Y-53448885D01*
X140208000Y-53448885D01*
X140212475Y-53464124D01*
X140213865Y-53465329D01*
X140221548Y-53467000D01*
X142343884Y-53467000D01*
X142359123Y-53462525D01*
X142360328Y-53461135D01*
X142361999Y-53453452D01*
X142361999Y-52676331D01*
X142361629Y-52669510D01*
X142356105Y-52618648D01*
X142352479Y-52603396D01*
X142307324Y-52482946D01*
X142298786Y-52467351D01*
X142222285Y-52365276D01*
X142209724Y-52352715D01*
X142107649Y-52276214D01*
X142092054Y-52267676D01*
X141971606Y-52222522D01*
X141956351Y-52218895D01*
X141905486Y-52213369D01*
X141898672Y-52213000D01*
X140226115Y-52213000D01*
X140210876Y-52217475D01*
X140209671Y-52218865D01*
X140208000Y-52226548D01*
X140208000Y-53448885D01*
X139700000Y-53448885D01*
X139700000Y-52231116D01*
X139695525Y-52215877D01*
X139694135Y-52214672D01*
X139686452Y-52213001D01*
X138009331Y-52213001D01*
X138002510Y-52213371D01*
X137951648Y-52218895D01*
X137936396Y-52222521D01*
X137815946Y-52267676D01*
X137800351Y-52276214D01*
X137698276Y-52352715D01*
X137685715Y-52365276D01*
X137609214Y-52467351D01*
X137600676Y-52482946D01*
X137555522Y-52603394D01*
X137551895Y-52618649D01*
X137546369Y-52669514D01*
X137546000Y-52676328D01*
X137546000Y-53448885D01*
X128270000Y-53448885D01*
X128270000Y-45846000D01*
X128290002Y-45777879D01*
X128343658Y-45731386D01*
X128396000Y-45720000D01*
X151004000Y-45720000D01*
X151072121Y-45740002D01*
G37*
G04 #@! TD.AperFunction*
M02*
