M48
; DRILL file {KiCad (5.1.10-0-10_14)} date Sunday, October 31, 2021 at 06:21:39 PM
; FORMAT={-:-/ absolute / inch / decimal}
; #@! TF.CreationDate,2021-10-31T18:21:39+01:00
; #@! TF.GenerationSoftware,Kicad,Pcbnew,(5.1.10-0-10_14)
; #@! TF.FileFunction,Plated,1,2,PTH
FMAT,2
INCH
T1C0.0118
T2C0.0295
T3C0.0315
T4C0.0394
%
G90
G05
T1
X5.54Y-4.8
X5.545Y-4.295
X5.545Y-5.37
X5.585Y-5.195
X5.59Y-4.39
X5.597Y-4.8655
X5.6825Y-4.22
X5.7025Y-5.4125
X5.75Y-4.7375
X5.7808Y-4.3542
X5.782Y-5.1945
X5.7825Y-4.3915
X5.825Y-4.22
X5.835Y-5.295
X5.885Y-4.355
X5.895Y-5.16
X5.96Y-4.6675
X5.9975Y-4.85
X6.24Y-4.835
X6.245Y-4.72
X6.44Y-4.8
X6.4975Y-4.265
X6.5175Y-5.16
X6.6075Y-4.355
X6.7225Y-5.3
X6.7875Y-4.48
X6.8775Y-4.8
X6.9125Y-4.835
X6.97Y-5.4125
X6.98Y-4.205
X7.0075Y-4.835
X7.0675Y-4.5875
X7.0675Y-5.01
T2
X6.8675Y-4.39
X6.8675Y-4.55
X6.8675Y-5.08
X6.8675Y-5.24
X6.9175Y-4.39
X6.9175Y-4.55
X6.9175Y-5.08
X6.9175Y-5.24
X6.9675Y-4.39
X6.9675Y-4.55
X6.9675Y-5.08
X6.9675Y-5.24
T3
X5.07Y-4.8
X5.2669Y-4.8
X6.905Y-4.7175
X6.905Y-4.9144
T4
X4.93Y-4.49
X4.93Y-4.8
X7.2525Y-4.49
X7.2525Y-4.8
X7.8025Y-5.27
X7.805Y-4.325
X7.805Y-4.8
T0
M30
