G04 #@! TF.GenerationSoftware,KiCad,Pcbnew,(5.1.10-0-10_14)*
G04 #@! TF.CreationDate,2021-10-31T18:21:36+01:00*
G04 #@! TF.ProjectId,pre-amp-discret,7072652d-616d-4702-9d64-697363726574,rev?*
G04 #@! TF.SameCoordinates,Original*
G04 #@! TF.FileFunction,Soldermask,Top*
G04 #@! TF.FilePolarity,Negative*
%FSLAX46Y46*%
G04 Gerber Fmt 4.6, Leading zero omitted, Abs format (unit mm)*
G04 Created by KiCad (PCBNEW (5.1.10-0-10_14)) date 2021-10-31 18:21:36*
%MOMM*%
%LPD*%
G01*
G04 APERTURE LIST*
%ADD10R,0.650000X1.220000*%
%ADD11R,1.300000X1.900000*%
%ADD12R,2.000000X1.900000*%
%ADD13C,1.600000*%
%ADD14O,1.050000X1.500000*%
%ADD15R,1.050000X1.500000*%
%ADD16R,0.800000X0.900000*%
%ADD17C,2.000000*%
%ADD18C,3.200000*%
G04 APERTURE END LIST*
G36*
G01*
X181201000Y-136927500D02*
X181201000Y-138027500D01*
G75*
G02*
X180951000Y-138277500I-250000J0D01*
G01*
X177951000Y-138277500D01*
G75*
G02*
X177701000Y-138027500I0J250000D01*
G01*
X177701000Y-136927500D01*
G75*
G02*
X177951000Y-136677500I250000J0D01*
G01*
X180951000Y-136677500D01*
G75*
G02*
X181201000Y-136927500I0J-250000D01*
G01*
G37*
G36*
G01*
X186601000Y-136927500D02*
X186601000Y-138027500D01*
G75*
G02*
X186351000Y-138277500I-250000J0D01*
G01*
X183351000Y-138277500D01*
G75*
G02*
X183101000Y-138027500I0J250000D01*
G01*
X183101000Y-136927500D01*
G75*
G02*
X183351000Y-136677500I250000J0D01*
G01*
X186351000Y-136677500D01*
G75*
G02*
X186601000Y-136927500I0J-250000D01*
G01*
G37*
G36*
G01*
X183482000Y-107357000D02*
X183482000Y-106257000D01*
G75*
G02*
X183732000Y-106007000I250000J0D01*
G01*
X186732000Y-106007000D01*
G75*
G02*
X186982000Y-106257000I0J-250000D01*
G01*
X186982000Y-107357000D01*
G75*
G02*
X186732000Y-107607000I-250000J0D01*
G01*
X183732000Y-107607000D01*
G75*
G02*
X183482000Y-107357000I0J250000D01*
G01*
G37*
G36*
G01*
X178082000Y-107357000D02*
X178082000Y-106257000D01*
G75*
G02*
X178332000Y-106007000I250000J0D01*
G01*
X181332000Y-106007000D01*
G75*
G02*
X181582000Y-106257000I0J-250000D01*
G01*
X181582000Y-107357000D01*
G75*
G02*
X181332000Y-107607000I-250000J0D01*
G01*
X178332000Y-107607000D01*
G75*
G02*
X178082000Y-107357000I0J250000D01*
G01*
G37*
G36*
G01*
X173842499Y-139926500D02*
X176042501Y-139926500D01*
G75*
G02*
X176292500Y-140176499I0J-249999D01*
G01*
X176292500Y-141001501D01*
G75*
G02*
X176042501Y-141251500I-249999J0D01*
G01*
X173842499Y-141251500D01*
G75*
G02*
X173592500Y-141001501I0J249999D01*
G01*
X173592500Y-140176499D01*
G75*
G02*
X173842499Y-139926500I249999J0D01*
G01*
G37*
G36*
G01*
X173842499Y-136801500D02*
X176042501Y-136801500D01*
G75*
G02*
X176292500Y-137051499I0J-249999D01*
G01*
X176292500Y-137876501D01*
G75*
G02*
X176042501Y-138126500I-249999J0D01*
G01*
X173842499Y-138126500D01*
G75*
G02*
X173592500Y-137876501I0J249999D01*
G01*
X173592500Y-137051499D01*
G75*
G02*
X173842499Y-136801500I249999J0D01*
G01*
G37*
G36*
G01*
X174096499Y-106144500D02*
X176296501Y-106144500D01*
G75*
G02*
X176546500Y-106394499I0J-249999D01*
G01*
X176546500Y-107219501D01*
G75*
G02*
X176296501Y-107469500I-249999J0D01*
G01*
X174096499Y-107469500D01*
G75*
G02*
X173846500Y-107219501I0J249999D01*
G01*
X173846500Y-106394499D01*
G75*
G02*
X174096499Y-106144500I249999J0D01*
G01*
G37*
G36*
G01*
X174096499Y-103019500D02*
X176296501Y-103019500D01*
G75*
G02*
X176546500Y-103269499I0J-249999D01*
G01*
X176546500Y-104094501D01*
G75*
G02*
X176296501Y-104344500I-249999J0D01*
G01*
X174096499Y-104344500D01*
G75*
G02*
X173846500Y-104094501I0J249999D01*
G01*
X173846500Y-103269499D01*
G75*
G02*
X174096499Y-103019500I249999J0D01*
G01*
G37*
G36*
G01*
X143806999Y-138275500D02*
X146007001Y-138275500D01*
G75*
G02*
X146257000Y-138525499I0J-249999D01*
G01*
X146257000Y-139350501D01*
G75*
G02*
X146007001Y-139600500I-249999J0D01*
G01*
X143806999Y-139600500D01*
G75*
G02*
X143557000Y-139350501I0J249999D01*
G01*
X143557000Y-138525499D01*
G75*
G02*
X143806999Y-138275500I249999J0D01*
G01*
G37*
G36*
G01*
X143806999Y-135150500D02*
X146007001Y-135150500D01*
G75*
G02*
X146257000Y-135400499I0J-249999D01*
G01*
X146257000Y-136225501D01*
G75*
G02*
X146007001Y-136475500I-249999J0D01*
G01*
X143806999Y-136475500D01*
G75*
G02*
X143557000Y-136225501I0J249999D01*
G01*
X143557000Y-135400499D01*
G75*
G02*
X143806999Y-135150500I249999J0D01*
G01*
G37*
G36*
G01*
X143298999Y-107999500D02*
X145499001Y-107999500D01*
G75*
G02*
X145749000Y-108249499I0J-249999D01*
G01*
X145749000Y-109074501D01*
G75*
G02*
X145499001Y-109324500I-249999J0D01*
G01*
X143298999Y-109324500D01*
G75*
G02*
X143049000Y-109074501I0J249999D01*
G01*
X143049000Y-108249499D01*
G75*
G02*
X143298999Y-107999500I249999J0D01*
G01*
G37*
G36*
G01*
X143298999Y-104874500D02*
X145499001Y-104874500D01*
G75*
G02*
X145749000Y-105124499I0J-249999D01*
G01*
X145749000Y-105949501D01*
G75*
G02*
X145499001Y-106199500I-249999J0D01*
G01*
X143298999Y-106199500D01*
G75*
G02*
X143049000Y-105949501I0J249999D01*
G01*
X143049000Y-105124499D01*
G75*
G02*
X143298999Y-104874500I249999J0D01*
G01*
G37*
D10*
X151384000Y-119554000D03*
X153284000Y-119554000D03*
X153284000Y-122174000D03*
X152334000Y-122174000D03*
X151384000Y-122174000D03*
G36*
G01*
X155762500Y-122358999D02*
X155762500Y-123259001D01*
G75*
G02*
X155512501Y-123509000I-249999J0D01*
G01*
X154812499Y-123509000D01*
G75*
G02*
X154562500Y-123259001I0J249999D01*
G01*
X154562500Y-122358999D01*
G75*
G02*
X154812499Y-122109000I249999J0D01*
G01*
X155512501Y-122109000D01*
G75*
G02*
X155762500Y-122358999I0J-249999D01*
G01*
G37*
G36*
G01*
X157762500Y-122358999D02*
X157762500Y-123259001D01*
G75*
G02*
X157512501Y-123509000I-249999J0D01*
G01*
X156812499Y-123509000D01*
G75*
G02*
X156562500Y-123259001I0J249999D01*
G01*
X156562500Y-122358999D01*
G75*
G02*
X156812499Y-122109000I249999J0D01*
G01*
X157512501Y-122109000D01*
G75*
G02*
X157762500Y-122358999I0J-249999D01*
G01*
G37*
G36*
G01*
X157866501Y-119504000D02*
X156966499Y-119504000D01*
G75*
G02*
X156716500Y-119254001I0J249999D01*
G01*
X156716500Y-118553999D01*
G75*
G02*
X156966499Y-118304000I249999J0D01*
G01*
X157866501Y-118304000D01*
G75*
G02*
X158116500Y-118553999I0J-249999D01*
G01*
X158116500Y-119254001D01*
G75*
G02*
X157866501Y-119504000I-249999J0D01*
G01*
G37*
G36*
G01*
X157866501Y-121504000D02*
X156966499Y-121504000D01*
G75*
G02*
X156716500Y-121254001I0J249999D01*
G01*
X156716500Y-120553999D01*
G75*
G02*
X156966499Y-120304000I249999J0D01*
G01*
X157866501Y-120304000D01*
G75*
G02*
X158116500Y-120553999I0J-249999D01*
G01*
X158116500Y-121254001D01*
G75*
G02*
X157866501Y-121504000I-249999J0D01*
G01*
G37*
G36*
G01*
X153739001Y-116265500D02*
X152838999Y-116265500D01*
G75*
G02*
X152589000Y-116015501I0J249999D01*
G01*
X152589000Y-115315499D01*
G75*
G02*
X152838999Y-115065500I249999J0D01*
G01*
X153739001Y-115065500D01*
G75*
G02*
X153989000Y-115315499I0J-249999D01*
G01*
X153989000Y-116015501D01*
G75*
G02*
X153739001Y-116265500I-249999J0D01*
G01*
G37*
G36*
G01*
X153739001Y-118265500D02*
X152838999Y-118265500D01*
G75*
G02*
X152589000Y-118015501I0J249999D01*
G01*
X152589000Y-117315499D01*
G75*
G02*
X152838999Y-117065500I249999J0D01*
G01*
X153739001Y-117065500D01*
G75*
G02*
X153989000Y-117315499I0J-249999D01*
G01*
X153989000Y-118015501D01*
G75*
G02*
X153739001Y-118265500I-249999J0D01*
G01*
G37*
G36*
G01*
X155738500Y-124429500D02*
X155738500Y-125379500D01*
G75*
G02*
X155488500Y-125629500I-250000J0D01*
G01*
X154813500Y-125629500D01*
G75*
G02*
X154563500Y-125379500I0J250000D01*
G01*
X154563500Y-124429500D01*
G75*
G02*
X154813500Y-124179500I250000J0D01*
G01*
X155488500Y-124179500D01*
G75*
G02*
X155738500Y-124429500I0J-250000D01*
G01*
G37*
G36*
G01*
X157813500Y-124429500D02*
X157813500Y-125379500D01*
G75*
G02*
X157563500Y-125629500I-250000J0D01*
G01*
X156888500Y-125629500D01*
G75*
G02*
X156638500Y-125379500I0J250000D01*
G01*
X156638500Y-124429500D01*
G75*
G02*
X156888500Y-124179500I250000J0D01*
G01*
X157563500Y-124179500D01*
G75*
G02*
X157813500Y-124429500I0J-250000D01*
G01*
G37*
G36*
G01*
X151799000Y-124253000D02*
X151799000Y-123778000D01*
G75*
G02*
X152036500Y-123540500I237500J0D01*
G01*
X152636500Y-123540500D01*
G75*
G02*
X152874000Y-123778000I0J-237500D01*
G01*
X152874000Y-124253000D01*
G75*
G02*
X152636500Y-124490500I-237500J0D01*
G01*
X152036500Y-124490500D01*
G75*
G02*
X151799000Y-124253000I0J237500D01*
G01*
G37*
G36*
G01*
X150074000Y-124253000D02*
X150074000Y-123778000D01*
G75*
G02*
X150311500Y-123540500I237500J0D01*
G01*
X150911500Y-123540500D01*
G75*
G02*
X151149000Y-123778000I0J-237500D01*
G01*
X151149000Y-124253000D01*
G75*
G02*
X150911500Y-124490500I-237500J0D01*
G01*
X150311500Y-124490500D01*
G75*
G02*
X150074000Y-124253000I0J237500D01*
G01*
G37*
G36*
G01*
X151146500Y-117064500D02*
X151621500Y-117064500D01*
G75*
G02*
X151859000Y-117302000I0J-237500D01*
G01*
X151859000Y-117902000D01*
G75*
G02*
X151621500Y-118139500I-237500J0D01*
G01*
X151146500Y-118139500D01*
G75*
G02*
X150909000Y-117902000I0J237500D01*
G01*
X150909000Y-117302000D01*
G75*
G02*
X151146500Y-117064500I237500J0D01*
G01*
G37*
G36*
G01*
X151146500Y-115339500D02*
X151621500Y-115339500D01*
G75*
G02*
X151859000Y-115577000I0J-237500D01*
G01*
X151859000Y-116177000D01*
G75*
G02*
X151621500Y-116414500I-237500J0D01*
G01*
X151146500Y-116414500D01*
G75*
G02*
X150909000Y-116177000I0J237500D01*
G01*
X150909000Y-115577000D01*
G75*
G02*
X151146500Y-115339500I237500J0D01*
G01*
G37*
G36*
G01*
X155796000Y-119416500D02*
X154846000Y-119416500D01*
G75*
G02*
X154596000Y-119166500I0J250000D01*
G01*
X154596000Y-118491500D01*
G75*
G02*
X154846000Y-118241500I250000J0D01*
G01*
X155796000Y-118241500D01*
G75*
G02*
X156046000Y-118491500I0J-250000D01*
G01*
X156046000Y-119166500D01*
G75*
G02*
X155796000Y-119416500I-250000J0D01*
G01*
G37*
G36*
G01*
X155796000Y-121491500D02*
X154846000Y-121491500D01*
G75*
G02*
X154596000Y-121241500I0J250000D01*
G01*
X154596000Y-120566500D01*
G75*
G02*
X154846000Y-120316500I250000J0D01*
G01*
X155796000Y-120316500D01*
G75*
G02*
X156046000Y-120566500I0J-250000D01*
G01*
X156046000Y-121241500D01*
G75*
G02*
X155796000Y-121491500I-250000J0D01*
G01*
G37*
D11*
X170497500Y-119126000D03*
D12*
X169347500Y-124226000D03*
D11*
X168197500Y-119126000D03*
G36*
G01*
X138626001Y-118615000D02*
X137725999Y-118615000D01*
G75*
G02*
X137476000Y-118365001I0J249999D01*
G01*
X137476000Y-117664999D01*
G75*
G02*
X137725999Y-117415000I249999J0D01*
G01*
X138626001Y-117415000D01*
G75*
G02*
X138876000Y-117664999I0J-249999D01*
G01*
X138876000Y-118365001D01*
G75*
G02*
X138626001Y-118615000I-249999J0D01*
G01*
G37*
G36*
G01*
X138626001Y-120615000D02*
X137725999Y-120615000D01*
G75*
G02*
X137476000Y-120365001I0J249999D01*
G01*
X137476000Y-119664999D01*
G75*
G02*
X137725999Y-119415000I249999J0D01*
G01*
X138626001Y-119415000D01*
G75*
G02*
X138876000Y-119664999I0J-249999D01*
G01*
X138876000Y-120365001D01*
G75*
G02*
X138626001Y-120615000I-249999J0D01*
G01*
G37*
G36*
G01*
X136760000Y-121469999D02*
X136760000Y-122370001D01*
G75*
G02*
X136510001Y-122620000I-249999J0D01*
G01*
X135809999Y-122620000D01*
G75*
G02*
X135560000Y-122370001I0J249999D01*
G01*
X135560000Y-121469999D01*
G75*
G02*
X135809999Y-121220000I249999J0D01*
G01*
X136510001Y-121220000D01*
G75*
G02*
X136760000Y-121469999I0J-249999D01*
G01*
G37*
G36*
G01*
X138760000Y-121469999D02*
X138760000Y-122370001D01*
G75*
G02*
X138510001Y-122620000I-249999J0D01*
G01*
X137809999Y-122620000D01*
G75*
G02*
X137560000Y-122370001I0J249999D01*
G01*
X137560000Y-121469999D01*
G75*
G02*
X137809999Y-121220000I249999J0D01*
G01*
X138510001Y-121220000D01*
G75*
G02*
X138760000Y-121469999I0J-249999D01*
G01*
G37*
G36*
G01*
X138651000Y-124412500D02*
X137701000Y-124412500D01*
G75*
G02*
X137451000Y-124162500I0J250000D01*
G01*
X137451000Y-123487500D01*
G75*
G02*
X137701000Y-123237500I250000J0D01*
G01*
X138651000Y-123237500D01*
G75*
G02*
X138901000Y-123487500I0J-250000D01*
G01*
X138901000Y-124162500D01*
G75*
G02*
X138651000Y-124412500I-250000J0D01*
G01*
G37*
G36*
G01*
X138651000Y-126487500D02*
X137701000Y-126487500D01*
G75*
G02*
X137451000Y-126237500I0J250000D01*
G01*
X137451000Y-125562500D01*
G75*
G02*
X137701000Y-125312500I250000J0D01*
G01*
X138651000Y-125312500D01*
G75*
G02*
X138901000Y-125562500I0J-250000D01*
G01*
X138901000Y-126237500D01*
G75*
G02*
X138651000Y-126487500I-250000J0D01*
G01*
G37*
G36*
G01*
X147758999Y-132464000D02*
X148659001Y-132464000D01*
G75*
G02*
X148909000Y-132713999I0J-249999D01*
G01*
X148909000Y-133414001D01*
G75*
G02*
X148659001Y-133664000I-249999J0D01*
G01*
X147758999Y-133664000D01*
G75*
G02*
X147509000Y-133414001I0J249999D01*
G01*
X147509000Y-132713999D01*
G75*
G02*
X147758999Y-132464000I249999J0D01*
G01*
G37*
G36*
G01*
X147758999Y-130464000D02*
X148659001Y-130464000D01*
G75*
G02*
X148909000Y-130713999I0J-249999D01*
G01*
X148909000Y-131414001D01*
G75*
G02*
X148659001Y-131664000I-249999J0D01*
G01*
X147758999Y-131664000D01*
G75*
G02*
X147509000Y-131414001I0J249999D01*
G01*
X147509000Y-130713999D01*
G75*
G02*
X147758999Y-130464000I249999J0D01*
G01*
G37*
G36*
G01*
X159696999Y-121320000D02*
X160597001Y-121320000D01*
G75*
G02*
X160847000Y-121569999I0J-249999D01*
G01*
X160847000Y-122270001D01*
G75*
G02*
X160597001Y-122520000I-249999J0D01*
G01*
X159696999Y-122520000D01*
G75*
G02*
X159447000Y-122270001I0J249999D01*
G01*
X159447000Y-121569999D01*
G75*
G02*
X159696999Y-121320000I249999J0D01*
G01*
G37*
G36*
G01*
X159696999Y-119320000D02*
X160597001Y-119320000D01*
G75*
G02*
X160847000Y-119569999I0J-249999D01*
G01*
X160847000Y-120270001D01*
G75*
G02*
X160597001Y-120520000I-249999J0D01*
G01*
X159696999Y-120520000D01*
G75*
G02*
X159447000Y-120270001I0J249999D01*
G01*
X159447000Y-119569999D01*
G75*
G02*
X159696999Y-119320000I249999J0D01*
G01*
G37*
G36*
G01*
X164608000Y-126779000D02*
X164608000Y-127729000D01*
G75*
G02*
X164358000Y-127979000I-250000J0D01*
G01*
X163683000Y-127979000D01*
G75*
G02*
X163433000Y-127729000I0J250000D01*
G01*
X163433000Y-126779000D01*
G75*
G02*
X163683000Y-126529000I250000J0D01*
G01*
X164358000Y-126529000D01*
G75*
G02*
X164608000Y-126779000I0J-250000D01*
G01*
G37*
G36*
G01*
X162533000Y-126779000D02*
X162533000Y-127729000D01*
G75*
G02*
X162283000Y-127979000I-250000J0D01*
G01*
X161608000Y-127979000D01*
G75*
G02*
X161358000Y-127729000I0J250000D01*
G01*
X161358000Y-126779000D01*
G75*
G02*
X161608000Y-126529000I250000J0D01*
G01*
X162283000Y-126529000D01*
G75*
G02*
X162533000Y-126779000I0J-250000D01*
G01*
G37*
G36*
G01*
X161231000Y-116299000D02*
X161231000Y-115349000D01*
G75*
G02*
X161481000Y-115099000I250000J0D01*
G01*
X162156000Y-115099000D01*
G75*
G02*
X162406000Y-115349000I0J-250000D01*
G01*
X162406000Y-116299000D01*
G75*
G02*
X162156000Y-116549000I-250000J0D01*
G01*
X161481000Y-116549000D01*
G75*
G02*
X161231000Y-116299000I0J250000D01*
G01*
G37*
G36*
G01*
X163306000Y-116299000D02*
X163306000Y-115349000D01*
G75*
G02*
X163556000Y-115099000I250000J0D01*
G01*
X164231000Y-115099000D01*
G75*
G02*
X164481000Y-115349000I0J-250000D01*
G01*
X164481000Y-116299000D01*
G75*
G02*
X164231000Y-116549000I-250000J0D01*
G01*
X163556000Y-116549000D01*
G75*
G02*
X163306000Y-116299000I0J250000D01*
G01*
G37*
D13*
X175387000Y-124824500D03*
X175387000Y-119824500D03*
G36*
G01*
X179064499Y-123225000D02*
X179964501Y-123225000D01*
G75*
G02*
X180214500Y-123474999I0J-249999D01*
G01*
X180214500Y-124175001D01*
G75*
G02*
X179964501Y-124425000I-249999J0D01*
G01*
X179064499Y-124425000D01*
G75*
G02*
X178814500Y-124175001I0J249999D01*
G01*
X178814500Y-123474999D01*
G75*
G02*
X179064499Y-123225000I249999J0D01*
G01*
G37*
G36*
G01*
X179064499Y-125225000D02*
X179964501Y-125225000D01*
G75*
G02*
X180214500Y-125474999I0J-249999D01*
G01*
X180214500Y-126175001D01*
G75*
G02*
X179964501Y-126425000I-249999J0D01*
G01*
X179064499Y-126425000D01*
G75*
G02*
X178814500Y-126175001I0J249999D01*
G01*
X178814500Y-125474999D01*
G75*
G02*
X179064499Y-125225000I249999J0D01*
G01*
G37*
G36*
G01*
X179064499Y-117415000D02*
X179964501Y-117415000D01*
G75*
G02*
X180214500Y-117664999I0J-249999D01*
G01*
X180214500Y-118365001D01*
G75*
G02*
X179964501Y-118615000I-249999J0D01*
G01*
X179064499Y-118615000D01*
G75*
G02*
X178814500Y-118365001I0J249999D01*
G01*
X178814500Y-117664999D01*
G75*
G02*
X179064499Y-117415000I249999J0D01*
G01*
G37*
G36*
G01*
X179064499Y-119415000D02*
X179964501Y-119415000D01*
G75*
G02*
X180214500Y-119664999I0J-249999D01*
G01*
X180214500Y-120365001D01*
G75*
G02*
X179964501Y-120615000I-249999J0D01*
G01*
X179064499Y-120615000D01*
G75*
G02*
X178814500Y-120365001I0J249999D01*
G01*
X178814500Y-119664999D01*
G75*
G02*
X179064499Y-119415000I249999J0D01*
G01*
G37*
G36*
G01*
X170364999Y-126432000D02*
X171265001Y-126432000D01*
G75*
G02*
X171515000Y-126681999I0J-249999D01*
G01*
X171515000Y-127382001D01*
G75*
G02*
X171265001Y-127632000I-249999J0D01*
G01*
X170364999Y-127632000D01*
G75*
G02*
X170115000Y-127382001I0J249999D01*
G01*
X170115000Y-126681999D01*
G75*
G02*
X170364999Y-126432000I249999J0D01*
G01*
G37*
G36*
G01*
X170364999Y-128432000D02*
X171265001Y-128432000D01*
G75*
G02*
X171515000Y-128681999I0J-249999D01*
G01*
X171515000Y-129382001D01*
G75*
G02*
X171265001Y-129632000I-249999J0D01*
G01*
X170364999Y-129632000D01*
G75*
G02*
X170115000Y-129382001I0J249999D01*
G01*
X170115000Y-128681999D01*
G75*
G02*
X170364999Y-128432000I249999J0D01*
G01*
G37*
G36*
G01*
X170428499Y-113192000D02*
X171328501Y-113192000D01*
G75*
G02*
X171578500Y-113441999I0J-249999D01*
G01*
X171578500Y-114142001D01*
G75*
G02*
X171328501Y-114392000I-249999J0D01*
G01*
X170428499Y-114392000D01*
G75*
G02*
X170178500Y-114142001I0J249999D01*
G01*
X170178500Y-113441999D01*
G75*
G02*
X170428499Y-113192000I249999J0D01*
G01*
G37*
G36*
G01*
X170428499Y-115192000D02*
X171328501Y-115192000D01*
G75*
G02*
X171578500Y-115441999I0J-249999D01*
G01*
X171578500Y-116142001D01*
G75*
G02*
X171328501Y-116392000I-249999J0D01*
G01*
X170428499Y-116392000D01*
G75*
G02*
X170178500Y-116142001I0J249999D01*
G01*
X170178500Y-115441999D01*
G75*
G02*
X170428499Y-115192000I249999J0D01*
G01*
G37*
G36*
G01*
X165325500Y-127704001D02*
X165325500Y-126803999D01*
G75*
G02*
X165575499Y-126554000I249999J0D01*
G01*
X166275501Y-126554000D01*
G75*
G02*
X166525500Y-126803999I0J-249999D01*
G01*
X166525500Y-127704001D01*
G75*
G02*
X166275501Y-127954000I-249999J0D01*
G01*
X165575499Y-127954000D01*
G75*
G02*
X165325500Y-127704001I0J249999D01*
G01*
G37*
G36*
G01*
X167325500Y-127704001D02*
X167325500Y-126803999D01*
G75*
G02*
X167575499Y-126554000I249999J0D01*
G01*
X168275501Y-126554000D01*
G75*
G02*
X168525500Y-126803999I0J-249999D01*
G01*
X168525500Y-127704001D01*
G75*
G02*
X168275501Y-127954000I-249999J0D01*
G01*
X167575499Y-127954000D01*
G75*
G02*
X167325500Y-127704001I0J249999D01*
G01*
G37*
G36*
G01*
X168525500Y-115373999D02*
X168525500Y-116274001D01*
G75*
G02*
X168275501Y-116524000I-249999J0D01*
G01*
X167575499Y-116524000D01*
G75*
G02*
X167325500Y-116274001I0J249999D01*
G01*
X167325500Y-115373999D01*
G75*
G02*
X167575499Y-115124000I249999J0D01*
G01*
X168275501Y-115124000D01*
G75*
G02*
X168525500Y-115373999I0J-249999D01*
G01*
G37*
G36*
G01*
X166525500Y-115373999D02*
X166525500Y-116274001D01*
G75*
G02*
X166275501Y-116524000I-249999J0D01*
G01*
X165575499Y-116524000D01*
G75*
G02*
X165325500Y-116274001I0J249999D01*
G01*
X165325500Y-115373999D01*
G75*
G02*
X165575499Y-115124000I249999J0D01*
G01*
X166275501Y-115124000D01*
G75*
G02*
X166525500Y-115373999I0J-249999D01*
G01*
G37*
D14*
X175704500Y-133096000D03*
X174434500Y-133096000D03*
D15*
X176974500Y-133096000D03*
D14*
X175704500Y-111506000D03*
X176974500Y-111506000D03*
D15*
X174434500Y-111506000D03*
D14*
X175704500Y-129032000D03*
X176974500Y-129032000D03*
D15*
X174434500Y-129032000D03*
D14*
X175704500Y-115570000D03*
X174434500Y-115570000D03*
D15*
X176974500Y-115570000D03*
D16*
X166944000Y-131095500D03*
X168844000Y-131095500D03*
X167894000Y-129095500D03*
G36*
G01*
X144893000Y-131125500D02*
X144893000Y-130875500D01*
G75*
G02*
X145018000Y-130750500I125000J0D01*
G01*
X146193000Y-130750500D01*
G75*
G02*
X146318000Y-130875500I0J-125000D01*
G01*
X146318000Y-131125500D01*
G75*
G02*
X146193000Y-131250500I-125000J0D01*
G01*
X145018000Y-131250500D01*
G75*
G02*
X144893000Y-131125500I0J125000D01*
G01*
G37*
G36*
G01*
X144893000Y-132075500D02*
X144893000Y-131825500D01*
G75*
G02*
X145018000Y-131700500I125000J0D01*
G01*
X146193000Y-131700500D01*
G75*
G02*
X146318000Y-131825500I0J-125000D01*
G01*
X146318000Y-132075500D01*
G75*
G02*
X146193000Y-132200500I-125000J0D01*
G01*
X145018000Y-132200500D01*
G75*
G02*
X144893000Y-132075500I0J125000D01*
G01*
G37*
G36*
G01*
X144893000Y-133025500D02*
X144893000Y-132775500D01*
G75*
G02*
X145018000Y-132650500I125000J0D01*
G01*
X146193000Y-132650500D01*
G75*
G02*
X146318000Y-132775500I0J-125000D01*
G01*
X146318000Y-133025500D01*
G75*
G02*
X146193000Y-133150500I-125000J0D01*
G01*
X145018000Y-133150500D01*
G75*
G02*
X144893000Y-133025500I0J125000D01*
G01*
G37*
G36*
G01*
X142618000Y-133025500D02*
X142618000Y-132775500D01*
G75*
G02*
X142743000Y-132650500I125000J0D01*
G01*
X143918000Y-132650500D01*
G75*
G02*
X144043000Y-132775500I0J-125000D01*
G01*
X144043000Y-133025500D01*
G75*
G02*
X143918000Y-133150500I-125000J0D01*
G01*
X142743000Y-133150500D01*
G75*
G02*
X142618000Y-133025500I0J125000D01*
G01*
G37*
G36*
G01*
X142618000Y-132075500D02*
X142618000Y-131825500D01*
G75*
G02*
X142743000Y-131700500I125000J0D01*
G01*
X143918000Y-131700500D01*
G75*
G02*
X144043000Y-131825500I0J-125000D01*
G01*
X144043000Y-132075500D01*
G75*
G02*
X143918000Y-132200500I-125000J0D01*
G01*
X142743000Y-132200500D01*
G75*
G02*
X142618000Y-132075500I0J125000D01*
G01*
G37*
G36*
G01*
X142618000Y-131125500D02*
X142618000Y-130875500D01*
G75*
G02*
X142743000Y-130750500I125000J0D01*
G01*
X143918000Y-130750500D01*
G75*
G02*
X144043000Y-130875500I0J-125000D01*
G01*
X144043000Y-131125500D01*
G75*
G02*
X143918000Y-131250500I-125000J0D01*
G01*
X142743000Y-131250500D01*
G75*
G02*
X142618000Y-131125500I0J125000D01*
G01*
G37*
G36*
G01*
X144032000Y-125358700D02*
X144032000Y-125608700D01*
G75*
G02*
X143907000Y-125733700I-125000J0D01*
G01*
X142732000Y-125733700D01*
G75*
G02*
X142607000Y-125608700I0J125000D01*
G01*
X142607000Y-125358700D01*
G75*
G02*
X142732000Y-125233700I125000J0D01*
G01*
X143907000Y-125233700D01*
G75*
G02*
X144032000Y-125358700I0J-125000D01*
G01*
G37*
G36*
G01*
X144032000Y-124408700D02*
X144032000Y-124658700D01*
G75*
G02*
X143907000Y-124783700I-125000J0D01*
G01*
X142732000Y-124783700D01*
G75*
G02*
X142607000Y-124658700I0J125000D01*
G01*
X142607000Y-124408700D01*
G75*
G02*
X142732000Y-124283700I125000J0D01*
G01*
X143907000Y-124283700D01*
G75*
G02*
X144032000Y-124408700I0J-125000D01*
G01*
G37*
G36*
G01*
X144032000Y-123458700D02*
X144032000Y-123708700D01*
G75*
G02*
X143907000Y-123833700I-125000J0D01*
G01*
X142732000Y-123833700D01*
G75*
G02*
X142607000Y-123708700I0J125000D01*
G01*
X142607000Y-123458700D01*
G75*
G02*
X142732000Y-123333700I125000J0D01*
G01*
X143907000Y-123333700D01*
G75*
G02*
X144032000Y-123458700I0J-125000D01*
G01*
G37*
G36*
G01*
X146307000Y-123458700D02*
X146307000Y-123708700D01*
G75*
G02*
X146182000Y-123833700I-125000J0D01*
G01*
X145007000Y-123833700D01*
G75*
G02*
X144882000Y-123708700I0J125000D01*
G01*
X144882000Y-123458700D01*
G75*
G02*
X145007000Y-123333700I125000J0D01*
G01*
X146182000Y-123333700D01*
G75*
G02*
X146307000Y-123458700I0J-125000D01*
G01*
G37*
G36*
G01*
X146307000Y-124408700D02*
X146307000Y-124658700D01*
G75*
G02*
X146182000Y-124783700I-125000J0D01*
G01*
X145007000Y-124783700D01*
G75*
G02*
X144882000Y-124658700I0J125000D01*
G01*
X144882000Y-124408700D01*
G75*
G02*
X145007000Y-124283700I125000J0D01*
G01*
X146182000Y-124283700D01*
G75*
G02*
X146307000Y-124408700I0J-125000D01*
G01*
G37*
G36*
G01*
X146307000Y-125358700D02*
X146307000Y-125608700D01*
G75*
G02*
X146182000Y-125733700I-125000J0D01*
G01*
X145007000Y-125733700D01*
G75*
G02*
X144882000Y-125608700I0J125000D01*
G01*
X144882000Y-125358700D01*
G75*
G02*
X145007000Y-125233700I125000J0D01*
G01*
X146182000Y-125233700D01*
G75*
G02*
X146307000Y-125358700I0J-125000D01*
G01*
G37*
G36*
G01*
X144869300Y-110721600D02*
X144869300Y-110471600D01*
G75*
G02*
X144994300Y-110346600I125000J0D01*
G01*
X146169300Y-110346600D01*
G75*
G02*
X146294300Y-110471600I0J-125000D01*
G01*
X146294300Y-110721600D01*
G75*
G02*
X146169300Y-110846600I-125000J0D01*
G01*
X144994300Y-110846600D01*
G75*
G02*
X144869300Y-110721600I0J125000D01*
G01*
G37*
G36*
G01*
X144869300Y-111671600D02*
X144869300Y-111421600D01*
G75*
G02*
X144994300Y-111296600I125000J0D01*
G01*
X146169300Y-111296600D01*
G75*
G02*
X146294300Y-111421600I0J-125000D01*
G01*
X146294300Y-111671600D01*
G75*
G02*
X146169300Y-111796600I-125000J0D01*
G01*
X144994300Y-111796600D01*
G75*
G02*
X144869300Y-111671600I0J125000D01*
G01*
G37*
G36*
G01*
X144869300Y-112621600D02*
X144869300Y-112371600D01*
G75*
G02*
X144994300Y-112246600I125000J0D01*
G01*
X146169300Y-112246600D01*
G75*
G02*
X146294300Y-112371600I0J-125000D01*
G01*
X146294300Y-112621600D01*
G75*
G02*
X146169300Y-112746600I-125000J0D01*
G01*
X144994300Y-112746600D01*
G75*
G02*
X144869300Y-112621600I0J125000D01*
G01*
G37*
G36*
G01*
X142594300Y-112621600D02*
X142594300Y-112371600D01*
G75*
G02*
X142719300Y-112246600I125000J0D01*
G01*
X143894300Y-112246600D01*
G75*
G02*
X144019300Y-112371600I0J-125000D01*
G01*
X144019300Y-112621600D01*
G75*
G02*
X143894300Y-112746600I-125000J0D01*
G01*
X142719300Y-112746600D01*
G75*
G02*
X142594300Y-112621600I0J125000D01*
G01*
G37*
G36*
G01*
X142594300Y-111671600D02*
X142594300Y-111421600D01*
G75*
G02*
X142719300Y-111296600I125000J0D01*
G01*
X143894300Y-111296600D01*
G75*
G02*
X144019300Y-111421600I0J-125000D01*
G01*
X144019300Y-111671600D01*
G75*
G02*
X143894300Y-111796600I-125000J0D01*
G01*
X142719300Y-111796600D01*
G75*
G02*
X142594300Y-111671600I0J125000D01*
G01*
G37*
G36*
G01*
X142594300Y-110721600D02*
X142594300Y-110471600D01*
G75*
G02*
X142719300Y-110346600I125000J0D01*
G01*
X143894300Y-110346600D01*
G75*
G02*
X144019300Y-110471600I0J-125000D01*
G01*
X144019300Y-110721600D01*
G75*
G02*
X143894300Y-110846600I-125000J0D01*
G01*
X142719300Y-110846600D01*
G75*
G02*
X142594300Y-110721600I0J125000D01*
G01*
G37*
G36*
G01*
X144183500Y-118557500D02*
X144183500Y-118307500D01*
G75*
G02*
X144308500Y-118182500I125000J0D01*
G01*
X145483500Y-118182500D01*
G75*
G02*
X145608500Y-118307500I0J-125000D01*
G01*
X145608500Y-118557500D01*
G75*
G02*
X145483500Y-118682500I-125000J0D01*
G01*
X144308500Y-118682500D01*
G75*
G02*
X144183500Y-118557500I0J125000D01*
G01*
G37*
G36*
G01*
X144183500Y-119507500D02*
X144183500Y-119257500D01*
G75*
G02*
X144308500Y-119132500I125000J0D01*
G01*
X145483500Y-119132500D01*
G75*
G02*
X145608500Y-119257500I0J-125000D01*
G01*
X145608500Y-119507500D01*
G75*
G02*
X145483500Y-119632500I-125000J0D01*
G01*
X144308500Y-119632500D01*
G75*
G02*
X144183500Y-119507500I0J125000D01*
G01*
G37*
G36*
G01*
X144183500Y-120457500D02*
X144183500Y-120207500D01*
G75*
G02*
X144308500Y-120082500I125000J0D01*
G01*
X145483500Y-120082500D01*
G75*
G02*
X145608500Y-120207500I0J-125000D01*
G01*
X145608500Y-120457500D01*
G75*
G02*
X145483500Y-120582500I-125000J0D01*
G01*
X144308500Y-120582500D01*
G75*
G02*
X144183500Y-120457500I0J125000D01*
G01*
G37*
G36*
G01*
X141908500Y-120457500D02*
X141908500Y-120207500D01*
G75*
G02*
X142033500Y-120082500I125000J0D01*
G01*
X143208500Y-120082500D01*
G75*
G02*
X143333500Y-120207500I0J-125000D01*
G01*
X143333500Y-120457500D01*
G75*
G02*
X143208500Y-120582500I-125000J0D01*
G01*
X142033500Y-120582500D01*
G75*
G02*
X141908500Y-120457500I0J125000D01*
G01*
G37*
G36*
G01*
X141908500Y-119507500D02*
X141908500Y-119257500D01*
G75*
G02*
X142033500Y-119132500I125000J0D01*
G01*
X143208500Y-119132500D01*
G75*
G02*
X143333500Y-119257500I0J-125000D01*
G01*
X143333500Y-119507500D01*
G75*
G02*
X143208500Y-119632500I-125000J0D01*
G01*
X142033500Y-119632500D01*
G75*
G02*
X141908500Y-119507500I0J125000D01*
G01*
G37*
G36*
G01*
X141908500Y-118557500D02*
X141908500Y-118307500D01*
G75*
G02*
X142033500Y-118182500I125000J0D01*
G01*
X143208500Y-118182500D01*
G75*
G02*
X143333500Y-118307500I0J-125000D01*
G01*
X143333500Y-118557500D01*
G75*
G02*
X143208500Y-118682500I-125000J0D01*
G01*
X142033500Y-118682500D01*
G75*
G02*
X141908500Y-118557500I0J125000D01*
G01*
G37*
G36*
G01*
X182114500Y-121469999D02*
X182114500Y-122370001D01*
G75*
G02*
X181864501Y-122620000I-249999J0D01*
G01*
X181164499Y-122620000D01*
G75*
G02*
X180914500Y-122370001I0J249999D01*
G01*
X180914500Y-121469999D01*
G75*
G02*
X181164499Y-121220000I249999J0D01*
G01*
X181864501Y-121220000D01*
G75*
G02*
X182114500Y-121469999I0J-249999D01*
G01*
G37*
G36*
G01*
X180114500Y-121469999D02*
X180114500Y-122370001D01*
G75*
G02*
X179864501Y-122620000I-249999J0D01*
G01*
X179164499Y-122620000D01*
G75*
G02*
X178914500Y-122370001I0J249999D01*
G01*
X178914500Y-121469999D01*
G75*
G02*
X179164499Y-121220000I249999J0D01*
G01*
X179864501Y-121220000D01*
G75*
G02*
X180114500Y-121469999I0J-249999D01*
G01*
G37*
G36*
G01*
X170364999Y-130527500D02*
X171265001Y-130527500D01*
G75*
G02*
X171515000Y-130777499I0J-249999D01*
G01*
X171515000Y-131477501D01*
G75*
G02*
X171265001Y-131727500I-249999J0D01*
G01*
X170364999Y-131727500D01*
G75*
G02*
X170115000Y-131477501I0J249999D01*
G01*
X170115000Y-130777499D01*
G75*
G02*
X170364999Y-130527500I249999J0D01*
G01*
G37*
G36*
G01*
X170364999Y-132527500D02*
X171265001Y-132527500D01*
G75*
G02*
X171515000Y-132777499I0J-249999D01*
G01*
X171515000Y-133477501D01*
G75*
G02*
X171265001Y-133727500I-249999J0D01*
G01*
X170364999Y-133727500D01*
G75*
G02*
X170115000Y-133477501I0J249999D01*
G01*
X170115000Y-132777499D01*
G75*
G02*
X170364999Y-132527500I249999J0D01*
G01*
G37*
G36*
G01*
X140138999Y-118780000D02*
X141039001Y-118780000D01*
G75*
G02*
X141289000Y-119029999I0J-249999D01*
G01*
X141289000Y-119730001D01*
G75*
G02*
X141039001Y-119980000I-249999J0D01*
G01*
X140138999Y-119980000D01*
G75*
G02*
X139889000Y-119730001I0J249999D01*
G01*
X139889000Y-119029999D01*
G75*
G02*
X140138999Y-118780000I249999J0D01*
G01*
G37*
G36*
G01*
X140138999Y-116780000D02*
X141039001Y-116780000D01*
G75*
G02*
X141289000Y-117029999I0J-249999D01*
G01*
X141289000Y-117730001D01*
G75*
G02*
X141039001Y-117980000I-249999J0D01*
G01*
X140138999Y-117980000D01*
G75*
G02*
X139889000Y-117730001I0J249999D01*
G01*
X139889000Y-117029999D01*
G75*
G02*
X140138999Y-116780000I249999J0D01*
G01*
G37*
G36*
G01*
X145142799Y-115846300D02*
X146042801Y-115846300D01*
G75*
G02*
X146292800Y-116096299I0J-249999D01*
G01*
X146292800Y-116796301D01*
G75*
G02*
X146042801Y-117046300I-249999J0D01*
G01*
X145142799Y-117046300D01*
G75*
G02*
X144892800Y-116796301I0J249999D01*
G01*
X144892800Y-116096299D01*
G75*
G02*
X145142799Y-115846300I249999J0D01*
G01*
G37*
G36*
G01*
X145142799Y-113846300D02*
X146042801Y-113846300D01*
G75*
G02*
X146292800Y-114096299I0J-249999D01*
G01*
X146292800Y-114796301D01*
G75*
G02*
X146042801Y-115046300I-249999J0D01*
G01*
X145142799Y-115046300D01*
G75*
G02*
X144892800Y-114796301I0J249999D01*
G01*
X144892800Y-114096299D01*
G75*
G02*
X145142799Y-113846300I249999J0D01*
G01*
G37*
G36*
G01*
X140392999Y-111890000D02*
X141293001Y-111890000D01*
G75*
G02*
X141543000Y-112139999I0J-249999D01*
G01*
X141543000Y-112840001D01*
G75*
G02*
X141293001Y-113090000I-249999J0D01*
G01*
X140392999Y-113090000D01*
G75*
G02*
X140143000Y-112840001I0J249999D01*
G01*
X140143000Y-112139999D01*
G75*
G02*
X140392999Y-111890000I249999J0D01*
G01*
G37*
G36*
G01*
X140392999Y-109890000D02*
X141293001Y-109890000D01*
G75*
G02*
X141543000Y-110139999I0J-249999D01*
G01*
X141543000Y-110840001D01*
G75*
G02*
X141293001Y-111090000I-249999J0D01*
G01*
X140392999Y-111090000D01*
G75*
G02*
X140143000Y-110840001I0J249999D01*
G01*
X140143000Y-110139999D01*
G75*
G02*
X140392999Y-109890000I249999J0D01*
G01*
G37*
G36*
G01*
X146742999Y-119732500D02*
X147643001Y-119732500D01*
G75*
G02*
X147893000Y-119982499I0J-249999D01*
G01*
X147893000Y-120682501D01*
G75*
G02*
X147643001Y-120932500I-249999J0D01*
G01*
X146742999Y-120932500D01*
G75*
G02*
X146493000Y-120682501I0J249999D01*
G01*
X146493000Y-119982499D01*
G75*
G02*
X146742999Y-119732500I249999J0D01*
G01*
G37*
G36*
G01*
X146742999Y-117732500D02*
X147643001Y-117732500D01*
G75*
G02*
X147893000Y-117982499I0J-249999D01*
G01*
X147893000Y-118682501D01*
G75*
G02*
X147643001Y-118932500I-249999J0D01*
G01*
X146742999Y-118932500D01*
G75*
G02*
X146493000Y-118682501I0J249999D01*
G01*
X146493000Y-117982499D01*
G75*
G02*
X146742999Y-117732500I249999J0D01*
G01*
G37*
G36*
G01*
X142844099Y-115859000D02*
X143744101Y-115859000D01*
G75*
G02*
X143994100Y-116108999I0J-249999D01*
G01*
X143994100Y-116809001D01*
G75*
G02*
X143744101Y-117059000I-249999J0D01*
G01*
X142844099Y-117059000D01*
G75*
G02*
X142594100Y-116809001I0J249999D01*
G01*
X142594100Y-116108999D01*
G75*
G02*
X142844099Y-115859000I249999J0D01*
G01*
G37*
G36*
G01*
X142844099Y-113859000D02*
X143744101Y-113859000D01*
G75*
G02*
X143994100Y-114108999I0J-249999D01*
G01*
X143994100Y-114809001D01*
G75*
G02*
X143744101Y-115059000I-249999J0D01*
G01*
X142844099Y-115059000D01*
G75*
G02*
X142594100Y-114809001I0J249999D01*
G01*
X142594100Y-114108999D01*
G75*
G02*
X142844099Y-113859000I249999J0D01*
G01*
G37*
G36*
G01*
X147504999Y-110017000D02*
X148405001Y-110017000D01*
G75*
G02*
X148655000Y-110266999I0J-249999D01*
G01*
X148655000Y-110967001D01*
G75*
G02*
X148405001Y-111217000I-249999J0D01*
G01*
X147504999Y-111217000D01*
G75*
G02*
X147255000Y-110967001I0J249999D01*
G01*
X147255000Y-110266999D01*
G75*
G02*
X147504999Y-110017000I249999J0D01*
G01*
G37*
G36*
G01*
X147504999Y-108017000D02*
X148405001Y-108017000D01*
G75*
G02*
X148655000Y-108266999I0J-249999D01*
G01*
X148655000Y-108967001D01*
G75*
G02*
X148405001Y-109217000I-249999J0D01*
G01*
X147504999Y-109217000D01*
G75*
G02*
X147255000Y-108967001I0J249999D01*
G01*
X147255000Y-108266999D01*
G75*
G02*
X147504999Y-108017000I249999J0D01*
G01*
G37*
D17*
X184213500Y-114046000D03*
X184213500Y-121920000D03*
X198247000Y-121920000D03*
X125222000Y-121920000D03*
X198183500Y-133858000D03*
X125222000Y-114046000D03*
X198247000Y-109855000D03*
G36*
G01*
X140646999Y-124971000D02*
X141547001Y-124971000D01*
G75*
G02*
X141797000Y-125220999I0J-249999D01*
G01*
X141797000Y-125921001D01*
G75*
G02*
X141547001Y-126171000I-249999J0D01*
G01*
X140646999Y-126171000D01*
G75*
G02*
X140397000Y-125921001I0J249999D01*
G01*
X140397000Y-125220999D01*
G75*
G02*
X140646999Y-124971000I249999J0D01*
G01*
G37*
G36*
G01*
X140646999Y-122971000D02*
X141547001Y-122971000D01*
G75*
G02*
X141797000Y-123220999I0J-249999D01*
G01*
X141797000Y-123921001D01*
G75*
G02*
X141547001Y-124171000I-249999J0D01*
G01*
X140646999Y-124171000D01*
G75*
G02*
X140397000Y-123921001I0J249999D01*
G01*
X140397000Y-123220999D01*
G75*
G02*
X140646999Y-122971000I249999J0D01*
G01*
G37*
G36*
G01*
X165448000Y-120432500D02*
X164498000Y-120432500D01*
G75*
G02*
X164248000Y-120182500I0J250000D01*
G01*
X164248000Y-119507500D01*
G75*
G02*
X164498000Y-119257500I250000J0D01*
G01*
X165448000Y-119257500D01*
G75*
G02*
X165698000Y-119507500I0J-250000D01*
G01*
X165698000Y-120182500D01*
G75*
G02*
X165448000Y-120432500I-250000J0D01*
G01*
G37*
G36*
G01*
X165448000Y-122507500D02*
X164498000Y-122507500D01*
G75*
G02*
X164248000Y-122257500I0J250000D01*
G01*
X164248000Y-121582500D01*
G75*
G02*
X164498000Y-121332500I250000J0D01*
G01*
X165448000Y-121332500D01*
G75*
G02*
X165698000Y-121582500I0J-250000D01*
G01*
X165698000Y-122257500D01*
G75*
G02*
X165448000Y-122507500I-250000J0D01*
G01*
G37*
G36*
G01*
X164586499Y-109160000D02*
X165486501Y-109160000D01*
G75*
G02*
X165736500Y-109409999I0J-249999D01*
G01*
X165736500Y-110110001D01*
G75*
G02*
X165486501Y-110360000I-249999J0D01*
G01*
X164586499Y-110360000D01*
G75*
G02*
X164336500Y-110110001I0J249999D01*
G01*
X164336500Y-109409999D01*
G75*
G02*
X164586499Y-109160000I249999J0D01*
G01*
G37*
G36*
G01*
X164586499Y-111160000D02*
X165486501Y-111160000D01*
G75*
G02*
X165736500Y-111409999I0J-249999D01*
G01*
X165736500Y-112110001D01*
G75*
G02*
X165486501Y-112360000I-249999J0D01*
G01*
X164586499Y-112360000D01*
G75*
G02*
X164336500Y-112110001I0J249999D01*
G01*
X164336500Y-111409999D01*
G75*
G02*
X164586499Y-111160000I249999J0D01*
G01*
G37*
G36*
G01*
X162629001Y-120520000D02*
X161728999Y-120520000D01*
G75*
G02*
X161479000Y-120270001I0J249999D01*
G01*
X161479000Y-119569999D01*
G75*
G02*
X161728999Y-119320000I249999J0D01*
G01*
X162629001Y-119320000D01*
G75*
G02*
X162879000Y-119569999I0J-249999D01*
G01*
X162879000Y-120270001D01*
G75*
G02*
X162629001Y-120520000I-249999J0D01*
G01*
G37*
G36*
G01*
X162629001Y-122520000D02*
X161728999Y-122520000D01*
G75*
G02*
X161479000Y-122270001I0J249999D01*
G01*
X161479000Y-121569999D01*
G75*
G02*
X161728999Y-121320000I249999J0D01*
G01*
X162629001Y-121320000D01*
G75*
G02*
X162879000Y-121569999I0J-249999D01*
G01*
X162879000Y-122270001D01*
G75*
G02*
X162629001Y-122520000I-249999J0D01*
G01*
G37*
G36*
G01*
X147187499Y-125923500D02*
X148087501Y-125923500D01*
G75*
G02*
X148337500Y-126173499I0J-249999D01*
G01*
X148337500Y-126873501D01*
G75*
G02*
X148087501Y-127123500I-249999J0D01*
G01*
X147187499Y-127123500D01*
G75*
G02*
X146937500Y-126873501I0J249999D01*
G01*
X146937500Y-126173499D01*
G75*
G02*
X147187499Y-125923500I249999J0D01*
G01*
G37*
G36*
G01*
X147187499Y-123923500D02*
X148087501Y-123923500D01*
G75*
G02*
X148337500Y-124173499I0J-249999D01*
G01*
X148337500Y-124873501D01*
G75*
G02*
X148087501Y-125123500I-249999J0D01*
G01*
X147187499Y-125123500D01*
G75*
G02*
X146937500Y-124873501I0J249999D01*
G01*
X146937500Y-124173499D01*
G75*
G02*
X147187499Y-123923500I249999J0D01*
G01*
G37*
G36*
G01*
X140392999Y-134369000D02*
X141293001Y-134369000D01*
G75*
G02*
X141543000Y-134618999I0J-249999D01*
G01*
X141543000Y-135319001D01*
G75*
G02*
X141293001Y-135569000I-249999J0D01*
G01*
X140392999Y-135569000D01*
G75*
G02*
X140143000Y-135319001I0J249999D01*
G01*
X140143000Y-134618999D01*
G75*
G02*
X140392999Y-134369000I249999J0D01*
G01*
G37*
G36*
G01*
X140392999Y-132369000D02*
X141293001Y-132369000D01*
G75*
G02*
X141543000Y-132618999I0J-249999D01*
G01*
X141543000Y-133319001D01*
G75*
G02*
X141293001Y-133569000I-249999J0D01*
G01*
X140392999Y-133569000D01*
G75*
G02*
X140143000Y-133319001I0J249999D01*
G01*
X140143000Y-132618999D01*
G75*
G02*
X140392999Y-132369000I249999J0D01*
G01*
G37*
G36*
G01*
X145155499Y-128622500D02*
X146055501Y-128622500D01*
G75*
G02*
X146305500Y-128872499I0J-249999D01*
G01*
X146305500Y-129572501D01*
G75*
G02*
X146055501Y-129822500I-249999J0D01*
G01*
X145155499Y-129822500D01*
G75*
G02*
X144905500Y-129572501I0J249999D01*
G01*
X144905500Y-128872499D01*
G75*
G02*
X145155499Y-128622500I249999J0D01*
G01*
G37*
G36*
G01*
X145155499Y-126622500D02*
X146055501Y-126622500D01*
G75*
G02*
X146305500Y-126872499I0J-249999D01*
G01*
X146305500Y-127572501D01*
G75*
G02*
X146055501Y-127822500I-249999J0D01*
G01*
X145155499Y-127822500D01*
G75*
G02*
X144905500Y-127572501I0J249999D01*
G01*
X144905500Y-126872499D01*
G75*
G02*
X145155499Y-126622500I249999J0D01*
G01*
G37*
G36*
G01*
X142869499Y-128622500D02*
X143769501Y-128622500D01*
G75*
G02*
X144019500Y-128872499I0J-249999D01*
G01*
X144019500Y-129572501D01*
G75*
G02*
X143769501Y-129822500I-249999J0D01*
G01*
X142869499Y-129822500D01*
G75*
G02*
X142619500Y-129572501I0J249999D01*
G01*
X142619500Y-128872499D01*
G75*
G02*
X142869499Y-128622500I249999J0D01*
G01*
G37*
G36*
G01*
X142869499Y-126622500D02*
X143769501Y-126622500D01*
G75*
G02*
X144019500Y-126872499I0J-249999D01*
G01*
X144019500Y-127572501D01*
G75*
G02*
X143769501Y-127822500I-249999J0D01*
G01*
X142869499Y-127822500D01*
G75*
G02*
X142619500Y-127572501I0J249999D01*
G01*
X142619500Y-126872499D01*
G75*
G02*
X142869499Y-126622500I249999J0D01*
G01*
G37*
D16*
X168907500Y-111792000D03*
X167007500Y-111792000D03*
X167957500Y-113792000D03*
D18*
X126238000Y-100330000D03*
X125984000Y-143510000D03*
X199644000Y-143510000D03*
X199644000Y-100330000D03*
D13*
X128778000Y-121920000D03*
X133778000Y-121920000D03*
M02*
