M48
; DRILL file {KiCad (5.1.10-0-10_14)} date Thursday, May 20, 2021 at 05:40:13 PM
; FORMAT={-:-/ absolute / inch / decimal}
; #@! TF.CreationDate,2021-05-20T17:40:13+02:00
; #@! TF.GenerationSoftware,Kicad,Pcbnew,(5.1.10-0-10_14)
; #@! TF.FileFunction,Plated,1,2,PTH
FMAT,2
INCH
T1C0.0118
T2C0.0157
T3C0.0315
T4C0.0394
%
G90
G05
T1
X5.5725Y-4.89
X5.725Y-4.7625
X5.725Y-4.8575
X5.75Y-4.4125
X5.7625Y-4.89
X5.7775Y-4.8
X5.92Y-4.45
X5.98Y-4.735
X6.05Y-4.9575
X6.0575Y-4.3
X6.0975Y-4.655
X6.1623Y-5.1402
X6.2575Y-4.5425
X6.265Y-4.72
X6.32Y-4.9575
X6.5025Y-4.4775
X6.53Y-4.6175
X6.56Y-4.72
X6.5975Y-5.0025
X6.6004Y-4.5371
X6.6238Y-4.2888
X6.635Y-4.5125
X6.635Y-4.72
X6.635Y-4.8925
X6.6975Y-4.6175
X6.8025Y-4.72
T2
X6.069Y-4.8
T3
X5.15Y-4.8
X5.3469Y-4.8
X5.695Y-3.9672
X5.695Y-4.105
X5.6956Y-4.2725
X5.7925Y-5.17
X5.7925Y-5.34
X5.7925Y-5.4778
X5.8925Y-4.2725
X5.9894Y-5.17
X6.4256Y-4.185
X6.6225Y-4.185
X6.7225Y-5.1522
X6.7225Y-5.29
X6.725Y-4.9625
X6.8675Y-4.0447
X6.8675Y-4.1825
X6.9219Y-4.9625
T4
X4.975Y-4.6
X4.975Y-5.0
X7.175Y-4.6
X7.175Y-5.0
X7.6675Y-4.8
X7.72Y-5.1425
X7.725Y-4.45
T0
M30
